<svg xmlns="http://www.w3.org/2000/svg" viewBox="0 0 240 90"><defs><style>.cls-1{fill:#0082ca;}</style></defs><title>aletryx-logo_240x90_web</title><g id="Guidelines"><path class="cls-1" d="M60.4,57.1a1.39,1.39,0,0,0-1.37-1,2.67,2.67,0,0,0-.53.07,11.49,11.49,0,0,1-2.12.34c-1.34.06-1.57-.46-1.66-2V34a1.75,1.75,0,0,0-.65-1.23l-.13-.09a.71.71,0,0,0-.14-.1A19.43,19.43,0,0,0,49.26,31l-.11,0a25.89,25.89,0,0,0-6-.69,25.38,25.38,0,0,0-2.71.15,29,29,0,0,0-4.13.77,1.44,1.44,0,0,0-1,1.16A10.71,10.71,0,0,0,35.75,34c.27.84.56,1,1.09,1.15a9.54,9.54,0,0,0,2-.25,20.82,20.82,0,0,1,3.35-.41,20.35,20.35,0,0,1,3.56.18,8.41,8.41,0,0,1,3.71,1.23v8h-.24L43.47,44c-7.64.24-11.18,3.28-11.13,9.38a8.15,8.15,0,0,0,2.52,6.44,9.68,9.68,0,0,0,6.5,2.06h0a13,13,0,0,0,8.41-3l.25-.2.13.29a4.59,4.59,0,0,0,3.17,2.66,8.91,8.91,0,0,0,2.38.27q.38,0,.72,0a10.73,10.73,0,0,0,3.32-.89c.71-.34,1.21-.76,1.17-1.5a15.71,15.71,0,0,0-.52-2.32M49.68,55.24l-.1.07-.11.07a13.5,13.5,0,0,1-7.07,2.19h0C39,57.5,37.74,56.29,37.67,53c.08-3.78,1.34-5,5.61-5.22l5.88-.27h.52Z"/><path class="cls-1" d="M144.85,61.71h-2.78a1.31,1.31,0,0,1-1-.39,1.61,1.61,0,0,1-.32-1.09V33.91a1.21,1.21,0,0,1,1.35-1.42h2.51a1.49,1.49,0,0,1,1,.3,1.21,1.21,0,0,1,.38,1l0,.69,0,.6.4-.43a8.24,8.24,0,0,1,6.11-2.79,10.36,10.36,0,0,1,1.74.18.86.86,0,0,1,.69.9,3.32,3.32,0,0,1,0,.35l-.42,2.65a.87.87,0,0,1-.81.8,3.89,3.89,0,0,1-.7-.07,7.82,7.82,0,0,0-1.25-.11,7.4,7.4,0,0,0-5.56,3.29l0,.06V60.23a1.57,1.57,0,0,1-.34,1.06,1.27,1.27,0,0,1-1,.42"/><path class="cls-1" d="M121.73,30.72c-7.14,0-12.52,5-12.52,16.28,0,10.36,4.85,15.45,14,15.45A25.45,25.45,0,0,0,128,62l.78-.18a17.36,17.36,0,0,0,2.46-.89,1.47,1.47,0,0,0,1.05-1.22,24,24,0,0,0-.6-2.47,1.28,1.28,0,0,0-1.22-.86c-.17,0-2.63.53-2.77.58a18.19,18.19,0,0,1-4.4.57c-6.49,0-8.43-3.1-8.43-9.49v-.47h17a1.08,1.08,0,0,0,1-.93,1.62,1.62,0,0,1,0-.22c.06-1.12.1-2.29.1-3.24,0-7.84-3.81-12.41-11.25-12.41m6,13.18H114.94c.18-6.44,2.64-9.08,6.67-9.08S127.77,37,127.77,42c0,.39,0,1.4-.06,1.87"/><path class="cls-1" d="M162,73.56h-.19a13.48,13.48,0,0,1-2.65-.23c-.49-.09-.68-.74-.58-1.62a14.1,14.1,0,0,1,.2-1.62c.13-.68.46-1,.82-1H160c.16,0,.39,0,.61.06.49,0,1,.11,1.39.11,3.32,0,5.11-1.25,6.38-4.32l1.53-3.74.14-.4.06-.16-.06-.18-10.22-27a1.18,1.18,0,0,1-.06-.36.68.68,0,0,1,.16-.45.64.64,0,0,1,.49-.2h3.87a1.1,1.1,0,0,1,1.11.73l6.72,19.36.45,1.29.46-1.29,7-19.21a1.14,1.14,0,0,1,1.09-.89h3.35a.87.87,0,0,1,.58.16.48.48,0,0,1,.18.41,1.26,1.26,0,0,1-.1.49L173.66,64.19C171.17,71,168,73.56,162,73.56"/><path class="cls-1" d="M208.09,61.63a1.67,1.67,0,0,1-1.53-.88l-6.11-9.43-.21-.32-.21.32-6.1,9.42a1.68,1.68,0,0,1-1.54.89H189a1,1,0,0,1-.62-.18.72.72,0,0,1-.25-.59,1.45,1.45,0,0,1,.25-.79l8.84-13.41.1-.14-.1-.13L189.1,33.82a1,1,0,0,1-.21-.61.89.89,0,0,1,.94-.85h3.07a1.48,1.48,0,0,1,1.4.73l5.74,8.7.2.3.19-.3,5.71-8.64a1.5,1.5,0,0,1,1.37-.79h3.14a.9.9,0,0,1,.95.84,1.09,1.09,0,0,1-.21.6l-8.15,12.58-.09.13.09.14L212.06,60a1.39,1.39,0,0,1,.28.81.73.73,0,0,1-.25.6,1,1,0,0,1-.63.18h-3.37Z"/><path class="cls-1" d="M75.77,61.71a11.93,11.93,0,0,1-4-.67,6.33,6.33,0,0,1-2.6-1.62c-1.74-1.91-1.89-4.29-1.92-7.43V22a.78.78,0,0,1,.19-.48,9.15,9.15,0,0,1,4-2.55.53.53,0,0,1,.24,0,1,1,0,0,1,.74.29,1.41,1.41,0,0,1,.36,1.06V52.18A5.74,5.74,0,0,0,73.84,56a3.81,3.81,0,0,0,2.92,1,9.32,9.32,0,0,0,1.08-.08,14.89,14.89,0,0,0,2.42-.58,1.18,1.18,0,0,1,.48-.1,1.21,1.21,0,0,1,1.12.89,15.13,15.13,0,0,1,.51,2.26c0,.62-.52,1-1,1.22a16.09,16.09,0,0,1-5.57,1.08"/><path class="cls-1" d="M103.8,57.13a1.21,1.21,0,0,0-1.14-.89,1.32,1.32,0,0,0-.47.1,12.6,12.6,0,0,1-3.38.65l-.13,0a3.82,3.82,0,0,1-2.94-1c-.59-.66-1-1.72-1-3.71v-.11l.16-15.79h6.46a1.4,1.4,0,0,0,.9-.25,1.1,1.1,0,0,0,.37-.9v-2a1.11,1.11,0,0,0-.36-.93,1.44,1.44,0,0,0-.85-.22H94.85V22.22a1.43,1.43,0,0,0-.35-1,1.08,1.08,0,0,0-.74-.3.75.75,0,0,0-.28,0A10.46,10.46,0,0,0,91,22.18a9,9,0,0,0-1.17,1,.78.78,0,0,0-.17.47L89.48,32H86.14a1.24,1.24,0,0,0-.93.35,1.34,1.34,0,0,0-.31,1v1.81a1.12,1.12,0,0,0,1.35,1.37h3.14l-.3,14.86v.63c0,3.15.16,5.54,1.91,7.47,1.33,1.45,3.77,2.29,6.67,2.3a14.83,14.83,0,0,0,5.59-1.08c.5-.21,1.06-.61,1-1.23a13.26,13.26,0,0,0-.51-2.27"/></g></svg>