<?xml version="1.0" encoding="utf-8"?>
<!-- Generator: Adobe Illustrator 23.1.1, SVG Export Plug-In . SVG Version: 6.00 Build 0)  -->
<svg version="1.1" id="Layer_1" xmlns="http://www.w3.org/2000/svg" xmlns:xlink="http://www.w3.org/1999/xlink" x="0px" y="0px"
	 viewBox="0 0 890.8 243" enable-background="new 0 0 890.8 243" xml:space="preserve">
<g id="Layer_3">
</g>
<g>
	<g>
		<g>
			<path fill="#82BD41" d="M392.1,112c-2.4-18.5-16.9-33-35.4-35.5c-0.5-2.5-2.7-4.4-5.3-4.4s-4.8,1.9-5.3,4.4
				c-18.5,2.4-33.1,16.9-35.5,35.4c-2.5,0.4-4.5,2.6-4.5,5.3c0,2.7,1.9,4.8,4.5,5.3c2.4,18.5,17,33.2,35.5,35.5
				c0.5,2.4,2.7,4.2,5.3,4.2c2.6,0,4.7-1.8,5.3-4.2c18.5-2.4,33.1-17,35.5-35.5c2.4-0.5,4.2-2.7,4.2-5.2
				C396.2,114.7,394.4,112.5,392.1,112z M356.2,154.6c-0.7-1.3-1.8-2.4-3.3-2.8v-10.6h-0.2c1-0.5,1.6-1.5,1.6-2.7c0-1.6-1.3-3-3-3
				c-1.6,0-3,1.3-3,3c0,1.1,0.7,2.2,1.6,2.7h-0.2v10.6c-1.5,0.4-2.7,1.5-3.3,2.8c-16.9-2.2-30.4-15.6-32.6-32.6
				c1.7-0.9,2.9-2.7,2.9-4.8s-1.1-3.9-2.8-4.8c2.2-16.9,15.6-30.4,32.6-32.6c0.7,1.3,1.8,2.3,3.2,2.7v11.1c-0.8,0.5-1.4,1.5-1.4,2.5
				c0,1.6,1.3,3,3,3c1.6,0,3-1.3,3-3c0-1.1-0.5-2-1.4-2.5v-11c1.4-0.4,2.5-1.4,3.2-2.7c16.9,2.2,30.3,15.6,32.4,32.4
				c-1.9,0.8-3.1,2.7-3.1,4.9c0,2.2,1.3,4.1,3.1,4.9C386.4,139,373,152.4,356.2,154.6z"/>
			<polygon fill="#82BD41" points="363.4,106.7 364.6,102.5 337.6,102.5 338.9,106.7 			"/>
			<rect x="325.5" y="119.5" fill="#82BD41" width="37" height="4.2"/>
			<rect x="339.8" y="111" fill="#82BD41" width="37.5" height="4.2"/>
			<polygon fill="#82BD41" points="338.9,128 337.6,132.3 364.6,132.3 363.4,128 			"/>
		</g>
	</g>
	<g>
		<g id="Fill-38">
			<path fill="#66BDFF" d="M614.9,121.8c0,21-17,38-38,38s-38-17-38-38s17-38,38-38S614.9,100.8,614.9,121.8"/>
		</g>
		<g id="Fill-40">
			<path fill="#202020" d="M598,117.5c-0.8,0.3-1.7-0.1-2-0.9s0.1-1.7,0.9-2c0.8-0.3,1.7,0.1,2,0.9
				C599.2,116.2,598.8,117.2,598,117.5"/>
		</g>
		<g id="Fill-48">
			<path fill="#202020" d="M574.5,92.9c-0.5,1.2-1.9,1.7-3.1,1.2c-1.2-0.5-1.7-1.9-1.2-3.1s1.9-1.7,3.1-1.2S575.1,91.7,574.5,92.9"
				/>
		</g>
		<g id="Fill-49">
			<path fill="#202020" d="M574.5,142.5c-0.5,1.2-1.9,1.7-3.1,1.2c-1.2-0.5-1.7-1.9-1.2-3.1s1.9-1.7,3.1-1.2
				C574.5,140,575.1,141.3,574.5,142.5"/>
		</g>
		<g id="Fill-50">
			<path fill="#202020" d="M596.3,118.9c-1.2-0.5-1.7-1.9-1.2-3.1s1.9-1.7,3.1-1.2s1.7,1.9,1.2,3.1
				C598.8,118.9,597.4,119.5,596.3,118.9"/>
		</g>
		<g id="Fill-51">
			<path fill="#202020" d="M546.6,118.9c-1.2-0.5-1.7-1.9-1.2-3.1s1.9-1.7,3.1-1.2s1.7,1.9,1.2,3.1S547.8,119.5,546.6,118.9"/>
		</g>
		<g id="Fill-52">
			<path fill="#202020" d="M590.8,101.4c-1.2,0.5-2.6-0.1-3.1-1.3c-0.5-1.2,0.1-2.6,1.3-3.1s2.6,0.1,3.1,1.3
				C592.6,99.6,592,101,590.8,101.4"/>
		</g>
		<g id="Fill-53">
			<path fill="#202020" d="M555.7,136.5c-1.2,0.5-2.6-0.1-3.1-1.3s0.1-2.6,1.3-3.1c1.2-0.5,2.6,0.1,3.1,1.3
				C557.5,134.7,556.9,136,555.7,136.5"/>
		</g>
		<g id="Fill-54">
			<path fill="#202020" d="M595.2,109.6c-1.3,0-2.3-1.1-2.3-2.4c0-1.3,1.1-2.3,2.4-2.3s2.3,1.1,2.3,2.4S596.5,109.6,595.2,109.6"/>
		</g>
		<g id="Fill-55">
			<path fill="#202020" d="M549.5,128.7c-1.3,0-2.3-1.1-2.3-2.4s1.1-2.3,2.4-2.3s2.3,1.1,2.3,2.4
				C551.8,127.7,550.8,128.7,549.5,128.7"/>
		</g>
		<g id="Fill-56">
			<path fill="#202020" d="M593.9,127.4c-0.9-0.9-0.9-2.4,0-3.3c0.9-0.9,2.4-0.9,3.3,0c0.9,0.9,0.9,2.4,0,3.3
				C596.3,128.3,594.8,128.3,593.9,127.4"/>
		</g>
		<g id="Fill-57">
			<path fill="#202020" d="M547.6,109.5c-0.9-0.9-0.9-2.4,0-3.3c0.9-0.9,2.4-0.9,3.3,0c0.9,0.9,0.9,2.4,0,3.3
				C550,110.4,548.5,110.4,547.6,109.5"/>
		</g>
		<g id="Fill-58">
			<path fill="#202020" d="M579.3,139.7c0-1.3,1.1-2.3,2.4-2.3c1.3,0,2.3,1.1,2.3,2.4s-1.1,2.3-2.4,2.3S579.3,141,579.3,139.7"/>
		</g>
		<g id="Fill-59">
			<path fill="#202020" d="M560.7,93.7c0-1.3,1.1-2.3,2.4-2.3s2.3,1.1,2.3,2.4s-1.1,2.3-2.4,2.3S560.7,95,560.7,93.7"/>
		</g>
		<g id="Fill-60">
			<path fill="#202020" d="M561.2,138c0.9-0.9,2.4-0.9,3.3,0.1c0.9,0.9,0.9,2.4-0.1,3.3c-0.9,0.9-2.4,0.9-3.3-0.1
				C560.2,140.4,560.2,138.9,561.2,138"/>
		</g>
		<g id="Fill-61">
			<path fill="#202020" d="M580.3,92.2c0.9-0.9,2.4-0.9,3.3,0.1c0.9,0.9,0.9,2.4-0.1,3.3c-0.9,0.9-2.4,0.9-3.3-0.1
				C579.4,94.6,579.4,93.1,580.3,92.2"/>
		</g>
		<g id="Fill-62">
			<path fill="#202020" d="M587.7,135.2c-0.5-1.2,0.1-2.6,1.3-3.1s2.6,0.1,3.1,1.3s-0.1,2.6-1.3,3.1S588.2,136.4,587.7,135.2"/>
		</g>
		<g id="Fill-63">
			<path fill="#202020" d="M552.7,100.1c-0.5-1.2,0.1-2.6,1.3-3.1s2.6,0.1,3.1,1.3c0.5,1.2-0.1,2.6-1.3,3.1
				C554.5,101.9,553.1,101.3,552.7,100.1"/>
		</g>
		<g id="Stroke-64">
			<path fill="none" stroke="#202020" stroke-width="3" stroke-miterlimit="10" d="M573.7,79.8c-0.1,0-0.1,0-0.2,0
				c-20.4,0-37,16.6-37,37s16.6,37,37,37s37-16.6,37-37c0-9.9-3.9-19.3-10.9-26.3C592.6,83.6,583.4,79.8,573.7,79.8z"/>
		</g>
		<g id="Stroke-65">
			<path fill="none" stroke="#202020" stroke-width="3" stroke-miterlimit="10" d="M573.4,128.8c-6.6,0-12-5.4-12-12s5.4-12,12-12
				c6.6,0,12,5.4,12,12S580,128.8,573.4,128.8z"/>
		</g>
	</g>
	<g id="Stroke-115_1_">
		<path fill="#D8D8D8" d="M752.4,123.3c-3.5,0-6.3-2.8-6.3-6.3s2.8-6.3,6.3-6.3s6.3,2.8,6.3,6.3S755.9,123.3,752.4,123.3z
			 M752.4,113.7c-1.9,0-3.3,1.4-3.3,3.3c0,1.8,1.5,3.3,3.3,3.3c1.9,0,3.3-1.4,3.3-3.3C755.7,115.1,754.3,113.7,752.4,113.7z"/>
	</g>
	<g>
		<path fill="#66BDFF" d="M82.5,130.8v-29.6c0-0.2,0.1-0.4,0.1-0.5c0-3.8-8.6-6.7-19.1-6.6c-10.5,0.1-19,3.2-19,7
			c0,0.3,0.2,30.5,0.2,30.5h0.2c0.1,0.8,0.5,1.5,1.1,2.2l0,0c0,0,0,0,0,0c0.1,0.2,0.3,0.3,0.5,0.5c0,0,0.1,0.1,0.1,0.1
			c0.2,0.1,0.3,0.3,0.5,0.4c0,0,0,0,0.1,0.1c0.2,0.2,0.4,0.3,0.6,0.4c0.1,0,0.1,0.1,0.2,0.1c0.2,0.1,0.5,0.3,0.7,0.4c0,0,0,0,0,0
			c0.2,0.1,0.5,0.3,0.8,0.4c0.1,0,0.1,0.1,0.2,0.1c0.3,0.1,0.6,0.2,0.9,0.4c0.1,0,0.1,0,0.2,0.1c0.3,0.1,0.6,0.2,0.8,0.3
			c0.1,0,0.1,0,0.2,0.1c0.3,0.1,0.7,0.2,1,0.3c0.1,0,0.2,0,0.2,0.1c0.3,0.1,0.7,0.2,1,0.3c0,0,0,0,0.1,0c0.4,0.1,0.7,0.2,1.1,0.2
			c0.1,0,0.2,0,0.3,0.1c0.4,0.1,0.8,0.1,1.2,0.2c0,0,0.1,0,0.1,0c0.4,0.1,0.7,0.1,1.1,0.2c0.1,0,0.2,0,0.3,0
			c0.4,0.1,0.8,0.1,1.2,0.1c0.1,0,0.2,0,0.3,0c0.4,0,0.8,0.1,1.2,0.1c0.1,0,0.1,0,0.2,0c0.4,0,0.9,0,1.3,0.1c0.1,0,0.2,0,0.3,0
			c0.5,0,0.9,0,1.4,0c0.5,0,0.9,0,1.4,0c0.1,0,0.2,0,0.3,0c0.4,0,0.9,0,1.3-0.1c0.1,0,0.1,0,0.2,0c0.4,0,0.8-0.1,1.2-0.1
			c0.1,0,0.2,0,0.2,0c0.4,0,0.8-0.1,1.2-0.2c0.1,0,0.2,0,0.3,0c0.4-0.1,0.8-0.1,1.1-0.2c0,0,0.1,0,0.1,0c0.4-0.1,0.8-0.2,1.2-0.2
			c0.1,0,0.2,0,0.3-0.1c0.4-0.1,0.8-0.2,1.1-0.3c0,0,0,0,0.1,0c0.3-0.1,0.7-0.2,1-0.3c0.1,0,0.2,0,0.2-0.1c0.3-0.1,0.7-0.2,1-0.3
			c0.1,0,0.1,0,0.2-0.1c0.3-0.1,0.6-0.2,0.8-0.3c0.1,0,0.1,0,0.2-0.1c0.3-0.1,0.6-0.3,0.9-0.4c0.1,0,0.1-0.1,0.2-0.1
			c0.3-0.1,0.5-0.3,0.8-0.4c0,0,0,0,0,0c0.3-0.1,0.5-0.3,0.7-0.4c0.1,0,0.1-0.1,0.2-0.1c0.2-0.2,0.4-0.3,0.6-0.5c0,0,0,0,0.1-0.1
			c0.2-0.1,0.4-0.3,0.5-0.4c0,0,0.1-0.1,0.1-0.1c0.2-0.2,0.3-0.3,0.5-0.5c0,0,0,0,0,0l0,0C82.4,132.6,82.5,130.8,82.5,130.8z"/>
		
			<ellipse transform="matrix(1 -9.352132e-03 9.352132e-03 1 -0.903 0.5609)" fill="#FFFFFF" stroke="#202020" stroke-width="3" stroke-miterlimit="10" cx="59.5" cy="96.8" rx="19" ry="6.8"/>
		<path fill="none" stroke="#000000" stroke-width="2" stroke-miterlimit="10" d="M77.8,129.4c-2.6,3.1-9.6,5.3-17.9,5.4
			c-10.5,0.1-19.1-3.3-19.1-7.7"/>
		<path fill="none" stroke="#202020" stroke-width="3" stroke-miterlimit="10" d="M41.9,129.7c2.6,3,9.7,5.2,18,5.1
			c10.5-0.1,19-3.7,18.9-8"/>
		<path fill="none" stroke="#202020" stroke-width="3" stroke-miterlimit="10" d="M78.6,106.7c0,4.1-8.4,7.6-19,7.7
			c-10.5,0.1-19.1-3.2-19.1-7.3"/>
		<path fill="none" stroke="#202020" stroke-width="3" stroke-miterlimit="10" d="M78.7,117.4c0,4.1-8.4,7.6-19,7.7
			c-10.5,0.1-19.1-3.2-19.1-7.3"/>
		<line fill="none" stroke="#202020" stroke-width="3" stroke-miterlimit="10" x1="78.6" y1="96.9" x2="78.8" y2="126.8"/>
	</g>
	<g>
		<path fill="#66BDFF" d="M112.4,161.6V132c0-0.2,0.1-0.4,0.1-0.5c0-3.8-8.6-6.7-19.1-6.6c-10.5,0.1-19,3.2-19,7
			c0,0.3,0.2,30.5,0.2,30.5h0.2c0.1,0.8,0.5,1.5,1.1,2.2l0,0c0,0,0,0,0,0c0.1,0.2,0.3,0.3,0.5,0.5c0,0,0.1,0.1,0.1,0.1
			c0.2,0.1,0.3,0.3,0.5,0.4c0,0,0,0,0.1,0.1c0.2,0.2,0.4,0.3,0.6,0.4c0.1,0,0.1,0.1,0.2,0.1c0.2,0.1,0.5,0.3,0.7,0.4c0,0,0,0,0,0
			c0.2,0.1,0.5,0.3,0.8,0.4c0.1,0,0.1,0.1,0.2,0.1c0.3,0.1,0.6,0.2,0.9,0.4c0.1,0,0.1,0,0.2,0.1c0.3,0.1,0.6,0.2,0.8,0.3
			c0.1,0,0.1,0,0.2,0.1c0.3,0.1,0.7,0.2,1,0.3c0.1,0,0.2,0,0.2,0.1c0.3,0.1,0.7,0.2,1,0.3c0,0,0,0,0.1,0c0.4,0.1,0.7,0.2,1.1,0.2
			c0.1,0,0.2,0,0.3,0.1c0.4,0.1,0.8,0.1,1.2,0.2c0,0,0.1,0,0.1,0c0.4,0.1,0.7,0.1,1.1,0.2c0.1,0,0.2,0,0.3,0
			c0.4,0.1,0.8,0.1,1.2,0.1c0.1,0,0.2,0,0.3,0c0.4,0,0.8,0.1,1.2,0.1c0.1,0,0.1,0,0.2,0c0.4,0,0.9,0,1.3,0.1c0.1,0,0.2,0,0.3,0
			c0.5,0,0.9,0,1.4,0c0.5,0,0.9,0,1.4,0c0.1,0,0.2,0,0.3,0c0.4,0,0.9,0,1.3-0.1c0.1,0,0.1,0,0.2,0c0.4,0,0.8-0.1,1.2-0.1
			c0.1,0,0.2,0,0.2,0c0.4,0,0.8-0.1,1.2-0.2c0.1,0,0.2,0,0.3,0c0.4-0.1,0.8-0.1,1.1-0.2c0,0,0.1,0,0.1,0c0.4-0.1,0.8-0.2,1.2-0.2
			c0.1,0,0.2,0,0.3-0.1c0.4-0.1,0.8-0.2,1.1-0.3c0,0,0,0,0.1,0c0.3-0.1,0.7-0.2,1-0.3c0.1,0,0.2,0,0.2-0.1c0.3-0.1,0.7-0.2,1-0.3
			c0.1,0,0.1,0,0.2-0.1c0.3-0.1,0.6-0.2,0.8-0.3c0.1,0,0.1,0,0.2-0.1c0.3-0.1,0.6-0.3,0.9-0.4c0.1,0,0.1-0.1,0.2-0.1
			c0.3-0.1,0.5-0.3,0.8-0.4c0,0,0,0,0,0c0.3-0.1,0.5-0.3,0.7-0.4c0.1,0,0.1-0.1,0.2-0.1c0.2-0.2,0.4-0.3,0.6-0.5c0,0,0,0,0.1-0.1
			c0.2-0.1,0.4-0.3,0.5-0.4c0,0,0.1-0.1,0.1-0.1c0.2-0.2,0.3-0.3,0.5-0.5c0,0,0,0,0,0l0,0C112.4,163.4,112.4,161.6,112.4,161.6z"/>
		
			<ellipse transform="matrix(1 -9.352132e-03 9.352132e-03 1 -1.19 0.8423)" fill="#FFFFFF" stroke="#202020" stroke-width="3" stroke-miterlimit="10" cx="89.5" cy="127.7" rx="19" ry="6.8"/>
		<path fill="none" stroke="#000000" stroke-width="2" stroke-miterlimit="10" d="M107.7,160.2c-2.6,3.1-9.6,5.3-17.9,5.4
			c-10.5,0.1-19.1-3.3-19.1-7.7"/>
		<path fill="none" stroke="#202020" stroke-width="3" stroke-miterlimit="10" d="M71.8,160.6c2.6,3,9.7,5.2,18,5.1
			c10.5-0.1,19-3.7,18.9-8"/>
		<path fill="none" stroke="#202020" stroke-width="3" stroke-miterlimit="10" d="M108.6,137.5c0,4.1-8.4,7.6-19,7.7
			s-19.1-3.2-19.1-7.3"/>
		<path fill="none" stroke="#202020" stroke-width="3" stroke-miterlimit="10" d="M108.7,148.2c0,4.1-8.4,7.6-19,7.7
			c-10.5,0.1-19.1-3.2-19.1-7.3"/>
		<line fill="none" stroke="#202020" stroke-width="3" stroke-miterlimit="10" x1="108.5" y1="127.7" x2="108.7" y2="157.6"/>
	</g>
	<g>
		<path fill="#66BDFF" d="M85.8,78c0-4.3,2.7-8,6.5-9.5c0.2-6.3,5.3-11.3,11.6-11.3c1,0,2,0.1,2.9,0.4c2.3-4.1,6.6-6.9,11.6-6.9
			c7.3,0,13.3,5.9,13.3,13.3c0,0.4,0,0.9-0.1,1.3c5.1,1.2,8.8,5.8,8.8,11.3c0,5.8-4.3,10.7-9.9,11.5l-0.9,0.1H95.3L94.1,88
			C89.4,87.1,85.8,83,85.8,78z"/>
		<g>
			<path fill="none" stroke="#202020" stroke-width="3" stroke-miterlimit="10" d="M116,83.5H94.3l-1.2-0.2c-4.7-0.9-8.3-5-8.3-10
				c0-4.3,2.7-8,6.5-9.5c0.2-6.3,5.3-11.3,11.6-11.3c1,0,2,0.1,2.9,0.4c2.3-4.1,6.6-6.9,11.6-6.9c7.3,0,13.3,5.9,13.3,13.3
				c0,0.4,0,1.5-0.1,2c2.2,0.6,4.2,1.8,5.7,3.4"/>
			<path fill="none" stroke="#202020" stroke-width="3" stroke-miterlimit="10" d="M116,83.5h12.7l0.9-0.1c3.1-0.5,5.7-1.6,7.5-3.6"
				/>
		</g>
	</g>
	<g>
		<g>
			
				<line fill="none" stroke="#D8D8D8" stroke-width="3" stroke-linecap="round" stroke-miterlimit="10" x1="165" y1="63.5" x2="165" y2="63.5"/>
			
				<path fill="none" stroke="#D8D8D8" stroke-width="3" stroke-linecap="round" stroke-miterlimit="10" stroke-dasharray="0,5.8863" d="
				M167.5,68.8c20.9,37.5,96.6,39.6,127.1,39.2"/>
			
				<line fill="none" stroke="#D8D8D8" stroke-width="3" stroke-linecap="round" stroke-miterlimit="10" x1="297.5" y1="108" x2="297.5" y2="108"/>
		</g>
	</g>
	<path fill="none" stroke="#D8D8D8" stroke-width="3" stroke-linecap="round" stroke-miterlimit="10" stroke-dasharray="0,6" d="
		M147.3,117.5c32.7,0,118.5,0,151.2,0"/>
	<path fill="none" stroke="#D8D8D8" stroke-width="4" stroke-linecap="round" stroke-miterlimit="10" stroke-dasharray="0,8" d="
		M409.5,117c49.7,0,64.4,0,114,0"/>
	<g>
		<g>
			<path fill="#66BDFF" d="M768.7,136.1c9.5-1.6,15.9-9.8,23.1-16.5c7.2-6.7,17-12.8,26-9.2c5.9,2.3,9.5,8.2,14.6,11.9
				c3.6,2.8,8,4.4,11.9,6.7c2.1,1.1,4.9,2.6,6.1,4.6v9.7h-81.7C768.8,140.5,768.7,138.7,768.7,136.1"/>
		</g>
	</g>
	<rect x="774.3" y="128.2" fill="#202020" width="3" height="16.4"/>
	<rect x="830.2" y="106.9" fill="#202020" width="3" height="37.6"/>
	<rect x="841.3" y="118.4" fill="#202020" width="3" height="26.2"/>
	<rect x="796.5" y="115.1" fill="#202020" width="3" height="29.5"/>
	<rect x="785.4" y="115.1" fill="#202020" width="3" height="29.5"/>
	<path fill="#202020" d="M787.7,105.9c-1.1-0.4-2.1,0-2.7,1.1c-0.4,1.1,0,2.1,1.1,2.6c1.1,0.4,2.1,0,2.7-1.1
		C789.1,107.5,788.6,106.3,787.7,105.9z"/>
	<rect x="808.1" y="93.8" fill="#202020" width="3" height="50.7"/>
	<path fill="#202020" d="M810.4,84.7c-1-0.4-2.1,0-2.6,1c-0.4,1,0,2.1,1,2.6s2.1,0,2.6-1S811.4,85.2,810.4,84.7z"/>
	<rect x="819.2" y="134.7" fill="#202020" width="3" height="9.8"/>
	<path fill="#202020" d="M821.5,126.7c-1-0.4-2.1,0-2.6,1s0,2.1,1,2.6s2.1,0,2.6-1C822.9,128.4,822.5,127.2,821.5,126.7z"/>
	<path fill="#202020" d="M821.5,117.6c-1-0.4-2.1,0-2.6,1s0,2.1,1,2.6c1,0.5,2.1,0,2.6-1C822.9,119.1,822.5,117.9,821.5,117.6z"/>
	<g id="Stroke-115_2_">
		<path fill="#D8D8D8" d="M162,66.1c-3.5,0-6.3-2.8-6.3-6.3s2.8-6.3,6.3-6.3s6.3,2.8,6.3,6.3S165.5,66.1,162,66.1z M162,56.5
			c-1.9,0-3.3,1.4-3.3,3.3c0,1.8,1.5,3.3,3.3,3.3c1.9,0,3.3-1.4,3.3-3.3S163.9,56.5,162,56.5z"/>
	</g>
	<g id="Stroke-115_3_">
		<path fill="#D8D8D8" d="M136.7,123.8c-3.5,0-6.3-2.8-6.3-6.3s2.8-6.3,6.3-6.3s6.3,2.8,6.3,6.3S140.2,123.8,136.7,123.8z
			 M136.7,114.2c-1.9,0-3.3,1.4-3.3,3.3c0,1.8,1.5,3.3,3.3,3.3c1.9,0,3.3-1.4,3.3-3.3S138.6,114.2,136.7,114.2z"/>
	</g>
	<g id="Stroke-115_4_">
		<path fill="#D8D8D8" d="M162,181.1c-3.5,0-6.3-2.8-6.3-6.3c0-3.5,2.8-6.3,6.3-6.3s6.3,2.8,6.3,6.3
			C168.3,178.3,165.5,181.1,162,181.1z M162,171.5c-1.9,0-3.3,1.4-3.3,3.3c0,1.8,1.5,3.3,3.3,3.3c1.9,0,3.3-1.4,3.3-3.3
			C165.3,172.9,163.9,171.5,162,171.5z"/>
	</g>
	<g>
		<g>
			
				<line fill="none" stroke="#D8D8D8" stroke-width="3" stroke-linecap="round" stroke-miterlimit="10" x1="165.2" y1="172" x2="165.2" y2="172"/>
			
				<path fill="none" stroke="#D8D8D8" stroke-width="3" stroke-linecap="round" stroke-miterlimit="10" stroke-dasharray="0,5.8863" d="
				M167.7,166.7c20.9-37.5,96.6-39.6,127.1-39.2"/>
			
				<line fill="none" stroke="#D8D8D8" stroke-width="3" stroke-linecap="round" stroke-miterlimit="10" x1="297.7" y1="127.5" x2="297.7" y2="127.5"/>
		</g>
	</g>
	<path fill="none" stroke="#D8D8D8" stroke-width="4" stroke-linecap="round" stroke-miterlimit="10" stroke-dasharray="0,8" d="
		M627.3,117c49.7,0,64.4,0,114,0"/>
	<g>
		<path fill="#202020" d="M45.7,184.3h2.4c2.8,0,4.5,1.5,4.5,4.5s-1.7,4.6-4.4,4.6h-2.5V184.3z M48,192.1c1.8,0,2.9-1,2.9-3.3
			s-1.1-3.2-2.9-3.2h-0.7v6.5H48z"/>
		<path fill="#202020" d="M53.9,191.6c0-1.5,1.2-2.2,4-2.5c0-0.7-0.3-1.4-1.2-1.4c-0.7,0-1.3,0.3-1.9,0.7l-0.6-1.1
			c0.8-0.5,1.7-0.9,2.8-0.9c1.7,0,2.6,1.1,2.6,3v4.1h-1.3l-0.1-0.8h0c-0.6,0.5-1.3,0.9-2.1,0.9C54.8,193.6,53.9,192.8,53.9,191.6z
			 M58,191.6v-1.5c-1.9,0.2-2.5,0.7-2.5,1.4c0,0.6,0.4,0.9,1,0.9C57.1,192.4,57.5,192.1,58,191.6z"/>
		<path fill="#202020" d="M61.6,191.1v-3.3h-1v-1.2l1.1-0.1l0.2-1.9h1.3v1.9h1.8v1.3h-1.8v3.3c0,0.8,0.3,1.2,1,1.2
			c0.2,0,0.5-0.1,0.7-0.2l0.3,1.2c-0.4,0.1-0.9,0.3-1.4,0.3C62.1,193.6,61.6,192.6,61.6,191.1z"/>
		<path fill="#202020" d="M65.7,191.6c0-1.5,1.2-2.2,4-2.5c0-0.7-0.3-1.4-1.2-1.4c-0.7,0-1.3,0.3-1.9,0.7l-0.6-1.1
			c0.8-0.5,1.7-0.9,2.8-0.9c1.7,0,2.6,1.1,2.6,3v4.1H70l-0.1-0.8h0c-0.6,0.5-1.3,0.9-2.1,0.9C66.5,193.6,65.7,192.8,65.7,191.6z
			 M69.7,191.6v-1.5c-1.9,0.2-2.5,0.7-2.5,1.4c0,0.6,0.4,0.9,1,0.9C68.8,192.4,69.2,192.1,69.7,191.6z"/>
		<path fill="#202020" d="M75.4,192.7l0.8-1c0.6,0.5,1.2,0.8,1.9,0.8c0.8,0,1.1-0.4,1.1-0.8c0-0.6-0.7-0.8-1.5-1.1
			c-0.9-0.3-1.9-0.9-1.9-2c0-1.2,1-2.1,2.5-2.1c1,0,1.7,0.4,2.3,0.8l-0.7,1c-0.5-0.4-1-0.6-1.5-0.6c-0.7,0-1,0.3-1,0.8
			c0,0.5,0.7,0.8,1.4,1c0.9,0.3,2,0.8,2,2.1c0,1.2-0.9,2.1-2.7,2.1C77.1,193.6,76.1,193.2,75.4,192.7z"/>
		<path fill="#202020" d="M81.7,190c0-2.3,1.6-3.6,3.3-3.6c1.7,0,3.3,1.3,3.3,3.6c0,2.3-1.6,3.6-3.3,3.6
			C83.2,193.6,81.7,192.3,81.7,190z M86.6,190c0-1.4-0.6-2.3-1.6-2.3c-1,0-1.6,0.9-1.6,2.3s0.6,2.3,1.6,2.3
			C86,192.3,86.6,191.4,86.6,190z"/>
		<path fill="#202020" d="M89.7,190.9v-4.3h1.6v4.1c0,1.1,0.3,1.6,1.1,1.6c0.6,0,1-0.3,1.5-1v-4.7h1.6v6.9h-1.3l-0.1-1h0
			c-0.6,0.7-1.3,1.2-2.2,1.2C90.4,193.6,89.7,192.6,89.7,190.9z"/>
		<path fill="#202020" d="M97.6,186.6h1.3l0.1,1.2h0c0.5-0.9,1.2-1.4,2-1.4c0.4,0,0.6,0,0.8,0.1l-0.3,1.4c-0.2-0.1-0.4-0.1-0.7-0.1
			c-0.5,0-1.2,0.4-1.6,1.4v4.2h-1.6V186.6z"/>
		<path fill="#202020" d="M102.2,190c0-2.3,1.6-3.6,3.5-3.6c0.9,0,1.5,0.3,2,0.8l-0.8,1c-0.4-0.3-0.7-0.5-1.1-0.5
			c-1.1,0-1.9,0.9-1.9,2.3s0.8,2.3,1.8,2.3c0.5,0,1-0.3,1.4-0.6l0.7,1.1c-0.6,0.6-1.5,0.8-2.2,0.8
			C103.7,193.6,102.2,192.3,102.2,190z"/>
		<path fill="#202020" d="M108.4,190c0-2.2,1.6-3.6,3.2-3.6c1.9,0,2.8,1.3,2.8,3.3c0,0.3,0,0.6-0.1,0.8h-4.4c0.1,1.2,0.9,1.9,2,1.9
			c0.6,0,1.1-0.2,1.6-0.5l0.5,1c-0.7,0.4-1.5,0.7-2.4,0.7C109.9,193.6,108.4,192.3,108.4,190z M113,189.4c0-1.1-0.5-1.7-1.4-1.7
			c-0.8,0-1.5,0.6-1.6,1.7H113z"/>
		<path fill="#202020" d="M115.2,192.7l0.8-1c0.6,0.5,1.2,0.8,1.9,0.8c0.8,0,1.1-0.4,1.1-0.8c0-0.6-0.7-0.8-1.5-1.1
			c-0.9-0.3-1.9-0.9-1.9-2c0-1.2,1-2.1,2.5-2.1c1,0,1.7,0.4,2.3,0.8l-0.7,1c-0.5-0.4-1-0.6-1.5-0.6c-0.7,0-1,0.3-1,0.8
			c0,0.5,0.7,0.8,1.4,1c0.9,0.3,2,0.8,2,2.1c0,1.2-0.9,2.1-2.7,2.1C116.9,193.6,115.9,193.2,115.2,192.7z"/>
	</g>
	<g>
		<path fill="#202020" d="M334.4,193l0.9-1.1c0.7,0.6,1.5,1,2.4,1c1,0,1.6-0.5,1.6-1.2c0-0.8-0.6-1-1.4-1.3l-1.3-0.5
			c-0.9-0.4-1.9-1.1-1.9-2.4c0-1.5,1.3-2.6,3.1-2.6c1.1,0,2.1,0.4,2.8,1.2l-0.8,1c-0.6-0.5-1.2-0.8-2-0.8c-0.9,0-1.4,0.4-1.4,1.1
			c0,0.7,0.7,1,1.5,1.3l1.2,0.5c1.1,0.5,1.9,1.1,1.9,2.5c0,1.5-1.2,2.7-3.3,2.7C336.5,194.4,335.3,193.9,334.4,193z"/>
		<path fill="#202020" d="M342.4,191.9v-3.3h-1v-1.2l1.1-0.1l0.2-1.9h1.3v1.9h1.8v1.3H344v3.3c0,0.8,0.3,1.2,1,1.2
			c0.2,0,0.5-0.1,0.7-0.2l0.3,1.2c-0.4,0.1-0.9,0.3-1.4,0.3C343,194.4,342.4,193.4,342.4,191.9z"/>
		<path fill="#202020" d="M347.1,185.2c0-0.5,0.4-0.9,1-0.9c0.6,0,1,0.4,1,0.9c0,0.5-0.4,0.9-1,0.9
			C347.5,186.1,347.1,185.7,347.1,185.2z M347.2,187.3h1.6v6.9h-1.6V187.3z"/>
		<path fill="#202020" d="M351.1,191.9v-3.3h-1v-1.2l1.1-0.1l0.2-1.9h1.3v1.9h1.8v1.3h-1.8v3.3c0,0.8,0.3,1.2,1,1.2
			c0.2,0,0.5-0.1,0.7-0.2l0.3,1.2c-0.4,0.1-0.9,0.3-1.4,0.3C351.7,194.4,351.1,193.4,351.1,191.9z"/>
		<path fill="#202020" d="M355.3,190.8c0-2.3,1.6-3.6,3.5-3.6c0.9,0,1.5,0.3,2,0.8l-0.8,1c-0.4-0.3-0.7-0.5-1.1-0.5
			c-1.1,0-1.9,0.9-1.9,2.3s0.8,2.3,1.8,2.3c0.5,0,1-0.3,1.4-0.6l0.7,1.1c-0.6,0.6-1.5,0.8-2.2,0.8
			C356.7,194.4,355.3,193.1,355.3,190.8z"/>
		<path fill="#202020" d="M362.2,184.3h1.6v2.6l-0.1,1.3c0.6-0.5,1.3-1,2.2-1c1.5,0,2.1,1,2.1,2.7v4.3h-1.6v-4.1
			c0-1.1-0.3-1.6-1.1-1.6c-0.6,0-1,0.3-1.6,0.9v4.8h-1.6V184.3z"/>
	</g>
	<g>
		<path fill="#202020" d="M771.6,185.1h1.9l3,9.2h-1.7l-1.4-4.9c-0.3-1-0.6-2-0.8-3h-0.1c-0.3,1-0.5,2.1-0.8,3l-1.4,4.9h-1.7
			L771.6,185.1z M770.4,190.5h4.3v1.3h-4.3V190.5z"/>
		<path fill="#202020" d="M777.5,187.3h1.3l0.1,0.9h0c0.6-0.6,1.3-1.1,2.3-1.1c1.5,0,2.1,1,2.1,2.7v4.3h-1.6v-4.1
			c0-1.1-0.3-1.6-1.1-1.6c-0.6,0-1,0.3-1.6,0.9v4.8h-1.6V187.3z"/>
		<path fill="#202020" d="M785,192.4c0-1.5,1.2-2.2,4-2.5c0-0.7-0.3-1.4-1.2-1.4c-0.7,0-1.3,0.3-1.9,0.7l-0.6-1.1
			c0.8-0.5,1.7-0.9,2.8-0.9c1.7,0,2.6,1.1,2.6,3v4.1h-1.3l-0.1-0.8h0c-0.6,0.5-1.3,0.9-2.1,0.9C785.8,194.4,785,193.6,785,192.4z
			 M789,192.4v-1.5c-1.9,0.2-2.5,0.7-2.5,1.4c0,0.6,0.4,0.9,1,0.9C788.1,193.1,788.5,192.8,789,192.4z"/>
		<path fill="#202020" d="M792.6,192.4v-8.1h1.6v8.2c0,0.4,0.2,0.5,0.3,0.5c0.1,0,0.1,0,0.3,0l0.2,1.2c-0.2,0.1-0.5,0.1-0.9,0.1
			C793,194.4,792.6,193.6,792.6,192.4z"/>
		<path fill="#202020" d="M795.9,196.9l0.3-1.2c0.1,0,0.3,0.1,0.5,0.1c0.7,0,1.1-0.5,1.4-1.2l0.1-0.4l-2.7-6.8h1.6l1.2,3.4
			c0.2,0.6,0.4,1.3,0.6,1.9h0.1c0.2-0.6,0.3-1.3,0.5-1.9l1-3.4h1.6l-2.5,7.2c-0.6,1.5-1.3,2.5-2.8,2.5
			C796.4,197,796.2,197,795.9,196.9z"/>
		<path fill="#202020" d="M802.6,193.4l0.8-1c0.6,0.5,1.2,0.8,1.9,0.8c0.8,0,1.1-0.4,1.1-0.8c0-0.6-0.7-0.8-1.5-1.1
			c-0.9-0.3-1.9-0.9-1.9-2c0-1.2,1-2.1,2.5-2.1c1,0,1.7,0.4,2.3,0.8l-0.7,1c-0.5-0.4-1-0.6-1.5-0.6c-0.7,0-1,0.3-1,0.8
			c0,0.5,0.7,0.8,1.4,1c0.9,0.3,2,0.8,2,2.1c0,1.2-0.9,2.1-2.7,2.1C804.3,194.4,803.3,194,802.6,193.4z"/>
		<path fill="#202020" d="M809.1,185.2c0-0.5,0.4-0.9,1-0.9s1,0.4,1,0.9c0,0.5-0.4,0.9-1,0.9S809.1,185.7,809.1,185.2z M809.3,187.3
			h1.6v6.9h-1.6V187.3z"/>
		<path fill="#202020" d="M812.3,193.4l0.8-1c0.6,0.5,1.2,0.8,1.9,0.8c0.8,0,1.1-0.4,1.1-0.8c0-0.6-0.7-0.8-1.5-1.1
			c-0.9-0.3-1.9-0.9-1.9-2c0-1.2,1-2.1,2.5-2.1c1,0,1.7,0.4,2.3,0.8l-0.7,1c-0.5-0.4-1-0.6-1.5-0.6c-0.7,0-1,0.3-1,0.8
			c0,0.5,0.7,0.8,1.4,1c0.9,0.3,2,0.8,2,2.1c0,1.2-0.9,2.1-2.7,2.1C814,194.4,813,194,812.3,193.4z"/>
		<path fill="#202020" d="M822.1,191.9v-3.3h-1v-1.2l1.1-0.1l0.2-1.9h1.3v1.9h1.8v1.3h-1.8v3.3c0,0.8,0.3,1.2,1,1.2
			c0.2,0,0.5-0.1,0.7-0.2l0.3,1.2c-0.4,0.1-0.9,0.3-1.4,0.3C822.7,194.4,822.1,193.4,822.1,191.9z"/>
		<path fill="#202020" d="M826.2,190.8c0-2.3,1.6-3.6,3.3-3.6s3.3,1.3,3.3,3.6c0,2.3-1.6,3.6-3.3,3.6S826.2,193.1,826.2,190.8z
			 M831.1,190.8c0-1.4-0.6-2.3-1.6-2.3s-1.6,0.9-1.6,2.3s0.6,2.3,1.6,2.3S831.1,192.2,831.1,190.8z"/>
		<path fill="#202020" d="M833.9,190.8c0-2.3,1.6-3.6,3.3-3.6s3.3,1.3,3.3,3.6c0,2.3-1.6,3.6-3.3,3.6S833.9,193.1,833.9,190.8z
			 M838.8,190.8c0-1.4-0.6-2.3-1.6-2.3s-1.6,0.9-1.6,2.3s0.6,2.3,1.6,2.3S838.8,192.2,838.8,190.8z"/>
		<path fill="#202020" d="M841.9,192.4v-8.1h1.6v8.2c0,0.4,0.2,0.5,0.3,0.5c0.1,0,0.1,0,0.3,0l0.2,1.2c-0.2,0.1-0.5,0.1-0.9,0.1
			C842.4,194.4,841.9,193.6,841.9,192.4z"/>
		<path fill="#202020" d="M845.1,193.4l0.8-1c0.6,0.5,1.2,0.8,1.9,0.8c0.8,0,1.1-0.4,1.1-0.8c0-0.6-0.7-0.8-1.5-1.1
			c-0.9-0.3-1.9-0.9-1.9-2c0-1.2,1-2.1,2.5-2.1c1,0,1.7,0.4,2.3,0.8l-0.7,1c-0.5-0.4-1-0.6-1.5-0.6c-0.7,0-1,0.3-1,0.8
			c0,0.5,0.7,0.8,1.4,1c0.9,0.3,2,0.8,2,2.1c0,1.2-0.9,2.1-2.7,2.1C846.7,194.4,845.7,194,845.1,193.4z"/>
	</g>
	<g>
		<path fill="#202020" d="M527.2,185h2.4c2.8,0,4.5,1.5,4.5,4.5s-1.7,4.6-4.4,4.6h-2.5V185z M529.5,192.9c1.8,0,2.9-1,2.9-3.3
			s-1.1-3.2-2.9-3.2h-0.7v6.5H529.5z"/>
		<path fill="#202020" d="M535.4,192.3c0-1.5,1.2-2.2,4-2.5c0-0.7-0.3-1.4-1.2-1.4c-0.7,0-1.3,0.3-1.9,0.7l-0.6-1.1
			c0.8-0.5,1.7-0.9,2.8-0.9c1.7,0,2.6,1.1,2.6,3v4.1h-1.3l-0.1-0.8h0c-0.6,0.5-1.3,0.9-2.1,0.9C536.3,194.4,535.4,193.5,535.4,192.3
			z M539.5,192.4v-1.5c-1.9,0.2-2.5,0.7-2.5,1.4c0,0.6,0.4,0.9,1,0.9C538.5,193.1,539,192.8,539.5,192.4z"/>
		<path fill="#202020" d="M543,191.9v-3.3h-1v-1.2l1.1-0.1l0.2-1.9h1.3v1.9h1.8v1.3h-1.8v3.3c0,0.8,0.3,1.2,1,1.2
			c0.2,0,0.5-0.1,0.7-0.2l0.3,1.2c-0.4,0.1-0.9,0.3-1.4,0.3C543.6,194.4,543,193.4,543,191.9z"/>
		<path fill="#202020" d="M547.2,192.3c0-1.5,1.2-2.2,4-2.5c0-0.7-0.3-1.4-1.2-1.4c-0.7,0-1.3,0.3-1.9,0.7l-0.6-1.1
			c0.8-0.5,1.7-0.9,2.8-0.9c1.7,0,2.6,1.1,2.6,3v4.1h-1.3l-0.1-0.8h0c-0.6,0.5-1.3,0.9-2.1,0.9C548,194.4,547.2,193.5,547.2,192.3z
			 M551.2,192.4v-1.5c-1.9,0.2-2.5,0.7-2.5,1.4c0,0.6,0.4,0.9,1,0.9C550.3,193.1,550.7,192.8,551.2,192.4z"/>
		<path fill="#202020" d="M556.9,187.3h1.6l0.8,3.6c0.1,0.7,0.2,1.3,0.4,2h0.1c0.1-0.7,0.3-1.3,0.4-2l0.9-3.6h1.5l0.9,3.6
			c0.2,0.7,0.3,1.3,0.5,2h0.1c0.1-0.7,0.2-1.3,0.4-2l0.8-3.6h1.5l-1.7,6.9H563l-0.8-3.2c-0.1-0.6-0.3-1.3-0.4-2h-0.1
			c-0.1,0.7-0.3,1.4-0.4,2l-0.8,3.2h-1.9L556.9,187.3z"/>
		<path fill="#202020" d="M567.6,192.3c0-1.5,1.2-2.2,4-2.5c0-0.7-0.3-1.4-1.2-1.4c-0.7,0-1.3,0.3-1.9,0.7l-0.6-1.1
			c0.8-0.5,1.7-0.9,2.8-0.9c1.7,0,2.6,1.1,2.6,3v4.1h-1.3l-0.1-0.8h0c-0.6,0.5-1.3,0.9-2.1,0.9C568.4,194.4,567.6,193.5,567.6,192.3
			z M571.6,192.4v-1.5c-1.9,0.2-2.5,0.7-2.5,1.4c0,0.6,0.4,0.9,1,0.9C570.7,193.1,571.1,192.8,571.6,192.4z"/>
		<path fill="#202020" d="M575.1,187.3h1.3l0.1,1.2h0c0.5-0.9,1.2-1.4,2-1.4c0.4,0,0.6,0,0.8,0.1l-0.3,1.4c-0.2-0.1-0.4-0.1-0.7-0.1
			c-0.5,0-1.2,0.4-1.6,1.4v4.2h-1.6V187.3z"/>
		<path fill="#202020" d="M579.8,190.8c0-2.2,1.6-3.6,3.2-3.6c1.9,0,2.8,1.3,2.8,3.3c0,0.3,0,0.6-0.1,0.8h-4.4
			c0.1,1.2,0.9,1.9,2,1.9c0.6,0,1.1-0.2,1.6-0.5l0.5,1c-0.7,0.4-1.5,0.7-2.4,0.7C581.3,194.4,579.8,193,579.8,190.8z M584.4,190.1
			c0-1.1-0.5-1.7-1.4-1.7c-0.8,0-1.5,0.6-1.6,1.7H584.4z"/>
		<path fill="#202020" d="M587.3,184.3h1.6v2.6l-0.1,1.3c0.6-0.5,1.3-1,2.2-1c1.5,0,2.1,1,2.1,2.7v4.3h-1.6v-4.1
			c0-1.1-0.3-1.6-1.1-1.6c-0.6,0-1,0.3-1.6,0.9v4.8h-1.6V184.3z"/>
		<path fill="#202020" d="M594.7,190.8c0-2.3,1.6-3.6,3.3-3.6c1.7,0,3.3,1.3,3.3,3.6c0,2.3-1.6,3.6-3.3,3.6
			C596.2,194.4,594.7,193,594.7,190.8z M599.6,190.8c0-1.4-0.6-2.3-1.6-2.3c-1,0-1.6,0.9-1.6,2.3s0.6,2.3,1.6,2.3
			C599,193,599.6,192.1,599.6,190.8z"/>
		<path fill="#202020" d="M602.7,191.6v-4.3h1.6v4.1c0,1.1,0.3,1.6,1.1,1.6c0.6,0,1-0.3,1.5-1v-4.7h1.6v6.9h-1.3l-0.1-1h0
			c-0.6,0.7-1.3,1.2-2.2,1.2C603.4,194.4,602.7,193.4,602.7,191.6z"/>
		<path fill="#202020" d="M609.9,193.4l0.8-1c0.6,0.5,1.2,0.8,1.9,0.8c0.8,0,1.1-0.4,1.1-0.8c0-0.6-0.7-0.8-1.5-1.1
			c-0.9-0.3-1.9-0.9-1.9-2c0-1.2,1-2.1,2.5-2.1c1,0,1.7,0.4,2.3,0.8l-0.7,1c-0.5-0.4-1-0.6-1.5-0.6c-0.7,0-1,0.3-1,0.8
			c0,0.5,0.7,0.8,1.4,1c0.9,0.3,2,0.8,2,2.1c0,1.2-0.9,2.1-2.7,2.1C611.6,194.4,610.6,194,609.9,193.4z"/>
		<path fill="#202020" d="M616.2,190.8c0-2.2,1.6-3.6,3.2-3.6c1.9,0,2.8,1.3,2.8,3.3c0,0.3,0,0.6-0.1,0.8h-4.4
			c0.1,1.2,0.9,1.9,2,1.9c0.6,0,1.1-0.2,1.6-0.5l0.5,1c-0.7,0.4-1.5,0.7-2.4,0.7C617.7,194.4,616.2,193,616.2,190.8z M620.8,190.1
			c0-1.1-0.5-1.7-1.4-1.7c-0.8,0-1.5,0.6-1.6,1.7H620.8z"/>
	</g>
</g>
</svg>
