<svg width="160" height="50" xmlns="http://www.w3.org/2000/svg" xmlns:svg="http://www.w3.org/2000/svg">
 <title>chartio-icon</title>
 <g>
  <title>Layer 1</title>
  <g stroke="null" id="svg_1">
   <path stroke="null" id="svg_2" d="m13.164742,29.79409c0,-0.376007 0.282005,-0.752014 0.752014,-0.752014l3.666069,0c0.376007,0 0.752014,0.282005 0.752014,0.752014c0,4.888092 -3.666069,8.272156 -8.648163,8.272156c-4.982094,0 -8.084153,-3.666069 -8.648163,-7.990151c-0.376007,-3.008057 -0.376007,-7.144135 0,-10.152192c0.470009,-4.324082 3.666069,-7.990151 8.648163,-7.990151c4.982094,0 8.648163,3.478066 8.648163,8.272156c0,0.376007 -0.282005,0.752014 -0.752014,0.752014l-3.666069,0c-0.376007,0 -0.658012,-0.282005 -0.752014,-0.752014c-0.188004,-1.880036 -1.504028,-3.19606 -3.572067,-3.19606c-2.256043,0 -3.384064,1.316025 -3.478066,2.914055c-0.376007,3.008057 -0.376007,7.144135 0,10.152192c0.188004,1.59803 1.316025,2.914055 3.478066,2.914055c2.068039,0 3.478066,-1.316025 3.572067,-3.19606z" fill="#231F20"/>
   <path stroke="null" id="svg_3" d="m30.367067,22.179946c0,0.188004 0.188004,0.376007 0.376007,0.376007l5.546105,0c0.188004,0 0.376007,-0.188004 0.376007,-0.376007l0,-9.02417c0,-0.376007 0.282005,-0.752014 0.752014,-0.752014l3.572067,0c0.376007,0 0.752014,0.282005 0.752014,0.752014l0,23.970453c0,0.376007 -0.282005,0.752014 -0.752014,0.752014l-3.666069,0c-0.376007,0 -0.752014,-0.282005 -0.752014,-0.752014l0,-9.118172c0,-0.188004 -0.188004,-0.376007 -0.376007,-0.376007l-5.546105,0c-0.188004,0 -0.376007,0.188004 -0.376007,0.376007l0,9.118172c0,0.376007 -0.470009,0.752014 -0.940018,0.752014l-3.478066,0c-0.376007,0 -0.752014,-0.282005 -0.752014,-0.752014l0,-24.064455c0,-0.376007 0.282005,-0.752014 0.752014,-0.752014l3.666069,0c0.376007,0 0.752014,0.282005 0.752014,0.752014l0,9.118172l0.094002,0z" fill="#231F20"/>
   <path stroke="null" id="svg_4" d="m53.115497,37.22023c-0.094002,0.282005 -0.376007,0.564011 -0.658012,0.564011l-3.854073,0c-0.564011,0 -0.752014,-0.376007 -0.752014,-0.752014l6.486123,-24.158456c0.094002,-0.282005 0.376007,-0.564011 0.658012,-0.564011l4.888092,0c0.282005,0 0.658012,0.188004 0.658012,0.564011l6.486123,24.158456c0.094002,0.282005 -0.188004,0.752014 -0.752014,0.752014l-3.854073,0c-0.282005,0 -0.564011,-0.188004 -0.658012,-0.564011l-1.03402,-3.760071c-0.094002,-0.282005 -0.188004,-0.564011 -0.564011,-0.564011l-5.546105,0c-0.282005,0 -0.470009,0.188004 -0.564011,0.564011l-0.940018,3.760071zm2.444046,-9.776185c-0.094002,0.282005 0.094002,0.376007 0.282005,0.376007l3.384064,0c0.188004,0 0.376007,-0.094002 0.282005,-0.376007l-1.786034,-8.742165c0,-0.094002 -0.094002,-0.188004 -0.188004,-0.188004l-0.094002,0c-0.094002,0 -0.188004,0 -0.188004,0.188004l-1.692032,8.742165z" fill="#231F20"/>
   <path stroke="null" id="svg_5" d="m79.059987,27.538047c-0.188004,0 -0.376007,0.188004 -0.376007,0.376007l0,9.118172c0,0.376007 -0.282005,0.752014 -0.752014,0.752014l-3.666069,0c-0.376007,0 -0.752014,-0.282005 -0.752014,-0.752014l0,-23.970453c0,-0.376007 0.282005,-0.752014 0.752014,-0.752014l7.990151,0c4.136078,0 7.614144,3.478066 7.614144,7.614144c0,2.820053 -1.222023,4.700089 -3.760071,6.392121c-0.470009,0.376007 -0.470009,0.658012 -0.188004,1.222023l3.854073,9.02417c0.282005,0.564011 0,1.128021 -0.658012,1.128021l-3.760071,0c-0.564011,0 -0.846016,-0.282005 -1.03402,-0.752014l-3.666069,-8.930169c-0.094002,-0.188004 -0.282005,-0.470009 -0.658012,-0.470009l-0.940018,0zm0,-10.152192c-0.188004,0 -0.376007,0.188004 -0.376007,0.376007l0,4.418083c0,0.188004 0.188004,0.376007 0.376007,0.376007l3.290062,0c1.410027,0 2.538048,-1.128021 2.538048,-2.538048c0,-1.410027 -1.128021,-2.538048 -2.538048,-2.538048l-3.290062,0l0,-0.094002z" fill="#231F20"/>
   <path stroke="null" id="svg_6" d="m96.638319,17.385856c-0.376007,0 -0.752014,-0.282005 -0.752014,-0.752014l0,-3.666069c0,-0.376007 0.282005,-0.752014 0.752014,-0.752014l15.604295,0c0.376007,0 0.752014,0.282005 0.752014,0.752014l0,3.666069c0,0.376007 -0.282005,0.752014 -0.752014,0.752014l-4.888092,0c-0.188004,0 -0.376007,0.188004 -0.376007,0.376007l0,19.270364c0,0.376007 -0.282005,0.752014 -0.752014,0.752014l-3.666069,0c-0.376007,0 -0.752014,-0.282005 -0.752014,-0.752014l0,-19.270364c0,-0.188004 -0.188004,-0.376007 -0.376007,-0.376007l-4.794091,0z" fill="#231F20"/>
   <path stroke="null" id="svg_7" d="m124.838852,17.573859c0,-0.188004 -0.188004,-0.376007 -0.376007,-0.376007l-3.572067,0c-0.376007,0 -0.752014,-0.282005 -0.752014,-0.752014l0,-3.478066c0,-0.376007 0.282005,-0.752014 0.752014,-0.752014l13.066247,0c0.376007,0 0.752014,0.282005 0.752014,0.752014l0,3.572067c0,0.376007 -0.282005,0.752014 -0.752014,0.752014l-3.666069,0c-0.188004,0 -0.376007,0.188004 -0.376007,0.376007l0,14.852281c0,0.188004 0.188004,0.376007 0.376007,0.376007l3.948075,0c0.376007,0 0.752014,0.282005 0.752014,0.752014l0,3.478066c0,0.376007 -0.282005,0.752014 -0.752014,0.752014l-13.818261,0c-0.376007,0 -0.752014,-0.282005 -0.752014,-0.752014l0,-3.478066c0,-0.376007 0.282005,-0.752014 0.752014,-0.752014l3.948075,0c0.188004,0 0.376007,-0.188004 0.376007,-0.376007l0,-14.946282l0.094002,0z" fill="#231F20"/>
   <path stroke="null" id="svg_8" d="m158.961497,19.923904c0.376007,3.008057 0.376007,7.144135 0,10.152192c-0.470009,4.324082 -3.666069,7.990151 -8.648163,7.990151c-4.982094,0 -8.084153,-3.666069 -8.648163,-7.990151c-0.376007,-3.008057 -0.376007,-7.144135 0,-10.152192c0.470009,-4.324082 3.666069,-7.990151 8.648163,-7.990151c5.076096,0 8.178155,3.666069 8.648163,7.990151zm-12.126229,0c-0.376007,3.008057 -0.376007,7.144135 0,10.152192c0.188004,1.59803 1.316025,2.914055 3.478066,2.914055c2.256043,0 3.384064,-1.316025 3.478066,-2.914055c0.376007,-3.008057 0.376007,-7.144135 0,-10.152192c-0.188004,-1.59803 -1.316025,-2.914055 -3.478066,-2.914055c-2.162041,0.094002 -3.290062,1.316025 -3.478066,2.914055z" fill="#231F20"/>
  </g>
 </g>
</svg>