<svg width="160" height="50" xmlns="http://www.w3.org/2000/svg" xmlns:svg="http://www.w3.org/2000/svg">
 <defs>
  <style>.cls-1{fill:#3080da;}</style>
 </defs>
 <title>cluvio</title>
 <g>
  <title>Layer 1</title>
  <g id="svg_9" stroke="null">
   <path class="cls-1" d="m18.26788,13.63509a11.37399,11.37399 0 1 0 11.36629,11.36629a11.37399,11.37399 0 0 0 -11.36629,-11.36629zm0,17.86572a6.49942,6.49942 0 1 1 6.49942,-6.49943a6.49942,6.49942 0 0 1 -6.49942,6.49943z" id="svg_1" stroke="null"/>
   <path class="cls-1" d="m51.72758,24.50083l0,-0.0693a12.08246,12.08246 0 0 1 12.32119,-12.32118a12.5214,12.5214 0 0 1 8.18588,2.69525a2.0869,2.0869 0 0 1 -2.53354,3.31132a8.66333,8.66333 0 0 0 -5.69855,-2.1485c-4.53573,0 -7.87785,3.75026 -7.87785,8.4246l0,0.06931c0,4.67435 3.31131,8.47081 7.87785,8.47081a8.54012,8.54012 0 0 0 5.96808,-2.31022a1.90978,1.90978 0 0 1 1.26292,-0.47744a1.95599,1.95599 0 0 1 1.30142,3.44223a12.19797,12.19797 0 0 1 -8.66333,3.2035a12.02085,12.02085 0 0 1 -12.14406,-12.29038l-0.00001,0z" id="svg_2" stroke="null"/>
   <path class="cls-1" d="m78.24123,13.35017a2.033,2.033 0 0 1 2.01759,-2.0484l0,0a2.0561,2.0561 0 0 1 2.0792,2.04069l0,0l0,21.15393a2.0638,2.0638 0 0 1 -4.12759,0l0.0308,-21.14622z" id="svg_3" stroke="null"/>
   <path class="cls-1" d="m104.24662,34.49639a2.0792,2.0792 0 0 1 -4.15839,0l0,-0.92408a6.48402,6.48402 0 0 1 -5.62924,3.1727c-4.05829,0 -6.41472,-2.72606 -6.41472,-6.93067l0,-9.57971a2.0638,2.0638 0 0 1 4.1276,-0.11552q0,0.06161 0,0.11552l0,8.363c0,2.79537 1.40153,4.36632 3.85036,4.36632s4.05829,-1.64026 4.05829,-4.43563l0,-8.2937a2.0715,2.0715 0 0 1 2.0561,-2.0792l0,0a2.0869,2.0869 0 0 1 2.11,2.0792l0,14.26947l0,-0.0077z" id="svg_4" stroke="null"/>
   <path class="cls-1" d="m117.43799,36.71421l-0.20792,0a2.56435,2.56435 0 0 1 -2.35643,-1.80968l-6.00657,-13.74582a3.21891,3.21891 0 0 1 -0.23872,-1.02419a2.0869,2.0869 0 0 1 4.09679,-0.47745l4.62044,11.94385l4.71285,-12.00546a2.0561,2.0561 0 0 1 1.94829,-1.43233a1.96369,1.96369 0 0 1 2.00989,1.92518s0,0 0,0.04621a2.47194,2.47194 0 0 1 -0.23102,0.99339l-6.01428,13.78432a2.61825,2.61825 0 0 1 -2.33332,1.80198z" id="svg_5" stroke="null"/>
   <path class="cls-1" d="m130.36753,13.51958c0,-1.22442 1.0242,-2.00989 2.35643,-2.00989s2.35642,0.77007 2.35642,2.00989l0,0.20792a2.37953,2.37953 0 0 1 -4.70515,0l-0.0077,-0.20792zm0.31573,6.93067a2.0407,2.0407 0 0 1 1.99449,-2.0792l0.06161,0a2.0715,2.0715 0 0 1 2.0792,2.05609s0,0 0,0l0,14.06925a2.0638,2.0638 0 0 1 -4.1276,0l-0.0077,-14.04614z" id="svg_6" stroke="null"/>
   <path class="cls-1" d="m139.71623,27.47332l0,-0.06931a9.60282,9.60282 0 0 1 19.20564,-0.077l0,0.0693a9.418,9.418 0 0 1 -9.65673,9.3795a9.30249,9.30249 0 0 1 -9.54891,-9.30249zm15.07804,0l0,-0.06931a5.56763,5.56763 0 0 0 -5.52143,-5.79865c-3.31131,0 -5.39051,2.60285 -5.39051,5.72935l0,0.0693a5.55223,5.55223 0 0 0 5.49062,5.76786c3.31132,-0.0077 5.42132,-2.59515 5.42132,-5.69855z" id="svg_7" stroke="null"/>
   <path class="cls-1" d="m5.26903,25.00138a12.99885,12.99885 0 0 1 12.27498,-12.97574l0,-4.88227a17.86571,17.86571 0 0 0 -15.07035,26.22872l4.22,-2.43344a12.93724,12.93724 0 0 1 -1.42463,-5.93727zm12.99884,12.99885a12.98345,12.98345 0 0 1 -10.91194,-5.94497l-4.22001,2.43343a17.86571,17.86571 0 0 0 30.26391,0l-4.22001,-2.43343a12.98345,12.98345 0 0 1 -10.91195,5.94497zm0.56986,-30.85686l0,4.87457a12.99885,12.99885 0 0 1 11.02746,18.836l4.2277,2.47194a17.86571,17.86571 0 0 0 -15.24746,-26.18251l-0.0077,0z" id="svg_8" fill="black"/>
  </g>
 </g>
</svg>