<svg id="Layer_1" data-name="Layer 1" xmlns="http://www.w3.org/2000/svg" viewBox="0 0 218 90"><defs><style>.cls-1{fill:#9bcbea;}.cls-2{fill:#fff;}</style></defs><title>svg</title><g id="DOMO"><path class="cls-1" d="M84.05,37.86a10.6,10.6,0,0,1,2.5,5,10.68,10.68,0,0,1,20.94,0V34.29L118.18,45l10.71-10.68v8.56A10.69,10.69,0,0,1,149,40.36V5H69V34.29h7.08A10.67,10.67,0,0,1,84.05,37.86Z"/><path class="cls-1" d="M139.36,55.66a10.68,10.68,0,0,1-10.47-8.56v8.56h-3.6V42.88L118.18,50,111,42.88V55.66h-3.54V47.1a10.68,10.68,0,0,1-20.94,0,10.68,10.68,0,0,1-10.47,8.55H69V85h80V49.58A10.7,10.7,0,0,1,139.36,55.66Z"/><path class="cls-1" d="M97,52.1A7.13,7.13,0,1,0,89.89,45h0A7.13,7.13,0,0,0,97,52.1Z"/><path class="cls-1" d="M83.21,45a7.13,7.13,0,0,0-6.66-7.11h-4V52.09h4A7.14,7.14,0,0,0,83.21,45Z"/><path class="cls-1" d="M139.36,52.1A7.13,7.13,0,1,0,132.23,45h0a7.13,7.13,0,0,0,7.13,7.13Z"/><path class="cls-2" d="M84.05,52.09a10.64,10.64,0,0,0,2.5-5,10.68,10.68,0,0,0,20.94,0v8.56H111V42.88L118.18,50l7.11-7.14V55.66h3.6V47.1A10.69,10.69,0,0,0,149,49.58V40.36a10.69,10.69,0,0,0-20.11,2.49V34.29L118.18,45,107.49,34.29v8.56a10.68,10.68,0,0,0-20.94,0,10.68,10.68,0,0,0-10.47-8.56H69V55.66h7.08A10.67,10.67,0,0,0,84.05,52.09Zm55.31-14.24A7.13,7.13,0,1,1,132.23,45h0a7.13,7.13,0,0,1,7.13-7.12ZM97,37.85A7.13,7.13,0,1,1,89.89,45h0A7.13,7.13,0,0,1,97,37.85Zm-24.48,0h4a7.13,7.13,0,0,1,0,14.23h-4Z"/></g></svg>