<?xml version="1.0" encoding="utf-8"?>
<!-- Generator: Adobe Illustrator 23.1.1, SVG Export Plug-In . SVG Version: 6.00 Build 0)  -->
<svg version="1.1" id="logo-highcharts" xmlns="http://www.w3.org/2000/svg" xmlns:xlink="http://www.w3.org/1999/xlink" x="0px"
	 y="0px" viewBox="0 0 185 60" enable-background="new 0 0 185 60" xml:space="preserve">
<g>
	<g id="symbol" transform="translate(10,10) scale(1)">
		<polygon id="svg_2" fill="#8087E8" points="16,5.6 11,17.3 4.4,32.7 19.8,26.2 27.9,22.8 		"/>
		<polygon id="svg_3" fill="#30426B" points="18.6,19.7 19.8,26.2 27.9,22.8 		"/>
		<polygon id="svg_4" fill="#6699A1" points="16,5.6 18.6,19.7 27.9,22.8 		"/>
		<polygon id="svg_5" fill="#78758C" points="18.6,19.7 27.9,22.8 11,17.3 4.4,32.7 19.8,26.2 		"/>
		<polygon id="svg_6" fill="#A3EDBA" points="4.4,32.7 11,17.3 -2.5,12.9 		"/>
		<polygon id="svg_7" fill="#6699A1" points="19.8,26.2 21.2,34.4 27.9,22.8 		"/>
		<polygon id="svg_8" fill="#8087E8" points="16,5.6 11,17.3 18.6,19.7 		"/>
	</g>
	<g id="text-highcharts" transform="translate(108.02400207519531,31.291051292419436) scale(1)">
		<path id="svg_2_1_" fill="#383836" d="M-47.5,0.1h-7.6v4.4c0,0.5-0.4,0.8-0.8,0.8c-0.5,0-0.8-0.4-0.8-0.8v-9.7
			c0-0.5,0.4-0.8,0.8-0.8c0.5,0,0.8,0.4,0.8,0.8v3.8h7.6v-3.8c0-0.5,0.4-0.8,0.8-0.8c0.5,0,0.8,0.4,0.8,0.8v9.7
			c0,0.5-0.4,0.8-0.8,0.8c-0.5,0-0.8-0.4-0.8-0.8V0.1z"/>
		<path id="svg_3_1_" fill="#383836" d="M-39.3,4.4c0,0.5-0.4,0.8-0.8,0.8s-0.8-0.4-0.8-0.8v-9.7c0-0.5,0.4-0.8,0.8-0.8
			s0.8,0.4,0.8,0.8V4.4z"/>
		<path id="svg_4_1_" fill="#383836" d="M-27.1,0.4c0-0.5,0.4-0.8,0.8-0.8c0.5,0,0.8,0.4,0.8,0.8V3c0,0.2-0.1,0.5-0.3,0.7
			c-1.1,1.1-2.5,1.7-4.1,1.7c-3.2,0-5.8-2.6-5.8-5.8s2.6-5.8,5.8-5.8c1.6,0,3,0.6,4.1,1.7c0.3,0.3,0.3,0.8,0,1.2
			c-0.3,0.3-0.9,0.4-1.2,0c-0.8-0.8-1.8-1.2-2.9-1.2c-2.3,0-4.1,1.8-4.1,4.1s1.9,4.1,4.1,4.1c1.1,0,2-0.4,2.7-1
			C-27.1,2.7-27.1,0.4-27.1,0.4z"/>
		<path id="svg_5_1_" fill="#383836" d="M-11.9,0.1h-7.6v4.4c0,0.5-0.4,0.8-0.8,0.8c-0.5,0-0.8-0.4-0.8-0.8v-9.7
			c0-0.5,0.4-0.8,0.8-0.8c0.5,0,0.8,0.4,0.8,0.8v3.8h7.6v-3.8c0-0.5,0.4-0.8,0.8-0.8c0.5,0,0.8,0.4,0.8,0.8v9.7
			c0,0.5-0.4,0.8-0.8,0.8c-0.5,0-0.8-0.4-0.8-0.8V0.1z"/>
		<path id="svg_6_1_" fill="#383836" d="M-0.9,5.4c-3.2,0-5.8-2.6-5.8-5.8s2.6-5.8,5.8-5.8c1.6,0,3,0.6,4.1,1.7
			c0.3,0.3,0.3,0.8,0,1.2C2.9-3,2.4-3,2-3.3C1.3-4.1,0.3-4.6-0.9-4.6C-3.2-4.6-5-2.7-5-0.4s1.8,4.1,4.1,4.1c1.2,0,2.2-0.4,2.9-1.2
			c0.3-0.3,0.8-0.3,1.2,0c0.3,0.3,0.3,0.8,0,1.2C2.2,4.7,0.7,5.4-0.9,5.4z"/>
		<path id="svg_7_1_" fill="#383836" d="M16.4,0.1H8.8v4.4C8.8,5,8.4,5.3,8,5.3c-0.5,0-0.8-0.4-0.8-0.8v-9.7C7.2-5.7,7.6-6,8-6
			c0.5,0,0.8,0.4,0.8,0.8v3.8h7.6v-3.8c0-0.5,0.4-0.8,0.8-0.8C17.7-6,18-5.6,18-5.2v9.7c0,0.5-0.4,0.8-0.8,0.8
			c-0.5,0-0.8-0.4-0.8-0.8V0.1z"/>
		<path id="svg_8_1_" fill="#383836" d="M28.5-5.4l4.7,9.2c0.1,0.2,0.2,0.5,0.2,0.7c0,0.5-0.3,0.7-0.8,0.7c-0.3,0-0.7-0.1-0.9-0.6
			l-1.5-2.9h-6l-1.4,2.9c-0.2,0.5-0.6,0.6-0.9,0.6c-0.5,0-0.8-0.3-0.8-0.7c0-0.2,0.1-0.5,0.2-0.7L26-5.4c0.3-0.6,0.9-0.7,1.2-0.7
			C27.6-6.1,28.2-6,28.5-5.4z M25,0.2h4.5l-2.2-4.5L25,0.2z"/>
		<path id="svg_9" fill="#383836" d="M42.5-6c2,0,3.6,1.5,3.6,3.4c0,1.8-1.3,3.1-2.9,3.4l3,3.2c0.3,0.3,0.4,0.8,0.1,1.1
			C46,5.4,45.3,5.3,45,5l-3.9-4.1h-2.9v3.6c0,0.5-0.4,0.8-0.8,0.8c-0.5,0-0.8-0.4-0.8-0.8v-9.6c0-0.5,0.4-0.8,0.8-0.8
			C37.4-6,42.5-6,42.5-6z M38.2-4.5v3.7h4.3c1.2,0,1.9-0.8,1.9-1.9s-0.8-1.8-1.9-1.8H38.2L38.2-4.5z"/>
		<path id="svg_10" fill="#383836" d="M53.6-4.5h-4.1c-0.5,0-0.8-0.3-0.8-0.8C48.7-5.7,49-6,49.5-6h9.9c0.5,0,0.8,0.3,0.8,0.8
			s-0.4,0.8-0.8,0.8h-4.1v8.9c0,0.5-0.4,0.8-0.8,0.8c-0.5,0-0.8-0.4-0.8-0.8L53.6-4.5L53.6-4.5z"/>
		<path id="svg_11" fill="#383836" d="M64.2-1.6c0-4.1,2.5-4.6,4.5-4.6c0.5,0,0.8,0.4,0.8,0.8c0,0.5-0.4,0.8-0.8,0.8
			c-1.6,0-2.8,0.3-2.8,3v2.3c0,4.1-2.5,4.6-4.5,4.6c-0.5,0-0.8-0.4-0.8-0.8s0.4-0.8,0.8-0.8c1.6,0,2.8-0.3,2.8-3V-1.6L64.2-1.6z"/>
	</g>
</g>
</svg>
