<?xml version="1.0" encoding="utf-8"?>
<!-- Generator: Adobe Illustrator 23.1.1, SVG Export Plug-In . SVG Version: 6.00 Build 0)  -->
<svg version="1.1" id="Layer_1" xmlns="http://www.w3.org/2000/svg" xmlns:xlink="http://www.w3.org/1999/xlink" x="0px" y="0px"
	 viewBox="0 0 180 65" enable-background="new 0 0 180 65" xml:space="preserve">
<g>
	<path fill="#7D7D7D" d="M69.6,19.4c0,2-1.2,3.2-3,3.2s-3-1.3-3-3.2c0-2,1.2-3.2,3.1-3.2C68.4,16.2,69.6,17.5,69.6,19.4L69.6,19.4z
		 M64.6,19.4c0,1.5,0.8,2.5,2.1,2.5c1.2,0,2-1,2-2.5s-0.8-2.5-2-2.5C65.4,17,64.6,18,64.6,19.4z M71,19.4c0-0.5,0-1,0-1.3h0.8
		c0,0.2,0,0.5,0,0.7l0,0c0.3-0.6,0.9-0.8,1.6-0.8c1.2,0,2,0.9,2,2.3c0,1.4-0.8,2.4-2,2.4c-0.7,0-1.3-0.4-1.5-0.9c0,0.2,0,0.9,0,1.1
		v1.5h-0.8L71,19.4L71,19.4L71,19.4z M71.9,20.3c0,0.9,0.6,1.7,1.3,1.7c0.8,0,1.3-0.7,1.3-1.7s-0.5-1.7-1.3-1.7
		C72.5,18.6,71.9,19.4,71.9,20.3z M77.2,20.5c0,0.9,0.7,1.5,1.6,1.5c0.5,0,0.9-0.1,1.3-0.3v0.8c-0.4,0.2-0.9,0.3-1.4,0.3
		c-1.5,0-2.4-0.9-2.4-2.4c0-1.4,0.9-2.3,2.2-2.3c1.2,0,2,0.7,2,2.2v0.3L77.2,20.5L77.2,20.5z M79.6,19.9c0-0.9-0.5-1.3-1.2-1.3
		s-1.2,0.5-1.3,1.3H79.6L79.6,19.9z M82.6,18.7c0.3-0.5,0.9-0.8,1.5-0.8c1.3,0,1.7,0.8,1.7,2.1v2.6H85v-2.2c0-0.9-0.1-1.7-1-1.7
		c-0.5,0-0.8,0.2-1.1,0.7c-0.1,0.2-0.2,0.6-0.2,1.1v2.2h-0.8v-3.2c0-0.5,0-1,0-1.3h0.8L82.6,18.7L82.6,18.7z M92.2,16.5
		c-0.1,0-0.3-0.1-0.4-0.1c-0.6,0-0.8,0.3-0.8,1.1V18h1.2v0.7H91v3.8h-0.9v-3.8h-1V18h1.1v-0.4c0-1.1,0.4-1.8,1.5-1.8
		c0.2,0,0.4,0,0.6,0.1L92.2,16.5L92.2,16.5z M97.5,20.3c0,1.4-1,2.3-2.3,2.3s-2.3-1-2.3-2.3c0-1.4,1-2.4,2.4-2.4
		C96.5,17.9,97.5,18.9,97.5,20.3L97.5,20.3z M93.7,20.3c0,1,0.6,1.6,1.5,1.6c0.8,0,1.4-0.7,1.4-1.6c0-1-0.6-1.7-1.5-1.7
		C94.3,18.6,93.7,19.3,93.7,20.3z M99.6,18.8c0.2-0.5,0.7-0.9,1.3-0.9c0.2,0,0.3,0,0.4,0.1v0.8c-0.1,0-0.2-0.1-0.5-0.1
		c-0.8,0-1.3,0.7-1.3,1.8v2.1h-0.8v-3.2c0-0.5,0-1,0-1.3h0.8C99.6,18.3,99.6,18.6,99.6,18.8L99.6,18.8z M105.7,22.6h-0.9v-6.2h0.9
		V22.6z M108.2,18.7c0.3-0.5,0.9-0.8,1.5-0.8c1.3,0,1.7,0.8,1.7,2.1v2.6h-0.8v-2.2c0-0.9-0.1-1.7-1-1.7c-0.5,0-0.8,0.2-1.1,0.7
		c-0.1,0.2-0.2,0.6-0.2,1.1v2.2h-0.8v-3.2c0-0.5,0-1,0-1.3h0.8C108.1,18.2,108.2,18.5,108.2,18.7L108.2,18.7z M113.8,18.7
		c0.3-0.5,0.8-0.8,1.5-0.8c1.3,0,1.7,0.8,1.7,2.1v2.6h-0.8v-2.2c0-0.9-0.1-1.7-1-1.7c-0.5,0-0.9,0.2-1.1,0.7
		c-0.1,0.2-0.2,0.6-0.2,1.1v2.2h-0.8v-3.2c0-0.5,0-1,0-1.3h0.8C113.7,18.2,113.7,18.5,113.8,18.7L113.8,18.7z M122.8,20.3
		c0,1.4-1,2.3-2.3,2.3s-2.3-1-2.3-2.3c0-1.4,1-2.4,2.4-2.4C121.9,17.9,122.8,18.9,122.8,20.3L122.8,20.3z M119.1,20.3
		c0,1,0.6,1.6,1.4,1.6c0.8,0,1.4-0.7,1.4-1.6c0-1-0.6-1.7-1.5-1.7C119.7,18.6,119.1,19.3,119.1,20.3z M125.2,20.8
		c0.1,0.3,0.2,0.8,0.3,1.1c0.1-0.3,0.2-0.8,0.3-1.1l0.9-2.8h0.9l-1.7,4.5h-1l-1.6-4.5h0.9L125.2,20.8z M128.6,18.3
		c0.4-0.2,1-0.4,1.5-0.4c1.3,0,1.8,0.8,1.8,1.8v1.5c0,0.5,0,1,0,1.4h-0.8v-0.4c0-0.1,0-0.3,0-0.4l0,0c-0.3,0.6-0.8,0.8-1.5,0.8
		c-1,0-1.6-0.5-1.6-1.4s0.9-1.5,2.4-1.5c0.2,0,0.4,0,0.6,0l0,0c0-0.8-0.4-1.2-1.2-1.2c-0.5,0-0.9,0.2-1.3,0.4
		C128.7,19,128.6,18.3,128.6,18.3z M130.7,20.4c-1.1,0-1.7,0.3-1.7,0.9c0,0.5,0.3,0.7,0.9,0.7c0.5,0,0.9-0.2,1.1-0.7
		c0.1-0.2,0.1-0.5,0.1-0.9H130.7L130.7,20.4z M134.7,18h1.2v0.7h-1.2v2c0,0.7,0.1,1.2,0.8,1.2c0.2,0,0.3,0,0.5-0.1v0.7
		c-0.2,0.1-0.5,0.1-0.7,0.1c-1.2,0-1.4-0.7-1.4-1.7v-2.2h-1V18h1v-1l0.8-0.3C134.7,16.7,134.7,18,134.7,18z M138,17.2h-1v-0.9h0.9
		v0.9H138z M137.9,22.6H137V18h0.9V22.6z M143.9,20.3c0,1.4-1,2.3-2.3,2.3s-2.3-1-2.3-2.3c0-1.4,1-2.4,2.4-2.4
		C142.9,17.9,143.9,18.9,143.9,20.3L143.9,20.3z M140.1,20.3c0,1,0.6,1.6,1.4,1.6s1.4-0.7,1.4-1.6c0-1-0.6-1.7-1.5-1.7
		C140.7,18.6,140.1,19.3,140.1,20.3z M146,18.7c0.3-0.5,0.9-0.8,1.5-0.8c1.3,0,1.7,0.8,1.7,2.1v2.6h-0.8v-2.2c0-0.9-0.1-1.7-1-1.7
		c-0.5,0-0.9,0.2-1.1,0.7c-0.1,0.2-0.2,0.6-0.2,1.1v2.2h-0.8v-3.2c0-0.5,0-1,0-1.3h0.8C145.9,18.2,145.9,18.5,146,18.7L146,18.7z
		 M68.3,28.9v11h0.1l8.7-11h5.3l-8.9,11.3L85,52.8h-5.9L68.2,41.1v11.7h-4.6V28.9H68.3L68.3,28.9z M91.4,28.9l14.2,16.7V28.9h4.5
		v23.9h-4l-14.3-17v17h-4.5V28.9H91.4L91.4,28.9z M119.9,28.9v23.9h-4.6V28.9H119.9z M129.3,28.9l7.9,9.4l7.8-9.4h4.1v23.9h-4.6V36
		h-0.1l-6.9,8.4h-0.7l-6.9-8.4h-0.1v16.8h-4.6V28.9H129.3L129.3,28.9z M169.8,28.9v3.6H159v6.3h10.4v3.6H159v6.8h11v3.6h-15.7V28.9
		H169.8L169.8,28.9z"/>
	<path fill="#FFD800" d="M34.1,11.1L10,52.8h48.1L34.1,11.1z M28.6,47.8V31.9l0.5-2.2l13.8,7.9l1.7,1.5L30.8,47
		C30.7,47.2,28.6,47.8,28.6,47.8z M29.3,28.8l0.7-3l9.9,9.1L29.3,28.8z M27.7,48.2l-2.9,0.9L27.7,36V48.2z M45.2,39.9l2.3,2.1
		l-12.8,4L45.2,39.9z M30.4,24.7l0.9-2.5l11.2,13.7C42.5,35.8,30.4,24.7,30.4,24.7z M23.6,49.3L21,49.7l6.2-16.5L23.6,49.3z
		 M48.3,42.9L50,45l-17.4,2.9L48.3,42.9z M31.7,20.5l1-2l11.9,17.8C44.6,36.2,31.7,20.5,31.7,20.5z M19.3,50.2L17,50.3l9.4-19.2
		L19.3,50.2z M51.2,46.1l1.3,1.8l-21.4,1.4L51.2,46.1z M46.1,35.6L33.2,16.3l0.9-1.6L46.1,35.6z M25.2,30.2L14.9,51h-1.8
		C13.1,51,25.2,30.2,25.2,30.2z M30.9,51L54,49.4l1,1.6H30.9z"/>
	<path fill="#7D7D7D" d="M170,18.5c0,0.3-0.1,0.6-0.2,0.9c-0.1,0.3-0.3,0.5-0.5,0.7s-0.4,0.3-0.7,0.5c-0.3,0.1-0.5,0.2-0.8,0.2
		s-0.6-0.1-0.9-0.2c-0.3-0.1-0.5-0.3-0.7-0.5s-0.3-0.4-0.5-0.7c-0.1-0.3-0.2-0.6-0.2-0.9s0.1-0.6,0.2-0.9c0.1-0.3,0.3-0.5,0.5-0.7
		s0.4-0.3,0.7-0.5s0.6-0.2,0.8-0.2c0.3,0,0.6,0.1,0.8,0.2c0.3,0.1,0.5,0.2,0.7,0.5c0.2,0.2,0.3,0.4,0.5,0.7
		C169.9,17.9,170,18.2,170,18.5z M169.5,18.5c0-0.3,0-0.5-0.1-0.7s-0.2-0.4-0.3-0.6s-0.3-0.3-0.5-0.4s-0.4-0.1-0.7-0.1
		c-0.2,0-0.5,0-0.7,0.1s-0.4,0.2-0.6,0.4s-0.3,0.3-0.3,0.6c-0.1,0.2-0.1,0.5-0.1,0.7s0,0.5,0.1,0.7s0.2,0.4,0.3,0.6
		c0.1,0.2,0.3,0.3,0.5,0.4s0.5,0.1,0.7,0.1s0.5,0,0.7-0.1s0.4-0.2,0.5-0.4s0.3-0.3,0.3-0.6C169.5,19,169.5,18.8,169.5,18.5z
		 M167.4,19.8H167v-2.4h0.9c0.3,0,0.5,0.1,0.7,0.2c0.1,0.1,0.2,0.3,0.2,0.5s-0.1,0.4-0.2,0.5c-0.1,0.1-0.3,0.2-0.5,0.2l0.7,1.1h-0.5
		l-0.6-1h-0.4L167.4,19.8L167.4,19.8z M167.8,18.4h0.2c0.1,0,0.1,0,0.2-0.1s0.1-0.1,0.1-0.1s0-0.1,0-0.2s0-0.1,0-0.2l-0.1-0.1
		c-0.1,0-0.1,0-0.2,0h-0.2h-0.5v0.7C167.3,18.4,167.8,18.4,167.8,18.4z"/>
</g>
</svg>
