<svg width="160" height="49.99999999999999" xmlns="http://www.w3.org/2000/svg" xmlns:svg="http://www.w3.org/2000/svg">
 <g>
  <title>Layer 1</title>
  <g stroke="null" id="svg_1">
   <path stroke="null" id="svg_2" d="m21.033365,39.250271l0,-27.910874l-4.225942,0l0,28.107429c0,6.584607 4.127664,10.220883 10.220883,9.532939l0,-4.029387c-3.144887,0 -5.994941,-1.179333 -5.994941,-5.700108" fill="#3F4446"/>
   <path stroke="null" id="svg_3" d="m39.706132,45.441768c-4.815608,0 -8.746717,-4.225942 -8.746717,-9.434661c0,-5.306997 3.931109,-9.631217 8.746717,-9.631217c4.815608,0 8.746717,4.32422 8.746717,9.631217c0.098278,5.110442 -3.832831,9.434661 -8.746717,9.434661m0,-23.193543c-7.370829,0 -13.070937,6.191497 -13.070937,13.758881c0,7.370829 5.798386,13.562326 13.070937,13.562326s13.070937,-6.093219 13.070937,-13.562326c0,-7.665662 -5.60183,-13.758881 -13.070937,-13.758881" fill="#3F4446"/>
   <polygon stroke="null" id="svg_4" points="104.47114562988281,22.837890207767487 98.08309936523438,22.837890207767487 86.28976440429688,34.53293949365616 86.28976440429688,11.339397966861725 82.06382751464844,11.339397966861725 82.06382751464844,48.88149219751358 86.28976440429688,48.88149219751358 86.28976440429688,40.52788120508194 91.30194091796875,35.61399418115616 100.04864501953125,48.88149219751358 105.25736999511719,48.88149219751358 94.34854125976562,32.66566425561905 " fill="#3F4446"/>
   <path stroke="null" id="svg_5" d="m106.829818,33.157052c1.081055,-4.422498 4.913886,-7.075996 8.451884,-7.075996c3.832831,0 7.272552,2.850054 8.353607,7.075996l-16.805491,0zm8.451884,-10.908827c-7.174274,0 -13.070937,6.191497 -13.070937,13.660604c0,7.567385 5.798386,13.562326 13.267493,13.562326c5.994941,0 10.417439,-3.046609 12.186438,-8.746717l-4.520775,0c-1.474166,2.948332 -4.029387,4.815608 -7.665662,4.815608c-4.225942,0 -8.451884,-3.144887 -8.943273,-8.64844l21.719377,0c0.196555,-9.139828 -6.289774,-14.643381 -12.97266,-14.643381" fill="#3F4446"/>
   <path stroke="null" id="svg_6" d="m134.740691,25.786223l0,-2.948332l-4.029387,0l0,26.043597l4.225942,0l0,-15.036492c0,-5.208719 3.832831,-7.567385 8.255329,-7.370829l0,-4.225942c-2.948332,-0.294833 -6.48633,0.786222 -8.451884,3.537998" fill="#3F4446"/>
   <path stroke="null" id="svg_7" d="m67.027339,22.248225c-1.867277,0 -3.734554,0.491389 -5.306997,1.179333l2.751776,3.341443c0.786222,-0.294833 1.768999,-0.491389 2.653499,-0.491389c4.815608,0 8.746717,4.32422 8.746717,9.631217c0,5.208719 -3.931109,9.434661 -8.746717,9.434661c-4.815608,0 -8.746717,-4.225942 -8.746717,-9.434661c0,-3.144887 1.474166,-5.994941 3.537998,-7.76394l-2.653499,-3.243165c-3.144887,2.555221 -5.208719,6.48633 -5.208719,11.007105c0,7.469107 5.700108,13.562326 13.070937,13.562326s13.070937,-6.093219 13.070937,-13.562326c-0.196555,-7.567385 -5.896663,-13.660604 -13.169215,-13.660604" fill="#662B80"/>
   <path stroke="null" id="svg_8" d="m59.754788,17.432616c0,1.081055 -0.491389,1.965554 -1.179333,2.751776l1.768999,2.260388c1.375888,-1.27761 2.260388,-2.948332 2.260388,-5.012164c0,-1.474166 -0.491389,-2.850054 -1.27761,-3.931109l-2.16211,1.867277c0.393111,0.687944 0.589666,1.27761 0.589666,2.063832" fill="#662B80"/>
   <path stroke="null" id="svg_9" d="m56.020234,21.16717c-2.063832,0 -3.734554,-1.768999 -3.734554,-3.734554c0,-2.063832 1.768999,-3.734554 3.734554,-3.734554c0.687944,0 1.474166,0.196555 1.965554,0.589666l2.260388,-1.965554c-1.179333,-0.982777 -2.653499,-1.572444 -4.225942,-1.572444c-3.734554,0 -6.682885,2.948332 -6.682885,6.682885c0,3.734554 2.948332,6.682885 6.682885,6.682885c0.8845,0 1.768999,-0.196555 2.653499,-0.589666l-1.965554,-2.555221c-0.196555,0.196555 -0.491389,0.196555 -0.687944,0.196555" fill="#662B80"/>
   <path stroke="null" id="svg_10" d="m67.715284,5.049623c1.572444,0 2.850054,1.27761 2.850054,2.850054s-1.27761,2.850054 -2.850054,2.850054c-0.786222,0 -1.572444,-0.393111 -2.063832,-0.8845l-1.670721,1.375888c0.8845,0.982777 2.260388,1.670721 3.734554,1.670721c2.751776,0 5.012164,-2.260388 5.012164,-5.110442s-2.260388,-5.110442 -5.012164,-5.110442c-1.670721,0 -3.046609,0.786222 -4.029387,1.965554l2.16211,0.8845c0.589666,-0.196555 1.179333,-0.491389 1.867277,-0.491389" fill="#662B80"/>
   <path stroke="null" id="svg_11" d="m64.963507,7.899677c0,-0.589666 0.196555,-0.982777 0.393111,-1.375888l-2.063832,-0.786222c-0.393111,0.589666 -0.589666,1.474166 -0.589666,2.16211c0,0.8845 0.196555,1.670721 0.589666,2.358665l1.768999,-1.572444c-0.098278,-0.196555 -0.098278,-0.393111 -0.098278,-0.786222" fill="#662B80"/>
   <path stroke="null" id="svg_12" d="m57.199567,7.113455c1.474166,0 2.653499,-0.8845 3.046609,-2.16211l-1.27761,-0.589666c-0.294833,0.687944 -0.8845,1.27761 -1.768999,1.27761c-0.982777,0 -1.867277,-0.786222 -1.867277,-1.867277c0,-0.982777 0.786222,-1.867277 1.867277,-1.867277c0.982777,0 1.768999,0.786222 1.867277,1.768999l1.474166,0.589666c0,-0.196555 0.098278,-0.393111 0.098278,-0.589666c0,-1.768999 -1.572444,-3.341443 -3.341443,-3.341443c-1.768999,0 -3.341443,1.572444 -3.341443,3.341443c-0.098278,1.867277 1.474166,3.43972 3.243165,3.43972" fill="#662B80"/>
  </g>
 </g>
</svg>