<svg id="Layer_1" data-name="Layer 1" xmlns="http://www.w3.org/2000/svg" viewBox="0 0 218 90"><defs><style>.cls-1,.cls-2{fill:#509ee3;}.cls-2{opacity:0.2;isolation:isolate;}</style></defs><g id="Metabase"><ellipse class="cls-1" cx="82.66" cy="25.22" rx="4.79" ry="4.87"/><ellipse class="cls-1" cx="82.66" cy="38.86" rx="4.79" ry="4.87"/><ellipse class="cls-2" cx="96.08" cy="25.22" rx="4.79" ry="4.87"/><ellipse class="cls-1" cx="96.08" cy="38.99" rx="4.79" ry="4.87"/><ellipse class="cls-2" cx="109.5" cy="25.22" rx="4.79" ry="4.87"/><ellipse class="cls-2" cx="109.5" cy="9.64" rx="4.79" ry="4.87"/><ellipse class="cls-2" cx="109.5" cy="38.99" rx="4.79" ry="4.87"/><ellipse class="cls-2" cx="122.92" cy="25.22" rx="4.79" ry="4.87"/><ellipse class="cls-1" cx="136.34" cy="25.22" rx="4.79" ry="4.87"/><ellipse class="cls-1" cx="122.92" cy="38.99" rx="4.79" ry="4.87"/><ellipse class="cls-1" cx="136.34" cy="38.99" rx="4.79" ry="4.87"/><ellipse class="cls-1" cx="82.66" cy="52.5" rx="4.79" ry="4.87"/><ellipse class="cls-2" cx="96.08" cy="52.63" rx="4.79" ry="4.87"/><ellipse class="cls-1" cx="109.5" cy="52.63" rx="4.79" ry="4.87"/><ellipse class="cls-2" cx="122.92" cy="52.63" rx="4.79" ry="4.87"/><ellipse class="cls-1" cx="136.34" cy="52.63" rx="4.79" ry="4.87"/><ellipse class="cls-1" cx="82.66" cy="66.13" rx="4.79" ry="4.87"/><ellipse class="cls-2" cx="96.08" cy="66.26" rx="4.79" ry="4.87"/><ellipse class="cls-2" cx="109.5" cy="66.26" rx="4.79" ry="4.87"/><ellipse class="cls-2" cx="109.5" cy="79.9" rx="4.79" ry="4.87"/><ellipse class="cls-2" cx="122.92" cy="66.26" rx="4.79" ry="4.87"/><ellipse class="cls-1" cx="136.34" cy="66.26" rx="4.79" ry="4.87"/></g></svg>