<svg width="160" height="50" xmlns="http://www.w3.org/2000/svg" xmlns:svg="http://www.w3.org/2000/svg">
 <title>mode analytics</title>
 <g>
  <title>Layer 1</title>
  <g stroke="null" id="svg_1">
   <polygon stroke="null" id="svg_2" points="87.53397369384766,36.256113052368164 87.53397369384766,13.743891716003418 82.24224853515625,13.743891716003418 76.32270050048828,23.25104331970215 70.40316009521484,13.743891716003418 65.0217514038086,13.743891716003418 65.0217514038086,36.256113052368164 69.8650131225586,36.256113052368164 69.8650131225586,21.636621475219727 74.439208984375,28.542762756347656 78.02681732177734,28.542762756347656 82.60101318359375,21.54693031311035 82.60101318359375,36.256113052368164 87.53397369384766,36.256113052368164 " fill="#36B066"/>
   <path stroke="null" id="svg_3" d="m90.852504,25.044847l0,0c0,-6.457689 5.022647,-11.749407 12.018478,-11.749407c6.90614,0 11.928787,5.202028 11.928787,11.570027l0,0.08969c0,6.367999 -5.022647,11.659717 -12.018478,11.659717c-6.90614,0 -11.928787,-5.202028 -11.928787,-11.570027m18.745237,0l0,0c0,-3.946366 -2.870084,-7.17521 -6.81645,-7.17521c-3.946366,0 -6.72676,3.139155 -6.72676,6.99583l0,0.08969c0,3.856676 2.870084,7.08552 6.81645,7.08552c3.946366,0 6.72676,-3.139155 6.72676,-6.99583" fill="#36B066"/>
   <path stroke="null" id="svg_4" d="m118.118303,13.74389l8.789633,0c7.08552,0 11.928787,4.843267 11.928787,11.211266l0,0.08969c0,6.367999 -4.932957,11.300956 -11.928787,11.300956l-8.789633,0l0,-22.601913l0,0zm8.789633,18.027716c4.036056,0 6.81645,-2.780394 6.81645,-6.72676l0,-0.08969c0,-3.946366 -2.690704,-6.81645 -6.81645,-6.81645l-3.856676,0l0,13.54321l3.856676,0l0,0.08969z" fill="#36B066"/>
   <polygon stroke="null" id="svg_5" points="142.69338989257812,13.743891716003418 142.69338989257812,36.256113052368164 159.82421875,36.256113052368164 159.82421875,31.7716064453125 147.62635803222656,31.7716064453125 147.62635803222656,27.10771942138672 158.2097930908203,27.10771942138672 158.2097930908203,22.71290397644043 147.62635803222656,22.71290397644043 147.62635803222656,18.13870620727539 159.73451232910156,18.13870620727539 159.73451232910156,13.743891716003418 142.69338989257812,13.743891716003418 " fill="#36B066"/>
   <polygon stroke="null" id="svg_6" points="52.10636901855469,2.532623291015625 26.096229553222656,17.510873794555664 0.17578125,2.532623291015625 0.17578125,47.46737861633301 13.091161727905273,39.93340873718262 13.091161727905273,24.955158233642578 26.096229553222656,32.489126205444336 39.10129928588867,24.955158233642578 39.10129928588867,39.93340873718262 52.10636901855469,47.46737861633301 52.10636901855469,2.532623291015625 " fill="#36B066"/>
  </g>
 </g>
</svg>