<?xml version="1.0" encoding="utf-8"?>
<!-- Generator: Adobe Illustrator 23.1.1, SVG Export Plug-In . SVG Version: 6.00 Build 0)  -->
<svg version="1.1" id="Layer_1" xmlns="http://www.w3.org/2000/svg" xmlns:xlink="http://www.w3.org/1999/xlink" x="0px" y="0px"
	 viewBox="0 0 945 392" enable-background="new 0 0 945 392" xml:space="preserve">
<g id="Hq8qjG.tif">
	<g>
		<path fill="#FEFEFE" d="M60.5,72.1c0-8,0-8,8-8c270.5,0,540.9,0,811.4-0.1c3.7,0,4.6,0.8,4.6,4.6c-0.1,85.1-0.1,170.2,0,255.4
			c0,3.4-0.7,4.1-4.1,4.1c-188.1-0.1-376.2-0.1-564.2-0.1c6.1-3.4,8.1-8.4,8.1-15.4c-0.2-77.8-0.1-155.5-0.1-233.3
			c0-9.9-4.2-14.1-14.3-14.1c-77.2,0-154.4,0.1-231.5-0.1C71.1,64.9,65,65.9,60.5,72.1z M396.1,250.1c1.3,0.5,1.8,0.6,2.2,0.8
			c25.4,12.1,52.1,3.1,64.3-22c8.4-17.3,7.3-35.9,3.7-53.6c-6.5-32.1-39.3-47.3-68.2-32.9c-2.3,1.2-3.2,0.8-4.7-1.1
			c-3.5-4.3-8.5-5.6-13.4-3.9c-4.9,1.7-7.9,5.9-7.9,11.4c0,39.8,0,79.6,0,119.4c0,7.1,5,11.9,11.8,12c7.1,0.1,12-4.9,12.1-12.2
			C396.1,262.1,396.1,256.4,396.1,250.1z M539.9,196.3c0.2,6.8-0.5,13.6,1,20.3c4.3,20.7,21.1,36.8,41.1,39.5
			c20.1,2.7,39.4-8.3,48.8-28.1c7.9-16.7,6.3-34.5,3.6-51.8c-3.2-20.9-21.1-36.9-41-39.3c-20.3-2.5-39.1,8.5-48.7,28.3
			C539.9,175.1,539.4,185.6,539.9,196.3z M835.5,201.1c-1.4-3-2.2-4.8-3-6.6c-7.2-16.7-14.3-33.5-21.6-50.1c-3-6.8-9.7-9.4-16-6.8
			c-6.3,2.7-8.9,9.3-6.3,16.2c0.5,1.2,1,2.4,1.6,3.7c10.1,23.6,20.3,47.1,30.4,70.7c0.7,1.6,1.6,3.1,1.2,5.2
			c-3.2,13.5-11.9,21.4-25.5,22.8c-6.6,0.7-11.6,6.1-11.3,12.3c0.3,6.7,5.5,11.9,12.4,11.6c20-0.7,34.7-10.2,42.8-28.3
			c14.4-32.3,28.1-65,42.1-97.6c3-7.1,0.5-13.8-6.1-16.6c-6.4-2.8-13.2,0.2-16.3,7.1c-2.5,5.6-4.8,11.3-7.2,16.9
			C847,174.4,841.5,187.1,835.5,201.1z M659.7,168.5c0,13.8,0,27.5,0,41.3c0.1,25.1,21.9,46.6,47,46.4c7.6,0,12.7-4.5,12.9-11.5
			c0.2-7.1-4.3-11.9-11.9-12.5c-14.8-1.2-23.8-10.5-24-25.3c-0.2-14.3,0-28.5-0.1-42.8c0-2.9,0.8-3.7,3.7-3.6c7,0.2,14,0.2,21,0
			c6.6-0.1,11.4-5.3,11.4-11.9c0-6.7-4.8-11.7-11.4-11.9c-4.5-0.1-9,0-13.5,0c-11,0-11,0-11.1-11c-0.1-7.9-4.7-12.9-12-12.9
			c-7.3,0-12,5-12,12.9C659.7,140,659.7,154.3,659.7,168.5z M515.9,185c0-19.6,0-39.1,0-58.7c0-8.3-4.5-13.4-11.9-13.5
			c-7.4,0-12.1,5-12.1,13.2c0,39,0,77.9,0,116.9c0,8.2,4.7,13.3,12.1,13.2c7.4-0.1,11.8-5.1,11.8-13.5
			C515.9,223.5,515.9,204.3,515.9,185z M767.6,184.8c0-19.4,0-38.8,0-58.2c0-8.6-4.5-13.8-12.1-13.7c-7.4,0.1-11.8,5.1-11.8,13.5
			c0,38.8,0,77.6,0,116.4c0,8.4,4.5,13.4,11.9,13.5c7.4,0,12.1-5,12.1-13.2C767.6,223.6,767.6,204.2,767.6,184.8z"/>
		<path fill="#009CFE" d="M60.5,72.1c4.5-6.1,10.6-7.1,17.8-7.1c77.2,0.2,154.4,0.1,231.5,0.1c10.1,0,14.3,4.1,14.3,14.1
			c0,77.8-0.1,155.5,0.1,233.3c0,7.1-2.1,12-8.1,15.4c-82.9,0-165.8,0-248.7,0c-2.3-2.3-4.7-4.6-7-7C60.5,238,60.5,155,60.5,72.1z
			 M156.4,220.2c0,15.4,0,30.8,0,46.2c0,8.6,4.6,13.8,12.1,13.7c7.3-0.1,11.8-5.2,11.8-13.5c0-30.8,0-61.6,0-92.5
			c0-8.3-4.6-13.4-11.9-13.5c-7.4,0-12.1,5.1-12.1,13.3C156.4,189.3,156.4,204.7,156.4,220.2z M252.2,220.2c0,15.4,0,30.8,0,46.2
			c0,8.6,4.6,13.8,12.1,13.7c7.3-0.1,11.8-5.2,11.8-13.5c0-30.8,0-61.6,0-92.5c0-8.3-4.6-13.4-11.9-13.5c-7.4,0-12.1,5.1-12.1,13.3
			C252.2,189.4,252.2,204.8,252.2,220.2z M132.4,244.1c0-7.8,0-15.6,0-23.4c-0.1-7.3-5-12.4-12-12.3c-7,0-11.9,5.1-11.9,12.4
			c-0.1,15.6,0,31.1,0,46.7c0,7.4,4.8,12.5,11.7,12.6c7.2,0.1,12.2-5,12.2-12.6C132.4,259.7,132.4,251.9,132.4,244.1z M228.3,244.1
			c0-7.8,0-15.6,0-23.4c-0.1-7.3-5-12.4-12-12.4c-7,0-11.9,5.1-12,12.4c-0.1,15.6,0,31.1,0,46.7c0,7.4,4.8,12.5,11.7,12.6
			c7.2,0.1,12.2-5,12.2-12.6C228.3,259.7,228.3,251.9,228.3,244.1z M132.4,124.9c0-7-4.8-11.9-11.7-12c-7.2-0.1-12.3,4.8-12.3,11.9
			c0,7,4.8,11.9,11.7,12C127.3,136.9,132.4,132,132.4,124.9z M180.3,125.2c0.1-7-4.6-12.1-11.4-12.3c-7.3-0.2-12.5,4.6-12.6,11.6
			c-0.1,7,4.6,12.1,11.4,12.3C175,137,180.2,132.2,180.3,125.2z M216.1,136.8c7.2,0.1,12.2-4.9,12.2-12c0-6.9-4.9-11.8-11.8-11.9
			c-7-0.1-12,4.7-12.1,11.5C204.2,131.7,209,136.7,216.1,136.8z M264.6,112.9c-7.1-0.1-12.2,4.5-12.4,11.3
			c-0.2,7.3,4.6,12.4,11.6,12.6c7.3,0.1,12.3-4.7,12.4-11.8C276.3,118,271.5,113,264.6,112.9z M120.5,160.7c-7,0-11.9,4.8-12,11.7
			c-0.1,7.2,4.8,12.2,11.9,12.2c7.2,0,12.1-5,12-12.2C132.3,165.5,127.4,160.7,120.5,160.7z M216.8,160.7
			c-7.1-0.2-12.2,4.5-12.4,11.2c-0.3,7.3,4.5,12.5,11.5,12.7c7.3,0.2,12.4-4.6,12.5-11.7C228.4,165.8,223.6,160.8,216.8,160.7z"/>
		<path fill="#FDFDFD" d="M60.5,320.9c2.3,2.3,4.7,4.6,7,7C60.5,327.9,60.5,327.9,60.5,320.9z"/>
		<path fill="#4C6887" d="M396.1,250.1c0,6.3,0.1,12.1,0,17.8c-0.1,7.4-5,12.3-12.1,12.2c-6.9,0-11.8-4.9-11.8-12
			c0-39.8,0-79.6,0-119.4c0-5.5,3-9.7,7.9-11.4c4.9-1.7,9.9-0.5,13.4,3.9c1.5,1.9,2.3,2.3,4.7,1.1c28.9-14.4,61.7,0.8,68.2,32.9
			c3.6,17.7,4.7,36.3-3.7,53.6c-12.3,25.1-38.9,34.1-64.3,22C397.8,250.7,397.3,250.5,396.1,250.1z M443.8,196.6c0-4,0.2-8,0-11.9
			c-0.9-13.3-11.4-23.7-23.6-23.8c-12.2-0.1-23,10.1-23.9,23.4c-0.5,8.1-0.5,16.3,0,24.3c0.8,12.6,10.7,22.9,22.3,23.6
			c11.8,0.7,22-7.8,24.8-20.7C444.4,206.5,443.8,201.5,443.8,196.6z"/>
		<path fill="#4C6887" d="M539.9,196.3c-0.5-10.7,0-21.2,4.8-31.1c9.6-19.8,28.4-30.7,48.7-28.3c19.9,2.4,37.8,18.4,41,39.3
			c2.6,17.3,4.3,35.1-3.6,51.8c-9.4,19.8-28.7,30.7-48.8,28.1c-20.1-2.6-36.8-18.8-41.1-39.5C539.5,209.8,540.1,203,539.9,196.3z
			 M564.2,196.2c-0.1,0-0.1,0-0.2,0c0,4-0.2,8,0,11.9c0.9,13,10.7,23.3,22.4,24c12,0.7,22.6-8,24.7-21.3c1.5-9.5,1.5-19.2,0-28.7
			c-2-12.9-12-21.5-23.7-21.3c-11.5,0.2-21.3,9.2-23.1,22C563.7,187.2,564.2,191.8,564.2,196.2z"/>
		<path fill="#4C6887" d="M835.5,201.1c6-14,11.5-26.7,17-39.4c2.4-5.6,4.8-11.3,7.2-16.9c3.1-7,9.9-9.9,16.3-7.1
			c6.5,2.8,9.1,9.5,6.1,16.6c-13.9,32.6-27.6,65.2-42.1,97.6c-8.1,18.1-22.8,27.6-42.8,28.3c-6.9,0.2-12.1-4.9-12.4-11.6
			c-0.3-6.2,4.7-11.6,11.3-12.3c13.7-1.4,22.4-9.3,25.5-22.8c0.5-2.1-0.5-3.6-1.2-5.2c-10.1-23.6-20.2-47.1-30.4-70.7
			c-0.5-1.2-1.1-2.4-1.6-3.7c-2.6-6.9,0-13.5,6.3-16.2c6.3-2.7,13.1,0,16,6.8c7.3,16.7,14.4,33.4,21.6,50.1
			C833.2,196.3,834.1,198.1,835.5,201.1z"/>
		<path fill="#4C6887" d="M659.7,168.5c0-14.3,0-28.5,0-42.8c0-7.9,4.7-12.9,12-12.9c7.3,0,11.9,5,12,12.9c0.1,11,0.1,11,11.1,11
			c4.5,0,9-0.1,13.5,0c6.6,0.2,11.4,5.3,11.4,11.9c0,6.7-4.8,11.8-11.4,11.9c-7,0.1-14,0.2-21,0c-2.8-0.1-3.7,0.7-3.7,3.6
			c0.1,14.3-0.1,28.5,0.1,42.8c0.2,14.8,9.2,24.1,24,25.3c7.6,0.6,12.1,5.3,11.9,12.5c-0.2,6.9-5.2,11.4-12.9,11.5
			c-25.2,0.2-47-21.3-47-46.4C659.7,196.1,659.7,182.3,659.7,168.5z"/>
		<path fill="#4C6887" d="M515.9,185c0,19.2,0,38.5,0,57.7c0,8.4-4.5,13.4-11.8,13.5c-7.4,0.1-12.1-5-12.1-13.2c0-39,0-77.9,0-116.9
			c0-8.2,4.7-13.3,12.1-13.2c7.4,0,11.9,5.1,11.9,13.5C515.9,145.9,515.9,165.5,515.9,185z"/>
		<path fill="#4C6887" d="M767.6,184.8c0,19.4,0,38.8,0,58.2c0,8.2-4.6,13.3-12.1,13.2c-7.4,0-11.9-5.1-11.9-13.5
			c0-38.8,0-77.6,0-116.4c0-8.4,4.4-13.4,11.8-13.5c7.6-0.1,12.1,5.1,12.1,13.7C767.6,146,767.6,165.4,767.6,184.8z"/>
		<path fill="#FEFEFE" d="M156.4,220.2c0-15.4,0-30.8,0-46.2c0-8.2,4.7-13.3,12.1-13.3c7.3,0,11.9,5.2,11.9,13.5
			c0,30.8,0,61.6,0,92.5c0,8.3-4.6,13.5-11.8,13.5c-7.5,0.1-12.1-5.1-12.1-13.7C156.4,251,156.4,235.6,156.4,220.2z"/>
		<path fill="#FEFEFE" d="M252.2,220.2c0-15.4,0-30.8,0-46.2c0-8.2,4.7-13.3,12.1-13.3c7.3,0,11.9,5.2,11.9,13.5
			c0,30.8,0,61.6,0,92.5c0,8.3-4.5,13.5-11.8,13.5c-7.5,0.1-12.1-5.1-12.1-13.7C252.2,251,252.2,235.6,252.2,220.2z"/>
		<path fill="#FDFDFD" d="M132.4,244.1c0,7.8,0,15.6,0,23.4c0,7.6-5,12.7-12.2,12.6c-6.9-0.1-11.7-5.2-11.7-12.6
			c0-15.6,0-31.1,0-46.7c0-7.3,5-12.4,11.9-12.4c7,0,11.9,5,12,12.3C132.5,228.6,132.4,236.4,132.4,244.1z"/>
		<path fill="#FDFDFD" d="M228.3,244.1c0,7.8,0,15.6,0,23.4c0,7.6-5,12.7-12.2,12.6c-6.9-0.1-11.7-5.2-11.7-12.6
			c0-15.6,0-31.1,0-46.7c0-7.3,5-12.4,12-12.4c7,0,11.9,5,12,12.4C228.3,228.6,228.3,236.4,228.3,244.1z"/>
		<path fill="#00FCFE" d="M132.4,124.9c0,7.1-5.1,12-12.3,11.9c-6.9-0.1-11.7-5-11.7-12c0-7.1,5.1-12,12.3-11.9
			C127.6,113,132.4,117.9,132.4,124.9z"/>
		<path fill="#00FCFE" d="M180.3,125.2c-0.1,7-5.3,11.8-12.6,11.6c-6.8-0.2-11.5-5.3-11.4-12.3c0.1-7,5.3-11.8,12.6-11.6
			C175.8,113.1,180.5,118.1,180.3,125.2z"/>
		<path fill="#00FCFE" d="M216.1,136.8c-7.1-0.1-12-5.1-11.8-12.4c0.1-6.8,5.1-11.6,12.1-11.5c6.9,0.1,11.8,5,11.8,11.9
			C228.3,131.9,223.3,136.8,216.1,136.8z"/>
		<path fill="#00FCFE" d="M264.6,112.9c6.9,0.1,11.7,5.1,11.6,12.1c-0.1,7.1-5.1,11.9-12.4,11.8c-7-0.1-11.8-5.3-11.6-12.6
			C252.5,117.4,257.6,112.7,264.6,112.9z"/>
		<path fill="#00FCFE" d="M120.5,160.7c7,0,11.9,4.9,12,11.7c0.1,7.2-4.9,12.2-12,12.2c-7.2,0-12-5-11.9-12.2
			C108.5,165.4,113.5,160.6,120.5,160.7z"/>
		<path fill="#00FCFE" d="M216.8,160.7c6.9,0.2,11.6,5.2,11.5,12.2c-0.1,7.1-5.2,11.9-12.5,11.7c-7-0.2-11.8-5.4-11.5-12.7
			C204.6,165.1,209.7,160.5,216.8,160.7z"/>
		<path fill="#FDFDFD" d="M443.8,196.6c0,5,0.6,9.9-0.5,14.9c-2.8,12.9-13,21.5-24.8,20.7c-11.5-0.7-21.5-11-22.3-23.6
			c-0.5-8.1-0.5-16.3,0-24.3c0.9-13.3,11.7-23.5,23.9-23.4c12.2,0.1,22.6,10.6,23.6,23.8C444.1,188.6,443.8,192.6,443.8,196.6z"/>
		<path fill="#FDFDFD" d="M564.2,196.2c0-4.5-0.5-9,0.1-13.4c1.9-12.8,11.6-21.9,23.1-22c11.6-0.2,21.6,8.4,23.7,21.3
			c1.5,9.5,1.5,19.2,0,28.7c-2.1,13.3-12.7,22-24.7,21.3c-11.7-0.7-21.5-11-22.4-24c-0.3-4,0-7.9,0-11.9
			C564.1,196.2,564.1,196.2,564.2,196.2z"/>
	</g>
</g>
</svg>
