<?xml version="1.0" encoding="utf-8"?>
<!-- Generator: Adobe Illustrator 23.1.1, SVG Export Plug-In . SVG Version: 6.00 Build 0)  -->
<svg version="1.1" id="Layer_1" xmlns="http://www.w3.org/2000/svg" xmlns:xlink="http://www.w3.org/1999/xlink" x="0px" y="0px"
	 viewBox="0 0 240 90" enable-background="new 0 0 240 90" xml:space="preserve">
<g>
	<path d="M32.7,58.5L32.7,58.5c-1.5,0-2.7-1.2-2.7-2.7v-7.1c0-1.5,1.2-2.7,2.7-2.7l0,0c1.5,0,2.7,1.2,2.7,2.7v7.1
		C35.4,57.3,34.2,58.5,32.7,58.5z M43.4,58.2V45.9c0-1.5-1.2-2.7-2.7-2.7l0,0c-1.5,0-2.7,1.2-2.7,2.7v12.3c0,1.5,1.2,2.7,2.7,2.7
		l0,0C42.1,60.9,43.4,59.7,43.4,58.2z M51.3,60.9V43.3c0-1.5-1.2-2.7-2.7-2.7l0,0c-1.5,0-2.7,1.2-2.7,2.7v17.6
		c0,1.5,1.2,2.7,2.7,2.7l0,0C50.1,63.6,51.3,62.4,51.3,60.9z M59.3,63.5V40.5c0-1.5-1.2-2.7-2.7-2.7l0,0c-1.5,0-2.7,1.2-2.7,2.7
		v22.9c0,1.5,1.2,2.7,2.7,2.7l0,0C58.1,66.2,59.3,64.9,59.3,63.5z M71.1,34.5L35.1,24c-0.3-0.1-0.5-0.1-0.8-0.1
		c-1.5,0-2.8,1.2-2.8,2.8v17h2.1v-17c0-0.4,0.4-0.7,0.7-0.7c0.1,0,0.1,0,0.2,0l36,10.5c0.3,0.1,0.5,0.4,0.5,0.7v22.6
		c0,0.4-0.4,0.7-0.7,0.7c-0.1,0-0.1,0-0.2,0l-8.2-2.4v2.2l7.6,2.2c0.3,0.1,0.5,0.1,0.8,0.1c1.5,0,2.8-1.2,2.8-2.8V37.2
		C73.1,35.9,72.3,34.8,71.1,34.5z M94,34.1c1.4-0.2,3.3-0.4,5.6-0.4c2.9,0,5,0.7,6.4,1.9c1.2,1.1,2,2.7,2,4.7c0,2.1-0.6,3.7-1.8,4.9
		c-1.5,1.7-4.1,2.5-6.9,2.5c-0.9,0-1.7,0-2.4-0.2v9.1H94V34.1z M96.9,45c0.6,0.2,1.4,0.2,2.4,0.2c3.5,0,5.7-1.7,5.7-4.9
		c0-3-2.1-4.4-5.4-4.4c-1.3,0-2.3,0.1-2.8,0.2V45z M125.7,48.2c0,6-4.2,8.7-8.1,8.7c-4.4,0-7.8-3.2-7.8-8.4c0-5.5,3.6-8.7,8.1-8.7
		C122.6,39.8,125.7,43.2,125.7,48.2z M112.8,48.4c0,3.6,2.1,6.3,5,6.3c2.8,0,5-2.7,5-6.3c0-2.8-1.4-6.3-4.9-6.3
		C114.3,42,112.8,45.3,112.8,48.4z M130.4,40.2l2.2,8.3c0.5,1.8,0.9,3.5,1.2,5.2h0.1c0.4-1.7,0.9-3.4,1.4-5.2l2.7-8.3h2.5l2.5,8.2
		c0.6,2,1.1,3.7,1.4,5.3h0.1c0.3-1.7,0.7-3.4,1.2-5.3l2.3-8.2h2.9l-5.3,16.3h-2.7l-2.5-7.8c-0.6-1.8-1-3.4-1.4-5.4h-0.1
		c-0.4,2-0.9,3.6-1.5,5.4l-2.6,7.7h-2.7l-4.9-16.3H130.4z M155.3,48.9c0.1,4,2.6,5.7,5.6,5.7c2.1,0,3.4-0.4,4.5-0.8l0.5,2.1
		c-1,0.5-2.8,1-5.4,1c-5,0-8-3.3-8-8.2s2.9-8.8,7.6-8.8c5.3,0,6.7,4.7,6.7,7.7c0,0.6-0.1,1.1-0.1,1.4H155.3z M164,46.8
		c0-1.9-0.8-4.8-4.1-4.8c-3,0-4.3,2.8-4.5,4.8H164z M170.6,45.3c0-1.9,0-3.6-0.1-5.1h2.6l0.1,3.2h0.1c0.7-2.2,2.5-3.6,4.5-3.6
		c0.3,0,0.6,0,0.8,0.1v2.8c-0.3-0.1-0.6-0.1-1-0.1c-2.1,0-3.6,1.6-4,3.8c-0.1,0.4-0.1,0.9-0.1,1.4v8.7h-2.9V45.3z M188.8,34.1
		c1.3-0.3,3.3-0.5,5.4-0.5c2.9,0,4.8,0.5,6.2,1.7c1.2,0.9,1.9,2.2,1.9,4c0,2.2-1.4,4.1-3.8,5v0.1c2.2,0.5,4.7,2.3,4.7,5.7
		c0,2-0.8,3.4-1.9,4.5c-1.6,1.4-4.1,2.1-7.8,2.1c-2,0-3.6-0.1-4.5-0.3V34.1z M191.7,43.4h2.7c3.1,0,4.9-1.6,4.9-3.8
		c0-2.7-2-3.7-5-3.7c-1.3,0-2.1,0.1-2.6,0.2V43.4z M191.7,54.3c0.6,0.1,1.4,0.1,2.5,0.1c3,0,5.8-1.1,5.8-4.4c0-3.1-2.7-4.4-5.9-4.4
		h-2.4V54.3z M210,33.8v22.7h-2.9V33.8H210z"/>
</g>
</svg>
