<?xml version="1.0" encoding="utf-8"?>
<!-- Generator: Adobe Illustrator 23.1.1, SVG Export Plug-In . SVG Version: 6.00 Build 0)  -->
<svg version="1.1" id="Layer_1" xmlns="http://www.w3.org/2000/svg" xmlns:xlink="http://www.w3.org/1999/xlink" x="0px" y="0px"
	 viewBox="0 0 240 90" enable-background="new 0 0 240 90" xml:space="preserve">
<g>
	<path d="M18.1,60.7L18.1,60.7c-1.7,0-3.1-1.4-3.1-3.1v-8.3c0-1.7,1.4-3.1,3.1-3.1l0,0c1.7,0,3.1,1.4,3.1,3.1v8.3
		C21.3,59.3,19.9,60.7,18.1,60.7z M30.6,60.4V46c0-1.7-1.4-3.1-3.1-3.1l0,0c-1.7,0-3.1,1.4-3.1,3.1v14.4c0,1.7,1.4,3.1,3.1,3.1l0,0
		C29.2,63.6,30.6,62.1,30.6,60.4z M39.9,63.6V43c0-1.7-1.4-3.1-3.1-3.1l0,0c-1.7,0-3.1,1.4-3.1,3.1v20.5c0,1.7,1.4,3.1,3.1,3.1l0,0
		C38.5,66.7,39.9,65.3,39.9,63.6z M49.2,66.5V39.8c0-1.7-1.4-3.1-3.1-3.1l0,0c-1.7,0-3.1,1.4-3.1,3.1v26.8c0,1.7,1.4,3.1,3.1,3.1
		l0,0C47.7,69.7,49.2,68.3,49.2,66.5z M62.9,32.7L21,20.5c-0.3-0.1-0.6-0.1-0.9-0.1c-1.8,0-3.3,1.4-3.3,3.3v19.8h2.5V23.6
		c0-0.5,0.4-0.8,0.8-0.8c0.1,0,0.2,0,0.2,0l42,12.3c0.4,0.1,0.6,0.4,0.6,0.8v26.4c0,0.5-0.4,0.8-0.8,0.8c-0.1,0-0.2,0-0.2,0
		l-9.6-2.8v2.6l8.9,2.6c0.3,0.1,0.6,0.1,0.9,0.1c1.8,0,3.3-1.4,3.3-3.3V35.9C65.3,34.4,64.4,33.1,62.9,32.7z M89.7,32.2
		c1.7-0.3,3.8-0.5,6.6-0.5c3.4,0,5.9,0.8,7.4,2.2c1.5,1.3,2.3,3.2,2.3,5.5c0,2.4-0.7,4.3-2,5.7c-1.8,1.9-4.8,2.9-8.1,2.9
		c-1,0-2,0-2.8-0.2v10.6h-3.4V32.2z M93.1,45c0.7,0.2,1.7,0.3,2.8,0.3c4.1,0,6.6-2,6.6-5.7c0-3.5-2.5-5.2-6.2-5.2
		c-1.5,0-2.6,0.1-3.2,0.3V45z M126.7,48.7c0,7-4.9,10.1-9.5,10.1c-5.1,0-9.1-3.8-9.1-9.8c0-6.4,4.2-10.1,9.4-10.1
		C123,39,126.7,42.9,126.7,48.7z M111.6,48.9c0,4.2,2.4,7.3,5.8,7.3c3.3,0,5.8-3.1,5.8-7.4c0-3.2-1.6-7.3-5.7-7.3
		C113.4,41.6,111.6,45.3,111.6,48.9z M132.1,39.4l2.5,9.7c0.6,2.1,1.1,4.1,1.4,6.1h0.1c0.4-1.9,1.1-4,1.7-6l3.1-9.7h2.9l2.9,9.5
		c0.7,2.3,1.3,4.3,1.7,6.2h0.1c0.3-1.9,0.8-3.9,1.5-6.2l2.7-9.5h3.4l-6.1,19H147l-2.9-9.1c-0.7-2.1-1.2-4-1.7-6.2h-0.1
		c-0.5,2.3-1.1,4.2-1.7,6.3l-3.1,9h-3.1l-5.7-19H132.1z M161.2,49.5c0.1,4.7,3.1,6.6,6.5,6.6c2.5,0,4-0.4,5.3-1l0.6,2.5
		c-1.2,0.6-3.3,1.2-6.3,1.2c-5.9,0-9.4-3.9-9.4-9.6s3.4-10.3,8.9-10.3c6.2,0,7.9,5.5,7.9,9c0,0.7-0.1,1.3-0.1,1.6H161.2z
		 M171.4,47.1c0-2.2-0.9-5.6-4.8-5.6c-3.5,0-5,3.2-5.3,5.6H171.4z M179,45.3c0-2.2,0-4.2-0.2-5.9h3l0.1,3.7h0.2
		c0.9-2.6,2.9-4.2,5.3-4.2c0.4,0,0.7,0,1,0.1v3.3c-0.4-0.1-0.7-0.1-1.2-0.1c-2.4,0-4.2,1.8-4.6,4.4c-0.1,0.5-0.2,1-0.2,1.6v10.1H179
		V45.3z M200.3,32.3c1.5-0.3,3.9-0.5,6.2-0.5c3.4,0,5.6,0.6,7.3,1.9c1.4,1,2.2,2.6,2.2,4.7c0,2.6-1.7,4.8-4.5,5.8v0.1
		c2.5,0.6,5.5,2.7,5.5,6.6c0,2.3-0.9,4-2.2,5.3c-1.8,1.7-4.8,2.5-9.2,2.5c-2.4,0-4.2-0.2-5.3-0.3V32.3z M203.7,43.1h3.1
		c3.6,0,5.7-1.9,5.7-4.4c0-3.1-2.4-4.3-5.8-4.3c-1.6,0-2.5,0.1-3,0.2V43.1z M203.7,55.8c0.7,0.1,1.7,0.2,2.9,0.2
		c3.5,0,6.8-1.3,6.8-5.1c0-3.6-3.1-5.1-6.8-5.1h-2.8V55.8z M225,31.9v26.5h-3.4V31.9H225z"/>
</g>
</svg>
