<?xml version="1.0" encoding="utf-8"?>
<!-- Generator: Adobe Illustrator 23.1.1, SVG Export Plug-In . SVG Version: 6.00 Build 0)  -->
<svg version="1.1" id="Layer_1" xmlns="http://www.w3.org/2000/svg" xmlns:xlink="http://www.w3.org/1999/xlink" x="0px" y="0px"
	 viewBox="0 0 1201.7 436.5" enable-background="new 0 0 1201.7 436.5" xml:space="preserve">
<g>
	<path fill="#606163" d="M270.7,213.5c0,37.6-30.4,68-68,68c-37.6,0-68-30.5-68-68c0-37.6,30.4-68,68-68
		C240.2,145.5,270.7,175.9,270.7,213.5 M329.3,313.7c0,0,4.5-5.2-0.7-9.7l-28.4-24.6c12.7-18.8,20.2-41.5,20.2-65.9
		c0-65.1-52.7-117.8-117.8-117.8c-65.1,0-117.8,52.8-117.8,117.8s52.7,117.8,117.8,117.8c23.8,0,45.9-7.1,64.5-19.3l31.1,27
		c0,0,5.2,4.5,9.7-0.7L329.3,313.7z M408.7,323.2V103.8c0-8-8-8-8-8h-35.3c-8,0-8,8-8,8v219.4c0,8,8,8,8,8h35.3
		C408.7,331.2,408.7,323.2,408.7,323.2 M495.5,126v-22.7c0,0,0-7.7-7.7-7.7h-33.9c0,0-7.7,0-7.7,7.7V126c0,0,0,7.7,7.7,7.7h33.9
		C487.7,133.8,495.5,133.8,495.5,126 M496.8,323.2V164.8c0-8-8-8-8-8h-34.7c-8,0-8,8-8,8v158.4c0,8,8,8,8,8h34.7
		C496.8,331.2,496.8,323.2,496.8,323.2 M645.3,226c-4.2-6.9,1.4-12.6,1.4-12.6l48.8-50.5c5.6-5.8-2.4-5.8-2.4-5.8h-45.6
		c-8,0-13.5,5.8-13.5,5.8l-45.3,48c-5.5,5.8-5.5-2.2-5.5-2.2v-105c0-8-8-8-8-8h-34.6c-7.7,0-7.7,7.7-7.7,7.7v219.7c0,8,8,8,8,8h34.3
		c7.7,0,7.7-7.7,7.7-7.7v-38.6c0-8,5.8-13.5,5.8-13.5l16.2-15.2l40.6,68.1c4.1,6.9,12.1,6.9,12.1,6.9h43.3c8,0,3.9-6.9,3.9-6.9
		L645.3,226z"/>
	<path fill="#61A730" d="M1013.7,211.9c0,52.1-42.2,94.4-94.4,94.4c-52.1,0-94.4-42.3-94.4-94.4c0-52.1,42.3-94.4,94.4-94.4
		C971.4,117.5,1013.7,159.8,1013.7,211.9 M1092.2,329.9l-43-36.1c15-23.7,23.7-51.8,23.7-81.9c0-84.8-68.8-153.6-153.6-153.6
		c-84.8,0-153.6,68.8-153.6,153.6c0,84.8,68.8,153.6,153.6,153.6c32.9,0,63.4-10.4,88.4-28l45.8,38.5c0,0,6.8,5.7,12.5-1.1
		l27.2-32.5C1093.3,342.4,1099,335.6,1092.2,329.9"/>
	<path fill="#606163" d="M858.8,211.9c0-33.4,27.1-60.5,60.5-60.5c33.4,0,60.5,27.1,60.5,60.5c0,33.4-27.1,60.5-60.5,60.5
		C885.9,272.4,858.8,245.3,858.8,211.9"/>
	<path fill="#606163" d="M1098.7,106.8h4.1c2.4,0,4-0.5,4-3.3c0-2.3-1.8-3.2-4-3.2h-4.1V106.8z M1098.7,116.5h-2v-18h6.5
		c3.1,0,5.5,1.6,5.5,5c0,2.8-1.5,4.7-4.3,5l5.1,8h-2.5l-4.8-8h-3.6L1098.7,116.5L1098.7,116.5z M1102.1,94.8
		c-6.9,0-12.4,5.7-12.4,12.8c0,7.1,5.3,12.7,12.4,12.7s12.4-5.6,12.4-12.7C1114.5,100.5,1109.2,94.8,1102.1,94.8 M1087.4,107.6
		c0-8.1,6.7-14.7,14.7-14.7c8.2,0,14.7,6.7,14.7,14.7c0,8.1-6.6,14.7-14.7,14.7C1094.1,122.3,1087.4,115.6,1087.4,107.6"/>
</g>
</svg>
