<svg xmlns="http://www.w3.org/2000/svg" viewBox="0 0 349.2 181.61"><defs><style>.a{fill:#fc7863;}.b{fill:#fff;}.c{fill:#ef6c58;}.d{fill:#6c8895;}</style></defs><title>redash-default</title><path class="a" d="M87,35c5.41,1.5,11,2.5,16.18,4.58,35.35,14.2,46.81,59.25,22.38,88.48-14,16.73-28.65,32.94-43,49.4a18.67,18.67,0,0,1-2.36,2.12v-29c-8.45-2.59-16.57-4.06-23.77-7.46C33,132,20.84,107.78,25.08,82.12c4-24,23.71-42.8,48.61-46.32A12.44,12.44,0,0,0,76,35H87Zm30.78,57.5q0-6.74,0-13.48c0-10.66-.26-10.84-10.94-10.34-3.27.15-5,1.42-4.95,4.78q0,19.22,0,38.43c0,3.34,1.65,4.87,4.88,4.91,1.5,0,3-.1,4.49,0,4.66,0.38,6.74-1.58,6.57-6.37C117.62,104.48,117.78,98.49,117.78,92.5Zm-39.63,7c0-3.66-.17-7.34,0-11,0.25-4.25-1.43-6.29-5.77-6a26.8,26.8,0,0,1-4,0c-4.6-.37-6.2,1.87-6.09,6.28,0.18,7.32.14,14.65,0,22-0.07,4.15,1.51,6.32,5.86,6,1.49-.1,3-0.06,4.49,0,3.7,0.13,5.59-1.44,5.47-5.33S78.15,103.51,78.15,99.51Zm3.79,4.9q0,2.24,0,4.48c0,7.52.4,7.92,7.83,7.92,1,0,2,0,3,0,3.24,0,5-1.53,5-4.8,0-5,.36-10-0.19-14.92C97.4,95.52,94.9,93,93.38,93c-12-.46-11.64-0.86-11.45,10C81.95,103.42,81.94,103.91,81.94,104.41ZM50.84,101c-7.72,0-7.91.18-7.92,7.73s0.37,8.09,7.63,8.1c7.77,0,8.23-.44,8.23-8.06C58.78,101.32,58.44,101,50.84,101Z" transform="translate(23.07 -35)"/><path class="b" d="M117.78,92.5c0,6-.16,12,0.05,18,0.17,4.79-1.91,6.75-6.57,6.37-1.49-.12-3,0-4.49,0-3.23,0-4.89-1.57-4.88-4.91q0.05-19.22,0-38.43c0-3.37,1.67-4.63,4.95-4.78,10.67-.5,10.94-0.32,10.94,10.34Q117.78,85.76,117.78,92.5Z" transform="translate(23.07 -35)"/><path class="b" d="M78.15,99.51c0,4-.1,8,0,12s-1.76,5.46-5.47,5.33c-1.5-.05-3-0.09-4.49,0-4.36.28-5.93-1.9-5.86-6,0.12-7.32.17-14.65,0-22-0.11-4.41,1.49-6.65,6.09-6.28a26.8,26.8,0,0,0,4,0c4.34-.3,6,1.74,5.77,6C78,92.17,78.15,95.85,78.15,99.51Z" transform="translate(23.07 -35)"/><path class="b" d="M81.94,104.41c0-.5,0-1,0-1.49-0.2-10.83-.51-10.42,11.45-10,1.52,0.06,4,2.56,4.2,4.14,0.55,4.92.24,9.94,0.19,14.92,0,3.27-1.78,4.84-5,4.8-1,0-2,0-3,0-7.43,0-7.82-.4-7.83-7.92Q81.94,106.65,81.94,104.41Z" transform="translate(23.07 -35)"/><path class="b" d="M50.84,101c7.59,0,7.93.33,7.94,7.77,0,7.62-.46,8.07-8.23,8.06-7.25,0-7.64-.42-7.63-8.1S43.12,101,50.84,101Z" transform="translate(23.07 -35)"/><path class="c" d="M80.25,142.52v8.06s-16.57-4.06-23.77-7.46C33,132,20.84,107.78,25.08,82.12a59,59,0,0,0,18.32,43.81C58.68,140.79,80.25,142.52,80.25,142.52Z" transform="translate(23.07 -35)"/><path class="c" d="M80,180l0.24-8s57.22-54.69,58.11-78.43a49.83,49.83,0,0,1-3.1,17.91c-2,5.68-5.87,11.79-10.75,17.75-7.92,9.69-33.11,38.44-41.43,47.75A35.93,35.93,0,0,1,80,180Z" transform="translate(23.07 -35)"/><path class="d" d="M152,131.49c5.46,0.61,4.8,1.78,4.27,6.89-2,19-4.05,37.93-6,56.91-0.8,7.74-.67,7.81,6.54,7.63,1.44,5.31-.57,10.53-4.7,12.22-7.36,3-14.35.38-18.37-7.11-3.81,5.73-9,8.53-15.92,8.08-8-.52-14-4.53-16.28-12.29a43.73,43.73,0,0,1,4.54-36.4c5.34-8.88,17.93-15.64,31.29-6.85,0.56-4.82,1.11-9.45,1.63-14.08,0.3-2.75.69-5.51,0.77-8.27,0.1-3.43,1.39-6.3,4.86-6.73A39.91,39.91,0,0,1,152,131.49Zm-35.85,59a28.33,28.33,0,0,0,.61,5.28c0.95,4.76,3.89,7.22,8.26,7.07,3.64-.13,8.5-4.19,8.92-7.81q1.22-10.55,2-21.14a4,4,0,0,0-1.71-3c-5.42-3.23-12-1.09-14.84,5.13A38.4,38.4,0,0,0,116.18,190.45Z" transform="translate(23.07 -35)"/><path class="d" d="M288.86,131.49c4.67,1.81,4.75,1.89,4.23,7-0.72,6.94-1.5,13.87-2.24,20.81-0.13,1.2-.16,2.4-0.27,4.11l2.53-1.89c4.59-3.4,9.6-5.5,15.44-5,9.28,0.78,13.76,6.25,12.83,15.52q-1.25,12.4-2.38,24.82c-0.56,6.2.06,6.75,6.35,5.95,2.16,5-.36,11-5.32,12.65-10.38,3.51-18.75-3.1-17.81-14.13,0.7-8.18,1.5-16.35,2.29-24.52,0.49-5.08-2.17-7.55-7.22-6.67a10.63,10.63,0,0,0-8.51,9.17c-1.11,10.51-2.35,21-3.36,31.52-0.3,3.11-2,4.37-4.75,4.52a55.65,55.65,0,0,1-7.69,0c-3.21-.28-4.28-1.69-3.94-4.89q3.62-34.59,7.28-69.18a21.57,21.57,0,0,0,.23-2.76c-0.09-3.56,1.23-6.1,4.92-7h7.4Z" transform="translate(23.07 -35)"/><path class="d" d="M218.29,202.74c-0.46,0-.94.08-1.42,0.15-4.56.64-5.64-.37-5.22-4.86,0.18-1.94.35-3.88,0.55-5.82,1.07-10.2,2.22-20.4,3.16-30.62a4.4,4.4,0,0,0-1.42-3.54c-4.4-2.64-11.3-.48-13.15,3.29-3.89-1.57-7.6-3.92-11.56-4.49-10-1.43-16.85,3.79-21.59,12.11-4.52,7.93-5.49,16.54-5.21,25.49,0.38,12.27,4.68,18.17,16.1,21.87,1.88,0.32,12.44.48,16.83-8.32,3.6,7.23,10.76,10,18.06,7.17C217.86,213.47,219.87,208.47,218.29,202.74Zm-20.53-28.52c-0.2,2.11-.44,4.22-0.69,6.32q-0.63,7.23-1.46,14.44c-0.24,2.08-2,4.31-4.06,5.85-0.19.15-.37,0.31-0.57,0.46a7.28,7.28,0,0,1-6.93,1.22c-2.91-.76-4.87-3.07-5.61-6.79a28.33,28.33,0,0,1-.61-5.28A38.4,38.4,0,0,1,181,175.94c2.8-6.22,9.42-8.36,14.84-5.13a2.89,2.89,0,0,1,.65.56A3.76,3.76,0,0,1,197.76,174.22Z" transform="translate(23.07 -35)"/><path class="d" d="M58.53,157.78a45.45,45.45,0,0,0-9.09-1.33c-14.56-.57-26.26,7.6-29.51,21.36a63.75,63.75,0,0,0-1.42,18.28c0.63,10.32,7.21,17.18,17.31,19.23a41.13,41.13,0,0,0,18.9-.5c8.55-2.25,11.56-7.38,9.36-16.44-1.14.43-2.27,0.81-3.36,1.28-5.13,2.24-10.39,3.8-16.08,3.44-6.37-.4-9.74-4.15-9.52-10.87,3.69,0.18,7.15.42,10.63,0.49,6.54,0.13,12.63-1.39,17.9-5.43,5.85-4.48,7.55-10.69,6.31-17.56C68.83,163.5,64.79,159.34,58.53,157.78Zm-5.64,20.15a12.4,12.4,0,0,1-6,3.26c-3.46.7-7.07,0.61-10.92,0.87,1-8.92,6.78-13.79,14-12.44C54.19,170.42,55.92,174.87,52.89,177.93Z" transform="translate(23.07 -35)"/><path class="d" d="M238.47,216.61c-6.33-.5-7.46-1.26-11.05-2.35-3.85-1.17-4.59-2.62-4.54-6.61,0-.82,0-1.64.07-2.46,0.37-5.7,1-5.84,6.22-4A37.19,37.19,0,0,0,239.32,203a4.8,4.8,0,0,0,5.37-4.06c0.58-2.77-.76-4.56-3-5.76a37.54,37.54,0,0,0-5.33-2.36c-6-2.07-10.72-5.35-11.18-12.34-0.5-7.54,1.58-14.05,8.26-18.37,6.45-4.17,13.58-4.18,20.81-3a23.26,23.26,0,0,1,6.13,1.9c2.93,1.39,3.63,3.7,2.26,6.64a31.58,31.58,0,0,1-2,3.43c-1.32,2.09-2.84,2.52-5.43,1.78a33.14,33.14,0,0,0-9.88-1c-1.09,0-2.83,1.73-3,2.86a5.25,5.25,0,0,0,1.71,4.12,21.77,21.77,0,0,0,6,3c12.88,4.89,16.1,19.43,6.47,29.55C251.57,214.49,247.72,216.16,238.47,216.61Z" transform="translate(23.07 -35)"/><path class="d" d="M-2.66,164.43C0.73,160.24,4,157,9,156.51c4.71-.46,6.8,1.49,6.29,6.19A19.66,19.66,0,0,1,14,167.43c-1.58,4.2-1.64,4.18-6.12,3.52A9.91,9.91,0,0,0-3.52,179.7c-1,9.58-2,19.18-2.88,28.78-0.56,6-1.43,6.89-7.29,7-10.44.18-9.79-1.12-9-9.79,1.37-14.28,2.23-28.6,3.47-42.89,0.11-1.23,1.24-3.13,2.25-3.4a49.21,49.21,0,0,1,10.55-1.6c1,0,2.27,1.68,3,2.85C-2.82,161.5-2.93,162.78-2.66,164.43Z" transform="translate(23.07 -35)"/></svg>