<svg width="160" height="50" xmlns="http://www.w3.org/2000/svg" xmlns:svg="http://www.w3.org/2000/svg">
 <defs>
  <style>.a{fill:#fc7863;}.b{fill:#fff;}.c{fill:#ef6c58;}.d{fill:#6c8895;}</style>
 </defs>
 <title>redash</title>
 <g>
  <title>Layer 1</title>
  <g stroke="null" id="svg_14">
   <path stroke="null" id="svg_1" d="m62.30461,0.19426c1.47986,0.41031 3.00895,0.68385 4.4259,1.25282c9.66969,3.88429 12.80447,16.20732 6.12186,24.20294c-3.82958,4.57635 -7.83696,9.01045 -11.76228,13.51294a5.10702,5.10702 0 0 1 -0.64556,0.57991l0,-7.9327c-2.31142,-0.70847 -4.53258,-1.11058 -6.50208,-2.04062c-6.40907,-3.04178 -9.73534,-9.66695 -8.57552,-16.68602c1.09417,-6.56499 6.48567,-11.70757 13.29684,-12.67044a3.40285,3.40285 0 0 0 0.63188,-0.21883l3.00895,0zm8.4196,15.72863q0,-1.84367 0,-3.68734c0,-2.91595 -0.07112,-2.96519 -2.99254,-2.82842c-0.89448,0.04103 -1.36771,0.38843 -1.35403,1.30753q0,5.25746 0,10.51219c0,0.91363 0.45134,1.33215 1.33488,1.34309c0.41031,0 0.82062,-0.02735 1.2282,0c1.2747,0.10395 1.84367,-0.4322 1.79717,-1.74246c-0.05744,-1.62757 -0.01368,-3.26608 -0.01368,-4.9046zm-10.84044,1.91479c0,-1.00116 -0.0465,-2.00779 0,-3.00895c0.06839,-1.16255 -0.39116,-1.72058 -1.57833,-1.64125a7.33091,7.33091 0 0 1 -1.09417,0c-1.25829,-0.10121 -1.69596,0.51152 -1.66587,1.71784c0.04924,2.00232 0.0383,4.00738 0,6.01791c-0.01915,1.1352 0.41305,1.72878 1.60295,1.64125c0.40758,-0.02735 0.82062,-0.01641 1.2282,0c1.0121,0.03556 1.5291,-0.3939 1.49627,-1.45798s0.01094,-2.17192 0.01094,-3.26608l0,-0.00274zm1.03672,1.34035q0,0.61273 0,1.22547c0,2.05703 0.10942,2.16645 2.14183,2.16645c0.27354,0 0.54708,0 0.82062,0c0.88627,0 1.36771,-0.41852 1.36771,-1.313c0,-1.36771 0.09847,-2.73541 -0.05197,-4.08124c-0.04924,-0.42672 -0.73309,-1.11605 -1.14887,-1.11605c-3.2825,-0.12583 -3.18402,-0.23525 -3.13205,2.73541c0.00547,0.11489 0.00274,0.24892 0.00274,0.38569l0,-0.00274zm-8.50714,-0.93278c-2.11174,0 -2.16371,0.04924 -2.16645,2.11447s0.10121,2.21295 2.08712,2.21568c2.12542,0 2.25125,-0.12036 2.25125,-2.20474c0,-2.03515 -0.093,-2.12268 -2.17192,-2.12268l0,-0.00274z" class="a"/>
   <path stroke="null" id="svg_2" d="m70.72421,15.92288c0,1.64125 -0.04377,3.2825 0.01368,4.92374c0.0465,1.31026 -0.52246,1.8464 -1.79717,1.74246c-0.40758,-0.03282 -0.82062,0 -1.2282,0c-0.88354,0 -1.33762,-0.42946 -1.33488,-1.34309q0.01368,-5.25746 0,-10.51219c0,-0.92183 0.45681,-1.2665 1.35403,-1.30753c2.91869,-0.13677 2.99254,-0.08753 2.99254,2.82842q0,1.82452 0,3.66819z" class="b"/>
   <path stroke="null" id="svg_3" d="m59.88377,17.84041c0,1.09417 -0.02735,2.18833 0,3.2825s-0.48143,1.49354 -1.49627,1.45798c-0.41031,-0.01368 -0.82062,-0.02462 -1.2282,0c-1.19264,0.07659 -1.6221,-0.51973 -1.60295,-1.64125c0.03282,-2.00232 0.0465,-4.00738 0,-6.01791c-0.03009,-1.20632 0.40758,-1.81905 1.66587,-1.71784a7.33091,7.33091 0 0 0 1.09417,0c1.18717,-0.08206 1.64125,0.47596 1.57833,1.64125c-0.05197,0.98748 -0.01094,1.99412 -0.01094,2.99528z" class="b"/>
   <path stroke="null" id="svg_4" d="m60.92049,19.18076c0,-0.13677 0,-0.27354 0,-0.40758c-0.05471,-2.96245 -0.13951,-2.8503 3.13205,-2.73541c0.41578,0.01641 1.09417,0.70027 1.14887,1.13246c0.15045,1.34582 0.06565,2.719 0.05197,4.08124c0,0.89448 -0.4869,1.32394 -1.36771,1.313c-0.27354,0 -0.54708,0 -0.82062,0c-2.03241,0 -2.13909,-0.10942 -2.14183,-2.16645q-0.00274,-0.60453 -0.00274,-1.21726z" class="b"/>
   <path stroke="null" id="svg_5" d="m52.41335,18.24798c2.07618,0 2.16918,0.09027 2.17192,2.12542c0,2.08439 -0.12583,2.20748 -2.25125,2.20474c-1.98317,0 -2.08986,-0.11489 -2.08712,-2.21568s0.05471,-2.11447 2.16645,-2.11447z" class="b"/>
   <path stroke="null" id="svg_6" d="m60.45821,29.60542l0,2.20474s-4.53258,-1.11058 -6.50208,-2.04062c-6.42275,-3.04178 -9.74901,-9.66695 -8.5892,-16.68602a16.13894,16.13894 0 0 0 5.01128,11.98385c4.17971,4.06482 10.08,4.53805 10.08,4.53805z" class="c"/>
   <path stroke="null" id="svg_7" d="m60.38982,39.85775l0.06565,-2.18833s15.65204,-14.95998 15.89549,-21.45385a13.63057,13.63057 0 0 1 -0.84798,4.89913c-0.54708,1.55371 -1.60569,3.22505 -2.94057,4.85536c-2.16645,2.65062 -9.05695,10.51493 -11.33282,13.0616a9.82834,9.82834 0 0 1 -0.83977,0.82609z" class="c"/>
   <path stroke="null" id="svg_8" d="m80.0848,26.58826c1.49354,0.16686 1.313,0.4869 1.16802,1.8847c-0.54708,5.19729 -1.10784,10.37542 -1.64125,15.56724c-0.21883,2.11721 -0.18327,2.13636 1.78896,2.08712c0.3939,1.4525 -0.15592,2.88039 -1.28564,3.34268c-2.01326,0.82062 -3.92532,0.10395 -5.02495,-1.94488c-1.04219,1.56739 -2.46187,2.33331 -4.35478,2.21021c-2.18833,-0.14224 -3.82958,-1.23914 -4.45325,-3.36182a11.96196,11.96196 0 0 1 1.24188,-9.9569c1.46071,-2.42905 4.9046,-4.27819 8.55911,-1.87376c0.15318,-1.31847 0.30363,-2.58497 0.44587,-3.85146c0.08206,-0.75224 0.18874,-1.50721 0.21063,-2.26219c0.02735,-0.93825 0.38022,-1.72331 1.32941,-1.84093a10.91704,10.91704 0 0 1 2.016,0zm-9.80646,16.13894a7.74943,7.74943 0 0 0 0.16686,1.4443c0.25986,1.30206 1.06408,1.97497 2.25945,1.93394c0.99569,-0.03556 2.3251,-1.14614 2.43999,-2.13636q0.33372,-2.88586 0.54708,-5.78266a1.09417,1.09417 0 0 0 -0.46776,-0.82062c-1.48259,-0.88354 -3.2825,-0.29816 -4.05935,1.40327a10.50399,10.50399 0 0 0 -0.87807,3.9472l-0.00821,0.01094z" class="d"/>
   <path stroke="null" id="svg_9" d="m117.52167,26.58826c1.27744,0.49511 1.29932,0.51699 1.15708,1.91479c-0.19695,1.89838 -0.41031,3.79402 -0.61273,5.6924c-0.03556,0.32825 -0.04377,0.6565 -0.07386,1.12425l0.69206,-0.51699c1.25555,-0.93004 2.626,-1.50448 4.22348,-1.36771c2.53846,0.21336 3.76393,1.70963 3.50954,4.24536q-0.34193,3.39191 -0.65103,6.7893c-0.15318,1.69596 0.01641,1.8464 1.73699,1.62757c0.59085,1.36771 -0.09847,3.00895 -1.45524,3.4603c-2.83936,0.96013 -5.1289,-0.84798 -4.87177,-3.86514c0.19148,-2.23757 0.41031,-4.4724 0.62641,-6.70723c0.13404,-1.38959 -0.59358,-2.06524 -1.97497,-1.82452a2.90774,2.90774 0 0 0 -2.32784,2.50837c-0.30363,2.87492 -0.64282,5.74437 -0.9191,8.62202c-0.08206,0.85071 -0.54708,1.19538 -1.29932,1.23641a15.22258,15.22258 0 0 1 -2.10353,0c-0.87807,-0.07659 -1.17076,-0.46228 -1.07775,-1.33762q0.99022,-9.4618 1.99138,-18.92359a5.90029,5.90029 0 0 0 0.06291,-0.75497c-0.02462,-0.97381 0.33646,-1.6686 1.34582,-1.91479l2.02421,0l-0.00274,-0.00821z" class="d"/>
   <path stroke="null" id="svg_10" d="m98.21785,46.07808c-0.12583,0 -0.25713,0.02188 -0.38843,0.04103c-1.24735,0.17507 -1.54277,-0.10121 -1.42789,-1.32941c0.04924,-0.53067 0.09574,-1.06134 0.15045,-1.59201c0.29269,-2.79012 0.60726,-5.58024 0.86439,-8.37584a1.20358,1.20358 0 0 0 -0.38843,-0.96834c-1.20358,-0.72215 -3.09102,-0.1313 -3.59707,0.89995c-1.06408,-0.42946 -2.07891,-1.07228 -3.16214,-1.2282c-2.73541,-0.39116 -4.60917,1.03672 -5.90576,3.31259c-1.23641,2.16918 -1.50174,4.52437 -1.42515,6.97257c0.10395,3.35635 1.28017,4.97025 4.40402,5.98235c0.51426,0.08753 3.40285,0.1313 4.6037,-2.27586c0.98475,1.9777 2.9433,2.73541 4.94016,1.96129c1.21452,-0.46502 1.76434,-1.83273 1.33215,-3.40012zm-5.6158,-7.8014c-0.05471,0.57717 -0.12036,1.15434 -0.18874,1.72878q-0.17233,1.9777 -0.39937,3.94994c-0.06565,0.56897 -0.54708,1.17896 -1.11058,1.60022c-0.05197,0.04103 -0.10121,0.0848 -0.15592,0.12583a1.99138,1.99138 0 0 1 -1.89564,0.33372c-0.79601,-0.20789 -1.33215,-0.83977 -1.53457,-1.85735a7.74943,7.74943 0 0 1 -0.16686,-1.4443a10.50399,10.50399 0 0 1 0.86713,-3.96635c0.76592,-1.70143 2.57676,-2.28681 4.05935,-1.40327a0.79053,0.79053 0 0 1 0.1778,0.15318a1.02852,1.02852 0 0 1 0.3474,0.77959z" class="d"/>
   <path stroke="null" id="svg_11" d="m54.51689,33.77966a12.43245,12.43245 0 0 0 -2.48649,-0.36381c-3.98276,-0.15592 -7.1832,2.07891 -8.07221,5.84284a17.43826,17.43826 0 0 0 -0.38843,5.00034c0.17233,2.82295 1.97223,4.69944 4.735,5.2602a11.25076,11.25076 0 0 0 5.16993,-0.13677c2.33878,-0.61547 3.16214,-2.01874 2.56035,-4.49702c-0.31184,0.11762 -0.62094,0.22157 -0.9191,0.35013c-1.40327,0.61273 -2.84209,1.03946 -4.39854,0.94098c-1.74246,-0.10942 -2.66429,-1.1352 -2.60411,-2.97339c1.00937,0.04924 1.95582,0.11489 2.90774,0.13404c1.78896,0.03556 3.45483,-0.38022 4.89639,-1.48533c1.60022,-1.22547 2.06524,-2.92416 1.72605,-4.80339c-0.3091,-1.70416 -1.41421,-2.84209 -3.12658,-3.26882zm-1.54277,5.51186a3.39191,3.39191 0 0 1 -1.64125,0.89174c-0.94645,0.19148 -1.93394,0.16686 -2.98707,0.23798c0.27354,-2.43999 1.85461,-3.77214 3.82958,-3.40285c1.15434,0.21883 1.62757,1.43609 0.79874,2.27313z" class="d"/>
   <path stroke="null" id="svg_12" d="m103.73792,49.8721c-1.73152,-0.13677 -2.04062,-0.34466 -3.02263,-0.64282c-1.05313,-0.32004 -1.25555,-0.71668 -1.24188,-1.80811c0,-0.2243 0,-0.44861 0.01915,-0.67291c0.10121,-1.55919 0.27354,-1.59748 1.70143,-1.09417a10.173,10.173 0 0 0 2.77644,0.49511a1.313,1.313 0 0 0 1.46892,-1.11058c0.15865,-0.75771 -0.20789,-1.24735 -0.82062,-1.5756a10.26874,10.26874 0 0 0 -1.45798,-0.64556c-1.64125,-0.56623 -2.93236,-1.46345 -3.05819,-3.3755c-0.13677,-2.0625 0.4322,-3.84326 2.25945,-5.02495c1.76434,-1.14067 3.71469,-1.1434 5.6924,-0.82062a6.36257,6.36257 0 0 1 1.67681,0.51973c0.80148,0.38022 0.99296,1.0121 0.6182,1.81631a8.63844,8.63844 0 0 1 -0.54708,0.93825c-0.36107,0.5717 -0.77686,0.68932 -1.48533,0.4869a9.06516,9.06516 0 0 0 -2.70259,-0.27354c-0.29816,0 -0.77412,0.47323 -0.82062,0.78233a1.43609,1.43609 0 0 0 0.46776,1.12699a5.955,5.955 0 0 0 1.64125,0.82062c3.52321,1.33762 4.40402,5.31491 1.76981,8.08315c-1.35129,1.39506 -2.40443,1.85187 -4.93469,1.97497z" class="d"/>
   <path stroke="null" id="svg_13" d="m37.77889,35.59871c0.92731,-1.14614 1.82179,-2.03241 3.18949,-2.16645c1.28838,-0.12583 1.86008,0.40758 1.72058,1.69322a5.37782,5.37782 0 0 1 -0.35287,1.29385c-0.4322,1.14887 -0.44861,1.1434 -1.67407,0.96287a2.71079,2.71079 0 0 0 -3.11837,2.39349c-0.27354,2.62053 -0.54708,5.24652 -0.7878,7.87252c-0.15318,1.64125 -0.39116,1.8847 -1.99412,1.91479c-2.85577,0.04924 -2.67797,-0.30637 -2.46187,-2.67797c0.37475,-3.90617 0.61,-7.82328 0.94919,-11.73219c0.03009,-0.33646 0.33919,-0.85618 0.61547,-0.93004a13.46097,13.46097 0 0 1 2.88586,-0.43767c0.27354,0 0.62094,0.45955 0.82062,0.77959c0.16412,0.23251 0.13404,0.58264 0.20789,1.03399z" class="d"/>
  </g>
 </g>
</svg>