<?xml version="1.0" encoding="utf-8"?>
<!-- Generator: Adobe Illustrator 23.1.1, SVG Export Plug-In . SVG Version: 6.00 Build 0)  -->
<svg version="1.1" id="Layer_1" xmlns="http://www.w3.org/2000/svg" xmlns:xlink="http://www.w3.org/1999/xlink" x="0px" y="0px"
	 viewBox="0 0 602 325" enable-background="new 0 0 602 325" xml:space="preserve">
<g id="Vqo4yv.tif">
	<g>
		<path fill="#2186C7" d="M504.1,153.9c-12.7,13.8-25.4,27.6-39.1,40.4c-16.3,15.3-35.6,24-57.4,27.8c-23.1,4-46.6,4.8-69.9,7.9
			c-32.5,4.3-64.7,10-94.8,24.2c-21,9.9-39,23.4-50.8,43.9c-3.2,5.5-5.5,11.4-7.6,17.3c-0.4,1.2-0.6,3-2,3.2
			c-1.6,0.2-1.8-1.6-2.6-2.7c-22-32.3-52.2-51.8-90.7-58.5c-4.7-0.8-9.6-0.8-14.4-1.2c-1.5-0.1-3.9,0.9-4.3-1.2
			c-0.3-1.9,2.2-2.1,3.6-2.8c5.3-2.6,10.8-5,16.2-7.5c12.9-4.4,25.8-8.7,38.7-13.1c0.6-0.2,1.3-0.3,1.9-0.5
			c14.1-3,28.1-5.9,42.2-8.9l0.4,0.1l0.4-0.2c10.9-1.1,21.8-2.2,32.7-3.2c33.2-3,66.4-3.6,99.7-4.9c6.8-0.3,13.6,0.1,20.4-1.1
			c1,0.3,2,0.3,3-0.3c13.8,0,27.6-1.1,41.3-2.5c15.2-1.5,30.4-3.4,45.4-6.4c1.3-0.3,2.5-0.7,3.8-1.1l0.3-0.1
			c4.7-0.7,9.2-2.1,13.4-4.3c0.3,0.1,0.5,0,0.7-0.3c3.3-1,6.4-2.3,9.1-4.4c1.5-0.3,2.8-0.9,3.7-2.3c2.9-0.9,5.5-2.5,7.7-4.7l0.1-0.1
			c8.7-5,16-11.8,22.6-19.2c9.7-10.9,19.1-22.1,28.6-33.2c2.5-2.9,4.3-6.3,5.4-10c0.4-1.3,1.1-2.7-0.2-3.7c-1.3-0.9-2.5-0.1-3.6,0.7
			c-5.3,4-10.7,7.8-15.9,11.9c-5.4,4.2-10.9,8.3-17,11.3c-3.4,1.7-5.4,4-6.5,7.5c-5,15.2-15.5,25.5-29.5,32.7
			c-0.2-0.1-0.4,0-0.4,0.2c-7,1.4-13.9,2.8-21.1,1.6c-7.5-1.3-12.9-4.8-14.5-12.8c0.1-0.3,0.1-0.5-0.2-0.6
			c0.1-10,6.5-18.7,16.5-22.5c7.6-2.9,15.6-4.1,23.6-5.5c8.4-1.4,9.1-2.1,10.5-10.9c0.8-3.3,2.8-6.4,1.9-11.3
			c-2.8,3.7-5,6.5-7.1,9.3c-5.7,5.3-10.7,11.2-19.4,11.9c-7.6,0.6-12.6-2.1-14.6-9.5c-1-3.7-1.4-7.7-2.2-12.7
			c-1.7,2.8-2.9,4.8-4.1,6.8c-3.8,6-7.9,11.8-13,16.9c-5.9,5.8-12.5,9.2-21,7.2c-0.4-0.2-0.7-0.5-1.1-0.7c-4.1-3.7-5.6-8.4-5.7-13.8
			c0-14.6,3.9-28.6,7.2-42.6c1.1-4.8,2.7-9.6,3.8-14.5c0.5-2.2,1.3-4.8-1-6.5c-2-1.5-4.5-0.7-6.7,0.1c-7.5,2.6-11.2,9-15,15.3
			c-0.8,1.3-1.1,2.7-1.7,4.1c-0.3,0.1-0.4,0.3-0.3,0.6c-7.7,14.3-10.8,29.9-13.7,45.6c-2.8,14.6-2.7,14.7-17.6,15.4
			c-6.8,0.3-6.7,0.3-5.4-6.5c0.4-2.1,0.8-4.2,1.2-6.4c-2.5,0.2-2.9,2.1-3.8,3.3c-3.6,4.8-7.4,9.4-12.2,13.1
			c-5.7,4.4-11.8,6-18.6,2.6l0,0c-5.2-6-4.6-13.8-5.8-21.8c-3.4,3.1-4.4,6.6-6.3,9.3c-5.4,7.6-10.1,15.7-18.9,20
			c-10.7,5.3-19.4,0.4-20.3-11.7c-0.9-12.3,1.7-24.1,4.9-35.9c2-7.5,4.1-15,6.1-22.6c0.5-2,1.1-4.5-0.9-6.1c-2.1-1.6-4.2,0.1-6,1.1
			c-7.1,4.2-13.4,9.2-16.4,17.3c-0.4,0.5-0.7,0.9-1.1,1.4c-4.9,8.2-7.2,17.3-9.5,26.5c-2.2,9-4.6,18-6.1,27.1
			c-0.8,5-2.6,7.4-7.8,6.9c-1.1-0.1-2.3,0.3-3.4,0.4c-1,0.1-2,0.1-3,0.2c-7.9-0.3-7.9-0.3-6.6-8.4l0.1-0.3c7.2-24,11.8-48.7,18.4-73
			c5.4-19.9,11.2-39.7,20.2-58.3c3.9-8.1,8.9-15.6,15.6-21.7c4.2-3.8,8.9-6.4,14.6-6.9c8-0.7,11.9,2.6,12.4,10.6
			c0.4,6.3-1.4,12.2-3.6,18c-5.8,15.5-14.1,29.7-23,43.5c-1.1,1.7-2.2,3.3-3.3,5c-0.2,0.4-0.2,0.9-0.3,1.4c1.5,1.3,2.5-0.1,3.5-0.7
			c4.4-2.4,9-4.4,14.1-4.7c9.6-0.7,14.2,3.9,13.7,13.7c-0.4,6.5-3,12.6-4.6,18.8c-2.7,10.1-6.1,20.1-7,30.6c-0.3,3-1.5,7,2,8.5
			s6.3-1.6,8.4-4.1c9-10.5,14.5-23,18.9-36c2.9-8.7,5.9-17.3,9.7-25.6c4.8-10.5,13.7-14.9,24.9-12.9c3.1,0.6,1.6,1.9,0.9,3.4
			c-8.4,16.7-14.8,34.1-18.7,52.4c-0.8,3.8-1,7.6-0.6,11.4c0.4,3.9,2.5,5,5.7,2.8c3.8-2.5,7.1-5.6,9.3-9.6
			c9-16.2,18.9-32.1,20.7-51.3c0.3-3.1,1-6.4,0.6-9.4c-0.7-4.8,1.2-6.3,5.6-6.1c0.7,0,1.3-0.1,2-0.1c11.3-0.5,12.1,0.1,13.9,11.3
			c4.9-3.8,9-8.1,14.4-10.7c4.8-2.4,9.8-4.2,15.2-4.4c8.1-0.4,12.4,3.6,12.9,11.8c0.4,7.7-2.5,14.7-4.3,21.9
			c-2.2,8.7-4.9,17.3-6.3,26.1c-0.2,1.5-0.5,3-0.5,4.5c0,2.3-0.7,5.1,1.8,6.3c2.6,1.3,4.3-1,6-2.4c8.8-7.2,12.8-17.6,17.8-27.3
			c4.8-9.4,6.4-19.9,10.7-29.5c5.1-11.6,13.7-18,26.5-18.5c1.3,0,2.8-0.6,3.7,0.8c0.9,1.5,0,2.9-0.9,4.1
			c-12,15.8-17.4,34.2-20.4,53.4c-0.6,3.9-0.8,8,0.1,11.9c0.8,3.5,2.9,4.2,5.9,2.5c3.1-1.8,5.5-4.3,7.6-7.1
			c10.8-14.4,18.2-30.5,22.9-47.8c0.2-0.8,0.4-1.6,0.7-2.4c4.7-14.7,12.7-19.9,28.1-18.4c1.8,0.2,3.5,0.6,1.8,2.6
			c-8.2,9.5-10.5,21.4-13.8,32.8c-4.4,15.3-7.9,30.9-11.8,46.4c-0.3,1.1-0.9,2.2,0.1,3.6c9.7-5.4,17.9-12.5,25.5-20.4
			c5.3-5.5,10.9-10.8,17.1-15.2c3.4-2.3,7.2-5.5,11.4-3c4.5,2.7,3.3,7.7,2.4,11.8c-2.3,10.4-8,19.3-14.3,27.7
			c-0.8,1-1.4,2.2-2.1,3.3v0.1c-0.5,0.6-1,1.3-1.5,1.9l0,0C509.4,146.2,506.4,149.8,504.1,153.9z M222.3,84.1
			C232.4,70,241.1,55.2,248,39.4c2.9-6.7,5.1-13.7,6.2-20.9c0.3-1.8,0.8-4-1.2-4.9c-2-0.8-3.4,0.9-4.5,2.4c-1.8,2.4-3.6,4.8-5,7.4
			c-7.8,14.9-12.6,31-17.8,46.9C224.3,74.7,222.4,79.1,222.3,84.1z M415.6,167.4c-0.4,8.5,8,13.8,15.6,9.9
			c8.8-4.4,12.6-12.8,15.8-21.4c0.7-2-0.6-2.4-2.1-2.1c-8,2.1-16.4,2.7-24,6.3C417.7,161.7,415.4,163.8,415.6,167.4z"/>
		<path fill="#2186C7" d="M157.5,142.2c-0.4-9.8-6.4-16.9-12-24c-7.2-9.1-15-17.8-20.9-27.8c-16.3-27.6,3.1-64.9,35.2-66.5
			c11.6-0.6,22.3,3.2,31.3,10.9c5.9,5,6.4,10.5,1.8,16.7c-2,2.7-4.1,5.3-6.5,7.5c-5.7,5.2-9.4,3.9-11-3.6c-0.7-3.1-0.9-6.3-1.6-9.3
			c-1.3-5.3-4-9.3-10.2-10c-6.9-0.7-13.8-1.3-17.9,5.4c-6.3,10.2-9.5,26.2,2.1,36.5c9.7,8.6,17.1,19.3,24.8,29.8
			c18.4,25.1,4.8,60-25.7,67.7c-12.1,3.1-24.6,5-36.9,1.4c-9.1-2.7-14.4-9.4-16-18.6c-1.8-10,3-17.7,9.7-24.5c2.4-2.4,4.6-1.6,5.3,2
			c0.8,4.2,1.1,8.6,2.2,12.8c2.2,9.1,7,16.4,15.3,21.2c6.3,3.7,12.4,3.4,18.2-0.9c5-3.7,9-8.3,11-14.4c0.2-0.3,0.3-0.6,0.5-0.9
			c0.2-0.3,0.4-0.6,0.5-1c0.2-0.7,0.3-1.4,0.5-2.1c1.2-1.9,1-3.9,0.6-6C157.5,143.5,157.5,142.8,157.5,142.2z"/>
		<path fill="#2186C7" d="M325.8,46.9c0,6.4-4.5,10.6-11.3,10.5c-4.1,0-6.2-2.7-6.2-7.8c0-5.6,5.2-10.9,10.8-10.8
			C323.3,38.8,325.9,41.9,325.8,46.9z"/>
		<polygon fill="#2186C7" points="234,215 233.7,215.2 233.6,214.9 		"/>
		<path fill="#2186C7" d="M514.2,140.9c-0.5,0.6-1,1.3-1.5,1.9C513.2,142.2,513.7,141.6,514.2,140.9z"/>
	</g>
</g>
</svg>
