<?xml version="1.0" encoding="utf-8"?>
<!-- Generator: Adobe Illustrator 23.1.1, SVG Export Plug-In . SVG Version: 6.00 Build 0)  -->
<svg version="1.1" id="Layer_1" xmlns="http://www.w3.org/2000/svg" xmlns:xlink="http://www.w3.org/1999/xlink" x="0px" y="0px"
	 viewBox="0 0 198 63" enable-background="new 0 0 198 63" xml:space="preserve">
<g>
	<g>
		<polygon points="41.9,42.3 41.9,38.4 57.6,38.4 57.6,35 41.9,35 41.9,23.7 61.5,23.7 61.5,27.6 45.9,27.6 45.9,31.1 61.5,31.1 
			61.5,42.3 		"/>
		<rect x="65.1" y="23.7" width="3.9" height="18.5"/>
		<polygon points="134.8,42.3 123,29.4 123,42.3 119.1,42.3 119.1,23.7 123,23.7 134.8,36.7 134.8,23.7 138.7,23.7 138.7,42.3 		"/>
		<g>
			<rect x="95.9" y="23.7" width="19.7" height="3.9"/>
			<rect x="95.9" y="31.1" width="19.7" height="3.9"/>
			<rect x="95.9" y="38.4" width="19.7" height="3.9"/>
		</g>
		<rect x="165.5" y="23.7" width="19.7" height="3.9"/>
		<polygon points="72.7,42.3 72.7,38.4 88.3,38.4 88.3,35 72.7,35 72.7,23.7 92.3,23.7 92.3,27.6 76.6,27.6 76.6,31.1 92.3,31.1 
			92.3,42.3 		"/>
		<polygon points="142.3,42.3 142.3,38.4 158,38.4 158,35 142.3,35 142.3,23.7 161.9,23.7 161.9,27.6 146.2,27.6 146.2,31.1 
			161.9,31.1 161.9,42.3 		"/>
		<rect x="165.5" y="31.1" width="19.7" height="3.9"/>
		<rect x="165.5" y="38.4" width="19.7" height="3.9"/>
	</g>
	<g>
		<polygon points="10.8,14 10.8,27.7 30.1,20.9 		"/>
		<polygon points="30.1,39.9 10.8,33.1 10.8,46.8 		"/>
		<polygon points="17.3,30.5 36.5,37.4 36.5,23.7 		"/>
		<polygon points="28.5,45.1 36.5,48 36.5,42.3 		"/>
	</g>
</g>
</svg>
