<?xml version="1.0" encoding="utf-8"?>
<!-- Generator: Adobe Illustrator 23.1.1, SVG Export Plug-In . SVG Version: 6.00 Build 0)  -->
<svg version="1.1" id="Layer_1" xmlns="http://www.w3.org/2000/svg" xmlns:xlink="http://www.w3.org/1999/xlink" x="0px" y="0px"
	 viewBox="0 0 910 225" enable-background="new 0 0 910 225" xml:space="preserve">
<g id="_x33_F96p5.tif">
	<g>
		<path fill="#FDFDFD" d="M521,180.9c-158.8,0-317.6,0-476.4,0.1c-3.9,0-4.6-1-4.5-4.6c0.2-17,0.1-34,0.1-51
			c3.6,7.4,5.3,15.5,9.8,22.6c9.7,15.1,23.1,24.4,40.4,28.5c26.3,6.4,49.1-0.3,69.2-18c5-4.5,9.3-9.8,15-13.5
			c1.2,1.3,2.4,2.7,3.6,3.9c8.1,8,16.4,15.7,26.7,20.9c14.6,7.7,29.9,10.6,46.4,8.2c21.1-3.1,37.5-12.9,48.8-31.1
			c8.9-14.2,10.6-29.6,8.6-45.5c-1.2-9.4-4.8-18.6-10.4-26.3c-10.7-14.5-25-23.7-43.1-27.3c-18.2-3.6-34.7,0-50.4,9.1
			c-11.2,6.6-20.4,15.6-29.3,24.9c-1.3-1.3-2.5-2.6-3.8-3.9c-8-8-16-16-26.4-21.1c-1.9-2.6-5.2-2.8-7.8-4c-9.7-4.5-20-7.1-30.6-6.4
			c-13.9,0.9-27.3,4-39,12.4c-10.3,7.4-18.1,16.5-22.8,28.3c-1.8,4.5-3.4,9-5.1,13.5c0-17.7,0.1-35.4-0.1-53c0-3,0.6-3.6,3.6-3.6
			c53,0.1,106,0.1,159,0.1c220.9,0,441.9,0,662.8-0.1c3.7,0,4.6,0.8,4.6,4.6c-0.2,42.8-0.1,85.6,0,128.4c0,3.4-0.7,4.1-4.1,4.1
			c-108.3-0.1-216.6-0.1-324.9-0.1c0-9.6,0-19.3,0-29.6c8.8,7.8,21.6,7.7,29.4,0.5c4.3-4,7-8.9,8.2-14.8c2.7-13.2,2.5-25.8-5.7-37.3
			c-7.1-9.9-24.2-8.9-29.1-4.1c-2.2,2.2-3.7,4-4-1c-0.1-1.9-1.8-1.6-3.1-1.6c-2.8,0-5.7,0-8.5,0c-8,0.1-7-1-7,6.7
			C521.1,126.8,521.1,153.8,521,180.9z M383.4,128.4c-2.2,0-4.4,0.2-6.5-0.1c-4-0.6-4.5,1.6-3.9,4.6c1.5,7.4,5.1,14,11.5,17.7
			c14.7,8.4,30.3,9.6,45.5,1.3c11-6,12.5-18.4,8.2-28.1c-3.6-8.2-11-12.8-19.3-15.8c-5.1-1.8-10.3-3.5-15.4-5.5
			c-6.4-2.5-9.7-8.9-6.4-12.6c6.1-6.7,18.4-6.1,21.2,1.5c2,5.3,4.8,5.4,9.1,5.2c3.2-0.2,6.3-0.2,9.5,0c2.4,0.1,3.3-0.7,3.1-3.1
			c-0.8-8.5-5.2-14.7-12.5-18.7c-13-7.1-26.2-6.4-39.2-0.2c-15.7,7.4-14.8,26.2-6.6,34c7.7,7.4,17.4,10.4,27,13.9
			c3.5,1.3,6.9,2.7,9.2,5.6c2.5,3.1,3.1,6.3,0.3,9.8c-4.3,5.5-10.1,4-15.5,3.3c-4.6-0.6-7.8-3.8-8.3-8.1c-0.6-4.5-2.7-5.3-6.5-4.8
			C386.5,128.5,384.9,128.4,383.4,128.4z M489.9,151c-1,4.6,1.2,5.6,5.1,5.2c3.6-0.3,7.3-0.2,11,0c2.5,0.1,3.1-0.8,3.1-3.1
			c-0.1-19-0.1-38,0-56.9c0-2.7-1.1-3.3-3.5-3.2c-4.2,0.2-8.3,0.3-12.5,0c-3.4-0.2-4.1,1.1-4.1,4.2c0.2,11.7,0.1,23.4,0.1,35.1
			c0,6.5-3.1,9.7-9.5,9.8c-5.9,0.1-8.5-2.8-8.6-9.5c0-11.7-0.1-23.4,0.1-35.1c0-3.2-0.5-4.9-4.3-4.6c-4.1,0.3-8.3,0.1-12.5,0
			c-2.2-0.1-3.3,0.4-3.3,2.9c0.1,13.5,0,27.1,0.3,40.6c0.1,5.5,2,10.9,5.8,14.9c6.9,7.1,15.7,6.7,24.6,4.3
			C484.5,154.8,485.9,151.4,489.9,151z M806.3,130.9c3.5,0,7,0,10.5,0c9.4,0,9.6,0,9-9.6c-1-15-8.6-28.2-26.2-29.2
			c-16.9-1-28.8,6.8-32.3,22.1c-2,8.8-2.4,18,1.7,26.2c9.3,18.3,32.4,20.4,46.5,12.5c9.7-5.4,8.6-7.4,2.6-13.6
			c-2.9-3-4.1-3.4-7.2-0.5c-5.9,5.5-17.3,4.1-22.3-2.2c-1.2-1.4-2.2-3.2-1.4-5c0.6-1.4,2.4-0.7,3.6-0.7
			C796,130.9,801.1,130.9,806.3,130.9z M628.3,130.9c3.2,0,6.3,0,9.5,0c10.8,0,10.9,0,10-10.9c-0.9-11.4-4.9-22.1-16.4-25.9
			c-17.2-5.7-36.7-1.5-41.9,20.7c-2.6,11.1-1.6,21.6,5.5,31c9.8,13,32,13.8,43.1,7c8.2-5,8.1-4.9,3-12.6c-2.8-4.3-4.4-4.3-8.2-1.3
			c-7.7,6.2-19.5,3.3-23.2-5c-1.2-2.6-0.5-3.1,2-3.1C617.3,131,622.8,131,628.3,130.9z M747.1,112.5c0.8,0,1.7,0.1,2.5,0
			c2.4-0.4,6,1.5,7.1-1.2c1.2-2.9-0.2-6.2-2.6-8.6c-1.5-1.5-2.3-3.4-4-4.9c-6.5-5.2-14-5.7-21.7-5.8c-8.6-0.1-16.4,2.3-21.9,9.4
			c-4.5,5.8-3.5,16.4,1.8,21.6c5.9,5.9,13.6,7.2,21,9.1c2.6,0.7,5.2,1.1,7.2,3c2.2,2,2.3,4.5,0.2,6.5c-4.6,4.4-14.2,2.7-16.6-3.1
			c-0.9-2.2-2.1-2.6-4-2.5c-2,0.1-4-0.1-6,0c-2.9,0.2-7.5-1.4-8.4,0.8c-1.5,3.2,1.8,6.6,3.4,9.8c0.3,0.6,0.9,1,1.3,1.5
			c9.7,11.5,33.1,11.7,44.3,2.5c7.4-6.1,8.7-15.9,2.6-23.2c-4.6-5.6-10.8-7.8-17.6-9.1c-3.1-0.6-6.2-0.8-9.1-2.2
			c-2.7-1.3-5-3-4.5-6.3c0.6-3.4,3.2-4.9,6.4-5.2c3.9-0.4,7.1,1.3,8.3,4.9c0.9,2.7,2.2,3.2,4.6,3
			C743.4,112.4,745.3,112.5,747.1,112.5z M838.1,125.1c0.3,5.3-0.7,11.6,0.7,17.8c0.8,3.8,1.6,7.4,5.2,10.2c7.5,5.8,15.7,4,23.8,3
			c2.4-0.3,1.4-2.7,1.3-4.1c-0.3-3.3,1.2-6.8-1-9.9c-0.2-0.3-1.3,0-1.9,0c-6.9,0-8.1-1.2-8.2-8c-0.1-6.9,0.3-13.9-0.1-20.8
			c-0.3-5.1,1.2-7.3,6.4-6.4c3.4,0.6,4.9-0.7,4.5-4.3c-0.3-2.3-0.1-4.6,0-6.9c0.1-1.9-0.8-2.5-2.6-2.7c-2.6-0.2-6.2,1.3-7.5-0.8
			c-1.3-2-0.5-5.4-0.6-8.2c0-1.2-0.1-2.3,0-3.5c0.2-2-0.5-3.1-2.7-2.9c-1.5,0.1-3,0-4.5,0c-4,0.1-9-1.2-11.6,0.7
			c-2.8,2.1-0.8,7.4-0.9,11.3c-0.1,2.5-0.7,3.8-3.4,3.4c-4.2-0.7-5.3,1.3-4.8,5c0.2,1.5,0.2,3,0,4.4c-0.4,3.4,0.8,5,4.3,4.4
			c3.3-0.5,3.9,1.1,3.8,4C838,115.2,838.1,119.7,838.1,125.1z M676.9,100.3c1.1-8.8-4.4-7.5-9.2-7.4c-1.8,0.1-3.7,0.2-5.5,0
			c-3.9-0.6-4.7,1.2-4.6,4.7c0.2,14.5,0.1,29,0.1,43.6c0,4.8-1.7,11.1,0.8,13.9c2.8,3.1,9.4,0.5,14.3,1.1c4.2,0.5,4.9-1.3,4.8-5
			c-0.2-10.7,0-21.5-0.1-32.2c0-3.8,1.6-6.1,5.2-7.5c3.2-1.3,6.5-1.3,9.8-1c2.6,0.3,3.6-0.5,3.5-3.2c-0.2-3.5-0.3-7,0.2-10.4
			c0.6-4.4-1.8-5.1-5.1-5C685.2,92.1,680.4,94.4,676.9,100.3z"/>
		<path fill="#484949" d="M40.1,100.6c1.7-4.5,3.3-9,5.1-13.5c4.6-11.8,12.4-20.9,22.8-28.3c11.7-8.4,25.1-11.5,39-12.4
			c10.6-0.7,21,1.9,30.6,6.4c2.6,1.2,5.8,1.5,7.8,4C136.6,67.4,127.8,78,119,88.5c-13.6-4.6-28.9,0.6-33.5,11.6
			c-7.8,18.3-0.6,38.4,23.6,39.1c11.9,0.3,21.2-5.6,29.2-13.6c3.7-3.7,8.5-6.8,10.4-12.1c8.9-10.5,17.8-21.1,26.8-31.6
			c8.9-9.3,18.1-18.3,29.3-24.9c15.7-9.1,32.2-12.7,50.4-9.1c18.1,3.6,32.5,12.8,43.1,27.3c5.6,7.6,9.3,16.9,10.4,26.3
			c2,15.9,0.3,31.3-8.6,45.5c-11.4,18.2-27.7,28-48.8,31.1c-16.5,2.4-31.8-0.5-46.4-8.2c1.2-1.6,2.3-3.2,3.5-4.8
			c7.6-9.2,15.3-18.4,23-27.6c5.7,2,11.2,1.3,17.1,0c19.4-4.2,21.1-26.6,14.9-37.9c-5.6-10-15.3-13.1-26.1-12.1
			c-17,1.6-26.5,13.9-36.2,25.9c-9,10.4-18.3,20.6-26.6,31.7c-5.8,3.7-10,9-15,13.5c-20.1,17.7-42.9,24.4-69.2,18
			C73,172.4,59.6,163.1,49.9,148c-4.6-7.1-6.3-15.2-9.8-22.6C40.1,117.1,40.1,108.9,40.1,100.6z"/>
		<path fill="#484949" d="M521,180.9c0.1-27.1,0.1-54.1,0.2-81.2c0-7.7-1-6.6,7-6.7c2.8,0,5.7,0,8.5,0c1.3,0,3-0.3,3.1,1.6
			c0.3,5,1.8,3.2,4,1c4.8-4.8,22-5.8,29.1,4.1c8.2,11.5,8.4,24.1,5.7,37.3c-1.2,5.8-3.8,10.8-8.2,14.8c-7.8,7.2-20.6,7.3-29.4-0.5
			c0,10.4,0,20,0,29.6C534.3,180.9,527.6,180.9,521,180.9z M560.3,124.9c0-6.2-0.4-8.6-2.4-13c-1.8-4.1-5.1-5.4-11.4-4.2
			c-3.9,0.7-5.4,3.5-5.4,7.2c-0.1,6.3,0,12.6,0,18.8c0,4.6,2.3,7.3,6.8,8.2c4.8,1,8.1-0.7,10.1-4.9
			C559.8,133.1,560.3,129,560.3,124.9z"/>
		<path fill="#484949" d="M383.4,128.4c1.5,0,3,0.1,4.5,0c3.8-0.5,5.9,0.3,6.5,4.8c0.5,4.3,3.7,7.5,8.3,8.1
			c5.5,0.7,11.2,2.2,15.5-3.3c2.8-3.5,2.2-6.7-0.3-9.8c-2.3-2.9-5.7-4.3-9.2-5.6c-9.6-3.5-19.2-6.5-27-13.9
			c-8.2-7.8-9.1-26.6,6.6-34c13.1-6.2,26.3-6.9,39.2,0.2c7.3,4,11.8,10.2,12.5,18.7c0.2,2.4-0.6,3.2-3.1,3.1c-3.2-0.2-6.3-0.2-9.5,0
			c-4.2,0.2-7.1,0.1-9.1-5.2c-2.8-7.6-15.1-8.2-21.2-1.5c-3.3,3.6,0,10.1,6.4,12.6c5.1,2,10.3,3.7,15.4,5.5
			c8.4,3,15.7,7.6,19.3,15.8c4.3,9.7,2.7,22.1-8.2,28.1c-15.2,8.3-30.8,7.1-45.5-1.3c-6.5-3.7-10-10.3-11.5-17.7
			c-0.6-3-0.2-5.2,3.9-4.6C379.1,128.6,381.3,128.4,383.4,128.4z"/>
		<path fill="#484949" d="M489.9,151c-4,0.3-5.4,3.8-8.3,4.6c-8.9,2.4-17.6,2.8-24.6-4.3c-3.8-3.9-5.7-9.3-5.8-14.9
			c-0.2-13.5-0.1-27.1-0.3-40.6c0-2.6,1.1-3,3.3-2.9c4.2,0.1,8.3,0.3,12.5,0c3.8-0.3,4.3,1.3,4.3,4.6c-0.2,11.7-0.1,23.4-0.1,35.1
			c0,6.7,2.7,9.7,8.6,9.5c6.4-0.1,9.5-3.3,9.5-9.8c0-11.7,0.1-23.4-0.1-35.1c0-3.1,0.7-4.5,4.1-4.2c4.1,0.3,8.3,0.2,12.5,0
			c2.5-0.1,3.5,0.5,3.5,3.2c-0.1,19-0.1,38,0,56.9c0,2.3-0.6,3.2-3.1,3.1c-3.7-0.2-7.3-0.3-11,0C491.1,156.6,488.9,155.6,489.9,151z
			"/>
		<path fill="#484949" d="M806.3,130.9c-5.2,0-10.3,0-15.5,0c-1.3,0-3-0.7-3.6,0.7c-0.8,1.8,0.2,3.6,1.4,5c5,6.3,16.4,7.6,22.3,2.2
			c3.2-2.9,4.3-2.5,7.2,0.5c6,6.1,7.2,8.2-2.6,13.6c-14.1,7.8-37.2,5.7-46.5-12.5c-4.2-8.2-3.7-17.4-1.7-26.2
			c3.4-15.3,15.4-23.1,32.3-22.1c17.6,1.1,25.2,14.2,26.2,29.2c0.6,9.6,0.5,9.6-9,9.6C813.3,130.9,809.8,130.9,806.3,130.9z
			 M796.1,118.4c2.2,0,4.4-0.2,6.5,0c3.6,0.5,3.8-1.5,3.4-4.1c-0.9-6.2-9.6-9.5-15.1-5.7c-2.9,2-4.8,5.2-3.9,8.5
			c0.8,2.9,4,0.7,6,1.3C794,118.6,795.1,118.4,796.1,118.4z"/>
		<path fill="#484949" d="M628.3,131c-5.5,0-11,0.1-16.5,0c-2.5,0-3.2,0.5-2,3.1c3.7,8.3,15.5,11.2,23.2,5c3.8-3,5.3-3,8.2,1.3
			c5.1,7.7,5.2,7.6-3,12.6c-11.1,6.8-33.3,5.9-43.1-7c-7.1-9.4-8.2-19.9-5.5-31c5.2-22.2,24.7-26.4,41.9-20.7
			c11.5,3.8,15.5,14.4,16.4,25.9c0.9,10.9,0.8,10.9-10,10.9C634.6,130.9,631.5,130.9,628.3,131z M618.8,118.4c2,0,4-0.2,6,0
			c3.6,0.4,4.3-1.2,3.5-4.3c-1.6-5.9-5.3-7.9-12.3-6.5c-3,0.6-7.7,6.2-6.9,9.2c1.1,3.7,4.5,0.9,6.7,1.6
			C616.7,118.6,617.8,118.4,618.8,118.4z"/>
		<path fill="#484949" d="M747.1,112.5c-1.8,0-3.7-0.1-5.5,0c-2.4,0.2-3.7-0.3-4.6-3c-1.2-3.6-4.4-5.3-8.3-4.9
			c-3.2,0.3-5.9,1.9-6.4,5.2c-0.6,3.3,1.7,5,4.5,6.3c2.9,1.3,6.1,1.6,9.1,2.2c6.7,1.3,12.9,3.5,17.6,9.1c6.1,7.3,4.8,17.1-2.6,23.2
			c-11.2,9.2-34.6,9-44.3-2.5c-0.4-0.5-1-0.9-1.3-1.5c-1.6-3.2-4.9-6.6-3.4-9.8c1-2.1,5.5-0.6,8.4-0.8c2-0.1,4,0,6,0
			c2-0.1,3.1,0.3,4,2.5c2.4,5.8,12,7.5,16.6,3.1c2.1-2,2-4.4-0.2-6.5c-2-1.9-4.6-2.3-7.2-3c-7.5-2-15.2-3.3-21-9.1
			c-5.2-5.2-6.3-15.8-1.8-21.6c5.6-7.2,13.3-9.5,21.9-9.4c7.6,0.1,15.2,0.6,21.7,5.8c1.8,1.4,2.6,3.3,4,4.9c2.3,2.4,3.8,5.7,2.6,8.6
			c-1.2,2.7-4.7,0.8-7.1,1.2C748.8,112.7,747.9,112.5,747.1,112.5z"/>
		<path fill="#484949" d="M838.1,125.1c0-5.4-0.1-9.8,0.1-14.3c0.1-2.9-0.5-4.5-3.8-4c-3.6,0.6-4.8-1-4.3-4.4c0.2-1.5,0.2-3,0-4.4
			c-0.5-3.7,0.6-5.7,4.8-5c2.7,0.5,3.3-0.9,3.4-3.4c0.1-3.9-1.9-9.2,0.9-11.3c2.6-1.9,7.7-0.6,11.6-0.7c1.5,0,3,0.1,4.5,0
			c2.3-0.2,2.9,0.9,2.7,2.9c-0.1,1.1-0.1,2.3,0,3.5c0.1,2.8-0.7,6.1,0.6,8.2c1.3,2.1,4.9,0.6,7.5,0.8c1.9,0.1,2.7,0.8,2.6,2.7
			c-0.1,2.3-0.2,4.6,0,6.9c0.4,3.6-1.1,4.9-4.5,4.3c-5.3-0.9-6.8,1.3-6.4,6.4c0.5,6.9,0.1,13.8,0.1,20.8c0.1,6.8,1.3,8,8.2,8
			c0.7,0,1.7-0.3,1.9,0c2.3,3.1,0.8,6.6,1,9.9c0.1,1.4,1.1,3.8-1.3,4.1c-8.1,1.1-16.3,2.8-23.8-3c-3.6-2.8-4.4-6.4-5.2-10.2
			C837.5,136.7,838.4,130.4,838.1,125.1z"/>
		<path fill="#01D3C0" d="M174.5,145.1c8.3-11,17.6-21.2,26.6-31.7c3.2,4.1,6.9,7.8,10.6,11.5c5.7,5.6,11.8,10.4,19.7,12.6
			c-7.7,9.2-15.4,18.4-23,27.6c-1.3,1.5-2.3,3.2-3.5,4.8c-10.4-5.1-18.6-12.9-26.7-20.9C176.9,147.7,175.7,146.4,174.5,145.1z"/>
		<path fill="#01D3C0" d="M119,88.5c8.8-10.6,17.6-21.1,26.4-31.7c10.4,5.1,18.4,13.1,26.4,21.1c1.3,1.3,2.5,2.6,3.8,3.9
			c-8.9,10.5-17.8,21.1-26.8,31.6c-1.5-1.7-3.1-3.4-4.6-5.1C136.8,100.4,129.6,92.4,119,88.5z"/>
		<path fill="#484949" d="M676.9,100.3c3.5-5.9,8.2-8.2,14.1-8.3c3.4-0.1,5.7,0.7,5.1,5c-0.5,3.4-0.3,6.9-0.2,10.4
			c0.1,2.7-0.9,3.4-3.5,3.2c-3.3-0.3-6.6-0.3-9.8,1c-3.6,1.4-5.2,3.6-5.2,7.5c0.1,10.7-0.1,21.5,0.1,32.2c0.1,3.7-0.6,5.5-4.8,5
			c-4.9-0.6-11.5,2-14.3-1.1c-2.4-2.7-0.7-9.1-0.8-13.9c0-14.5,0.1-29.1-0.1-43.6c0-3.5,0.7-5.3,4.6-4.7c1.8,0.3,3.7,0.1,5.5,0
			C672.5,92.8,678,91.6,676.9,100.3z"/>
		<path fill="#FDFDFD" d="M119,88.5c10.6,3.9,17.9,11.8,25.1,19.8c1.5,1.7,3.1,3.4,4.6,5.1c-1.9,5.3-6.7,8.4-10.4,12.1
			c-8,8-17.3,14-29.2,13.6c-24.2-0.7-31.4-20.8-23.6-39.1C90.1,89.1,105.3,83.9,119,88.5z"/>
		<path fill="#FDFDFD" d="M231.4,137.5c-7.9-2.2-14-7.1-19.7-12.6c-3.7-3.7-7.4-7.3-10.6-11.5c9.7-11.9,19.2-24.3,36.2-25.9
			c10.8-1,20.5,2.1,26.1,12.1c6.3,11.4,4.6,33.7-14.9,37.9C242.7,138.8,237.1,139.5,231.4,137.5z"/>
		<path fill="#FDFDFD" d="M560.3,124.9c0,4.2-0.4,8.2-2.2,12.1c-2,4.3-5.3,5.9-10.1,4.9c-4.6-0.9-6.8-3.7-6.8-8.2
			c0-6.3-0.1-12.6,0-18.8c0-3.6,1.5-6.4,5.4-7.2c6.2-1.2,9.5,0.1,11.4,4.2C559.8,116.3,560.3,118.7,560.3,124.9z"/>
		<path fill="#FDFDFD" d="M796.1,118.4c-1,0-2.1,0.2-3,0c-2-0.6-5.3,1.6-6-1.3c-0.9-3.4,1-6.5,3.9-8.5c5.5-3.8,14.2-0.4,15.1,5.7
			c0.4,2.6,0.2,4.6-3.4,4.1C800.4,118.2,798.2,118.4,796.1,118.4z"/>
		<path fill="#FDFDFD" d="M618.8,118.4c-1,0-2.1,0.2-3,0c-2.2-0.7-5.7,2.1-6.7-1.6c-0.8-2.9,3.8-8.6,6.9-9.2
			c7-1.4,10.7,0.6,12.3,6.5c0.8,3.2,0.1,4.7-3.5,4.3C622.8,118.2,620.8,118.4,618.8,118.4z"/>
	</g>
</g>
</svg>
