<?xml version="1.0" encoding="utf-8"?>
<!-- Generator: Adobe Illustrator 22.1.0, SVG Export Plug-In . SVG Version: 6.00 Build 0)  -->
<svg version="1.1" id="Layer_1" xmlns="http://www.w3.org/2000/svg" xmlns:xlink="http://www.w3.org/1999/xlink" x="0px" y="0px"
	 viewBox="0 0 323.6 74.8" style="enable-background:new 0 0 323.6 74.8;" xml:space="preserve">
<style type="text/css">
	.st0{fill:#E8762D;}
	.st1{fill:#C72037;}
	.st2{fill:#5B879B;}
	.st3{fill:#5C6692;}
	.st4{fill:#EB9129;}
	.st5{fill-rule:evenodd;clip-rule:evenodd;fill:#1F457E;}
	.st6{fill:#7199A6;}
	.st7{fill:#1F457E;}
</style>
<polygon class="st0" points="44.8,36 36.5,36 36.5,27 33.3,27 33.3,36 25,36 25,39.2 33.3,39.2 33.3,48.2 36.5,48.2 36.5,39.2 
	44.8,39.2 "/>
<polygon class="st1" points="28.2,50.7 20.7,50.7 20.7,42.7 17.9,42.7 17.9,50.7 10.5,50.7 10.5,53.2 17.9,53.2 17.9,61.3 
	20.7,61.3 20.7,53.2 28.2,53.2 "/>
<polygon class="st2" points="59.3,21.9 51.9,21.9 51.9,13.8 49.1,13.8 49.1,21.9 41.7,21.9 41.7,24.3 49.1,24.3 49.1,32.4 
	51.9,32.4 51.9,24.3 59.3,24.3 "/>
<polygon class="st3" points="41.2,59.7 36.2,59.7 36.2,54.1 33.8,54.1 33.8,59.7 28.7,59.7 28.7,61.9 33.8,61.9 33.8,67.5 
	36.2,67.5 36.2,61.9 41.2,61.9 "/>
<polygon class="st4" points="28.2,21.9 20.7,21.9 20.7,13.8 18,13.8 18,21.9 10.5,21.9 10.5,24.3 18,24.3 18,32.4 20.7,32.4 
	20.7,24.3 28.2,24.3 "/>
<polygon class="st3" points="65,36.5 60,36.5 60,30.9 57.6,30.9 57.6,36.5 52.6,36.5 52.6,38.7 57.6,38.7 57.6,44.3 60,44.3 
	60,38.7 65,38.7 "/>
<polygon class="st5" points="59.3,50.7 51.9,50.7 51.9,42.7 49.1,42.7 49.1,50.7 41.7,50.7 41.7,53.2 49.1,53.2 49.1,61.3 
	51.9,61.3 51.9,53.2 59.3,53.2 "/>
<polygon class="st6" points="34.1,8 34.1,13.5 29.1,13.5 29.1,15.2 34.1,15.2 34.1,20.7 35.9,20.7 35.9,15.2 40.8,15.2 40.8,13.5 
	35.9,13.5 35.9,8 "/>
<polygon class="st6" points="16.5,36.8 11.5,36.8 11.5,31.3 9.8,31.3 9.8,36.8 4.8,36.8 4.8,38.5 9.8,38.5 9.8,43.9 11.5,43.9 
	11.5,38.5 16.5,38.4 "/>
<path class="st5" d="M165.1,33c2-0.8,3.7-1,4.8-1c5.6,0,9.3,3.9,9.3,10c0,6.4-4,10.1-10.9,10.1c-2.4,0-4.8-0.5-7.3-1.3l-0.1-28.1
	h4.2V33z M168.8,48.3c3.9,0,6.1-2.2,6.1-6.2c0-3.9-2.2-6.3-5.7-6.3c-1.5,0-3,0.5-4,1v10.7C166.4,48.1,167.6,48.3,168.8,48.3"/>
<rect x="196.6" y="18.7" class="st5" width="4.1" height="36.9"/>
<path class="st5" d="M223.5,39.8h9.5c-0.1-2.5-1.5-3.8-3.9-4C226.7,35.7,224.3,37.3,223.5,39.8 M228.2,52.2
	c-6.4-0.6-9.4-5.1-9.3-10.4c0.2-5.7,3.9-9.8,9.5-9.8c5.9,0,9.3,4.4,9.1,10.8h-14.2c0.3,3.6,2.5,5.3,5.4,5.5c2.4,0.2,5.9-0.4,7.8-1.5
	v3.9C234,52,231.4,52.5,228.2,52.2"/>
<path class="st5" d="M298.6,48.9c2.6,0,4.4-1.3,4.4-4.3V32.4h4.2v12.7c0,4.3-3.3,6.9-8.6,6.9c-5.2,0-8.5-2.6-8.5-6.9V32.4h4.2v12.2
	C294.2,47.6,296,48.9,298.6,48.9"/>
<path class="st5" d="M133.5,52.1c-7,0-10.9-3.7-10.9-10.1c0-6.1,3.8-10,9.3-10c1.9,0,3.4,0.4,4.8,1.3v-1.4h4.2l-0.1,18.9
	C139,51.6,136.1,52.1,133.5,52.1 M133.1,48.3c0.9,0,2.1-0.1,3.6-0.5l0.1-10.7c-1.3-0.9-2.6-1.3-4-1.3c-3.5,0-5.7,2.3-5.7,6.3
	C127,46.1,129.2,48.3,133.1,48.3"/>
<path class="st5" d="M265.2,52.1c-7,0-10.9-3.7-10.9-10.1c0-6.1,3.8-10,9.3-10c1.9,0,3.4,0.4,4.8,1.3v-1.4h4.2l-0.1,18.9
	C270.7,51.6,267.8,52.1,265.2,52.1 M264.7,48.3c0.8,0,2.1-0.1,3.6-0.5l0.1-10.7c-1.3-0.9-2.6-1.3-4-1.3c-3.5,0-5.7,2.3-5.7,6.3
	C258.6,46.1,260.9,48.3,264.7,48.3"/>
<g>
	<polygon class="st7" points="91.6,24 95.7,24 95.7,35.7 106.8,35.7 106.8,39.6 95.7,39.6 95.7,52.3 91.6,52.3 91.6,39.6 80.4,39.6 
		80.4,35.7 91.6,35.7 	"/>
	<path class="st7" d="M314,32.2c1.4,0,2.4,1.1,2.4,2.5c0,1.4-1.1,2.5-2.4,2.5c-1.4,0-2.5-1.1-2.5-2.5
		C311.6,33.3,312.7,32.2,314,32.2L314,32.2z M314,32.6c-1.1,0-2,0.9-2,2.1c0,1.2,0.9,2.1,2,2.1c1.1,0,2-0.9,2-2.1
		C316,33.6,315.1,32.6,314,32.6L314,32.6z M313.6,36.2h-0.4v-2.8c0.2,0,0.5-0.1,0.8-0.1c0.4,0,0.7,0.1,0.9,0.2
		c0.2,0.1,0.3,0.3,0.3,0.6c0,0.4-0.2,0.6-0.5,0.7v0c0.2,0,0.4,0.3,0.5,0.7c0.1,0.4,0.1,0.6,0.2,0.7h-0.5c-0.1-0.1-0.1-0.3-0.2-0.7
		c-0.1-0.4-0.2-0.5-0.6-0.5h-0.3V36.2z M313.6,34.6h0.3c0.4,0,0.7-0.1,0.7-0.5c0-0.2-0.2-0.5-0.7-0.5c-0.1,0-0.2,0-0.3,0V34.6z"/>
</g>
</svg>
