<svg width="160" height="50" xmlns="http://www.w3.org/2000/svg" xmlns:svg="http://www.w3.org/2000/svg">
 <defs>
  <style>.cls-1{fill:#3fae49;}.cls-2{fill:#f36c21;}.cls-3{fill:#15c0dd;}.cls-4{fill:#010101;}</style>
 </defs>
 <title>trifacta_FULL</title>
 <g>
  <title>Layer 1</title>
  <g stroke="null" id="svg_14">
   <path stroke="null" id="svg_1" d="m26.10693,30.664q0,-0.54647 0,-1.10566a10.47831,10.47831 0 0 1 -0.1398,1.81734c-0.40668,2.43371 -1.63307,4.25741 -3.46312,5.14702a5.71891,5.71891 0 0 1 -2.93571,0.54012l0,0c-2.75143,-0.20334 -5.54099,-2.12235 -7.46635,-5.03264q-0.26688,-0.40032 -0.50835,-0.82606c-0.16521,-0.28595 -0.31772,-0.57825 -0.46387,-0.88325a13.29964,13.29964 0 0 1 -1.27087,-7.62521c0.48928,-3.33603 2.116,-4.57513 2.116,-4.57513a6.49414,6.49414 0 0 0 -1.57588,1.20097c-2.93571,2.47819 -3.74906,7.44094 -1.9063,12.19399q0.20969,0.55283 0.47658,1.10566l0,0c2.01433,4.1621 5.68714,6.98978 9.35995,7.28208a7.26937,7.26937 0 0 0 1.80463,-0.08261a6.65935,6.65935 0 0 0 1.71567,-0.53376c2.91664,-1.41702 4.44804,-4.79118 4.25741,-8.60378" class="cls-1"/>
   <path stroke="null" id="svg_2" d="m17.0774,12.5986c-0.31772,0.18428 -0.63543,0.38126 -0.93409,0.59095a10.7579,10.7579 0 0 1 1.62671,-0.81971c2.29392,-0.90867 4.49252,-0.80065 6.19549,0.30501a5.71891,5.71891 0 0 1 1.9762,2.23673l0,0c1.27087,2.45913 1.04847,5.83964 -0.45116,8.99775c-0.1398,0.2923 -0.28595,0.57825 -0.45116,0.86419s-0.33043,0.57189 -0.5147,0.85148a13.28693,13.28693 0 0 1 -5.87777,5.03899c-3.11363,1.30899 -5.01358,0.54647 -5.01358,0.54647a6.51956,6.51956 0 0 0 1.84276,0.7244c3.64104,1.23274 8.31148,-0.63543 11.43782,-4.68315c0.24147,-0.31136 0.47658,-0.63543 0.69898,-0.97857l0,0c2.54174,-3.8698 3.06915,-8.4894 1.39796,-11.7746a7.2376,7.2376 0 0 0 -1.0294,-1.51869a6.69748,6.69748 0 0 0 -1.35348,-1.16284c-2.68153,-1.79192 -6.37976,-1.35348 -9.55058,0.78158" class="cls-2"/>
   <path stroke="null" id="svg_3" d="m6.15429,29.66002c0.32407,0.17157 0.63543,0.33043 0.99763,0.47658a10.57998,10.57998 0 0 1 -1.55681,-0.9468c-1.98256,-1.46785 -3.03102,-3.38687 -2.99925,-5.4139a5.71891,5.71891 0 0 1 0.85148,-2.85945l0,0c1.42337,-2.35746 4.40356,-3.98417 7.87303,-4.37814c0.31772,-0.03813 0.63543,-0.06354 0.96586,-0.07625s0.63543,0 0.99763,0a13.29964,13.29964 0 0 1 7.38375,2.30027c2.75779,1.95078 3.11998,3.95876 3.11998,3.95876a6.52591,6.52591 0 0 0 -0.3622,-1.95078c-0.8769,-3.72365 -4.93097,-6.71019 -10.01445,-7.21218c-0.39397,-0.04448 -0.79429,-0.0699 -1.20097,-0.07625l0,0c-4.61961,-0.08896 -8.83254,1.9063 -10.73249,5.04535a7.34562,7.34562 0 0 0 -0.76888,1.69661a6.75467,6.75467 0 0 0 -0.27324,1.74744c-0.05719,3.24072 2.26215,6.12559 5.71891,7.68876" class="cls-3"/>
   <path stroke="null" id="svg_4" d="m52.97309,17.04664l-12.63879,0a0.50835,0.50835 0 0 0 -0.50199,0.50835l0,0.86419a0.50835,0.50835 0 0 0 0.50199,0.50835l5.30588,0l0,14.17019a0.50835,0.50835 0 0 0 0.50199,0.50835l1.02305,0a0.50835,0.50835 0 0 0 0.50199,-0.50835l0,-14.1956l5.30588,0a0.50835,0.50835 0 0 0 0.50199,-0.50835l0,-0.86419a0.50835,0.50835 0 0 0 -0.50199,-0.50835" class="cls-4"/>
   <path stroke="null" id="svg_5" d="m143.7449,17.04664l-12.64514,0a0.50835,0.50835 0 0 0 -0.50199,0.50835l0,0.86419a0.50835,0.50835 0 0 0 0.50199,0.50835l5.31859,0l0,14.17019a0.50835,0.50835 0 0 0 0.50199,0.50835l1.02305,0a0.50835,0.50835 0 0 0 0.50199,-0.50835l0,-14.1956l5.30588,0a0.50835,0.50835 0 0 0 0.50199,-0.50835l0,-0.86419a0.50835,0.50835 0 0 0 -0.50199,-0.50835" class="cls-4"/>
   <path stroke="null" id="svg_6" d="m65.45938,26.97848c2.7006,-0.56554 4.44804,-2.38288 4.44804,-4.95003a4.61961,4.61961 0 0 0 -1.27087,-3.34238a6.50685,6.50685 0 0 0 -4.65773,-1.63942l-6.60852,0a0.50835,0.50835 0 0 0 -0.50199,0.50835l0,15.56814a0.50835,0.50835 0 0 0 0.50199,0.50835l0.99763,0a0.50835,0.50835 0 0 0 0.50199,-0.50835l0,-5.90954l4.32731,0l4.2447,6.20819a0.50835,0.50835 0 0 0 0.40668,0.20334l1.21368,0a0.50199,0.50199 0 0 0 0.45116,-0.27959a0.50835,0.50835 0 0 0 -0.05083,-0.53376l-4.00324,-5.83329zm-6.56404,-1.58859l0,-6.48779l4.93733,0c2.59257,0 4.07949,1.15014 4.07949,3.17717c0,2.16048 -2.10329,3.34238 -4.40991,3.34238l-4.6069,-0.03177z" class="cls-4"/>
   <path stroke="null" id="svg_7" d="m76.59854,17.04664l-0.99763,0a0.50835,0.50835 0 0 0 -0.50199,0.50835l0,15.56814a0.50835,0.50835 0 0 0 0.50199,0.50835l0.99763,0a0.50835,0.50835 0 0 0 0.50199,-0.50835l0,-15.59356a0.50835,0.50835 0 0 0 -0.50199,-0.50835" class="cls-4"/>
   <path stroke="null" id="svg_8" d="m94.93718,17.04664l-11.43782,0a0.50835,0.50835 0 0 0 -0.50199,0.50835l0,15.56814a0.50835,0.50835 0 0 0 0.50199,0.50835l0.99763,0a0.50835,0.50835 0 0 0 0.50199,-0.50835l0,-6.67206l7.02155,0a0.50835,0.50835 0 0 0 0.50835,-0.50835l0,-0.83877a0.50835,0.50835 0 0 0 -0.50835,-0.50835l-7.03426,0l0,-5.71891l9.94455,0a0.50835,0.50835 0 0 0 0.50835,-0.50835l0,-0.83877a0.50835,0.50835 0 0 0 -0.50835,-0.50835" class="cls-4"/>
   <path stroke="null" id="svg_9" d="m126.97578,29.94596a0.50199,0.50199 0 0 0 -0.69262,0a6.74831,6.74831 0 0 1 -4.90555,2.07152c-3.48853,0 -6.21455,-2.94206 -6.21455,-6.69112s2.66882,-6.69112 6.21455,-6.69112a6.86905,6.86905 0 0 1 4.7594,1.95078a0.49564,0.49564 0 0 0 0.70533,-0.03177l0.67991,-0.75617a0.5147,0.5147 0 0 0 -0.03177,-0.7244a8.54024,8.54024 0 0 0 -14.41165,6.23361c0,4.88649 3.54572,8.57201 8.26065,8.57201a8.34325,8.34325 0 0 0 6.26538,-2.59893a0.5147,0.5147 0 0 0 0.1525,-0.3622a0.52106,0.52106 0 0 0 -0.1525,-0.36855l-0.62908,-0.60366z" class="cls-4"/>
   <path stroke="null" fill="black" id="svg_10" d="m104.17004,17.25374a0.50835,0.50835 0 0 0 -0.45751,-0.29865l-1.17555,0a0.50199,0.50199 0 0 0 -0.45751,0.29865l-7.04697,15.68888a0.5147,0.5147 0 0 0 0.03177,0.48293a0.50835,0.50835 0 0 0 0.42574,0.23511l0.95951,0a0.50835,0.50835 0 0 0 0.45751,-0.29865l1.74109,-4.03501l8.83889,0l1.73474,4.03501a0.50199,0.50199 0 0 0 0.45751,0.30501l1.05482,0a0.50199,0.50199 0 0 0 0.42574,-0.23511a0.50835,0.50835 0 0 0 0.03813,-0.48293l-7.0279,-15.69523z" class="cls-4"/>
   <path stroke="null" fill="black" id="svg_11" d="m152.48212,17.19915a0.50199,0.50199 0 0 0 -0.45751,-0.29865l-1.17555,0a0.50199,0.50199 0 0 0 -0.45751,0.29865l-7.04697,15.68888a0.5147,0.5147 0 0 0 0.03177,0.48293a0.50835,0.50835 0 0 0 0.42574,0.23511l0.95951,0a0.50835,0.50835 0 0 0 0.45751,-0.29865l1.74109,-4.03501l8.83889,0l1.73474,4.03501a0.50199,0.50199 0 0 0 0.45751,0.30501l1.05482,0a0.50199,0.50199 0 0 0 0.42574,-0.23511a0.50835,0.50835 0 0 0 0.03813,-0.48293l-7.0279,-15.69523z" class="cls-4"/>
   <path stroke="#000000" id="svg_12" d="m99.46656,27.66316l3.55776,-8.08261l3.55776,8.08261l-7.11552,0l0.00001,0z" stroke-width="0" fill="#ffffff"/>
   <path stroke="#000000" id="svg_13" d="m147.84995,27.66316l3.55777,-8.08261l3.55776,8.08261l-7.11552,0z" stroke-width="0" fill="#ffffff"/>
  </g>
 </g>
</svg>