<svg width="160" height="50" xmlns="http://www.w3.org/2000/svg" xmlns:svg="http://www.w3.org/2000/svg">
 <g>
  <title>Layer 1</title>
  <g stroke="null" id="svg_1">
   <g stroke="null" id="svg_2">
    <path stroke="null" id="svg_3" d="m48.2176,32.28791c-3.05737,0 -5.47482,-2.34635 -5.54592,-5.40372l0,-0.35551l2.98627,0l0,0.35551c0.0711,1.56423 1.06652,2.63076 2.63076,2.63076c1.35093,0 2.48855,-1.20873 2.48855,-2.55966c0,-1.20873 -0.85322,-2.48855 -2.70186,-2.48855l-1.13763,0l0,-2.98627l1.13763,0c1.84864,0 1.99084,-1.42203 1.99084,-1.84864c0,-0.99542 -0.78212,-1.84864 -1.77754,-1.84864c-1.35093,0 -1.70644,1.20873 -1.77754,1.91974l-0.0711,0.35551l-2.98627,0l0,-0.35551c0,-0.71102 0.28441,-1.99084 0.99542,-2.84406c0.85322,-1.13763 2.34635,-1.84864 3.91059,-1.84864c2.70186,0 4.6927,1.99084 4.6927,4.83491c0,1.27983 -0.35551,2.13305 -1.27983,3.05737c1.20873,0.99542 1.91974,2.41745 1.91974,4.05279c0.1422,3.05737 -2.20415,5.33262 -5.47482,5.33262z" fill="#018CE1"/>
    <path stroke="null" id="svg_4" d="m51.27497,22.9025c1.06652,-0.92432 1.49313,-1.70644 1.49313,-3.12847c0,-2.63076 -1.84864,-4.4083 -4.3372,-4.4083c-1.49313,0 -2.84406,0.71102 -3.62618,1.70644c-0.63991,0.78212 -0.92432,1.99084 -0.92432,2.63076l2.34635,0c0.1422,-1.42203 0.92432,-2.27525 2.13305,-2.27525s2.13305,0.99542 2.13305,2.20415c0,1.56423 -1.13763,2.20415 -2.34635,2.20415l-0.71102,0l0,2.27525l0.71102,0c2.06195,0 3.05737,1.42203 3.05737,2.84406c0,1.56423 -1.27983,2.91516 -2.84406,2.91516c-1.63534,0 -2.84406,-1.13763 -2.98627,-2.98627l-2.27525,0c0.0711,2.84406 2.34635,4.97711 5.19041,4.97711c3.05737,0 5.19041,-2.13305 5.19041,-5.04821c-0.0711,-1.63534 -0.85322,-3.05737 -2.20415,-3.91059z" fill="#018CE1"/>
    <path stroke="null" id="svg_5" d="m61.37139,15.22354l-5.04821,0l0,16.77997l3.05737,0l0,-6.32804l1.99084,0c3.76838,0 5.97253,-1.91974 5.97253,-5.26152c0,-3.19957 -2.20415,-5.19041 -5.97253,-5.19041zm-1.91974,2.91516l1.91974,0c2.55966,0 2.91516,1.42203 2.91516,2.34635c0,1.99084 -1.84864,2.34635 -2.91516,2.34635l-1.91974,0l0,-4.6927z" fill="#018CE1"/>
    <path stroke="null" id="svg_6" d="m61.37139,15.65014l-4.6216,0l0,15.99785l2.27525,0l0,-6.32804l2.34635,0c3.48398,0 5.61702,-1.70644 5.61702,-4.83491c0,-3.12847 -2.20415,-4.83491 -5.61702,-4.83491zm0,7.53677l-2.34635,0l0,-5.40372l2.27525,0c2.06195,0 3.27067,0.92432 3.27067,2.70186c0.0711,1.70644 -1.13763,2.70186 -3.19957,2.70186z" fill="#018CE1"/>
    <polygon stroke="null" id="svg_7" points="69.1214599609375,32.00350379943848 69.1214599609375,15.223535060882568 72.1788330078125,15.223535060882568 72.1788330078125,29.088340759277344 77.7247543334961,29.088340759277344 77.7247543334961,32.00350379943848 " fill="#018CE1"/>
    <path stroke="null" id="svg_8" d="m71.82332,29.51495l0,-13.86481l-2.34635,0l0,15.99785l7.89227,0l0,-2.13305l-5.54592,0z" fill="#018CE1"/>
    <path stroke="null" id="svg_9" d="m90.16753,32.28791c-4.4794,0 -8.46109,-4.05279 -8.46109,-8.60329c0,-2.41745 0.92432,-4.6216 2.55966,-6.25694c1.56423,-1.56423 3.69728,-2.48855 5.90143,-2.48855c3.41288,0 6.25694,1.63534 7.82117,4.6216l0.28441,0.56881l-3.62618,0l-0.1422,-0.1422c-1.27983,-1.42203 -2.55966,-2.13305 -4.19499,-2.13305c-2.98627,0 -5.54592,2.55966 -5.54592,5.61702c0,3.27067 2.41745,5.90143 5.40372,5.90143c1.63534,0 2.98627,-0.63991 4.19499,-1.99084l0.1422,-0.1422l3.69728,0l-0.35551,0.56881c-1.63534,2.98627 -4.3372,4.4794 -7.67897,4.4794z" fill="#FF7200"/>
    <path stroke="null" id="svg_10" d="m90.23863,29.79936c-3.27067,0 -5.83033,-2.98627 -5.83033,-6.32804c0,-3.19957 2.63076,-5.97253 5.90143,-5.97253c1.91974,0 3.27067,0.85322 4.4794,2.27525l2.84406,0c-1.63534,-2.98627 -4.4794,-4.4083 -7.46566,-4.4083c-4.3372,0 -8.10558,3.55508 -8.10558,8.38998c0,4.26609 3.62618,8.24778 8.10558,8.24778c3.19957,0 5.75923,-1.49313 7.39456,-4.26609l-2.84406,0c-1.35093,1.42203 -2.84406,2.06195 -4.4794,2.06195z" fill="#FF7200"/>
    <path stroke="null" id="svg_11" d="m105.73877,18.92082c-1.77754,0 -3.34177,0.63991 -4.6216,1.91974c-1.27983,1.27983 -1.99084,2.98627 -1.99084,4.90601c0,1.63534 0.71102,3.27067 1.91974,4.5505c1.27983,1.27983 2.98627,1.99084 4.7638,1.99084c2.70186,0 5.11931,-1.56423 6.18584,-4.05279l-3.34177,0c-0.63991,0.78212 -1.70644,1.20873 -2.77296,1.20873c-1.56423,0 -2.91516,-0.99542 -3.55508,-2.48855l10.02532,0l0.0711,-0.35551c0,-0.1422 0.0711,-0.28441 0.0711,-0.42661c0,-0.28441 0,-0.49771 0,-0.78212c0.0711,-3.55508 -2.91516,-6.47024 -6.75465,-6.47024zm3.62618,5.54592l-7.11016,0c0.35551,-1.70644 2.06195,-2.77296 3.55508,-2.77296c1.77754,0.0711 3.19957,1.20873 3.55508,2.77296z" fill="#FF7200"/>
    <path stroke="null" id="svg_12" d="m105.73877,19.34743c-3.27067,0 -6.25694,2.63076 -6.25694,6.39914c0,3.19957 2.84406,6.18584 6.25694,6.18584c2.48855,0 4.6927,-1.42203 5.75923,-3.69728l-2.41745,0c-0.78212,0.99542 -1.99084,1.56423 -3.27067,1.56423c-1.91974,0 -3.55508,-1.27983 -4.05279,-3.27067l10.23863,0c0,-0.1422 0.0711,-0.28441 0.0711,-0.35551c0,-0.28441 0,-0.49771 0,-0.78212c0.0711,-3.34177 -2.70186,-6.04363 -6.32804,-6.04363zm-3.41288,5.11931c0.35551,-1.70644 2.06195,-2.77296 3.55508,-2.77296c1.70644,0 3.19957,1.20873 3.55508,2.77296l-7.11016,0zm3.48398,-3.12847c-1.91974,0 -3.76838,1.42203 -3.98169,3.48398l7.96338,0c-0.1422,-1.99084 -1.99084,-3.48398 -3.98169,-3.48398zm0,0.42661c1.70644,0 3.19957,1.20873 3.55508,2.77296l-7.11016,0c0.42661,-1.77754 2.13305,-2.77296 3.55508,-2.77296z" fill="#FF7200"/>
    <path stroke="null" id="svg_13" d="m122.66094,32.0035l0,-6.89685c0,-2.27525 -0.78212,-3.34177 -2.63076,-3.34177c-1.77754,0 -2.77296,1.20873 -2.77296,3.34177l0,6.96795l-2.98627,0l0,-12.79828l2.84406,0l0,0.71102c0.85322,-0.71102 1.91974,-1.06652 3.12847,-1.06652c3.27067,0 5.40372,2.13305 5.40372,5.47482l0,7.53677l-2.98627,0.0711l0,0z" fill="#FF7200"/>
    <path stroke="null" id="svg_14" d="m120.24349,19.34743c-1.35093,0 -2.63076,0.42661 -3.48398,1.56423l-0.0711,0l0,-1.27983l-2.06195,0l0,11.94506l2.27525,0l0,-6.54134c0,-2.27525 1.20873,-3.69728 3.12847,-3.69728c1.99084,0 2.98627,1.20873 2.98627,3.69728l0,6.54134l2.27525,0l0,-7.11016c-0.0711,-3.34177 -2.13305,-5.11931 -5.04821,-5.11931z" fill="#FF7200"/>
    <polygon stroke="null" id="svg_15" points="128.5623779296875,32.00350379943848 128.5623779296875,22.049285888671875 126.92703247070312,22.049285888671875 126.92703247070312,19.27632427215576 128.5623779296875,19.27632427215576 128.5623779296875,15.223535060882568 131.5486297607422,15.223535060882568 131.5486297607422,19.27632427215576 133.5394744873047,19.27632427215576 133.5394744873047,22.049285888671875 131.5486297607422,22.049285888671875 131.5486297607422,32.00350379943848 " fill="#FF7200"/>
    <path stroke="null" id="svg_16" d="m131.12203,19.63183l0,-3.98169l-2.27525,0l0,3.98169l-1.56423,0l0,2.06195l1.63534,0l0,9.95422l2.27525,0l0,-9.95422l1.99084,0l0,-2.06195l-2.06195,0z" fill="#FF7200"/>
    <path stroke="null" id="svg_17" d="m151.74148,19.27632l0,1.06652c-0.99542,-0.92432 -2.27525,-1.42203 -3.83948,-1.42203c-1.84864,0 -3.48398,0.71102 -4.6927,1.91974c-1.20873,1.27983 -1.91974,2.98627 -1.91974,4.97711c0,3.62618 2.98627,6.47024 6.75465,6.47024c1.49313,0 2.84406,-0.49771 3.69728,-1.49313l0,1.20873l2.98627,0l0,-12.72718l-2.98627,0zm-7.46566,6.39914c0,-2.13305 1.63534,-3.91059 3.69728,-3.91059c2.13305,0 3.76838,1.63534 3.76838,3.91059c0,2.13305 -1.70644,3.83948 -3.76838,3.83948c-1.99084,0 -3.69728,-1.77754 -3.69728,-3.83948z" fill="#FF7200"/>
    <path stroke="null" id="svg_18" d="m152.09699,19.63183l0,1.70644l-0.0711,0c-0.92432,-1.35093 -2.41745,-1.99084 -4.12389,-1.99084c-3.55508,0 -6.25694,2.70186 -6.25694,6.47024c0,3.48398 2.84406,6.11473 6.32804,6.11473c1.70644,0 3.19957,-0.71102 4.05279,-2.13305l0.0711,0l0,1.84864l2.27525,0l0,-12.01616l-2.27525,0zm-4.12389,10.23863c-2.27525,0 -4.05279,-1.99084 -4.05279,-4.19499c0,-2.34635 1.84864,-4.26609 4.05279,-4.26609c2.48855,0 4.19499,1.91974 4.19499,4.26609c0,2.27525 -1.84864,4.19499 -4.19499,4.19499z" fill="#FF7200"/>
    <rect stroke="null" id="svg_19" height="16.77997" width="2.98627" fill="#FF7200" y="15.22354" x="157.003"/>
    <path stroke="null" id="svg_20" d="m157.3585,15.65014l0,15.99785l2.27525,0l0,-15.99785l-2.27525,0z" fill="#FF7200"/>
    <path stroke="null" id="svg_21" d="m143.13819,19.70293c-1.13763,0.92432 -1.70644,2.27525 -1.70644,2.27525c-1.77754,-0.28441 -2.70186,0.35551 -3.19957,0.99542c-0.35551,0.49771 -0.56881,1.13763 -0.56881,1.70644l0,7.18126l-2.98627,0l0,-12.51388l2.70186,0l0,1.27983c0.71102,-0.71102 1.42203,-0.99542 1.42203,-0.99542c1.77754,-0.56881 4.3372,0.0711 4.3372,0.0711z" fill="#FF7200"/>
   </g>
   <polygon stroke="null" id="svg_22" points="3.210312604904175,15.436840057373047 18.212743759155273,11.952863216400146 29.87339973449707,14.79692554473877 20.63019561767578,18.35200309753418 32.57525634765625,15.86344861984253 32.57525634765625,32.14570617675781 18.710453033447266,37.12281608581543 4.276835918426514,33.42553520202637 17.14621925354004,21.693777084350586 18.710453033447266,34.2076530456543 18.99485969543457,18.35200309753418 5.7699689865112305,16.076753616333008 16.079696655273438,19.987339973449707 3.210312604904175,31.29248809814453 " fill="#018CE1"/>
   <path stroke="null" id="svg_23" d="m18.07054,8.82439l-18.0598,4.19499l0,23.03691l18.91302,5.11931l17.13548,-6.32804l0,-21.75708l-17.9887,-4.26609zm16.49556,24.88555l-15.71345,5.68813l-17.27768,-4.5505l0,-20.61945l16.49556,-3.69728l16.49556,3.76838l0,19.41073z" fill="#018CE1"/>
   <polygon stroke="null" id="svg_24" points="32.57525634765625,15.86344861984253 32.57525634765625,32.14570617675781 18.710453033447266,37.12281608581543 4.276835918426514,33.42553520202637 17.14621925354004,21.693777084350586 18.710453033447266,34.2076530456543 18.99485969543457,18.35200309753418 5.7699689865112305,16.076753616333008 16.079696655273438,19.987339973449707 3.210312604904175,31.29248809814453 3.210312604904175,15.436840057373047 18.212743759155273,11.952863216400146 29.87339973449707,14.79692554473877 20.63019561767578,18.35200309753418 " fill="#FFFFFF"/>
   <polygon stroke="null" id="svg_25" points="32.57525634765625,15.86344861984253 32.57525634765625,32.14570617675781 18.710453033447266,37.12281608581543 4.276835918426514,33.42553520202637 17.14621925354004,21.693777084350586 18.710453033447266,34.2076530456543 18.99485969543457,18.35200309753418 5.7699689865112305,16.076753616333008 16.079696655273438,19.987339973449707 3.210312604904175,31.29248809814453 3.210312604904175,15.436840057373047 18.212743759155273,11.952863216400146 29.87339973449707,14.79692554473877 20.63019561767578,18.35200309753418 " fill="#FF7200"/>
  </g>
 </g>
</svg>