<?xml version="1.0" encoding="utf-8"?>
<!-- Generator: Adobe Illustrator 23.1.1, SVG Export Plug-In . SVG Version: 6.00 Build 0)  -->
<svg version="1.1" id="Layer_1" xmlns="http://www.w3.org/2000/svg" xmlns:xlink="http://www.w3.org/1999/xlink" x="0px" y="0px"
	 viewBox="0 0 225 45.5" enable-background="new 0 0 225 45.5" xml:space="preserve">
<g>
	<g>
		<path fill="#018CE1" d="M67.8,33c-4.3,0-7.7-3.3-7.8-7.6v-0.5h4.2l0,0.5c0.1,2.2,1.5,3.7,3.7,3.7c1.9,0,3.5-1.7,3.5-3.6
			c0-1.7-1.2-3.5-3.8-3.5h-1.6v-4.2h1.6c2.6,0,2.8-2,2.8-2.6c0-1.4-1.1-2.6-2.5-2.6c-1.9,0-2.4,1.7-2.5,2.7l-0.1,0.5h-4.2v-0.5
			c0-1,0.4-2.8,1.4-4c1.2-1.6,3.3-2.6,5.5-2.6c3.8,0,6.6,2.8,6.6,6.8c0,1.8-0.5,3-1.8,4.3c1.7,1.4,2.7,3.4,2.7,5.7
			C75.7,29.8,72.4,33,67.8,33z"/>
		<path fill="#018CE1" d="M72.1,19.8c1.5-1.3,2.1-2.4,2.1-4.4c0-3.7-2.6-6.2-6.1-6.2c-2.1,0-4,1-5.1,2.4c-0.9,1.1-1.3,2.8-1.3,3.7
			H65c0.2-2,1.3-3.2,3-3.2s3,1.4,3,3.1c0,2.2-1.6,3.1-3.3,3.1h-1v3.2h1c2.9,0,4.3,2,4.3,4c0,2.2-1.8,4.1-4,4.1c-2.3,0-4-1.6-4.2-4.2
			h-3.2c0.1,4,3.3,7,7.3,7c4.3,0,7.3-3,7.3-7.1C75.1,23,74,21,72.1,19.8z"/>
		<path fill="#018CE1" d="M86.3,9h-7.1v23.6h4.3v-8.9h2.8c5.3,0,8.4-2.7,8.4-7.4C94.7,11.8,91.6,9,86.3,9z M83.6,13.1h2.7
			c3.6,0,4.1,2,4.1,3.3c0,2.8-2.6,3.3-4.1,3.3h-2.7V13.1z"/>
		<path fill="#018CE1" d="M86.3,9.6h-6.5v22.5H83v-8.9h3.3c4.9,0,7.9-2.4,7.9-6.8C94.2,12,91.1,9.6,86.3,9.6z M86.3,20.2H83v-7.6
			h3.2c2.9,0,4.6,1.3,4.6,3.8C90.9,18.8,89.2,20.2,86.3,20.2z"/>
		<polygon fill="#018CE1" points="97.2,32.6 97.2,9 101.5,9 101.5,28.5 109.3,28.5 109.3,32.6 		"/>
		<path fill="#018CE1" d="M101,29.1V9.6h-3.3v22.5h11.1v-3H101z"/>
		<path fill="#FF7200" d="M126.8,33c-6.3,0-11.9-5.7-11.9-12.1c0-3.4,1.3-6.5,3.6-8.8c2.2-2.2,5.2-3.5,8.3-3.5c4.8,0,8.8,2.3,11,6.5
			l0.4,0.8h-5.1l-0.2-0.2c-1.8-2-3.6-3-5.9-3c-4.2,0-7.8,3.6-7.8,7.9c0,4.6,3.4,8.3,7.6,8.3c2.3,0,4.2-0.9,5.9-2.8l0.2-0.2h5.2
			l-0.5,0.8C135.3,30.9,131.5,33,126.8,33z"/>
		<path fill="#FF7200" d="M126.9,29.5c-4.6,0-8.2-4.2-8.2-8.9c0-4.5,3.7-8.4,8.3-8.4c2.7,0,4.6,1.2,6.3,3.2h4
			c-2.3-4.2-6.3-6.2-10.5-6.2c-6.1,0-11.4,5-11.4,11.8c0,6,5.1,11.6,11.4,11.6c4.5,0,8.1-2.1,10.4-6h-4
			C131.3,28.6,129.2,29.5,126.9,29.5z"/>
		<path fill="#FF7200" d="M148.7,14.2c-2.5,0-4.7,0.9-6.5,2.7c-1.8,1.8-2.8,4.2-2.8,6.9c0,2.3,1,4.6,2.7,6.4
			c1.8,1.8,4.2,2.8,6.7,2.8c3.8,0,7.2-2.2,8.7-5.7h-4.7c-0.9,1.1-2.4,1.7-3.9,1.7c-2.2,0-4.1-1.4-5-3.5h14.1l0.1-0.5
			c0-0.2,0.1-0.4,0.1-0.6c0-0.4,0-0.7,0-1.1C158.3,18.3,154.1,14.2,148.7,14.2z M153.8,22h-10c0.5-2.4,2.9-3.9,5-3.9
			C151.3,18.2,153.3,19.8,153.8,22z"/>
		<path fill="#FF7200" d="M148.7,14.8c-4.6,0-8.8,3.7-8.8,9c0,4.5,4,8.7,8.8,8.7c3.5,0,6.6-2,8.1-5.2h-3.4c-1.1,1.4-2.8,2.2-4.6,2.2
			c-2.7,0-5-1.8-5.7-4.6h14.4c0-0.2,0.1-0.4,0.1-0.5c0-0.4,0-0.7,0-1.1C157.7,18.6,153.8,14.8,148.7,14.8z M143.9,22
			c0.5-2.4,2.9-3.9,5-3.9c2.4,0,4.5,1.7,5,3.9H143.9z M148.8,17.6c-2.7,0-5.3,2-5.6,4.9h11.2C154.2,19.7,151.6,17.6,148.8,17.6z
			 M148.8,18.2c2.4,0,4.5,1.7,5,3.9h-10C144.4,19.6,146.8,18.2,148.8,18.2z"/>
		<path fill="#FF7200" d="M172.5,32.6v-9.7c0-3.2-1.1-4.7-3.7-4.7c-2.5,0-3.9,1.7-3.9,4.7v9.8h-4.2V14.7h4v1c1.2-1,2.7-1.5,4.4-1.5
			c4.6,0,7.6,3,7.6,7.7v10.6L172.5,32.6L172.5,32.6z"/>
		<path fill="#FF7200" d="M169.1,14.8c-1.9,0-3.7,0.6-4.9,2.2h-0.1v-1.8h-2.9v16.8h3.2v-9.2c0-3.2,1.7-5.2,4.4-5.2
			c2.8,0,4.2,1.7,4.2,5.2v9.2h3.2V22C176.1,17.3,173.2,14.8,169.1,14.8z"/>
		<polygon fill="#FF7200" points="180.8,32.6 180.8,18.6 178.5,18.6 178.5,14.7 180.8,14.7 180.8,9 185,9 185,14.7 187.8,14.7 
			187.8,18.6 185,18.6 185,32.6 		"/>
		<path fill="#FF7200" d="M184.4,15.2V9.6h-3.2v5.6H179v2.9h2.3v14h3.2V18.1h2.8v-2.9H184.4z"/>
		<path fill="#FF7200" d="M213.4,14.7v1.5c-1.4-1.3-3.2-2-5.4-2c-2.6,0-4.9,1-6.6,2.7c-1.7,1.8-2.7,4.2-2.7,7c0,5.1,4.2,9.1,9.5,9.1
			c2.1,0,4-0.7,5.2-2.1v1.7h4.2V14.7H213.4z M202.9,23.7c0-3,2.3-5.5,5.2-5.5c3,0,5.3,2.3,5.3,5.5c0,3-2.4,5.4-5.3,5.4
			C205.3,29.1,202.9,26.6,202.9,23.7z"/>
		<path fill="#FF7200" d="M213.9,15.2v2.4h-0.1c-1.3-1.9-3.4-2.8-5.8-2.8c-5,0-8.8,3.8-8.8,9.1c0,4.9,4,8.6,8.9,8.6
			c2.4,0,4.5-1,5.7-3h0.1v2.6h3.2V15.2H213.9z M208.1,29.6c-3.2,0-5.7-2.8-5.7-5.9c0-3.3,2.6-6,5.7-6c3.5,0,5.9,2.7,5.9,6
			C214,26.9,211.4,29.6,208.1,29.6z"/>
		<rect x="220.8" y="9" fill="#FF7200" width="4.2" height="23.6"/>
		<path fill="#FF7200" d="M221.3,9.6v22.5h3.2V9.6H221.3z"/>
		<path fill="#FF7200" d="M201.3,15.3c-1.6,1.3-2.4,3.2-2.4,3.2c-2.5-0.4-3.8,0.5-4.5,1.4c-0.5,0.7-0.8,1.6-0.8,2.4v10.1h-4.2V14.8
			h3.8v1.8c1-1,2-1.4,2-1.4C197.7,14.4,201.3,15.3,201.3,15.3z"/>
	</g>
	<polygon fill="#018CE1" points="4.5,9.3 25.6,4.4 42,8.4 29,13.4 45.8,9.9 45.8,32.8 26.3,39.8 6,34.6 24.1,18.1 26.3,35.7 
		26.7,13.4 8.1,10.2 22.6,15.7 4.5,31.6 	"/>
	<path fill="#018CE1" d="M25.4,0L0,5.9v32.4l26.6,7.2l24.1-8.9V6L25.4,0z M48.6,35l-22.1,8L2.2,36.6v-29l23.2-5.2l23.2,5.3V35z"/>
	<polygon fill="#FFFFFF" points="45.8,9.9 45.8,32.8 26.3,39.8 6,34.6 24.1,18.1 26.3,35.7 26.7,13.4 8.1,10.2 22.6,15.7 4.5,31.6 
		4.5,9.3 25.6,4.4 42,8.4 29,13.4 	"/>
	<polygon fill="#FF7200" points="45.8,9.9 45.8,32.8 26.3,39.8 6,34.6 24.1,18.1 26.3,35.7 26.7,13.4 8.1,10.2 22.6,15.7 4.5,31.6 
		4.5,9.3 25.6,4.4 42,8.4 29,13.4 	"/>
</g>
</svg>
