<svg xmlns="http://www.w3.org/2000/svg" viewBox="0 0 180 35.31"><defs><style>.cls-1{fill:#356ae6;fill-rule:evenodd;}</style></defs><g id="Guidelines"><path class="cls-1" d="M134.59,8.7c.65,0,.79.39.79.72v1.2h-1.24c-.62,0-.75-.37-.75-.68V8.7Zm-.1,3.94a.68.68,0,0,1,.78.75V23.47h-1.11v0a.69.69,0,0,1-.66-.74v-10Zm-59,7.86a5.64,5.64,0,0,1,.5.5l0,.06-.05.05a7.39,7.39,0,0,1-5.77,2.57,7.28,7.28,0,0,1-7.34-7.54,7.4,7.4,0,0,1,7.37-7.58,7.52,7.52,0,0,1,5.67,2.33L76,11l-.06.06s-.32.35-.63.66a.77.77,0,0,1-1.13,0,5.87,5.87,0,0,0-3.94-1.47,5.55,5.55,0,0,0-5.49,5.83A5.65,5.65,0,0,0,70.19,22a5.82,5.82,0,0,0,4-1.52A.91.91,0,0,1,75.47,20.5ZM102,12.36c2.51,0,4.06,1.68,4.06,4.37V23.4h-.92c-.72,0-.82-.45-.82-.88V17.08c0-2-1-3.12-2.66-3.12a2.89,2.89,0,0,0-2.88,3.23V23.4h-1a.7.7,0,0,1-.78-.78V17.05C97,15.12,96,14,94.32,14a3,3,0,0,0-2.87,3.26v5.4c0,.63-.27.75-.75.75h-1V12.54h1a.74.74,0,0,1,.82.81v.77a3.84,3.84,0,0,1,3.36-1.83,3.65,3.65,0,0,1,3.42,2,4.31,4.31,0,0,1,3.68-2Zm12.58,0A5.28,5.28,0,0,1,119.7,18a5.28,5.28,0,0,1-5.17,5.63,4.77,4.77,0,0,1-4-2.09v5.15h-1a.68.68,0,0,1-.75-.78V12.61h.85a.78.78,0,0,1,.89.85v1.12A4.72,4.72,0,0,1,114.53,12.4ZM117.89,18A3.75,3.75,0,0,0,114.21,14a3.87,3.87,0,0,0-3.77,4,3.88,3.88,0,0,0,3.77,4.06C116.38,22.05,117.89,20.39,117.89,18Zm28.88-4.63a.84.84,0,0,1,.82-.82h.95v8.9c0,3.35-2,5.28-5.48,5.28a8.3,8.3,0,0,1-4.9-1.52l-.06,0,0-.07s.11-.21.38-.66a.64.64,0,0,1,.55-.36,1.34,1.34,0,0,1,.65.26,6.82,6.82,0,0,0,3.3.86,3.41,3.41,0,0,0,3.78-3.71v-1a5.09,5.09,0,0,1-4.09,2.07,5,5,0,0,1-5.1-5.11,5.07,5.07,0,0,1,1.58-3.76,5.23,5.23,0,0,1,3.52-1.37,5,5,0,0,1,4.06,2v-.92Zm.07,4.14A3.64,3.64,0,0,0,143,14a3.45,3.45,0,0,0-3.6,3.54,3.5,3.5,0,0,0,3.6,3.57A3.66,3.66,0,0,0,146.84,17.53Zm9.91-5.13a4,4,0,0,1,4.16,4.33v6.71h-1.06c-.49,0-.72-.24-.72-.75V17.12c0-2-1.07-3.12-2.87-3.12a3.05,3.05,0,0,0-3.12,3.26l0,6.18H151.4V12.61h1a.74.74,0,0,1,.82.74v.93A4.09,4.09,0,0,1,156.75,12.4Zm-30.52.07c3,0,4.62,1.54,4.65,4.33v6.6h-.95c-.52,0-.75-.22-.75-.71V22a4.87,4.87,0,0,1-3.78,1.69c-2.79,0-4.06-1.78-4.06-3.43,0-2.18,1.69-3.43,4.65-3.43h1.79v.6c0,.51-.25.75-.78.75h-.87c-1.95,0-3,.73-3,2s1.35,2,2.6,2c2,0,3.47-1.18,3.47-2.8V16.84c0-1.81-1.1-2.81-3.09-2.81a6.82,6.82,0,0,0-2.61.52c-.33.11-.74.1-.88-.26s-.22-.56-.32-.84l0-.07.07,0a9.13,9.13,0,0,1,3.9-.87Zm-43.85,0c3,0,4.61,1.54,4.65,4.33v6.6h-1c-.51,0-.75-.22-.75-.71V22a4.85,4.85,0,0,1-3.78,1.69c-2.79,0-4.06-1.78-4.06-3.43,0-2.18,1.7-3.43,4.65-3.43h1.78v.6c0,.51-.25.75-.78.75h-.86c-1.94,0-3,.73-3,2s1.34,2,2.59,2c2,0,3.47-1.18,3.47-2.8V16.84C85.32,15,84.23,14,82.24,14a6.83,6.83,0,0,0-2.62.52c-.33.11-.73.1-.88-.26s-.21-.56-.31-.84l0-.07.08,0a9.18,9.18,0,0,1,3.9-.87Zm96.43,4a1.19,1.19,0,0,1,.6,1v.2a1.39,1.39,0,0,1-.6,1.09h0l-5.05,3.51-5.5,3.81v.28l-.16-.28s0,0,0,0h0V24.64a1,1,0,0,1,.59-1.08c.45-.29,7.62-5.26,8.57-5.92-.94-.66-8-5.57-8.5-5.92l-.06,0a1.13,1.13,0,0,1-.64-1V9l.14.1c.42.29,10.35,7.21,10.62,7.42Zm-6.2,1.92a1.34,1.34,0,0,1-.75-.25L168,15.51l0,0V14.39a.57.57,0,0,1,.3-.54.64.64,0,0,1,.68.09c.48.3,5.11,3.52,5.15,3.55l.11.07-.11.07-.66.45A1.43,1.43,0,0,1,172.61,18.41ZM24.86,21c.34.34.51.48.51.48l.07,0-.05.07A5.44,5.44,0,0,1,21,23.68,5.64,5.64,0,0,1,21,12.4a5.49,5.49,0,0,1,4.31,1.91l.06,0-.06.06c-.19.22-.39.43-.59.63s-.7.32-1.16-.06A4,4,0,0,0,21,14,3.86,3.86,0,0,0,17.26,18a3.89,3.89,0,0,0,3.81,4.06A3.94,3.94,0,0,0,23.76,21a.81.81,0,0,1,1.1,0ZM36.43,8.7a.76.76,0,0,1,.79.82v1.1H36c-.62,0-.75-.37-.75-.68V8.7Zm-.14,3.94a.69.69,0,0,1,.79.75V23.47H36v0a.69.69,0,0,1-.66-.74v-10Zm11.45.58a.93.93,0,0,1,.95-.62h1.22l-.06.13c0,.09-4.25,9.76-4.42,10.13a.86.86,0,0,1-.88.58h-.21a.83.83,0,0,1-.92-.54C43.25,22.52,39,12.79,39,12.69l0-.12h1.24a1,1,0,0,1,1,.65c.13.37,2.77,6.78,3.26,8Zm10.92,4.16a.26.26,0,0,0,.21-.08c.07-.07.08-.2.05-.38a3.12,3.12,0,0,0-3.23-3c-1.77,0-3.15,1.46-3.36,3.54a5.73,5.73,0,0,0,0,.59,4.85,4.85,0,0,0,0,.54A3.68,3.68,0,0,0,56,22.15a4.09,4.09,0,0,0,2.87-1.06.72.72,0,0,1,1,0l.53.45.07.06-.06.07a5.64,5.64,0,0,1-4.46,2A5.42,5.42,0,0,1,50.56,18c0-3.23,2.24-5.66,5.2-5.66a4.83,4.83,0,0,1,5,4.57,1.81,1.81,0,0,1-.38,1.38,1.71,1.71,0,0,1-1.28.46c-1,0-3.25,0-5.23,0h-.09v-.68a.69.69,0,0,1,.75-.75ZM8.57,9.24c.21.45,6.28,13.94,6.34,14.08l.06.12h-1a1.19,1.19,0,0,1-1.16-.58c-.19-.41-4.63-10.49-5.29-12L4.31,18H9v.79a.84.84,0,0,1-.92.85H3.6c-.16.37-1.21,2.67-1.4,3.09a1.13,1.13,0,0,1-1.06.71H0l.06-.12c.06-.14,6.2-13.8,6.33-14.11a1,1,0,0,1,.85-.54h.42a.86.86,0,0,1,.91.57ZM32.72,21.9a.64.64,0,0,1,.21.51c0,.38,0,.69,0,.71v0l0,0a5.36,5.36,0,0,1-2.2.47,2.78,2.78,0,0,1-3.08-3.09V8.74h.85a.8.8,0,0,1,.89.82v3.08h2.45a.85.85,0,0,1,.93.82v.75H29.31l0,6.11A1.5,1.5,0,0,0,31,22a3.4,3.4,0,0,0,1-.17.76.76,0,0,1,.67.07Z"/></g></svg>