<?xml version="1.0" encoding="utf-8"?>
<!-- Generator: Adobe Illustrator 21.0.0, SVG Export Plug-In . SVG Version: 6.00 Build 0)  -->
<svg version="1.1" xmlns="http://www.w3.org/2000/svg" xmlns:xlink="http://www.w3.org/1999/xlink" x="0px" y="0px"
	 viewBox="0 0 240 90" enable-background="new 0 0 240 90" xml:space="preserve">
<g id="Layer_2" display="none">
	
		<rect x="-10" y="0" display="inline" fill="none" stroke="#E8E7E7" stroke-width="1.1277" stroke-miterlimit="10" width="260" height="90"/>
</g>
<g id="Layer_1">
	<g>
		<g>
			<polygon fill="#1A476F" points="18,56 22.1,60.8 22.1,29.2 18,34 			"/>
			<polygon fill="#205B98" points="22.1,60.8 29.9,64.7 29.9,25.3 22.1,29.2 			"/>
			<polygon fill="#2D72B8" points="52.9,34 48.9,29.2 48.9,60.8 52.9,56 			"/>
			<polygon fill="#5294CF" points="41,64.7 48.9,60.8 48.9,29.2 41,25.3 			"/>
			<rect x="29.9" y="25.3" fill="#2D72B8" width="11.2" height="39.4"/>
		</g>
		<g>
			<path fill="#454545" d="M73.7,36.2l6.3,16h-1.7l-1.9-5h-7.3l-1.9,5h-1.6l6.4-16H73.7z M75.8,46l-3.1-8.2L69.6,46H75.8z"/>
			<path fill="#454545" d="M82.4,40.7v1.9h0.1c0.4-0.7,0.8-1.2,1.5-1.7c0.6-0.4,1.4-0.6,2.3-0.6c0.7,0,1.5,0.2,2.1,0.6
				c0.6,0.4,1,0.9,1.2,1.7c0.3-0.7,0.8-1.3,1.5-1.7c0.7-0.3,1.4-0.6,2.1-0.6c2.6,0,3.8,1.3,3.8,4.1v7.9h-1.4v-7.8
				c0-1-0.2-1.7-0.6-2.1c-0.4-0.5-1.1-0.7-2.1-0.7c-0.6,0-1.1,0.1-1.5,0.3c-0.4,0.2-0.7,0.6-1,0.9c-0.2,0.4-0.4,0.8-0.5,1.3
				s-0.2,1-0.2,1.6v6.5h-1.4v-7.9c0-0.4,0-0.7-0.1-1.1c-0.1-0.3-0.2-0.7-0.4-0.9s-0.4-0.5-0.7-0.6c-0.3-0.2-0.7-0.2-1.2-0.2
				c-0.6,0-1.1,0.1-1.6,0.3c-0.4,0.2-0.8,0.5-1.1,0.9c-0.2,0.4-0.5,0.8-0.6,1.3c-0.2,0.5-0.2,1.1-0.2,1.7v6.4h-1.4V40.7H82.4z"/>
			<path fill="#454545" d="M100,42.4c0.2-0.5,0.6-0.9,1-1.2c0.4-0.3,0.9-0.6,1.4-0.7c0.6-0.2,1.2-0.2,1.8-0.2c0.5,0,1,0.1,1.5,0.2
				s1,0.2,1.3,0.6s0.7,0.7,1,1.2c0.2,0.5,0.4,1.1,0.4,1.9v6.1c0,0.6,0.2,0.8,0.8,0.8c0.2,0,0.3,0,0.4-0.1v1.2
				c-0.2,0-0.3,0.1-0.4,0.1c-0.2,0-0.2,0-0.5,0c-0.3,0-0.7-0.1-0.8-0.2c-0.2-0.1-0.4-0.2-0.5-0.4s-0.2-0.4-0.2-0.7
				c0-0.2-0.1-0.5-0.1-0.8h-0.1c-0.2,0.3-0.5,0.7-0.7,1c-0.2,0.3-0.6,0.5-0.9,0.7c-0.3,0.2-0.7,0.3-1.1,0.4
				c-0.4,0.1-0.9,0.2-1.5,0.2c-0.5,0-1.1-0.1-1.5-0.2c-0.5-0.2-0.9-0.3-1.2-0.6c-0.3-0.2-0.7-0.7-0.8-1.1c-0.2-0.4-0.3-0.9-0.3-1.5
				c0-0.8,0.2-1.4,0.5-1.9c0.3-0.4,0.8-0.8,1.4-1.1c0.6-0.2,1.2-0.4,2-0.5c0.7-0.1,1.5-0.2,2.2-0.2c0.3,0,0.6-0.1,0.7-0.1
				c0.2-0.1,0.4-0.1,0.6-0.2c0.2-0.1,0.2-0.2,0.3-0.5c0.1-0.2,0.1-0.4,0.1-0.7c0-0.5-0.1-0.8-0.2-1.2c-0.2-0.3-0.4-0.6-0.7-0.7
				c-0.2-0.2-0.6-0.3-1-0.3c-0.3-0.1-0.7-0.1-1.2-0.1c-0.9,0-1.7,0.2-2.1,0.7c-0.6,0.4-0.8,1.1-0.9,2.1h-1.4
				C99.6,43.5,99.8,42.9,100,42.4z M107.1,45.9c-0.1,0.2-0.2,0.2-0.5,0.3c-0.2,0.1-0.5,0.2-0.7,0.2c-0.6,0.1-1.2,0.2-1.8,0.2
				c-0.7,0.1-1.2,0.2-1.7,0.3c-0.5,0.2-0.9,0.4-1.3,0.7c-0.3,0.3-0.5,0.7-0.5,1.3c0,0.3,0.1,0.7,0.2,0.9c0.2,0.2,0.3,0.5,0.6,0.7
				s0.5,0.3,0.8,0.5s0.7,0.2,1,0.2c0.5,0,1.1-0.1,1.6-0.2s0.9-0.4,1.3-0.7c0.3-0.3,0.7-0.7,0.9-1.2c0.2-0.4,0.3-1,0.3-1.5
				L107.1,45.9L107.1,45.9z"/>
			<path fill="#454545" d="M119.9,51v1.2h-9.6V51l7.5-9.2h-7v-1.2h8.8v1L112,51H119.9z"/>
			<path fill="#454545" d="M128.8,40.8c0.7,0.3,1.2,0.7,1.7,1.3c0.5,0.6,0.8,1.2,1.1,1.9c0.2,0.7,0.3,1.5,0.3,2.3s-0.1,1.7-0.3,2.3
				s-0.6,1.4-1.1,1.9c-0.5,0.6-1,1-1.7,1.3c-0.7,0.3-1.5,0.5-2.3,0.5c-0.9,0-1.7-0.2-2.3-0.5c-0.7-0.3-1.2-0.7-1.7-1.3
				c-0.5-0.6-0.8-1.2-1.1-1.9c-0.2-0.7-0.3-1.5-0.3-2.3s0.1-1.7,0.3-2.3c0.2-0.7,0.6-1.4,1.1-1.9c0.5-0.6,1-1,1.7-1.3
				c0.7-0.3,1.5-0.5,2.3-0.5C127.4,40.3,128.1,40.5,128.8,40.8z M124.8,41.9c-0.5,0.2-0.9,0.7-1.2,1.2c-0.3,0.5-0.6,1-0.7,1.6
				c-0.2,0.6-0.2,1.2-0.2,1.8c0,0.7,0.1,1.2,0.2,1.8c0.2,0.6,0.4,1.1,0.7,1.6c0.3,0.5,0.7,0.8,1.2,1.1c0.5,0.2,1.1,0.4,1.7,0.4
				s1.2-0.2,1.7-0.4c0.5-0.2,0.9-0.7,1.2-1.1c0.3-0.5,0.6-1,0.7-1.6s0.2-1.2,0.2-1.8c0-0.7-0.1-1.2-0.2-1.8
				c-0.2-0.6-0.4-1.1-0.7-1.6c-0.3-0.5-0.7-0.8-1.2-1.2c-0.5-0.2-1.1-0.4-1.7-0.4S125.2,41.7,124.8,41.9z"/>
			<path fill="#454545" d="M135.4,40.7v2h0.1c0.2-0.7,0.7-1.2,1.4-1.7c0.7-0.4,1.4-0.7,2.2-0.7c0.8,0,1.5,0.1,2,0.3
				c0.6,0.2,1,0.5,1.3,0.9c0.3,0.4,0.6,0.8,0.7,1.4c0.2,0.6,0.2,1.2,0.2,1.8v7.4h-1.3V45c0-0.5-0.1-0.9-0.2-1.4
				c-0.1-0.5-0.2-0.8-0.5-1.1c-0.2-0.3-0.5-0.6-0.9-0.7c-0.4-0.2-0.8-0.2-1.4-0.2c-0.6,0-1.1,0.1-1.5,0.3c-0.4,0.2-0.8,0.5-1.2,0.8
				c-0.3,0.3-0.6,0.7-0.7,1.2c-0.2,0.5-0.2,1-0.2,1.6v6.7h-1.4V40.7H135.4z"/>
			<path fill="#454545" d="M160.4,36.2l6,16h-3.6l-1.2-3.6h-6l-1.2,3.6h-3.6l6-16H160.4z M160.5,46l-2-5.9h-0.1l-2.1,5.9H160.5z"/>
			<path fill="#454545" d="M175.2,52.2v-1.6h-0.1c-0.4,0.7-0.9,1.2-1.6,1.5c-0.7,0.3-1.3,0.4-2,0.4c-0.8,0-1.6-0.1-2.1-0.3
				c-0.6-0.2-1-0.6-1.3-0.9c-0.3-0.3-0.5-0.9-0.7-1.5c-0.2-0.6-0.2-1.2-0.2-2v-7.1h3.1v6.5c0,1,0.2,1.7,0.4,2.1
				c0.3,0.5,0.8,0.7,1.6,0.7c0.8,0,1.5-0.2,1.9-0.7c0.4-0.5,0.6-1.3,0.6-2.6v-6h3.1v11.6L175.2,52.2L175.2,52.2z"/>
			<path fill="#454545" d="M183.6,40.7v2.1h0.1c0.2-0.3,0.3-0.7,0.6-1s0.6-0.6,0.9-0.7c0.3-0.2,0.7-0.4,1.1-0.5s0.7-0.2,1.2-0.2
				c0.2,0,0.4,0,0.7,0.1v3c-0.2,0-0.3-0.1-0.5-0.1s-0.4,0-0.6,0c-0.6,0-1.1,0.1-1.5,0.3c-0.4,0.2-0.7,0.5-1,0.8
				c-0.2,0.3-0.4,0.7-0.5,1.2c-0.1,0.4-0.2,0.9-0.2,1.5v5.2h-3.1V40.8h2.9V40.7z"/>
			<path fill="#454545" d="M189,43.9c0.2-0.7,0.7-1.4,1.2-1.9c0.5-0.5,1.2-0.9,1.9-1.2c0.7-0.3,1.6-0.4,2.5-0.4s1.7,0.2,2.5,0.4
				c0.7,0.3,1.4,0.7,1.9,1.2c0.5,0.5,0.9,1.2,1.2,1.9c0.2,0.7,0.4,1.6,0.4,2.5c0,0.9-0.2,1.7-0.4,2.5c-0.2,0.7-0.7,1.4-1.2,1.9
				c-0.5,0.5-1.2,0.9-1.9,1.2c-0.7,0.2-1.6,0.4-2.5,0.4s-1.7-0.2-2.5-0.4s-1.3-0.7-1.9-1.2c-0.5-0.5-0.9-1.2-1.2-1.9
				c-0.3-0.7-0.4-1.6-0.4-2.5C188.6,45.5,188.6,44.6,189,43.9z M191.9,47.8c0.1,0.4,0.2,0.8,0.5,1.2c0.2,0.3,0.5,0.7,0.8,0.8
				c0.3,0.2,0.8,0.3,1.3,0.3c0.5,0,1-0.1,1.3-0.3c0.3-0.2,0.7-0.5,0.9-0.8c0.2-0.3,0.3-0.7,0.5-1.2c0.1-0.4,0.2-0.9,0.2-1.3
				c0-0.4-0.1-0.9-0.2-1.3c-0.1-0.4-0.2-0.8-0.5-1.2c-0.2-0.3-0.5-0.7-0.9-0.8c-0.3-0.2-0.8-0.3-1.3-0.3c-0.5,0-1,0.1-1.3,0.3
				c-0.3,0.2-0.7,0.5-0.8,0.8c-0.2,0.3-0.3,0.7-0.5,1.2c-0.1,0.4-0.2,0.9-0.2,1.3C191.7,46.9,191.8,47.4,191.9,47.8z"/>
			<path fill="#454545" d="M205.5,40.7v2.1h0.1c0.2-0.3,0.3-0.7,0.6-1s0.6-0.6,0.9-0.7c0.3-0.2,0.7-0.4,1.1-0.5s0.7-0.2,1.2-0.2
				c0.2,0,0.4,0,0.7,0.1v3c-0.2,0-0.3-0.1-0.5-0.1c-0.2,0-0.4,0-0.6,0c-0.6,0-1.1,0.1-1.5,0.3c-0.4,0.2-0.7,0.5-1,0.8
				c-0.2,0.3-0.4,0.7-0.5,1.2c-0.1,0.4-0.2,0.9-0.2,1.5v5.2h-3.1V40.8h2.9V40.7z"/>
			<path fill="#454545" d="M211.1,44.2c0.1-0.7,0.2-1.3,0.6-1.8s0.7-0.9,1.2-1.2c0.5-0.3,1.1-0.5,1.7-0.7c0.7-0.2,1.2-0.2,1.9-0.2
				c0.6,0,1.2,0,1.7,0.1c0.6,0.1,1.2,0.2,1.7,0.5s0.9,0.6,1.2,1c0.3,0.4,0.5,1,0.5,1.7v6c0,0.5,0,1,0.1,1.5c0.1,0.5,0.2,0.8,0.3,1.1
				h-3.2c-0.1-0.2-0.1-0.3-0.2-0.6c0-0.2-0.1-0.4-0.1-0.6c-0.5,0.5-1.1,0.9-1.8,1.1c-0.7,0.2-1.4,0.3-2.1,0.3
				c-0.6,0-1.1-0.1-1.6-0.2c-0.5-0.1-0.9-0.3-1.2-0.7c-0.3-0.2-0.7-0.7-0.8-1.1s-0.3-0.9-0.3-1.6s0.1-1.2,0.3-1.7
				c0.2-0.5,0.5-0.7,0.9-1c0.3-0.2,0.7-0.4,1.2-0.6c0.5-0.2,0.9-0.2,1.4-0.3c0.5-0.1,0.9-0.2,1.4-0.2c0.5-0.1,0.9-0.1,1.2-0.2
				c0.3-0.1,0.7-0.2,0.8-0.4c0.2-0.2,0.3-0.4,0.3-0.7c0-0.3-0.1-0.6-0.2-0.8c-0.1-0.2-0.2-0.3-0.4-0.5c-0.2-0.1-0.4-0.2-0.7-0.2
				c-0.2,0-0.5-0.1-0.8-0.1c-0.7,0-1.1,0.2-1.5,0.4c-0.3,0.2-0.6,0.7-0.7,1.3h-3.1V44.2z M218.4,46.5c-0.2,0.1-0.3,0.2-0.5,0.2
				c-0.2,0.1-0.4,0.1-0.7,0.2s-0.5,0.1-0.7,0.1s-0.5,0.1-0.7,0.1c-0.2,0.1-0.5,0.1-0.7,0.2s-0.4,0.2-0.6,0.3
				c-0.2,0.2-0.3,0.2-0.4,0.5c-0.1,0.2-0.2,0.4-0.2,0.7c0,0.2,0.1,0.5,0.2,0.7c0.1,0.2,0.2,0.3,0.4,0.5c0.2,0.1,0.4,0.2,0.7,0.2
				c0.2,0.1,0.5,0.1,0.7,0.1c0.7,0,1.1-0.1,1.5-0.3c0.4-0.2,0.6-0.5,0.7-0.7c0.2-0.2,0.2-0.6,0.3-0.9c0-0.3,0.1-0.5,0.1-0.7
				L218.4,46.5L218.4,46.5z"/>
		</g>
	</g>
</g>
</svg>
