<?xml version="1.0"?>
<svg width="160" height="50" xmlns="http://www.w3.org/2000/svg" xmlns:svg="http://www.w3.org/2000/svg">
 <g>
  <title>Layer 1</title>
  <g display="none" id="Layer_2">
   <rect id="svg_1" height="90" width="260" stroke-miterlimit="10" stroke-width="1.1277" stroke="#E8E7E7" fill="none" y="0" x="-10"/>
  </g>
  <g stroke="null" id="Layer_1">
   <g stroke="null" id="svg_2">
    <g stroke="null" id="svg_3">
     <polygon stroke="null" id="svg_4" points="1,33.51960754394531 4.175490379333496,37.23725509643555 4.175490379333496,12.762746334075928 1,16.480392456054688 " fill="#1A476F"/>
     <polygon stroke="null" id="svg_5" points="4.175490379333496,37.23725509643555 10.216666221618652,40.25783920288086 10.216666221618652,9.742156982421875 4.175490379333496,12.762746334075928 " fill="#205B98"/>
     <polygon stroke="null" id="svg_6" points="28.030393600463867,16.480392456054688 24.932353973388672,12.762746334075928 24.932353973388672,37.23725509643555 28.030393600463867,33.51960754394531 " fill="#2D72B8"/>
     <polygon stroke="null" id="svg_7" points="18.813724517822266,40.25783920288086 24.932353973388672,37.23725509643555 24.932353973388672,12.762746334075928 18.813724517822266,9.742156982421875 " fill="#5294CF"/>
     <rect stroke="null" id="svg_8" height="30.515686" width="8.67451" fill="#2D72B8" y="9.742158" x="10.216666"/>
    </g>
    <g stroke="null" id="svg_9">
     <path stroke="null" id="svg_10" d="m44.140195,18.184314l4.879412,12.392157l-1.316667,0l-1.471569,-3.872549l-5.653921,0l-1.471569,3.872549l-1.239216,0l4.956863,-12.392157l1.316667,0zm1.626471,7.590196l-2.40098,-6.35098l-2.40098,6.35098l4.801961,0z" fill="#454545"/>
     <path stroke="null" id="svg_11" d="m50.87843,21.669608l0,1.471569l0.077451,0c0.309804,-0.542157 0.619608,-0.929412 1.161765,-1.316667c0.464706,-0.309804 1.084314,-0.464706 1.781373,-0.464706c0.542157,0 1.161765,0.154902 1.626471,0.464706c0.464706,0.309804 0.77451,0.697059 0.929412,1.316667c0.232353,-0.542157 0.619608,-1.006863 1.161765,-1.316667c0.542157,-0.232353 1.084314,-0.464706 1.626471,-0.464706c2.013725,0 2.943137,1.006863 2.943137,3.17549l0,6.118627l-1.084314,0l0,-6.041176c0,-0.77451 -0.154902,-1.316667 -0.464706,-1.626471c-0.309804,-0.387255 -0.851961,-0.542157 -1.626471,-0.542157c-0.464706,0 -0.851961,0.077451 -1.161765,0.232353c-0.309804,0.154902 -0.542157,0.464706 -0.77451,0.697059c-0.154902,0.309804 -0.309804,0.619608 -0.387255,1.006863s-0.154902,0.77451 -0.154902,1.239216l0,5.034314l-1.084314,0l0,-6.118627c0,-0.309804 0,-0.542157 -0.077451,-0.851961c-0.077451,-0.232353 -0.154902,-0.542157 -0.309804,-0.697059s-0.309804,-0.387255 -0.542157,-0.464706c-0.232353,-0.154902 -0.542157,-0.154902 -0.929412,-0.154902c-0.464706,0 -0.851961,0.077451 -1.239216,0.232353c-0.309804,0.154902 -0.619608,0.387255 -0.851961,0.697059c-0.154902,0.309804 -0.387255,0.619608 -0.464706,1.006863c-0.154902,0.387255 -0.154902,0.851961 -0.154902,1.316667l0,4.956863l-1.084314,0l0,-8.906863l1.084314,0z" fill="#454545"/>
     <path stroke="null" id="svg_12" d="m64.509803,22.986275c0.154902,-0.387255 0.464706,-0.697059 0.77451,-0.929412c0.309804,-0.232353 0.697059,-0.464706 1.084314,-0.542157c0.464706,-0.154902 0.929412,-0.154902 1.394118,-0.154902c0.387255,0 0.77451,0.077451 1.161765,0.154902s0.77451,0.154902 1.006863,0.464706s0.542157,0.542157 0.77451,0.929412c0.154902,0.387255 0.309804,0.851961 0.309804,1.471569l0,4.72451c0,0.464706 0.154902,0.619608 0.619608,0.619608c0.154902,0 0.232353,0 0.309804,-0.077451l0,0.929412c-0.154902,0 -0.232353,0.077451 -0.309804,0.077451c-0.154902,0 -0.154902,0 -0.387255,0c-0.232353,0 -0.542157,-0.077451 -0.619608,-0.154902c-0.154902,-0.077451 -0.309804,-0.154902 -0.387255,-0.309804s-0.154902,-0.309804 -0.154902,-0.542157c0,-0.154902 -0.077451,-0.387255 -0.077451,-0.619608l-0.077451,0c-0.154902,0.232353 -0.387255,0.542157 -0.542157,0.77451c-0.154902,0.232353 -0.464706,0.387255 -0.697059,0.542157c-0.232353,0.154902 -0.542157,0.232353 -0.851961,0.309804c-0.309804,0.077451 -0.697059,0.154902 -1.161765,0.154902c-0.387255,0 -0.851961,-0.077451 -1.161765,-0.154902c-0.387255,-0.154902 -0.697059,-0.232353 -0.929412,-0.464706c-0.232353,-0.154902 -0.542157,-0.542157 -0.619608,-0.851961c-0.154902,-0.309804 -0.232353,-0.697059 -0.232353,-1.161765c0,-0.619608 0.154902,-1.084314 0.387255,-1.471569c0.232353,-0.309804 0.619608,-0.619608 1.084314,-0.851961c0.464706,-0.154902 0.929412,-0.309804 1.54902,-0.387255c0.542157,-0.077451 1.161765,-0.154902 1.703922,-0.154902c0.232353,0 0.464706,-0.077451 0.542157,-0.077451c0.154902,-0.077451 0.309804,-0.077451 0.464706,-0.154902c0.154902,-0.077451 0.154902,-0.154902 0.232353,-0.387255c0.077451,-0.154902 0.077451,-0.309804 0.077451,-0.542157c0,-0.387255 -0.077451,-0.619608 -0.154902,-0.929412c-0.154902,-0.232353 -0.309804,-0.464706 -0.542157,-0.542157c-0.154902,-0.154902 -0.464706,-0.232353 -0.77451,-0.232353c-0.232353,-0.077451 -0.542157,-0.077451 -0.929412,-0.077451c-0.697059,0 -1.316667,0.154902 -1.626471,0.542157c-0.464706,0.309804 -0.619608,0.851961 -0.697059,1.626471l-1.084314,0c0.232353,-0.697059 0.387255,-1.161765 0.542157,-1.54902zm5.499019,2.710784c-0.077451,0.154902 -0.154902,0.154902 -0.387255,0.232353c-0.154902,0.077451 -0.387255,0.154902 -0.542157,0.154902c-0.464706,0.077451 -0.929412,0.154902 -1.394118,0.154902c-0.542157,0.077451 -0.929412,0.154902 -1.316667,0.232353c-0.387255,0.154902 -0.697059,0.309804 -1.006863,0.542157c-0.232353,0.232353 -0.387255,0.542157 -0.387255,1.006863c0,0.232353 0.077451,0.542157 0.154902,0.697059c0.154902,0.154902 0.232353,0.387255 0.464706,0.542157s0.387255,0.232353 0.619608,0.387255s0.542157,0.154902 0.77451,0.154902c0.387255,0 0.851961,-0.077451 1.239216,-0.154902s0.697059,-0.309804 1.006863,-0.542157c0.232353,-0.232353 0.542157,-0.542157 0.697059,-0.929412c0.154902,-0.309804 0.232353,-0.77451 0.232353,-1.161765l-0.154902,-1.316667l0,0z" fill="#454545"/>
     <path stroke="null" id="svg_13" d="m79.922547,29.647059l0,0.929412l-7.435294,0l0,-0.929412l5.808823,-7.12549l-5.421569,0l0,-0.929412l6.815686,0l0,0.77451l-5.886274,7.280392l6.118627,0z" fill="#454545"/>
     <path stroke="null" id="svg_14" d="m86.815684,21.747059c0.542157,0.232353 0.929412,0.542157 1.316667,1.006863c0.387255,0.464706 0.619608,0.929412 0.851961,1.471569c0.154902,0.542157 0.232353,1.161765 0.232353,1.781373s-0.077451,1.316667 -0.232353,1.781373s-0.464706,1.084314 -0.851961,1.471569c-0.387255,0.464706 -0.77451,0.77451 -1.316667,1.006863c-0.542157,0.232353 -1.161765,0.387255 -1.781373,0.387255c-0.697059,0 -1.316667,-0.154902 -1.781373,-0.387255c-0.542157,-0.232353 -0.929412,-0.542157 -1.316667,-1.006863c-0.387255,-0.464706 -0.619608,-0.929412 -0.851961,-1.471569c-0.154902,-0.542157 -0.232353,-1.161765 -0.232353,-1.781373s0.077451,-1.316667 0.232353,-1.781373c0.154902,-0.542157 0.464706,-1.084314 0.851961,-1.471569c0.387255,-0.464706 0.77451,-0.77451 1.316667,-1.006863c0.542157,-0.232353 1.161765,-0.387255 1.781373,-0.387255c0.697059,0 1.239216,0.154902 1.781373,0.387255zm-3.098039,0.851961c-0.387255,0.154902 -0.697059,0.542157 -0.929412,0.929412c-0.232353,0.387255 -0.464706,0.77451 -0.542157,1.239216c-0.154902,0.464706 -0.154902,0.929412 -0.154902,1.394118c0,0.542157 0.077451,0.929412 0.154902,1.394118c0.154902,0.464706 0.309804,0.851961 0.542157,1.239216c0.232353,0.387255 0.542157,0.619608 0.929412,0.851961c0.387255,0.154902 0.851961,0.309804 1.316667,0.309804s0.929412,-0.154902 1.316667,-0.309804c0.387255,-0.154902 0.697059,-0.542157 0.929412,-0.851961c0.232353,-0.387255 0.464706,-0.77451 0.542157,-1.239216s0.154902,-0.929412 0.154902,-1.394118c0,-0.542157 -0.077451,-0.929412 -0.154902,-1.394118c-0.154902,-0.464706 -0.309804,-0.851961 -0.542157,-1.239216c-0.232353,-0.387255 -0.542157,-0.619608 -0.929412,-0.929412c-0.387255,-0.154902 -0.851961,-0.309804 -1.316667,-0.309804s-1.006863,0.154902 -1.316667,0.309804z" fill="#454545"/>
     <path stroke="null" id="svg_15" d="m91.927449,21.669608l0,1.54902l0.077451,0c0.154902,-0.542157 0.542157,-0.929412 1.084314,-1.316667c0.542157,-0.309804 1.084314,-0.542157 1.703922,-0.542157c0.619608,0 1.161765,0.077451 1.54902,0.232353c0.464706,0.154902 0.77451,0.387255 1.006863,0.697059c0.232353,0.309804 0.464706,0.619608 0.542157,1.084314c0.154902,0.464706 0.154902,0.929412 0.154902,1.394118l0,5.731372l-1.006863,0l0,-5.499019c0,-0.387255 -0.077451,-0.697059 -0.154902,-1.084314c-0.077451,-0.387255 -0.154902,-0.619608 -0.387255,-0.851961c-0.154902,-0.232353 -0.387255,-0.464706 -0.697059,-0.542157c-0.309804,-0.154902 -0.619608,-0.154902 -1.084314,-0.154902c-0.464706,0 -0.851961,0.077451 -1.161765,0.232353c-0.309804,0.154902 -0.619608,0.387255 -0.929412,0.619608c-0.232353,0.232353 -0.464706,0.542157 -0.542157,0.929412c-0.154902,0.387255 -0.154902,0.77451 -0.154902,1.239216l0,5.189216l-1.084314,0l0,-8.906863l1.084314,0z" fill="#454545"/>
     <path stroke="null" id="svg_16" d="m111.290194,18.184314l4.647059,12.392157l-2.788235,0l-0.929412,-2.788235l-4.647059,0l-0.929412,2.788235l-2.788235,0l4.647059,-12.392157l2.788235,0zm0.077451,7.590196l-1.54902,-4.569608l-0.077451,0l-1.626471,4.569608l3.252941,0z" fill="#454545"/>
     <path stroke="null" id="svg_17" d="m122.752939,30.576471l0,-1.239216l-0.077451,0c-0.309804,0.542157 -0.697059,0.929412 -1.239216,1.161765c-0.542157,0.232353 -1.006863,0.309804 -1.54902,0.309804c-0.619608,0 -1.239216,-0.077451 -1.626471,-0.232353c-0.464706,-0.154902 -0.77451,-0.464706 -1.006863,-0.697059c-0.232353,-0.232353 -0.387255,-0.697059 -0.542157,-1.161765c-0.154902,-0.464706 -0.154902,-0.929412 -0.154902,-1.54902l0,-5.499019l2.40098,0l0,5.034314c0,0.77451 0.154902,1.316667 0.309804,1.626471c0.232353,0.387255 0.619608,0.542157 1.239216,0.542157c0.619608,0 1.161765,-0.154902 1.471569,-0.542157c0.309804,-0.387255 0.464706,-1.006863 0.464706,-2.013725l0,-4.647059l2.40098,0l0,8.984314l-2.091176,-0.077451l0,0z" fill="#454545"/>
     <path stroke="null" id="svg_18" d="m129.258821,21.669608l0,1.626471l0.077451,0c0.154902,-0.232353 0.232353,-0.542157 0.464706,-0.77451s0.464706,-0.464706 0.697059,-0.542157c0.232353,-0.154902 0.542157,-0.309804 0.851961,-0.387255s0.542157,-0.154902 0.929412,-0.154902c0.154902,0 0.309804,0 0.542157,0.077451l0,2.323529c-0.154902,0 -0.232353,-0.077451 -0.387255,-0.077451s-0.309804,0 -0.464706,0c-0.464706,0 -0.851961,0.077451 -1.161765,0.232353c-0.309804,0.154902 -0.542157,0.387255 -0.77451,0.619608c-0.154902,0.232353 -0.309804,0.542157 -0.387255,0.929412c-0.077451,0.309804 -0.154902,0.697059 -0.154902,1.161765l0,4.027451l-2.40098,0l0,-8.984314l2.246078,0l0,-0.077451l-0.077451,0z" fill="#454545"/>
     <path stroke="null" id="svg_19" d="m133.441174,24.14804c0.154902,-0.542157 0.542157,-1.084314 0.929412,-1.471569c0.387255,-0.387255 0.929412,-0.697059 1.471569,-0.929412c0.542157,-0.232353 1.239216,-0.309804 1.936274,-0.309804s1.316667,0.154902 1.936274,0.309804c0.542157,0.232353 1.084314,0.542157 1.471569,0.929412c0.387255,0.387255 0.697059,0.929412 0.929412,1.471569c0.154902,0.542157 0.309804,1.239216 0.309804,1.936274c0,0.697059 -0.154902,1.316667 -0.309804,1.936274c-0.154902,0.542157 -0.542157,1.084314 -0.929412,1.471569c-0.387255,0.387255 -0.929412,0.697059 -1.471569,0.929412c-0.542157,0.154902 -1.239216,0.309804 -1.936274,0.309804s-1.316667,-0.154902 -1.936274,-0.309804s-1.006863,-0.542157 -1.471569,-0.929412c-0.387255,-0.387255 -0.697059,-0.929412 -0.929412,-1.471569c-0.232353,-0.542157 -0.309804,-1.239216 -0.309804,-1.936274c0,-0.697059 0,-1.394118 0.309804,-1.936274zm2.246078,3.020588c0.077451,0.309804 0.154902,0.619608 0.387255,0.929412c0.154902,0.232353 0.387255,0.542157 0.619608,0.619608c0.232353,0.154902 0.619608,0.232353 1.006863,0.232353c0.387255,0 0.77451,-0.077451 1.006863,-0.232353c0.232353,-0.154902 0.542157,-0.387255 0.697059,-0.619608c0.154902,-0.232353 0.232353,-0.542157 0.387255,-0.929412c0.077451,-0.309804 0.154902,-0.697059 0.154902,-1.006863c0,-0.309804 -0.077451,-0.697059 -0.154902,-1.006863c-0.077451,-0.309804 -0.154902,-0.619608 -0.387255,-0.929412c-0.154902,-0.232353 -0.387255,-0.542157 -0.697059,-0.619608c-0.232353,-0.154902 -0.619608,-0.232353 -1.006863,-0.232353c-0.387255,0 -0.77451,0.077451 -1.006863,0.232353c-0.232353,0.154902 -0.542157,0.387255 -0.619608,0.619608c-0.154902,0.232353 -0.232353,0.542157 -0.387255,0.929412c-0.077451,0.309804 -0.154902,0.697059 -0.154902,1.006863c0,0.309804 0.077451,0.697059 0.154902,1.006863z" fill="#454545"/>
     <path stroke="null" id="svg_20" d="m146.220585,21.669608l0,1.626471l0.077451,0c0.154902,-0.232353 0.232353,-0.542157 0.464706,-0.77451s0.464706,-0.464706 0.697059,-0.542157c0.232353,-0.154902 0.542157,-0.309804 0.851961,-0.387255s0.542157,-0.154902 0.929412,-0.154902c0.154902,0 0.309804,0 0.542157,0.077451l0,2.323529c-0.154902,0 -0.232353,-0.077451 -0.387255,-0.077451c-0.154902,0 -0.309804,0 -0.464706,0c-0.464706,0 -0.851961,0.077451 -1.161765,0.232353c-0.309804,0.154902 -0.542157,0.387255 -0.77451,0.619608c-0.154902,0.232353 -0.309804,0.542157 -0.387255,0.929412c-0.077451,0.309804 -0.154902,0.697059 -0.154902,1.161765l0,4.027451l-2.40098,0l0,-8.984314l2.246078,0l0,-0.077451l-0.077451,0z" fill="#454545"/>
     <path stroke="null" id="svg_21" d="m150.55784,24.380393c0.077451,-0.542157 0.154902,-1.006863 0.464706,-1.394118s0.542157,-0.697059 0.929412,-0.929412c0.387255,-0.232353 0.851961,-0.387255 1.316667,-0.542157c0.542157,-0.154902 0.929412,-0.154902 1.471569,-0.154902c0.464706,0 0.929412,0 1.316667,0.077451c0.464706,0.077451 0.929412,0.154902 1.316667,0.387255s0.697059,0.464706 0.929412,0.77451c0.232353,0.309804 0.387255,0.77451 0.387255,1.316667l0,4.647059c0,0.387255 0,0.77451 0.077451,1.161765c0.077451,0.387255 0.154902,0.619608 0.232353,0.851961l-2.478431,0c-0.077451,-0.154902 -0.077451,-0.232353 -0.154902,-0.464706c0,-0.154902 -0.077451,-0.309804 -0.077451,-0.464706c-0.387255,0.387255 -0.851961,0.697059 -1.394118,0.851961c-0.542157,0.154902 -1.084314,0.232353 -1.626471,0.232353c-0.464706,0 -0.851961,-0.077451 -1.239216,-0.154902c-0.387255,-0.077451 -0.697059,-0.232353 -0.929412,-0.542157c-0.232353,-0.154902 -0.542157,-0.542157 -0.619608,-0.851961s-0.232353,-0.697059 -0.232353,-1.239216s0.077451,-0.929412 0.232353,-1.316667c0.154902,-0.387255 0.387255,-0.542157 0.697059,-0.77451c0.232353,-0.154902 0.542157,-0.309804 0.929412,-0.464706c0.387255,-0.154902 0.697059,-0.154902 1.084314,-0.232353c0.387255,-0.077451 0.697059,-0.154902 1.084314,-0.154902c0.387255,-0.077451 0.697059,-0.077451 0.929412,-0.154902c0.232353,-0.077451 0.542157,-0.154902 0.619608,-0.309804c0.154902,-0.154902 0.232353,-0.309804 0.232353,-0.542157c0,-0.232353 -0.077451,-0.464706 -0.154902,-0.619608c-0.077451,-0.154902 -0.154902,-0.232353 -0.309804,-0.387255c-0.154902,-0.077451 -0.309804,-0.154902 -0.542157,-0.154902c-0.154902,0 -0.387255,-0.077451 -0.619608,-0.077451c-0.542157,0 -0.851961,0.154902 -1.161765,0.309804c-0.232353,0.154902 -0.464706,0.542157 -0.542157,1.006863l-2.40098,0l0,0.309804l0.232353,0zm5.653921,1.781373c-0.154902,0.077451 -0.232353,0.154902 -0.387255,0.154902c-0.154902,0.077451 -0.309804,0.077451 -0.542157,0.154902s-0.387255,0.077451 -0.542157,0.077451s-0.387255,0.077451 -0.542157,0.077451c-0.154902,0.077451 -0.387255,0.077451 -0.542157,0.154902s-0.309804,0.154902 -0.464706,0.232353c-0.154902,0.154902 -0.232353,0.154902 -0.309804,0.387255c-0.077451,0.154902 -0.154902,0.309804 -0.154902,0.542157c0,0.154902 0.077451,0.387255 0.154902,0.542157c0.077451,0.154902 0.154902,0.232353 0.309804,0.387255c0.154902,0.077451 0.309804,0.154902 0.542157,0.154902c0.154902,0.077451 0.387255,0.077451 0.542157,0.077451c0.542157,0 0.851961,-0.077451 1.161765,-0.232353c0.309804,-0.154902 0.464706,-0.387255 0.542157,-0.542157c0.154902,-0.154902 0.154902,-0.464706 0.232353,-0.697059c0,-0.232353 0.077451,-0.387255 0.077451,-0.542157l-0.077451,-0.929412l0,0z" fill="#454545"/>
    </g>
   </g>
  </g>
 </g>
</svg>