<svg width="160" height="50" xmlns="http://www.w3.org/2000/svg" xmlns:svg="http://www.w3.org/2000/svg">
 <g>
  <title>Layer 1</title>
  <g id="svg_1">
   <polygon id="svg_2" points="35.39999771118164,10.500001907348633 35.39999771118164,39.30000114440918 19.79999542236328,36.00000190734863 19.79999542236328,14.000001907348633 " fill="#8C2F1E"/>
   <polygon id="svg_3" points="35.39999771118164,10.500001907348633 38.39999771118164,12.000001907348633 38.39999771118164,38.200002670288086 35.39999771118164,39.30000114440918 " fill="#DF533F"/>
   <polygon id="svg_4" points="4.099994659423828,10.500001907348633 1.1999969482421875,12.000001907348633 1.1999969482421875,38.200002670288086 4.099994659423828,39.30000114440918 " fill="#8D3322"/>
   <polygon id="svg_5" points="4.099994659423828,10.500001907348633 4.099994659423828,39.30000114440918 19.79999542236328,36.00000190734863 19.79999542236328,14.000001907348633 " fill="#DF513D"/>
   <polygon id="svg_6" points="19.79999542236328,2.8000011444091797 19.79999542236328,14.000001907348633 26.499996185302734,15.600000381469727 26.499996185302734,6.100002288818359 " fill="#DE513D"/>
   <polygon id="svg_7" points="12.999996185302734,15.600000381469727 19.79999542236328,17.000001907348633 26.499996185302734,15.600000381469727 19.79999542236328,14.000001907348633 " fill="#612015"/>
   <polygon id="svg_8" points="19.79999542236328,47.19999885559082 19.79999542236328,36.00000190734863 26.499996185302734,34.40000343322754 26.499996185302734,43.90000343322754 " fill="#DE503C"/>
   <polygon id="svg_9" points="26.499996185302734,34.40000343322754 19.79999542236328,33.00000190734863 12.999996185302734,34.40000343322754 19.79999542236328,36.00000190734863 " fill="#EFABA3"/>
   <polygon id="svg_10" points="26.499996185302734,20.40000343322754 26.499996185302734,29.80000114440918 19.79999542236328,30.600000381469727 19.79999542236328,19.40000343322754 " fill="#DE503C"/>
   <polygon id="svg_11" points="19.79999542236328,2.8000011444091797 19.79999542236328,14.000001907348633 12.999996185302734,15.600000381469727 12.999996185302734,6.100002288818359 " fill="#8C301F"/>
   <polygon id="svg_12" points="19.79999542236328,47.19999885559082 19.79999542236328,36.00000190734863 12.999996185302734,34.40000343322754 12.999996185302734,43.90000343322754 " fill="#8C301F"/>
   <polygon id="svg_13" points="12.999996185302734,20.40000343322754 12.999996185302734,29.80000114440918 19.79999542236328,30.600000381469727 19.79999542236328,19.40000343322754 " fill="#8C301F"/>
   <path id="svg_14" d="m137.599996,28.000002c0.1,0.7 0.3,1.2 0.6,1.6c0.5,0.6 1.4,0.9 2.7,0.9c0.8,0 1.4,-0.1 1.9,-0.2c0.9,-0.3 1.4,-0.9 1.4,-1.8c0,-0.5 -0.2,-0.9 -0.7,-1.2c-0.4,-0.3 -1.2,-0.5 -2.1,-0.7l-1.7,-0.4c-1.6,-0.4 -2.7,-0.8 -3.4,-1.2c-1,-0.7 -1.5,-1.8 -1.5,-3.3c0,-1.4 0.5,-2.5 1.5,-3.4c1,-0.9 2.5,-1.4 4.4,-1.4c1.6,0 3,0.4 4.2,1.3c1.2,0.9 1.8,2.1 1.8,3.7l-3.1,0c-0.1,-0.9 -0.5,-1.6 -1.2,-2c-0.5,-0.3 -1.1,-0.4 -1.9,-0.4c-0.8,0 -1.5,0.2 -2,0.5c-0.5,0.3 -0.8,0.8 -0.8,1.4c0,0.5 0.2,1 0.7,1.2c0.3,0.2 1,0.4 2,0.6l2.7,0.6c1.2,0.3 2.1,0.6 2.6,1.1c0.9,0.7 1.4,1.8 1.4,3.1c0,1.4 -0.5,2.6 -1.6,3.5c-1.1,0.9 -2.6,1.4 -4.6,1.4c-2,0 -3.6,-0.5 -4.8,-1.4c-1.2,-0.9 -1.7,-2.2 -1.7,-3.8l3.2,0l0,0.3z" fill="#454545"/>
   <path id="svg_15" d="m151.299996,27.800002c0,0.6 0.1,1.1 0.3,1.5c0.4,0.7 1,1.1 2,1.1c0.6,0 1.1,-0.2 1.5,-0.6c0.4,-0.4 0.6,-1 0.6,-1.7c0,-1 -0.4,-1.7 -1.2,-2c-0.5,-0.2 -1.2,-0.3 -2.2,-0.3l0,-2.1c1,0 1.6,-0.1 2,-0.3c0.7,-0.3 1,-0.9 1,-1.8c0,-0.6 -0.2,-1 -0.5,-1.4c-0.3,-0.4 -0.8,-0.5 -1.4,-0.5c-0.7,0 -1.2,0.2 -1.5,0.7c-0.3,0.4 -0.5,1 -0.5,1.8l-2.8,0c0,-0.7 0.2,-1.5 0.4,-2.1c0.2,-0.6 0.6,-1.1 1.1,-1.6c0.4,-0.4 0.8,-0.6 1.4,-0.8c0.5,-0.2 1.2,-0.3 2,-0.3c1.4,0 2.6,0.4 3.5,1.1c0.9,0.7 1.3,1.7 1.3,3c0,0.9 -0.3,1.6 -0.8,2.2c-0.3,0.4 -0.7,0.6 -1,0.8c0.3,0 0.7,0.2 1.2,0.7c0.8,0.7 1.1,1.7 1.1,2.9c0,1.3 -0.4,2.4 -1.3,3.4c-0.9,1 -2.2,1.4 -3.9,1.4c-2.1,0 -3.6,-0.7 -4.4,-2.1c-0.4,-0.7 -0.7,-1.7 -0.7,-2.9l2.8,0l0,-0.1z" fill="#454545"/>
   <g id="svg_16">
    <path id="svg_17" d="m49.799996,32.800002l6.2,-15.9l1.7,0l6.1,15.8l-1.5,0l-1.8,-5l-7.2,0l-1.9,5l-1.6,0l0,0.1zm3.9,-6.3l6.2,0l-3.1,-8.3l-3.1,8.3z" fill="#454545"/>
    <path id="svg_18" d="m66.799996,32.800002l-1.3,0l0,-11.4l1.3,0l0,1.7l0,0c0.3,-0.7 0.8,-1.2 1.5,-1.5s1.3,-0.5 2.1,-0.5c0.5,0 1,0.1 1.3,0.2c0.4,0.1 0.7,0.3 0.9,0.5c0.3,0.2 0.5,0.4 0.6,0.7c0.2,0.3 0.3,0.6 0.4,0.9c0.4,-0.7 0.9,-1.3 1.5,-1.7s1.4,-0.5 2.2,-0.5c0.8,0 1.4,0.1 1.9,0.4c0.5,0.3 0.8,0.6 1.1,1c0.2,0.4 0.4,0.9 0.5,1.4c0.1,0.5 0.1,1.1 0.1,1.7l0,7.2l-1.3,0l0,-7.9c0,-0.8 -0.2,-1.5 -0.5,-1.9c-0.3,-0.5 -1,-0.7 -1.9,-0.7c-0.5,0 -0.9,0.1 -1.4,0.3c-0.4,0.2 -0.8,0.5 -1.2,1c-0.1,0.2 -0.3,0.4 -0.4,0.7c-0.1,0.3 -0.2,0.5 -0.2,0.8c-0.1,0.3 -0.1,0.6 -0.1,0.8c0,0.3 0,0.5 0,0.8l0,6.1l-1.3,0l0,-7.9c0,-0.8 -0.2,-1.5 -0.5,-1.9c-0.3,-0.5 -1,-0.7 -1.9,-0.7c-0.5,0 -0.9,0.1 -1.4,0.3c-0.4,0.2 -0.8,0.5 -1.2,1c-0.1,0.2 -0.3,0.4 -0.4,0.7c-0.1,0.3 -0.2,0.5 -0.2,0.8c-0.1,0.3 -0.1,0.6 -0.1,0.8c0,0.3 0,0.5 0,0.8l0,6l-0.1,0z" fill="#454545"/>
    <path id="svg_19" d="m89.199996,26.100002c0.2,0 0.5,-0.1 0.9,-0.1c0.3,-0.1 0.6,-0.1 0.8,-0.2c0.2,-0.1 0.4,-0.3 0.4,-0.5s0.1,-0.5 0.1,-0.7c0,-0.7 -0.2,-1.2 -0.6,-1.7s-1.2,-0.6 -2.2,-0.6c-0.5,0 -0.9,0 -1.3,0.1c-0.4,0.1 -0.7,0.2 -1,0.4c-0.3,0.2 -0.5,0.5 -0.7,0.8c-0.2,0.3 -0.3,0.7 -0.4,1.2l-1.2,0c0,-0.7 0.2,-1.2 0.5,-1.7s0.6,-0.9 1,-1.2s0.9,-0.5 1.5,-0.7c0.6,-0.1 1.1,-0.2 1.7,-0.2c0.6,0 1.1,0.1 1.6,0.2c0.5,0.1 0.9,0.3 1.3,0.6s0.7,0.6 0.9,1.1c0.2,0.5 0.3,1 0.3,1.7l0,6.2c0,0.5 0.1,0.8 0.3,1c0.2,0.1 0.6,0.1 1.1,-0.1l0,1c-0.1,0 -0.3,0.1 -0.5,0.1s-0.4,0.1 -0.6,0.1c-0.2,0 -0.4,0 -0.6,-0.1c-0.2,0 -0.4,-0.1 -0.5,-0.2c-0.1,-0.1 -0.2,-0.2 -0.3,-0.4c-0.1,-0.2 -0.1,-0.3 -0.2,-0.5c0,-0.2 0,-0.4 0,-0.6c-0.6,0.6 -1.2,1.1 -1.9,1.4c-0.7,0.3 -1.5,0.5 -2.3,0.5c-0.5,0 -1,-0.1 -1.4,-0.2c-0.5,-0.1 -0.9,-0.3 -1.2,-0.6c-0.4,-0.3 -0.6,-0.6 -0.8,-1c-0.2,-0.4 -0.3,-0.9 -0.3,-1.4c0,-1.9 1.3,-3.1 4,-3.4l1.6,-0.3zm2.3,0.7c-0.6,0.2 -1.1,0.4 -1.7,0.5c-0.6,0.1 -1.1,0.1 -1.7,0.2c-1,0.1 -1.8,0.3 -2.4,0.7c-0.6,0.4 -0.8,1 -0.8,1.7c0,0.4 0.1,0.7 0.2,0.9s0.3,0.5 0.5,0.6c0.2,0.2 0.5,0.3 0.8,0.4c0.3,0.1 0.6,0.1 0.9,0.1c0.5,0 1,-0.1 1.5,-0.2s0.9,-0.3 1.3,-0.6s0.7,-0.6 0.9,-1c0.2,-0.4 0.4,-0.9 0.4,-1.5l0,-1.8l0.1,0z" fill="#454545"/>
    <path id="svg_20" d="m95.399996,32.800002l0,-1.2l7.6,-9.1l-7.1,0l0,-1.1l8.8,0l0,1.2l-7.6,9.1l7.9,0l0,1.1l-9.6,0z" fill="#454545"/>
    <path id="svg_21" d="m111.799996,33.100002c-0.7,0 -1.4,-0.1 -2.1,-0.4c-0.6,-0.2 -1.2,-0.6 -1.7,-1.1c-0.5,-0.5 -0.9,-1.1 -1.1,-1.9s-0.4,-1.6 -0.4,-2.6c0,-0.8 0.1,-1.6 0.3,-2.3s0.5,-1.4 1,-1.9c0.4,-0.5 1,-1 1.6,-1.3c0.7,-0.3 1.4,-0.5 2.3,-0.5c0.9,0 1.7,0.2 2.3,0.5c0.7,0.3 1.2,0.7 1.6,1.3c0.4,0.5 0.8,1.2 1,1.9c0.2,0.7 0.3,1.5 0.3,2.4c0,0.9 -0.1,1.7 -0.4,2.5c-0.2,0.7 -0.6,1.4 -1.1,1.9c-0.5,0.5 -1,0.9 -1.7,1.2c-0.4,0.1 -1.1,0.3 -1.9,0.3zm3.8,-6c0,-0.7 -0.1,-1.3 -0.2,-1.9s-0.4,-1.1 -0.7,-1.5s-0.7,-0.8 -1.2,-1c-0.5,-0.2 -1.1,-0.4 -1.8,-0.4c-0.7,0 -1.3,0.1 -1.8,0.4c-0.5,0.3 -0.9,0.6 -1.2,1.1c-0.3,0.4 -0.5,1 -0.7,1.5c-0.1,0.6 -0.2,1.2 -0.2,1.8c0,0.7 0.1,1.4 0.3,1.9c0.2,0.6 0.4,1.1 0.7,1.5c0.3,0.4 0.7,0.8 1.2,1c0.5,0.2 1,0.4 1.7,0.4c0.7,0 1.3,-0.1 1.8,-0.4s0.9,-0.6 1.2,-1.1c0.3,-0.5 0.5,-1 0.7,-1.5s0.2,-1.2 0.2,-1.8z" fill="#454545"/>
    <path id="svg_22" d="m120.799996,32.800002l-1.3,0l0,-11.4l1.3,0l0,1.6c0.5,-0.6 1.1,-1 1.6,-1.4c0.6,-0.4 1.2,-0.5 2,-0.5c0.7,0 1.4,0.1 2,0.4s1.1,0.7 1.5,1.3c0.3,0.4 0.4,0.8 0.5,1.3s0.1,0.9 0.1,1.4l0,7.5l-1.3,0l0,-7.4c0,-1 -0.2,-1.8 -0.7,-2.3c-0.5,-0.5 -1.2,-0.8 -2.3,-0.8c-0.4,0 -0.8,0.1 -1.1,0.2c-0.3,0.1 -0.6,0.3 -0.9,0.5c-0.3,0.2 -0.5,0.4 -0.7,0.7s-0.3,0.5 -0.4,0.8c-0.1,0.4 -0.2,0.7 -0.2,1.1c0,0.3 0,0.7 0,1.1l0,5.9l-0.1,0z" fill="#454545"/>
   </g>
  </g>
 </g>
</svg>