<?xml version="1.0" encoding="utf-8"?>
<!-- Generator: Adobe Illustrator 23.1.1, SVG Export Plug-In . SVG Version: 6.00 Build 0)  -->
<svg version="1.1" id="Layer_1" xmlns="http://www.w3.org/2000/svg" xmlns:xlink="http://www.w3.org/1999/xlink" x="0px" y="0px"
	 viewBox="0 0 182 46.5" enable-background="new 0 0 182 46.5" xml:space="preserve">
<g>
	<g>
		<polygon fill="#0073BF" points="41.1,15.2 41.1,10.3 36,4.6 27.5,23.2 36,41.9 41.1,36.2 41.1,31.3 39.4,32.5 39.4,30.1 
			41.1,29.2 41.1,24.3 39.4,24.3 39.4,22.1 41.1,22.2 41.1,17.4 39.4,16.5 39.4,14.8 		"/>
		<polygon fill="#3895D5" points="26.7,46.5 36,41.9 36,4.6 26.7,0 16.3,23.6 		"/>
		<polygon fill="#0073BF" points="13.8,46.5 26.7,46.5 26.7,0 13.8,0 7.2,23.6 		"/>
		<polygon fill="#005B9E" points="13.8,46.5 4.5,41.9 1.6,23.6 4.5,4.6 13.8,0 		"/>
		<polygon fill="#004573" points="39.4,30.1 35.9,31.8 26.7,33.8 20.5,33.8 13.8,33.8 4.8,31.8 4.6,31.8 4.5,31.7 4.5,24.7 
			13.8,25.4 20.5,25.4 26.7,25.4 36,24.7 41.1,24.3 39.4,24.3 39.4,22.2 41.1,22.2 36,21.8 26.7,21.5 20.5,21.5 13.9,21.5 4.5,21.7 
			4.5,14.7 4.6,14.7 13.9,12.5 20.5,12.5 26.7,12.5 36,14.7 39.4,16.5 39.4,15.3 41.1,15.2 36,11.6 26.7,8.6 20.5,8.6 13.9,8.6 
			4.5,11.7 4.5,4.6 0,10.3 0,15.2 1.3,15.3 1.3,16.5 0,17.3 0,22.2 1.3,22.2 1.3,24.3 0,24.3 0,29.2 1.3,30 1.3,31.2 0,31.3 0,36.2 
			4.5,41.9 4.5,34.8 13.8,37.7 20.5,37.7 26.7,37.7 36,34.8 41.1,31.3 39.4,31.2 		"/>
	</g>
	<g>
		<path fill="#454545" d="M65.9,15.4c1.2,0.4,2.2,1.1,2.9,2.2c0.6,0.9,1,1.8,1.2,2.8c0.2,1,0.3,2,0.3,2.9c0,2.3-0.5,4.2-1.4,5.8
			c-1.3,2.1-3.2,3.2-5.8,3.2h-7.4V15h7.4C64.3,15,65.2,15.2,65.9,15.4z M59.3,18v11.3h3.3c1.7,0,2.9-0.8,3.6-2.5
			c0.4-0.9,0.6-2,0.6-3.3c0-1.8-0.3-3.1-0.8-4c-0.6-0.9-1.6-1.4-3.3-1.4H59.3z"/>
		<path fill="#454545" d="M73.3,34.7l0.4,0c0.3,0,0.6,0,0.9,0s0.5-0.1,0.8-0.3c0.2-0.1,0.4-0.4,0.5-0.8s0.2-0.7,0.2-0.8l-4.7-13.3
			h3.7l2.8,9.4l2.6-9.4h3.6l-4.4,12.6c-0.8,2.4-1.5,3.9-2,4.5s-1.5,0.9-3,0.9c-0.3,0-0.5,0-0.7,0s-0.5,0-0.8,0V34.7z"/>
		<path fill="#454545" d="M96.5,20.3c0.8,0.7,1.3,1.8,1.3,3.4v8.6h-3.4v-7.8c0-0.7-0.1-1.2-0.3-1.5c-0.3-0.7-0.9-1-1.9-1
			c-1.1,0-1.9,0.5-2.3,1.4c-0.2,0.5-0.3,1.2-0.3,1.9v6.9h-3.3V19.5h3.2v1.9c0.4-0.7,0.8-1.1,1.2-1.4c0.7-0.5,1.6-0.8,2.6-0.8
			C94.6,19.2,95.6,19.6,96.5,20.3z"/>
		<path fill="#454545" d="M105.9,24.5c0.6-0.1,1.1-0.2,1.3-0.3c0.5-0.2,0.7-0.5,0.7-0.9c0-0.5-0.2-0.9-0.6-1.1s-0.9-0.3-1.6-0.3
			c-0.8,0-1.4,0.2-1.7,0.6c-0.2,0.3-0.4,0.7-0.5,1.2h-3.2c0.1-1.1,0.4-2,0.9-2.8c0.9-1.1,2.4-1.7,4.6-1.7c1.4,0,2.7,0.3,3.7,0.8
			s1.6,1.6,1.6,3.1v5.9c0,0.4,0,0.9,0,1.5c0,0.4,0.1,0.7,0.2,0.9s0.3,0.3,0.5,0.4v0.5h-3.6c-0.1-0.3-0.2-0.5-0.2-0.7
			s-0.1-0.5-0.1-0.8c-0.5,0.5-1,0.9-1.6,1.3c-0.7,0.4-1.5,0.6-2.5,0.6c-1.2,0-2.1-0.3-2.9-1c-0.8-0.7-1.1-1.6-1.1-2.8
			c0-1.6,0.6-2.7,1.8-3.4c0.7-0.4,1.7-0.7,3-0.8L105.9,24.5z M107.9,26.1c-0.2,0.1-0.4,0.2-0.6,0.3s-0.5,0.2-0.9,0.2l-0.8,0.1
			c-0.7,0.1-1.2,0.3-1.5,0.5c-0.5,0.3-0.8,0.8-0.8,1.4c0,0.6,0.2,1,0.5,1.2c0.3,0.3,0.7,0.4,1.2,0.4c0.7,0,1.4-0.2,2-0.6
			s0.9-1.2,1-2.3V26.1z"/>
		<path fill="#454545" d="M130.1,19.6c0.5,0.2,1,0.6,1.5,1.1c0.4,0.4,0.6,1,0.7,1.6c0.1,0.4,0.1,1.1,0.1,1.9l0,8.1H129v-8.1
			c0-0.5-0.1-0.9-0.2-1.2c-0.3-0.6-0.8-0.9-1.6-0.9c-0.9,0-1.6,0.4-1.9,1.1c-0.2,0.4-0.3,0.9-0.3,1.5v7.6h-3.4v-7.6
			c0-0.8-0.1-1.3-0.2-1.7c-0.3-0.6-0.8-0.9-1.7-0.9c-1,0-1.6,0.3-1.9,0.9c-0.2,0.4-0.3,0.9-0.3,1.6v7.7h-3.4V19.5h3.2v1.9
			c0.4-0.7,0.8-1.1,1.2-1.4c0.6-0.5,1.5-0.8,2.5-0.8c1,0,1.8,0.2,2.4,0.6c0.5,0.4,0.9,0.9,1.1,1.5c0.4-0.8,1-1.3,1.6-1.7
			c0.7-0.4,1.5-0.5,2.3-0.5C129,19.2,129.6,19.4,130.1,19.6z"/>
		<path fill="#454545" d="M146.2,30.7c-1.1,1.3-2.7,2-4.9,2s-3.8-0.7-4.9-2c-1.1-1.3-1.6-2.9-1.6-4.8c0-1.8,0.5-3.4,1.6-4.8
			c1.1-1.4,2.7-2,4.9-2s3.8,0.7,4.9,2c1.1,1.4,1.6,2.9,1.6,4.8C147.8,27.8,147.3,29.4,146.2,30.7z M143.5,28.9
			c0.5-0.7,0.8-1.7,0.8-3s-0.3-2.3-0.8-3s-1.3-1-2.2-1s-1.7,0.3-2.3,1s-0.8,1.7-0.8,3s0.3,2.3,0.8,3s1.3,1,2.3,1
			S143,29.6,143.5,28.9z"/>
		<path fill="#454545" d="M160.6,15.4c1.2,0.4,2.2,1.1,2.9,2.2c0.6,0.9,1,1.8,1.2,2.8c0.2,1,0.3,2,0.3,2.9c0,2.3-0.5,4.2-1.4,5.8
			c-1.3,2.1-3.2,3.2-5.8,3.2h-7.4V15h7.4C159,15,159.9,15.2,160.6,15.4z M154,18v11.3h3.3c1.7,0,2.9-0.8,3.6-2.5
			c0.4-0.9,0.6-2,0.6-3.3c0-1.8-0.3-3.1-0.8-4c-0.6-0.9-1.6-1.4-3.3-1.4H154z"/>
		<path fill="#454545" d="M180.7,16.9c0.5,0.7,0.8,1.6,0.8,2.6c0,1.1-0.3,1.9-0.8,2.5c-0.3,0.4-0.7,0.7-1.3,1c0.9,0.3,1.5,0.8,2,1.5
			s0.7,1.5,0.7,2.5c0,1-0.3,1.9-0.8,2.8c-0.3,0.5-0.7,1-1.2,1.4c-0.6,0.4-1.2,0.7-2,0.9c-0.7,0.2-1.6,0.2-2.4,0.2h-7.8V15h8.3
			C178.3,15.1,179.8,15.7,180.7,16.9z M171.3,18v3.8h4.2c0.8,0,1.4-0.1,1.8-0.4c0.5-0.3,0.7-0.8,0.7-1.5c0-0.8-0.3-1.3-0.9-1.6
			c-0.5-0.2-1.2-0.3-2-0.3H171.3z M171.3,24.7v4.6h4.2c0.7,0,1.3-0.1,1.8-0.3c0.8-0.4,1.1-1.1,1.1-2.2c0-0.9-0.4-1.5-1.1-1.9
			c-0.4-0.2-1-0.3-1.7-0.3H171.3z"/>
	</g>
</g>
</svg>
