<svg width="160" height="49.99999999999999" xmlns="http://www.w3.org/2000/svg" xmlns:svg="http://www.w3.org/2000/svg">
 <g>
  <title>Layer 1</title>
  <g stroke="null" id="svg_1" fill="#007FD2">
   <path stroke="null" id="svg_2" d="m15.03455,16.63519c0.22625,0.32942 0.61731,1.06902 1.19608,2.7208c0.39592,1.13014 0.82797,2.53006 1.28497,4.16353c-1.73377,-0.02501 -3.48807,-0.04382 -5.18665,-0.06176l-0.86022,-0.0092c0.97175,-3.56612 2.15727,-6.27206 3.02369,-6.91098c0.05539,-0.03335 0.14128,-0.07276 0.23537,-0.07276c0.1138,0 0.21644,0.0586 0.30677,0.17037z"/>
   <path stroke="null" id="svg_3" d="m28.65806,25.30046c-0.00118,0.00102 -0.00238,0.00196 -0.00364,0.00308c-0.0177,0.0144 -0.03592,0.02803 -0.05464,0.04106c-0.00609,0.00426 -0.01212,0.00852 -0.01821,0.0127c-0.01262,0.00817 -0.02558,0.01592 -0.03863,0.02351c-0.01186,0.00707 -0.02363,0.01413 -0.03583,0.0207c-0.00069,0.00033 -0.00145,0.0006 -0.00212,0.00093c-0.12114,0.06389 -0.25878,0.10045 -0.40508,0.10045l-7.79111,0c0.06234,0.25966 0.13036,0.5546 0.20431,0.87578c0.42701,1.8543 1.56125,6.78029 2.76631,6.78029l0.02355,0.0006l0.01314,-0.00188l0.02304,0.00009c0.94127,-0.00009 1.42174,-1.3687 2.47466,-4.36722l0.01271,-0.03629c0.16916,-0.48151 0.3601,-1.02495 0.56661,-1.59983l0.0526,-0.14662l0.00093,0.00033c0.05372,-0.14338 0.19103,-0.24553 0.35248,-0.24553c0.20821,0 0.37695,0.1697 0.37695,0.37911c0,0.038 -0.00568,0.07463 -0.0161,0.10922l0.00017,0.00008l-0.04379,0.14731c-0.10995,0.35703 -0.22651,0.84305 -0.36154,1.40575c-0.62752,2.61549 -1.57557,6.56689 -4.00788,6.56689l-0.0177,-0.00009c-1.57168,-0.01251 -2.51203,-2.53932 -2.91363,-3.61838c-0.75111,-2.01761 -1.31932,-4.16743 -1.8673,-6.24962l-7.17182,0l-1.48874,4.79224l-0.02185,-0.01729c-0.13613,0.21544 -0.37492,0.35346 -0.63845,0.35346c-0.41567,0 -0.75551,-0.34018 -0.75737,-0.75821l0.00093,-0.026l0.09013,-0.54199c0.20568,-1.23136 0.45209,-2.50968 0.73306,-3.80221l-3.02865,0l-0.01119,-0.01158c-0.54976,-0.07966 -0.97194,-0.56722 -0.97194,-1.13587c0,-0.55759 0.39237,-1.0322 0.93298,-1.12863c0.04972,-0.0064 0.14976,-0.01499 0.35434,-0.01499c0.04379,0 0.09275,0.00033 0.14713,0.00127c0.96009,0.01669 1.97827,0.03203 3.09541,0.04635c1.58099,-6.45989 3.41188,-9.73911 5.44275,-9.7484c2.17945,0 3.79603,4.99074 5.09003,9.8726l0.00516,0.01943c2.65882,0.0535 5.49299,0.13145 8.24778,0.32987l0.11546,0.01081c0.04439,0.00068 0.08758,0.00511 0.13011,0.01218l0.0161,0.00154c0.00483,0.00077 0.00932,0.00222 0.01407,0.00307c0.00236,0.0005 0.00482,0.0011 0.00719,0.00162c0.40101,0.08076 0.69859,0.43474 0.69859,0.85951c0,0.27201 -0.12528,0.51711 -0.32147,0.6788m-11.82712,-16.84261c-9.08402,0 -16.44812,7.40619 -16.44812,16.54214c0,9.13594 7.3641,16.54214 16.44812,16.54214c9.08402,0 16.44821,-7.4062 16.44821,-16.54214c0,-9.13595 -7.36419,-16.54214 -16.44821,-16.54214m29.89866,11.33245l-2.516,6.23696l5.08242,0l-2.56642,-6.23696zm-3.84953,9.51825l-1.33347,3.28128l-3.87474,0l7.37201,-17.13281l3.4218,0l7.34681,17.13281l-3.84953,0l-1.33338,-3.28128l-7.7495,0zm34.09647,-3.15731l0,6.43859l-3.53297,0l0,-6.14479c0,-1.86061 -0.94045,-2.86439 -2.59259,-2.86439c-0.73714,0 -1.55052,0.31832 -2.28765,1.29756c0.05085,0.41611 0.1017,0.8323 0.1017,1.27303l0,6.43859l-3.53305,0l0,-6.14479c0,-1.86061 -0.94046,-2.86439 -2.61807,-2.86439c-0.68629,0 -1.44881,0.39174 -2.16056,1.322l0,7.68717l-3.53305,0l0,-11.72662l3.53305,0l0,0.70997c0.76252,-0.68545 1.57589,-1.07711 2.99933,-1.07711c1.5505,0 2.923,0.5875 3.88893,1.6647c1.29634,-1.15063 2.51635,-1.6647 4.42275,-1.6647c2.97386,0 5.31219,2.22774 5.31219,5.65517m11.61835,0.29377c0,-1.6895 -1.32812,-3.16481 -3.16693,-3.16481c-1.04706,0 -2.0941,0.33316 -2.88587,1.33258l0,3.64071c0.79177,0.97558 1.83881,1.30873 2.88587,1.30873c1.83881,0 3.16693,-1.45155 3.16693,-3.11721m3.49883,0c0,3.30756 -2.70716,5.92511 -6.07829,5.92511c-1.37913,0 -2.52838,-0.33317 -3.47334,-0.90429l0,6.16306l-3.54992,0l0,-16.89478l3.54992,0l0,0.66625c0.94496,-0.57112 2.09421,-0.90429 3.47334,-0.90429c3.37114,0 6.07829,2.59378 6.07829,5.94894"/>
   <polygon stroke="null" id="svg_4" points="94.1094741821289,32.59002637863159 97.13227081298828,32.59002637863159 97.13227081298828,15.45640516281128 94.1094741821289,15.45640516281128 "/>
   <path stroke="null" id="svg_5" d="m101.5262,32.58983l3.35531,0l0,-11.90322l-3.35531,0l0,11.90322zm-0.36215,-16.10286c0,-1.16794 0.89315,-2.03778 2.02776,-2.03778c1.11034,0 2.00349,0.86983 2.00349,2.03778c0,1.14306 -0.89315,1.98799 -2.00349,1.98799c-1.13461,0 -2.02776,-0.84492 -2.02776,-1.98799zm16.125,15.56939c-1.38503,0.43643 -2.00601,0.53346 -3.08068,0.53346c-2.77023,0 -4.58537,-1.98832 -4.58537,-4.99514l0,-4.1464l-2.41208,0l0,-2.83699l2.41208,0l0,-4.14648l3.29573,0l0,4.14648l4.13159,0l0,2.83699l-4.13159,0l0,4.12218c0,1.30941 0.78808,1.91559 2.00609,1.91559c0.62097,0 1.28964,-0.14545 1.93438,-0.31519l0.42985,2.8855zm14.10937,0.16624l-3.45894,0l0,-0.83237c-0.97041,0.75895 -2.06542,1.19959 -3.40908,1.19959c-3.13539,0 -5.22574,-2.22781 -5.22574,-5.63069l0,-6.46307l3.45894,0l0,6.14484c0,1.86051 0.94565,2.86427 2.56309,2.86427c0.87092,0 1.81648,-0.51406 2.61278,-1.46884l0,-7.54027l3.45894,0l0,11.72654zm11.57415,-3.7494l0,-3.64072c-0.79021,-0.97566 -1.83523,-1.30873 -2.88035,-1.30873c-1.86077,0 -3.16068,1.45155 -3.16068,3.11721c0,1.68942 1.29991,3.16481 3.16068,3.16481c1.04512,0 2.09014,-0.33316 2.88035,-1.33257zm3.54303,3.87867l-3.54303,0l0,-0.66625c-0.94312,0.57103 -2.09012,0.9042 -3.46659,0.9042c-3.36458,0 -6.09195,-2.5937 -6.09195,-5.94886c0,-3.30763 2.72737,-5.9251 6.09195,-5.9251c1.37646,0 2.52347,0.33316 3.46659,0.9042l0,-6.16305l3.54303,0l0,16.89486zm4.3931,-6.91377l5.32326,0c-0.19632,-1.42565 -1.07938,-2.2097 -2.45315,-2.2097c-1.64356,0 -2.55121,0.92665 -2.87011,2.2097m8.63488,1.94829l-8.65946,0c0.26981,1.33058 1.17746,2.37603 3.04191,2.37603c0.95665,0 1.61908,-0.28514 1.98695,-0.85539l3.55703,0c-0.63785,2.18589 -2.84569,3.6828 -5.61755,3.6828c-3.77784,0 -6.32905,-2.63735 -6.32905,-6.03501c0,-3.51647 2.52672,-6.05875 6.23089,-6.05875c3.36071,0 5.86285,2.30469 5.86285,5.82114c0,0.4752 -0.02458,0.73651 -0.07358,1.06918"/>
  </g>
 </g>
</svg>