<svg width="160" height="50" xmlns="http://www.w3.org/2000/svg" xmlns:svg="http://www.w3.org/2000/svg">
 <g>
  <title>Layer 1</title>
  <g stroke="null" id="svg_1">
   <g stroke="null" id="g2997">
    <g stroke="null" id="g3003">
     <g stroke="null" id="g3005">
      <path stroke="null" d="m0.4447,16.4526l6.94295,13.13531c0.56294,0.93824 1.50118,1.50118 2.62706,1.595l14.16737,0c0.93824,0 1.40735,-0.75059 0.93824,-1.595l-6.94295,-13.13531c-0.56294,-0.93824 -1.50118,-1.50118 -2.62706,-1.595l-14.2612,0c-0.93824,-0.09382 -1.31353,0.65677 -0.84441,1.595" fill="#86CF00" id="path3013"/>
     </g>
    </g>
   </g>
   <g stroke="null" id="g3353">
    <g stroke="null" id="g3355">
     <g stroke="null" id="g3361">
      <g stroke="null" id="g3363">
       <path stroke="null" d="m27.27826,31.74586l4.12824,7.78736c0.28147,0.56294 0.93824,0.93824 1.50118,0.93824l8.44413,-0.09382c0.56294,0 0.75059,-0.46912 0.46912,-0.93824l-4.12824,-7.78736c-0.28147,-0.56294 -0.93824,-0.93824 -1.50118,-0.93824l-8.44413,0.09382l0,0c-0.56294,0 -0.75059,0.37529 -0.46912,0.93824" fill="#86CF00" id="path3371"/>
      </g>
     </g>
    </g>
   </g>
   <g stroke="null" id="g3261">
    <g stroke="null" id="g3267">
     <g stroke="null" id="g3269">
      <path stroke="null" d="m27.27826,2.09758l-8.44413,10.78972c-0.56294,0.93824 -0.65677,1.9703 -0.18765,2.90853l7.03677,13.13531c0.46912,0.93824 1.31353,1.03206 1.87647,0.28147l8.44413,-10.78972c0.56294,-0.93824 0.65677,-1.9703 0.18765,-2.90853l-7.03677,-13.13531c-0.18765,-0.46912 -0.65677,-0.75059 -1.03206,-0.75059c-0.37529,0 -0.65677,0.18765 -0.84441,0.46912" fill="#0091D0" id="path3279"/>
     </g>
    </g>
   </g>
   <g stroke="null" id="g3413">
    <g stroke="null" id="g3415">
     <g stroke="null" id="g3421">
      <g stroke="null" id="g3423">
       <path stroke="null" d="m25.30797,31.83968l-4.97265,6.47383c-0.37529,0.56294 -0.37529,1.21971 -0.09382,1.78265l4.12824,7.78736c0.28147,0.56294 0.75059,0.65677 1.12588,0.18765l4.97265,-6.47383c0.37529,-0.56294 0.37529,-1.21971 0.09382,-1.78265l-4.22206,-7.78736c-0.09382,-0.28147 -0.37529,-0.46912 -0.65677,-0.46912c-0.09382,0.09382 -0.28147,0.18765 -0.37529,0.28147" fill="#0091D0" id="path3433"/>
      </g>
     </g>
    </g>
   </g>
   <path stroke="null" id="svg_2" d="m117.16132,13.07495l2.81471,0l0,21.11032l-2.81471,0l0,-21.11032z" fill="#0096D6"/>
   <path stroke="null" id="svg_3" d="m66.87184,19.73643c-4.03442,0 -7.31824,3.28383 -7.31824,7.31824l0,13.41678l2.81471,0l0,-13.41678c0,-2.43941 1.9703,-4.50354 4.50354,-4.50354s4.50354,1.9703 4.50354,4.50354s-1.9703,4.50354 -4.50354,4.50354c-1.40735,0 -2.62706,-0.65677 -3.47148,-1.68883l0,3.5653c3.5653,1.87647 7.97501,0.56294 9.85148,-2.90853c1.87647,-3.5653 0.56294,-7.97501 -2.90853,-9.85148c-1.03206,-0.65677 -2.25177,-0.93824 -3.47148,-0.93824zm15.8562,0c-4.03442,0 -7.31824,3.28383 -7.31824,7.31824l0,13.41678l2.81471,0l0,-13.41678c0,-2.43941 1.9703,-4.50354 4.50354,-4.50354s4.50354,1.9703 4.50354,4.50354s-1.9703,4.50354 -4.50354,4.50354c-1.40735,0 -2.62706,-0.65677 -3.47148,-1.68883l0,3.5653c3.5653,1.87647 7.97501,0.56294 9.85148,-2.90853c1.87647,-3.5653 0.56294,-7.97501 -2.90853,-9.85148c-1.03206,-0.65677 -2.25177,-0.93824 -3.47148,-0.93824zm-32.08769,-6.66148c-4.03442,0 -7.31824,3.28383 -7.31824,7.31824l0,13.79208l2.81471,0l0,-13.8859c-0.09382,-2.43941 1.87647,-4.50354 4.31589,-4.59736c2.43941,-0.09382 4.50354,1.87647 4.59736,4.31589c0,0.09382 0,0.18765 0,0.28147l0,1.595l-7.22442,0l0,2.81471l7.22442,0l0,9.47619l2.81471,0l0,-13.8859c0.09382,-3.94059 -3.19,-7.22442 -7.22442,-7.22442l0,0z" fill="#86CF00"/>
   <path stroke="null" id="svg_4" d="m107.77896,20.29937c0,-2.43941 1.9703,-4.50354 4.50354,-4.50354l3.5653,0l0,-2.81471l-3.5653,0c-4.03442,0 -7.31824,3.28383 -7.31824,7.31824l0,13.79208l2.81471,0l0,-9.10089l7.78736,0l0,-2.81471l-7.78736,0l0,-1.87647zm23.92503,-0.46912l0,8.81942c-0.09382,1.78265 -1.595,3.19 -3.37765,3.19c-1.68883,-0.09382 -3.09618,-1.40735 -3.19,-3.19l0,-8.81942l-2.81471,0l0,8.81942c0,2.72089 1.9703,5.1603 4.69118,5.81707l0,6.00471l2.81471,0l0,-6.00471c2.72089,-0.65677 4.59736,-3.09618 4.69118,-5.81707l0,-8.81942l-2.81471,0l0,0zm15.76237,8.35031c-0.65677,2.43941 -3.09618,3.84677 -5.44177,3.19c-2.34559,-0.65677 -3.84677,-3.09618 -3.19,-5.44177c0.65677,-2.43941 3.09618,-3.84677 5.44177,-3.19c0.65677,0.18765 1.31353,0.46912 1.87647,1.03206l-6.28618,3.65912l1.40735,2.43941l2.90853,-1.68883l5.91089,-3.37765c-1.31353,-3.84677 -5.44177,-5.81707 -9.28854,-4.59736c-3.84677,1.31353 -5.81707,5.44177 -4.59736,9.28854c1.31353,3.84677 5.44177,5.81707 9.28854,4.59736c2.62706,-0.84441 4.40971,-3.09618 4.87883,-5.81707c0,-0.09382 -2.90853,-0.09382 -2.90853,-0.09382zm11.63413,-8.44413c-1.595,0 -3.19,0.56294 -4.50354,1.50118l0,-1.50118l-2.72089,0l0,14.35502l2.81471,0l0,-7.1306c0,-2.43941 1.9703,-4.50354 4.50354,-4.50354l0.56294,0l0,-2.81471l-0.65677,0.09382l0,0z" fill="#0096D6"/>
   <path stroke="null" id="svg_5" d="m100.64836,27.52379l-6.94295,-3.28383c-0.28147,-0.18765 -0.46912,-0.56294 -0.28147,-0.93824c0.09382,-0.28147 0.37529,-0.37529 0.65677,-0.37529l7.97501,0l0,-2.81471l-7.97501,0c-1.9703,0 -3.47148,1.595 -3.47148,3.47148c0,1.40735 0.75059,2.62706 1.9703,3.19l6.94295,3.28383c0.37529,0.18765 0.46912,0.56294 0.28147,0.93824c-0.09382,0.28147 -0.37529,0.37529 -0.65677,0.37529l-8.16266,0l0,2.81471l8.16266,0c1.9703,0 3.47148,-1.50118 3.47148,-3.47148c0,-1.40735 -0.75059,-2.62706 -1.9703,-3.19l0,0z" fill="#86CF00"/>
  </g>
 </g>
</svg>