<svg width="160.00000000000003" height="50" xmlns="http://www.w3.org/2000/svg" xmlns:svg="http://www.w3.org/2000/svg">
 <g>
  <title>Layer 1</title>
  <g stroke="null" id="svg_1">
   <g stroke="null" id="g2997">
    <g stroke="null" id="g3003">
     <g stroke="null" id="g3005">
      <path stroke="null" d="m1.37946,16.55303l6.86137,12.98097c0.55633,0.92721 1.48354,1.48354 2.59619,1.57626l14.00091,0c0.92721,0 1.39082,-0.74177 0.92721,-1.57626l-6.86137,-12.98097c-0.55633,-0.92721 -1.48354,-1.48354 -2.59619,-1.57626l-14.09363,0c-0.92721,-0.09272 -1.2981,0.64905 -0.83449,1.57626" fill="#86CF00" id="path3013"/>
     </g>
    </g>
   </g>
   <g stroke="null" id="g3353">
    <g stroke="null" id="g3355">
     <g stroke="null" id="g3361">
      <g stroke="null" id="g3363">
       <path stroke="null" d="m27.89773,31.66659l4.07973,7.69586c0.27816,0.55633 0.92721,0.92721 1.48354,0.92721l8.34491,-0.09272c0.55633,0 0.74177,-0.46361 0.46361,-0.92721l-4.07973,-7.69586c-0.27816,-0.55633 -0.92721,-0.92721 -1.48354,-0.92721l-8.34491,0.09272l0,0c-0.55633,0 -0.74177,0.37088 -0.46361,0.92721" fill="#86CF00" id="path3371"/>
      </g>
     </g>
    </g>
   </g>
   <g stroke="null" id="g3261">
    <g stroke="null" id="g3267">
     <g stroke="null" id="g3269">
      <path stroke="null" d="m27.89773,2.36668l-8.34491,10.66294c-0.55633,0.92721 -0.64905,1.94715 -0.18544,2.87436l6.95409,12.98097c0.46361,0.92721 1.2981,1.01993 1.85442,0.27816l8.34491,-10.66294c0.55633,-0.92721 0.64905,-1.94715 0.18544,-2.87436l-6.95409,-12.98097c-0.18544,-0.46361 -0.64905,-0.74177 -1.01993,-0.74177c-0.37088,0 -0.64905,0.18544 -0.83449,0.46361" fill="#0091D0" id="path3279"/>
     </g>
    </g>
   </g>
   <g stroke="null" id="g3413">
    <g stroke="null" id="g3415">
     <g stroke="null" id="g3421">
      <g stroke="null" id="g3423">
       <path stroke="null" d="m25.95059,31.75931l-4.91423,6.39777c-0.37088,0.55633 -0.37088,1.20538 -0.09272,1.7617l4.07973,7.69586c0.27816,0.55633 0.74177,0.64905 1.11265,0.18544l4.91423,-6.39777c0.37088,-0.55633 0.37088,-1.20538 0.09272,-1.7617l-4.17246,-7.69586c-0.09272,-0.27816 -0.37088,-0.46361 -0.64905,-0.46361c-0.09272,0.09272 -0.27816,0.18544 -0.37088,0.27816" fill="#0091D0" id="path3433"/>
      </g>
     </g>
    </g>
   </g>
   <path stroke="null" id="svg_2" d="m116.72468,13.21507l2.78164,0l0,20.86228l-2.78164,0l0,-20.86228z" fill="#0096D6"/>
   <path stroke="null" id="svg_3" d="m67.0261,19.79827c-3.98701,0 -7.23226,3.24524 -7.23226,7.23226l0,13.25914l2.78164,0l0,-13.25914c0,-2.41075 1.94715,-4.45062 4.45062,-4.45062s4.45062,1.94715 4.45062,4.45062s-1.94715,4.45062 -4.45062,4.45062c-1.39082,0 -2.59619,-0.64905 -3.43069,-1.66898l0,3.52341c3.52341,1.85442 7.88131,0.55633 9.73573,-2.87436c1.85442,-3.52341 0.55633,-7.88131 -2.87436,-9.73573c-1.01993,-0.64905 -2.22531,-0.92721 -3.43069,-0.92721zm15.66989,0c-3.98701,0 -7.23226,3.24524 -7.23226,7.23226l0,13.25914l2.78164,0l0,-13.25914c0,-2.41075 1.94715,-4.45062 4.45062,-4.45062s4.45062,1.94715 4.45062,4.45062s-1.94715,4.45062 -4.45062,4.45062c-1.39082,0 -2.59619,-0.64905 -3.43069,-1.66898l0,3.52341c3.52341,1.85442 7.88131,0.55633 9.73573,-2.87436c1.85442,-3.52341 0.55633,-7.88131 -2.87436,-9.73573c-1.01993,-0.64905 -2.22531,-0.92721 -3.43069,-0.92721zm-31.71066,-6.58321c-3.98701,0 -7.23226,3.24524 -7.23226,7.23226l0,13.63002l2.78164,0l0,-13.72274c-0.09272,-2.41075 1.85442,-4.45062 4.26518,-4.54334c2.41075,-0.09272 4.45062,1.85442 4.54334,4.26518c0,0.09272 0,0.18544 0,0.27816l0,1.57626l-7.13954,0l0,2.78164l7.13954,0l0,9.36485l2.78164,0l0,-13.72274c0.09272,-3.89429 -3.15252,-7.13954 -7.13954,-7.13954l0,0z" fill="#86CF00"/>
   <path stroke="null" id="svg_4" d="m107.45256,20.3546c0,-2.41075 1.94715,-4.45062 4.45062,-4.45062l3.52341,0l0,-2.78164l-3.52341,0c-3.98701,0 -7.23226,3.24524 -7.23226,7.23226l0,13.63002l2.78164,0l0,-8.99396l7.69586,0l0,-2.78164l-7.69586,0l0,-1.85442zm23.64392,-0.46361l0,8.7158c-0.09272,1.7617 -1.57626,3.15252 -3.33796,3.15252c-1.66898,-0.09272 -3.0598,-1.39082 -3.15252,-3.15252l0,-8.7158l-2.78164,0l0,8.7158c0,2.68892 1.94715,5.09967 4.63606,5.74872l0,5.93416l2.78164,0l0,-5.93416c2.68892,-0.64905 4.54334,-3.0598 4.63606,-5.74872l0,-8.7158l-2.78164,0l0,0zm15.57717,8.25219c-0.64905,2.41075 -3.0598,3.80157 -5.37783,3.15252c-2.31803,-0.64905 -3.80157,-3.0598 -3.15252,-5.37783c0.64905,-2.41075 3.0598,-3.80157 5.37783,-3.15252c0.64905,0.18544 1.2981,0.46361 1.85442,1.01993l-6.21232,3.61613l1.39082,2.41075l2.87436,-1.66898l5.84144,-3.33796c-1.2981,-3.80157 -5.37783,-5.74872 -9.1794,-4.54334c-3.80157,1.2981 -5.74872,5.37783 -4.54334,9.1794c1.2981,3.80157 5.37783,5.74872 9.1794,4.54334c2.59619,-0.83449 4.3579,-3.0598 4.8215,-5.74872c0,-0.09272 -2.87436,-0.09272 -2.87436,-0.09272zm11.49743,-8.34491c-1.57626,0 -3.15252,0.55633 -4.45062,1.48354l0,-1.48354l-2.68892,0l0,14.18635l2.78164,0l0,-7.04681c0,-2.41075 1.94715,-4.45062 4.45062,-4.45062l0.55633,0l0,-2.78164l-0.64905,0.09272l0,0z" fill="#0096D6"/>
   <path stroke="null" id="svg_5" d="m100.40575,27.49414l-6.86137,-3.24524c-0.27816,-0.18544 -0.46361,-0.55633 -0.27816,-0.92721c0.09272,-0.27816 0.37088,-0.37088 0.64905,-0.37088l7.88131,0l0,-2.78164l-7.88131,0c-1.94715,0 -3.43069,1.57626 -3.43069,3.43069c0,1.39082 0.74177,2.59619 1.94715,3.15252l6.86137,3.24524c0.37088,0.18544 0.46361,0.55633 0.27816,0.92721c-0.09272,0.27816 -0.37088,0.37088 -0.64905,0.37088l-8.06675,0l0,2.78164l8.06675,0c1.94715,0 3.43069,-1.48354 3.43069,-3.43069c0,-1.39082 -0.74177,-2.59619 -1.94715,-3.15252l0,0z" fill="#86CF00"/>
  </g>
 </g>
</svg>