<?xml version="1.0" encoding="utf-8"?>
<!-- Generator: Adobe Illustrator 23.0.4, SVG Export Plug-In . SVG Version: 6.00 Build 0)  -->
<svg version="1.1" id="Layer_1" xmlns="http://www.w3.org/2000/svg" xmlns:xlink="http://www.w3.org/1999/xlink" x="0px" y="0px"
	 viewBox="0 0 240 90" enable-background="new 0 0 240 90" xml:space="preserve">
<g>
	<g>
		<path fill="#2E3C54" d="M100.3,53.4c0.1,1.1,1,2.5,2.5,2.5h0.9c0.3,0,0.6-0.3,0.6-0.6V35.6h0c0-0.3-0.3-0.6-0.6-0.6H101
			c-0.3,0-0.6,0.3-0.6,0.6h0v1.6c-1.7-2.1-4.4-3-7.1-3c-6.1,0-11,4.9-11,11c0,6.1,4.9,11.1,11,11.1v0C96,56.4,98.9,55.3,100.3,53.4
			L100.3,53.4z M93.3,52.5c-3.9,0-7-3.2-7-7.2c0-4,3.1-7.2,7-7.2s7,3.2,7,7.2C100.3,49.3,97.2,52.5,93.3,52.5z"/>
		<path fill="#2E3C54" d="M145.5,53.4c0.1,1.1,1,2.5,2.5,2.5h0.9c0.3,0,0.6-0.3,0.6-0.6V35.6h0c0-0.3-0.3-0.6-0.6-0.6h-2.8
			c-0.3,0-0.6,0.3-0.6,0.6h0v1.6c-1.7-2.1-4.4-3-7.1-3c-6.1,0-11,4.9-11,11c0,6.1,4.9,11.1,11,11.1v0
			C141.1,56.4,144,55.3,145.5,53.4L145.5,53.4z M138.4,52.5c-3.9,0-7-3.2-7-7.2c0-4,3.1-7.2,7-7.2c3.9,0,7,3.2,7,7.2
			C145.5,49.3,142.3,52.5,138.4,52.5z"/>
		<path fill="#2E3C54" d="M196,53.4c0.1,1.1,1,2.5,2.5,2.5h0.9c0.3,0,0.6-0.3,0.6-0.6V35.6h0c0-0.3-0.3-0.6-0.6-0.6h-2.8
			c-0.3,0-0.6,0.3-0.6,0.6h0v1.6c-1.7-2.1-4.4-3-7.1-3c-6.1,0-11.1,4.9-11.1,11c0,6.1,4.9,11.1,11.1,11.1v0
			C191.6,56.4,194.5,55.3,196,53.4L196,53.4z M188.9,52.5c-3.9,0-7-3.2-7-7.2c0-4,3.1-7.2,7-7.2c3.9,0,7,3.2,7,7.2
			C195.9,49.3,192.8,52.5,188.9,52.5z"/>
		<path fill="#2E3C54" d="M174.4,54.1l0-10.2h0c0-5.7-3.6-9.6-9.4-9.6c-2.8,0-5.3,1.6-5.8,3c-0.2-1.1-0.7-2.2-2.5-2.2h-0.9
			c-0.3,0-0.6,0.3-0.6,0.6v17.7c0,0,0,0,0,0v1.9v0h0c0,0.3,0.3,0.6,0.6,0.6h1.9h0.9c0,0,0.1,0,0.1,0c0,0,0,0,0.1,0c0,0,0,0,0.1,0
			c0,0,0,0,0.1,0c0,0,0,0,0,0c0,0,0.1,0,0.1-0.1c0,0,0,0,0,0c0,0,0.1-0.1,0.1-0.1c0,0,0,0,0,0c0.1-0.1,0.1-0.2,0.1-0.3h0v0v-1.2
			v-0.3v-10c0-3.1,2.5-5.6,5.6-5.6c3.1,0,5.6,2.5,5.6,5.6l0,9.7l0,0c0,0,0,0,0,0v1.8v0h0c0,0.3,0.3,0.6,0.6,0.6h1.9h0.9l0,0
			c0,0,0.1,0,0.1,0c0,0,0,0,0,0c0,0,0,0,0.1,0c0,0,0,0,0.1,0c0,0,0,0,0,0c0,0,0,0,0.1-0.1c0,0,0,0,0,0c0,0,0-0.1,0.1-0.1
			c0,0,0,0,0,0c0.1-0.1,0.1-0.2,0.1-0.3c0,0,0,0,0,0h0v0L174.4,54.1L174.4,54.1z"/>
		<path fill="#2E3C54" d="M111,50.6c1.9,1.3,3.9,1.9,5.8,1.9c1.8,0,3.8-1,3.8-2.6c0-2.2-4.2-2.6-6.8-3.5c-2.6-0.9-4.9-2.7-4.9-5.7
			c0-4.6,4.1-6.4,7.8-6.4c2.4,0,4.9,0.8,6.5,1.9c0.6,0.4,0.2,0.9,0.2,0.9l-1.5,2.2c-0.2,0.2-0.5,0.5-0.9,0.2
			c-0.4-0.3-1.9-1.3-4.3-1.3c-2.3,0-3.7,1.1-3.7,2.4c0,1.6,1.8,2.1,3.9,2.6c3.7,1,7.7,2.2,7.7,6.7c0,4-3.8,6.5-7.9,6.5
			c-3.1,0-5.8-0.9-8.1-2.5c-0.5-0.5-0.1-0.9-0.1-0.9l1.5-2.2C110.4,50.4,110.8,50.5,111,50.6z"/>
	</g>
	<g>
		<defs>
			<path id="SVGID_1_" d="M64.9,36.5c0,4.2-3.4,7.5-7.5,7.5c-4.2,0-7.5-3.4-7.5-7.5c0-4.2,3.4-7.5,7.5-7.5
				C61.5,29,64.9,32.4,64.9,36.5z M47.5,45.9c-4.2,0-7.5,3.4-7.5,7.5c0,4.2,3.4,7.5,7.5,7.5c4.2,0,7.5-3.4,7.5-7.5
				C55.1,49.3,51.7,45.9,47.5,45.9z M67.1,45.9c-4.2,0-7.5,3.4-7.5,7.5c0,4.2,3.4,7.5,7.5,7.5c4.2,0,7.5-3.4,7.5-7.5
				C74.7,49.3,71.3,45.9,67.1,45.9z"/>
		</defs>
		<clipPath id="SVGID_2_">
			<use xlink:href="#SVGID_1_"  overflow="visible"/>
		</clipPath>
		
			<radialGradient id="SVGID_3_" cx="-16932.6309" cy="4114.0161" r="23.7342" gradientTransform="matrix(0 -0.8 0.8 0 -3233.8733 -13498.4805)" gradientUnits="userSpaceOnUse">
			<stop  offset="0" style="stop-color:#FFB900"/>
			<stop  offset="0.6" style="stop-color:#F95D8F"/>
			<stop  offset="0.9991" style="stop-color:#F95353"/>
		</radialGradient>
		<path clip-path="url(#SVGID_2_)" fill="url(#SVGID_3_)" d="M57.3,28.6c10.5,0,19,8.5,19,19c0,10.5-8.5,19-19,19
			c-10.5,0-19-8.5-19-19C38.4,37.1,46.9,28.6,57.3,28.6z"/>
	</g>
</g>
</svg>
