<svg width="160" height="50" xmlns="http://www.w3.org/2000/svg" xmlns:svg="http://www.w3.org/2000/svg">
 <g>
  <title>Layer 1</title>
  <g stroke="null" id="svg_1">
   <g stroke="null" id="Layer_1_2_">
    <g stroke="null" id="svg_2">
     <g stroke="null" id="svg_3">
      <polygon stroke="null" id="svg_4" points="0.3299103081226349,34.153099060058594 3.6860432624816895,38.11944007873535 3.6860432624816895,11.880558967590332 0.3299103081226349,15.846900939941406 " fill="#1A476F"/>
      <polygon stroke="null" id="svg_5" points="3.6860432624816895,38.11944007873535 10.169488906860352,41.32302665710449 10.169488906860352,8.67697525024414 3.6860432624816895,11.880558967590332 " fill="#205B98"/>
      <polygon stroke="null" id="svg_6" points="29.314720153808594,15.846900939941406 25.95858383178711,11.880558967590332 25.95858383178711,38.11944007873535 29.314720153808594,34.153099060058594 " fill="#2D72B8"/>
      <polygon stroke="null" id="svg_7" points="19.475139617919922,41.32302665710449 25.95858383178711,38.11944007873535 25.95858383178711,11.880558967590332 19.475139617919922,8.67697525024414 " fill="#5294CF"/>
      <rect stroke="null" id="svg_8" height="32.64605" width="9.30565" fill="#2D72B8" y="8.67697" x="10.16949"/>
     </g>
    </g>
   </g>
   <g stroke="null" id="svg_9">
    <path stroke="null" id="svg_10" d="m41.90023,8.37187l-5.0342,12.50923l1.22041,0l1.52552,-3.89007l5.72069,0l1.52552,3.89007l1.29669,0l-4.88165,-12.50923l-1.37296,0zm-1.9069,7.62758l2.5171,-6.40717l2.44083,6.40717l-4.95793,0z" fill="#454545"/>
    <path stroke="null" id="svg_11" d="m57.07912,12.79587c0.3051,-0.15255 0.68648,-0.3051 1.22041,-0.3051c0.76276,0 1.37296,0.22883 1.67807,0.61021c0.3051,0.38138 0.45765,0.99159 0.45765,1.67807l0,6.10207l1.06786,0l0,-6.10207c0,-2.13572 -0.99159,-3.20358 -2.97476,-3.20358c-0.61021,0 -1.14414,0.15255 -1.67807,0.45765c-0.53393,0.3051 -0.91531,0.76276 -1.22041,1.29669c-0.15255,-0.61021 -0.45765,-1.06786 -0.99159,-1.29669c-0.45765,-0.3051 -0.99159,-0.45765 -1.60179,-0.45765c-0.76276,0 -1.37296,0.15255 -1.83062,0.45765s-0.83903,0.76276 -1.14414,1.29669l-0.07628,0l0,-1.52552l-0.99159,0l0,9.07682l1.06786,0l0,-5.0342c0,-0.45765 0.07628,-0.91531 0.15255,-1.29669c0.07628,-0.38138 0.22883,-0.76276 0.45765,-1.06786s0.53393,-0.53393 0.83903,-0.68648c0.38138,-0.15255 0.76276,-0.22883 1.22041,-0.22883c0.38138,0 0.61021,0.07628 0.91531,0.15255s0.45765,0.3051 0.61021,0.45765c0.15255,0.22883 0.22883,0.45765 0.3051,0.68648s0.07628,0.53393 0.07628,0.83903l0,6.10207l1.06786,0l0,-5.11048c0,-0.45765 0.07628,-0.83903 0.15255,-1.22041s0.22883,-0.76276 0.38138,-1.06786c0.3051,-0.22883 0.53393,-0.45765 0.83903,-0.61021z" fill="#454545"/>
    <path stroke="null" id="svg_12" d="m67.37635,21.03366c0.3051,-0.07628 0.61021,-0.22883 0.83903,-0.38138c0.22883,-0.15255 0.45765,-0.3051 0.68648,-0.53393s0.38138,-0.45765 0.61021,-0.76276l0,0c0,0.22883 0,0.45765 0.07628,0.61021s0.07628,0.38138 0.15255,0.53393c0.07628,0.15255 0.22883,0.22883 0.38138,0.3051s0.38138,0.07628 0.68648,0.07628c0.15255,0 0.3051,0 0.38138,0c0.07628,0 0.22883,0 0.3051,-0.07628l0,-0.91531c-0.07628,0.07628 -0.22883,0.07628 -0.38138,0.07628c-0.45765,0 -0.68648,-0.22883 -0.68648,-0.68648l0,-4.80538c0,-0.61021 -0.07628,-1.06786 -0.3051,-1.44924c-0.22883,-0.38138 -0.45765,-0.68648 -0.76276,-0.91531s-0.68648,-0.38138 -1.06786,-0.45765c-0.38138,-0.07628 -0.76276,-0.07628 -1.22041,-0.07628c-0.53393,0 -0.99159,0.07628 -1.44924,0.15255c-0.45765,0.15255 -0.83903,0.3051 -1.14414,0.53393c-0.3051,0.22883 -0.61021,0.53393 -0.76276,0.91531c-0.15255,0.38138 -0.3051,0.83903 -0.3051,1.37296l1.06786,0c0,-0.76276 0.22883,-1.29669 0.68648,-1.60179c0.45765,-0.3051 0.99159,-0.53393 1.75434,-0.53393c0.3051,0 0.61021,0 0.91531,0.07628c0.3051,0.07628 0.53393,0.15255 0.76276,0.3051c0.22883,0.15255 0.38138,0.3051 0.53393,0.53393s0.15255,0.53393 0.15255,0.91531c0,0.22883 0,0.45765 -0.07628,0.61021c-0.07628,0.15255 -0.15255,0.3051 -0.3051,0.38138c-0.15255,0.07628 -0.22883,0.15255 -0.45765,0.15255c-0.15255,0 -0.38138,0.07628 -0.61021,0.07628c-0.61021,0.07628 -1.22041,0.15255 -1.75434,0.22883c-0.61021,0.07628 -1.06786,0.22883 -1.52552,0.38138c-0.45765,0.15255 -0.83903,0.45765 -1.14414,0.83903s-0.45765,0.83903 -0.45765,1.44924c0,0.45765 0.07628,0.83903 0.22883,1.22041c0.15255,0.3051 0.38138,0.61021 0.68648,0.83903s0.61021,0.38138 0.99159,0.45765c0.38138,0.07628 0.76276,0.15255 1.22041,0.15255c0.53393,0.07628 0.91531,0.07628 1.29669,0zm-2.5171,-1.29669c-0.15255,-0.15255 -0.3051,-0.38138 -0.45765,-0.53393s-0.15255,-0.45765 -0.15255,-0.76276c0,-0.45765 0.15255,-0.76276 0.38138,-0.99159c0.22883,-0.22883 0.61021,-0.45765 0.99159,-0.53393c0.38138,-0.15255 0.83903,-0.22883 1.37296,-0.3051c0.53393,-0.07628 0.99159,-0.15255 1.44924,-0.22883c0.15255,0 0.3051,-0.07628 0.53393,-0.15255c0.22883,-0.07628 0.3051,-0.15255 0.38138,-0.3051l0,0l0,1.44924c0,0.45765 -0.07628,0.83903 -0.22883,1.22041c-0.15255,0.38138 -0.38138,0.68648 -0.68648,0.91531s-0.61021,0.45765 -0.99159,0.53393c-0.38138,0.15255 -0.76276,0.22883 -1.22041,0.22883c-0.22883,0 -0.53393,-0.07628 -0.76276,-0.15255s-0.38138,-0.22883 -0.61021,-0.38138z" fill="#454545"/>
    <polygon stroke="null" id="svg_13" points="79.50421142578125,19.965797424316406 73.32586669921875,19.965797424316406 79.27537536621094,12.643317222595215 79.27537536621094,11.80428409576416 72.41055297851562,11.80428409576416 72.41055297851562,12.795868873596191 77.90242004394531,12.795868873596191 71.9529037475586,19.965797424316406 71.9529037475586,20.881103515625 79.50421142578125,20.881103515625 " fill="#454545"/>
    <path stroke="null" id="svg_14" d="m87.89455,13.0247c-0.38138,-0.45765 -0.83903,-0.76276 -1.37296,-1.06786c-0.53393,-0.22883 -1.14414,-0.38138 -1.83062,-0.38138c-0.68648,0 -1.29669,0.15255 -1.83062,0.38138c-0.53393,0.22883 -0.99159,0.61021 -1.37296,1.06786c-0.38138,0.45765 -0.61021,0.91531 -0.83903,1.52552c-0.15255,0.61021 -0.3051,1.22041 -0.3051,1.83062c0,0.68648 0.07628,1.29669 0.3051,1.83062c0.15255,0.61021 0.45765,1.06786 0.83903,1.52552c0.38138,0.45765 0.83903,0.76276 1.37296,0.99159c0.53393,0.22883 1.14414,0.38138 1.83062,0.38138c0.68648,0 1.29669,-0.15255 1.83062,-0.38138c0.53393,-0.22883 0.99159,-0.61021 1.37296,-0.99159c0.38138,-0.45765 0.61021,-0.91531 0.83903,-1.52552c0.15255,-0.61021 0.3051,-1.22041 0.3051,-1.83062c0,-0.68648 -0.07628,-1.29669 -0.3051,-1.83062s-0.45765,-1.14414 -0.83903,-1.52552zm-0.22883,4.7291c-0.15255,0.45765 -0.3051,0.83903 -0.61021,1.22041c-0.22883,0.38138 -0.61021,0.68648 -0.99159,0.91531s-0.83903,0.3051 -1.37296,0.3051c-0.53393,0 -0.99159,-0.07628 -1.37296,-0.3051c-0.38138,-0.22883 -0.76276,-0.53393 -0.99159,-0.91531c-0.22883,-0.38138 -0.45765,-0.76276 -0.61021,-1.22041c-0.15255,-0.45765 -0.22883,-0.91531 -0.22883,-1.44924s0.07628,-0.91531 0.22883,-1.44924c0.15255,-0.45765 0.3051,-0.83903 0.61021,-1.22041s0.61021,-0.68648 0.99159,-0.83903c0.38138,-0.22883 0.83903,-0.3051 1.37296,-0.3051c0.53393,0 0.99159,0.07628 1.37296,0.3051s0.76276,0.53393 0.99159,0.83903c0.22883,0.38138 0.45765,0.76276 0.61021,1.22041c0.15255,0.45765 0.22883,0.91531 0.22883,1.44924s-0.07628,0.99159 -0.22883,1.44924z" fill="#454545"/>
    <path stroke="null" id="svg_15" d="m97.27647,12.49077c-0.22883,-0.3051 -0.61021,-0.53393 -0.99159,-0.68648s-0.99159,-0.22883 -1.60179,-0.22883c-0.61021,0 -1.22041,0.15255 -1.75434,0.53393c-0.53393,0.3051 -0.91531,0.76276 -1.14414,1.29669l0,0l0,-1.52552l-1.06786,0l0,9.07682l1.06786,0l0,-5.26303c0,-0.45765 0.07628,-0.83903 0.22883,-1.22041c0.15255,-0.38138 0.3051,-0.68648 0.53393,-0.99159c0.22883,-0.3051 0.53393,-0.45765 0.91531,-0.68648s0.76276,-0.22883 1.22041,-0.22883c0.45765,0 0.83903,0.07628 1.14414,0.22883c0.3051,0.15255 0.53393,0.3051 0.68648,0.61021c0.15255,0.22883 0.3051,0.53393 0.38138,0.83903s0.07628,0.68648 0.07628,1.06786l0,5.64441l1.06786,0l0,-5.87324c0,-0.53393 -0.07628,-0.99159 -0.15255,-1.44924s-0.38138,-0.83903 -0.61021,-1.14414z" fill="#454545"/>
    <path stroke="null" id="svg_16" d="m108.48902,8.37187l-4.7291,12.50923l2.74593,0l0.99159,-2.82221l4.65282,0l0.91531,2.82221l2.82221,0l-4.57655,-12.50923l-2.82221,0zm-0.22883,7.70386l1.60179,-4.57655l0,0l1.60179,4.57655l-3.20358,0z" fill="#454545"/>
    <path stroke="null" id="svg_17" d="m122.82887,16.53338c0,0.91531 -0.15255,1.60179 -0.45765,1.98317c-0.3051,0.38138 -0.76276,0.61021 -1.44924,0.61021c-0.61021,0 -0.99159,-0.15255 -1.22041,-0.53393s-0.38138,-0.91531 -0.38138,-1.67807l0,-5.11048l-2.5171,0l0,5.56813c0,0.53393 0.07628,1.06786 0.15255,1.52552c0.07628,0.45765 0.3051,0.83903 0.53393,1.14414s0.61021,0.53393 0.99159,0.76276s0.99159,0.22883 1.67807,0.22883c0.53393,0 1.06786,-0.15255 1.52552,-0.38138c0.53393,-0.22883 0.91531,-0.61021 1.22041,-1.14414l0.07628,0l0,1.29669l2.36455,0l0,-9.00055l-2.5171,0l0,4.7291z" fill="#454545"/>
    <path stroke="null" id="svg_18" d="m131.60059,11.72801c-0.3051,0.07628 -0.53393,0.22883 -0.83903,0.38138c-0.22883,0.15255 -0.45765,0.38138 -0.68648,0.61021c-0.22883,0.22883 -0.38138,0.53393 -0.45765,0.76276l0,0l0,-1.67807l-2.36455,0l0,9.07682l2.5171,0l0,-4.11889c0,-0.38138 0.07628,-0.76276 0.15255,-1.14414c0.07628,-0.38138 0.22883,-0.68648 0.38138,-0.91531c0.22883,-0.22883 0.45765,-0.45765 0.76276,-0.61021s0.68648,-0.22883 1.14414,-0.22883c0.15255,0 0.3051,0 0.45765,0s0.3051,0 0.45765,0.07628l0,-2.28827c-0.22883,-0.07628 -0.38138,-0.07628 -0.53393,-0.07628c-0.38138,0 -0.68648,0.07628 -0.99159,0.15255z" fill="#454545"/>
    <path stroke="null" id="svg_19" d="m141.59272,12.87214c-0.38138,-0.38138 -0.91531,-0.76276 -1.44924,-0.99159c-0.61021,-0.22883 -1.22041,-0.3051 -1.9069,-0.3051s-1.37296,0.07628 -1.9069,0.3051c-0.61021,0.22883 -1.06786,0.53393 -1.44924,0.99159c-0.38138,0.38138 -0.76276,0.91531 -0.91531,1.52552c-0.22883,0.61021 -0.3051,1.22041 -0.3051,1.98317s0.07628,1.37296 0.3051,1.98317c0.22883,0.61021 0.53393,1.06786 0.91531,1.52552s0.91531,0.76276 1.44924,0.99159c0.61021,0.22883 1.22041,0.3051 1.9069,0.3051s1.37296,-0.07628 1.9069,-0.3051c0.61021,-0.22883 1.06786,-0.53393 1.44924,-0.99159c0.38138,-0.38138 0.76276,-0.91531 0.91531,-1.52552c0.22883,-0.61021 0.3051,-1.22041 0.3051,-1.98317s-0.07628,-1.37296 -0.3051,-1.98317c-0.22883,-0.61021 -0.53393,-1.14414 -0.91531,-1.52552zm-1.29669,4.57655c-0.07628,0.38138 -0.15255,0.68648 -0.38138,0.91531c-0.15255,0.3051 -0.38138,0.45765 -0.68648,0.68648s-0.61021,0.22883 -1.06786,0.22883c-0.45765,0 -0.76276,-0.07628 -1.06786,-0.22883s-0.53393,-0.38138 -0.68648,-0.68648c-0.15255,-0.3051 -0.3051,-0.61021 -0.38138,-0.91531c-0.07628,-0.38138 -0.07628,-0.68648 -0.07628,-1.06786c0,-0.38138 0,-0.68648 0.07628,-1.06786c0.07628,-0.38138 0.15255,-0.68648 0.38138,-0.91531c0.15255,-0.3051 0.38138,-0.45765 0.68648,-0.68648c0.3051,-0.15255 0.61021,-0.22883 1.06786,-0.22883c0.45765,0 0.76276,0.07628 1.06786,0.22883c0.3051,0.15255 0.53393,0.38138 0.68648,0.68648c0.15255,0.3051 0.3051,0.61021 0.38138,0.91531c0.07628,0.38138 0.07628,0.68648 0.07628,1.06786c0,0.3051 0,0.68648 -0.07628,1.06786z" fill="#454545"/>
    <path stroke="null" id="svg_20" d="m148.83893,11.72801c-0.3051,0.07628 -0.53393,0.22883 -0.83903,0.38138c-0.22883,0.15255 -0.45765,0.38138 -0.68648,0.61021c-0.22883,0.22883 -0.38138,0.53393 -0.45765,0.76276l0,0l0,-1.67807l-2.36455,0l0,9.07682l2.5171,0l0,-4.11889c0,-0.38138 0.07628,-0.76276 0.15255,-1.14414c0.07628,-0.38138 0.22883,-0.68648 0.38138,-0.91531c0.22883,-0.22883 0.45765,-0.45765 0.76276,-0.61021s0.68648,-0.22883 1.14414,-0.22883c0.15255,0 0.3051,0 0.45765,0s0.3051,0 0.45765,0.07628l0,-2.28827c-0.22883,-0.07628 -0.38138,-0.07628 -0.53393,-0.07628c-0.38138,0 -0.68648,0.07628 -0.99159,0.15255z" fill="#454545"/>
    <path stroke="null" id="svg_21" d="m159.51754,20.04207c-0.07628,-0.38138 -0.07628,-0.76276 -0.07628,-1.14414l0,-4.7291c0,-0.53393 -0.15255,-0.99159 -0.38138,-1.29669c-0.22883,-0.3051 -0.53393,-0.61021 -0.91531,-0.76276c-0.38138,-0.15255 -0.83903,-0.3051 -1.29669,-0.38138s-0.91531,-0.07628 -1.37296,-0.07628c-0.53393,0 -0.99159,0.07628 -1.52552,0.15255c-0.53393,0.07628 -0.91531,0.22883 -1.37296,0.53393s-0.76276,0.53393 -0.99159,0.91531s-0.38138,0.83903 -0.45765,1.44924l2.5171,0c0.07628,-0.45765 0.22883,-0.83903 0.45765,-1.06786c0.3051,-0.22883 0.68648,-0.3051 1.14414,-0.3051c0.22883,0 0.45765,0 0.61021,0.07628c0.22883,0 0.38138,0.07628 0.53393,0.15255c0.15255,0.07628 0.22883,0.22883 0.38138,0.38138s0.15255,0.38138 0.15255,0.61021c0,0.22883 -0.07628,0.45765 -0.22883,0.61021s-0.38138,0.22883 -0.68648,0.3051c-0.3051,0.07628 -0.61021,0.15255 -0.99159,0.15255s-0.76276,0.07628 -1.06786,0.15255c-0.38138,0.07628 -0.76276,0.15255 -1.14414,0.22883c-0.38138,0.07628 -0.68648,0.22883 -0.99159,0.45765c-0.3051,0.22883 -0.53393,0.45765 -0.68648,0.76276c-0.15255,0.3051 -0.3051,0.76276 -0.3051,1.29669c0,0.45765 0.07628,0.83903 0.22883,1.22041c0.15255,0.3051 0.38138,0.61021 0.68648,0.83903c0.3051,0.22883 0.61021,0.38138 0.99159,0.45765c0.38138,0.07628 0.76276,0.15255 1.22041,0.15255c0.53393,0 1.14414,-0.07628 1.67807,-0.22883c0.53393,-0.15255 0.99159,-0.45765 1.37296,-0.83903c0,0.15255 0,0.3051 0.07628,0.45765c0,0.15255 0.07628,0.3051 0.07628,0.45765l2.5171,0c0,-0.3051 -0.07628,-0.61021 -0.15255,-0.99159zm-2.59338,-2.66965c0,0.15255 0,0.3051 -0.07628,0.53393c0,0.22883 -0.07628,0.45765 -0.22883,0.68648c-0.15255,0.22883 -0.3051,0.45765 -0.61021,0.61021c-0.3051,0.15255 -0.68648,0.22883 -1.14414,0.22883c-0.22883,0 -0.38138,0 -0.61021,-0.07628c-0.15255,0 -0.38138,-0.07628 -0.45765,-0.15255c-0.15255,-0.07628 -0.22883,-0.22883 -0.3051,-0.38138s-0.15255,-0.3051 -0.15255,-0.53393c0,-0.22883 0.07628,-0.45765 0.15255,-0.61021c0.07628,-0.15255 0.15255,-0.3051 0.3051,-0.38138c0.15255,-0.07628 0.3051,-0.15255 0.45765,-0.22883c0.15255,-0.07628 0.38138,-0.07628 0.53393,-0.15255c0.22883,0 0.38138,-0.07628 0.61021,-0.07628c0.22883,0 0.38138,-0.07628 0.53393,-0.07628c0.15255,0 0.38138,-0.07628 0.53393,-0.15255c0.15255,-0.07628 0.3051,-0.15255 0.38138,-0.22883l0,0.99159l0.07628,0z" fill="#454545"/>
    <path stroke="null" id="svg_22" d="m42.43416,37.28041l-3.05103,-8.92427l-1.9069,0l0,10.22096l1.22041,0l0,-6.02579c0,-0.22883 0,-0.61021 0,-1.14414c0,-0.53393 0,-0.91531 0,-1.14414l0,-0.76276l3.12731,9.1531l1.29669,0l3.12731,-9.1531l0,0.45765c0,0.53393 0,1.06786 0,1.60179c0,0.45765 0,0.83903 0,1.06786l0,6.02579l1.22041,0l0,-10.37351l-1.9069,0l-3.12731,9.00055z" fill="#454545"/>
    <path stroke="null" id="svg_23" d="m52.04491,37.43296l-2.05945,-6.33089l-1.29669,0l2.74593,7.70386l0,0c-0.07628,0.15255 -0.15255,0.45765 -0.3051,0.76276c-0.22883,0.45765 -0.22883,0.53393 -0.22883,0.61021c-0.07628,0.15255 -0.15255,0.22883 -0.3051,0.3051c-0.15255,0.07628 -0.3051,0.15255 -0.53393,0.15255c-0.07628,0 -0.15255,0 -0.3051,0c-0.07628,0 -0.22883,-0.07628 -0.38138,-0.07628l0,0.99159c0.15255,0 0.22883,0.07628 0.3051,0.07628c0.07628,0 0.22883,0 0.38138,0c0.68648,0 1.22041,-0.22883 1.52552,-0.61021c0.3051,-0.38138 0.83903,-1.60179 1.52552,-3.50869c0.3051,-0.83903 0.68648,-1.83062 1.14414,-3.20358c0.61021,-1.67807 0.99159,-2.74593 1.14414,-3.20358l-1.29669,0l-2.05945,6.33089z" fill="#454545"/>
    <path stroke="null" id="svg_24" d="m63.41001,33.61917c-0.38138,-0.3051 -0.91531,-0.45765 -1.52552,-0.61021l-1.44924,-0.3051c-0.99159,-0.22883 -1.60179,-0.38138 -1.83062,-0.61021c-0.45765,-0.22883 -0.68648,-0.61021 -0.68648,-1.22041c0,-0.45765 0.15255,-0.91531 0.53393,-1.29669c0.38138,-0.38138 0.99159,-0.53393 1.75434,-0.53393c0.99159,0 1.75434,0.3051 2.13572,0.83903c0.22883,0.3051 0.38138,0.68648 0.45765,1.22041l1.14414,0c0,-1.06786 -0.38138,-1.9069 -1.06786,-2.36455c-0.76276,-0.53393 -1.60179,-0.76276 -2.66965,-0.76276c-1.14414,0 -1.98317,0.3051 -2.59338,0.91531c-0.61021,0.61021 -0.91531,1.37296 -0.91531,2.212c0,0.83903 0.3051,1.44924 0.91531,1.9069c0.38138,0.22883 0.99159,0.45765 1.83062,0.68648l1.37296,0.3051c0.76276,0.15255 1.29669,0.38138 1.67807,0.61021c0.38138,0.22883 0.53393,0.68648 0.53393,1.29669c0,0.76276 -0.45765,1.37296 -1.29669,1.67807c-0.45765,0.15255 -0.91531,0.22883 -1.44924,0.22883c-1.14414,0 -1.98317,-0.38138 -2.44083,-1.06786c-0.22883,-0.38138 -0.38138,-0.83903 -0.38138,-1.37296l-1.14414,0c0,1.06786 0.38138,1.9069 0.99159,2.5171c0.68648,0.61021 1.67807,0.99159 2.89848,0.99159c1.06786,0 1.98317,-0.22883 2.82221,-0.76276c0.76276,-0.45765 1.22041,-1.29669 1.22041,-2.44083c0.15255,-0.83903 -0.22883,-1.52552 -0.83903,-2.05945z" fill="#454545"/>
    <path stroke="null" id="svg_25" d="m75.69042,35.14468c0.15255,-0.61021 0.22883,-1.22041 0.22883,-1.9069c0,-1.37296 -0.3051,-2.59338 -0.99159,-3.50869c-0.83903,-1.14414 -2.212,-1.75434 -4.04262,-1.75434c-1.75434,0 -3.05103,0.61021 -3.89007,1.9069c-0.68648,0.99159 -1.06786,2.212 -1.06786,3.58496c0,1.52552 0.38138,2.82221 1.22041,3.81379c0.91531,1.06786 2.13572,1.52552 3.73752,1.52552c0.53393,0 0.99159,-0.07628 1.44924,-0.15255c0.45765,-0.15255 0.83903,-0.3051 1.22041,-0.53393l0.07628,0l1.60179,1.22041l0.61021,-0.76276l-1.44924,-1.14414l0.07628,-0.07628c0.61021,-0.53393 0.99159,-1.29669 1.22041,-2.212zm-2.13572,1.60179l0,0l-1.37296,-0.99159l-0.61021,0.76276l1.14414,0.91531l-0.07628,0.07628c-0.22883,0.15255 -0.45765,0.22883 -0.68648,0.22883c-0.22883,0.07628 -0.53393,0.07628 -0.83903,0.07628c-1.22041,0 -2.212,-0.38138 -2.82221,-1.14414c-0.61021,-0.76276 -0.99159,-1.75434 -0.99159,-3.05103c0,-1.52552 0.3051,-2.59338 0.99159,-3.35614c0.68648,-0.76276 1.60179,-1.06786 2.74593,-1.06786c1.14414,0 2.05945,0.38138 2.66965,1.14414c0.61021,0.76276 0.99159,1.75434 0.99159,2.97476c0,0.53393 -0.07628,1.14414 -0.22883,1.75434c-0.22883,0.61021 -0.53393,1.14414 -0.91531,1.67807z" fill="#454545"/>
    <polygon stroke="null" id="svg_26" points="79.04655456542969,28.27985954284668 77.74986267089844,28.27985954284668 77.74986267089844,38.50082206726074 84.23332214355469,38.50082206726074 84.23332214355469,37.43295860290527 79.04655456542969,37.43295860290527 " fill="#454545"/>
   </g>
  </g>
 </g>
</svg>