<svg width="160" height="50" xmlns="http://www.w3.org/2000/svg" xmlns:svg="http://www.w3.org/2000/svg">
 <g>
  <title>Layer 1</title>
  <g id="svg_1" stroke="null">
   <g id="Layer_1_2_" stroke="null">
    <g id="svg_2" stroke="null">
     <g id="svg_3" stroke="null">
      <polygon fill="#1A476F" points="0.32991036772727966,33.87500762939453 3.6860432624816895,37.841346740722656 3.6860432624816895,11.60246753692627 0.32991036772727966,15.568809509277344 " id="svg_4" stroke="null"/>
      <polygon fill="#205B98" points="3.6860432624816895,37.841346740722656 10.169488906860352,41.04493713378906 10.169488906860352,8.398883819580078 3.6860432624816895,11.60246753692627 " id="svg_5" stroke="null"/>
      <polygon fill="#2D72B8" points="29.314720153808594,15.568809509277344 25.95858383178711,11.60246753692627 25.95858383178711,37.841346740722656 29.314720153808594,33.87500762939453 " id="svg_6" stroke="null"/>
      <polygon fill="#5294CF" points="19.475139617919922,41.04493713378906 25.95858383178711,37.841346740722656 25.95858383178711,11.60246753692627 19.475139617919922,8.398883819580078 " id="svg_7" stroke="null"/>
      <rect x="10.16949" y="8.39888" fill="#2D72B8" width="9.30565" height="32.64605" id="svg_8" stroke="null"/>
     </g>
    </g>
   </g>
   <g id="svg_9" stroke="null">
    <text stroke="null" transform="matrix(0.5919216974232506,0,0,0.5919216974232506,12.684662377776618,18.806115919494577) " xml:space="preserve" text-anchor="middle" font-family="Sans-serif" font-size="24" id="svg_30" y="32.92441" x="105.19481" stroke-linecap="null" stroke-linejoin="null" stroke-dasharray="null" stroke-width="0" fill="#454545">PostgreSQL</text>
    <path fill="#454545" d="m41.90023,8.09378l-5.0342,12.50923l1.22041,0l1.52552,-3.89007l5.72069,0l1.52552,3.89007l1.29669,0l-4.88165,-12.50923l-1.37296,0l-0.00002,0zm-1.9069,7.62758l2.5171,-6.40717l2.44083,6.40717l-4.95793,0z" id="svg_10" stroke="null"/>
    <path fill="#454545" d="m57.07912,12.51778c0.3051,-0.15255 0.68648,-0.3051 1.22041,-0.3051c0.76276,0 1.37296,0.22883 1.67807,0.61021c0.3051,0.38138 0.45765,0.99159 0.45765,1.67807l0,6.10207l1.06786,0l0,-6.10207c0,-2.13572 -0.99159,-3.20358 -2.97476,-3.20358c-0.61021,0 -1.14414,0.15255 -1.67807,0.45765c-0.53393,0.3051 -0.91531,0.76276 -1.22041,1.29669c-0.15255,-0.61021 -0.45765,-1.06786 -0.99159,-1.29669c-0.45765,-0.3051 -0.99159,-0.45765 -1.60179,-0.45765c-0.76276,0 -1.37296,0.15255 -1.83062,0.45765s-0.83903,0.76276 -1.14414,1.29669l-0.07628,0l0,-1.52552l-0.99159,0l0,9.07682l1.06786,0l0,-5.0342c0,-0.45765 0.07628,-0.91531 0.15255,-1.29669c0.07628,-0.38138 0.22883,-0.76276 0.45765,-1.06786s0.53393,-0.53393 0.83903,-0.68648c0.38138,-0.15255 0.76276,-0.22883 1.22041,-0.22883c0.38138,0 0.61021,0.07628 0.91531,0.15255s0.45765,0.3051 0.61021,0.45765c0.15255,0.22883 0.22883,0.45765 0.3051,0.68648s0.07628,0.53393 0.07628,0.83903l0,6.10207l1.06786,0l0,-5.11048c0,-0.45765 0.07628,-0.83903 0.15255,-1.22041s0.22883,-0.76276 0.38138,-1.06786c0.3051,-0.22883 0.53393,-0.45765 0.83903,-0.61021l0.00004,0z" id="svg_11" stroke="null"/>
    <path fill="#454545" d="m67.37635,20.75557c0.3051,-0.07628 0.61021,-0.22883 0.83903,-0.38138c0.22883,-0.15255 0.45765,-0.3051 0.68648,-0.53393s0.38138,-0.45765 0.61021,-0.76276l0,0c0,0.22883 0,0.45765 0.07628,0.61021s0.07628,0.38138 0.15255,0.53393c0.07628,0.15255 0.22883,0.22883 0.38138,0.3051s0.38138,0.07628 0.68648,0.07628c0.15255,0 0.3051,0 0.38138,0c0.07628,0 0.22883,0 0.3051,-0.07628l0,-0.91531c-0.07628,0.07628 -0.22883,0.07628 -0.38138,0.07628c-0.45765,0 -0.68648,-0.22883 -0.68648,-0.68648l0,-4.80538c0,-0.61021 -0.07628,-1.06786 -0.3051,-1.44924c-0.22883,-0.38138 -0.45765,-0.68648 -0.76276,-0.91531s-0.68648,-0.38138 -1.06786,-0.45765c-0.38138,-0.07628 -0.76276,-0.07628 -1.22041,-0.07628c-0.53393,0 -0.99159,0.07628 -1.44924,0.15255c-0.45765,0.15255 -0.83903,0.3051 -1.14414,0.53393c-0.3051,0.22883 -0.61021,0.53393 -0.76276,0.91531c-0.15255,0.38138 -0.3051,0.83903 -0.3051,1.37296l1.06786,0c0,-0.76276 0.22883,-1.29669 0.68648,-1.60179c0.45765,-0.3051 0.99159,-0.53393 1.75434,-0.53393c0.3051,0 0.61021,0 0.91531,0.07628c0.3051,0.07628 0.53393,0.15255 0.76276,0.3051c0.22883,0.15255 0.38138,0.3051 0.53393,0.53393s0.15255,0.53393 0.15255,0.91531c0,0.22883 0,0.45765 -0.07628,0.61021c-0.07628,0.15255 -0.15255,0.3051 -0.3051,0.38138c-0.15255,0.07628 -0.22883,0.15255 -0.45765,0.15255c-0.15255,0 -0.38138,0.07628 -0.61021,0.07628c-0.61021,0.07628 -1.22041,0.15255 -1.75434,0.22883c-0.61021,0.07628 -1.06786,0.22883 -1.52552,0.38138c-0.45765,0.15255 -0.83903,0.45765 -1.14414,0.83903s-0.45765,0.83903 -0.45765,1.44924c0,0.45765 0.07628,0.83903 0.22883,1.22041c0.15255,0.3051 0.38138,0.61021 0.68648,0.83903s0.61021,0.38138 0.99159,0.45765c0.38138,0.07628 0.76276,0.15255 1.22041,0.15255c0.53393,0.07628 0.91531,0.07628 1.29669,0l0,0.00001zm-2.5171,-1.29669c-0.15255,-0.15255 -0.3051,-0.38138 -0.45765,-0.53393s-0.15255,-0.45765 -0.15255,-0.76276c0,-0.45765 0.15255,-0.76276 0.38138,-0.99159c0.22883,-0.22883 0.61021,-0.45765 0.99159,-0.53393c0.38138,-0.15255 0.83903,-0.22883 1.37296,-0.3051c0.53393,-0.07628 0.99159,-0.15255 1.44924,-0.22883c0.15255,0 0.3051,-0.07628 0.53393,-0.15255c0.22883,-0.07628 0.3051,-0.15255 0.38138,-0.3051l0,0l0,1.44924c0,0.45765 -0.07628,0.83903 -0.22883,1.22041c-0.15255,0.38138 -0.38138,0.68648 -0.68648,0.91531s-0.61021,0.45765 -0.99159,0.53393c-0.38138,0.15255 -0.76276,0.22883 -1.22041,0.22883c-0.22883,0 -0.53393,-0.07628 -0.76276,-0.15255s-0.38138,-0.22883 -0.61021,-0.38138z" id="svg_12" stroke="null"/>
    <polygon fill="#454545" points="79.50421142578125,19.687705993652344 73.32586669921875,19.687705993652344 79.27537536621094,12.365225791931152 79.27537536621094,11.526192665100098 72.41055297851562,11.526192665100098 72.41055297851562,12.517777442932129 77.90242004394531,12.517777442932129 71.9529037475586,19.687705993652344 71.9529037475586,20.603012084960938 79.50421142578125,20.603012084960938 " id="svg_13" stroke="null"/>
    <path fill="#454545" d="m87.89455,12.74661c-0.38138,-0.45765 -0.83903,-0.76276 -1.37296,-1.06786c-0.53393,-0.22883 -1.14414,-0.38138 -1.83062,-0.38138c-0.68648,0 -1.29669,0.15255 -1.83062,0.38138c-0.53393,0.22883 -0.99159,0.61021 -1.37296,1.06786c-0.38138,0.45765 -0.61021,0.91531 -0.83903,1.52552c-0.15255,0.61021 -0.3051,1.22041 -0.3051,1.83062c0,0.68648 0.07628,1.29669 0.3051,1.83062c0.15255,0.61021 0.45765,1.06786 0.83903,1.52552c0.38138,0.45765 0.83903,0.76276 1.37296,0.99159c0.53393,0.22883 1.14414,0.38138 1.83062,0.38138c0.68648,0 1.29669,-0.15255 1.83062,-0.38138c0.53393,-0.22883 0.99159,-0.61021 1.37296,-0.99159c0.38138,-0.45765 0.61021,-0.91531 0.83903,-1.52552c0.15255,-0.61021 0.3051,-1.22041 0.3051,-1.83062c0,-0.68648 -0.07628,-1.29669 -0.3051,-1.83062s-0.45765,-1.14414 -0.83903,-1.52552zm-0.22883,4.7291c-0.15255,0.45765 -0.3051,0.83903 -0.61021,1.22041c-0.22883,0.38138 -0.61021,0.68648 -0.99159,0.91531s-0.83903,0.3051 -1.37296,0.3051c-0.53393,0 -0.99159,-0.07628 -1.37296,-0.3051c-0.38138,-0.22883 -0.76276,-0.53393 -0.99159,-0.91531c-0.22883,-0.38138 -0.45765,-0.76276 -0.61021,-1.22041c-0.15255,-0.45765 -0.22883,-0.91531 -0.22883,-1.44924s0.07628,-0.91531 0.22883,-1.44924c0.15255,-0.45765 0.3051,-0.83903 0.61021,-1.22041s0.61021,-0.68648 0.99159,-0.83903c0.38138,-0.22883 0.83903,-0.3051 1.37296,-0.3051c0.53393,0 0.99159,0.07628 1.37296,0.3051s0.76276,0.53393 0.99159,0.83903c0.22883,0.38138 0.45765,0.76276 0.61021,1.22041c0.15255,0.45765 0.22883,0.91531 0.22883,1.44924s-0.07628,0.99159 -0.22883,1.44924z" id="svg_14" stroke="null"/>
    <path fill="#454545" d="m97.27647,12.21268c-0.22883,-0.3051 -0.61021,-0.53393 -0.99159,-0.68648s-0.99159,-0.22883 -1.60179,-0.22883c-0.61021,0 -1.22041,0.15255 -1.75434,0.53393c-0.53393,0.3051 -0.91531,0.76276 -1.14414,1.29669l0,0l0,-1.52552l-1.06786,0l0,9.07682l1.06786,0l0,-5.26303c0,-0.45765 0.07628,-0.83903 0.22883,-1.22041c0.15255,-0.38138 0.3051,-0.68648 0.53393,-0.99159c0.22883,-0.3051 0.53393,-0.45765 0.91531,-0.68648s0.76276,-0.22883 1.22041,-0.22883c0.45765,0 0.83903,0.07628 1.14414,0.22883c0.3051,0.15255 0.53393,0.3051 0.68648,0.61021c0.15255,0.22883 0.3051,0.53393 0.38138,0.83903s0.07628,0.68648 0.07628,1.06786l0,5.64441l1.06786,0l0,-5.87324c0,-0.53393 -0.07628,-0.99159 -0.15255,-1.44924s-0.38138,-0.83903 -0.61021,-1.14414l0,0.00001z" id="svg_15" stroke="null"/>
    <path fill="#454545" d="m108.48902,8.09378l-4.7291,12.50923l2.74593,0l0.99159,-2.82221l4.65282,0l0.91531,2.82221l2.82221,0l-4.57655,-12.50923l-2.82221,0zm-0.22883,7.70386l1.60179,-4.57655l0,0l1.60179,4.57655l-3.20358,0z" id="svg_16" stroke="null"/>
    <path fill="#454545" d="m122.82887,16.25529c0,0.91531 -0.15255,1.60179 -0.45765,1.98317c-0.3051,0.38138 -0.76276,0.61021 -1.44924,0.61021c-0.61021,0 -0.99159,-0.15255 -1.22041,-0.53393s-0.38138,-0.91531 -0.38138,-1.67807l0,-5.11048l-2.5171,0l0,5.56813c0,0.53393 0.07628,1.06786 0.15255,1.52552c0.07628,0.45765 0.3051,0.83903 0.53393,1.14414s0.61021,0.53393 0.99159,0.76276s0.99159,0.22883 1.67807,0.22883c0.53393,0 1.06786,-0.15255 1.52552,-0.38138c0.53393,-0.22883 0.91531,-0.61021 1.22041,-1.14414l0.07628,0l0,1.29669l2.36455,0l0,-9.00055l-2.5171,0l0,4.7291l-0.00002,0z" id="svg_17" stroke="null"/>
    <path fill="#454545" d="m131.60059,11.44992c-0.3051,0.07628 -0.53393,0.22883 -0.83903,0.38138c-0.22883,0.15255 -0.45765,0.38138 -0.68648,0.61021c-0.22883,0.22883 -0.38138,0.53393 -0.45765,0.76276l0,0l0,-1.67807l-2.36455,0l0,9.07682l2.5171,0l0,-4.11889c0,-0.38138 0.07628,-0.76276 0.15255,-1.14414c0.07628,-0.38138 0.22883,-0.68648 0.38138,-0.91531c0.22883,-0.22883 0.45765,-0.45765 0.76276,-0.61021s0.68648,-0.22883 1.14414,-0.22883c0.15255,0 0.3051,0 0.45765,0s0.3051,0 0.45765,0.07628l0,-2.28827c-0.22883,-0.07628 -0.38138,-0.07628 -0.53393,-0.07628c-0.38138,0 -0.68648,0.07628 -0.99159,0.15255z" id="svg_18" stroke="null"/>
    <path fill="#454545" d="m141.59272,12.59405c-0.38138,-0.38138 -0.91531,-0.76276 -1.44924,-0.99159c-0.61021,-0.22883 -1.22041,-0.3051 -1.9069,-0.3051s-1.37296,0.07628 -1.9069,0.3051c-0.61021,0.22883 -1.06786,0.53393 -1.44924,0.99159c-0.38138,0.38138 -0.76276,0.91531 -0.91531,1.52552c-0.22883,0.61021 -0.3051,1.22041 -0.3051,1.98317s0.07628,1.37296 0.3051,1.98317c0.22883,0.61021 0.53393,1.06786 0.91531,1.52552s0.91531,0.76276 1.44924,0.99159c0.61021,0.22883 1.22041,0.3051 1.9069,0.3051s1.37296,-0.07628 1.9069,-0.3051c0.61021,-0.22883 1.06786,-0.53393 1.44924,-0.99159c0.38138,-0.38138 0.76276,-0.91531 0.91531,-1.52552c0.22883,-0.61021 0.3051,-1.22041 0.3051,-1.98317s-0.07628,-1.37296 -0.3051,-1.98317c-0.22883,-0.61021 -0.53393,-1.14414 -0.91531,-1.52552zm-1.29669,4.57655c-0.07628,0.38138 -0.15255,0.68648 -0.38138,0.91531c-0.15255,0.3051 -0.38138,0.45765 -0.68648,0.68648s-0.61021,0.22883 -1.06786,0.22883c-0.45765,0 -0.76276,-0.07628 -1.06786,-0.22883s-0.53393,-0.38138 -0.68648,-0.68648c-0.15255,-0.3051 -0.3051,-0.61021 -0.38138,-0.91531c-0.07628,-0.38138 -0.07628,-0.68648 -0.07628,-1.06786c0,-0.38138 0,-0.68648 0.07628,-1.06786c0.07628,-0.38138 0.15255,-0.68648 0.38138,-0.91531c0.15255,-0.3051 0.38138,-0.45765 0.68648,-0.68648c0.3051,-0.15255 0.61021,-0.22883 1.06786,-0.22883c0.45765,0 0.76276,0.07628 1.06786,0.22883c0.3051,0.15255 0.53393,0.38138 0.68648,0.68648c0.15255,0.3051 0.3051,0.61021 0.38138,0.91531c0.07628,0.38138 0.07628,0.68648 0.07628,1.06786c0,0.3051 0,0.68648 -0.07628,1.06786z" id="svg_19" stroke="null"/>
    <path fill="#454545" d="m148.83893,11.44992c-0.3051,0.07628 -0.53393,0.22883 -0.83903,0.38138c-0.22883,0.15255 -0.45765,0.38138 -0.68648,0.61021c-0.22883,0.22883 -0.38138,0.53393 -0.45765,0.76276l0,0l0,-1.67807l-2.36455,0l0,9.07682l2.5171,0l0,-4.11889c0,-0.38138 0.07628,-0.76276 0.15255,-1.14414c0.07628,-0.38138 0.22883,-0.68648 0.38138,-0.91531c0.22883,-0.22883 0.45765,-0.45765 0.76276,-0.61021s0.68648,-0.22883 1.14414,-0.22883c0.15255,0 0.3051,0 0.45765,0s0.3051,0 0.45765,0.07628l0,-2.28827c-0.22883,-0.07628 -0.38138,-0.07628 -0.53393,-0.07628c-0.38138,0 -0.68648,0.07628 -0.99159,0.15255z" id="svg_20" stroke="null"/>
    <path fill="#454545" d="m159.51754,19.76398c-0.07628,-0.38138 -0.07628,-0.76276 -0.07628,-1.14414l0,-4.7291c0,-0.53393 -0.15255,-0.99159 -0.38138,-1.29669c-0.22883,-0.3051 -0.53393,-0.61021 -0.91531,-0.76276c-0.38138,-0.15255 -0.83903,-0.3051 -1.29669,-0.38138s-0.91531,-0.07628 -1.37296,-0.07628c-0.53393,0 -0.99159,0.07628 -1.52552,0.15255c-0.53393,0.07628 -0.91531,0.22883 -1.37296,0.53393s-0.76276,0.53393 -0.99159,0.91531s-0.38138,0.83903 -0.45765,1.44924l2.5171,0c0.07628,-0.45765 0.22883,-0.83903 0.45765,-1.06786c0.3051,-0.22883 0.68648,-0.3051 1.14414,-0.3051c0.22883,0 0.45765,0 0.61021,0.07628c0.22883,0 0.38138,0.07628 0.53393,0.15255c0.15255,0.07628 0.22883,0.22883 0.38138,0.38138s0.15255,0.38138 0.15255,0.61021c0,0.22883 -0.07628,0.45765 -0.22883,0.61021s-0.38138,0.22883 -0.68648,0.3051c-0.3051,0.07628 -0.61021,0.15255 -0.99159,0.15255s-0.76276,0.07628 -1.06786,0.15255c-0.38138,0.07628 -0.76276,0.15255 -1.14414,0.22883c-0.38138,0.07628 -0.68648,0.22883 -0.99159,0.45765c-0.3051,0.22883 -0.53393,0.45765 -0.68648,0.76276c-0.15255,0.3051 -0.3051,0.76276 -0.3051,1.29669c0,0.45765 0.07628,0.83903 0.22883,1.22041c0.15255,0.3051 0.38138,0.61021 0.68648,0.83903c0.3051,0.22883 0.61021,0.38138 0.99159,0.45765c0.38138,0.07628 0.76276,0.15255 1.22041,0.15255c0.53393,0 1.14414,-0.07628 1.67807,-0.22883c0.53393,-0.15255 0.99159,-0.45765 1.37296,-0.83903c0,0.15255 0,0.3051 0.07628,0.45765c0,0.15255 0.07628,0.3051 0.07628,0.45765l2.5171,0c0,-0.3051 -0.07628,-0.61021 -0.15255,-0.99159l0,0.00003zm-2.59338,-2.66965c0,0.15255 0,0.3051 -0.07628,0.53393c0,0.22883 -0.07628,0.45765 -0.22883,0.68648c-0.15255,0.22883 -0.3051,0.45765 -0.61021,0.61021c-0.3051,0.15255 -0.68648,0.22883 -1.14414,0.22883c-0.22883,0 -0.38138,0 -0.61021,-0.07628c-0.15255,0 -0.38138,-0.07628 -0.45765,-0.15255c-0.15255,-0.07628 -0.22883,-0.22883 -0.3051,-0.38138s-0.15255,-0.3051 -0.15255,-0.53393c0,-0.22883 0.07628,-0.45765 0.15255,-0.61021c0.07628,-0.15255 0.15255,-0.3051 0.3051,-0.38138c0.15255,-0.07628 0.3051,-0.15255 0.45765,-0.22883c0.15255,-0.07628 0.38138,-0.07628 0.53393,-0.15255c0.22883,0 0.38138,-0.07628 0.61021,-0.07628c0.22883,0 0.38138,-0.07628 0.53393,-0.07628c0.15255,0 0.38138,-0.07628 0.53393,-0.15255c0.15255,-0.07628 0.3051,-0.15255 0.38138,-0.22883l0,0.99159l0.07628,0l0.00001,0.00001z" id="svg_21" stroke="null"/>
    <text xml:space="preserve" text-anchor="middle" font-family="Sans-serif" font-size="24" id="svg_29" y="56.31991" x="63.75236" stroke-linecap="null" stroke-linejoin="null" stroke-dasharray="null" stroke-width="0" stroke="null" fill="#454545"/>
   </g>
  </g>
 </g>
</svg>