<svg width="160" height="50" xmlns="http://www.w3.org/2000/svg" xmlns:svg="http://www.w3.org/2000/svg">
 <g>
  <title>Layer 1</title>
  <g stroke="null" id="svg_1">
   <g stroke="null" id="svg_2">
    <path stroke="null" id="svg_3" d="m44.29125,24.42367c2.42555,0 4.0147,1.08731 5.01837,2.42555l0,-19.32074c0,-0.33456 -0.4182,-0.58548 -0.75276,-0.33456l-23.83728,17.48067l0.66912,0c2.50919,0 3.76378,1.58915 3.76378,3.34558c0,1.33823 -0.66912,2.34191 -1.67279,2.76011c-0.16728,0.08364 -0.16728,0.33456 0,0.33456c1.08731,0.50184 1.92371,1.58915 1.92371,3.01102c0,2.00735 -1.25459,3.51286 -3.76378,3.51286l-6.77481,0c-0.16728,0 -0.25092,-0.08364 -0.25092,-0.25092l0,-8.19668l-17.89887,12.96413c-0.33456,0.25092 -0.16728,0.75276 0.25092,0.75276l47.92547,0c0.25092,0 0.4182,-0.16728 0.4182,-0.4182l0,-6.60753c-1.25459,1.17095 -3.01102,1.92371 -5.01837,1.92371c-3.84742,0 -6.94208,-2.67647 -6.94208,-6.69117c0,-4.09834 3.09466,-6.69117 6.94208,-6.69117zm-9.53491,12.96413c0,0.16728 -0.08364,0.25092 -0.25092,0.25092l-2.25827,0c-0.16728,0 -0.25092,-0.08364 -0.25092,-0.25092l0,-12.54594c0,-0.16728 0.08364,-0.25092 0.25092,-0.25092l2.25827,0c0.16728,0 0.25092,0.08364 0.25092,0.25092l0,12.54594z" fill="#34313F"/>
   </g>
   <path stroke="null" id="svg_4" d="m21.54129,29.7766l3.1783,0c0.92004,0 1.50551,-0.50184 1.50551,-1.33823c0,-0.75276 -0.58548,-1.33823 -1.50551,-1.33823l-3.34558,0c-0.08364,0 -0.16728,0.08364 -0.16728,0.16728l0,2.34191c0.08364,0.08364 0.16728,0.16728 0.33456,0.16728z" fill="#34313F"/>
   <path stroke="null" id="svg_5" d="m21.54129,35.21317l3.34558,0c1.00367,0 1.67279,-0.58548 1.67279,-1.50551c0,-0.8364 -0.58548,-1.50551 -1.67279,-1.50551l-3.34558,0c-0.16728,0 -0.25092,0.08364 -0.25092,0.25092l0,2.42555c0,0.25092 0.08364,0.33456 0.25092,0.33456z" fill="#34313F"/>
   <path stroke="null" id="svg_6" d="m47.21864,28.35473c-0.66912,-0.8364 -1.67279,-1.50551 -2.92738,-1.50551c-2.34191,0 -4.09834,1.84007 -4.09834,4.26562s1.75643,4.26562 4.09834,4.26562c1.08731,0 2.09099,-0.50184 2.67647,-0.92004c0,0 0.08364,-0.08364 0.08364,-0.16728l0,-1.25459c0,-0.08364 -0.08364,-0.16728 -0.16728,-0.16728l-2.92738,0c-0.16728,0 -0.25092,-0.16728 -0.25092,-0.25092l0,-1.84007c0,-0.16728 0.16728,-0.25092 0.25092,-0.25092l5.43657,0l0,-3.01102l-1.75643,0.92004c-0.16728,0.08364 -0.33456,0.08364 -0.4182,-0.08364z" fill="#34313F"/>
   <path stroke="null" id="svg_7" d="m51.31698,31.19848c0,-4.0147 2.84375,-6.69117 6.60753,-6.69117c2.42555,0 3.93106,1.25459 4.93473,2.67647c0.08364,0.08364 0,0.25092 -0.08364,0.33456l-1.50551,0.75276c-0.08364,0.08364 -0.25092,0 -0.25092,-0.08364c-0.66912,-1.00367 -1.75643,-1.75643 -3.01102,-1.75643c-2.50919,0 -4.34926,1.92371 -4.34926,4.68382c0,2.67647 1.84007,4.68382 4.34926,4.68382c1.25459,0 2.42555,-0.75276 3.01102,-1.75643c0.08364,-0.08364 0.16728,-0.16728 0.25092,-0.08364l1.50551,0.75276c0.16728,0.08364 0.16728,0.16728 0.08364,0.33456c-0.92004,1.50551 -2.50919,2.76011 -4.93473,2.76011c-3.68014,0.08364 -6.60753,-2.67647 -6.60753,-6.60753z" fill="#34313F"/>
   <path stroke="null" id="svg_8" d="m64.11383,31.19848c0,-3.26194 1.84007,-5.77113 4.60018,-6.52389c4.76746,-1.25459 9.03307,3.1783 8.0294,8.11304c-0.66912,3.01102 -3.01102,5.10201 -6.27297,5.10201c-3.68014,0 -6.35661,-2.84375 -6.35661,-6.69117zm10.53859,0c0,-2.67647 -1.67279,-4.68382 -4.18198,-4.68382c-2.50919,0 -4.18198,2.00735 -4.18198,4.68382c0,2.67647 1.58915,4.68382 4.18198,4.68382s4.18198,-2.09099 4.18198,-4.68382z" fill="#34313F"/>
   <path stroke="null" id="svg_9" d="m90.4603,37.47144l0,-9.86947l-3.93106,9.95311c0,0 -0.08364,0.08364 -0.08364,0.08364l-0.8364,0c0,0 -0.08364,0 -0.08364,-0.08364l-3.93106,-9.95311l0,9.86947c0,0.08364 -0.08364,0.16728 -0.16728,0.16728l-2.00735,0c-0.08364,0 -0.16728,-0.08364 -0.16728,-0.16728l0,-12.71321c0,-0.08364 0.08364,-0.16728 0.16728,-0.16728l2.84375,0c0.16728,0 0.25092,0.08364 0.33456,0.16728l3.51286,8.94943l3.42922,-8.94943c0,-0.16728 0.16728,-0.16728 0.33456,-0.16728l2.84375,0c0.08364,0 0.16728,0.08364 0.16728,0.16728l0,12.71321c0,0.08364 -0.08364,0.16728 -0.16728,0.16728l-2.00735,0c-0.16728,0 -0.25092,-0.08364 -0.25092,-0.16728z" fill="#34313F"/>
   <path stroke="null" id="svg_10" d="m112.95934,37.3878l0,-12.54594c0,-0.16728 0.08364,-0.25092 0.25092,-0.25092l8.4476,0c0.16728,0 0.25092,0.08364 0.25092,0.25092l0,1.50551c0,0.16728 -0.08364,0.25092 -0.25092,0.25092l-6.18933,0c-0.16728,0 -0.25092,0.08364 -0.25092,0.25092l0,2.84375c0,0.16728 0.08364,0.25092 0.25092,0.25092l6.02205,0c0.16728,0 0.25092,0.08364 0.25092,0.25092l0,1.50551c0,0.16728 -0.08364,0.25092 -0.25092,0.25092l-6.02205,0c-0.16728,0 -0.25092,0.08364 -0.25092,0.25092l0,3.1783c0,0.16728 0.08364,0.25092 0.25092,0.25092l6.18933,0c0.16728,0 0.25092,0.08364 0.25092,0.25092l0,1.50551c0,0.16728 -0.08364,0.25092 -0.25092,0.25092l-8.4476,0c-0.16728,0 -0.25092,-0.08364 -0.25092,-0.25092z" fill="#34313F"/>
   <path stroke="null" id="svg_11" d="m132.44736,37.55508l-2.76011,-4.60018c0,-0.08364 -0.16728,-0.08364 -0.16728,-0.08364l-1.92371,0c-0.16728,0 -0.25092,0.08364 -0.25092,0.25092l0,4.4329c0,0.16728 -0.08364,0.25092 -0.25092,0.25092l-1.75643,0c-0.16728,0 -0.25092,-0.08364 -0.25092,-0.25092l0,-12.54594c0,-0.16728 0.08364,-0.25092 0.25092,-0.25092l5.52021,0c2.59283,0 4.26562,1.67279 4.26562,4.09834c0,2.17463 -1.33823,3.34558 -2.76011,3.76378c-0.16728,0 -0.25092,0.16728 -0.16728,0.33456c0.50184,0.8364 2.17463,3.51286 2.84375,4.4329c0.08364,0.16728 0,0.33456 -0.16728,0.33456l-2.17463,0c-0.08364,-0.08364 -0.16728,-0.08364 -0.25092,-0.16728zm0.33456,-8.86579c0,-1.25459 -0.92004,-2.09099 -2.25827,-2.09099l-2.92738,0c-0.16728,0 -0.25092,0.08364 -0.25092,0.25092l0,3.68014c0,0.16728 0.08364,0.25092 0.25092,0.25092l2.92738,0c1.33823,0 2.25827,-0.8364 2.25827,-2.09099z" fill="#34313F"/>
   <path stroke="null" id="svg_12" d="m150.51351,37.3878l0,-12.54594c0,-0.16728 0.08364,-0.25092 0.25092,-0.25092l8.4476,0c0.16728,0 0.25092,0.08364 0.25092,0.25092l0,1.58915c0,0.16728 -0.08364,0.25092 -0.25092,0.25092l-6.18933,0c-0.16728,0 -0.25092,0.08364 -0.25092,0.25092l0,2.92738c0,0.16728 0.08364,0.25092 0.25092,0.25092l6.02205,0c0.16728,0 0.25092,0.08364 0.25092,0.25092l0,1.58915c0,0.16728 -0.08364,0.25092 -0.25092,0.25092l-6.02205,0c-0.16728,0 -0.25092,0.08364 -0.25092,0.25092l0,3.1783c0,0.16728 0.08364,0.25092 0.25092,0.25092l6.18933,0c0.16728,0 0.25092,0.08364 0.25092,0.25092l0,1.58915c0,0.16728 -0.08364,0.25092 -0.25092,0.25092l-8.4476,0c-0.16728,-0.33456 -0.25092,-0.4182 -0.25092,-0.58548z" fill="#34313F"/>
   <path stroke="null" id="svg_13" d="m136.79662,31.11484c0,-4.0147 2.84375,-6.69117 6.60753,-6.69117c2.42555,0 3.93106,1.25459 4.93473,2.67647c0.08364,0.08364 0,0.25092 -0.08364,0.33456l-1.50551,0.75276c-0.08364,0.08364 -0.25092,0 -0.25092,-0.08364c-0.66912,-1.00367 -1.75643,-1.75643 -3.01102,-1.75643c-2.50919,0 -4.34926,1.92371 -4.34926,4.68382c0,2.67647 1.84007,4.68382 4.34926,4.68382c1.25459,0 2.42555,-0.75276 3.01102,-1.75643c0.08364,-0.08364 0.16728,-0.16728 0.25092,-0.08364l1.50551,0.75276c0.16728,0.08364 0.16728,0.16728 0.08364,0.33456c-0.92004,1.50551 -2.50919,2.76011 -4.93473,2.76011c-3.76378,0.08364 -6.60753,-2.59283 -6.60753,-6.60753z" fill="#34313F"/>
   <path stroke="null" id="svg_14" d="m107.35549,37.47144l0,-9.86947l-3.93106,9.95311c0,0 -0.08364,0.08364 -0.08364,0.08364l-0.8364,0c0,0 -0.08364,0 -0.08364,-0.08364l-4.0147,-9.95311l0,9.86947c0,0.08364 -0.08364,0.16728 -0.16728,0.16728l-2.00735,0c-0.08364,0 -0.16728,-0.08364 -0.16728,-0.16728l0,-12.71321c0,-0.08364 0.08364,-0.16728 0.16728,-0.16728l2.84375,0c0.16728,0 0.25092,0.08364 0.33456,0.16728l3.51286,8.94943l3.42922,-8.94943c0,-0.16728 0.16728,-0.16728 0.33456,-0.16728l2.84375,0c0.08364,0 0.16728,0.08364 0.16728,0.16728l0,12.71321c0,0.08364 -0.08364,0.16728 -0.16728,0.16728l-2.00735,0c-0.16728,0 -0.16728,-0.08364 -0.16728,-0.16728z" fill="#34313F"/>
  </g>
 </g>
</svg>