<svg width="160" height="50" xmlns="http://www.w3.org/2000/svg" xmlns:svg="http://www.w3.org/2000/svg">
 <g>
  <title>Layer 1</title>
  <g id="svg_1" stroke="null">
   <g id="svg_2" stroke="null">
    <path fill="#008272" d="m123.68171,37.11684l0,-3.56378l-0.10182,0c-0.61094,1.22187 -1.42551,2.13826 -2.44374,2.85102c-1.12004,0.71276 -2.24008,1.12005 -3.56377,1.12005c-1.62916,0 -2.95285,-0.50912 -3.97107,-1.42551c-1.01822,-0.9164 -1.52733,-2.13827 -1.52733,-3.6656c0,-3.05467 2.03644,-4.98929 6.10933,-5.60022l5.4984,-0.81458c0,-3.76742 -1.42551,-5.70204 -4.27653,-5.70204c-1.93462,0 -3.86925,0.81458 -5.70204,2.34191l0,-1.73098c0.61093,-0.50911 1.52733,-0.9164 2.74919,-1.32369c1.12005,-0.40728 2.24009,-0.61093 3.15649,-0.61093c1.8328,0 3.25831,0.61093 4.27653,1.73098c1.01822,1.12004 1.52733,2.7492 1.52733,4.88746l0,11.50591l-1.73097,0zm-9.87675,-4.582c0,1.12004 0.40729,2.03644 1.12004,2.64737c0.71276,0.61094 1.62916,1.01823 2.85102,1.01823c1.73098,0 3.15649,-0.61094 4.27653,-1.93462c1.12005,-1.32369 1.73098,-2.85102 1.73098,-4.88747l0,-1.73097l-4.88746,0.71275c-1.93462,0.30547 -3.25831,0.71276 -3.97107,1.32369c-0.81457,0.61093 -1.12004,1.52733 -1.12004,2.85102z" id="svg_3" stroke="null"/>
    <path fill="#008272" d="m143.23156,37.11684l0,-3.25831l-0.10182,0c-0.61093,1.12004 -1.42551,2.03644 -2.54555,2.64737c-1.12005,0.61094 -2.44374,1.01823 -3.76742,1.01823c-2.24009,0 -3.97107,-0.81458 -5.39658,-2.44374c-1.32369,-1.62915 -2.03644,-3.76742 -2.03644,-6.51661c0,-1.8328 0.30546,-3.46196 1.01822,-4.98929c0.71275,-1.42551 1.62916,-2.64738 2.85102,-3.46195s2.64738,-1.22187 4.27653,-1.22187c2.64738,0 4.582,1.12004 5.70204,3.25831l0.10183,0l0,-11.20044l1.62915,0l0,26.27012l-1.73098,0l0,-0.10182zm0,-10.69133c0,-1.73098 -0.50911,-3.15649 -1.62915,-4.27653c-1.12005,-1.12005 -2.44374,-1.62916 -4.17471,-1.62916c-1.8328,0 -3.46196,0.71276 -4.582,2.13827s-1.8328,3.36013 -1.8328,5.80386c0,2.34191 0.50911,4.17471 1.52733,5.60022c1.01823,1.42551 2.44374,2.03644 4.27654,2.03644c1.93462,0 3.46195,-0.61093 4.58199,-1.8328c1.12005,-1.22186 1.73098,-2.74919 1.73098,-4.68382l0,-3.15648l0.10182,0z" id="svg_4" stroke="null"/>
    <path fill="#008272" d="m149.54454,36.40408l0,-1.93462c0.50911,0.50911 1.22186,0.81458 2.13826,1.22187c0.9164,0.30546 1.62916,0.50911 2.34191,0.50911c2.7492,0 4.17471,-1.12005 4.17471,-3.36013c0,-0.71276 -0.30547,-1.42551 -0.81458,-1.93463c-0.50911,-0.50911 -1.52733,-1.12004 -3.05466,-1.83279c-1.62916,-0.71276 -2.7492,-1.42551 -3.46196,-2.13827c-0.71275,-0.81458 -1.12004,-1.73098 -1.12004,-2.95284c0,-1.42551 0.50911,-2.54556 1.62916,-3.46196c1.12004,-0.91639 2.44373,-1.32368 4.07288,-1.32368c1.52733,0 2.85102,0.30546 3.86924,0.9164l0,1.83279c-1.32368,-0.81457 -2.64737,-1.32368 -4.07288,-1.32368c-1.12005,0 -2.13827,0.30546 -2.85102,0.9164c-0.71276,0.61093 -1.12005,1.42551 -1.12005,2.34191c0,0.71275 0.10182,1.22186 0.30547,1.62915c0.20364,0.40729 0.61093,0.71276 1.12004,1.12004c0.50911,0.30547 1.22187,0.71276 2.24009,1.12005c1.93462,0.81458 3.15649,1.62915 3.86924,2.34191c0.71276,0.71275 1.01822,1.62915 1.01822,2.85102c0,1.42551 -0.50911,2.64738 -1.62915,3.56378c-1.12004,0.91639 -2.54555,1.32368 -4.27653,1.32368c-1.8328,-0.20364 -3.25831,-0.61093 -4.37835,-1.42551z" id="svg_5" stroke="null"/>
   </g>
   <path fill="#008272" d="m98.22617,29.37835l0,-2.54555c0,-1.42551 -0.50911,-2.54556 -1.42551,-3.56378c-0.9164,-0.9164 -2.13827,-1.42551 -3.46196,-1.42551c-1.73097,0 -3.05466,0.61093 -4.07288,1.8328c-0.9164,1.22187 -1.42551,2.95284 -1.42551,5.19293c0,1.93462 0.50911,3.46195 1.42551,4.582c0.9164,1.12004 2.13826,1.73098 3.6656,1.73098c1.52733,0 2.85102,-0.50912 3.76742,-1.62916c1.01822,-1.01822 1.52733,-2.44373 1.52733,-4.17471m2.7492,6.4148c0,6.31297 -3.05467,9.57128 -9.164,9.57128c-2.13826,0 -3.97106,-0.40729 -5.60022,-1.22187l0.71276,-2.44373c1.73097,0.9164 3.05466,1.22187 4.88746,1.22187c4.27653,0 6.4148,-2.24009 6.4148,-6.82209l0,-1.93462l-0.10182,0c-1.32369,2.24009 -3.25831,3.36013 -5.90569,3.36013c-1.42551,0 -2.64738,-0.30546 -3.76742,-1.01822c-1.12004,-0.71275 -1.93462,-1.73098 -2.54555,-2.95284c-0.61094,-1.32369 -0.9164,-2.7492 -0.9164,-4.48018c0,-2.95284 0.71275,-5.29475 2.13826,-7.02573c1.42551,-1.73097 3.36013,-2.64737 5.80387,-2.64737c2.34191,0 4.07288,0.9164 5.19293,2.85102l0.10182,0l0,-2.34191l2.7492,0l0,15.88426zm-19.54986,-9.164c0,-2.24009 -0.50911,-4.07288 -1.52733,-5.29475c-1.01822,-1.22187 -2.44373,-1.8328 -4.37835,-1.8328c-2.44374,0 -4.37836,1.12005 -5.70204,3.25831l-0.10183,0l0,-2.85102l-2.74919,0l0,17.30977l2.74919,0l0,-9.87675c0,-1.62916 0.50911,-2.95285 1.42551,-3.97107c0.9164,-1.01822 2.03645,-1.52733 3.46196,-1.52733c2.64737,0 4.07288,1.8328 4.07288,5.4984l0,9.87675l2.7492,0l0,-10.58951zm-19.04074,-6.72026l-2.7492,0l0,17.30977l2.7492,0l0,-17.30977zm0.50911,-5.80386c0,-0.50911 -0.20365,-0.9164 -0.50911,-1.22187c-0.30547,-0.30547 -0.81458,-0.50911 -1.32369,-0.50911s-1.01822,0.10182 -1.32369,0.40729c-0.30546,0.40729 -0.50911,0.81458 -0.50911,1.32369c0,0.50911 0.20364,1.01822 0.50911,1.32368c0.30547,0.30547 0.81458,0.50912 1.32369,0.50912c0.50911,0 0.9164,-0.20365 1.32369,-0.50912c0.30546,-0.40728 0.50911,-0.81457 0.50911,-1.32368m-19.14257,11.70955l0,8.7567l3.86924,0c1.73098,0 2.95285,-0.40729 3.86925,-1.22186c0.9164,-0.81458 1.42551,-1.93463 1.42551,-3.25831c0,-2.85102 -1.93462,-4.27653 -5.90569,-4.27653l-3.25831,0zm0,-10.48769l0,7.84031l2.95285,0c1.52733,0 2.74919,-0.40729 3.66559,-1.12005c0.9164,-0.71275 1.32369,-1.83279 1.32369,-3.15648c0,-2.34191 -1.52733,-3.56378 -4.68382,-3.56378l-3.25831,0zm-2.85102,21.89177l0,-24.43732l6.92391,0c2.13826,0 3.76742,0.50911 4.98928,1.52733c1.22187,1.01822 1.8328,2.34191 1.8328,4.07289c0,1.42551 -0.40729,2.54555 -1.12004,3.56377c-0.71276,1.01822 -1.8328,1.73098 -3.05467,2.13827l0,0.10182c1.62916,0.20364 2.95285,0.81458 3.97107,1.8328c1.01822,1.01822 1.52733,2.44373 1.52733,4.07288c0,2.13827 -0.71275,3.76742 -2.24009,5.09111c-1.52733,1.42551 -3.46195,2.03645 -5.70204,2.03645l-7.12755,0z" id="svg_6" stroke="null"/>
   <polygon fill="#008272" points="10.65910816192627,18.076091766357422 14.121061325073242,26.83279800415039 19.823101043701172,29.480173110961914 8.317197799682617,36.09861373901367 8.317197799682617,7.486587285995483 0.17142488062381744,4.635566711425781 0.17142488062381744,40.782432556152344 8.317197799682617,45.36443328857422 28.681629180908203,33.65488243103027 28.681629180908203,24.38906478881836 " id="svg_7" stroke="null"/>
  </g>
 </g>
</svg>