<svg xmlns="http://www.w3.org/2000/svg" xmlns:xlink="http://www.w3.org/1999/xlink" viewBox="0 0 240 90"><defs><style>.cls-1{clip-path:url(#clip-path);filter:url(#luminosity-invert);}.cls-2{fill:none;}.cls-3{isolation:isolate;}.cls-4{clip-path:url(#clip-path-2);}.cls-5{fill:url(#linear-gradient);}.cls-6{clip-path:url(#clip-path-3);}.cls-7{mix-blend-mode:multiply;}.cls-8{clip-path:url(#clip-path-4);}.cls-9{fill:#ededee;}.cls-10{clip-path:url(#clip-path-6);}.cls-11{clip-path:url(#clip-path-7);}.cls-12{fill:url(#linear-gradient-2);}.cls-13{mask:url(#mask);}.cls-14{opacity:0.9;}.cls-15{clip-path:url(#clip-path-8);}.cls-16{fill:#fff;}.cls-17{clip-path:url(#clip-path-10);}.cls-18{clip-path:url(#clip-path-11);}.cls-19{fill:url(#linear-gradient-3);}</style><clipPath id="clip-path"><rect class="cls-2" x="51.92" y="31.84" width="24.27" height="16.64"/></clipPath><clipPath id="clip-path-2"><path class="cls-2" d="M52.72,34.39c-2.4,3.32.73,8.59,7,11.77S73,49.24,75.38,45.94s-.73-8.59-7-11.78a20.55,20.55,0,0,0-9.07-2.32c-2.93,0-5.38.86-6.61,2.55"/></clipPath><linearGradient id="linear-gradient" x1="-421.15" y1="282.12" x2="-419.31" y2="282.12" gradientTransform="matrix(4.04, 0, 0, -4.04, 1766.23, 1180.19)" gradientUnits="userSpaceOnUse"><stop offset="0" stop-color="#fff"/><stop offset="0.11" stop-color="#fafafa"/><stop offset="0.24" stop-color="#ebebeb"/><stop offset="0.39" stop-color="#d2d2d2"/><stop offset="0.55" stop-color="#b0afaf"/><stop offset="0.71" stop-color="#848282"/><stop offset="0.88" stop-color="#4f4b4c"/><stop offset="1" stop-color="#231f20"/></linearGradient><clipPath id="clip-path-3"><rect class="cls-2" x="29.65" y="18.5" width="180" height="55.26"/></clipPath><clipPath id="clip-path-4"><rect class="cls-2" x="34.35" y="31.73" width="43.9" height="28.55"/></clipPath><clipPath id="clip-path-6"><rect class="cls-2" x="29.65" y="30.79" width="48.66" height="40.69"/></clipPath><clipPath id="clip-path-7"><path class="cls-2" d="M45.24,63.41c-5-2.22-6.71-8.22-3.88-13.39s9.16-7.57,14.13-5.35,6.71,8.21,3.88,13.39A11.85,11.85,0,0,1,49.2,64.24a9.67,9.67,0,0,1-4-.83M57.05,30.79A30.5,30.5,0,0,0,40.28,36c-11.1,7.52-14,20.39-6.4,28.74,4,4.41,10.12,6.68,16.64,6.72h.37a30.56,30.56,0,0,0,16.79-5.23c6.88-4.67,10.6-11.38,10.63-17.8v-.19a15.92,15.92,0,0,0-4.22-10.75c-4-4.41-10.11-6.68-16.63-6.72Z"/></clipPath><linearGradient id="linear-gradient-2" x1="-386.83" y1="352.33" x2="-385" y2="352.33" gradientTransform="matrix(-26.52, 0, 0, 26.52, -10180.61, -9292.79)" gradientUnits="userSpaceOnUse"><stop offset="0" stop-color="#ed2924"/><stop offset="0.25" stop-color="#e52825"/><stop offset="0.64" stop-color="#cf2429"/><stop offset="1" stop-color="#b4202d"/></linearGradient><filter id="luminosity-invert" filterUnits="userSpaceOnUse" color-interpolation-filters="sRGB"><feColorMatrix values="-1 0 0 0 1 0 -1 0 0 1 0 0 -1 0 1 0 0 0 1 0"/></filter><mask id="mask" x="42.7" y="19.88" width="42.71" height="41.43" maskUnits="userSpaceOnUse"><g class="cls-1"><g class="cls-3"><g class="cls-4"><rect class="cls-5" x="49.56" y="24.33" width="28.97" height="32.53" transform="translate(-3.32 75.4) rotate(-59.69)"/></g></g></g></mask><clipPath id="clip-path-8"><rect class="cls-2" x="51.92" y="31.84" width="24.27" height="16.64"/></clipPath><clipPath id="clip-path-10"><rect class="cls-2" x="34.03" y="18.5" width="50.3" height="41.77"/></clipPath><clipPath id="clip-path-11"><path class="cls-2" d="M45.63,44.36c-2-7.94,4-15.36,13.49-16.56S77.88,32.05,79.89,40s-4,15.36-13.48,16.56a21.24,21.24,0,0,1-2.63.17c-8.5,0-16.32-5.16-18.15-12.36M57.73,18.5a30,30,0,0,0-3.78.24C40.37,20.47,31.7,31.12,34.59,42.52S50.84,61.76,64.42,60,86.67,47.65,83.78,36.25C81.16,25.91,69.93,18.5,57.73,18.5Z"/></clipPath><linearGradient id="linear-gradient-3" x1="-391.11" y1="331.72" x2="-389.28" y2="331.72" gradientTransform="matrix(25.87, 0, 0, -25.87, 10155.97, 8622.21)" gradientUnits="userSpaceOnUse"><stop offset="0" stop-color="#b4202d"/><stop offset="0.99" stop-color="#ed2924"/><stop offset="1" stop-color="#ed2924"/></linearGradient></defs><title>microsoft-advertising_logo_240x90_web</title><g class="cls-3"><g id="Export"><g class="cls-6"><path d="M111.26,46.09h-2.08V34.16c0-.94,0-2.09.17-3.45h0a13,13,0,0,1-.53,1.73l-6.06,13.65h-1L95.62,32.54a9.93,9.93,0,0,1-.53-1.83h0c.06.71.1,1.87.1,3.47V46.09h-2V28.32h2.75l5.45,12.39a15.14,15.14,0,0,1,.81,2.13h.08c.36-1,.64-1.7.86-2.18l5.56-12.34h2.62Z"/><path d="M117.51,28.86a1.28,1.28,0,0,1-.39.94,1.31,1.31,0,0,1-1,.38,1.29,1.29,0,0,1-.93-.37,1.34,1.34,0,0,1,0-1.89,1.35,1.35,0,0,1,1.88,0,1.24,1.24,0,0,1,.39.94m-.34,17.23h-2V33.4h2Z"/><path d="M129.32,45.51a6.62,6.62,0,0,1-3.48.89,5.7,5.7,0,0,1-4.4-1.81,6.38,6.38,0,0,1-1.64-4.53A7.12,7.12,0,0,1,121.59,35a6.28,6.28,0,0,1,4.82-1.92,6.42,6.42,0,0,1,2.93.65v2.08a5.14,5.14,0,0,0-3-1,4.08,4.08,0,0,0-3.16,1.35,5.24,5.24,0,0,0-1.27,3.69,5,5,0,0,0,1.17,3.51,4,4,0,0,0,3.14,1.28,5.13,5.13,0,0,0,3.12-1.09Z"/><path d="M138.5,35.46a2.45,2.45,0,0,0-1.55-.41,2.53,2.53,0,0,0-2.08,1.11,5.58,5.58,0,0,0-1,3.46v6.47h-2V33.4h2V36H134a4.45,4.45,0,0,1,1.37-2.15,3.05,3.05,0,0,1,1.94-.69,3.16,3.16,0,0,1,1.22.18Z"/><path d="M151.4,39.7a6.87,6.87,0,0,1-1.71,4.87,6,6,0,0,1-4.61,1.83,5.82,5.82,0,0,1-4.53-1.83,6.6,6.6,0,0,1-1.64-4.68,6.79,6.79,0,0,1,1.86-5.11,6.32,6.32,0,0,1,4.61-1.69,5.7,5.7,0,0,1,4.43,1.76,7,7,0,0,1,1.59,4.85m-2.08.07a5.46,5.46,0,0,0-1.11-3.71,3.73,3.73,0,0,0-3-1.23,3.91,3.91,0,0,0-3,1.24,5.38,5.38,0,0,0-1.2,3.75,5.12,5.12,0,0,0,1.15,3.56,3.94,3.94,0,0,0,3.09,1.28,3.71,3.71,0,0,0,3.06-1.3,5.58,5.58,0,0,0,1-3.59"/><path d="M161,42.69a3.27,3.27,0,0,1-1.16,2.59,5.07,5.07,0,0,1-3.48,1.12,6.23,6.23,0,0,1-3.15-.77V43.45a5.07,5.07,0,0,0,3.29,1.21c1.62,0,2.42-.59,2.42-1.77a1.59,1.59,0,0,0-.53-1.22,8.42,8.42,0,0,0-2.09-1.17A6.47,6.47,0,0,1,154,39.06a3.24,3.24,0,0,1-.81-2.29,3.31,3.31,0,0,1,1.25-2.63,4.86,4.86,0,0,1,3.23-1,6,6,0,0,1,2.71.6v2a4.78,4.78,0,0,0-2.87-.9,2.46,2.46,0,0,0-1.63.5,1.57,1.57,0,0,0-.6,1.27,1.68,1.68,0,0,0,.5,1.31A7.37,7.37,0,0,0,157.69,39,7.54,7.54,0,0,1,160,40.36a3.15,3.15,0,0,1,.93,2.33"/><path d="M175,39.7a6.87,6.87,0,0,1-1.71,4.87,6,6,0,0,1-4.61,1.83,5.82,5.82,0,0,1-4.53-1.83,6.64,6.64,0,0,1-1.64-4.68,6.79,6.79,0,0,1,1.86-5.11,6.32,6.32,0,0,1,4.61-1.69,5.7,5.7,0,0,1,4.43,1.76A7,7,0,0,1,175,39.7m-2.08.07a5.46,5.46,0,0,0-1.11-3.71,3.71,3.71,0,0,0-3-1.23,3.93,3.93,0,0,0-3,1.24,5.38,5.38,0,0,0-1.2,3.75,5.16,5.16,0,0,0,1.15,3.56,3.94,3.94,0,0,0,3.09,1.28,3.69,3.69,0,0,0,3.06-1.3,5.58,5.58,0,0,0,1-3.59"/><path d="M183.4,29.09a2.75,2.75,0,0,0-1.35-.33c-1.42,0-2.13.89-2.13,2.69V33.4h3v1.73h-3v11h-2v-11h-2.16V33.4h2.16v-2a4.24,4.24,0,0,1,1.3-3.29,4.43,4.43,0,0,1,4.21-.8Z"/><path d="M190.91,46a3.79,3.79,0,0,1-1.91.41c-2.21,0-3.32-1.24-3.32-3.74V35.12H183.5V33.4h2.18V30.31l2-.66V33.4h3.2v1.72h-3.2v7.16a3,3,0,0,0,.43,1.82,1.77,1.77,0,0,0,1.45.54,2.14,2.14,0,0,0,1.32-.41Z"/><path d="M106.88,67.81h-2.3l-1.87-5H95.16l-1.77,5h-2.3L97.88,50H100ZM102,61,99.23,53.4a9.56,9.56,0,0,1-.29-1.2h0a6,6,0,0,1-.27,1.2L95.86,61Z"/><path d="M119.44,67.81h-2V65.65h0a5.11,5.11,0,0,1-8.13.81,6.91,6.91,0,0,1-1.49-4.69,7.66,7.66,0,0,1,1.59-5.07,5.22,5.22,0,0,1,4.22-1.89,4.1,4.1,0,0,1,3.81,2.06h0V49h2Zm-2-5.74V60.2a3.6,3.6,0,0,0-1-2.57,3.43,3.43,0,0,0-2.6-1.09,3.52,3.52,0,0,0-2.92,1.36,6,6,0,0,0-1.07,3.76,5.28,5.28,0,0,0,1.1,3.56,3.39,3.39,0,0,0,2.66,1.16,3.53,3.53,0,0,0,2.81-1.26,4.63,4.63,0,0,0,1-3.05"/><path d="M133,55.12,128,67.81h-2l-4.79-12.69h2.24l3.22,9.2a9.08,9.08,0,0,1,.42,1.79h.06a7.89,7.89,0,0,1,.4-1.72l3.38-9.27Z"/><path d="M144.79,62h-8.95A4.69,4.69,0,0,0,137,65.24a3.93,3.93,0,0,0,3,1.14A6.23,6.23,0,0,0,143.9,65v1.9a7.32,7.32,0,0,1-4.41,1.22,5.35,5.35,0,0,1-4.12-1.63,6.93,6.93,0,0,1-1.64-5,6.92,6.92,0,0,1,1.77-4.94,5.39,5.39,0,0,1,4.07-1.76,4.73,4.73,0,0,1,3.94,1.72,6.85,6.85,0,0,1,1.28,4.37Zm-2.08-1.72a4.18,4.18,0,0,0-.81-2.7,2.9,2.9,0,0,0-2.36-1,3.3,3.3,0,0,0-2.44,1,4.63,4.63,0,0,0-1.24,2.68Z"/><path d="M153.88,57.18a2.49,2.49,0,0,0-1.55-.41,2.52,2.52,0,0,0-2.08,1.11,5.58,5.58,0,0,0-1,3.46v6.47h-2V55.12h2v2.61h.05a4.48,4.48,0,0,1,1.38-2.14,3,3,0,0,1,1.94-.7,3.2,3.2,0,0,1,1.22.18Z"/><path d="M162.2,67.68a3.87,3.87,0,0,1-1.91.41q-3.31,0-3.32-3.74V56.84h-2.18V55.12H157V52c.65-.2,1.32-.42,2-.66v3.76h3.2v1.72H159V64a2.94,2.94,0,0,0,.44,1.82,1.75,1.75,0,0,0,1.45.54A2.17,2.17,0,0,0,162.2,66Z"/><path d="M166.79,50.57a1.3,1.3,0,0,1-.39,1,1.38,1.38,0,0,1-1.89,0,1.27,1.27,0,0,1-.39-1,1.24,1.24,0,0,1,.39-.93,1.31,1.31,0,0,1,.94-.38,1.35,1.35,0,0,1,1,.38,1.24,1.24,0,0,1,.39.93m-.35,17.24h-2V55.12h2Z"/><path d="M177,64.41A3.31,3.31,0,0,1,175.8,67a5.1,5.1,0,0,1-3.48,1.11,6.21,6.21,0,0,1-3.14-.76V65.17a5.05,5.05,0,0,0,3.29,1.21c1.61,0,2.42-.59,2.42-1.77a1.6,1.6,0,0,0-.54-1.23,8.44,8.44,0,0,0-2.07-1.16A6.43,6.43,0,0,1,170,60.78a3.24,3.24,0,0,1-.81-2.29,3.28,3.28,0,0,1,1.25-2.63,4.85,4.85,0,0,1,3.22-1,6,6,0,0,1,2.72.6v2a4.74,4.74,0,0,0-2.87-.91,2.52,2.52,0,0,0-1.63.5,1.57,1.57,0,0,0-.61,1.28,1.69,1.69,0,0,0,.51,1.31,7.13,7.13,0,0,0,1.91,1,7.54,7.54,0,0,1,2.34,1.4,3.13,3.13,0,0,1,.93,2.33"/><path d="M181.82,50.57a1.35,1.35,0,0,1-2.28,1,1.27,1.27,0,0,1-.39-1,1.24,1.24,0,0,1,.39-.93,1.31,1.31,0,0,1,.94-.38,1.35,1.35,0,0,1,1,.38,1.28,1.28,0,0,1,.39.93m-.35,17.24h-2V55.12h2Z"/><path d="M195.6,67.81h-2V60.57c0-2.68-1-4-2.95-4a3.2,3.2,0,0,0-2.52,1.15,4.22,4.22,0,0,0-1,2.88v7.24h-2V55.12h2v2.1h0a4.58,4.58,0,0,1,4.17-2.41,3.85,3.85,0,0,1,3.19,1.36A6,6,0,0,1,195.6,60Z"/><path d="M209.65,66.79q0,7-6.69,7a9.15,9.15,0,0,1-4.11-.87v-2a8.39,8.39,0,0,0,4.08,1.2q4.69,0,4.69-5V65.67h-.05a5.11,5.11,0,0,1-8.14.77A6.73,6.73,0,0,1,198,61.87a7.87,7.87,0,0,1,1.53-5.1,5.17,5.17,0,0,1,4.28-2,4.13,4.13,0,0,1,3.8,2.06h.05V55.12h2Zm-2-4.72V60.2a3.61,3.61,0,0,0-1-2.55,3.38,3.38,0,0,0-2.58-1.11,3.54,3.54,0,0,0-2.92,1.33A6.06,6.06,0,0,0,200,61.75a5.23,5.23,0,0,0,1,3.37,3.31,3.31,0,0,0,2.71,1.26,3.54,3.54,0,0,0,2.78-1.21,4.51,4.51,0,0,0,1.07-3.1"/><path d="M193.92,36a1.68,1.68,0,0,1-1.78-1.7,1.72,1.72,0,0,1,1.79-1.71,1.68,1.68,0,0,1,1.77,1.71,1.72,1.72,0,0,1-1.78,1.7m0-3.08a1.38,1.38,0,1,0,1.4,1.38,1.35,1.35,0,0,0-1.4-1.38m.23,2.38-.12-.55-.16-.19h-.16v.74h-.61V33.2h.83c.74,0,.88.32.88.61a.55.55,0,0,1-.45.53h0l.29.27.22.64Zm-.25-1.57h-.19v.39h.23a.19.19,0,0,0,.21-.2c0-.1-.07-.19-.25-.19"/><g class="cls-7"><g class="cls-8"><g class="cls-8"><path class="cls-9" d="M66.42,56.55a20.85,20.85,0,0,1-6.32-.16,11.88,11.88,0,0,1-.74,1.69,11.69,11.69,0,0,1-1.46,2.07A29.5,29.5,0,0,0,64.4,60a25.86,25.86,0,0,0,12.66-5.12,18.49,18.49,0,0,0,1.18-5.18,16.41,16.41,0,0,1-11.82,6.81M34.35,41.44c.07.4.15.81.26,1.21a20.7,20.7,0,0,0,5.81,9.68,11.25,11.25,0,0,1,.94-2.3,12.07,12.07,0,0,1,4.58-4.66c-.1-.3-.19-.61-.27-.92a12.41,12.41,0,0,1,4.2-12.72A30.34,30.34,0,0,0,40.26,36a26.81,26.81,0,0,0-5.91,5.4"/></g></g></g><g class="cls-7"><g class="cls-10"><g class="cls-11"><rect class="cls-12" x="19.3" y="19.12" width="66.03" height="64.02" transform="translate(-20.36 42.76) rotate(-37.78)"/></g></g></g><g class="cls-13"><g class="cls-14"><g class="cls-15"><g class="cls-15"><path class="cls-16" d="M75.38,45.93C73,49.24,66,49.34,59.7,46.16s-9.38-8.46-7-11.77S62.14,31,68.4,34.16s9.38,8.46,7,11.77"/></g></g></g></g><g class="cls-7"><g class="cls-17"><g class="cls-18"><rect class="cls-19" x="24.46" y="5.4" width="69.46" height="69.46" transform="translate(-11.04 53.6) rotate(-45)"/></g></g></g></g></g></g></svg>