<?xml version="1.0"?>
<svg width="160" height="50.00000000000001" xmlns="http://www.w3.org/2000/svg" xmlns:svg="http://www.w3.org/2000/svg">
 <g>
  <title>Layer 1</title>
  <g stroke="null" id="svg_1">
   <circle stroke="null" id="svg_2" r="2.915897" cy="12.864714" cx="122.623573" fill="#231F20"/>
   <circle stroke="null" id="svg_3" r="1.715233" cy="12.864714" cx="122.623573" fill="#6DBAE1"/>
   <circle stroke="null" id="svg_4" r="2.915897" cy="9.348483" cx="139.432871" fill="#231F20"/>
   <circle stroke="null" id="svg_5" r="1.715233" cy="9.348483" cx="139.432871" fill="#6DBAE1"/>
   <circle stroke="null" id="svg_6" r="2.915897" cy="18.181941" cx="139.432871" fill="#231F20"/>
   <circle stroke="null" id="svg_7" r="1.715233" cy="18.181941" cx="139.432871" fill="#6DBAE1"/>
   <g stroke="null" id="svg_8">
    <path stroke="null" id="svg_9" d="m22.196595,25.557449c3.00166,0 5.402989,1.029141 7.118223,3.087422c1.715234,2.058281 2.48709,4.97418 2.48709,8.833458c0,3.773516 -0.857617,6.775176 -2.572852,8.833458c-1.715234,2.144043 -4.030801,3.173184 -7.032461,3.173184c-1.543711,0 -2.915899,-0.257285 -4.116563,-0.857617c-1.286426,-0.51457 -2.315567,-1.372188 -3.173184,-2.572852l-0.257285,0l-0.771856,3.00166l-2.48709,0l0,-32.760979l3.516231,0l0,7.97584c0,1.800996 -0.085762,3.430469 -0.171523,4.802657l0.171523,0c1.629473,-2.315567 4.030801,-3.516231 7.289747,-3.516231zm-0.51457,3.00166c-2.401328,0 -4.116563,0.686094 -5.145703,2.058281c-1.029141,1.372188 -1.543711,3.687754 -1.543711,6.9467c0,3.258946 0.51457,5.574512 1.629473,6.9467c1.114902,1.372188 2.830137,2.058281 5.231465,2.058281c2.144043,0 3.773516,-0.771856 4.802657,-2.315567c1.029141,-1.543711 1.543711,-3.859278 1.543711,-6.775176c0,-3.00166 -0.51457,-5.231465 -1.543711,-6.775176c-1.200664,-1.457949 -2.830137,-2.144043 -4.97418,-2.144043z" fill="#231F20"/>
    <path stroke="null" id="svg_10" d="m48.954252,25.557449c1.029141,0 1.97252,0.085762 2.744375,0.257285l-0.51457,3.258946c-0.943379,-0.171523 -1.800996,-0.343047 -2.572852,-0.343047c-1.886758,0 -3.430469,0.771856 -4.802657,2.315567c-1.372188,1.543711 -1.97252,3.430469 -1.97252,5.660274l0,12.43545l-3.516231,0l0,-23.155665l2.915899,0l0.428809,4.288086l0.171523,0c0.857617,-1.543711 1.886758,-2.658613 3.087422,-3.516231c1.286426,-0.771856 2.572852,-1.200664 4.030801,-1.200664z" fill="#231F20"/>
    <path stroke="null" id="svg_11" d="m70.823492,49.141923l-0.686094,-3.258946l-0.171523,0c-1.114902,1.457949 -2.315567,2.401328 -3.430469,2.915899c-1.114902,0.51457 -2.572852,0.771856 -4.288086,0.771856c-2.315567,0 -4.116563,-0.600332 -5.402989,-1.800996c-1.286426,-1.200664 -1.97252,-2.830137 -1.97252,-5.059942c0,-4.631133 3.773516,-7.118223 11.234786,-7.375508l3.945039,-0.085762l0,-1.457949c0,-1.800996 -0.428809,-3.173184 -1.200664,-4.030801c-0.771856,-0.857617 -2.058281,-1.286426 -3.773516,-1.286426c-1.886758,0 -4.116563,0.600332 -6.517891,1.800996l-1.114902,-2.658613c1.114902,-0.600332 2.401328,-1.114902 3.773516,-1.457949c1.372188,-0.343047 2.744375,-0.51457 4.116563,-0.51457c2.744375,0 4.802657,0.600332 6.089082,1.800996c1.372188,1.200664 1.97252,3.173184 1.97252,5.917559l0,15.780157l-2.572852,0zm-7.97584,-2.48709c2.144043,0 3.859278,-0.600332 5.145703,-1.800996c1.286426,-1.200664 1.886758,-2.830137 1.886758,-5.059942l0,-2.058281l-3.516231,0.171523c-2.744375,0.085762 -4.802657,0.51457 -6.003321,1.286426c-1.200664,0.771856 -1.886758,1.97252 -1.886758,3.601992c0,1.286426 0.343047,2.229805 1.114902,2.915899c0.857617,0.600332 1.886758,0.943379 3.258946,0.943379z" fill="#231F20"/>
    <path stroke="null" id="svg_12" d="m96.980818,49.141923l0,-15.008302c0,-1.886758 -0.428809,-3.258946 -1.286426,-4.202324c-0.857617,-0.943379 -2.229805,-1.372188 -4.030801,-1.372188c-2.401328,0 -4.202324,0.686094 -5.317227,1.97252c-1.114902,1.286426 -1.715234,3.430469 -1.715234,6.517891l0,12.178165l-3.516231,0l0,-23.155665l2.830137,0l0.600332,3.173184l0.171523,0c0.686094,-1.114902 1.715234,-2.058281 3.00166,-2.658613c1.286426,-0.600332 2.744375,-0.943379 4.288086,-0.943379c2.744375,0 4.888418,0.686094 6.260606,2.058281c1.372188,1.372188 2.144043,3.516231 2.144043,6.432129l0,15.094063l-3.430469,0l0,-0.085762z" fill="#231F20"/>
    <path stroke="null" id="svg_13" d="m117.392108,49.570732c-3.344707,0 -5.917559,-1.029141 -7.804317,-3.087422c-1.800996,-2.058281 -2.744375,-4.97418 -2.744375,-8.747696c0,-3.859278 0.943379,-6.860938 2.830137,-9.004981c1.886758,-2.144043 4.545371,-3.173184 7.97584,-3.173184c1.114902,0 2.229805,0.085762 3.344707,0.343047c1.114902,0.257285 1.97252,0.51457 2.658613,0.857617l-1.114902,3.00166c-0.771856,-0.343047 -1.629473,-0.600332 -2.572852,-0.771856c-0.943379,-0.171523 -1.715234,-0.343047 -2.401328,-0.343047c-4.716895,0 -7.032461,3.00166 -7.032461,9.004981c0,2.830137 0.600332,5.059942 1.715234,6.517891c1.114902,1.543711 2.830137,2.315567 5.059942,2.315567c1.886758,0 3.945039,-0.428809 5.917559,-1.286426l0,3.087422c-1.543711,0.857617 -3.430469,1.286426 -5.831797,1.286426z" fill="#231F20"/>
   </g>
   <path stroke="null" id="svg_14" d="m148.094805,30.188582c-0.343047,-1.029141 -0.857617,-1.97252 -1.629473,-2.572852c-0.686094,-0.686094 -1.629473,-1.200664 -2.658613,-1.543711c-1.029141,-0.343047 -2.315567,-0.51457 -3.687754,-0.51457c-0.857617,0 -1.629473,0.085762 -2.315567,0.257285c-0.686094,0.171523 -1.372188,0.428809 -2.058281,0.686094c-0.600332,0.343047 -1.200664,0.686094 -1.715234,1.114902c-0.51457,0.428809 -0.943379,0.943379 -1.286426,1.457949l-0.085762,0l-0.085762,0c0.085762,-0.428809 0.085762,-0.857617 0.085762,-1.372188c0,-0.51457 0,-1.029141 0,-1.629473l0,-1.114902c0.600332,-0.51457 1.029141,-1.200664 1.114902,-2.058281l4.288086,-2.658613l-1.286426,-2.058281l-3.773516,2.401328c-0.085762,-0.085762 -0.171523,-0.171523 -0.343047,-0.343047l0,-4.202324l0,-1.372188l5.402989,-3.430469l-1.286426,-2.058281l-4.202324,2.658613l-0.085762,-1.715234l-0.171523,-5.402989l-1.457949,0l-1.457949,0l-0.171523,5.402989l-0.171523,5.231465l-3.687754,-2.315567l-1.286426,2.058281l4.97418,3.173184l0,1.97252c-0.686094,0.51457 -1.114902,1.372188 -1.114902,2.315567c0,0.943379 0.428809,1.800996 1.114902,2.315567l0,7.632793l0.085762,16.380489l1.715234,0l1.715234,0l0,-6.089082l0,-6.089082c0,-1.543711 0.171523,-2.830137 0.428809,-3.859278c0.257285,-1.114902 0.686094,-1.97252 1.286426,-2.658613c0.600332,-0.686094 1.286426,-1.114902 2.144043,-1.457949c0.857617,-0.343047 1.97252,-0.51457 3.173184,-0.51457c0.943379,0 1.715234,0.085762 2.401328,0.343047c0.686094,0.257285 1.200664,0.600332 1.629473,1.029141c0.428809,0.428809 0.771856,1.029141 0.943379,1.715234c0.257285,0.686094 0.343047,1.543711 0.343047,2.48709l0,7.46127l0,7.46127l1.715234,0l1.715234,0l0,-7.547032l0,-7.547032c0.257285,-1.029141 0.085762,-2.315567 -0.257285,-3.430469z" fill="#231F20"/>
   <circle stroke="null" id="svg_15" r="1.715233" cy="22.727312" cx="131.028222" fill="#6DBAE1"/>
   <circle stroke="null" id="svg_16" r="3.173176" cy="3.602448" cx="131.028222" fill="#231F20"/>
   <circle stroke="null" id="svg_17" r="1.886755" cy="3.602448" cx="131.028222" fill="#6DBAE1"/>
  </g>
 </g>
</svg>