<?xml version="1.0" encoding="utf-8"?>
<!-- Generator: Adobe Illustrator 21.0.0, SVG Export Plug-In . SVG Version: 6.00 Build 0)  -->
<svg version="1.1" id="Layer_1" xmlns="http://www.w3.org/2000/svg" xmlns:xlink="http://www.w3.org/1999/xlink" x="0px" y="0px"
	 viewBox="0 0 200 40.7" enable-background="new 0 0 200 40.7" xml:space="preserve">
<g>
	<path fill="#5E5E5D" d="M99.8,24c3.9,0,5.7-1,5.7-4c0-2.6-1.6-3.8-4.9-3.8h-2.1V24H99.8z M101.6,36.4c3.6,0,5.4-1.3,5.4-4.2
		c0-3.1-1.8-4.8-5.4-4.8h-3.2v9H101.6z M109.5,20c0,2.3-1,4-3,5.2c2.7,0.8,4.4,3.3,4.4,6.5c0,2.6-1,5-2.7,6.5c-2.1,1.8-4.3,2-7.3,2
		h-6.4V12.4h6C106.4,12.4,109.5,15.1,109.5,20"/>
	<path fill="#5E5E5D" d="M113.9,40.1V19.2h3.5v2.4c1.2-1.9,2.8-2.7,4.9-2.8v3.9c-3.5,0.3-4.7,2-4.7,5.7v11.6H113.9z"/>
	<path fill="#5E5E5D" d="M134.3,37c3.8,0,6.8-3.1,6.8-7.4c0-4.3-3-7.3-6.9-7.3c-3.8,0-6.9,3-6.9,7.4C127.3,33.8,130.3,37,134.3,37
		 M126.4,22c2.1-2.3,4.8-3.5,7.7-3.5c3,0,5.6,1.1,7.7,3.2c2.1,2.1,3.2,4.8,3.2,7.6c0,2.9-1.1,5.7-2.9,7.7c-2.1,2.3-4.8,3.5-7.8,3.5
		c-3,0-5.6-1.1-7.7-3.3c-2-2.1-3.1-4.9-3.1-7.7C123.4,26.7,124.5,24.1,126.4,22"/>
	<path fill="#5E5E5D" d="M147.9,40.1V19.2h3.6v2.4c1.6-1.9,3.4-2.7,5.8-2.7c5.4,0,8.5,3.3,8.5,9.3v11.9h-3.8V29
		c0-4.4-1.6-6.5-5.1-6.5c-4,0-5.3,2.7-5.3,8.1v9.5H147.9z"/>
	<polygon fill="#5E5E5D" points="170.7,22.6 167.7,22.6 167.7,19.2 170.7,19.2 170.7,12.4 174.4,12.4 174.4,19.2 177.4,19.2 
		177.4,22.6 174.4,22.6 174.4,40.1 170.7,40.1 	"/>
	<path fill="#5E5E5D" d="M189.3,37c3.8,0,6.9-3.1,6.9-7.4c0-4.3-3-7.3-6.9-7.3c-3.8,0-6.9,3-6.9,7.4C182.3,33.8,185.3,37,189.3,37
		 M181.4,22c2.1-2.3,4.8-3.5,7.7-3.5c3,0,5.6,1.1,7.7,3.2c2.1,2.1,3.2,4.8,3.2,7.6c0,2.9-1.1,5.7-2.9,7.7c-2.1,2.3-4.8,3.5-7.8,3.5
		c-3,0-5.6-1.1-7.7-3.3c-2-2.1-3.1-4.9-3.1-7.7C178.4,26.7,179.5,24.1,181.4,22"/>
	<linearGradient id="SVGID_1_" gradientUnits="userSpaceOnUse" x1="51.6399" y1="0" x2="51.6399" y2="40.0833">
		<stop  offset="4.951923e-02" style="stop-color:#30B457"/>
		<stop  offset="1" style="stop-color:#005838"/>
	</linearGradient>
	<path fill="url(#SVGID_1_)" d="M87.9,3c-4.4,1.7-7.7,8.4-14.7,9.3c-0.2,0-0.3,0-0.5,0c-4-0.1-7.2-5.2-9.7-6.3
		c-1.7-0.8-3.5-1.3-5.3-1.3c-6.4,0-13.4,5.2-19.5,14.9c-2.9,4.6-3.6,7.2-5.2,9.5c-2.3,3.6-4.1,5.9-14.7,5.8c-0.6,0-1.2,0-1.9,0
		c-0.3,0-0.7,0-1.1,0C12,35,5.5,35.2,0,40.1c3.8-1.5,7.5-2,10.9-2c5.2,0,10,1,14.5,1c5.5,0,10.4-1.5,15-8.5c0.1-0.1,0.2-0.1,0.3-0.1
		c0.1,0,0.2,0.1,0.2,0.3c0,0,0.3,3.6,0.5,5.9c0.1,0.7,0.1,1.4,0.1,1.8c0.1,0.5,0.2,0.8,0.3,0.9c0.1,0.1,0.3,0.2,0.6,0.2h0.1l3.3,0
		c0.4,0,0.7-0.1,0.9-0.1c0.2-0.1,0.2-0.1,0.2-0.2c0-0.1-0.1-0.4-0.3-0.7c-0.3-0.5-0.5-0.8-0.7-1.7c-0.1-0.6-0.2-1.3-0.2-2
		c0-0.9,0.1-1.8,0.2-2.4l0-0.1c0,0,0.1-0.1,0.2-0.2c0.1-0.1,0.2-0.2,0.4-0.3c0.2-0.1,0.5-0.1,0.8-0.1c0.5,0,1.1,0.1,1.1,0.1
		c0.2,0,0.3,0.2,0.4,0.4c0.1,0.2,0.2,0.4,0.2,0.7v0c0.2,2.1,0.6,3.9,1,6c0.1,0.4,0.2,0.6,0.3,0.6c0.1,0.1,0.3,0.1,0.7,0.1l4.3,0
		c0.4-0.1,0.5-0.2,0.5-0.4c0-0.2-0.1-0.5-0.5-0.9c-0.3-0.4-0.7-1.2-1-2.1c-0.3-0.9-0.5-1.9-0.5-2.8c0-0.6,0.1-1.2,0.6-1.5
		c0.8-0.4,1.7-0.6,2.8-0.6c0.5,0,1,0,1.7,0.1c0.4,0,0.6,0.3,0.8,0.7c0.2,0.3,0.4,0.8,0.6,1.3c0.4,1.1,0.8,2.4,1.2,3.7
		c0.2,0.7,0.4,1.4,0.5,1.8c0.1,0.4,0.2,0.6,0.4,0.7c0.1,0.1,0.4,0.1,0.8,0.1l5.2,0c0.2,0,0.3-0.1,0.4-0.1c0,0,0,0,0-0.1
		c0-0.3-0.6-1.1-0.9-1.5c-0.8-1-2-4.1-2-5.7c0-0.2,0-0.4,0.1-0.5c0.2-0.7,0.9-0.9,1.7-1.1c0.8-0.2,1.6-0.3,2.2-0.3
		c0.3,0,0.5,0,0.7,0.1c0.1,0,0.1,0,0.2,0.2c0.3,0.7,0.5,2,0.7,3.4c0.2,1.5,0.3,3.1,0.4,4.3c0,0.1,0,0.3,0,0.4c0,0.1,0,0.3,0,0.4
		c0,0.2,0,0.4,0.1,0.5c0,0.1,0.1,0.1,0.3,0.1h0.1h4.8c0.4,0,0.7,0,0.9-0.1c0.2-0.1,0.2-0.1,0.2-0.3c0-0.1,0-0.3-0.1-0.5
		c-0.2-0.5-0.6-1.2-1.1-2c-0.9-1.5-1.4-4.7-1.4-8.3c0-1.2,0.1-2.5,0.2-3.8c0.1-1,1-2.1,2.1-3.5c1.1-1.3,2.5-2.8,3.7-4
		c2.7-3,3.8-6,5.8-8.4c2-2.4,5-4.2,11.3-4.7c2.3-0.2,4-1.1,4.6-2.4c0,0,0,0,0-0.1c-0.9-0.5-3-1.4-4.9-1.4C96.8,0,87.9,3,87.9,3"/>
</g>
</svg>
