<svg width="160.00000000000003" height="50" xmlns="http://www.w3.org/2000/svg" xmlns:svg="http://www.w3.org/2000/svg">
 <g>
  <title>Layer 1</title>
  <g stroke="null" id="svg_1">
   <path stroke="null" id="svg_2" d="m79.88162,27.88437c3.07775,0 4.49826,-0.78917 4.49826,-3.15667c0,-2.05184 -1.26267,-2.99884 -3.86692,-2.99884l-1.65725,0l0,6.15551l1.02592,0zm1.4205,9.70677c2.841,0 4.26151,-1.02592 4.26151,-3.31451c0,-2.44642 -1.4205,-3.78801 -4.26151,-3.78801l-2.52534,0l0,7.10251l2.52534,0zm6.23443,-12.86344c0,1.81509 -0.78917,3.15667 -2.3675,4.10367c2.13075,0.63133 3.47234,2.60425 3.47234,5.12959c0,2.05184 -0.78917,3.94584 -2.13075,5.12959c-1.65725,1.4205 -3.39342,1.57834 -5.76093,1.57834l-5.05067,0l0,-21.93887l4.73501,0c4.65609,0 7.10251,2.13075 7.10251,5.99768" fill="#5E5E5D"/>
   <path stroke="null" id="svg_3" d="m91.00889,40.58997l0,-16.49361l2.76209,0l0,1.894c0.947,-1.49942 2.20967,-2.13075 3.86692,-2.20967l0,3.07775c-2.76209,0.23675 -3.70909,1.57834 -3.70909,4.49826l0,9.15435l-2.91992,0l0,0.07892z" fill="#5E5E5D"/>
   <path stroke="null" id="svg_4" d="m107.10792,38.06463c2.99884,0 5.36634,-2.44642 5.36634,-5.83984c0,-3.39342 -2.3675,-5.76093 -5.44526,-5.76093c-2.99884,0 -5.44526,2.3675 -5.44526,5.83984c0,3.31451 2.3675,5.76093 5.52418,5.76093m-6.23443,-11.7586c1.65725,-1.81509 3.78801,-2.76209 6.07659,-2.76209c2.3675,0 4.41934,0.86808 6.07659,2.52534c1.65725,1.65725 2.52534,3.78801 2.52534,5.99768c0,2.28859 -0.86808,4.49826 -2.28859,6.07659c-1.65725,1.81509 -3.78801,2.76209 -6.15551,2.76209c-2.3675,0 -4.41934,-0.86808 -6.07659,-2.60425c-1.57834,-1.65725 -2.44642,-3.86692 -2.44642,-6.07659c-0.07892,-2.20967 0.78917,-4.26151 2.28859,-5.91876" fill="#5E5E5D"/>
   <path stroke="null" id="svg_5" d="m117.8406,40.58997l0,-16.49361l2.841,0l0,1.894c1.26267,-1.49942 2.68317,-2.13075 4.57717,-2.13075c4.26151,0 6.70793,2.60425 6.70793,7.33926l0,9.3911l-2.99884,0l0,-8.75976c0,-3.47234 -1.26267,-5.12959 -4.02476,-5.12959c-3.15667,0 -4.18259,2.13075 -4.18259,6.39226l0,7.4971l-2.91992,0z" fill="#5E5E5D"/>
   <polygon stroke="null" id="svg_6" points="135.83363342285156,26.779528617858887 133.46612548828125,26.779528617858887 133.46612548828125,24.096360206604004 135.83363342285156,24.096360206604004 135.83363342285156,18.730015754699707 138.75355529785156,18.730015754699707 138.75355529785156,24.096360206604004 141.12106323242188,24.096360206604004 141.12106323242188,26.779528617858887 138.75355529785156,26.779528617858887 138.75355529785156,40.589972496032715 135.83363342285156,40.589972496032715 " fill="#5E5E5D"/>
   <path stroke="null" id="svg_7" d="m150.51215,38.06463c2.99884,0 5.44526,-2.44642 5.44526,-5.83984c0,-3.39342 -2.3675,-5.76093 -5.44526,-5.76093c-2.99884,0 -5.44526,2.3675 -5.44526,5.83984c-0.07892,3.31451 2.28859,5.76093 5.44526,5.76093m-6.23443,-11.7586c1.65725,-1.81509 3.78801,-2.76209 6.07659,-2.76209c2.3675,0 4.41934,0.86808 6.07659,2.52534c1.65725,1.65725 2.52534,3.78801 2.52534,5.99768c0,2.28859 -0.86808,4.49826 -2.28859,6.07659c-1.65725,1.81509 -3.78801,2.76209 -6.15551,2.76209c-2.3675,0 -4.41934,-0.86808 -6.07659,-2.60425c-1.57834,-1.65725 -2.44642,-3.86692 -2.44642,-6.07659c-0.07892,-2.20967 0.78917,-4.26151 2.28859,-5.91876" fill="#5E5E5D"/>
   <linearGradient stroke="null" transform="translate(0,3.3292531967163086) translate(0.2687469720840454,0) translate(-19.125,-19.125) translate(0.7749999761581421,5.765110969543457) scale(0.7891679406166077) translate(-0.7749999761581421,-5.765110969543457) " y2="1.00343" x2="0.50039" y1="-0.00597" x1="0.50039" id="SVGID_1_">
    <stop stroke="null" stop-color="#30B457" offset="0.04952"/>
    <stop stroke="null" stop-color="#005838" offset="1"/>
   </linearGradient>
   <path stroke="null" id="svg_8" d="m70.49053,11.23292c-3.47234,1.34159 -6.07659,6.62901 -11.60077,7.33926c-0.15783,0 -0.23675,0 -0.39458,0c-3.15667,-0.07892 -5.68201,-4.10367 -7.65493,-4.97176c-1.34159,-0.63133 -2.76209,-1.02592 -4.18259,-1.02592c-5.05067,0 -10.57485,4.10367 -15.38877,11.7586c-2.28859,3.63017 -2.841,5.68201 -4.10367,7.4971c-1.81509,2.841 -3.23559,4.65609 -11.60077,4.57717c-0.4735,0 -0.947,0 -1.49942,0c-0.23675,0 -0.55242,0 -0.86808,0c-2.76209,0 -7.89168,0.15783 -12.15319,4.02476c2.99884,-1.18375 5.91876,-1.57834 8.60193,-1.57834c4.10367,0 7.89168,0.78917 11.44294,0.78917c4.34042,0 8.20735,-1.18375 11.83752,-6.70793c0.07892,-0.07892 0.15783,-0.07892 0.23675,-0.07892c0.07892,0 0.15783,0.07892 0.15783,0.23675c0,0 0.23675,2.841 0.39458,4.65609c0.07892,0.55242 0.07892,1.10484 0.07892,1.4205c0.07892,0.39458 0.15783,0.63133 0.23675,0.71025c0.07892,0.07892 0.23675,0.15783 0.4735,0.15783l0.07892,0l2.60425,0c0.31567,0 0.55242,-0.07892 0.71025,-0.07892c0.15783,-0.07892 0.15783,-0.07892 0.15783,-0.15783c0,-0.07892 -0.07892,-0.31567 -0.23675,-0.55242c-0.23675,-0.39458 -0.39458,-0.63133 -0.55242,-1.34159c-0.07892,-0.4735 -0.15783,-1.02592 -0.15783,-1.57834c0,-0.71025 0.07892,-1.4205 0.15783,-1.894l0,-0.07892c0,0 0.07892,-0.07892 0.15783,-0.15783c0.07892,-0.07892 0.15783,-0.15783 0.31567,-0.23675c0.15783,-0.07892 0.39458,-0.07892 0.63133,-0.07892c0.39458,0 0.86808,0.07892 0.86808,0.07892c0.15783,0 0.23675,0.15783 0.31567,0.31567c0.07892,0.15783 0.15783,0.31567 0.15783,0.55242l0,0c0.15783,1.65725 0.4735,3.07775 0.78917,4.73501c0.07892,0.31567 0.15783,0.4735 0.23675,0.4735c0.07892,0.07892 0.23675,0.07892 0.55242,0.07892l3.39342,0c0.31567,-0.07892 0.39458,-0.15783 0.39458,-0.31567c0,-0.15783 -0.07892,-0.39458 -0.39458,-0.71025c-0.23675,-0.31567 -0.55242,-0.947 -0.78917,-1.65725c-0.23675,-0.71025 -0.39458,-1.49942 -0.39458,-2.20967c0,-0.4735 0.07892,-0.947 0.4735,-1.18375c0.63133,-0.31567 1.34159,-0.4735 2.20967,-0.4735c0.39458,0 0.78917,0 1.34159,0.07892c0.31567,0 0.4735,0.23675 0.63133,0.55242c0.15783,0.23675 0.31567,0.63133 0.4735,1.02592c0.31567,0.86808 0.63133,1.894 0.947,2.91992c0.15783,0.55242 0.31567,1.10484 0.39458,1.4205c0.07892,0.31567 0.15783,0.4735 0.31567,0.55242c0.07892,0.07892 0.31567,0.07892 0.63133,0.07892l4.10367,0c0.15783,0 0.23675,-0.07892 0.31567,-0.07892c0,0 0,0 0,-0.07892c0,-0.23675 -0.4735,-0.86808 -0.71025,-1.18375c-0.63133,-0.78917 -1.57834,-3.23559 -1.57834,-4.49826c0,-0.15783 0,-0.31567 0.07892,-0.39458c0.15783,-0.55242 0.71025,-0.71025 1.34159,-0.86808c0.63133,-0.15783 1.26267,-0.23675 1.73617,-0.23675c0.23675,0 0.39458,0 0.55242,0.07892c0.07892,0 0.07892,0 0.15783,0.15783c0.23675,0.55242 0.39458,1.57834 0.55242,2.68317c0.15783,1.18375 0.23675,2.44642 0.31567,3.39342c0,0.07892 0,0.23675 0,0.31567c0,0.07892 0,0.23675 0,0.31567c0,0.15783 0,0.31567 0.07892,0.39458c0,0.07892 0.07892,0.07892 0.23675,0.07892l0.07892,0l3.78801,0c0.31567,0 0.55242,0 0.71025,-0.07892c0.15783,-0.07892 0.15783,-0.07892 0.15783,-0.23675c0,-0.07892 0,-0.23675 -0.07892,-0.39458c-0.15783,-0.39458 -0.4735,-0.947 -0.86808,-1.57834c-0.71025,-1.18375 -1.10484,-3.70909 -1.10484,-6.55009c0,-0.947 0.07892,-1.97292 0.15783,-2.99884c0.07892,-0.78917 0.78917,-1.65725 1.65725,-2.76209c0.86808,-1.02592 1.97292,-2.20967 2.91992,-3.15667c2.13075,-2.3675 2.99884,-4.73501 4.57717,-6.62901c1.57834,-1.894 3.94584,-3.31451 8.9176,-3.70909c1.81509,-0.15783 3.15667,-0.86808 3.63017,-1.894c0,0 0,0 0,-0.07892c-0.71025,-0.39458 -2.3675,-1.10484 -3.86692,-1.10484c-1.26267,-0.15783 -8.28626,2.13075 -8.28626,2.13075" fill="url(#SVGID_1_)"/>
  </g>
 </g>
</svg>