<svg width="160" height="50" xmlns="http://www.w3.org/2000/svg" xmlns:svg="http://www.w3.org/2000/svg">
 <g>
  <title>Layer 1</title>
  <g stroke="null" id="svg_1">
   <g stroke="null" id="agBixM.tif">
    <g stroke="null" id="svg_2">
     <path stroke="null" id="svg_3" d="m43.12956,7.65118c1.33967,1.10326 1.81249,2.67933 2.36412,4.25541c3.23096,9.53528 -3.78259,19.9374 -13.71188,20.33141c-3.30977,0.15761 -6.38312,-0.55163 -9.14126,-2.28531c-0.70924,-0.47282 -1.26086,-1.18206 -2.20651,-1.33967c-0.15761,-0.15761 -0.31522,-0.31522 -0.47282,-0.47282c-1.41847,-1.57608 -3.15216,-2.0489 -5.12226,-1.41847c-2.0489,0.63043 -3.23096,2.0489 -3.46737,4.25541c-0.23641,2.0489 0.63043,3.46737 2.12771,4.72824c0.0788,0.0788 0.15761,0.15761 0.23641,0.23641l0,-0.0788c-0.0788,0.63043 0.31522,1.10326 0.47282,1.57608c1.10326,3.30977 -1.10326,6.46192 -4.64943,6.46192c-0.86684,0 -1.65488,-0.31522 -2.52173,-0.0788c-4.57063,-3.38857 -6.46192,-8.11681 -6.22551,-13.71188c0.39402,-7.40757 7.24996,-14.18471 14.49992,-14.18471c3.38857,-0.15761 6.46192,0.47282 9.37767,2.36412c0.55163,0.31522 0.94565,0.94565 1.65488,0.86684c0.86684,1.33967 1.9701,2.36412 3.54618,2.60053c1.9701,0.23641 3.70378,-0.39402 4.88584,-1.9701c1.33967,-1.73369 1.26086,-3.70378 0.23641,-5.59508c0.31522,0.0788 0.70924,0.0788 0.94565,0.23641c2.60053,1.18206 5.35867,-0.31522 6.69833,-2.52173c0.86684,-1.33967 0.63043,-2.75814 0.47282,-4.25541z" fill="#26BC6C"/>
     <path stroke="null" id="svg_4" d="m26.34433,19.23536c-0.70924,0 -1.18206,-0.55163 -1.65488,-0.86684c-2.83694,-1.81249 -5.9891,-2.52173 -9.37767,-2.36412c0.31522,-3.62498 1.49727,-6.77714 3.9402,-9.45647c2.36412,-2.60053 5.27986,-4.17661 8.66843,-4.88584c4.49182,-0.86684 8.58963,0.23641 12.29341,2.83694c1.18206,0.86684 2.20651,1.89129 2.91575,3.15216c0.15761,1.41847 0.47282,2.91575 -0.39402,4.25541c-1.33967,2.20651 -4.0978,3.70378 -6.69833,2.52173c-0.31522,-0.15761 -0.63043,-0.15761 -0.94565,-0.23641c-0.78804,-0.78804 -1.49727,-1.65488 -2.60053,-2.0489c-2.0489,-0.70924 -4.25541,-0.15761 -5.67388,1.57608c-1.02445,1.26086 -1.65488,3.46737 -0.47282,5.51628z" fill="#009231"/>
     <path stroke="null" id="svg_5" d="m6.95856,43.90099c0.86684,-0.23641 1.65488,0.0788 2.52173,0.0788c3.54618,-0.0788 5.75269,-3.15216 4.64943,-6.46192c-0.15761,-0.55163 -0.63043,-1.02445 -0.47282,-1.57608c2.60053,1.02445 4.64943,0.63043 6.22551,-1.10326c1.49727,-1.65488 1.65488,-3.78259 0.39402,-6.14671c0.86684,0.23641 1.41847,0.94565 2.20651,1.33967c2.83694,1.73369 5.9103,2.44292 9.14126,2.28531c-0.78804,7.40757 -5.27986,12.68743 -12.29341,14.26351c-4.41302,1.02445 -8.58963,0 -12.37222,-2.67933z" fill="#01AC48"/>
     <path stroke="null" id="svg_6" d="m13.42048,35.70538c0.0788,0.0788 0.15761,0.15761 0.23641,0.23641c-0.0788,-0.0788 -0.15761,-0.15761 -0.23641,-0.23641z" fill="#01AC48"/>
    </g>
   </g>
   <g stroke="null" id="svg_7">
    <path stroke="null" id="svg_8" d="m72.28702,20.96904c-2.36412,0 -4.33422,-0.78804 -5.9103,-2.36412c-1.57608,-1.57608 -2.36412,-3.54618 -2.36412,-5.9103c0,-2.36412 0.78804,-4.33422 2.36412,-5.9103c1.57608,-1.57608 3.54618,-2.36412 5.9103,-2.36412c2.36412,0 4.33422,0.86684 5.83149,2.60053l-1.49727,1.41847c-1.10326,-1.33967 -2.60053,-2.0489 -4.33422,-2.0489c-1.73369,0 -3.23096,0.63043 -4.41302,1.81249c-1.18206,1.18206 -1.73369,2.67933 -1.73369,4.57063c0,1.89129 0.55163,3.38857 1.73369,4.57063c1.18206,1.18206 2.67933,1.81249 4.41302,1.81249c1.81249,0 3.46737,-0.78804 4.80704,-2.36412l1.49727,1.41847c-0.78804,0.86684 -1.65488,1.57608 -2.75814,2.12771c-1.10326,0.39402 -2.28531,0.63043 -3.54618,0.63043z" fill="#63686E"/>
    <path stroke="null" id="svg_9" d="m83.95,9.38486c1.49727,0 2.67933,0.39402 3.54618,1.18206c0.86684,0.78804 1.33967,1.89129 1.33967,3.30977l0,6.69833l-1.9701,0l0,-1.49727l-0.0788,0c-0.86684,1.26086 -1.9701,1.89129 -3.38857,1.89129c-1.18206,0 -2.20651,-0.39402 -2.99455,-1.10326c-0.78804,-0.70924 -1.18206,-1.57608 -1.18206,-2.67933c0,-1.10326 0.39402,-2.0489 1.26086,-2.67933c0.86684,-0.63043 1.9701,-1.02445 3.38857,-1.02445c1.18206,0 2.20651,0.23641 2.99455,0.63043l0,-0.47282c0,-0.70924 -0.31522,-1.33967 -0.86684,-1.81249c-0.55163,-0.47282 -1.18206,-0.70924 -1.9701,-0.70924c-1.10326,0 -2.0489,0.47282 -2.67933,1.41847l-1.81249,-1.10326c1.02445,-1.33967 2.52173,-2.0489 4.41302,-2.0489zm-2.60053,7.88039c0,0.55163 0.23641,0.94565 0.70924,1.33967c0.47282,0.39402 0.94565,0.55163 1.57608,0.55163c0.86684,0 1.65488,-0.31522 2.28531,-0.94565c0.70924,-0.63043 1.02445,-1.41847 1.02445,-2.20651c-0.63043,-0.47282 -1.49727,-0.78804 -2.67933,-0.78804c-0.86684,0 -1.49727,0.23641 -2.0489,0.63043c-0.63043,0.31522 -0.86684,0.86684 -0.86684,1.41847z" fill="#63686E"/>
    <path stroke="null" id="svg_10" d="m92.85485,20.57502l-2.0489,0l0,-10.87494l1.9701,0l0,1.49727l0.0788,0c0.31522,-0.55163 0.78804,-0.94565 1.41847,-1.33967c0.63043,-0.39402 1.26086,-0.55163 1.89129,-0.55163c0.78804,0 1.49727,0.15761 2.12771,0.55163c0.63043,0.39402 1.02445,0.86684 1.33967,1.49727c0.86684,-1.41847 2.12771,-2.0489 3.78259,-2.0489c1.26086,0 2.20651,0.39402 2.91575,1.18206c0.70924,0.78804 1.02445,1.89129 1.02445,3.30977l0,6.77714l-2.0489,0l0,-6.46192c0,-1.02445 -0.15761,-1.73369 -0.55163,-2.20651c-0.39402,-0.47282 -1.02445,-0.70924 -1.89129,-0.70924c-0.78804,0 -1.41847,0.31522 -1.9701,1.02445c-0.55163,0.63043 -0.78804,1.41847 -0.78804,2.36412l0,5.9891l-2.0489,0l0,-6.46192c0,-1.02445 -0.15761,-1.73369 -0.55163,-2.20651c-0.39402,-0.47282 -1.02445,-0.70924 -1.89129,-0.70924c-0.78804,0 -1.41847,0.31522 -1.9701,1.02445c-0.55163,0.63043 -0.78804,1.41847 -0.78804,2.36412l0,5.9891z" fill="#63686E"/>
    <path stroke="null" id="svg_11" d="m115.07756,20.96904c-0.78804,0 -1.49727,-0.15761 -2.20651,-0.47282c-0.63043,-0.31522 -1.18206,-0.78804 -1.49727,-1.33967l-0.0788,0l0.0788,1.49727l0,4.80704l-2.0489,0l0,-15.76079l1.9701,0l0,1.49727l0.0788,0c0.39402,-0.55163 0.86684,-1.02445 1.49727,-1.33967c0.63043,-0.31522 1.41847,-0.47282 2.20651,-0.47282c1.41847,0 2.67933,0.55163 3.62498,1.65488c1.02445,1.10326 1.49727,2.52173 1.49727,4.0978c0,1.57608 -0.47282,2.99455 -1.49727,4.0978c-1.02445,1.18206 -2.20651,1.73369 -3.62498,1.73369zm-0.31522,-1.89129c0.94565,0 1.81249,-0.39402 2.44292,-1.10326c0.63043,-0.70924 1.02445,-1.65488 1.02445,-2.83694c0,-1.10326 -0.31522,-2.0489 -1.02445,-2.83694c-0.63043,-0.70924 -1.49727,-1.10326 -2.44292,-1.10326c-1.02445,0 -1.81249,0.39402 -2.52173,1.10326c-0.63043,0.70924 -0.94565,1.65488 -0.94565,2.83694c0,1.18206 0.31522,2.12771 0.94565,2.83694c0.63043,0.78804 1.49727,1.10326 2.52173,1.10326z" fill="#63686E"/>
    <path stroke="null" id="svg_12" d="m125.87369,9.38486c1.49727,0 2.67933,0.39402 3.54618,1.18206c0.86684,0.78804 1.33967,1.89129 1.33967,3.30977l0,6.69833l-1.9701,0l0,-1.49727l-0.0788,0c-0.86684,1.26086 -1.9701,1.89129 -3.38857,1.89129c-1.18206,0 -2.20651,-0.39402 -2.99455,-1.10326c-0.78804,-0.70924 -1.18206,-1.57608 -1.18206,-2.67933c0,-1.10326 0.39402,-2.0489 1.26086,-2.67933c0.86684,-0.63043 1.9701,-1.02445 3.38857,-1.02445c1.18206,0 2.20651,0.23641 2.99455,0.63043l0,-0.47282c0,-0.70924 -0.31522,-1.33967 -0.86684,-1.81249c-0.55163,-0.47282 -1.18206,-0.70924 -1.9701,-0.70924c-1.10326,0 -2.0489,0.47282 -2.67933,1.41847l-1.81249,-1.10326c1.02445,-1.33967 2.52173,-2.0489 4.41302,-2.0489zm-2.60053,7.88039c0,0.55163 0.23641,0.94565 0.70924,1.33967c0.47282,0.39402 0.94565,0.55163 1.57608,0.55163c0.86684,0 1.65488,-0.31522 2.28531,-0.94565c0.70924,-0.63043 1.02445,-1.41847 1.02445,-2.20651c-0.63043,-0.47282 -1.49727,-0.78804 -2.67933,-0.78804c-0.86684,0 -1.49727,0.23641 -2.0489,0.63043c-0.63043,0.31522 -0.86684,0.86684 -0.86684,1.41847z" fill="#63686E"/>
    <path stroke="null" id="svg_13" d="m135.40897,5.9963c0,0.39402 -0.15761,0.70924 -0.39402,1.02445c-0.31522,0.31522 -0.63043,0.39402 -1.02445,0.39402c-0.39402,0 -0.70924,-0.15761 -1.02445,-0.39402c-0.31522,-0.31522 -0.39402,-0.63043 -0.39402,-1.02445c0,-0.39402 0.15761,-0.70924 0.39402,-1.02445c0.31522,-0.31522 0.63043,-0.39402 1.02445,-0.39402c0.39402,0 0.70924,0.15761 1.02445,0.39402c0.23641,0.31522 0.39402,0.63043 0.39402,1.02445zm-0.47282,3.70378l0,10.87494l-2.0489,0l0,-10.87494l2.0489,0z" fill="#63686E"/>
    <path stroke="null" id="svg_14" d="m142.0285,25.77608c-0.63043,0 -1.18206,-0.0788 -1.73369,-0.23641c-0.55163,-0.15761 -1.02445,-0.39402 -1.41847,-0.63043c-0.47282,-0.31522 -0.78804,-0.63043 -1.10326,-1.02445c-0.31522,-0.39402 -0.55163,-0.78804 -0.70924,-1.26086l1.89129,-0.78804c0.23641,0.63043 0.63043,1.18206 1.18206,1.49727c0.55163,0.39402 1.18206,0.55163 1.89129,0.55163c1.10326,0 1.9701,-0.31522 2.60053,-1.02445c0.63043,-0.63043 0.94565,-1.57608 0.94565,-2.75814l0,-1.02445l-0.15761,0c-0.39402,0.55163 -0.86684,1.02445 -1.57608,1.33967c-0.63043,0.31522 -1.33967,0.47282 -2.12771,0.47282c-1.41847,0 -2.67933,-0.55163 -3.62498,-1.65488c-1.02445,-1.10326 -1.49727,-2.52173 -1.49727,-4.0978c0,-1.57608 0.47282,-2.99455 1.49727,-4.0978c1.02445,-1.10326 2.20651,-1.65488 3.62498,-1.65488c0.78804,0 1.49727,0.15761 2.12771,0.47282c0.63043,0.31522 1.18206,0.78804 1.57608,1.33967l0.0788,0l0,-1.49727l1.9701,0l0,10.40212c0,1.73369 -0.47282,3.15216 -1.49727,4.0978c-1.02445,1.02445 -2.28531,1.57608 -3.9402,1.57608zm0,-6.69833c1.02445,0 1.81249,-0.39402 2.44292,-1.10326c0.63043,-0.70924 1.02445,-1.65488 1.02445,-2.83694c0,-1.10326 -0.31522,-2.0489 -1.02445,-2.83694c-0.63043,-0.70924 -1.49727,-1.10326 -2.44292,-1.10326c-0.94565,0 -1.81249,0.39402 -2.44292,1.10326c-0.63043,0.70924 -1.02445,1.65488 -1.02445,2.83694c0,1.18206 0.31522,2.12771 1.02445,2.83694c0.70924,0.78804 1.49727,1.10326 2.44292,1.10326z" fill="#63686E"/>
    <path stroke="null" id="svg_15" d="m149.59368,9.70008l1.9701,0l0,1.49727l0.0788,0c0.31522,-0.55163 0.78804,-0.94565 1.41847,-1.33967c0.63043,-0.39402 1.33967,-0.55163 1.9701,-0.55163c1.33967,0 2.36412,0.39402 3.07335,1.10326c0.70924,0.78804 1.10326,1.81249 1.10326,3.23096l0,6.85594l-1.9701,0l0,-6.69833c-0.0788,-1.81249 -0.94565,-2.67933 -2.67933,-2.67933c-0.78804,0 -1.49727,0.31522 -2.0489,1.02445c-0.55163,0.63043 -0.78804,1.41847 -0.78804,2.36412l0,5.9891l-2.0489,0l0,-10.79614l-0.0788,0z" fill="#63686E"/>
    <path stroke="null" id="svg_16" d="m66.61314,43.50697l-2.0489,0l0,-15.91839l2.0489,0l5.51628,9.69288l0.0788,0l5.51628,-9.69288l2.0489,0l0,15.91839l-2.0489,0l0,-9.45647l0.0788,-2.67933l-0.0788,0l-4.96465,8.74724l-1.18206,0l-4.96465,-8.74724l-0.0788,0l0.0788,2.67933l0,9.45647z" fill="#63686E"/>
    <path stroke="null" id="svg_17" d="m86.07771,32.238c1.49727,0 2.67933,0.39402 3.54618,1.18206c0.86684,0.78804 1.33967,1.89129 1.33967,3.30977l0,6.69833l-1.9701,0l0,-1.49727l-0.0788,0c-0.86684,1.26086 -1.9701,1.89129 -3.38857,1.89129c-1.18206,0 -2.20651,-0.39402 -2.99455,-1.10326c-0.78804,-0.70924 -1.18206,-1.57608 -1.18206,-2.67933c0,-1.10326 0.39402,-2.0489 1.26086,-2.67933c0.86684,-0.63043 1.9701,-1.02445 3.38857,-1.02445c1.18206,0 2.20651,0.23641 2.99455,0.63043l0,-0.47282c0,-0.70924 -0.31522,-1.33967 -0.86684,-1.81249c-0.55163,-0.47282 -1.18206,-0.70924 -1.9701,-0.70924c-1.10326,0 -2.0489,0.47282 -2.67933,1.41847l-1.81249,-1.10326c1.02445,-1.33967 2.52173,-2.0489 4.41302,-2.0489zm-2.60053,7.88039c0,0.55163 0.23641,0.94565 0.70924,1.33967c0.47282,0.39402 0.94565,0.55163 1.57608,0.55163c0.86684,0 1.65488,-0.31522 2.28531,-0.94565c0.70924,-0.63043 1.02445,-1.41847 1.02445,-2.20651c-0.63043,-0.47282 -1.49727,-0.78804 -2.67933,-0.78804c-0.86684,0 -1.49727,0.23641 -2.0489,0.63043c-0.63043,0.39402 -0.86684,0.86684 -0.86684,1.41847z" fill="#63686E"/>
    <path stroke="null" id="svg_18" d="m92.93365,32.63202l1.9701,0l0,1.49727l0.0788,0c0.31522,-0.55163 0.78804,-0.94565 1.41847,-1.33967c0.63043,-0.39402 1.33967,-0.55163 1.9701,-0.55163c1.33967,0 2.36412,0.39402 3.07335,1.10326c0.70924,0.78804 1.10326,1.81249 1.10326,3.23096l0,6.85594l-2.0489,0l0,-6.61953c-0.0788,-1.81249 -0.94565,-2.67933 -2.67933,-2.67933c-0.78804,0 -1.49727,0.31522 -2.0489,1.02445c-0.55163,0.63043 -0.78804,1.41847 -0.78804,2.36412l0,5.9891l-2.0489,0l0,-10.87494z" fill="#63686E"/>
    <path stroke="null" id="svg_19" d="m108.69444,32.238c1.49727,0 2.67933,0.39402 3.54618,1.18206c0.86684,0.78804 1.33967,1.89129 1.33967,3.30977l0,6.69833l-1.9701,0l0,-1.49727l-0.0788,0c-0.86684,1.26086 -1.9701,1.89129 -3.38857,1.89129c-1.18206,0 -2.20651,-0.39402 -2.99455,-1.10326c-0.78804,-0.70924 -1.18206,-1.57608 -1.18206,-2.67933c0,-1.10326 0.39402,-2.0489 1.26086,-2.67933c0.86684,-0.63043 1.9701,-1.02445 3.38857,-1.02445c1.18206,0 2.20651,0.23641 2.99455,0.63043l0,-0.47282c0,-0.70924 -0.31522,-1.33967 -0.86684,-1.81249c-0.55163,-0.47282 -1.18206,-0.70924 -1.9701,-0.70924c-1.10326,0 -2.0489,0.47282 -2.67933,1.41847l-1.81249,-1.10326c0.94565,-1.33967 2.44292,-2.0489 4.41302,-2.0489zm-2.67933,7.88039c0,0.55163 0.23641,0.94565 0.70924,1.33967c0.47282,0.39402 0.94565,0.55163 1.57608,0.55163c0.86684,0 1.65488,-0.31522 2.28531,-0.94565c0.70924,-0.63043 1.02445,-1.41847 1.02445,-2.20651c-0.63043,-0.47282 -1.49727,-0.78804 -2.67933,-0.78804c-0.86684,0 -1.49727,0.23641 -2.0489,0.63043c-0.55163,0.39402 -0.86684,0.86684 -0.86684,1.41847z" fill="#63686E"/>
    <path stroke="null" id="svg_20" d="m120.19981,48.62922c-0.63043,0 -1.18206,-0.0788 -1.73369,-0.23641c-0.55163,-0.15761 -1.02445,-0.39402 -1.41847,-0.63043c-0.47282,-0.31522 -0.78804,-0.63043 -1.10326,-1.02445c-0.31522,-0.39402 -0.55163,-0.78804 -0.70924,-1.26086l1.89129,-0.78804c0.23641,0.63043 0.63043,1.18206 1.18206,1.49727c0.55163,0.39402 1.18206,0.55163 1.89129,0.55163c1.10326,0 1.9701,-0.31522 2.60053,-1.02445c0.63043,-0.63043 0.94565,-1.57608 0.94565,-2.75814l0,-1.02445l-0.0788,0c-0.39402,0.55163 -0.86684,1.02445 -1.57608,1.33967c-0.63043,0.31522 -1.33967,0.47282 -2.12771,0.47282c-1.41847,0 -2.67933,-0.55163 -3.62498,-1.65488c-1.02445,-1.10326 -1.49727,-2.52173 -1.49727,-4.0978c0,-1.57608 0.47282,-2.99455 1.49727,-4.0978c1.02445,-1.10326 2.20651,-1.65488 3.62498,-1.65488c0.78804,0 1.49727,0.15761 2.12771,0.47282c0.63043,0.31522 1.18206,0.78804 1.57608,1.33967l0.0788,0l0,-1.49727l1.9701,0l0,10.40212c0,1.73369 -0.47282,3.15216 -1.49727,4.0978c-1.02445,1.10326 -2.36412,1.57608 -4.019,1.57608zm0.0788,-6.61953c1.02445,0 1.81249,-0.39402 2.44292,-1.10326c0.63043,-0.70924 1.02445,-1.65488 1.02445,-2.83694c0,-1.10326 -0.31522,-2.0489 -1.02445,-2.83694c-0.63043,-0.70924 -1.49727,-1.10326 -2.44292,-1.10326c-0.94565,0 -1.81249,0.39402 -2.44292,1.10326c-0.63043,0.70924 -1.02445,1.65488 -1.02445,2.83694c0,1.18206 0.31522,2.12771 1.02445,2.83694c0.63043,0.70924 1.49727,1.10326 2.44292,1.10326z" fill="#63686E"/>
    <path stroke="null" id="svg_21" d="m132.65083,43.82218c-1.57608,0 -2.91575,-0.55163 -3.9402,-1.65488c-1.02445,-1.10326 -1.57608,-2.44292 -1.57608,-4.17661c0,-1.65488 0.47282,-3.07335 1.49727,-4.17661c1.02445,-1.10326 2.28531,-1.65488 3.86139,-1.65488c1.57608,0 2.91575,0.55163 3.86139,1.57608c0.94565,1.02445 1.41847,2.52173 1.41847,4.41302l0,0.23641l-8.51082,0c0,1.10326 0.39402,1.89129 1.10326,2.60053c0.70924,0.63043 1.49727,0.94565 2.44292,0.94565c1.33967,0 2.28531,-0.63043 3.07335,-1.9701l1.81249,0.86684c-0.47282,0.94565 -1.18206,1.65488 -2.0489,2.12771c-0.94565,0.63043 -1.89129,0.86684 -2.99455,0.86684zm-3.30977,-7.09235l6.22551,0c-0.0788,-0.78804 -0.39402,-1.33967 -0.94565,-1.89129c-0.55163,-0.47282 -1.26086,-0.70924 -2.20651,-0.70924c-0.78804,0 -1.41847,0.23641 -1.9701,0.70924c-0.55163,0.47282 -0.86684,1.10326 -1.10326,1.89129z" fill="#63686E"/>
    <path stroke="null" id="svg_22" d="m141.31927,43.50697l-2.0489,0l0,-10.87494l1.9701,0l0,1.81249l0.0788,0c0.23641,-0.55163 0.63043,-1.10326 1.26086,-1.49727c0.63043,-0.39402 1.26086,-0.63043 1.89129,-0.63043c0.63043,0 1.10326,0.0788 1.49727,0.23641l-0.63043,1.9701c-0.23641,-0.0788 -0.63043,-0.15761 -1.18206,-0.15761c-0.78804,0 -1.41847,0.31522 -1.9701,0.94565c-0.55163,0.63043 -0.86684,1.33967 -0.86684,2.20651l0,5.9891z" fill="#63686E"/>
   </g>
  </g>
 </g>
</svg>