<svg width="160" height="50" xmlns="http://www.w3.org/2000/svg" xmlns:svg="http://www.w3.org/2000/svg">
 <g>
  <title>Layer 1</title>
  <g stroke="null" id="svg_1">
   <g stroke="null" id="agBixM.tif">
    <g stroke="null" id="svg_2">
     <path stroke="null" id="svg_3" d="m43.00683,7.59343c1.34413,1.10693 1.81852,2.68825 2.37199,4.26958c3.24172,9.56702 -3.79518,20.00376 -13.75753,20.39909c-3.32078,0.15813 -6.40437,-0.55346 -9.17169,-2.29292c-0.7116,-0.4744 -1.26506,-1.18599 -2.21386,-1.34413c-0.15813,-0.15813 -0.31627,-0.31627 -0.4744,-0.4744c-1.42319,-1.58133 -3.16265,-2.05572 -5.13931,-1.42319c-2.05572,0.63253 -3.24172,2.05572 -3.47892,4.26958c-0.2372,2.05572 0.63253,3.47892 2.13479,4.74398c0.07907,0.07907 0.15813,0.15813 0.2372,0.2372l0,-0.07907c-0.07907,0.63253 0.31627,1.10693 0.4744,1.58133c1.10693,3.32078 -1.10693,6.48343 -4.66491,6.48343c-0.86973,0 -1.66039,-0.31627 -2.53012,-0.07907c-4.58584,-3.39985 -6.48343,-8.14382 -6.24623,-13.75753c0.39533,-7.43223 7.2741,-14.23193 14.54819,-14.23193c3.39985,-0.15813 6.48343,0.4744 9.40888,2.37199c0.55346,0.31627 0.9488,0.9488 1.66039,0.86973c0.86973,1.34413 1.97666,2.37199 3.55798,2.60919c1.97666,0.2372 3.71611,-0.39533 4.90211,-1.97666c1.34413,-1.73946 1.26506,-3.71611 0.2372,-5.6137c0.31627,0.07907 0.7116,0.07907 0.9488,0.2372c2.60919,1.18599 5.37651,-0.31627 6.72063,-2.53012c0.86973,-1.34413 0.63253,-2.76732 0.4744,-4.26958z" fill="#26BC6C"/>
     <path stroke="null" id="svg_4" d="m26.16571,19.21617c-0.7116,0 -1.18599,-0.55346 -1.66039,-0.86973c-2.84639,-1.81852 -6.00904,-2.53012 -9.40888,-2.37199c0.31627,-3.63705 1.50226,-6.7997 3.95331,-9.48795c2.37199,-2.60919 5.29744,-4.19051 8.69729,-4.90211c4.50678,-0.86973 8.61822,0.2372 12.33434,2.84639c1.18599,0.86973 2.21386,1.89759 2.92545,3.16265c0.15813,1.42319 0.4744,2.92545 -0.39533,4.26958c-1.34413,2.21386 -4.11145,3.71611 -6.72063,2.53012c-0.31627,-0.15813 -0.63253,-0.15813 -0.9488,-0.2372c-0.79066,-0.79066 -1.50226,-1.66039 -2.60919,-2.05572c-2.05572,-0.7116 -4.26958,-0.15813 -5.69277,1.58133c-1.02786,1.26506 -1.66039,3.47892 -0.4744,5.53464z" fill="#009231"/>
     <path stroke="null" id="svg_5" d="m6.71541,43.96391c0.86973,-0.2372 1.66039,0.07907 2.53012,0.07907c3.55798,-0.07907 5.77184,-3.16265 4.66491,-6.48343c-0.15813,-0.55346 -0.63253,-1.02786 -0.4744,-1.58133c2.60919,1.02786 4.66491,0.63253 6.24623,-1.10693c1.50226,-1.66039 1.66039,-3.79518 0.39533,-6.16717c0.86973,0.2372 1.42319,0.9488 2.21386,1.34413c2.84639,1.73946 5.92997,2.45105 9.17169,2.29292c-0.79066,7.43223 -5.29744,12.72967 -12.33434,14.31099c-4.42771,1.02786 -8.61822,0 -12.4134,-2.68825z" fill="#01AC48"/>
     <path stroke="null" id="svg_6" d="m13.19885,35.74102c0.07907,0.07907 0.15813,0.15813 0.2372,0.2372c-0.07907,-0.07907 -0.15813,-0.15813 -0.2372,-0.2372z" fill="#01AC48"/>
    </g>
   </g>
   <g stroke="null" id="svg_7">
    <path stroke="null" id="svg_8" d="m72.26134,20.95562c-2.37199,0 -4.34864,-0.79066 -5.92997,-2.37199c-1.58133,-1.58133 -2.37199,-3.55798 -2.37199,-5.92997c0,-2.37199 0.79066,-4.34864 2.37199,-5.92997c1.58133,-1.58133 3.55798,-2.37199 5.92997,-2.37199c2.37199,0 4.34864,0.86973 5.8509,2.60919l-1.50226,1.42319c-1.10693,-1.34413 -2.60919,-2.05572 -4.34864,-2.05572c-1.73946,0 -3.24172,0.63253 -4.42771,1.81852c-1.18599,1.18599 -1.73946,2.68825 -1.73946,4.58584c0,1.89759 0.55346,3.39985 1.73946,4.58584c1.18599,1.18599 2.68825,1.81852 4.42771,1.81852c1.81852,0 3.47892,-0.79066 4.82304,-2.37199l1.50226,1.42319c-0.79066,0.86973 -1.66039,1.58133 -2.76732,2.13479c-1.10693,0.39533 -2.29292,0.63253 -3.55798,0.63253z" fill="#63686E"/>
    <path stroke="null" id="svg_9" d="m83.96315,9.33288c1.50226,0 2.68825,0.39533 3.55798,1.18599c0.86973,0.79066 1.34413,1.89759 1.34413,3.32078l0,6.72063l-1.97666,0l0,-1.50226l-0.07907,0c-0.86973,1.26506 -1.97666,1.89759 -3.39985,1.89759c-1.18599,0 -2.21386,-0.39533 -3.00452,-1.10693c-0.79066,-0.7116 -1.18599,-1.58133 -1.18599,-2.68825c0,-1.10693 0.39533,-2.05572 1.26506,-2.68825c0.86973,-0.63253 1.97666,-1.02786 3.39985,-1.02786c1.18599,0 2.21386,0.2372 3.00452,0.63253l0,-0.4744c0,-0.7116 -0.31627,-1.34413 -0.86973,-1.81852c-0.55346,-0.4744 -1.18599,-0.7116 -1.97666,-0.7116c-1.10693,0 -2.05572,0.4744 -2.68825,1.42319l-1.81852,-1.10693c1.02786,-1.34413 2.53012,-2.05572 4.42771,-2.05572zm-2.60919,7.90663c0,0.55346 0.2372,0.9488 0.7116,1.34413c0.4744,0.39533 0.9488,0.55346 1.58133,0.55346c0.86973,0 1.66039,-0.31627 2.29292,-0.9488c0.7116,-0.63253 1.02786,-1.42319 1.02786,-2.21386c-0.63253,-0.4744 -1.50226,-0.79066 -2.68825,-0.79066c-0.86973,0 -1.50226,0.2372 -2.05572,0.63253c-0.63253,0.31627 -0.86973,0.86973 -0.86973,1.42319z" fill="#63686E"/>
    <path stroke="null" id="svg_10" d="m92.89763,20.56029l-2.05572,0l0,-10.91114l1.97666,0l0,1.50226l0.07907,0c0.31627,-0.55346 0.79066,-0.9488 1.42319,-1.34413c0.63253,-0.39533 1.26506,-0.55346 1.89759,-0.55346c0.79066,0 1.50226,0.15813 2.13479,0.55346c0.63253,0.39533 1.02786,0.86973 1.34413,1.50226c0.86973,-1.42319 2.13479,-2.05572 3.79518,-2.05572c1.26506,0 2.21386,0.39533 2.92545,1.18599c0.7116,0.79066 1.02786,1.89759 1.02786,3.32078l0,6.7997l-2.05572,0l0,-6.48343c0,-1.02786 -0.15813,-1.73946 -0.55346,-2.21386c-0.39533,-0.4744 -1.02786,-0.7116 -1.89759,-0.7116c-0.79066,0 -1.42319,0.31627 -1.97666,1.02786c-0.55346,0.63253 -0.79066,1.42319 -0.79066,2.37199l0,6.00904l-2.05572,0l0,-6.48343c0,-1.02786 -0.15813,-1.73946 -0.55346,-2.21386c-0.39533,-0.4744 -1.02786,-0.7116 -1.89759,-0.7116c-0.79066,0 -1.42319,0.31627 -1.97666,1.02786c-0.55346,0.63253 -0.79066,1.42319 -0.79066,2.37199l0,6.00904z" fill="#63686E"/>
    <path stroke="null" id="svg_11" d="m115.19432,20.95562c-0.79066,0 -1.50226,-0.15813 -2.21386,-0.4744c-0.63253,-0.31627 -1.18599,-0.79066 -1.50226,-1.34413l-0.07907,0l0.07907,1.50226l0,4.82304l-2.05572,0l0,-15.81325l1.97666,0l0,1.50226l0.07907,0c0.39533,-0.55346 0.86973,-1.02786 1.50226,-1.34413c0.63253,-0.31627 1.42319,-0.4744 2.21386,-0.4744c1.42319,0 2.68825,0.55346 3.63705,1.66039c1.02786,1.10693 1.50226,2.53012 1.50226,4.11145c0,1.58133 -0.4744,3.00452 -1.50226,4.11145c-1.02786,1.18599 -2.21386,1.73946 -3.63705,1.73946zm-0.31627,-1.89759c0.9488,0 1.81852,-0.39533 2.45105,-1.10693c0.63253,-0.7116 1.02786,-1.66039 1.02786,-2.84639c0,-1.10693 -0.31627,-2.05572 -1.02786,-2.84639c-0.63253,-0.7116 -1.50226,-1.10693 -2.45105,-1.10693c-1.02786,0 -1.81852,0.39533 -2.53012,1.10693c-0.63253,0.7116 -0.9488,1.66039 -0.9488,2.84639c0,1.18599 0.31627,2.13479 0.9488,2.84639c0.63253,0.79066 1.50226,1.10693 2.53012,1.10693z" fill="#63686E"/>
    <path stroke="null" id="svg_12" d="m126.0264,9.33288c1.50226,0 2.68825,0.39533 3.55798,1.18599c0.86973,0.79066 1.34413,1.89759 1.34413,3.32078l0,6.72063l-1.97666,0l0,-1.50226l-0.07907,0c-0.86973,1.26506 -1.97666,1.89759 -3.39985,1.89759c-1.18599,0 -2.21386,-0.39533 -3.00452,-1.10693c-0.79066,-0.7116 -1.18599,-1.58133 -1.18599,-2.68825c0,-1.10693 0.39533,-2.05572 1.26506,-2.68825c0.86973,-0.63253 1.97666,-1.02786 3.39985,-1.02786c1.18599,0 2.21386,0.2372 3.00452,0.63253l0,-0.4744c0,-0.7116 -0.31627,-1.34413 -0.86973,-1.81852c-0.55346,-0.4744 -1.18599,-0.7116 -1.97666,-0.7116c-1.10693,0 -2.05572,0.4744 -2.68825,1.42319l-1.81852,-1.10693c1.02786,-1.34413 2.53012,-2.05572 4.42771,-2.05572zm-2.60919,7.90663c0,0.55346 0.2372,0.9488 0.7116,1.34413c0.4744,0.39533 0.9488,0.55346 1.58133,0.55346c0.86973,0 1.66039,-0.31627 2.29292,-0.9488c0.7116,-0.63253 1.02786,-1.42319 1.02786,-2.21386c-0.63253,-0.4744 -1.50226,-0.79066 -2.68825,-0.79066c-0.86973,0 -1.50226,0.2372 -2.05572,0.63253c-0.63253,0.31627 -0.86973,0.86973 -0.86973,1.42319z" fill="#63686E"/>
    <path stroke="null" id="svg_13" d="m135.59341,5.93304c0,0.39533 -0.15813,0.7116 -0.39533,1.02786c-0.31627,0.31627 -0.63253,0.39533 -1.02786,0.39533c-0.39533,0 -0.7116,-0.15813 -1.02786,-0.39533c-0.31627,-0.31627 -0.39533,-0.63253 -0.39533,-1.02786c0,-0.39533 0.15813,-0.7116 0.39533,-1.02786c0.31627,-0.31627 0.63253,-0.39533 1.02786,-0.39533c0.39533,0 0.7116,0.15813 1.02786,0.39533c0.2372,0.31627 0.39533,0.63253 0.39533,1.02786zm-0.4744,3.71611l0,10.91114l-2.05572,0l0,-10.91114l2.05572,0z" fill="#63686E"/>
    <path stroke="null" id="svg_14" d="m142.23498,25.77867c-0.63253,0 -1.18599,-0.07907 -1.73946,-0.2372c-0.55346,-0.15813 -1.02786,-0.39533 -1.42319,-0.63253c-0.4744,-0.31627 -0.79066,-0.63253 -1.10693,-1.02786c-0.31627,-0.39533 -0.55346,-0.79066 -0.7116,-1.26506l1.89759,-0.79066c0.2372,0.63253 0.63253,1.18599 1.18599,1.50226c0.55346,0.39533 1.18599,0.55346 1.89759,0.55346c1.10693,0 1.97666,-0.31627 2.60919,-1.02786c0.63253,-0.63253 0.9488,-1.58133 0.9488,-2.76732l0,-1.02786l-0.15813,0c-0.39533,0.55346 -0.86973,1.02786 -1.58133,1.34413c-0.63253,0.31627 -1.34413,0.4744 -2.13479,0.4744c-1.42319,0 -2.68825,-0.55346 -3.63705,-1.66039c-1.02786,-1.10693 -1.50226,-2.53012 -1.50226,-4.11145c0,-1.58133 0.4744,-3.00452 1.50226,-4.11145c1.02786,-1.10693 2.21386,-1.66039 3.63705,-1.66039c0.79066,0 1.50226,0.15813 2.13479,0.4744c0.63253,0.31627 1.18599,0.79066 1.58133,1.34413l0.07907,0l0,-1.50226l1.97666,0l0,10.43675c0,1.73946 -0.4744,3.16265 -1.50226,4.11145c-1.02786,1.02786 -2.29292,1.58133 -3.95331,1.58133zm0,-6.72063c1.02786,0 1.81852,-0.39533 2.45105,-1.10693c0.63253,-0.7116 1.02786,-1.66039 1.02786,-2.84639c0,-1.10693 -0.31627,-2.05572 -1.02786,-2.84639c-0.63253,-0.7116 -1.50226,-1.10693 -2.45105,-1.10693c-0.9488,0 -1.81852,0.39533 -2.45105,1.10693c-0.63253,0.7116 -1.02786,1.66039 -1.02786,2.84639c0,1.18599 0.31627,2.13479 1.02786,2.84639c0.7116,0.79066 1.50226,1.10693 2.45105,1.10693z" fill="#63686E"/>
    <path stroke="null" id="svg_15" d="m149.82534,9.64915l1.97666,0l0,1.50226l0.07907,0c0.31627,-0.55346 0.79066,-0.9488 1.42319,-1.34413c0.63253,-0.39533 1.34413,-0.55346 1.97666,-0.55346c1.34413,0 2.37199,0.39533 3.08358,1.10693c0.7116,0.79066 1.10693,1.81852 1.10693,3.24172l0,6.87876l-1.97666,0l0,-6.72063c-0.07907,-1.81852 -0.9488,-2.68825 -2.68825,-2.68825c-0.79066,0 -1.50226,0.31627 -2.05572,1.02786c-0.55346,0.63253 -0.79066,1.42319 -0.79066,2.37199l0,6.00904l-2.05572,0l0,-10.83208l-0.07907,0z" fill="#63686E"/>
    <path stroke="null" id="svg_16" d="m66.56857,43.56857l-2.05572,0l0,-15.97138l2.05572,0l5.53464,9.72515l0.07907,0l5.53464,-9.72515l2.05572,0l0,15.97138l-2.05572,0l0,-9.48795l0.07907,-2.68825l-0.07907,0l-4.98117,8.77635l-1.18599,0l-4.98117,-8.77635l-0.07907,0l0.07907,2.68825l0,9.48795z" fill="#63686E"/>
    <path stroke="null" id="svg_17" d="m86.09794,32.2621c1.50226,0 2.68825,0.39533 3.55798,1.18599c0.86973,0.79066 1.34413,1.89759 1.34413,3.32078l0,6.72063l-1.97666,0l0,-1.50226l-0.07907,0c-0.86973,1.26506 -1.97666,1.89759 -3.39985,1.89759c-1.18599,0 -2.21386,-0.39533 -3.00452,-1.10693c-0.79066,-0.7116 -1.18599,-1.58133 -1.18599,-2.68825c0,-1.10693 0.39533,-2.05572 1.26506,-2.68825c0.86973,-0.63253 1.97666,-1.02786 3.39985,-1.02786c1.18599,0 2.21386,0.2372 3.00452,0.63253l0,-0.4744c0,-0.7116 -0.31627,-1.34413 -0.86973,-1.81852c-0.55346,-0.4744 -1.18599,-0.7116 -1.97666,-0.7116c-1.10693,0 -2.05572,0.4744 -2.68825,1.42319l-1.81852,-1.10693c1.02786,-1.34413 2.53012,-2.05572 4.42771,-2.05572zm-2.60919,7.90663c0,0.55346 0.2372,0.9488 0.7116,1.34413c0.4744,0.39533 0.9488,0.55346 1.58133,0.55346c0.86973,0 1.66039,-0.31627 2.29292,-0.9488c0.7116,-0.63253 1.02786,-1.42319 1.02786,-2.21386c-0.63253,-0.4744 -1.50226,-0.79066 -2.68825,-0.79066c-0.86973,0 -1.50226,0.2372 -2.05572,0.63253c-0.63253,0.39533 -0.86973,0.86973 -0.86973,1.42319z" fill="#63686E"/>
    <path stroke="null" id="svg_18" d="m92.9767,32.65743l1.97666,0l0,1.50226l0.07907,0c0.31627,-0.55346 0.79066,-0.9488 1.42319,-1.34413c0.63253,-0.39533 1.34413,-0.55346 1.97666,-0.55346c1.34413,0 2.37199,0.39533 3.08358,1.10693c0.7116,0.79066 1.10693,1.81852 1.10693,3.24172l0,6.87876l-2.05572,0l0,-6.64157c-0.07907,-1.81852 -0.9488,-2.68825 -2.68825,-2.68825c-0.79066,0 -1.50226,0.31627 -2.05572,1.02786c-0.55346,0.63253 -0.79066,1.42319 -0.79066,2.37199l0,6.00904l-2.05572,0l0,-10.91114z" fill="#63686E"/>
    <path stroke="null" id="svg_19" d="m108.78995,32.2621c1.50226,0 2.68825,0.39533 3.55798,1.18599c0.86973,0.79066 1.34413,1.89759 1.34413,3.32078l0,6.72063l-1.97666,0l0,-1.50226l-0.07907,0c-0.86973,1.26506 -1.97666,1.89759 -3.39985,1.89759c-1.18599,0 -2.21386,-0.39533 -3.00452,-1.10693c-0.79066,-0.7116 -1.18599,-1.58133 -1.18599,-2.68825c0,-1.10693 0.39533,-2.05572 1.26506,-2.68825c0.86973,-0.63253 1.97666,-1.02786 3.39985,-1.02786c1.18599,0 2.21386,0.2372 3.00452,0.63253l0,-0.4744c0,-0.7116 -0.31627,-1.34413 -0.86973,-1.81852c-0.55346,-0.4744 -1.18599,-0.7116 -1.97666,-0.7116c-1.10693,0 -2.05572,0.4744 -2.68825,1.42319l-1.81852,-1.10693c0.9488,-1.34413 2.45105,-2.05572 4.42771,-2.05572zm-2.68825,7.90663c0,0.55346 0.2372,0.9488 0.7116,1.34413c0.4744,0.39533 0.9488,0.55346 1.58133,0.55346c0.86973,0 1.66039,-0.31627 2.29292,-0.9488c0.7116,-0.63253 1.02786,-1.42319 1.02786,-2.21386c-0.63253,-0.4744 -1.50226,-0.79066 -2.68825,-0.79066c-0.86973,0 -1.50226,0.2372 -2.05572,0.63253c-0.55346,0.39533 -0.86973,0.86973 -0.86973,1.42319z" fill="#63686E"/>
    <path stroke="null" id="svg_20" d="m120.33363,48.70788c-0.63253,0 -1.18599,-0.07907 -1.73946,-0.2372c-0.55346,-0.15813 -1.02786,-0.39533 -1.42319,-0.63253c-0.4744,-0.31627 -0.79066,-0.63253 -1.10693,-1.02786c-0.31627,-0.39533 -0.55346,-0.79066 -0.7116,-1.26506l1.89759,-0.79066c0.2372,0.63253 0.63253,1.18599 1.18599,1.50226c0.55346,0.39533 1.18599,0.55346 1.89759,0.55346c1.10693,0 1.97666,-0.31627 2.60919,-1.02786c0.63253,-0.63253 0.9488,-1.58133 0.9488,-2.76732l0,-1.02786l-0.07907,0c-0.39533,0.55346 -0.86973,1.02786 -1.58133,1.34413c-0.63253,0.31627 -1.34413,0.4744 -2.13479,0.4744c-1.42319,0 -2.68825,-0.55346 -3.63705,-1.66039c-1.02786,-1.10693 -1.50226,-2.53012 -1.50226,-4.11145c0,-1.58133 0.4744,-3.00452 1.50226,-4.11145c1.02786,-1.10693 2.21386,-1.66039 3.63705,-1.66039c0.79066,0 1.50226,0.15813 2.13479,0.4744c0.63253,0.31627 1.18599,0.79066 1.58133,1.34413l0.07907,0l0,-1.50226l1.97666,0l0,10.43675c0,1.73946 -0.4744,3.16265 -1.50226,4.11145c-1.02786,1.10693 -2.37199,1.58133 -4.03238,1.58133zm0.07907,-6.64157c1.02786,0 1.81852,-0.39533 2.45105,-1.10693c0.63253,-0.7116 1.02786,-1.66039 1.02786,-2.84639c0,-1.10693 -0.31627,-2.05572 -1.02786,-2.84639c-0.63253,-0.7116 -1.50226,-1.10693 -2.45105,-1.10693c-0.9488,0 -1.81852,0.39533 -2.45105,1.10693c-0.63253,0.7116 -1.02786,1.66039 -1.02786,2.84639c0,1.18599 0.31627,2.13479 1.02786,2.84639c0.63253,0.7116 1.50226,1.10693 2.45105,1.10693z" fill="#63686E"/>
    <path stroke="null" id="svg_21" d="m132.8261,43.88484c-1.58133,0 -2.92545,-0.55346 -3.95331,-1.66039c-1.02786,-1.10693 -1.58133,-2.45105 -1.58133,-4.19051c0,-1.66039 0.4744,-3.08358 1.50226,-4.19051c1.02786,-1.10693 2.29292,-1.66039 3.87425,-1.66039c1.58133,0 2.92545,0.55346 3.87425,1.58133c0.9488,1.02786 1.42319,2.53012 1.42319,4.42771l0,0.2372l-8.53916,0c0,1.10693 0.39533,1.89759 1.10693,2.60919c0.7116,0.63253 1.50226,0.9488 2.45105,0.9488c1.34413,0 2.29292,-0.63253 3.08358,-1.97666l1.81852,0.86973c-0.4744,0.9488 -1.18599,1.66039 -2.05572,2.13479c-0.9488,0.63253 -1.89759,0.86973 -3.00452,0.86973zm-3.32078,-7.11596l6.24623,0c-0.07907,-0.79066 -0.39533,-1.34413 -0.9488,-1.89759c-0.55346,-0.4744 -1.26506,-0.7116 -2.21386,-0.7116c-0.79066,0 -1.42319,0.2372 -1.97666,0.7116c-0.55346,0.4744 -0.86973,1.10693 -1.10693,1.89759z" fill="#63686E"/>
    <path stroke="null" id="svg_22" d="m141.52338,43.56857l-2.05572,0l0,-10.91114l1.97666,0l0,1.81852l0.07907,0c0.2372,-0.55346 0.63253,-1.10693 1.26506,-1.50226c0.63253,-0.39533 1.26506,-0.63253 1.89759,-0.63253c0.63253,0 1.10693,0.07907 1.50226,0.2372l-0.63253,1.97666c-0.2372,-0.07907 -0.63253,-0.15813 -1.18599,-0.15813c-0.79066,0 -1.42319,0.31627 -1.97666,0.9488c-0.55346,0.63253 -0.86973,1.34413 -0.86973,2.21386l0,6.00904z" fill="#63686E"/>
   </g>
  </g>
 </g>
</svg>