<svg width="160" height="50" xmlns="http://www.w3.org/2000/svg" xmlns:svg="http://www.w3.org/2000/svg">
 <g>
  <title>Layer 1</title>
  <g stroke="null" id="svg_1">
   <path stroke="null" id="svg_2" d="m78.8262,17.09049c-0.62142,0 -1.10476,0.13809 -1.10476,0.75952l0,0.55238c0,0.62142 0.48333,0.75952 1.10476,0.75952s1.10476,-0.13809 1.10476,-0.75952l0,-0.55238c0.06905,-0.62142 -0.48333,-0.75952 -1.10476,-0.75952z" fill="#002A45"/>
   <path stroke="null" id="svg_3" d="m79.30953,20.26666l-0.89761,0c-0.27619,0 -0.55238,0.27619 -0.55238,0.55238c0,0 0,0 0,0l0,7.73329c0,0.27619 0.27619,0.55238 0.55238,0.55238l0,0l0.89761,0c0.27619,0 0.55238,-0.27619 0.55238,-0.55238c0,0 0,0 0,0l0,-7.73329c0,-0.27619 -0.20714,-0.55238 -0.55238,-0.55238c0,0 0,0 0,0z" fill="#002A45"/>
   <path stroke="null" id="svg_4" d="m53.27873,20.19762c-1.1738,0 -2.27856,0.55238 -2.89998,1.51904c-0.48333,-0.96666 -1.51904,-1.51904 -2.55475,-1.44999c-1.10476,0 -2.07142,0.55238 -2.62379,1.44999l0,-0.82857c0,-0.27619 -0.20714,-0.55238 -0.55238,-0.55238c0,0 0,0 0,0l-0.89761,0c-0.27619,0 -0.55238,0.27619 -0.55238,0.55238l0,7.73329c0,0.27619 0.27619,0.55238 0.55238,0.55238l0.89761,0c0.27619,0 0.55238,-0.27619 0.55238,-0.55238l0,-4.41902c-0.13809,-1.03571 0.62142,-2.00237 1.65713,-2.07142c0.06905,0 0.13809,0 0.20714,0c1.03571,0 1.72618,0.75952 1.72618,2.14046l0,4.48807c0,0.27619 0.27619,0.55238 0.55238,0.55238l0.89761,0c0.27619,0 0.55238,-0.27619 0.55238,-0.55238l0,-4.48807c-0.13809,-1.03571 0.55238,-1.93332 1.58809,-2.07142c0.06905,0 0.20714,0 0.27619,0c1.03571,0 1.72618,0.75952 1.72618,2.14046l0,4.41902c0,0.27619 0.27619,0.55238 0.55238,0.55238l0.89761,0c0.27619,0 0.55238,-0.27619 0.55238,-0.55238l0,-5.10949c-0.13809,-2.27856 -1.24285,-3.45236 -3.10712,-3.45236z" fill="#002A45"/>
   <path stroke="null" id="svg_5" d="m136.13538,17.09049c-0.62142,0 -1.10476,0.13809 -1.10476,0.75952l0,0.55238c0,0.62142 0.48333,0.75952 1.10476,0.75952c0.62142,0 1.03571,-0.13809 1.03571,-0.75952l0,-0.55238c0,-0.62142 -0.48333,-0.75952 -1.03571,-0.75952z" fill="#002A45"/>
   <path stroke="null" id="svg_6" d="m136.54966,20.26666l-0.89761,0c-0.27619,0 -0.55238,0.27619 -0.55238,0.55238c0,0 0,0 0,0l0,7.73329c0,0.27619 0.27619,0.55238 0.55238,0.55238l0,0l0.89761,0c0.27619,0 0.55238,-0.27619 0.55238,-0.55238l0,-7.73329c0,-0.27619 -0.27619,-0.55238 -0.55238,-0.55238c0,0 0,0 0,0z" fill="#002A45"/>
   <path stroke="null" id="svg_7" d="m28.42173,19.36905c0.82857,0 1.65713,0.27619 2.34761,0.75952c0.20714,0.13809 0.48333,0.13809 0.69047,0l0.69047,-0.69047c0.20714,-0.20714 0.20714,-0.55238 0.06905,-0.75952c0,0 0,0 -0.06905,-0.06905c-1.03571,-0.89761 -2.34761,-1.3119 -3.72855,-1.3119c-3.24522,0 -5.93806,2.62379 -5.93806,5.93806s2.62379,5.93806 5.93806,5.93806c1.3119,0 2.62379,-0.48333 3.6595,-1.3119c0.20714,-0.20714 0.20714,-0.55238 0.06905,-0.75952c0,0 0,0 -0.06905,-0.06905l-0.69047,-0.69047c-0.06905,-0.06905 -0.20714,-0.13809 -0.34524,-0.13809c-0.13809,0 -0.20714,0.06905 -0.27619,0.13809c-0.69047,0.48333 -1.51904,0.82857 -2.34761,0.75952c-2.14046,0 -3.86664,-1.79523 -3.86664,-3.93569c-0.06905,-2.07142 1.65713,-3.7976 3.86664,-3.7976z" fill="#002A45"/>
   <path stroke="null" id="svg_8" d="m89.11423,20.26666l-0.89761,0c-0.27619,0 -0.55238,0.27619 -0.55238,0.55238c0,0 0,0 0,0l0,0.89761c-0.62142,-0.96666 -1.72618,-1.51904 -2.89998,-1.44999c-2.00237,0 -4.00474,1.58809 -4.00474,4.48807l0,0c0,2.83094 1.93332,4.48807 4.00474,4.48807c1.1738,0 2.27856,-0.48333 2.89998,-1.44999l0,0l0,0.69047c0,1.51904 -1.1738,2.83094 -2.76189,2.83094c-0.96666,0 -1.79523,-0.41428 -2.34761,-1.24285c-0.13809,-0.27619 -0.48333,-0.34524 -0.75952,-0.20714c0,0 0,0 0,0l-0.41428,0.27619c-0.27619,0.13809 -0.34524,0.48333 -0.20714,0.75952c0.75952,1.3119 2.20951,2.07142 3.72855,2.00237c2.41665,0.13809 4.48807,-1.72618 4.55712,-4.14283c0,-0.13809 0,-0.20714 0,-0.34524l0,-7.59519c0.20714,-0.27619 0,-0.55238 -0.34524,-0.55238c0,0 0,0 0,0zm-1.58809,4.41902c0.13809,1.38094 -0.96666,2.62379 -2.34761,2.76189c0,0 -0.06905,0 -0.06905,0c-1.38094,-0.06905 -2.41665,-1.24285 -2.34761,-2.55475c0,-0.06905 0,-0.13809 0,-0.20714l0,0c-0.13809,-1.38094 0.82857,-2.62379 2.14046,-2.76189c0.06905,0 0.06905,0 0.13809,0c1.38094,0.06905 2.4857,1.3119 2.41665,2.69284c0.06905,0.06905 0.06905,0.06905 0.06905,0.06905l0,0z" fill="#002A45"/>
   <path stroke="null" id="svg_9" d="m130.68065,20.19762c-1.10476,0 -2.14046,0.55238 -2.69284,1.44999l0,-0.82857c0,-0.27619 -0.20714,-0.55238 -0.55238,-0.55238c0,0 0,0 0,0l-0.89761,0c-0.27619,0 -0.55238,0.27619 -0.55238,0.55238l0,7.73329c0,0.27619 0.20714,0.55238 0.55238,0.55238l0.89761,0c0.27619,0 0.55238,-0.27619 0.55238,-0.55238c0,0 0,0 0,-0.06905l0,-4.62616c0,-1.03571 0.82857,-1.86427 1.86427,-1.86427c1.03571,0 1.86427,0.82857 1.86427,1.86427c0,0 0,0 0,0l0,4.76426c0,0.27619 0.20714,0.55238 0.55238,0.55238l0.89761,0c0.27619,0 0.55238,-0.27619 0.55238,-0.55238c0,0 0,0 0,0l0,-5.04045c0,-2.07142 -1.10476,-3.38331 -3.03808,-3.38331z" fill="#002A45"/>
   <path stroke="null" id="svg_10" d="m95.67371,20.19762c-1.10476,0 -2.14046,0.55238 -2.69284,1.44999l0,-0.82857c0,-0.27619 -0.20714,-0.55238 -0.55238,-0.55238c0,0 0,0 0,0l-0.89761,0c-0.27619,0 -0.55238,0.27619 -0.55238,0.55238l0,7.73329c0,0.27619 0.20714,0.55238 0.55238,0.55238l0.89761,0c0.27619,0 0.55238,-0.27619 0.55238,-0.55238c0,0 0,0 0,-0.06905l0,-4.62616c0,-1.03571 0.82857,-1.86427 1.86427,-1.86427c1.03571,0 1.86427,0.82857 1.86427,1.86427c0,0 0,0 0,0l0,4.76426c0,0.27619 0.20714,0.55238 0.55238,0.55238l0.89761,0c0.27619,0 0.55238,-0.27619 0.55238,-0.55238c0,0 0,0 0,0l0,-5.04045c0,-2.07142 -1.10476,-3.38331 -3.03808,-3.38331z" fill="#002A45"/>
   <path stroke="null" id="svg_11" d="m159.19715,20.26666l0,0l-0.13809,0c-1.1738,-0.27619 -2.34761,0.34524 -2.89998,1.38094l0,-0.82857c0,-0.27619 -0.20714,-0.55238 -0.55238,-0.55238c0,0 0,0 0,0l-0.89761,0c-0.27619,0 -0.55238,0.27619 -0.55238,0.55238l0,7.73329c0,0.27619 0.27619,0.55238 0.55238,0.55238l0.89761,0c0.27619,0 0.55238,-0.27619 0.55238,-0.55238l0,-3.24522c0,-2.62379 1.38094,-3.10712 2.14046,-3.03808l0.41428,0l0.06905,0c0.20714,0 0.34524,-0.13809 0.34524,-0.27619l0.27619,-1.1738c0,-0.27619 -0.06905,-0.48333 -0.20714,-0.55238z" fill="#002A45"/>
   <path stroke="null" id="svg_12" d="m120.46166,20.19762c-2.4857,0 -4.48807,1.93332 -4.48807,4.41902c0,0 0,0.06905 0,0.06905l0,0c0.13809,2.4857 2.27856,4.48807 4.76426,4.34997c2.34761,-0.13809 4.21188,-2.00237 4.34997,-4.34997l0,0c0,-2.4857 -2.00237,-4.48807 -4.41902,-4.48807c-0.06905,0 -0.13809,0 -0.20714,0zm2.62379,4.48807l0,0c0.06905,1.44999 -0.96666,2.62379 -2.41665,2.76189c-1.44999,0.06905 -2.62379,-0.96666 -2.76189,-2.41665c0,-0.13809 0,-0.20714 0,-0.34524l0,0c-0.06905,-1.44999 0.96666,-2.62379 2.41665,-2.76189c1.44999,-0.06905 2.62379,0.96666 2.76189,2.41665c0,0.13809 0,0.20714 0,0.34524l0,0l0,0z" fill="#002A45"/>
   <path stroke="null" id="svg_13" d="m148.63293,20.19762c-2.4857,-0.06905 -4.48807,1.86427 -4.55712,4.34997c0,0.06905 0,0.06905 0,0.13809l0,0c0.13809,2.4857 2.27856,4.48807 4.76426,4.34997c2.34761,-0.13809 4.21188,-2.00237 4.34997,-4.34997l0,0c0,-2.4857 -2.00237,-4.48807 -4.41902,-4.48807c-0.06905,0 -0.13809,0 -0.13809,0zm2.55475,4.48807l0,0c0.06905,1.44999 -0.96666,2.62379 -2.41665,2.76189c-1.44999,0.06905 -2.62379,-0.96666 -2.76189,-2.41665c0,-0.13809 0,-0.20714 0,-0.34524l0,0c-0.06905,-1.44999 0.96666,-2.62379 2.41665,-2.76189c1.44999,-0.06905 2.62379,0.96666 2.76189,2.41665c0,0.13809 0,0.20714 0,0.34524l0,0l0,0z" fill="#002A45"/>
   <path stroke="null" id="svg_14" d="m114.38551,17.50478l-0.89761,0c-0.13809,0 -0.34524,0.06905 -0.41428,0.20714l-3.6595,5.04045l-3.72855,-5.10949c-0.06905,-0.13809 -0.27619,-0.20714 -0.41428,-0.20714l-0.89761,0c-0.27619,0 -0.55238,0.27619 -0.55238,0.55238c0,0 0,0 0,0l0,10.49518c0,0.27619 0.27619,0.55238 0.55238,0.55238l0,0l0.89761,0c0.27619,0 0.55238,-0.27619 0.55238,-0.55238c0,0 0,0 0,0l0,-7.24996l3.24522,4.21188l0,0l0,0l0,0c0.13809,0.20714 0.34524,0.20714 0.55238,0.13809c0,0 0.06905,-0.06905 0.06905,-0.06905l0,0l0,0l0,0l3.24522,-4.21188l0,7.24996c0,0.27619 0.27619,0.55238 0.55238,0.55238l0,0l0.89761,0c0.27619,0 0.55238,-0.27619 0.55238,-0.55238c0,0 0,0 0,0l0,-10.49518c-0.06905,-0.27619 -0.27619,-0.55238 -0.55238,-0.55238z" fill="#002A45"/>
   <path stroke="null" id="svg_15" d="m62.53105,20.19762c-1.1738,-0.06905 -2.27856,0.48333 -2.89998,1.44999l0,-0.82857c0,-0.27619 -0.20714,-0.55238 -0.55238,-0.55238c0,0 0,0 0,0l-0.89761,0c-0.27619,0 -0.55238,0.27619 -0.55238,0.55238l0,11.32374c0,0.27619 0.27619,0.55238 0.55238,0.55238l0.89761,0c0.27619,0 0.55238,-0.27619 0.55238,-0.55238l0,-4.48807c0.69047,0.96666 1.79523,1.51904 2.89998,1.44999c2.00237,0 4.00474,-1.58809 4.00474,-4.48807l0,0c-0.06905,-2.83094 -2.00237,-4.41902 -4.00474,-4.41902zm1.93332,4.48807c0.13809,1.38094 -0.96666,2.62379 -2.34761,2.76189c0,0 -0.06905,0 -0.06905,0c-1.38094,-0.06905 -2.41665,-1.24285 -2.34761,-2.55475c0,-0.06905 0,-0.13809 0,-0.20714l0,0c-0.13809,-1.38094 0.82857,-2.62379 2.14046,-2.76189c0.06905,0 0.06905,0 0.13809,0c1.38094,0.06905 2.4857,1.3119 2.41665,2.69284c0.06905,0.06905 0.06905,0.06905 0.06905,0.06905l0,0z" fill="#002A45"/>
   <path stroke="null" id="svg_16" d="m41.88594,27.65472l0,0c-0.20714,0 -0.41428,-0.13809 -0.41428,-0.41428l0,0l0,-6.49044c0,-0.27619 -0.20714,-0.55238 -0.48333,-0.55238l-0.89761,0c-0.27619,0 -0.55238,0.27619 -0.55238,0.55238l0,0.89761c-0.62142,-0.96666 -1.72618,-1.51904 -2.89998,-1.44999c-2.00237,0 -4.00474,1.58809 -4.00474,4.48807l0,0c0,2.83094 1.93332,4.48807 4.00474,4.48807c1.1738,0.06905 2.34761,-0.48333 2.96903,-1.44999c0.20714,0.82857 0.96666,1.38094 1.79523,1.38094l0.48333,0c0.20714,0 0.41428,-0.13809 0.41428,-0.34524l0,-0.62142c0,-0.20714 -0.13809,-0.41428 -0.34524,-0.41428c0,-0.06905 -0.06905,-0.06905 -0.06905,-0.06905zm-2.4857,-2.96903c0.13809,1.38094 -0.96666,2.62379 -2.34761,2.76189c0,0 -0.06905,0 -0.06905,0c-1.38094,-0.06905 -2.41665,-1.1738 -2.34761,-2.55475c0,-0.06905 0,-0.13809 0,-0.20714l0,0c-0.13809,-1.38094 0.82857,-2.62379 2.14046,-2.76189c0.06905,0 0.06905,0 0.13809,0c1.38094,0.06905 2.4857,1.3119 2.41665,2.69284c0.06905,0.06905 0.06905,0.06905 0.06905,0.06905l0,0l0,0z" fill="#002A45"/>
   <path stroke="null" id="svg_17" d="m76.54764,27.65472l0,0c-0.20714,0 -0.41428,-0.13809 -0.41428,-0.41428l0,0l0,-6.49044c0,-0.27619 -0.20714,-0.55238 -0.55238,-0.55238c0,0 0,0 0,0l-0.89761,0c-0.27619,0 -0.55238,0.27619 -0.55238,0.55238c0,0 0,0 0,0l0,0.89761c-0.62142,-0.96666 -1.72618,-1.51904 -2.89998,-1.44999c-2.00237,0 -4.00474,1.58809 -4.00474,4.48807l0,0c0,2.83094 1.93332,4.48807 4.00474,4.48807c1.1738,0.06905 2.34761,-0.48333 2.96903,-1.44999c0.20714,0.82857 0.96666,1.38094 1.79523,1.38094l0.48333,0c0.20714,0 0.34524,-0.13809 0.41428,-0.34524l0,-0.62142c0.06905,-0.27619 -0.06905,-0.41428 -0.34524,-0.48333c0.06905,0 0,0 0,0zm-2.4857,-2.96903c0.13809,1.38094 -0.96666,2.62379 -2.34761,2.76189c0,0 -0.06905,0 -0.06905,0c-1.38094,-0.06905 -2.41665,-1.1738 -2.34761,-2.55475c0,-0.06905 0,-0.13809 0,-0.20714l0,0c-0.13809,-1.38094 0.82857,-2.62379 2.14046,-2.76189c0.06905,0 0.06905,0 0.13809,0c1.38094,0.06905 2.4857,1.3119 2.41665,2.69284c0.06905,0.06905 0.06905,0.06905 0.06905,0.06905l0,0l0,0z" fill="#002A45"/>
   <path stroke="null" id="svg_18" d="m143.10915,20.26666l-1.86427,0l0,-2.41665l0,0c0,-0.06905 0,-0.13809 -0.06905,-0.20714c-0.13809,-0.13809 -0.34524,-0.20714 -0.55238,-0.06905l0,0l-0.89761,0.69047c-0.27619,0.20714 -0.41428,0.48333 -0.41428,0.82857l0,1.24285l-0.62142,0c-0.27619,0 -0.55238,0.27619 -0.55238,0.55238l0,0.55238c0,0.27619 0.27619,0.55238 0.55238,0.55238l0.62142,0l0,4.69521c-0.20714,1.1738 0.62142,2.34761 1.79523,2.55475c0.20714,0 0.41428,0.06905 0.62142,0c0.55238,0 1.03571,-0.13809 1.58809,-0.27619c0.13809,-0.06905 0.27619,-0.20714 0.20714,-0.41428c0,-0.13809 -0.13809,-0.82857 -0.13809,-0.82857c0,-0.13809 -0.13809,-0.27619 -0.27619,-0.27619c0,0 -0.06905,0 -0.06905,0c-0.20714,0.06905 -0.48333,0.06905 -0.69047,0.06905c-0.48333,0.06905 -0.96666,-0.27619 -1.03571,-0.82857c0,-0.06905 0,-0.13809 0,-0.27619l0,-4.41902l1.86427,0c0.27619,0 0.55238,-0.27619 0.55238,-0.55238l0,-0.55238c-0.06905,-0.34524 -0.27619,-0.62142 -0.62142,-0.62142c0,0 0,0 0,0z" fill="#002A45"/>
   <path stroke="null" id="svg_19" d="m16.33847,18.60953c-0.20714,-0.27619 -0.55238,-0.34524 -0.82857,-0.13809l-14.84515,10.28803c0.13809,0.13809 0.27619,0.27619 0.48333,0.27619l14.70706,0c0.34524,0 0.62142,-0.27619 0.62142,-0.62142c0,0 0,0 0,0l0,-9.45947c0,-0.06905 -0.06905,-0.20714 -0.13809,-0.34524" fill="#002A45"/>
   <path stroke="null" id="svg_20" d="m1.56236,18.47144c-0.27619,-0.20714 -0.62142,-0.13809 -0.82857,0.13809c-0.06905,0.13809 -0.13809,0.20714 -0.13809,0.34524l0,9.39042l7.04282,-5.66187l-6.07615,-4.21188z" fill="#002A45"/>
  </g>
 </g>
</svg>