<svg width="160" height="50" xmlns="http://www.w3.org/2000/svg" xmlns:svg="http://www.w3.org/2000/svg">
 <g>
  <title>Layer 1</title>
  <g id="guides"/>
  <g stroke="null" id="logotype">
   <path stroke="null" id="svg_1" d="m157.84991,25.41292c-0.82585,-0.53437 -1.89458,-0.34006 -2.47754,0.48579c-0.09717,0.14573 -2.23465,3.2548 -5.97522,3.2548c-1.45735,0 -2.57469,-0.43722 -3.30334,-1.36022c-0.0486,-0.04858 -0.09717,-0.14573 -0.14575,-0.19431c0,0 0.04858,0 0.04858,-0.04858c8.84137,-5.05221 8.74422,-9.37573 8.35559,-10.97885c-0.53439,-1.94316 -2.23465,-3.2062 -4.4207,-3.2062c-5.05223,0 -8.40416,5.63515 -8.40416,10.88169c0,0.6801 0.04855,1.31162 0.14574,1.94316c-1.79744,1.31162 -4.56645,2.96332 -6.99538,2.96332c-1.40881,0 -2.47754,-0.43722 -3.15762,-1.26306c-0.24292,-0.29148 -0.43724,-0.63153 -0.58295,-0.97158c6.75247,-1.94316 9.32715,-6.26669 8.84137,-9.7158c-0.29147,-2.23464 -1.99176,-3.83774 -4.08064,-3.83774c-4.71216,0 -8.11269,4.95505 -8.64706,9.81294c-0.923,-0.09715 -1.70026,-0.34004 -2.42895,-0.82583c0.09716,-0.77727 0.19431,-1.55453 0.19431,-2.28322c0,-1.6031 -0.29148,-2.96332 -0.87442,-4.03205c-0.77727,-1.4088 -2.08891,-2.18605 -3.59484,-2.18605c-0.82585,0 -1.55453,0.43721 -1.99174,1.21447c-0.87444,1.6031 -0.29148,4.71215 1.31162,7.18968c0.29147,0.48579 0.63153,0.923 1.02016,1.36021c-0.87441,2.81759 -2.72042,5.48943 -5.05221,5.48943c-1.06874,0 -1.84601,-0.34006 -2.52612,-1.02016c-0.923,-1.02016 -1.55451,-2.81758 -1.74884,-5.10079c6.60674,-8.25843 9.86154,-16.37112 8.01554,-20.20885c-0.63153,-1.31164 -1.79742,-2.04032 -3.20621,-2.04032c-4.56644,0 -7.28685,5.92663 -8.35559,18.11996c-0.04857,0.72868 -0.09715,1.65168 -0.09715,2.62326c-2.42895,3.30338 -6.46101,7.6269 -10.05585,7.6269c-1.02016,0 -1.79742,-0.34006 -2.28322,-1.06874c-0.04858,-0.04858 -0.09715,-0.14573 -0.14573,-0.19431c0.04858,0 0.09715,-0.04858 0.14573,-0.09716c8.88995,-5.73231 8.74422,-10.05584 8.30701,-11.61037c-0.48579,-1.70026 -2.04031,-2.81757 -4.03206,-2.81757c-5.14936,0 -8.64706,5.92663 -8.64706,11.46464c0,0.48579 0.04858,0.97158 0.09717,1.45737c-1.6517,1.16589 -2.96333,2.23462 -4.27496,3.25478c0.19431,-1.50595 0.48579,-3.44911 0.82584,-6.31527l0,0c0.09715,-0.58294 0.14574,-1.06873 0.19431,-1.31162c0.29147,-2.0889 -3.15763,-2.52611 -3.54626,-0.19433c-0.38863,2.42895 -1.4088,7.43259 -4.27496,7.43259c-1.70026,0 -2.62327,-1.89458 -2.42895,-4.66358c0.2429,-4.37211 2.62326,-7.91837 5.538,-7.91837c1.02016,0 1.50595,1.06873 1.50595,1.06873c0.923,1.65168 3.78916,0.2429 3.15763,-1.50595c-0.29147,-0.77725 -1.21448,-2.76899 -4.56643,-2.76899c-6.80106,0 -8.93853,6.8982 -9.23,11.46464c-0.04858,0.72868 -0.04858,1.45737 0.04858,2.18605c-0.97158,1.16589 -2.0889,2.13747 -3.20621,2.13747c-1.06874,0 -1.74884,-1.21447 -1.36021,-3.98348c0.38863,-2.67184 0.6801,-4.8579 0.82584,-6.12095c0.82584,-5.7809 -6.41242,-5.63515 -6.41242,-5.63515s-0.09716,-3.40053 -2.86616,-3.40053c-1.40879,0 -2.72042,1.11731 -2.72042,3.2062c0,1.94316 1.6031,2.91474 1.6031,2.91474l0,0c-0.34005,3.0119 -1.74884,13.01917 -4.90647,13.01917c-1.40879,0 -1.50595,-1.50595 -1.36021,-2.57469c0.19432,-1.45737 0.43721,-3.98347 0.53437,-4.615c0.29147,-2.08889 -3.15763,-2.5261 -3.54626,-0.19431c-0.38863,2.42895 -1.40879,7.43259 -4.27495,7.43259c-1.70026,0 -2.62326,-2.13749 -2.47753,-4.76075c0.2429,-4.42069 2.62326,-7.82122 5.53801,-7.82122c1.02016,0 1.50595,1.06874 1.50595,1.06874c0.77726,1.65168 3.74058,0.48579 3.15762,-1.50595c-0.24289,-0.87441 -1.21447,-2.76899 -4.56642,-2.76899c-6.80106,0 -8.93853,6.89821 -9.23001,11.46463c-0.04858,0.72869 -0.04858,1.4088 0,2.04032c-0.97158,1.31164 -2.13747,2.28322 -3.25479,2.28322c-1.02016,0 -1.79742,-0.53437 -1.60311,-2.81759c0.09715,-1.06873 1.31163,-8.40416 1.26305,-9.7158c-0.14573,-2.23464 -1.1659,-3.20621 -3.64342,-3.20621c-2.62327,0 -4.56643,1.36022 -5.39227,2.18605c0,0 1.21448,-9.23001 1.45737,-11.02742c0.2429,-1.846 -3.35195,-1.89458 -3.54627,0c-0.09716,0.82583 -1.06874,8.11268 -1.94316,14.91374c-2.04031,4.46927 -6.07237,11.27033 -12.04759,11.27033c-11.31889,0 -6.12095,-24.67811 4.51785,-24.67811c2.47753,0 1.36021,3.98347 -0.29147,6.36383c-1.1659,1.74885 1.79742,3.692 3.4491,0.92301c4.56642,-7.72407 0.72868,-10.59022 -2.91474,-10.59022c-15.73958,0 -21.56906,31.38201 -5.19795,31.38201c5.39227,0 9.03569,-3.0119 11.36748,-6.31527c-0.2429,1.84599 -0.38863,3.10905 -0.43721,3.35195c-0.29148,1.94316 3.35195,1.79743 3.54627,0.14575c0.14573,-1.02016 0.6801,-5.34369 1.11732,-8.69565c0.2429,-1.89458 2.57469,-5.39225 5.19795,-5.39225c0.63153,0 1.02016,0.63152 0.97158,1.16589c-0.09716,0.63152 -1.21447,8.84137 -1.16589,10.05584c0.19431,3.44911 2.67184,4.22638 5.00363,4.22638c1.846,0 3.35195,-0.87442 4.56642,-2.23464c0.82585,1.36022 2.0889,2.23464 3.83774,2.23464c3.9349,0 5.29511,-2.81758 5.29511,-2.81758s0.48579,2.81758 3.88632,2.81758c6.89821,0 8.50131,-11.99901 8.84137,-16.03106c0.38863,0 2.81758,0.14573 3.25479,1.50595c0.38863,1.31162 -0.82584,5.48942 -0.923,9.81294c-0.04858,2.28322 0.77726,4.71217 4.3721,4.71217c2.18605,0 3.9349,-1.02016 5.14938,-2.13747c0.82584,1.31162 2.0889,2.13747 3.78916,2.13747c1.94315,0 3.25478,-0.63152 4.08063,-1.26306c-0.04858,0.38864 -0.09715,0.72869 -0.14574,1.11733l0,0.04856c0,-0.04856 -9.08427,6.5096 -9.08427,12.67912c0,2.42895 1.11732,3.98348 3.98347,3.98348c5.68375,0 7.48116,-7.6269 8.30701,-13.89359c0.04858,-0.29148 0.09715,-0.58295 0.09715,-0.82585c0.87443,-0.6801 1.70026,-1.31162 2.52611,-1.94316c1.1659,-0.92299 2.33179,-1.79741 3.64342,-2.76899c0.04858,0.09715 0.14574,0.19431 0.19432,0.29148c1.21447,1.65168 3.01189,2.5261 5.19794,2.5261c4.12921,0 7.96695,-3.15763 10.68738,-6.26668c0.43721,1.50595 1.06873,2.96332 2.13747,4.12921c1.31164,1.40879 3.10905,2.18605 5.14937,2.18605c3.9349,0 6.65533,-3.15763 8.11269,-6.80106c1.06873,0.48579 2.2832,0.77727 3.54626,0.87442c0.29149,1.26306 0.77726,2.42895 1.55453,3.35196c0.97159,1.16589 2.769,2.57468 5.92664,2.57468s6.26668,-1.70027 8.35561,-3.10905c0.09714,0.14573 0.19431,0.29148 0.29146,0.43721c0.97157,1.21447 2.86617,2.67184 6.07237,2.67184c5.68375,0 8.84135,-4.66359 8.98712,-4.8579c0.43719,-0.77725 0.19431,-1.89458 -0.58295,-2.42895zm-79.76669,20.40317c-0.53437,0 -0.923,-0.34006 -0.923,-1.02017c0,-3.10905 4.80933,-7.33543 4.8579,-7.33543c-0.58295,4.17781 -2.28321,8.35559 -3.9349,8.35559zm21.47191,-29.14739c0.43722,0 0.53437,0.34006 0.63153,0.53437c0.19431,0.6801 -0.48579,3.25478 -5.68374,6.84964c0.29147,-3.40053 2.38036,-7.38401 5.05221,-7.38401zm16.51685,-12.29048c1.50595,0 0.29147,5.14937 -4.51784,12.33906c1.11731,-9.57005 2.67184,-12.33906 4.51784,-12.33906zm19.23728,12.29048c0.77725,0 0.82582,0.77727 0.87442,1.06874c0.19431,1.45737 -1.16589,4.08063 -5.63516,5.58658c0.48579,-3.15763 2.57469,-6.65532 4.76074,-6.65532zm14.57368,0c0.53438,0 0.82582,0.38862 0.97159,0.87441c0.29146,1.02016 -1.06874,3.59486 -5.82948,6.50959c0.09717,-3.40053 2.13747,-7.38401 4.85789,-7.38401z" opacity="0.87"/>
  </g>
 </g>
</svg>