<svg width="160" height="50" xmlns="http://www.w3.org/2000/svg" xmlns:svg="http://www.w3.org/2000/svg">
 <defs>
  <style>.cls-1{fill:#3e4f59;}.cls-2{fill:#5fca8e;}.cls-3{fill:#3d9ff8;}.cls-4{fill:#42525b;}.cls-5{fill:#44535d;}.cls-6{fill:#43535c;}.cls-7{fill:#43525c;}.cls-8{fill:#45555e;}.cls-9{fill:#42515b;}.cls-10{fill:#32434e;}</style>
 </defs>
 <g class="layer">
  <title>Layer 1</title>
  <g id="Guidelines">
   <g id="Xb2p3z">
    <path class="cls-1" d="m98.97807,26.51415c0.14,-3.61378 1.70627,-6.37006 5.1363,-7.71757c2.87003,-1.12876 5.7313,-1.17251 8.16382,1.24251c0.14,0 0.105,-0.13125 0.13125,-0.21875c0.14875,-0.55125 -0.35,-1.46126 0.32375,-1.61876a11.1301,11.1301 0 0 1 3.05378,0c0.30625,0 0.23625,0.39375 0.23625,0.62126c0,5.60005 0.07,11.2001 -0.105,16.7914a7.87507,7.87507 0 0 1 -6.28256,7.70882c-4.19129,0.87501 -8.12007,-0.87501 -9.94009,-4.20004c-0.4025,-0.75251 -0.455,-1.22501 0.4725,-1.47001a2.21377,2.21377 0 0 0 0.39375,-0.16625a4.56754,4.56754 0 0 1 1.65376,-0.65626c0.64751,0 0.64751,0.87501 0.99751,1.35626c1.40001,1.82877 3.29878,2.24877 5.4163,1.90752c1.98627,-0.3325 3.01878,-1.70627 3.50003,-3.57003a8.87258,8.87258 0 0 0 0.2275,-2.94878c-2.69502,2.67752 -5.7488,2.57252 -8.82008,1.12001s-4.52379,-4.13004 -4.59379,-7.53382c0.21,0 0.39375,-0.105 0.3675,-0.3675s-0.16625,-0.245 -0.3325,-0.28zm3.55253,0.3675c0,3.01003 2.04752,5.25005 4.83004,5.25005a5.0488,5.0488 0 0 0 5.0663,-5.25005a5.12755,5.12755 0 0 0 -5.0838,-5.1713c-2.78253,-0.06125 -4.82129,2.15252 -4.81254,5.1713z" id="svg_1"/>
    <path class="cls-2" d="m20.41986,14.79779l0,7.64757c0,1.47001 -0.5075,1.96002 -1.97752,1.96002l-4.56754,0c-1.20751,0 -1.75002,-0.5425 -1.75002,-1.75002c0,-0.87501 0,-1.69752 0,-2.54627c0,-1.16376 -0.69126,-1.52251 -1.66252,-0.87501c-2.68627,1.75002 -5.3638,3.44753 -8.05007,5.1538c-0.28,0.18375 -0.57751,0.5425 -0.93626,0.3675s-0.1925,-0.63001 -0.1925,-0.96251c0,-2.23127 0,-4.46254 0,-6.69381a2.73877,2.73877 0 0 1 1.52251,-2.62502c5.25005,-2.86128 10.5701,-5.7488 15.86389,-8.61008c1.12001,-0.60376 1.75002,-0.21 1.75002,1.07626c0.00875,2.61627 0,5.2413 0,7.85757z" id="svg_2"/>
    <path class="cls-3" d="m1.27468,35.19423c0,-2.51127 0,-5.0313 0,-7.54257c0,-1.60126 0.46375,-2.05627 2.10002,-2.05627s3.04503,0 4.56754,0c1.12001,0 1.60126,0.51625 1.62751,1.63626c0,0.87501 0,1.69752 0,2.54627c0,1.27751 0.67376,1.64501 1.75002,0.99751c2.37127,-1.42626 4.71629,-2.87003 7.08756,-4.28754c0.46375,-0.28 0.93626,-0.87501 1.52251,-0.48125s0.4725,1.05001 0.4725,1.64501c0,1.69752 0,3.40378 0,5.1013a2.88753,2.88753 0 0 1 -1.64501,2.83503c-5.25005,2.81753 -10.43884,5.6788 -15.66264,8.50508c-1.23376,0.67376 -1.84627,0.28 -1.84627,-1.14626c-0.0175,-2.58127 0.02625,-5.1713 0.02625,-7.75257z" id="svg_3"/>
    <path class="cls-4" d="m141.70471,18.19282a11.54135,11.54135 0 0 1 2.95753,0c0.04375,0.11375 0.07875,0.245 0.21875,0.07875c0.3325,0.28875 0.16625,0.66501 0.16625,0.99751c0,2.62502 -0.07,5.32005 0,7.97132a4.91754,4.91754 0 0 0 6.77256,4.50629a5.25005,5.25005 0 0 0 3.20253,-5.05755c0,-2.55502 0,-5.11005 0,-7.65632c0,-0.68251 0.175,-0.87501 0.87501,-0.93626c2.83503,-0.09625 2.83503,-0.09625 2.83503,2.62502c0,4.61129 0.0525,9.22258 0,13.82513c-0.04375,2.77378 -0.87501,5.2938 -3.10628,7.15756c-4.03379,3.32503 -10.9201,1.89877 -13.29137,-2.73877c-0.3675,-0.71751 -0.27125,-1.10251 0.5075,-1.31251a3.69253,3.69253 0 0 0 0.39375,-0.1575a4.62004,4.62004 0 0 1 1.64501,-0.67376c0.70001,0 0.64751,0.87501 1.00626,1.33001a5.30255,5.30255 0 0 0 5.6263,1.87252c2.03002,-0.42 2.97503,-1.92502 3.36003,-3.81503a7.87507,7.87507 0 0 0 0.1925,-2.69502a5.9763,5.9763 0 0 1 -3.76253,1.98627a8.53133,8.53133 0 0 1 -9.80009,-7.87507c-0.14,-3.07128 0,-6.12506 0,-9.24008l0.20125,-0.1925z" id="svg_4"/>
    <path class="cls-1" d="m65.98152,26.51415c0.13125,-3.66628 1.75002,-6.44006 5.25005,-7.76132c2.83503,-1.07626 5.6963,-1.12876 8.05882,1.28626c0,0 0.11375,-0.06125 0.13125,-0.105c0.18375,-0.58626 -0.35,-1.54876 0.3325,-1.75002a9.96634,9.96634 0 0 1 3.06253,0c0.35,0 0.2625,0.44625 0.2625,0.71751c0,5.3113 0,10.6226 0,15.94264c0,0.67376 -0.25375,0.87501 -0.87501,0.81376a3.50003,3.50003 0 0 0 -0.525,0c-2.10877,0 -2.10877,0 -2.30127,-2.04752c-2.52877,2.57252 -5.4863,2.53752 -8.49633,1.23376s-4.69879,-3.88504 -4.90004,-7.21882c0.62126,-0.4025 0.63001,-0.76126 0,-1.11126zm8.33883,-4.85629a4.90879,4.90879 0 0 0 -4.77754,5.18005c0,3.03628 2.08252,5.25005 4.92629,5.25005a5.14505,5.14505 0 0 0 4.95254,-5.4163a5.04005,5.04005 0 0 0 -5.1013,-5.0138z" id="svg_5"/>
    <path class="cls-5" d="m49.73262,35.43923c-1.00626,0.44625 -2.06502,0.18375 -3.09753,0.16625c-0.61251,0 -0.41125,-0.63876 -0.41125,-1.02376c0,-4.55004 0,-9.10883 0,-13.66762c0,-2.46752 0,-4.94379 0,-7.41132a1.89002,1.89002 0 0 1 0.105,-1.03251l0.27125,-0.21a14.70013,14.70013 0 0 1 2.97503,0l0.20125,0.21l0,7.87507a6.93006,6.93006 0 0 1 4.20879,-2.24877c4.73379,-0.4725 8.20757,2.62502 8.19882,7.36757c0,3.24628 0,6.49256 -0.0525,9.74759l-0.07875,0a0.53375,0.53375 0 0 0 0,0.1575a5.7838,5.7838 0 0 1 -3.36003,0c0.16625,-0.1225 0.07,-0.175 -0.0525,-0.21875c0,-2.68627 -0.04375,-5.37255 -0.06125,-8.05882c0,-0.455 0,-0.87501 0,-1.38251c-0.21,-2.87878 -1.64501,-4.19129 -4.52379,-4.13004a4.16504,4.16504 0 0 0 -4.22629,4.37504c-0.06125,3.07128 0,6.12506 -0.06125,9.22258l-0.07875,0a0.5075,0.5075 0 0 0 0.04375,0.2625z" id="svg_6"/>
    <path class="cls-4" d="m26.38741,28.27291l0,-0.1225c0,-5.5563 2.09127,-7.64757 5.25005,-9.18758a8.29508,8.29508 0 0 1 9.24008,1.25126c0.71751,0.58626 0.87501,1.06751 0,1.62751a0.66501,0.66501 0 0 0 -0.07875,0.07875l-0.23625,0.245a6.12506,6.12506 0 0 1 -0.87501,0.65626a1.08501,1.08501 0 0 1 -1.19876,0l-0.64751,-0.44625l-0.11375,-0.07875a5.09255,5.09255 0 0 0 -5.9063,0.72626a5.3813,5.3813 0 0 0 0.44625,8.06757a4.90004,4.90004 0 0 0 6.23881,-0.27125c0.455,-0.4025 0.72626,-0.44625 1.11126,0s0.64751,0.65626 0.98001,0.98001c1.14626,1.13751 1.15501,1.15501 -0.1225,2.09127a8.93383,8.93383 0 0 1 -9.49384,1.02376a7.56007,7.56007 0 0 1 -4.59379,-6.64131z" id="svg_7"/>
    <path class="cls-6" d="m129.76085,26.14665c0,-2.73002 0,-5.4513 0,-8.18132a5.58255,5.58255 0 0 1 5.56505,-5.7488c1.02376,0 2.04752,0 3.08003,0c0.63876,0 0.76126,0.2625 0.46375,0.77876c-0.41125,0.74376 -0.87501,1.47001 -1.26001,2.21377c-0.2275,0.41125 -0.59501,0.4375 -0.99751,0.42875a5.11005,5.11005 0 0 0 -1.75002,0.175c-1.33876,0.455 -1.47876,1.56626 -1.50501,2.74752c-0.04375,1.82877 -0.0525,1.82877 1.75002,1.82877c0.70876,0 1.41751,0 2.12627,0c0.56876,0 0.72626,0.21 0.71751,0.75251c-0.0525,2.70377 0.32375,2.14377 -2.05627,2.17877c-2.52002,0 -2.52002,0 -2.52002,2.52877c0,2.93128 0,5.8713 0,8.81133c0,0.77001 -0.18375,1.05001 -1.00626,1.04126c-2.62502,0 -2.62502,0 -2.62502,-2.51127l0.0175,-7.04381z" id="svg_8"/>
    <path class="cls-7" d="m91.5405,20.19659a6.78131,6.78131 0 0 1 4.66379,-2.04752c0.70001,-0.06125 0.91876,0.1575 0.87501,0.79626l0,0.105a6.44006,6.44006 0 0 1 0,2.21377c-0.2975,0.77876 -1.29501,0.39375 -1.96002,0.61251a5.39005,5.39005 0 0 0 -3.50003,4.9788c-0.11375,2.54627 -0.09625,5.1013 -0.07,7.64757c0,0.87501 -0.21,1.17251 -1.12001,1.15501c-2.54627,0 -2.54627,0 -2.54627,-2.62502c0,-4.63754 0,-9.28383 0,-13.92138c0,-0.87501 0.245,-1.19001 1.07626,-1.06751a1.97752,1.97752 0 0 0 0.32375,0c2.00377,0.0525 2.00377,0.0525 2.25752,2.15252z" id="svg_9"/>
    <path class="cls-7" d="m124.65955,26.7504c0,2.62502 0,5.25005 0,7.87507c0,0.80501 -0.245,1.02376 -1.02376,1.02376c-2.62502,0 -2.62502,0 -2.62502,-2.62502c0,-4.63754 0,-9.28383 0,-13.92138c0,-0.87501 0.2625,-1.07626 1.08501,-1.06751c2.56377,0 2.56377,0 2.56377,2.54627l0,6.16881z" id="svg_10"/>
    <path class="cls-8" d="m122.90954,12.19027c1.75002,0 1.75002,0 1.75002,1.75002c0,1.89002 0,1.89002 -1.93377,1.89002a5.1888,5.1888 0 0 0 -0.63876,0c-0.87501,0.11375 -1.19876,-0.21 -1.06751,-1.06751a3.77128,3.77128 0 0 0 0,-0.63001c0.00875,-1.94252 0.00875,-1.94252 1.89002,-1.94252z" id="svg_11"/>
    <path class="cls-9" d="m65.98152,26.51415c0.63001,0.35 0.62126,0.70876 0,1.06751l0,-1.06751z" id="svg_12"/>
    <path class="cls-9" d="m98.97807,26.51415c0.16625,0 0.32375,0.07875 0.35,0.28s-0.1575,0.3325 -0.3675,0.3675l0.0175,-0.64751z" id="svg_13"/>
    <path class="cls-10" d="m46.59134,12.26027l-0.27125,0.21a0.21875,0.21875 0 0 1 0.27125,-0.21z" id="svg_14"/>
    <path class="cls-10" d="m49.76762,12.47902l-0.20125,-0.21c0.1575,-0.0175 0.21875,0.06125 0.20125,0.21z" id="svg_15"/>
    <path class="cls-10" d="m141.70471,18.19282l-0.21,0.245c-0.0175,-0.1575 0.04375,-0.245 0.21,-0.245z" id="svg_16"/>
    <path class="cls-10" d="m144.88098,18.24532c-0.14,0.16625 -0.175,0 -0.21875,-0.07875l0.21875,0.07875z" id="svg_17"/>
    <path class="cls-10" d="m49.73262,35.43923a0.5075,0.5075 0 0 1 0,-0.1575l0.07875,0l-0.07875,0.1575z" id="svg_18"/>
    <path class="cls-10" d="m58.6752,35.22923c0.1225,0.04375 0.21875,0.09625 0.0525,0.21875l-0.0525,-0.21875z" id="svg_19"/>
    <path class="cls-10" d="m62.08773,35.43923a0.53375,0.53375 0 0 1 0,-0.1575l0.07875,0l-0.07875,0.1575z" id="svg_20"/>
   </g>
  </g>
 </g>
</svg>