<?xml version="1.0"?>
<svg width="160" height="50" xmlns="http://www.w3.org/2000/svg" xmlns:svg="http://www.w3.org/2000/svg">
 <g>
  <title>Layer 1</title>
  <g stroke="null" id="svg_1">
   <g stroke="null" id="svg_2">
    <g stroke="null" id="svg_3">
     <path stroke="null" id="svg_4" d="m17.275454,18.478182c4.028182,0 7.768636,0.863182 10.55,2.301818c2.301818,1.246818 3.644545,2.781364 3.644545,4.22s-1.342727,2.973182 -3.644545,4.22c-2.781364,1.438636 -6.521818,2.301818 -10.55,2.301818s-7.768636,-0.863182 -10.55,-2.301818c-2.301818,-1.246818 -3.644545,-2.781364 -3.644545,-4.22s1.342727,-2.973182 3.644545,-4.22c2.781364,-1.534545 6.521818,-2.301818 10.55,-2.301818m0,-2.205909c-9.015454,0 -16.400454,3.932273 -16.400454,8.727727s7.289091,8.727727 16.400454,8.727727s16.304545,-3.932273 16.304545,-8.727727s-7.289091,-8.727727 -16.304545,-8.727727l0,0z" fill="#2B6190"/>
     <path stroke="null" id="svg_5" d="m17.275454,10.805455c1.438636,0 2.973182,1.342727 4.22,3.644545c1.438636,2.781364 2.301818,6.521818 2.301818,10.55s-0.863182,7.768636 -2.301818,10.55c-1.246818,2.301818 -2.781364,3.644545 -4.22,3.644545s-2.973182,-1.342727 -4.22,-3.644545c-1.438636,-2.781364 -2.301818,-6.521818 -2.301818,-10.55s0.863182,-7.768636 2.301818,-10.55c1.150909,-2.301818 2.685454,-3.644545 4.22,-3.644545m0,-2.205909c-4.795454,0 -8.727727,7.289091 -8.727727,16.400454s3.932273,16.400454 8.727727,16.400454s8.727727,-7.289091 8.727727,-16.400454s-3.932273,-16.400454 -8.727727,-16.400454l0,0z" fill="#47BB7F"/>
     <path stroke="null" id="svg_6" d="m24.564545,14.066364c1.150909,0 2.11,0.287727 2.685454,0.863182c1.055,1.055 1.150909,3.069091 0.383636,5.562727c-0.959091,2.973182 -2.973182,6.234091 -5.850454,9.111363c-3.836364,3.836364 -8.535909,6.33 -11.988636,6.33c-1.150909,0 -2.11,-0.287727 -2.685454,-0.863182c-1.055,-1.055 -1.150909,-3.069091 -0.383636,-5.562727c0.959091,-2.973182 2.973182,-6.234091 5.850454,-9.111363c3.836364,-3.836364 8.535909,-6.33 11.988636,-6.33m0,-2.205909c-3.932273,0 -9.111363,2.493636 -13.523182,6.905454c-6.425909,6.425909 -8.823636,14.386363 -5.370909,17.743181c1.055,1.055 2.493636,1.534545 4.22,1.534545c3.932273,0 9.111363,-2.493636 13.523182,-6.905454c6.425909,-6.425909 8.823636,-14.386363 5.370909,-17.743181c-1.055,-1.055 -2.493636,-1.534545 -4.22,-1.534545l0,0z" fill="#FCBA63"/>
     <path stroke="null" id="svg_7" d="m9.890454,14.066364c3.452727,0 8.152273,2.493636 11.988636,6.33c2.877273,2.877273 4.891364,6.042273 5.850454,9.111363c0.767273,2.493636 0.575455,4.507727 -0.383636,5.562727c-0.575455,0.575455 -1.534545,0.863182 -2.685454,0.863182c-3.452727,0 -8.152273,-2.493636 -11.988636,-6.33c-2.877273,-2.877273 -4.891364,-6.042273 -5.850454,-9.111363c-0.767273,-2.493636 -0.575455,-4.507727 0.383636,-5.562727c0.575455,-0.575455 1.534545,-0.863182 2.685454,-0.863182m0,-2.205909c-1.726364,0 -3.165,0.479545 -4.22,1.534545c-3.452727,3.452727 -0.959091,11.317272 5.370909,17.743181c4.411818,4.411818 9.590909,6.905454 13.523182,6.905454c1.726364,0 3.165,-0.479545 4.22,-1.534545c3.452727,-3.452727 0.959091,-11.317272 -5.370909,-17.743181c-4.411818,-4.411818 -9.590909,-6.905454 -13.523182,-6.905454l0,0z" fill="#57B7DF"/>
    </g>
    <g stroke="null" id="svg_8">
     <path stroke="null" id="svg_9" d="m20.82409,33.535909c-0.479545,0.383636 -0.959091,0.671364 -1.342727,1.055c0.767273,0.383636 1.438636,0.671364 2.205909,0.863182c0.383636,-0.671364 0.671364,-1.342727 0.959091,-2.11c-0.671364,0 -1.246818,0.095909 -1.822273,0.191818z" fill="none"/>
     <path stroke="null" id="svg_10" d="m23.797272,35.933637c0.287727,0 0.575455,0 0.767273,0c1.150909,0 2.11,-0.287727 2.685454,-0.863182c0.767273,-0.767273 1.055,-2.014091 0.863182,-3.548636c-0.959091,0.479545 -2.014091,0.863182 -3.165,1.150909c-0.287727,1.150909 -0.767273,2.205909 -1.150909,3.260909z" fill="none"/>
     <path stroke="null" id="svg_11" d="m25.811363,28.548637c-0.095909,0.575455 -0.191818,1.150909 -0.287727,1.726364c0.767273,-0.287727 1.438636,-0.575455 2.11,-0.959091c-0.191818,-0.671364 -0.479545,-1.438636 -0.863182,-2.205909c-0.287727,0.479545 -0.671364,0.959091 -0.959091,1.438636z" fill="none"/>
     <path stroke="null" id="svg_12" d="m13.726818,16.464092c0.479545,-0.383636 0.959091,-0.671364 1.342727,-1.055c-0.767273,-0.383636 -1.438636,-0.671364 -2.205909,-0.863182c-0.383636,0.671364 -0.671364,1.342727 -0.959091,2.11c0.671364,0 1.246818,-0.095909 1.822273,-0.191818z" fill="none"/>
     <path stroke="null" id="svg_13" d="m10.753636,14.066364c-0.287727,0 -0.575455,0 -0.767273,0c-1.150909,0 -2.11,0.287727 -2.685454,0.863182c-0.767273,0.767273 -1.055,2.014091 -0.863182,3.548636c0.959091,-0.479545 2.014091,-0.863182 3.165,-1.150909c0.287727,-1.150909 0.671364,-2.205909 1.150909,-3.260909z" fill="none"/>
     <path stroke="null" id="svg_14" d="m29.551818,28.069091c1.246818,-0.959091 1.918182,-2.014091 1.918182,-3.069091s-0.671364,-2.11 -1.918182,-3.069091c-0.383636,1.055 -0.863182,2.014091 -1.438636,3.069091c0.575455,1.055 1.055,2.11 1.438636,3.069091z" fill="none"/>
     <path stroke="null" id="svg_15" d="m8.739545,28.548637c-0.383636,-0.479545 -0.671364,-0.959091 -1.055,-1.342727c-0.383636,0.767273 -0.671364,1.438636 -0.863182,2.205909c0.671364,0.383636 1.342727,0.671364 2.11,0.959091c-0.095909,-0.671364 -0.095909,-1.246818 -0.191818,-1.822273z" fill="none"/>
     <path stroke="null" id="svg_16" d="m20.344545,12.723637c-0.959091,-1.246818 -2.014091,-1.918182 -3.069091,-1.918182c-1.055,0 -2.11,0.671364 -3.069091,1.918182c1.055,0.383636 2.014091,0.863182 3.069091,1.438636c1.055,-0.671364 2.014091,-1.150909 3.069091,-1.438636z" fill="none"/>
     <path stroke="null" id="svg_17" d="m14.110454,37.276364c0.959091,1.246818 2.014091,1.918182 3.069091,1.918182c1.055,0 2.11,-0.671364 3.069091,-1.918182c-1.055,-0.383636 -2.014091,-0.863182 -3.069091,-1.438636c-0.959091,0.671364 -2.014091,1.150909 -3.069091,1.438636z" fill="none"/>
     <path stroke="null" id="svg_18" d="m6.341818,31.521819c-0.191818,1.534545 0.095909,2.781364 0.863182,3.548636c0.575455,0.575455 1.534545,0.863182 2.685454,0.863182c0.287727,0 0.575455,0 0.767273,0c-0.479545,-0.959091 -0.863182,-2.014091 -1.150909,-3.165c-1.150909,-0.383636 -2.205909,-0.767273 -3.165,-1.246818z" fill="none"/>
     <path stroke="null" id="svg_19" d="m4.903182,21.93091c-1.246818,0.959091 -1.918182,2.014091 -1.918182,3.069091s0.671364,2.11 1.918182,3.069091c0.383636,-1.055 0.863182,-2.014091 1.438636,-3.069091c-0.575455,-1.055 -1.055,-2.11 -1.438636,-3.069091z" fill="none"/>
     <path stroke="null" id="svg_20" d="m13.726818,33.535909c-0.575455,-0.095909 -1.150909,-0.191818 -1.726364,-0.287727c0.287727,0.767273 0.575455,1.438636 0.959091,2.11c0.671364,-0.191818 1.438636,-0.479545 2.205909,-0.863182c-0.575455,-0.287727 -0.959091,-0.575455 -1.438636,-0.959091z" fill="none"/>
     <path stroke="null" id="svg_21" d="m8.739545,21.451364c0.095909,-0.575455 0.191818,-1.150909 0.287727,-1.726364c-0.767273,0.287727 -1.438636,0.575455 -2.11,0.959091c0.191818,0.671364 0.479545,1.438636 0.863182,2.205909c0.191818,-0.479545 0.575455,-0.959091 0.959091,-1.438636z" fill="none"/>
     <path stroke="null" id="svg_22" d="m23.701363,22.314546c-0.575455,-0.671364 -1.150909,-1.342727 -1.822273,-2.014091c-0.671364,-0.671364 -1.342727,-1.246818 -2.014091,-1.822273c-0.863182,-0.095909 -1.726364,-0.095909 -2.685454,-0.095909s-1.822273,0 -2.685454,0.095909c-0.671364,0.575455 -1.342727,1.150909 -2.014091,1.822273c-0.671364,0.671364 -1.246818,1.342727 -1.822273,2.014091c-0.095909,0.863182 -0.095909,1.726364 -0.095909,2.685454c0,0.863182 0,1.822273 0.095909,2.685454c0.575455,0.671364 1.150909,1.342727 1.822273,2.014091c0.671364,0.671364 1.342727,1.246818 2.014091,1.822273c0.863182,0.095909 1.726364,0.095909 2.685454,0.095909c0.863182,0 1.822273,0 2.685454,-0.095909c0.671364,-0.575455 1.342727,-1.150909 2.014091,-1.822273c0.671364,-0.671364 1.246818,-1.342727 1.822273,-2.014091c0.095909,-0.863182 0.095909,-1.726364 0.095909,-2.685454s0,-1.822273 -0.095909,-2.685454z" fill="none"/>
     <path stroke="null" id="svg_23" d="m25.811363,21.451364c0.383636,0.479545 0.671364,0.959091 1.055,1.342727c0.383636,-0.767273 0.671364,-1.438636 0.863182,-2.205909c-0.671364,-0.383636 -1.342727,-0.671364 -2.11,-0.959091c0,0.671364 0.095909,1.246818 0.191818,1.822273z" fill="none"/>
     <path stroke="null" id="svg_24" d="m28.113181,18.478182c0.191818,-1.534545 -0.095909,-2.781364 -0.863182,-3.548636c-0.575455,-0.575455 -1.534545,-0.863182 -2.685454,-0.863182c-0.287727,0 -0.575455,0 -0.767273,0c0.479545,0.959091 0.863182,2.014091 1.150909,3.165c1.150909,0.383636 2.205909,0.767273 3.165,1.246818z" fill="none"/>
     <path stroke="null" id="svg_25" d="m20.82409,16.464092c0.575455,0.095909 1.150909,0.191818 1.726364,0.287727c-0.287727,-0.767273 -0.575455,-1.438636 -0.959091,-2.11c-0.671364,0.191818 -1.438636,0.479545 -2.205909,0.863182c0.479545,0.287727 0.959091,0.575455 1.438636,0.959091z" fill="none"/>
     <path stroke="null" id="svg_26" d="m12.000454,33.248182c0.575455,0.095909 1.150909,0.191818 1.726364,0.287727c-0.767273,-0.575455 -1.534545,-1.246818 -2.205909,-1.918182c0.095909,0.575455 0.287727,1.150909 0.479545,1.630455z" fill="#2B6190"/>
     <path stroke="null" id="svg_27" d="m22.454545,16.751819c-0.575455,-0.095909 -1.150909,-0.191818 -1.726364,-0.287727c0.767273,0.575455 1.534545,1.246818 2.205909,1.918182c-0.095909,-0.575455 -0.287727,-1.150909 -0.479545,-1.630455z" fill="#2B6190"/>
     <path stroke="null" id="svg_28" d="m25.523636,30.275c0.095909,-0.575455 0.191818,-1.150909 0.287727,-1.726364c-0.575455,0.767273 -1.246818,1.534545 -1.918182,2.205909c0.479545,-0.191818 1.055,-0.287727 1.630455,-0.479545z" fill="#47BB7F"/>
     <path stroke="null" id="svg_29" d="m8.931363,19.725001c-0.095909,0.575455 -0.191818,1.150909 -0.287727,1.726364c0.575455,-0.767273 1.246818,-1.534545 1.918182,-2.205909c-0.479545,0.191818 -1.055,0.287727 -1.630455,0.479545z" fill="#47BB7F"/>
     <path stroke="null" id="svg_30" d="m15.069545,15.409092c-0.479545,0.287727 -0.959091,0.671364 -1.342727,1.055c0.959091,-0.095909 1.918182,-0.191818 2.877273,-0.191818c-0.479545,-0.287727 -0.959091,-0.575455 -1.534545,-0.863182z" fill="#FCBA63"/>
     <path stroke="null" id="svg_31" d="m19.385454,34.590909c0.479545,-0.287727 0.959091,-0.671364 1.342727,-1.055c-0.959091,0.095909 -1.918182,0.191818 -2.877273,0.191818c0.479545,0.287727 1.055,0.575455 1.534545,0.863182z" fill="#FCBA63"/>
     <path stroke="null" id="svg_32" d="m30.127272,19.629092c-0.575455,-0.383636 -1.246818,-0.767273 -2.014091,-1.150909c-0.959091,-0.479545 -2.014091,-0.863182 -3.165,-1.150909c0.191818,0.767273 0.383636,1.630455 0.575455,2.493636c0.767273,0.287727 1.438636,0.575455 2.11,0.959091c0,0 0.095909,0 0.095909,0.095909c0.671364,0.383636 1.246818,0.767273 1.726364,1.150909c1.246818,0.959091 1.918182,2.014091 1.918182,3.069091s-0.671364,2.11 -1.918182,3.069091c0.287727,0.767273 0.479545,1.534545 0.575455,2.301818c2.11,-1.438636 3.452727,-3.356818 3.452727,-5.370909s-1.150909,-3.932273 -3.356818,-5.466818z" fill="#2B6190"/>
     <path stroke="null" id="svg_33" d="m8.931363,30.275c-0.767273,-0.287727 -1.438636,-0.575455 -2.11,-0.959091c0,0 -0.095909,0 -0.095909,-0.095909c-0.671364,-0.383636 -1.246818,-0.767273 -1.726364,-1.150909c-1.246818,-0.959091 -1.918182,-2.014091 -1.918182,-3.069091s0.671364,-2.11 1.918182,-3.069091c-0.287727,-0.767273 -0.479545,-1.534545 -0.575455,-2.301818c-2.11,1.438636 -3.452727,3.356818 -3.452727,5.370909s1.246818,3.836364 3.452727,5.370909c0.575455,0.383636 1.246818,0.767273 2.014091,1.150909c0.959091,0.479545 2.014091,0.863182 3.165,1.150909c-0.287727,-0.767273 -0.479545,-1.534545 -0.671364,-2.397727z" fill="#2B6190"/>
     <path stroke="null" id="svg_34" d="m28.784545,13.395001c-1.055,-1.055 -2.493636,-1.534545 -4.22,-1.534545c-0.671364,0 -1.246818,0.095909 -1.918182,0.191818c-0.767273,0.095909 -1.438636,0.383636 -2.301818,0.575455c-1.055,0.383636 -2.014091,0.863182 -3.069091,1.438636c0.671364,0.383636 1.438636,0.863182 2.11,1.342727c0.767273,-0.383636 1.438636,-0.671364 2.205909,-0.863182c0.767273,-0.287727 1.534545,-0.383636 2.205909,-0.479545c0.287727,0 0.575455,0 0.767273,0c1.150909,0 2.11,0.287727 2.685454,0.863182c0.767273,0.767273 1.055,2.014091 0.863182,3.548636c0.767273,0.383636 1.438636,0.767273 2.014091,1.150909c0.479545,-2.589545 0.095909,-4.795454 -1.342727,-6.234091z" fill="#FCBA63"/>
     <path stroke="null" id="svg_35" d="m15.069545,34.590909c-0.767273,0.383636 -1.438636,0.671364 -2.205909,0.863182c-0.767273,0.287727 -1.534545,0.383636 -2.205909,0.479545c-0.287727,0 -0.575455,0 -0.767273,0c-1.150909,0 -2.11,-0.287727 -2.685454,-0.863182c-0.767273,-0.767273 -1.055,-2.014091 -0.863182,-3.548636c-0.767273,-0.383636 -1.438636,-0.767273 -2.014091,-1.150909c-0.479545,2.589545 -0.095909,4.795454 1.342727,6.234091c1.055,1.055 2.493636,1.534545 4.22,1.534545c0.671364,0 1.246818,-0.095909 1.918182,-0.191818c0.767273,-0.095909 1.438636,-0.383636 2.301818,-0.575455c1.055,-0.383636 2.014091,-0.863182 3.069091,-1.438636c-0.671364,-0.479545 -1.342727,-0.863182 -2.11,-1.342727z" fill="#FCBA63"/>
     <path stroke="null" id="svg_36" d="m27.729545,29.411819c0,0 0,-0.095909 0,-0.095909c-0.671364,0.383636 -1.342727,0.671364 -2.11,0.959091c-0.575455,0.191818 -1.150909,0.383636 -1.726364,0.479545c-0.191818,0.095909 -0.479545,0.095909 -0.671364,0.191818c-1.055,0.191818 -2.11,0.383636 -3.260909,0.479545c-0.863182,0.095909 -1.726364,0.095909 -2.685454,0.095909c-0.863182,0 -1.822273,0 -2.685454,-0.095909c0.863182,0.671364 1.726364,1.342727 2.685454,1.918182c0.191818,0.095909 0.383636,0.287727 0.575455,0.383636c0.959091,0 2.014091,-0.095909 2.877273,-0.191818c0.575455,-0.095909 1.150909,-0.191818 1.726364,-0.287727c0.863182,-0.191818 1.726364,-0.383636 2.493636,-0.575455c1.150909,-0.287727 2.205909,-0.767273 3.165,-1.150909c0,-0.671364 -0.191818,-1.342727 -0.383636,-2.11z" fill="#2B6190"/>
     <path stroke="null" id="svg_37" d="m17.275454,16.65591c-0.191818,-0.095909 -0.383636,-0.287727 -0.575455,-0.383636c-0.959091,0 -2.014091,0.095909 -2.877273,0.191818c-0.575455,0.095909 -1.150909,0.191818 -1.726364,0.287727c-0.863182,0.191818 -1.726364,0.383636 -2.493636,0.575455c-1.150909,0.287727 -2.205909,0.767273 -3.165,1.150909c0.095909,0.671364 0.191818,1.342727 0.479545,2.014091c0,0 0,0.095909 0,0.095909c0.671364,-0.383636 1.342727,-0.671364 2.11,-0.959091c0.575455,-0.191818 1.150909,-0.383636 1.726364,-0.479545c0.191818,-0.095909 0.479545,-0.095909 0.671364,-0.191818c1.055,-0.191818 2.11,-0.383636 3.260909,-0.479545c0.863182,-0.095909 1.726364,-0.095909 2.685454,-0.095909s1.822273,0 2.685454,0.095909c-1.055,-0.575455 -1.918182,-1.246818 -2.781364,-1.822273z" fill="#2B6190"/>
     <path stroke="null" id="svg_38" d="m26.003181,24.424546c0.287727,-0.479545 0.575455,-1.055 0.863182,-1.534545c-0.287727,-0.479545 -0.671364,-0.959091 -1.055,-1.342727c0.095909,0.863182 0.095909,1.822273 0.191818,2.877273z" fill="#57B7DF"/>
     <path stroke="null" id="svg_39" d="m7.684545,27.11c0.287727,0.479545 0.671364,0.959091 1.055,1.342727c-0.095909,-0.959091 -0.191818,-1.918182 -0.191818,-2.973182c-0.287727,0.671364 -0.575455,1.150909 -0.863182,1.630455z" fill="#57B7DF"/>
     <path stroke="null" id="svg_40" d="m30.127272,30.37091c-0.095909,-0.767273 -0.383636,-1.438636 -0.575455,-2.301818c-0.383636,-1.055 -0.863182,-2.014091 -1.438636,-3.069091c-0.383636,0.671364 -0.863182,1.438636 -1.342727,2.11c0.383636,0.767273 0.671364,1.438636 0.863182,2.205909c0,0 0,0.095909 0,0.095909c0.191818,0.767273 0.383636,1.438636 0.479545,2.014091c0.191818,1.534545 -0.095909,2.781364 -0.863182,3.548636c-0.575455,0.575455 -1.534545,0.863182 -2.685454,0.863182c-0.287727,0 -0.575455,0 -0.767273,0c-0.383636,0.767273 -0.767273,1.438636 -1.150909,2.014091c0.671364,0.095909 1.342727,0.191818 1.918182,0.191818c1.726364,0 3.165,-0.479545 4.22,-1.534545c1.438636,-1.342727 1.822273,-3.548636 1.342727,-6.138182z" fill="#57B7DF"/>
     <path stroke="null" id="svg_41" d="m9.890454,11.860455c-1.726364,0 -3.165,0.479545 -4.22,1.534545c-1.438636,1.438636 -1.822273,3.644545 -1.342727,6.234091c0.095909,0.767273 0.383636,1.438636 0.575455,2.301818c0.383636,1.055 0.863182,2.014091 1.438636,3.069091c0.383636,-0.671364 0.863182,-1.438636 1.342727,-2.11c-0.383636,-0.767273 -0.671364,-1.438636 -0.863182,-2.205909c0,0 0,-0.095909 0,-0.095909c-0.191818,-0.767273 -0.383636,-1.438636 -0.479545,-2.014091c-0.191818,-1.534545 0.095909,-2.781364 0.863182,-3.548636c0.575455,-0.575455 1.534545,-0.863182 2.685454,-0.863182c0.287727,0 0.575455,0 0.767273,0c0.383636,-0.767273 0.767273,-1.438636 1.150909,-2.014091c-0.575455,-0.191818 -1.246818,-0.287727 -1.918182,-0.287727z" fill="#57B7DF"/>
     <path stroke="null" id="svg_42" d="m17.275454,8.599546c-2.014091,0 -3.836364,1.246818 -5.370909,3.452727c-0.383636,0.575455 -0.767273,1.246818 -1.150909,2.014091c-0.479545,0.959091 -0.863182,2.014091 -1.150909,3.165c0.767273,-0.191818 1.630455,-0.383636 2.493636,-0.575455c0.287727,-0.767273 0.575455,-1.438636 0.959091,-2.11c0,0 0,-0.095909 0.095909,-0.095909c0.383636,-0.671364 0.767273,-1.246818 1.150909,-1.726364c0.959091,-1.246818 2.014091,-1.918182 3.069091,-1.918182c1.055,0 2.11,0.671364 3.069091,1.918182c0.767273,-0.287727 1.534545,-0.479545 2.301818,-0.575455c-1.630455,-2.205909 -3.452727,-3.548636 -5.466818,-3.548636z" fill="#47BB7F"/>
     <path stroke="null" id="svg_43" d="m22.454545,33.248182c-0.287727,0.767273 -0.575455,1.438636 -0.959091,2.11c0,0 0,0.095909 -0.095909,0.095909c-0.383636,0.671364 -0.767273,1.246818 -1.150909,1.726364c-0.959091,1.246818 -2.014091,1.918182 -3.069091,1.918182c-1.055,0 -2.11,-0.671364 -3.069091,-1.918182c-0.767273,0.287727 -1.534545,0.479545 -2.301818,0.575455c1.438636,2.205909 3.356818,3.452727 5.370909,3.452727s3.836364,-1.246818 5.370909,-3.452727c0.383636,-0.575455 0.767273,-1.246818 1.150909,-2.014091c0.479545,-0.959091 0.863182,-2.014091 1.150909,-3.165c-0.671364,0.383636 -1.534545,0.575455 -2.397727,0.671364z" fill="#47BB7F"/>
     <path stroke="null" id="svg_44" d="m25.811363,21.451364c-0.095909,-0.575455 -0.191818,-1.150909 -0.287727,-1.726364c-0.191818,-0.863182 -0.383636,-1.726364 -0.575455,-2.493636c-0.287727,-1.150909 -0.767273,-2.205909 -1.150909,-3.165c-0.671364,0.095909 -1.438636,0.191818 -2.205909,0.479545c0.383636,0.671364 0.671364,1.342727 0.959091,2.11c0.191818,0.575455 0.383636,1.150909 0.479545,1.726364c0.095909,0.191818 0.095909,0.479545 0.191818,0.671364c0.191818,1.055 0.383636,2.11 0.479545,3.260909c0.095909,0.863182 0.095909,1.726364 0.095909,2.685454s0,1.822273 -0.095909,2.685454c0.767273,-0.863182 1.342727,-1.726364 1.918182,-2.685454c0.095909,-0.191818 0.287727,-0.383636 0.383636,-0.575455c-0.095909,-1.055 -0.095909,-2.014091 -0.191818,-2.973182z" fill="#47BB7F"/>
     <path stroke="null" id="svg_45" d="m12.000454,33.248182c-0.191818,-0.575455 -0.383636,-1.150909 -0.479545,-1.726364c-0.095909,-0.191818 -0.095909,-0.479545 -0.191818,-0.671364c-0.191818,-1.055 -0.383636,-2.11 -0.479545,-3.260909c-0.095909,-0.863182 -0.095909,-1.726364 -0.095909,-2.685454c0,-0.863182 0,-1.822273 0.095909,-2.685454c-0.767273,0.863182 -1.342727,1.726364 -1.918182,2.685454c-0.095909,0.191818 -0.287727,0.383636 -0.383636,0.575455c0,0.959091 0.095909,2.014091 0.191818,2.973182c0.095909,0.575455 0.191818,1.150909 0.287727,1.726364c0.191818,0.863182 0.383636,1.726364 0.575455,2.493636c0.287727,1.150909 0.767273,2.205909 1.150909,3.165c0.671364,-0.095909 1.438636,-0.191818 2.205909,-0.479545c-0.383636,-0.575455 -0.671364,-1.342727 -0.959091,-2.11z" fill="#47BB7F"/>
     <path stroke="null" id="svg_46" d="m23.125909,19.053637c-0.095909,-0.191818 -0.095909,-0.479545 -0.191818,-0.671364c-0.767273,-0.671364 -1.438636,-1.342727 -2.205909,-1.918182c-0.479545,-0.383636 -0.959091,-0.671364 -1.342727,-1.055c-0.671364,-0.479545 -1.438636,-0.959091 -2.11,-1.342727c-1.055,-0.575455 -2.11,-1.055 -3.069091,-1.438636c-0.383636,0.479545 -0.767273,1.055 -1.150909,1.726364c0,0 0,0.095909 -0.095909,0.095909c0.671364,0.191818 1.438636,0.479545 2.205909,0.863182c0.479545,0.287727 1.055,0.479545 1.534545,0.863182c0.191818,0.095909 0.383636,0.287727 0.575455,0.383636c0.863182,0.575455 1.822273,1.246818 2.685454,1.918182c0.671364,0.575455 1.342727,1.150909 2.014091,1.822273c0.671364,0.671364 1.246818,1.342727 1.822273,2.014091c-0.191818,-1.055 -0.383636,-2.205909 -0.671364,-3.260909z" fill="#57B7DF"/>
     <path stroke="null" id="svg_47" d="m19.385454,34.590909c-0.479545,-0.287727 -1.055,-0.479545 -1.534545,-0.863182c-0.191818,-0.095909 -0.383636,-0.287727 -0.575455,-0.383636c-0.863182,-0.575455 -1.822273,-1.246818 -2.685454,-1.918182c-0.671364,-0.575455 -1.342727,-1.150909 -2.014091,-1.822273c-0.671364,-0.671364 -1.246818,-1.342727 -1.822273,-2.014091c0.095909,1.150909 0.287727,2.205909 0.479545,3.260909c0.095909,0.191818 0.095909,0.479545 0.191818,0.671364c0.767273,0.671364 1.438636,1.342727 2.205909,1.918182c0.479545,0.383636 0.959091,0.671364 1.342727,1.055c0.671364,0.479545 1.438636,0.959091 2.11,1.342727c1.055,0.575455 2.11,1.055 3.069091,1.438636c0.383636,-0.479545 0.767273,-1.055 1.150909,-1.726364c0,0 0,-0.095909 0.095909,-0.095909c-0.575455,-0.287727 -1.246818,-0.575455 -2.014091,-0.863182z" fill="#57B7DF"/>
     <path stroke="null" id="svg_48" d="m27.825454,20.780001c0,0 -0.095909,0 -0.095909,-0.095909c-0.191818,0.671364 -0.479545,1.438636 -0.863182,2.205909c-0.287727,0.479545 -0.479545,1.055 -0.863182,1.534545c-0.095909,0.191818 -0.191818,0.383636 -0.383636,0.575455c-0.575455,0.863182 -1.246818,1.822273 -1.918182,2.685454c-0.575455,0.671364 -1.150909,1.342727 -1.822273,2.014091c-0.671364,0.671364 -1.342727,1.246818 -2.014091,1.822273c1.150909,-0.095909 2.205909,-0.287727 3.260909,-0.479545c0.191818,-0.095909 0.479545,-0.095909 0.671364,-0.191818c0.671364,-0.767273 1.342727,-1.438636 1.918182,-2.205909c0.383636,-0.479545 0.671364,-0.959091 1.055,-1.342727c0.479545,-0.671364 0.959091,-1.438636 1.342727,-2.11c0.575455,-1.055 1.055,-2.11 1.438636,-3.069091c-0.479545,-0.575455 -1.055,-1.055 -1.726364,-1.342727z" fill="#FCBA63"/>
     <path stroke="null" id="svg_49" d="m11.329091,19.053637c-0.191818,0.095909 -0.479545,0.095909 -0.671364,0.191818c-0.671364,0.767273 -1.342727,1.438636 -1.918182,2.205909c-0.383636,0.479545 -0.671364,0.959091 -1.055,1.342727c-0.479545,0.671364 -0.959091,1.438636 -1.342727,2.11c-0.575455,1.055 -1.055,2.11 -1.438636,3.069091c0.479545,0.383636 1.055,0.767273 1.726364,1.150909c0,0 0.095909,0 0.095909,0.095909c0.191818,-0.671364 0.479545,-1.438636 0.863182,-2.205909c0.287727,-0.479545 0.479545,-1.055 0.863182,-1.534545c0.095909,-0.191818 0.191818,-0.383636 0.383636,-0.575455c0.575455,-0.863182 1.246818,-1.822273 1.918182,-2.685454c0.575455,-0.671364 1.150909,-1.342727 1.822273,-2.014091c0.671364,-0.671364 1.342727,-1.246818 2.014091,-1.822273c-1.150909,0.287727 -2.205909,0.479545 -3.260909,0.671364z" fill="#FCBA63"/>
    </g>
   </g>
   <g stroke="null" id="svg_50">
    <path stroke="null" id="svg_51" d="m61.681362,33.727728c0.095909,0 0.191818,0 0.287727,0.095909l0.767273,0.767273c-0.575455,0.575455 -1.150909,1.055 -1.726364,1.534545c-0.575455,0.479545 -1.342727,0.863182 -2.014091,1.150909c-0.767273,0.287727 -1.534545,0.575455 -2.493636,0.767273c-0.863182,0.191818 -1.822273,0.287727 -2.973182,0.287727c-1.822273,0 -3.452727,-0.287727 -4.891364,-0.959091c-1.438636,-0.575455 -2.781364,-1.534545 -3.836364,-2.685454c-1.055,-1.150909 -1.918182,-2.493636 -2.493636,-4.124091c-0.575455,-1.630455 -0.863182,-3.452727 -0.863182,-5.370909c0,-1.918182 0.287727,-3.740454 0.863182,-5.370909c0.575455,-1.630455 1.438636,-2.973182 2.493636,-4.124091c1.055,-1.150909 2.397727,-2.014091 3.932273,-2.685454c1.534545,-0.671364 3.165,-0.959091 5.083182,-0.959091c1.726364,0 3.260909,0.287727 4.699545,0.863182c1.342727,0.575455 2.589545,1.342727 3.740454,2.301818l-0.575455,0.863182c-0.095909,0.191818 -0.287727,0.191818 -0.479545,0.191818c-0.191818,0 -0.383636,-0.095909 -0.671364,-0.383636c-0.287727,-0.287727 -0.767273,-0.575455 -1.342727,-0.863182c-0.575455,-0.287727 -1.342727,-0.575455 -2.205909,-0.863182c-0.863182,-0.287727 -1.918182,-0.383636 -3.069091,-0.383636c-1.534545,0 -2.973182,0.287727 -4.22,0.767273c-1.246818,0.575455 -2.397727,1.246818 -3.356818,2.301818c-0.959091,0.959091 -1.630455,2.205909 -2.205909,3.644545c-0.479545,1.438636 -0.767273,3.069091 -0.767273,4.795454c0,1.822273 0.287727,3.452727 0.767273,4.891364c0.479545,1.438636 1.246818,2.589545 2.205909,3.644545c0.959091,0.959091 2.014091,1.726364 3.260909,2.301818c1.246818,0.479545 2.589545,0.767273 4.028182,0.767273c0.959091,0 1.726364,-0.095909 2.493636,-0.191818c0.767273,-0.095909 1.342727,-0.287727 2.014091,-0.575455c0.575455,-0.287727 1.150909,-0.575455 1.726364,-0.863182c0.479545,-0.383636 1.055,-0.767273 1.534545,-1.246818c0.095909,-0.095909 0.095909,-0.095909 0.191818,-0.095909c0,-0.191818 0.095909,-0.191818 0.095909,-0.191818z"/>
    <path stroke="null" id="svg_52" d="m68.778635,11.668637l0,26.374999l-1.726364,0l0,-26.374999l1.726364,0z"/>
    <path stroke="null" id="svg_53" d="m82.014089,19.725001c1.246818,0 2.493636,0.191818 3.452727,0.671364c1.055,0.479545 1.918182,1.055 2.589545,1.918182c0.671364,0.767273 1.246818,1.822273 1.630455,2.973182c0.383636,1.150909 0.575455,2.397727 0.575455,3.836364c0,1.438636 -0.191818,2.685454 -0.575455,3.836364c-0.383636,1.150909 -0.863182,2.11 -1.630455,2.877273c-0.671364,0.767273 -1.534545,1.438636 -2.589545,1.822273c-1.055,0.479545 -2.205909,0.671364 -3.452727,0.671364c-1.246818,0 -2.493636,-0.191818 -3.452727,-0.671364c-1.055,-0.479545 -1.918182,-1.055 -2.589545,-1.822273c-0.671364,-0.767273 -1.246818,-1.822273 -1.630455,-2.877273c-0.383636,-1.150909 -0.575455,-2.397727 -0.575455,-3.836364c0,-1.438636 0.191818,-2.685454 0.575455,-3.836364c0.383636,-1.150909 0.863182,-2.11 1.630455,-2.973182c0.671364,-0.767273 1.534545,-1.438636 2.589545,-1.918182c1.055,-0.479545 2.205909,-0.671364 3.452727,-0.671364zm0,17.167727c1.055,0 2.014091,-0.191818 2.781364,-0.575455c0.767273,-0.383636 1.438636,-0.863182 2.014091,-1.630455c0.575455,-0.671364 0.959091,-1.534545 1.246818,-2.493636c0.287727,-0.959091 0.383636,-2.11 0.383636,-3.260909c0,-1.150909 -0.095909,-2.301818 -0.383636,-3.260909c-0.287727,-0.959091 -0.671364,-1.822273 -1.246818,-2.493636c-0.575455,-0.671364 -1.246818,-1.246818 -2.014091,-1.630455c-0.767273,-0.383636 -1.726364,-0.575455 -2.781364,-0.575455c-1.055,0 -2.014091,0.191818 -2.781364,0.575455c-0.767273,0.383636 -1.438636,0.863182 -2.014091,1.630455c-0.575455,0.671364 -0.959091,1.534545 -1.246818,2.493636c-0.287727,0.959091 -0.383636,2.11 -0.383636,3.260909c0,1.246818 0.095909,2.301818 0.383636,3.260909c0.287727,0.959091 0.671364,1.822273 1.246818,2.493636c0.575455,0.671364 1.246818,1.246818 2.014091,1.630455c0.767273,0.383636 1.726364,0.575455 2.781364,0.575455z"/>
    <path stroke="null" id="svg_54" d="m105.03227,22.218637c-0.095909,0.191818 -0.191818,0.287727 -0.383636,0.287727c-0.095909,0 -0.287727,-0.095909 -0.479545,-0.191818c-0.191818,-0.191818 -0.479545,-0.287727 -0.863182,-0.479545c-0.383636,-0.191818 -0.767273,-0.383636 -1.246818,-0.479545c-0.479545,-0.191818 -1.150909,-0.191818 -1.822273,-0.191818c-0.671364,0 -1.246818,0.095909 -1.822273,0.287727c-0.575455,0.191818 -0.959091,0.479545 -1.342727,0.767273c-0.383636,0.287727 -0.671364,0.671364 -0.863182,1.055c-0.191818,0.383636 -0.287727,0.863182 -0.287727,1.342727c0,0.575455 0.191818,1.055 0.479545,1.438636c0.287727,0.383636 0.671364,0.671364 1.150909,0.959091c0.479545,0.287727 0.959091,0.479545 1.630455,0.671364c0.575455,0.191818 1.246818,0.383636 1.822273,0.575455c0.575455,0.191818 1.246818,0.383636 1.822273,0.671364c0.575455,0.191818 1.150909,0.575455 1.630455,0.863182c0.479545,0.383636 0.863182,0.767273 1.150909,1.246818c0.287727,0.479545 0.479545,1.150909 0.479545,1.822273c0,0.767273 -0.095909,1.534545 -0.383636,2.205909c-0.287727,0.671364 -0.671364,1.246818 -1.246818,1.726364c-0.575455,0.479545 -1.246818,0.863182 -2.014091,1.150909c-0.767273,0.287727 -1.726364,0.479545 -2.685454,0.479545c-1.246818,0 -2.397727,-0.191818 -3.260909,-0.575455c-0.959091,-0.383636 -1.726364,-0.959091 -2.493636,-1.630455l0.383636,-0.575455c0.095909,-0.095909 0.095909,-0.191818 0.191818,-0.191818c0.095909,-0.095909 0.191818,-0.095909 0.287727,-0.095909c0.191818,0 0.383636,0.095909 0.575455,0.287727c0.191818,0.191818 0.479545,0.383636 0.863182,0.671364c0.383636,0.191818 0.863182,0.479545 1.342727,0.671364c0.575455,0.191818 1.246818,0.287727 2.014091,0.287727c0.767273,0 1.438636,-0.095909 2.014091,-0.287727c0.575455,-0.191818 1.055,-0.479545 1.438636,-0.863182c0.383636,-0.383636 0.671364,-0.767273 0.863182,-1.246818c0.191818,-0.479545 0.287727,-0.959091 0.287727,-1.534545c0,-0.575455 -0.191818,-1.150909 -0.479545,-1.534545c-0.287727,-0.383636 -0.671364,-0.767273 -1.150909,-1.055c-0.479545,-0.287727 -1.055,-0.479545 -1.630455,-0.671364c-0.575455,-0.191818 -1.246818,-0.383636 -1.822273,-0.575455c-0.671364,-0.191818 -1.246818,-0.383636 -1.822273,-0.671364c-0.575455,-0.191818 -1.150909,-0.479545 -1.630455,-0.863182c-0.479545,-0.383636 -0.863182,-0.767273 -1.150909,-1.246818c-0.287727,-0.479545 -0.479545,-1.150909 -0.479545,-1.918182c0,-0.671364 0.095909,-1.246818 0.383636,-1.822273c0.287727,-0.575455 0.671364,-1.150909 1.150909,-1.534545c0.479545,-0.479545 1.150909,-0.767273 1.918182,-1.055c0.767273,-0.287727 1.534545,-0.383636 2.493636,-0.383636c1.055,0 2.11,0.191818 2.973182,0.479545c0.863182,0.287727 1.630455,0.767273 2.301818,1.438636l-0.287727,0.287727z"/>
    <path stroke="null" id="svg_55" d="m117.596361,19.725001c1.055,0 1.918182,0.191818 2.877273,0.479545c0.863182,0.383636 1.630455,0.863182 2.301818,1.534545c0.671364,0.671364 1.150909,1.534545 1.534545,2.493636c0.383636,0.959091 0.575455,2.11 0.575455,3.356818c0,0.287727 0,0.479545 -0.095909,0.575455c-0.095909,0.095909 -0.191818,0.191818 -0.383636,0.191818l-13.139545,0l0,0.383636c0,1.342727 0.191818,2.589545 0.479545,3.548636c0.287727,1.055 0.767273,1.918182 1.342727,2.589545c0.575455,0.671364 1.246818,1.246818 2.11,1.534545c0.863182,0.383636 1.726364,0.479545 2.781364,0.479545c0.863182,0 1.726364,-0.095909 2.397727,-0.287727c0.671364,-0.191818 1.246818,-0.383636 1.630455,-0.671364c0.479545,-0.287727 0.767273,-0.479545 1.055,-0.671364c0.287727,-0.191818 0.479545,-0.287727 0.575455,-0.287727c0.191818,0 0.287727,0.095909 0.383636,0.191818l0.479545,0.575455c-0.287727,0.383636 -0.671364,0.671364 -1.150909,1.055c-0.479545,0.287727 -1.055,0.575455 -1.630455,0.767273c-0.575455,0.191818 -1.246818,0.383636 -1.918182,0.575455c-0.671364,0.095909 -1.342727,0.191818 -2.014091,0.191818c-1.246818,0 -2.397727,-0.191818 -3.356818,-0.671364c-1.055,-0.383636 -1.918182,-1.055 -2.589545,-1.918182c-0.767273,-0.863182 -1.246818,-1.822273 -1.630455,-2.973182c-0.383636,-1.150909 -0.575455,-2.589545 -0.575455,-4.124091c0,-1.246818 0.191818,-2.493636 0.575455,-3.548636c0.383636,-1.055 0.863182,-2.014091 1.630455,-2.877273c0.671364,-0.767273 1.534545,-1.438636 2.589545,-1.822273c0.767273,-0.479545 1.918182,-0.671364 3.165,-0.671364zm0.095909,1.246818c-0.959091,0 -1.726364,0.191818 -2.493636,0.479545c-0.767273,0.287727 -1.342727,0.671364 -1.918182,1.246818c-0.575455,0.575455 -0.959091,1.150909 -1.342727,1.918182c-0.287727,0.767273 -0.575455,1.630455 -0.671364,2.589545l11.988636,0c0,-0.959091 -0.095909,-1.822273 -0.383636,-2.589545c-0.287727,-0.767273 -0.671364,-1.438636 -1.150909,-1.918182c-0.479545,-0.575455 -1.055,-0.959091 -1.726364,-1.246818c-0.767273,-0.287727 -1.534545,-0.479545 -2.301818,-0.479545z"/>
    <path stroke="null" id="svg_56" d="m128.338179,36.700909c0,-0.191818 0,-0.479545 0.095909,-0.671364c0.095909,-0.191818 0.191818,-0.383636 0.383636,-0.575455c0.191818,-0.191818 0.287727,-0.287727 0.479545,-0.383636s0.383636,-0.095909 0.671364,-0.095909c0.191818,0 0.479545,0 0.671364,0.095909c0.191818,0.095909 0.383636,0.191818 0.575455,0.383636c0.191818,0.191818 0.287727,0.287727 0.383636,0.575455c0.095909,0.191818 0.095909,0.383636 0.095909,0.671364c0,0.287727 0,0.479545 -0.095909,0.671364c-0.095909,0.191818 -0.191818,0.383636 -0.383636,0.479545c-0.191818,0.191818 -0.287727,0.287727 -0.575455,0.383636c-0.191818,0.095909 -0.383636,0.095909 -0.671364,0.095909c-0.479545,0 -0.863182,-0.191818 -1.150909,-0.479545c-0.383636,-0.287727 -0.479545,-0.767273 -0.479545,-1.150909z"/>
    <path stroke="null" id="svg_57" d="m139.079997,13.778637c0,0.191818 0,0.383636 -0.095909,0.575455c-0.095909,0.191818 -0.191818,0.383636 -0.383636,0.479545c-0.191818,0.191818 -0.287727,0.287727 -0.479545,0.383636c-0.191818,0.095909 -0.383636,0.095909 -0.575455,0.095909c-0.191818,0 -0.383636,0 -0.575455,-0.095909c-0.191818,-0.095909 -0.383636,-0.191818 -0.479545,-0.383636c-0.191818,-0.191818 -0.287727,-0.287727 -0.383636,-0.479545c-0.095909,-0.191818 -0.095909,-0.383636 -0.095909,-0.575455s0,-0.383636 0.095909,-0.671364c0.095909,-0.191818 0.191818,-0.383636 0.383636,-0.479545c0.191818,-0.191818 0.287727,-0.287727 0.479545,-0.383636c0.191818,-0.095909 0.383636,-0.095909 0.575455,-0.095909c0.191818,0 0.383636,0 0.575455,0.095909c0.191818,0.095909 0.383636,0.191818 0.479545,0.383636c0.191818,0.191818 0.287727,0.287727 0.383636,0.479545c0.095909,0.287727 0.095909,0.479545 0.095909,0.671364zm-0.671364,6.234091l0,18.030909l-1.726364,0l0,-18.030909l1.726364,0z"/>
    <path stroke="null" id="svg_58" d="m150.876815,19.725001c1.246818,0 2.493636,0.191818 3.452727,0.671364c1.055,0.479545 1.918182,1.055 2.589545,1.918182c0.671364,0.767273 1.246818,1.822273 1.630455,2.973182c0.383636,1.150909 0.575455,2.397727 0.575455,3.836364c0,1.438636 -0.191818,2.685454 -0.575455,3.836364c-0.383636,1.150909 -0.863182,2.11 -1.630455,2.877273c-0.671364,0.767273 -1.534545,1.438636 -2.589545,1.822273c-1.055,0.479545 -2.205909,0.671364 -3.452727,0.671364c-1.246818,0 -2.493636,-0.191818 -3.452727,-0.671364c-1.055,-0.479545 -1.918182,-1.055 -2.589545,-1.822273c-0.671364,-0.767273 -1.246818,-1.822273 -1.630455,-2.877273c-0.383636,-1.150909 -0.575455,-2.397727 -0.575455,-3.836364c0,-1.438636 0.191818,-2.685454 0.575455,-3.836364c0.383636,-1.150909 0.863182,-2.11 1.630455,-2.973182c0.671364,-0.767273 1.534545,-1.438636 2.589545,-1.918182c1.055,-0.479545 2.205909,-0.671364 3.452727,-0.671364zm0,17.167727c1.055,0 2.014091,-0.191818 2.781364,-0.575455c0.767273,-0.383636 1.438636,-0.863182 2.014091,-1.630455c0.575455,-0.671364 0.959091,-1.534545 1.246818,-2.493636c0.287727,-0.959091 0.383636,-2.11 0.383636,-3.260909c0,-1.150909 -0.095909,-2.301818 -0.383636,-3.260909c-0.287727,-0.959091 -0.671364,-1.822273 -1.246818,-2.493636c-0.575455,-0.671364 -1.246818,-1.246818 -2.014091,-1.630455c-0.767273,-0.383636 -1.726364,-0.575455 -2.781364,-0.575455c-1.055,0 -2.014091,0.191818 -2.781364,0.575455c-0.767273,0.383636 -1.438636,0.863182 -2.014091,1.630455c-0.575455,0.671364 -0.959091,1.534545 -1.246818,2.493636c-0.287727,0.959091 -0.383636,2.11 -0.383636,3.260909c0,1.246818 0.095909,2.301818 0.383636,3.260909c0.287727,0.959091 0.671364,1.822273 1.246818,2.493636c0.575455,0.671364 1.246818,1.246818 2.014091,1.630455c0.767273,0.383636 1.726364,0.575455 2.781364,0.575455z"/>
   </g>
  </g>
 </g>
</svg>