<?xml version="1.0"?>
<svg width="160" height="50" xmlns="http://www.w3.org/2000/svg" xmlns:svg="http://www.w3.org/2000/svg">
 <g>
  <title>Layer 1</title>
  <g stroke="null" id="svg_1">
   <g stroke="null" id="Layer_1_1_">
    <g stroke="null" id="svg_2">
     <g stroke="null" id="svg_3">
      <path stroke="null" id="svg_4" d="m36.71002,22.963652c-1.825693,0 -3.440728,-0.63197 -4.774888,-1.96613c-1.33416,-1.33416 -2.036349,-2.878977 -2.036349,-4.704669c0,-1.825693 0.702189,-3.440728 2.036349,-4.704669c1.33416,-1.33416 2.949196,-1.96613 4.774888,-1.96613c1.755474,0 3.30029,0.63197 4.564231,1.825693l-1.263941,1.263941c-0.912846,-0.842627 -2.036349,-1.33416 -3.30029,-1.33416c-1.33416,0 -2.457663,0.491533 -3.440728,1.404379c-0.912846,0.983065 -1.404379,2.106568 -1.404379,3.440728c0,1.33416 0.491533,2.527882 1.404379,3.440728c0.912846,0.983065 2.036349,1.404379 3.440728,1.404379c1.33416,0 2.457663,-0.421314 3.370509,-1.33416c0.561752,-0.561752 0.842627,-1.33416 0.983065,-2.317225l-4.353575,0l0,-1.825693l6.179267,0c0.070219,0.351095 0.070219,0.702189 0.070219,1.123503c0,1.825693 -0.561752,3.230071 -1.615036,4.283356c-1.193722,1.33416 -2.738539,1.96613 -4.63445,1.96613zm14.324665,-1.263941c-0.842627,0.842627 -1.895911,1.263941 -3.089634,1.263941c-1.193722,0 -2.247006,-0.421314 -3.089634,-1.263941c-0.842627,-0.842627 -1.263941,-1.825693 -1.263941,-3.089634c0,-1.263941 0.421314,-2.247006 1.263941,-3.089634c0.842627,-0.842627 1.895911,-1.263941 3.089634,-1.263941c1.193722,0 2.247006,0.421314 3.089634,1.263941c0.842627,0.842627 1.263941,1.825693 1.263941,3.089634s-0.421314,2.317225 -1.263941,3.089634zm-4.774888,-1.193722c0.491533,0.491533 1.053284,0.772408 1.685255,0.772408s1.263941,-0.280876 1.685255,-0.772408c0.491533,-0.491533 0.702189,-1.123503 0.702189,-1.895911c0,-0.772408 -0.210657,-1.404379 -0.702189,-1.895911s-1.053284,-0.702189 -1.755474,-0.702189s-1.263941,0.280876 -1.755474,0.702189c-0.491533,0.491533 -0.702189,1.123503 -0.702189,1.895911c0.070219,0.772408 0.351095,1.404379 0.842627,1.895911zm14.254446,1.193722c-0.842627,0.842627 -1.895911,1.263941 -3.089634,1.263941s-2.247006,-0.421314 -3.089634,-1.263941c-0.842627,-0.842627 -1.263941,-1.825693 -1.263941,-3.089634c0,-1.263941 0.421314,-2.247006 1.263941,-3.089634c0.842627,-0.842627 1.895911,-1.263941 3.089634,-1.263941s2.247006,0.421314 3.089634,1.263941c0.842627,0.842627 1.263941,1.825693 1.263941,3.089634s-0.421314,2.317225 -1.263941,3.089634zm-4.845107,-1.193722c0.491533,0.491533 1.053284,0.772408 1.685255,0.772408s1.263941,-0.280876 1.685255,-0.772408c0.491533,-0.491533 0.702189,-1.123503 0.702189,-1.895911c0,-0.772408 -0.210657,-1.404379 -0.702189,-1.895911s-1.053284,-0.702189 -1.755474,-0.702189s-1.263941,0.280876 -1.755474,0.702189c-0.491533,0.491533 -0.702189,1.123503 -0.702189,1.895911c0.140438,0.772408 0.351095,1.404379 0.842627,1.895911zm11.024374,6.319705c-0.983065,0 -1.755474,-0.280876 -2.387444,-0.772408c-0.63197,-0.491533 -1.123503,-1.123503 -1.404379,-1.755474l1.685255,-0.702189c0.140438,0.421314 0.421314,0.772408 0.842627,1.053284c0.351095,0.280876 0.842627,0.491533 1.33416,0.491533c0.702189,0 1.263941,-0.210657 1.685255,-0.63197c0.421314,-0.421314 0.63197,-1.053284 0.63197,-1.895911l0,-0.63197l-0.070219,0c-0.561752,0.63197 -1.263941,0.983065 -2.247006,0.983065c-1.123503,0 -2.036349,-0.421314 -2.878977,-1.263941s-1.263941,-1.825693 -1.263941,-3.019415s0.421314,-2.247006 1.263941,-3.089634c0.842627,-0.842627 1.825693,-1.263941 2.878977,-1.263941c0.491533,0 0.912846,0.070219 1.33416,0.280876c0.421314,0.210657 0.702189,0.421314 0.912846,0.702189l0.070219,0l0,-0.702189l1.825693,0l0,7.724084c0,1.474598 -0.351095,2.598101 -1.123503,3.370509c-0.912846,0.772408 -1.895911,1.123503 -3.089634,1.123503zm0.140438,-5.547297c0.63197,0 1.193722,-0.280876 1.615036,-0.772408c0.421314,-0.491533 0.63197,-1.123503 0.63197,-1.825693c0,-0.772408 -0.210657,-1.404379 -0.63197,-1.895911s-0.983065,-0.772408 -1.615036,-0.772408s-1.263941,0.280876 -1.685255,0.772408c-0.491533,0.491533 -0.702189,1.123503 -0.702189,1.895911c0,0.772408 0.210657,1.33416 0.702189,1.825693c0.421314,0.491533 0.983065,0.772408 1.685255,0.772408zm7.162332,-11.30525l0,12.709629l-1.895911,0l0,-12.709629l1.895911,0zm5.196202,12.990505c-1.193722,0 -2.247006,-0.421314 -3.089634,-1.263941c-0.842627,-0.842627 -1.193722,-1.825693 -1.193722,-3.089634c0,-1.263941 0.421314,-2.317225 1.193722,-3.089634c0.772408,-0.772408 1.755474,-1.193722 2.878977,-1.193722c0.491533,0 0.983065,0.070219 1.474598,0.280876s0.842627,0.421314 1.123503,0.702189s0.561752,0.561752 0.702189,0.842627s0.280876,0.561752 0.421314,0.842627l0.210657,0.491533l-5.757953,2.387444c0.421314,0.842627 1.123503,1.33416 2.106568,1.33416c0.842627,0 1.615036,-0.421314 2.106568,-1.193722l1.474598,0.983065c-0.351095,0.491533 -0.772408,0.912846 -1.404379,1.33416c-0.63197,0.421314 -1.33416,0.63197 -2.247006,0.63197zm-2.387444,-4.423793l3.862042,-1.615036c-0.140438,-0.280876 -0.280876,-0.491533 -0.63197,-0.63197c-0.280876,-0.140438 -0.63197,-0.280876 -0.983065,-0.280876c-0.561752,0 -1.053284,0.210657 -1.544817,0.702189s-0.702189,1.053284 -0.702189,1.825693z" fill="#757D80"/>
      <path stroke="null" id="svg_5" d="m92.463862,22.963652c-1.755474,0 -3.159852,-0.561752 -4.353575,-1.755474s-1.755474,-2.598101 -1.755474,-4.353575s0.561752,-3.230071 1.755474,-4.353575c1.193722,-1.193722 2.598101,-1.755474 4.353575,-1.755474s3.230071,0.63197 4.283356,1.895911l-1.053284,0.983065c-0.772408,-0.983065 -1.895911,-1.474598 -3.230071,-1.474598c-1.263941,0 -2.317225,0.421314 -3.230071,1.263941c-0.842627,0.842627 -1.33416,1.96613 -1.33416,3.370509s0.421314,2.527882 1.33416,3.370509c0.842627,0.842627 1.96613,1.263941 3.230071,1.263941c1.404379,0 2.598101,-0.561752 3.581166,-1.685255l1.053284,1.053284c-0.561752,0.63197 -1.193722,1.123503 -2.036349,1.544817c-0.772408,0.421314 -1.685255,0.63197 -2.598101,0.63197z" fill="#757D80"/>
      <path stroke="null" id="svg_6" d="m99.696413,22.682776l-1.474598,0l0,-11.656345l1.474598,0l0,11.656345z" fill="#757D80"/>
      <path stroke="null" id="svg_7" d="m101.94342,15.660882c0.772408,-0.842627 1.755474,-1.193722 2.949196,-1.193722s2.176787,0.421314 2.949196,1.193722c0.772408,0.772408 1.193722,1.825693 1.193722,3.019415s-0.421314,2.247006 -1.193722,3.019415s-1.755474,1.193722 -2.949196,1.193722s-2.176787,-0.421314 -2.949196,-1.193722s-1.193722,-1.825693 -1.193722,-3.019415c0.070219,-1.193722 0.421314,-2.247006 1.193722,-3.019415zm1.123503,5.125983c0.491533,0.561752 1.123503,0.772408 1.825693,0.772408s1.33416,-0.280876 1.825693,-0.772408c0.491533,-0.561752 0.772408,-1.263941 0.772408,-2.106568s-0.280876,-1.544817 -0.772408,-2.106568c-0.491533,-0.561752 -1.123503,-0.772408 -1.825693,-0.772408s-1.33416,0.280876 -1.825693,0.772408s-0.772408,1.263941 -0.772408,2.106568c0,0.912846 0.280876,1.615036 0.772408,2.106568z" fill="#757D80"/>
      <path stroke="null" id="svg_8" d="m117.18093,22.682776l-1.474598,0l0,-1.123503l-0.070219,0c-0.210657,0.351095 -0.561752,0.702189 -1.053284,0.983065s-0.983065,0.421314 -1.474598,0.421314c-0.983065,0 -1.755474,-0.280876 -2.317225,-0.912846c-0.491533,-0.63197 -0.772408,-1.404379 -0.772408,-2.457663l0,-4.915326l1.474598,0l0,4.63445c0,1.474598 0.63197,2.247006 1.96613,2.247006c0.63197,0 1.123503,-0.280876 1.544817,-0.772408c0.421314,-0.491533 0.561752,-1.053284 0.561752,-1.755474l0,-4.423793l1.474598,0l0,8.075179l0.140438,0z" fill="#757D80"/>
      <path stroke="null" id="svg_9" d="m122.026038,22.963652c-1.053284,0 -1.895911,-0.421314 -2.66832,-1.193722c-0.772408,-0.842627 -1.123503,-1.825693 -1.123503,-3.019415s0.351095,-2.247006 1.123503,-3.019415c0.772408,-0.842627 1.615036,-1.193722 2.66832,-1.193722c0.63197,0 1.193722,0.140438 1.615036,0.421314c0.491533,0.280876 0.842627,0.561752 1.053284,0.983065l0.070219,0l-0.070219,-1.123503l0,-3.721604l1.474598,0l0,11.726564l-1.474598,0l0,-1.123503l-0.070219,0c-0.210657,0.421314 -0.63197,0.702189 -1.053284,0.983065c-0.351095,0.140438 -0.912846,0.280876 -1.544817,0.280876zm0.280876,-1.404379c0.702189,0 1.33416,-0.280876 1.825693,-0.772408c0.491533,-0.491533 0.772408,-1.193722 0.772408,-2.106568s-0.280876,-1.615036 -0.772408,-2.106568c-0.491533,-0.491533 -1.123503,-0.772408 -1.825693,-0.772408s-1.33416,0.280876 -1.825693,0.772408c-0.491533,0.561752 -0.772408,1.263941 -0.772408,2.106568s0.280876,1.544817 0.772408,2.106568c0.491533,0.561752 1.123503,0.772408 1.825693,0.772408z" fill="#757D80"/>
      <path stroke="null" id="svg_10" d="m134.384572,22.963652c-0.842627,0 -1.685255,-0.280876 -2.527882,-0.842627c-0.842627,-0.561752 -1.33416,-1.33416 -1.615036,-2.317225l1.404379,-0.561752c0.140438,0.63197 0.491533,1.193722 0.983065,1.615036s1.053284,0.63197 1.685255,0.63197s1.193722,-0.140438 1.685255,-0.491533s0.702189,-0.842627 0.702189,-1.404379c0,-0.63197 -0.210657,-1.193722 -0.702189,-1.544817s-1.193722,-0.702189 -2.176787,-0.983065c-1.053284,-0.351095 -1.825693,-0.772408 -2.387444,-1.263941c-0.561752,-0.491533 -0.772408,-1.193722 -0.772408,-1.96613c0,-0.842627 0.351095,-1.544817 0.983065,-2.176787c0.63197,-0.63197 1.544817,-0.912846 2.598101,-0.912846c0.983065,0 1.825693,0.280876 2.387444,0.772408c0.63197,0.491533 1.053284,1.053284 1.193722,1.615036l-1.404379,0.561752c-0.070219,-0.351095 -0.351095,-0.702189 -0.702189,-1.053284c-0.421314,-0.280876 -0.912846,-0.491533 -1.474598,-0.491533s-1.053284,0.140438 -1.474598,0.491533s-0.63197,0.702189 -0.63197,1.193722c0,0.421314 0.210657,0.772408 0.561752,1.123503c0.351095,0.280876 0.912846,0.561752 1.685255,0.842627c0.561752,0.210657 1.053284,0.351095 1.474598,0.561752c0.421314,0.140438 0.772408,0.421314 1.193722,0.702189c0.421314,0.280876 0.702189,0.63197 0.912846,1.053284s0.280876,0.912846 0.280876,1.474598s-0.140438,1.053284 -0.351095,1.544817s-0.561752,0.772408 -0.912846,1.053284c-0.421314,0.280876 -0.772408,0.491533 -1.263941,0.561752c-0.421314,0.140438 -0.912846,0.210657 -1.33416,0.210657z" fill="#757D80"/>
      <path stroke="null" id="svg_11" d="m148.919893,23.455184l-0.772408,-1.193722c-0.842627,0.421314 -1.825693,0.702189 -2.808758,0.702189c-1.685255,0 -3.159852,-0.561752 -4.283356,-1.755474s-1.755474,-2.598101 -1.755474,-4.353575s0.561752,-3.159852 1.755474,-4.353575c1.123503,-1.193722 2.598101,-1.755474 4.283356,-1.755474c1.685255,0 3.159852,0.561752 4.283356,1.755474s1.755474,2.598101 1.755474,4.353575c0,1.895911 -0.702189,3.440728 -2.036349,4.63445l0.842627,1.263941l-1.263941,0.702189zm-3.581166,-1.895911c0.702189,0 1.33416,-0.140438 1.96613,-0.491533l-1.404379,-2.036349l1.193722,-0.772408l1.33416,2.036349c0.912846,-0.842627 1.33416,-2.036349 1.33416,-3.370509c0,-1.33416 -0.421314,-2.457663 -1.33416,-3.370509c-0.842627,-0.842627 -1.895911,-1.33416 -3.159852,-1.33416s-2.317225,0.421314 -3.159852,1.33416c-0.842627,0.842627 -1.33416,1.96613 -1.33416,3.370509c0,1.33416 0.421314,2.457663 1.33416,3.370509c0.912846,0.772408 1.96613,1.263941 3.230071,1.263941z" fill="#757D80"/>
      <path stroke="null" id="svg_12" d="m152.922373,22.682776l0,-11.656345l1.474598,0l0,10.251966l5.055764,0l0,1.474598l-6.530362,-0.070219l0,0z" fill="#757D80"/>
     </g>
     <g stroke="null" id="svg_13">
      <polygon stroke="null" id="svg_14" points="8.271347045898438,23.59562110900879 4.128430366516113,16.36307144165039 8.271347045898438,9.130520820617676 16.627403259277344,9.130520820617676 20.84054183959961,16.36307144165039 16.627403259277344,23.59562110900879 " fill="#CFCECA"/>
      <path stroke="null" id="svg_15" d="m8.973537,22.682776l-3.721604,-6.389924l-2.036349,-3.510947c-0.140438,-0.280876 -0.210657,-0.63197 -0.210657,-0.912846l-2.176787,3.721604c-0.280876,0.421314 -0.280876,1.193722 0,1.615036l5.125983,8.917806c0.280876,0.421314 0.912846,0.772408 1.404379,0.772408l6.109048,0c0.280876,-0.140438 0.491533,-0.351095 0.561752,-0.561752l2.106568,-3.721604l-7.162332,0.070219l0,0z" fill="#F2B31B"/>
      <polygon stroke="null" id="svg_16" points="24.281267166137695,15.59066390991211 19.155284881591797,6.672857284545898 21.26185417175293,10.32424259185791 " fill="#DC472F"/>
      <path stroke="null" id="svg_17" d="m24.281267,15.590663l-3.089634,-5.266421c-0.280876,-0.140438 -0.561752,-0.280876 -0.842627,-0.280876l-4.142918,0l3.581166,6.319705l-3.581166,6.319705l-2.106568,3.721604c-0.140438,0.210657 -0.351095,0.421314 -0.561752,0.561752l4.142918,0c0.491533,0 1.123503,-0.351095 1.404379,-0.772408l2.036349,-3.581166l3.089634,-5.406859c0.351095,-0.421314 0.351095,-1.123503 0.070219,-1.615036z" fill="#DC472F"/>
      <path stroke="null" id="svg_18" d="m19.155284,6.672857c-0.280876,-0.421314 -0.912846,-0.772408 -1.404379,-0.772408l-4.072699,0l-6.249486,0c-0.491533,0 -1.123503,0.351095 -1.404379,0.772408l-3.019415,5.196202c0,0.351095 0.070219,0.702189 0.210657,0.912846l2.036349,3.510947l3.651385,-6.319705l7.372989,0l4.142918,0c0.280876,0 0.561752,0.070219 0.842627,0.280876l-2.106568,-3.581166z" fill="#517DBE"/>
      <polygon stroke="null" id="svg_19" points="5.251932621002197,16.36307144165039 8.97353744506836,22.682777404785156 16.276308059692383,22.682777404785156 19.857473373413086,16.36307144165039 16.276308059692383,10.043365478515625 8.903319358825684,10.043365478515625 " fill="#CFCECA"/>
      <path stroke="null" id="svg_20" d="m3.145365,11.658402l-0.140438,0.210657c0,0.351095 0.070219,0.702189 0.210657,0.912846l2.036349,3.510947l1.053284,-1.895911l-3.159852,-2.738539z" fill="#4F71A8"/>
      <path stroke="null" id="svg_21" d="m21.402291,10.534899l-0.140438,-0.210657c-0.280876,-0.140438 -0.561752,-0.280876 -0.842627,-0.280876l-4.142918,0l1.053284,1.895911l4.072699,-1.404379z" fill="#C3432F"/>
      <path stroke="null" id="svg_22" d="m13.256893,26.966132l0.351095,0c0.280876,-0.140438 0.491533,-0.351095 0.561752,-0.561752l2.106568,-3.721604l-2.247006,0l-0.772408,4.283356z" fill="#CF9C2B"/>
      <g stroke="null" id="svg_23">
       <path stroke="null" id="svg_24" d="m12.624923,19.663361c-1.825693,0 -3.230071,-1.474598 -3.230071,-3.230071c0,-1.825693 1.474598,-3.230071 3.230071,-3.230071c1.825693,0 3.230071,1.474598 3.230071,3.230071s-1.474598,3.230071 -3.230071,3.230071z" fill="#FFFFFF"/>
       <path stroke="null" id="svg_25" d="m12.624923,13.203218c1.755474,0 3.230071,1.474598 3.230071,3.230071s-1.474598,3.230071 -3.230071,3.230071s-3.230071,-1.474598 -3.230071,-3.230071s1.404379,-3.230071 3.230071,-3.230071m0,-0.070219c-1.825693,0 -3.30029,1.474598 -3.30029,3.30029s1.474598,3.30029 3.30029,3.30029s3.30029,-1.474598 3.30029,-3.30029c0,-1.825693 -1.474598,-3.30029 -3.30029,-3.30029l0,0z" fill="#C9C7C5"/>
      </g>
     </g>
    </g>
   </g>
   <g stroke="null" id="svg_26">
    <path stroke="null" id="svg_27" d="m33.269292,36.515908l0,4.213137l-1.33416,0l0,-10.322185l3.510947,0c0.912846,0 1.685255,0.280876 2.247006,0.912846c0.63197,0.561752 0.983065,1.33416 0.983065,2.176787c0,0.842627 -0.351095,1.615036 -0.983065,2.176787c-0.63197,0.561752 -1.404379,0.912846 -2.247006,0.912846l-2.176787,0l0,-0.070219zm0,-4.845107l0,3.581166l2.247006,0c0.561752,0 0.983065,-0.210657 1.33416,-0.561752c0.351095,-0.351095 0.561752,-0.772408 0.561752,-1.263941c0,-0.491533 -0.210657,-0.912846 -0.561752,-1.263941c-0.351095,-0.351095 -0.772408,-0.561752 -1.33416,-0.561752l-2.247006,0l0,0.070219z" fill="#64B5F6"/>
    <path stroke="null" id="svg_28" d="m38.886808,37.218097c0,-1.053284 0.351095,-1.96613 1.053284,-2.66832c0.702189,-0.702189 1.544817,-1.053284 2.598101,-1.053284c1.053284,0 1.895911,0.351095 2.598101,1.053284c0.702189,0.702189 1.053284,1.615036 1.053284,2.66832c0,1.123503 -0.351095,1.96613 -1.053284,2.66832c-0.702189,0.702189 -1.544817,1.053284 -2.598101,1.053284c-1.053284,0 -1.895911,-0.351095 -2.598101,-1.053284c-0.702189,-0.702189 -1.053284,-1.615036 -1.053284,-2.66832zm1.33416,0c0,0.772408 0.210657,1.404379 0.63197,1.825693c0.421314,0.491533 0.983065,0.702189 1.615036,0.702189c0.63197,0 1.193722,-0.210657 1.615036,-0.702189c0.421314,-0.491533 0.63197,-1.053284 0.63197,-1.825693c0,-0.772408 -0.210657,-1.33416 -0.63197,-1.825693c-0.421314,-0.491533 -0.983065,-0.702189 -1.615036,-0.702189c-0.63197,0 -1.193722,0.210657 -1.615036,0.702189c-0.421314,0.421314 -0.63197,1.053284 -0.63197,1.825693z" fill="#64B5F6"/>
    <path stroke="null" id="svg_29" d="m52.71994,38.762914c0,0.63197 -0.280876,1.123503 -0.772408,1.544817c-0.561752,0.421314 -1.193722,0.63197 -2.036349,0.63197c-0.702189,0 -1.33416,-0.210657 -1.895911,-0.561752c-0.561752,-0.351095 -0.912846,-0.842627 -1.123503,-1.474598l1.193722,-0.491533c0.140438,0.421314 0.421314,0.772408 0.772408,0.983065c0.351095,0.210657 0.702189,0.351095 1.053284,0.351095c0.421314,0 0.772408,-0.070219 1.053284,-0.280876c0.280876,-0.210657 0.421314,-0.421314 0.421314,-0.63197c0,-0.421314 -0.351095,-0.772408 -1.053284,-0.983065l-1.193722,-0.280876c-1.404379,-0.351095 -2.036349,-0.983065 -2.036349,-1.96613c0,-0.63197 0.280876,-1.193722 0.772408,-1.544817c0.491533,-0.421314 1.193722,-0.561752 2.036349,-0.561752c0.63197,0 1.193722,0.140438 1.685255,0.421314c0.491533,0.280876 0.842627,0.702189 1.053284,1.193722l-1.193722,0.491533c-0.140438,-0.280876 -0.351095,-0.561752 -0.63197,-0.702189c-0.280876,-0.140438 -0.63197,-0.280876 -0.983065,-0.280876c-0.351095,0 -0.63197,0.070219 -0.912846,0.280876c-0.280876,0.140438 -0.421314,0.351095 -0.421314,0.63197c0,0.421314 0.351095,0.702189 1.123503,0.842627l1.053284,0.280876c1.33416,0.351095 2.036349,1.053284 2.036349,2.106568z" fill="#64B5F6"/>
    <path stroke="null" id="svg_30" d="m56.581982,40.869483c-0.561752,0 -1.053284,-0.210657 -1.404379,-0.561752c-0.351095,-0.351095 -0.561752,-0.842627 -0.561752,-1.474598l0,-3.932261l-1.263941,0l0,-1.193722l1.263941,0l0,-2.176787l1.33416,0l0,2.176787l1.755474,0l0,1.193722l-1.755474,0l0,3.510947c0,0.491533 0.070219,0.772408 0.280876,0.983065c0.210657,0.140438 0.421314,0.280876 0.63197,0.280876c0.140438,0 0.210657,0 0.280876,-0.070219c0.070219,0 0.210657,-0.070219 0.280876,-0.070219l0.421314,1.193722c-0.421314,0.070219 -0.772408,0.140438 -1.263941,0.140438z" fill="#64B5F6"/>
    <path stroke="null" id="svg_31" d="m61.918621,44.099554c-0.421314,0 -0.772408,-0.070219 -1.123503,-0.140438c-0.351095,-0.070219 -0.63197,-0.210657 -0.912846,-0.421314c-0.280876,-0.210657 -0.491533,-0.421314 -0.702189,-0.63197c-0.210657,-0.280876 -0.351095,-0.561752 -0.491533,-0.842627l1.263941,-0.491533c0.140438,0.421314 0.421314,0.772408 0.772408,0.983065s0.772408,0.351095 1.263941,0.351095c0.702189,0 1.263941,-0.210657 1.685255,-0.63197c0.421314,-0.421314 0.63197,-1.053284 0.63197,-1.755474l0,-0.702189l-0.070219,0c-0.280876,0.351095 -0.561752,0.702189 -0.983065,0.912846c-0.421314,0.210657 -0.912846,0.351095 -1.404379,0.351095c-0.912846,0 -1.685255,-0.351095 -2.387444,-1.053284c-0.63197,-0.772408 -0.983065,-1.615036 -0.983065,-2.66832c0,-1.053284 0.351095,-1.96613 0.983065,-2.66832c0.63197,-0.702189 1.474598,-1.123503 2.387444,-1.123503c0.491533,0 0.983065,0.140438 1.404379,0.351095c0.421314,0.210657 0.772408,0.491533 0.983065,0.912846l0.070219,0l0,-0.983065l1.263941,0l0,6.600581c0,1.123503 -0.351095,2.036349 -0.983065,2.66832c-0.702189,0.63197 -1.544817,0.983065 -2.66832,0.983065zm0.070219,-4.353575c0.63197,0 1.193722,-0.210657 1.615036,-0.702189c0.421314,-0.491533 0.63197,-1.053284 0.63197,-1.825693c0,-0.772408 -0.210657,-1.33416 -0.63197,-1.825693c-0.421314,-0.491533 -0.983065,-0.702189 -1.615036,-0.702189c-0.63197,0 -1.193722,0.210657 -1.615036,0.702189c-0.421314,0.491533 -0.63197,1.123503 -0.63197,1.825693c0,0.772408 0.210657,1.33416 0.63197,1.825693c0.421314,0.491533 0.983065,0.702189 1.615036,0.702189z" fill="#64B5F6"/>
    <path stroke="null" id="svg_32" d="m68.448983,40.729045l-1.33416,0l0,-7.092113l1.263941,0l0,1.193722l0.070219,0c0.140438,-0.351095 0.421314,-0.702189 0.842627,-0.983065c0.421314,-0.280876 0.842627,-0.421314 1.263941,-0.421314c0.351095,0 0.702189,0.070219 0.983065,0.140438l-0.421314,1.263941c-0.140438,-0.070219 -0.421314,-0.070219 -0.772408,-0.070219c-0.491533,0 -0.912846,0.210657 -1.33416,0.63197c-0.351095,0.421314 -0.561752,0.842627 -0.561752,1.404379l0,3.932261z" fill="#64B5F6"/>
    <path stroke="null" id="svg_33" d="m75.119783,40.939701c-1.053284,0 -1.895911,-0.351095 -2.598101,-1.053284c-0.702189,-0.702189 -0.983065,-1.615036 -0.983065,-2.66832c0,-1.053284 0.351095,-1.96613 0.983065,-2.66832c0.63197,-0.702189 1.474598,-1.053284 2.527882,-1.053284c1.053284,0 1.895911,0.351095 2.527882,0.983065c0.63197,0.702189 0.912846,1.615036 0.912846,2.878977l0,0.140438l-5.547297,0c0,0.702189 0.280876,1.263941 0.702189,1.685255c0.421314,0.421314 0.983065,0.63197 1.615036,0.63197c0.842627,0 1.474598,-0.421314 1.96613,-1.263941l1.193722,0.561752c-0.351095,0.561752 -0.772408,1.053284 -1.33416,1.404379c-0.63197,0.280876 -1.263941,0.421314 -1.96613,0.421314zm-2.176787,-4.564231l4.072699,0c-0.070219,-0.491533 -0.210657,-0.912846 -0.63197,-1.193722c-0.351095,-0.351095 -0.842627,-0.491533 -1.474598,-0.491533c-0.491533,0 -0.912846,0.140438 -1.263941,0.491533c-0.351095,0.210657 -0.561752,0.63197 -0.702189,1.193722z" fill="#64B5F6"/>
    <path stroke="null" id="svg_34" d="m86.214376,37.990506c0,0.912846 -0.351095,1.615036 -0.983065,2.176787c-0.702189,0.561752 -1.474598,0.842627 -2.457663,0.842627c-0.842627,0 -1.615036,-0.280876 -2.247006,-0.772408c-0.63197,-0.491533 -1.123503,-1.193722 -1.33416,-2.036349l1.263941,-0.491533c0.070219,0.280876 0.210657,0.561752 0.351095,0.842627c0.140438,0.280876 0.351095,0.491533 0.561752,0.63197c0.210657,0.210657 0.421314,0.351095 0.702189,0.421314c0.280876,0.070219 0.491533,0.140438 0.772408,0.140438c0.63197,0 1.123503,-0.140438 1.474598,-0.491533c0.351095,-0.280876 0.561752,-0.702189 0.561752,-1.263941c0,-0.421314 -0.140438,-0.772408 -0.491533,-1.123503c-0.280876,-0.280876 -0.842627,-0.561752 -1.685255,-0.842627c-0.842627,-0.280876 -1.33416,-0.491533 -1.544817,-0.63197c-1.123503,-0.561752 -1.615036,-1.404379 -1.615036,-2.457663c0,-0.772408 0.280876,-1.404379 0.912846,-1.96613c0.63197,-0.561752 1.33416,-0.772408 2.247006,-0.772408c0.772408,0 1.474598,0.210657 2.036349,0.63197c0.561752,0.421314 0.983065,0.912846 1.123503,1.474598l-1.263941,0.491533c-0.140438,-0.351095 -0.351095,-0.702189 -0.702189,-0.983065c-0.351095,-0.280876 -0.772408,-0.351095 -1.263941,-0.351095c-0.491533,0 -0.983065,0.140438 -1.33416,0.421314c-0.351095,0.280876 -0.561752,0.63197 -0.561752,1.053284c0,0.351095 0.140438,0.63197 0.421314,0.912846c0.280876,0.280876 0.983065,0.561752 2.036349,0.912846c1.053284,0.351095 1.825693,0.772408 2.247006,1.33416c0.561752,0.491533 0.772408,1.123503 0.772408,1.895911z" fill="#64B5F6"/>
    <path stroke="null" id="svg_35" d="m96.887656,40.729045l-1.053284,0.702189l-0.702189,-1.053284c-0.772408,0.421314 -1.615036,0.561752 -2.457663,0.561752c-1.474598,0 -2.738539,-0.491533 -3.791823,-1.544817c-0.983065,-1.053284 -1.544817,-2.317225 -1.544817,-3.862042c0,-1.544817 0.491533,-2.808758 1.544817,-3.862042c0.983065,-1.053284 2.247006,-1.544817 3.791823,-1.544817s2.738539,0.491533 3.791823,1.544817c0.983065,1.053284 1.544817,2.317225 1.544817,3.791823c0,0.772408 -0.140438,1.544817 -0.491533,2.247006s-0.772408,1.33416 -1.33416,1.825693l0.702189,1.193722zm-4.213137,-1.053284c0.63197,0 1.193722,-0.140438 1.755474,-0.421314l-1.193722,-1.825693l1.053284,-0.702189l1.193722,1.825693c0.772408,-0.772408 1.193722,-1.755474 1.193722,-3.019415c0,-1.193722 -0.351095,-2.176787 -1.123503,-2.949196c-0.772408,-0.772408 -1.685255,-1.193722 -2.808758,-1.193722c-1.123503,0 -2.036349,0.421314 -2.808758,1.193722c-0.772408,0.772408 -1.123503,1.755474 -1.123503,2.949196c0,1.193722 0.351095,2.176787 1.123503,2.949196c0.63197,0.842627 1.615036,1.193722 2.738539,1.193722z" fill="#64B5F6"/>
    <path stroke="null" id="svg_36" d="m105.313929,40.729045l-5.828172,0l0,-10.322185l1.33416,0l0,9.058244l4.494012,0l0,1.263941z" fill="#64B5F6"/>
   </g>
  </g>
 </g>
</svg>