<?xml version="1.0"?>
<svg width="160" height="50" xmlns="http://www.w3.org/2000/svg" xmlns:svg="http://www.w3.org/2000/svg">
 <g>
  <title>Layer 1</title>
  <g stroke="null" id="svg_1">
   <path stroke="null" id="svg_2" d="m36.796224,22.932665c-1.822057,0 -3.433877,-0.630712 -4.76538,-1.962215c-1.331503,-1.331503 -2.032295,-2.873244 -2.032295,-4.695301c0,-1.822057 0.700791,-3.433877 2.032295,-4.695301c1.331503,-1.331503 2.943323,-1.962215 4.76538,-1.962215c1.751978,0 3.293719,0.630712 4.555143,1.822057l-1.261424,1.261424c-0.911029,-0.840949 -2.032295,-1.331503 -3.293719,-1.331503c-1.331503,0 -2.452769,0.490554 -3.433877,1.401582c-0.911029,0.981108 -1.401582,2.102374 -1.401582,3.433877c0,1.331503 0.490554,2.522848 1.401582,3.433877c0.911029,0.981108 2.032295,1.401582 3.433877,1.401582c1.331503,0 2.452769,-0.420475 3.363798,-1.331503c0.560633,-0.560633 0.840949,-1.331503 0.981108,-2.312611l-4.344906,0l0,-1.822057l6.166963,0c0.070079,0.350396 0.070079,0.700791 0.070079,1.121266c0,1.822057 -0.560633,3.22364 -1.61182,4.274827c-1.191345,1.331503 -2.733086,1.962215 -4.625222,1.962215zm14.296141,-1.261424c-0.840949,0.840949 -1.892136,1.261424 -3.083481,1.261424c-1.191345,0 -2.242532,-0.420475 -3.083481,-1.261424c-0.840949,-0.840949 -1.261424,-1.822057 -1.261424,-3.083481c0,-1.261424 0.420475,-2.242532 1.261424,-3.083481c0.840949,-0.840949 1.892136,-1.261424 3.083481,-1.261424c1.191345,0 2.242532,0.420475 3.083481,1.261424c0.840949,0.840949 1.261424,1.822057 1.261424,3.083481s-0.420475,2.312611 -1.261424,3.083481zm-4.76538,-1.191345c0.490554,0.490554 1.051187,0.77087 1.681899,0.77087s1.261424,-0.280316 1.681899,-0.77087c0.490554,-0.490554 0.700791,-1.121266 0.700791,-1.892136c0,-0.77087 -0.210237,-1.401582 -0.700791,-1.892136s-1.051187,-0.700791 -1.751978,-0.700791s-1.261424,0.280316 -1.751978,0.700791c-0.490554,0.490554 -0.700791,1.121266 -0.700791,1.892136c0.070079,0.77087 0.350396,1.401582 0.840949,1.892136zm14.226062,1.191345c-0.840949,0.840949 -1.892136,1.261424 -3.083481,1.261424s-2.242532,-0.420475 -3.083481,-1.261424c-0.840949,-0.840949 -1.261424,-1.822057 -1.261424,-3.083481c0,-1.261424 0.420475,-2.242532 1.261424,-3.083481c0.840949,-0.840949 1.892136,-1.261424 3.083481,-1.261424s2.242532,0.420475 3.083481,1.261424c0.840949,0.840949 1.261424,1.822057 1.261424,3.083481s-0.420475,2.312611 -1.261424,3.083481zm-4.83546,-1.191345c0.490554,0.490554 1.051187,0.77087 1.681899,0.77087s1.261424,-0.280316 1.681899,-0.77087c0.490554,-0.490554 0.700791,-1.121266 0.700791,-1.892136c0,-0.77087 -0.210237,-1.401582 -0.700791,-1.892136s-1.051187,-0.700791 -1.751978,-0.700791s-1.261424,0.280316 -1.751978,0.700791c-0.490554,0.490554 -0.700791,1.121266 -0.700791,1.892136c0.140158,0.77087 0.350396,1.401582 0.840949,1.892136zm11.002422,6.307121c-0.981108,0 -1.751978,-0.280316 -2.38269,-0.77087c-0.630712,-0.490554 -1.121266,-1.121266 -1.401582,-1.751978l1.681899,-0.700791c0.140158,0.420475 0.420475,0.77087 0.840949,1.051187c0.350396,0.280316 0.840949,0.490554 1.331503,0.490554c0.700791,0 1.261424,-0.210237 1.681899,-0.630712c0.420475,-0.420475 0.630712,-1.051187 0.630712,-1.892136l0,-0.630712l-0.070079,0c-0.560633,0.630712 -1.261424,0.981108 -2.242532,0.981108c-1.121266,0 -2.032295,-0.420475 -2.873244,-1.261424s-1.261424,-1.822057 -1.261424,-3.013402s0.420475,-2.242532 1.261424,-3.083481c0.840949,-0.840949 1.822057,-1.261424 2.873244,-1.261424c0.490554,0 0.911029,0.070079 1.331503,0.280316c0.420475,0.210237 0.700791,0.420475 0.911029,0.700791l0.070079,0l0,-0.700791l1.822057,0l0,7.708704c0,1.471662 -0.350396,2.592928 -1.121266,3.363798c-0.911029,0.77087 -1.892136,1.121266 -3.083481,1.121266zm0.140158,-5.536251c0.630712,0 1.191345,-0.280316 1.61182,-0.77087c0.420475,-0.490554 0.630712,-1.121266 0.630712,-1.822057c0,-0.77087 -0.210237,-1.401582 -0.630712,-1.892136s-0.981108,-0.77087 -1.61182,-0.77087s-1.261424,0.280316 -1.681899,0.77087c-0.490554,0.490554 -0.700791,1.121266 -0.700791,1.892136c0,0.77087 0.210237,1.331503 0.700791,1.822057c0.420475,0.490554 0.981108,0.77087 1.681899,0.77087zm7.148071,-11.282739l0,12.684321l-1.892136,0l0,-12.684321l1.892136,0zm5.185855,12.964638c-1.191345,0 -2.242532,-0.420475 -3.083481,-1.261424c-0.840949,-0.840949 -1.191345,-1.822057 -1.191345,-3.083481c0,-1.261424 0.420475,-2.312611 1.191345,-3.083481c0.77087,-0.77087 1.751978,-1.191345 2.873244,-1.191345c0.490554,0 0.981108,0.070079 1.471662,0.280316s0.840949,0.420475 1.121266,0.700791s0.560633,0.560633 0.700791,0.840949s0.280316,0.560633 0.420475,0.840949l0.210237,0.490554l-5.746488,2.38269c0.420475,0.840949 1.121266,1.331503 2.102374,1.331503c0.840949,0 1.61182,-0.420475 2.102374,-1.191345l1.471662,0.981108c-0.350396,0.490554 -0.77087,0.911029 -1.401582,1.331503c-0.630712,0.420475 -1.331503,0.630712 -2.242532,0.630712zm-2.38269,-4.414985l3.854352,-1.61182c-0.140158,-0.280316 -0.280316,-0.490554 -0.630712,-0.630712c-0.280316,-0.140158 -0.630712,-0.280316 -0.981108,-0.280316c-0.560633,0 -1.051187,0.210237 -1.541741,0.700791s-0.700791,1.051187 -0.700791,1.822057z" fill="#757D80"/>
   <path stroke="null" id="svg_3" d="m92.439048,22.932665c-1.751978,0 -3.153561,-0.560633 -4.344906,-1.751978s-1.751978,-2.592928 -1.751978,-4.344906s0.560633,-3.22364 1.751978,-4.344906c1.191345,-1.191345 2.592928,-1.751978 4.344906,-1.751978s3.22364,0.630712 4.274827,1.892136l-1.051187,0.981108c-0.77087,-0.981108 -1.892136,-1.471662 -3.22364,-1.471662c-1.261424,0 -2.312611,0.420475 -3.22364,1.261424c-0.840949,0.840949 -1.331503,1.962215 -1.331503,3.363798s0.420475,2.522848 1.331503,3.363798c0.840949,0.840949 1.962215,1.261424 3.22364,1.261424c1.401582,0 2.592928,-0.560633 3.574035,-1.681899l1.051187,1.051187c-0.560633,0.630712 -1.191345,1.121266 -2.032295,1.541741c-0.77087,0.420475 -1.681899,0.630712 -2.592928,0.630712z" fill="#757D80"/>
   <path stroke="null" id="svg_4" d="m99.657198,22.652349l-1.471662,0l0,-11.633135l1.471662,0l0,11.633135z" fill="#757D80"/>
   <path stroke="null" id="svg_5" d="m101.89973,15.644436c0.77087,-0.840949 1.751978,-1.191345 2.943323,-1.191345s2.172453,0.420475 2.943323,1.191345c0.77087,0.77087 1.191345,1.822057 1.191345,3.013402s-0.420475,2.242532 -1.191345,3.013402s-1.751978,1.191345 -2.943323,1.191345s-2.172453,-0.420475 -2.943323,-1.191345s-1.191345,-1.822057 -1.191345,-3.013402c0.070079,-1.191345 0.420475,-2.242532 1.191345,-3.013402zm1.121266,5.115776c0.490554,0.560633 1.121266,0.77087 1.822057,0.77087s1.331503,-0.280316 1.822057,-0.77087c0.490554,-0.560633 0.77087,-1.261424 0.77087,-2.102374s-0.280316,-1.541741 -0.77087,-2.102374c-0.490554,-0.560633 -1.121266,-0.77087 -1.822057,-0.77087s-1.331503,0.280316 -1.822057,0.77087s-0.77087,1.261424 -0.77087,2.102374c0,0.911029 0.280316,1.61182 0.77087,2.102374z" fill="#757D80"/>
   <path stroke="null" id="svg_6" d="m117.1069,22.652349l-1.471662,0l0,-1.121266l-0.070079,0c-0.210237,0.350396 -0.560633,0.700791 -1.051187,0.981108s-0.981108,0.420475 -1.471662,0.420475c-0.981108,0 -1.751978,-0.280316 -2.312611,-0.911029c-0.490554,-0.630712 -0.77087,-1.401582 -0.77087,-2.452769l0,-4.905539l1.471662,0l0,4.625222c0,1.471662 0.630712,2.242532 1.962215,2.242532c0.630712,0 1.121266,-0.280316 1.541741,-0.77087c0.420475,-0.490554 0.560633,-1.051187 0.560633,-1.751978l0,-4.414985l1.471662,0l0,8.059099l0.140158,0z" fill="#757D80"/>
   <path stroke="null" id="svg_7" d="m121.942359,22.932665c-1.051187,0 -1.892136,-0.420475 -2.663007,-1.191345c-0.77087,-0.840949 -1.121266,-1.822057 -1.121266,-3.013402s0.350396,-2.242532 1.121266,-3.013402c0.77087,-0.840949 1.61182,-1.191345 2.663007,-1.191345c0.630712,0 1.191345,0.140158 1.61182,0.420475c0.490554,0.280316 0.840949,0.560633 1.051187,0.981108l0.070079,0l-0.070079,-1.121266l0,-3.714194l1.471662,0l0,11.703214l-1.471662,0l0,-1.121266l-0.070079,0c-0.210237,0.420475 -0.630712,0.700791 -1.051187,0.981108c-0.350396,0.140158 -0.911029,0.280316 -1.541741,0.280316zm0.280316,-1.401582c0.700791,0 1.331503,-0.280316 1.822057,-0.77087c0.490554,-0.490554 0.77087,-1.191345 0.77087,-2.102374s-0.280316,-1.61182 -0.77087,-2.102374c-0.490554,-0.490554 -1.121266,-0.77087 -1.822057,-0.77087s-1.331503,0.280316 -1.822057,0.77087c-0.490554,0.560633 -0.77087,1.261424 -0.77087,2.102374s0.280316,1.541741 0.77087,2.102374c0.490554,0.560633 1.121266,0.77087 1.822057,0.77087z" fill="#757D80"/>
   <path stroke="null" id="svg_8" d="m134.276285,22.932665c-0.840949,0 -1.681899,-0.280316 -2.522848,-0.840949c-0.840949,-0.560633 -1.331503,-1.331503 -1.61182,-2.312611l1.401582,-0.560633c0.140158,0.630712 0.490554,1.191345 0.981108,1.61182s1.051187,0.630712 1.681899,0.630712s1.191345,-0.140158 1.681899,-0.490554s0.700791,-0.840949 0.700791,-1.401582c0,-0.630712 -0.210237,-1.191345 -0.700791,-1.541741s-1.191345,-0.700791 -2.172453,-0.981108c-1.051187,-0.350396 -1.822057,-0.77087 -2.38269,-1.261424c-0.560633,-0.490554 -0.77087,-1.191345 -0.77087,-1.962215c0,-0.840949 0.350396,-1.541741 0.981108,-2.172453c0.630712,-0.630712 1.541741,-0.911029 2.592928,-0.911029c0.981108,0 1.822057,0.280316 2.38269,0.77087c0.630712,0.490554 1.051187,1.051187 1.191345,1.61182l-1.401582,0.560633c-0.070079,-0.350396 -0.350396,-0.700791 -0.700791,-1.051187c-0.420475,-0.280316 -0.911029,-0.490554 -1.471662,-0.490554s-1.051187,0.140158 -1.471662,0.490554s-0.630712,0.700791 -0.630712,1.191345c0,0.420475 0.210237,0.77087 0.560633,1.121266c0.350396,0.280316 0.911029,0.560633 1.681899,0.840949c0.560633,0.210237 1.051187,0.350396 1.471662,0.560633c0.420475,0.140158 0.77087,0.420475 1.191345,0.700791c0.420475,0.280316 0.700791,0.630712 0.911029,1.051187s0.280316,0.911029 0.280316,1.471662s-0.140158,1.051187 -0.350396,1.541741s-0.560633,0.77087 -0.911029,1.051187c-0.420475,0.280316 -0.77087,0.490554 -1.261424,0.560633c-0.420475,0.140158 -0.911029,0.210237 -1.331503,0.210237z" fill="#757D80"/>
   <path stroke="null" id="svg_9" d="m148.782664,23.423219l-0.77087,-1.191345c-0.840949,0.420475 -1.822057,0.700791 -2.803165,0.700791c-1.681899,0 -3.153561,-0.560633 -4.274827,-1.751978s-1.751978,-2.592928 -1.751978,-4.344906s0.560633,-3.153561 1.751978,-4.344906c1.121266,-1.191345 2.592928,-1.751978 4.274827,-1.751978c1.681899,0 3.153561,0.560633 4.274827,1.751978s1.751978,2.592928 1.751978,4.344906c0,1.892136 -0.700791,3.433877 -2.032295,4.625222l0.840949,1.261424l-1.261424,0.700791zm-3.574035,-1.892136c0.700791,0 1.331503,-0.140158 1.962215,-0.490554l-1.401582,-2.032295l1.191345,-0.77087l1.331503,2.032295c0.911029,-0.840949 1.331503,-2.032295 1.331503,-3.363798c0,-1.331503 -0.420475,-2.452769 -1.331503,-3.363798c-0.840949,-0.840949 -1.892136,-1.331503 -3.153561,-1.331503s-2.312611,0.420475 -3.153561,1.331503c-0.840949,0.840949 -1.331503,1.962215 -1.331503,3.363798c0,1.331503 0.420475,2.452769 1.331503,3.363798c0.911029,0.77087 1.962215,1.261424 3.22364,1.261424z" fill="#757D80"/>
   <path stroke="null" id="svg_10" d="m152.777174,22.652349l0,-11.633135l1.471662,0l0,10.231552l5.045697,0l0,1.471662l-6.517359,-0.070079l0,0z" fill="#757D80"/>
   <polygon stroke="null" id="svg_11" points="8.414177894592285,23.563376426696777 4.279509544372559,16.345227241516113 8.414177894592285,9.12707805633545 16.75359535217285,9.12707805633545 20.958343505859375,16.345227241516113 16.75359535217285,23.563376426696777 " fill="#CFCECA"/>
   <path stroke="null" id="svg_12" d="m9.11497,22.652349l-3.714194,-6.3772l-2.032295,-3.503956c-0.140158,-0.280316 -0.210237,-0.630712 -0.210237,-0.911029l-2.172453,3.714194c-0.280316,0.420475 -0.280316,1.191345 0,1.61182l5.115776,8.900049c0.280316,0.420475 0.911029,0.77087 1.401582,0.77087l6.096884,0c0.280316,-0.140158 0.490554,-0.350396 0.560633,-0.560633l2.102374,-3.714194l-7.148071,0.070079l0,0z" fill="#F2B31B"/>
   <polygon stroke="null" id="svg_13" points="24.3922176361084,15.574357032775879 19.276443481445312,6.674307823181152 21.378816604614258,10.3184232711792 " fill="#DC472F"/>
   <path stroke="null" id="svg_14" d="m24.392219,15.574357l-3.083481,-5.255934c-0.280316,-0.140158 -0.560633,-0.280316 -0.840949,-0.280316l-4.134668,0l3.574035,6.307121l-3.574035,6.307121l-2.102374,3.714194c-0.140158,0.210237 -0.350396,0.420475 -0.560633,0.560633l4.134668,0c0.490554,0 1.121266,-0.350396 1.401582,-0.77087l2.032295,-3.574035l3.083481,-5.396093c0.350396,-0.420475 0.350396,-1.121266 0.070079,-1.61182z" fill="#DC472F"/>
   <path stroke="null" id="svg_15" d="m19.276443,6.674309c-0.280316,-0.420475 -0.911029,-0.77087 -1.401582,-0.77087l-4.064589,0l-6.237042,0c-0.490554,0 -1.121266,0.350396 -1.401582,0.77087l-3.013402,5.185855c0,0.350396 0.070079,0.700791 0.210237,0.911029l2.032295,3.503956l3.644114,-6.307121l7.358308,0l4.134668,0c0.280316,0 0.560633,0.070079 0.840949,0.280316l-2.102374,-3.574035z" fill="#517DBE"/>
   <polygon stroke="null" id="svg_16" points="5.400775909423828,16.345227241516113 9.114969253540039,22.652350425720215 16.403200149536133,22.652350425720215 19.97723388671875,16.345227241516113 16.403200149536133,10.038107872009277 9.044891357421875,10.038107872009277 " fill="#CFCECA"/>
   <path stroke="null" id="svg_17" d="m3.298402,11.649926l-0.140158,0.210237c0,0.350396 0.070079,0.700791 0.210237,0.911029l2.032295,3.503956l1.051187,-1.892136l-3.153561,-2.733086z" fill="#4F71A8"/>
   <path stroke="null" id="svg_18" d="m21.518975,10.52866l-0.140158,-0.210237c-0.280316,-0.140158 -0.560633,-0.280316 -0.840949,-0.280316l-4.134668,0l1.051187,1.892136l4.064589,-1.401582z" fill="#C3432F"/>
   <path stroke="null" id="svg_19" d="m13.389796,26.927175l0.350396,0c0.280316,-0.140158 0.490554,-0.350396 0.560633,-0.560633l2.102374,-3.714194l-2.242532,0l-0.77087,4.274827z" fill="#CF9C2B"/>
   <path stroke="null" id="svg_20" d="m12.759084,19.638946c-1.822057,0 -3.22364,-1.471662 -3.22364,-3.22364c0,-1.822057 1.471662,-3.22364 3.22364,-3.22364c1.822057,0 3.22364,1.471662 3.22364,3.22364s-1.471662,3.22364 -3.22364,3.22364z" fill="#FFFFFF"/>
   <path stroke="null" id="svg_21" d="m12.759084,13.191667c1.751978,0 3.22364,1.471662 3.22364,3.22364s-1.471662,3.22364 -3.22364,3.22364s-3.22364,-1.471662 -3.22364,-3.22364s1.401582,-3.22364 3.22364,-3.22364m0,-0.070079c-1.822057,0 -3.293719,1.471662 -3.293719,3.293719s1.471662,3.293719 3.293719,3.293719s3.293719,-1.471662 3.293719,-3.293719c0,-1.822057 -1.471662,-3.293719 -3.293719,-3.293719l0,0z" fill="#C9C7C5"/>
   <g stroke="null" id="svg_22">
    <path stroke="null" id="svg_23" d="m33.502505,40.943l-1.331503,0l0,-10.441789l1.331503,0l3.644114,6.3772l0.070079,0l3.644114,-6.3772l1.331503,0l0,10.441789l-1.401582,0l0,-6.166963l0.070079,-1.751978l-0.070079,0l-3.293719,5.746488l-0.77087,0l-3.293719,-5.746488l-0.070079,0l0.070079,1.751978l0,6.166963l0.070079,0z" fill="#64B5F6"/>
    <path stroke="null" id="svg_24" d="m50.251416,33.794929l-4.485064,10.301631l-1.401582,0l1.681899,-3.574035l-2.943323,-6.657517l1.471662,0l2.102374,5.115776l0,0l2.102374,-5.115776l1.471662,0l0,-0.070079z" fill="#64B5F6"/>
    <path stroke="null" id="svg_25" d="m57.749882,38.139835c0,0.911029 -0.350396,1.61182 -0.981108,2.172453c-0.700791,0.560633 -1.471662,0.840949 -2.452769,0.840949c-0.911029,0 -1.61182,-0.210237 -2.312611,-0.77087c-0.630712,-0.490554 -1.121266,-1.191345 -1.401582,-2.102374l1.261424,-0.490554c0.070079,0.280316 0.210237,0.560633 0.350396,0.840949c0.140158,0.280316 0.350396,0.490554 0.560633,0.630712c0.210237,0.210237 0.420475,0.350396 0.700791,0.420475c0.280316,0.070079 0.490554,0.140158 0.77087,0.140158c0.630712,0 1.121266,-0.140158 1.471662,-0.490554c0.420475,-0.350396 0.560633,-0.700791 0.560633,-1.261424c0,-0.420475 -0.140158,-0.840949 -0.490554,-1.121266c-0.280316,-0.280316 -0.840949,-0.560633 -1.681899,-0.840949c-0.840949,-0.280316 -1.331503,-0.490554 -1.541741,-0.630712c-1.121266,-0.560633 -1.681899,-1.401582 -1.681899,-2.522848c0,-0.77087 0.280316,-1.401582 0.911029,-1.962215c0.630712,-0.560633 1.401582,-0.840949 2.312611,-0.840949c0.77087,0 1.471662,0.210237 2.102374,0.630712c0.560633,0.420475 0.981108,0.911029 1.191345,1.471662l-1.191345,0.630712c-0.140158,-0.420475 -0.350396,-0.700791 -0.700791,-0.981108c-0.350396,-0.280316 -0.77087,-0.420475 -1.261424,-0.420475c-0.490554,0 -0.981108,0.140158 -1.331503,0.420475c-0.350396,0.280316 -0.560633,0.630712 -0.560633,1.051187c0,0.350396 0.140158,0.700791 0.420475,0.911029c0.280316,0.280316 0.981108,0.560633 2.032295,0.911029c1.051187,0.350396 1.822057,0.77087 2.242532,1.331503c0.490554,0.630712 0.700791,1.261424 0.700791,2.032295z" fill="#64B5F6"/>
    <path stroke="null" id="svg_26" d="m68.542067,40.943l-1.051187,0.700791l-0.700791,-1.051187c-0.840949,0.420475 -1.681899,0.630712 -2.522848,0.630712c-1.541741,0 -2.803165,-0.490554 -3.784273,-1.541741c-1.051187,-1.051187 -1.541741,-2.312611 -1.541741,-3.854352c0,-1.541741 0.490554,-2.803165 1.541741,-3.854352c1.051187,-1.051187 2.312611,-1.541741 3.784273,-1.541741c1.541741,0 2.803165,0.560633 3.784273,1.61182c1.051187,1.051187 1.541741,2.312611 1.541741,3.854352c0,0.840949 -0.140158,1.61182 -0.490554,2.312611c-0.350396,0.700791 -0.77087,1.331503 -1.331503,1.822057l0.77087,0.911029zm-4.274827,-1.051187c0.630712,0 1.191345,-0.140158 1.751978,-0.420475l-1.191345,-1.822057l1.051187,-0.700791l1.191345,1.822057c0.77087,-0.77087 1.191345,-1.751978 1.191345,-3.013402c0,-1.191345 -0.350396,-2.242532 -1.121266,-3.013402c-0.77087,-0.77087 -1.681899,-1.191345 -2.873244,-1.191345s-2.102374,0.420475 -2.873244,1.191345c-0.77087,0.77087 -1.121266,1.751978 -1.121266,3.013402c0,1.191345 0.350396,2.172453 1.121266,3.013402c0.77087,0.700791 1.751978,1.121266 2.873244,1.121266z" fill="#64B5F6"/>
    <path stroke="null" id="svg_27" d="m77.09172,40.943l-5.886646,0l0,-10.441789l1.331503,0l0,9.180365l4.485064,0l0,1.261424l0.070079,0z" fill="#64B5F6"/>
   </g>
  </g>
 </g>
</svg>