<svg width="160" height="50" xmlns="http://www.w3.org/2000/svg" xmlns:svg="http://www.w3.org/2000/svg">
 <g>
  <title>Layer 1</title>
  <g stroke="null" id="svg_1">
   <g stroke="null" id="nYsBPN.tif">
    <g stroke="null" id="svg_2">
     <g stroke="null" id="svg_3">
      <path stroke="null" id="svg_4" d="m159.3545,32.34029c-1.19032,0 -2.30128,0 -3.57095,0c-0.07935,-0.55548 -0.15871,-1.03161 -0.15871,-1.11096c-1.50774,0.47613 -3.09483,1.19032 -4.60256,1.26967c-1.66644,0.15871 -3.17418,-0.71419 -4.3645,-2.06322c-2.14257,-2.53934 -2.06322,-6.9832 0.07935,-9.60189c2.06322,-2.38063 5.2374,-2.69805 8.57029,-0.63484c0,-2.77741 0,-5.47546 0,-8.0148c1.42838,0 2.77741,0 4.04708,0c0,6.74513 0,13.49026 0,20.15604zm-3.72966,-6.66578c0,-2.14257 -1.19032,-3.33289 -3.33289,-3.33289c-1.98386,0 -3.17418,1.26967 -3.17418,3.33289c0,2.06322 1.26967,3.33289 3.17418,3.33289c1.98386,0.15871 3.33289,-1.19032 3.33289,-3.33289z" fill="#6F6F6F"/>
      <path stroke="null" id="svg_5" d="m99.75927,38.52994c0,-6.34836 0,-12.69672 0,-19.20379c1.11096,0 2.30128,0 3.4916,0c0,0.39677 0.07935,0.79354 0.15871,1.66644c1.58709,-2.45999 3.96772,-1.90451 5.95159,-1.7458c1.11096,0.07935 2.38063,1.11096 3.17418,2.06322c2.14257,2.6187 1.82515,7.22126 -0.55548,9.68125c-2.14257,2.22193 -5.15804,2.30128 -8.41158,0.07935c0,2.6187 0,5.07869 0,7.53868c-1.26967,-0.07935 -2.53934,-0.07935 -3.80902,-0.07935zm6.90384,-16.10896c-2.06322,0 -3.41224,1.34903 -3.33289,3.33289c0,1.98386 1.34903,3.33289 3.33289,3.33289c1.98386,0 3.33289,-1.42838 3.33289,-3.41224c-0.07935,-1.98386 -1.34903,-3.25353 -3.33289,-3.25353z" fill="#6F6F6F"/>
      <path stroke="null" id="svg_6" d="m75.08002,30.67385c-0.07935,0.63484 -0.15871,1.11096 -0.15871,1.58709c-1.11096,0 -2.22193,0 -3.41224,0c0,-6.74513 0,-13.49026 0,-20.31475c1.19032,0 2.45999,0 3.80902,0c0,2.69805 0,5.47546 0,8.64964c1.90451,-2.14257 4.12643,-1.50774 6.1103,-1.42838c1.03161,0.07935 2.22193,1.19032 2.93612,2.22193c2.22193,3.09483 1.66644,7.53868 -0.8729,9.7606c-2.53934,2.06322 -5.55481,1.98386 -8.41158,-0.47613zm3.33289,-8.25287c-2.06322,0 -3.41224,1.26967 -3.33289,3.33289c0,1.98386 1.34903,3.33289 3.25353,3.33289c1.98386,0 3.41224,-1.34903 3.33289,-3.41224c0,-1.98386 -1.34903,-3.25353 -3.25353,-3.25353z" fill="#6F6F6F"/>
      <path stroke="null" id="svg_7" d="m47.94079,15.51714c-1.03161,0.79354 -1.98386,1.66644 -3.01547,2.45999c-2.85676,-2.14257 -6.18965,-1.7458 -8.09416,0.71419c-1.98386,2.6187 -1.66644,6.74513 0.71419,8.96706c2.14257,1.90451 4.99933,1.7458 7.53868,-0.63484c1.11096,0.79354 2.22193,1.66644 3.33289,2.45999c-1.82515,2.93612 -5.95159,4.12643 -10.15738,2.93612c-4.20579,-1.11096 -6.90384,-4.68192 -7.06255,-9.28448c-0.15871,-4.52321 2.22193,-8.25287 6.26901,-9.7606c4.04708,-1.50774 8.33222,-0.63484 10.47479,2.14257z" fill="#6F6F6F"/>
      <path stroke="null" id="svg_8" d="m143.4836,27.02354c-3.01547,0 -5.95159,0 -8.96706,0c-0.07935,1.26967 0.63484,1.90451 1.50774,2.30128c1.66644,0.63484 3.01547,0.15871 4.20579,-1.26967c0.95225,0.63484 1.82515,1.34903 2.69805,1.98386c-1.42838,2.38063 -5.87223,3.65031 -9.36383,1.66644c-2.93612,-1.66644 -4.12643,-5.2374 -2.93612,-8.49093c1.26967,-3.25353 4.99933,-5.07869 8.57029,-4.12643c3.17418,0.71419 4.76127,3.65031 4.28514,7.93545zm-9.12577,-2.85676c1.82515,0 3.57095,0 5.31675,0c-0.31742,-1.66644 -1.11096,-2.38063 -2.45999,-2.45999c-1.50774,-0.07935 -2.53934,0.79354 -2.85676,2.45999z" fill="#6F6F6F"/>
      <path stroke="null" id="svg_9" d="m128.64431,26.94419c-3.09483,0 -6.03094,0 -9.12577,0c0.07935,1.26967 0.79354,1.98386 1.7458,2.38063c1.58709,0.55548 3.01547,0.15871 4.12643,-1.34903c0.95225,0.71419 1.82515,1.34903 2.69805,1.98386c-1.7458,2.69805 -5.79288,3.4916 -9.04641,1.82515c-3.09483,-1.58709 -4.44385,-5.07869 -3.25353,-8.41158c1.19032,-3.25353 4.76127,-5.07869 8.49093,-4.3645c3.01547,0.63484 4.76127,3.65031 4.3645,7.93545zm-3.88837,-2.77741c-0.39677,-1.66644 -1.19032,-2.45999 -2.53934,-2.45999c-1.42838,0 -2.45999,0.8729 -2.77741,2.45999c1.7458,0 3.4916,0 5.31675,0z" fill="#6F6F6F"/>
      <path stroke="null" id="svg_10" d="m56.27301,19.2468c1.19032,0 2.45999,0 3.80902,0c0,2.22193 0,4.28514 0,6.42771c0,0.55548 0.07935,1.19032 0.15871,1.7458c0.23806,1.03161 0.79354,1.66644 1.90451,1.66644c1.11096,0 2.06322,-0.47613 2.30128,-1.58709c0.23806,-1.11096 0.23806,-2.30128 0.23806,-3.4916c0,-1.58709 0,-3.09483 0,-4.76127c1.34903,0 2.53934,0 3.88837,0c0,4.28514 0,8.57029 0,12.93478c-1.19032,0 -2.38063,0 -3.65031,0c-0.07935,-0.39677 -0.15871,-0.79354 -0.31742,-1.34903c-1.42838,1.34903 -3.01547,2.06322 -5.07869,1.58709c-1.98386,-0.47613 -3.25353,-1.58709 -3.33289,-3.65031c-0.07935,-3.09483 0.07935,-6.18965 0.07935,-9.52254z" fill="#6F6F6F"/>
      <path stroke="null" id="svg_11" d="m97.45799,20.43712c-1.03161,0.8729 -1.82515,1.58709 -2.45999,2.14257c-0.95225,-0.23806 -1.90451,-0.55548 -2.85676,-0.63484c-0.31742,0 -0.8729,0.55548 -1.03161,0.95225c-0.07935,0.15871 0.47613,0.79354 0.8729,0.95225c1.03161,0.39677 2.06322,0.55548 3.09483,0.8729c1.50774,0.47613 2.6187,1.26967 2.77741,3.01547c0.15871,2.06322 -0.47613,3.25353 -2.22193,4.20579c-2.69805,1.34903 -6.82449,0.8729 -8.80835,-1.11096c0.71419,-0.8729 1.50774,-1.66644 1.98386,-2.30128c1.34903,0.39677 2.38063,0.8729 3.4916,0.95225c0.47613,0.07935 1.11096,-0.55548 1.66644,-0.79354c-0.47613,-0.39677 -0.79354,-0.95225 -1.34903,-1.11096c-0.71419,-0.31742 -1.58709,-0.39677 -2.38063,-0.63484c-2.45999,-0.71419 -3.4916,-2.22193 -3.09483,-4.52321c0.39677,-2.06322 2.14257,-3.33289 4.44385,-3.17418c1.19032,0.07935 2.38063,-0.15871 3.57095,0.07935c0.63484,0 1.34903,0.63484 2.30128,1.11096z" fill="#6F6F6F"/>
      <path stroke="null" id="svg_12" d="m53.65431,32.26094c-0.31742,0 -0.55548,0.07935 -0.71419,0.07935c-0.95225,0 -1.90451,0 -3.01547,0c0,-6.82449 0,-13.56962 0,-20.39411c1.19032,0 2.45999,0 3.72966,0c0,6.74513 0,13.49026 0,20.31475z" fill="#6F6F6F"/>
     </g>
    </g>
   </g>
   <g stroke="null" id="svg_13">
    <path stroke="null" id="svg_14" d="m30.56215,11.3907c-1.03161,2.14257 -2.06322,4.3645 -3.01547,6.50707c-0.39677,0.79354 -0.79354,1.58709 -1.19032,2.38063c-0.31742,0.71419 -0.71419,0.95225 -1.50774,0.95225c-3.17418,-0.07935 -6.34836,-0.07935 -9.52254,0c-5.15804,0.15871 -8.96706,2.38063 -11.03027,7.22126c-0.07935,0.23806 -0.31742,0.71419 -0.47613,1.19032c-1.03161,-1.50774 -1.66644,-2.77741 -2.14257,-4.12643c-0.23806,-0.31742 -1.03161,-2.69805 -1.03161,-4.04708c0,-5.31675 5.87223,-8.72899 7.53868,-9.36383c1.11096,-0.39677 2.30128,-0.63484 3.41224,-0.63484l18.96572,0l0,-0.07935z" fill="#E12525"/>
    <path stroke="null" id="svg_15" d="m24.84863,23.29388c-1.50774,3.01547 -2.93612,6.03094 -4.3645,8.96706c-0.15871,0.31742 -0.55548,0.63484 -0.8729,0.63484c-3.72966,-0.15871 -7.37997,-0.23806 -11.03027,-0.55548c-1.11096,-0.07935 -2.38063,-0.63484 -3.09483,-1.34903c1.11096,-4.52321 4.12643,-7.30061 8.57029,-7.61803c3.41224,-0.23806 6.9832,-0.07935 10.79221,-0.07935z" fill="#C8C8C8"/>
   </g>
  </g>
 </g>
</svg>