<?xml version="1.0"?>
<svg width="160" height="50" xmlns="http://www.w3.org/2000/svg" xmlns:svg="http://www.w3.org/2000/svg">
 <g>
  <title>Layer 1</title>
  <g stroke="null" id="svg_1">
   <path stroke="null" id="svg_2" d="m10.743333,31.320001c-1.755556,-1.58 -2.721111,-3.862222 -2.721111,-6.32s0.965556,-4.74 2.633333,-6.32c1.404444,-1.404444 1.404444,-3.598889 0,-5.003333c-1.404444,-1.404444 -3.598889,-1.404444 -5.003333,0c-2.808889,2.896667 -4.652222,6.934444 -4.652222,11.411111s1.843333,8.514444 4.74,11.411111c1.404444,1.404444 3.598889,1.404444 5.003333,0c1.316667,-1.492222 1.316667,-3.686667 0,-5.178889z" fill="#FAE501"/>
   <path stroke="null" id="svg_3" d="m10.743333,18.680002c1.58,-1.755556 3.862222,-2.721111 6.32,-2.721111s4.74,0.965556 6.32,2.633333c1.404444,1.404444 3.598889,1.404444 5.003333,0c1.404444,-1.404444 1.404444,-3.598889 0,-5.003333c-2.896667,-2.808889 -6.934444,-4.652222 -11.411111,-4.652222s-8.514444,1.843333 -11.411111,4.74c-1.404444,1.404444 -1.404444,3.598889 0,5.003333c1.58,1.316667 3.774444,1.316667 5.178889,0z" fill="#4FB5E1"/>
   <path stroke="null" id="svg_4" d="m23.471111,31.320001c-1.58,1.755556 -3.862222,2.721111 -6.32,2.721111s-4.74,-0.965556 -6.32,-2.633333c-1.404444,-1.404444 -3.598889,-1.404444 -5.003333,0c-1.404444,1.404444 -1.404444,3.598889 0,5.003333c2.896667,2.808889 6.934444,4.652222 11.411111,4.652222s8.514444,-1.843333 11.411111,-4.74c1.404444,-1.404444 1.404444,-3.598889 0,-5.003333c-1.492222,-1.316667 -3.774444,-1.316667 -5.178889,0z" fill="#F05751"/>
   <circle stroke="null" id="svg_5" r="3.511111" cy="16.134446" cx="8.285555" fill="#0681B6"/>
   <circle stroke="null" id="svg_6" r="3.511111" cy="33.865557" cx="8.285555" fill="#CD4739"/>
   <path stroke="null" id="svg_7" d="m44.362221,28.335557c0.965556,-0.79 1.228889,-0.263333 2.018889,0.526667c0.438889,0.438889 1.58,1.228889 0.79,1.843333c-1.58,1.316667 -2.984444,1.931111 -5.178889,1.931111c-4.652222,0 -7.987778,-3.511111 -7.812222,-8.075555c0.087778,-2.106667 0.877778,-4.037778 2.545555,-5.354444c1.492222,-1.228889 3.335555,-1.843333 5.266667,-1.755556c0.965556,0 1.843333,0.175556 2.721111,0.526667c0.614444,0.175556 1.228889,0.526667 1.755556,0.877778c0.965556,0.79 0.526667,1.228889 -0.175556,2.018889c-0.175556,0.175556 -0.263333,0.438889 -0.526667,0.526667c-0.438889,0.438889 -0.702222,0.702222 -1.228889,0.263333c-0.965556,-0.702222 -2.457778,-1.141111 -3.598889,-0.79c-4.037778,0.965556 -3.862222,8.163333 1.141111,8.163333c0.79,0.087778 1.667778,-0.175556 2.282222,-0.702222zm112.092219,3.95c-0.702222,0 -1.228889,-0.526667 -1.228889,-1.228889l0,-15.8c0,-0.702222 0.526667,-1.228889 1.228889,-1.228889l1.316667,0c0.702222,0 1.228889,0.526667 1.228889,1.228889l0,15.8c0,0.702222 -0.526667,1.228889 -1.228889,1.228889c0,0 -1.316667,0 -1.316667,0zm-6.934444,-1.843333c-1.404444,1.316667 -2.808889,2.018889 -4.827778,2.018889c-4.125555,0 -6.056667,-3.423333 -6.056667,-7.197778l0,-6.407778c0,-0.702222 0.526667,-1.228889 1.228889,-1.228889l1.316667,0c0.702222,0 1.228889,0.526667 1.228889,1.228889l0,6.495555c0,2.106667 1.141111,3.774444 3.423333,3.774444c2.194444,0 3.598889,-1.931111 3.598889,-3.95l0,-6.32c0,-0.702222 0.526667,-1.228889 1.228889,-1.228889l1.316667,0c0.702222,0 1.228889,0.526667 1.228889,1.228889l0,12.201111c0,0.702222 -0.526667,1.228889 -1.228889,1.228889l-1.141111,0c-0.702222,0 -1.141111,-0.614444 -1.228889,-1.228889l-0.087778,-0.614444l0,0zm-15.712222,-12.727777l2.545555,0c0.702222,0 1.228889,0.614444 1.228889,1.228889l0,0.79c0,0.702222 -0.526667,1.228889 -1.228889,1.228889l-2.545555,0l0,10.094444c0,0.702222 -0.526667,1.228889 -1.228889,1.228889l-1.316667,0c-0.702222,0 -1.228889,-0.526667 -1.228889,-1.228889l0,-13.868889c0,-2.984444 1.755556,-5.442222 4.827778,-5.793333l1.931111,0c0.702222,0 1.228889,0.614444 1.228889,1.228889l0,0.79c0,0.702222 -0.526667,1.228889 -1.228889,1.228889l-0.965556,0c-1.492222,0 -2.106667,1.141111 -2.106667,2.545555l0,0.526667l0.087778,0zm-9.216666,0l2.808889,0c0.702222,0 1.228889,0.526667 1.228889,1.228889l0,0.79c0,0.702222 -0.526667,1.228889 -1.228889,1.228889l-2.808889,0l0,6.144444c0,1.228889 0.614444,1.843333 1.843333,1.843333l0.614444,0c0.702222,0 1.228889,0.526667 1.228889,1.228889l0,0.877778c0,0.702222 -0.526667,1.228889 -1.228889,1.228889l-1.755556,0c-2.984444,-0.175556 -4.301111,-2.106667 -4.301111,-5.178889l0,-11.85c0,-0.702222 0.526667,-1.228889 1.228889,-1.228889l1.316667,0c0.702222,0 1.228889,0.526667 1.228889,1.228889l0,2.545555l-0.175556,0l0,-0.087778zm-40.465555,0l2.808889,0c0.702222,0 1.228889,0.526667 1.228889,1.228889l0,0.79c0,0.702222 -0.526667,1.228889 -1.228889,1.228889l-2.808889,0l0,6.144444c0,1.228889 0.614444,1.931111 1.843333,1.931111l0.614444,0c0.702222,0 1.228889,0.526667 1.228889,1.228889l0,0.79c0,0.702222 -0.526667,1.228889 -1.228889,1.228889l-0.79,0c-3.335555,0 -5.266667,-1.404444 -5.266667,-5.178889l0,-11.85c0,-0.702222 0.526667,-1.228889 1.228889,-1.228889l1.316667,0c0.702222,0 1.228889,0.526667 1.228889,1.228889l0,2.545555c-0.087778,-0.087778 -0.175556,-0.087778 -0.175556,-0.087778zm-16.414444,1.755556c1.316667,-1.316667 2.808889,-2.018889 4.652222,-2.018889c4.125555,0 6.232222,3.335555 6.232222,7.197778l0,6.495555c0,0.702222 -0.526667,1.228889 -1.228889,1.228889l-1.316667,0c-0.702222,0 -1.228889,-0.526667 -1.228889,-1.228889l0,-6.495555c0,-2.106667 -1.141111,-3.774444 -3.423333,-3.774444c-2.194444,0 -3.598889,1.843333 -3.598889,3.95l0,6.232222c0,0.702222 -0.526667,1.228889 -1.228889,1.228889l-1.316667,0c-0.702222,0 -1.228889,-0.526667 -1.228889,-1.228889l0,-12.201111c0,-0.702222 0.526667,-1.228889 1.228889,-1.228889l1.141111,0c0.702222,0 1.141111,0.614444 1.228889,1.228889l0.087778,0.614444zm40.553332,0c1.316667,-1.316667 2.808889,-2.018889 4.652222,-2.018889c4.125555,0 6.232222,3.335555 6.232222,7.197778l0,6.495555c0,0.702222 -0.526667,1.228889 -1.228889,1.228889l-1.316667,0c-0.702222,0 -1.228889,-0.526667 -1.228889,-1.228889l0,-6.495555c0,-2.106667 -1.141111,-3.774444 -3.423333,-3.774444c-2.194444,0 -3.598889,1.843333 -3.598889,3.95l0,6.232222c0,0.702222 -0.526667,1.228889 -1.228889,1.228889l-1.316667,0c-0.702222,0 -1.228889,-0.526667 -1.228889,-1.228889l0,-12.201111c0,-0.702222 0.526667,-1.228889 1.228889,-1.228889l1.141111,0c0.702222,0 1.141111,0.614444 1.228889,1.228889c0,0 0.087778,0.614444 0.087778,0.614444zm-53.017776,-2.106667c-4.476667,0 -7.548889,3.247778 -7.548889,7.636666s3.16,7.636666 7.548889,7.636666c4.564444,0 7.636666,-3.16 7.636666,-7.636666c0.087778,-4.476667 -3.16,-7.636666 -7.636666,-7.636666zm36.954443,8.953333c0.263333,2.018889 2.282222,2.896667 4.213333,2.896667c0.877778,0 1.931111,-0.175556 2.721111,-0.614444c0.087778,-0.087778 0.263333,-0.087778 0.438889,-0.175556c0.526667,-0.263333 0.877778,-0.438889 1.316667,0l0.702222,0.702222l0.614444,0.614444c0.614444,0.79 0.175556,0.965556 -0.526667,1.404444c-1.492222,0.965556 -3.423333,1.492222 -5.266667,1.492222c-4.827778,0 -8.075555,-2.896667 -8.075555,-7.812222c0,-4.652222 3.247778,-7.636666 7.812222,-7.636666c4.74,0 7.373333,2.721111 7.461111,7.461111c0,1.316667 0.087778,1.755556 -1.228889,1.755556l-10.182222,0c0,0 0,-0.087778 0,-0.087778zm-36.954443,-5.53c2.282222,0 3.862222,2.018889 3.862222,4.213333c0,2.282222 -1.404444,4.125555 -3.862222,4.125555s-3.862222,-1.843333 -3.862222,-4.125555s1.58,-4.213333 3.862222,-4.213333zm37.042221,2.37l7.548889,0c-0.263333,-1.931111 -1.843333,-2.633333 -3.598889,-2.633333c-1.931111,0 -3.423333,0.965556 -3.95,2.633333z" fill="#2A3039"/>
  </g>
 </g>
</svg>