<svg width="160" height="50" xmlns="http://www.w3.org/2000/svg" xmlns:svg="http://www.w3.org/2000/svg">
 <g class="layer">
  <title>Layer 1</title>
  <g id="svg_1">
   <g id="svg_2">
    <path d="m78.47296,19.04601c-0.40185,0.24111 -0.88408,0.48222 -1.44667,0.5626c-0.5626,0.08037 -1.20556,0.16074 -1.76816,0.16074c-0.72334,0 -1.44667,-0.08037 -2.08964,-0.32148c-0.64297,-0.24111 -1.28593,-0.5626 -1.76816,-1.12519c-0.48222,-0.48222 -0.88408,-1.20556 -1.20556,-2.00927c-0.32148,-0.80371 -0.48222,-1.84853 -0.48222,-2.97372c0,-1.20556 0.16074,-2.25038 0.48222,-3.05409c0.32148,-0.80371 0.80371,-1.44667 1.28593,-2.00927c0.5626,-0.48222 1.12519,-0.88408 1.76816,-1.04482c0.64297,-0.24111 1.28593,-0.32148 2.00927,-0.32148c0.72334,0 1.28593,0.08037 1.76816,0.16074c0.48222,0.08037 0.88408,0.24111 1.20556,0.32148l-0.40185,2.08964c-0.24111,-0.16074 -0.5626,-0.24111 -0.96445,-0.32148c-0.40185,-0.08037 -0.80371,-0.08037 -1.3663,-0.08037c-0.96445,0 -1.76816,0.32148 -2.33075,1.04482c-0.5626,0.72334 -0.88408,1.76816 -0.88408,3.21483c0,0.64297 0.08037,1.20556 0.24111,1.76816c0.16074,0.5626 0.32148,0.96445 0.64297,1.3663c0.32148,0.40185 0.64297,0.64297 1.04482,0.88408c0.40185,0.24111 0.96445,0.32148 1.52704,0.32148c0.5626,0 0.96445,-0.08037 1.3663,-0.16074c0.40185,-0.08037 0.72334,-0.24111 0.96445,-0.40185l0.40185,1.9289z" fill="#555555" id="svg_3"/>
    <path d="m79.03555,13.33968c0,-2.08964 0.48222,-3.61668 1.3663,-4.74188c0.88408,-1.12519 2.17001,-1.68779 3.8578,-1.68779c0.88408,0 1.68779,0.16074 2.33075,0.48222c0.64297,0.32148 1.20556,0.72334 1.60742,1.28593c0.40185,0.5626 0.72334,1.20556 0.96445,2.00927c0.24111,0.80371 0.32148,1.68779 0.32148,2.65224c0,2.08964 -0.48222,3.61668 -1.3663,4.74188c-0.88408,1.12519 -2.17001,1.68779 -3.8578,1.68779c-0.88408,0 -1.68779,-0.16074 -2.33075,-0.48222c-0.64297,-0.32148 -1.20556,-0.72334 -1.60742,-1.28593s-0.72334,-1.20556 -0.96445,-2.00927c-0.24111,-0.80371 -0.32148,-1.68779 -0.32148,-2.65224zm2.49149,0c0,0.64297 0.08037,1.20556 0.16074,1.68779c0.08037,0.5626 0.24111,0.96445 0.48222,1.3663c0.24111,0.40185 0.48222,0.64297 0.80371,0.88408c0.32148,0.24111 0.72334,0.32148 1.20556,0.32148c0.88408,0 1.52704,-0.32148 2.00927,-1.04482c0.48222,-0.64297 0.72334,-1.76816 0.72334,-3.2952c0,-0.5626 -0.08037,-1.12519 -0.16074,-1.68779c-0.08037,-0.48222 -0.24111,-0.96445 -0.48222,-1.3663c-0.24111,-0.40185 -0.48222,-0.72334 -0.80371,-0.88408c-0.32148,-0.24111 -0.72334,-0.32148 -1.28593,-0.32148c-0.88408,0 -1.52704,0.32148 -2.00927,1.04482c-0.40185,0.80371 -0.64297,1.84853 -0.64297,3.2952z" fill="#555555" id="svg_4"/>
    <path d="m94.62748,14.46487l0.32148,2.08964l0.08037,0l0.32148,-2.08964l2.33075,-7.23337l2.57186,0l-4.58113,12.45747l-1.76816,0l-4.6615,-12.45747l2.81298,0l2.57186,7.23337z" fill="#555555" id="svg_5"/>
    <path d="m101.459,7.15113l2.41112,0l0,12.3771l-2.41112,0l0,-12.3771z" fill="#555555" id="svg_6"/>
    <path d="m106.28124,7.15113c0.24111,0 0.5626,-0.08037 0.80371,-0.08037s0.64297,-0.08037 0.96445,-0.08037c0.32148,0 0.64297,0 0.96445,0c0.32148,0 0.5626,0 0.80371,0c1.12519,0 2.00927,0.16074 2.81298,0.48222c0.80371,0.32148 1.44667,0.72334 1.9289,1.28593c0.48222,0.5626 0.80371,1.20556 1.04482,2.00927c0.24111,0.80371 0.32148,1.60742 0.32148,2.49149c0,0.80371 -0.08037,1.60742 -0.32148,2.41112c-0.24111,0.80371 -0.5626,1.44667 -1.04482,2.08964c-0.48222,0.5626 -1.12519,1.04482 -1.9289,1.44667s-1.76816,0.5626 -2.97372,0.5626c-0.16074,0 -0.40185,0 -0.72334,0c-0.32148,0 -0.64297,0 -0.96445,-0.08037s-0.64297,0 -0.96445,-0.08037c-0.32148,0 -0.5626,0 -0.72334,-0.08037l0,-12.3771zm3.77743,2.00927c-0.24111,0 -0.48222,0 -0.80371,0c-0.24111,0 -0.48222,0 -0.5626,0.08037l0,8.27819c0.08037,0 0.16074,0 0.24111,0c0.08037,0 0.24111,0 0.40185,0c0.16074,0 0.24111,0 0.40185,0c0.08037,0 0.24111,0 0.24111,0c0.72334,0 1.28593,-0.16074 1.68779,-0.40185c0.48222,-0.24111 0.80371,-0.5626 1.04482,-0.96445s0.48222,-0.88408 0.5626,-1.3663s0.16074,-1.04482 0.16074,-1.60742c0,-0.48222 -0.08037,-0.96445 -0.16074,-1.44667c-0.08037,-0.48222 -0.24111,-0.96445 -0.48222,-1.28593c-0.24111,-0.40185 -0.5626,-0.72334 -1.04482,-0.96445c-0.48222,-0.16074 -1.04482,-0.32148 -1.68779,-0.32148z" fill="#555555" id="svg_7"/>
    <path d="m117.61352,13.50042l4.42039,0l0,2.00927l-4.42039,0l0,-2.00927z" fill="#555555" id="svg_8"/>
    <path d="m124.76652,17.59933l2.49149,0l0,-6.99226l0.24111,-1.20556l-0.88408,1.04482l-1.60742,1.04482l-0.96445,-1.3663l4.01854,-3.21483l1.28593,0l0,10.60894l2.41112,0l0,1.9289l-7.07263,0l0,-1.84853l0.08037,0z" fill="#555555" id="svg_9"/>
    <path d="m133.84842,11.0893c0,-0.5626 0.08037,-1.12519 0.24111,-1.68779c0.16074,-0.48222 0.48222,-0.96445 0.80371,-1.28593c0.32148,-0.32148 0.80371,-0.64297 1.28593,-0.88408c0.48222,-0.24111 1.04482,-0.32148 1.68779,-0.32148c1.3663,0 2.41112,0.40185 3.13446,1.20556c0.72334,0.80371 1.12519,1.9289 1.12519,3.45594c0,1.3663 -0.16074,2.57186 -0.48222,3.53631s-0.80371,1.84853 -1.3663,2.49149c-0.5626,0.64297 -1.28593,1.20556 -2.00927,1.52704s-1.60742,0.5626 -2.41112,0.64297l-0.48222,-1.76816c0.64297,-0.08037 1.20556,-0.24111 1.76816,-0.48222c0.48222,-0.24111 0.96445,-0.5626 1.28593,-0.88408c0.40185,-0.32148 0.64297,-0.72334 0.88408,-1.20556c0.24111,-0.48222 0.40185,-0.88408 0.48222,-1.44667c-0.32148,0.32148 -0.5626,0.48222 -0.88408,0.64297s-0.72334,0.16074 -1.28593,0.16074c-0.48222,0 -0.88408,-0.08037 -1.3663,-0.24111c-0.40185,-0.16074 -0.80371,-0.40185 -1.20556,-0.72334c-0.32148,-0.32148 -0.64297,-0.72334 -0.88408,-1.20556c-0.24111,-0.32148 -0.32148,-0.88408 -0.32148,-1.52704zm2.25038,-0.16074c0,0.64297 0.16074,1.20556 0.5626,1.52704c0.40185,0.32148 0.88408,0.48222 1.44667,0.48222c0.48222,0 0.88408,-0.08037 1.20556,-0.24111c0.32148,-0.16074 0.5626,-0.32148 0.72334,-0.5626c0,-0.24111 0.08037,-0.48222 0.08037,-0.72334c0,-0.32148 -0.08037,-0.64297 -0.16074,-0.96445s-0.24111,-0.5626 -0.40185,-0.88408c-0.16074,-0.24111 -0.40185,-0.48222 -0.64297,-0.5626c-0.24111,-0.16074 -0.5626,-0.24111 -0.96445,-0.24111c-0.5626,0 -1.04482,0.16074 -1.3663,0.5626c-0.40185,0.40185 -0.48222,0.96445 -0.48222,1.60742z" fill="#555555" id="svg_10"/>
    <path d="m70.1144,28.52976c0.48222,-0.08037 1.04482,-0.16074 1.60742,-0.24111c0.5626,-0.08037 1.20556,-0.08037 1.76816,-0.08037c0.64297,0 1.20556,0.08037 1.84853,0.16074c0.64297,0.08037 1.20556,0.32148 1.68779,0.5626c0.48222,0.32148 0.88408,0.72334 1.20556,1.28593c0.32148,0.5626 0.48222,1.20556 0.48222,2.08964c0,0.80371 -0.16074,1.44667 -0.40185,2.00927c-0.24111,0.5626 -0.64297,0.96445 -1.04482,1.28593c-0.48222,0.32148 -0.96445,0.5626 -1.52704,0.72334c-0.5626,0.16074 -1.12519,0.24111 -1.76816,0.24111c-0.08037,0 -0.16074,0 -0.32148,0s-0.24111,0 -0.40185,0c-0.16074,0 -0.24111,0 -0.40185,0c-0.16074,0 -0.24111,0 -0.32148,0l0,4.25965l-2.41112,0l0,-12.29673zm3.61668,1.76816c-0.24111,0 -0.48222,0 -0.64297,0c-0.24111,0 -0.40185,0 -0.48222,0.08037l0,4.01854c0.08037,0 0.08037,0 0.24111,0s0.16074,0 0.32148,0s0.24111,0 0.32148,0c0.08037,0 0.16074,0 0.24111,0c0.32148,0 0.64297,0 0.96445,-0.08037c0.32148,-0.08037 0.5626,-0.16074 0.80371,-0.32148c0.24111,-0.16074 0.48222,-0.40185 0.5626,-0.64297c0.16074,-0.32148 0.24111,-0.64297 0.24111,-1.12519c0,-0.40185 -0.08037,-0.72334 -0.24111,-0.96445c-0.16074,-0.24111 -0.32148,-0.48222 -0.5626,-0.64297s-0.48222,-0.24111 -0.80371,-0.32148c-0.40185,0.08037 -0.72334,0 -0.96445,0z" fill="#555555" id="svg_11"/>
    <path d="m81.84853,31.90533l0,4.98299c0,0.72334 0.08037,1.20556 0.24111,1.52704c0.16074,0.32148 0.48222,0.48222 0.96445,0.48222c0.40185,0 0.80371,-0.16074 1.12519,-0.40185c0.32148,-0.24111 0.48222,-0.5626 0.64297,-0.96445l0,-5.70632l2.33075,0l0,6.18855c0,0.48222 0,0.96445 0.08037,1.44667c0.08037,0.48222 0.08037,0.88408 0.24111,1.28593l-1.76816,0l-0.40185,-1.28593l-0.08037,0c-0.24111,0.48222 -0.64297,0.80371 -1.12519,1.12519c-0.48222,0.32148 -1.04482,0.40185 -1.68779,0.40185c-0.48222,0 -0.88408,-0.08037 -1.20556,-0.16074c-0.32148,-0.08037 -0.64297,-0.32148 -0.88408,-0.5626c-0.24111,-0.24111 -0.40185,-0.64297 -0.5626,-1.12519s-0.16074,-1.04482 -0.16074,-1.76816l0,-5.46521l2.25038,0z" fill="#555555" id="svg_12"/>
    <path d="m89.16227,28.36902l2.33075,0l0,4.25965l0.08037,0c0.24111,-0.32148 0.5626,-0.48222 0.96445,-0.64297c0.40185,-0.16074 0.80371,-0.24111 1.28593,-0.24111c1.04482,0 1.84853,0.40185 2.41112,1.12519c0.5626,0.72334 0.80371,1.84853 0.80371,3.2952c0,1.60742 -0.40185,2.81298 -1.20556,3.61668c-0.80371,0.80371 -1.84853,1.20556 -3.21483,1.20556c-0.72334,0 -1.44667,-0.08037 -2.08964,-0.16074c-0.64297,-0.16074 -1.12519,-0.24111 -1.44667,-0.40185l0,-12.05562l0.08037,0zm3.93817,5.30447c-0.40185,0 -0.80371,0.08037 -1.04482,0.32148s-0.48222,0.5626 -0.64297,0.96445l0,3.8578c0.16074,0.08037 0.40185,0.16074 0.64297,0.16074s0.48222,0.08037 0.72334,0.08037c0.64297,0 1.12519,-0.24111 1.44667,-0.64297s0.48222,-1.20556 0.48222,-2.17001c0,-1.68779 -0.5626,-2.57186 -1.60742,-2.57186z" fill="#555555" id="svg_13"/>
    <path d="m100.97677,37.85277c0,0.40185 0.08037,0.72334 0.16074,0.88408c0.08037,0.16074 0.24111,0.32148 0.48222,0.32148c0.16074,0 0.24111,0 0.40185,0s0.32148,-0.08037 0.48222,-0.16074l0.24111,1.76816c-0.16074,0.08037 -0.48222,0.16074 -0.88408,0.32148s-0.80371,0.16074 -1.20556,0.16074c-0.64297,0 -1.20556,-0.16074 -1.52704,-0.48222c-0.32148,-0.32148 -0.5626,-0.80371 -0.5626,-1.52704l0,-10.76968l2.33075,0l0,9.48375l0.08037,0z" fill="#555555" id="svg_14"/>
    <path d="m103.70938,29.41384c0,-0.32148 0.16074,-0.64297 0.40185,-0.88408c0.24111,-0.24111 0.64297,-0.40185 1.04482,-0.40185s0.80371,0.16074 1.12519,0.40185c0.24111,0.24111 0.40185,0.5626 0.40185,0.88408c0,0.32148 -0.16074,0.64297 -0.40185,0.88408c-0.24111,0.24111 -0.64297,0.32148 -1.12519,0.32148s-0.80371,-0.08037 -1.04482,-0.32148s-0.40185,-0.48222 -0.40185,-0.88408zm0.32148,2.49149l2.33075,0l0,8.84078l-2.33075,0l0,-8.84078z" fill="#555555" id="svg_15"/>
    <path d="m114.88092,40.26389c-0.32148,0.24111 -0.80371,0.48222 -1.28593,0.5626c-0.48222,0.16074 -1.04482,0.24111 -1.52704,0.24111c-0.72334,0 -1.28593,-0.08037 -1.76816,-0.32148s-0.88408,-0.5626 -1.20556,-0.96445c-0.32148,-0.40185 -0.5626,-0.88408 -0.64297,-1.44667c-0.16074,-0.5626 -0.24111,-1.20556 -0.24111,-1.9289c0,-1.52704 0.32148,-2.65224 1.04482,-3.45594c0.64297,-0.80371 1.68779,-1.20556 2.97372,-1.20556c0.64297,0 1.20556,0.08037 1.52704,0.16074c0.40185,0.08037 0.72334,0.24111 1.04482,0.40185l-0.5626,1.84853c-0.24111,-0.16074 -0.5626,-0.24111 -0.80371,-0.32148c-0.24111,-0.08037 -0.5626,-0.08037 -0.88408,-0.08037c-0.64297,0 -1.12519,0.24111 -1.44667,0.64297c-0.32148,0.40185 -0.48222,1.12519 -0.48222,2.00927c0,0.40185 0.08037,0.72334 0.16074,1.04482c0.08037,0.32148 0.24111,0.5626 0.40185,0.80371c0.16074,0.24111 0.40185,0.40185 0.64297,0.5626c0.24111,0.16074 0.5626,0.24111 0.96445,0.24111c0.40185,0 0.72334,-0.08037 0.96445,-0.16074c0.24111,-0.08037 0.48222,-0.24111 0.72334,-0.40185l0.40185,1.76816z" fill="#555555" id="svg_16"/>
    <path d="m120.34613,28.36902c0.24111,0 0.5626,-0.08037 0.80371,-0.08037s0.64297,-0.08037 0.96445,-0.08037c0.32148,0 0.64297,0 0.96445,0c0.32148,0 0.5626,0 0.80371,0c1.12519,0 2.00927,0.16074 2.81298,0.48222c0.80371,0.32148 1.44667,0.72334 1.9289,1.28593c0.48222,0.5626 0.80371,1.20556 1.04482,2.00927c0.24111,0.80371 0.32148,1.60742 0.32148,2.49149c0,0.80371 -0.08037,1.60742 -0.32148,2.41112c-0.24111,0.80371 -0.5626,1.44667 -1.04482,2.08964c-0.48222,0.5626 -1.12519,1.04482 -1.9289,1.44667c-0.80371,0.40185 -1.76816,0.5626 -2.97372,0.5626c-0.16074,0 -0.40185,0 -0.72334,0s-0.64297,0 -0.96445,-0.08037c-0.32148,0 -0.64297,0 -0.96445,-0.08037c-0.32148,0 -0.5626,0 -0.72334,-0.08037l0,-12.3771zm3.77743,2.00927c-0.24111,0 -0.48222,0 -0.80371,0s-0.48222,0 -0.5626,0.08037l0,8.27819c0.08037,0 0.16074,0 0.24111,0c0.08037,0 0.24111,0 0.40185,0c0.16074,0 0.24111,0 0.40185,0c0.08037,0 0.24111,0 0.24111,0c0.72334,0 1.28593,-0.08037 1.68779,-0.40185s0.80371,-0.5626 1.04482,-0.96445s0.48222,-0.88408 0.5626,-1.3663c0.08037,-0.5626 0.16074,-1.04482 0.16074,-1.60742c0,-0.48222 -0.08037,-0.96445 -0.16074,-1.44667c-0.08037,-0.48222 -0.24111,-0.96445 -0.48222,-1.28593c-0.24111,-0.40185 -0.5626,-0.72334 -1.04482,-0.96445c-0.48222,-0.16074 -0.96445,-0.32148 -1.68779,-0.32148z" fill="#555555" id="svg_17"/>
    <path d="m131.67841,32.46793c0.48222,-0.24111 1.04482,-0.40185 1.68779,-0.48222c0.64297,-0.16074 1.28593,-0.16074 2.00927,-0.16074c0.64297,0 1.12519,0.08037 1.52704,0.24111c0.40185,0.16074 0.72334,0.32148 0.96445,0.64297c0.24111,0.24111 0.40185,0.5626 0.48222,0.96445c0.08037,0.40185 0.16074,0.80371 0.16074,1.28593c0,0.48222 0,1.04482 -0.08037,1.52704s-0.08037,1.04482 -0.08037,1.52704c0,0.48222 0,0.96445 0.08037,1.44667s0.16074,0.96445 0.24111,1.3663l-1.84853,0l-0.40185,-1.20556l-0.08037,0c-0.24111,0.40185 -0.5626,0.64297 -0.96445,0.96445s-0.96445,0.40185 -1.60742,0.40185c-0.40185,0 -0.80371,-0.08037 -1.12519,-0.16074c-0.32148,-0.16074 -0.64297,-0.32148 -0.88408,-0.5626c-0.24111,-0.24111 -0.40185,-0.48222 -0.5626,-0.80371s-0.16074,-0.64297 -0.16074,-1.04482c0,-0.5626 0.16074,-0.96445 0.40185,-1.3663s0.5626,-0.64297 1.04482,-0.88408s0.96445,-0.40185 1.60742,-0.48222c0.64297,-0.08037 1.3663,-0.08037 2.08964,-0.08037c0.08037,-0.64297 0,-1.12519 -0.16074,-1.44667c-0.16074,-0.32148 -0.5626,-0.40185 -1.20556,-0.40185c-0.48222,0 -0.96445,0.08037 -1.44667,0.16074c-0.48222,0.08037 -0.96445,0.24111 -1.28593,0.40185l-0.40185,-1.84853zm2.89335,6.5904c0.48222,0 0.80371,-0.08037 1.12519,-0.32148c0.24111,-0.24111 0.48222,-0.40185 0.5626,-0.64297l0,-1.12519c-0.40185,0 -0.72334,-0.08037 -1.04482,0s-0.64297,0.08037 -0.88408,0.16074s-0.48222,0.16074 -0.64297,0.32148c-0.16074,0.16074 -0.24111,0.32148 -0.24111,0.5626c0,0.32148 0.08037,0.5626 0.32148,0.80371c0.24111,0.16074 0.48222,0.24111 0.80371,0.24111z" fill="#555555" id="svg_18"/>
    <path d="m139.55474,31.90533l1.20556,0l0,-1.68779l2.33075,-0.64297l0,2.33075l2.17001,0l0,2.00927l-2.17001,0l0,3.37557c0,0.64297 0.08037,1.04482 0.16074,1.28593c0.16074,0.24111 0.32148,0.40185 0.72334,0.40185c0.24111,0 0.40185,0 0.64297,-0.08037s0.40185,-0.08037 0.5626,-0.24111l0.40185,1.76816c-0.32148,0.16074 -0.72334,0.32148 -1.12519,0.40185c-0.40185,0.08037 -0.88408,0.16074 -1.28593,0.16074c-0.80371,0 -1.44667,-0.24111 -1.76816,-0.64297s-0.5626,-1.12519 -0.5626,-2.08964l0,-4.34002l-1.20556,0l0,-2.00927l-0.08037,0z" fill="#555555" id="svg_19"/>
    <path d="m146.62737,32.46793c0.48222,-0.24111 1.04482,-0.40185 1.68779,-0.48222c0.64297,-0.16074 1.28593,-0.16074 2.00927,-0.16074c0.64297,0 1.12519,0.08037 1.52704,0.24111c0.40185,0.16074 0.72334,0.32148 0.96445,0.64297c0.24111,0.24111 0.40185,0.5626 0.48222,0.96445c0.08037,0.40185 0.16074,0.80371 0.16074,1.28593c0,0.48222 0,1.04482 -0.08037,1.52704s0,0.96445 0,1.44667c0,0.48222 0,0.96445 0.08037,1.44667s0.16074,0.96445 0.24111,1.3663l-1.84853,0l-0.40185,-1.20556l-0.08037,0c-0.24111,0.40185 -0.5626,0.64297 -0.96445,0.96445s-0.96445,0.40185 -1.60742,0.40185c-0.40185,0 -0.80371,-0.08037 -1.12519,-0.16074c-0.32148,-0.16074 -0.64297,-0.32148 -0.88408,-0.5626c-0.24111,-0.24111 -0.40185,-0.48222 -0.5626,-0.80371s-0.16074,-0.64297 -0.16074,-1.04482c0,-0.5626 0.16074,-0.96445 0.40185,-1.3663s0.5626,-0.64297 1.04482,-0.88408s0.96445,-0.40185 1.60742,-0.48222c0.64297,-0.08037 1.3663,-0.08037 2.08964,-0.08037c0.08037,-0.64297 0,-1.12519 -0.16074,-1.44667c-0.16074,-0.32148 -0.5626,-0.40185 -1.20556,-0.40185c-0.48222,0 -0.96445,0.08037 -1.44667,0.16074c-0.48222,0.08037 -0.96445,0.24111 -1.28593,0.40185l-0.48222,-1.76816zm2.89335,6.5904c0.48222,0 0.80371,-0.08037 1.12519,-0.32148c0.24111,-0.24111 0.48222,-0.40185 0.5626,-0.64297l0,-1.12519c-0.40185,0 -0.72334,-0.08037 -1.04482,0s-0.64297,0.08037 -0.88408,0.16074s-0.48222,0.16074 -0.64297,0.32148c-0.16074,0.16074 -0.24111,0.32148 -0.24111,0.5626c0,0.32148 0.08037,0.5626 0.32148,0.80371c0.24111,0.16074 0.48222,0.24111 0.80371,0.24111z" fill="#555555" id="svg_20"/>
   </g>
   <g id="svg_21">
    <path d="m58.78212,10.36596c-0.32148,0.64297 -0.88408,0.88408 -1.44667,1.04482c-0.40185,0.16074 -0.88408,0.24111 -1.3663,0.32148c-0.16074,0.08037 -0.32148,0.16074 -0.40185,0.32148c-0.16074,0.5626 -0.48222,0.88408 -1.04482,1.04482c-0.48222,0.16074 -1.04482,0.32148 -1.60742,0.40185c-0.24111,0.08037 -0.48222,0.16074 -0.5626,0.40185c-0.16074,0.32148 -0.48222,0.48222 -0.80371,0.5626c-0.48222,0.08037 -0.88408,0.16074 -1.3663,0.24111c-0.24111,0.08037 -0.48222,0.08037 -0.5626,0.24111c-0.48222,0.48222 -1.04482,0.64297 -1.76816,0.64297c-0.16074,0 -0.32148,0 -0.48222,0c-0.32148,0 -0.5626,0 -0.72334,0.32148c-0.16074,0.32148 -0.5626,0.40185 -0.88408,0.32148c-0.5626,0 -1.12519,-0.08037 -1.60742,-0.16074c-0.32148,-0.08037 -0.5626,-0.08037 -0.88408,0.08037c-0.64297,0.24111 -1.20556,0.16074 -1.84853,0c-1.84853,-0.5626 -3.45594,-0.16074 -4.90262,0.96445c-0.64297,0.5626 -1.28593,0.96445 -2.17001,1.04482c-0.08037,0 -0.08037,0 -0.16074,0c0,0 -0.08037,0 -0.08037,0c0,-0.16074 0,-0.32148 0,-0.48222c0.08037,-3.69706 0.08037,-7.39411 0.16074,-11.0108c0,-0.08037 0,-0.24111 0.08037,-0.24111c1.28593,-0.88408 2.57186,-1.60742 4.01854,-2.17001c1.44667,-0.48222 2.89335,-0.32148 4.34002,0.32148c0.96445,0.48222 1.9289,0.96445 2.89335,1.52704c2.25038,1.28593 4.58113,1.9289 7.07263,2.33075c1.52704,0.24111 3.05409,0.5626 4.6615,0.80371c0.24111,0.08037 0.48222,0.08037 0.72334,0.24111c0.24111,0.08037 0.40185,0.24111 0.64297,0.40185c0.08037,0.32148 0.08037,0.40185 0.08037,0.48222z" fill="#2093D3" id="svg_22"/>
    <path d="m6.3,10.04448c0.24111,-0.32148 0.5626,-0.40185 0.88408,-0.48222c1.20556,-0.24111 2.33075,-0.48222 3.53631,-0.64297c2.00927,-0.32148 4.01854,-0.64297 5.94744,-1.3663c1.3663,-0.48222 2.57186,-1.20556 3.77743,-1.84853c0.80371,-0.40185 1.68779,-0.88408 2.57186,-1.20556c1.20556,-0.48222 2.49149,-0.48222 3.69706,0.08037c1.20556,0.48222 2.41112,1.12519 3.53631,1.84853c0.32148,0.16074 0.40185,0.40185 0.40185,0.72334c0,2.25038 0.08037,4.50076 0.08037,6.75114c0,1.3663 0.08037,2.65224 0.08037,4.01854c0,0.16074 0,0.32148 0,0.48222c-0.5626,0 -1.04482,-0.16074 -1.44667,-0.40185c-0.40185,-0.24111 -0.72334,-0.48222 -1.04482,-0.72334c-1.20556,-0.96445 -2.57186,-1.28593 -4.09891,-1.12519c-0.24111,0 -0.40185,0.08037 -0.64297,0.16074c-0.72334,0.16074 -1.3663,0.24111 -2.08964,-0.08037c-0.16074,-0.08037 -0.40185,0 -0.64297,0c-0.5626,0.08037 -1.12519,0.16074 -1.68779,0.16074c-0.40185,0 -0.80371,-0.16074 -1.04482,-0.5626c-0.08037,-0.08037 -0.24111,-0.08037 -0.32148,-0.16074c-0.40185,0 -0.80371,0 -1.28593,-0.08037c-0.40185,-0.08037 -0.72334,-0.24111 -1.04482,-0.5626c-0.16074,-0.24111 -0.40185,-0.24111 -0.72334,-0.32148c-0.48222,-0.08037 -0.96445,-0.16074 -1.44667,-0.24111c-0.32148,-0.08037 -0.5626,-0.32148 -0.72334,-0.5626c-0.08037,-0.24111 -0.24111,-0.32148 -0.48222,-0.32148c-0.40185,-0.08037 -0.80371,-0.16074 -1.20556,-0.24111c-0.72334,-0.16074 -1.28593,-0.5626 -1.44667,-1.28593c0,-0.08037 -0.24111,-0.24111 -0.40185,-0.24111c-0.5626,-0.16074 -1.20556,-0.32148 -1.76816,-0.48222c-0.40185,-0.16074 -0.80371,-0.48222 -0.96445,-0.88408c0,-0.16074 0,-0.24111 0,-0.40185z" fill="#2093D3" id="svg_23"/>
    <path d="m33.78681,27.00271c0.24111,-0.08037 0.48222,-0.08037 0.72334,-0.16074c0.5626,-0.08037 1.12519,-0.16074 1.68779,-0.32148c0.40185,-0.08037 0.48222,0 0.5626,0.40185c0.64297,1.9289 0.08037,3.8578 -1.76816,5.14373c-0.96445,0.64297 -1.9289,1.28593 -2.89335,1.9289c-0.32148,0.24111 -0.72334,0.48222 -1.04482,0.80371c-0.40185,0.40185 -0.48222,0.88408 -0.24111,1.3663c0.24111,0.48222 0.64297,0.96445 1.12519,1.20556c0,-0.48222 0,-1.04482 -0.08037,-1.52704c-0.08037,-0.64297 0.16074,-1.04482 0.72334,-1.3663c0.96445,-0.5626 1.9289,-1.12519 2.89335,-1.76816c1.12519,0.88408 1.9289,2.65224 1.12519,4.42039c-0.48222,1.12519 -1.3663,2.00927 -2.41112,2.65224c-0.5626,0.40185 -1.20556,0.72334 -1.76816,1.04482c-0.16074,0.08037 -0.32148,0.16074 -0.48222,0.32148c-0.48222,0.32148 -0.5626,0.72334 -0.32148,1.20556c0.08037,0.24111 0.24111,0.48222 0.40185,0.72334c0,0 0.08037,0 0.08037,0c0,-0.32148 0,-0.64297 0,-0.96445c0,-0.24111 0.08037,-0.32148 0.24111,-0.40185c0.24111,-0.08037 0.48222,-0.24111 0.72334,-0.40185c0,0 0.08037,0 0.08037,0c0,0.40185 0,0.88408 0,1.28593c0,0.08037 -0.08037,0.08037 -0.08037,0.16074c-0.40185,0.48222 -0.88408,0.88408 -1.28593,1.3663c-0.16074,0.16074 -0.24111,0.16074 -0.40185,0c-0.5626,-0.40185 -1.04482,-0.88408 -1.3663,-1.44667c-0.48222,-0.96445 -0.32148,-1.76816 0.24111,-2.65224c0.24111,-0.40185 0.64297,-0.72334 1.04482,-1.04482c0.80371,-0.72334 1.68779,-1.3663 2.41112,-2.08964c1.04482,-0.96445 0.96445,-1.68779 -0.08037,-2.65224c-0.08037,-0.08037 -0.08037,-0.08037 -0.24111,-0.16074c-0.08037,0.64297 -0.08037,1.20556 -0.08037,1.76816c0,0.40185 -0.08037,0.64297 -0.40185,0.88408c-0.96445,0.72334 -1.84853,1.52704 -2.81298,2.33075c-0.80371,-0.96445 -1.68779,-1.9289 -1.76816,-3.2952c-0.08037,-1.60742 0.72334,-2.65224 1.9289,-3.53631c0.80371,-0.64297 1.76816,-1.12519 2.57186,-1.68779c0.48222,-0.32148 0.88408,-0.64297 1.28593,-1.04482c0.64297,-0.64297 0.80371,-1.60742 -0.08037,-2.33075c-0.08037,-0.08037 -0.16074,-0.08037 -0.24111,-0.16074c0,0.08037 0,0.08037 0,0z" fill="#2093D3" id="svg_24"/>
    <path d="m31.77754,30.21754c0,-0.48222 0,-1.04482 0,-1.52704c0,-0.32148 0,-0.5626 0,-0.88408c0,-0.08037 0.08037,-0.16074 0.16074,-0.24111c0.32148,-0.16074 0.64297,-0.24111 0.96445,-0.32148c0.32148,-0.08037 0.40185,0 0.40185,0.32148c0,0.5626 0,1.12519 0,1.76816c0,0.08037 -0.08037,0.24111 -0.16074,0.32148c-0.96445,0.5626 -1.84853,1.20556 -2.81298,1.76816c-0.24111,0.16074 -0.48222,0.32148 -0.72334,0.48222c-0.80371,-0.88408 -1.44667,-1.84853 -1.52704,-3.13446c-0.08037,-1.44667 0.5626,-2.57186 1.68779,-3.45594c0.96445,-0.72334 2.08964,-1.04482 3.2952,-1.28593c1.68779,-0.32148 3.45594,-0.64297 5.14373,-0.88408c0.5626,-0.08037 1.20556,-0.24111 1.76816,-0.40185c0.16074,-0.08037 0.32148,-0.08037 0.48222,-0.16074c0.40185,-0.16074 0.5626,-0.48222 0.5626,-0.72334c-0.08037,-0.24111 -0.48222,-0.5626 -0.80371,-0.64297c-0.16074,0 -0.24111,0 -0.40185,0c-1.3663,0.32148 -2.65224,0.16074 -3.93817,-0.32148c-0.24111,-0.08037 -0.40185,-0.24111 -0.5626,-0.32148c-0.32148,-0.24111 -0.32148,-0.64297 0,-0.88408c0.40185,-0.32148 0.80371,-0.5626 1.20556,-0.72334c1.68779,-0.80371 3.45594,-0.64297 5.06336,0.16074c1.04482,0.48222 1.68779,1.28593 1.84853,2.49149c0.16074,0.88408 -0.16074,1.60742 -0.72334,2.25038c-0.64297,0.72334 -1.44667,1.12519 -2.25038,1.28593c-1.20556,0.32148 -2.41112,0.48222 -3.69706,0.72334c-1.44667,0.32148 -2.81298,0.5626 -4.25965,0.88408c-0.40185,0.08037 -0.80371,0.32148 -1.20556,0.48222c-0.88408,0.5626 -1.04482,1.44667 -0.40185,2.25038c0.24111,0.24111 0.48222,0.5626 0.72334,0.80371c0.08037,-0.08037 0.16074,-0.08037 0.16074,-0.08037z" fill="#2093D3" id="svg_25"/>
    <path d="m33.46532,23.06455c-0.64297,0.16074 -1.20556,0.32148 -1.76816,0.40185c0,-0.16074 0,-0.24111 0,-0.32148c-0.08037,-4.01854 -0.16074,-7.95671 -0.24111,-11.97525c0,-1.76816 -0.08037,-3.61668 -0.08037,-5.38484c0,-0.16074 -0.08037,-0.24111 -0.16074,-0.32148c-0.48222,-0.40185 -0.88408,-0.88408 -0.96445,-1.60742c-0.24111,-1.12519 0.32148,-2.25038 1.3663,-2.73261c1.04482,-0.48222 2.25038,-0.24111 2.97372,0.64297c0.64297,1.04482 0.64297,2.25038 -0.08037,3.21483c-0.16074,0.24111 -0.40185,0.40185 -0.5626,0.64297c-0.08037,0.08037 -0.16074,0.24111 -0.16074,0.32148c-0.08037,5.62595 -0.24111,11.25191 -0.32148,16.95823c0,0 0,0.08037 0,0.16074z" fill="#2093D3" id="svg_26"/>
    <path d="m30.97383,23.70751c-0.24111,0.16074 -0.40185,0.24111 -0.5626,0.32148c-0.80371,0.40185 -1.52704,0.88408 -2.08964,1.52704c-0.16074,0.16074 -0.32148,0.24111 -0.5626,0.16074c-1.20556,-0.16074 -2.41112,-0.40185 -3.53631,-0.80371c-0.64297,-0.24111 -1.28593,-0.5626 -1.76816,-1.12519c-1.04482,-1.04482 -1.12519,-2.57186 -0.16074,-3.69706c0.5626,-0.72334 1.28593,-1.12519 2.17001,-1.44667c1.68779,-0.48222 3.37557,-0.32148 4.90262,0.5626c0.24111,0.16074 0.40185,0.32148 0.5626,0.48222c0.24111,0.24111 0.24111,0.40185 0,0.64297c-0.40185,0.40185 -0.96445,0.64297 -1.52704,0.72334c-0.80371,0.16074 -1.60742,0.24111 -2.41112,0.16074c-0.16074,0 -0.40185,-0.08037 -0.5626,-0.08037c-0.40185,-0.16074 -0.80371,0 -1.12519,0.32148c-0.24111,0.24111 -0.24111,0.48222 0,0.72334c0.24111,0.16074 0.48222,0.32148 0.72334,0.40185c1.04482,0.24111 2.00927,0.48222 3.05409,0.72334c0.88408,0.16074 1.76816,0.32148 2.65224,0.40185c0.08037,-0.08037 0.16074,0 0.24111,0z" fill="#2093D3" id="svg_27"/>
    <path d="m33.30458,41.14797c0.5626,-0.32148 1.04482,-0.64297 1.60742,-0.96445c0.24111,-0.16074 0.24111,0.08037 0.32148,0.16074c0.32148,0.96445 0.32148,1.9289 -0.32148,2.73261c-0.32148,0.40185 -0.80371,0.72334 -1.20556,1.04482c-0.48222,0.40185 -0.96445,0.72334 -1.44667,1.12519c-0.32148,0.24111 -0.5626,0.64297 -0.5626,1.04482c0,0.40185 0.16074,0.72334 0.48222,1.04482c0,-0.16074 0,-0.32148 0,-0.48222c-0.16074,-0.72334 0.08037,-1.3663 0.72334,-1.76816c0.16074,-0.08037 0.32148,-0.24111 0.48222,-0.32148c0.16074,-0.08037 0.24111,-0.08037 0.32148,0.08037c0.32148,0.48222 0.40185,1.52704 0.08037,2.08964c-0.08037,0.16074 -0.16074,0.24111 -0.32148,0.32148c-0.32148,0.16074 -0.40185,0.40185 -0.40185,0.80371c0,0.24111 0,0.48222 -0.08037,0.80371c0,0.08037 -0.24111,0.32148 -0.32148,0.24111c-0.16074,0 -0.32148,-0.16074 -0.32148,-0.24111c-0.08037,-0.32148 -0.08037,-0.64297 -0.08037,-0.96445c0,-0.16074 -0.08037,-0.40185 -0.24111,-0.48222c-0.72334,-0.48222 -0.88408,-1.60742 -0.48222,-2.25038c0.24111,-0.40185 0.5626,-0.80371 0.88408,-1.20556c0.32148,-0.40185 0.72334,-0.88408 1.04482,-1.28593c0.16074,-0.16074 0.24111,-0.40185 0.32148,-0.5626c0,-0.32148 -0.08037,-0.72334 -0.48222,-0.96445zm-0.32148,6.26892c0.5626,-0.48222 0.64297,-1.44667 0.16074,-1.76816c-0.08037,0.5626 -0.16074,1.12519 -0.16074,1.76816z" fill="#2093D3" id="svg_28"/>
   </g>
  </g>
 </g>
</svg>