<?xml version="1.0" encoding="utf-8"?>
<!-- Generator: Adobe Illustrator 25.4.1, SVG Export Plug-In . SVG Version: 6.00 Build 0)  -->
<svg version="1.1" id="Layer_1" xmlns="http://www.w3.org/2000/svg" xmlns:xlink="http://www.w3.org/1999/xlink" x="0px" y="0px"
	 viewBox="0 0 180 35.3" style="enable-background:new 0 0 180 35.3;" xml:space="preserve">
<style type="text/css">
	.st0{fill:#03313F;}
	.st1{fill:#F53251;}
	.st2{fill:#77D9E2;}
</style>
<g id="Layer_2_00000144336238157832609300000017828788273905121419_">
	<g id="Guidelines_00000070819230392039246960000007619703472392894089_">
		<path class="st0" d="M61.3,29.3c0,3.3-2.2,5.2-4.7,5.2s-4.5-1.8-4.5-5.2V5.7c0-3.3,2.2-5.1,4.7-5.1c2.5,0,4.5,1.8,4.5,5.2v8.9H59
			V5.6c0.1-1.2-0.7-2.3-1.9-2.5c-1.2-0.1-2.3,0.7-2.5,1.9c0,0.1,0,0.3,0,0.5v23.8c-0.1,1.2,0.7,2.3,1.9,2.5c1.2,0.1,2.3-0.7,2.5-1.9
			c0-0.1,0-0.3,0-0.5v-9h2.3V29.3z M71.7,6.2c0.1-1.4-0.8-2.5-2.1-2.6c-0.1,0-0.1,0-0.1,0h-2.1v12.9h2.1c1.4-0.1,2.5-1.2,2.3-2.5
			v-0.1V6.2H71.7z M74,33.8h-2.3V21.5c0-1.8-1.1-2.7-2.3-2.7h-2.1v15h-2.5V1.2h4.8C72,1.2,74,2.9,74,6v7.8c0.1,1.6-0.8,3.1-2.2,3.7
			c1.5,0.7,2.3,2.3,2.2,4V33.8z M84.6,5.6c0.1-1.2-0.7-2.3-1.9-2.5c-1.2-0.1-2.3,0.7-2.5,1.9c0,0.1,0,0.3,0,0.5v23.8
			c-0.1,1.2,0.7,2.3,1.9,2.5c1.2,0.1,2.3-0.7,2.5-1.9c0-0.1,0-0.3,0-0.5V5.6z M86.9,29.3c0,3.3-2.2,5.2-4.7,5.2
			c-2.5,0-4.5-1.8-4.5-5.2V5.7c-0.1-2.6,1.8-4.8,4.4-5.1c0.1,0,0.1,0,0.1,0c2.5-0.1,4.7,1.8,4.7,5.1C86.9,5.7,86.9,29.3,86.9,29.3z
			 M99.5,11.2h-2.3V5.7c0.1-1.2-0.8-2.5-2.1-2.5c-0.1,0-0.1,0-0.1,0c-1.6,0-2.1,1.4-2.1,2.6c0.1,1.5,0.4,3,1,4.4l4.7,13.5
			c0.5,1.8,1,3.7,1.1,5.5c0,3.7-2.2,5.2-4.5,5.2c-2.3,0-4.7-1.8-4.7-5.1v-5.5h2.3v5.5c-0.1,1.4,0.8,2.5,2.1,2.5H95
			c1.5,0,2.1-1.4,2.1-2.6c-0.1-1.6-0.4-3.3-1-4.7l-4.8-13.5c-0.5-1.8-1-3.6-1-5.2c0-3.7,2.2-5.2,4.4-5.2c2.5,0,4.7,2.1,4.7,4.7
			c0,0.1,0,0.3,0,0.4L99.5,11.2z M111.8,11.2h-2.3V5.7c0.1-1.2-0.8-2.5-2.1-2.5c-0.1,0-0.1,0-0.1,0c-1.6,0-2.1,1.4-2.1,2.6
			c0.1,1.5,0.4,3,1,4.4l4.7,13.5c0.5,1.8,1,3.7,1.1,5.5c0,3.7-2.2,5.2-4.4,5.2s-4.7-1.8-4.7-5.1v-5.5h2.3v5.5
			c-0.1,1.4,0.8,2.5,2.1,2.5h0.1c1.5,0,2.1-1.4,2.1-2.6c-0.1-1.6-0.5-3.3-1-4.7l-4.8-13.5c-0.5-1.8-1-3.6-1-5.2
			c0-3.7,2.3-5.2,4.5-5.2c2.5,0,4.7,2.1,4.7,4.7c0,0.1,0,0.3,0,0.4L111.8,11.2z M122.1,21.5c0-1.8-1.1-2.9-2.2-2.9h-2.1v12.9h2.1
			c1.4,0,2.3-1.1,2.3-2.3c0-0.1,0-0.1,0-0.3L122.1,21.5L122.1,21.5z M122.1,6.2c0.1-1.4-0.8-2.5-2.1-2.6c-0.1,0-0.1,0-0.1,0h-2.1v13
			h2.1c1.4-0.1,2.3-1.2,2.3-2.5c0-0.1,0-0.1,0-0.1C122.1,13.8,122.1,6.2,122.1,6.2z M124.5,29.4c0.1,2.3-1.6,4.2-4,4.4
			c-0.1,0-0.1,0-0.3,0h-5.1V1.2h4.9c2.3,0,4.2,1.9,4.2,4.2c0,0.1,0,0.1,0,0.3v8.1c0.1,1.6-0.7,3.1-2.2,3.7c1.4,0.7,2.3,2.1,2.2,3.7
			L124.5,29.4L124.5,29.4z M128.1,1.2v32.7h8.1v-2.3h-5.7V18.5h4.1v-2.3h-4.1V3.6h5.7V1.2H128.1L128.1,1.2z M143.3,10.3l0.3-4.1
			l0.3,4.1l1.6,14.4h-3.8L143.3,10.3z M142.2,1.2l-3.8,32.7h2.3l0.8-7h4.2l0.8,7h2.5l-3.8-32.7L142.2,1.2z M164.3,1.2l-4.2,23
			l-0.5,3.8l-0.5-3.8l-4.1-23h-3.3v32.7h2.3V11.2l-0.1-4l0.5,4.1l4.1,22.4h2.1l4.1-22.4l0.5-4.1l-0.1,4v22.6h2.5V1.2H164.3z"/>
		<path class="st1" d="M23,23.8H10.3v10.1H43V23.8H30.3l-3.7-6.3L23,23.8z"/>
		<path class="st2" d="M10.3,1.2v10.1H23l3.7,6.2l3.7-6.2h12.7V1.2H10.3z"/>
	</g>
</g>
</svg>
