<svg width="293" height="142" viewBox="0 0 293 142" fill="none" xmlns="http://www.w3.org/2000/svg">
<g clip-path="url(#clip0)">
<path fill-rule="evenodd" clip-rule="evenodd" d="M252.89 114.356H259.204V141.244H252.89V114.356ZM256.072 109.926C254.927 109.926 253.967 109.573 253.193 108.868C252.418 108.13 252.031 107.223 252.031 106.149C252.031 105.075 252.418 104.186 253.193 103.481C253.967 102.742 254.927 102.373 256.072 102.373C257.217 102.373 258.177 102.725 258.951 103.43C259.726 104.102 260.113 104.958 260.113 105.998C260.113 107.106 259.726 108.046 258.951 108.818C258.21 109.556 257.251 109.926 256.072 109.926ZM243.588 141.596C242.443 141.596 241.466 141.21 240.658 140.438C239.85 139.632 239.446 138.625 239.446 137.417C239.446 136.175 239.833 135.168 240.608 134.396C241.416 133.624 242.409 133.238 243.588 133.238C244.767 133.238 245.743 133.624 246.518 134.396C247.326 135.168 247.73 136.175 247.73 137.417C247.73 138.625 247.326 139.632 246.518 140.438C245.71 141.21 244.733 141.596 243.588 141.596ZM271.229 139.834C273.418 141.009 275.876 141.596 278.604 141.596C281.365 141.596 283.841 141.009 286.029 139.834C288.218 138.659 289.919 137.031 291.131 134.95C292.377 132.835 293 130.452 293 127.8C293 125.148 292.377 122.782 291.131 120.701C289.919 118.619 288.218 116.991 286.029 115.817C283.841 114.642 281.365 114.054 278.604 114.054C275.876 114.054 273.418 114.642 271.229 115.817C269.04 116.991 267.323 118.619 266.077 120.701C264.864 122.782 264.258 125.148 264.258 127.8C264.258 130.452 264.864 132.835 266.077 134.95C267.323 137.031 269.04 138.659 271.229 139.834ZM284.363 133.892C282.847 135.436 280.928 136.209 278.604 136.209C276.28 136.209 274.361 135.436 272.845 133.892C271.364 132.348 270.623 130.318 270.623 127.8C270.623 125.282 271.364 123.252 272.845 121.708C274.361 120.164 276.28 119.391 278.604 119.391C280.928 119.391 282.847 120.164 284.363 121.708C285.878 123.252 286.636 125.282 286.636 127.8C286.636 130.318 285.878 132.348 284.363 133.892ZM105.859 139.795C105.124 140.395 104.221 140.846 103.151 141.146C102.115 141.446 101.012 141.596 99.8416 141.596C96.8996 141.596 94.6263 140.829 93.0216 139.295C91.4169 137.761 90.6146 135.527 90.6146 132.592V108.632H96.8829V114.734H104.054V119.737H96.8829V132.442C96.8829 133.743 97.2005 134.743 97.8357 135.443C98.4709 136.11 99.3902 136.444 100.594 136.444C101.998 136.444 103.168 136.077 104.104 135.343L105.859 139.795ZM15.3649 141.596C12.5901 141.596 10.0995 141.012 7.89306 139.845C5.68662 138.678 3.96492 137.061 2.72798 134.993C1.49103 132.892 0.872559 130.525 0.872559 127.89C0.872559 125.256 1.49103 122.905 2.72798 120.837C3.96492 118.77 5.6699 117.152 7.84291 115.985C10.0494 114.818 12.5567 114.234 15.3649 114.234C18.0059 114.234 20.3127 114.768 22.2851 115.835C24.2909 116.902 25.7953 118.436 26.7983 120.437L21.9842 123.238C21.2153 122.004 20.2458 121.087 19.0757 120.487C17.9391 119.853 16.6854 119.537 15.3147 119.537C12.9746 119.537 11.0356 120.304 9.49774 121.837C7.95992 123.338 7.19101 125.356 7.19101 127.89C7.19101 130.425 7.94321 132.459 9.4476 133.993C10.9854 135.493 12.9411 136.244 15.3147 136.244C16.6854 136.244 17.9391 135.944 19.0757 135.343C20.2458 134.71 21.2153 133.776 21.9842 132.542L26.7983 135.343C25.7619 137.344 24.2408 138.895 22.2349 139.995C20.2625 141.062 17.9725 141.596 15.3649 141.596ZM67.0393 140.746C69.112 141.313 71.2349 141.596 73.4079 141.596C77.1522 141.596 80.1108 140.846 82.2838 139.345C84.4568 137.844 85.5433 135.844 85.5433 133.342C85.5433 131.442 85.0419 129.974 84.0389 128.941C83.0694 127.907 81.8994 127.173 80.5287 126.74C79.158 126.306 77.4029 125.923 75.2633 125.589C73.1237 125.222 71.5358 124.839 70.4994 124.439C69.4965 124.005 68.995 123.288 68.995 122.288C68.995 121.387 69.463 120.67 70.3991 120.137C71.3686 119.57 72.7727 119.286 74.6114 119.286C77.453 119.286 80.0105 119.953 82.2838 121.287L84.6908 116.535C83.5207 115.835 82.0163 115.285 80.1777 114.885C78.339 114.451 76.5002 114.234 74.6615 114.234C71.051 114.234 68.1759 115.001 66.0364 116.535C63.9302 118.036 62.8771 120.053 62.8771 122.588C62.8771 124.522 63.3786 126.039 64.3815 127.14C65.4179 128.207 66.6214 128.957 67.9921 129.391C69.3962 129.824 71.2014 130.208 73.4079 130.541C75.514 130.875 77.0351 131.225 77.9712 131.592C78.9407 131.959 79.4255 132.609 79.4255 133.543C79.4255 135.51 77.5533 136.494 73.8091 136.494C72.1709 136.494 70.4994 136.26 68.7944 135.794C67.1229 135.293 65.6853 134.643 64.4818 133.843L62.0748 138.595C63.3117 139.462 64.9666 140.179 67.0393 140.746ZM114.848 139.845C117.021 141.012 119.461 141.596 122.169 141.596C124.911 141.596 127.368 141.012 129.541 139.845C131.714 138.678 133.402 137.061 134.606 134.993C135.842 132.892 136.461 130.525 136.461 127.89C136.461 125.256 135.842 122.905 134.606 120.837C133.402 118.77 131.714 117.152 129.541 115.985C127.368 114.818 124.911 114.234 122.169 114.234C119.461 114.234 117.021 114.818 114.848 115.985C112.675 117.152 110.97 118.77 109.733 120.837C108.529 122.905 107.928 125.256 107.928 127.89C107.928 130.525 108.529 132.892 109.733 134.993C110.97 137.061 112.675 138.678 114.848 139.845ZM127.886 133.943C126.382 135.477 124.476 136.244 122.169 136.244C119.863 136.244 117.957 135.477 116.453 133.943C114.982 132.409 114.246 130.391 114.246 127.89C114.246 125.389 114.982 123.371 116.453 121.837C117.957 120.304 119.863 119.537 122.169 119.537C124.476 119.537 126.382 120.304 127.886 121.837C129.39 123.371 130.143 125.389 130.143 127.89C130.143 130.391 129.39 132.409 127.886 133.943ZM176.254 114.234C179.63 114.234 182.305 115.218 184.277 117.185C186.25 119.12 187.236 122.038 187.236 125.939V141.246H180.967V126.74C180.967 124.405 180.449 122.655 179.413 121.487C178.377 120.287 176.889 119.687 174.95 119.687C172.844 119.687 171.156 120.387 169.885 121.787C168.615 123.155 167.98 125.122 167.98 127.69V141.246H161.711V126.74C161.711 124.405 161.193 122.655 160.157 121.487C159.12 120.287 157.633 119.687 155.694 119.687C153.554 119.687 151.849 120.37 150.579 121.737C149.342 123.105 148.723 125.089 148.723 127.69V141.246H142.455V126.299C142.455 118.806 148.13 114.234 155.548 114.234C157.553 114.234 160.976 114.618 162.514 115.385C164.085 116.118 165.322 117.219 166.224 118.686C167.328 117.286 168.748 116.202 170.487 115.435C172.225 114.634 174.148 114.234 176.254 114.234ZM220.564 129.891C220.631 129.091 220.664 128.474 220.664 128.04C220.664 125.306 220.079 122.905 218.909 120.837C217.773 118.736 216.168 117.119 214.095 115.985C212.056 114.818 209.732 114.234 207.125 114.234C204.484 114.234 202.11 114.818 200.004 115.985C197.898 117.152 196.243 118.786 195.039 120.887C193.869 122.955 193.284 125.289 193.284 127.89C193.284 130.525 193.886 132.892 195.09 134.993C196.327 137.061 198.065 138.678 200.305 139.845C202.545 141.012 205.136 141.596 208.078 141.596C210.384 141.596 212.457 141.229 214.296 140.496C216.134 139.762 217.655 138.678 218.859 137.244L215.499 133.392C213.594 135.327 211.17 136.294 208.228 136.294C205.921 136.294 203.982 135.727 202.411 134.593C200.873 133.426 199.92 131.858 199.553 129.891H220.564ZM202.01 121.037C203.414 119.837 205.119 119.236 207.125 119.236C209.164 119.236 210.869 119.837 212.24 121.037C213.61 122.238 214.429 123.805 214.697 125.739H199.502C199.803 123.772 200.639 122.204 202.01 121.037ZM242.181 114.234V120.187C241.646 120.087 241.161 120.037 240.726 120.037C238.286 120.037 236.38 120.754 235.01 122.188C233.639 123.588 232.954 125.622 232.954 128.29V141.246H226.685V127.777C226.685 118.014 232.954 113.011 242.181 114.234ZM44.4336 141.596C40.8628 141.592 37.0463 140.608 34.9778 138.645C32.9386 136.644 31.9189 133.693 31.9189 129.791V114.534H38.1872V128.941C38.1872 131.342 38.7221 133.142 39.7919 134.343C40.8951 135.51 42.4497 136.094 44.4555 136.094C46.4508 136.09 47.9981 135.506 49.0973 134.343C50.1671 133.143 50.702 131.342 50.702 128.941V114.535H56.9703V129.791C56.9703 133.693 55.9506 136.644 53.9114 138.645C51.8386 140.612 48.0107 141.596 44.4336 141.596Z" fill="#2F326A"/>
<path d="M146.719 47.4676C159.715 47.4676 170.251 36.932 170.251 23.9358C170.251 10.9395 159.715 0.403992 146.719 0.403992C133.723 0.403992 123.187 10.9395 123.187 23.9358C123.187 36.932 133.723 47.4676 146.719 47.4676Z" fill="#FFCD00"/>
<path d="M146.874 59.2335C146.848 59.2336 146.822 59.2336 146.797 59.2336C130.304 59.2336 116.453 47.9219 112.579 32.6334C111.387 27.93 107.566 23.9359 102.714 23.9359H87.9673C87.9673 56.4265 114.306 82.7654 146.797 82.7654C146.822 82.7654 146.848 82.7653 146.874 82.7653V59.2335Z" fill="#00ECBB"/>
<path d="M146.72 59.2335C146.745 59.2336 146.771 59.2336 146.797 59.2336C163.29 59.2336 177.141 47.9219 181.015 32.6334C182.206 27.93 186.028 23.9359 190.88 23.9359H205.626C205.626 56.4265 179.287 82.7654 146.797 82.7654C146.771 82.7654 146.745 82.7653 146.72 82.7653V59.2335Z" fill="#AF64FF"/>
<path d="M188.396 65.5345C177.75 76.1805 163.042 82.7652 146.797 82.7652C130.552 82.7652 115.844 76.1805 105.198 65.5345L121.838 48.895C128.225 55.2826 137.05 59.2335 146.797 59.2335C156.544 59.2335 165.369 55.2826 171.756 48.895L188.396 65.5345Z" fill="#7131FF"/>
</g>
<defs>
<clipPath id="clip0">
<rect width="293" height="142" fill="white"/>
</clipPath>
</defs>
</svg>
