<?xml version="1.0"?>
<svg width="160" height="50" xmlns="http://www.w3.org/2000/svg" xmlns:svg="http://www.w3.org/2000/svg">
 <g>
  <title>Layer 1</title>
  <g stroke="null" id="svg_1">
   <g stroke="null" id="svg_2">
    <polygon stroke="null" id="svg_3" points="5.381739139556885,18.828043460845947 0.25,15.221956491470337 0.25,29.576956748962402 5.381739139556885,26.040217399597168 " fill="#81C0C0"/>
    <path stroke="null" id="svg_4" d="m34.507827,13.557609l-34.257827,0l6.518696,4.507609l0,5.201087l3.744783,-2.635217l6.796087,4.715652l17.198261,-11.789131zm-26.213479,3.883478l-3.606087,-2.496522l25.728044,-0.554783l-22.121957,3.051304zm9.084566,6.310652l-6.171957,-4.299565l19.556088,-4.438261l-13.384131,8.737826z" fill="#0F3C50"/>
    <path stroke="null" id="svg_5" d="m10.582826,22.364783l-10.263479,7.142826l0,0l0,2.56587c0.069348,1.317609 0.693478,2.496522 1.525652,3.328696c0.97087,1.040217 1.872391,0.901522 2.080435,1.040217l13.522827,-9.223261l-6.865435,-4.854348z" fill="#359899"/>
    <path stroke="null" id="svg_6" d="m34.507827,15.221956l-30.582392,21.220436l0,0c0.138696,0 0.346739,0 0.485435,0l13.314783,0l16.712827,-11.650435l0.069348,-9.57l0,0z" fill="#297979"/>
    <path stroke="null" id="svg_7" d="m17.586957,36.442392l0,0l12.76,0c2.288478,0 4.16087,-2.080435 4.16087,-4.646305l0,-7.073479l-16.92087,11.719783z" fill="#225A5A"/>
   </g>
   <g stroke="null" id="svg_8">
    <path stroke="null" id="svg_9" d="m42.274784,25.138696c0,-4.576957 3.467391,-7.697609 7.975,-7.697609c3.328696,0 5.201087,1.803044 6.241305,3.675435l-2.704565,1.317609c-0.62413,-1.178913 -1.941739,-2.149783 -3.536739,-2.149783c-2.704565,0 -4.646305,2.080435 -4.646305,4.923696s1.941739,4.923696 4.646305,4.923696c1.525652,0 2.912609,-0.901522 3.536739,-2.149783l2.704565,1.317609c-1.109565,1.872391 -2.981957,3.675435 -6.241305,3.675435c-4.507609,-0.138696 -7.975,-3.259348 -7.975,-7.836305z" fill="#0F3C50"/>
    <path stroke="null" id="svg_10" d="m65.298263,32.558914l0,-1.386957c-0.762826,0.832174 -2.080435,1.664348 -3.814131,1.664348c-2.357826,0 -3.536739,-1.317609 -3.536739,-3.398044l0,-7.697609l2.843261,0l0,6.518696c0,1.456304 0.762826,2.011087 2.011087,2.011087c1.109565,0 1.941739,-0.62413 2.427174,-1.248261l0,-7.281522l2.843261,0l0,10.818261l-2.773913,0l0,0l0,0z" fill="#0F3C50"/>
    <path stroke="null" id="svg_11" d="m69.736524,31.657392l1.248261,-2.011087c0.832174,0.554783 2.427174,0.97087 3.744783,0.97087c1.248261,0 1.803044,-0.485435 1.803044,-1.178913c0,-1.803044 -6.449348,-0.346739 -6.449348,-4.576957c0,-1.803044 1.595,-3.398044 4.438261,-3.398044c1.872391,0 3.259348,0.346739 4.438261,0.97087l-1.386957,1.803044c-0.762826,-0.416087 -1.733696,-0.62413 -3.051304,-0.62413c-1.040217,0 -1.664348,0.485435 -1.664348,1.109565c0,1.595 6.38,0.277391 6.38,4.646305c0,1.941739 -1.664348,3.467391 -4.646305,3.467391c-1.941739,0 -3.606087,-0.346739 -4.854348,-1.178913z" fill="#0F3C50"/>
    <path stroke="null" id="svg_12" d="m81.941742,29.854348l0,-5.270435l-1.803044,0l0,-0.832174l3.744783,-4.993044l0.901522,0l0,3.328696l2.219131,0l0,2.496522l-2.149783,0l0,4.507609c0,0.693478 0.346739,1.178913 0.97087,1.178913c0.416087,0 0.832174,-0.138696 0.97087,-0.346739l0.62413,2.149783c-0.416087,0.346739 -1.178913,0.693478 -2.357826,0.693478c-2.080435,0.069348 -3.120652,-0.97087 -3.120652,-2.912609z" fill="#0F3C50"/>
    <path stroke="null" id="svg_13" d="m88.599134,27.149783c0,-3.051304 2.149783,-5.686522 5.686522,-5.686522c3.606087,0 5.75587,2.635217 5.75587,5.686522c0,3.120652 -2.149783,5.686522 -5.75587,5.686522c-3.536739,0 -5.686522,-2.56587 -5.686522,-5.686522zm8.460435,0c0,-1.664348 -0.97087,-3.120652 -2.773913,-3.120652s-2.773913,1.456304 -2.773913,3.120652c0,1.664348 0.97087,3.19 2.773913,3.19s2.773913,-1.525652 2.773913,-3.19z" fill="#0F3C50"/>
    <path stroke="null" id="svg_14" d="m115.020656,32.558914l0,-6.865435c0,-0.97087 -0.416087,-1.733696 -1.595,-1.733696c-0.97087,0 -1.872391,0.693478 -2.219131,1.248261l0,7.281522l-2.843261,0l0,-6.865435c0,-0.97087 -0.416087,-1.733696 -1.595,-1.733696c-0.97087,0 -1.803044,0.693478 -2.219131,1.317609l0,7.281522l-2.843261,0l0,-10.748913l2.843261,0l0,1.386957c0.416087,-0.62413 1.872391,-1.664348 3.536739,-1.664348c1.595,0 2.635217,0.762826 2.981957,1.941739c0.62413,-0.97087 2.080435,-1.941739 3.744783,-1.941739c2.011087,0 3.19,1.040217 3.19,3.259348l0,7.836305l-2.981957,0z" fill="#0F3C50"/>
    <path stroke="null" id="svg_15" d="m119.38957,27.149783c0,-3.120652 2.288478,-5.686522 5.617174,-5.686522c3.19,0 5.409131,2.427174 5.409131,5.963913l0,0.62413l-8.044348,0c0.208043,1.386957 1.317609,2.496522 3.120652,2.496522c0.901522,0 2.219131,-0.416087 2.912609,-1.109565l1.248261,1.872391c-1.109565,0.97087 -2.773913,1.456304 -4.438261,1.456304c-3.328696,0.069348 -5.825218,-2.149783 -5.825218,-5.617174zm5.617174,-3.398044c-1.803044,0 -2.56587,1.317609 -2.635217,2.427174l5.339783,0c-0.138696,-1.040217 -0.832174,-2.427174 -2.704565,-2.427174z" fill="#0F3C50"/>
    <path stroke="null" id="svg_16" d="m132.010874,32.558914l0,-10.818261l2.843261,0l0,1.525652c0.762826,-0.97087 2.080435,-1.733696 3.467391,-1.733696l0,2.773913c-0.208043,-0.069348 -0.485435,-0.069348 -0.762826,-0.069348c-0.901522,0 -2.219131,0.554783 -2.635217,1.248261l0,7.142826l-2.912609,0l0,-0.069348z" fill="#0F3C50"/>
    <path stroke="null" id="svg_17" d="m137.974788,31.033261c0,-0.97087 0.832174,-1.803044 1.803044,-1.803044s1.803044,0.832174 1.803044,1.803044s-0.832174,1.803044 -1.803044,1.803044c-0.97087,0 -1.803044,-0.832174 -1.803044,-1.803044z" fill="#0F3C50"/>
    <path stroke="null" id="svg_18" d="m143.66131,18.897391c0,-0.901522 0.762826,-1.664348 1.664348,-1.664348c0.901522,0 1.664348,0.762826 1.664348,1.664348s-0.762826,1.664348 -1.664348,1.664348c-0.901522,0 -1.664348,-0.762826 -1.664348,-1.664348zm0.277391,13.661522l0,-10.818261l2.843261,0l0,10.818261l-2.843261,0z" fill="#0F3C50"/>
    <path stroke="null" id="svg_19" d="m148.307614,27.149783c0,-3.051304 2.149783,-5.686522 5.686522,-5.686522c3.606087,0 5.75587,2.635217 5.75587,5.686522c0,3.120652 -2.149783,5.686522 -5.75587,5.686522c-3.536739,0 -5.686522,-2.56587 -5.686522,-5.686522zm8.460435,0c0,-1.664348 -0.97087,-3.120652 -2.773913,-3.120652s-2.773913,1.456304 -2.773913,3.120652c0,1.664348 0.97087,3.19 2.773913,3.19c1.803044,0 2.773913,-1.525652 2.773913,-3.19z" fill="#0F3C50"/>
   </g>
  </g>
 </g>
</svg>