<?xml version="1.0" encoding="utf-8"?>
<!-- Generator: Adobe Illustrator 23.1.1, SVG Export Plug-In . SVG Version: 6.00 Build 0)  -->
<svg version="1.1" id="Layer_1" xmlns="http://www.w3.org/2000/svg" xmlns:xlink="http://www.w3.org/1999/xlink" x="0px" y="0px"
	 viewBox="0 0 184.6 60" enable-background="new 0 0 184.6 60" xml:space="preserve">
<g>
	<path d="M20.8,0.9c-0.5,2-3.1,6.3-5.8,9.9l-1.3,1.7c0,0,0.8-0.3,1.8-0.8c2.2-1,4.1-1.6,6-2c1.5-0.3,4.3-0.8,5.1-0.8
		c0.4,0,0.4,0,0.4-0.2c-0.2-0.5-4.8-7.4-5.6-8.3L21.1,0L20.8,0.9z M26.8,11.2c-2.4,2.8-4.1,5.4-5.3,7.9l-1.3,3.1c0,0,1-0.3,2.2-0.6
		l2.2-0.6c0,0-0.4,0.9-0.9,1.9c-1.6,3.3-2.7,6.4-3.2,9.1c-0.3,1.5-0.6,5.3-0.4,5.5c0,0,0.8-0.2,1.6-0.6l1.5-0.7c0,0-0.1,0.8-0.3,1.7
		c-0.8,3.5-1.1,7-1.1,10.6c0,3.1,0.1,4.2,0.6,7.2c0.4,2.8,0.9,4.4,1.1,4.4c0.6,0,3-0.5,4.3-0.9c7-2.3,12.3-8.1,14.1-15.2
		c0.9-3.8,0.8-7.6-0.2-11.1c-1.2-4-3-7.2-8.3-14.6l-3.8-5.5l-1.7-2.5C27.8,10,27.3,10.5,26.8,11.2L26.8,11.2z M11.1,15.5
		C4.4,23.5,1.4,28.8,0.3,34.8c-0.4,2.5-0.4,5.1,0,7.7c0.8,4.3,2.7,8,5.8,11.2c3.1,3.2,7,5.2,11.3,6c1.3,0.2,5.1,0.5,5.5,0.3
		c0.1-0.1,0-0.4-0.8-1.6C20,55,18.7,52,18,49c-0.4-1.7-0.9-4.4-0.9-5c0-0.6-0.1-0.6-1.3,0c-0.6,0.3-1.1,0.6-1.2,0.5
		c-0.1-0.1-0.9-3.1-1.1-4.6c-0.5-3-0.8-6.8-0.6-9.3c0.1-0.7,0.1-1.4,0-1.4s-0.7,0.2-1.5,0.6l-1.5,0.6L9.8,30c-0.1-0.4,0-3.7,0.2-5.7
		c0.2-2.8,0.9-5.8,1.8-8.6l0.4-1.3C12.1,14.3,11.7,14.8,11.1,15.5L11.1,15.5z"/>
	<g>
		<path id="A_1_" d="M110.1,33.6v12h3.7v-3.9l0.1-3.9c0.1,0,1.5,1.7,3.1,3.9l2.9,3.9l2.5,0c2.4,0,2.5,0,2.3-0.2l-3.4-4.1l-3.3-4
			c0-0.1,1.3-1.5,4.3-4.6l2.2-2.3h-2.5l-2.5,0l-2.8,3.2l-2.9,3.2c-0.1,0-0.1-3.4-0.1-7.6v-7.6h-3.7L110.1,33.6z"/>
	</g>
	<g>
		<path d="M153.6,33.6v12h3.7v-3.9l0.1-3.9c0.1,0,1.5,1.7,3.1,3.9l2.9,3.9l2.5,0c2.4,0,2.5,0,2.3-0.2l-3.4-4.1l-3.3-4
			c0-0.1,1.3-1.5,4.3-4.6l2.2-2.3h-2.5l-2.5,0l-2.8,3.2l-2.9,3.2c-0.1,0-0.1-3.4-0.1-7.6v-7.6h-3.7L153.6,33.6z"/>
	</g>
	<path d="M140.2,22.8c-3.4,0.7-5.6,3.2-5.6,6.3c0,2.5,1.2,4.5,3.6,5.6c0.3,0.2,1.6,0.6,2.7,1l2.6,1c0.7,0.4,1.5,1.1,1.7,1.6
		c0.2,0.8,0.2,1.6,0,2.4c-0.3,0.7-1.1,1.4-1.9,1.7c-1.1,0.4-2.7,0.4-3.9,0c-1-0.4-2.2-1.2-2.6-1.7c-0.1-0.2-0.3-0.4-0.4-0.4
		c-0.2,0-2.8,2.5-2.8,2.6c0,0.2,1.6,1.5,2.6,2c1.7,0.9,2.6,1,5.1,1c2,0,2.2,0,3.2-0.4c1.9-0.6,3.4-1.9,4.2-3.4
		c0.6-1.1,0.7-2,0.7-3.6c0-1.7-0.4-2.5-1.6-3.7c-1.1-1.1-1.8-1.5-4.6-2.4l-2.9-1.1c-1.2-0.6-1.8-1.7-1.7-2.9c0.1-1,0.7-1.8,1.9-2.3
		c0.6-0.3,0.9-0.3,2-0.3c1.3,0,1.4,0,2.3,0.5c0.5,0.3,1.2,0.7,1.4,0.9l0.5,0.4l1.3-1.4l1.3-1.4l-0.5-0.4c-0.7-0.6-2.4-1.4-3.6-1.7
		C143.9,22.5,141.7,22.5,140.2,22.8L140.2,22.8z M57,34.3v11.3l5.1-0.1c5.3-0.1,5.6-0.1,7.6-0.7c3.6-1.2,6.3-4,7.2-7.4
		c0.5-2.2,0.5-4.5-0.1-6.6c-1-3.6-3.9-6.1-7.8-7.1c-1.8-0.4-3-0.5-7.6-0.5H57L57,34.3z M66.5,26.7c0.7,0.1,1.5,0.2,1.8,0.4
		c3.3,1.2,4.9,3.7,4.7,7.7c-0.1,2.3-0.7,3.7-2.2,5.1c-1.7,1.5-3.6,2.1-7.4,2.1h-2.5V26.5h2.1C64.2,26.5,65.4,26.6,66.5,26.7
		L66.5,26.7z M84.8,30.2c-0.5,0.1-1.3,0.4-1.8,0.6c-0.9,0.4-2.1,1.3-2.1,1.5c0,0.2,1.8,2.2,1.9,2.2c0.1,0,0.2-0.1,0.5-0.3
		c0.8-0.6,1.6-1,2.6-1.2c1.3-0.3,3,0.1,3.8,0.8c0.5,0.5,0.7,1.1,0.8,1.8V36l-1.7,0.1c-4.6,0.2-7.2,1.2-8.3,3.1
		c-0.3,0.5-0.4,0.7-0.4,1.8c-0.1,1.5,0.1,2.2,1,3.1c0.7,0.8,1.8,1.4,3,1.7c2.3,0.5,4.5-0.1,5.8-1.5l0.6-0.6c0,0,0.1,0.4,0.1,1v1H94
		l0.1-1.9c0.1-2.9,0-8.3-0.2-9.3c-0.5-2.2-1.9-3.6-4.2-4.1C88.5,29.9,86.1,29.9,84.8,30.2L84.8,30.2z M90.4,39.4
		c-0.2,2.4-1.7,3.7-4.2,3.6c-1.6-0.1-2.4-0.7-2.4-1.9c0-0.7,0.3-1.2,1-1.6c1.1-0.6,2.4-0.9,4.9-0.9l0.8,0L90.4,39.4z M105.1,30.2
		c-1.1,0.4-2.1,1.3-2.7,2.4c-0.2,0.4-0.2,0.3-0.2-0.9v-1.3h-3.7v15.2h3.8l0.1-9.2l0.3-0.7c0.4-0.8,1.1-1.6,1.8-2
		c0.3-0.2,0.7-0.2,1.7-0.2h1.3l0.1-0.6c0-0.4,0.1-1.1,0-1.7l0-1.1l-1,0C106,29.9,105.4,30,105.1,30.2L105.1,30.2z M168.5,30.4
		c2.2,5,4.4,10.1,6.4,15.2c0,0.3-1.1,2.8-1.4,3.3c-0.5,0.8-1.8,1.2-3,0.8c-0.4-0.1-0.4-0.1-0.5,0.4c-0.2,1.3-0.2,2.7-0.1,2.8
		c0.1,0,0.6,0.1,1.2,0.2c1.2,0.1,2.5-0.1,3.4-0.5c0.9-0.4,1.9-1.5,2.5-2.6c0.4-0.7,4.5-11.3,7.7-19.5c0-0.1-0.4-0.2-1.9-0.1l-2,0
		l-1.9,5.5l-1.9,5.5c0,0-1-2.5-2.2-5.5l-2.1-5.5l-2.1,0C169.3,30.4,168.4,30.4,168.5,30.4L168.5,30.4z"/>
</g>
</svg>
