<?xml version="1.0" encoding="utf-8"?>
<!-- Generator: Adobe Illustrator 21.1.0, SVG Export Plug-In . SVG Version: 6.00 Build 0)  -->
<svg version="1.1" id="Layer_1" xmlns="http://www.w3.org/2000/svg" xmlns:xlink="http://www.w3.org/1999/xlink" x="0px" y="0px"
	 viewBox="0 0 240 90" enable-background="new 0 0 240 90" xml:space="preserve">
<g>
	<g>
		<polyline fill="#0A9FDA" points="101.3,41.2 102.5,35.9 113.3,35.9 114.1,32.4 96.4,32.4 91.7,53.8 109.4,53.8 110.2,50.2 
			99.3,50.2 100.5,44.7 110.4,44.7 111.2,41.3 101.3,41.3 		"/>
		<path fill="#0A9FDA" d="M137,33.8c-0.7-0.9-2-1.4-3.8-1.4h-15.6l-4.7,21.4h6.9l1.6-7.3h9c3.3,0,5.4-1.5,6-4.3l1.1-5.1
			C137.8,35.7,137.6,34.6,137,33.8 M130.8,37.1l-1,4.7c-0.3,1.2-0.6,1.4-1.5,1.4h-6.2l1.6-7.4h6.4c0.5,0,0.7,0.1,0.7,0.2
			C130.9,36.2,130.9,36.5,130.8,37.1z"/>
		<path fill="#0A9FDA" d="M162.2,32.4l-3.9,17.5c-0.5,2.1-2.6,3.9-4.8,3.9h-12.7c-1.1,0-2-0.5-2.6-1.3c-0.6-0.8-0.8-1.8-0.6-2.9
			l3.8-17.3h6.9l-3.9,17.4c0,0.2,0,0.3,0,0.3c0,0.1,0.2,0.1,0.3,0.1h7.6c0.5,0,0.7-0.2,0.7-0.6l3.9-17.2H162.2z"/>
		<polygon fill="#0A9FDA" points="165.6,32.4 164.9,35.9 171.2,35.9 167.2,53.8 174.1,53.8 178,35.9 184.3,35.9 185.1,32.4 		"/>
		<polygon fill="#0A9FDA" points="210.7,32.4 200,44.9 198,53.8 190.9,53.8 192.9,44.6 187.7,32.4 195.6,32.4 198.6,39.7 
			204.7,32.4 		"/>
		<path fill="#0A9FDA" d="M91.5,33.6c-0.6-0.8-1.7-1.2-3.1-1.2H72l-4.7,21.4h16.7c2.8,0,4.7-1.6,5.3-4.4L92,37.1
			C92.3,35.6,92.2,34.4,91.5,33.6 M85.3,36.6c0,0.2-1,4.3-1.3,5.6c-0.3,1.4-1.3,6.3-1.7,7.4c-0.2,0.7-0.4,0.7-0.9,0.7h-6.6L78,35.9
			c0,0,6.8,0,6.8,0c0.2,0,0.4,0.1,0.4,0.3C85.3,36.2,85.3,36.4,85.3,36.6z"/>
		<g>
			<path fill="#0A9FDA" d="M58,45c-0.4,0-0.7-0.1-1-0.3l-7.2,5.6l2.6,8.6c0.5,0,1,0.3,1.3,0.7c0,0,0,0.1,0.1,0.1l7.7-5.9l-2.9-8.9
				c0,0,0,0-0.1,0C58.3,45,58.2,45,58,45"/>
			<path fill="#0A9FDA" d="M50.4,60.7c0-0.2,0-0.3,0.1-0.5l-7.2-5.3L36,60.3c0,0.2,0.1,0.3,0.1,0.5c0,0.3-0.1,0.7-0.3,1
				c0,0-0.1,0.1-0.1,0.1l7.6,5.7l7.6-5.7c0,0,0,0-0.1-0.1C50.5,61.5,50.4,61.1,50.4,60.7"/>
			<path fill="#0A9FDA" d="M44.4,34l2.8,8.5h9.1c0.2-0.6,0.6-0.8,1.2-1c0,0,0,0,0,0l-2.8-9h-9.6c0,0,0,0.1,0,0.1
				C45.1,33.1,44.8,33.6,44.4,34"/>
			<path fill="#0A9FDA" d="M34.2,59l2.6-8.7l-7.3-5.7c-0.3,0.2-0.7,0.3-1,0.3c-0.2,0-0.6-0.1-0.6-0.1l-2.9,9l7.7,5.9
				C33.1,59.2,33.6,59,34.2,59"/>
			<path fill="#0A9FDA" d="M41.5,32.5C41.5,32.5,41.5,32.4,41.5,32.5l-9.6,0L29,41.4c0,0,0,0,0,0c0.6,0.2,1,0.6,1.2,1.1H31h8.4
				l2.8-8.5C41.7,33.6,41.5,33,41.5,32.5z"/>
		</g>
	</g>
	<g>
		<path fill="#0A9FDA" d="M213.2,32.6h-0.5v1.6h-0.2v-1.6h-0.5v-0.2h1.3V32.6z"/>
		<path fill="#0A9FDA" d="M214.8,33l0-0.3h0L214.8,33l-0.5,0.8h-0.1l-0.5-0.8l-0.1-0.2h0l0,0.3v1.2h-0.2v-1.8h0.2l0.6,0.9l0.1,0.2h0
			l0.1-0.2l0.5-0.9h0.2v1.8h-0.2V33z"/>
	</g>
</g>
</svg>
