<?xml version="1.0"?>
<svg width="160" height="50" xmlns="http://www.w3.org/2000/svg" xmlns:svg="http://www.w3.org/2000/svg">
 <g>
  <title>Layer 1</title>
  <g display="none" id="Layer_2">
   <rect id="svg_1" height="90" width="260" stroke-miterlimit="10" stroke-width="1.1277" stroke="#E8E7E7" fill="none" y="0" x="-10"/>
  </g>
  <g stroke="null" id="Layer_1">
   <g stroke="null" id="svg_2">
    <path stroke="null" d="m131.072512,21.13087l3.559599,-4.023895l-2.708391,-0.541678l-3.017921,3.404834l0,-8.512085l-2.553626,1.005974l0,10.678798c-0.30953,-1.625034 -1.934565,-2.08933 -3.250069,-2.39886c-1.005974,-0.232148 -1.7798,-0.464296 -1.7798,-1.160739c0,-0.619061 0.696443,-0.928591 1.315504,-0.851209c0.773826,0.077383 1.315504,0.30953 1.7798,0.928591l1.857182,-1.702417c-1.005974,-1.160739 -2.708391,-1.392887 -3.559599,-1.470269c-2.08933,-0.077383 -4.256043,0.773826 -4.410808,3.095304c0,0.077383 0,0.154765 0,0.232148c-0.773826,-1.934565 -2.631008,-3.250069 -4.720338,-3.250069c-2.476243,0 -4.565573,1.7798 -5.029869,4.101278l0,-9.208529l-2.553626,1.005974l0,4.797721c-0.773826,-0.464296 -1.625034,-0.696443 -2.553626,-0.696443c-2.785773,0 -5.107251,2.321478 -5.107251,5.107251c0,2.785773 2.321478,5.107251 5.107251,5.107251c2.553626,0 4.720338,-1.934565 5.029869,-4.410808c0.386913,2.476243 2.476243,4.410808 5.029869,4.410808c1.934565,0 3.636982,-1.083356 4.48819,-2.708391l-2.785773,-0.541678c-0.464296,0.386913 -1.083356,0.696443 -1.702417,0.696443c-1.083356,0 -1.934565,-0.619061 -2.321478,-1.547652l2.321478,0l0,0l5.029869,0c0.077383,-0.30953 0.077383,-0.696443 0.077383,-1.005974c0,-0.154765 0,-0.386913 0,-0.541678c0.619061,1.005974 1.857182,1.392887 2.940539,1.625034c1.005974,0.30953 1.857182,0.541678 1.857182,1.238122c0,0.541678 -0.619061,0.773826 -1.547652,0.773826c-0.928591,-0.077383 -1.625034,-0.386913 -2.166713,-1.160739l-1.857182,1.857182c1.083356,1.160739 2.863156,1.470269 3.791747,1.470269c1.005974,0.077383 4.256043,0 4.720338,-2.553626l0,2.39886l2.553626,0l0,-4.48819l3.946512,4.48819l3.172686,0l-4.952486,-5.648929zm-26.464847,2.785773c-0.386913,0.154765 -0.773826,0.30953 -1.160739,0.30953c-1.392887,0 -2.553626,-1.160739 -2.553626,-2.553626c0,-1.392887 1.160739,-2.553626 2.553626,-2.553626c1.392887,0 2.553626,1.160739 2.553626,2.553626c0,0.541678 -0.154765,1.083356 -0.464296,1.470269c0.077383,0.30953 0.232148,0.619061 0.696443,0.928591c0.154765,0.154765 -0.696443,0.386913 -1.625034,-0.154765zm6.577521,-3.250069c0.386913,-0.928591 1.315504,-1.547652 2.321478,-1.547652c1.083356,0 1.934565,0.619061 2.321478,1.547652l-4.642956,0z" fill="#818B91" id="Desk_2_"/>
    <g stroke="null" id="svg_3">
     <path stroke="null" id="svg_4" d="m43.552798,23.761878c0,0 -0.541678,-0.077383 -1.083356,-0.077383c-0.851209,0 -1.160739,0.30953 -1.160739,0.30953c-0.232148,0.154765 -0.386913,0.464296 -0.386913,0.773826c0,0.232148 0.077383,0.386913 0.154765,0.541678c0.077383,0.077383 0.077383,0.077383 0.232148,0.232148c0,0 0.386913,0.30953 1.160739,0.232148c0.541678,0 1.083356,-0.154765 1.083356,-0.154765l0,0l0,-1.857182z" fill="#3498DB"/>
     <path stroke="null" id="svg_5" d="m51.523205,21.285635c-0.541678,0 -0.928591,0.232148 -1.160739,0.619061c-0.154765,0.232148 -0.232148,0.541678 -0.30953,0.928591l2.863156,0c0,-0.386913 -0.077383,-0.696443 -0.232148,-0.928591c-0.30953,-0.386913 -0.619061,-0.619061 -1.160739,-0.619061z" fill="#3498DB"/>
     <path stroke="null" id="svg_6" d="m67.77355,21.285635c-0.541678,0 -0.928591,0.154765 -1.160739,0.541678c-0.232148,0.386913 -0.386913,0.928591 -0.386913,1.625034c0,0.696443 0.154765,1.238122 0.386913,1.625034c0.232148,0.386913 0.619061,0.541678 1.160739,0.541678c0.541678,0 0.928591,-0.154765 1.160739,-0.541678c0.232148,-0.386913 0.386913,-0.928591 0.386913,-1.625034c0,-0.696443 -0.154765,-1.238122 -0.386913,-1.625034c-0.232148,-0.30953 -0.619061,-0.541678 -1.160739,-0.541678z" fill="#3498DB"/>
     <path stroke="null" id="svg_7" d="m83.86913,21.285635c-0.541678,0 -0.928591,0.232148 -1.160739,0.619061c-0.154765,0.232148 -0.232148,0.541678 -0.30953,0.928591l2.863156,0c0,-0.386913 -0.077383,-0.696443 -0.232148,-0.928591c-0.30953,-0.386913 -0.619061,-0.619061 -1.160739,-0.619061z" fill="#3498DB"/>
     <path stroke="null" id="svg_8" d="m78.684496,7.202003c-2.166713,0 -4.256043,0.464296 -6.113225,1.315504c-2.166713,-3.791747 -6.190608,-6.422755 -10.756181,-6.422755c-3.482217,0 -6.577521,1.470269 -8.821616,3.791747c-2.476243,-3.250069 -6.345373,-5.339399 -10.756181,-5.339399c-7.506112,0 -13.541954,6.035842 -13.541954,13.541954c0,1.934565 0.386913,3.714365 1.083356,5.416782c-3.482217,2.011947 -5.803695,5.881077 -5.803695,10.214502c0,6.500138 5.184634,11.762154 11.607389,11.762154c0.851209,0 1.625034,-0.077383 2.39886,-0.232148c1.7798,4.797721 6.422755,8.202555 11.762154,8.202555c5.184634,0 9.595442,-3.172686 11.530007,-7.660877c1.470269,0.696443 3.095304,1.083356 4.797721,1.083356c4.101278,0 7.738259,-2.244095 9.595442,-5.648929c0.928591,0.154765 1.934565,0.30953 2.940539,0.30953c8.279938,0 15.012223,-6.809668 15.012223,-15.166988c0.077383,-8.35732 -6.654903,-15.166988 -14.934841,-15.166988zm-39.774653,17.643232c0,1.238122 -0.851209,2.011947 -2.321478,2.011947c-0.696443,0 -1.392887,-0.077383 -2.08933,-0.464296c-0.154765,-0.077383 -0.232148,-0.154765 -0.386913,-0.232148c0,0 -0.077383,-0.077383 0,-0.154765l0.30953,-0.773826c0.077383,-0.154765 0.154765,-0.077383 0.154765,-0.077383c0.077383,0.077383 0.154765,0.077383 0.232148,0.154765c0.851209,0.541678 1.625034,0.541678 1.857182,0.541678c0.619061,0 1.005974,-0.30953 1.005974,-0.773826l0,0c0,-0.464296 -0.619061,-0.696443 -1.315504,-0.851209l-0.154765,-0.077383c-0.928591,-0.232148 -1.934565,-0.696443 -1.934565,-1.857182l0,0c0,-1.160739 0.928591,-1.934565 2.244095,-1.934565l0.154765,0c0.773826,0 1.547652,0.232148 2.011947,0.541678c0.077383,0 0.077383,0.077383 0.077383,0.154765c0,0.077383 -0.232148,0.696443 -0.30953,0.773826c-0.077383,0.154765 -0.154765,0.077383 -0.154765,0.077383c-0.464296,-0.232148 -1.238122,-0.464296 -1.7798,-0.464296c-0.541678,0 -0.928591,0.30953 -0.928591,0.696443l0,0c0,0.464296 0.619061,0.696443 1.315504,0.928591l0.154765,0.077383c0.851209,0.077383 1.857182,0.541678 1.857182,1.702417l0,0zm5.881077,1.547652c0,0 -0.154765,0.077383 -0.30953,0.077383c-0.154765,0 -0.619061,0.154765 -1.005974,0.232148c-0.386913,0.077383 -0.851209,0.077383 -1.238122,0.077383c-0.386913,0 -0.773826,0 -1.083356,-0.077383c-0.30953,-0.077383 -0.619061,-0.154765 -0.851209,-0.386913c-0.232148,-0.154765 -0.386913,-0.386913 -0.541678,-0.619061c-0.154765,-0.232148 -0.154765,-0.541678 -0.154765,-0.928591c0,-0.386913 0.077383,-0.696443 0.232148,-0.928591c0.154765,-0.232148 0.30953,-0.464296 0.619061,-0.696443c0.232148,-0.154765 0.541678,-0.30953 0.851209,-0.386913c0.30953,-0.077383 0.619061,-0.154765 1.005974,-0.154765c0.232148,0 0.464296,0 0.619061,0c0,0 0.30953,0 0.696443,0.077383l0,-0.154765c0,-0.541678 -0.077383,-0.773826 -0.30953,-0.928591c-0.232148,-0.154765 -0.541678,-0.232148 -1.005974,-0.232148c0,0 -1.005974,0 -1.7798,0.386913c0,0 -0.077383,0 -0.077383,0s-0.077383,0 -0.154765,-0.077383l-0.30953,-0.773826c-0.077383,-0.077383 0,-0.154765 0,-0.154765c0.386913,-0.232148 1.315504,-0.386913 1.315504,-0.386913c0.30953,-0.077383 0.773826,-0.077383 1.083356,-0.077383c0.773826,0 1.470269,0.154765 1.857182,0.541678c0.464296,0.386913 0.619061,1.005974 0.619061,1.7798l0,3.714365c0,-0.077383 0,0.077383 -0.077383,0.077383zm2.708391,0.154765c0,0.077383 -0.077383,0.154765 -0.077383,0.154765l-1.083356,0c-0.077383,0 -0.077383,-0.077383 -0.077383,-0.154765l0,-8.666851c0,-0.077383 0.077383,-0.154765 0.077383,-0.154765l1.083356,0c0.077383,0 0.077383,0.077383 0.077383,0.154765l0,8.666851zm6.654903,-2.785773c0,0.077383 -0.154765,0.077383 -0.154765,0.077383l-4.023895,0c0,0.619061 0.154765,1.083356 0.464296,1.315504c0.30953,0.30953 0.773826,0.464296 1.392887,0.464296c0.928591,0 1.392887,-0.154765 1.625034,-0.30953c0,0 0.077383,-0.077383 0.154765,0.077383l0.232148,0.773826c0.077383,0.154765 0,0.154765 0,0.232148c-0.232148,0.154765 -0.851209,0.386913 -2.011947,0.386913c-0.541678,0 -1.083356,-0.077383 -1.470269,-0.232148c-0.386913,-0.154765 -0.773826,-0.386913 -1.005974,-0.696443c-0.232148,-0.30953 -0.464296,-0.619061 -0.619061,-1.005974c-0.154765,-0.386913 -0.154765,-0.851209 -0.154765,-1.315504c0,-0.464296 0.077383,-0.928591 0.154765,-1.315504c0.154765,-0.386913 0.30953,-0.773826 0.541678,-1.083356c0.232148,-0.30953 0.541678,-0.541678 0.928591,-0.696443c0.386913,-0.154765 0.851209,-0.232148 1.315504,-0.232148c0.464296,0 0.851209,0.077383 1.160739,0.232148c0.232148,0.077383 0.541678,0.30953 0.773826,0.619061c0.154765,0.154765 0.386913,0.541678 0.541678,0.928591c0.30953,0.928591 0.154765,1.702417 0.154765,1.7798zm1.315504,2.553626c-0.154765,-0.077383 -0.232148,-0.154765 -0.386913,-0.232148c0,0 -0.077383,-0.077383 0,-0.154765l0.30953,-0.773826c0.077383,-0.154765 0.154765,-0.077383 0.154765,-0.077383c0.077383,0.077383 0.154765,0.077383 0.232148,0.154765c0.851209,0.541678 1.625034,0.541678 1.857182,0.541678c0.619061,0 1.005974,-0.30953 1.005974,-0.773826l0,0c0,-0.464296 -0.619061,-0.696443 -1.315504,-0.851209l-0.154765,-0.077383c-0.928591,-0.232148 -1.934565,-0.696443 -1.934565,-1.857182l0,0c0,-1.160739 0.928591,-1.934565 2.244095,-1.934565l0.154765,0c0.773826,0 1.547652,0.232148 2.011947,0.541678c0.077383,0 0.077383,0.077383 0.077383,0.154765c0,0.077383 -0.232148,0.696443 -0.30953,0.773826c-0.077383,0.154765 -0.154765,0.077383 -0.154765,0.077383c-0.464296,-0.232148 -1.238122,-0.464296 -1.7798,-0.464296c-0.541678,0 -0.928591,0.30953 -0.928591,0.696443l0,0c0,0.464296 0.619061,0.696443 1.315504,0.928591l0.154765,0.077383c0.928591,0.30953 1.934565,0.696443 1.934565,1.857182l0,0c0,1.238122 -0.851209,2.011947 -2.321478,2.011947c-0.773826,-0.154765 -1.470269,-0.232148 -2.166713,-0.619061zm9.131146,-5.029869c0,0.154765 -0.154765,0.154765 -0.154765,0.154765l-1.315504,0l-0.928591,5.184634c-0.077383,0.541678 -0.232148,1.005974 -0.386913,1.392887c-0.154765,0.386913 -0.30953,0.619061 -0.541678,0.928591c-0.232148,0.232148 -0.464296,0.386913 -0.773826,0.541678c-0.30953,0.077383 -0.619061,0.154765 -1.005974,0.154765c-0.154765,0 -0.386913,0 -0.619061,-0.077383c-0.154765,0 -0.232148,-0.077383 -0.386913,-0.077383c-0.077383,0 -0.077383,-0.077383 -0.077383,-0.154765c0,-0.077383 0.232148,-0.773826 0.30953,-0.851209c0.077383,-0.077383 0.154765,-0.077383 0.154765,-0.077383c0.077383,0 0.154765,0.077383 0.232148,0.077383c0.077383,0 0.232148,0 0.30953,0c0.154765,0 0.30953,0 0.464296,-0.077383c0.154765,-0.077383 0.232148,-0.154765 0.386913,-0.30953c0.077383,-0.154765 0.154765,-0.30953 0.30953,-0.541678c0.077383,-0.232148 0.154765,-0.619061 0.232148,-1.005974l0.928591,-5.029869l-0.928591,0c-0.077383,0 -0.154765,-0.077383 -0.154765,-0.154765l0.154765,-0.851209c0,-0.154765 0.154765,-0.154765 0.154765,-0.154765l0.928591,0l0.077383,-0.30953c0.154765,-0.851209 0.386913,-1.392887 0.773826,-1.857182c0.386913,-0.386913 1.005974,-0.619061 1.702417,-0.619061c0.232148,0 0.386913,0 0.541678,0.077383c0.154765,0 0.232148,0.077383 0.386913,0.077383c0,0 0.077383,0.077383 0.077383,0.154765l-0.30953,0.851209c0,0.077383 -0.077383,0.077383 -0.154765,0.077383c0,0 -0.077383,0 -0.232148,-0.077383c-0.077383,0 -0.232148,0 -0.30953,0c-0.154765,0 -0.30953,0 -0.464296,0.077383c-0.154765,0.077383 -0.232148,0.077383 -0.30953,0.232148c-0.077383,0.077383 -0.232148,0.232148 -0.30953,0.464296c-0.154765,0.464296 -0.232148,0.851209 -0.232148,0.928591l1.315504,0c0.077383,0 0.154765,0.077383 0.154765,0.154765l0,0.696443zm5.881077,3.482217c-0.154765,0.386913 -0.30953,0.773826 -0.541678,1.005974c-0.232148,0.30953 -0.541678,0.541678 -0.928591,0.696443c-0.386913,0.154765 -0.773826,0.232148 -1.315504,0.232148s-0.928591,-0.077383 -1.315504,-0.232148c-0.386913,-0.154765 -0.696443,-0.386913 -0.928591,-0.696443c-0.232148,-0.30953 -0.464296,-0.619061 -0.541678,-1.005974c-0.154765,-0.386913 -0.154765,-0.851209 -0.154765,-1.315504c0,-0.464296 0.077383,-0.928591 0.154765,-1.315504c0.154765,-0.386913 0.30953,-0.773826 0.541678,-1.005974c0.232148,-0.30953 0.541678,-0.541678 0.928591,-0.696443c0.386913,-0.154765 0.773826,-0.232148 1.315504,-0.232148c0.464296,0 0.928591,0.077383 1.315504,0.232148c0.386913,0.154765 0.696443,0.386913 0.928591,0.696443c0.232148,0.30953 0.464296,0.619061 0.541678,1.005974c0.154765,0.386913 0.154765,0.851209 0.154765,1.315504c0.077383,0.541678 0,0.928591 -0.154765,1.315504zm4.720338,-3.327452c0,0.077383 -0.077383,0.154765 -0.154765,0.077383c0,0 -0.232148,-0.077383 -0.464296,-0.077383c-0.154765,0 -0.386913,0 -0.541678,0.077383c-0.154765,0.077383 -0.386913,0.154765 -0.464296,0.30953c-0.154765,0.154765 -0.232148,0.30953 -0.386913,0.619061c-0.077383,0.232148 -0.154765,0.619061 -0.154765,1.083356l0,3.017921c0,0.077383 -0.077383,0.154765 -0.154765,0.154765l-1.083356,0c-0.077383,0 -0.154765,-0.077383 -0.154765,-0.154765l0,-6.035842c0,-0.077383 0.077383,-0.154765 0.077383,-0.154765l1.005974,0c0.077383,0 0.077383,0.077383 0.077383,0.154765l0,0.464296c0.154765,-0.232148 0.464296,-0.386913 0.696443,-0.541678c0.232148,-0.077383 0.541678,-0.232148 1.005974,-0.154765c0.232148,0 0.619061,0.077383 0.696443,0.077383c0,0 0.077383,0.077383 0.077383,0.154765c0.154765,0.154765 0,0.696443 -0.077383,0.928591zm5.339399,5.029869c-0.464296,0.154765 -1.083356,0.30953 -1.702417,0.30953c-1.005974,0 -1.857182,-0.30953 -2.321478,-0.851209c-0.541678,-0.619061 -0.773826,-1.392887 -0.773826,-2.39886c0,-0.464296 0.077383,-0.928591 0.232148,-1.315504c0.154765,-0.386913 0.30953,-0.773826 0.619061,-1.005974c0.232148,-0.30953 0.541678,-0.541678 0.928591,-0.696443c0.386913,-0.154765 0.851209,-0.232148 1.315504,-0.232148c0.30953,0 0.619061,0 0.928591,0.077383c0.30953,0.077383 0.619061,0.154765 0.773826,0.232148c0,0 0.077383,0.077383 0.077383,0.154765c-0.077383,0.30953 -0.154765,0.541678 -0.30953,0.851209c-0.077383,0.154765 -0.154765,0.077383 -0.154765,0.077383c-0.386913,-0.154765 -0.773826,-0.154765 -1.238122,-0.154765c-0.619061,0 -1.005974,0.232148 -1.315504,0.619061c-0.30953,0.386913 -0.464296,0.928591 -0.464296,1.547652c0,0.773826 0.154765,1.315504 0.541678,1.625034c0.30953,0.30953 0.773826,0.541678 1.392887,0.541678c0.232148,0 0.464296,0 0.619061,-0.077383c0.232148,0 0.386913,-0.077383 0.541678,-0.154765c0,0 0.077383,-0.077383 0.154765,0.077383l0.30953,0.773826c-0.077383,-0.077383 -0.154765,0 -0.154765,0zm5.95846,-2.708391c0,0.077383 -0.154765,0.077383 -0.154765,0.077383l-4.023895,0c0,0.619061 0.154765,1.083356 0.464296,1.315504c0.30953,0.30953 0.773826,0.464296 1.392887,0.464296c0.928591,0 1.392887,-0.154765 1.625034,-0.30953c0,0 0.077383,-0.077383 0.154765,0.077383l0.232148,0.773826c0.077383,0.154765 0,0.154765 0,0.232148c-0.232148,0.154765 -0.851209,0.386913 -2.011947,0.386913c-0.541678,0 -1.083356,-0.077383 -1.470269,-0.232148c-0.386913,-0.154765 -0.773826,-0.386913 -1.005974,-0.696443c-0.232148,-0.30953 -0.464296,-0.619061 -0.619061,-1.005974c-0.154765,-0.386913 -0.154765,-0.851209 -0.154765,-1.315504c0,-0.464296 0.077383,-0.928591 0.154765,-1.315504c0.154765,-0.386913 0.30953,-0.773826 0.541678,-1.083356c0.232148,-0.30953 0.541678,-0.541678 0.928591,-0.696443c0.386913,-0.154765 0.851209,-0.232148 1.315504,-0.232148c0.464296,0 0.851209,0.077383 1.160739,0.232148c0.232148,0.077383 0.541678,0.30953 0.773826,0.619061c0.154765,0.154765 0.386913,0.541678 0.541678,0.928591c0.30953,0.928591 0.154765,1.702417 0.154765,1.7798z" fill="#3498DB"/>
    </g>
   </g>
  </g>
 </g>
</svg>