<svg xmlns="http://www.w3.org/2000/svg" xmlns:xlink="http://www.w3.org/1999/xlink" id="svg" version="1.1" viewBox="44.63 48.24 310.74 500.58"><g id="svgg"><path id="path0" d="M215.556 48.301 C 215.436 48.428,210.499 48.719,208.035 48.746 C 207.627 48.750,207.235 48.847,207.164 48.960 C 207.093 49.074,206.370 49.188,205.557 49.213 C 204.744 49.239,203.523 49.365,202.843 49.492 C 202.163 49.620,201.162 49.781,200.618 49.849 C 200.074 49.917,198.906 50.144,198.022 50.353 C 197.138 50.562,196.062 50.746,195.631 50.761 C 195.200 50.776,194.911 50.893,194.990 51.020 C 195.071 51.151,194.903 51.192,194.606 51.114 C 194.147 50.994,193.675 51.067,191.842 51.536 C 191.638 51.588,191.471 51.648,191.471 51.668 C 191.471 51.689,191.193 51.755,190.853 51.815 C 190.513 51.876,189.845 52.058,189.370 52.219 C 188.894 52.381,188.449 52.526,188.381 52.543 C 187.176 52.832,186.217 52.992,185.970 52.944 C 185.800 52.910,185.661 52.987,185.661 53.114 C 185.661 53.241,185.522 53.329,185.352 53.310 C 184.970 53.268,180.640 54.672,180.470 54.894 C 180.402 54.982,179.851 55.132,179.246 55.227 C 178.641 55.321,178.001 55.519,177.824 55.665 C 177.648 55.812,177.503 55.849,177.503 55.748 C 177.503 55.647,177.321 55.715,177.099 55.899 C 176.876 56.084,176.570 56.238,176.419 56.242 C 175.955 56.255,174.289 56.949,174.289 57.130 C 174.289 57.223,173.872 57.387,173.362 57.493 C 172.852 57.600,172.379 57.711,172.311 57.740 C 172.244 57.769,171.911 57.880,171.573 57.989 C 171.234 58.097,170.361 58.499,169.632 58.882 C 168.902 59.266,168.166 59.580,167.996 59.580 C 167.825 59.580,166.084 60.400,164.127 61.403 C 159.859 63.590,159.405 63.821,157.973 64.532 C 157.361 64.836,156.749 65.214,156.613 65.372 C 156.477 65.530,155.977 65.815,155.501 66.006 C 154.574 66.376,152.402 67.621,151.792 68.131 C 151.588 68.301,151.259 68.477,151.060 68.522 C 150.862 68.567,150.584 68.688,150.442 68.792 C 149.567 69.436,148.308 70.184,147.862 70.326 C 147.576 70.416,147.342 70.601,147.342 70.736 C 147.342 70.871,147.240 70.918,147.115 70.841 C 146.990 70.763,146.725 70.863,146.526 71.061 C 146.328 71.260,146.096 71.354,146.012 71.270 C 145.928 71.185,145.859 71.246,145.859 71.405 C 145.859 71.564,145.752 71.693,145.621 71.693 C 145.489 71.693,144.907 72.017,144.326 72.414 C 143.745 72.810,143.185 73.081,143.081 73.017 C 142.977 72.953,142.892 73.011,142.892 73.146 C 142.892 73.280,142.652 73.467,142.358 73.560 C 142.063 73.654,141.294 74.110,140.649 74.573 C 140.004 75.037,139.382 75.389,139.268 75.356 C 139.154 75.323,138.560 75.623,137.948 76.023 C 136.491 76.977,136.022 77.255,134.981 77.781 C 134.506 78.022,134.061 78.283,133.993 78.361 C 133.925 78.438,133.563 78.636,133.189 78.801 C 132.815 78.965,132.509 79.210,132.509 79.344 C 132.509 79.479,132.342 79.525,132.138 79.447 C 131.934 79.368,131.768 79.434,131.768 79.593 C 131.768 79.751,131.656 79.812,131.519 79.727 C 131.382 79.642,131.203 79.747,131.121 79.960 C 131.040 80.172,130.824 80.346,130.641 80.346 C 130.458 80.346,129.815 80.680,129.210 81.088 C 128.606 81.496,127.988 81.829,127.838 81.829 C 127.688 81.829,127.565 81.941,127.565 82.077 C 127.565 82.213,127.436 82.324,127.279 82.324 C 127.122 82.324,126.629 82.602,126.183 82.942 C 125.738 83.282,125.308 83.560,125.228 83.560 C 125.148 83.560,124.628 83.847,124.072 84.198 C 123.516 84.549,123.137 84.688,123.230 84.507 C 123.323 84.326,123.224 84.394,123.010 84.658 C 122.796 84.922,122.621 85.058,122.621 84.961 C 122.621 84.770,121.465 85.460,120.932 85.969 C 120.751 86.142,120.501 86.221,120.376 86.143 C 120.251 86.066,120.148 86.127,120.148 86.279 C 120.148 86.431,120.049 86.494,119.927 86.419 C 119.805 86.344,119.636 86.464,119.550 86.687 C 119.465 86.910,119.329 87.025,119.247 86.944 C 119.166 86.863,118.435 87.248,117.622 87.799 C 116.810 88.351,116.017 88.822,115.860 88.846 C 115.703 88.870,114.749 89.425,113.740 90.079 C 112.731 90.733,111.705 91.307,111.460 91.354 C 111.214 91.402,110.785 91.653,110.507 91.913 C 110.228 92.172,109.557 92.531,109.016 92.710 C 108.475 92.888,108.089 93.091,108.159 93.161 C 108.287 93.289,106.512 94.306,104.694 95.147 C 104.148 95.400,103.550 95.788,103.365 96.011 C 103.181 96.233,102.871 96.415,102.678 96.415 C 102.484 96.415,102.076 96.666,101.770 96.972 C 101.464 97.278,101.107 97.534,100.978 97.542 C 100.473 97.572,99.365 98.159,98.113 99.058 C 97.394 99.575,96.893 99.831,97.000 99.628 C 97.110 99.417,97.042 99.443,96.842 99.687 C 96.648 99.923,96.418 100.043,96.329 99.955 C 96.241 99.866,96.168 99.906,96.168 100.044 C 96.168 100.181,95.640 100.559,94.994 100.885 C 94.348 101.210,93.764 101.540,93.696 101.618 C 93.628 101.695,93.214 101.904,92.776 102.081 C 92.338 102.258,91.677 102.662,91.308 102.980 C 90.939 103.297,90.555 103.506,90.456 103.445 C 90.356 103.383,90.124 103.473,89.940 103.644 C 89.756 103.815,89.445 103.991,89.250 104.035 C 89.054 104.078,88.189 104.607,87.328 105.209 C 86.466 105.811,85.714 106.304,85.657 106.304 C 85.599 106.304,84.687 106.816,83.629 107.441 C 82.571 108.066,81.677 108.565,81.641 108.549 C 81.502 108.485,79.932 109.377,79.184 109.945 C 78.749 110.276,78.242 110.569,78.057 110.596 C 77.873 110.623,77.061 111.090,76.253 111.633 C 74.998 112.477,73.622 113.219,73.177 113.292 C 73.109 113.303,72.619 113.627,72.089 114.011 C 71.559 114.395,70.975 114.710,70.791 114.710 C 70.608 114.710,70.457 114.827,70.457 114.971 C 70.457 115.115,70.346 115.164,70.210 115.080 C 70.074 114.996,69.963 115.018,69.963 115.129 C 69.963 115.240,69.601 115.490,69.159 115.686 C 68.718 115.882,68.140 116.243,67.877 116.488 C 67.613 116.734,67.189 116.934,66.935 116.934 C 66.654 116.934,66.540 117.044,66.645 117.214 C 66.751 117.384,66.684 117.445,66.474 117.371 C 66.286 117.303,65.464 117.717,64.648 118.290 C 63.832 118.863,63.025 119.284,62.855 119.225 C 62.685 119.166,62.546 119.239,62.546 119.386 C 62.546 119.533,62.441 119.654,62.312 119.654 C 62.182 119.654,61.598 119.976,61.014 120.370 C 60.429 120.764,59.478 121.291,58.900 121.541 C 58.322 121.791,57.849 122.081,57.849 122.184 C 57.849 122.288,57.737 122.373,57.599 122.373 C 57.462 122.373,56.796 122.763,56.119 123.239 C 55.442 123.714,54.725 124.104,54.527 124.104 C 54.329 124.104,53.866 124.382,53.500 124.722 C 53.133 125.062,52.691 125.340,52.518 125.340 C 52.346 125.340,52.167 125.452,52.121 125.590 C 52.075 125.727,51.766 125.892,51.433 125.956 C 51.101 126.020,50.734 126.241,50.618 126.448 C 50.503 126.654,50.275 126.826,50.111 126.830 C 49.805 126.837,48.147 128.337,46.848 129.783 C 46.440 130.237,46.273 130.516,46.477 130.404 C 46.775 130.239,46.769 130.293,46.446 130.674 C 44.397 133.095,44.068 138.143,45.722 141.790 C 46.123 142.675,46.448 143.467,46.443 143.551 C 46.439 143.634,46.537 143.771,46.663 143.854 C 46.788 143.937,47.198 144.533,47.573 145.179 C 47.948 145.825,48.352 146.354,48.471 146.354 C 48.589 146.354,48.623 146.520,48.544 146.724 C 48.466 146.928,48.532 147.095,48.690 147.095 C 48.849 147.095,48.915 147.197,48.838 147.322 C 48.761 147.447,48.838 147.702,49.009 147.889 C 49.489 148.413,49.885 149.070,50.665 150.638 C 51.059 151.431,51.544 152.265,51.743 152.492 C 51.942 152.719,52.181 153.155,52.274 153.461 C 52.367 153.767,52.554 154.017,52.689 154.017 C 52.824 154.017,52.873 154.116,52.799 154.237 C 52.724 154.357,52.829 154.593,53.031 154.761 C 53.234 154.929,53.399 155.183,53.399 155.326 C 53.399 155.469,53.551 155.761,53.737 155.976 C 53.923 156.190,54.500 157.172,55.018 158.158 C 55.537 159.144,56.059 159.951,56.178 159.951 C 56.297 159.951,56.326 160.062,56.242 160.198 C 56.158 160.334,56.226 160.445,56.392 160.445 C 56.559 160.445,56.623 160.517,56.535 160.605 C 56.447 160.693,56.612 160.972,56.903 161.223 C 57.193 161.475,57.336 161.681,57.220 161.681 C 57.104 161.681,57.142 161.815,57.305 161.978 C 57.468 162.141,57.602 162.454,57.602 162.673 C 57.602 162.892,57.849 163.336,58.151 163.660 C 58.453 163.984,58.722 164.400,58.749 164.584 C 58.776 164.769,58.941 165.092,59.116 165.303 C 59.291 165.514,59.459 165.856,59.490 166.062 C 59.520 166.269,59.813 166.731,60.141 167.088 C 60.469 167.446,60.879 168.100,61.054 168.541 C 61.228 168.983,61.468 169.345,61.587 169.345 C 61.707 169.345,61.805 169.559,61.805 169.822 C 61.805 170.084,61.972 170.465,62.176 170.669 C 62.379 170.873,62.546 171.159,62.546 171.305 C 62.546 171.451,62.676 171.570,62.835 171.570 C 62.993 171.570,63.056 171.637,62.973 171.720 C 62.891 171.802,63.039 172.101,63.303 172.384 C 63.567 172.668,63.782 173.101,63.782 173.347 C 63.782 173.593,63.867 173.795,63.971 173.795 C 64.075 173.795,64.424 174.351,64.747 175.031 C 65.070 175.711,65.422 176.267,65.530 176.267 C 65.733 176.267,66.047 177.028,65.943 177.266 C 65.910 177.339,66.245 177.856,66.687 178.414 C 67.129 178.972,67.491 179.506,67.491 179.602 C 67.491 179.697,67.707 180.078,67.970 180.449 C 68.234 180.819,68.484 181.282,68.527 181.476 C 68.569 181.670,69.020 182.463,69.530 183.237 C 70.040 184.012,70.457 184.706,70.457 184.780 C 70.457 184.854,70.652 185.141,70.890 185.419 C 71.128 185.697,71.337 186.032,71.354 186.164 C 71.371 186.295,71.398 186.506,71.415 186.633 C 71.432 186.759,71.587 187.009,71.758 187.189 C 72.317 187.773,72.930 188.849,72.930 189.245 C 72.930 189.458,73.096 189.696,73.299 189.774 C 73.502 189.852,73.615 190.003,73.549 190.109 C 73.483 190.215,73.595 190.440,73.798 190.608 C 74.000 190.776,74.166 191.044,74.166 191.205 C 74.166 191.365,74.298 191.628,74.460 191.790 C 74.622 191.952,74.780 192.260,74.811 192.476 C 74.895 193.044,75.970 194.545,76.194 194.406 C 76.299 194.341,76.328 194.437,76.258 194.619 C 76.188 194.801,76.329 195.169,76.570 195.438 C 77.398 196.361,77.762 196.888,77.435 196.692 C 77.036 196.452,78.040 198.299,78.508 198.665 C 78.699 198.814,78.799 198.993,78.729 199.062 C 78.660 199.131,78.773 199.329,78.980 199.501 C 79.188 199.673,79.357 200.029,79.357 200.292 C 79.357 200.555,79.459 200.708,79.584 200.630 C 79.709 200.553,79.885 200.825,79.975 201.234 C 80.065 201.643,80.241 201.978,80.366 201.978 C 80.491 201.978,80.593 202.145,80.593 202.349 C 80.593 202.553,80.692 202.719,80.812 202.719 C 81.024 202.719,81.416 203.644,81.362 204.017 C 81.347 204.119,81.453 204.203,81.597 204.203 C 81.741 204.203,81.795 204.306,81.716 204.433 C 81.638 204.560,81.779 204.810,82.029 204.989 C 82.279 205.169,82.852 206.118,83.302 207.099 C 83.751 208.080,84.327 209.070,84.581 209.300 C 84.835 209.530,85.043 209.823,85.043 209.951 C 85.043 210.079,85.254 210.479,85.511 210.839 C 85.768 211.200,85.984 211.607,85.992 211.743 C 86.001 211.879,86.283 212.335,86.619 212.757 C 86.956 213.179,87.743 214.524,88.368 215.745 C 88.994 216.967,89.697 218.179,89.932 218.439 C 90.166 218.699,90.394 219.135,90.437 219.407 C 90.481 219.679,90.648 220.012,90.808 220.148 C 91.141 220.430,92.068 222.042,92.479 223.053 C 92.631 223.427,92.862 223.733,92.993 223.733 C 93.124 223.733,93.167 223.835,93.090 223.960 C 93.013 224.085,93.107 224.345,93.298 224.536 C 93.490 224.728,93.944 225.453,94.307 226.148 C 94.671 226.842,95.126 227.542,95.321 227.703 C 95.515 227.864,95.674 228.205,95.674 228.460 C 95.674 228.716,95.763 228.925,95.872 228.925 C 95.981 228.925,96.343 229.479,96.676 230.157 C 97.008 230.835,97.371 231.391,97.481 231.393 C 97.591 231.395,97.622 231.491,97.551 231.607 C 97.480 231.722,97.640 232.051,97.907 232.338 C 98.174 232.625,98.393 232.962,98.393 233.087 C 98.393 233.212,98.560 233.452,98.764 233.622 C 98.968 233.791,99.135 234.138,99.135 234.394 C 99.135 234.649,99.246 234.858,99.382 234.858 C 99.518 234.858,99.629 235.063,99.629 235.314 C 99.629 235.565,99.852 235.971,100.124 236.218 C 100.396 236.464,100.618 236.770,100.618 236.898 C 100.618 237.025,100.837 237.438,101.105 237.814 C 101.373 238.190,101.537 238.553,101.470 238.621 C 101.403 238.688,101.517 238.884,101.725 239.056 C 101.932 239.228,102.101 239.528,102.101 239.723 C 102.101 239.919,102.189 240.024,102.296 239.958 C 102.403 239.892,102.642 240.191,102.827 240.624 C 103.011 241.056,103.341 241.623,103.559 241.884 C 103.882 242.272,103.887 242.320,103.585 242.146 C 103.234 241.944,103.547 242.491,104.081 243.016 C 104.553 243.479,106.120 246.324,106.163 246.795 C 106.173 246.902,106.347 247.093,106.551 247.219 C 106.755 247.345,106.936 247.563,106.953 247.704 C 106.970 247.845,106.998 248.055,107.015 248.170 C 107.032 248.285,107.266 248.633,107.535 248.943 C 107.804 249.254,107.970 249.595,107.904 249.702 C 107.838 249.809,107.876 249.933,107.988 249.979 C 108.101 250.024,108.782 251.119,109.502 252.410 C 110.222 253.702,111.076 255.113,111.400 255.546 C 111.725 255.979,111.990 256.486,111.990 256.674 C 111.990 256.861,112.185 257.234,112.423 257.503 C 112.661 257.772,112.889 258.155,112.931 258.353 C 112.972 258.552,113.167 258.838,113.363 258.989 C 113.560 259.140,113.721 259.437,113.721 259.648 C 113.721 259.860,113.804 260.070,113.906 260.115 C 114.008 260.161,114.349 260.726,114.665 261.371 C 114.980 262.017,115.371 262.684,115.533 262.855 C 116.081 263.430,116.687 264.504,116.687 264.901 C 116.687 265.118,116.797 265.227,116.932 265.144 C 117.072 265.057,117.113 265.157,117.029 265.377 C 116.948 265.588,116.988 265.760,117.118 265.760 C 117.248 265.760,117.714 266.456,118.153 267.305 C 119.258 269.444,119.484 269.810,119.845 270.040 C 120.017 270.150,120.094 270.345,120.015 270.473 C 119.936 270.600,119.996 270.705,120.148 270.705 C 120.300 270.705,120.356 270.816,120.272 270.952 C 120.188 271.088,120.217 271.199,120.337 271.199 C 120.457 271.199,120.818 271.727,121.139 272.373 C 121.460 273.019,122.095 274.132,122.550 274.845 C 123.005 275.559,123.297 276.143,123.199 276.143 C 123.101 276.143,123.236 276.319,123.500 276.533 C 123.764 276.747,123.826 276.842,123.638 276.744 C 123.449 276.647,123.550 276.913,123.862 277.334 C 124.174 277.756,124.540 278.033,124.676 277.950 C 124.816 277.863,124.844 277.923,124.741 278.090 C 124.641 278.251,124.850 278.878,125.205 279.484 C 125.560 280.089,125.837 280.657,125.821 280.747 C 125.805 280.836,125.933 280.996,126.105 281.102 C 126.277 281.208,126.442 281.464,126.473 281.670 C 126.503 281.877,126.761 282.296,127.046 282.602 C 127.332 282.908,127.565 283.360,127.565 283.607 C 127.565 283.853,127.683 284.054,127.827 284.054 C 127.971 284.054,128.020 284.166,127.936 284.302 C 127.852 284.438,127.901 284.549,128.045 284.549 C 128.189 284.549,128.307 284.668,128.307 284.813 C 128.307 284.959,128.651 285.579,129.073 286.191 C 129.494 286.804,129.859 287.439,129.883 287.604 C 129.907 287.768,130.174 288.249,130.476 288.674 C 130.779 289.099,131.026 289.568,131.026 289.717 C 131.026 289.866,131.109 289.988,131.211 289.988 C 131.492 289.988,132.769 292.365,132.586 292.548 C 132.498 292.635,132.557 292.707,132.715 292.707 C 132.874 292.707,133.004 292.874,133.004 293.078 C 133.004 293.282,133.115 293.449,133.251 293.449 C 133.387 293.449,133.498 293.602,133.498 293.789 C 133.498 293.977,133.664 294.267,133.866 294.435 C 134.069 294.603,134.173 294.839,134.099 294.960 C 134.024 295.081,134.064 295.179,134.188 295.179 C 134.311 295.179,134.598 295.596,134.826 296.106 C 135.417 297.430,136.309 298.997,136.527 299.094 C 136.629 299.139,136.712 299.324,136.712 299.506 C 136.712 299.687,136.795 299.872,136.897 299.918 C 137.272 300.084,138.967 303.762,139.071 304.635 C 139.099 304.873,139.150 305.124,139.184 305.192 C 139.218 305.260,139.274 305.426,139.308 305.562 C 139.342 305.698,139.393 305.837,139.421 305.871 C 139.449 305.905,139.505 306.156,139.544 306.428 C 139.584 306.700,139.687 307.256,139.773 307.664 C 139.860 308.072,139.935 323.758,139.941 342.522 C 139.951 375.419,139.968 376.678,140.419 377.750 C 140.677 378.362,140.897 378.752,140.909 378.616 C 140.921 378.480,141.122 378.596,141.356 378.875 C 142.334 380.041,144.534 379.641,147.553 377.747 C 148.416 377.205,149.210 376.761,149.317 376.761 C 149.424 376.761,150.078 376.372,150.770 375.896 C 151.462 375.420,152.180 375.031,152.367 375.031 C 152.553 375.031,152.962 374.808,153.276 374.536 C 153.589 374.265,153.931 374.042,154.036 374.042 C 154.141 374.042,154.590 373.736,155.035 373.362 C 155.479 372.988,155.877 372.709,155.918 372.742 C 156.054 372.850,157.996 372.005,157.880 371.889 C 157.817 371.827,158.731 371.274,159.909 370.660 C 161.088 370.047,162.274 369.346,162.546 369.103 C 162.818 368.859,163.319 368.577,163.659 368.475 C 163.999 368.373,164.356 368.165,164.453 368.014 C 164.550 367.862,164.717 367.730,164.824 367.720 C 165.193 367.687,166.378 367.040,166.378 366.873 C 166.378 366.714,167.272 366.231,167.679 366.169 C 168.099 366.106,169.345 365.363,169.345 365.175 C 169.345 364.988,170.603 364.307,170.789 364.394 C 170.835 364.416,171.021 364.232,171.201 363.985 C 171.382 363.738,171.604 363.610,171.694 363.701 C 171.785 363.791,172.076 363.680,172.340 363.453 C 172.605 363.226,172.902 363.038,172.999 363.034 C 173.251 363.025,174.625 362.113,174.842 361.810 C 174.942 361.671,175.025 361.644,175.027 361.750 C 175.031 361.950,177.590 360.617,178.245 360.074 C 178.449 359.905,179.283 359.402,180.099 358.957 C 180.915 358.511,181.848 357.940,182.172 357.689 C 182.496 357.437,182.942 357.231,183.163 357.231 C 183.384 357.231,183.846 356.981,184.190 356.675 C 184.533 356.369,184.946 356.092,185.106 356.060 C 185.267 356.027,185.942 355.665,186.608 355.256 C 187.273 354.847,187.886 354.512,187.971 354.512 C 188.055 354.512,188.766 354.097,189.550 353.591 C 190.335 353.084,191.064 352.667,191.171 352.664 C 191.278 352.660,191.457 352.509,191.569 352.327 C 191.682 352.146,191.817 352.015,191.869 352.036 C 192.144 352.146,193.357 351.502,193.481 351.179 C 193.560 350.974,193.724 350.868,193.845 350.943 C 193.967 351.018,194.067 350.955,194.067 350.803 C 194.067 350.651,194.170 350.591,194.297 350.669 C 194.423 350.748,194.598 350.697,194.685 350.556 C 194.772 350.416,194.934 350.358,195.047 350.427 C 195.159 350.497,195.321 350.371,195.406 350.149 C 195.492 349.926,195.632 349.814,195.719 349.901 C 195.805 349.987,196.037 349.924,196.234 349.760 C 196.666 349.402,197.306 349.027,198.702 348.317 C 199.280 348.023,199.753 347.683,199.753 347.562 C 199.753 347.441,199.836 347.362,199.938 347.386 C 200.246 347.457,201.483 346.785,201.483 346.546 C 201.483 346.424,201.595 346.393,201.731 346.477 C 201.867 346.561,201.978 346.506,201.978 346.354 C 201.978 346.202,202.089 346.146,202.225 346.230 C 202.361 346.314,202.472 346.276,202.472 346.145 C 202.472 346.014,202.778 345.785,203.152 345.636 C 203.526 345.487,204.277 345.084,204.821 344.740 C 205.365 344.396,206.116 343.995,206.489 343.850 C 206.863 343.705,207.169 343.467,207.169 343.322 C 207.169 343.176,207.239 343.127,207.324 343.212 C 207.410 343.298,207.940 343.066,208.503 342.697 C 209.856 341.811,210.023 341.713,213.459 339.789 C 215.082 338.880,216.553 338.010,216.726 337.857 C 217.539 337.136,217.800 336.952,217.800 337.102 C 217.800 337.190,218.078 337.081,218.418 336.858 C 218.758 336.636,219.038 336.539,219.040 336.644 C 219.042 336.750,219.125 336.709,219.225 336.553 C 219.325 336.398,220.100 335.919,220.948 335.488 C 221.796 335.058,222.630 334.570,222.802 334.402 C 223.418 333.804,225.742 332.500,225.956 332.632 C 226.077 332.706,226.265 332.619,226.375 332.438 C 226.486 332.257,226.938 331.963,227.379 331.785 C 227.821 331.606,228.183 331.375,228.183 331.271 C 228.183 331.077,229.928 330.152,230.173 330.216 C 230.248 330.236,230.792 329.870,231.382 329.403 C 231.973 328.936,232.645 328.554,232.876 328.554 C 233.108 328.554,233.614 328.282,234.001 327.950 C 234.387 327.618,234.787 327.397,234.889 327.461 C 234.991 327.524,235.165 327.434,235.275 327.261 C 235.386 327.088,236.032 326.676,236.712 326.345 C 237.392 326.014,238.588 325.318,239.370 324.798 C 240.151 324.278,240.791 323.917,240.791 323.996 C 240.791 324.075,241.084 323.909,241.442 323.627 C 241.801 323.346,242.246 323.115,242.431 323.115 C 242.617 323.115,242.769 323.027,242.769 322.920 C 242.769 322.813,243.381 322.455,244.129 322.126 C 244.876 321.797,245.488 321.440,245.488 321.332 C 245.488 321.225,245.646 321.137,245.838 321.137 C 246.031 321.137,246.226 321.054,246.271 320.952 C 246.316 320.850,246.965 320.439,247.713 320.039 C 248.461 319.639,249.730 318.888,250.533 318.371 C 251.336 317.853,252.142 317.429,252.325 317.429 C 252.508 317.429,252.658 317.318,252.658 317.182 C 252.658 317.046,252.811 316.934,252.998 316.934 C 253.185 316.934,253.476 316.769,253.644 316.566 C 253.812 316.364,254.037 316.252,254.143 316.318 C 254.249 316.383,254.400 316.271,254.478 316.068 C 254.556 315.865,254.764 315.698,254.940 315.698 C 255.271 315.698,257.135 314.768,257.355 314.493 C 257.495 314.318,258.326 313.823,259.529 313.197 C 259.977 312.964,260.506 312.639,260.704 312.475 C 260.901 312.311,261.065 312.274,261.067 312.392 C 261.069 312.511,261.152 312.483,261.252 312.331 C 261.352 312.178,262.021 311.733,262.738 311.342 C 263.455 310.951,264.456 310.380,264.963 310.075 C 265.469 309.769,266.342 309.298,266.902 309.027 C 267.462 308.756,268.050 308.378,268.210 308.185 C 268.369 307.993,268.778 307.766,269.118 307.681 C 269.458 307.595,269.670 307.419,269.589 307.289 C 269.509 307.158,269.595 307.110,269.780 307.181 C 269.966 307.252,270.323 307.084,270.573 306.807 C 270.824 306.530,271.182 306.304,271.370 306.304 C 271.675 306.304,272.857 305.659,273.177 305.319 C 273.245 305.246,273.745 304.965,274.289 304.695 C 274.833 304.424,275.360 304.091,275.460 303.956 C 275.562 303.816,275.643 303.809,275.645 303.940 C 275.647 304.067,275.955 303.890,276.329 303.547 C 276.703 303.203,277.370 302.779,277.812 302.605 C 278.254 302.431,278.616 302.191,278.616 302.071 C 278.616 301.952,278.779 301.854,278.979 301.854 C 279.391 301.854,280.917 301.036,281.800 300.341 C 282.125 300.085,282.542 299.876,282.728 299.876 C 282.914 299.876,283.066 299.767,283.066 299.634 C 283.066 299.501,283.343 299.322,283.682 299.237 C 284.021 299.152,284.237 298.983,284.162 298.861 C 284.087 298.740,284.213 298.640,284.443 298.640 C 284.673 298.640,285.262 298.393,285.752 298.090 C 286.241 297.787,286.810 297.515,287.016 297.485 C 287.223 297.455,287.586 297.189,287.824 296.895 C 288.062 296.601,288.257 296.434,288.257 296.523 C 288.257 296.613,288.730 296.362,289.308 295.967 C 289.886 295.571,290.594 295.173,290.882 295.083 C 291.170 294.993,291.605 294.700,291.847 294.431 C 292.090 294.163,292.394 293.943,292.522 293.943 C 292.650 293.943,293.077 293.713,293.472 293.432 C 293.867 293.151,294.190 292.988,294.190 293.071 C 294.190 293.153,294.434 292.994,294.731 292.717 C 295.029 292.439,295.345 292.213,295.435 292.213 C 295.524 292.213,295.920 291.935,296.315 291.595 C 296.710 291.255,297.155 290.977,297.304 290.977 C 297.453 290.977,297.898 290.688,298.293 290.336 C 298.688 289.983,299.289 289.509,299.629 289.282 C 301.304 288.163,302.596 287.151,302.596 286.959 C 302.596 286.841,302.707 286.813,302.843 286.897 C 302.979 286.981,303.090 286.932,303.090 286.788 C 303.090 286.644,303.206 286.527,303.348 286.527 C 303.630 286.527,303.949 286.283,305.122 285.167 C 305.551 284.759,305.992 284.453,306.103 284.487 C 306.214 284.521,306.304 284.438,306.304 284.302 C 306.304 284.166,306.431 284.054,306.586 284.054 C 306.742 284.054,307.173 283.748,307.544 283.375 C 307.916 283.001,308.862 282.138,309.647 281.459 C 310.432 280.779,311.892 279.414,312.892 278.426 C 313.892 277.438,314.710 276.713,314.710 276.815 C 314.710 276.979,315.710 275.954,319.167 272.250 C 319.706 271.672,320.259 271.199,320.395 271.199 C 320.531 271.199,320.643 271.093,320.643 270.964 C 320.643 270.835,321.193 270.147,321.865 269.435 C 322.537 268.723,323.038 268.061,322.979 267.965 C 322.919 267.869,323.037 267.726,323.240 267.648 C 323.443 267.570,323.609 267.317,323.609 267.086 C 323.609 266.856,323.672 266.729,323.748 266.805 C 323.903 266.960,325.093 265.846,325.093 265.546 C 325.093 265.441,325.343 265.116,325.649 264.824 C 326.592 263.924,326.978 263.451,327.663 262.353 C 328.026 261.770,328.495 261.103,328.705 260.869 C 329.543 259.937,331.723 256.936,332.110 256.180 C 332.337 255.739,332.630 255.377,332.763 255.377 C 332.895 255.377,333.004 255.181,333.004 254.942 C 333.004 254.703,333.226 254.368,333.498 254.198 C 333.770 254.028,333.993 253.719,333.993 253.510 C 333.993 253.302,334.102 252.997,334.236 252.833 C 335.523 251.254,335.755 250.872,335.627 250.540 C 335.547 250.331,335.583 250.222,335.707 250.299 C 335.831 250.376,336.183 249.937,336.490 249.323 C 336.796 248.710,337.125 248.208,337.221 248.208 C 337.400 248.208,337.776 247.244,337.728 246.910 C 337.713 246.808,337.803 246.724,337.929 246.724 C 338.054 246.724,338.281 246.348,338.433 245.889 C 338.584 245.430,338.924 244.858,339.188 244.620 C 339.451 244.381,339.607 244.090,339.535 243.972 C 339.462 243.854,339.520 243.758,339.664 243.758 C 339.808 243.758,339.904 243.674,339.877 243.572 C 339.850 243.470,340.261 242.553,340.791 241.533 C 341.321 240.513,341.732 239.595,341.705 239.493 C 341.678 239.391,341.768 239.308,341.904 239.308 C 342.040 239.308,342.151 239.085,342.151 238.813 C 342.151 238.541,342.262 238.319,342.398 238.319 C 342.534 238.319,342.646 238.124,342.646 237.886 C 342.647 237.648,342.868 237.092,343.137 236.650 C 343.406 236.208,343.556 235.847,343.469 235.847 C 343.381 235.847,343.477 235.652,343.681 235.414 C 344.107 234.918,345.365 231.822,345.365 231.271 C 345.365 231.068,345.464 230.902,345.585 230.902 C 345.765 230.902,345.975 230.414,346.220 229.419 C 346.237 229.351,346.424 228.962,346.635 228.554 C 346.846 228.146,347.324 226.811,347.697 225.587 C 348.069 224.363,348.524 223.033,348.706 222.631 C 348.889 222.228,348.984 221.811,348.917 221.703 C 348.851 221.596,348.905 221.508,349.036 221.508 C 349.168 221.508,349.250 221.330,349.218 221.114 C 349.187 220.897,349.475 219.832,349.858 218.747 C 350.242 217.662,350.556 216.514,350.556 216.196 C 350.556 215.877,350.657 215.579,350.781 215.534 C 350.905 215.488,351.066 215.117,351.139 214.710 C 351.263 214.015,351.680 211.870,351.907 210.754 C 351.962 210.482,352.180 209.622,352.390 208.843 C 352.600 208.063,352.834 207.062,352.909 206.618 C 352.985 206.173,353.094 205.643,353.152 205.439 C 353.336 204.794,353.544 203.407,353.668 201.989 C 353.734 201.235,353.938 199.617,354.120 198.393 C 354.963 192.734,355.331 187.682,355.343 181.582 C 355.352 177.343,355.127 171.411,354.907 170.087 C 354.851 169.747,354.736 168.801,354.652 167.985 C 354.353 165.063,354.262 164.266,354.145 163.535 C 353.817 161.485,353.727 160.818,353.649 159.870 C 353.602 159.303,353.546 158.838,353.524 158.838 C 353.459 158.838,353.291 157.891,353.229 157.169 C 353.197 156.795,353.111 156.489,353.038 156.489 C 352.965 156.489,352.891 156.127,352.874 155.686 C 352.845 154.929,352.175 151.861,351.861 151.051 C 351.618 150.421,351.519 149.970,351.439 149.126 C 351.397 148.679,351.293 148.244,351.207 148.158 C 351.121 148.072,351.051 147.686,351.051 147.301 C 351.051 146.916,350.950 146.601,350.827 146.601 C 350.703 146.601,350.526 146.045,350.433 145.365 C 350.339 144.685,350.160 144.066,350.035 143.988 C 349.909 143.911,349.871 143.744,349.949 143.617 C 350.027 143.490,349.997 143.387,349.883 143.387 C 349.702 143.387,349.573 142.817,349.504 141.718 C 349.494 141.548,349.392 141.409,349.279 141.409 C 349.166 141.409,349.073 141.131,349.073 140.791 C 349.073 140.451,348.950 140.173,348.799 140.173 C 348.649 140.173,348.593 139.998,348.675 139.784 C 348.757 139.571,348.689 139.153,348.525 138.857 C 348.360 138.561,348.207 138.235,348.186 138.133 C 348.164 138.032,348.123 137.920,348.096 137.886 C 348.069 137.852,348.010 137.658,347.966 137.454 C 347.922 137.250,347.746 136.749,347.575 136.341 C 347.403 135.933,347.286 135.460,347.314 135.290 C 347.341 135.121,347.236 134.981,347.080 134.981 C 346.923 134.981,346.859 134.815,346.937 134.611 C 347.016 134.407,346.965 134.240,346.826 134.240 C 346.686 134.240,346.640 134.129,346.724 133.993 C 346.808 133.857,346.747 133.745,346.589 133.745 C 346.430 133.745,346.362 133.587,346.436 133.393 C 346.510 133.199,346.411 132.907,346.215 132.744 C 346.019 132.582,345.856 132.212,345.851 131.923 C 345.847 131.633,345.680 131.181,345.480 130.917 C 345.281 130.653,345.117 130.246,345.117 130.014 C 345.117 129.781,344.732 128.908,344.260 128.073 C 343.789 127.239,343.524 126.631,343.672 126.723 C 343.820 126.814,343.622 126.346,343.233 125.682 C 342.844 125.018,342.550 124.475,342.579 124.475 C 342.608 124.475,342.566 124.224,342.486 123.918 C 342.406 123.612,342.224 123.362,342.081 123.362 C 341.938 123.362,341.892 123.291,341.979 123.205 C 342.065 123.118,341.920 122.744,341.656 122.373 C 341.392 122.003,341.247 121.629,341.334 121.542 C 341.421 121.455,341.371 121.384,341.223 121.384 C 341.075 121.384,340.883 121.062,340.797 120.668 C 340.710 120.274,340.315 119.523,339.919 118.999 C 339.522 118.475,339.195 117.898,339.191 117.715 C 339.187 117.533,338.963 117.102,338.693 116.759 C 338.423 116.416,338.263 116.037,338.337 115.917 C 338.411 115.797,338.298 115.698,338.086 115.698 C 337.874 115.698,337.701 115.581,337.701 115.437 C 337.701 115.293,337.840 115.255,338.010 115.353 C 338.180 115.451,338.095 115.263,337.821 114.935 C 337.548 114.607,337.114 113.949,336.859 113.473 C 336.603 112.998,336.168 112.358,335.892 112.052 C 335.616 111.746,335.478 111.496,335.586 111.496 C 335.694 111.496,335.507 111.134,335.170 110.692 C 334.834 110.250,334.318 109.416,334.023 108.838 C 333.729 108.260,333.373 107.787,333.231 107.787 C 333.090 107.787,333.044 107.675,333.128 107.538 C 333.213 107.401,333.109 107.223,332.897 107.142 C 332.685 107.060,332.564 106.911,332.627 106.809 C 332.690 106.707,332.467 106.365,332.131 106.050 C 331.795 105.734,331.520 105.334,331.520 105.160 C 331.520 104.986,331.267 104.588,330.958 104.276 C 330.648 103.964,330.138 103.291,329.825 102.781 C 329.511 102.271,329.134 101.854,328.987 101.854 C 328.839 101.854,328.790 101.783,328.877 101.696 C 328.964 101.609,328.677 101.081,328.240 100.522 C 327.803 99.963,327.333 99.356,327.196 99.173 C 327.059 98.990,326.480 98.344,325.910 97.738 C 325.340 97.131,324.874 96.558,324.876 96.464 C 324.879 96.283,323.756 94.978,321.879 92.978 C 321.267 92.326,320.183 91.081,319.470 90.210 C 318.758 89.340,317.857 88.416,317.469 88.157 C 317.081 87.898,316.552 87.370,316.293 86.984 C 316.034 86.597,315.733 86.280,315.625 86.280 C 315.369 86.279,314.215 85.035,314.215 84.760 C 314.215 84.644,314.102 84.549,313.965 84.549 C 313.709 84.549,312.104 83.123,309.999 81.026 C 309.351 80.380,308.727 79.849,308.613 79.846 C 308.499 79.843,307.886 79.366,307.252 78.786 C 306.617 78.207,305.737 77.458,305.297 77.123 C 304.856 76.788,304.354 76.375,304.181 76.205 C 304.009 76.035,303.760 75.896,303.629 75.896 C 303.498 75.896,303.320 75.713,303.234 75.490 C 303.149 75.267,303.018 75.144,302.945 75.218 C 302.871 75.292,302.345 74.919,301.776 74.391 C 301.207 73.863,300.603 73.429,300.433 73.427 C 300.263 73.425,300.124 73.313,300.124 73.177 C 300.124 73.041,299.970 72.930,299.783 72.930 C 299.596 72.930,299.291 72.748,299.107 72.525 C 298.752 72.097,297.362 71.158,295.921 70.373 C 295.445 70.113,294.974 69.776,294.874 69.623 C 294.774 69.470,294.691 69.433,294.689 69.540 C 294.686 69.647,294.434 69.499,294.129 69.212 C 293.823 68.924,293.239 68.544,292.831 68.368 C 292.423 68.192,291.824 67.814,291.501 67.527 C 291.177 67.241,290.828 67.059,290.725 67.122 C 290.622 67.186,290.396 67.067,290.223 66.858 C 290.050 66.649,289.314 66.198,288.588 65.854 C 287.862 65.511,287.268 65.120,287.268 64.986 C 287.268 64.852,287.165 64.806,287.038 64.884 C 286.912 64.963,286.737 64.912,286.650 64.771 C 286.563 64.631,286.396 64.576,286.277 64.649 C 286.159 64.722,285.972 64.629,285.862 64.442 C 285.752 64.255,284.968 63.793,284.120 63.416 C 283.272 63.038,282.453 62.578,282.299 62.393 C 282.146 62.209,281.922 62.118,281.801 62.193 C 281.681 62.267,281.582 62.211,281.582 62.067 C 281.582 61.923,281.499 61.830,281.397 61.861 C 281.295 61.892,280.488 61.570,279.604 61.144 C 276.570 59.682,274.625 58.838,274.293 58.838 C 274.109 58.838,273.921 58.721,273.873 58.577 C 273.825 58.434,273.565 58.276,273.296 58.225 C 273.026 58.175,272.806 58.117,272.806 58.096 C 272.806 58.076,272.595 58.019,272.336 57.970 C 272.078 57.922,271.774 57.736,271.660 57.557 C 271.547 57.378,271.452 57.313,271.450 57.413 C 271.447 57.572,270.245 57.156,268.232 56.300 C 267.892 56.155,267.559 56.022,267.491 56.005 C 267.423 55.988,266.922 55.818,266.378 55.627 C 265.834 55.436,265.278 55.268,265.142 55.253 C 264.655 55.202,263.407 54.811,263.164 54.634 C 262.859 54.411,259.882 53.427,259.066 53.279 C 257.892 53.065,253.269 51.869,252.905 51.685 C 252.701 51.581,252.339 51.525,252.101 51.561 C 251.863 51.596,251.669 51.535,251.669 51.426 C 251.669 51.316,251.418 51.226,251.112 51.225 C 250.620 51.223,249.567 51.022,249.567 50.930 C 249.567 50.911,249.234 50.858,248.826 50.812 C 247.934 50.711,246.623 50.485,245.612 50.257 C 245.204 50.165,244.703 50.077,244.499 50.062 C 244.295 50.046,243.792 49.953,243.381 49.855 C 242.574 49.662,241.184 49.460,239.802 49.335 C 239.326 49.292,238.937 49.227,238.937 49.191 C 238.937 49.156,238.492 49.096,237.948 49.058 C 237.404 49.021,236.931 48.968,236.897 48.939 C 236.697 48.771,236.168 48.832,235.861 49.058 C 235.585 49.261,235.551 49.243,235.711 48.978 C 235.873 48.708,235.755 48.659,235.153 48.748 C 234.733 48.809,234.432 48.792,234.483 48.708 C 234.535 48.624,233.945 48.541,233.172 48.523 C 221.539 48.253,215.672 48.179,215.556 48.301 M226.107 137.208 C 227.317 137.357,229.141 137.656,230.161 137.872 C 231.180 138.088,232.237 138.295,232.509 138.333 C 232.781 138.371,233.032 138.424,233.066 138.453 C 233.142 138.516,233.302 138.561,234.240 138.779 C 235.851 139.153,237.710 139.796,237.882 140.040 C 237.982 140.181,238.066 140.211,238.068 140.106 C 238.070 140.000,238.331 140.084,238.648 140.292 C 238.964 140.499,239.298 140.595,239.389 140.504 C 239.480 140.412,239.555 140.474,239.555 140.641 C 239.555 140.808,239.666 140.875,239.802 140.791 C 239.938 140.707,240.049 140.744,240.049 140.873 C 240.049 141.001,240.439 141.180,240.915 141.269 C 241.391 141.359,241.780 141.544,241.780 141.682 C 241.780 141.820,241.891 141.864,242.027 141.780 C 242.163 141.696,242.274 141.736,242.274 141.870 C 242.274 142.003,242.664 142.241,243.140 142.398 C 243.616 142.555,244.005 142.778,244.005 142.892 C 244.005 143.007,244.374 143.223,244.825 143.372 C 245.650 143.644,246.237 144.028,247.402 145.056 C 247.749 145.362,248.178 145.612,248.356 145.612 C 248.533 145.612,249.231 146.140,249.907 146.786 C 250.583 147.432,252.138 148.906,253.363 150.062 C 254.589 151.218,255.599 152.252,255.608 152.360 C 255.617 152.469,255.902 152.815,256.242 153.130 C 256.582 153.445,256.860 153.818,256.860 153.957 C 256.860 154.097,257.034 154.278,257.247 154.360 C 257.459 154.442,257.571 154.609,257.495 154.731 C 257.420 154.854,257.524 155.018,257.727 155.096 C 257.930 155.174,258.096 155.408,258.096 155.616 C 258.096 155.825,258.180 155.999,258.282 156.003 C 258.528 156.013,259.368 157.178,259.430 157.594 C 259.456 157.775,259.627 158.102,259.809 158.321 C 260.324 158.943,261.650 161.340,261.941 162.176 C 262.252 163.070,262.697 163.906,262.862 163.906 C 262.977 163.906,263.001 164.017,262.917 164.153 C 262.833 164.289,262.882 164.400,263.026 164.400 C 263.170 164.400,263.288 164.616,263.288 164.880 C 263.288 165.144,263.401 165.430,263.539 165.515 C 263.677 165.601,263.734 165.762,263.666 165.873 C 263.597 165.984,263.695 166.203,263.883 166.359 C 264.072 166.516,264.169 166.863,264.099 167.130 C 264.029 167.398,264.100 167.772,264.256 167.960 C 264.413 168.149,264.520 168.399,264.494 168.515 C 264.467 168.632,264.516 168.894,264.602 169.098 C 264.688 169.302,264.877 169.969,265.022 170.581 C 265.379 172.092,265.467 172.425,265.525 172.497 C 265.734 172.757,266.073 175.898,266.135 178.160 C 266.169 179.405,266.272 180.545,266.364 180.694 C 266.456 180.843,266.447 181.101,266.344 181.267 C 266.241 181.434,266.140 182.574,266.120 183.801 C 266.092 185.583,265.912 187.491,265.642 188.875 C 265.404 190.101,264.403 193.763,264.255 193.953 C 264.145 194.095,263.992 194.595,263.915 195.066 C 263.760 196.005,263.710 196.136,262.534 198.631 C 262.087 199.577,261.722 200.495,261.722 200.670 C 261.722 200.846,261.643 200.989,261.546 200.989 C 261.449 200.989,261.227 201.350,261.053 201.792 C 260.879 202.234,260.541 202.818,260.303 203.090 C 260.065 203.362,259.832 203.807,259.787 204.079 C 259.741 204.351,259.592 204.700,259.456 204.855 C 258.763 205.644,258.344 206.201,258.344 206.333 C 258.344 206.414,258.093 206.788,257.787 207.164 C 257.481 207.541,257.009 208.160,256.737 208.541 C 256.465 208.922,256.060 209.409,255.836 209.623 C 255.613 209.837,255.014 210.513,254.506 211.125 C 253.998 211.737,253.534 212.203,253.475 212.162 C 253.416 212.120,252.976 212.533,252.497 213.079 C 252.018 213.625,251.419 214.137,251.166 214.218 C 250.912 214.298,250.637 214.579,250.554 214.841 C 250.471 215.103,250.324 215.292,250.227 215.261 C 250.131 215.230,249.722 215.510,249.318 215.884 C 248.914 216.258,248.467 216.564,248.323 216.564 C 248.180 216.564,247.679 216.925,247.208 217.367 C 246.738 217.809,245.886 218.380,245.315 218.635 C 244.744 218.891,244.049 219.312,243.770 219.572 C 243.491 219.832,243.263 219.980,243.263 219.902 C 243.263 219.824,242.848 220.042,242.341 220.387 C 241.833 220.731,241.285 221.014,241.122 221.014 C 240.960 221.014,240.679 221.153,240.500 221.323 C 240.111 221.690,237.607 223.239,237.401 223.239 C 237.322 223.239,236.661 223.635,235.932 224.118 C 235.203 224.602,234.357 225.046,234.052 225.104 C 233.748 225.163,233.387 225.356,233.251 225.534 C 233.115 225.712,232.642 226.005,232.200 226.185 C 231.758 226.365,231.397 226.592,231.397 226.690 C 231.397 226.896,230.127 227.549,229.852 227.484 C 229.750 227.461,229.666 227.571,229.666 227.730 C 229.666 227.888,229.596 227.948,229.510 227.862 C 229.424 227.776,228.960 228.031,228.479 228.427 C 227.998 228.824,227.512 229.092,227.399 229.022 C 227.286 228.952,227.194 229.013,227.194 229.157 C 227.194 229.301,226.980 229.419,226.717 229.419 C 226.455 229.419,226.074 229.586,225.870 229.790 C 225.666 229.994,225.407 230.161,225.295 230.161 C 225.183 230.161,224.548 230.547,223.883 231.019 C 223.219 231.492,222.580 231.819,222.463 231.746 C 222.346 231.674,222.250 231.733,222.250 231.877 C 222.250 232.021,222.111 232.142,221.941 232.147 C 221.771 232.151,221.187 232.482,220.643 232.882 C 220.099 233.281,218.971 233.948,218.135 234.362 C 217.300 234.777,216.346 235.329,216.014 235.590 C 215.683 235.850,215.115 236.138,214.752 236.229 C 214.389 236.320,214.091 236.497,214.091 236.621 C 214.091 236.746,213.840 236.943,213.533 237.060 C 213.226 237.177,212.419 237.600,211.739 238.001 C 209.895 239.088,208.169 239.443,206.922 238.992 C 206.582 238.869,206.026 238.719,205.686 238.659 C 205.346 238.600,204.815 238.249,204.506 237.879 C 204.197 237.509,203.835 237.234,203.702 237.268 C 203.570 237.302,203.461 237.169,203.461 236.971 C 203.461 236.774,203.309 236.524,203.124 236.415 C 202.688 236.160,201.951 234.720,202.152 234.518 C 202.238 234.433,202.171 234.363,202.004 234.363 C 201.838 234.363,201.770 234.252,201.854 234.116 C 201.938 233.980,201.889 233.869,201.745 233.869 C 201.601 233.869,201.483 233.723,201.483 233.545 C 201.483 233.366,201.289 232.999,201.051 232.729 C 200.629 232.249,200.218 231.594,199.788 230.717 C 199.129 229.371,198.619 228.504,198.257 228.114 C 198.033 227.873,197.717 227.233,197.555 226.693 C 197.393 226.153,197.154 225.711,197.023 225.711 C 196.893 225.711,196.786 225.582,196.786 225.425 C 196.786 225.268,196.531 224.795,196.220 224.374 C 195.909 223.954,195.447 223.137,195.194 222.559 C 194.941 221.981,194.639 221.508,194.524 221.508 C 194.408 221.508,194.314 221.347,194.314 221.149 C 194.314 220.952,194.167 220.702,193.986 220.593 C 193.713 220.428,193.338 219.793,193.214 219.283 C 193.181 219.146,192.640 218.193,192.162 217.429 C 191.992 217.157,191.612 216.434,191.319 215.822 C 191.025 215.210,190.494 214.320,190.139 213.844 C 189.784 213.368,189.277 212.534,189.013 211.990 C 188.749 211.446,188.276 210.647,187.962 210.214 C 187.648 209.781,187.392 209.354,187.392 209.264 C 187.392 209.173,187.162 208.777,186.881 208.382 C 186.599 207.987,186.440 207.664,186.527 207.664 C 186.613 207.664,186.454 207.341,186.173 206.946 C 185.891 206.551,185.661 206.150,185.661 206.054 C 185.661 205.959,185.300 205.424,184.858 204.866 C 184.416 204.307,184.192 203.936,184.361 204.040 C 184.570 204.169,184.620 204.107,184.520 203.845 C 184.439 203.634,184.296 203.461,184.204 203.461 C 184.111 203.461,183.715 202.849,183.324 202.101 C 182.933 201.354,182.533 200.742,182.435 200.742 C 182.272 200.742,182.025 200.154,181.820 199.277 C 181.774 199.083,181.563 198.827,181.351 198.708 C 181.138 198.589,180.964 198.331,180.964 198.134 C 180.964 197.936,180.846 197.775,180.702 197.775 C 180.558 197.775,180.502 197.676,180.576 197.556 C 180.651 197.435,180.547 197.200,180.346 197.033 C 180.145 196.867,180.031 196.648,180.093 196.548 C 180.155 196.448,179.982 196.127,179.710 195.835 C 179.437 195.542,179.288 195.303,179.377 195.303 C 179.466 195.303,179.254 194.929,178.905 194.471 C 178.557 194.014,178.200 193.358,178.114 193.012 C 178.027 192.667,177.743 192.156,177.482 191.877 C 177.222 191.597,177.009 191.252,177.009 191.110 C 177.009 190.969,176.897 190.853,176.761 190.853 C 176.625 190.853,176.514 190.711,176.514 190.537 C 176.514 190.363,176.322 189.947,176.087 189.612 C 175.852 189.276,175.637 188.846,175.609 188.654 C 175.581 188.463,175.430 188.227,175.273 188.131 C 175.117 188.034,175.019 187.911,175.056 187.859 C 175.140 187.739,174.254 186.334,173.965 186.128 C 173.848 186.045,173.766 185.904,173.781 185.815 C 173.815 185.628,172.712 183.664,171.965 182.579 C 171.687 182.175,171.437 181.693,171.410 181.507 C 171.363 181.187,170.138 179.253,169.814 178.986 C 169.731 178.918,169.528 178.446,169.362 177.936 C 169.195 177.426,168.938 177.009,168.790 177.009 C 168.642 177.009,168.586 176.943,168.666 176.863 C 168.746 176.783,168.334 175.976,167.750 175.071 C 166.528 173.176,164.325 169.151,164.210 168.603 C 164.048 167.830,164.073 166.714,164.275 165.760 C 164.390 165.216,164.468 164.698,164.449 164.607 C 164.430 164.517,164.911 163.905,165.517 163.248 C 166.124 162.590,166.621 162.155,166.623 162.280 C 166.624 162.406,166.880 162.270,167.190 161.978 C 167.501 161.686,168.475 161.091,169.354 160.656 C 170.233 160.220,171.007 159.794,171.075 159.709 C 171.334 159.384,173.053 158.436,173.053 158.618 C 173.053 158.723,173.216 158.593,173.416 158.329 C 173.616 158.065,173.783 157.952,173.787 158.078 C 173.791 158.203,174.073 158.045,174.413 157.726 C 174.753 157.406,175.033 157.248,175.035 157.373 C 175.037 157.499,175.120 157.476,175.220 157.321 C 175.422 157.008,177.750 155.660,177.750 155.856 C 177.750 155.924,178.128 155.724,178.591 155.410 C 179.053 155.096,179.776 154.697,180.198 154.522 C 180.619 154.347,180.964 154.100,180.964 153.973 C 180.964 153.845,181.075 153.810,181.211 153.894 C 181.347 153.978,181.459 153.929,181.459 153.785 C 181.459 153.641,181.632 153.523,181.844 153.523 C 182.072 153.523,182.158 153.407,182.053 153.237 C 181.956 153.080,181.977 153.011,182.100 153.083 C 182.223 153.155,182.880 152.891,183.560 152.497 C 184.240 152.103,185.102 151.647,185.476 151.485 C 185.850 151.322,186.156 151.103,186.156 150.996 C 186.156 150.890,186.256 150.803,186.378 150.803 C 186.500 150.803,187.179 150.414,187.886 149.938 C 188.593 149.462,189.328 149.073,189.518 149.073 C 189.708 149.073,189.864 148.943,189.864 148.785 C 189.864 148.626,189.935 148.567,190.022 148.654 C 190.108 148.740,190.487 148.592,190.863 148.324 C 191.239 148.056,191.633 147.837,191.737 147.837 C 191.841 147.837,192.105 147.676,192.322 147.479 C 192.540 147.282,193.606 146.658,194.690 146.093 C 195.775 145.528,196.829 144.926,197.033 144.755 C 197.237 144.584,198.350 143.943,199.506 143.330 C 203.108 141.420,203.335 141.290,203.420 141.099 C 203.466 140.996,203.606 140.975,203.731 141.053 C 203.857 141.130,204.133 141.019,204.346 140.807 C 204.559 140.594,204.891 140.420,205.086 140.420 C 205.731 140.420,205.808 140.388,206.007 140.032 C 206.116 139.838,206.511 139.679,206.885 139.679 C 207.259 139.679,207.698 139.545,207.862 139.382 C 208.025 139.219,208.158 139.157,208.158 139.246 C 208.158 139.334,208.560 139.238,209.050 139.033 C 209.541 138.828,209.996 138.714,210.061 138.780 C 210.127 138.846,210.591 138.755,211.092 138.578 C 214.695 137.306,221.715 136.666,226.107 137.208 M108.912 427.991 C 107.514 428.369,105.516 430.475,105.926 431.138 C 106.002 431.261,105.952 431.432,105.814 431.518 C 105.648 431.620,105.562 436.446,105.562 445.641 C 105.562 455.069,105.480 459.558,105.310 459.453 C 105.172 459.367,104.365 459.258,103.518 459.209 C 102.671 459.160,101.978 459.108,101.978 459.093 C 101.978 459.078,101.422 459.028,100.742 458.981 C 100.062 458.934,98.115 458.800,96.415 458.682 C 94.716 458.564,90.488 458.467,87.021 458.467 C 81.331 458.467,79.389 458.561,76.267 458.985 C 75.723 459.059,75.111 459.121,74.907 459.123 C 74.703 459.125,74.370 459.192,74.166 459.271 C 73.962 459.350,73.461 459.439,73.053 459.468 C 72.307 459.523,70.333 460.081,68.727 460.692 C 67.255 461.252,66.877 461.390,66.749 461.416 C 66.681 461.430,66.469 461.540,66.278 461.661 C 66.046 461.808,65.986 461.791,66.098 461.610 C 66.190 461.462,65.413 461.778,64.372 462.314 C 63.330 462.850,62.370 463.288,62.239 463.288 C 62.017 463.288,61.019 464.003,60.019 464.880 C 59.784 465.085,59.302 465.326,58.948 465.415 C 58.594 465.504,58.245 465.729,58.174 465.914 C 58.103 466.100,57.962 466.201,57.861 466.138 C 57.759 466.075,57.532 466.295,57.355 466.625 C 57.178 466.956,56.957 467.179,56.864 467.122 C 56.673 467.004,54.883 468.622,54.882 468.912 C 54.881 469.014,54.543 469.320,54.129 469.592 C 53.716 469.864,53.050 470.615,52.649 471.261 C 52.248 471.907,51.816 472.435,51.688 472.435 C 51.560 472.435,51.378 472.685,51.283 472.991 C 51.189 473.297,50.792 474.026,50.402 474.611 C 50.011 475.195,49.691 475.717,49.691 475.771 C 49.691 475.824,49.444 476.286,49.142 476.798 C 48.840 477.310,48.559 477.951,48.518 478.223 C 48.476 478.495,48.306 478.804,48.140 478.910 C 47.973 479.016,47.927 479.104,48.036 479.106 C 48.146 479.108,48.047 479.472,47.816 479.913 C 47.014 481.447,46.956 481.604,47.101 481.839 C 47.182 481.970,47.130 482.077,46.986 482.077 C 46.842 482.077,46.724 482.348,46.724 482.680 C 46.724 483.012,46.606 483.357,46.461 483.446 C 46.316 483.536,46.217 483.904,46.240 484.264 C 46.263 484.625,46.262 484.975,46.237 485.043 C 46.116 485.377,45.964 486.009,45.763 487.021 C 45.642 487.633,45.415 488.745,45.259 489.493 C 45.102 490.241,44.994 491.187,45.019 491.595 C 45.043 492.002,44.967 492.559,44.850 492.831 C 44.586 493.446,44.554 510.451,44.812 512.979 C 44.916 513.999,45.053 515.334,45.116 515.946 C 45.178 516.557,45.346 517.559,45.489 518.171 C 45.931 520.070,46.022 520.485,46.254 521.632 C 46.463 522.671,46.621 523.316,46.735 523.609 C 46.761 523.677,46.769 523.819,46.752 523.924 C 46.734 524.030,46.939 524.544,47.206 525.068 C 47.473 525.592,47.623 526.090,47.538 526.175 C 47.453 526.259,47.513 526.329,47.672 526.329 C 47.831 526.329,47.960 526.529,47.960 526.774 C 47.960 527.019,48.065 527.324,48.193 527.454 C 48.321 527.583,48.482 528.006,48.552 528.394 C 48.622 528.782,48.877 529.394,49.120 529.754 C 49.726 530.651,50.134 531.327,50.337 531.768 C 50.431 531.972,50.675 532.333,50.879 532.571 C 51.084 532.809,51.168 533.004,51.066 533.004 C 50.964 533.004,51.364 533.588,51.955 534.302 C 52.545 535.015,53.140 535.752,53.276 535.938 C 53.860 536.738,57.363 540.173,57.595 540.173 C 57.735 540.173,58.048 540.368,58.290 540.606 C 59.478 541.772,62.481 543.634,63.173 543.634 C 63.372 543.634,63.535 543.745,63.535 543.881 C 63.535 544.017,63.680 544.129,63.857 544.129 C 64.033 544.129,64.310 544.261,64.472 544.423 C 64.634 544.585,64.907 544.745,65.078 544.779 C 65.249 544.813,66.070 545.124,66.902 545.470 C 67.733 545.816,68.623 546.132,68.879 546.172 C 69.135 546.212,69.484 546.331,69.654 546.437 C 69.824 546.543,69.965 546.540,69.967 546.430 C 69.969 546.320,70.052 546.358,70.152 546.514 C 70.252 546.671,70.723 546.862,71.199 546.939 C 71.675 547.017,72.621 547.194,73.300 547.333 C 75.110 547.703,78.434 548.278,78.863 548.295 C 79.067 548.302,80.179 548.384,81.335 548.475 C 83.325 548.632,88.754 548.686,93.511 548.595 C 95.003 548.567,95.675 548.462,95.677 548.257 C 95.680 548.044,95.739 548.051,95.884 548.280 C 96.019 548.493,96.369 548.550,96.931 548.450 C 97.395 548.368,98.665 548.259,99.753 548.207 C 102.481 548.079,105.517 547.863,106.551 547.723 C 109.815 547.283,111.809 547.059,112.810 547.018 C 113.447 546.993,113.967 546.914,113.968 546.844 C 113.968 546.773,114.496 546.699,115.142 546.677 C 119.678 546.530,123.617 544.948,124.368 542.971 C 124.519 542.575,124.604 521.783,124.600 486.509 L 124.594 430.674 123.837 429.552 C 123.421 428.935,122.921 428.430,122.727 428.430 C 122.532 428.430,122.373 428.337,122.373 428.224 C 122.373 427.772,110.484 427.566,108.912 427.991 M150.002 427.831 C 149.924 427.909,149.711 428.003,149.528 428.041 C 146.840 428.589,146.393 429.894,146.362 437.276 C 146.323 446.825,146.475 446.982,155.819 447.014 C 165.480 447.048,165.885 446.667,165.882 437.523 C 165.880 428.013,165.553 427.689,155.976 427.689 C 152.769 427.689,150.080 427.752,150.002 427.831 M316.875 457.740 C 316.840 457.773,314.753 457.870,312.237 457.956 C 306.970 458.135,305.671 458.222,302.101 458.630 C 300.674 458.794,298.949 458.950,298.269 458.977 C 297.590 459.005,296.978 459.053,296.910 459.085 C 296.790 459.142,296.376 459.197,294.350 459.424 C 287.443 460.201,286.693 460.984,286.712 467.398 C 286.733 474.185,287.672 474.743,297.528 473.834 C 298.072 473.784,298.517 473.725,298.517 473.704 C 298.517 473.682,299.629 473.601,300.989 473.522 C 302.349 473.444,304.073 473.340,304.821 473.291 C 308.297 473.061,323.890 472.954,324.420 473.156 C 324.745 473.279,325.446 473.449,325.979 473.534 C 327.900 473.838,330.532 474.637,330.532 474.917 C 330.532 475.004,330.824 475.208,331.182 475.371 C 332.364 475.910,334.895 478.837,335.149 479.958 C 335.182 480.104,335.447 480.890,335.739 481.706 C 336.289 483.243,336.349 483.795,336.605 489.684 L 336.759 493.211 327.279 493.169 C 317.242 493.123,315.313 493.213,310.052 493.967 C 308.239 494.227,306.673 494.389,306.573 494.327 C 306.473 494.265,305.732 494.378,304.926 494.578 C 304.120 494.778,303.183 494.999,302.843 495.068 C 301.147 495.413,295.082 497.458,294.438 497.902 C 294.098 498.137,293.541 498.411,293.201 498.512 C 292.397 498.752,291.085 499.552,290.295 500.284 C 289.950 500.604,289.569 500.865,289.447 500.865 C 289.189 500.865,288.862 501.131,287.513 502.439 C 286.970 502.965,286.527 503.500,286.527 503.628 C 286.527 503.756,286.423 503.797,286.297 503.719 C 286.171 503.641,286.001 503.789,285.918 504.048 C 285.836 504.307,285.494 504.815,285.158 505.177 C 284.491 505.898,283.676 507.307,283.756 507.602 C 283.784 507.704,283.703 507.787,283.577 507.787 C 283.450 507.787,283.270 508.028,283.176 508.322 C 283.083 508.616,282.829 509.256,282.611 509.744 C 282.394 510.231,282.207 510.742,282.197 510.878 C 282.186 511.014,282.038 511.377,281.868 511.686 C 281.698 511.995,281.622 512.349,281.698 512.473 C 281.775 512.596,281.723 512.769,281.582 512.855 C 281.442 512.942,281.382 513.102,281.449 513.211 C 281.516 513.320,281.424 514.397,281.243 515.604 C 280.922 517.751,280.880 524.173,281.173 526.205 C 281.251 526.749,281.377 527.789,281.453 528.516 C 281.529 529.244,281.689 530.022,281.809 530.247 C 281.930 530.471,282.031 530.711,282.035 530.779 C 282.039 530.847,282.161 531.216,282.306 531.598 C 282.452 531.981,282.571 532.399,282.571 532.526 C 282.571 532.654,282.794 533.173,283.066 533.681 C 283.337 534.188,283.560 534.803,283.560 535.047 C 283.560 535.292,283.717 535.552,283.908 535.625 C 284.100 535.699,284.395 536.112,284.565 536.544 C 284.735 536.976,285.212 537.692,285.625 538.133 C 286.038 538.575,286.276 538.937,286.153 538.937 C 286.031 538.937,286.408 539.382,286.991 539.926 C 287.574 540.470,288.160 540.915,288.292 540.915 C 288.425 540.915,288.474 541.011,288.401 541.129 C 288.261 541.355,289.185 542.312,289.457 542.222 C 289.545 542.193,289.841 542.360,290.114 542.593 C 290.950 543.304,292.819 544.488,293.016 544.430 C 293.118 544.400,293.201 544.487,293.201 544.623 C 293.201 544.759,293.470 544.870,293.799 544.870 C 294.128 544.870,294.433 544.959,294.479 545.067 C 294.590 545.333,296.714 546.308,297.485 546.448 C 297.825 546.510,298.330 546.682,298.609 546.831 C 298.887 546.980,299.203 547.078,299.310 547.049 C 299.418 547.019,300.340 547.180,301.360 547.405 C 304.096 548.009,305.905 548.286,308.282 548.462 C 311.702 548.717,313.473 548.771,313.473 548.623 C 313.473 548.530,314.419 548.455,315.575 548.455 C 316.731 548.455,317.676 548.520,317.676 548.599 C 317.676 548.763,321.505 548.703,327.070 548.451 C 329.178 548.355,331.153 548.288,331.459 548.301 C 331.765 548.315,332.015 548.244,332.016 548.143 C 332.016 548.043,332.656 547.961,333.437 547.962 C 334.853 547.964,337.429 547.745,339.308 547.463 C 341.098 547.194,341.762 547.117,343.387 546.985 C 344.271 546.913,345.272 546.807,345.612 546.749 C 347.369 546.449,348.487 546.281,348.764 546.276 C 348.934 546.273,349.073 546.206,349.073 546.127 C 349.073 546.048,349.379 545.970,349.753 545.955 C 350.127 545.939,350.683 545.856,350.989 545.769 C 351.295 545.683,351.766 545.563,352.035 545.503 C 352.958 545.299,354.689 543.906,355.033 543.090 C 355.320 542.409,355.377 537.632,355.377 514.215 C 355.377 484.623,355.311 482.135,354.455 479.604 C 354.294 479.129,354.149 478.684,354.132 478.616 C 353.868 477.517,353.680 476.475,353.720 476.329 C 353.748 476.227,353.687 476.143,353.585 476.143 C 353.483 476.143,353.383 475.859,353.363 475.511 C 353.343 475.163,353.163 474.690,352.963 474.460 C 352.764 474.230,352.530 473.744,352.443 473.379 C 352.357 473.015,352.119 472.550,351.916 472.346 C 351.712 472.143,351.545 471.853,351.545 471.702 C 351.545 471.322,350.807 470.193,350.132 469.542 C 349.821 469.243,349.567 468.908,349.567 468.799 C 349.567 468.518,346.722 465.514,346.453 465.510 C 346.330 465.508,345.757 465.068,345.179 464.531 C 344.601 463.994,344.129 463.609,344.129 463.674 C 344.129 463.813,342.830 463.011,342.643 462.757 C 342.574 462.663,342.354 462.549,342.154 462.504 C 341.955 462.459,341.641 462.283,341.457 462.111 C 341.273 461.940,341.019 461.864,340.893 461.942 C 340.767 462.020,340.597 461.909,340.516 461.697 C 340.434 461.484,340.160 461.310,339.907 461.310 C 339.653 461.310,338.838 461.032,338.095 460.692 C 337.352 460.352,336.521 460.074,336.248 460.074 C 335.975 460.074,335.682 459.961,335.597 459.823 C 335.512 459.685,335.333 459.639,335.201 459.721 C 335.068 459.802,334.826 459.763,334.662 459.633 C 334.019 459.125,328.376 458.174,324.722 457.960 C 321.826 457.789,316.967 457.653,316.875 457.740 M149.131 461.101 C 148.551 461.384,147.833 461.965,147.536 462.390 C 147.239 462.816,146.879 463.244,146.736 463.341 C 146.272 463.657,146.257 544.794,146.721 545.728 C 147.232 546.756,147.714 547.342,148.050 547.342 C 148.204 547.342,148.331 547.444,148.331 547.569 C 148.331 547.900,150.471 548.664,150.918 548.493 C 151.127 548.412,151.298 548.455,151.298 548.586 C 151.298 548.718,151.416 548.826,151.560 548.826 C 151.704 548.826,151.742 548.697,151.645 548.540 C 151.547 548.381,151.576 548.321,151.711 548.405 C 151.845 548.487,154.193 548.574,156.930 548.597 C 162.996 548.649,164.245 548.206,165.467 545.572 C 166.132 544.136,166.105 464.391,165.438 463.503 C 165.197 463.181,164.867 462.611,164.705 462.237 C 164.543 461.863,164.242 461.557,164.035 461.557 C 163.828 461.557,163.659 461.446,163.659 461.310 C 163.659 461.174,163.575 461.083,163.473 461.107 C 163.371 461.131,162.843 461.025,162.299 460.872 C 160.357 460.325,150.362 460.499,149.131 461.101 M188.169 461.215 C 187.456 461.571,186.921 461.910,186.980 461.970 C 187.040 462.029,186.946 462.550,186.773 463.127 C 186.508 464.005,186.516 464.336,186.819 465.154 C 187.018 465.691,187.191 466.270,187.204 466.440 C 187.217 466.610,187.314 466.749,187.420 466.749 C 187.526 466.749,188.034 467.383,188.548 468.159 C 189.063 468.934,189.794 469.908,190.172 470.322 C 191.605 471.892,191.852 472.184,191.902 472.369 C 191.970 472.624,192.608 473.405,193.140 473.885 C 193.378 474.100,193.572 474.418,193.572 474.591 C 193.572 474.765,193.684 474.907,193.820 474.907 C 193.956 474.907,194.067 475.015,194.067 475.146 C 194.067 475.278,194.428 475.757,194.870 476.211 C 195.312 476.665,195.703 477.175,195.740 477.344 C 195.776 477.513,196.193 478.039,196.667 478.513 C 197.140 478.986,197.528 479.470,197.528 479.587 C 197.528 479.798,198.400 480.904,199.408 481.971 C 199.694 482.274,199.999 482.707,200.086 482.933 C 200.176 483.166,200.368 483.267,200.531 483.167 C 200.714 483.053,200.751 483.097,200.634 483.288 C 200.528 483.459,200.650 483.765,200.922 484.006 C 201.181 484.236,201.466 484.620,201.555 484.858 C 201.643 485.096,201.830 485.290,201.970 485.290 C 202.110 485.290,202.225 485.414,202.225 485.564 C 202.225 485.714,202.504 486.057,202.845 486.325 C 203.187 486.594,203.411 486.902,203.344 487.010 C 203.278 487.118,203.499 487.413,203.837 487.667 C 204.174 487.920,204.450 488.246,204.450 488.392 C 204.450 488.845,205.736 490.233,206.003 490.068 C 206.143 489.982,206.185 490.027,206.097 490.169 C 206.009 490.312,206.298 490.796,206.739 491.247 C 207.180 491.698,207.318 491.905,207.046 491.707 C 206.753 491.493,206.853 491.709,207.293 492.238 C 207.701 492.727,208.118 493.082,208.220 493.026 C 208.322 492.971,208.405 493.087,208.405 493.284 C 208.405 493.481,208.572 493.707,208.776 493.785 C 208.980 493.864,209.147 494.098,209.147 494.306 C 209.147 494.514,209.258 494.685,209.394 494.685 C 209.530 494.685,209.642 494.852,209.642 495.056 C 209.642 495.260,209.751 495.426,209.886 495.426 C 210.020 495.426,210.410 495.844,210.753 496.354 C 211.096 496.863,212.094 498.171,212.972 499.258 C 213.849 500.346,214.925 501.737,215.363 502.349 C 215.802 502.960,216.251 503.523,216.362 503.599 C 216.473 503.676,216.342 503.977,216.070 504.269 C 215.797 504.561,215.575 504.860,215.575 504.934 C 215.575 505.008,215.380 505.274,215.142 505.525 C 214.388 506.323,213.844 507.046,213.998 507.046 C 214.081 507.046,213.746 507.460,213.254 507.966 C 212.763 508.472,212.361 509.028,212.361 509.202 C 212.361 509.376,212.217 509.518,212.041 509.518 C 211.865 509.518,211.393 510.064,210.991 510.730 C 210.589 511.397,210.193 511.902,210.112 511.851 C 210.030 511.801,209.816 512.034,209.637 512.369 C 209.458 512.705,209.230 512.979,209.132 512.979 C 209.034 512.979,208.883 513.262,208.796 513.607 C 208.709 513.953,208.530 514.169,208.398 514.087 C 208.266 514.005,208.158 514.056,208.158 514.200 C 208.158 514.344,207.936 514.713,207.664 515.019 C 206.656 516.152,206.428 516.444,206.428 516.596 C 206.428 516.682,206.188 516.961,205.895 517.215 C 205.603 517.468,205.436 517.676,205.525 517.676 C 205.613 517.676,205.491 517.895,205.253 518.162 C 205.015 518.430,204.592 518.904,204.312 519.217 C 204.033 519.530,203.522 520.201,203.178 520.708 C 202.834 521.214,202.478 521.555,202.388 521.466 C 202.299 521.376,202.225 521.467,202.225 521.668 C 202.225 521.869,201.895 522.350,201.492 522.736 C 201.089 523.122,200.819 523.535,200.892 523.653 C 200.966 523.772,200.883 523.838,200.709 523.801 C 200.536 523.764,200.388 523.858,200.382 524.010 C 200.371 524.290,199.050 525.978,198.161 526.848 C 197.897 527.106,197.758 527.318,197.852 527.318 C 197.946 527.318,197.828 527.526,197.590 527.780 C 196.163 529.304,195.797 529.788,195.797 530.153 C 195.797 530.377,195.686 530.492,195.550 530.408 C 195.414 530.324,195.302 530.345,195.302 530.455 C 195.301 530.565,194.915 531.075,194.443 531.588 C 193.972 532.102,193.579 532.602,193.570 532.701 C 193.561 532.799,193.200 533.269,192.767 533.745 C 191.928 534.667,191.522 535.260,191.117 536.156 C 190.978 536.462,190.703 536.712,190.505 536.712 C 190.307 536.712,190.081 536.907,190.002 537.145 C 189.924 537.383,189.416 538.069,188.873 538.670 C 187.963 539.678,187.783 539.996,187.854 540.473 C 187.869 540.570,187.716 540.587,187.516 540.510 C 187.274 540.417,187.062 540.607,186.886 541.075 C 186.740 541.463,186.367 542.002,186.056 542.274 C 183.959 544.112,184.644 548.162,187.108 548.493 C 188.799 548.720,200.078 548.591,200.851 548.336 C 201.841 548.009,203.130 546.840,203.921 545.550 C 204.234 545.040,204.611 544.623,204.759 544.623 C 204.906 544.623,204.956 544.553,204.870 544.467 C 204.784 544.381,204.988 544.094,205.324 543.831 C 205.659 543.567,205.933 543.234,205.933 543.090 C 205.933 542.946,206.295 542.418,206.737 541.916 C 208.341 540.093,208.768 539.552,208.721 539.399 C 208.694 539.314,209.109 538.785,209.642 538.225 C 210.175 537.665,210.551 537.206,210.478 537.206 C 210.406 537.206,210.799 536.734,211.353 536.156 C 211.906 535.578,212.423 534.910,212.500 534.672 C 212.578 534.434,212.752 534.240,212.887 534.240 C 213.021 534.240,213.065 534.132,212.984 534.001 C 212.903 533.869,213.063 533.620,213.340 533.447 C 213.617 533.274,213.844 533.042,213.844 532.933 C 213.844 532.824,214.095 532.466,214.400 532.137 C 214.706 531.809,215.290 531.084,215.698 530.526 C 216.106 529.967,216.690 529.275,216.996 528.988 C 217.302 528.700,217.553 528.342,217.553 528.193 C 217.553 528.044,217.970 527.492,218.480 526.967 C 218.989 526.442,219.407 525.925,219.407 525.819 C 219.407 525.613,222.415 521.845,223.548 520.633 C 223.922 520.233,224.227 519.794,224.227 519.658 C 224.227 519.522,224.578 519.076,225.006 518.667 C 225.434 518.258,225.684 517.920,225.562 517.916 C 225.440 517.912,225.541 517.791,225.786 517.649 C 226.032 517.506,226.349 517.092,226.491 516.729 C 226.730 516.120,226.772 516.104,227.034 516.518 C 227.190 516.764,227.679 517.376,228.121 517.877 C 228.563 518.379,228.928 518.900,228.933 519.036 C 228.937 519.172,229.382 519.725,229.922 520.265 C 230.461 520.806,230.902 521.373,230.902 521.525 C 230.902 521.678,231.264 522.182,231.706 522.645 C 232.148 523.108,232.837 523.931,233.238 524.475 C 233.639 525.019,234.166 525.642,234.408 525.859 C 234.650 526.077,234.777 526.328,234.689 526.416 C 234.600 526.504,234.658 526.576,234.817 526.576 C 234.975 526.576,235.105 526.716,235.105 526.887 C 235.105 527.059,235.338 527.344,235.624 527.523 C 235.909 527.701,236.089 527.899,236.025 527.964 C 235.960 528.029,236.199 528.389,236.557 528.765 C 237.644 529.908,238.072 530.519,238.072 530.928 C 238.072 531.143,238.293 531.377,238.563 531.448 C 238.834 531.519,239.003 531.660,238.940 531.763 C 238.877 531.865,239.045 532.148,239.314 532.391 C 239.582 532.634,239.802 532.929,239.802 533.046 C 239.802 533.163,240.304 533.775,240.917 534.406 C 241.531 535.037,241.985 535.601,241.927 535.659 C 241.869 535.717,242.007 535.963,242.233 536.207 C 242.460 536.450,242.923 537.019,243.263 537.471 C 243.603 537.923,244.132 538.565,244.438 538.898 C 244.744 539.231,244.994 539.629,244.994 539.783 C 244.994 539.937,245.300 540.339,245.674 540.676 C 246.607 541.517,247.243 542.334,246.724 542.025 C 246.401 541.833,247.060 542.619,248.517 544.164 C 248.755 544.417,248.949 544.714,248.949 544.826 C 248.949 544.937,249.293 545.410,249.714 545.876 C 250.135 546.343,250.608 546.891,250.767 547.095 C 251.297 547.776,252.089 548.345,252.686 548.473 C 253.382 548.622,266.894 548.621,267.614 548.472 C 267.886 548.415,268.193 548.361,268.296 548.350 C 269.158 548.263,270.012 546.802,270.114 545.237 C 270.195 544.008,270.148 543.643,269.927 543.780 C 269.727 543.904,269.682 543.832,269.787 543.558 C 269.879 543.318,269.770 543.023,269.520 542.834 C 269.288 542.658,268.986 542.339,268.850 542.126 C 267.837 540.536,265.904 538.230,265.694 538.360 C 265.548 538.450,265.510 538.400,265.606 538.245 C 265.780 537.963,265.404 537.399,264.208 536.144 C 263.830 535.748,263.352 535.098,263.147 534.700 C 262.941 534.302,262.666 534.042,262.536 534.123 C 262.406 534.203,262.298 534.123,262.297 533.945 C 262.296 533.767,261.899 533.205,261.416 532.695 C 260.933 532.185,260.617 531.768,260.714 531.768 C 260.812 531.768,260.652 531.560,260.359 531.306 C 260.066 531.052,259.827 530.718,259.827 530.564 C 259.827 530.410,259.716 530.284,259.580 530.284 C 259.444 530.284,259.333 530.141,259.333 529.966 C 259.333 529.791,258.776 529.100,258.096 528.430 C 257.417 527.761,256.860 527.067,256.860 526.889 C 256.860 526.711,256.415 526.082,255.871 525.492 C 255.328 524.902,254.883 524.286,254.883 524.123 C 254.883 523.961,254.771 523.896,254.635 523.980 C 254.499 524.064,254.388 523.969,254.388 523.768 C 254.388 523.568,254.305 523.366,254.203 523.321 C 254.101 523.276,253.517 522.627,252.905 521.879 C 252.293 521.131,251.708 520.482,251.605 520.436 C 251.503 520.391,251.478 520.257,251.551 520.140 C 251.623 520.022,251.457 519.805,251.181 519.658 C 250.905 519.510,250.680 519.277,250.680 519.140 C 250.680 518.841,250.410 518.496,248.411 516.243 C 248.048 515.832,247.816 515.431,247.896 515.350 C 247.977 515.270,247.913 515.204,247.754 515.204 C 247.596 515.204,247.466 515.019,247.466 514.792 C 247.466 514.565,247.396 514.450,247.310 514.536 C 247.142 514.704,245.942 513.154,245.661 512.407 C 245.568 512.161,245.380 512.028,245.243 512.113 C 245.106 512.197,244.994 512.094,244.994 511.883 C 244.994 511.672,244.771 511.361,244.499 511.191 C 244.227 511.021,244.005 510.746,244.005 510.579 C 244.005 510.413,243.645 509.911,243.205 509.465 C 242.765 509.018,242.403 508.572,242.401 508.474 C 242.397 508.251,240.861 506.410,240.111 505.731 C 239.805 505.453,239.555 505.079,239.555 504.900 C 239.555 504.720,239.425 504.574,239.267 504.574 C 239.108 504.574,239.041 504.511,239.117 504.435 C 239.193 504.359,238.990 504.031,238.666 503.707 C 238.010 503.051,238.072 502.544,238.910 501.702 C 239.197 501.414,239.598 500.928,239.802 500.623 C 240.497 499.583,242.976 496.492,243.684 495.783 C 243.848 495.619,243.915 495.419,243.834 495.338 C 243.753 495.257,243.870 495.121,244.093 495.035 C 244.317 494.949,244.499 494.789,244.499 494.680 C 244.499 494.570,244.861 494.092,245.303 493.618 C 245.745 493.144,246.434 492.300,246.834 491.743 C 247.234 491.185,247.651 490.729,247.761 490.729 C 247.871 490.729,247.960 490.613,247.960 490.472 C 247.960 490.177,248.335 489.688,249.135 488.937 C 249.441 488.650,249.691 488.280,249.691 488.115 C 249.691 487.950,249.858 487.752,250.062 487.673 C 250.266 487.595,250.433 487.387,250.433 487.212 C 250.433 487.036,250.655 486.754,250.927 486.584 C 251.199 486.414,251.422 486.134,251.422 485.961 C 251.422 485.789,251.616 485.475,251.854 485.264 C 252.092 485.052,252.621 484.445,253.028 483.913 C 253.436 483.381,254.020 482.689,254.326 482.376 C 254.632 482.063,254.883 481.745,254.883 481.669 C 254.883 481.593,255.383 480.974,255.995 480.294 C 256.607 479.613,257.108 478.964,257.108 478.851 C 257.108 478.738,257.436 478.286,257.838 477.847 C 258.239 477.407,258.516 476.964,258.453 476.861 C 258.389 476.759,258.489 476.639,258.674 476.595 C 258.992 476.519,261.310 473.833,261.310 473.541 C 261.310 473.385,261.681 472.905,262.458 472.056 C 262.750 471.737,262.926 471.414,262.850 471.338 C 262.774 471.261,262.897 471.199,263.123 471.199 C 263.350 471.199,263.535 471.093,263.535 470.963 C 263.535 470.833,263.813 470.317,264.153 469.816 C 264.493 469.315,264.771 468.985,264.771 469.082 C 264.771 469.180,265.049 468.929,265.389 468.525 C 265.729 468.121,266.007 467.694,266.007 467.576 C 266.007 467.458,266.270 467.079,266.591 466.732 C 268.327 464.861,268.031 462.095,265.983 461.051 C 265.117 460.609,264.495 460.569,258.535 460.569 C 250.569 460.569,250.278 460.673,247.662 464.475 C 246.806 465.718,246.507 466.107,245.353 467.468 C 244.659 468.287,244.312 468.763,243.242 470.364 C 243.027 470.687,242.787 470.887,242.709 470.809 C 242.631 470.731,242.493 470.898,242.404 471.180 C 242.314 471.463,242.137 471.693,242.011 471.693 C 241.884 471.693,241.780 471.855,241.780 472.052 C 241.780 472.249,241.585 472.524,241.347 472.663 C 241.109 472.801,241.004 472.918,241.112 472.922 C 241.221 472.926,240.914 473.337,240.431 473.834 C 239.947 474.332,239.598 474.786,239.655 474.843 C 239.748 474.936,239.236 475.579,238.010 476.910 C 237.772 477.168,237.577 477.480,237.577 477.602 C 237.577 477.724,237.188 478.214,236.712 478.690 C 236.236 479.166,235.847 479.665,235.847 479.800 C 235.847 479.936,235.680 480.110,235.476 480.188 C 235.272 480.267,235.105 480.473,235.104 480.647 C 235.103 480.822,234.742 481.349,234.300 481.820 C 233.859 482.291,233.498 482.744,233.498 482.827 C 233.498 482.910,233.303 483.172,233.066 483.410 C 232.828 483.648,232.630 483.918,232.626 484.010 C 232.623 484.103,232.178 484.660,231.637 485.250 C 231.097 485.839,230.655 486.407,230.655 486.512 C 230.655 486.616,230.375 487.004,230.033 487.373 C 229.691 487.742,229.474 488.146,229.551 488.271 C 229.629 488.396,229.519 488.432,229.308 488.351 C 229.077 488.263,228.925 488.338,228.925 488.542 C 228.925 489.418,227.362 490.535,227.099 489.848 C 227.017 489.636,226.847 489.526,226.721 489.603 C 226.596 489.681,226.422 489.425,226.337 489.035 C 226.251 488.645,225.936 488.105,225.637 487.837 C 224.775 487.063,223.981 486.056,223.970 485.721 C 223.964 485.552,223.630 485.141,223.228 484.808 C 222.826 484.474,222.497 484.057,222.497 483.881 C 222.497 483.704,222.386 483.560,222.250 483.560 C 222.114 483.560,222.002 483.387,222.002 483.175 C 222.002 482.963,221.891 482.858,221.755 482.942 C 221.619 483.026,221.508 482.888,221.508 482.636 C 221.508 482.383,221.122 481.792,220.651 481.323 C 220.179 480.854,219.790 480.357,219.785 480.220 C 219.781 480.083,219.551 479.829,219.273 479.656 C 218.996 479.483,218.836 479.233,218.917 479.102 C 218.999 478.970,218.919 478.863,218.740 478.863 C 218.561 478.863,218.267 478.528,218.085 478.118 C 217.904 477.709,217.321 476.908,216.790 476.338 C 216.258 475.768,215.760 475.102,215.683 474.857 C 215.605 474.613,215.438 474.413,215.311 474.413 C 215.184 474.413,215.080 474.259,215.080 474.071 C 215.080 473.883,214.651 473.299,214.126 472.773 C 213.602 472.247,213.099 471.585,213.010 471.300 C 212.920 471.016,212.576 470.639,212.245 470.461 C 211.914 470.284,211.663 470.072,211.688 469.989 C 211.774 469.705,210.467 467.737,210.302 467.902 C 210.210 467.993,210.136 467.907,210.136 467.711 C 210.136 467.514,209.818 467.006,209.430 466.581 C 209.041 466.155,208.656 465.630,208.572 465.413 C 208.489 465.196,208.306 465.019,208.166 465.019 C 208.026 465.019,207.911 464.870,207.911 464.689 C 207.911 464.508,207.503 463.951,207.005 463.453 C 206.506 462.954,206.192 462.546,206.306 462.546 C 206.691 462.546,205.357 461.310,204.963 461.302 C 204.749 461.298,204.358 461.131,204.094 460.932 C 203.698 460.632,202.377 460.569,196.540 460.569 L 189.467 460.569 188.169 461.215 M93.394 474.739 C 93.492 474.793,94.518 474.858,95.674 474.883 C 98.277 474.941,100.163 475.060,101.609 475.260 C 102.220 475.344,103.220 475.447,103.832 475.489 L 104.944 475.565 105.007 504.766 L 105.070 533.966 103.153 533.976 C 102.099 533.981,100.290 534.032,99.135 534.089 C 87.345 534.671,81.483 534.666,80.524 534.073 C 80.378 533.983,80.345 534.037,80.446 534.202 C 80.543 534.359,80.505 534.487,80.361 534.487 C 80.217 534.487,80.099 534.398,80.099 534.290 C 80.099 534.182,79.793 534.105,79.419 534.119 C 79.045 534.133,78.628 534.065,78.492 533.969 C 78.356 533.873,77.744 533.663,77.132 533.503 C 76.520 533.343,75.324 532.833,74.473 532.370 C 73.622 531.907,72.868 531.530,72.798 531.532 C 72.187 531.553,69.019 528.481,68.356 527.225 C 68.084 526.710,67.761 526.224,67.638 526.147 C 67.512 526.067,67.502 526.146,67.614 526.329 C 67.748 526.545,67.718 526.593,67.525 526.474 C 67.366 526.375,67.295 526.199,67.367 526.082 C 67.440 525.964,67.384 525.798,67.244 525.711 C 67.103 525.624,67.052 525.449,67.130 525.323 C 67.209 525.196,67.155 525.093,67.011 525.093 C 66.867 525.093,66.749 524.870,66.749 524.598 C 66.749 524.326,66.619 524.104,66.461 524.104 C 66.302 524.104,66.242 524.034,66.327 523.949 C 66.412 523.864,66.317 523.474,66.115 523.084 C 65.913 522.693,65.828 522.373,65.927 522.373 C 66.026 522.373,65.981 522.248,65.829 522.096 C 65.676 521.943,65.615 521.654,65.692 521.453 C 65.769 521.252,65.706 521.010,65.553 520.915 C 65.399 520.820,65.244 520.330,65.208 519.828 C 65.172 519.325,65.052 518.913,64.942 518.913 C 64.832 518.912,64.799 518.820,64.868 518.708 C 64.938 518.595,64.829 517.399,64.626 516.050 C 63.772 510.370,64.232 491.761,65.285 489.370 C 65.519 488.838,65.726 487.904,65.914 486.534 C 65.978 486.062,66.165 485.591,66.328 485.487 C 66.492 485.383,66.514 485.295,66.378 485.290 C 66.215 485.285,66.216 485.221,66.381 485.101 C 66.518 485.001,66.852 484.475,67.122 483.932 C 67.826 482.519,69.229 480.470,69.492 480.470 C 69.615 480.470,69.688 480.407,69.654 480.331 C 69.620 480.255,70.037 479.810,70.581 479.343 C 71.125 478.875,71.652 478.381,71.751 478.245 C 71.851 478.109,71.935 478.089,71.937 478.201 C 71.939 478.312,72.104 478.257,72.303 478.077 C 72.502 477.897,72.808 477.639,72.983 477.503 C 73.474 477.120,76.101 475.885,76.320 475.934 C 76.547 475.985,77.890 475.642,78.234 475.445 C 78.363 475.371,78.753 475.274,79.099 475.230 C 79.445 475.186,80.604 475.009,81.674 474.838 C 83.439 474.554,92.917 474.474,93.394 474.739 M335.911 520.581 C 335.971 532.994,335.950 533.747,335.540 533.773 C 335.301 533.788,334.215 533.834,333.127 533.876 C 331.049 533.955,329.966 534.102,329.547 534.361 C 329.409 534.446,329.295 534.426,329.295 534.316 C 329.295 534.206,329.017 534.100,328.677 534.081 C 328.337 534.061,328.059 534.117,328.059 534.204 C 328.059 534.292,326.974 534.383,325.648 534.408 C 321.709 534.480,311.639 534.520,311.372 534.464 C 311.236 534.435,311.014 534.393,310.878 534.371 C 310.742 534.349,310.297 534.252,309.889 534.157 C 309.481 534.061,308.702 533.935,308.158 533.877 C 307.281 533.782,306.510 533.460,304.419 532.310 C 304.096 532.133,303.832 531.876,303.832 531.740 C 303.832 531.603,303.721 531.560,303.585 531.644 C 303.449 531.728,303.337 531.674,303.337 531.525 C 303.337 531.375,303.198 531.086,303.028 530.883 C 302.858 530.680,302.608 530.379,302.472 530.214 C 301.897 529.515,301.119 527.834,301.007 527.050 C 300.941 526.585,300.813 525.871,300.723 525.464 C 300.254 523.344,300.652 516.526,301.318 515.282 C 301.450 515.035,301.573 514.722,301.592 514.586 C 301.610 514.450,301.819 514.116,302.055 513.844 C 302.292 513.572,302.494 513.251,302.505 513.130 C 302.536 512.785,304.115 511.248,304.438 511.248 C 304.597 511.248,304.993 511.001,305.317 510.700 C 305.641 510.398,306.023 510.130,306.167 510.104 C 306.310 510.079,306.845 509.879,307.355 509.661 C 307.865 509.443,308.282 509.335,308.282 509.421 C 308.282 509.508,308.431 509.455,308.614 509.303 C 308.796 509.152,309.019 509.101,309.108 509.190 C 309.198 509.280,309.271 509.211,309.271 509.038 C 309.271 508.863,309.432 508.785,309.634 508.863 C 309.833 508.939,310.054 508.909,310.125 508.794 C 310.195 508.680,310.894 508.513,311.678 508.424 C 312.461 508.334,313.679 508.148,314.383 508.010 C 316.448 507.606,321.013 507.417,328.677 507.417 L 335.847 507.417 335.911 520.581 " stroke="none" fill="#5c44e4" fill-rule="evenodd"/><path id="path1" d="M205.874 49.124 C 206.182 49.183,206.627 49.181,206.863 49.119 C 207.100 49.057,206.848 49.009,206.304 49.012 C 205.760 49.014,205.567 49.065,205.874 49.124 M282.324 62.410 C 282.324 62.478,282.658 62.706,283.066 62.917 C 283.473 63.128,283.807 63.245,283.807 63.177 C 283.807 63.109,283.473 62.881,283.066 62.670 C 282.658 62.459,282.324 62.342,282.324 62.410 M310.762 81.768 C 310.766 81.870,311.072 82.167,311.442 82.428 L 312.114 82.902 311.514 82.242 C 310.885 81.549,310.749 81.463,310.762 81.768 M111.990 90.999 C 111.580 91.334,111.538 91.418,111.867 91.249 C 112.673 90.832,113.120 90.490,112.855 90.491 C 112.719 90.492,112.330 90.721,111.990 90.999 M188.566 149.462 C 187.642 149.963,187.698 150.172,188.628 149.691 C 189.036 149.480,189.370 149.255,189.370 149.190 C 189.370 149.031,189.343 149.040,188.566 149.462 M266.065 178.492 C 266.065 178.968,266.116 179.163,266.178 178.925 C 266.240 178.687,266.240 178.297,266.178 178.059 C 266.116 177.821,266.065 178.016,266.065 178.492 M124.720 486.156 C 124.720 516.069,124.748 528.270,124.784 513.268 C 124.819 498.267,124.819 473.792,124.784 458.880 C 124.748 443.968,124.720 456.242,124.720 486.156 M153.598 447.156 C 154.930 447.201,157.044 447.200,158.295 447.156 C 159.545 447.111,158.455 447.074,155.871 447.075 C 153.288 447.075,152.265 447.111,153.598 447.156 M100.433 459.008 C 100.671 459.071,101.060 459.071,101.298 459.008 C 101.536 458.946,101.341 458.895,100.865 458.895 C 100.389 458.895,100.195 458.946,100.433 459.008 M286.619 467.367 C 286.620 468.863,286.660 469.443,286.710 468.656 C 286.759 467.869,286.758 466.645,286.709 465.937 C 286.659 465.228,286.618 465.871,286.619 467.367 M336.465 491.096 L 336.465 492.945 330.717 493.016 L 324.969 493.087 330.841 493.144 L 336.712 493.201 336.712 491.224 C 336.712 490.136,336.656 489.246,336.588 489.246 C 336.520 489.246,336.465 490.078,336.465 491.096 M335.838 520.643 C 335.838 527.917,335.870 530.893,335.908 527.256 C 335.947 523.619,335.947 517.667,335.908 514.030 C 335.870 510.392,335.838 513.368,335.838 520.643 M151.761 548.646 C 151.866 548.752,153.891 548.807,156.261 548.769 L 160.569 548.701 156.069 548.578 C 153.594 548.510,151.655 548.541,151.761 548.646 M313.473 548.640 C 313.473 548.742,314.419 548.826,315.575 548.826 C 316.731 548.826,317.676 548.742,317.676 548.640 C 317.676 548.538,316.731 548.455,315.575 548.455 C 314.419 548.455,313.473 548.538,313.473 548.640 M191.175 548.763 C 192.644 548.807,194.981 548.807,196.367 548.763 C 197.753 548.719,196.551 548.683,193.696 548.683 C 190.841 548.683,189.706 548.719,191.175 548.763 M257.431 548.763 C 259.172 548.806,261.954 548.806,263.611 548.763 C 265.269 548.720,263.844 548.686,260.445 548.686 C 257.046 548.686,255.689 548.721,257.431 548.763 " stroke="none" fill="#5c44dc" fill-rule="evenodd"/><path id="path2" d="M327.393 507.478 C 328.999 507.521,331.557 507.521,333.079 507.477 C 334.601 507.434,333.288 507.399,330.161 507.399 C 327.033 507.399,325.788 507.435,327.393 507.478 " stroke="none" fill="#6044e4" fill-rule="evenodd"/><path id="path3" d="M327.393 507.478 C 328.999 507.521,331.557 507.521,333.079 507.477 C 334.601 507.434,333.288 507.399,330.161 507.399 C 327.033 507.399,325.788 507.435,327.393 507.478 " stroke="none" fill="#6044e4" fill-rule="evenodd"/><path id="path4" d="M327.393 507.478 C 328.999 507.521,331.557 507.521,333.079 507.477 C 334.601 507.434,333.288 507.399,330.161 507.399 C 327.033 507.399,325.788 507.435,327.393 507.478 " stroke="none" fill="#6044e4" fill-rule="evenodd"/></g></svg>