<svg width="160" height="50" xmlns="http://www.w3.org/2000/svg" xmlns:svg="http://www.w3.org/2000/svg">
 <g>
  <title>Layer 1</title>
  <g stroke="null" id="svg_1">
   <path stroke="null" id="svg_2" d="m39.61386,31.60553l0,-13.27951l3.69636,0c0.82141,0 1.57437,0.1369 2.25889,0.41071c0.68451,0.2738 1.30057,0.68451 1.77973,1.23212c0.47916,0.54761 0.88986,1.16367 1.16367,1.91663c0.2738,0.75296 0.41071,1.57437 0.41071,2.46424l0,1.23212c0,0.88986 -0.1369,1.71128 -0.41071,2.46424c-0.2738,0.75296 -0.68451,1.36902 -1.16367,1.91663c-0.47916,0.54761 -1.09522,0.95832 -1.77973,1.23212c-0.68451,0.2738 -1.50592,0.41071 -2.32734,0.41071l-3.62791,0l0,0l0,0l0,0zm1.16367,-12.32119l0,11.36288l2.53269,0c0.68451,0 1.30057,-0.1369 1.91663,-0.41071c0.54761,-0.2738 1.02677,-0.61606 1.43747,-1.02677c0.41071,-0.41071 0.68451,-1.02677 0.95832,-1.64283c0.20535,-0.61606 0.34226,-1.30057 0.34226,-2.05353l0,-1.23212c0,-0.75296 -0.1369,-1.43747 -0.34226,-2.12198c-0.20535,-0.61606 -0.54761,-1.16367 -0.95832,-1.57437c-0.41071,-0.41071 -0.88986,-0.75296 -1.43747,-1.02677c-0.54761,-0.2738 -1.16367,-0.41071 -1.84818,-0.41071l-2.60114,0.1369l0,0l0,0l0,0zm9.5147,7.25581c0,-0.68451 0.06845,-1.36902 0.34226,-1.98508c0.20535,-0.61606 0.47916,-1.09522 0.88986,-1.57437c0.41071,-0.41071 0.82141,-0.75296 1.36902,-1.02677c0.54761,-0.2738 1.16367,-0.41071 1.77973,-0.41071c0.68451,0 1.30057,0.1369 1.84818,0.41071c0.54761,0.2738 1.02677,0.61606 1.36902,1.02677c0.41071,0.41071 0.68451,0.95832 0.88986,1.57437c0.20535,0.61606 0.34226,1.30057 0.34226,1.98508l0,0.34226c0,0.68451 -0.06845,1.36902 -0.34226,1.98508c-0.20535,0.61606 -0.47916,1.09522 -0.88986,1.57437c-0.41071,0.41071 -0.82141,0.75296 -1.36902,1.02677c-0.54761,0.2738 -1.16367,0.41071 -1.77973,0.41071c-0.61606,0 -1.30057,-0.1369 -1.77973,-0.41071c-0.54761,-0.2738 -1.02677,-0.61606 -1.36902,-1.02677c-0.41071,-0.41071 -0.68451,-0.95832 -0.88986,-1.57437c-0.20535,-0.61606 -0.34226,-1.30057 -0.34226,-1.98508l-0.06845,-0.34226l0,0zm1.09522,0.2738c0,0.54761 0.06845,1.02677 0.20535,1.57437c0.1369,0.47916 0.41071,0.88986 0.68451,1.30057c0.2738,0.41071 0.61606,0.68451 1.02677,0.88986c0.41071,0.20535 0.88986,0.34226 1.43747,0.34226c0.54761,0 1.02677,-0.1369 1.43747,-0.34226c0.41071,-0.20535 0.75296,-0.47916 1.02677,-0.88986c0.2738,-0.41071 0.47916,-0.82141 0.68451,-1.30057c0.1369,-0.47916 0.20535,-1.02677 0.20535,-1.57437l0,-0.34226c0,-0.54761 -0.06845,-1.02677 -0.20535,-1.50592c-0.1369,-0.47916 -0.41071,-0.95832 -0.68451,-1.30057c-0.2738,-0.41071 -0.61606,-0.68451 -1.02677,-0.88986c-0.41071,-0.20535 -0.88986,-0.34226 -1.43747,-0.34226c-0.54761,0 -1.02677,0.1369 -1.36902,0.34226c-0.41071,0.20535 -0.75296,0.54761 -1.02677,0.88986c-0.2738,0.41071 -0.47916,0.82141 -0.68451,1.30057c-0.1369,0.47916 -0.20535,1.02677 -0.20535,1.50592l-0.06845,0.34226l0,0zm15.74375,3.55946c-0.34226,0.41071 -0.68451,0.82141 -1.23212,1.02677c-0.54761,0.2738 -1.16367,0.41071 -1.91663,0.41071c-0.47916,0 -0.95832,-0.06845 -1.30057,-0.20535c-0.41071,-0.1369 -0.75296,-0.34226 -1.02677,-0.68451s-0.47916,-0.68451 -0.68451,-1.16367c-0.1369,-0.47916 -0.20535,-1.02677 -0.20535,-1.71128l0,-6.2975l1.09522,0l0,6.36595c0,0.54761 0.06845,0.95832 0.20535,1.30057c0.1369,0.34226 0.2738,0.61606 0.47916,0.82141c0.20535,0.20535 0.41071,0.41071 0.68451,0.47916c0.2738,0.06845 0.54761,0.1369 0.88986,0.1369c0.41071,0 0.82141,-0.06845 1.16367,-0.1369c0.34226,-0.06845 0.61606,-0.2738 0.88986,-0.41071c0.2738,-0.20535 0.41071,-0.41071 0.61606,-0.61606c0.1369,-0.2738 0.2738,-0.47916 0.41071,-0.75296l0,-7.18736l1.09522,0l0,9.85696l-1.02677,0l-0.1369,-1.23212zm11.36288,-3.62791c0,0.75296 -0.06845,1.43747 -0.2738,2.05353c-0.1369,0.61606 -0.41071,1.16367 -0.75296,1.57437c-0.34226,0.41071 -0.68451,0.75296 -1.16367,1.02677c-0.47916,0.2738 -1.02677,0.41071 -1.57437,0.41071c-0.68451,0 -1.30057,-0.1369 -1.84818,-0.41071s-0.95832,-0.68451 -1.30057,-1.09522l-0.06845,1.30057l-1.02677,0l0,-14.03247l1.09522,0l0,5.54454c0.34226,-0.47916 0.75296,-0.88986 1.23212,-1.16367s1.09522,-0.41071 1.84818,-0.41071c0.61606,0 1.16367,0.1369 1.64283,0.34226c0.47916,0.2738 0.88986,0.54761 1.16367,1.02677c0.34226,0.41071 0.54761,0.95832 0.75296,1.57437c0.1369,0.61606 0.2738,1.30057 0.2738,2.12198l0,0.1369l0,0l0,0l0,0zm-1.09522,-0.1369c0,-0.54761 -0.06845,-1.09522 -0.1369,-1.64283c-0.1369,-0.47916 -0.2738,-0.95832 -0.54761,-1.30057c-0.2738,-0.41071 -0.54761,-0.68451 -0.88986,-0.88986s-0.82141,-0.34226 -1.30057,-0.34226c-0.41071,0 -0.75296,0.06845 -1.09522,0.1369c-0.34226,0.1369 -0.61606,0.2738 -0.82141,0.41071s-0.41071,0.41071 -0.61606,0.68451c-0.1369,0.2738 -0.2738,0.47916 -0.41071,0.75296l0,4.44932c0.1369,0.2738 0.2738,0.47916 0.41071,0.75296c0.20535,0.20535 0.41071,0.41071 0.61606,0.61606c0.2738,0.1369 0.47916,0.34226 0.82141,0.41071c0.34226,0.06845 0.68451,0.1369 1.02677,0.1369c0.47916,0 0.95832,-0.06845 1.30057,-0.34226c0.41071,-0.20535 0.68451,-0.47916 0.88986,-0.88986c0.2738,-0.41071 0.41071,-0.82141 0.54761,-1.30057c0.1369,-0.47916 0.1369,-1.02677 0.1369,-1.64283l0.06845,0zm4.10706,4.99693l-1.09522,0l0,-14.03247l1.09522,0l0,14.03247zm6.36595,0.20535c-0.68451,0 -1.23212,-0.1369 -1.77973,-0.41071c-0.54761,-0.2738 -1.02677,-0.54761 -1.36902,-1.02677c-0.41071,-0.41071 -0.68451,-0.95832 -0.88986,-1.50592c-0.20535,-0.61606 -0.34226,-1.23212 -0.34226,-1.91663l0,-0.41071c0,-0.75296 0.1369,-1.43747 0.34226,-2.05353c0.20535,-0.61606 0.54761,-1.16367 0.95832,-1.57437c0.41071,-0.41071 0.82141,-0.75296 1.30057,-1.02677c0.47916,-0.2738 1.02677,-0.34226 1.64283,-0.34226c0.61606,0 1.16367,0.1369 1.64283,0.34226c0.47916,0.20535 0.88986,0.54761 1.23212,0.95832c0.34226,0.41071 0.61606,0.88986 0.75296,1.43747c0.1369,0.54761 0.2738,1.16367 0.2738,1.77973l0,0.68451l-7.05046,0l0,0.20535c0,0.54761 0.06845,1.02677 0.2738,1.50592c0.1369,0.47916 0.41071,0.88986 0.68451,1.23212c0.34226,0.34226 0.68451,0.61606 1.02677,0.82141c0.41071,0.20535 0.88986,0.34226 1.36902,0.34226c0.61606,0 1.09522,-0.06845 1.57437,-0.34226c0.41071,-0.20535 0.82141,-0.54761 1.23212,-1.02677l0.68451,0.54761c-0.1369,0.2738 -0.34226,0.47916 -0.54761,0.68451c-0.20535,0.20535 -0.47916,0.41071 -0.75296,0.54761c-0.2738,0.1369 -0.61606,0.2738 -0.95832,0.41071c-0.47916,0.06845 -0.88986,0.1369 -1.30057,0.1369zm-0.20535,-9.30935c-0.41071,0 -0.82141,0.06845 -1.16367,0.2738c-0.34226,0.1369 -0.68451,0.41071 -0.95832,0.68451c-0.2738,0.2738 -0.47916,0.68451 -0.68451,1.02677c-0.20535,0.41071 -0.2738,0.88986 -0.34226,1.36902l5.88679,0l0,-0.1369c0,-0.41071 -0.06845,-0.82141 -0.20535,-1.23212c-0.1369,-0.41071 -0.34226,-0.68451 -0.54761,-1.02677c-0.2738,-0.34226 -0.54761,-0.54761 -0.88986,-0.68451c-0.2738,-0.20535 -0.61606,-0.2738 -1.09522,-0.2738zm15.33304,4.92848c-0.06845,0.68451 -0.20535,1.30057 -0.47916,1.77973c-0.2738,0.54761 -0.54761,1.02677 -0.95832,1.36902c-0.41071,0.41071 -0.88986,0.68451 -1.43747,0.82141c-0.54761,0.20535 -1.23212,0.34226 -1.91663,0.34226s-1.43747,-0.1369 -2.05353,-0.41071s-1.16367,-0.68451 -1.57437,-1.23212c-0.41071,-0.54761 -0.75296,-1.16367 -1.02677,-1.91663c-0.2738,-0.75296 -0.34226,-1.57437 -0.34226,-2.39579l0,-1.64283c0,-0.88986 0.1369,-1.71128 0.34226,-2.46424c0.2738,-0.75296 0.54761,-1.36902 1.02677,-1.91663c0.41071,-0.54761 0.95832,-0.95832 1.57437,-1.23212c0.61606,-0.2738 1.30057,-0.41071 2.12198,-0.41071c0.68451,0 1.30057,0.06845 1.91663,0.2738c0.54761,0.20535 1.02677,0.47916 1.43747,0.82141c0.41071,0.41071 0.68451,0.82141 0.95832,1.36902c0.2738,0.54761 0.41071,1.16367 0.47916,1.84818l-1.16367,0c-0.06845,-0.54761 -0.20535,-1.02677 -0.41071,-1.43747c-0.20535,-0.41071 -0.41071,-0.75296 -0.68451,-1.02677s-0.68451,-0.47916 -1.09522,-0.68451c-0.41071,-0.1369 -0.95832,-0.20535 -1.50592,-0.20535c-0.61606,0 -1.16367,0.1369 -1.64283,0.41071c-0.47916,0.2738 -0.88986,0.61606 -1.23212,1.02677c-0.34226,0.41071 -0.61606,0.95832 -0.75296,1.57437c-0.20535,0.61606 -0.2738,1.30057 -0.2738,2.05353l0,1.64283c0,0.68451 0.06845,1.36902 0.2738,2.05353s0.41071,1.16367 0.75296,1.57437c0.34226,0.41071 0.75296,0.82141 1.23212,1.02677c0.47916,0.2738 1.02677,0.41071 1.64283,0.41071c1.16367,0 2.05353,-0.2738 2.66959,-0.82141c0.61606,-0.54761 0.95832,-1.36902 1.09522,-2.53269l1.02677,-0.06845l0,0l0,0zm3.2172,4.17552l-1.09522,0l0,-14.03247l1.09522,0l0,14.03247zm2.66959,-12.66345c0,-0.20535 0.06845,-0.41071 0.20535,-0.54761s0.34226,-0.20535 0.54761,-0.20535s0.41071,0.06845 0.54761,0.20535c0.1369,0.1369 0.20535,0.34226 0.20535,0.54761s-0.06845,0.41071 -0.20535,0.54761c-0.1369,0.1369 -0.34226,0.20535 -0.54761,0.20535s-0.41071,-0.06845 -0.54761,-0.20535c-0.1369,-0.20535 -0.20535,-0.41071 -0.20535,-0.54761zm1.30057,12.66345l-1.09522,0l0,-9.85696l1.09522,0l0,9.85696zm6.0237,-0.75296c0.34226,0 0.68451,-0.06845 1.02677,-0.1369c0.34226,-0.06845 0.61606,-0.2738 0.82141,-0.41071c0.2738,-0.20535 0.47916,-0.41071 0.61606,-0.68451c0.1369,-0.2738 0.2738,-0.61606 0.2738,-1.02677l1.02677,0c-0.06845,0.47916 -0.1369,0.88986 -0.34226,1.30057c-0.20535,0.41071 -0.47916,0.75296 -0.82141,1.02677s-0.75296,0.47916 -1.16367,0.68451c-0.41071,0.1369 -0.95832,0.2738 -1.43747,0.2738c-0.68451,0 -1.30057,-0.1369 -1.84818,-0.41071c-0.54761,-0.2738 -0.95832,-0.61606 -1.30057,-1.02677c-0.34226,-0.41071 -0.61606,-0.95832 -0.82141,-1.57437c-0.20535,-0.61606 -0.2738,-1.23212 -0.2738,-1.91663l0,-0.41071c0,-0.68451 0.06845,-1.30057 0.2738,-1.91663c0.20535,-0.61606 0.41071,-1.09522 0.82141,-1.57437c0.34226,-0.41071 0.75296,-0.75296 1.30057,-1.02677c0.54761,-0.2738 1.09522,-0.41071 1.77973,-0.41071c0.54761,0 1.02677,0.06845 1.43747,0.2738c0.47916,0.1369 0.82141,0.41071 1.16367,0.68451c0.34226,0.34226 0.61606,0.68451 0.82141,1.09522c0.20535,0.41071 0.34226,0.95832 0.34226,1.43747l-1.02677,0c-0.06845,-0.41071 -0.1369,-0.75296 -0.2738,-1.09522c-0.1369,-0.34226 -0.34226,-0.61606 -0.61606,-0.82141c-0.2738,-0.20535 -0.54761,-0.41071 -0.88986,-0.54761c-0.34226,-0.1369 -0.68451,-0.20535 -1.02677,-0.20535c-0.54761,0 -1.02677,0.1369 -1.43747,0.34226c-0.41071,0.20535 -0.68451,0.54761 -0.95832,0.88986c-0.2738,0.41071 -0.41071,0.82141 -0.54761,1.30057c-0.1369,0.47916 -0.1369,1.02677 -0.1369,1.50592l0,0.41071c0,0.54761 0.06845,1.02677 0.1369,1.50592s0.2738,0.88986 0.54761,1.30057c0.2738,0.41071 0.54761,0.68451 0.95832,0.88986c0.54761,0.20535 1.02677,0.2738 1.57437,0.2738l0,0zm7.94033,-4.17552l-1.23212,1.23212l0,3.76481l-1.09522,0l0,-14.03247l1.09522,0l0,8.96709l1.02677,-1.09522l3.76481,-3.69636l1.36902,0l-4.17552,4.17552l4.51777,5.68144l-1.30057,0l-3.97016,-4.99693z" fill="#616161"/>
   <path stroke="null" id="svg_3" d="m18.66783,13.39754c-1.02677,0 -1.91663,0.1369 -2.87495,0.41071c4.92848,1.30057 8.62484,5.68144 8.69329,11.02062l0,0.47916c-0.1369,3.0803 -2.73804,5.61299 -5.81834,5.61299c-1.02677,0 -2.05353,-0.2738 -2.87495,-0.75296c-1.71128,-1.16367 -2.87495,-3.01185 -2.87495,-5.20228c0,-2.19043 1.16367,-4.03861 2.87495,-5.06538c-0.82141,-0.47916 -1.84818,-0.75296 -2.87495,-0.75296c-3.14875,0 -5.68144,2.46424 -5.74989,5.61299l0,0.47916c0.06845,5.33918 3.76481,9.72005 8.69329,11.02062c0.95832,0.2738 1.91663,0.41071 2.87495,0.41071c6.4344,0 11.56823,-5.20228 11.56823,-11.56823c0,-6.50285 -5.20228,-11.70513 -11.63668,-11.70513l0,0z" fill="#369647"/>
   <path stroke="null" id="svg_4" d="m24.48617,24.76042c-0.06845,-5.33918 -3.76481,-9.72005 -8.69329,-11.02062c-0.95832,-0.2738 -1.91663,-0.41071 -2.87495,-0.41071c-6.4344,0.06845 -11.63668,5.27073 -11.63668,11.63668s5.20228,11.56823 11.56823,11.56823c1.02677,0 1.91663,-0.1369 2.87495,-0.41071c-4.92848,-1.30057 -8.55639,-5.68144 -8.69329,-11.02062l0,-0.47916c0.1369,-3.0803 2.66959,-5.61299 5.74989,-5.61299c1.02677,0 2.05353,0.2738 2.87495,0.75296c1.71128,1.02677 2.87495,2.87495 2.87495,5.06538c0,2.19043 -1.16367,4.03861 -2.87495,5.06538c0.88986,0.47916 1.84818,0.75296 2.9434,0.75296c3.14875,0 5.68144,-2.46424 5.74989,-5.61299l0,-0.20535c0.1369,0.06845 0.1369,0 0.1369,-0.06845z" fill="#AEEA00"/>
   <linearGradient stroke="null" transform="translate(0,-0.23653507232666016) translate(0.07813286781311035,0) translate(-3.796875238418579,-12.234375) translate(5,25.799999237060547) scale(0.6753396391868591) translate(-5,-25.799999237060547) translate(1.7815107107162476,20.087114334106445) scale(1.013580083847046) translate(-1.7815107107162476,-20.087114334106445) " y2="1.0009" x2="0.49955" y1="0.00496" x1="0.49955" id="SVGID_1_">
    <stop stroke="null" stop-color="#000000" stop-opacity="0.6" offset="0"/>
    <stop stroke="null" stop-color="#000000" stop-opacity="0.1" offset="0.6"/>
   </linearGradient>
   <path stroke="null" id="svg_5" d="m24.48617,24.76042c-0.06845,-5.33918 -3.76481,-9.72005 -8.69329,-11.02062c-0.95832,-0.2738 -1.91663,-0.41071 -2.87495,-0.41071c-6.4344,0.06845 -11.63668,5.27073 -11.63668,11.63668s5.20228,11.56823 11.56823,11.56823c1.02677,0 1.91663,-0.1369 2.87495,-0.41071c-4.92848,-1.30057 -8.55639,-5.68144 -8.69329,-11.02062l0,-0.47916c0.1369,-3.0803 2.66959,-5.61299 5.74989,-5.61299c1.02677,0 2.05353,0.2738 2.87495,0.75296c1.71128,1.02677 2.87495,2.87495 2.87495,5.06538c0,2.19043 -1.16367,4.03861 -2.87495,5.06538c0.88986,0.47916 1.84818,0.75296 2.9434,0.75296c3.14875,0 5.68144,-2.46424 5.74989,-5.61299l0,-0.20535c0.1369,0.06845 0.1369,0 0.1369,-0.06845z" fill="url(#SVGID_1_)" opacity="0.15"/>
   <linearGradient stroke="null" transform="translate(0,-0.23653507232666016) translate(0.07813286781311035,0) translate(-3.796875238418579,-12.234375) translate(5,25.799999237060547) scale(0.6753396391868591) translate(-5,-25.799999237060547) translate(1.7815107107162476,20.087114334106445) scale(1.013580083847046) translate(-1.7815107107162476,-20.087114334106445) " y2="-0.00185" x2="0.49842" y1="0.99029" x1="0.49842" id="SVGID_2_">
    <stop stroke="null" stop-color="#000000" stop-opacity="0.6" offset="0"/>
    <stop stroke="null" stop-color="#000000" stop-opacity="0.1" offset="0.6"/>
   </linearGradient>
   <path stroke="null" id="svg_6" d="m18.66783,13.39754c-1.02677,0 -1.91663,0.1369 -2.87495,0.41071c4.92848,1.30057 8.62484,5.68144 8.69329,11.02062l0,0.47916c-0.1369,3.0803 -2.73804,5.61299 -5.81834,5.61299c-1.02677,0 -2.05353,-0.2738 -2.87495,-0.75296c-1.71128,-1.16367 -2.87495,-3.01185 -2.87495,-5.20228c0,-2.19043 1.16367,-4.03861 2.87495,-5.06538c-0.82141,-0.47916 -1.84818,-0.75296 -2.87495,-0.75296c-3.14875,0 -5.68144,2.46424 -5.74989,5.61299l0,0.47916c0.06845,5.33918 3.76481,9.72005 8.69329,11.02062c0.95832,0.2738 1.91663,0.41071 2.87495,0.41071c6.4344,0 11.56823,-5.20228 11.56823,-11.56823c0,-6.50285 -5.20228,-11.70513 -11.63668,-11.70513l0,0z" fill="url(#SVGID_2_)" opacity="0.15"/>
   <linearGradient stroke="null" transform="translate(0,-0.23653507232666016) translate(0.07813286781311035,0) translate(-3.796875238418579,-12.234375) translate(5,25.799999237060547) scale(0.6753396391868591) translate(-5,-25.799999237060547) translate(1.7815107107162476,20.087114334106445) scale(1.013580083847046) translate(-1.7815107107162476,-20.087114334106445) " y2="1.28721" x2="0.77692" y1="0.18036" x1="0.32429" id="SVGID_3_">
    <stop stroke="null" stop-color="#000000" stop-opacity="0.5" offset="0"/>
    <stop stroke="null" stop-color="#000000" stop-opacity="0.03" offset="0.75"/>
   </linearGradient>
   <path stroke="null" id="svg_7" d="m15.79289,36.19175c-4.92848,-1.30057 -8.55639,-5.68144 -8.69329,-11.02062l0,-0.06845l0,0.06845c0.06845,4.51777 1.64283,8.48793 4.17552,11.22598c0.54761,0.06845 1.02677,0.1369 1.57437,0.1369c1.02677,0 1.98508,-0.06845 2.9434,-0.34226z" fill="url(#SVGID_3_)" opacity="0.4"/>
   <linearGradient stroke="null" transform="translate(0,-0.23653507232666016) translate(0.07813286781311035,0) translate(-3.796875238418579,-12.234375) translate(5,25.799999237060547) scale(0.6753396391868591) translate(-5,-25.799999237060547) translate(1.7815107107162476,20.087114334106445) scale(1.013580083847046) translate(-1.7815107107162476,-20.087114334106445) " y2="0.50507" x2="1.3521" y1="0.50507" x1="0.0518" id="SVGID_4_">
    <stop stroke="null" stop-color="#000000" stop-opacity="0.9" offset="0"/>
    <stop stroke="null" stop-color="#000000" stop-opacity="0.1" offset="0.6"/>
   </linearGradient>
   <path stroke="null" id="svg_8" d="m7.16805,24.76042c0.88986,-3.01185 4.03861,-4.72312 7.05046,-3.90171c0.06845,0.06845 0.20535,0.06845 0.34226,0.06845c0.41071,-0.41071 0.82141,-0.75296 1.30057,-1.02677c-0.82141,-0.47916 -1.84818,-0.75296 -2.87495,-0.75296c-3.2172,0.06845 -5.74989,2.53269 -5.81834,5.61299l0,0.20535c-0.06845,-0.06845 -0.06845,-0.1369 0,-0.20535z" fill="url(#SVGID_4_)" opacity="0.25"/>
   <g stroke="null" id="svg_9">
    <path stroke="null" id="svg_10" d="m136.6775,30.0996c0,0.20535 -0.06845,0.41071 -0.06845,0.61606c-0.06845,0.20535 -0.1369,0.34226 -0.20535,0.47916c-0.1369,0.1369 -0.20535,0.2738 -0.41071,0.34226c-0.1369,0.06845 -0.34226,0.1369 -0.47916,0.1369c-0.20535,0 -0.41071,-0.06845 -0.54761,-0.1369c-0.1369,-0.06845 -0.2738,-0.20535 -0.41071,-0.34226l0,0.34226l-0.47916,0l0,-4.31242l0.54761,0l0,1.57437c0.1369,-0.1369 0.20535,-0.20535 0.34226,-0.2738s0.34226,-0.1369 0.47916,-0.1369c0.20535,0 0.34226,0.06845 0.47916,0.1369c0.1369,0.06845 0.2738,0.20535 0.34226,0.34226c0.1369,0.1369 0.20535,0.2738 0.20535,0.47916c0.06845,0.20535 0.06845,0.41071 0.06845,0.61606l0.1369,0.1369l0,0l0,0zm-0.47916,-0.06845c0,-0.1369 0,-0.2738 -0.06845,-0.41071c-0.06845,-0.1369 -0.06845,-0.2738 -0.1369,-0.34226c-0.06845,-0.1369 -0.1369,-0.20535 -0.2738,-0.2738c-0.1369,-0.06845 -0.20535,-0.06845 -0.41071,-0.06845c-0.1369,0 -0.20535,0 -0.2738,0.06845c-0.06845,0 -0.1369,0.06845 -0.20535,0.1369c-0.06845,0.06845 -0.1369,0.06845 -0.1369,0.1369c-0.06845,0.06845 -0.06845,0.1369 -0.1369,0.20535l0,1.30057c0.06845,0.06845 0.06845,0.1369 0.1369,0.20535l0.1369,0.1369c0.06845,0.06845 0.1369,0.06845 0.20535,0.1369c0.06845,0 0.1369,0.06845 0.2738,0.06845c0.1369,0 0.2738,-0.06845 0.34226,-0.06845c0.1369,-0.06845 0.20535,-0.1369 0.2738,-0.2738c0.06845,-0.1369 0.1369,-0.20535 0.1369,-0.34226c0.06845,-0.1369 0.06845,-0.2738 0.06845,-0.41071l0.06845,-0.20535l0,0zm2.05353,0.82141l0.68451,-2.25889l0.54761,0l-1.23212,3.49101c-0.06845,0.06845 -0.06845,0.1369 -0.1369,0.2738c-0.06845,0.06845 -0.1369,0.20535 -0.20535,0.2738c-0.06845,0.06845 -0.1369,0.1369 -0.2738,0.20535c-0.1369,0.06845 -0.20535,0.06845 -0.34226,0.06845l-0.06845,0c-0.06845,0 -0.06845,0 -0.06845,0c-0.06845,0 -0.06845,0 -0.06845,0c0,0 -0.06845,0 -0.06845,0l0,-0.41071l0.1369,0c0.06845,0 0.20535,0 0.2738,0c0.06845,0 0.1369,-0.06845 0.20535,-0.06845s0.1369,-0.06845 0.1369,-0.1369c0.06845,-0.06845 0.06845,-0.1369 0.1369,-0.2738l0.1369,-0.34226l-1.09522,-3.01185l0.54761,0l0.75296,2.19043l0,0zm6.2975,0.20535c-0.06845,0.06845 -0.06845,0.1369 -0.1369,0.20535c-0.06845,0.06845 -0.1369,0.1369 -0.2738,0.20535c-0.1369,0.06845 -0.2738,0.1369 -0.41071,0.1369c-0.20535,0.06845 -0.34226,0.06845 -0.61606,0.06845c-0.2738,0 -0.47916,-0.06845 -0.68451,-0.1369c-0.20535,-0.06845 -0.41071,-0.20535 -0.54761,-0.41071c-0.1369,-0.20535 -0.2738,-0.34226 -0.34226,-0.61606c-0.06845,-0.2738 -0.1369,-0.54761 -0.1369,-0.82141l0,-0.34226c0,-0.34226 0.06845,-0.61606 0.1369,-0.82141c0.06845,-0.2738 0.20535,-0.47916 0.34226,-0.61606c0.1369,-0.20535 0.34226,-0.2738 0.54761,-0.41071c0.20535,-0.06845 0.41071,-0.1369 0.68451,-0.1369c0.2738,0 0.41071,0.06845 0.61606,0.06845c0.20535,0.06845 0.34226,0.1369 0.47916,0.2738c0.1369,0.1369 0.20535,0.2738 0.2738,0.41071c0.06845,0.1369 0.1369,0.34226 0.1369,0.47916l-0.54761,0c0,-0.1369 -0.06845,-0.20535 -0.1369,-0.34226s-0.1369,-0.20535 -0.20535,-0.2738c-0.06845,-0.06845 -0.20535,-0.1369 -0.2738,-0.20535c-0.1369,-0.06845 -0.2738,-0.06845 -0.41071,-0.06845c-0.20535,0 -0.34226,0.06845 -0.47916,0.1369c-0.1369,0.06845 -0.2738,0.20535 -0.34226,0.2738c-0.06845,0.1369 -0.1369,0.2738 -0.20535,0.47916c-0.06845,0.20535 -0.06845,0.41071 -0.06845,0.61606l0,0.34226c0,0.2738 0.06845,0.47916 0.06845,0.61606s0.1369,0.34226 0.2738,0.47916c0.1369,0.1369 0.20535,0.20535 0.34226,0.2738s0.34226,0.1369 0.47916,0.1369c0.1369,0 0.2738,0 0.41071,-0.06845c0.1369,0 0.20535,-0.06845 0.2738,-0.06845c0.06845,-0.06845 0.1369,-0.06845 0.20535,-0.1369s0.06845,-0.06845 0.1369,-0.1369l0,-0.88986l-0.95832,0l0,-0.41071l1.50592,0l-0.1369,1.71128l0,0l0,0zm0.47916,-1.02677c0,-0.20535 0.06845,-0.41071 0.1369,-0.61606c0.06845,-0.20535 0.1369,-0.34226 0.2738,-0.47916c0.1369,-0.1369 0.2738,-0.2738 0.41071,-0.34226c0.20535,-0.06845 0.34226,-0.1369 0.54761,-0.1369c0.20535,0 0.41071,0.06845 0.61606,0.1369c0.20535,0.06845 0.34226,0.20535 0.41071,0.34226c0.1369,0.1369 0.20535,0.34226 0.2738,0.47916c0.06845,0.20535 0.1369,0.41071 0.1369,0.61606l0,0.06845c0,0.20535 -0.06845,0.41071 -0.1369,0.61606c-0.06845,0.20535 -0.1369,0.34226 -0.2738,0.47916c-0.1369,0.1369 -0.2738,0.2738 -0.41071,0.34226c-0.20535,0.06845 -0.34226,0.1369 -0.54761,0.1369c-0.20535,0 -0.41071,-0.06845 -0.54761,-0.1369c-0.1369,-0.06845 -0.34226,-0.20535 -0.41071,-0.34226c-0.1369,-0.1369 -0.20535,-0.2738 -0.2738,-0.47916c-0.06845,-0.20535 -0.1369,-0.41071 -0.1369,-0.61606l-0.06845,-0.06845l0,0l0,0zm0.54761,0.06845c0,0.1369 0,0.2738 0.06845,0.41071c0.06845,0.1369 0.06845,0.2738 0.1369,0.34226c0.06845,0.1369 0.1369,0.20535 0.2738,0.2738c0.2738,0.1369 0.54761,0.1369 0.75296,0c0.1369,-0.06845 0.20535,-0.1369 0.2738,-0.2738c0.06845,-0.1369 0.1369,-0.20535 0.1369,-0.34226c0.06845,-0.1369 0.06845,-0.2738 0.06845,-0.41071l0,-0.06845c0,-0.1369 0,-0.2738 -0.06845,-0.41071c-0.06845,-0.1369 -0.06845,-0.2738 -0.1369,-0.34226c-0.06845,-0.1369 -0.1369,-0.20535 -0.2738,-0.2738c-0.1369,-0.06845 -0.2738,-0.06845 -0.41071,-0.06845s-0.2738,0.06845 -0.41071,0.06845c-0.1369,0.06845 -0.20535,0.1369 -0.2738,0.2738c-0.06845,0.1369 -0.1369,0.20535 -0.1369,0.34226c-0.06845,0.1369 -0.06845,0.2738 -0.06845,0.41071l0,0.06845l0.06845,0zm2.73804,-0.06845c0,-0.20535 0.06845,-0.41071 0.1369,-0.61606c0.06845,-0.20535 0.1369,-0.34226 0.2738,-0.47916c0.1369,-0.1369 0.2738,-0.2738 0.41071,-0.34226c0.20535,-0.06845 0.34226,-0.1369 0.54761,-0.1369c0.20535,0 0.41071,0.06845 0.61606,0.1369c0.20535,0.06845 0.34226,0.20535 0.41071,0.34226c0.1369,0.1369 0.20535,0.34226 0.2738,0.47916c0.06845,0.20535 0.1369,0.41071 0.1369,0.61606l0,0.06845c0,0.20535 -0.06845,0.41071 -0.1369,0.61606c-0.06845,0.20535 -0.1369,0.34226 -0.2738,0.47916s-0.2738,0.2738 -0.41071,0.34226c-0.20535,0.06845 -0.34226,0.1369 -0.54761,0.1369c-0.20535,0 -0.41071,-0.06845 -0.54761,-0.1369c-0.20535,-0.06845 -0.34226,-0.20535 -0.41071,-0.34226c-0.1369,-0.1369 -0.20535,-0.2738 -0.2738,-0.47916c-0.06845,-0.20535 -0.1369,-0.41071 -0.1369,-0.61606l-0.06845,-0.06845l0,0l0,0zm0.47916,0.06845c0,0.1369 0,0.2738 0.06845,0.41071s0.06845,0.2738 0.1369,0.34226c0.06845,0.1369 0.1369,0.20535 0.2738,0.2738c0.2738,0.1369 0.54761,0.1369 0.75296,0c0.1369,-0.06845 0.20535,-0.1369 0.2738,-0.2738c0.06845,-0.1369 0.1369,-0.20535 0.1369,-0.34226s0.06845,-0.2738 0.06845,-0.41071l0,-0.06845c0,-0.1369 0,-0.2738 -0.06845,-0.41071s-0.06845,-0.2738 -0.1369,-0.34226c-0.06845,-0.1369 -0.1369,-0.20535 -0.2738,-0.2738c-0.1369,-0.06845 -0.2738,-0.06845 -0.41071,-0.06845s-0.2738,0.06845 -0.41071,0.06845c-0.1369,0.06845 -0.20535,0.1369 -0.2738,0.2738c-0.06845,0.1369 -0.1369,0.20535 -0.1369,0.34226s-0.06845,0.2738 -0.06845,0.41071l0,0.06845l0.06845,0zm2.80649,-0.06845c0,-0.20535 0.06845,-0.47916 0.06845,-0.61606c0.06845,-0.20535 0.1369,-0.34226 0.2738,-0.47916s0.20535,-0.2738 0.41071,-0.34226c0.1369,-0.06845 0.34226,-0.1369 0.47916,-0.1369s0.34226,0.06845 0.47916,0.1369c0.1369,0.06845 0.2738,0.20535 0.34226,0.2738l0,-0.34226l0.47916,0l0,3.01185c0,0.20535 -0.06845,0.41071 -0.06845,0.54761c-0.06845,0.1369 -0.1369,0.2738 -0.2738,0.41071c-0.1369,0.1369 -0.2738,0.20535 -0.41071,0.2738c-0.1369,0.06845 -0.34226,0.06845 -0.54761,0.06845c-0.06845,0 -0.20535,0 -0.2738,-0.06845c-0.1369,0 -0.20535,-0.06845 -0.34226,-0.06845c-0.1369,-0.06845 -0.20535,-0.06845 -0.2738,-0.1369c-0.1369,-0.06845 -0.20535,-0.1369 -0.2738,-0.2738l0.2738,-0.34226c0.06845,0.06845 0.1369,0.1369 0.20535,0.20535c0.06845,0.06845 0.1369,0.06845 0.20535,0.1369c0.06845,0.06845 0.1369,0.06845 0.20535,0.06845c0.06845,0 0.1369,0 0.20535,0c0.1369,0 0.20535,0 0.34226,-0.06845c0.1369,-0.06845 0.20535,-0.06845 0.2738,-0.1369c0.06845,-0.06845 0.1369,-0.1369 0.1369,-0.2738c0.06845,-0.1369 0.06845,-0.20535 0.06845,-0.34226l0,-0.2738c-0.1369,0.1369 -0.20535,0.20535 -0.34226,0.2738c-0.1369,0.06845 -0.34226,0.06845 -0.47916,0.06845c-0.20535,0 -0.34226,-0.06845 -0.47916,-0.1369c-0.1369,-0.06845 -0.2738,-0.20535 -0.41071,-0.34226c-0.1369,-0.1369 -0.20535,-0.2738 -0.2738,-0.47916c0,-0.1369 0,-0.34226 0,-0.61606l0,0zm0.47916,0.06845c0,0.1369 0,0.2738 0.06845,0.41071c0.06845,0.1369 0.06845,0.2738 0.1369,0.34226c0.06845,0.1369 0.1369,0.20535 0.2738,0.2738c0.1369,0.06845 0.20535,0.06845 0.34226,0.06845c0.06845,0 0.20535,0 0.2738,-0.06845c0.06845,0 0.1369,-0.06845 0.20535,-0.06845c0.06845,-0.06845 0.1369,-0.06845 0.1369,-0.1369c0.06845,-0.06845 0.06845,-0.1369 0.1369,-0.20535l0,-1.36902c-0.06845,-0.06845 -0.06845,-0.1369 -0.1369,-0.20535c-0.06845,-0.06845 -0.1369,-0.1369 -0.1369,-0.1369c-0.06845,-0.06845 -0.1369,-0.06845 -0.20535,-0.06845c-0.06845,0 -0.1369,-0.06845 -0.2738,-0.06845c-0.1369,0 -0.2738,0.06845 -0.34226,0.06845c-0.1369,0.06845 -0.20535,0.1369 -0.2738,0.2738c-0.06845,0.1369 -0.1369,0.20535 -0.1369,0.34226c0,0.20535 -0.06845,0.34226 -0.06845,0.54761l0,0l0,0zm3.3541,1.50592l-0.54761,0l0,-4.31242l0.54761,0l0,4.31242zm2.05353,0.06845c-0.20535,0 -0.41071,-0.06845 -0.54761,-0.1369c-0.20535,-0.06845 -0.34226,-0.20535 -0.41071,-0.34226c-0.1369,-0.1369 -0.20535,-0.2738 -0.2738,-0.47916c-0.06845,-0.20535 -0.1369,-0.41071 -0.1369,-0.61606l0,-0.1369c0,-0.2738 0.06845,-0.47916 0.1369,-0.68451c0.06845,-0.20535 0.20535,-0.34226 0.2738,-0.47916c0.1369,-0.1369 0.2738,-0.2738 0.41071,-0.34226c0.1369,-0.06845 0.34226,-0.1369 0.47916,-0.1369c0.20535,0 0.41071,0.06845 0.54761,0.1369c0.1369,0.06845 0.2738,0.20535 0.41071,0.34226c0.1369,0.1369 0.20535,0.2738 0.20535,0.47916c0.06845,0.20535 0.06845,0.41071 0.06845,0.61606l0,0.2738l-2.05353,0c0,0.1369 0.06845,0.2738 0.06845,0.41071s0.1369,0.20535 0.20535,0.34226c0.06845,0.06845 0.20535,0.1369 0.2738,0.20535c0.1369,0.06845 0.2738,0.06845 0.41071,0.06845c0.20535,0 0.34226,-0.06845 0.47916,-0.1369c0.1369,-0.06845 0.2738,-0.20535 0.34226,-0.2738l0.34226,0.2738c-0.06845,0.06845 -0.1369,0.1369 -0.20535,0.20535c-0.06845,0.06845 -0.1369,0.1369 -0.2738,0.20535c-0.06845,0.06845 -0.20535,0.1369 -0.34226,0.1369c-0.1369,0 -0.2738,0.06845 -0.41071,0.06845l0,0zm-0.06845,-2.73804c-0.1369,0 -0.20535,0 -0.2738,0.06845s-0.20535,0.06845 -0.2738,0.20535c-0.06845,0.06845 -0.1369,0.20535 -0.20535,0.2738s-0.06845,0.2738 -0.06845,0.41071l1.50592,0l0,-0.06845c0,-0.1369 0,-0.20535 -0.06845,-0.2738c-0.06845,-0.1369 -0.06845,-0.20535 -0.1369,-0.2738c-0.06845,-0.06845 -0.1369,-0.1369 -0.20535,-0.20535c0,-0.1369 -0.1369,-0.1369 -0.2738,-0.1369l0,0z" fill="#AAAAAA"/>
   </g>
  </g>
 </g>
</svg>