<?xml version="1.0" encoding="utf-8"?>
<!-- Generator: Adobe Illustrator 21.0.0, SVG Export Plug-In . SVG Version: 6.00 Build 0)  -->
<svg version="1.1" id="Layer_1" xmlns="http://www.w3.org/2000/svg" xmlns:xlink="http://www.w3.org/1999/xlink" x="0px" y="0px"
	 viewBox="0 0 100 47.8" enable-background="new 0 0 100 47.8" xml:space="preserve">
<g>
	<g>
		<path fill="#323232" d="M0,7.3h14.2c9.3,0,16.4,5.5,16.4,15.9c0,10.3-6.9,15.8-16.4,15.8H0C0,39,0,7.3,0,7.3z M7.7,14v18.1h6
			c5.2,0,8.7-3.2,8.7-9S18.9,14,13.7,14C13.7,14,7.7,14,7.7,14z"/>
		<path fill="#323232" d="M36.8,23c0-1.3-0.2-2.2-1.4-2.2c-0.9,0-2.2,0.5-2.4,0.6l-0.2-6.2c0.2-0.2,2.8-1.1,5.8-1.1
			c2.8,0,4.9,1.1,5.7,3.6c1.1-2.2,2.8-3.6,6-3.6c2.2,0,4.1,0.8,4.4,1.1l-0.9,7.1c-0.2-0.3-2.4-1.1-4.7-1.1c-2.8,0-3.9,2.4-4.1,4.9
			V39h-7.9V23H36.8z"/>
		<path fill="#323232" d="M73.8,47.8V23c0-1.3-0.2-2.2-1.4-2.2c-0.9,0-2.2,0.5-2.4,0.6l-0.2-6.3C70,15,72.7,14,75.7,14
			c2.7,0,4.7,0.9,5.5,3.3c1.6-1.9,3.9-3.3,7.4-3.3c6.6,0,11.4,5.2,11.4,12.6c0,7.3-4.6,12.6-11.4,12.6c-3,0-5.4-1.1-6.9-2.5v11H73.8
			z M81.7,22.7v8.2c1.1,1.1,3,1.7,4.7,1.7c3.3,0,5.5-2.2,5.5-5.8c0-3.6-2.2-5.8-5.5-5.8C84.5,21,82.6,21.8,81.7,22.7z"/>
		<g>
			<path fill="#323232" d="M68.5,32.2c-0.2,0.2-1.3,0.6-2.2,0.6c-1.3,0-1.4-1.1-1.4-2.2V14.5h-7.9v18c0,4.9,2.2,6.9,6.2,6.9
				c3,0,5.7-0.8,5.8-1.1L68.5,32.2z"/>
			<path fill="#4275BE" d="M63.6,3.9C62.6,2.7,62,2.4,60.7,0c-1.3,2.4-1.9,2.7-2.8,3.9c-0.9,1.3-1.4,2.5-1.4,3.5
				c0,2.5,1.7,3.5,4.3,3.5c2.5,0,4.3-0.9,4.3-3.5C65,6.5,64.5,5.2,63.6,3.9z"/>
		</g>
	</g>
</g>
</svg>
