<svg xmlns="http://www.w3.org/2000/svg" viewBox="0 0 180 35.31"><defs><style>.cls-1{fill:#e53238;}.cls-2{fill:#3366b1;}.cls-3{fill:#f3af1c;}.cls-4{fill:#86b940;}</style></defs><g id="Guidelines"><path class="cls-1" d="M57.17,10.67c3.72,0,6.26,2.28,6.26,5.7H50.59c0-3.63,3.31-5.7,6.58-5.7Zm.16-3c-6.22,0-11.4,2.64-11.4,10.6,0,6.3,3.49,10.27,11.56,10.27,9.5,0,10.11-6.26,10.11-6.26H63s-1,3.37-5.79,3.37c-3.91,0-6.72-2.64-6.72-6.34H68.08V17c0-3.66-2.32-9.31-10.75-9.31Z"/><path class="cls-2" d="M79.48,10.8c4.22,0,6.9,3.14,6.9,7.34,0,4.5-3.1,7.45-6.87,7.45-4.51,0-6.93-3.52-6.93-7.41,0-3.63,2.18-7.38,6.9-7.38ZM68.08,0V24.57c0,1.4-.1,3.36-.1,3.36h4.39s.16-1.41.16-2.69c0,0,2.17,3.39,8.07,3.39C86.81,28.63,91,24.32,91,18.14c0-5.75-3.87-10.38-10.42-10.38-6.13,0-8,3.31-8,3.31V0Z"/><path class="cls-3" d="M107.08,18.62V19.9c0,1.68-1,5.84-7.11,5.84-3.33,0-4.76-1.66-4.76-3.59,0-3.51,4.81-3.53,11.87-3.53ZM102,7.7c-9.35,0-10,5.12-10,5.94h4.65s.25-3,5-3c3.07,0,5.45,1.41,5.45,4.12v1h-5.45c-7.25,0-11.08,2.12-11.08,6.42s3.54,6.54,8.32,6.54c6.52,0,8.62-3.61,8.62-3.61,0,1.44.11,2.85.11,2.85h4.14s-.16-1.75-.16-2.87V15.38c0-6.34-5.12-7.68-9.63-7.68Z"/><polygon class="cls-4" points="109.07 8.51 114.31 8.51 121.82 23.56 129.32 8.51 134.06 8.51 120.41 35.31 115.43 35.31 119.37 27.84 109.07 8.51 109.07 8.51"/></g></svg>