<svg width="160" height="50" xmlns="http://www.w3.org/2000/svg" xmlns:svg="http://www.w3.org/2000/svg">
 <g>
  <title>Layer 1</title>
  <g stroke="null" id="svg_1">
   <g stroke="null" id="svg_2">
    <g stroke="null" id="svg_3">
     <g stroke="null" id="svg_4">
      <path stroke="null" id="svg_5" d="m72.50243,8.06327l5.73519,0l-3.04682,-4.89881l-5.55596,8.84175l-2.56889,0l6.7508,-10.634c0.29871,-0.41819 0.77664,-0.7169 1.31431,-0.7169c0.53767,0 1.01561,0.23897 1.31431,0.65716l6.81054,10.634l-2.56889,0l-1.19483,-1.97147l-5.79493,0l-1.19483,-1.91173" fill="#E42313"/>
      <path stroke="null" id="svg_6" d="m98.84846,10.03474l0,-9.2002l-2.1507,0l0,10.15606c0,0.29871 0.11948,0.53767 0.29871,0.7169c0.17922,0.17922 0.47793,0.29871 0.77664,0.29871l9.79761,0l1.25457,-1.97147l-9.97684,0" fill="#E42313"/>
      <path stroke="null" id="svg_7" d="m63.24249,8.42172c2.09095,0 3.76372,-1.67276 3.76372,-3.76372c0,-2.09095 -1.67276,-3.76372 -3.76372,-3.76372l-9.43917,0l0,11.17167l2.1507,0l0,-9.25994l7.10924,0c1.01561,0 1.79225,0.83638 1.79225,1.79225c0,1.01561 -0.83638,1.79225 -1.79225,1.79225l-6.09364,0l6.45209,5.61571l3.10656,0l-4.30139,-3.64423l1.01561,0.05974" fill="#E42313"/>
      <path stroke="null" id="svg_8" d="m40.5407,12.00621c-3.10656,0 -5.61571,-2.50915 -5.61571,-5.61571c0,-3.10656 2.50915,-5.61571 5.61571,-5.61571l6.51183,0c3.10656,0 5.61571,2.50915 5.61571,5.61571c0,3.10656 -2.50915,5.61571 -5.61571,5.61571l-6.51183,0m6.39235,-1.97147c2.03121,0 3.64423,-1.61302 3.64423,-3.64423c0,-2.03121 -1.61302,-3.64423 -3.64423,-3.64423l-6.21312,0c-2.03121,0 -3.64423,1.61302 -3.64423,3.64423c0,1.97147 1.61302,3.64423 3.64423,3.64423l6.21312,0" fill="#E42313"/>
      <path stroke="null" id="svg_9" d="m87.79627,12.00621c-3.10656,0 -5.61571,-2.50915 -5.61571,-5.61571c0,-3.10656 2.50915,-5.61571 5.61571,-5.61571l7.70666,0l-1.25457,1.97147l-6.3326,0c-2.03121,0 -3.64423,1.61302 -3.64423,3.64423c0,1.97147 1.61302,3.64423 3.64423,3.64423l7.7664,0l-1.25457,1.97147l-6.63131,0" fill="#E42313"/>
      <path stroke="null" id="svg_10" d="m114.1423,10.03474c-1.67276,0 -3.04682,-1.13509 -3.46501,-2.62863l9.2002,0l1.25457,-1.97147l-10.45477,0c0.41819,-1.55328 1.85199,-2.62863 3.46501,-2.62863l6.3326,0l1.25457,-1.97147l-7.70666,0c-3.10656,0 -5.61571,2.50915 -5.61571,5.61571c0,3.10656 2.50915,5.61571 5.61571,5.61571l6.63131,0l1.19483,-2.03121l-7.70666,0" fill="#E42313"/>
      <path stroke="null" id="svg_11" d="m122.86456,2.02937c0,-0.53767 0.41819,-1.01561 1.01561,-1.01561c0.53767,0 1.01561,0.41819 1.01561,1.01561c0,0.53767 -0.41819,1.01561 -1.01561,1.01561c-0.59742,-0.05974 -1.01561,-0.47793 -1.01561,-1.01561m0.95586,1.25457c0.7169,0 1.25457,-0.53767 1.25457,-1.25457c0,-0.7169 -0.53767,-1.25457 -1.25457,-1.25457c-0.7169,0 -1.25457,0.59742 -1.25457,1.25457c0,0.7169 0.59742,1.25457 1.25457,1.25457m-0.11948,-1.97147c0.17922,0 0.29871,0 0.35845,0.05974c0.23897,0.05974 0.23897,0.29871 0.23897,0.41819c0,0 0,0.05974 0,0.11948c0,0.05974 -0.05974,0.17922 -0.17922,0.23897c0,0 0,0 -0.05974,0.05974l0.29871,0.59742l-0.29871,0l-0.29871,-0.53767l-0.11948,0l0,0.53767l-0.29871,0l0,-1.55328l0.35845,0.05974m0.11948,0.59742c0.05974,0 0.17922,0 0.23897,-0.05974c0.05974,-0.05974 0.05974,-0.05974 0.05974,-0.11948c0,-0.05974 -0.05974,-0.11948 -0.11948,-0.17922c-0.05974,0 -0.11948,0 -0.23897,0l-0.11948,0l0,0.41819l0.17922,0" fill="#E42313"/>
     </g>
    </g>
    <rect stroke="null" id="svg_12" height="0.89612" width="88.29801" y="20.01158" x="35.88086"/>
   </g>
   <g stroke="null" id="sn31ot.tif">
    <g stroke="null" id="svg_13">
     <path stroke="null" id="svg_14" d="m73.63752,39.84577c-1.31431,1.55328 -2.92734,2.32992 -4.89881,2.32992c-3.1663,-0.05974 -5.85467,-2.86759 -5.73519,-5.85467c0.77664,0 1.61302,0 2.38966,0c0,0.05974 0,0.17922 0.05974,0.23897c0.23897,2.21044 2.32992,3.64423 4.48062,3.04682c1.61302,-0.47793 2.50915,-1.85199 2.50915,-3.76372c0.17922,-1.13509 0.53767,-2.1507 1.25457,-3.04682c2.21044,-2.74811 5.85467,-2.98708 8.24433,-1.13509c1.55328,1.19483 2.38966,2.74811 2.4494,4.71958c0.05974,4.24165 0,8.4833 0,12.72495c0,0.05974 0,0.11948 0,0.23897c-0.77664,0 -1.61302,0 -2.4494,0c0,-2.74811 0,-5.43648 0,-8.18459c0,-1.37406 0,-2.80785 0,-4.18191c0.29871,-2.50915 -1.97147,-4.54036 -4.42087,-3.8832c-1.25457,0.29871 -2.74811,1.55328 -2.62863,3.76372c-0.17922,1.01561 -0.53767,2.03121 -1.25457,2.98708z" fill="#E42313"/>
     <path stroke="null" id="svg_15" d="m49.7409,37.03792c0.23897,1.19483 0.83638,2.03121 1.97147,2.38966c1.31431,0.41819 2.50915,0.23897 3.58449,-0.65716c0.23897,-0.17922 0.41819,-0.17922 0.65716,-0.05974c0.59742,0.29871 1.25457,0.59742 1.91173,0.89612c-0.83638,1.19483 -1.91173,1.97147 -3.34553,2.21044c-2.1507,0.41819 -4.18191,0.17922 -5.85467,-1.49354c-1.67276,-1.67276 -2.09095,-4.48062 -1.01561,-6.7508c1.01561,-2.1507 3.22604,-3.34553 5.67545,-3.1663c3.22604,0.23897 5.55596,2.92734 5.19751,6.51183c-2.92734,0.11948 -5.85467,0.11948 -8.78201,0.11948zm0.17922,-2.1507c1.97147,0 3.8832,0 5.85467,0c-0.23897,-1.19483 -1.4338,-2.03121 -2.86759,-2.03121c-1.49354,-0.05974 -2.68837,0.77664 -2.98708,2.03121z" fill="#E42313"/>
     <path stroke="null" id="svg_16" d="m109.30323,42.11595c-0.83638,0 -1.61302,0 -2.4494,0c0,-0.41819 0,-0.83638 0,-1.13509c-0.83638,0.35845 -1.55328,0.77664 -2.38966,0.95586c-3.1663,0.7169 -6.27286,-1.25457 -6.93002,-4.36113c-0.7169,-3.1663 1.25457,-6.27286 4.42087,-6.98976c3.76372,-0.83638 7.34821,1.91173 7.34821,5.79493c0,1.91173 0,3.76372 0,5.73519zm-6.0339,-2.32992c1.97147,0 3.52475,-1.55328 3.52475,-3.52475c0,-1.91173 -1.55328,-3.40527 -3.46501,-3.40527c-1.97147,0 -3.58449,1.61302 -3.58449,3.46501c0,1.91173 1.55328,3.46501 3.52475,3.46501z" fill="#E42313"/>
     <path stroke="null" id="svg_17" d="m84.92868,30.40661c0.83638,0 1.61302,0 2.4494,0c0,0.17922 0,0.35845 0,0.53767c0,1.7325 0,3.40527 0,5.13777c0,2.03121 1.55328,3.58449 3.52475,3.58449c1.97147,0 3.52475,-1.55328 3.52475,-3.58449c0,-1.85199 0,-3.76372 0,-5.67545c0.83638,0 1.61302,0 2.4494,0c0,0.11948 0.05974,0.23897 0.05974,0.35845c0,1.79225 0,3.58449 0,5.317c0,3.28579 -2.62863,5.91441 -5.79493,5.97416c-3.28579,0.05974 -5.97416,-2.4494 -6.15338,-5.73519c-0.11948,-1.91173 -0.05974,-3.8832 -0.05974,-5.91441z" fill="#E42313"/>
     <path stroke="null" id="svg_18" d="m62.04766,24.73116c0,5.79493 0,11.53012 0,17.32505c-0.77664,0 -1.55328,0 -2.38966,0c0,-5.79493 0,-11.53012 0,-17.32505c0.77664,0 1.55328,0 2.38966,0z" fill="#E42313"/>
     <path stroke="null" id="svg_19" d="m73.69727,32.73653c-0.7169,0.89612 -1.07535,1.91173 -1.25457,3.04682c-0.05974,-0.17922 -0.11948,-0.29871 -0.17922,-0.47793c-0.59742,-1.79225 -2.4494,-2.86759 -4.30139,-2.32992c-1.61302,0.47793 -2.4494,1.61302 -2.62863,3.28579c-0.77664,0 -1.61302,0 -2.38966,0c0.05974,-2.21044 1.01561,-3.8832 2.86759,-5.01829c2.50915,-1.55328 5.67545,-1.01561 7.58718,1.19483c0.11948,0.11948 0.17922,0.17922 0.29871,0.29871z" fill="#8B9192"/>
     <path stroke="null" id="svg_20" d="m81.88186,36.8587c0,1.37406 0,2.80785 0,4.18191c-0.95586,0.65716 -2.03121,1.07535 -3.22604,1.07535c-1.67276,0.05974 -3.1663,-0.47793 -4.42087,-1.67276c-0.23897,-0.17922 -0.41819,-0.41819 -0.65716,-0.65716c0.7169,-0.89612 1.07535,-1.97147 1.25457,-3.10656c0.05974,0.17922 0.11948,0.35845 0.17922,0.59742c0.77664,2.21044 3.46501,3.10656 5.37674,1.7325c0.83638,-0.47793 1.25457,-1.25457 1.49354,-2.1507z" fill="#8B9192"/>
     <path stroke="null" id="svg_21" d="m112.46953,41.81725c-0.11948,-0.17922 -0.17922,-0.29871 -0.29871,-0.47793c-0.05974,0.23897 -0.05974,0.47793 -0.11948,0.7169c0,0 -0.05974,0 -0.05974,0c0,-0.41819 0,-0.83638 0,-1.31431c0.17922,0.29871 0.35845,0.53767 0.53767,0.77664c0.17922,-0.29871 0.29871,-0.53767 0.41819,-0.77664c0.05974,0 0.05974,0 0.11948,0.05974c0,0.41819 0,0.89612 0,1.31431c-0.05974,0 -0.05974,0 -0.11948,0c-0.05974,-0.17922 -0.05974,-0.35845 -0.11948,-0.65716c-0.17922,0.11948 -0.23897,0.23897 -0.35845,0.35845z" fill="#E42313"/>
     <path stroke="null" id="svg_22" d="m111.57341,40.7419c-0.65716,0.29871 -0.11948,0.89612 -0.41819,1.25457c-0.35845,-0.35845 0.29871,-1.01561 -0.41819,-1.25457c0.23897,0 0.53767,0 0.83638,0z" fill="#E42313"/>
    </g>
   </g>
  </g>
 </g>
</svg>