<svg width="160" height="50" xmlns="http://www.w3.org/2000/svg" xmlns:svg="http://www.w3.org/2000/svg">
 <g>
  <title>Layer 1</title>
  <g stroke="null" id="Page-1">
   <g stroke="null" id="front-logo">
    <path stroke="null" d="m23.74959,8.17951c-0.09344,0 -0.18688,0 -0.28032,0.09344l-2.52286,1.77535c-0.18688,0.18688 -0.4672,0.18688 -0.65407,0l-2.52286,-1.77535c-0.09344,-0.09344 -0.18688,-0.09344 -0.28032,-0.09344l-11.11927,0c-0.09344,0 -0.28032,0.09344 -0.37376,0.18688c-3.36381,3.45725 -5.41947,8.22265 -5.41947,13.45525c0,10.83895 8.78329,19.80911 19.71568,19.99599c11.21271,0.18688 20.36975,-8.78329 20.36975,-19.90255c0,-5.2326 -2.05566,-10.09144 -5.41947,-13.64213c-0.09344,-0.09344 -0.18688,-0.09344 -0.37376,-0.09344l-11.11927,0zm9.998,13.92244c0,7.47514 -6.35387,13.64213 -13.92244,13.17493c-6.82106,-0.37376 -12.05366,-5.98011 -12.24054,-12.70773c-0.09344,-3.45725 1.02783,-6.72762 3.17693,-9.15704c0.18688,-0.18688 0.18688,-0.4672 0,-0.65407l-3.92445,-3.83101l13.26837,9.5308c0.37376,0.28032 0.84095,0.28032 1.21471,0l13.36181,-9.43736l-4.11133,3.83101c-0.18688,0.18688 -0.18688,0.4672 0,0.65407c1.96222,2.33598 3.17693,5.32604 3.17693,8.59641z" fill="#FF5959" id="Fill-1"/>
    <g stroke="null" id="front-letters">
     <polyline stroke="null" points="54.67797088623047,35.74407768249512 59.8171272277832,35.74407768249512 59.8171272277832,27.70830535888672 67.47914123535156,27.70830535888672 67.47914123535156,23.22321891784668 59.8171272277832,23.22321891784668 59.8171272277832,18.36438274383545 68.78729248046875,18.36438274383545 68.78729248046875,13.692421913146973 54.67797088623047,13.692421913146973 54.67797088623047,35.74407768249512 " fill="#FF5959" id="Fill-2"/>
     <path stroke="null" d="m88.97016,20.88724c0,-4.01789 -2.70974,-7.28826 -9.62424,-7.28826c-2.6163,0 -4.67196,0.18688 -6.54075,0.37376l0,21.77134l5.13916,0l0,-7.19482c0.74751,0 1.12127,0.09344 1.86878,0.09344c0.28032,0 0.56064,0 0.84095,0l3.73757,7.19482l5.79323,0l-5.2326,-8.50297c2.6163,-1.49503 4.01789,-3.83101 4.01789,-6.44731l0,0zm-9.34392,3.55069c-0.56064,0 -0.93439,0 -1.58847,-0.09344l0,-6.07355c0.74751,-0.09344 1.21471,-0.18688 1.96222,-0.18688c2.24254,0 3.64413,1.12127 3.64413,2.89662c0,2.24254 -1.58847,3.45725 -4.01789,3.45725l0,0z" fill="#FF5959" id="Fill-3"/>
     <path stroke="null" d="m103.45324,13.31866c-6.82106,0 -11.49302,4.85884 -11.49302,11.39959c0,6.44731 4.39164,11.30615 11.21271,11.30615c6.82106,0 11.49302,-4.85884 11.49302,-11.30615c0.09344,-6.44731 -4.39164,-11.39959 -11.21271,-11.39959l0,0zm-0.09344,18.22065c-3.55069,0 -5.88667,-2.89662 -5.88667,-6.82106c0,-3.92445 2.33598,-6.82106 5.88667,-6.82106c3.55069,0 5.88667,2.89662 5.88667,6.82106c0,3.92445 -2.42942,6.82106 -5.88667,6.82106l0,0z" fill="#FF5959" id="Fill-4"/>
     <polyline stroke="null" points="132.69970703125,25.092004776000977 119.52479553222656,13.318663597106934 118.77727508544922,13.412101745605469 118.77727508544922,35.74407768249512 123.91643524169922,35.74407768249512 123.91643524169922,24.251052856445312 137.2782440185547,36.11783409118652 137.8388671875,36.02439308166504 137.8388671875,13.692421913146973 132.69970703125,13.692421913146973 132.69970703125,25.092004776000977 " fill="#FF5959" id="Fill-5"/>
     <polyline stroke="null" points="141.01580810546875,13.692421913146973 141.01580810546875,18.36438274383545 147.64999389648438,18.36438274383545 147.64999389648438,35.74407768249512 152.7891387939453,35.74407768249512 152.7891387939453,18.36438274383545 159.42333984375,18.36438274383545 159.42333984375,13.692421913146973 141.01580810546875,13.692421913146973 " fill="#FF5959" id="Fill-6"/>
    </g>
   </g>
  </g>
 </g>
</svg>