<svg width="160" height="50" xmlns="http://www.w3.org/2000/svg" xmlns:svg="http://www.w3.org/2000/svg">
 <g>
  <title>Layer 1</title>
  <g stroke="null" id="svg_1">
   <rect stroke="null" id="svg_2" height="34.4" width="4.4" fill="#448EE1" y="6.31406" x="54.9"/>
   <path stroke="null" id="svg_3" d="m16.5,10.61406c1.3,0 2.7,0.4 3.8,1.2l0,-4.4c-1.3,-0.8 -2.8,-1.2 -4.3,-1.1c-4.6,0 -7.6,2.7 -7.6,8.1l0,4.1l-3.4,0l0,4.1l3.4,0l0,18.1l4.8,0l0,-18.2l7.3,0l0,-4.1l-7.3,0l0,-4.2c0.1,-2.6 1.2,-3.6 3.3,-3.6z" fill="#448EE1"/>
   <path stroke="null" id="svg_4" d="m71.3,21.91406c2.2,0 4.4,0.8 6.1,2.2l0,-4.5c-1.9,-1.2 -4.1,-1.7 -6.3,-1.7c-4.4,0 -7.8,2.2 -7.8,6.7c0,3.8 1.9,5.6 6.5,6.7c2.8,0.7 4.1,1.4 4.1,3.1c0,1.8 -1.4,2.5 -3.6,2.5c-2.4,-0.1 -4.8,-1 -6.7,-2.5l0,4.6c2,1.2 4.4,1.8 6.7,1.8c4.7,0 8.3,-2.1 8.3,-6.7c0,-3.9 -2.2,-5.8 -7.2,-6.9c-2.5,-0.7 -3.5,-1.4 -3.5,-2.9s1.3,-2.4 3.4,-2.4z" fill="#448EE1"/>
   <rect stroke="null" id="svg_5" height="34.4" width="4.4" fill="#448EE1" y="6.31406" x="46"/>
   <path stroke="null" id="svg_6" d="m22.7,18.51406l0,14.2c0,6.1 3.9,8.1 10.1,8.1c2.9,0 5.7,-0.3 8.5,-1l0,-21.3l-4.8,0l0,18c-1.2,0.2 -2.5,0.3 -3.8,0.3c-3.2,0 -5.2,-1.2 -5.2,-4.4l0,-13.9l-4.8,0z" fill="#448EE1"/>
   <path stroke="null" id="svg_7" d="m82.3,12.91406l0,5.5l-3,0l0,4.1l3,0l0,11.5c0,5 3,6.8 6.6,6.8c1.8,0 3.6,-0.4 5.3,-1.2l0,-4.4c-1.2,0.8 -2.6,1.2 -4,1.2c-1.9,0.1 -3,-0.8 -3,-3.4l0,-10.5l6.2,0l0,-4.1l-6.2,0l0,-5.5l-4.9,0z" fill="#448EE1"/>
   <polygon stroke="null" id="svg_8" points="143.10000610351562,49.514060974121094 155,18.514060974121094 150,18.514060974121094 143.8000030517578,35.61406326293945 137.60000610351562,18.514060974121094 132.39999389648438,18.514060974121094 141.39999389648438,41.314064025878906 138.3000030517578,49.514060974121094 " fill="#448EE1"/>
   <path stroke="null" id="svg_9" d="m129.1,22.71406c0.8,0 1.6,0.1 2.3,0.2l-1.8,-4.8l-0.5,0c-3,0 -5.9,0.8 -8.6,2.2l0,20.3l4.9,0l0,-17.2c1.2,-0.5 2.5,-0.7 3.7,-0.7z" fill="#448EE1"/>
   <path stroke="null" id="svg_10" d="m117.5,29.41406c0,-6.8 -4.7,-11.4 -11.3,-11.4s-11.3,4.6 -11.3,11.4c0,6.2 5.1,11.3 11.3,11.3c6.3,0 11.3,-5.1 11.3,-11.3c0,0 0,0 0,0zm-17.6,0c0,-4.4 2.7,-7.2 6.3,-7.2s6.4,2.8 6.4,7.2s-2.6,7.2 -6.4,7.2s-6.3,-2.8 -6.3,-7.2z" fill="#448EE1"/>
  </g>
 </g>
</svg>