<?xml version="1.0"?>
<svg width="160" height="50" xmlns="http://www.w3.org/2000/svg" xmlns:svg="http://www.w3.org/2000/svg">
 <g>
  <title>Layer 1</title>
  <g stroke="null" id="svg_1">
   <g stroke="null" id="svg_2">
    <path stroke="null" id="svg_3" d="m36.102908,31.744895c-1.990296,0 -3.685734,-0.737147 -5.160028,-2.137726c-1.474294,-1.400579 -2.137726,-3.096017 -2.137726,-5.086313c0,-1.990296 0.737147,-3.685734 2.137726,-5.086313c1.474294,-1.400579 3.169731,-2.137726 5.160028,-2.137726c1.916582,0 3.538305,0.663432 4.938884,1.990296l-1.400579,1.400579c-1.032006,-0.958291 -2.21144,-1.400579 -3.538305,-1.400579c-1.474294,0 -2.653728,0.516003 -3.685734,1.548008c-1.032006,1.032006 -1.474294,2.285155 -1.474294,3.685734c0,1.474294 0.516003,2.727443 1.474294,3.685734c1.032006,1.032006 2.21144,1.548008 3.685734,1.548008c1.474294,0 2.653728,-0.516003 3.612019,-1.474294c0.589717,-0.589717 0.958291,-1.400579 1.10572,-2.506299l-4.717739,0l0,-1.990296l6.634321,0c0.073715,0.368573 0.073715,0.737147 0.073715,1.25315c0,1.916582 -0.589717,3.46459 -1.695438,4.644025c-1.25315,1.400579 -2.948587,2.064011 -5.012598,2.064011zm15.406368,-1.326864c-0.884576,0.884576 -1.990296,1.326864 -3.317161,1.326864c-1.326864,0 -2.432584,-0.442288 -3.317161,-1.326864c-0.884576,-0.884576 -1.326864,-1.990296 -1.326864,-3.317161c0,-1.326864 0.442288,-2.432584 1.326864,-3.317161c0.884576,-0.884576 1.990296,-1.326864 3.317161,-1.326864c1.326864,0 2.432584,0.442288 3.317161,1.326864c0.884576,0.884576 1.326864,1.990296 1.326864,3.317161c0.073715,1.326864 -0.442288,2.432584 -1.326864,3.317161zm-5.160028,-1.25315c0.516003,0.516003 1.10572,0.810861 1.842867,0.810861c0.737147,0 1.326864,-0.294859 1.842867,-0.810861c0.516003,-0.516003 0.810861,-1.179435 0.810861,-1.990296c0,-0.810861 -0.221144,-1.474294 -0.737147,-1.990296c-0.516003,-0.516003 -1.10572,-0.810861 -1.842867,-0.810861c-0.737147,0 -1.326864,0.294859 -1.842867,0.810861c-0.516003,0.516003 -0.737147,1.179435 -0.737147,1.990296c-0.073715,0.737147 0.147429,1.400579 0.663432,1.990296zm15.332653,1.25315c-0.884576,0.884576 -1.990296,1.326864 -3.317161,1.326864c-1.326864,0 -2.432584,-0.442288 -3.317161,-1.326864c-0.884576,-0.884576 -1.326864,-1.990296 -1.326864,-3.317161c0,-1.326864 0.442288,-2.432584 1.326864,-3.317161c0.884576,-0.884576 1.990296,-1.326864 3.317161,-1.326864c1.326864,0 2.432584,0.442288 3.317161,1.326864c0.884576,0.884576 1.326864,1.990296 1.326864,3.317161c0.073715,1.326864 -0.442288,2.432584 -1.326864,3.317161zm-5.160028,-1.25315c0.516003,0.516003 1.10572,0.810861 1.842867,0.810861c0.737147,0 1.326864,-0.294859 1.842867,-0.810861c0.516003,-0.516003 0.810861,-1.179435 0.810861,-1.990296c0,-0.810861 -0.221144,-1.474294 -0.737147,-1.990296c-0.516003,-0.516003 -1.10572,-0.810861 -1.842867,-0.810861c-0.737147,0 -1.326864,0.294859 -1.842867,0.810861c-0.516003,0.516003 -0.737147,1.179435 -0.737147,1.990296c-0.073715,0.737147 0.147429,1.400579 0.663432,1.990296zm11.868063,6.781751c-1.032006,0 -1.916582,-0.294859 -2.580014,-0.810861c-0.737147,-0.516003 -1.179435,-1.179435 -1.548008,-1.916582l1.769152,-0.737147c0.221144,0.442288 0.516003,0.810861 0.884576,1.179435c0.368573,0.294859 0.884576,0.516003 1.474294,0.516003c0.810861,0 1.400579,-0.221144 1.842867,-0.737147c0.442288,-0.442288 0.663432,-1.179435 0.663432,-1.990296l0,-0.663432l-0.073715,0c-0.589717,0.737147 -1.400579,1.032006 -2.432584,1.032006c-1.179435,0 -2.21144,-0.442288 -3.096017,-1.326864c-0.958291,-0.958291 -1.400579,-2.064011 -1.400579,-3.317161c0,-1.326864 0.442288,-2.35887 1.326864,-3.317161c0.884576,-0.884576 1.916582,-1.400579 3.096017,-1.400579c0.516003,0 1.032006,0.073715 1.400579,0.294859c0.442288,0.221144 0.737147,0.442288 1.032006,0.737147l0.073715,0l0,-0.737147l1.916582,0l0,8.329759c0,1.621723 -0.442288,2.801158 -1.25315,3.612019c-0.737147,0.884576 -1.769152,1.25315 -3.096017,1.25315zm0.147429,-5.970889c0.737147,0 1.326864,-0.294859 1.769152,-0.810861c0.442288,-0.516003 0.737147,-1.179435 0.737147,-1.990296c0,-0.810861 -0.221144,-1.474294 -0.737147,-1.990296c-0.442288,-0.516003 -1.032006,-0.810861 -1.769152,-0.810861c-0.737147,0 -1.326864,0.294859 -1.842867,0.810861c-0.516003,0.516003 -0.737147,1.179435 -0.737147,1.990296c0,0.810861 0.221144,1.474294 0.737147,1.990296c0.516003,0.516003 1.10572,0.810861 1.842867,0.810861zm7.740041,-12.162922l0,13.637216l-2.064011,0l0,-13.637216l2.064011,0zm5.602316,13.932074c-1.326864,0 -2.432584,-0.442288 -3.317161,-1.326864c-0.884576,-0.884576 -1.326864,-1.990296 -1.326864,-3.317161c0,-1.326864 0.442288,-2.506299 1.25315,-3.317161c0.884576,-0.884576 1.916582,-1.326864 3.096017,-1.326864c0.589717,0 1.10572,0.073715 1.548008,0.294859c0.516003,0.221144 0.884576,0.442288 1.179435,0.810861c0.294859,0.294859 0.589717,0.663432 0.737147,0.958291c0.221144,0.294859 0.368573,0.589717 0.442288,0.884576l0.221144,0.516003l-6.192033,2.580014c0.516003,0.958291 1.25315,1.400579 2.285155,1.400579c0.958291,0 1.695438,-0.442288 2.285155,-1.25315l1.621723,1.032006c-0.368573,0.516003 -0.884576,1.032006 -1.474294,1.400579c-0.663432,0.516003 -1.400579,0.663432 -2.35887,0.663432zm-2.580014,-4.791454l4.128022,-1.695438c-0.147429,-0.294859 -0.368573,-0.516003 -0.663432,-0.737147c-0.294859,-0.147429 -0.663432,-0.294859 -1.10572,-0.294859c-0.589717,0 -1.179435,0.221144 -1.695438,0.737147c-0.442288,0.516003 -0.737147,1.179435 -0.663432,1.990296z" fill="#757575"/>
    <path stroke="null" id="svg_4" d="m90.135768,31.52375l4.791454,-12.60521l1.842867,0l4.791454,12.60521l-1.769152,0l-1.179435,-3.390875l-5.307457,0l-1.25315,3.390875l-1.916582,0zm3.612019,-4.938884l4.201737,0l-2.064011,-5.67603l-0.073715,0l-2.064011,5.67603z" fill="#757575"/>
    <path stroke="null" id="svg_5" d="m104.288986,22.899133l0,1.179435l0.073715,0c0.221144,-0.442288 0.589717,-0.737147 1.10572,-1.032006c0.516003,-0.294859 1.032006,-0.442288 1.621723,-0.442288c1.032006,0 1.916582,0.294859 2.432584,0.958291c0.589717,0.663432 0.810861,1.548008 0.810861,2.653728l0,5.307457l-1.621723,0l0,-5.012598c0,-1.621723 -0.737147,-2.35887 -2.137726,-2.35887c-0.663432,0 -1.179435,0.294859 -1.621723,0.810861c-0.442288,0.516003 -0.663432,1.179435 -0.663432,1.842867l0,4.791454l-1.621723,0l0,-8.698332l1.621723,0z" fill="#757575"/>
    <path stroke="null" id="svg_6" d="m114.9039,31.744895c-0.884576,0 -1.695438,-0.294859 -2.285155,-0.810861c-0.589717,-0.516003 -0.958291,-1.25315 -0.958291,-2.064011c0,-0.958291 0.368573,-1.695438 1.10572,-2.21144c0.737147,-0.516003 1.621723,-0.810861 2.727443,-0.810861c0.958291,0 1.695438,0.147429 2.35887,0.516003l0,-0.221144c0,-0.663432 -0.221144,-1.10572 -0.663432,-1.548008c-0.442288,-0.368573 -0.958291,-0.589717 -1.621723,-0.589717c-0.442288,0 -0.884576,0.147429 -1.25315,0.368573c-0.368573,0.221144 -0.663432,0.516003 -0.810861,0.884576l-1.474294,-0.663432c0.221144,-0.516003 0.589717,-1.032006 1.179435,-1.400579c0.589717,-0.442288 1.326864,-0.663432 2.35887,-0.663432c1.10572,0 1.990296,0.294859 2.727443,0.958291c0.737147,0.663432 1.10572,1.548008 1.10572,2.727443l0,5.233742l-1.548008,0l0,-1.179435l-0.147429,0c-0.589717,1.032006 -1.548008,1.474294 -2.801158,1.474294zm0.221144,-1.474294c0.663432,0 1.25315,-0.221144 1.842867,-0.737147c0.516003,-0.516003 0.810861,-1.10572 0.810861,-1.769152c-0.442288,-0.368573 -1.179435,-0.589717 -2.064011,-0.589717c-0.810861,0 -1.400579,0.147429 -1.769152,0.516003c-0.368573,0.368573 -0.589717,0.737147 -0.589717,1.179435c0,0.442288 0.147429,0.737147 0.516003,1.032006c0.368573,0.294859 0.810861,0.368573 1.25315,0.368573z" fill="#757575"/>
    <path stroke="null" id="svg_7" d="m122.791371,31.52375l-1.621723,0l0,-12.60521l1.621723,0l0,12.60521z" fill="#757575"/>
    <path stroke="null" id="svg_8" d="m127.066822,35.283199l-1.695438,0l1.990296,-4.349166l-3.538305,-8.108615l1.769152,0l2.580014,6.192033l0,0l2.506299,-6.192033l1.769152,0l-5.381172,12.457781z" fill="#757575"/>
    <path stroke="null" id="svg_9" d="m137.313163,31.67118c-0.884576,0 -1.621723,-0.221144 -2.064011,-0.737147c-0.442288,-0.516003 -0.737147,-1.179435 -0.737147,-2.064011l0,-4.496595l-1.548008,0l0,-1.474294l1.548008,0l0,-2.653728l1.621723,0l0,2.653728l2.137726,0l0,1.474294l-2.137726,0l0,4.422881c0,0.958291 0.368573,1.400579 1.179435,1.400579c0.294859,0 0.516003,-0.073715 0.737147,-0.147429l0.589717,1.400579c-0.442288,0.073715 -0.810861,0.221144 -1.326864,0.221144z" fill="#757575"/>
    <path stroke="null" id="svg_10" d="m141.662329,20.687693c-0.221144,0.221144 -0.516003,0.368573 -0.810861,0.368573s-0.589717,-0.147429 -0.810861,-0.368573c-0.221144,-0.221144 -0.368573,-0.516003 -0.368573,-0.810861c0,-0.294859 0.147429,-0.589717 0.368573,-0.810861c0.221144,-0.221144 0.516003,-0.368573 0.810861,-0.368573s0.589717,0.147429 0.810861,0.368573c0.221144,0.221144 0.368573,0.516003 0.368573,0.810861c-0.073715,0.294859 -0.147429,0.589717 -0.368573,0.810861zm0,10.836058l-1.621723,0l0,-8.624617l1.621723,0l0,8.624617z" fill="#757575"/>
    <path stroke="null" id="svg_11" d="m147.633218,31.744895c-1.326864,0 -2.35887,-0.442288 -3.169731,-1.326864c-0.810861,-0.884576 -1.25315,-1.990296 -1.25315,-3.317161c0,-1.326864 0.442288,-2.432584 1.25315,-3.317161c0.810861,-0.884576 1.916582,-1.326864 3.169731,-1.326864c0.958291,0 1.769152,0.221144 2.35887,0.737147c0.663432,0.442288 1.10572,1.032006 1.400579,1.769152l-1.474294,0.589717c-0.442288,-1.10572 -1.25315,-1.621723 -2.432584,-1.621723c-0.737147,0 -1.326864,0.294859 -1.916582,0.884576c-0.516003,0.589717 -0.810861,1.326864 -0.810861,2.21144c0,0.884576 0.294859,1.621723 0.810861,2.21144c0.516003,0.589717 1.179435,0.884576 1.916582,0.884576c1.179435,0 2.064011,-0.516003 2.506299,-1.621723l1.474294,0.589717c-0.294859,0.737147 -0.737147,1.326864 -1.400579,1.769152c-0.663432,0.663432 -1.474294,0.884576 -2.432584,0.884576z" fill="#757575"/>
    <path stroke="null" id="svg_12" d="m156.036691,31.744895c-0.958291,0 -1.769152,-0.221144 -2.35887,-0.737147c-0.663432,-0.442288 -1.10572,-1.032006 -1.400579,-1.769152l1.474294,-0.589717c0.442288,1.10572 1.25315,1.621723 2.35887,1.621723c0.516003,0 0.884576,-0.147429 1.25315,-0.368573c0.294859,-0.221144 0.516003,-0.516003 0.516003,-0.884576c0,-0.589717 -0.368573,-0.958291 -1.179435,-1.179435l-1.769152,-0.442288c-0.516003,-0.147429 -1.10572,-0.442288 -1.548008,-0.810861c-0.516003,-0.368573 -0.737147,-0.958291 -0.737147,-1.621723c0,-0.737147 0.368573,-1.400579 1.032006,-1.842867c0.663432,-0.442288 1.474294,-0.737147 2.432584,-0.737147c0.737147,0 1.474294,0.147429 2.064011,0.516003c0.589717,0.368573 1.032006,0.810861 1.25315,1.474294l-1.400579,0.589717c-0.294859,-0.737147 -0.958291,-1.179435 -1.990296,-1.179435c-0.516003,0 -0.884576,0.073715 -1.179435,0.294859c-0.294859,0.221144 -0.516003,0.442288 -0.516003,0.810861c0,0.516003 0.368573,0.810861 1.179435,1.032006l1.695438,0.368573c0.810861,0.221144 1.400579,0.516003 1.769152,0.958291c0.368573,0.442288 0.589717,0.958291 0.589717,1.548008c0,0.810861 -0.294859,1.400579 -0.958291,1.916582c-0.737147,0.810861 -1.548008,1.032006 -2.580014,1.032006z" fill="#757575"/>
   </g>
   <g stroke="null" id="svg_13">
    <path stroke="null" id="svg_14" d="m14.578221,35.430628l-12.531496,0c-0.810861,0 -1.548008,-0.737147 -1.548008,-1.621723l0,-0.221144l14.079504,0l0,1.842867z" fill="#F2AF1C"/>
    <path stroke="null" id="svg_15" d="m21.875975,15.896238l-7.297753,0l0,-0.221144c0,-0.884576 0.737147,-1.621723 1.621723,-1.621723l4.054307,0c0.884576,0 1.621723,0.737147 1.621723,1.621723l0,0.221144z" fill="#F79625"/>
    <path stroke="null" id="svg_16" d="m20.254252,35.430628l-5.67603,0l0,-1.842867l7.297753,0l0,0.221144c0,0.884576 -0.737147,1.621723 -1.621723,1.621723z" fill="#E77024"/>
    <path stroke="null" id="svg_17" d="m7.206754,28.059161l-5.160028,0c-0.810861,0 -1.548008,0.737147 -1.548008,1.621723l0,0.221144l6.708036,0l0,-1.842867z" fill="#FFD236"/>
    <path stroke="null" id="svg_18" d="m14.578221,20.761407l-5.749745,0c-0.884576,0 -1.621723,0.737147 -1.621723,1.621723l0,0.221144l7.371468,0l0,-1.842867z" fill="#FFD236"/>
    <path stroke="null" id="svg_19" d="m7.206754,22.604274l0,5.67603l-5.160028,0c-0.884576,0 -1.621723,0.737147 -1.621723,1.621723l0,3.759449c0,0.884576 0.737147,1.621723 1.621723,1.621723l12.531496,0l0,-5.749745l0,-1.179435l0,-7.371468l-5.749745,0c-0.884576,0 -1.621723,0.737147 -1.621723,1.621723z" fill="#FFCA05"/>
    <path stroke="null" id="svg_20" d="m20.254252,35.209484l-5.67603,0l0,-19.313246c0,-0.884576 0.737147,-1.621723 1.621723,-1.621723l4.054307,0c0.884576,0 1.621723,0.737147 1.621723,1.621723l0,17.765238c0,0.810861 -0.737147,1.548008 -1.621723,1.548008z" fill="#F48020"/>
    <linearGradient stroke="null" transform="translate(0,9.5367431640625e-7) translate(0,6.803370475769043) translate(-0.22499698400497437,0) translate(0.75,7.25) translate(0.6500000357627869,7.25) scale(0.73714679479599) translate(-0.6500000357627869,-7.25) " y2="0.50115" x2="1" y1="0.50115" x1="0.00404" id="SVGID_1_">
     <stop stroke="null" stop-color="#EB7624" offset="0"/>
     <stop stroke="null" stop-color="#F17C22" offset="0.7316"/>
     <stop stroke="null" stop-color="#F48020" offset="1"/>
    </linearGradient>
    <path stroke="null" id="svg_21" d="m20.254252,35.209484l-5.67603,0l0,-14.448077l7.297753,7.740041l0,5.160028c0,0.810861 -0.737147,1.548008 -1.621723,1.548008z" fill="url(#SVGID_1_)"/>
    <linearGradient stroke="null" transform="translate(0,9.5367431640625e-7) translate(0,6.803370475769043) translate(-0.22499698400497437,0) translate(0.75,7.25) translate(0.6500000357627869,7.25) scale(0.73714679479599) translate(-0.6500000357627869,-7.25) " y2="0.50088" x2="1" y1="0.50088" x1="0.03333" id="SVGID_2_">
     <stop stroke="null" stop-color="#E36C25" offset="0"/>
     <stop stroke="null" stop-color="#EC7722" stop-opacity="0.5523" offset="0.4477"/>
     <stop stroke="null" stop-color="#F48020" stop-opacity="0" offset="1"/>
    </linearGradient>
    <polygon stroke="null" id="svg_22" points="15.462797164916992,35.43062686920166 14.578222274780273,35.43062686920166 14.578222274780273,20.761406898498535 15.462797164916992,21.71969699859619 " fill="url(#SVGID_2_)"/>
   </g>
  </g>
 </g>
</svg>