<svg id="Export" xmlns="http://www.w3.org/2000/svg" viewBox="0 0 180 35.31"><defs><style>.cls-1{fill:#23a566;}.cls-2{fill:#1c8f5a;}.cls-3{fill:#8ed1b1;}.cls-4{fill:#fff;fill-rule:evenodd;}.cls-5{fill:#787878;}</style></defs><title>google-sheets-logo_cropped</title><path class="cls-1" d="M69.1,33.27a2,2,0,0,1-2,2H45.77a2,2,0,0,1-2-2V2.05a2,2,0,0,1,2-2H59.46L69.1,9.88V33.27Z"/><path class="cls-2" d="M60.52,9.63l8.58,8.2,0-8h-7.6a1.92,1.92,0,0,1-.95-.24Z"/><path class="cls-3" d="M69.1,9.87H61.48a2,2,0,0,1-2-2V0L69.1,9.87Z"/><path class="cls-4" d="M63,28.78H49.82V17.35H63V28.78ZM57.23,19v2h4.15V19Zm0,3.26v1.91h4.15V22.25Zm0,3.13v1.77h4.15V25.38ZM55.6,27.15V25.38H51.45v1.77Zm0-3V22.25H51.45v1.91Zm0-3.13V19H51.45v2Z"/><g id="Ysr224.tif"><path class="cls-5" d="M92,9c.85,0,1.7,0,2.55,0h.66s0,.39,0,.63a6.26,6.26,0,0,1-7.13,6.94,7,7,0,0,1-6.37-7.34,6.66,6.66,0,0,1,4.22-5.92,6.78,6.78,0,0,1,7.16.93c.17.12.4.32.4.32a4.53,4.53,0,0,1-.34.38l0,0-.92.92s-.62-.44-1-.63a5.05,5.05,0,0,0-5.81.58,5.15,5.15,0,0,0-1.27,5.81,4.89,4.89,0,0,0,4.86,3,4.1,4.1,0,0,0,4.15-3.16c.12-.52-.05-.58-.5-.57-1.13,0-2.27,0-3.41,0h-.52v-.52c0-.7,0-1.4,0-1.4H92Z"/><path class="cls-5" d="M122,15.69a3.87,3.87,0,0,1-5.53-.56,4.51,4.51,0,0,1,0-6A3.88,3.88,0,0,1,122,8.62c-.1-.84.48-.65.92-.65,1,0,1,0,1,1,0,2.29,0,4.59,0,6.88a6.76,6.76,0,0,1-.28,2,3.82,3.82,0,0,1-3.72,2.78,4.32,4.32,0,0,1-4-2.29c0-.08-.11-.2-.09-.23.34-.44.91-.46,1.35-.71s.36.09.47.26a2.46,2.46,0,0,0,3.08,1C121.7,18.28,122.18,17.23,122,15.69Zm-4.66-3.52a2.53,2.53,0,0,0,1.92,2.62A2.37,2.37,0,0,0,122.1,13a2.76,2.76,0,0,0-1.69-3.45A2.49,2.49,0,0,0,117.35,12.17Z"/><path class="cls-5" d="M114.54,12.24a4.38,4.38,0,0,1-4.64,4.37,4.46,4.46,0,1,1,.38-8.91A4.33,4.33,0,0,1,114.54,12.24Zm-4.43,2.6a2.58,2.58,0,0,0,2.49-2.73,2.54,2.54,0,1,0-5.06.08A2.58,2.58,0,0,0,110.11,14.84Z"/><path class="cls-5" d="M104.78,12.12a4.48,4.48,0,1,1-9,0,4.48,4.48,0,0,1,9,0Zm-7,0a2.52,2.52,0,1,0,5,0,2.52,2.52,0,1,0-5,0Z"/><path class="cls-5" d="M128.09,12a4.22,4.22,0,0,1,2.24-3.85,3.8,3.8,0,0,1,4,.17,4.87,4.87,0,0,1,1.77,2.37c.06.14.12.32.12.32l-.42.18c-1.65.68-3.33,1.3-5,2-.32.14-.6.29-.6.29a6.61,6.61,0,0,0,.4.55,2.49,2.49,0,0,0,3.57,0c.19-.21.49-.5.49-.5l.52.43c.51.37.95.73.95.73a8.26,8.26,0,0,1-.87.81,4.31,4.31,0,0,1-4.79.61A4.21,4.21,0,0,1,128.09,12ZM130,12c1.19-.49,2.35-1,3.52-1.45l.42-.18a2.62,2.62,0,0,0-.34-.45,2,2,0,0,0-2.26-.26A2.35,2.35,0,0,0,130,12Z"/><path class="cls-5" d="M92.81,25.1a3.44,3.44,0,0,1,3.43-1.31,2.39,2.39,0,0,1,2.32,2.47c.07,1.88,0,3.76,0,5.63,0,.6-.43.34-.7.38s-.57,0-.57-.45c0-1.73,0-3.46,0-5.18a1.68,1.68,0,0,0-.75-1.58,2.47,2.47,0,0,0-3.64,1.59,7.61,7.61,0,0,0-.13,1.43c0,1.18,0,2.36,0,3.54,0,.56-.16.69-.7.67s-.58-.13-.58-.59q0-5.4,0-10.81c0-.54.23-.57.66-.59s.63.14.61.62C92.79,22.25,92.81,23.57,92.81,25.1Z"/><path class="cls-5" d="M85.25,32.41a7.41,7.41,0,0,1-2.34-.29.93.93,0,0,1-.54-1.24c.13-.26.3-.06.44,0a8.16,8.16,0,0,0,3.36.4,1.87,1.87,0,0,0,2-2.07A1.71,1.71,0,0,0,87,27.74c-.75-.36-1.53-.65-2.29-1-1.63-.69-2.41-1.87-2.21-3.32a2.88,2.88,0,0,1,2.84-2.51,7.93,7.93,0,0,1,3.24.36c.43.14.52.33.34.74s-.22.62-.72.41a5.74,5.74,0,0,0-2.63-.39,1.85,1.85,0,0,0-1.73,1.19,1.83,1.83,0,0,0,.88,2.14,17.49,17.49,0,0,0,2.22,1,3.54,3.54,0,0,1,2.28,1.93,3,3,0,0,1-2.38,4A6,6,0,0,1,85.25,32.41Z"/><path class="cls-5" d="M105,28.3c-.81,0-1.62,0-2.42,0-.41,0-.48.17-.45.52a2.64,2.64,0,0,0,2.92,2.54A7.52,7.52,0,0,0,107,31c.17-.06.46-.33.55,0s.22.7-.15,1a4.33,4.33,0,0,1-6.52-3.07,6,6,0,0,1,.41-3.07,3.49,3.49,0,0,1,4-2A3.33,3.33,0,0,1,107.9,27c.09,1.33.09,1.33-1.25,1.33Zm-.68-1h1.84c.29,0,.44-.09.43-.42a2,2,0,0,0-2.16-2.12,2.23,2.23,0,0,0-2.22,2c-.09.41,0,.56.41.54S103.77,27.3,104.33,27.3Z"/><path class="cls-5" d="M113.9,28.3c-.78,0-1.57,0-2.36,0-.44,0-.51.18-.47.55a2.65,2.65,0,0,0,3.08,2.49A9.2,9.2,0,0,0,116,31c.17-.05.46-.33.53,0s.24.76-.2.93a5.31,5.31,0,0,1-4.62-.05,3.71,3.71,0,0,1-1.88-3.38A4.67,4.67,0,0,1,111,24.66,3.44,3.44,0,0,1,114.8,24a3.22,3.22,0,0,1,2,3c.1,1.29.08,1.29-1.22,1.29Zm-.61-1h1.77c.22,0,.43,0,.47-.3A2.19,2.19,0,0,0,114,24.81a2.35,2.35,0,0,0-2.89,2.11c0,.32.07.39.35.39Z"/><path class="cls-5" d="M127.21,9.87c0,2,0,3.93,0,5.89,0,.43-.08.61-.56.61-1.42,0-1.42,0-1.42-1.38,0-3.72,0-7.43,0-11.14,0-.53.16-.65.66-.64,1.32,0,1.32,0,1.32,1.29Z"/><path class="cls-5" d="M126.66,32.41a5.51,5.51,0,0,1-2.12-.33,1,1,0,0,1-.4-1.16c.13-.21.27-.05.39,0a5.89,5.89,0,0,0,2.62.47,2.72,2.72,0,0,0,.9-.18,1.08,1.08,0,0,0,.8-.94,1.12,1.12,0,0,0-.58-1.15,13,13,0,0,0-2-.9,5.23,5.23,0,0,1-1.33-.68,2,2,0,0,1,.29-3.39,5.5,5.5,0,0,1,4.34,0c.4.14.17.37.1.57s-.16.61-.63.41a4.81,4.81,0,0,0-2.31-.34A2.85,2.85,0,0,0,126,25a1,1,0,0,0-.24,1.72,6.25,6.25,0,0,0,1.58.77c.52.23,1.06.42,1.56.69a2,2,0,0,1,1.18,2.08,2.16,2.16,0,0,1-1.54,1.93A4.57,4.57,0,0,1,126.66,32.41Z"/><path class="cls-5" d="M121.62,32.41a2.17,2.17,0,0,1-2.5-2.36c0-1.53,0-3.06,0-4.58,0-.5-.11-.73-.65-.67-.19,0-.5.17-.56-.24s.16-.43.4-.5a1.31,1.31,0,0,0,1.06-1.23c0-.21.14-.41.19-.62s.29-.27.51-.28.31.19.3.4v.06c.07.49-.25,1.14.16,1.42s.92.07,1.4.08a3.13,3.13,0,0,0,.53,0c.36,0,.37.2.36.46s0,.48-.36.47-1,0-1.5,0-.61.11-.6.58c0,1.39,0,2.79,0,4.18s.58,2,2,1.8c.17,0,.47-.25.45.17s.2.64-.28.75A3.87,3.87,0,0,1,121.62,32.41Z"/></g></svg>