<?xml version="1.0"?>
<svg width="160" height="50" xmlns="http://www.w3.org/2000/svg" xmlns:svg="http://www.w3.org/2000/svg">
 <g>
  <title>Layer 1</title>
  <g stroke="null" id="Layer_1_1_">
   <g stroke="null" id="svg_1">
    <g stroke="null" id="svg_2">
     <path stroke="null" id="svg_3" d="m31.561163,30.526356c-1.731148,0 -3.262547,-0.599243 -4.527617,-1.864313c-1.265069,-1.265069 -1.930895,-2.729886 -1.930895,-4.461034s0.665826,-3.262547 1.930895,-4.461034c1.265069,-1.265069 2.796469,-1.864313 4.527617,-1.864313c1.664565,0 3.129382,0.599243 4.327869,1.731148l-1.198487,1.198487c-0.865574,-0.798991 -1.930895,-1.265069 -3.129382,-1.265069c-1.265069,0 -2.330391,0.466078 -3.195965,1.331652s-1.331652,1.997478 -1.331652,3.262547s0.466078,2.396973 1.331652,3.262547s1.930895,1.331652 3.195965,1.331652c1.265069,0 2.330391,-0.399496 3.195965,-1.265069c0.532661,-0.532661 0.798991,-1.198487 0.932156,-2.197226l-4.128121,0l0,-1.731148l5.859268,0c0.066583,0.332913 0.066583,0.665826 0.066583,1.065322c0,1.731148 -0.532661,3.062799 -1.5314,4.061538c-1.065322,1.331652 -2.530139,1.864313 -4.394451,1.864313zm13.58285,-1.131904c-0.798991,0.798991 -1.731148,1.198487 -2.929634,1.198487c-1.131904,0 -2.130643,-0.399496 -2.929634,-1.198487c-0.798991,-0.798991 -1.198487,-1.731148 -1.198487,-2.929634c0,-1.131904 0.399496,-2.130643 1.198487,-2.929634s1.731148,-1.198487 2.929634,-1.198487c1.131904,0 2.130643,0.399496 2.929634,1.198487c0.798991,0.798991 1.198487,1.731148 1.198487,2.929634s-0.399496,2.130643 -1.198487,2.929634zm-4.527617,-1.131904c0.466078,0.466078 0.998739,0.732409 1.597982,0.732409s1.198487,-0.26633 1.597982,-0.732409c0.466078,-0.466078 0.665826,-1.065322 0.665826,-1.79773s-0.199748,-1.331652 -0.665826,-1.79773c-0.466078,-0.466078 -0.998739,-0.665826 -1.597982,-0.665826c-0.665826,0 -1.198487,0.199748 -1.597982,0.665826c-0.466078,0.466078 -0.665826,1.065322 -0.665826,1.79773c0,0.732409 0.199748,1.331652 0.665826,1.79773zm13.449684,1.131904c-0.798991,0.798991 -1.731148,1.198487 -2.929634,1.198487c-1.131904,0 -2.130643,-0.399496 -2.929634,-1.198487c-0.798991,-0.798991 -1.198487,-1.731148 -1.198487,-2.929634c0,-1.131904 0.399496,-2.130643 1.198487,-2.929634s1.731148,-1.198487 2.929634,-1.198487c1.131904,0 2.130643,0.399496 2.929634,1.198487c0.798991,0.798991 1.198487,1.731148 1.198487,2.929634s-0.399496,2.130643 -1.198487,2.929634zm-4.527617,-1.131904c0.466078,0.466078 0.998739,0.732409 1.597982,0.732409s1.198487,-0.26633 1.597982,-0.732409c0.466078,-0.466078 0.665826,-1.065322 0.665826,-1.79773s-0.199748,-1.331652 -0.665826,-1.79773s-0.998739,-0.665826 -1.597982,-0.665826c-0.665826,0 -1.198487,0.199748 -1.597982,0.665826c-0.466078,0.466078 -0.665826,1.065322 -0.665826,1.79773c0,0.732409 0.199748,1.331652 0.665826,1.79773zm10.386885,5.992434c-0.932156,0 -1.664565,-0.26633 -2.263808,-0.732409s-1.065322,-1.065322 -1.331652,-1.664565l1.5314,-0.665826c0.133165,0.399496 0.399496,0.732409 0.798991,0.998739c0.332913,0.26633 0.798991,0.466078 1.265069,0.466078c0.665826,0 1.198487,-0.199748 1.597982,-0.599243s0.599243,-0.998739 0.599243,-1.79773l0,-0.599243l-0.066583,0c-0.532661,0.599243 -1.198487,0.932156 -2.130643,0.932156c-1.065322,0 -1.930895,-0.399496 -2.729886,-1.198487c-0.798991,-0.798991 -1.198487,-1.731148 -1.198487,-2.863052s0.399496,-2.130643 1.198487,-2.929634c0.798991,-0.798991 1.664565,-1.198487 2.729886,-1.198487c0.466078,0 0.865574,0.066583 1.265069,0.26633c0.399496,0.199748 0.665826,0.399496 0.865574,0.665826l0.066583,0l0,-0.665826l1.731148,0l0,7.324086c0,1.398235 -0.332913,2.463556 -1.065322,3.195965c-0.798991,0.665826 -1.731148,1.065322 -2.863052,1.065322zm0.133165,-5.326608c0.599243,0 1.131904,-0.26633 1.5314,-0.732409c0.399496,-0.466078 0.599243,-1.065322 0.599243,-1.731148c0,-0.732409 -0.199748,-1.331652 -0.599243,-1.79773s-0.932156,-0.732409 -1.5314,-0.732409s-1.131904,0.26633 -1.597982,0.732409c-0.466078,0.466078 -0.665826,1.065322 -0.665826,1.79773s0.199748,1.265069 0.665826,1.731148c0.466078,0.532661 0.998739,0.732409 1.597982,0.732409zm6.791425,-10.586633l0,11.984867l-1.79773,0l0,-11.984867c0,0 1.79773,0 1.79773,0zm4.927112,12.184615c-1.131904,0 -2.130643,-0.399496 -2.863052,-1.198487c-0.798991,-0.798991 -1.131904,-1.731148 -1.131904,-2.929634s0.399496,-2.197226 1.131904,-2.929634s1.664565,-1.131904 2.729886,-1.131904c0.466078,0 0.932156,0.066583 1.398235,0.26633c0.399496,0.199748 0.798991,0.399496 1.065322,0.665826s0.532661,0.532661 0.665826,0.798991s0.26633,0.532661 0.399496,0.798991l0.199748,0.466078l-5.459773,2.263808c0.399496,0.798991 1.065322,1.265069 1.997478,1.265069c0.798991,0 1.464817,-0.399496 1.997478,-1.131904l1.398235,0.932156c-0.332913,0.466078 -0.732409,0.865574 -1.331652,1.265069c-0.665826,0.466078 -1.398235,0.599243 -2.197226,0.599243zm-2.263808,-4.194704l3.662043,-1.5314c-0.133165,-0.26633 -0.26633,-0.466078 -0.599243,-0.599243c-0.26633,-0.133165 -0.599243,-0.26633 -0.932156,-0.26633c-0.532661,0 -0.998739,0.199748 -1.464817,0.665826s-0.732409,0.998739 -0.665826,1.731148z" fill="#757D80"/>
     <path stroke="null" id="svg_4" d="m86.558387,20.605549l-5.060277,0l0,3.528878l4.527617,0l0,1.331652l-4.527617,0l0,3.528878l5.060277,0l0,1.331652l-6.458512,0l0,-11.119294l6.458512,0l0,1.398235z" fill="#757D80"/>
     <path stroke="null" id="svg_5" d="m91.352334,30.526356c-1.131904,0 -2.06406,-0.399496 -2.796469,-1.131904c-0.732409,-0.798991 -1.065322,-1.731148 -1.065322,-2.863052s0.332913,-2.130643 1.065322,-2.863052c0.732409,-0.798991 1.664565,-1.131904 2.796469,-1.131904c0.865574,0 1.5314,0.199748 2.130643,0.599243c0.532661,0.399496 0.932156,0.932156 1.198487,1.5314l-1.331652,0.532661c-0.399496,-0.932156 -1.065322,-1.398235 -2.130643,-1.398235c-0.599243,0 -1.198487,0.26633 -1.664565,0.798991s-0.732409,1.198487 -0.732409,1.930895c0,0.798991 0.26633,1.464817 0.732409,1.930895c0.466078,0.532661 1.065322,0.798991 1.664565,0.798991c1.065322,0 1.79773,-0.466078 2.197226,-1.398235l1.265069,0.532661c-0.26633,0.599243 -0.665826,1.131904 -1.265069,1.5314c-0.532661,0.399496 -1.198487,0.599243 -2.06406,0.599243z" fill="#757D80"/>
     <path stroke="null" id="svg_6" d="m96.545777,23.668349c0.732409,-0.798991 1.664565,-1.131904 2.796469,-1.131904s2.06406,0.399496 2.796469,1.131904c0.732409,0.798991 1.065322,1.731148 1.065322,2.863052s-0.332913,2.130643 -1.065322,2.863052c-0.732409,0.798991 -1.664565,1.131904 -2.796469,1.131904s-2.06406,-0.399496 -2.796469,-1.131904c-0.732409,-0.798991 -1.065322,-1.731148 -1.065322,-2.863052s0.332913,-2.130643 1.065322,-2.863052zm1.065322,4.86053c0.466078,0.532661 1.065322,0.732409 1.731148,0.732409s1.265069,-0.26633 1.731148,-0.732409c0.466078,-0.532661 0.732409,-1.131904 0.732409,-1.997478c0,-0.798991 -0.26633,-1.464817 -0.732409,-1.997478c-0.466078,-0.532661 -1.065322,-0.732409 -1.731148,-0.732409s-1.265069,0.26633 -1.731148,0.732409c-0.466078,0.532661 -0.732409,1.131904 -0.732409,1.997478c0,0.798991 0.26633,1.464817 0.732409,1.997478z" fill="#757D80"/>
     <path stroke="null" id="svg_7" d="m104.402523,30.326609l0,-7.590416l1.331652,0l0,1.065322l0.066583,0c0.199748,-0.332913 0.532661,-0.665826 0.998739,-0.932156s0.865574,-0.399496 1.331652,-0.399496c1.198487,0 1.997478,0.466078 2.396973,1.464817c0.599243,-0.998739 1.5314,-1.464817 2.663304,-1.464817c0.865574,0 1.597982,0.26633 1.997478,0.865574c0.466078,0.599243 0.665826,1.331652 0.665826,2.330391l0,4.660782l-1.398235,0l0,-4.394451c0,-0.732409 -0.133165,-1.331652 -0.399496,-1.597982c-0.26633,-0.332913 -0.732409,-0.466078 -1.265069,-0.466078c-0.532661,0 -0.998739,0.26633 -1.398235,0.732409c-0.332913,0.466078 -0.532661,0.998739 -0.532661,1.597982l0,4.194704l-1.398235,0l0,-4.394451c0,-0.732409 -0.133165,-1.331652 -0.399496,-1.597982c-0.26633,-0.332913 -0.732409,-0.466078 -1.265069,-0.466078c-0.532661,0 -0.998739,0.26633 -1.398235,0.732409c-0.332913,0.466078 -0.532661,0.998739 -0.532661,1.597982l0,4.194704l-1.464817,0l0,-0.133165z" fill="#757D80"/>
     <path stroke="null" id="svg_8" d="m117.585877,30.326609l0,-7.590416l1.331652,0l0,1.065322l0.066583,0c0.199748,-0.332913 0.532661,-0.665826 0.998739,-0.932156s0.865574,-0.399496 1.331652,-0.399496c1.198487,0 1.997478,0.466078 2.396973,1.464817c0.599243,-0.998739 1.5314,-1.464817 2.663304,-1.464817c0.865574,0 1.597982,0.26633 1.997478,0.865574c0.466078,0.599243 0.665826,1.331652 0.665826,2.330391l0,4.660782l-1.398235,0l0,-4.394451c0,-0.732409 -0.133165,-1.331652 -0.399496,-1.597982c-0.26633,-0.332913 -0.732409,-0.466078 -1.265069,-0.466078c-0.532661,0 -0.998739,0.26633 -1.398235,0.732409c-0.332913,0.466078 -0.532661,0.998739 -0.532661,1.597982l0,4.194704l-1.398235,0l0,-4.394451c0,-0.732409 -0.133165,-1.331652 -0.399496,-1.597982c-0.26633,-0.332913 -0.732409,-0.466078 -1.265069,-0.466078c-0.532661,0 -0.998739,0.26633 -1.398235,0.732409c-0.332913,0.466078 -0.532661,0.998739 -0.532661,1.597982l0,4.194704l-1.464817,0l0,-0.133165z" fill="#757D80"/>
     <path stroke="null" id="svg_9" d="m134.164943,30.526356c-1.131904,0 -2.06406,-0.399496 -2.796469,-1.131904c-0.732409,-0.732409 -1.065322,-1.731148 -1.065322,-2.863052s0.332913,-2.06406 1.065322,-2.863052c0.665826,-0.798991 1.597982,-1.198487 2.663304,-1.198487c1.131904,0 1.997478,0.332913 2.729886,1.065322c0.665826,0.732409 0.998739,1.731148 0.998739,2.929634l0,0.26633l-5.992434,0c0.066583,0.732409 0.26633,1.398235 0.732409,1.79773c0.466078,0.466078 0.998739,0.665826 1.664565,0.665826c0.998739,0 1.731148,-0.466078 2.06406,-1.331652l1.265069,0.532661c-0.26633,0.599243 -0.665826,1.065322 -1.198487,1.464817c-0.599243,0.466078 -1.331652,0.665826 -2.130643,0.665826zm2.06406,-4.927112c0,-0.466078 -0.199748,-0.865574 -0.599243,-1.265069c-0.332913,-0.399496 -0.932156,-0.599243 -1.597982,-0.599243c-0.532661,0 -0.998739,0.133165 -1.398235,0.466078s-0.665826,0.798991 -0.798991,1.331652l4.394451,0.066583l0,0z" fill="#757D80"/>
     <path stroke="null" id="svg_10" d="m140.423707,30.326609l-1.398235,0l0,-7.590416l1.331652,0l0,1.265069l0.066583,0c0.133165,-0.399496 0.466078,-0.732409 0.865574,-0.998739c0.466078,-0.26633 0.865574,-0.399496 1.331652,-0.399496c0.399496,0 0.798991,0.066583 1.065322,0.199748l-0.532661,1.331652c-0.199748,-0.066583 -0.466078,-0.133165 -0.732409,-0.133165c-0.532661,0 -0.998739,0.199748 -1.398235,0.599243c-0.399496,0.399496 -0.599243,0.932156 -0.599243,1.597982l0,4.128121z" fill="#757D80"/>
     <path stroke="null" id="svg_11" d="m147.614628,30.526356c-1.131904,0 -2.06406,-0.399496 -2.796469,-1.131904c-0.732409,-0.798991 -1.065322,-1.731148 -1.065322,-2.863052s0.332913,-2.130643 1.065322,-2.863052c0.732409,-0.798991 1.664565,-1.131904 2.796469,-1.131904c0.865574,0 1.5314,0.199748 2.130643,0.599243c0.532661,0.399496 0.932156,0.932156 1.198487,1.5314l-1.331652,0.532661c-0.399496,-0.932156 -1.065322,-1.398235 -2.130643,-1.398235c-0.599243,0 -1.198487,0.26633 -1.664565,0.798991s-0.732409,1.198487 -0.732409,1.930895c0,0.798991 0.26633,1.464817 0.732409,1.930895c0.466078,0.532661 1.065322,0.798991 1.664565,0.798991c1.065322,0 1.79773,-0.466078 2.197226,-1.398235l1.265069,0.532661c-0.26633,0.599243 -0.665826,1.131904 -1.265069,1.5314c-0.466078,0.399496 -1.198487,0.599243 -2.06406,0.599243z" fill="#757D80"/>
     <path stroke="null" id="svg_12" d="m155.604539,30.526356c-1.131904,0 -2.06406,-0.399496 -2.796469,-1.131904c-0.732409,-0.732409 -1.065322,-1.731148 -1.065322,-2.863052s0.332913,-2.06406 1.065322,-2.863052c0.665826,-0.798991 1.597982,-1.198487 2.663304,-1.198487c1.131904,0 1.997478,0.332913 2.729886,1.065322c0.665826,0.732409 0.998739,1.731148 0.998739,2.929634l0,0.26633l-5.992434,0c0.066583,0.732409 0.26633,1.398235 0.732409,1.79773c0.466078,0.466078 0.998739,0.665826 1.664565,0.665826c0.998739,0 1.731148,-0.466078 2.06406,-1.331652l1.265069,0.532661c-0.26633,0.599243 -0.665826,1.065322 -1.198487,1.464817c-0.599243,0.466078 -1.331652,0.665826 -2.130643,0.665826zm2.06406,-4.927112c0,-0.466078 -0.199748,-0.865574 -0.599243,-1.265069c-0.332913,-0.399496 -0.932156,-0.599243 -1.597982,-0.599243c-0.532661,0 -0.998739,0.133165 -1.398235,0.466078s-0.665826,0.798991 -0.798991,1.331652l4.394451,0.066583l0,0z" fill="#757D80"/>
    </g>
    <rect stroke="null" x="0.800003" id="svg_13" height="14.182093" width="16.978562" fill="#FFFFFF" y="17.27642"/>
    <g stroke="null" id="svg_14">
     <g stroke="null" id="svg_15">
      <path stroke="null" id="svg_16" d="m0.800003,16.943507l0,9.987389l4.527617,-4.660782l3.994956,3.994956l8.45599,-8.45599l0,-0.798991c0,-0.732409 -0.599243,-1.265069 -1.265069,-1.265069c-3.195965,0 -11.385624,0.066583 -14.515006,0c-0.665826,0 -1.198487,0.532661 -1.198487,1.198487z" fill="#F69821"/>
     </g>
     <g stroke="null" id="svg_17">
      <polygon stroke="null" id="svg_18" points="7.325097560882568,24.20100975036621 5.327619552612305,26.26506996154785 7.325097560882568,28.329130172729492 " fill="#F69821"/>
     </g>
     <g stroke="null" id="svg_19">
      <path stroke="null" id="svg_20" d="m0.800003,30.792687l0,0.732409c0,0.665826 0.532661,1.198487 1.198487,1.198487l14.581589,0c0.665826,0 1.198487,-0.532661 1.198487,-1.198487l0,-9.721059l-8.45599,8.45599l-3.994956,-3.994956c0,0 -4.461034,4.527617 -4.527617,4.527617z" fill="#F05925"/>
     </g>
    </g>
   </g>
  </g>
 </g>
</svg>