<svg width="160" height="50" xmlns="http://www.w3.org/2000/svg" xmlns:svg="http://www.w3.org/2000/svg">
 <g>
  <title>Layer 1</title>
  <g stroke="null" id="svg_8">
   <path id="svg_1" d="m15.00211,10.32155c0.38233,-1.07053 0.99406,-2.0646 1.8352,-2.90573c3.36453,-3.28806 9.02305,-2.44693 11.31704,1.68226c1.75873,3.13513 3.59393,6.27025 5.35266,9.32891c2.98219,5.19972 5.96439,10.32298 8.94658,15.5227c2.44693,4.35859 -0.2294,9.86418 -5.12326,10.55238c-2.98219,0.4588 -5.81145,-0.9176 -7.41725,-3.67039c-2.59986,-4.58799 -5.27619,-9.09951 -7.87605,-13.61104c-0.07647,-0.07647 -0.15293,-0.15293 -0.15293,-0.30587c-0.30587,-0.2294 -0.38233,-0.53527 -0.53527,-0.84113c-1.147,-2.0646 -2.37046,-4.05272 -3.51746,-6.11732c-0.76467,-1.29993 -1.52933,-2.59986 -2.294,-3.89979c-0.6882,-1.147 -0.99406,-2.44693 -0.9176,-3.82333c0,-0.61173 0.07647,-1.29993 0.38233,-1.91166" fill="#3C8BD9"/>
   <path stroke="null" id="svg_2" d="m15.00211,10.32155c-0.15293,0.61173 -0.30587,1.22346 -0.30587,1.91166c-0.07647,1.45286 0.30587,2.82926 1.07053,4.05272c1.91166,3.28806 3.82333,6.57612 5.73499,9.86418c0.15293,0.30587 0.30587,0.61173 0.4588,0.84113c-1.07053,1.8352 -2.0646,3.59393 -3.13513,5.35266c-1.45286,2.52339 -2.90573,5.04679 -4.35859,7.57018c-0.07647,0 -0.07647,0 -0.07647,-0.07647c0,-0.15293 0,-0.2294 0.07647,-0.38233c0.6882,-2.59986 0.15293,-4.89386 -1.68226,-6.88199c-1.07053,-1.22346 -2.44693,-1.8352 -4.05272,-2.0646c-2.0646,-0.30587 -3.89979,0.2294 -5.58205,1.52933c-0.30587,0.2294 -0.4588,0.53527 -0.84113,0.76467c-0.07647,0 -0.07647,0 -0.15293,-0.07647c0.84113,-1.45286 1.68226,-2.90573 2.44693,-4.28212c3.44099,-5.96439 6.88199,-11.92877 10.32298,-17.81669c0,-0.2294 0.07647,-0.2294 0.07647,-0.30587" fill="#FABC04"/>
   <path stroke="null" id="svg_3" d="m2.15574,32.72624c0.30587,-0.30587 0.61173,-0.61173 0.99406,-0.9176c4.20566,-3.28806 10.55238,-0.9176 11.46998,4.35859c0.2294,1.29993 0.07647,2.44693 -0.30587,3.67039c0,0.07647 0,0.15293 -0.07647,0.30587c-0.15293,0.30587 -0.30587,0.53527 -0.4588,0.84113c-1.52933,2.52339 -3.82333,3.82333 -6.80552,3.59393c-3.44099,-0.2294 -6.11732,-2.82926 -6.57612,-6.19379c-0.2294,-1.68226 0.07647,-3.21159 0.9176,-4.58799c0.15293,-0.30587 0.38233,-0.61173 0.53527,-0.9176c0.2294,0 0.15293,-0.15293 0.30587,-0.15293" fill="#34A852"/>
   <path stroke="null" id="svg_4" d="m57.21162,15.98007c-5.04679,0 -9.17598,4.05272 -9.17598,9.02305s4.20566,9.02305 9.17598,9.02305c2.75279,0 4.74092,-0.9176 6.34672,-2.52339c1.68226,-1.68226 2.14106,-3.89979 2.14106,-5.73499c0,-0.61173 -0.07647,-1.147 -0.15293,-1.52933l-8.33485,0l0,2.44693l5.88792,0c-0.15293,1.3764 -0.61173,2.37046 -1.29993,3.13513c-0.84113,0.84113 -2.21753,1.8352 -4.58799,1.8352c-3.67039,0 -6.49965,-2.90573 -6.49965,-6.57612s2.82926,-6.57612 6.49965,-6.57612c1.98813,0 3.44099,0.76467 4.43506,1.75873l1.75873,-1.75873c-1.52933,-1.45286 -3.44099,-2.52339 -6.19379,-2.52339zm15.0639,6.42319c-3.13513,0 -5.81145,2.44693 -5.81145,5.88792c0,3.36453 2.59986,5.88792 5.81145,5.88792c3.21159,0 5.81145,-2.52339 5.81145,-5.88792s-2.67633,-5.88792 -5.81145,-5.88792m0,9.48185c-1.75873,0 -3.21159,-1.45286 -3.21159,-3.59393s1.52933,-3.59393 3.21159,-3.59393s3.21159,1.45286 3.21159,3.59393c0,2.0646 -1.45286,3.59393 -3.21159,3.59393m12.54051,-9.48185c-3.21159,0 -5.81145,2.44693 -5.81145,5.88792c0,3.36453 2.59986,5.88792 5.81145,5.88792c3.13513,0 5.81145,-2.52339 5.81145,-5.88792s-2.59986,-5.88792 -5.81145,-5.88792m0,9.48185c-1.75873,0 -3.21159,-1.45286 -3.21159,-3.59393s1.52933,-3.59393 3.21159,-3.59393s3.21159,1.45286 3.21159,3.59393c0.07647,2.0646 -1.45286,3.59393 -3.21159,3.59393m12.54051,-9.48185c-2.90573,0 -5.50559,2.52339 -5.50559,5.81145c0,3.21159 2.59986,5.81145 5.50559,5.81145c1.3764,0 2.44693,-0.61173 3.05866,-1.29993l0.07647,0l0,0.84113c0,2.21753 -1.147,3.44099 -3.05866,3.44099c-1.52933,0 -2.52339,-1.147 -2.90573,-2.0646l-2.21753,0.9176c0.61173,1.52933 2.294,3.44099 5.12326,3.44099c2.98219,0 5.50559,-1.75873 5.50559,-6.04085l0,-10.47591l-2.37046,0l0,0.9176l-0.07647,0c-0.6882,-0.6882 -1.75873,-1.29993 -3.13513,-1.29993m0.2294,9.32891c-1.75873,0 -3.21159,-1.45286 -3.21159,-3.51746s1.45286,-3.59393 3.21159,-3.59393c1.75873,0 3.05866,1.52933 3.05866,3.59393s-1.3764,3.51746 -3.05866,3.51746m7.11138,-15.0639l2.52339,0l0,17.20496l-2.52339,0l0,-17.20496zm9.40538,5.73499c-3.05866,0 -5.58205,2.37046 -5.58205,5.88792c0,3.28806 2.52339,5.88792 5.81145,5.88792c2.75279,0 4.28212,-1.68226 4.89386,-2.59986l-1.98813,-1.29993c-0.6882,0.99406 -1.6058,1.6058 -2.90573,1.6058c-1.29993,0 -2.294,-0.61173 -2.82926,-1.75873l7.87605,-3.21159l-0.2294,-0.6882c-0.53527,-1.3764 -2.0646,-3.82333 -5.04679,-3.82333m-3.05866,5.73499c-0.07647,-2.294 1.75873,-3.44099 3.05866,-3.44099c0.99406,0 1.91166,0.4588 2.21753,1.22346l-5.27619,2.21753z" fill="#757575"/>
   <path stroke="null" id="svg_5" d="m123.81394,33.56737l5.88792,-15.59917l2.294,0l5.88792,15.59917l-2.21753,0l-1.52933,-4.20566l-6.57612,0l-1.52933,4.20566l-2.21753,0zm4.43506,-6.04085l5.19972,0l-2.52339,-7.03492l-0.07647,0l-2.59986,7.03492z" fill="#757575"/>
   <path stroke="null" id="svg_6" d="m139.87191,32.26744c-0.99406,-1.147 -1.45286,-2.44693 -1.45286,-4.05272c0,-1.52933 0.4588,-2.90573 1.45286,-4.05272c0.99406,-1.147 2.21753,-1.68226 3.59393,-1.68226c0.76467,0 1.52933,0.15293 2.14106,0.4588c0.6882,0.38233 1.147,0.76467 1.52933,1.29993l0.07647,0l-0.07647,-1.45286l0,-4.97032l1.98813,0l0,15.59917l-1.91166,0l0,-1.45286l-0.07647,0c-0.38233,0.53527 -0.84113,0.99406 -1.52933,1.29993s-1.3764,0.4588 -2.14106,0.4588c-1.3764,0.2294 -2.59986,-0.30587 -3.59393,-1.45286m6.34672,-1.22346c0.6882,-0.6882 0.99406,-1.68226 0.99406,-2.82926c0,-1.147 -0.30587,-2.0646 -0.99406,-2.75279c-0.61173,-0.6882 -1.45286,-1.07053 -2.37046,-1.07053c-0.99406,0 -1.75873,0.38233 -2.37046,1.07053c-0.6882,0.6882 -0.99406,1.68226 -0.99406,2.75279s0.30587,2.0646 0.99406,2.75279c0.6882,0.6882 1.45286,1.07053 2.37046,1.07053c0.9176,0.07647 1.75873,-0.30587 2.37046,-0.99406" fill="#757575"/>
   <path stroke="null" id="svg_7" d="m158.3768,32.95564c-0.76467,0.61173 -1.8352,0.99406 -3.05866,0.99406c-1.07053,0 -1.98813,-0.2294 -2.82926,-0.84113c-0.76467,-0.61173 -1.3764,-1.29993 -1.75873,-2.21753l1.75873,-0.76467c0.2294,0.61173 0.61173,1.147 1.147,1.52933c0.4588,0.38233 1.07053,0.53527 1.68226,0.53527c0.61173,0 1.147,-0.15293 1.6058,-0.38233c0.4588,-0.2294 0.61173,-0.61173 0.61173,-0.99406c0,-0.6882 -0.53527,-1.22346 -1.52933,-1.52933l-1.8352,-0.4588c-2.0646,-0.53527 -3.13513,-1.52933 -3.13513,-3.05866c0,-0.99406 0.38233,-1.75873 1.22346,-2.37046c0.76467,-0.61173 1.8352,-0.9176 3.05866,-0.9176c0.9176,0 1.75873,0.2294 2.59986,0.6882c0.76467,0.4588 1.29993,1.07053 1.6058,1.8352l-1.75873,0.76467c-0.2294,-0.4588 -0.53527,-0.76467 -0.99406,-1.07053c-0.4588,-0.2294 -0.99406,-0.38233 -1.52933,-0.38233c-0.53527,0 -0.99406,0.15293 -1.45286,0.38233c-0.38233,0.2294 -0.61173,0.61173 -0.61173,0.99406c0,0.61173 0.61173,1.07053 1.75873,1.29993l1.6058,0.38233c2.14106,0.53527 3.13513,1.6058 3.13513,3.21159c0,0.99406 -0.4588,1.75873 -1.29993,2.37046" fill="#757575"/>
  </g>
 </g>
</svg>