<svg id="Export" xmlns="http://www.w3.org/2000/svg" xmlns:xlink="http://www.w3.org/1999/xlink" viewBox="0 0 180 35.31"><defs><style>.cls-1{fill:#757575;}.cls-2{fill:#767676;}.cls-3{fill:#787878;}.cls-4{fill:#4fc3f7;}.cls-5{fill:#4285f4;}.cls-11,.cls-6{fill:#1a237e;}.cls-10,.cls-6,.cls-8,.cls-9{opacity:0.2;}.cls-6,.cls-8,.cls-9{isolation:isolate;}.cls-7{fill:#ffc107;}.cls-12,.cls-8{fill:#fff;}.cls-9{fill:#bf360c;}.cls-13{fill:#3367d6;}.cls-14{fill:url(#linear-gradient);}.cls-15{fill-opacity:0.1;fill:url(#radial-gradient);}</style><linearGradient id="linear-gradient" x1="-2978.01" y1="1245.65" x2="-2977.91" y2="1245.6" gradientTransform="matrix(56.82, 0, 0, -110.18, 169281.44, 137260.41)" gradientUnits="userSpaceOnUse"><stop offset="0" stop-color="#bf360c" stop-opacity="0.2"/><stop offset="1" stop-color="#bf360c" stop-opacity="0"/></linearGradient><radialGradient id="radial-gradient" cx="-3016.94" cy="1251" r="0.14" gradientTransform="matrix(254.33, 0, 0, -254.33, 767334.63, 318170.28)" gradientUnits="userSpaceOnUse"><stop offset="0" stop-color="#fff"/><stop offset="1" stop-color="#fff" stop-opacity="0"/></radialGradient></defs><title>ga360-logo_cropped</title><path class="cls-1" d="M75.71,11.41c.11-.12.09-.29.13-.44a3.89,3.89,0,0,1,6-2.06c.34.27.34.27.05.57s-.41.4-.92.11a2.74,2.74,0,0,0-4.11,2.85,2.76,2.76,0,0,0,4.36,1.75,2.12,2.12,0,0,0,.79-1.3c0-.22,0-.25-.22-.24H79.9c-.24,0-.33,0-.33-.31,0-.72,0-.72.72-.72s1.65,0,2.47,0c.32,0,.37.12.39.38a3.41,3.41,0,0,1-3.71,3.78,3.9,3.9,0,0,1-3.64-3c0-.08,0-.18-.09-.23Z"/><path class="cls-2" d="M98,15.23a2.12,2.12,0,0,1-3-.17,2.5,2.5,0,0,1-.15-3.31A2.19,2.19,0,0,1,98,11.38c-.09-.41.16-.38.42-.38.6,0,.6,0,.6.6,0,1.25,0,2.5,0,3.76a4.28,4.28,0,0,1-.09.87A2.1,2.1,0,0,1,97,18a2.39,2.39,0,0,1-2.41-1.17c-.1-.2-.1-.31.13-.37l.1,0a1.56,1.56,0,0,1,.53-.2c.19,0,.21.26.33.39a1.32,1.32,0,0,0,1.42.38,1.16,1.16,0,0,0,.83-1A3.23,3.23,0,0,0,98,15.23Zm-1.23-.43a1.36,1.36,0,0,0,1.31-1.46,1.4,1.4,0,0,0-1.31-1.51,1.44,1.44,0,0,0-1.38,1.49A1.41,1.41,0,0,0,96.75,14.8Z"/><path class="cls-2" d="M114.19,15.62h-.7c-.18,0-.26,0-.31-.22-.15-.44-.33-.88-.47-1.33a.27.27,0,0,0-.32-.22h-2.3a.26.26,0,0,0-.31.22c-.15.42-.32.84-.46,1.27-.07.22-.16.31-.4.28s-.4,0-.64,0l1-2.59c.47-1.23.94-2.46,1.4-3.69a.38.38,0,0,1,.42-.31c.66,0,.66,0,.88.59.71,1.9,1.42,3.79,2.14,5.69Zm-3-5.59-1,2.8c-.07.16,0,.22.16.21h1.72c.17,0,.22,0,.16-.21C111.92,11.93,111.6,11,111.24,10Z"/><path class="cls-1" d="M91.4,10.87a2.45,2.45,0,1,1-2.49,2.43A2.41,2.41,0,0,1,91.4,10.87Zm0,3.93a1.49,1.49,0,0,0,0-3A1.42,1.42,0,0,0,90,13.33,1.39,1.39,0,0,0,91.38,14.8Z"/><path class="cls-1" d="M86,15.77a2.45,2.45,0,1,1,.11-4.9,2.45,2.45,0,0,1-.11,4.9Zm1.4-2.46A1.41,1.41,0,0,0,86,11.83a1.44,1.44,0,0,0-1.39,1.51A1.42,1.42,0,0,0,86,14.8,1.4,1.4,0,0,0,87.37,13.31Z"/><path class="cls-1" d="M102.63,14.06a1.31,1.31,0,0,0,2.18.3c.18-.2.29-.18.48,0,.64.44.64.46,0,.95a2.45,2.45,0,0,1-3.91-2.44,2.3,2.3,0,0,1,1.82-1.91,2.27,2.27,0,0,1,2.63,1.65c.07.2-.09.2-.19.24l-2.72,1.13Zm-.21-.82c.65-.26,1.26-.51,1.86-.77.11,0,.29,0,.29-.18s-.14-.25-.27-.32a1.17,1.17,0,0,0-1.22,0A1.38,1.38,0,0,0,102.42,13.24Z"/><path class="cls-2" d="M122.71,15a1.81,1.81,0,0,1-1.75.79,1.54,1.54,0,0,1-1.41-1.16,1.43,1.43,0,0,1,.83-1.67,2.66,2.66,0,0,1,2-.11l.32.1c.14-.62-.48-1.37-1.49-1.13a.87.87,0,0,0-.59.37c-.12.2-.23.2-.42.12-.56-.25-.59-.33-.14-.75a2.13,2.13,0,0,1,2.3-.42,1.7,1.7,0,0,1,1.18,1.68c0,.87,0,1.74,0,2.61,0,.18-.07.22-.24.22C122.73,15.64,122.73,15.64,122.71,15Zm-1-1.59a1.6,1.6,0,0,0-.91.22.76.76,0,0,0-.37.78.7.7,0,0,0,.56.56,1.43,1.43,0,0,0,1.59-.67c.27-.5.19-.69-.37-.82A1.54,1.54,0,0,0,121.69,13.38Z"/><path class="cls-2" d="M115.64,11.74A1.81,1.81,0,0,1,117.4,11a1.57,1.57,0,0,1,1.4,1.57c0,.94,0,1.89,0,2.84,0,.18-.07.21-.24.22-.59,0-.59,0-.59-.58V13c0-.79-.37-1.22-1-1.24A1.21,1.21,0,0,0,115.69,13c0,.79,0,1.58,0,2.36,0,.23-.07.29-.29.29-.58,0-.58,0-.58-.6,0-1.2,0-2.41,0-3.61,0-.24.07-.31.3-.31.51,0,.51,0,.52.49A1,1,0,0,0,115.64,11.74Z"/><path class="cls-2" d="M126.7,17.78c.29-.67.55-1.3.86-1.91a.88.88,0,0,0,0-.85c-.53-1.19-1-2.39-1.56-3.59-.11-.26-.06-.31.21-.3.59,0,.59,0,.81.54.36.89.73,1.79,1.09,2.69.14,0,.14-.16.18-.25.35-.88.7-1.75,1-2.64.1-.26.23-.38.51-.34a5,5,0,0,0,.55,0c-.23.55-.44,1.07-.66,1.58-.66,1.55-1.33,3.1-2,4.66-.13.32-.29.47-.64.41A2.78,2.78,0,0,0,126.7,17.78Z"/><path class="cls-2" d="M142.69,15.77a2,2,0,0,1-1.81-1c-.12-.19-.17-.34.12-.39a.46.46,0,0,0,.16-.07c.22-.14.35-.1.49.14a1.24,1.24,0,0,0,1.54.48.57.57,0,0,0,.42-.55.53.53,0,0,0-.41-.52c-.35-.11-.7-.19-1-.27a2,2,0,0,1-.92-.48,1.1,1.1,0,0,1-.12-1.47,2.09,2.09,0,0,1,3.16.11c.13.2.13.29-.11.39s-.48.19-.73-.13A1.23,1.23,0,0,0,142,11.9a.48.48,0,0,0-.23.46.43.43,0,0,0,.34.38c.38.12.78.2,1.17.3.87.22,1.35.85,1.19,1.57a1.55,1.55,0,0,1-1.4,1.14Z"/><path class="cls-2" d="M138.18,15.77a2.11,2.11,0,0,1-2-1.35,2.42,2.42,0,0,1,.38-2.69,2.21,2.21,0,0,1,2.4-.66,2,2,0,0,1,1.2,1c.1.18.06.26-.12.31l-.19.08c-.23.13-.37.13-.54-.14a1.31,1.31,0,0,0-2.08-.09,1.79,1.79,0,0,0,0,2.27,1.36,1.36,0,0,0,2.22-.1c.06-.09.08-.25.24-.17a2,2,0,0,1,.6.29s0,.14-.08.21A2.12,2.12,0,0,1,138.18,15.77Z"/><path class="cls-1" d="M99.76,12c0-1.09,0-2.19,0-3.28,0-.22,0-.32.29-.32.8,0,.8,0,.8.78,0,2,0,4.07,0,6.1,0,.27,0,.37-.35.36-.74,0-.74,0-.74-.76Z"/><path class="cls-1" d="M131.43,13.31c0-.44,0-.8,0-1.16s-.07-.29-.28-.26h-.27q-.28,0-.24-.24a.74.74,0,0,0,0-.21c0-.26,0-.35.33-.33.45,0,.45,0,.45-.47v-.3c0-.67,0-.67.67-.62.15,0,.19.07.19.2,0,.3,0,.59,0,.88s.08.34.33.31h.54c.17,0,.25.05.23.23a1.93,1.93,0,0,0,0,.34c0,.16,0,.23-.21.21h-.06c-.27,0-.63-.12-.78.06s0,.52,0,.79c0,.5,0,1,0,1.49s.29.78.8.67c.32-.07.27.17.33.3.19.42.16.46-.31.48h-.47a1.22,1.22,0,0,1-1.18-1.1C131.4,14.13,131.45,13.68,131.43,13.31Z"/><path class="cls-3" d="M124.36,12.33c0-1,0-2,0-3,0-.26.07-.32.32-.32.55,0,.55,0,.55.56,0,1.9,0,3.79,0,5.69,0,.29-.09.36-.36.35-.51,0-.51,0-.51-.53Z"/><path class="cls-3" d="M134.31,13.34c0-.64,0-1.28,0-1.92,0-.24.05-.32.29-.31.57,0,.57,0,.57.58,0,1.19,0,2.39,0,3.58,0,.29-.08.39-.36.35h-.27c-.2,0-.24-.06-.24-.25C134.32,14.7,134.31,14,134.31,13.34Z"/><path class="cls-2" d="M135.33,9.56a.59.59,0,0,1-.59.6.6.6,0,0,1-.6-.6.59.59,0,0,1,.6-.59A.57.57,0,0,1,135.33,9.56Z"/><path class="cls-2" d="M85.68,23.87a3.93,3.93,0,0,1,.67-2.31,2.25,2.25,0,0,1,3.73,0,4.31,4.31,0,0,1,0,4.57,2.25,2.25,0,0,1-3.77,0A3.89,3.89,0,0,1,85.68,23.87Zm4.2.12a3.57,3.57,0,0,0-.41-1.81,1.39,1.39,0,0,0-2.52,0,3.46,3.46,0,0,0,0,3.36,1.39,1.39,0,0,0,2.51,0A3.27,3.27,0,0,0,89.88,24Z"/><path class="cls-2" d="M95.54,27.15a2.42,2.42,0,0,1-2.34-1.49c-.08-.21-.06-.33.17-.39a.93.93,0,0,0,.25-.1c.2-.11.28-.05.37.15a1.55,1.55,0,0,0,2,.93,1,1,0,0,0,.72-.81,1,1,0,0,0-.47-1.08,3.94,3.94,0,0,0-1.05-.46,4.75,4.75,0,0,1-1-.4,1.58,1.58,0,0,1-.9-1.57,1.71,1.71,0,0,1,1.13-1.48,2.26,2.26,0,0,1,2.81.89c.12.19.14.32-.12.39a.47.47,0,0,0-.15.06c-.23.13-.37.14-.54-.15a1.37,1.37,0,0,0-2-.19.79.79,0,0,0,.08,1.22,3.28,3.28,0,0,0,1,.47,5,5,0,0,1,1.23.54,1.81,1.81,0,0,1,.84,1.8,1.75,1.75,0,0,1-1.11,1.46A2.29,2.29,0,0,1,95.54,27.15Z"/><path class="cls-2" d="M82.4,23.05a2.06,2.06,0,0,1,1.85,3.51,2.19,2.19,0,0,1-2.57.33,2.14,2.14,0,0,1-1-2.3,4,4,0,0,1,.6-1.35c.55-.81,1.11-1.62,1.64-2.44.13-.18.2-.21.39-.08.46.33.46.32.13.78L82.34,23l0,.07Zm.35,3.29a1.27,1.27,0,1,0-1.31-1.26A1.29,1.29,0,0,0,82.75,26.34Z"/><path class="cls-2" d="M78.81,23.69a1.68,1.68,0,0,1,1,2A2,2,0,0,1,78,27.15a2.14,2.14,0,0,1-2.2-1.3c-.09-.19-.08-.31.15-.36l.12,0c.26-.16.42-.16.57.18a1.21,1.21,0,0,0,1.56.66A1.08,1.08,0,0,0,79,25.19a1.11,1.11,0,0,0-.93-1,1.59,1.59,0,0,0-.53-.05c-.33.05-.42-.09-.38-.39a.29.29,0,0,0,0-.13c0-.2,0-.29.26-.27a1.53,1.53,0,0,0,.37,0,1,1,0,0,0,1-1.19,1.1,1.1,0,0,0-1.38-.71,1.07,1.07,0,0,0-.7.58c-.07.14-.12.2-.3.13-.64-.25-.67-.37-.2-.89a2,2,0,0,1,2.13-.58A1.69,1.69,0,0,1,79.62,22a1.45,1.45,0,0,1-.52,1.45Z"/><path class="cls-1" d="M110.9,24.92h-1.55c-.15,0-.23,0-.2.21a1.45,1.45,0,0,0,1.09,1.24,1.31,1.31,0,0,0,1.47-.58c.14-.22.26-.08.39,0,.52.2.53.24.16.67a2.16,2.16,0,0,1-2.37.64,2.11,2.11,0,0,1-1.57-1.88,2.43,2.43,0,0,1,.73-2.25,2.11,2.11,0,0,1,2.24-.43,2,2,0,0,1,1.36,1.7c.12.71.1.72-.63.72Zm-.44-.7c.35,0,.7,0,1.05,0s.31-.11.21-.34a1.28,1.28,0,0,0-1.38-.74,1.33,1.33,0,0,0-1.11.91c0,.17,0,.16.14.16Z"/><path class="cls-2" d="M101.41,26.39a1.77,1.77,0,0,1-1.47.78,1.52,1.52,0,0,1-1.58-1.48c-.08-1,0-2,0-3,0-.14.05-.19.2-.2.64-.05.64-.06.64.6s0,1.53,0,2.3a.93.93,0,0,0,.66.92A1.05,1.05,0,0,0,101,26a1.55,1.55,0,0,0,.33-1c0-.71,0-1.42,0-2.13,0-.11-.08-.29.09-.31a1.28,1.28,0,0,1,.7,0s0,.12,0,.18c0,1.35,0,2.69,0,4,0,.19-.06.27-.25.24a.67.67,0,0,0-.2,0c-.28,0-.4-.06-.35-.34A2.52,2.52,0,0,0,101.41,26.39Z"/><path class="cls-2" d="M105.82,24.62c0-.36,0-.72,0-1.08s-.07-.29-.27-.26h-.07c-.14,0-.34.07-.41-.05a1,1,0,0,1,0-.63c0-.17.2-.09.31-.09.53,0,.45,0,.46-.45v-.75c0-.14.05-.18.19-.19.67-.06.67-.06.67.6s0,.81.76.77c.42,0,.32.22.34.44s0,.37-.34.36c-.76,0-.76,0-.76.77,0,.55,0,1.11,0,1.66s.28.68.69.58.35.08.43.29c.18.44.16.46-.31.49-1.15.06-1.68-.43-1.68-1.58Z"/><path class="cls-3" d="M103.31,24.77c0-.65,0-1.3,0-2,0-.23,0-.31.29-.31.58,0,.58,0,.58.57,0,1.2,0,2.4,0,3.61,0,.25,0,.35-.32.34-.55,0-.55,0-.55-.56Z"/><path class="cls-2" d="M103.74,21.56a.6.6,0,0,1-.6-.6.59.59,0,0,1,.59-.6.58.58,0,0,1,.6.59A.6.6,0,0,1,103.74,21.56Z"/><path class="cls-4" d="M58.84,23.32a8,8,0,0,1-5.29,2.35l-.39,0a2.42,2.42,0,0,1-.38,0,12.94,12.94,0,0,1-6-1.66,13.07,13.07,0,0,1-5.55-6.34A12.82,12.82,0,0,1,42,6.51a12.84,12.84,0,0,0,6.34,24A12.9,12.9,0,0,0,59.5,24a12.71,12.71,0,0,0,1.67-6A7.87,7.87,0,0,1,58.84,23.32Z"/><path class="cls-5" d="M62.23,3.76a12.84,12.84,0,0,0-18.15,0A13,13,0,0,0,42,6.49a12.81,12.81,0,0,0-.72,11.16A12.42,12.42,0,0,0,44.1,21.9,13.71,13.71,0,0,0,46.82,24a12.94,12.94,0,0,0,6,1.66,8.07,8.07,0,0,1-5.29-2.35,7.91,7.91,0,0,1-2.35-5.65v0a12.77,12.77,0,0,1,1.68-6.34,12.46,12.46,0,0,1,2.09-2.73,12.61,12.61,0,0,1,4.25-2.83,12.86,12.86,0,0,1,11.18.74A12.55,12.55,0,0,0,62.23,3.76Z"/><path class="cls-6" d="M53.16,5.55a12.42,12.42,0,0,0-4.25,2.83,13.48,13.48,0,0,0-2.09,2.73,12.65,12.65,0,0,0-1.68,6.32v.1a12.83,12.83,0,0,1,1.68-6.24,12.46,12.46,0,0,1,2.09-2.73,12.61,12.61,0,0,1,4.25-2.83,12.86,12.86,0,0,1,11.18.74l-.18-.3A12.86,12.86,0,0,0,53.16,5.55Z"/><path class="cls-6" d="M44.1,21.7a12.83,12.83,0,0,1-3.78-9,12.53,12.53,0,0,0,1,5A12.42,12.42,0,0,0,44.1,21.9,13.71,13.71,0,0,0,46.82,24a12.94,12.94,0,0,0,6,1.66,8.2,8.2,0,0,1-2.48-.52,13.19,13.19,0,0,1-3.48-1.34A12,12,0,0,1,44.1,21.7Z"/><path class="cls-7" d="M67.05,8.58a13,13,0,0,0-2.73-2.09,12.86,12.86,0,0,0-11.18-.74,12.42,12.42,0,0,0-4.25,2.83,13.48,13.48,0,0,0-2.09,2.73,12.84,12.84,0,0,0-1.66,6.32A8,8,0,0,1,47.49,12a8,8,0,0,1,5.29-2.35,5,5,0,0,1,.77,0,12.76,12.76,0,0,1,6,1.67,12.11,12.11,0,0,1,2.73,2.08,12.65,12.65,0,0,1,2.83,4.26,12.79,12.79,0,0,1-.74,11.15,12.09,12.09,0,0,0,2.73-2.09A12.79,12.79,0,0,0,67.05,8.58Z"/><path class="cls-8" d="M45.14,17.85a8,8,0,0,0,7.64,8l.38,0a2.55,2.55,0,0,0,.39,0,8.07,8.07,0,0,0,5.29-2.35,8,8,0,0,0,2.31-4.79c0-.22,0-.46,0-.68a8.06,8.06,0,0,1-7.64,7.62l-.39,0a2.42,2.42,0,0,1-.38,0,8,8,0,0,1-7.64-7.92v.1Z"/><path class="cls-9" d="M65.08,17.45a12.45,12.45,0,0,0-2.83-4.26,13.08,13.08,0,0,0-2.73-2.08,12.76,12.76,0,0,0-6-1.67,4.94,4.94,0,0,0-.77,0,8,8,0,0,0-5.29,2.35,7.81,7.81,0,0,0-2.37,5.64v.12A7.93,7.93,0,0,1,47.49,12a8,8,0,0,1,5.29-2.35,5,5,0,0,1,.77,0,12.76,12.76,0,0,1,6,1.67,12.11,12.11,0,0,1,2.73,2.08,12.65,12.65,0,0,1,2.83,4.26A12.84,12.84,0,0,1,66,22.42,12.58,12.58,0,0,0,65.08,17.45Z"/><path class="cls-9" d="M67.05,26.51a12.59,12.59,0,0,1-2.59,2c-.06.1-.1.2-.16.3A12.09,12.09,0,0,0,67,26.71a12.71,12.71,0,0,0,3.75-9.18A12.48,12.48,0,0,1,67.05,26.51Z"/><g class="cls-10"><path class="cls-11" d="M62.23,13.59a12.65,12.65,0,0,1,2.83,4.26A12.84,12.84,0,0,1,66,22.64a13,13,0,0,0-.93-5,12.45,12.45,0,0,0-2.83-4.26,13.08,13.08,0,0,0-2.73-2.08,12.76,12.76,0,0,0-6-1.67,8.2,8.2,0,0,1,2.48.52,12.69,12.69,0,0,1,3.47,1.35A11.56,11.56,0,0,1,62.23,13.59Z"/></g><g class="cls-10"><path class="cls-12" d="M67.05,8.58a13,13,0,0,0-2.73-2.09,12.09,12.09,0,0,0-2.09-2.73,12.84,12.84,0,0,0-18.15,0A13,13,0,0,0,42,6.49a12.84,12.84,0,0,0-6.48,11.16v.1a12.83,12.83,0,0,1,6.32-11,13,13,0,0,0-1.51,6.06A13,13,0,0,1,42,6.69,12.32,12.32,0,0,1,44.08,4,12.84,12.84,0,0,1,62.23,4a12.08,12.08,0,0,1,1.91,2.45,12.8,12.8,0,0,0-11-.64A12.42,12.42,0,0,0,48.89,8.6a13.48,13.48,0,0,0-2.09,2.73,12.71,12.71,0,0,0-1.66,6.3c0-.26,0-.55,0-.81a12.83,12.83,0,0,1,1.64-5.33,12.46,12.46,0,0,1,2.09-2.73,12.61,12.61,0,0,1,4.25-2.83,12.89,12.89,0,0,1,11.18.74,12.39,12.39,0,0,1,2.73,2.09,12.74,12.74,0,0,1,3.75,9A12.72,12.72,0,0,0,67.05,8.58Z"/></g><path id="path-1" d="M65.08,17.65a12.45,12.45,0,0,0-2.83-4.26,13.08,13.08,0,0,0-2.73-2.08,12.76,12.76,0,0,0-6-1.67,8,8,0,0,1,7.62,7.6c0,.15,0,.27,0,.41a2.68,2.68,0,0,1,0,.4,12.71,12.71,0,0,1-1.67,6,12.88,12.88,0,0,1-6.34,5.55A12.7,12.7,0,0,1,42,28.82a12.09,12.09,0,0,0,2.09,2.73,12.82,12.82,0,0,0,18.15,0,12.76,12.76,0,0,0,2.81-13.9Z"/><path class="cls-13" d="M65.08,17.65a12.45,12.45,0,0,0-2.83-4.26,13.08,13.08,0,0,0-2.73-2.08,12.76,12.76,0,0,0-6-1.67,8,8,0,0,1,7.62,7.6c0,.15,0,.27,0,.41a2.68,2.68,0,0,1,0,.4,12.71,12.71,0,0,1-1.67,6,12.88,12.88,0,0,1-6.34,5.55A12.7,12.7,0,0,1,42,28.82a12.09,12.09,0,0,0,2.09,2.73,12.82,12.82,0,0,0,18.15,0,12.76,12.76,0,0,0,2.81-13.9Z"/><g class="cls-10"><path class="cls-11" d="M53.16,29.74a12.82,12.82,0,0,0,8-11.51c0-.14,0-.26,0-.4V18a12.71,12.71,0,0,1-1.67,6,12.88,12.88,0,0,1-6.34,5.55,12.62,12.62,0,0,1-4.81.95A12.8,12.8,0,0,1,42,28.8l.18.3a12.73,12.73,0,0,0,6.18,1.59A12.57,12.57,0,0,0,53.16,29.74Z"/></g><g class="cls-10"><path class="cls-11" d="M42.17,28.9A12.83,12.83,0,0,0,61.17,18a3.88,3.88,0,0,1,0,.48,12.81,12.81,0,0,1-8,10.83,12.62,12.62,0,0,1-4.81.95A12.88,12.88,0,0,1,35.51,17.55v.1A12.81,12.81,0,0,0,42,28.8"/></g><path class="cls-14" d="M62.35,13.51a12.62,12.62,0,0,1,2.71,4.14,12.79,12.79,0,0,1-.74,11.15,12.09,12.09,0,0,0,2.73-2.09,12.62,12.62,0,0,0,3.19-5.31Z"/><path class="cls-6" d="M64.32,28.6a12.09,12.09,0,0,1-2.09,2.73,12.82,12.82,0,0,1-18.15,0,12.53,12.53,0,0,1-1.91-2.43L42,28.8a12.09,12.09,0,0,0,2.09,2.73,12.82,12.82,0,0,0,18.15,0,13,13,0,0,0,2.09-2.73A12.63,12.63,0,0,0,66,22.44,12.55,12.55,0,0,1,64.32,28.6Z"/><path class="cls-15" d="M67.05,8.58a13,13,0,0,0-2.73-2.09,12.09,12.09,0,0,0-2.09-2.73,12.84,12.84,0,0,0-18.15,0A13,13,0,0,0,42,6.49,12.83,12.83,0,0,0,42,28.8a12.09,12.09,0,0,0,2.09,2.73,12.82,12.82,0,0,0,18.15,0,13,13,0,0,0,2.09-2.73,12.09,12.09,0,0,0,2.73-2.09A12.83,12.83,0,0,0,67.05,8.58Zm-5.86,9.07a8,8,0,1,1-8-8A8,8,0,0,1,61.19,17.65Z"/></svg>