<?xml version="1.0" encoding="utf-8"?>
<!-- Generator: Adobe Illustrator 23.0.1, SVG Export Plug-In . SVG Version: 6.00 Build 0)  -->
<svg version="1.1" id="Layer_1" xmlns="http://www.w3.org/2000/svg" xmlns:xlink="http://www.w3.org/1999/xlink" x="0px" y="0px"
	 viewBox="0 0 208.2 51.4" enable-background="new 0 0 208.2 51.4" xml:space="preserve">
<path fill="#3C8BD9" d="M19.1,6.5c0.5-1.4,1.3-2.7,2.4-3.8C26-1.7,33.3-0.6,36.3,4.9c2.3,4.1,4.7,8.2,7,12.2
	c3.9,6.8,7.8,13.5,11.7,20.3c3.2,5.7-0.3,12.9-6.7,13.8c-3.9,0.6-7.6-1.2-9.7-4.8c-3.4-6-6.9-11.9-10.3-17.8
	c-0.1-0.1-0.2-0.2-0.2-0.4c-0.4-0.3-0.5-0.7-0.7-1.1c-1.5-2.7-3.1-5.3-4.6-8c-1-1.7-2-3.4-3-5.1c-0.9-1.5-1.3-3.2-1.2-5
	C18.6,8.2,18.7,7.3,19.1,6.5"/>
<path fill="#FABC04" d="M19.1,6.5c-0.2,0.8-0.4,1.6-0.4,2.5c-0.1,1.9,0.4,3.7,1.4,5.3c2.5,4.3,5,8.6,7.5,12.9
	c0.2,0.4,0.4,0.8,0.6,1.1c-1.4,2.4-2.7,4.7-4.1,7c-1.9,3.3-3.8,6.6-5.7,9.9c-0.1,0-0.1,0-0.1-0.1c0-0.2,0-0.3,0.1-0.5
	c0.9-3.4,0.2-6.4-2.2-9c-1.4-1.6-3.2-2.4-5.3-2.7c-2.7-0.4-5.1,0.3-7.3,2c-0.4,0.3-0.6,0.7-1.1,1c-0.1,0-0.1,0-0.2-0.1
	c1.1-1.9,2.2-3.8,3.2-5.6c4.5-7.8,9-15.6,13.5-23.3C19,6.6,19.1,6.6,19.1,6.5"/>
<path fill="#34A852" d="M2.4,35.8c0.4-0.4,0.8-0.8,1.3-1.2c5.5-4.3,13.8-1.2,15,5.7c0.3,1.7,0.1,3.2-0.4,4.8c0,0.1,0,0.2-0.1,0.4
	c-0.2,0.4-0.4,0.7-0.6,1.1c-2,3.3-5,5-8.9,4.7c-4.5-0.3-8-3.7-8.6-8.1c-0.3-2.2,0.1-4.2,1.2-6c0.2-0.4,0.5-0.8,0.7-1.2
	C2.2,36,2.2,35.8,2.4,35.8"/>
<path fill="#757575" d="M74.3,13.9c-6.6,0-12,5.3-12,11.8s5.5,11.8,12,11.8c3.6,0,6.2-1.2,8.3-3.3c2.2-2.2,2.8-5.1,2.8-7.5
	c0-0.8-0.1-1.5-0.2-2H74.3v3.2H82c-0.2,1.8-0.8,3.1-1.7,4.1c-1.1,1.1-2.9,2.4-6,2.4c-4.8,0-8.5-3.8-8.5-8.6s3.7-8.6,8.5-8.6
	c2.6,0,4.5,1,5.8,2.3l2.3-2.3C80.4,15.3,77.9,13.9,74.3,13.9z M94,22.3c-4.1,0-7.6,3.2-7.6,7.7c0,4.4,3.4,7.7,7.6,7.7
	c4.2,0,7.6-3.3,7.6-7.7S98.1,22.3,94,22.3 M94,34.7c-2.3,0-4.2-1.9-4.2-4.7s2-4.7,4.2-4.7s4.2,1.9,4.2,4.7
	C98.3,32.7,96.3,34.7,94,34.7 M110.4,22.3c-4.2,0-7.6,3.2-7.6,7.7c0,4.4,3.4,7.7,7.6,7.7c4.1,0,7.6-3.3,7.6-7.7
	S114.6,22.3,110.4,22.3 M110.4,34.7c-2.3,0-4.2-1.9-4.2-4.7s2-4.7,4.2-4.7s4.2,1.9,4.2,4.7C114.7,32.7,112.8,34.7,110.4,34.7
	 M126.8,22.3c-3.8,0-7.2,3.3-7.2,7.6c0,4.2,3.4,7.6,7.2,7.6c1.8,0,3.2-0.8,4-1.7h0.1v1.1c0,2.9-1.5,4.5-4,4.5c-2,0-3.3-1.5-3.8-2.7
	l-2.9,1.2c0.8,2,3,4.5,6.7,4.5c3.9,0,7.2-2.3,7.2-7.9V22.8h-3.1v1.2h-0.1C130,23.1,128.6,22.3,126.8,22.3 M127.1,34.5
	c-2.3,0-4.2-1.9-4.2-4.6s1.9-4.7,4.2-4.7c2.3,0,4,2,4,4.7S129.3,34.5,127.1,34.5 M136.4,14.8h3.3v22.5h-3.3V14.8z M148.7,22.3
	c-4,0-7.3,3.1-7.3,7.7c0,4.3,3.3,7.7,7.6,7.7c3.6,0,5.6-2.2,6.4-3.4l-2.6-1.7c-0.9,1.3-2.1,2.1-3.8,2.1c-1.7,0-3-0.8-3.7-2.3
	l10.3-4.2l-0.3-0.9C154.6,25.5,152.6,22.3,148.7,22.3 M144.7,29.8c-0.1-3,2.3-4.5,4-4.5c1.3,0,2.5,0.6,2.9,1.6L144.7,29.8z"/>
<path fill="#757575" d="M161.4,36.9l7.7-20.4h3l7.7,20.4h-2.9l-2-5.5h-8.6l-2,5.5H161.4z M167.2,28.9h6.8l-3.3-9.2h-0.1L167.2,28.9z
	"/>
<path fill="#757575" d="M182.4,35.2c-1.3-1.5-1.9-3.2-1.9-5.3c0-2,0.6-3.8,1.9-5.3c1.3-1.5,2.9-2.2,4.7-2.2c1,0,2,0.2,2.8,0.6
	c0.9,0.5,1.5,1,2,1.7h0.1l-0.1-1.9v-6.5h2.6v20.4H192V35h-0.1c-0.5,0.7-1.1,1.3-2,1.7c-0.9,0.5-1.8,0.6-2.8,0.6
	C185.3,37.4,183.7,36.7,182.4,35.2 M190.7,33.6c0.9-0.9,1.3-2.2,1.3-3.7c0-1.5-0.4-2.7-1.3-3.6c-0.8-0.9-1.9-1.4-3.1-1.4
	c-1.3,0-2.3,0.5-3.1,1.4c-0.9,0.9-1.3,2.2-1.3,3.6s0.4,2.7,1.3,3.6c0.9,0.9,1.9,1.4,3.1,1.4C188.8,35,189.9,34.5,190.7,33.6"/>
<path fill="#757575" d="M206.7,36.1c-1,0.8-2.4,1.3-4,1.3c-1.4,0-2.6-0.3-3.7-1.1c-1-0.8-1.8-1.7-2.3-2.9l2.3-1
	c0.3,0.8,0.8,1.5,1.5,2c0.6,0.5,1.4,0.7,2.2,0.7c0.8,0,1.5-0.2,2.1-0.5s0.8-0.8,0.8-1.3c0-0.9-0.7-1.6-2-2l-2.4-0.6
	c-2.7-0.7-4.1-2-4.1-4c0-1.3,0.5-2.3,1.6-3.1c1-0.8,2.4-1.2,4-1.2c1.2,0,2.3,0.3,3.4,0.9c1,0.6,1.7,1.4,2.1,2.4l-2.3,1
	c-0.3-0.6-0.7-1-1.3-1.4c-0.6-0.3-1.3-0.5-2-0.5c-0.7,0-1.3,0.2-1.9,0.5c-0.5,0.3-0.8,0.8-0.8,1.3c0,0.8,0.8,1.4,2.3,1.7l2.1,0.5
	c2.8,0.7,4.1,2.1,4.1,4.2C208.3,34.2,207.7,35.3,206.7,36.1"/>
</svg>
