<svg width="160" height="50" xmlns="http://www.w3.org/2000/svg" xmlns:svg="http://www.w3.org/2000/svg">
 <defs>
  <style>.cls-1{fill:#757575;}.cls-2{fill:#767676;}.cls-3{fill:#787878;}.cls-4{fill:#4fc3f7;}.cls-5{fill:#4285f4;}.cls-11,.cls-6{fill:#1a237e;}.cls-10,.cls-6,.cls-8,.cls-9{opacity:0.2;}.cls-6,.cls-8,.cls-9{isolation:isolate;}.cls-7{fill:#ffc107;}.cls-12,.cls-8{fill:#fff;}.cls-9{fill:#bf360c;}.cls-13{fill:#3367d6;}.cls-14{fill:url(#linear-gradient);}.cls-15{fill-opacity:0.1;fill:url(#radial-gradient);}</style>
 </defs>
 <title>ga360-logo_cropped</title>
 <g class="layer">
  <title>Layer 1</title>
  <g class="cls-10" id="svg_34"/>
  <g class="cls-10" id="svg_36"/>
  <g class="cls-10" id="svg_39"/>
  <g class="cls-10" id="svg_41"/>
  <g id="svg_46">
   <path class="cls-1" d="m60.98412,16.68676c0.14633,-0.15964 0.11973,-0.38579 0.17294,-0.58533a5.17486,5.17486 0 0 1 7.98179,-2.74042c0.4523,0.35918 0.4523,0.35918 0.06651,0.75827s-0.54542,0.53212 -1.22388,0.14633a3.64502,3.64502 0 0 0 -5.46753,3.79135a3.67163,3.67163 0 0 0 5.8001,2.32802a2.82023,2.82023 0 0 0 1.05094,-1.72939c0,-0.29267 0,-0.33257 -0.29267,-0.31927l-2.51427,0c-0.31927,0 -0.439,0 -0.439,-0.41239c0,-0.95782 0,-0.95782 0.95782,-0.95782s2.19499,0 3.28584,0c0.4257,0 0.49221,0.15964 0.51882,0.50551a4.53632,4.53632 0 0 1 -4.93541,5.02853a5.18817,5.18817 0 0 1 -4.84229,-3.9909c0,-0.10642 0,-0.23945 -0.11973,-0.30597l0,-1.51654z" fill="black" id="svg_1"/>
   <path class="cls-2" d="m90.63649,21.76851a2.82023,2.82023 0 0 1 -3.9909,-0.22615a3.32575,3.32575 0 0 1 -0.19954,-4.40329a2.91335,2.91335 0 0 1 4.19044,-0.49221c-0.11973,-0.54542 0.21285,-0.50551 0.55873,-0.50551c0.79818,0 0.79818,0 0.79818,0.79818c0,1.66287 0,3.32575 0,5.00192a5.69368,5.69368 0 0 1 -0.11973,1.15736a2.79363,2.79363 0 0 1 -2.56748,2.35463a3.17941,3.17941 0 0 1 -3.20602,-1.55645c-0.13303,-0.26606 -0.13303,-0.41239 0.17294,-0.49221l0.13303,0a2.07527,2.07527 0 0 1 0.70506,-0.26606c0.25276,0 0.27936,0.34588 0.439,0.51882a1.75599,1.75599 0 0 0 1.88902,0.50551a1.54315,1.54315 0 0 0 1.10415,-1.3303a4.29687,4.29687 0 0 0 0.09312,-1.06424zm-1.63627,-0.57203a1.80921,1.80921 0 0 0 1.74269,-1.94224a1.86242,1.86242 0 0 0 -1.74269,-2.00875a1.91563,1.91563 0 0 0 -1.83581,1.98215a1.87572,1.87572 0 0 0 1.80921,1.96884l0.02661,0z" id="svg_2"/>
   <path class="cls-2" d="m112.17403,22.28732l-0.93121,0c-0.23945,0 -0.34588,0 -0.41239,-0.29267c-0.19954,-0.58533 -0.439,-1.17066 -0.62524,-1.7693a0.35918,0.35918 0 0 0 -0.4257,-0.29267l-3.05969,0a0.34588,0.34588 0 0 0 -0.41239,0.29267c-0.19954,0.55873 -0.4257,1.11745 -0.61194,1.68948c-0.09312,0.29267 -0.21285,0.41239 -0.53212,0.37248s-0.53212,0 -0.85139,0l1.3303,-3.44547c0.62524,-1.63627 1.25048,-3.27254 1.86242,-4.9088a0.50551,0.50551 0 0 1 0.55873,-0.41239c0.878,0 0.878,0 1.17066,0.78488c0.94451,2.52757 1.88902,5.04183 2.84684,7.5694l0.09312,0.41239zm-3.9909,-7.43637l-1.3303,3.72484c-0.09312,0.21285 0,0.29267 0.21285,0.27936l2.28811,0c0.22615,0 0.29267,0 0.21285,-0.27936c-0.41239,-1.19727 -0.83809,-2.43445 -1.317,-3.76475l-0.06651,0.03991z" id="svg_3"/>
   <path class="cls-1" d="m81.85651,15.9684a3.25923,3.25923 0 1 1 -3.31244,3.23263a3.20602,3.20602 0 0 1 3.31244,-3.23263zm0,5.22808a1.98215,1.98215 0 0 0 0,-3.9909a1.88902,1.88902 0 0 0 -1.86242,2.03536a1.84912,1.84912 0 0 0 1.83581,1.95554l0.02661,0z" id="svg_4"/>
   <path class="cls-1" d="m74.6729,22.48687a3.25923,3.25923 0 1 1 0.14633,-6.51847a3.25923,3.25923 0 0 1 -0.14633,6.51847zm1.86242,-3.27254a1.87572,1.87572 0 0 0 -1.86242,-1.96884a1.91563,1.91563 0 0 0 -1.84912,2.00875a1.88902,1.88902 0 0 0 1.84912,1.94224a1.86242,1.86242 0 0 0 1.82251,-1.98215l0.03991,0z" id="svg_5"/>
   <path class="cls-1" d="m96.79577,20.21206a1.74269,1.74269 0 0 0 2.90005,0.39909c0.23945,-0.26606 0.38579,-0.23945 0.63854,0c0.85139,0.58533 0.85139,0.61194 0,1.26378a3.25923,3.25923 0 0 1 -5.20147,-3.24593a3.05969,3.05969 0 0 1 2.42114,-2.54087a3.01978,3.01978 0 0 1 3.49869,2.19499c0.09312,0.26606 -0.11973,0.26606 -0.25276,0.31927l-3.61841,1.50324l-0.38579,0.10642zm-0.27936,-1.09085c0.86469,-0.34588 1.67618,-0.67845 2.47436,-1.02433c0.14633,0 0.38579,0 0.38579,-0.23945s-0.18624,-0.33257 -0.35918,-0.4257a1.55645,1.55645 0 0 0 -1.62296,0a1.83581,1.83581 0 0 0 -0.878,1.68948z" id="svg_6"/>
   <path class="cls-2" d="m123.50818,21.46254a2.40784,2.40784 0 0 1 -2.32802,1.05094a2.04866,2.04866 0 0 1 -1.87572,-1.54315a1.90233,1.90233 0 0 1 1.10415,-2.2216a3.5386,3.5386 0 0 1 2.6606,-0.14633l0.4257,0.13303c0.18624,-0.82479 -0.63854,-1.82251 -1.98215,-1.50324a1.15736,1.15736 0 0 0 -0.78488,0.49221c-0.15964,0.26606 -0.30597,0.26606 -0.55873,0.15964c-0.74497,-0.33257 -0.78488,-0.439 -0.18624,-0.99772a2.83354,2.83354 0 0 1 3.05969,-0.55873a2.26151,2.26151 0 0 1 1.56975,2.2349c0,1.15736 0,2.31472 0,3.47208c0,0.23945 -0.09312,0.29267 -0.31927,0.29267c-0.75827,-0.0133 -0.75827,-0.0133 -0.78488,-0.86469zm-1.3303,-2.11518a2.12848,2.12848 0 0 0 -1.21057,0.29267a1.01103,1.01103 0 0 0 -0.49221,1.03763a0.93121,0.93121 0 0 0 0.74497,0.74497a1.90233,1.90233 0 0 0 2.11518,-0.8913c0.35918,-0.66515 0.25276,-0.91791 -0.49221,-1.09085a2.04866,2.04866 0 0 0 -0.69176,-0.13303l0.02661,0.03991z" id="svg_7"/>
   <path class="cls-2" d="m114.10296,17.12576a2.40784,2.40784 0 0 1 2.34133,-0.98442a2.08857,2.08857 0 0 1 1.86242,2.08857c0,1.25048 0,2.51427 0,3.77805c0,0.23945 -0.09312,0.27936 -0.31927,0.29267c-0.78488,0 -0.78488,0 -0.78488,-0.77157l0,-2.72711c0,-1.05094 -0.49221,-1.62296 -1.3303,-1.64957a1.60966,1.60966 0 0 0 -1.70278,1.64957c0,1.05094 0,2.10187 0,3.13951c0,0.30597 -0.09312,0.38579 -0.38579,0.38579c-0.77157,0 -0.77157,0 -0.77157,-0.79818c0,-1.59636 0,-3.20602 0,-4.80238c0,-0.31927 0.09312,-0.41239 0.39909,-0.41239c0.67845,0 0.67845,0 0.69176,0.65185a1.3303,1.3303 0 0 0 0,0.15964z" id="svg_8"/>
   <path class="cls-2" d="m128.81607,25.16077c0.38579,-0.8913 0.73166,-1.72939 1.14406,-2.54087a1.17066,1.17066 0 0 0 0,-1.13075c-0.70506,-1.58306 -1.3303,-3.17941 -2.07527,-4.77577c-0.14633,-0.34588 -0.07982,-0.41239 0.27936,-0.39909c0.78488,0 0.78488,0 1.07754,0.71836c0.47891,1.18397 0.97112,2.38124 1.45003,3.5785c0.18624,0 0.18624,-0.21285 0.23945,-0.33257c0.4656,-1.17066 0.93121,-2.32802 1.3303,-3.51199c0.13303,-0.34588 0.30597,-0.50551 0.67845,-0.4523a6.6515,6.6515 0 0 0 0.73166,0c-0.30597,0.73166 -0.58533,1.42342 -0.878,2.10187c-0.878,2.06196 -1.7693,4.12393 -2.6606,6.19919c-0.17294,0.4257 -0.38579,0.62524 -0.85139,0.54542a3.69823,3.69823 0 0 0 -0.4656,0z" id="svg_9"/>
   <path class="cls-2" d="m150.08755,22.48687a2.6606,2.6606 0 0 1 -2.40784,-1.3303c-0.15964,-0.25276 -0.22615,-0.4523 0.15964,-0.51882a0.61194,0.61194 0 0 0 0.21285,-0.09312c0.29267,-0.18624 0.4656,-0.13303 0.65185,0.18624a1.64957,1.64957 0 0 0 2.04866,0.63854a0.75827,0.75827 0 0 0 0.55873,-0.73166a0.70506,0.70506 0 0 0 -0.54542,-0.69176c-0.4656,-0.14633 -0.93121,-0.25276 -1.3303,-0.35918a2.6606,2.6606 0 0 1 -1.22388,-0.63854a1.46333,1.46333 0 0 1 -0.15964,-1.95554a2.78033,2.78033 0 0 1 4.20375,0.14633c0.17294,0.26606 0.17294,0.38579 -0.14633,0.51882s-0.63854,0.25276 -0.97112,-0.17294a1.63627,1.63627 0 0 0 -1.96884,-0.14633a0.63854,0.63854 0 0 0 -0.30597,0.61194a0.57203,0.57203 0 0 0 0.4523,0.50551c0.50551,0.15964 1.03763,0.26606 1.55645,0.39909c1.15736,0.29267 1.7959,1.13075 1.58306,2.08857a2.06196,2.06196 0 0 1 -1.86242,1.51654l-0.50551,0.02661z" id="svg_10"/>
   <path class="cls-2" d="m144.0879,22.48687a2.80693,2.80693 0 0 1 -2.6606,-1.7959a3.21932,3.21932 0 0 1 0.50551,-3.5785a2.93996,2.93996 0 0 1 3.19272,-0.878a2.6606,2.6606 0 0 1 1.59636,1.3303c0.13303,0.23945 0.07982,0.34588 -0.15964,0.41239l-0.25276,0.10642c-0.30597,0.17294 -0.49221,0.17294 -0.71836,-0.18624a1.74269,1.74269 0 0 0 -2.76702,-0.11973a2.38124,2.38124 0 0 0 0,3.01978a1.80921,1.80921 0 0 0 2.95326,-0.13303c0.07982,-0.11973 0.10642,-0.33257 0.31927,-0.22615a2.6606,2.6606 0 0 1 0.79818,0.38579s0,0.18624 -0.10642,0.27936a2.82023,2.82023 0 0 1 -2.70051,1.38351z" id="svg_11"/>
   <path class="cls-1" d="m92.97781,17.47164c0,-1.45003 0,-2.91335 0,-4.36338c0,-0.29267 0,-0.4257 0.38579,-0.4257c1.06424,0 1.06424,0 1.06424,1.03763c0,2.6606 0,5.41432 0,8.11482c0,0.35918 0,0.49221 -0.4656,0.47891c-0.98442,0 -0.98442,0 -0.98442,-1.01103l0,-3.83126z" id="svg_12"/>
   <path class="cls-1" d="m135.10838,19.21433c0,-0.58533 0,-1.06424 0,-1.54315s-0.09312,-0.38579 -0.37248,-0.34588l-0.35918,0q-0.37248,0 -0.31927,-0.31927a0.98442,0.98442 0 0 0 0,-0.27936c0,-0.34588 0,-0.4656 0.439,-0.439c0.59863,0 0.59863,0 0.59863,-0.62524l0,-0.39909c0,-0.8913 0,-0.8913 0.8913,-0.82479c0.19954,0 0.25276,0.09312 0.25276,0.26606c0,0.39909 0,0.78488 0,1.17066s0.10642,0.4523 0.439,0.41239l0.71836,0c0.22615,0 0.33257,0.06651 0.30597,0.30597a2.56748,2.56748 0 0 0 0,0.4523c0,0.21285 0,0.30597 -0.27936,0.27936l-0.07982,0c-0.35918,0 -0.83809,-0.15964 -1.03763,0.07982s0,0.69176 0,1.05094c0,0.66515 0,1.3303 0,1.98215s0.38579,1.03763 1.06424,0.8913c0.4257,-0.09312 0.35918,0.22615 0.439,0.39909c0.25276,0.55873 0.21285,0.61194 -0.41239,0.63854l-0.62524,0a1.62296,1.62296 0 0 1 -1.56975,-1.46333c-0.13303,-0.59863 -0.06651,-1.19727 -0.09312,-1.68948z" id="svg_13"/>
   <path class="cls-3" d="m125.70317,17.91064c0,-1.3303 0,-2.6606 0,-3.9909c0,-0.34588 0.09312,-0.4257 0.4257,-0.4257c0.73166,0 0.73166,0 0.73166,0.74497c0,2.52757 0,5.04183 0,7.5694c0,0.38579 -0.11973,0.47891 -0.47891,0.4656c-0.67845,0 -0.67845,0 -0.67845,-0.70506l0,-3.65832z" id="svg_14"/>
   <path class="cls-3" d="m138.93964,19.25424c0,-0.85139 0,-1.70278 0,-2.55417c0,-0.31927 0.06651,-0.4257 0.38579,-0.41239c0.75827,0 0.75827,0 0.75827,0.77157c0,1.58306 0,3.17941 0,4.76247c0,0.38579 -0.10642,0.51882 -0.47891,0.4656l-0.35918,0c-0.26606,0 -0.31927,-0.07982 -0.31927,-0.33257c0.02661,-0.8913 0.0133,-1.82251 0.0133,-2.70051z" id="svg_15"/>
   <path class="cls-2" d="m140.29655,14.22571a0.78488,0.78488 0 0 1 -0.78488,0.79818a0.79818,0.79818 0 0 1 -0.79818,-0.79818a0.78488,0.78488 0 0 1 0.79818,-0.78488a0.75827,0.75827 0 0 1 0.78488,0.78488z" id="svg_16"/>
   <path class="cls-2" d="m74.2472,33.26229a5.22808,5.22808 0 0 1 0.8913,-3.07299a2.99317,2.99317 0 0 1 4.96202,0a5.73359,5.73359 0 0 1 0,6.07947a2.99317,2.99317 0 0 1 -5.01523,0a5.17486,5.17486 0 0 1 -0.83809,-3.00648zm5.58726,0.15964a4.74917,4.74917 0 0 0 -0.54542,-2.40784a1.84912,1.84912 0 0 0 -3.35235,0a4.60283,4.60283 0 0 0 0,4.4698a1.84912,1.84912 0 0 0 3.33905,0a4.35008,4.35008 0 0 0 0.55873,-2.04866l0,-0.0133z" id="svg_17"/>
   <path class="cls-2" d="m87.36395,37.62567a3.21932,3.21932 0 0 1 -3.1129,-1.98215c-0.10642,-0.27936 -0.07982,-0.439 0.22615,-0.51882a1.23718,1.23718 0 0 0 0.33257,-0.13303c0.26606,-0.14633 0.37248,-0.06651 0.49221,0.19954a2.06196,2.06196 0 0 0 2.6606,1.23718a1.3303,1.3303 0 0 0 0.95782,-1.07754a1.3303,1.3303 0 0 0 -0.62524,-1.43672a5.24138,5.24138 0 0 0 -1.39681,-0.61194a6.31892,6.31892 0 0 1 -1.3303,-0.53212a2.10187,2.10187 0 0 1 -1.19727,-2.08857a2.27481,2.27481 0 0 1 1.50324,-1.96884a3.00648,3.00648 0 0 1 3.73814,1.18397c0.15964,0.25276 0.18624,0.4257 -0.15964,0.51882a0.62524,0.62524 0 0 0 -0.19954,0.07982c-0.30597,0.17294 -0.49221,0.18624 -0.71836,-0.19954a1.82251,1.82251 0 0 0 -2.6606,-0.25276a1.05094,1.05094 0 0 0 0.10642,1.62296a4.36338,4.36338 0 0 0 1.3303,0.62524a6.6515,6.6515 0 0 1 1.63627,0.71836a2.40784,2.40784 0 0 1 1.11745,2.39454a2.32802,2.32802 0 0 1 -1.47663,1.94224a3.04638,3.04638 0 0 1 -1.22388,0.27936z" id="svg_18"/>
   <path class="cls-2" d="m69.88382,32.17145a2.74042,2.74042 0 0 1 2.46105,4.66935a2.91335,2.91335 0 0 1 -3.41887,0.439a2.84684,2.84684 0 0 1 -1.3303,-3.05969a5.3212,5.3212 0 0 1 0.79818,-1.7959c0.73166,-1.07754 1.47663,-2.15508 2.18169,-3.24593c0.17294,-0.23945 0.26606,-0.27936 0.51882,-0.10642c0.61194,0.439 0.61194,0.4257 0.17294,1.03763l-1.46333,1.99545l0,0.09312l0.07982,-0.02661zm0.4656,4.37668a1.68948,1.68948 0 1 0 -1.74269,-1.67618a1.71609,1.71609 0 0 0 1.74269,1.67618z" id="svg_19"/>
   <path class="cls-2" d="m65.10805,33.02284a2.2349,2.2349 0 0 1 1.3303,2.6606a2.6606,2.6606 0 0 1 -2.40784,1.94224a2.84684,2.84684 0 0 1 -2.92666,-1.72939c-0.11973,-0.25276 -0.10642,-0.41239 0.19954,-0.47891l0.15964,0c0.34588,-0.21285 0.55873,-0.21285 0.75827,0.23945a1.60966,1.60966 0 0 0 2.07527,0.878a1.43672,1.43672 0 0 0 1.06424,-1.51654a1.47663,1.47663 0 0 0 -1.23718,-1.3303a2.11518,2.11518 0 0 0 -0.70506,-0.06651c-0.439,0.06651 -0.55873,-0.11973 -0.50551,-0.51882a0.38579,0.38579 0 0 0 0,-0.17294c0,-0.26606 0,-0.38579 0.34588,-0.35918a2.03536,2.03536 0 0 0 0.49221,0a1.3303,1.3303 0 0 0 1.3303,-1.58306a1.46333,1.46333 0 0 0 -1.83581,-0.94451a1.42342,1.42342 0 0 0 -0.93121,0.77157c-0.09312,0.18624 -0.15964,0.26606 -0.39909,0.17294c-0.85139,-0.33257 -0.8913,-0.49221 -0.26606,-1.18397a2.6606,2.6606 0 0 1 2.83354,-0.77157a2.24821,2.24821 0 0 1 1.70278,1.74269a1.92893,1.92893 0 0 1 -0.69176,1.92893l-0.38579,0.31927z" id="svg_20"/>
   <path class="cls-1" d="m107.79734,34.6591l-2.06196,0c-0.19954,0 -0.30597,0 -0.26606,0.27936a1.92893,1.92893 0 0 0 1.45003,1.64957a1.74269,1.74269 0 0 0 1.95554,-0.77157c0.18624,-0.29267 0.34588,-0.10642 0.51882,0c0.69176,0.26606 0.70506,0.31927 0.21285,0.8913a2.87345,2.87345 0 0 1 -3.15281,0.85139a2.80693,2.80693 0 0 1 -2.08857,-2.50096a3.23263,3.23263 0 0 1 0.97112,-2.99317a2.80693,2.80693 0 0 1 2.97987,-0.57203a2.6606,2.6606 0 0 1 1.80921,2.26151c0.15964,0.94451 0.13303,0.95782 -0.83809,0.95782l-1.48993,-0.05321zm-0.58533,-0.93121c0.4656,0 0.93121,0 1.39681,0s0.41239,-0.14633 0.27936,-0.4523a1.70278,1.70278 0 0 0 -1.83581,-0.98442a1.7693,1.7693 0 0 0 -1.47663,1.21057c0,0.22615 0,0.21285 0.18624,0.21285l1.45003,0.0133z" id="svg_21"/>
   <path class="cls-2" d="m95.17281,36.61464a2.35463,2.35463 0 0 1 -1.95554,1.03763a2.02205,2.02205 0 0 1 -2.10187,-1.96884c-0.10642,-1.3303 0,-2.6606 0,-3.9909c0,-0.18624 0.06651,-0.25276 0.26606,-0.26606c0.85139,-0.06651 0.85139,-0.07982 0.85139,0.79818s0,2.03536 0,3.05969a1.23718,1.23718 0 0 0 0.878,1.22388a1.39681,1.39681 0 0 0 1.51654,-0.41239a2.06196,2.06196 0 0 0 0.439,-1.3303c0,-0.94451 0,-1.88902 0,-2.83354c0,-0.14633 -0.10642,-0.38579 0.11973,-0.41239a1.70278,1.70278 0 0 1 0.93121,0s0,0.15964 0,0.23945c0,1.7959 0,3.5785 0,5.3212c0,0.25276 -0.07982,0.35918 -0.33257,0.31927a0.8913,0.8913 0 0 0 -0.26606,0c-0.37248,0 -0.53212,-0.07982 -0.4656,-0.4523a3.35235,3.35235 0 0 0 0.11973,-0.33257z" id="svg_22"/>
   <path class="cls-2" d="m101.03942,34.26001c0,-0.47891 0,-0.95782 0,-1.43672s-0.09312,-0.38579 -0.35918,-0.34588l-0.09312,0c-0.18624,0 -0.4523,0.09312 -0.54542,-0.06651a1.3303,1.3303 0 0 1 0,-0.83809c0,-0.22615 0.26606,-0.11973 0.41239,-0.11973c0.70506,0 0.59863,0 0.61194,-0.59863l0,-0.99772c0,-0.18624 0.06651,-0.23945 0.25276,-0.25276c0.8913,-0.07982 0.8913,-0.07982 0.8913,0.79818s0,1.07754 1.01103,1.02433c0.55873,0 0.4257,0.29267 0.4523,0.58533s0,0.49221 -0.4523,0.47891c-1.01103,0 -1.01103,0 -1.01103,1.02433c0,0.73166 0,1.47663 0,2.2083s0.37248,0.9046 0.91791,0.77157s0.4656,0.10642 0.57203,0.38579c0.23945,0.58533 0.21285,0.61194 -0.41239,0.65185c-1.52984,0.07982 -2.2349,-0.57203 -2.2349,-2.10187l-0.0133,-1.17066z" id="svg_23"/>
   <path class="cls-3" d="m97.70037,34.45956c0,-0.86469 0,-1.72939 0,-2.6606c0,-0.30597 0,-0.41239 0.38579,-0.41239c0.77157,0 0.77157,0 0.77157,0.75827c0,1.59636 0,3.19272 0,4.80238c0,0.33257 0,0.4656 -0.4257,0.4523c-0.73166,0 -0.73166,0 -0.73166,-0.74497l0,-2.19499z" id="svg_24"/>
   <path class="cls-2" d="m98.2724,30.1893a0.79818,0.79818 0 0 1 -0.79818,-0.79818a0.78488,0.78488 0 0 1 0.78488,-0.79818a0.77157,0.77157 0 0 1 0.79818,0.78488a0.79818,0.79818 0 0 1 -0.78488,0.81148z" id="svg_25"/>
   <path class="cls-4" d="m38.54197,32.53063a10.64239,10.64239 0 0 1 -7.03728,3.1262l-0.51882,0a3.21932,3.21932 0 0 1 -0.50551,0a17.21407,17.21407 0 0 1 -7.98179,-2.2083a17.38701,17.38701 0 0 1 -7.38316,-8.4341a17.05443,17.05443 0 0 1 1.02433,-14.84614a17.08104,17.08104 0 0 0 8.4341,31.92718a17.16086,17.16086 0 0 0 14.84614,-8.66025a16.9081,16.9081 0 0 0 2.2216,-7.98179a10.46945,10.46945 0 0 1 -3.0996,7.07719z" id="svg_26"/>
   <path class="cls-5" d="m43.05169,6.50998a17.08104,17.08104 0 0 0 -24.14493,0a17.29389,17.29389 0 0 0 -2.76702,3.63172a17.04113,17.04113 0 0 0 -0.95782,14.84614a16.52231,16.52231 0 0 0 3.75144,5.65377a18.2384,18.2384 0 0 0 3.61841,2.79363a17.21407,17.21407 0 0 0 7.98179,2.2083a10.73551,10.73551 0 0 1 -7.03728,-3.1262a10.52267,10.52267 0 0 1 -3.1262,-7.51619l0,0a16.98792,16.98792 0 0 1 2.2349,-8.4341a16.57553,16.57553 0 0 1 2.78033,-3.63172a16.77507,16.77507 0 0 1 5.65377,-3.76475a17.10765,17.10765 0 0 1 14.87274,0.98442a16.69525,16.69525 0 0 0 -2.86014,-3.64502z" id="svg_27"/>
   <path class="cls-6" d="m30.98588,8.89121a16.52231,16.52231 0 0 0 -5.65377,3.76475a17.93243,17.93243 0 0 0 -2.78033,3.63172a16.82828,16.82828 0 0 0 -2.2349,8.40749l0,0.13303a17.06774,17.06774 0 0 1 2.2349,-8.30107a16.57553,16.57553 0 0 1 2.78033,-3.63172a16.77507,16.77507 0 0 1 5.65377,-3.76475a17.10765,17.10765 0 0 1 14.87274,0.98442l-0.23945,-0.39909a17.10765,17.10765 0 0 0 -14.63329,-0.82479z" id="svg_28"/>
   <path class="cls-6" d="m18.93337,30.37554a17.06774,17.06774 0 0 1 -5.02853,-11.97269a16.66865,16.66865 0 0 0 1.3303,6.6515a16.52231,16.52231 0 0 0 3.69823,5.58726a18.2384,18.2384 0 0 0 3.61841,2.79363a17.21407,17.21407 0 0 0 7.98179,2.2083a10.90845,10.90845 0 0 1 -3.29914,-0.69176a17.54664,17.54664 0 0 1 -4.62944,-1.7826a15.96359,15.96359 0 0 1 -3.67163,-2.79363z" id="svg_29"/>
   <path class="cls-7" d="m49.46373,12.92202a17.29389,17.29389 0 0 0 -3.63172,-2.78033a17.10765,17.10765 0 0 0 -14.87274,-0.98442a16.52231,16.52231 0 0 0 -5.65377,3.76475a17.93243,17.93243 0 0 0 -2.78033,3.63172a17.08104,17.08104 0 0 0 -2.2083,8.40749a10.64239,10.64239 0 0 1 3.1262,-7.48958a10.64239,10.64239 0 0 1 7.03728,-3.1262a6.6515,6.6515 0 0 1 1.02433,0a16.97462,16.97462 0 0 1 7.98179,2.2216a16.10992,16.10992 0 0 1 3.63172,2.76702a16.82828,16.82828 0 0 1 3.76475,5.66707a17.01452,17.01452 0 0 1 -0.98442,14.83283a16.08332,16.08332 0 0 0 3.63172,-2.78033a17.01452,17.01452 0 0 0 -0.06651,-24.13162z" id="svg_30"/>
   <path class="cls-8" d="m20.31688,25.25389a10.64239,10.64239 0 0 0 10.16348,10.64239l0.50551,0a3.39226,3.39226 0 0 0 0.51882,0a10.73551,10.73551 0 0 0 7.03728,-3.1262a10.64239,10.64239 0 0 0 3.07299,-6.37213c0,-0.29267 0,-0.61194 0,-0.9046a10.72221,10.72221 0 0 1 -10.16348,10.13688l-0.51882,0a3.21932,3.21932 0 0 1 -0.50551,0a10.64239,10.64239 0 0 1 -10.16348,-10.53597l0,0.13303l0.05321,0.02661z" id="svg_31"/>
   <path class="cls-9" d="m46.84304,24.72177a16.56222,16.56222 0 0 0 -3.76475,-5.66707a17.40031,17.40031 0 0 0 -3.63172,-2.76702a16.97462,16.97462 0 0 0 -7.98179,-2.2216a6.57168,6.57168 0 0 0 -1.02433,0a10.64239,10.64239 0 0 0 -7.03728,3.1262a10.38964,10.38964 0 0 0 -3.15281,7.50289l0,0.15964a10.54927,10.54927 0 0 1 3.19272,-7.38316a10.64239,10.64239 0 0 1 7.03728,-3.1262a6.6515,6.6515 0 0 1 1.02433,0a16.97462,16.97462 0 0 1 7.98179,2.2216a16.10992,16.10992 0 0 1 3.63172,2.76702a16.82828,16.82828 0 0 1 3.76475,5.66707a17.08104,17.08104 0 0 1 1.18397,6.33222a16.73516,16.73516 0 0 0 -1.22388,-6.61159z" id="svg_32"/>
   <path class="cls-9" d="m49.46373,36.77428a16.74847,16.74847 0 0 1 -3.44547,2.6606c-0.07982,0.13303 -0.13303,0.26606 -0.21285,0.39909a16.08332,16.08332 0 0 0 3.59181,-2.79363a16.9081,16.9081 0 0 0 4.98862,-12.21215a16.60213,16.60213 0 0 1 -4.92211,11.94609z" id="svg_33"/>
   <path class="cls-11" d="m43.05169,19.58682a16.82828,16.82828 0 0 1 3.76475,5.66707a17.08104,17.08104 0 0 1 1.25048,6.37213a17.29389,17.29389 0 0 0 -1.23718,-6.6515a16.56222,16.56222 0 0 0 -3.76475,-5.66707a17.40031,17.40031 0 0 0 -3.63172,-2.76702a16.97462,16.97462 0 0 0 -7.98179,-2.2216a10.90845,10.90845 0 0 1 3.29914,0.69176a16.8815,16.8815 0 0 1 4.61614,1.7959a15.37826,15.37826 0 0 1 3.68493,2.78033z" id="svg_35"/>
   <path class="cls-12" d="m49.46373,12.92202a17.29389,17.29389 0 0 0 -3.63172,-2.78033a16.08332,16.08332 0 0 0 -2.78033,-3.63172a17.08104,17.08104 0 0 0 -24.14493,0a17.29389,17.29389 0 0 0 -2.76702,3.63172a17.08104,17.08104 0 0 0 -8.62034,14.84614l0,0.13303a17.06774,17.06774 0 0 1 8.40749,-14.63329a17.29389,17.29389 0 0 0 -2.00875,8.06161a17.29389,17.29389 0 0 1 2.2216,-8.14143a16.38928,16.38928 0 0 1 2.76702,-3.5785a17.08104,17.08104 0 0 1 24.14493,0a16.07001,16.07001 0 0 1 2.54087,3.25923a17.02783,17.02783 0 0 0 -14.63329,-0.85139a16.52231,16.52231 0 0 0 -5.65377,3.71153a17.93243,17.93243 0 0 0 -2.78033,3.63172a16.9081,16.9081 0 0 0 -2.2083,8.38088c0,-0.34588 0,-0.73166 0,-1.07754a17.06774,17.06774 0 0 1 2.18169,-7.09049a16.57553,16.57553 0 0 1 2.78033,-3.63172a16.77507,16.77507 0 0 1 5.65377,-3.76475a17.14755,17.14755 0 0 1 14.87274,0.98442a16.48241,16.48241 0 0 1 3.63172,2.78033a16.94801,16.94801 0 0 1 4.98862,11.97269a16.9214,16.9214 0 0 0 -4.96202,-12.21215z" id="svg_37"/>
   <path d="m46.84304,24.98783a16.56222,16.56222 0 0 0 -3.76475,-5.66707a17.40031,17.40031 0 0 0 -3.63172,-2.76702a16.97462,16.97462 0 0 0 -7.98179,-2.2216a10.64239,10.64239 0 0 1 10.13688,10.11027c0,0.19954 0,0.35918 0,0.54542a3.5652,3.5652 0 0 1 0,0.53212a16.9081,16.9081 0 0 1 -2.2216,7.98179a17.13425,17.13425 0 0 1 -8.4341,7.38316a16.8948,16.8948 0 0 1 -14.80623,-1.03763a16.08332,16.08332 0 0 0 2.78033,3.63172a17.05443,17.05443 0 0 0 24.14493,0a16.97462,16.97462 0 0 0 3.73814,-18.49116l0.03991,0z" id="path-1"/>
   <path class="cls-13" d="m46.84304,24.98783a16.56222,16.56222 0 0 0 -3.76475,-5.66707a17.40031,17.40031 0 0 0 -3.63172,-2.76702a16.97462,16.97462 0 0 0 -7.98179,-2.2216a10.64239,10.64239 0 0 1 10.13688,10.11027c0,0.19954 0,0.35918 0,0.54542a3.5652,3.5652 0 0 1 0,0.53212a16.9081,16.9081 0 0 1 -2.2216,7.98179a17.13425,17.13425 0 0 1 -8.4341,7.38316a16.8948,16.8948 0 0 1 -14.80623,-1.03763a16.08332,16.08332 0 0 0 2.78033,3.63172a17.05443,17.05443 0 0 0 24.14493,0a16.97462,16.97462 0 0 0 3.73814,-18.49116l0.03991,0z" id="svg_38"/>
   <path class="cls-11" d="m30.98588,41.07115a17.05443,17.05443 0 0 0 10.64239,-15.31174c0,-0.18624 0,-0.34588 0,-0.53212l0,0.22615a16.9081,16.9081 0 0 1 -2.2216,7.98179a17.13425,17.13425 0 0 1 -8.4341,7.38316a16.78837,16.78837 0 0 1 -6.39874,1.26378a17.02783,17.02783 0 0 1 -8.4341,-2.26151l0.23945,0.39909a16.93471,16.93471 0 0 0 8.22125,2.11518a16.72186,16.72186 0 0 0 6.38544,-1.26378z" id="svg_40"/>
   <path class="cls-11" d="m16.36589,39.95369a17.06774,17.06774 0 0 0 25.27568,-14.50026a5.16156,5.16156 0 0 1 0,0.63854a17.04113,17.04113 0 0 1 -10.64239,14.40714a16.78837,16.78837 0 0 1 -6.39874,1.26378a17.13425,17.13425 0 0 1 -17.09434,-16.9081l0,0.13303a17.04113,17.04113 0 0 0 8.63364,14.83283" id="svg_42"/>
   <path class="cls-14" d="m43.21132,19.48039a16.78837,16.78837 0 0 1 3.60511,5.50744a17.01452,17.01452 0 0 1 -0.98442,14.83283a16.08332,16.08332 0 0 0 3.63172,-2.78033a16.78837,16.78837 0 0 0 4.24365,-7.06389l-10.49606,-10.49606z" id="svg_43"/>
   <path class="cls-6" d="m45.83201,39.55461a16.08332,16.08332 0 0 1 -2.78033,3.63172a17.05443,17.05443 0 0 1 -24.14493,0a16.66865,16.66865 0 0 1 -2.54087,-3.23263l-0.22615,-0.13303a16.08332,16.08332 0 0 0 2.78033,3.63172a17.05443,17.05443 0 0 0 24.14493,0a17.29389,17.29389 0 0 0 2.78033,-3.63172a16.80168,16.80168 0 0 0 2.2216,-8.4607a16.69525,16.69525 0 0 1 -2.2349,8.19464z" id="svg_44"/>
   <path class="cls-15" d="m49.46373,12.92202a17.29389,17.29389 0 0 0 -3.63172,-2.78033a16.08332,16.08332 0 0 0 -2.78033,-3.63172a17.08104,17.08104 0 0 0 -24.14493,0a17.29389,17.29389 0 0 0 -2.76702,3.63172a17.06774,17.06774 0 0 0 0,29.67897a16.08332,16.08332 0 0 0 2.78033,3.63172a17.05443,17.05443 0 0 0 24.14493,0a17.29389,17.29389 0 0 0 2.78033,-3.63172a16.08332,16.08332 0 0 0 3.63172,-2.78033a17.06774,17.06774 0 0 0 -0.0133,-24.11832zm-7.79555,12.06581a10.64239,10.64239 0 1 1 -10.64239,-10.64239a10.64239,10.64239 0 0 1 10.64239,10.64239z" fill="black" id="svg_45"/>
  </g>
 </g>
</svg>