<svg width="160" height="50" xmlns="http://www.w3.org/2000/svg" xmlns:svg="http://www.w3.org/2000/svg">
 <defs>
  <style>.cls-1{fill:#23a566;}.cls-2{fill:#1c8f5a;}.cls-3{fill:#8ed1b1;}.cls-4{fill:#fff;fill-rule:evenodd;}.cls-5{fill:#787878;}</style>
 </defs>
 <title>google-sheets-logo_cropped</title>
 <g class="layer">
  <title>Layer 1</title>
  <g id="Ysr224.tif"/>
  <g id="svg_17">
   <path class="cls-1" d="m51.87255,46.04679a2.69227,2.69227 0 0 1 -2.69227,2.69227l-28.71302,0a2.69227,2.69227 0 0 1 -2.69227,-2.69227l0,-42.02627a2.69227,2.69227 0 0 1 2.69227,-2.69227l18.42856,0l12.97672,13.23249l0,31.48605z" id="svg_1"/>
   <path class="cls-2" d="m40.32273,14.22421l11.54982,11.03829l0,-10.76906l-10.23061,0a2.58458,2.58458 0 0 1 -1.27883,-0.32307l-0.04038,0.05385z" id="svg_2"/>
   <path class="cls-3" d="m51.87255,14.54728l-10.25753,0a2.69227,2.69227 0 0 1 -2.69227,-2.69227l0,-10.59407l12.9498,13.28633z" id="svg_3"/>
   <path class="cls-4" d="m43.66114,40.00265l-17.74203,0l0,-15.3863l17.74203,0l0,15.3863zm-7.76719,-13.16518l0,2.69227l5.58645,0l0,-2.69227l-5.58645,0zm0,4.38839l0,2.57111l5.58645,0l0,-2.58458l-5.58645,0.01346zm0,4.2134l0,2.38266l5.58645,0l0,-2.39612l-5.58645,0.01346zm-2.1942,2.36919l0,-2.38266l-5.58645,0l0,2.38266l5.58645,0zm0,-4.0384l0,-2.55765l-5.58645,0l0,2.57111l5.58645,-0.01346zm0,-4.2134l0,-2.71919l-5.58645,0l0,2.69227l5.58645,0.02692z" fill="black" id="svg_4"/>
   <path class="cls-5" d="m82.699,13.37614c1.14421,0 2.28843,0 3.43264,0l0.88845,0s0,0.52499 0,0.84806a8.42679,8.42679 0 0 1 -9.59793,9.34216a9.42293,9.42293 0 0 1 -8.57487,-9.88062a8.96525,8.96525 0 0 1 5.68068,-7.96911a9.12678,9.12678 0 0 1 9.63831,1.2519c0.22884,0.16154 0.53845,0.43076 0.53845,0.43076a6.09798,6.09798 0 0 1 -0.45769,0.51153l0,0l-1.23844,1.23844s-0.8346,-0.5923 -1.34613,-0.84806a6.79797,6.79797 0 0 0 -7.82103,0.78076a6.93258,6.93258 0 0 0 -1.70959,7.82103a6.58259,6.58259 0 0 0 6.54221,4.0384a5.51915,5.51915 0 0 0 5.58645,-4.25378c0.16154,-0.69999 -0.06731,-0.78076 -0.67307,-0.7673c-1.52113,0 -3.05572,0 -4.59031,0l-0.69999,0l0,-0.69999c0,-0.94229 0,-1.88459 0,-1.88459l4.40185,0l0,0.04038z" id="svg_5"/>
   <path class="cls-5" d="m123.08299,22.38177a5.20953,5.20953 0 0 1 -7.44412,-0.75383a6.07106,6.07106 0 0 1 0,-8.0768a5.223,5.223 0 0 1 7.44412,-0.68653c-0.13461,-1.13075 0.64614,-0.87499 1.23844,-0.87499c1.34613,0 1.34613,0 1.34613,1.34613c0,3.08264 0,6.17875 0,9.26139a9.09986,9.09986 0 0 1 -0.37692,2.69227a5.14223,5.14223 0 0 1 -5.00761,3.74225a5.81529,5.81529 0 0 1 -5.38453,-3.08264c0,-0.10769 -0.14807,-0.26923 -0.12115,-0.30961c0.45769,-0.5923 1.22498,-0.61922 1.81728,-0.95575s0.48461,0.12115 0.63268,0.34999a3.31149,3.31149 0 0 0 4.14609,1.34613c1.30575,-0.51153 1.95189,-1.92497 1.70959,-3.99801zm-6.27298,-4.73839a3.40572,3.40572 0 0 0 2.58458,3.52687a3.19034,3.19034 0 0 0 3.82302,-2.40958a3.71533,3.71533 0 0 0 -2.27496,-4.64416a3.35187,3.35187 0 0 0 -4.11917,3.52687l-0.01346,0z" id="svg_6"/>
   <path class="cls-5" d="m113.04083,17.73761a5.89606,5.89606 0 0 1 -6.24606,5.8826a6.00375,6.00375 0 1 1 0.51153,-11.99404a5.82876,5.82876 0 0 1 5.73453,6.11144zm-5.96337,3.49995a3.47302,3.47302 0 0 0 3.35187,-3.67494a3.41918,3.41918 0 1 0 -6.81143,0.10769a3.47302,3.47302 0 0 0 3.45956,3.56725z" id="svg_7"/>
   <path class="cls-5" d="m99.90257,17.57608a6.03068,6.03068 0 1 1 -12.1152,0a6.03068,6.03068 0 0 1 12.1152,0zm-9.42293,0a3.39226,3.39226 0 1 0 6.73066,0a3.39226,3.39226 0 1 0 -6.73066,0z" id="svg_8"/>
   <path class="cls-5" d="m131.28094,17.41454a5.68068,5.68068 0 0 1 3.01534,-5.18261a5.11531,5.11531 0 0 1 5.38453,0.22884a6.55567,6.55567 0 0 1 2.38266,3.19034c0.08077,0.18846 0.16154,0.43076 0.16154,0.43076l-0.56538,0.2423c-2.22112,0.91537 -4.48262,1.74997 -6.73066,2.69227c-0.43076,0.18846 -0.80768,0.39038 -0.80768,0.39038a8.89794,8.89794 0 0 0 0.53845,0.74037a3.35187,3.35187 0 0 0 4.80569,0c0.25577,-0.28269 0.65961,-0.67307 0.65961,-0.67307l0.69999,0.57884c0.68653,0.49807 1.27883,0.98268 1.27883,0.98268a11.11906,11.11906 0 0 1 -1.17114,1.09037a5.80183,5.80183 0 0 1 -6.44798,0.82114a5.66722,5.66722 0 0 1 -3.2038,-5.53261zm2.57111,0c1.6019,-0.65961 3.16341,-1.34613 4.73839,-1.95189l0.56538,-0.2423a3.52687,3.52687 0 0 0 -0.45769,-0.60576a2.69227,2.69227 0 0 0 -3.04226,-0.34999a3.16341,3.16341 0 0 0 -1.80382,3.14995z" id="svg_9"/>
   <path class="cls-5" d="m83.78936,35.04888a4.6307,4.6307 0 0 1 4.61724,-1.76343a3.21726,3.21726 0 0 1 3.12303,3.32495c0.09423,2.53073 0,5.06146 0,7.57873c0,0.80768 -0.57884,0.45769 -0.94229,0.51153s-0.7673,0 -0.7673,-0.60576c0,-2.32881 0,-4.65762 0,-6.97297a2.2615,2.2615 0 0 0 -1.0096,-2.12689a3.32495,3.32495 0 0 0 -4.89992,2.14035a10.24407,10.24407 0 0 0 -0.175,1.92497c0,1.58844 0,3.17687 0,4.76531c0,0.75383 -0.21538,0.92883 -0.94229,0.90191s-0.78076,-0.175 -0.78076,-0.79422q0,-7.26912 0,-14.5517c0,-0.72691 0.30961,-0.7673 0.88845,-0.79422s0.84806,0.18846 0.82114,0.8346c0.04038,1.79036 0.06731,3.56725 0.06731,5.62684z" id="svg_10"/>
   <path class="cls-5" d="m73.6126,44.88911a9.97485,9.97485 0 0 1 -3.14995,-0.39038a1.2519,1.2519 0 0 1 -0.72691,-1.6692c0.175,-0.34999 0.40384,-0.08077 0.5923,0a10.98445,10.98445 0 0 0 4.52301,0.53845a2.51727,2.51727 0 0 0 2.69227,-2.7865a2.30189,2.30189 0 0 0 -1.57498,-1.97882c-1.0096,-0.48461 -2.05958,-0.87499 -3.08264,-1.34613c-2.1942,-0.92883 -3.24418,-2.51727 -2.97495,-4.46916a3.87686,3.87686 0 0 1 3.82302,-3.37879a10.67483,10.67483 0 0 1 4.36147,0.48461c0.57884,0.18846 0.69999,0.44422 0.45769,0.99614s-0.29615,0.8346 -0.96922,0.55191a7.7268,7.7268 0 0 0 -3.54033,-0.52499a2.49035,2.49035 0 0 0 -2.32881,1.6019a2.46342,2.46342 0 0 0 1.1846,2.88072a23.54387,23.54387 0 0 0 2.98842,1.34613a4.76531,4.76531 0 0 1 3.06918,2.59804a4.0384,4.0384 0 0 1 -3.2038,5.38453a8.0768,8.0768 0 0 1 -2.14035,0.16154z" id="svg_11"/>
   <path class="cls-5" d="m100.19872,39.35651c-1.09037,0 -2.18074,0 -3.25764,0c-0.55191,0 -0.64614,0.22884 -0.60576,0.69999a3.55379,3.55379 0 0 0 3.93071,3.41918a10.12292,10.12292 0 0 0 2.62496,-0.48461c0.22884,-0.08077 0.61922,-0.44422 0.74037,0s0.29615,0.94229 -0.20192,1.34613a5.82876,5.82876 0 0 1 -8.77679,-4.13263a8.0768,8.0768 0 0 1 0.55191,-4.13263a4.698,4.698 0 0 1 5.38453,-2.69227a4.48262,4.48262 0 0 1 3.51341,4.22686c0.12115,1.79036 0.12115,1.79036 -1.68267,1.79036l-2.22112,-0.04038zm-0.91537,-1.34613l2.47688,0c0.39038,0 0.5923,-0.12115 0.57884,-0.56538a2.69227,2.69227 0 0 0 -2.90765,-2.8538a3.00188,3.00188 0 0 0 -2.98842,2.69227c-0.12115,0.55191 0,0.75383 0.55191,0.72691s1.54805,0 2.30189,0l-0.01346,0z" id="svg_12"/>
   <path class="cls-5" d="m112.17931,39.35651c-1.04998,0 -2.11343,0 -3.17687,0c-0.5923,0 -0.68653,0.2423 -0.63268,0.74037a3.56725,3.56725 0 0 0 4.14609,3.35187a12.38442,12.38442 0 0 0 2.49035,-0.45769c0.22884,-0.06731 0.61922,-0.44422 0.71345,0s0.32307,1.02306 -0.26923,1.2519a7.14797,7.14797 0 0 1 -6.21913,-0.06731a4.99415,4.99415 0 0 1 -2.53073,-4.54993a6.28644,6.28644 0 0 1 1.57498,-5.16915a4.6307,4.6307 0 0 1 5.11531,-0.88845a4.33455,4.33455 0 0 1 2.69227,4.0384c0.13461,1.73651 0.10769,1.73651 -1.64228,1.73651l-2.2615,0.01346zm-0.82114,-1.34613l2.38266,0c0.29615,0 0.57884,0 0.63268,-0.40384a2.94803,2.94803 0 0 0 -2.05958,-2.94803a3.16341,3.16341 0 0 0 -3.89032,2.84034c0,0.43076 0.09423,0.52499 0.47115,0.52499l2.46342,-0.01346z" id="svg_13"/>
   <path class="cls-5" d="m130.09634,14.54728c0,2.69227 0,5.2903 0,7.92872c0,0.57884 -0.10769,0.82114 -0.75383,0.82114c-1.91151,0 -1.91151,0 -1.91151,-1.85766c0,-5.00761 0,-10.00177 0,-14.99592c0,-0.71345 0.21538,-0.87499 0.88845,-0.86153c1.7769,0 1.7769,0 1.7769,1.73651l0,7.22873z" id="svg_14"/>
   <path class="cls-5" d="m129.35596,44.88911a7.41719,7.41719 0 0 1 -2.8538,-0.44422a1.34613,1.34613 0 0 1 -0.53845,-1.56151c0.175,-0.28269 0.36346,-0.06731 0.52499,0a7.92872,7.92872 0 0 0 3.52687,0.63268a3.66148,3.66148 0 0 0 1.21152,-0.2423a1.45382,1.45382 0 0 0 1.07691,-1.26537a1.50767,1.50767 0 0 0 -0.78076,-1.54805a17.49973,17.49973 0 0 0 -2.69227,-1.21152a7.04028,7.04028 0 0 1 -1.79036,-0.91537a2.69227,2.69227 0 0 1 0.39038,-4.56339a7.40373,7.40373 0 0 1 5.84222,0c0.53845,0.18846 0.22884,0.49807 0.13461,0.7673s-0.21538,0.82114 -0.84806,0.55191a6.4749,6.4749 0 0 0 -3.10957,-0.45769a3.83648,3.83648 0 0 0 -0.98268,0.28269a1.34613,1.34613 0 0 0 -0.32307,2.31535a8.41333,8.41333 0 0 0 2.12689,1.03652c0.69999,0.30961 1.4269,0.56538 2.09997,0.92883a2.69227,2.69227 0 0 1 1.58844,2.79996a2.90765,2.90765 0 0 1 -2.07304,2.59804a6.15183,6.15183 0 0 1 -2.53073,0.29615z" id="svg_15"/>
   <path class="cls-5" d="m122.57145,44.88911a2.92111,2.92111 0 0 1 -3.36533,-3.17687c0,-2.05958 0,-4.11917 0,-6.16529c0,-0.67307 -0.14807,-0.98268 -0.87499,-0.90191c-0.25577,0 -0.67307,0.22884 -0.75383,-0.32307s0.21538,-0.57884 0.53845,-0.67307a1.76343,1.76343 0 0 0 1.4269,-1.65574c0,-0.28269 0.18846,-0.55191 0.25577,-0.8346s0.39038,-0.36346 0.68653,-0.37692s0.4173,0.25577 0.40384,0.53845l0,0.08077c0.09423,0.65961 -0.33653,1.53459 0.21538,1.91151s1.23844,0.09423 1.88459,0.10769a4.2134,4.2134 0 0 0 0.71345,0c0.48461,0 0.49807,0.26923 0.48461,0.61922s0,0.64614 -0.48461,0.63268s-1.34613,0 -2.0192,0s-0.82114,0.14807 -0.80768,0.78076c0,1.87112 0,3.75571 0,5.62684s0.78076,2.69227 2.69227,2.42304c0.22884,0 0.63268,-0.33653 0.60576,0.22884s0.26923,0.86153 -0.37692,1.0096a5.20953,5.20953 0 0 1 -1.22498,0.14807z" id="svg_16"/>
  </g>
 </g>
</svg>