<?xml version="1.0"?>
<svg width="160" height="50" xmlns="http://www.w3.org/2000/svg" xmlns:svg="http://www.w3.org/2000/svg">
 <g>
  <title>Layer 1</title>
  <g stroke="null" id="svg_1">
   <linearGradient stroke="null" transform="translate(0,0.039550840854644775) translate(6.22021484375,0) translate(0.474609375,-0.474609375) translate(-30,-14) translate(0,1) scale(0.800000011920929) translate(0,-1) translate(0.59326171875,0.6567382216453552) scale(1.01812744140625) translate(-0.59326171875,-0.6567382216453552) " y2="1" x2="0.5" y1="0" x1="0.5" id="SVGID_1_">
    <stop stroke="null" stop-color="#F99916" offset="0"/>
    <stop stroke="null" stop-color="#F86606" offset="1"/>
   </linearGradient>
   <path stroke="null" id="svg_2" d="m150.04717,49.435059l-140.094338,0c-1.791904,0 -3.258008,-1.466104 -3.258008,-3.258008l0,-42.354102c0,-1.791904 1.466104,-3.258008 3.258008,-3.258008l140.094338,0c1.791904,0 3.258008,1.466104 3.258008,3.258008l0,42.354102c0,1.791904 -1.466104,3.258008 -3.258008,3.258008z" fill="url(#SVGID_1_)"/>
   <g stroke="null" id="svg_3">
    <path stroke="null" id="svg_4" d="m18.668003,36.077227l0,-22.154453l4.15396,0l0,8.878071l5.945864,0l0,-8.878071l4.15396,0l0,22.073003l-4.15396,0l0,-9.448223l-5.945864,0l0,9.529673c0,0 -4.15396,0 -4.15396,0zm18.244844,0l5.457163,-22.073003l5.375713,0l5.294263,22.073003l-3.99106,0l-1.058853,-4.642661l-5.782964,0l-1.221753,4.642661l-4.07251,0zm6.108765,-8.47082l4.15396,0l-2.036255,-8.959522l-0.08145,0l-2.036255,8.959522zm23.702007,8.47082l-3.665259,-9.040972l-2.036255,0l0,9.040972l-4.15396,0l0,-22.154453l6.027315,0c5.049912,0 7.411968,2.443506 7.411968,6.597466c0,2.687856 -0.895952,4.724111 -3.339458,5.620064l4.15396,9.855474c0,0.08145 -4.398311,0.08145 -4.398311,0.08145zm-5.701514,-12.54333l2.117705,0c1.873355,0 3.013657,-0.895952 3.013657,-3.095107c0,-2.117705 -1.140303,-3.095107 -3.013657,-3.095107l-2.117705,0c0,0.08145 0,6.190215 0,6.190215zm12.706231,-9.611123l4.15396,0l3.828159,15.801338l0.08145,0l3.828159,-15.801338l4.07251,0l-5.620064,22.073003l-4.724111,0c0,0.08145 -5.620064,-22.073003 -5.620064,-22.073003zm19.873848,22.154453l0,-22.154453l11.484478,0l0,3.746709l-7.330518,0l0,5.131362l5.538613,0l0,3.746709l-5.538613,0l0,5.782964l7.574868,0l0,3.746709c0,0 -11.728828,0 -11.728828,0zm25.901162,-15.882788c-0.651602,-2.036255 -1.629004,-3.013657 -3.095107,-3.013657s-2.280606,0.895952 -2.280606,2.362056c0,3.339458 9.366773,3.583809 9.366773,10.344175c0,3.746709 -2.524956,6.271665 -7.004717,6.271665c-3.420908,0 -6.027315,-1.873355 -7.167617,-6.108765l4.15396,-0.814502c0.488701,2.606406 2.036255,3.583809 3.258008,3.583809c1.466104,0 2.524956,-0.895952 2.524956,-2.606406c0,-4.15396 -9.366773,-4.15396 -9.366773,-10.262725c0,-3.746709 2.199155,-6.108765 6.516016,-6.108765c3.746709,0 6.027315,2.199155 6.678916,5.294263c0.1629,-0.08145 -3.583809,1.058853 -3.583809,1.058853zm21.828653,-6.271665l0,3.746709l-4.805562,0l0,18.326294l-4.15396,0l0,-18.326294l-4.805562,0l0,-3.746709l13.765083,0l0,0z" fill="#FFFFFF"/>
   </g>
  </g>
 </g>
</svg>