<svg width="160" height="50" xmlns="http://www.w3.org/2000/svg" xmlns:svg="http://www.w3.org/2000/svg">
 <g>
  <title>Layer 1</title>
  <path id="svg_1" d="m1.21875,32.19774l0,-14.18063l2.72153,0l0,5.65793l3.79582,0l0,-5.65793l2.72153,0l0,14.18063l-2.72153,0l0,-6.15926l-3.79582,0l0,6.15926l-2.72153,0zm11.67395,0l3.50935,-14.18063l3.50935,0l3.43773,14.18063l-2.5783,0l-0.71619,-3.00801l-3.79582,0l-0.71619,3.00801l-2.64991,0zm3.86744,-5.37145l2.64991,0l-1.28915,-5.72955l-0.07162,0l-1.28915,5.72955zm15.1833,5.37145l-2.36344,-5.80116l-1.28915,0l0,5.80116l-2.72153,0l0,-14.18063l3.93906,0c3.29449,0 4.79849,1.57563 4.79849,4.22554c0,1.71886 -0.64457,3.07963 -2.14858,3.58097l2.64991,6.3025l-2.86477,0l0,0.07162zm-3.65259,-8.02136l1.43239,0c1.21753,0 1.93372,-0.57295 1.93372,-1.93372s-0.71619,-1.93372 -1.93372,-1.93372l-1.43239,0c0,-0.07162 0,3.86744 0,3.86744zm8.1646,-6.15926l2.64991,0l2.50668,10.09832l0.07162,0l2.43506,-10.09832l2.64991,0l-3.65259,14.18063l-3.07963,0c0,0 -3.58097,-14.18063 -3.58097,-14.18063zm12.605,14.18063l0,-14.18063l7.37679,0l0,2.36344l-4.65526,0l0,3.29449l3.58097,0l0,2.36344l-3.58097,0l0,3.7242l4.87011,0l0,2.36344c0,0.07162 -7.59165,0.07162 -7.59165,0.07162zm16.6873,-10.24156c-0.42972,-1.28915 -1.00267,-1.93372 -1.93372,-1.93372c-1.00267,0 -1.50401,0.57295 -1.50401,1.50401c0,2.14858 6.01602,2.29182 6.01602,6.6606c0,2.43506 -1.71886,4.01068 -4.51202,4.01068c-2.14858,0 -3.93906,-1.21753 -4.65526,-3.93906l2.64991,-0.57295c0.3581,1.71886 1.28915,2.29182 2.14858,2.29182c0.93105,0 1.71886,-0.64457 1.71886,-1.71886c0,-2.64991 -6.01602,-2.72153 -6.01602,-6.6606c0,-2.43506 1.50401,-3.93906 4.22554,-3.93906c2.36344,0 3.86744,1.43239 4.36878,3.43773c-0.07162,0.07162 -2.50668,0.85943 -2.50668,0.85943zm14.18063,-3.93906l0,2.36344l-3.15125,0l0,11.74557l-2.72153,0l0,-11.67395l-3.15125,0l0,-2.36344c0,-0.07162 9.02403,-0.07162 9.02403,-0.07162zm17.33188,0l0,1.28915l-6.80384,0l0,4.72688l5.08497,0l0,1.28915l-5.08497,0l0,6.80384l-1.57563,0l0,-14.10901l8.37946,0zm5.01335,14.32386c-2.79315,0 -4.22554,-2.36344 -4.22554,-5.29983s1.43239,-5.29983 4.22554,-5.29983s4.22554,2.36344 4.22554,5.29983c-0.07162,2.93639 -1.43239,5.29983 -4.22554,5.29983zm0,-9.38213c-1.71886,0 -2.79315,1.50401 -2.79315,4.0823c0,2.5783 1.07429,4.0823 2.79315,4.0823s2.79315,-1.50401 2.79315,-4.0823c0,-2.5783 -1.07429,-4.0823 -2.79315,-4.0823zm6.44574,-0.93105l1.43239,0l0,2.00534l0.07162,0c0.78781,-1.43239 1.64724,-2.14858 3.29449,-2.14858l0,1.43239c-1.71886,0.07162 -2.64991,1.21753 -3.36611,3.29449l0,5.65793l-1.43239,0l0,-10.24156l0,0zm14.53872,7.94974c-0.64457,1.14591 -1.64724,2.36344 -3.93906,2.36344c-2.29182,0 -4.4404,-1.57563 -4.4404,-5.29983c0,-3.29449 1.64724,-5.29983 4.15392,-5.29983c2.14858,0 3.86744,1.36077 3.86744,4.65526l0,0.93105l-6.6606,0c0,2.2202 1.28915,3.79582 3.00801,3.79582c1.21753,0 2.2202,-0.64457 2.86477,-1.71886l1.14591,0.57295l0,0zm-1.79048,-3.86744c0,-1.93372 -0.93105,-3.15125 -2.43506,-3.15125c-1.71886,0 -2.5783,1.21753 -2.72153,3.15125l5.15659,0zm10.0267,-1.14591c-0.3581,-1.21753 -1.21753,-2.00534 -2.36344,-2.00534c-1.71886,0 -2.79315,1.50401 -2.79315,4.0823c0,2.5783 1.00267,4.0823 2.79315,4.0823c1.28915,0 2.00534,-0.42972 2.79315,-1.93372l1.14591,0.50134c-1.00267,1.71886 -1.93372,2.5783 -3.93906,2.5783c-2.5783,0 -4.22554,-2.00534 -4.22554,-5.29983s1.64724,-5.29983 4.22554,-5.29983c2.14858,0 3.07963,1.21753 3.7242,2.79315l-1.36077,0.50134l0,0zm3.65259,-1.00267c0.64457,-1.21753 1.93372,-2.14858 3.79582,-2.14858c1.71886,0 3.50935,0.78781 3.50935,3.07963l0,5.08497c0,1.14591 0.14324,1.71886 0.21486,2.14858l-1.50401,0l-0.14324,-1.43239c-0.71619,0.78781 -1.8621,1.64724 -3.36611,1.64724c-1.57563,0 -2.86477,-0.93105 -2.86477,-2.79315c0,-2.2202 1.71886,-3.36611 6.23088,-4.15392l0,-0.57295c0,-1.36077 -0.85943,-1.8621 -2.14858,-1.8621c-1.57563,0 -2.36344,0.93105 -2.5783,1.57563l-1.14591,-0.57295l0,0zm6.01602,2.72153c-3.22287,0.57295 -4.87011,1.50401 -4.87011,2.93639c0,0.93105 0.93105,1.57563 1.71886,1.57563c1.00267,0 2.29182,-0.78781 3.15125,-1.71886c0,0.07162 0,-2.79315 0,-2.79315zm4.51202,2.86477c0.64457,1.00267 1.64724,1.57563 2.93639,1.57563c1.50401,0 2.14858,-0.78781 2.14858,-1.71886c0,-2.5783 -6.01602,-1.21753 -5.9444,-4.94173c0.07162,-1.71886 1.43239,-2.79315 3.36611,-2.72153c1.28915,0 2.79315,0.78781 3.50935,1.79048l-1.00267,0.85943c-0.78781,-1.00267 -1.50401,-1.43239 -2.5783,-1.43239c-1.21753,0 -1.8621,0.57295 -1.8621,1.50401c0,2.2202 5.9444,1.07429 5.9444,4.87011c0,1.93372 -1.71886,3.00801 -3.58097,3.00801c-1.57563,0 -3.15125,-0.71619 -4.0823,-1.93372l1.14591,-0.85943l0,0zm9.31051,-7.52003l0,-3.36611l1.43239,0l0,3.36611l2.36344,0l0,1.21753l-2.36344,0l0,7.23355c0,0.50134 0.3581,0.71619 1.14591,0.71619c0.50134,0 0.85943,-0.07162 1.21753,-0.14324l0,1.14591c-0.28648,0.07162 -0.78781,0.14324 -1.64724,0.14324c-1.50401,0 -2.14858,-0.3581 -2.14858,-1.71886l0,-7.44841l-1.71886,0l0,-1.21753c0,0.07162 1.71886,0.07162 1.71886,0.07162z" fill="#F36C00"/>
 </g>
</svg>