<svg width="160" height="50" xmlns="http://www.w3.org/2000/svg" xmlns:svg="http://www.w3.org/2000/svg">
 <g>
  <title>Layer 1</title>
  <g stroke="null" id="svg_1">
   <path stroke="null" id="svg_2" d="m70.60933,36.67252l0,-22.81846l-5.00251,0l0,9.12738l-10.18054,0l0,-9.12738l-5.09027,0l0,22.81846l5.09027,0l0,-9.03962l10.18054,0l0,9.03962c0,0 5.00251,0 5.00251,0zm28.17202,-4.73922l-12.37462,0l0,-4.56369l11.2337,0l0,-4.47593l-11.2337,0l0,-4.38816l11.93581,0l0,-4.65145l-16.93832,0l0,22.81846l17.37713,0l0,-4.73922zm27.55767,4.65145l5.52909,0l-10.26831,-22.81846l-5.52909,0l-10.26831,22.81846l5.44132,0l1.6675,-3.94935l11.67252,0l1.75527,3.94935zm-3.59829,-8.42528l-7.81093,0l3.94935,-9.21515l3.86158,9.21515zm22.29188,-9.5662l5.70461,0c2.36961,0 3.68606,1.6675 3.68606,3.42277s-1.22869,3.42277 -3.68606,3.42277l-5.70461,0l0,-6.84554zm5.70461,11.58475c5.79238,-0.08776 8.68857,-3.59829 8.68857,-8.16199c0,-4.38816 -2.89619,-8.16199 -8.68857,-8.16199l-10.70712,0l0,22.81846l5.09027,0l0,-6.40672l5.61685,0l0,-0.08776z" fill="#000100"/>
   <linearGradient stroke="null" transform="translate(0,4.062607288360596) translate(-0.1328125,0) translate(-28.79296875,-21.19921875) translate(0.70703125,0.4007812738418579) scale(0.8776329159736633) translate(-0.70703125,-0.4007812738418579) " y2="0.21095" x2="0.18013" y1="0.79282" x1="0.82164" id="SVGID_1_">
    <stop stroke="null" stop-color="#DD4362" offset="0"/>
    <stop stroke="null" stop-color="#EE633F" offset="0.5671"/>
    <stop stroke="null" stop-color="#FB7C24" offset="1"/>
   </linearGradient>
   <path stroke="null" id="svg_3" d="m18.12688,4.46339l-17.55266,10.35607l0,20.36108l17.55266,10.35607l17.55266,-10.35607l0,-20.36108l-17.55266,-10.35607zm-0.08776,37.2994l-14.21765,-8.42528l0,-16.4995l14.21765,-8.42528l0,16.93832l14.21765,-8.42528l0,16.4995l-14.21765,8.33751z" fill="url(#SVGID_1_)"/>
  </g>
 </g>
</svg>