<?xml version="1.0" encoding="utf-8"?>
<!-- Generator: Adobe Illustrator 23.0.4, SVG Export Plug-In . SVG Version: 6.00 Build 0)  -->
<svg version="1.1" id="Layer_1" xmlns="http://www.w3.org/2000/svg" xmlns:xlink="http://www.w3.org/1999/xlink" x="0px" y="0px"
	 viewBox="0 0 240 90" enable-background="new 0 0 240 90" xml:space="preserve">
<g>
	<path fill="#2A3B47" d="M77.2,33.2L77.2,33.2l-0.1,10.1h-9.6V33.2l-0.1,0c-1.4-0.3-2.8-0.3-4.2,0l-0.1,0v23.3l0.1,0
		c0.7,0.1,1.4,0.2,2.1,0.2c0.7,0,1.4-0.1,2.1-0.2l0.1,0v-9.4h9.6v9.4l0.1,0c1.4,0.3,2.8,0.3,4.2,0l0.1,0V33.2l-0.1,0
		C80.1,33,78.7,33,77.2,33.2L77.2,33.2z M92.1,39.8c-5,0-8,3.2-8,8.5c0,2.8,0.6,5,1.9,6.5c1.4,1.7,3.4,2.5,6.2,2.5
		c4.6,0,7-2.8,7.3-5.5v-0.1l-0.1,0c-1.2-0.4-2.3-0.5-3.6-0.3h0v0C95.5,53,94.2,54,92.2,54c-2.8,0-4.1-1.5-4.2-4.6h11.7v-0.1
		c0.3-3.1-0.3-5.6-1.8-7.3C96.6,40.6,94.6,39.8,92.1,39.8L92.1,39.8z M92.1,42.8c1.2,0,2.1,0.4,2.8,1.1c0.7,0.7,1,1.8,0.9,3.1h-7.7
		C88.1,44.3,89.6,42.8,92.1,42.8z M102.6,33.2L102.6,33.2l-0.1,23.3l0.1,0c0.7,0.1,1.3,0.2,2,0.2c0.7,0,1.3-0.1,2-0.2l0.1,0V33.2
		l-0.1,0C105.2,32.9,103.9,33,102.6,33.2L102.6,33.2z M118.1,39.8c-1.7,0-3.6,0.7-5.3,2l-0.2-1.2l0,0c-1-0.3-1.8-0.3-2.8,0l0,0v23.1
		l0.1,0c0.7,0.1,1.3,0.2,2,0.2s1.3-0.1,2-0.2l0.1,0v-7.7c1.4,0.9,2.8,1.3,4.5,1.3c4.6,0,7.3-3.2,7.3-8.7
		C125.5,43,122.8,39.8,118.1,39.8L118.1,39.8z M113.7,44.4c1.2-0.8,2.4-1.2,3.6-1.2c2.8,0,4.3,1.9,4.3,5.5c0,3.5-1.5,5.3-4.3,5.3
		c-1.2,0-2.4-0.4-3.5-1.2L113.7,44.4L113.7,44.4z M143,44c-0.7-0.3-1.3-0.5-1.9-0.7c-3.2-1.1-5.1-1.8-5.1-3.5c0-0.8,0.2-1.5,0.8-2
		c0.8-0.8,2.1-1.2,3.8-1.2c1.6,0,2.8,0.4,3.6,1.2c0.6,0.7,0.9,1.6,0.8,2.8v0.1l0.1,0c1.4,0.3,2.8,0.2,4.3-0.1l0.1,0v-0.1
		c0.1-1.9-0.5-3.6-1.7-4.9c-1.5-1.6-3.9-2.4-6.9-2.4h-0.1c-5.6,0-9,2.5-9.1,6.7c0,4.2,3.8,5.6,6.1,6.4l0.3,0.1
		c0.8,0.3,1.5,0.5,2.1,0.7c3.1,1.1,5,1.7,5.1,3.4c0,0.9-0.2,1.6-0.7,2.1c-0.7,0.8-2.1,1.2-3.8,1.1c-1.9,0-3.4-0.5-4.2-1.4
		c-0.6-0.7-0.9-1.5-0.8-2.6v-0.1l-0.1,0c-1.4-0.3-2.8-0.2-4.2,0.1l0,0v0.1c-0.1,1.9,0.5,3.6,1.7,4.8c1.6,1.7,4.3,2.6,7.7,2.6
		c3.4,0,8.9-0.9,9-6.8C149.6,46.5,146.2,45.2,143,44L143,44z M159.7,43.1c2.8,0,3.4,1.8,3.6,2.9v0.1h0.1c1.3,0.2,2.5,0.1,3.7-0.2
		l0.1,0v-0.1c-0.1-1.6-0.8-3.1-2-4.2c-1.3-1.2-3.2-1.9-5.4-1.9c-5.3,0-8.2,3.1-8.2,8.7c0,5.6,2.9,8.7,8.1,8.7c2.3,0,4.2-0.7,5.5-1.9
		c1.1-1,1.8-2.4,1.9-4v-0.1l-0.1,0c-1.1-0.4-2.3-0.5-3.7-0.2h0v0c-0.4,2.5-2.8,2.7-3.6,2.7c-2.8,0-4.2-1.7-4.2-5.3
		C155.6,44.8,156.9,43.1,159.7,43.1L159.7,43.1z M177.2,39.8c-5.2,0-8.1,3.1-8.1,8.7c0,5.6,2.9,8.7,8.1,8.7s8.1-3.1,8.1-8.7
		C185.2,42.9,182.4,39.8,177.2,39.8z M181.3,48.5c0,3.6-1.4,5.3-4.1,5.3s-4.1-1.7-4.1-5.3c0-3.7,1.3-5.4,4.1-5.4
		C179.9,43.1,181.3,44.9,181.3,48.5z M198.3,40.5L198.3,40.5l-0.1,11.6c-1.3,1.1-2.5,1.6-3.9,1.6c-1.9,0-2.8-1.1-2.8-3.7v-9.5
		l-0.1,0c-1.3-0.3-2.6-0.3-4,0l-0.1,0v10.4c0,4,2.1,6.2,5.9,6.2c2,0,3.7-0.8,5.6-2.5l0.4,1.8l0,0c0.9,0.2,1.9,0.2,2.9,0l0.1,0v-16
		l-0.1,0C200.9,40.2,199.6,40.2,198.3,40.5L198.3,40.5z M214.8,53.4L214.8,53.4L214.8,53.4c-1.7,0.3-2.6,0.3-3.1-0.1
		c-0.5-0.4-0.7-1-0.7-2v-7.4h3.2l0-0.1c0.2-1.1,0.2-2.2,0-3.3l0-0.1H211V36l-0.1,0c-1.3-0.3-2.6-0.3-4,0l-0.1,0l0,4.4h-2l0,0.1
		c-0.2,1.1-0.2,2.2,0,3.3l0,0.1h2l0,7.1c0,2,0.1,4,1.5,5.2c0.7,0.6,1.8,0.9,3.2,0.9c0.9,0,1.9-0.1,3-0.3h0l0,0
		C215.1,55.6,215.1,54.5,214.8,53.4L214.8,53.4z"/>
	<path fill="#1292EE" d="M27.2,48.1l11-11c1.4-1.4,2.3-3.4,2.3-5.5c0-2.1-0.9-4.1-2.2-5.5l-11,11c-1.4,1.4-2.3,3.4-2.3,5.5
		S25.9,46.7,27.2,48.1z M53.9,41.7l-11,11c-1.4,1.4-2.3,3.4-2.3,5.5c0,2.1,0.9,4.1,2.2,5.5l11-11c1.4-1.4,2.3-3.4,2.3-5.5
		S55.2,43.1,53.9,41.7z M53.8,37.1c1.4-1.4,2.3-3.4,2.3-5.5c0-2.1-0.9-4.1-2.2-5.5L27.3,52.7C25.9,54.1,25,56,25,58.2
		c0,2.1,0.9,4.1,2.2,5.5L53.8,37.1z"/>
</g>
</svg>
