<?xml version="1.0"?>
<svg width="160" height="50" xmlns="http://www.w3.org/2000/svg" xmlns:svg="http://www.w3.org/2000/svg">
 <g>
  <title>Layer 1</title>
  <g stroke="null" id="Layer_1_1_">
   <g stroke="null" id="svg_1">
    <polygon stroke="null" id="svg_2" points="17.476123809814453,22.905900955200195 5.749156951904297,22.905900955200195 5.749156951904297,10.460956573486328 0.125,10.460956573486328 0.125,40.8553352355957 5.749156951904297,40.8553352355957 5.749156951904297,28.29073143005371 17.476123809814453,28.29073143005371 17.476123809814453,40.8553352355957 23.10028076171875,40.8553352355957 23.10028076171875,10.460956573486328 17.476123809814453,10.460956573486328 " fill="#465661"/>
    <path stroke="null" id="svg_3" d="m40.690729,30.923315c0,2.512921 -2.03427,4.666854 -4.666854,4.666854c-2.512921,0 -4.666854,-2.03427 -4.666854,-4.666854l0,-13.043258l-5.265168,0l0,13.043258c0,5.504494 4.427528,9.932022 9.932022,9.932022s9.932022,-4.427528 9.932022,-9.932022l0,-13.043258l-5.265168,0l0,13.043258z" fill="#465661"/>
    <path stroke="null" id="svg_4" d="m60.794099,17.99972c-2.632584,0 -4.427528,0.717977 -6.222472,2.512921l0,-10.051685l-5.384831,0l0,18.667415c0,6.940449 5.025842,11.726966 10.769662,11.726966c6.342135,0 11.846629,-4.90618 11.846629,-11.367977s-5.145505,-11.48764 -11.008988,-11.48764zm0.119663,17.949437c-3.589887,0 -6.342135,-2.991573 -6.342135,-6.461797s2.752247,-6.461797 6.342135,-6.461797c2.991573,0 5.74382,2.991573 5.74382,6.461797s-2.752247,6.461797 -5.74382,6.461797z" fill="#465661"/>
    <path stroke="null" id="svg_5" d="m80.658143,19.435675c0,-2.632584 1.794944,-3.470225 3.70955,-3.470225c1.555618,0 3.589887,1.196629 5.025842,2.632584l3.470225,-4.068539c-1.675281,-2.273595 -5.265168,-3.948876 -8.137078,-3.948876c-5.74382,0 -9.932022,3.350562 -9.932022,8.855056c0,10.291011 12.684269,7.060112 12.684269,12.803932c0,1.794944 -1.675281,3.350562 -3.70955,3.350562c-3.111236,0 -4.188202,-1.555618 -5.624157,-3.111236l-3.829213,3.829213c2.512921,2.991573 5.504494,4.547191 9.094382,4.547191c5.504494,0 9.812359,-3.350562 9.812359,-8.61573c0.119663,-11.48764 -12.564606,-7.897752 -12.564606,-12.803932z" fill="#465661"/>
    <path stroke="null" id="svg_6" d="m107.22331,17.760394c-5.624157,0 -10.769662,4.786517 -10.769662,11.726966l0,18.667415l5.384831,0l0,-10.051685c1.794944,1.675281 3.589887,2.512921 6.222472,2.512921c5.863483,0 11.008988,-4.90618 11.008988,-11.367977c0,-6.58146 -5.504494,-11.48764 -11.846629,-11.48764zm0.957303,17.949437c-3.589887,0 -6.342135,-2.991573 -6.342135,-6.461797s2.752247,-6.461797 6.342135,-6.461797c2.991573,0 5.74382,2.991573 5.74382,6.461797c0.119663,3.470225 -2.632584,6.461797 -5.74382,6.461797z" fill="#465661"/>
    <path stroke="null" id="svg_7" d="m158.08005,35.949158c-3.111236,0 -4.068539,-1.316292 -4.068539,-3.470225l0,-9.094382l4.90618,0l0,-4.666854l-4.90618,0l0,-6.102809l-5.384831,2.393258l0,18.667415c0,4.786517 3.350562,7.179775 7.77809,7.179775c0.717977,0 1.555618,0 2.153932,-0.119663l1.316292,-4.786517c-0.478652,0 -1.196629,0 -1.794944,0z" fill="#465661"/>
    <path stroke="null" id="svg_8" d="m144.199152,23.623877c-0.957303,-1.794944 -2.393258,-3.111236 -4.188202,-4.188202c-1.316292,-0.717977 -2.752247,-1.316292 -4.307865,-1.435955l0,-5.624157c1.555618,-0.717977 2.512921,-2.153932 2.512921,-3.829213c0,-2.273595 -1.914607,-4.188202 -4.188202,-4.188202s-4.188202,1.914607 -4.188202,4.188202c0,1.675281 0.957303,3.230899 2.512921,3.829213l0,5.504494c-1.316292,0.239326 -2.632584,0.598315 -3.829213,1.196629c-2.393258,-1.794944 -10.410674,-7.897752 -14.957865,-11.367977c0.119663,-0.358989 0.239326,-0.83764 0.239326,-1.196629c-0.119663,-2.512921 -2.153932,-4.666854 -4.786517,-4.666854s-4.666854,2.153932 -4.666854,4.666854c0,2.632584 2.03427,4.666854 4.666854,4.666854c0.83764,0 1.675281,-0.239326 2.393258,-0.717977l0.957303,0.717977l13.402247,9.812359c-0.717977,0.598315 -1.316292,1.435955 -1.914607,2.273595c-1.076966,1.675281 -1.675281,3.589887 -1.675281,5.624157c0,0.119663 0,0.239326 0,0.478652c0,1.435955 0.239326,2.752247 0.717977,4.068539c0.358989,1.076966 0.957303,2.153932 1.675281,2.991573l-4.427528,4.427528c-0.358989,-0.119663 -0.83764,-0.239326 -1.196629,-0.239326c-0.957303,0 -1.914607,0.358989 -2.512921,1.076966c-0.717977,0.717977 -1.076966,1.555618 -1.076966,2.512921s0.358989,1.914607 1.076966,2.512921c0.717977,0.717977 1.555618,1.076966 2.512921,1.076966c0.957303,0 1.914607,-0.358989 2.512921,-1.076966c0.717977,-0.717977 1.076966,-1.555618 1.076966,-2.512921c0,-0.358989 0,-0.717977 -0.119663,-1.076966l4.666854,-4.666854c0.598315,0.478652 1.316292,0.83764 2.03427,1.076966c1.435955,0.598315 2.991573,0.957303 4.786517,0.957303c0.119663,0 0.239326,0 0.358989,0c1.914607,0 3.70955,-0.478652 5.504494,-1.316292c1.794944,-0.957303 3.230899,-2.273595 4.307865,-4.068539c1.076966,-1.675281 1.675281,-3.589887 1.675281,-5.74382l0,-0.119663c-0.119663,-1.914607 -0.598315,-3.829213 -1.555618,-5.624157zm-5.74382,9.573033c-1.196629,1.435955 -2.632584,2.153932 -4.307865,2.153932c-0.119663,0 -0.119663,0 -0.239326,0c-0.957303,0 -1.794944,-0.239326 -2.752247,-0.598315c-0.957303,-0.478652 -1.794944,-1.196629 -2.393258,-2.153932s-0.957303,-1.914607 -0.957303,-2.87191c0,-0.119663 0,-0.239326 0,-0.358989c0,-1.076966 0.239326,-2.03427 0.717977,-2.991573s1.316292,-1.794944 2.273595,-2.393258s1.914607,-0.957303 3.111236,-0.957303l0.119663,0c1.076966,0 2.03427,0.239326 2.87191,0.717977c0.957303,0.478652 1.675281,1.196629 2.273595,2.03427s0.957303,1.914607 1.076966,2.87191c0,0.239326 0,0.358989 0,0.598315c-0.119663,1.555618 -0.598315,2.752247 -1.794944,3.948876z" fill="#F47622"/>
   </g>
  </g>
 </g>
</svg>