<svg width="160" height="50" xmlns="http://www.w3.org/2000/svg" xmlns:svg="http://www.w3.org/2000/svg">
 <defs>
  <style>.cls-1{fill:#247cc5;}.cls-2{fill:#87c4ed;}.cls-3{fill:#247bc5;}.cls-4{fill:#f29f00;}</style>
 </defs>
 <g class="layer">
  <title>Layer 1</title>
  <g id="Guidelines">
   <g id="vAV7jP">
    <path class="cls-1" d="m137.30902,28.99268a33.0456,33.0456 0 0 1 0.2915,-4.89368a15.58205,15.58205 0 0 1 1.98751,-6.10385a9.7167,9.7167 0 0 1 6.99602,-4.71701a11.48337,11.48337 0 0 1 6.01552,0.583a9.14253,9.14253 0 0 1 5.30002,5.19402a18.55006,18.55006 0 0 1 1.26317,4.65518a36.13728,36.13728 0 0 1 0.33567,4.80535a40.02395,40.02395 0 0 1 -0.20317,4.60218a20.06056,20.06056 0 0 1 -1.84617,6.84585a9.51353,9.51353 0 0 1 -4.30185,4.41668a10.60003,10.60003 0 0 1 -4.14285,1.01584a12.19004,12.19004 0 0 1 -4.18701,-0.45933a8.76269,8.76269 0 0 1 -5.07918,-4.05451a15.71455,15.71455 0 0 1 -1.76667,-4.86718a33.1516,33.1516 0 0 1 -0.6625,-7.02252zm15.73221,0.33567c0,-1.02467 0,-2.04934 -0.09717,-3.07401a22.0834,22.0834 0 0 0 -0.583,-4.08101a7.64086,7.64086 0 0 0 -1.33384,-2.95034a3.26834,3.26834 0 0 0 -5.30002,0.159a8.12669,8.12669 0 0 0 -1.04234,2.13767a23.6469,23.6469 0 0 0 -0.9275,6.52785a41.39313,41.39313 0 0 0 0.0795,4.18701a21.8449,21.8449 0 0 0 0.64484,4.23118a7.62319,7.62319 0 0 0 1.30734,2.83551a3.28601,3.28601 0 0 0 4.65518,0.57417a4.96435,4.96435 0 0 0 1.26317,-1.69601a13.62104,13.62104 0 0 0 1.09534,-4.20468a33.79644,33.79644 0 0 0 0.2385,-4.64635z" id="svg_1"/>
    <path class="cls-1" d="m88.25737,29.21351l0,-14.41604a2.17301,2.17301 0 0 1 0,-0.477a0.44167,0.44167 0 0 1 0.4505,-0.424l0.265,0c3.00334,0 6.00668,0 9.01886,0a11.39503,11.39503 0 0 1 4.41668,0.7685a6.99602,6.99602 0 0 1 4.23118,5.04385a13.02037,13.02037 0 0 1 0.24733,4.60218a8.59486,8.59486 0 0 1 -1.14834,3.62168a8.91286,8.91286 0 0 1 -3.14468,2.97684c-0.15017,0.08833 -0.30033,0.1855 -0.4505,0.25617s-0.16783,0.14133 -0.08833,0.28267c0.51233,0.88334 1.01584,1.76667 1.51934,2.65001l5.00852,8.76269a2.65001,2.65001 0 0 1 0.24733,0.56534a0.45933,0.45933 0 0 1 -0.318,0.636c-0.49467,0.19433 -1.01584,0.30033 -1.537,0.4505l-3.08284,0.88334a0.53883,0.53883 0 0 1 -0.72434,-0.265a13.49737,13.49737 0 0 1 -0.6625,-1.28084l-4.48735,-9.02769c-0.43283,-0.88334 -0.88334,-1.76667 -1.28084,-2.65001a0.265,0.265 0 0 0 -0.2915,-0.17667c-0.62717,0 -1.25434,0 -1.89034,0c-0.22083,0 -0.2915,0.04417 -0.28267,0.28267c0,2.65001 0,5.22052 0,7.83519l0,3.62168c0,0.73317 -0.14133,0.88334 -0.88334,0.88334l-4.63751,0a0.44167,0.44167 0 0 1 -0.45933,-0.44167a3.81601,3.81601 0 0 1 -0.04417,-0.54767l0.00883,-14.41604zm6.01552,-6.34235c0,1.38684 0,2.78251 0,4.16935c0,0.19433 0,0.27383 0.24733,0.265c0.36217,0 0.73317,0 1.09534,0a10.3792,10.3792 0 0 0 2.55284,-0.28267a3.17118,3.17118 0 0 0 2.47334,-2.36734a8.25919,8.25919 0 0 0 0.08833,-3.53334a2.78251,2.78251 0 0 0 -1.81967,-2.26134a6.89885,6.89885 0 0 0 -1.68717,-0.3445c-0.88334,-0.0795 -1.81084,0 -2.72067,-0.053c-0.1855,0 -0.22967,0.053 -0.22967,0.2385c0.00883,1.378 0,2.74717 0,4.16935z" id="svg_2"/>
    <path class="cls-1" d="m63.2148,29.26651l0,-14.53971c0,-0.742 0.08833,-0.88334 0.88334,-0.88334c2.95918,0 5.91835,0 8.83336,0a14.19521,14.19521 0 0 1 4.08101,0.57417a6.52785,6.52785 0 0 1 4.15168,4.01918a10.38803,10.38803 0 0 1 0.67134,4.66401a9.7697,9.7697 0 0 1 -2.49984,6.18335a9.31919,9.31919 0 0 1 -4.81418,2.76484a12.90554,12.90554 0 0 1 -2.85318,0.32683l-2.05817,0c-0.22083,0 -0.2915,0 -0.2915,0.27383q0,5.51202 0,11.03287c0,0.12367 0,0.24733 0,0.37983c0,0.38867 -0.19433,0.57417 -0.59184,0.583l-4.94668,0c-0.43283,0 -0.56534,-0.15017 -0.583,-0.57417l0,-14.80471l0.01767,0zm6.13035,-6.39535c0,1.38684 0,2.77368 0,4.16051c0,0.22967 0.07067,0.28267 0.28267,0.27383c0.36217,0 0.72434,0 1.0865,0a10.1672,10.1672 0 0 0 2.52634,-0.28267a3.17118,3.17118 0 0 0 2.50867,-2.45567a8.10902,8.10902 0 0 0 0,-3.68351a2.65001,2.65001 0 0 0 -1.66067,-1.97867a5.89185,5.89185 0 0 0 -1.83734,-0.3975c-0.88334,-0.07067 -1.76667,0 -2.65001,-0.053c-0.22967,0 -0.265,0.07067 -0.265,0.28267c-0.00883,1.36917 -0.00883,2.71184 -0.00883,4.13401l0.01767,0z" id="svg_3"/>
    <path class="cls-1" d="m115.43762,29.26651l0,-14.34538a4.31951,4.31951 0 0 1 0,-0.583a0.41517,0.41517 0 0 1 0.44167,-0.43283a3.40084,3.40084 0 0 1 0.424,0l15.07855,0a1.82851,1.82851 0 0 1 0.53883,0.053a0.38867,0.38867 0 0 1 0.30033,0.40633a4.08985,4.08985 0 0 1 -0.212,1.07767l-0.795,2.72067a0.742,0.742 0 0 1 -0.689,0.6095l-0.37983,0l-8.33869,0c-0.20317,0 -0.25617,0.053 -0.25617,0.25617q0,3.43618 0,6.84585c0,0.19433 0,0.24733 0.24733,0.24733l7.55252,0c0.48583,0.06183 0.62717,0.212 0.62717,0.70667c0,1.14834 0,2.30551 0,3.45384a1.1925,1.1925 0 0 1 0,0.25617a0.477,0.477 0 0 1 -0.49467,0.4505l-7.64969,0c-0.20317,0 -0.25617,0.06183 -0.25617,0.265q0,4.11635 0,8.24152c0,0.20317 0.053,0.25617 0.25617,0.25617l9.14253,0c0.83034,0 0.97167,0.14133 0.97167,0.9805l0,3.02984c0,0.7685 -0.106,0.88334 -0.88334,0.88334l-14.68988,0c-0.88334,0 -0.93634,-0.09717 -0.93634,-0.93634l0,-14.44254z" id="svg_4"/>
    <path class="cls-1" d="m46.19291,29.26651l0,-10.67953c0,-0.212 0,-0.28267 -0.265,-0.27383c-0.81267,0 -1.62534,0 -2.43801,0c-0.48583,0 -0.64484,-0.16783 -0.6625,-0.636c0,-1.07767 0,-2.14651 0,-3.22418c0,-0.3975 0.159,-0.53 0.5565,-0.54767l11.34203,0a3.43618,3.43618 0 0 1 0.52117,0c0.28267,0.053 0.424,0.22083 0.424,0.56534c0,0.52117 0,1.05117 0,1.58117s0,1.07767 0,1.60767s-0.1855,0.636 -0.636,0.636c-0.83034,0 -1.66067,0 -2.49101,0c-0.19433,0 -0.22967,0.06183 -0.22967,0.2385l0,21.46506c0,0.17667 0,0.2385 0.22967,0.2385l2.60584,0c0.33567,0.04417 0.51233,0.20317 0.51233,0.53883q0,1.66951 0,3.33901c0,0.33567 -0.20317,0.5035 -0.54767,0.53l-11.63354,0c-0.51233,0 -0.636,-0.1325 -0.65367,-0.65367q-0.053,-1.5635 0,-3.12701c0,-0.46817 0.17667,-0.636 0.6625,-0.636c0.81267,0 1.62534,0 2.43801,0c0.22083,0 0.265,-0.06183 0.265,-0.27383l0,-10.68837z" id="svg_5"/>
    <path class="cls-2" d="m19.9755,29.04568l0,-18.68256c0,-0.30033 0,-0.30033 0.30033,-0.30033l7.60552,0c0.30033,0 0.30033,0 0.30033,0.30917c0,0.9275 0,1.84617 0,2.77368c0,0.19433 -0.06183,0.24733 -0.25617,0.24733l-3.28601,0c-0.30033,0 -0.30917,0 -0.30917,0.30917q0.01767,15.33471 0.01767,30.71359c0,0.24733 0.07067,0.30033 0.30917,0.30033l3.22418,0c0.212,0 0.2915,0 0.2915,0.27383q0,1.431 0,2.86201c0,0.17667 0,0.22967 -0.22967,0.22967c-2.59701,0 -5.18518,0 -7.78219,0c-0.22967,-0.03533 -0.22967,-0.1325 -0.22967,-0.30917q0.04417,-9.3722 0.04417,-18.72672z" id="svg_6"/>
    <path class="cls-2" d="m8.70413,29.05451l0,18.64722c0,0.33567 0,0.33567 -0.32683,0.33567l-7.59669,0c-0.2385,0 -0.28267,-0.07067 -0.28267,-0.2915q0,-1.42217 0,-2.83551c0,-0.19433 0.06183,-0.2385 0.2385,-0.2385c1.10417,0 2.21717,0 3.32134,0c0.24733,0 0.2915,-0.07067 0.2915,-0.30033q0,-15.35238 0,-30.70476c0,-0.24733 -0.0795,-0.30033 -0.30917,-0.30033l-3.36551,0c-0.15017,0 -0.17667,-0.04417 -0.17667,-0.17667q0,-1.46634 0,-2.94151c0,-0.1855 0.07067,-0.212 0.2385,-0.212l7.71152,0c0.22083,0 0.25617,0.0795 0.25617,0.27383l0,18.72672l0,0.01767z" id="svg_7"/>
    <path class="cls-3" d="m16.90149,29.08101l0,18.62956c0,0.32683 0,0.32683 -0.3445,0.32683l-4.41668,0c-0.17667,0 -0.22083,0 -0.22083,-0.22083q0,-18.77972 0,-37.55061c0,-0.1855 0.053,-0.22083 0.22967,-0.22083l4.51385,0c0.19433,0 0.2385,0.053 0.2385,0.24733l0,18.78856z" id="svg_8"/>
    <path class="cls-4" d="m11.91947,4.47127c0,-0.78617 0,-1.5635 0,-2.34084c0,-0.16783 0,-0.212 0.212,-0.212l4.56685,0c0.15017,0 0.212,0 0.212,0.20317c0,1.5635 0,3.13584 0,4.70818c0,0.159 0,0.212 -0.212,0.212q-2.28784,0 -4.58451,0c-0.16783,0 -0.19433,-0.06183 -0.19433,-0.20317c0,-0.795 0,-1.58117 0,-2.36734z" id="svg_9"/>
   </g>
  </g>
 </g>
</svg>