<svg width="160" height="50" xmlns="http://www.w3.org/2000/svg" xmlns:svg="http://www.w3.org/2000/svg" xmlns:se="http://svg-edit.googlecode.com">
 <defs>
  <style>.cls-1{fill:#2d434f;}.cls-2{fill:#a7b4be;}.cls-3{fill:#2b414e;}.cls-4{fill:#475e6b;}.cls-5{fill:#f70141;}</style>
 </defs>
 <g class="layer">
  <title>Layer 1</title>
  <g id="Guidelines">
   <g data-name="2ASWYW.tif" id="_2ASWYW.tif">
    <path class="cls-1" d="m159.26241,37.02869a13.41992,13.41992 0 0 1 -2.39516,1.24161a9.0787,9.0787 0 0 1 -6.41056,0.07045a5.36268,5.36268 0 0 1 -3.33737,-4.03302a11.01596,11.01596 0 0 1 -0.29059,-2.64172c0,-2.97633 0,-5.95267 0,-8.929c0,-0.33462 -0.08806,-0.41387 -0.41387,-0.40506c-1.11833,0 -2.23665,0 -3.35498,0c-0.27298,0 -0.33462,-0.07925 -0.33462,-0.34342c0,-0.79251 0,-1.57622 0,-2.36874c0,-0.29939 0.08806,-0.35223 0.36103,-0.34342c1.13594,0 2.26307,0 3.39901,0c0.29059,0 0.34342,-0.08806 0.34342,-0.35223c0,-1.76114 0,-3.52229 0,-5.28343c0,-0.32581 0.09686,-0.39626 0.40506,-0.38745c0.88057,0 1.76114,0 2.64172,0c0.28178,0 0.36984,0.06164 0.36103,0.35223c0,1.76114 0,3.52229 0,5.28343c0,0.31701 0.07925,0.38745 0.38745,0.38745l7.32636,0c0.29059,0 0.37865,0.07045 0.36984,0.36984c0,0.7661 0,1.5322 0,2.29829c0,0.32581 -0.10567,0.38745 -0.41387,0.38745c-2.42157,0 -4.85195,0 -7.28233,0c-0.29939,0 -0.39626,0.07045 -0.39626,0.38745c0,3.00275 0,6.0055 0,9.00825a4.68464,4.68464 0 0 0 0.64282,2.58888a3.09081,3.09081 0 0 0 2.53605,1.47056a6.52504,6.52504 0 0 0 3.95377,-1.10072c0.3082,-0.19373 0.41387,-0.12328 0.58998,0.1497c0.42267,0.68685 0.81893,1.40011 1.31205,2.05173l0,0.14089l0.00002,0z" id="svg_1"/>
    <path class="cls-2" d="m77.8183,46.51245l0,0.08806l-3.31976,0l0,-0.09686l3.31976,0.00881l0,-0.00001z" id="svg_2"/>
    <path class="cls-3" d="m39.30208,21.71554c2.9323,-4.0066 10.7694,-3.86571 13.41111,0.94221a9.99449,9.99449 0 0 1 1.13594,-1.49697a7.64337,7.64337 0 0 1 4.59659,-2.20143a9.13153,9.13153 0 0 1 5.50358,0.81893a6.97413,6.97413 0 0 1 3.86571,5.57402a9.55421,9.55421 0 0 1 0.07925,1.42653c0,3.75124 0,7.51128 0,11.26252c0,0.37865 -0.10567,0.44909 -0.4579,0.44029c-0.88057,0 -1.68189,0 -2.52724,0c-0.3082,0 -0.36103,-0.09686 -0.36103,-0.37865c0,-3.52229 0,-7.10622 0,-10.66373a5.73252,5.73252 0 0 0 -1.26802,-3.81288a4.65823,4.65823 0 0 0 -3.27573,-1.57622a5.75894,5.75894 0 0 0 -4.64942,1.41772a5.52999,5.52999 0 0 0 -1.76114,4.26197q0,5.19537 0,10.3203c0,0.35223 -0.08806,0.44029 -0.43148,0.43148c-0.82774,0 -1.65548,0 -2.48321,0c-0.36984,0 -0.42267,-0.11447 -0.42267,-0.44029c0,-3.3814 0,-6.75399 0,-10.13538a7.64337,7.64337 0 0 0 -0.44029,-2.90589a4.54375,4.54375 0 0 0 -4.06824,-2.94111a5.82058,5.82058 0 0 0 -4.54375,1.30325a5.56522,5.56522 0 0 0 -1.87562,4.49972c0,3.39901 0,6.80682 0,10.20583c0,0.32581 -0.07045,0.43148 -0.41387,0.42267q-1.27683,0 -2.56246,0c-0.28178,0 -0.35223,-0.07045 -0.35223,-0.35223q0,-5.76775 0,-11.53549c0,-2.29829 0,-4.59659 0,-6.89488c0,-0.39626 0.11447,-0.4667 0.47551,-0.4579c0.82774,0 1.66428,0 2.49202,0c0.27298,0 0.34342,0.07925 0.33462,0.33462c-0.00881,0.67804 0,1.35608 0,2.13098l-0.00003,0.00001z" id="svg_3"/>
    <path class="cls-3" d="m77.8183,46.51245l-3.29334,0l0,-0.37865q0,-13.20858 0,-26.4788c0,-0.32581 0.06164,-0.44909 0.42267,-0.44029c0.88057,0 1.76114,0 2.64172,0c0.23775,0 0.29939,0.06164 0.29939,0.29059c0,0.72207 0,1.44414 0,2.25426a9.19317,9.19317 0 0 1 1.97248,-1.68189a9.73913,9.73913 0 0 1 11.27132,1.224a10.12658,10.12658 0 0 1 3.0732,8.71766a9.57182,9.57182 0 0 1 -2.64172,5.95267a9.10511,9.10511 0 0 1 -5.9967,2.82664a9.24601,9.24601 0 0 1 -5.83819,-1.31205a8.98183,8.98183 0 0 1 -1.81398,-1.60264l-0.09686,10.6285l0.00001,0zm6.39295,-24.51513a6.33131,6.33131 0 0 0 -5.28343,2.57127a7.20308,7.20308 0 0 0 -1.32966,4.52614c0.07045,3.22289 2.09576,6.164 5.6885,6.6131a6.26087,6.26087 0 0 0 6.01431,-2.38635a7.24711,7.24711 0 0 0 1.40011,-5.35388a6.4722,6.4722 0 0 0 -6.48982,-5.97028l-0.00001,0z" id="svg_4"/>
    <path class="cls-3" d="m114.22115,21.82121c0,-0.81893 0,-1.541 0,-2.27188c0,-0.22014 0,-0.3082 0.29059,-0.29939l2.75619,0c0.24656,0 0.28178,0.07925 0.28178,0.29939l0,18.65932c0,0.21134 -0.04403,0.29059 -0.26417,0.28178l-2.79141,0c-0.22014,0 -0.27298,-0.07045 -0.27298,-0.28178c0,-0.72207 0,-1.44414 0,-2.1486l-0.66923,0.58998a8.69125,8.69125 0 0 1 -6.41056,2.23665a9.24601,9.24601 0 0 1 -6.58668,-2.87947a9.68629,9.68629 0 0 1 -2.64172,-5.62686a10.30269,10.30269 0 0 1 1.56742,-7.26472a9.24601,9.24601 0 0 1 8.90258,-4.19152a8.25096,8.25096 0 0 1 5.83819,2.89708l0,0.00002zm-6.41056,13.93946a6.25206,6.25206 0 0 0 4.78151,-1.95487a7.12383,7.12383 0 0 0 1.76114,-5.74133a6.41056,6.41056 0 0 0 -6.164,-6.04072a6.164,6.164 0 0 0 -6.164,3.42543a7.42322,7.42322 0 0 0 -0.75729,4.40286a6.48982,6.48982 0 0 0 6.54265,5.90864l-0.00001,-0.00001z" id="svg_5"/>
    <path class="cls-4" d="m0.75944,33.25103a6.52504,6.52504 0 1 1 6.52504,6.53384a6.52504,6.52504 0 0 1 -6.52504,-6.53384z" id="svg_6"/>
    <path class="cls-5" d="m7.29329,3.39964a6.50743,6.50743 0 1 1 -6.53384,6.44579a6.48982,6.48982 0 0 1 6.53384,-6.44579z" id="svg_7"/>
    <path class="cls-3" d="m132.54585,38.87789a9.80077,9.80077 0 0 1 -7.21188,-2.9235a9.3957,9.3957 0 0 1 -2.55366,-5.22179a10.56686,10.56686 0 0 1 1.25922,-7.29114a9.16675,9.16675 0 0 1 6.70996,-4.40286a10.37314,10.37314 0 0 1 6.164,0.75729a8.45349,8.45349 0 0 1 2.64172,1.91965c0.1585,0.16731 0.1585,0.26417 0,0.42267c-0.54595,0.55476 -1.09191,1.11833 -1.60264,1.6995c-0.25537,0.29939 -0.39626,0.31701 -0.71326,0a6.69235,6.69235 0 0 0 -5.16896,-1.83159a6.164,6.164 0 0 0 -5.6973,4.50853a7.2383,7.2383 0 0 0 1.43533,7.22069a6.56907,6.56907 0 0 0 7.66098,1.35608a8.05723,8.05723 0 0 0 2.0077,-1.28564c0.17611,-0.1585 0.26417,-0.18492 0.43148,0c0.53715,0.63401 1.09191,1.25041 1.65548,1.85801c0.16731,0.16731 0.17611,0.27298 0,0.44909a9.10511,9.10511 0 0 1 -5.28343,2.64172a11.72041,11.72041 0 0 1 -1.73473,0.12328l-0.00001,0.00001z" id="svg_8"/>
    <path class="cls-2" d="m13.19312,28.20536a8.13649,8.13649 0 0 0 -1.20638,-1.13594a7.74903,7.74903 0 0 0 -9.68629,0.21134c-0.24656,0.21134 -0.49312,0.43148 -0.72207,0.66923s-0.27298,0.22014 -0.39626,-0.07045a6.55146,6.55146 0 0 1 1.51458,-7.04458a6.54265,6.54265 0 0 1 10.24986,1.48817a6.38415,6.38415 0 0 1 0.3082,5.75894a0.95102,0.95102 0 0 1 -0.06164,0.12328l0,0.00001z" id="svg_9"/>
    <path class="cls-3" d="m29.23714,28.8922q0,4.59659 0,9.18437c0,0.29939 -0.05283,0.41387 -0.37865,0.40506c-0.88057,0 -1.76114,0 -2.64172,0c-0.25537,0 -0.31701,-0.07045 -0.31701,-0.31701q0,-9.29003 0,-18.56246c0,-0.29939 0.09686,-0.35223 0.36984,-0.34342c0.88057,0 1.76114,0 2.64172,0c0.31701,0 0.36984,0.09686 0.36984,0.38745q-0.04403,4.60539 -0.04403,9.24601l0.00001,0z" id="svg_10"/>
    <path class="cls-3" d="m25.23054,12.50476a2.28949,2.28949 0 0 1 2.32471,-2.34232a2.3159,2.3159 0 0 1 2.35993,2.39516a2.28068,2.28068 0 0 1 -2.37754,2.28068a2.23665,2.23665 0 0 1 -2.3071,-2.33352z" id="svg_11"/>
   </g>
  </g>
 </g>
</svg>