<?xml version="1.0"?>
<svg width="160" height="50" xmlns="http://www.w3.org/2000/svg" xmlns:svg="http://www.w3.org/2000/svg">
 <g>
  <title>Layer 1</title>
  <g stroke="null" id="svg_1">
   <path stroke="null" id="svg_2" d="m9.574461,20.096421l-0.507267,-1.775434l11.15987,0l-0.507267,1.775434l-10.145336,0l0,0zm5.072668,-5.664479c0.676356,0 1.268167,0.591811 1.268167,1.268167c0,0.676356 -0.591811,1.268167 -1.268167,1.268167c-0.676356,0 -1.268167,-0.591811 -1.268167,-1.268167c0,-0.676356 0.591811,-1.268167 1.268167,-1.268167l0,0zm5.579935,16.232538l-11.15987,0l0.507267,-1.775434l10.145336,0l0.507267,1.775434l0,0zm-5.579935,3.889046c-0.676356,0 -1.268167,-0.591811 -1.268167,-1.268167c0,-0.676356 0.591811,-1.268167 1.268167,-1.268167c0.676356,0 1.268167,0.591811 1.268167,1.268167c0,0.676356 -0.591811,1.268167 -1.268167,1.268167l0,0zm12.597126,-12.766215l0,-9.976247l-25.194251,0l0,13.527115l17.331616,0l0,1.775434l-17.331616,0l0,0l0,9.976247l25.278796,0l0,-13.527115l-17.41616,0l0,-1.775434l17.331616,0l0,0z" fill="#1E2124"/>
   <g stroke="null" id="svg_3">
    <path stroke="null" id="svg_4" d="m34.768712,33.116269l0,-1.268167l1.775434,-0.169089c0.338178,0 0.422722,-0.084544 0.422722,-0.507267l0,-13.358026c0,-0.338178 -0.084544,-0.422722 -0.422722,-0.507267l-1.775434,-0.169089l0,-1.268167l6.509924,0l0,1.268167l-1.859978,0.169089c-0.338178,0.084544 -0.422722,0.084544 -0.422722,0.422722l0,13.358026c0,0.422722 0,0.422722 0.422722,0.507267l1.859978,0.169089l0,1.268167l-6.509924,0l0,0.084544z" fill="#1E2023"/>
    <path stroke="null" id="svg_5" d="m58.18753,33.116269l0,-1.268167l1.183623,-0.169089c0.338178,0 0.422722,-0.169089 0.422722,-0.507267l0,-5.749024c0,-1.5218 -0.338178,-2.959056 -2.029067,-2.959056c-1.268167,0 -2.367245,0.676356 -3.128145,1.183623c0.084544,0.422722 0.084544,0.929989 0.084544,1.437256l0,6.087202c0,0.422722 0,0.422722 0.422722,0.507267l1.183623,0.169089l0,1.268167l-5.326301,0l0,-1.268167l1.183623,-0.169089c0.338178,0 0.422722,-0.169089 0.422722,-0.507267l0,-5.749024c0,-1.352711 -0.084544,-2.874512 -1.775434,-2.874512c-1.268167,0 -2.536334,0.7609 -3.381779,1.437256l0,7.18628c0,0.422722 0,0.422722 0.422722,0.507267l1.268167,0.169089l0,1.268167l-5.410846,0l0,-1.268167l1.183623,-0.169089c0.338178,-0.084544 0.422722,-0.084544 0.422722,-0.507267l0,-8.116269c0,-0.253633 -0.084544,-0.422722 -0.338178,-0.507267l-1.352711,-0.422722l0.253633,-1.268167l3.128145,0l0.169089,1.437256l0.084544,0c1.268167,-1.014534 2.45179,-1.690889 4.227223,-1.690889c1.183623,0 2.367245,0.422722 2.959056,1.5218c1.014534,-0.7609 2.45179,-1.5218 4.227223,-1.5218c2.705423,0 3.550868,1.690889 3.550868,4.396312l0,6.087202c0,0.422722 0,0.422722 0.422722,0.507267l1.352711,0.169089l0,1.268167l-5.833568,0l0,0.084544z" fill="#1E2023"/>
    <path stroke="null" id="svg_6" d="m65.458354,38.188937l0,-1.268167l1.014534,-0.169089c0.338178,-0.084544 0.422722,-0.084544 0.422722,-0.507267l0,-13.188937c0,-0.253633 -0.084544,-0.422722 -0.338178,-0.507267l-1.352711,-0.422722l0.253633,-1.268167l3.128145,0l0.253633,1.352711l0.084544,0c1.268167,-1.014534 2.620879,-1.606345 4.227223,-1.606345c2.705423,0 4.480857,1.690889 4.480857,5.918113c0,3.550868 -1.183623,6.848102 -4.988124,6.848102c-1.352711,0 -2.536334,-0.338178 -3.635412,-1.268167l0,4.142679c0,0.422722 0,0.422722 0.422722,0.507267l2.198156,0.169089l0,1.268167l-6.171746,0zm3.550868,-8.116269c0.845445,0.7609 2.029067,1.5218 3.297234,1.5218c2.282701,0 3.128145,-1.859978 3.128145,-4.903579c0,-3.21269 -1.268167,-4.227223 -2.705423,-4.227223c-1.5218,0 -2.959056,0.929989 -3.635412,1.437256l0,6.171746l-0.084544,0z" fill="#1E2023"/>
    <path stroke="null" id="svg_7" d="m79.492736,26.944523c0,-3.719957 1.944523,-6.340835 6.002657,-6.340835c4.058134,0 5.664479,2.620879 5.664479,6.171746c0,3.97359 -1.775434,6.594468 -5.918113,6.594468c-4.142679,0 -5.749024,-2.620879 -5.749024,-6.42538zm9.384436,0c0,-3.128145 -1.183623,-4.480857 -3.466323,-4.480857c-2.367245,0 -3.719957,1.352711 -3.719957,4.565401c0,3.128145 1.183623,4.649946 3.550868,4.649946c2.367245,0 3.635412,-1.5218 3.635412,-4.73449z" fill="#1E2023"/>
    <path stroke="null" id="svg_8" d="m93.104395,33.116269l0,-1.268167l1.183623,-0.169089c0.338178,-0.084544 0.422722,-0.084544 0.422722,-0.507267l0,-8.116269c0,-0.253633 -0.084544,-0.422722 -0.338178,-0.507267l-1.352711,-0.422722l0.253633,-1.268167l3.128145,0l0.253633,1.606345l0.084544,0c0.7609,-0.845445 1.944523,-1.944523 3.550868,-1.944523c0.507267,0 1.268167,0.084544 1.690889,0.253633l0,3.635412l-1.690889,-0.084544l-0.253633,-1.606345c0,-0.169089 -0.084544,-0.253633 -0.253633,-0.253633c-1.099078,0 -2.282701,1.014534 -2.874512,1.5218l0,7.18628c0,0.422722 0,0.422722 0.422722,0.507267l2.198156,0.169089l0,1.268167l-6.42538,0z" fill="#1E2023"/>
    <path stroke="null" id="svg_9" d="m111.704178,32.609002c-0.929989,0.422722 -2.113612,0.7609 -3.297234,0.7609c-2.282701,0 -3.297234,-1.099078 -3.297234,-3.21269l0,-7.439913c0,-0.169089 0,-0.253633 -0.169089,-0.253633l-1.775434,0l0,-1.352711c1.859978,-0.253633 2.367245,-1.014534 2.705423,-3.381779l1.437256,0l0,2.874512c0,0.169089 0,0.253633 0.169089,0.253633l3.466323,0l0,1.606345l-3.719957,0l0,7.017191c0,1.5218 0.338178,2.113612 1.690889,2.113612c0.7609,0 1.606345,-0.253633 2.198156,-0.507267l0.591811,1.5218z" fill="#1E2023"/>
    <path stroke="null" id="svg_10" d="m128.613072,33.116269l0,-1.268167l1.944523,-0.253633l-1.268167,-3.804501l-6.679013,0l-1.268167,3.804501l1.944523,0.253633l0,1.268167l-5.49539,0l0,-1.268167l1.014534,-0.253633c0.422722,-0.084544 0.507267,-0.169089 0.591811,-0.422722l5.241757,-15.302549l2.789967,0l5.326301,15.302549c0.084544,0.253633 0.253633,0.338178 0.591811,0.422722l1.099078,0.253633l0,1.268167l-5.833568,0zm-2.620879,-15.387093l-2.789967,8.369902l5.579935,0l-2.789967,-8.369902z" fill="#1E2023"/>
    <path stroke="null" id="svg_11" d="m136.052985,33.116269l0,-1.268167l1.5218,-0.169089c0.338178,-0.084544 0.422722,-0.084544 0.422722,-0.507267l0,-13.358026c0,-0.338178 -0.084544,-0.422722 -0.422722,-0.507267l-1.5218,-0.169089l0,-1.268167l7.355369,0c4.396312,0 5.749024,2.367245 5.749024,5.072668c0,4.058134 -2.536334,5.664479 -6.509924,5.664479l-2.536334,0l0,4.565401c0,0.422722 0,0.422722 0.422722,0.507267l3.381779,0.169089l0,1.268167l-7.862636,0zm6.42538,-8.285358c2.367245,0 4.480857,-0.507267 4.480857,-3.804501c0,-2.536334 -1.437256,-3.466323 -4.142679,-3.466323l-2.620879,0l0,7.270824l2.282701,0z" fill="#1E2023"/>
    <path stroke="null" id="svg_12" d="m151.440078,33.116269l0,-1.268167l1.775434,-0.169089c0.338178,0 0.422722,-0.084544 0.422722,-0.507267l0,-13.358026c0,-0.338178 -0.084544,-0.422722 -0.422722,-0.507267l-1.775434,-0.169089l0,-1.268167l6.509924,0l0,1.268167l-1.859978,0.169089c-0.338178,0.084544 -0.422722,0.084544 -0.422722,0.422722l0,13.358026c0,0.422722 0,0.422722 0.422722,0.507267l1.859978,0.169089l0,1.268167l-6.509924,0l0,0.084544z" fill="#1E2023"/>
   </g>
  </g>
 </g>
</svg>