<svg width="160" height="50" xmlns="http://www.w3.org/2000/svg" xmlns:svg="http://www.w3.org/2000/svg">
 <g>
  <title>Layer 1</title>
  <g stroke="null" id="svg_1">
   <g stroke="null" id="n1G92H.tif_2_">
    <g stroke="null" id="svg_2">
     <path stroke="null" id="svg_3" d="m105.193483,20.419855c0.392422,-2.276047 1.726656,-3.453312 4.395125,-3.76725c1.098781,-0.078484 2.354531,0 3.453312,0.235453c1.962109,0.392422 2.903922,1.962109 2.903922,4.395125c0,3.060891 0,6.121781 0,9.261156c0,1.412719 0.156969,1.569687 1.569687,1.569687c0.156969,0 0.313937,0.235453 0.470906,0.313937c-0.156969,0.235453 -0.235453,0.549391 -0.470906,0.627875c-1.491203,0.549391 -2.433016,0 -3.060891,-1.726656c-0.235453,0.156969 -0.470906,0.313937 -0.706359,0.470906c-1.883625,1.334234 -4.002703,1.726656 -6.27875,1.334234c-2.433016,-0.470906 -3.374828,-2.668469 -3.060891,-4.709062c0.392422,-2.589984 1.805141,-4.002703 4.552094,-4.395125c1.569687,-0.235453 3.139375,-0.235453 4.709062,-0.235453c0.627875,0 0.863328,-0.156969 0.863328,-0.784844c-0.078484,-0.549391 0,-1.177266 0,-1.726656c-0.078484,-2.040594 -0.863328,-3.060891 -2.903922,-3.296344c-0.941812,-0.156969 -1.962109,0 -2.903922,0.235453c-0.941812,0.156969 -1.569687,0.863328 -1.962109,1.805141c-0.392422,0.784844 -0.470906,0.863328 -1.569687,0.392422zm9.339641,6.985109c0,-0.627875 0,-1.25575 0,-1.805141c0,-0.470906 -0.156969,-0.784844 -0.706359,-0.706359c-1.177266,0 -2.354531,-0.078484 -3.531797,0c-3.217859,0.235453 -4.787547,2.119078 -4.238156,4.944516c0.235453,1.098781 0.863328,1.883625 2.040594,2.119078c1.726656,0.392422 3.296344,0 4.787547,-0.784844c1.177266,-0.627875 1.962109,-1.412719 1.648172,-2.903922c0,-0.235453 0,-0.549391 0,-0.863328z" fill="#8E8A86"/>
     <path stroke="null" id="svg_4" d="m79.372124,17.045027c1.805141,-0.313937 0.941812,1.177266 1.491203,1.883625c0.313937,-0.156969 0.549391,-0.313937 0.863328,-0.470906c1.648172,-1.020297 3.296344,-1.726656 5.258453,-1.805141c3.060891,0 4.709062,1.569687 4.787547,4.787547c0.078484,3.688766 0,7.377531 0,11.066297c0,0.078484 0,0.156969 -0.078484,0.313937c-0.392422,0 -0.784844,0 -1.334234,0c0,-0.313937 0,-0.627875 0,-0.941812c0,-3.217859 0,-6.514203 0,-9.732062c0,-0.392422 0,-0.784844 -0.078484,-1.177266c-0.392422,-2.276047 -2.040594,-3.531797 -4.473609,-2.903922c-1.491203,0.392422 -2.903922,1.177266 -4.316641,1.805141c-0.706359,0.313937 -0.863328,0.863328 -0.863328,1.648172c0,3.531797 0,7.063594 0,10.516906c0,0.627875 -0.156969,1.098781 -0.863328,0.863328c-0.235453,-0.078484 -0.470906,-0.313937 -0.470906,-0.549391c0.078484,-5.101484 0.078484,-10.202969 0.078484,-15.304453z" fill="#8E8A86"/>
     <path stroke="null" id="svg_5" d="m147.418077,21.675605c-0.470906,0.078484 -0.863328,0.156969 -1.412719,0.235453c-0.078484,-0.313937 -0.156969,-0.706359 -0.235453,-1.020297c-0.627875,-2.5115 -2.354531,-3.139375 -4.316641,-3.060891c-3.453312,0.235453 -5.258453,2.197562 -5.572391,6.121781c-0.156969,1.805141 0.078484,3.688766 0.941812,5.336937c1.020297,1.962109 2.825437,2.903922 5.415422,2.589984c2.040594,-0.235453 3.374828,-1.25575 3.845734,-3.296344c0,-0.078484 0.078484,-0.156969 0.156969,-0.235453c0.235453,0 0.549391,0.078484 0.784844,0.078484c0.470906,0.078484 0.549391,0.313937 0.470906,0.784844c-0.627875,2.197562 -2.589984,3.76725 -5.023,3.924219c-0.863328,0.078484 -1.726656,0.078484 -2.5115,-0.078484c-2.982406,-0.549391 -4.552094,-2.119078 -5.179969,-5.101484c-0.470906,-2.276047 -0.470906,-4.473609 0.156969,-6.671172c1.25575,-4.159672 6.435719,-6.121781 10.202969,-3.924219c1.412719,0.941812 2.197562,2.433016 2.276047,4.316641z" fill="#8E8A86"/>
     <path stroke="null" id="svg_6" d="m132.113624,21.675605c-0.470906,0.078484 -0.863328,0.156969 -1.334234,0.156969c-0.078484,-0.235453 -0.156969,-0.470906 -0.235453,-0.706359c-0.470906,-2.354531 -2.119078,-3.453312 -4.473609,-3.296344c-3.531797,0.235453 -5.101484,2.668469 -5.415422,5.650875c-0.156969,1.648172 -0.078484,3.374828 0.470906,4.944516c1.098781,3.139375 4.787547,4.552094 7.691469,2.903922c0.941812,-0.549391 1.25575,-0.941812 2.119078,-3.060891c0.392422,0.078484 0.863328,0.156969 1.25575,0.313937c-0.392422,2.589984 -2.433016,4.395125 -5.023,4.630578c-0.863328,0.078484 -1.805141,0.078484 -2.668469,-0.078484c-2.903922,-0.549391 -4.630578,-2.276047 -5.179969,-5.258453c-0.392422,-2.040594 -0.392422,-4.159672 0.156969,-6.200266c1.098781,-4.316641 6.27875,-6.514203 10.124484,-4.316641c1.726656,0.863328 2.668469,2.668469 2.5115,4.316641z" fill="#8E8A86"/>
     <path stroke="null" id="svg_7" d="m151.106842,12.335965c0.470906,-0.078484 0.863328,-0.156969 1.412719,-0.313937c0,1.020297 0,1.962109 0,2.903922c0,2.040594 0,2.040594 2.040594,2.040594c0.784844,0 1.569687,0 2.354531,0c0.392422,1.020297 0.235453,1.177266 -0.706359,1.177266c-1.098781,0 -2.197562,0 -3.296344,0.078484c-0.078484,0 -0.156969,0.078484 -0.313937,0.156969c0,0.941812 0,1.883625 0,2.825437c0,2.668469 0,5.415422 0,8.083891c0,2.276047 1.25575,3.296344 3.453312,2.825437c0.706359,-0.156969 1.334234,-0.392422 2.040594,-0.627875c0.078484,0.313937 0.235453,0.549391 0.392422,0.863328c-1.098781,1.098781 -4.630578,1.25575 -5.886328,0.470906c-1.177266,-0.706359 -1.412719,-1.883625 -1.412719,-3.060891c0,-3.453312 0,-6.906625 0,-10.359937c0,-1.177266 0,-1.177266 -1.177266,-1.177266c-0.156969,0 -0.313937,0 -0.549391,0c-0.863328,0.078484 -1.020297,-0.313937 -0.784844,-1.177266c0.549391,0 1.098781,0 1.648172,0c0.627875,0.078484 0.863328,-0.235453 0.863328,-0.863328c-0.078484,-1.334234 -0.078484,-2.5115 -0.078484,-3.845734z" fill="#8E8A86"/>
     <path stroke="null" id="svg_8" d="m97.737468,12.178996c0,1.25575 0.078484,2.5115 0,3.688766c-0.078484,0.863328 0.235453,1.098781 1.098781,1.098781c0.941812,-0.078484 1.883625,0 2.746953,0c0.392422,0 0.706359,0 0.706359,0.549391c0,0.470906 -0.235453,0.627875 -0.706359,0.627875c-1.020297,0 -2.119078,0 -3.139375,0c-0.549391,0 -0.784844,0.235453 -0.784844,0.784844c0,3.453312 0,6.906625 0,10.359937c0,2.276047 1.412719,3.296344 3.610281,2.746953c0.627875,-0.156969 1.25575,-0.392422 1.883625,-0.549391c0.549391,0.863328 0.549391,0.941812 -0.313937,1.334234c-1.334234,0.549391 -2.746953,0.627875 -4.159672,0.313937c-1.491203,-0.313937 -2.276047,-1.25575 -2.276047,-2.746953c-0.078484,-3.139375 -0.078484,-6.200266 -0.078484,-9.339641c0,-0.706359 0,-1.334234 0,-2.040594c0,-0.706359 -0.235453,-0.941812 -0.941812,-0.863328c-0.313937,0 -0.706359,0 -1.020297,0c-0.470906,0 -0.706359,-0.235453 -0.549391,-0.627875c0.078484,-0.235453 0.392422,-0.392422 0.549391,-0.549391c0,0 0.078484,0 0.156969,0c1.805141,-0.078484 1.805141,-0.078484 1.805141,-1.883625c0,-0.549391 0,-1.098781 0,-1.648172c0.078484,-1.177266 0.078484,-1.177266 1.412719,-1.25575z" fill="#8E8A86"/>
     <path stroke="null" id="svg_9" d="m74.192156,32.820386c-0.470906,0 -0.784844,0 -1.25575,0c0,-0.313937 -0.078484,-0.549391 -0.078484,-0.863328c0,-6.985109 0,-13.970219 0,-20.955328c0,-0.392422 -0.156969,-0.863328 0.470906,-0.863328c0.549391,0 0.863328,0.078484 0.784844,0.706359c0,0.156969 0,0.313937 0,0.549391c0,6.749656 0,13.577797 0,20.327453c0.078484,0.313937 0.078484,0.627875 0.078484,1.098781z" fill="#8E8A86"/>
    </g>
   </g>
   <g stroke="null" id="svg_10">
    <path stroke="null" id="svg_11" d="m33.223312,37.686417c0.863328,-0.863328 1.569687,-1.569687 2.433016,-2.433016c2.119078,1.334234 4.316641,1.569687 6.357234,-0.156969c0.941812,-0.784844 1.25575,-2.354531 0.863328,-3.453312c-0.156969,0.156969 -0.392422,0.313937 -0.549391,0.470906c-2.589984,2.276047 -7.063594,1.883625 -9.182672,-0.784844c-0.706359,-0.863328 -1.020297,-1.805141 -1.098781,-2.903922c-0.235453,-2.433016 -0.313937,-4.944516 0.078484,-7.377531c0.392422,-2.589984 2.589984,-4.395125 5.258453,-4.473609c2.5115,-0.078484 3.217859,0.156969 5.650875,2.040594c0,-0.392422 0.078484,-0.784844 0.078484,-1.098781c0,-0.470906 0.156969,-0.627875 0.627875,-0.627875c0.784844,0 1.569687,0 2.354531,0c0.549391,0 0.706359,0.235453 0.706359,0.706359c0,4.238156 0,8.397828 0,12.635984c0,1.334234 0.078484,2.668469 -0.235453,3.924219c-0.627875,3.296344 -2.982406,5.023 -6.043297,5.572391c-2.825437,0.470906 -5.179969,-0.313937 -7.299047,-2.040594zm2.040594,-12.792953c0,0 0,0 0,0c0.078484,0.549391 0,1.098781 0.078484,1.648172c0.078484,1.962109 0.784844,3.060891 2.5115,3.531797c0.706359,0.156969 1.491203,0.235453 2.197562,0.156969c1.412719,-0.235453 2.433016,-1.020297 2.825437,-2.433016c0.156969,-0.470906 0.156969,-0.941812 0.156969,-1.412719c0,-1.334234 0.078484,-2.746953 -0.078484,-4.081187c-0.235453,-1.726656 -2.119078,-2.903922 -4.159672,-2.668469c-1.648172,0.156969 -3.374828,1.25575 -3.374828,3.139375c-0.078484,0.706359 -0.156969,1.412719 -0.156969,2.119078z" fill="#00DE00"/>
    <path stroke="null" id="svg_12" d="m27.80789,31.721605c-0.235453,0.156969 -0.392422,0.235453 -0.470906,0.313937c-1.805141,2.040594 -5.964812,1.962109 -7.848437,0.941812c-2.040594,-1.020297 -2.746953,-3.296344 -2.433016,-5.258453c0.313937,-2.276047 1.805141,-3.610281 4.159672,-3.76725c1.962109,-0.156969 3.924219,-0.156969 5.964812,-0.156969c0.549391,0 0.706359,-0.156969 0.706359,-0.706359c0,-2.433016 -0.941812,-3.374828 -3.374828,-3.453312c-1.648172,-0.078484 -3.139375,0.235453 -4.552094,1.177266c-0.156969,0.078484 -0.470906,0.078484 -0.627875,-0.078484c-0.627875,-0.549391 -1.25575,-1.177266 -1.962109,-1.883625c0.627875,-0.392422 1.177266,-0.784844 1.805141,-1.098781c2.825437,-1.334234 5.807844,-1.491203 8.711766,-0.549391c2.197562,0.706359 3.453312,2.433016 3.531797,4.787547c0,3.610281 0,7.142078 0,10.752359c0,0.549391 -0.156969,0.706359 -0.706359,0.627875c-0.784844,0 -1.491203,0 -2.276047,0c-0.470906,0 -0.706359,-0.156969 -0.627875,-0.627875c0,-0.313937 0,-0.627875 0,-1.020297zm-4.002703,-1.25575c0,0 0,-0.078484 0,-0.078484c0.313937,0 0.627875,0 0.941812,0c2.197562,0 3.217859,-1.177266 3.060891,-3.374828c0,-0.156969 -0.235453,-0.470906 -0.392422,-0.470906c-1.883625,0 -3.845734,0 -5.729359,0.156969c-1.020297,0.078484 -1.569687,0.706359 -1.648172,1.491203c-0.078484,0.941812 0.392422,1.648172 1.334234,1.962109c0.784844,0.156969 1.648172,0.235453 2.433016,0.313937z" fill="#00DE00"/>
    <path stroke="null" id="svg_13" d="m50.882296,26.541636c-0.235453,1.412719 0.784844,2.903922 2.354531,3.453312c2.119078,0.706359 4.159672,0.470906 6.043297,-0.863328c0.156969,-0.156969 0.313937,-0.235453 0.470906,-0.313937c0.706359,0.706359 1.412719,1.412719 2.119078,2.119078c-1.412719,1.412719 -3.139375,2.354531 -5.179969,2.589984c-2.825437,0.392422 -5.493906,-0.156969 -7.5345,-2.354531c-1.25575,-1.334234 -1.805141,-3.060891 -1.962109,-4.866031c-0.156969,-2.197562 0,-4.316641 1.177266,-6.27875c1.334234,-2.197562 3.374828,-3.296344 5.886328,-3.453312c1.177266,-0.078484 2.433016,0 3.531797,0.313937c2.825437,0.706359 4.316641,2.668469 4.787547,5.493906c0.156969,1.098781 0.078484,2.276047 0.156969,3.374828c0,0.549391 -0.156969,0.784844 -0.784844,0.784844c-3.374828,0 -6.749656,0 -10.202969,0c-0.313937,0 -0.549391,0 -0.863328,0zm8.947219,-2.825437c0,-1.491203 -0.470906,-2.746953 -1.726656,-3.531797c-1.805141,-1.098781 -3.688766,-1.098781 -5.415422,0c-1.25575,0.784844 -1.805141,1.962109 -1.805141,3.531797c2.982406,0 5.886328,0 8.947219,0z" fill="#00DE00"/>
    <path stroke="null" id="svg_14" d="m16.349172,18.850168c-0.706359,0.706359 -1.334234,1.334234 -2.040594,1.883625c-0.078484,0.078484 -0.470906,0.078484 -0.627875,0c-1.726656,-0.941812 -3.531797,-1.334234 -5.493906,-1.098781c-0.706359,0.078484 -1.334234,0.313937 -1.962109,0.706359c-1.020297,0.627875 -1.020297,1.883625 0.156969,2.354531c1.020297,0.392422 2.119078,0.549391 3.139375,0.706359c1.020297,0.156969 2.119078,0.156969 3.060891,0.392422c2.5115,0.549391 3.76725,1.726656 4.002703,3.688766c0.156969,2.197562 -0.627875,4.159672 -2.825437,5.258453c-3.374828,1.648172 -8.868734,1.25575 -12.165078,-1.962109c-0.078484,-0.078484 -0.078484,-0.156969 -0.078484,-0.156969c0.784844,-0.784844 1.491203,-1.569687 2.276047,-2.354531c0.235453,0.156969 0.470906,0.392422 0.784844,0.549391c1.962109,1.412719 4.159672,1.883625 6.514203,1.25575c0.470906,-0.156969 0.941812,-0.392422 1.334234,-0.706359c0.549391,-0.392422 0.706359,-0.941812 0.627875,-1.569687c-0.078484,-0.627875 -0.549391,-1.020297 -1.098781,-1.098781c-1.098781,-0.156969 -2.119078,-0.313937 -3.217859,-0.392422c-1.491203,-0.156969 -2.982406,-0.313937 -4.316641,-1.020297c-2.668469,-1.334234 -3.139375,-4.630578 -1.098781,-6.749656c1.25575,-1.25575 2.903922,-1.883625 4.630578,-2.040594c2.746953,-0.235453 5.336937,0.235453 7.691469,1.726656c0.156969,0.235453 0.392422,0.392422 0.706359,0.627875z" fill="#00DE00"/>
   </g>
  </g>
 </g>
</svg>