<?xml version="1.0"?>
<svg width="160" height="50" xmlns="http://www.w3.org/2000/svg" xmlns:svg="http://www.w3.org/2000/svg">
 <g>
  <title>Layer 1</title>
  <g stroke="null" id="Layer_1_1_">
   <g stroke="null" id="svg_1">
    <path stroke="null" id="svg_2" d="m54.53114,30.890193l0,-11.780385c0,-0.746644 0.580723,-1.327367 1.327367,-1.327367l0,0c0.746644,0 1.327367,0.580723 1.327367,1.327367l0,11.780385c0,0.746644 -0.580723,1.327367 -1.327367,1.327367l0,0c-0.663684,0 -1.327367,-0.580723 -1.327367,-1.327367z" fill="#1F8DED"/>
    <path stroke="null" id="svg_3" d="m69.629943,31.387956l-5.724272,-9.12565l0,8.627887c0,0.746644 -0.580723,1.327367 -1.327367,1.327367l0,0c-0.746644,0 -1.327367,-0.580723 -1.327367,-1.327367l0,-11.365583c0,-0.995525 0.746644,-1.74217 1.74217,-1.74217l0.08296,0c0.580723,0 1.161446,0.331842 1.493288,0.829605l5.724272,9.04269l0,-8.627887c0,-0.746644 0.580723,-1.327367 1.327367,-1.327367l0,0c0.746644,0 1.327367,0.580723 1.327367,1.327367l0,11.448543c0,0.995525 -0.746644,1.74217 -1.74217,1.74217l0,0c-0.663684,0 -1.244407,-0.331842 -1.576249,-0.829605z" fill="#1F8DED"/>
    <path stroke="null" id="svg_4" d="m82.156972,20.188294l0,10.784859c0,0.663684 -0.580723,1.244407 -1.244407,1.244407l-0.165921,0c-0.663684,0 -1.244407,-0.580723 -1.244407,-1.244407l0,-10.784859l-3.069537,0c-0.663684,0 -1.244407,-0.580723 -1.244407,-1.244407l0,0c0,-0.663684 0.580723,-1.244407 1.244407,-1.244407l8.793808,0c0.663684,0 1.244407,0.580723 1.244407,1.244407l0,0c0,0.663684 -0.580723,1.244407 -1.244407,1.244407l-3.069537,0z" fill="#1F8DED"/>
    <path stroke="null" id="svg_5" d="m88.544927,31.056114l0,-12.112227c0,-0.663684 0.580723,-1.161446 1.161446,-1.161446l7.964204,0c0.663684,0 1.161446,0.580723 1.161446,1.161446l0,0c0,0.663684 -0.580723,1.161446 -1.161446,1.161446l-6.553876,0l0,3.401379l5.558351,0c0.663684,0 1.161446,0.580723 1.161446,1.161446l0,0c0,0.663684 -0.580723,1.161446 -1.161446,1.161446l-5.558351,0l0,3.982102l6.553876,0c0.663684,0 1.161446,0.580723 1.161446,1.161446l0,0c0,0.663684 -0.580723,1.161446 -1.161446,1.161446l-7.964204,0c-0.580723,0.08296 -1.161446,-0.414802 -1.161446,-1.078486z" fill="#1F8DED"/>
    <path stroke="null" id="svg_6" d="m110.031686,31.470916l-2.074011,-4.728746l-3.235458,0l0,4.148023c0,0.746644 -0.580723,1.327367 -1.327367,1.327367l-0.08296,0c-0.746644,0 -1.327367,-0.580723 -1.327367,-1.327367l0,-11.863345c0,-0.746644 0.580723,-1.327367 1.327367,-1.327367l4.811706,0c3.484339,0 4.977627,2.156972 4.977627,4.479865c0,1.908091 -1.078486,3.484339 -2.654735,4.065062l1.82513,4.065062c0.414802,0.829605 -0.248881,1.82513 -1.161446,1.82513l0,0c-0.414802,0.08296 -0.912565,-0.165921 -1.078486,-0.663684zm-1.82513,-11.448543l-3.484339,0l0,4.313944l3.484339,0c1.493288,0 2.322893,-0.746644 2.322893,-2.156972c0.08296,-1.161446 -0.829605,-2.156972 -2.322893,-2.156972z" fill="#1F8DED"/>
    <path stroke="null" id="svg_7" d="m125.711212,30.807233c-1.078486,1.078486 -2.571774,1.74217 -4.148023,1.74217s-2.986576,-0.497763 -4.065062,-1.576249c-1.576249,-1.576249 -1.82513,-3.484339 -1.82513,-5.890192s0.248881,-4.313944 1.82513,-5.890192c1.078486,-1.078486 2.571774,-1.659209 4.065062,-1.659209c1.576249,0 3.069537,0.580723 4.148023,1.659209c0.414802,0.414802 0.663684,0.829605 0.912565,1.327367c0.414802,0.829605 -0.248881,1.82513 -1.161446,1.82513l0,0c-0.580723,0 -0.995525,-0.331842 -1.161446,-0.829605c-0.08296,-0.248881 -0.248881,-0.497763 -0.414802,-0.746644c-0.497763,-0.580723 -1.327367,-0.912565 -2.156972,-0.912565s-1.659209,0.331842 -2.239932,0.995525c-0.995525,1.078486 -0.995525,2.820656 -0.995525,4.148023s0,3.152497 0.995525,4.148023c0.580723,0.580723 1.410328,0.995525 2.239932,0.995525c0.912565,0 1.74217,-0.331842 2.156972,-0.912565c0.165921,-0.248881 0.331842,-0.497763 0.414802,-0.746644c0.165921,-0.497763 0.663684,-0.829605 1.244407,-0.829605l0,0c0.995525,0 1.576249,0.995525 1.161446,1.82513c-0.248881,0.414802 -0.580723,0.912565 -0.995525,1.327367z" fill="#1F8DED"/>
    <path stroke="null" id="svg_8" d="m139.98041,30.807233c-1.078486,1.078486 -2.654735,1.659209 -4.148023,1.659209c-1.576249,0 -3.069537,-0.580723 -4.148023,-1.659209c-1.576249,-1.576249 -1.82513,-3.484339 -1.82513,-5.890192s0.248881,-4.313944 1.82513,-5.890192c1.078486,-1.078486 2.654735,-1.659209 4.148023,-1.659209c1.576249,0 3.069537,0.580723 4.148023,1.659209c1.576249,1.576249 1.82513,3.484339 1.82513,5.890192s-0.331842,4.396904 -1.82513,5.890192zm-1.908091,-9.955255c-0.580723,-0.580723 -1.493288,-0.995525 -2.322893,-0.995525s-1.74217,0.331842 -2.322893,0.995525c-0.995525,1.078486 -1.078486,2.820656 -1.078486,4.148023s0,3.069537 1.078486,4.148023c0.580723,0.580723 1.493288,0.995525 2.322893,0.995525s1.74217,-0.331842 2.322893,-0.995525c0.995525,-1.078486 1.078486,-2.820656 1.078486,-4.148023c-0.08296,-1.327367 -0.08296,-3.152497 -1.078486,-4.148023z" fill="#1F8DED"/>
    <path stroke="null" id="svg_9" d="m157.070265,30.973154l0,-9.12565l-3.401379,9.208611c-0.165921,0.580723 -0.746644,0.912565 -1.327367,0.912565l0,0c-0.580723,0 -1.078486,-0.414802 -1.327367,-0.912565l-3.401379,-9.374532l0,9.208611c0,0.746644 -0.580723,1.244407 -1.244407,1.244407l0,0c-0.746644,0 -1.244407,-0.580723 -1.244407,-1.244407l0,-11.199662c0,-1.078486 0.912565,-1.991051 1.991051,-1.991051l0.165921,0c0.829605,0 1.576249,0.497763 1.908091,1.327367l3.318418,9.04269l3.318418,-9.04269c0.248881,-0.746644 0.995525,-1.327367 1.908091,-1.327367l0,0c1.078486,0 1.991051,0.912565 1.991051,1.991051l0,11.199662c0,0.746644 -0.580723,1.244407 -1.244407,1.244407l0,0c-0.829605,0.08296 -1.410328,-0.497763 -1.410328,-1.161446z" fill="#1F8DED"/>
    <path stroke="null" id="svg_10" d="m36.113919,4.508768l-30.695369,0c-2.820656,0 -5.143548,2.322893 -5.143548,5.143548l0,30.695369c0,2.820656 2.322893,5.143548 5.143548,5.143548l30.695369,0c2.820656,0 5.143548,-2.322893 5.143548,-5.143548l0,-30.695369c-0.08296,-2.820656 -2.322893,-5.143548 -5.143548,-5.143548zm-9.872294,7.466441c0,-0.746644 0.580723,-1.327367 1.327367,-1.327367c0.746644,0 1.327367,0.580723 1.327367,1.327367l0,18.2513c0,0.746644 -0.580723,1.327367 -1.327367,1.327367c-0.746644,0 -1.327367,-0.580723 -1.327367,-1.327367c0,0 0,-18.2513 0,-18.2513zm-6.885718,-0.663684c0,-0.746644 0.580723,-1.327367 1.327367,-1.327367s1.327367,0.580723 1.327367,1.327367l0,19.827549c0,0.746644 -0.580723,1.327367 -1.327367,1.327367s-1.327367,-0.580723 -1.327367,-1.327367l0,-19.827549zm-6.802757,0.663684c0,-0.746644 0.580723,-1.327367 1.327367,-1.327367s1.327367,0.580723 1.327367,1.327367l0,18.2513c0,0.746644 -0.580723,1.327367 -1.327367,1.327367s-1.327367,-0.580723 -1.327367,-1.327367c0,0 0,-18.2513 0,-18.2513zm-6.802757,2.737695c0,-0.746644 0.580723,-1.327367 1.327367,-1.327367s1.327367,0.580723 1.327367,1.327367l0,12.278148c0,0.746644 -0.580723,1.327367 -1.327367,1.327367s-1.327367,-0.580723 -1.327367,-1.327367l0,-12.278148zm29.533923,20.823075c-0.165921,0.165921 -5.226509,4.396904 -14.51808,4.396904s-14.352159,-4.148023 -14.51808,-4.396904c-0.580723,-0.497763 -0.663684,-1.327367 -0.165921,-1.908091s1.327367,-0.663684 1.908091,-0.165921c0.08296,0.08296 4.645786,3.733221 12.77591,3.733221c8.296046,0 12.69295,-3.733221 12.77591,-3.733221c0.580723,-0.497763 1.410328,-0.414802 1.908091,0.165921c0.497763,0.580723 0.414802,1.410328 -0.165921,1.908091zm0.497763,-8.544927c0,0.746644 -0.580723,1.327367 -1.327367,1.327367c-0.746644,0 -1.327367,-0.580723 -1.327367,-1.327367l0,-12.278148c0,-0.746644 0.580723,-1.327367 1.327367,-1.327367c0.746644,0 1.327367,0.580723 1.327367,1.327367l0,12.278148z" fill="#1F8DED"/>
   </g>
  </g>
 </g>
</svg>