<svg width="160" height="50" xmlns="http://www.w3.org/2000/svg" xmlns:svg="http://www.w3.org/2000/svg">
 <g>
  <title>Layer 1</title>
  <g stroke="null" id="svg_1">
   <path stroke="null" id="svg_2" d="m0.61211,13.80802c0.08352,0.08352 0.25057,0.16704 0.33409,0.33409c4.25963,4.25963 8.51927,8.51927 12.7789,12.7789c0.08352,0.08352 0.16704,0.25057 0.41761,0.41761c0.08352,-0.16704 0.08352,-0.25057 0.16704,-0.41761c7.26644,-7.26644 14.53287,-14.53287 21.79931,-21.79931c0.25057,-0.25057 0.41761,-0.33409 0.7517,-0.33409c1.16931,0 2.33862,0 3.59146,0c0.16704,0 0.25057,0 0.50113,0c0,0.16704 0,0.33409 0,0.50113c0,1.16931 0,2.33862 0,3.59146c0,0.25057 -0.08352,0.50113 -0.25057,0.66818c-2.75623,2.75623 -5.59599,5.59599 -8.35222,8.35222c-0.08352,0.08352 -0.25057,0.16704 -0.41761,0.33409c0.16704,0.16704 0.33409,0.33409 0.41761,0.41761c2.75623,2.75623 5.59599,5.59599 8.35222,8.35222c0.25057,0.25057 0.33409,0.41761 0.33409,0.7517c0,2.67271 0,5.34542 0,7.93461c0,0.16704 0,0.25057 0,0.41761c-4.5102,-4.5102 -9.0204,-8.93688 -13.44708,-13.44708c-0.16704,0.16704 -0.25057,0.25057 -0.33409,0.33409c-2.17158,2.17158 -4.25963,4.25963 -6.43121,6.43121c-5.17838,5.17838 -10.35676,10.35676 -15.45161,15.45161c-0.08352,0.08352 -0.16704,0.16704 -0.25057,0.25057c-1.5034,0 -3.0068,0 -4.42668,0c0,-1.5034 0,-3.0068 0,-4.5102c0.08352,-0.08352 0.16704,-0.08352 0.25057,-0.16704c2.83976,-2.83976 5.67951,-5.67951 8.51927,-8.51927c0.08352,-0.08352 0.16704,-0.16704 0.16704,-0.25057c-0.08352,-0.08352 -0.16704,-0.16704 -0.25057,-0.25057c-2.83976,-2.83976 -5.59599,-5.59599 -8.43575,-8.43575c-0.08352,-0.08352 -0.16704,-0.16704 -0.25057,-0.16704c-0.08352,-3.09032 -0.08352,-6.09712 -0.08352,-9.0204z" fill="#F4867E"/>
   <path stroke="null" id="svg_3" d="m0.61211,4.78762c2.83976,0 5.67951,0 8.51927,0c0.25057,0 0.50113,0.08352 0.66818,0.25057c1.33636,1.33636 2.67271,2.67271 3.92555,3.92555c0.08352,0.08352 0.16704,0.25057 0.33409,0.41761c0.16704,-0.16704 0.25057,-0.25057 0.33409,-0.33409c1.33636,-1.33636 2.67271,-2.67271 4.00907,-4.00907c0.08352,-0.08352 0.33409,-0.25057 0.50113,-0.25057c2.83976,0 5.59599,0 8.43575,0c0.08352,0 0.08352,0 0.08352,0c-4.42668,4.5102 -8.93688,8.93688 -13.5306,13.5306c0,-0.08352 -0.08352,-0.16704 -0.16704,-0.33409c-4.25963,-4.25963 -8.51927,-8.51927 -12.7789,-12.7789c-0.08352,-0.16704 -0.25057,-0.25057 -0.33409,-0.41761c0,0.08352 0,0.08352 0,0z" fill="#F4867E"/>
   <path stroke="null" id="svg_4" d="m32.01647,45.21238c0,0 0,-0.08352 0,-0.08352c2.92328,0 5.93008,0 8.85336,0c0,0 0,0.08352 0,0.08352c-2.92328,0 -5.84656,0 -8.85336,0z" fill="#F9C2BE"/>
   <path stroke="null" id="svg_5" d="m22.91255,45.12886c0,0 0,0.08352 0,0c-2.92328,0.08352 -5.84656,0.08352 -8.85336,0.08352c0,0 0,0 0,-0.08352c3.0068,0 5.93008,0 8.85336,0z" fill="#F9C1BD"/>
   <path stroke="null" id="svg_6" d="m0.61211,45.12886c1.5034,0 3.0068,0 4.42668,0c0,0 0,0.08352 0,0.08352c-1.41988,0 -2.75623,0 -4.17611,0c-0.08352,0 -0.16704,-0.08352 -0.25057,-0.08352z" fill="#F9C1BD"/>
   <path stroke="null" id="svg_7" d="m159.30437,34.68858c-1.08579,0 -2.17158,0 -3.17385,0c-0.33409,0 -0.66818,-0.33409 -0.66818,-0.66818c0,-0.16704 0,-0.25057 0,-0.50113c-0.83522,1.00227 -1.92101,1.41988 -3.17385,1.5034c-3.0068,0.16704 -5.59599,-1.5034 -6.51473,-4.34316c-0.91874,-2.75623 -0.58466,-5.34542 1.33636,-7.517c1.41988,-1.58692 3.25737,-2.17158 5.34542,-2.00453c1.08579,0.08352 2.08806,0.33409 2.92328,1.25283c0,-1.25283 0,-2.42215 0,-3.59146c0,-1.16931 0,-2.2551 0,-3.50793c0.58466,0 1.08579,0 1.67044,0c0.50113,0 0.91874,0 1.41988,0c0.66818,0 0.91874,0.33409 0.91874,1.00227c0,5.76303 0,11.52607 0,17.2891c-0.08352,0.25057 -0.08352,0.66818 -0.08352,1.08579zm-9.93915,-6.51473c0,0.16704 0,0.50113 0.08352,0.83522c0.25057,1.08579 0.83522,1.83749 1.92101,2.17158c1.08579,0.33409 2.08806,0.16704 2.92328,-0.58466c0.83522,-0.7517 1.08579,-1.83749 1.00227,-2.92328c-0.25057,-2.92328 -3.09032,-3.42441 -4.59372,-2.42215c-1.00227,0.58466 -1.33636,1.58692 -1.33636,2.92328z" fill="#0F7162"/>
   <path stroke="null" id="svg_8" d="m22.91255,45.12886c-2.92328,0 -5.84656,0 -8.85336,0c0.08352,-0.08352 0.16704,-0.25057 0.25057,-0.33409c4.25963,-4.25963 8.51927,-8.51927 12.7789,-12.7789c0.08352,-0.08352 0.16704,-0.16704 0.33409,-0.33409c0.08352,0.08352 0.16704,0.16704 0.33409,0.25057c4.34316,4.34316 8.60279,8.60279 12.94595,12.94595c0.08352,0.08352 0.16704,0.16704 0.25057,0.25057c-2.92328,0 -5.93008,0 -8.85336,0c-1.5034,-1.5034 -3.0068,-3.0068 -4.5102,-4.5102c-1.58692,1.5034 -3.17385,3.0068 -4.67725,4.5102z" fill="#F4867E"/>
   <path stroke="null" id="svg_9" d="m98.83426,35.10619c-4.00907,0 -7.09939,-3.0068 -7.09939,-6.93235c0,-4.09259 2.92328,-7.18291 7.01587,-7.18291c4.09259,0 7.18291,2.92328 7.18291,7.01587c0,4.00907 -3.0068,7.01587 -7.09939,7.09939zm2.92328,-7.09939c0,-0.16704 0,-0.25057 0,-0.41761c-0.08352,-1.58692 -1.16931,-2.67271 -2.58919,-2.83976c-1.58692,-0.16704 -2.83976,0.66818 -3.17385,2.17158c-0.08352,0.50113 -0.16704,1.00227 -0.08352,1.5034c0.16704,2.2551 2.33862,3.50793 4.34316,2.58919c1.08579,-0.66818 1.5034,-1.75397 1.5034,-3.0068z" fill="#0F7163"/>
   <path stroke="null" id="svg_10" d="m143.60219,29.09259c-3.17385,0 -6.26417,0 -9.35449,0c0.08352,1.00227 0.66818,1.75397 1.5034,2.17158c1.16931,0.58466 2.33862,0.50113 3.42441,-0.33409c0.08352,-0.08352 0.16704,-0.08352 0.25057,-0.16704c1.25283,0 2.50567,0 3.84202,0c0,0.16704 -0.08352,0.25057 -0.08352,0.33409c-0.50113,1.5034 -1.5034,2.67271 -2.92328,3.25737c-2.67271,1.08579 -5.2619,0.91874 -7.517,-0.83522c-2.00453,-1.58692 -2.58919,-3.7585 -2.50567,-6.18065c0.16704,-3.0068 2.17158,-5.51247 5.09486,-6.18065c2.42215,-0.50113 4.59372,-0.16704 6.43121,1.58692c1.16931,1.16931 1.67044,2.67271 1.75397,4.34316c0.16704,0.66818 0.08352,1.25283 0.08352,2.00453zm-3.92555,-2.67271c-0.08352,-1.41988 -1.16931,-2.2551 -2.67271,-2.2551c-1.33636,0 -2.50567,1.00227 -2.58919,2.2551c1.75397,0 3.50793,0 5.2619,0z" fill="#107263"/>
   <path stroke="null" id="svg_11" d="m66.6782,34.68858c-1.08579,0 -2.17158,0 -3.25737,0c-0.50113,0 -0.83522,-0.50113 -0.83522,-1.00227c0,-0.66818 0,-1.33636 0,-1.92101c0,-3.25737 0,-6.51473 0,-9.85562c0,-0.16704 0,-0.33409 0,-0.50113c0.66818,0 1.25283,0 1.92101,0c0.33409,0 0.66818,0 1.00227,0c0.7517,0 1.08579,0.33409 1.08579,1.08579c0,0.08352 0,0.16704 0,0.33409c0.08352,-0.08352 0.16704,-0.08352 0.16704,-0.16704c1.75397,-2.17158 5.76303,-2.08806 7.43348,0.25057c0.58466,0.83522 0.91874,1.83749 0.91874,2.92328c0,3.0068 0,5.93008 0,8.93688c-1.33636,0 -2.67271,0 -4.09259,0c0,-0.16704 0,-0.25057 0,-0.41761c0,-2.33862 0,-4.67725 0,-7.09939c0,-0.33409 0,-0.58466 -0.08352,-0.91874c-0.25057,-1.08579 -1.16931,-1.67044 -2.33862,-1.5034c-1.08579,0.16704 -1.92101,1.08579 -1.92101,2.17158c0,2.42215 0,4.84429 0,7.26644c0,0.08352 0,0.16704 0,0.41761z" fill="#107163"/>
   <path stroke="null" id="svg_12" d="m125.06025,29.34316c1.16931,0.33409 2.33862,0.7517 3.59146,1.08579c-0.41761,1.58692 -1.33636,2.83976 -2.75623,3.67498c-3.67498,2.2551 -10.02267,0.66818 -10.77437,-5.09486c-0.50113,-3.84202 1.75397,-7.09939 5.34542,-7.85109c2.67271,-0.58466 5.59599,0.16704 7.18291,2.50567c0.16704,0.25057 0.33409,0.58466 0.50113,0.91874c0.16704,0.33409 0.25057,0.66818 0.41761,1.08579c-0.66818,0.16704 -1.25283,0.41761 -1.83749,0.58466c-0.58466,0.16704 -1.16931,0.33409 -1.83749,0.50113c0,-0.08352 -0.08352,-0.08352 -0.08352,-0.08352c-0.50113,-1.33636 -1.41988,-1.92101 -2.83976,-1.83749c-1.33636,0.08352 -2.33862,0.83522 -2.67271,2.17158c-0.33409,1.33636 -0.25057,2.50567 0.7517,3.50793c1.16931,1.25283 4.00907,1.33636 4.84429,-0.91874c0.08352,-0.16704 0.16704,-0.16704 0.16704,-0.25057z" fill="#0F7163"/>
   <path stroke="null" id="svg_13" d="m83.9673,29.59372c0.50113,-1.41988 0.91874,-2.75623 1.41988,-4.09259c0.41761,-1.16931 0.7517,-2.33862 1.16931,-3.50793c0.16704,-0.50113 0.41761,-0.66818 0.91874,-0.66818c1.16931,0 2.33862,0 3.59146,0c-0.08352,0.16704 -0.08352,0.25057 -0.08352,0.41761c-1.58692,4.17611 -3.17385,8.43575 -4.76077,12.61186c-0.08352,0.25057 -0.25057,0.33409 -0.50113,0.33409c-1.16931,0 -2.33862,0 -3.42441,0c-0.16704,0 -0.33409,0 -0.41761,-0.25057c-1.75397,-4.25963 -3.50793,-8.60279 -5.2619,-12.86243c0,-0.08352 0,-0.08352 -0.08352,-0.16704c0.16704,0 0.33409,0 0.50113,0c1.08579,0 2.08806,0 3.17385,0c0.58466,0 0.83522,0.16704 1.00227,0.7517c0.83522,2.33862 1.75397,4.67725 2.58919,7.01587c0,0.08352 0.08352,0.16704 0.16704,0.41761z" fill="#0F7163"/>
   <path stroke="null" id="svg_14" d="m58.74359,34.68858c-1.25283,0 -2.42215,0 -3.59146,0c-0.33409,0 -0.58466,-0.25057 -0.66818,-0.58466c0,-0.16704 -0.08352,-0.33409 -0.08352,-0.50113c0,-5.84656 0,-11.69311 0,-17.53967c0,-0.08352 0,-0.16704 0,-0.33409c0.16704,0 0.25057,0 0.33409,0c1.00227,0 1.92101,0 2.92328,0c0.58466,0 1.08579,0.50113 1.08579,1.08579c0,0.58466 0,1.16931 0,1.67044c0,5.2619 0,10.44028 0,15.70218c0,0.08352 0,0.25057 0,0.50113z" fill="#117264"/>
   <path stroke="null" id="svg_15" d="m108.52284,21.32502c1.08579,0 2.17158,0 3.25737,0c0.50113,0 0.7517,0.33409 0.7517,0.83522c0,4.09259 0,8.2687 0,12.36129c0,0 0,0.08352 0,0.08352c-1.08579,0 -2.2551,0 -3.34089,0c-0.41761,0 -0.66818,-0.41761 -0.66818,-0.83522c0,-1.25283 0,-2.42215 0,-3.67498c0,-2.75623 0,-5.59599 0,-8.35222c0,-0.08352 0,-0.25057 0,-0.41761z" fill="#0E7162"/>
   <path stroke="null" id="svg_16" d="m110.52738,19.65458c-1.33636,0 -2.33862,-1.08579 -2.33862,-2.33862c0,-1.33636 1.08579,-2.42215 2.42215,-2.42215c1.33636,0 2.42215,1.08579 2.42215,2.42215c-0.08352,1.33636 -1.16931,2.33862 -2.50567,2.33862z" fill="#107263"/>
  </g>
 </g>
</svg>