<?xml version="1.0" encoding="utf-8"?>
<!-- Generator: Adobe Illustrator 21.0.0, SVG Export Plug-In . SVG Version: 6.00 Build 0)  -->
<svg version="1.1" id="Layer_1" xmlns="http://www.w3.org/2000/svg" xmlns:xlink="http://www.w3.org/1999/xlink" x="0px" y="0px"
	 viewBox="0 0 170 39.2" enable-background="new 0 0 170 39.2" xml:space="preserve">
<g>
	
		<linearGradient id="SVGID_1_" gradientUnits="userSpaceOnUse" x1="-1387.0139" y1="416.5277" x2="-1387.5128" y2="417.2761" gradientTransform="matrix(30.9745 0 0 -29.0962 42986.2695 12155.418)">
		<stop  offset="0" style="stop-color:#F1BD0F"/>
		<stop  offset="1" style="stop-color:#F3A211"/>
	</linearGradient>
	<path fill="url(#SVGID_1_)" d="M21.2,12.3l9,21c-2.9,2.2-6.5,3.4-10.4,3.4c-3.4,0-6.7-1.1-9.4-2.8c-4.7-3-7.8-8.4-7.8-14.4
		c0-0.6,0-1.3,0.1-1.9L18,11C19.3,10.5,20.7,11.1,21.2,12.3L21.2,12.3z"/>
	
		<linearGradient id="SVGID_2_" gradientUnits="userSpaceOnUse" x1="-1374.8208" y1="411.9547" x2="-1373.9298" y2="411.9547" gradientTransform="matrix(24.2251 0 0 -20.2843 33308.2266 8383.917)">
		<stop  offset="0" style="stop-color:#D75F09"/>
		<stop  offset="1" style="stop-color:#E07118"/>
	</linearGradient>
	<path fill="url(#SVGID_2_)" d="M19.8,36.7c-3.4,0-6.7-1.1-9.4-2.8C6.8,31.6,4.2,28,3.1,23.8l11.6-5c1.2-0.5,2.6,0,3.2,1.3L24.7,36
		C23.1,36.5,21.5,36.7,19.8,36.7L19.8,36.7z"/>
	
		<linearGradient id="SVGID_3_" gradientUnits="userSpaceOnUse" x1="-1329.9794" y1="397.5856" x2="-1329.0884" y2="397.5856" gradientTransform="matrix(13.7789 0 0 -10.8397 18331.4473 4341.5503)">
		<stop  offset="0" style="stop-color:#CB3F30"/>
		<stop  offset="1" style="stop-color:#D54334"/>
	</linearGradient>
	<path fill="url(#SVGID_3_)" d="M11.4,27.2c1.2-0.5,2.6,0,3.2,1.3l3.5,8.2c-2.8-0.3-5.5-1.3-7.7-2.7c-1.8-1.1-3.3-2.6-4.5-4.3
		L11.4,27.2L11.4,27.2z"/>
	<path fill="#484848" d="M36.2,15.9H36h-0.5c-0.3,0-0.6,0.1-0.8,0.4c-0.3,0.4-0.3,0.9,0,1.2l2.2,3.1c0.3,0.4,0.7,0.5,1.2,0.3
		c0.2-0.1,0.3-0.2,0.4-0.4l2.2-3.1c0.2-0.3,0.2-0.7,0.1-1c-0.1-0.3-0.5-0.6-0.9-0.6h-0.6h-0.3c-0.8-4.3-3.1-8.3-6.5-11.2
		C29,1.7,24.5,0,19.7,0h-0.1C8.8,0.1,0,8.9,0,19.6c0,10.8,8.9,19.6,19.7,19.6c9.1,0,16.9-6.1,19.1-14.8c0.3-1.2-0.2-1.8-0.9-1.9
		c-1-0.2-1.6,0.5-1.8,1.3c-1.9,7.4-8.5,12.7-16.3,12.7h0c-4.5,0-8.8-1.8-12-5S2.9,24,3,19.5c0-9.2,7.5-16.8,16.8-16.8h0.2
		C27.8,2.8,34.5,8.4,36.2,15.9L36.2,15.9z M169.8,32.4c-0.4-0.5-0.8-1-1.3-1.5c-0.2-0.2-0.4-0.3-0.6-0.3c-0.2,0-0.4,0.1-0.6,0.2
		c-0.1,0.1-0.3,0.2-0.4,0.3c-1.4,1-2.9,1.8-4.5,2.4c-1.7,0.6-4.5,0.8-5.7-0.9c0.1-0.1,0.1-0.1,0.1-0.1c0.1,0,0.2,0,0.3-0.1
		c1.4-0.2,2.8-0.6,4.1-1.3c2.8-1.5,4.3-4,4.3-7.1c0-3.1-2.4-5.2-5.4-5.2c-2.4,0-5.6,1.6-7.3,5.2c-0.6,1.3-1.2,3-1.5,6
		c0,0.4-0.1,0.7-0.3,1c-1.1,1.8-2.8,2.7-4.8,3.1c-0.1,0-0.2,0-0.3,0c-0.5,0-0.9-0.3-1.1-0.9c-0.3-0.9-0.4-1.8-0.2-2.8
		c0.1-0.5,0.2-1,0.6-1.4c0.8-1,4.6-6.5,5.6-8.1c4.2-6.2,5.9-12.6,6.2-14.9c0.1-1,0.2-1.9,0.1-2.9c-0.2-1.3-0.8-2.1-2.1-2.4
		c-0.3-0.1-0.5-0.1-0.8-0.1c-0.5,0-1,0.1-1.5,0.3c-1.2,0.5-2.6,1.4-3.6,2.6c-2.1,2.3-3.6,5.1-4.8,8c-1.3,3.1-2.3,6.3-3,9.6
		c-0.3,1.7-0.6,3.4-0.8,5.1c-0.1,0.8-0.2,1.6-0.2,2.4c0,0.4-0.2,0.7-0.5,0.9c-0.7,0.5-1.3,1-2,1.4c-0.6,0.3-1.2,0.6-1.8,0.9
		c0-0.1,0-0.2,0-0.2c0-0.2,0.1-0.4,0.1-0.6c0.6-2,0.8-4.1,0.7-6.2c-0.1-1.3-0.5-2.5-1.3-3.5c-0.2-0.3-0.5-0.6-0.9-0.8
		c-0.8-0.4-1.6-0.6-2.5-0.6c-0.3,0-0.6,0-0.9,0.1c-0.5,0.1-1.1,0.2-1.8,0.3c1.1-1.2,3.2-3.9,5.3-8.4c0.9-2,1.4-4.1,1.5-6.3
		c0-1.2,0-2.4-0.6-3.5c-0.8-1.4-2.3-1.5-2.8-1.5c-1.2,0-2.6,0.6-3.7,2c-0.8,1.1-1.5,2.3-2.1,3.5c-1.3,2.7-2.2,5.5-3,8.4
		c-2.6,9.4-3,13.5-3.6,15.8c-1,4.1-2.8,4.2-3.3,4.1c-0.9-0.2-1.4-2.1-0.9-4.3c0.6-2.9,1.2-5.8,1.9-8.6c0.3-1.1-0.3-1.9-1.2-2.2
		c-1.1-0.4-2.3-0.6-3.5-0.6c-0.7,0-1.4,0.1-2.1,0.2c-2.2,0.4-3.9,1.8-5.4,3.4c-1.1,1.2-2,2.6-2.7,4.1c-0.5,1.1-1.3,1.5-2.3,1.8
		c-0.2,0-0.5,0.1-0.7,0.1c-1.1,0-1.7-0.7-1.7-2.1c0-0.2,0-0.4,0-0.5c0.1-0.8,0.2-1.7,0.4-2.5c0.1-0.8,0.3-1.5,0.4-2.3
		c0.1-1-0.7-1.8-1.7-1.9H97c-0.7,0-1.3,0.2-1.8,0.6c-0.5,0.4-1,0.7-1.4,1.2c-0.7,0.9-1.3,2-1.9,3c-0.2,0.3-0.3,0.7-0.5,1
		c0-0.8,0.2-1.5,0.3-2.2c0.2-0.8,0.4-1.6,0.6-2.4c0.1-0.6,0-1-0.5-1.2c-0.4-0.1-0.9-0.2-1.3-0.2c-0.5,0-1,0.1-1.5,0.3
		c-0.3,0.1-0.5,0.4-0.6,0.6c-0.2,0.4-0.4,0.9-0.5,1.4c-0.8,3-1.5,6.1-1.9,9.3c0,0.4-0.1,0.7-0.5,0.9c-0.4,0.2-0.8,0.5-1.2,0.7
		c-1.4,0.8-2.8,1.6-4.4,1.9c-0.4,0.1-0.9,0.1-1.3,0.1c-0.8,0-1.5-0.1-2.3-0.6c-0.4-0.2-0.7-0.5-1-0.9c0.2,0,0.3-0.1,0.4-0.1
		c1.5-0.2,2.9-0.6,4.2-1.3c2.9-1.6,4.2-4.1,4.2-7.3c0-1.7-1.1-5-5.3-5c-1.3,0-2.6,0.5-3.8,1.3c-1.8,1.2-2.8,2.7-3.7,4.6
		c-0.7,1.8-1.2,3.5-1.2,5.8c0,0.4-0.1,0.7-0.5,1c-0.2,0.1-0.4,0.3-0.6,0.4c-1.4,0.9-2.9,1.6-4.5,2.2c-0.5,0.2-1.1,0.3-1.7,0.3
		c-0.3,0-0.6,0-0.9-0.1c-0.6-0.1-1.1-0.4-1.3-1c-0.2-0.5-0.3-1-0.3-1.5c0-0.9,0.1-1.8,0.2-2.7c0.1-2.1,0.6-4.1,1.1-6.1
		c0.1-0.4,0.4-0.5,0.8-0.6c0.1,0,0.5,0,0.5,0h7c0.4,0,1-0.4,1.2-0.9c0.2-0.6,0.4-1.1,0.6-1.7c0.2-0.6,0-1.1-0.6-1.1h-5.2
		c2.5-2,5.5-5.7,6.4-10.3c0.4-1.9,1.3-6.6-1.9-7.6c-3.2-1-7,3.4-9.2,8.4c-2.2,4.9-3.1,9.7-3.1,9.7h-1h-0.7c-0.5,0-0.8,0-1,0.5
		c-0.3,0.7-0.5,1.5-0.7,2.3c-0.1,0.6,0.1,0.7,0.7,0.7h1h1.2c-0.1,0.5-0.2,1.1-0.3,1.6c-0.5,2.3-0.8,4.5-1,7c0,0.2-0.1,0.5-0.2,0.6
		c-1.1,1-2.2,2-3.8,2.8c-2.6,1.3-2.3-1.4-2.2-2.3c0.1-1.2,0.4-2.7,0.7-3.9c0.7-3,1.3-4.9,2.1-7.5c0.1-0.3,0.1-0.6,0.1-0.9
		c0-1-1.1-1.1-1.7-1.1c-0.6,0-2.5,0-3.4,2.1c-2.7,6.7-3.1,13.4-2.9,15c0.5,3.7,4.2,3.1,5.9,2.6c1.8-0.6,3.5-1.7,5.1-2.8
		c0.2-0.1,0.4-0.2,0.5-0.3c0.1,0,0.1,0.1,0.1,0.1c0,0.2,0.1,0.4,0.2,0.7c0.4,1.4,1.2,2.2,2.6,2.6c0.5,0.1,1.1,0.2,1.7,0.2
		c0.3,0,0.6,0,1-0.1c2.5-0.4,4.9-1.1,7-2.5c0.6-0.4,1.3-0.8,1.9-1.2c0.1,0,0.1,0,0.1,0.1c0.1,0.1,0.2,0.3,0.3,0.4
		c1,1.4,2.4,2.6,4.1,2.9c0.6,0.1,1.2,0.2,1.8,0.2c0.8,0,1.6-0.1,2.5-0.3c1.9-0.4,3.7-1.5,5.4-2.5c0.2-0.1,0.4-0.2,0.7-0.4
		c0,0,0.1,1.6,0.2,2.2c0.1,0.6,0.3,0.9,0.9,0.9c0.2,0,0.4,0,0.7,0c0.3,0,0.6,0,1,0c1.4-0.1,1.8-0.6,2-2c0.2-1.7,0.5-3.5,0.8-5.1
		c0.3-1.6,0.8-3.2,1.6-4.6c0.2-0.3,0.4-0.6,0.6-0.8c0.1-0.1,0.2-0.1,0.3-0.1c0.2,0,0.3,0.1,0.4,0.4c0.1,0.4,0.1,0.8,0.2,1.2
		c0.2,1.1,0.4,2.2,1,3.1c0.7,1.1,1.6,1.9,3,2c0.3,0,0.5,0,0.8,0c0.5,0,1-0.1,1.5-0.2c0.2,0,0.3-0.1,0.6-0.1c0,0.5,0,0.9,0.1,1.3
		c0.5,3.3,2.6,4.8,4.9,4.8s4.5-1.6,5.6-2.7c0.1-0.1,0.3-0.2,0.4-0.3c0,0.2,0.1,0.3,0.1,0.4c1,3,3.4,2.7,4.2,2.6
		c1-0.1,3.1-1.1,4.3-2.4c0.2,0.1,0.4,0.3,0.6,0.4c1.7,1.2,3.5,2,5.5,2c0.4,0,2.9,0.2,5.6-1.7c0.3-0.2,0.6-0.3,1-0.5
		c1-0.3,2-0.6,3-0.9c1.4-0.4,2.6-1.2,3.8-2.1c0.2,1.5,0.4,2.2,0.7,2.9c0.6,1.4,1.4,2.2,3.1,2.2c1.1,0,3.7,0,8.3-3.3
		c2.5,3.4,5.7,3.3,6.2,3.3c0.7,0,4.5,0.5,10.4-4.5c0.2-0.2,0.5-0.4,0.7-0.6S170.1,32.7,169.8,32.4z M51.5,10.8
		c2.2,0.1,3,1.8,2.4,3.7c-0.4,1.2-1.4,1.8-2.6,1.9c-0.6,0.1-1.2,0-1.8-0.1c-1.3-0.2-2-1.6-1.8-2.9c0.2-1.6,1.4-2.6,3-2.7
		C50.9,10.8,51.2,10.8,51.5,10.8z M66.9,6.5c0.6-0.6,1.2-0.4,1.1,0.6C68,8,67.8,9,67.5,9.7c-1.3,3.3-3.4,5.2-5,6.4
		C64.1,9.3,66.3,7.3,66.9,6.5z M74.6,27.7c0.2-1.2,0.7-2.4,1.4-3.5c0.6-0.9,1.4-1.5,2.5-1.7c0.1,0,0.2,0,0.4,0
		c0.7,0,1.3,0.5,1.4,1.3c0,0.3,0,0.7-0.1,1c-0.6,2.1-2.7,3.7-4.9,3.7h-0.1C74.5,28.5,74.4,28.3,74.6,27.7z M111.2,29
		c-0.2,1-0.4,2.1-0.9,3.1c-0.4,0.8-0.9,1.4-1.7,1.8c-0.2,0.1-0.5,0.2-0.8,0.2h-0.2c-0.7,0-1-0.3-1.2-1.2c-0.2-1-0.1-1.9,0.2-2.9
		c0.5-1.9,1.3-3.8,2.6-5.4c0.6-0.7,1.3-1.4,2.2-1.8c0.3-0.1,0.6-0.3,1-0.3c0.1,0,0.2,0,0.4,0C112.2,24.8,111.7,26.9,111.2,29z
		 M126,19c0.9-3,1.9-5.9,3.1-8.8c2-4.7,2.7-4.9,3.1-4.6c0.3,0.2,0.3,1.2-0.1,2.6c-0.5,1.7-1.3,3.3-2.1,4.9c-1.1,2.1-2.3,4.1-3.6,6
		c-0.1,0.2-0.2,0.3-0.4,0.5c0,0-0.1,0-0.1,0C125.9,19.4,125.9,19.2,126,19z M131.5,31.3c-0.8,2.4-2.5,3.4-4.9,3.5
		c-1.3,0-2.4-0.5-2.3-1.2c0-0.4,0.1-0.7,0.1-1.1c0.4-2,0.9-4,1.7-6c0.3-0.7,0.6-1.3,1.2-1.7c0.7-0.6,1.5-0.9,2.4-0.9
		c0.3,0,0.6,0,0.9,0.1c0.8,0.2,1.4,0.7,1.5,1.5c0.1,0.4,0.1,0.8,0.1,1.2C132.2,28.3,132,29.8,131.5,31.3z M144.6,21.7
		c0.7-3.8,1.9-7.5,3.6-11c0.7-1.4,1.5-2.7,2.5-3.9c0.3-0.3,0.6-0.7,0.9-0.9c0.1-0.1,0.3-0.2,0.4-0.2c0.3,0,0.5,0.2,0.5,0.6
		c0,0.3,0,0.7-0.1,1c-0.3,1.7-1,3.4-1.7,5c-1.1,2.5-2.3,5-3.8,7.3c-0.7,1.1-1.5,2.2-2.3,3.4c-0.1,0-0.1,0-0.2,0
		C144.5,22.6,144.5,22.2,144.6,21.7z M156.1,28c0.2-1.5,0.7-2.9,1.7-4.1c1.7-2.2,3.9-1.5,4,0c0,0.3,0,0.7-0.1,1
		c-0.6,2-2.6,3.6-4.7,3.7C156.3,28.6,156,28.5,156.1,28z"/>
</g>
</svg>
