<?xml version="1.0"?>
<svg width="160" height="50" xmlns="http://www.w3.org/2000/svg" xmlns:svg="http://www.w3.org/2000/svg">
 <g>
  <title>Layer 1</title>
  <g stroke="null" id="Layer_1_1_">
   <g stroke="null" id="svg_1">
    <path stroke="null" id="svg_2" d="m79.941604,12.269962l-5.489098,0c-0.467157,0 -0.934315,0.350368 -0.934315,0.934315l0,33.284959c0,0.467157 0.350368,0.934315 0.934315,0.934315l5.489098,0c0.467157,0 0.934315,-0.350368 0.934315,-0.934315l0,-33.284959c-0.116789,-0.583947 -0.467157,-0.934315 -0.934315,-0.934315z" fill="#1F5180"/>
    <path stroke="null" id="svg_3" d="m114.978402,45.7885l-7.591306,-10.978197c3.270101,-1.401472 4.905152,-4.204416 4.905152,-8.525621l0,-4.437995c0,-6.656992 -3.50368,-9.693514 -11.328565,-9.693514l-13.547562,0c-0.467157,0 -0.934315,0.350368 -0.934315,0.934315l0,33.284959c0,0.467157 0.350368,0.934315 0.934315,0.934315l5.489098,0c0.467157,0 0.934315,-0.350368 0.934315,-0.934315l0,-10.39425l5.605888,0l7.591306,10.978197c0.116789,0.233579 0.467157,0.350368 0.700736,0.350368l6.540202,0l0,0c0.467157,0 0.934315,-0.350368 0.934315,-0.934315c-0.116789,-0.116789 -0.116789,-0.350368 -0.233579,-0.583947zm-21.255658,-27.095124l6.89057,0c3.620469,0 4.321205,1.401472 4.321205,3.620469l0,3.386891c0,2.802944 -1.051104,3.737259 -4.321205,3.737259l-6.89057,0l0,-10.744618z" fill="#1F5180"/>
    <path stroke="null" id="svg_4" d="m132.84717,12.853909c-0.116789,-0.350368 -0.467157,-0.583947 -0.817525,-0.583947l-8.292042,0c-0.350368,0 -0.700736,0.233579 -0.817525,0.583947l-10.51104,33.284959c-0.116789,0.233579 0,0.583947 0.116789,0.817525s0.467157,0.350368 0.700736,0.350368l5.722677,0c0.350368,0 0.700736,-0.233579 0.817525,-0.700736l7.240938,-24.525759c0,0 0.233579,-0.583947 0.817525,-0.583947c0.700736,0 0.817525,0.583947 0.817525,0.583947l3.386891,11.562144l-4.554784,0c-0.350368,0 -0.700736,0.233579 -0.817525,0.700736l-1.284683,4.554784c-0.116789,0.233579 0,0.583947 0.116789,0.817525s0.467157,0.350368 0.700736,0.350368l7.824885,0l1.985419,6.423413c0.116789,0.350368 0.467157,0.583947 0.817525,0.583947l5.722677,0c0.233579,0 0.583947,-0.116789 0.700736,-0.350368s0.233579,-0.583947 0.116789,-0.817525l-10.51104,-33.05138z" fill="#1F5180"/>
    <path stroke="null" id="svg_5" d="m67.094777,12.269962l-5.489098,0c-0.467157,0 -0.817525,0.350368 -0.817525,0.817525l0,26.04402c0,3.270101 -2.452576,4.321205 -4.204416,4.437995c-0.233579,0 -0.467157,0.116789 -0.700736,0.350368c-0.116789,0.233579 -0.233579,0.467157 -0.116789,0.700736l1.401472,4.437995c0.116789,0.350368 0.467157,0.583947 1.167893,0.583947c5.25552,0 9.693514,-4.204416 9.693514,-9.693514l0,-26.861546c0,-0.233579 -0.116789,-0.467157 -0.233579,-0.583947c-0.350368,-0.233579 -0.467157,-0.233579 -0.700736,-0.233579z" fill="#1F5180"/>
    <path stroke="null" id="svg_6" d="m24.233093,3.160394c-1.75184,0 -3.153312,1.401472 -3.153312,3.036523s1.401472,3.036523 3.036523,3.036523s3.153312,-1.284683 3.153312,-3.036523c0,-1.635051 -1.401472,-3.036523 -3.036523,-3.036523l0,0l0,0z" fill="#1F5180"/>
    <path stroke="null" id="svg_7" d="m44.437647,3.160394c-1.75184,0 -3.036523,1.401472 -3.036523,3.036523s1.401472,3.036523 3.036523,3.036523s3.036523,-1.401472 3.036523,-3.036523s-1.401472,-3.036523 -3.036523,-3.036523l0,0l0,0z" fill="#1F5180"/>
    <path stroke="null" id="svg_8" d="m34.276976,0.357451c-1.75184,0 -3.036523,1.401472 -3.036523,3.036523s1.401472,3.036523 3.036523,3.036523s3.036523,-1.401472 3.036523,-3.036523c0.116789,-1.635051 -1.284683,-3.036523 -3.036523,-3.036523l0,0l0,0z" fill="#1F5180"/>
    <path stroke="null" id="svg_9" d="m51.678586,11.802805c-0.116789,-0.116789 -0.350368,-0.233579 -0.583947,-0.233579c-0.116789,0 -0.233579,0 -0.350368,0c-2.102208,0.817525 -4.204416,1.401472 -6.189834,1.868629c-0.350368,0.116789 -0.700736,0.350368 -0.817525,0.700736c-1.401472,3.854048 -5.021941,7.474517 -8.7592,11.328565c-0.116789,0.116789 -0.350368,0.350368 -0.700736,0.350368s-0.583947,-0.116789 -0.700736,-0.350368c-3.737259,-3.854048 -7.357728,-7.474517 -8.7592,-11.328565c-0.116789,-0.350368 -0.467157,-0.700736 -0.817525,-0.700736c-1.868629,-0.467157 -4.087627,-1.051104 -6.189834,-1.868629c-0.116789,0 -0.233579,0 -0.350368,0c-0.233579,0 -0.467157,0 -0.583947,0.233579c-0.233579,0.116789 -0.350368,0.467157 -0.350368,0.817525c0.350368,3.153312 1.635051,6.306624 3.854048,9.576725c2.102208,3.036523 4.905152,5.956256 7.708096,8.7592c5.021941,5.13873 9.693514,9.927093 10.160672,15.532981c0,0.467157 0.467157,0.934315 0.934315,0.934315l5.839466,0c0.233579,0 0.467157,-0.116789 0.700736,-0.350368c0.116789,-0.233579 0.233579,-0.467157 0.233579,-0.700736c-0.233579,-3.737259 -1.635051,-7.474517 -4.321205,-11.445354c-0.583947,-0.817525 -1.167893,-1.635051 -1.868629,-2.452576c-0.233579,-0.350368 -0.116789,-0.700736 0,-0.934315c0.233579,-0.233579 0.350368,-0.350368 0.583947,-0.583947c2.686155,-2.802944 5.489098,-5.605888 7.708096,-8.7592c2.335787,-3.270101 3.620469,-6.423413 3.854048,-9.576725c0.233579,-0.350368 0,-0.700736 -0.233579,-0.817525z" fill="#1F5180"/>
    <path stroke="null" id="svg_10" d="m27.970352,35.27746c-0.116789,-0.116789 -0.350368,-0.233579 -0.700736,-0.233579c-0.467157,0 -0.700736,0.350368 -0.817525,0.467157c-2.452576,3.737259 -3.737259,7.357728 -3.854048,10.861408c0,0.233579 0.116789,0.583947 0.233579,0.700736c0.116789,0.233579 0.467157,0.350368 0.700736,0.350368l5.839466,0c0.467157,0 0.934315,-0.350368 0.934315,-0.934315c0.116789,-1.75184 0.700736,-3.386891 1.635051,-5.25552c0.350368,-0.583947 0.116789,-1.167893 -0.116789,-1.518261c-0.934315,-1.284683 -2.102208,-2.569365 -3.854048,-4.437995z" fill="#1F5180"/>
    <path stroke="null" id="svg_11" d="m34.276976,14.605749c1.868629,0 2.919733,-0.116789 3.270101,-0.116789c0.467157,0 0.934315,0.350368 0.934315,0.934315c0,0.116789 0,0.233579 -0.116789,0.350368c-0.233579,0.700736 -1.401472,3.036523 -3.386891,5.021941c-0.233579,0.233579 -0.467157,0.233579 -0.700736,0.233579l0,0c-0.116789,0 -0.467157,0 -0.700736,-0.233579c-2.102208,-1.985419 -3.153312,-4.321205 -3.386891,-5.021941c0,-0.116789 -0.116789,-0.233579 -0.116789,-0.350368c0,-0.467157 0.467157,-0.934315 0.934315,-0.934315c0.350368,0 1.401472,0.116789 3.270101,0.116789l0,0z" fill="#1F5180"/>
   </g>
  </g>
 </g>
</svg>