<svg width="160" height="50" xmlns="http://www.w3.org/2000/svg" xmlns:svg="http://www.w3.org/2000/svg">
 <g>
  <title>Layer 1</title>
  <g stroke="null" id="svg_1">
   <g stroke="null" id="Layer_2_1_">
    <g stroke="null" id="Blue">
     <path stroke="null" id="svg_2" d="m30.52796,17.20785l2.11037,0l0,10.87654c0,2.92206 -1.29869,4.87009 -4.22075,4.87009c-0.89285,0 -1.7857,-0.16234 -2.59738,-0.40584l0,-2.11037c0.73051,0.2435 1.46103,0.40584 2.19154,0.40584c1.7857,0 2.43505,-1.05519 2.43505,-2.67855l0.08117,-10.95771z" fill="#253858"/>
     <path stroke="null" id="svg_3" d="m36.61558,16.315c0.73051,-0.08117 1.37986,0.48701 1.46103,1.21752c0,0.08117 0,0.16234 0,0.16234c0,0.81168 -0.64935,1.46103 -1.46103,1.46103c-0.81168,0 -1.46103,-0.64935 -1.46103,-1.46103c0,0 0,0 0,0c-0.08117,-0.73051 0.48701,-1.37986 1.21752,-1.46103c0.08117,0.08117 0.16234,0.08117 0.2435,0.08117zm-1.05519,4.62659l2.02921,0l0,11.93173l-2.02921,0l0,-11.93173z" fill="#253858"/>
     <path stroke="null" id="svg_4" d="m40.67399,20.94159l2.02921,0l0,2.11037c0.73051,-1.37986 1.86687,-2.43505 4.22075,-2.27271l0,2.02921c-2.59738,-0.32467 -4.22075,0.48701 -4.22075,3.00322l0,7.06164l-2.02921,0l0,-11.93173z" fill="#253858"/>
     <path stroke="null" id="svg_5" d="m56.58296,30.68178c-0.73051,1.5422 -2.19154,2.35388 -4.05841,2.35388c-3.16556,0 -4.78893,-2.67855 -4.78893,-6.16879c0,-3.3279 1.70453,-6.16879 5.03243,-6.16879c1.70453,0 3.08439,0.81168 3.81491,2.35388l0,-2.11037l2.02921,0l0,11.93173l-2.02921,0l0,-2.19154zm-3.49023,0.48701c1.86687,0 3.49023,-1.13636 3.49023,-3.81491l0,-0.97402c0,-2.67855 -1.5422,-3.81491 -3.24673,-3.81491c-2.35388,0 -3.49023,1.5422 -3.49023,4.30192c-0.08117,2.84089 1.05519,4.30192 3.24673,4.30192l0,0z" fill="#253858"/>
     <path stroke="null" id="svg_6" d="m70.70623,33.11682c-3.00322,0 -4.46425,-0.56818 -5.68178,-1.21752l0,-2.19154c1.46103,0.73051 3.73374,1.29869 5.76294,1.29869c2.35388,0 3.24673,-0.89285 3.24673,-2.35388c0,-1.37986 -0.89285,-2.11037 -3.81491,-2.84089c-3.49023,-0.89285 -5.1136,-2.11037 -5.1136,-4.62659c0,-2.43505 1.86687,-4.22075 5.51944,-4.22075c2.27271,0 3.73374,0.56818 4.78893,1.13636l0,2.11037c-1.46103,-0.81168 -3.16556,-1.21752 -4.87009,-1.21752c-2.02921,0 -3.24673,0.73051 -3.24673,2.11037c0,1.29869 0.97402,1.94804 3.73374,2.59738c3.3279,0.81168 5.19477,1.86687 5.19477,4.70776c0,2.84089 -1.62336,4.70776 -5.51944,4.70776z" fill="#253858"/>
     <path stroke="null" id="svg_7" d="m78.09254,26.86687c0,-3.5714 2.11037,-6.16879 5.68178,-6.16879s5.60061,2.59738 5.60061,6.16879s-2.11037,6.24995 -5.60061,6.24995s-5.68178,-2.67855 -5.68178,-6.24995zm1.94804,0c0,2.27271 1.13636,4.30192 3.65257,4.30192c2.51622,0 3.65257,-2.02921 3.65257,-4.30192s-1.13636,-4.22075 -3.65257,-4.22075s-3.5714,1.94804 -3.65257,4.22075l0,0z" fill="#253858"/>
     <path stroke="null" id="svg_8" d="m94.56969,20.94159l3.08439,0l0,1.86687l-3.08439,0l0,10.06486l-2.02921,0l0,-10.06486l-1.94804,0l0,-1.86687l1.94804,0l0,-1.29869c0,-2.19154 1.21752,-3.73374 3.81491,-3.73374c0.48701,0 0.89285,0.08117 1.37986,0.16234l0,1.86687c-0.40584,-0.08117 -0.89285,-0.08117 -1.29869,-0.08117c-1.29869,0 -1.86687,0.73051 -1.86687,1.7857l0,1.29869z" fill="#253858"/>
     <path stroke="null" id="svg_9" d="m104.63455,30.84411c0.40584,0 0.89285,-0.08117 1.29869,-0.16234l0,1.94804c-0.48701,0.16234 -0.89285,0.16234 -1.37986,0.16234c-2.51622,0 -3.81491,-1.5422 -3.81491,-3.73374l0,-6.33112l-1.94804,0l0,-1.7857l1.94804,0l0,-2.51622l2.02921,0l0,2.51622l3.16556,0l0,1.86687l-3.16556,0l0,6.24995c0,1.05519 0.56818,1.7857 1.86687,1.7857z" fill="#253858"/>
     <path stroke="null" id="svg_10" d="m106.50142,20.94159l2.27271,0l3.40907,10.14603l3.49023,-10.14603l1.94804,0l3.49023,10.14603l3.40907,-10.14603l2.27271,0l-4.38308,11.93173l-2.59738,0l-2.02921,-5.76294l-1.05519,-3.65257l-1.05519,3.65257l-2.11037,5.76294l-2.67855,0l-4.38308,-11.93173z" fill="#253858"/>
     <path stroke="null" id="svg_11" d="m136.20899,30.68178c-0.73051,1.5422 -2.19154,2.35388 -4.05841,2.35388c-3.16556,0 -4.78893,-2.67855 -4.78893,-6.16879c0,-3.3279 1.70453,-6.16879 5.03243,-6.16879c1.70453,0 3.08439,0.81168 3.81491,2.35388l0,-2.11037l2.02921,0l0,11.93173l-2.02921,0l0,-2.19154zm-3.49023,0.48701c1.86687,0 3.49023,-1.13636 3.49023,-3.81491l0,-0.97402c0,-2.67855 -1.5422,-3.81491 -3.24673,-3.81491c-2.27271,0 -3.49023,1.5422 -3.49023,4.30192c0,2.84089 1.13636,4.30192 3.24673,4.30192l0,0z" fill="#253858"/>
     <path stroke="null" id="svg_12" d="m141.32259,20.94159l2.02921,0l0,2.11037c0.73051,-1.37986 1.86687,-2.43505 4.22075,-2.27271l0,2.02921c-2.59738,-0.2435 -4.22075,0.48701 -4.22075,3.08439l0,7.06164l-2.02921,0l0,-12.0129z" fill="#253858"/>
     <path stroke="null" id="svg_13" d="m154.79652,33.11682c-4.46425,0 -6.41229,-2.59738 -6.41229,-6.24995c0,-3.5714 2.02921,-6.16879 5.60061,-6.16879c3.65257,0 5.1136,2.51622 5.1136,6.16879l0,0.89285l-8.685,0c0.32467,2.02921 1.62336,3.3279 4.38308,3.3279c1.21752,0 2.43505,-0.2435 3.65257,-0.64935l0,1.86687c-0.89285,0.56818 -2.43505,0.81168 -3.65257,0.81168zm-4.38308,-7.06164l6.65579,0c-0.08117,-2.19154 -1.13636,-3.49023 -3.16556,-3.49023c-2.11037,0 -3.24673,1.37986 -3.49023,3.49023l0,0z" fill="#253858"/>
     <path stroke="null" id="svg_14" d="m20.54427,24.43182l-8.84734,-8.84734l-0.89285,-0.89285l0,0l-6.65579,6.65579l0,0l-3.00322,3.00322c-0.32467,0.32467 -0.32467,0.81168 0,1.13636l6.08762,6.08762l3.65257,3.65257l6.65579,-6.65579l0.08117,-0.08117l2.92206,-2.92206c0.32467,-0.32467 0.32467,-0.81168 0,-1.13636zm-9.74019,3.5714l-3.00322,-3.00322l3.00322,-3.00322l3.00322,3.00322l-3.00322,3.00322z" fill="#2684FF"/>
     <linearGradient stroke="null" transform="translate(0,2.008822441101074) translate(-0.08281707763671875,0) translate(-21.515625,-19.6171875) translate(0.984375,12.682812690734863) scale(0.8116822838783264) translate(-0.984375,-12.682812690734863) " y2="0.81717" x2="0.286" y1="0.40248" x1="0.92323" id="SVGID_1_">
      <stop stroke="null" stop-color="#0052CC" offset="0.18"/>
      <stop stroke="null" stop-color="#2684FF" offset="1"/>
     </linearGradient>
     <path stroke="null" id="svg_15" d="m10.80408,21.99678c-1.94804,-2.02921 -2.02921,-5.19477 0,-7.22397l-6.65579,6.65579l3.65257,3.5714l3.00322,-3.00322z" fill="url(#SVGID_1_)"/>
     <linearGradient stroke="null" transform="translate(0,2.008822441101074) translate(-0.08281707763671875,0) translate(-21.515625,-19.6171875) translate(0.984375,12.682812690734863) scale(0.8116822838783264) translate(-0.984375,-12.682812690734863) " y2="0.17862" x2="0.72811" y1="0.58927" x1="0.09211" id="SVGID_2_">
      <stop stroke="null" stop-color="#0052CC" offset="0.18"/>
      <stop stroke="null" stop-color="#2684FF" offset="1"/>
     </linearGradient>
     <path stroke="null" id="svg_16" d="m13.88847,25l-3.08439,3.08439c2.02921,2.02921 2.02921,5.19477 0,7.22397c0,0 0,0 0,0l0,0l6.65579,-6.65579l-3.5714,-3.65257z" fill="url(#SVGID_2_)"/>
    </g>
   </g>
  </g>
 </g>
</svg>