<svg width="160" height="50" xmlns="http://www.w3.org/2000/svg" xmlns:svg="http://www.w3.org/2000/svg">
 <g>
  <title>Layer 1</title>
  <g stroke="null" id="svg_1">
   <linearGradient stroke="null" transform="translate(0,5.133249282836914) translate(-0.11392474174499512,0) translate(-19.577638626098633,-20.467531204223633) translate(0.38460803031921387,1.5324687957763672) scale(0.797142744064331) translate(-0.38460803031921387,-1.5324687957763672) " y2="-0.00026" x2="0.50008" y1="1.00027" x1="0.50008" id="SVGID_1_">
    <stop stroke="null" stop-color="#FFE01E" offset="0"/>
    <stop stroke="null" stop-color="#CADD32" offset="0.1373"/>
    <stop stroke="null" stop-color="#8FD848" offset="0.3103"/>
    <stop stroke="null" stop-color="#5ED55B" offset="0.4774"/>
    <stop stroke="null" stop-color="#37D269" offset="0.634"/>
    <stop stroke="null" stop-color="#1CD073" offset="0.7779"/>
    <stop stroke="null" stop-color="#0BCF7A" offset="0.9044"/>
    <stop stroke="null" stop-color="#05CE7C" offset="1"/>
   </linearGradient>
   <path stroke="null" id="svg_2" d="m1.41678,23.24629l24.39257,-16.10228c0.95657,-0.63771 2.47114,-0.63771 3.42771,0l24.39257,16.182c1.43486,0.95657 1.43486,2.55086 0,3.50743l-3.26829,2.15229c-4.78286,-7.57286 -13.23257,-12.59486 -22.878,-12.59486c-9.64543,0 -18.01543,5.022 -22.878,12.59486l-3.26829,-2.15229c-1.43486,-1.03629 -1.43486,-2.63057 0.07971,-3.58714zm26.06657,-0.15943c-7.254,0 -13.63114,3.82629 -17.21828,9.56571l5.58,3.74657c2.39143,-3.906 6.61628,-6.53657 11.55857,-6.53657c4.86257,0 9.16714,2.63057 11.55857,6.53657l5.58,-3.74657c-3.42771,-5.73943 -9.80486,-9.56571 -17.05885,-9.56571zm0,13.47171c-2.55086,0 -4.78286,1.43486 -5.97857,3.50743l3.74657,2.47114c0.63771,0.47829 1.35514,0.79714 2.15229,0.79714c0.87686,0 1.59429,-0.31886 2.15229,-0.79714l3.74657,-2.47114c-0.95657,-1.99286 -3.26829,-3.50743 -5.81914,-3.50743z" fill="url(#SVGID_1_)"/>
   <path stroke="null" id="svg_3" d="m69.81163,24.92029l6.138,8.76857l-4.30457,0l-4.62343,-6.77571c0,2.232 0,4.54371 0,6.77571l-3.50743,0l0,-17.37771l3.50743,0c0,2.31171 0,4.62343 0,6.93514l4.38429,-6.93514l4.06543,0l-5.65971,8.60914zm12.19628,-8.60914l-3.50743,0l0,17.45743l8.928,0l0,-3.50743l-5.50028,0l0.07971,-13.95l0,0zm15.78343,-0.558l7.33371,18.01543l-3.906,0l-0.71743,-1.91314l-5.73943,0l-0.71743,1.91314l-3.98571,0l7.33371,-18.01543c-0.07971,0 0.39857,0 0.39857,0zm1.43486,12.834l-1.59429,-4.464l-1.59429,4.464l3.18857,0zm10.76143,-2.55086l-3.58714,-9.64543l-3.906,0l7.33371,18.01543l0.31886,0l7.33371,-18.01543l-3.98571,0l-3.50743,9.64543zm10.12371,7.73228l3.50743,0l0,-17.45743l-3.50743,0l0,17.45743zm17.37771,-17.45743l-3.50743,5.97857l-3.50743,-5.97857l-4.22486,0l6.05828,9.56571l0,7.89171l3.42771,0l0,-7.812l6.05828,-9.56571l-4.30457,0l0,-0.07971zm22.24028,8.44971c0,4.94229 -4.06543,9.00771 -9.00771,9.00771s-9.00771,-4.06543 -9.00771,-9.00771s4.06543,-9.00771 9.00771,-9.00771s9.00771,3.98571 9.00771,9.00771zm-3.348,0c0,-3.10886 -2.47114,-5.58 -5.58,-5.58c-3.10886,0 -5.58,2.47114 -5.58,5.58s2.47114,5.58 5.58,5.58c3.02914,0 5.58,-2.55086 5.58,-5.58z" fill="#222720"/>
  </g>
 </g>
</svg>