<?xml version="1.0" encoding="utf-8"?>
<!-- Generator: Adobe Illustrator 23.1.1, SVG Export Plug-In . SVG Version: 6.00 Build 0)  -->
<svg version="1.1" id="Layer_1" xmlns="http://www.w3.org/2000/svg" xmlns:xlink="http://www.w3.org/1999/xlink" x="0px" y="0px"
	 viewBox="0 0 240 90" enable-background="new 0 0 240 90" xml:space="preserve">
<g xmlns="http://www.w3.org/2000/svg">
	<path id="Fill-1" fill-rule="evenodd" clip-rule="evenodd" fill="#0A0B09" d="M62.9,32.5c0-0.8,0.4-1.3,1.3-1.3h1.2   c0.8,0,1.3,0.4,1.3,1.3v10.1h4.1L77,32.1c0.3-0.6,0.9-0.9,1.5-0.8h1.4c1,0,1.4,0.7,0.9,1.5l-7,11.3v0.1l7.5,12.6   c0.5,0.8,0.2,1.5-0.8,1.5h-1.6c-0.6,0-1.2-0.3-1.5-0.9l-6.7-11.5h-4.1V57c0,0.8-0.4,1.3-1.3,1.3h-1.2c-0.8,0-1.3-0.4-1.3-1.3   L62.9,32.5"/>
	<path id="Fill-2" fill-rule="evenodd" clip-rule="evenodd" fill="#0A0B09" d="M84.6,40.2c0-0.8,0.4-1.3,1.3-1.3H87   c0.8,0,1.2,0.4,1.2,1.3v10.3c0,2.7,0.6,4.8,3.6,4.8c4,0,6.3-3.5,6.3-7.3v-7.8c0-0.8,0.4-1.3,1.3-1.3h1.2c0.4-0.1,0.7,0.1,1,0.3   c0.3,0.2,0.4,0.6,0.3,1V57c0,0.3-0.1,0.7-0.3,0.9c-0.2,0.2-0.6,0.4-0.9,0.3h-1.1c-0.8,0-1.3-0.4-1.3-1.3v-1.7c0-0.4,0-0.7,0.1-1.1   h-0.1c-1.3,2.8-4.1,4.5-7.2,4.6c-4.4,0-6.6-2.3-6.6-7.4V40.2"/>
	<path id="Fill-3" fill-rule="evenodd" clip-rule="evenodd" fill="#0A0B09" d="M106.3,54.9l0.4-0.5c0.5-0.7,1-0.7,1.8-0.3   c1.4,1,3,1.5,4.8,1.6c1.9,0,3.3-0.9,3.3-2.6c0-3.8-10-2.5-10-9.1c0-3.7,3.2-5.6,7-5.6c1.9,0,3.8,0.5,5.4,1.5c0.7,0.3,0.8,1,0.4,1.7   l-0.3,0.6c-0.4,0.7-1,0.8-1.7,0.4c-1.2-0.7-2.6-1.1-3.9-1.1c-1.8,0-3.3,0.8-3.3,2.4c0,3.9,10,2.5,10,9.1c0,3.3-2.8,5.7-7,5.7   c-2.3,0-4.6-0.7-6.5-2.1C105.9,56.2,105.9,55.6,106.3,54.9"/>
	<path id="Fill-4" fill-rule="evenodd" clip-rule="evenodd" fill="#0A0B09" d="M125.1,42.1h-1.3c-0.3,0-0.7-0.1-0.9-0.3   c-0.2-0.2-0.3-0.6-0.3-0.9v-0.5c0-0.3,0.1-0.7,0.3-0.9c0.2-0.2,0.6-0.4,0.9-0.3h1.4v-4.2c0-0.3,0.1-0.7,0.3-0.9   c0.2-0.2,0.6-0.4,0.9-0.3h1.1c0.8,0,1.3,0.4,1.3,1.3v4.2h3.4c0.3,0,0.7,0.1,0.9,0.3c0.2,0.2,0.4,0.6,0.3,0.9v0.5   c0,0.3-0.1,0.7-0.3,0.9c-0.2,0.2-0.6,0.4-0.9,0.3h-3.4v8.6c0,3.7,2.3,4.2,3.7,4.4c1,0.1,1.3,0.4,1.3,1.3v0.8c0,0.9-0.5,1.3-1.5,1.3   c-3.8,0-7.2-2.2-7.2-7.1L125.1,42.1"/>
	<path id="Fill-5" fill-rule="evenodd" clip-rule="evenodd" fill="#0A0B09" d="M146.2,55.5c3.7,0,6.7-2.9,6.7-7s-3-6.9-6.7-6.9   s-6.7,2.9-6.7,6.9S142.6,55.5,146.2,55.5z M146.2,38.5c5.8,0,10.5,4.2,10.5,10.1s-4.7,10.2-10.5,10.2c-5.8,0-10.4-4.3-10.4-10.2   S140.5,38.5,146.2,38.5L146.2,38.5z"/>
	<path id="Fill-6" fill-rule="evenodd" clip-rule="evenodd" fill="#0A0B09" d="M160.8,40.2c0-0.3,0.1-0.7,0.3-0.9   c0.2-0.2,0.6-0.4,0.9-0.3h1.1c0.8,0,1.3,0.4,1.3,1.3v1.7c0,0.4,0,0.7-0.1,1.1h0.1c1-2.3,3.7-4.6,6.7-4.6c3.3,0,5.1,1.5,5.8,4.4h0.1   c1.3-2.6,3.9-4.3,6.9-4.4c4.4,0,6.4,2.5,6.4,7.4V57c0,0.8-0.4,1.3-1.3,1.3h-1.2c-0.3,0-0.7-0.1-0.9-0.3c-0.2-0.2-0.4-0.6-0.3-0.9   V46.7c0-2.7-0.5-4.9-3.4-4.9c-3.6,0-5.8,3.7-5.8,7.4V57c0,0.8-0.4,1.3-1.2,1.3H175c-0.8,0-1.2-0.4-1.2-1.3V46.7   c0-2.5-0.4-4.9-3.4-4.9c-3.7,0-5.8,3.8-5.8,7.4V57c0,0.8-0.4,1.3-1.3,1.3h-1.2c-0.3,0-0.7-0.1-0.9-0.3c-0.2-0.2-0.4-0.6-0.3-0.9   L160.8,40.2"/>
	<path id="Fill-7" fill-rule="evenodd" clip-rule="evenodd" fill="#0A0B09" d="M208.5,46.5c-0.1-3.4-2.1-5.1-4.7-5.1   c-2.8,0-5.1,1.9-5.7,5.2L208.5,46.5z M203.9,38.5c5.4,0,8.4,3.8,8.4,9.2c0,0.3-0.1,0.7-0.4,0.9c-0.2,0.2-0.6,0.4-0.9,0.4h-13   c0.2,4.2,3.3,6.5,6.7,6.5c1.7,0,3.3-0.5,4.6-1.5c0.7-0.4,1.3-0.3,1.7,0.4l0.3,0.6c0.2,0.3,0.3,0.6,0.2,0.9   c-0.1,0.3-0.3,0.6-0.6,0.7c-1.9,1.3-4.2,2.1-6.6,2.1c-6.1,0-10.3-4.4-10.3-10.1C194.2,42.4,198.3,38.5,203.9,38.5L203.9,38.5z"/>
	<defs>
		<filter id="Adobe_OpacityMaskFilter" filterUnits="userSpaceOnUse" x="216.2" y="38.8" width="10.8" height="19.5">
			<feColorMatrix type="matrix" values="1 0 0 0 0  0 1 0 0 0  0 0 1 0 0  0 0 0 1 0"/>
		</filter>
	</defs>
	<mask maskUnits="userSpaceOnUse" x="216.2" y="38.8" width="10.8" height="19.5" id="mask-2_8_">
		<g filter="url(#Adobe_OpacityMaskFilter)">
			<polygon id="path-1_8_" fill-rule="evenodd" clip-rule="evenodd" fill="#FFFFFF" points="13,26.7 227,26.7 227,63.3 13,63.3         "/>
		</g>
	</mask>
	<path id="Fill-8" mask="url(#mask-2_8_)" fill-rule="evenodd" clip-rule="evenodd" fill="#0A0B09" d="M216.3,40.2   c0-0.3,0.1-0.7,0.3-0.9c0.2-0.2,0.6-0.4,0.9-0.3h1.1c0.8,0,1.3,0.4,1.3,1.3v2.2c0,0.5,0,1-0.1,1.5h0.1c0.8-2.6,3-5.1,5.9-5.1   c0.9,0,1.2,0.4,1.2,1.3v1.1c0,0.8-0.5,1.3-1.4,1.3c-3.8,0-5.6,4.1-5.6,7.9V57c0,0.8-0.4,1.3-1.3,1.3h-1.2c-0.3,0-0.7-0.1-0.9-0.3   c-0.2-0.2-0.4-0.6-0.3-0.9L216.3,40.2"/>
	<defs>
		<filter id="Adobe_OpacityMaskFilter_1_" filterUnits="userSpaceOnUse" x="13" y="26.7" width="37" height="36.7">
			<feColorMatrix type="matrix" values="1 0 0 0 0  0 1 0 0 0  0 0 1 0 0  0 0 0 1 0"/>
		</filter>
	</defs>
	<mask maskUnits="userSpaceOnUse" x="13" y="26.7" width="37" height="36.7" id="mask-2_7_">
		<g filter="url(#Adobe_OpacityMaskFilter_1_)">
			<polygon id="path-1_7_" fill-rule="evenodd" clip-rule="evenodd" fill="#FFFFFF" points="13,26.7 227,26.7 227,63.3 13,63.3         "/>
		</g>
	</mask>
	<path id="Fill-10" mask="url(#mask-2_7_)" fill-rule="evenodd" clip-rule="evenodd" fill="#FFFFFE" d="M38.6,63.3   c6.3,0,11.4-5,11.4-11.3V38c0-6.3-5.1-11.3-11.4-11.3H24.4c-6.3,0-11.4,5-11.4,11.3v14c0,6.3,5.1,11.3,11.4,11.3H38.6"/>
	<defs>
		<filter id="Adobe_OpacityMaskFilter_2_" filterUnits="userSpaceOnUse" x="24" y="35.5" width="15" height="20">
			<feColorMatrix type="matrix" values="1 0 0 0 0  0 1 0 0 0  0 0 1 0 0  0 0 0 1 0"/>
		</filter>
	</defs>
	<mask maskUnits="userSpaceOnUse" x="24" y="35.5" width="15" height="20" id="mask-2_6_">
		<g filter="url(#Adobe_OpacityMaskFilter_2_)">
			<polygon id="path-1_6_" fill-rule="evenodd" clip-rule="evenodd" fill="#FFFFFF" points="13,26.7 227,26.7 227,63.3 13,63.3         "/>
		</g>
	</mask>
	<path id="Fill-11" mask="url(#mask-2_6_)" fill-rule="evenodd" clip-rule="evenodd" fill="#0A0B09" d="M33.5,39.9V45   c0,0.3,0.1,0.5,0.3,0.7c0.2,0.2,0.5,0.3,0.7,0.3H38c0.3,0,0.5-0.1,0.7-0.3c0.2-0.2,0.3-0.5,0.3-0.7v-3.4c0-0.3-0.1-0.5-0.3-0.7   c-0.2-0.2-0.5-0.3-0.7-0.3h-2.4v-0.7c0-1.3,1.1-2.4,2.4-2.3c0.6,0,1-0.5,1-1c0-0.6-0.5-1-1-1c-1.2,0-2.3,0.5-3.2,1.3   C34,37.6,33.5,38.7,33.5,39.9L33.5,39.9z M24,39.9V45c0,0.3,0.1,0.5,0.3,0.7c0.2,0.2,0.5,0.3,0.7,0.3h3.4c0.3,0,0.5-0.1,0.7-0.3   c0.2-0.2,0.3-0.5,0.3-0.7v-3.4c0-0.3-0.1-0.5-0.3-0.7c-0.2-0.2-0.5-0.3-0.7-0.3h-2.4v-0.7c0-1.3,1.1-2.3,2.4-2.3c0.6,0,1-0.5,1-1   c0-0.6-0.5-1-1-1c-1.2,0-2.3,0.5-3.2,1.3C24.5,37.6,24,38.7,24,39.9L24,39.9z M25.2,50.8c-0.2,0-0.3,0.1-0.4,0.3   c-0.1,0.2-0.1,0.3,0,0.5c0.1,0.2,2.3,3.9,6.7,3.9s6.6-3.7,6.7-3.9c0.1-0.2,0.1-0.3,0-0.5c-0.1-0.2-0.3-0.2-0.4-0.2H25.2L25.2,50.8z   "/>
	<defs>
		<filter id="Adobe_OpacityMaskFilter_3_" filterUnits="userSpaceOnUse" x="13" y="26.7" width="37" height="36.7">
			<feColorMatrix type="matrix" values="1 0 0 0 0  0 1 0 0 0  0 0 1 0 0  0 0 0 1 0"/>
		</filter>
	</defs>
	<mask maskUnits="userSpaceOnUse" x="13" y="26.7" width="37" height="36.7" id="mask-2_5_">
		<g filter="url(#Adobe_OpacityMaskFilter_3_)">
			<polygon id="path-1_5_" fill-rule="evenodd" clip-rule="evenodd" fill="#FFFFFF" points="13,26.7 227,26.7 227,63.3 13,63.3         "/>
		</g>
	</mask>
	<path id="Fill-12" mask="url(#mask-2_5_)" fill-rule="evenodd" clip-rule="evenodd" fill="#FF5551" d="M24.4,26.7   c-6.3,0-11.4,5-11.4,11.3v14c0,6.3,5.1,11.3,11.4,11.3H34l-6.3-4.5h-3.3c-3.8,0-6.8-3-6.9-6.8V38c0-3.8,3.1-6.8,6.9-6.8h14.2   c3.8,0,6.8,3,6.9,6.8v14c0,3.8-3.1,6.8-6.9,6.8h-2.7v4.5h2.7c6.3,0,11.4-5,11.4-11.3V38c0-6.3-5.1-11.3-11.4-11.3H24.4"/>
</g>
</svg>
