<svg width="160" height="50" xmlns="http://www.w3.org/2000/svg" xmlns:svg="http://www.w3.org/2000/svg">
 <defs>
  <style>.cls-1{fill:#c3c6cc;}.cls-2{fill:#e1e3e6;}.cls-3{fill:#262933;}</style>
 </defs>
 <g class="layer">
  <title>Layer 1</title>
  <g id="Guidelines">
   <path class="cls-1" d="m45.16585,45.23655l-8.53162,-8.52277a1.44259,1.44259 0 0 0 -2.01785,0l-8.51392,8.52277a1.38064,1.38064 0 0 0 1.00008,2.38071l17.05439,0a1.38949,1.38949 0 0 0 1.42489,-1.38064a1.40719,1.40719 0 0 0 -0.41596,-1.00008z" id="svg_1"/>
   <path class="cls-2" d="m45.48445,14.6413l-2.65507,-7.92096a2.90288,2.90288 0 0 0 -0.56641,-0.97353l-41.58723,41.54298a1.24788,1.24788 0 0 0 0.88502,0.32746l11.79736,0a2.50461,2.50461 0 0 0 1.77005,-0.72572l29.75447,-29.74562a2.37186,2.37186 0 0 0 0.60182,-2.50461z" fill="black" id="svg_2"/>
   <path class="cls-1" d="m41.24519,5.18041l-7.92096,-2.65507a2.37186,2.37186 0 0 0 -2.50461,0.56641l-29.74562,29.73677a2.50461,2.50461 0 0 0 -0.72572,1.77005l0,11.80621a1.24788,1.24788 0 0 0 0.32746,0.88502l41.54298,-41.54298a2.90288,2.90288 0 0 0 -0.97353,-0.56641z" fill="black" id="svg_3"/>
   <path class="cls-3" d="m154.85559,24.35885a2.36301,2.36301 0 0 1 -0.30976,1.31868a1.9382,1.9382 0 0 1 -0.83192,0.69917a3.18608,3.18608 0 0 1 -1.17708,0.28321c-0.43366,0 -0.88502,0.0531 -1.31868,0.0531l-1.53109,0l0,-4.67292l1.69039,0a11.28404,11.28404 0 0 1 1.22133,0.06195a3.62859,3.62859 0 0 1 1.13283,0.29206a2.0267,2.0267 0 0 1 0.81422,0.70802a2.23026,2.23026 0 0 1 0.30976,1.25673zm0.56641,11.94781l4.23041,0l-2.31876,-3.41619c-0.39826,-0.58412 -0.79652,-1.15053 -1.20363,-1.69924l-1.02663,-1.34523a2.75242,2.75242 0 0 0 -0.75227,-0.81422a4.82338,4.82338 0 0 0 2.41611,-8.49622a4.78797,4.78797 0 0 0 -1.9913,-0.92927a12.95674,12.95674 0 0 0 -2.86747,-0.26551l-5.69955,0l0,16.96589l3.47814,0l0,-7.08018a1.70809,1.70809 0 0 1 0.97353,0.24781a4.00915,4.00915 0 0 1 0.69032,0.59297c0.30091,0.38056 0.59297,0.76997 0.88502,1.17708s0.88502,1.28328 1.52224,2.30991l1.66384,2.75242zm-29.47126,0l10.90348,0l0,-2.94713l-7.36339,0l0,-4.51362l5.51369,0l0,-2.79667l-5.54024,0l0,-3.92065l6.63767,0l0.50446,-2.78782l-10.62028,0l-0.0354,16.96589zm-13.68246,0l6.61112,-16.96589l-3.664,0l-3.35424,8.85023a11.6646,11.6646 0 0 0 -0.41596,1.22133c-0.1416,0.46021 -0.25666,0.88502 -0.36286,1.30098s-0.18585,0.74342 -0.25666,1.01778l-0.0885,0.40711l-0.1239,-0.40711c-0.06195,-0.29206 -0.15045,-0.64607 -0.25666,-1.05318s-0.22126,-0.88502 -0.35401,-1.30098s-0.26551,-0.88502 -0.39826,-1.22133l-3.05333,-8.81483l-3.88525,0l6.48722,16.96589l3.11528,0zm-27.55076,0l10.90348,0l0,-2.94713l-7.36339,0l0,-4.51362l5.51369,0l0,-2.79667l-5.54909,0l0,-3.92065l6.64652,0l0.49561,-2.78782l-10.62028,0l-0.02655,16.96589zm-9.5494,0l0.65492,-2.88517l-6.89433,0l0,-14.08072l-3.54009,0l0,16.96589l9.7795,0z" fill="black" id="svg_4"/>
  </g>
 </g>
</svg>