<?xml version="1.0" encoding="utf-8"?>
<!-- Generator: Adobe Illustrator 23.0.4, SVG Export Plug-In . SVG Version: 6.00 Build 0)  -->
<svg version="1.1" xmlns="http://www.w3.org/2000/svg" xmlns:xlink="http://www.w3.org/1999/xlink" x="0px" y="0px"
	 viewBox="0 0 240 90" enable-background="new 0 0 240 90" xml:space="preserve">
<g id="Export">
	<g>
		<g id="layer1" transform="translate(-200.55198,-393.96227)">
			<g id="g3019" transform="matrix(1.018827,0,0,-1.018827,170.5996,498.03288)">
				<path id="path14" fill="#0073B0" d="M149.6,74.6c0,1.6,1.3,2.8,2.9,2.8h33.2c1.6,0,2.9-1.3,2.9-2.8V40.9c0-1.6-1.3-2.8-2.9-2.8
					h-33.2c-1.6,0-2.9,1.3-2.9,2.8V74.6z"/>
				<path id="path16" fill-rule="evenodd" clip-rule="evenodd" fill="#0073B0" d="M40.4,44.5h16.3v5.3H46.3v20.4h-5.9
					C40.4,70.2,40.4,44.5,40.4,44.5z"/>
				<path id="path18" fill-rule="evenodd" clip-rule="evenodd" fill="#0073B0" d="M64.9,44.5v17.7H59V44.5H64.9z M62,64.6
					c2.1,0,3.3,1.4,3.3,3.1c0,1.7-1.3,3.1-3.3,3.1c-2,0-3.3-1.3-3.3-3.1C58.7,66,60,64.6,62,64.6L62,64.6L62,64.6z"/>
				<path id="path20" fill-rule="evenodd" clip-rule="evenodd" fill="#0073B0" d="M67.7,44.5h5.9v9.9c0,0.5,0,1.1,0.2,1.4
					c0.4,1.1,1.4,2.2,3,2.2c2.1,0,3-1.6,3-4v-9.5h5.9v10.2c0,5.4-2.9,8-6.8,8c-3.2,0-4.6-1.8-5.3-3h0v2.6h-5.9
					C67.7,60.5,67.7,44.5,67.7,44.5L67.7,44.5z"/>
				<path id="path22" fill-rule="evenodd" clip-rule="evenodd" fill="#0073B0" d="M94,70.2h-5.9V44.5H94v5.7l1.5,1.9l4.6-7.6h7.2
					l-7.8,11l6.8,7.5h-7.1c0,0-4.8-6.7-5.3-7.5L94,70.2L94,70.2z"/>
				<path id="path24" fill-rule="evenodd" clip-rule="evenodd" fill="#0073B0" d="M123.1,51.9c0.1,0.5,0.2,1.3,0.2,2.3
					c0,4.6-2.3,9.2-8.5,9.2c-6.6,0-9.6-5.2-9.6-9.9c0-5.8,3.7-9.4,10.1-9.4c2.6,0,4.9,0.4,6.9,1.2l-0.8,3.9
					c-1.6-0.5-3.2-0.8-5.2-0.8c-2.8,0-5.2,1.1-5.3,3.5L123.1,51.9L123.1,51.9z M110.8,55.9c0.2,1.5,1.2,3.7,3.7,3.7
					c2.7,0,3.3-2.4,3.3-3.7H110.8z"/>
				<path id="path26" fill-rule="evenodd" clip-rule="evenodd" fill="#0073B0" d="M137.8,70.2v-8.9h-0.1c-0.9,1.2-2.6,2.1-5,2.1
					c-4.5,0-8.5-3.6-8.5-9.8c0-5.7,3.6-9.5,8.1-9.5c2.4,0,4.8,1.1,5.9,3.1h0.1l0.2-2.7h5.2c-0.1,1.2-0.2,3.4-0.2,5.5v20.2H137.8
					L137.8,70.2z M137.8,52.7c0-0.5,0-0.9-0.1-1.3c-0.3-1.6-1.7-2.8-3.4-2.8c-2.4,0-4,2-4,5.1c0,2.9,1.4,5.3,4.1,5.3
					c1.8,0,3.1-1.2,3.5-2.8c0.1-0.3,0.1-0.7,0.1-1.1L137.8,52.7L137.8,52.7z"/>
				<path id="path28" fill-rule="evenodd" clip-rule="evenodd" fill="#FFFFFF" d="M161.4,44.5v17.7h-5.9V44.5H161.4z M158.5,64.6
					c2.1,0,3.3,1.4,3.3,3.1c0,1.7-1.3,3.1-3.3,3.1c-2,0-3.3-1.3-3.3-3.1C155.2,66,156.5,64.6,158.5,64.6L158.5,64.6L158.5,64.6z"/>
				<path id="path30" fill-rule="evenodd" clip-rule="evenodd" fill="#FFFFFF" d="M164.7,44.5h5.9v9.9c0,0.5,0,1.1,0.2,1.4
					c0.4,1.1,1.4,2.2,3,2.2c2.1,0,3-1.6,3-4v-9.5h5.9v10.2c0,5.4-2.9,8-6.8,8c-3.2,0-4.6-1.8-5.3-3h0v2.6h-5.9
					C164.8,60.6,164.7,44.5,164.7,44.5L164.7,44.5z"/>
			</g>
		</g>
		<g>
			<path fill="#999999" d="M181.2,33.2h3.7l8.8,24.4h-3.6l-2.5-7.3H178l-2.6,7.3H172L181.2,33.2z M186.7,47.6l-3.8-10.8L179,47.6
				H186.7z"/>
			<path fill="#999999" d="M206.1,40.4c0.5,0.3,1.1,0.9,1.8,1.7v-9h2.9v24.5h-2.7v-2.5c-0.7,1.1-1.5,1.9-2.5,2.4
				c-0.9,0.5-2,0.7-3.3,0.7c-2,0-3.7-0.8-5.1-2.5c-1.4-1.7-2.2-3.9-2.2-6.6c0-2.6,0.7-4.8,2-6.7c1.3-1.9,3.2-2.8,5.6-2.8
				C204.1,39.5,205.2,39.8,206.1,40.4z M199.4,53.7c0.8,1.3,2.1,1.9,3.9,1.9c1.4,0,2.5-0.6,3.4-1.8c0.9-1.2,1.3-2.9,1.3-5.1
				c0-2.2-0.5-3.9-1.4-5c-0.9-1.1-2-1.6-3.4-1.6c-1.5,0-2.7,0.6-3.6,1.7c-0.9,1.2-1.4,2.8-1.4,5.1C198.2,50.8,198.6,52.4,199.4,53.7
				z"/>
			<path fill="#999999" d="M217,52c0.1,1,0.3,1.8,0.8,2.3c0.8,1,2.1,1.4,4,1.4c1.1,0,2.1-0.2,3-0.7c0.9-0.5,1.3-1.2,1.3-2.2
				c0-0.8-0.3-1.3-1-1.7c-0.4-0.2-1.3-0.5-2.6-0.8l-2.4-0.6c-1.5-0.4-2.7-0.8-3.4-1.3c-1.3-0.8-2-1.9-2-3.4c0-1.7,0.6-3,1.8-4.1
				c1.2-1,2.9-1.6,5-1.6c2.7,0,4.7,0.8,5.9,2.4c0.8,1,1.1,2.1,1.1,3.2h-2.8c-0.1-0.7-0.3-1.3-0.7-1.8c-0.7-0.8-1.9-1.2-3.7-1.2
				c-1.2,0-2,0.2-2.6,0.6c-0.6,0.4-0.9,1-0.9,1.7c0,0.8,0.4,1.4,1.2,1.9c0.5,0.3,1.1,0.5,2,0.7l2,0.5c2.2,0.5,3.7,1,4.4,1.5
				c1.2,0.8,1.7,2,1.7,3.6c0,1.6-0.6,2.9-1.8,4.1s-3.1,1.7-5.6,1.7c-2.7,0-4.6-0.6-5.7-1.8c-1.1-1.2-1.7-2.7-1.8-4.5H217z"/>
		</g>
	</g>
</g>
<g id="Guidelines">
</g>
</svg>
