<svg width="160" height="50" xmlns="http://www.w3.org/2000/svg" xmlns:svg="http://www.w3.org/2000/svg">
 <g>
  <title>Layer 1</title>
  <g stroke="null" id="btjrhU.tif">
   <g stroke="null" id="svg_1">
    <g stroke="null" id="svg_2">
     <path stroke="null" id="svg_3" d="m15.34834,35.59863c0.0757,0.83275 0.15141,1.7412 0.0757,2.57395c-1.13557,0 -2.27114,0 -3.4067,0c-0.0757,-0.90845 0.0757,-1.7412 0.0757,-2.57395c-0.83275,-0.45423 -0.90845,-0.37852 -1.21127,0.45423c-0.22711,0.60564 -0.45423,1.21127 -0.68134,1.89261c-1.05986,-0.45423 -2.11973,-0.90845 -3.25529,-1.36268c0.37852,-0.83275 0.75705,-1.6655 1.13557,-2.42254c-0.15141,-0.30282 -0.45423,-0.37852 -0.68134,-0.52993c-0.75705,0.52993 -1.21127,1.36268 -1.96832,2.04402c-0.75705,-0.90845 -1.43839,-1.7412 -2.19543,-2.64966c0.45423,-0.45423 1.13557,-1.05986 1.81691,-1.6655c-0.15141,-0.30282 -0.30282,-0.52993 -0.45423,-0.75705c-0.83275,0.37852 -1.58979,0.75705 -2.49825,1.13557c-0.45423,-1.05986 -0.90845,-2.11973 -1.36268,-3.17959c0.60564,-0.37852 1.21127,-0.52993 1.81691,-0.68134c0.68134,-0.15141 0.98416,-0.52993 0.52993,-1.21127c-0.83275,0.0757 -1.6655,0.0757 -2.57395,0.15141c0,-1.13557 0,-2.27114 0,-3.4067c0.83275,-0.15141 1.7412,0 2.57395,0.0757c0.22711,-0.30282 0.30282,-0.60564 0.15141,-0.98416c-0.75705,-0.30282 -1.58979,-0.60564 -2.49825,-0.90845c0.45423,-1.05986 0.90845,-2.11973 1.36268,-3.25529c0.90845,0.37852 1.6655,0.75705 2.42254,1.13557c0.60564,-0.52993 0.45423,-0.98416 -0.0757,-1.36268c-0.45423,-0.37852 -0.90845,-0.68134 -1.21127,-1.13557c0.83275,-0.83275 1.58979,-1.58979 2.49825,-2.42254c0.30282,0.30282 0.75705,0.75705 1.13557,1.28698c0.45423,0.52993 0.83275,0.75705 1.36268,0.0757c-0.37852,-0.75705 -0.75705,-1.51409 -1.13557,-2.42254c1.05986,-0.45423 2.11973,-0.90845 3.17959,-1.36268c0.37852,0.52993 0.52993,1.21127 0.68134,1.81691c0.22711,0.75705 0.52993,0.90845 1.13557,0.52993c0,-0.83275 0,-1.7412 0,-2.64966c1.13557,0 2.19543,0 3.4067,0c0,0.90845 0,1.7412 -0.15141,2.57395c0.90845,0.45423 0.90845,0.45423 1.21127,-0.45423c0.22711,-0.60564 0.37852,-1.13557 0.60564,-1.81691c1.05986,0.45423 2.11973,0.90845 3.25529,1.36268c-0.37852,0.83275 -0.75705,1.6655 -1.13557,2.49825c0.52993,0.60564 0.90845,0.52993 1.36268,-0.0757c0.37852,-0.52993 0.83275,-0.90845 1.28698,-1.43839c0.83275,0.83275 1.58979,1.6655 2.42254,2.42254c-0.37852,0.52993 -0.90845,0.90845 -1.36268,1.36268c-0.60564,0.52993 -0.60564,0.52993 -0.0757,1.21127c0.90845,-0.15141 1.58979,-0.75705 2.49825,-1.05986c0.45423,1.05986 0.83275,2.11973 1.28698,3.17959c-0.90845,0.30282 -1.7412,0.60564 -2.49825,0.90845c-0.0757,0.37852 0.0757,0.60564 0.15141,0.98416c0.90845,-0.0757 1.7412,-0.15141 2.64966,-0.0757c0,1.13557 0,2.27114 0,3.4067c-0.90845,0.0757 -1.7412,-0.0757 -2.57395,-0.0757c-0.45423,0.90845 -0.45423,0.90845 0.45423,1.21127c0.60564,0.22711 1.21127,0.45423 1.81691,0.68134c-0.45423,1.05986 -0.90845,2.11973 -1.36268,3.25529c-0.83275,-0.37852 -1.58979,-0.75705 -2.34684,-1.13557c-0.75705,0.60564 -0.75705,0.68134 -0.0757,1.21127c0.45423,0.45423 0.90845,0.83275 1.36268,1.28698c-0.83275,0.83275 -1.6655,1.58979 -2.49825,2.42254c-0.37852,-0.22711 -0.75705,-0.75705 -1.13557,-1.28698c-0.45423,-0.52993 -0.83275,-0.68134 -1.36268,-0.0757c0.37852,0.75705 0.75705,1.58979 1.13557,2.42254c-1.05986,0.45423 -2.11973,0.90845 -3.17959,1.36268c-0.37852,-0.60564 -0.52993,-1.21127 -0.75705,-1.81691c-0.0757,-0.90845 -0.45423,-1.13557 -1.13557,-0.68134zm4.69368,-10.59863c0,-3.48241 -2.72536,-6.35918 -6.28348,-6.35918c-3.48241,0 -6.35918,2.72536 -6.43488,6.20777c-0.0757,3.4067 2.80107,6.35918 6.28348,6.43488c3.55811,0 6.43488,-2.80107 6.43488,-6.28348z" fill="#FE7205"/>
     <path stroke="null" id="svg_4" d="m69.17425,18.94364c2.11973,0 4.16375,0 6.28348,0c0.0757,0.68134 0.0757,1.36268 0,2.11973c-1.28698,0 -2.57395,0 -3.86093,0c0,0.90845 0,1.6655 0,2.57395c1.21127,0 2.42254,0 3.70952,0c0.15141,0.75705 0.0757,1.36268 0,2.11973c-1.21127,0 -2.42254,0 -3.78523,0c0,1.05986 0,2.04402 0,3.02818c0,0.37852 0.30282,0.30282 0.60564,0.30282c1.05986,0 2.19543,0 3.25529,0c0,0.68134 0,1.36268 0,2.04402c-2.04402,0 -4.16375,0 -6.28348,0c0.0757,-4.08804 0.0757,-8.10038 0.0757,-12.18843z" fill="#FE7205"/>
     <path stroke="null" id="svg_5" d="m159.48975,31.51059c-3.17959,-3.17959 -6.43488,-6.35918 -9.76588,-9.69018c0,3.17959 0,6.20777 0,9.23595c-0.52993,0.22711 -0.98416,0.0757 -1.51409,0.0757c0,-4.23945 0,-8.4032 0,-12.41554c3.17959,3.17959 6.35918,6.35918 9.61447,9.53877c0.0757,-0.0757 0.15141,-0.0757 0.22711,-0.15141c0,-3.02818 0,-6.05636 0,-9.00884c0.52993,-0.15141 0.90845,-0.0757 1.43839,-0.0757c0,4.08804 0,8.25179 0,12.49125z" fill="#FE7205"/>
     <path stroke="null" id="svg_6" d="m129.43505,25c0,-3.48241 2.95248,-6.35918 6.58629,-6.35918c3.63382,-0.0757 6.662,2.87677 6.662,6.35918c0,3.48241 -2.95248,6.35918 -6.58629,6.35918c-3.70952,0 -6.662,-2.80107 -6.662,-6.35918zm6.662,5.0722c2.87677,0 5.22361,-2.27114 5.22361,-5.0722c0,-2.80107 -2.42254,-5.0722 -5.22361,-5.0722c-2.87677,0 -5.22361,2.34684 -5.22361,5.0722c0,2.80107 2.34684,5.0722 5.22361,5.0722z" fill="#FE7205"/>
     <path stroke="null" id="svg_7" d="m59.25696,26.13557c0.83275,-2.04402 1.58979,-4.01234 2.34684,-5.90495c0.52993,-1.28698 0.52993,-1.28698 1.81691,-1.28698c0.37852,0 0.75705,-0.0757 1.21127,0.0757c-1.81691,4.23945 -3.55811,8.47891 -5.45073,12.86977c-1.81691,-4.39086 -3.55811,-8.63032 -5.37502,-12.94547c0.83275,0 1.58979,0 2.27114,0c0.37852,0 0.45423,0.30282 0.52993,0.52993c0.75705,2.04402 1.58979,4.08804 2.34684,6.05636c0.0757,0.15141 0.15141,0.30282 0.30282,0.60564z" fill="#FE7205"/>
     <path stroke="null" id="svg_8" d="m107.10222,25.75705c0,1.81691 0,3.55811 0,5.29932c-0.52993,0.15141 -0.98416,0.0757 -1.43839,0.0757c0,-4.01234 0,-8.10038 0,-12.18843c1.51409,0 3.02818,-0.15141 4.46657,0.30282c1.28698,0.45423 1.96832,1.43839 1.96832,2.80107c0,1.6655 -0.60564,2.72536 -1.89261,3.331c-0.37852,0.15141 -0.68134,0.22711 -1.13557,0.37852c0.68134,0.90845 1.28698,1.7412 1.89261,2.64966c0.60564,0.90845 1.28698,1.7412 1.96832,2.64966c-1.21127,0.37852 -1.58979,0.22711 -2.27114,-0.68134c-0.90845,-1.28698 -1.81691,-2.57395 -2.72536,-3.86093c-0.22711,-0.30282 -0.37852,-0.52993 -0.83275,-0.75705zm0,-5.52643c0,1.51409 0,2.87677 0,4.39086c1.21127,0 2.42254,0.0757 3.17959,-0.98416c0.52993,-0.75705 0.52993,-1.6655 0.0757,-2.42254c-0.75705,-1.21127 -2.04402,-0.98416 -3.25529,-0.98416z" fill="#FE7205"/>
     <path stroke="null" id="svg_9" d="m99.91029,23.78873c0,0.52993 0,0.83275 0,1.28698c-1.6655,0 -3.25529,0 -4.92079,0c0,1.6655 0,3.17959 0,4.76938c1.6655,0 3.331,0 5.0722,0c0.15141,0.45423 0.0757,0.83275 0.0757,1.28698c-2.19543,0 -4.31516,0 -6.58629,0c0,-4.01234 0,-8.02468 0,-12.11272c2.19543,0 4.31516,0 6.51059,0c0.0757,0.37852 0.0757,0.75705 0,1.21127c-1.6655,0 -3.331,0 -5.0722,0c0,1.21127 0,2.34684 0,3.55811c1.58979,0 3.17959,0 4.92079,0z" fill="#FE7205"/>
     <path stroke="null" id="svg_10" d="m36.77272,18.94364c0.75705,0 1.51409,0 2.27114,0c0.22711,0.22711 0.15141,0.52993 0.15141,0.75705c0,2.87677 0,5.75354 0,8.63032c0,0.60564 0.15141,0.83275 0.75705,0.75705c0.83275,-0.0757 1.7412,0 2.57395,0c0,0.75705 0,1.36268 0,2.04402c-1.89261,0 -3.78523,0 -5.75354,0c0,-4.08804 0,-8.10038 0,-12.18843z" fill="#FE7205"/>
     <path stroke="null" id="svg_11" d="m117.09522,28.17959c0.45423,-0.0757 0.90845,-0.22711 1.36268,-0.30282c0.68134,1.6655 1.51409,2.34684 2.87677,2.19543c1.13557,-0.0757 2.11973,-0.90845 2.27114,-2.11973c0.15141,-0.90845 -0.30282,-1.6655 -1.36268,-2.19543c-0.83275,-0.45423 -1.7412,-0.75705 -2.57395,-1.21127c-1.6655,-0.83275 -2.27114,-2.11973 -1.7412,-3.63382c0.52993,-1.58979 2.27114,-2.34684 3.78523,-2.19543c1.21127,0.15141 2.27114,0.68134 2.87677,1.81691c-0.30282,0.37852 -0.68134,0.45423 -1.13557,0.68134c-0.45423,-0.52993 -0.90845,-1.13557 -1.7412,-1.21127c-0.75705,-0.0757 -1.43839,0.0757 -2.04402,0.60564c-0.75705,0.68134 -0.68134,1.81691 0.15141,2.42254c0.52993,0.45423 1.13557,0.60564 1.7412,0.90845c0.52993,0.22711 0.98416,0.45423 1.51409,0.68134c1.21127,0.60564 1.96832,1.51409 1.96832,2.95248c0,1.51409 -0.75705,2.57395 -2.04402,3.331c-2.42254,1.28698 -5.29932,0 -5.90495,-2.72536z" fill="#FE7205"/>
     <path stroke="null" id="svg_12" d="m83.17959,31.05636c-0.52993,0.0757 -0.90845,0.0757 -1.36268,0c0,-4.01234 0,-8.02468 0,-12.18843c1.36268,0.0757 2.80107,-0.15141 4.16375,0.15141c1.58979,0.37852 2.57395,1.7412 2.57395,3.331c0,1.6655 -1.13557,2.95248 -2.72536,3.25529c-0.83275,0.15141 -1.6655,0.15141 -2.49825,0.22711c-0.15141,1.81691 -0.15141,3.48241 -0.15141,5.22361zm0,-6.662c1.6655,0.30282 3.10389,-0.0757 3.55811,-0.98416c0.37852,-0.75705 0.45423,-1.6655 -0.0757,-2.34684c-0.90845,-1.13557 -2.19543,-0.83275 -3.48241,-0.83275c0,1.43839 0,2.80107 0,4.16375z" fill="#FE7205"/>
     <path stroke="null" id="svg_13" d="m47.06853,18.94364c0.83275,0 1.58979,0 2.34684,0c0,4.08804 0,8.10038 0,12.11272c-0.75705,0 -1.51409,0 -2.34684,0c0,-4.01234 0,-8.02468 0,-12.11272z" fill="#FE7205"/>
    </g>
   </g>
  </g>
 </g>
</svg>