<svg width="160" height="50" xmlns="http://www.w3.org/2000/svg" xmlns:svg="http://www.w3.org/2000/svg">
 <defs>
  <style>.cls-1{fill:#6e7277;}.cls-2{fill:#6e7177;}.cls-3{fill:#707479;}.cls-4{fill:#6e7278;}.cls-5{fill:#5991f9;}.cls-6{fill:#e6553d;}.cls-7{fill:#56b663;}.cls-8{fill:#f7c70b;}</style>
 </defs>
 <g class="layer">
  <title>Layer 1</title>
  <g id="Guidelines">
   <g id="Vz9FZ2">
    <path class="cls-1" d="m108.31445,29.56218c2.93087,-2.87451 9.91182,-9.7991 9.91182,-9.7991s2.75373,0 4.71033,0c-2.61685,2.57659 -4.83111,4.96799 -7.31913,7.14199c-0.67636,0.60389 -1.51375,1.49764 -1.51375,1.49764s0.75687,1.14336 1.23998,1.79556c2.41555,3.22074 4.5815,6.59446 6.87628,9.92793c-1.78751,0 -4.02592,0 -4.02592,0l-6.57031,-9.5978l-3.22074,2.8423s-0.16909,3.38983 -0.11273,5.26591c0,0.57973 0,1.81972 0,1.81972l-3.45424,0s0,-0.70051 0,-1.04674q0,-13.26139 0,-26.51473l0,-0.97427l1.00648,0c1.20778,0 2.41555,0 2.41555,0s0,1.05479 0,2.23841l0.05636,15.40318l0.00002,0z" id="svg_1"/>
    <path class="cls-1" d="m132.96115,30.7458l-7.83445,0a11.75569,11.75569 0 0 0 0.17714,1.28024c0.60389,2.6088 2.06127,4.47683 4.69423,5.16929a6.34485,6.34485 0 0 0 6.80381,-2.02907a10.70896,10.70896 0 0 0 0.75687,-1.1031l2.65711,1.42518s-0.40259,0.6522 -0.6683,1.03869c-3.86489,5.57188 -12.74607,5.20954 -16.20837,-0.64415s-0.94207,-13.68814 4.89552,-15.7172c6.44148,-2.26257 12.63335,2.55244 12.60919,9.48507c0,0.41064 0,1.11921 0,1.11921l-1.25609,0c-2.23036,-0.04831 -4.42852,-0.02416 -6.62667,-0.02416l0.00001,0zm4.21112,-2.77789a7.24666,7.24666 0 0 0 -0.18519,-1.21583a5.55577,5.55577 0 0 0 -5.63629,-4.09839a6.06304,6.06304 0 0 0 -5.74097,4.29163c-0.08857,0.42675 -0.19324,1.02258 -0.19324,1.02258l0.99843,0c1.63452,-0.04831 10.75727,0 10.75727,0l-0.00001,0.00001z" id="svg_2"/>
    <path class="cls-1" d="m80.72077,30.15801c0,5.93421 -4.33994,10.33052 -10.10507,10.29831s-10.0165,-4.48488 -10.00039,-10.57207a9.99234,9.99234 0 0 1 10.0326,-10.24195c5.81343,-0.00805 10.10507,4.46877 10.07286,10.51571zm-16.82031,-0.11273c0,4.21112 2.8262,7.33523 6.68303,7.36744s6.88433,-3.14022 6.90043,-7.36744s-2.96308,-7.37549 -6.73939,-7.39159c-3.9454,-0.0161 -6.84407,3.14827 -6.84407,7.39159z" id="svg_3"/>
    <path class="cls-2" d="m102.54933,30.16607c0,5.902 -4.3802,10.32247 -10.12922,10.29026s-10.07286,-4.54929 -10.0487,-10.41909s4.38826,-10.38688 10.09701,-10.38688s10.08091,4.54124 10.08091,10.51571zm-3.32541,-0.08857c0,-4.18696 -2.85035,-7.37549 -6.65888,-7.4238c-3.93735,-0.04831 -6.85212,3.09191 -6.86017,7.36744s2.81815,7.4077 6.80381,7.39965s6.70719,-3.11606 6.71524,-7.34328l0,-0.00001z" id="svg_4"/>
    <path class="cls-3" d="m44.90616,26.18845c0,-4.33994 0.06441,-8.67989 0,-13.01178l-0.04026,-1.24804s1.3044,0 1.88413,0l1.61037,0s0,0.76493 0,1.29635c-0.08052,7.47211 0,14.94423 -0.06441,22.41634c0,0.59584 0,1.61037 0,1.61037l1.61037,-0.04026c3.22074,-0.08857 6.37706,-0.05636 9.55754,-0.06441c0.55558,0 1.27219,0 1.27219,0s0,1.11921 0,1.65868s0,1.68284 0,1.68284s-0.73272,0 -1.28024,0c-4.38826,-0.09662 -8.78456,-0.07247 -13.17282,0l-1.36881,0s0,-0.95817 0,-1.46544c0.0161,-4.26748 -0.00805,-8.55106 -0.00805,-12.83464l-0.00001,-0.00001z" id="svg_5"/>
    <path class="cls-4" d="m146.02929,23.38641c1.86803,-2.80204 4.09839,-4.02592 7.10978,-3.63943a8.2773,8.2773 0 0 1 1.25609,0.34623s-0.05636,2.34309 -0.08052,3.50255a8.85703,8.85703 0 0 0 -0.90986,-0.20935c-4.11449,-0.80518 -7.10978,1.61037 -7.14199,5.80538c0,3.34152 -0.07247,6.68303 0,10.02455c0,0.54753 0,1.27219 0,1.27219l-3.57502,0s0,-0.70856 0,-1.27219c0.08052,-6.1033 0.08052,-12.2227 0,-18.326c0,-0.51532 0,-1.21583 0,-1.21583l1.7231,-0.04026c0.55558,0 1.61037,0 1.61037,0s0.05636,0.73272 0,1.31245s0.00805,1.34466 0.00805,2.43971z" id="svg_6"/>
   </g>
   <path class="cls-5" d="m5.6051,32.54136a14.01826,14.01826 0 0 1 6.64277,-10.91025a9.02612,9.02612 0 0 1 1.44933,-0.80518l1.69894,4.3802a16.72368,16.72368 0 0 0 -1.54595,1.25609c-3.38178,3.2771 -4.5654,8.22093 -2.15789,12.19049a9.5978,9.5978 0 0 0 17.4564,-7.56874a9.44482,9.44482 0 0 0 -10.2661,-6.89238l-1.3205,0.2174l-1.73115,-4.42852a26.51473,26.51473 0 0 1 2.93087,-0.49921a14.31618,14.31618 0 1 1 -8.23704,25.0654c-3.26905,-2.95503 -4.94383,-6.66693 -4.91968,-12.0053z" id="svg_7"/>
   <path class="cls-6" d="m12.41696,7.36324a3.96956,3.96956 0 0 1 1.7392,0.36233a8.65573,8.65573 0 0 1 1.52985,1.04674l-2.06932,1.86803s0,-0.14493 -0.6683,-0.33818c-1.76335,-0.55558 -3.50255,0.8535 -4.02592,2.47192a3.09191,3.09191 0 0 0 1.74725,4.02592a6.48979,6.48979 0 0 0 1.5218,0.2335l1.11115,2.85841a8.05185,8.05185 0 0 1 -2.73763,0a6.3207,6.3207 0 0 1 -4.90357,-6.9729a6.44148,6.44148 0 0 1 6.7555,-5.55577l-0.00001,0z" id="svg_8"/>
   <path class="cls-7" d="m17.65871,9.19906l1.67478,-1.54595s0.12078,0.08052 0.86155,0a1.5379,1.5379 0 0 0 1.21583,-1.77141a1.54595,1.54595 0 0 0 -1.43323,-1.55401a1.7231,1.7231 0 0 0 -1.88413,1.34466c-0.04831,0.80518 0.10467,0.84544 0.10467,0.84544s-1.087,1.03064 -1.67478,1.51375a3.62333,3.62333 0 0 1 0.80518,-5.18539a4.07423,4.07423 0 0 1 5.71681,5.74902a3.77632,3.77632 0 0 1 -5.38668,0.60389z" id="svg_9"/>
   <path class="cls-8" d="m18.00494,13.46654a5.40279,5.40279 0 0 1 -1.27219,4.08229a9.37235,9.37235 0 0 1 -1.41712,1.17557l-1.06284,-2.72152s0.42675,-0.05636 0.94207,-0.97427a2.23841,2.23841 0 0 0 0,-2.27062a5.0324,5.0324 0 0 0 -0.6683,-0.92596l2.09348,-1.85192a5.05656,5.05656 0 0 1 1.11921,2.13374a12.37569,12.37569 0 0 1 0.26571,1.35271l-0.00002,-0.00002z" id="svg_10"/>
  </g>
 </g>
</svg>