<svg width="160" height="50" xmlns="http://www.w3.org/2000/svg" xmlns:svg="http://www.w3.org/2000/svg">
 <defs>
  <style>.cls-1{fill:#6a6e74;}.cls-2{fill:#558ffa;}.cls-3{fill:#e64f35;}.cls-4{fill:#f8c500;}.cls-5{fill:#4ab157;}</style>
 </defs>
 <g class="layer">
  <title>Layer 1</title>
  <g id="Guidelines">
   <g id="XcZAcT.tif">
    <path class="cls-1" d="m23.54687,48.93712l-1.35574,-0.16269a12.20169,12.20169 0 0 1 -5.91104,-2.33188a13.55743,13.55743 0 0 1 -5.42297,-9.05636a14.24886,14.24886 0 0 1 3.15888,-11.79496a12.48639,12.48639 0 0 1 7.26678,-4.39261a12.74398,12.74398 0 0 1 9.70712,1.73535a13.43541,13.43541 0 0 1 5.42297,6.86006a15.22499,15.22499 0 0 1 0.90835,4.66376a14.12684,14.12684 0 0 1 -2.53524,8.79877a12.94735,12.94735 0 0 1 -7.14477,5.15182a12.20169,12.20169 0 0 1 -2.80639,0.47451l-0.40672,0l-0.88123,0.05423zm9.4902,-13.55743a10.73749,10.73749 0 0 0 -2.27765,-6.9414a8.39205,8.39205 0 0 0 -6.06017,-3.32157a8.20225,8.20225 0 0 0 -7.06342,3.06398a10.0325,10.0325 0 0 0 -2.50812,7.61928a9.92404,9.92404 0 0 0 2.88773,6.39911a8.36493,8.36493 0 0 0 11.19844,0.77277a9.61222,9.61222 0 0 0 3.76897,-7.59216l0.05423,0z" id="svg_1"/>
    <path class="cls-2" d="m51.59719,48.93712l-0.98969,-0.0949a12.83889,12.83889 0 0 1 -8.13446,-3.98588a13.70656,13.70656 0 0 1 -3.52493,-6.71093a14.52001,14.52001 0 0 1 2.25053,-11.51026a13.15071,13.15071 0 0 1 2.52168,-2.71149l0.24403,-0.17625l2.71149,3.29446c-0.43384,0.43384 -0.88123,0.827 -1.26084,1.28796a10.43922,10.43922 0 0 0 -0.13557,13.15071a8.48695,8.48695 0 0 0 12.7711,0.69143a9.73424,9.73424 0 0 0 2.96908,-7.78197a9.92404,9.92404 0 0 0 -3.41647,-7.17188a8.13446,8.13446 0 0 0 -6.24998,-2.1014a16.37738,16.37738 0 0 0 -1.77602,0.33894a0.31182,0.31182 0 0 1 -0.27115,0c-0.89479,-1.07104 -1.76247,-2.14207 -2.63014,-3.21311c0,0 0,0 0,-0.0949c0.40672,-0.16269 0.79989,-0.35249 1.20661,-0.48807a12.35082,12.35082 0 0 1 4.90779,-0.67787a12.98802,12.98802 0 0 1 11.13065,7.49726a14.42511,14.42511 0 0 1 1.4642,5.42297a14.18107,14.18107 0 0 1 -2.50812,9.36818a12.94735,12.94735 0 0 1 -8.13446,5.42297a19.14309,19.14309 0 0 1 -1.95227,0.23048l-0.39317,0l-0.79989,0.01356z" id="svg_2"/>
    <path class="cls-1" d="m67.45939,48.24569l0,-38.51666l4.40616,0l0,23.87464l0.25759,-0.21692l11.68651,-11.55093a0.66431,0.66431 0 0 1 0.47451,-0.20336l6.14152,0l-10.3172,9.9376l11.19844,16.6892l-0.27115,0c-1.59978,0 -3.186,0 -4.78577,0a0.37961,0.37961 0 0 1 -0.36605,-0.20336l-8.78522,-13.09648l-0.17625,-0.24403l-0.20336,0.17625l-4.70443,4.54174a0.66431,0.66431 0 0 0 -0.21692,0.51518c0,2.71149 0,5.31451 0,7.97177l0,0.32538l-4.33838,0z" id="svg_3"/>
    <path class="cls-1" d="m0.44501,9.72903l3.98588,0c0.27115,0 0.32538,0.0949 0.32538,0.33894q0,9.4902 0,18.9804l0,9.23261a8.3107,8.3107 0 0 0 0.36605,2.6437a4.43328,4.43328 0 0 0 3.74185,3.13177a17.09592,17.09592 0 0 0 1.88448,0.14913c0.13557,0 0.21692,0 0.21692,0.1898l0,3.79608a1.1795,1.1795 0 0 1 0,0.17625c-0.74566,0 -1.50487,0 -2.26409,0a8.64964,8.64964 0 0 1 -3.78252,-1.04392a8.01244,8.01244 0 0 1 -3.80964,-4.67731a12.56774,12.56774 0 0 1 -0.61008,-4.06723q0,-14.2353 0,-28.4706l-0.05423,-0.37961z" id="svg_4"/>
    <path class="cls-3" d="m45.04895,10.71872l-2.16919,1.87093c-0.12202,0.10846 -0.20336,0 -0.29826,0a3.80964,3.80964 0 0 0 -4.75866,0.85412a3.66051,3.66051 0 0 0 -0.69143,3.89098a3.71474,3.71474 0 0 0 3.05042,2.42678a7.18544,7.18544 0 0 0 0.93546,0c0.10846,0 0.25759,0 0.31182,0.0949c0.65076,0.77277 1.35574,1.5591 1.92516,2.34544a6.69737,6.69737 0 0 1 -7.79552,-1.77602a6.87362,6.87362 0 0 1 0.67787,-9.68001a6.77872,6.77872 0 0 1 8.81233,-0.02711z" id="svg_5"/>
    <path class="cls-4" d="m45.26587,21.06304l-1.87093,-2.27765a4.06723,4.06723 0 0 0 1.15238,-2.33188a3.93165,3.93165 0 0 0 -0.55585,-2.52168l2.25053,-1.93871a6.77872,6.77872 0 0 1 -0.97614,9.06992z" id="svg_6"/>
    <path class="cls-5" d="m48.6959,3.09944a5.01625,5.01625 0 0 1 5.20605,-1.89804a5.15182,5.15182 0 0 1 0.67787,9.81558a5.05692,5.05692 0 0 1 -5.61278,-1.35574l1.65401,-1.45065a3.10465,3.10465 0 0 0 1.35574,0.827a2.91485,2.91485 0 1 0 1.23373,-5.69412a2.71149,2.71149 0 0 0 -2.15563,0.43384l-0.12202,0.0949a3.05042,3.05042 0 0 0 -1.00325,2.91485a0.48807,0.48807 0 0 0 0,0.14913s0,0.0949 0,0.12202l-1.69468,1.54555a5.12471,5.12471 0 0 1 0.46095,-5.50432z" id="svg_7"/>
   </g>
   <path class="cls-1" d="m116.60507,36.31515c-0.43384,0.96258 -1.00325,2.38611 -1.68112,4.25703a40.78075,40.78075 0 0 0 -1.64045,-4.25703l-11.93054,-27.11486l-6.43978,0l0,39.18097l4.89423,0l0,-26.0845c0,-2.12852 0,-3.90454 -0.08134,-5.31451a15.84864,15.84864 0 0 0 0.62364,1.80314l13.24561,29.6501l2.56235,0l13.27272,-29.82635a15.29278,15.29278 0 0 0 0.58297,-1.64045c-0.13557,2.0065 -0.20336,3.78252 -0.20336,5.30096l0,26.16584l5.02981,0l0,-39.2352l-6.03306,0l-12.20169,27.11486z" id="svg_8"/>
   <polygon class="cls-1" id="svg_9" points="144.03173828125,43.798847794532776 144.03173828125,9.254518151283264 138.97482299804688,9.254518151283264 138.97482299804688,48.43549025058746 159.55499267578125,48.43549025058746 159.55499267578125,43.798847794532776 144.03173828125,43.798847794532776 "/>
  </g>
 </g>
</svg>
