<svg xmlns="http://www.w3.org/2000/svg" viewBox="0 0 180 35.31"><defs><style>.cls-1{fill:#6a6e74;}.cls-2{fill:#558ffa;}.cls-3{fill:#e64f35;}.cls-4{fill:#f8c500;}.cls-5{fill:#4ab157;}</style></defs><g id="Guidelines"><g id="XcZAcT.tif"><path class="cls-1" d="M48.36,35.31l-1-.12A9,9,0,0,1,43,33.47,10,10,0,0,1,39,26.79a10.51,10.51,0,0,1,2.33-8.7,9.21,9.21,0,0,1,5.36-3.24,9.4,9.4,0,0,1,7.16,1.28,9.91,9.91,0,0,1,4,5.06,11.23,11.23,0,0,1,.67,3.44,10.42,10.42,0,0,1-1.87,6.49,9.55,9.55,0,0,1-5.27,3.8,9,9,0,0,1-2.07.35l-.3,0Zm7-10a7.92,7.92,0,0,0-1.68-5.12,6.19,6.19,0,0,0-4.47-2.45A6.05,6.05,0,0,0,44,20a7.4,7.4,0,0,0-1.85,5.62,7.32,7.32,0,0,0,2.13,4.72,6.17,6.17,0,0,0,8.26.57A7.09,7.09,0,0,0,55.32,25.31Z"/><path class="cls-2" d="M69.05,35.31l-.73-.07a9.47,9.47,0,0,1-6-2.94,10.11,10.11,0,0,1-2.6-4.95,10.71,10.71,0,0,1,1.66-8.49,9.7,9.7,0,0,1,1.86-2l.18-.13,2,2.43c-.32.32-.65.61-.93.95a7.7,7.7,0,0,0-.1,9.7,6.26,6.26,0,0,0,9.42.51A7.18,7.18,0,0,0,76,24.58a7.32,7.32,0,0,0-2.52-5.29,6,6,0,0,0-4.61-1.55,12.08,12.08,0,0,0-1.31.25.23.23,0,0,1-.2,0c-.66-.79-1.3-1.58-1.94-2.37,0,0,0,0,0-.07.3-.12.59-.26.89-.36a9.11,9.11,0,0,1,3.62-.5,9.58,9.58,0,0,1,8.21,5.53,10.64,10.64,0,0,1,1.08,4,10.46,10.46,0,0,1-1.85,6.91,9.55,9.55,0,0,1-6,4,14.12,14.12,0,0,1-1.44.17l-.29,0Z"/><path class="cls-1" d="M80.75,34.8V6.39H84V24l.19-.16,8.62-8.52a.49.49,0,0,1,.35-.15h4.53L90.08,22.5l8.26,12.31h-.2c-1.18,0-2.35,0-3.53,0a.28.28,0,0,1-.27-.15L87.86,25l-.13-.18-.15.13L84.11,28.3a.49.49,0,0,0-.16.38c0,2,0,3.92,0,5.88v.24Z"/><path class="cls-1" d="M31.32,6.39h2.94c.2,0,.24.07.24.25q0,7,0,14v6.81a6.13,6.13,0,0,0,.27,1.95,3.27,3.27,0,0,0,2.76,2.31,12.61,12.61,0,0,0,1.39.11c.1,0,.16,0,.16.14v2.8a.87.87,0,0,1,0,.13c-.55,0-1.11,0-1.67,0a6.38,6.38,0,0,1-2.79-.77,5.91,5.91,0,0,1-2.81-3.45,9.27,9.27,0,0,1-.45-3q0-10.5,0-21Z"/><path class="cls-3" d="M64.22,7.12,62.62,8.5c-.09.08-.15,0-.22,0a2.81,2.81,0,0,0-3.51.63A2.7,2.7,0,0,0,58.38,12a2.74,2.74,0,0,0,2.25,1.79,5.3,5.3,0,0,0,.69,0c.08,0,.19,0,.23.07.48.57,1,1.15,1.42,1.73a4.94,4.94,0,0,1-5.75-1.31,5.07,5.07,0,0,1,.5-7.14A5,5,0,0,1,64.22,7.12Z"/><path class="cls-4" d="M64.38,14.75,63,13.07a3,3,0,0,0,.85-1.72,2.9,2.9,0,0,0-.41-1.86l1.66-1.43A5,5,0,0,1,64.38,14.75Z"/><path class="cls-5" d="M66.91,1.5A3.7,3.7,0,0,1,70.75.1a3.8,3.8,0,0,1,.5,7.24,3.73,3.73,0,0,1-4.14-1l1.22-1.07a2.29,2.29,0,0,0,1,.61,2.15,2.15,0,1,0,.91-4.2A2,2,0,0,0,68.65,2l-.09.07a2.25,2.25,0,0,0-.74,2.15.36.36,0,0,0,0,.11s0,.07,0,.09L66.57,5.56a3.78,3.78,0,0,1,.34-4.06Z"/></g><path class="cls-1" d="M117,26c-.32.71-.74,1.76-1.24,3.14A30.08,30.08,0,0,0,114.55,26l-8.8-20H101v28.9h3.61V15.66c0-1.57,0-2.88-.06-3.92a11.69,11.69,0,0,0,.46,1.33l9.77,21.87h1.89l9.79-22a11.28,11.28,0,0,0,.43-1.21c-.1,1.48-.15,2.79-.15,3.91V34.94h3.71V6H126Z"/><polygon class="cls-1" points="137.23 31.52 137.23 6.04 133.5 6.04 133.5 34.94 148.68 34.94 148.68 31.52 137.23 31.52"/></g></svg>