<?xml version="1.0"?>
<svg width="160" height="50" xmlns="http://www.w3.org/2000/svg" xmlns:svg="http://www.w3.org/2000/svg">
 <g>
  <title>Layer 1</title>
  <g stroke="null" id="Layer_1_1_">
   <g stroke="null" id="svg_1">
    <g stroke="null" id="svg_2">
     <path stroke="null" id="svg_3" d="m151.506291,33.893143l0,0c3.250286,0 5.507429,-2.257143 5.507429,-5.417143c0,-1.534857 -0.451429,-2.979429 -1.264,-4.062857c-0.902857,-1.083429 -2.076572,-1.715429 -3.611429,-1.715429l0,0c-1.986286,0 -3.792,1.534857 -5.597714,4.604572l-0.180571,0.270857l-0.090286,-0.270857c-0.451429,-1.354286 -0.812571,-2.437714 -1.083429,-3.069714c-0.180571,-0.451429 -0.270857,-0.632 -0.270857,-0.722286c-0.090286,-0.361143 -0.361143,-0.541714 -0.722286,-0.541714c-0.270857,0 -0.451429,0.090286 -0.722286,0.180571c-0.270857,0.180571 -0.361143,0.361143 -0.361143,0.541714l0,0c-1.805714,5.597714 -3.250286,8.306286 -4.514286,8.306286c-0.180571,0 -0.361143,-0.090286 -0.451429,-0.180571c-0.361143,-0.361143 -0.270857,-1.264 -0.180571,-2.437714c0.090286,-0.902857 0.180571,-1.896 0.180571,-2.889143c-0.090286,-1.986286 -1.173714,-3.250286 -2.979429,-3.250286c-2.257143,0 -3.701714,2.437714 -4.424,3.882286l-0.180571,0.451429l0,-0.451429c-0.180571,-1.805714 -0.722286,-3.882286 -2.618286,-3.882286c-2.166857,0 -3.882286,2.618286 -4.875429,4.785143l-0.270857,0.541714l0,-0.632c0.090286,-2.889143 0.180571,-4.604572 0.270857,-5.056s0,-0.812571 -0.090286,-0.993143c-0.180571,-0.180571 -0.451429,-0.270857 -0.812571,-0.180571c-0.722286,0 -1.083429,0.451429 -1.625143,1.896c-0.902857,2.347429 -3.16,7.854857 -4.965714,7.854857c-0.361143,0 -0.632,-0.090286 -0.812571,-0.361143c-0.722286,-0.902857 -0.451429,-3.250286 0,-6.500572l0,-0.270857c0.180571,-1.534857 -0.180571,-1.896 -0.993143,-1.986286c-0.090286,0 -0.180571,0 -0.270857,0c-0.632,0 -0.993143,0.632 -1.625143,2.437714c-1.083429,3.16 -2.528,6.500572 -4.243429,6.500572c-0.090286,0 -0.090286,0 -0.180571,0c-0.902857,-0.180571 -0.902857,-1.444571 -0.812571,-3.16c0,-0.902857 0,-1.896 -0.090286,-2.798857c-0.270857,-1.625143 -1.264,-2.708572 -2.528,-2.708572c-2.618286,0 -4.424,3.340572 -5.236572,5.326857l-0.180571,0.451429l-0.090286,-0.451429c-0.090286,-0.902857 -0.270857,-2.257143 -0.361143,-3.882286l0,-0.090286l0,0c4.875429,-6.229715 7.132572,-10.653715 7.132572,-14.445715c0,-2.437714 -1.083429,-3.882286 -2.979429,-3.882286c-1.354286,0 -4.694857,1.173714 -5.868572,11.917715c-0.180571,1.986286 -0.361143,4.062857 -0.361143,6.049143l0,0l0,0c-2.257143,3.250286 -7.042286,8.848 -11.737143,8.848c-4.243429,0 -7.674286,-3.430857 -7.674286,-9.48c0,-8.125715 5.778286,-13.091429 10.112,-13.091429l0,0c0.902857,0 1.715429,0.270857 2.347429,0.722286c0.632,0.541714 0.902857,1.264 0.902857,2.076572c0,1.083429 -0.361143,1.715429 -0.722286,2.257143c-0.090286,0.180571 -0.180571,0.270857 -0.270857,0.451429c-0.090286,0.180571 -0.180571,0.361143 -0.090286,0.541714c0.090286,0.180571 0.361143,0.270857 0.722286,0.361143c0.993143,0 2.618286,-1.534857 2.618286,-3.701714c0,-2.347429 -1.986286,-4.785143 -5.507429,-4.785143c-5.326857,0 -12.549715,5.868572 -12.549715,15.438858c0,6.771429 4.243429,11.376 9.931429,11.376c4.062857,0 8.035429,-2.889143 11.646858,-7.764572l0.180571,-0.270857l0,0.361143c0.090286,1.805714 0.180571,3.16 0.270857,4.243429c0.090286,0.632 0.090286,1.173714 0.090286,1.354286c0,0.541714 0.090286,0.993143 0.270857,1.173714c0.180571,0.270857 0.541714,0.361143 0.993143,0.361143c0.812571,0 0.993143,-0.541714 1.264,-1.896l0.090286,-0.361143c0.361143,-1.625143 1.805714,-6.952 4.062857,-6.952c0.361143,0 0.632,0.090286 0.812571,0.270857c0.451429,0.541714 0.451429,1.534857 0.361143,2.798857c0,0.722286 -0.090286,1.534857 0,2.347429c0.180571,2.076572 1.083429,3.069714 2.708572,3.069714s3.430857,-1.805714 4.333714,-3.430857l0.180571,-0.270857l0.090286,0.361143c0.180571,0.902857 0.902857,3.792 3.340572,3.792c2.166857,0 3.972572,-2.257143 6.049143,-6.952l0.270857,-0.632l0,0.632c0,1.805714 -0.180571,3.882286 -0.180571,5.597714c0,1.264 0.090286,1.805714 0.722286,1.805714l0.090286,0c0.541714,0 0.993143,-0.361143 1.173714,-0.993143c1.534857,-5.326857 2.798857,-7.764572 4.153143,-7.764572c1.264,0 1.354286,2.347429 1.534857,6.500572l0,0.270857c0,1.444571 0.090286,2.076572 0.993143,2.076572c0.722286,0 0.812571,-0.541714 1.173714,-1.805714c0.090286,-0.270857 0.180571,-0.541714 0.270857,-0.812571c1.264,-4.243429 2.257143,-6.049143 3.521143,-6.049143c1.083429,0 1.173714,1.083429 1.173714,1.534857c0,0.812571 0,1.625143 -0.090286,2.437714c-0.090286,0.722286 -0.180571,1.534857 -0.090286,2.257143c0.090286,1.625143 0.993143,2.618286 2.618286,2.618286c2.076572,0 3.972572,-2.437714 5.597714,-7.222857l0.090286,-0.361143l0.090286,0.361143c0.270857,0.722286 0.722286,1.805714 1.083429,2.979429l0,0.090286l0,0c-1.625143,3.521143 -2.708572,7.403429 -2.708572,9.48c0,2.798857 1.264,4.514286 3.16,4.514286l0,0c1.083429,0 3.521143,-0.451429 3.611429,-4.333714c0,-1.625143 -0.361143,-3.882286 -1.173714,-6.771429l-0.090286,-0.361143l0.270857,0.180571c1.173714,0.451429 2.257143,0.812571 3.340572,0.812571zm-53.268573,-13.362286c0,-0.993143 0.090286,-1.986286 0.270857,-2.889143c0.722286,-5.868572 2.347429,-9.931429 3.882286,-9.931429l0,0c0.722286,0 1.083429,0.541714 1.083429,1.625143c0,2.618286 -1.715429,6.410286 -4.965714,11.285715l-0.270857,0.361143l0,-0.451429zm48.573716,21.036572c-0.270857,0.361143 -0.541714,0.451429 -0.993143,0.451429s-0.812571,-0.180571 -1.083429,-0.541714c-0.722286,-0.902857 -0.541714,-3.069714 0.632,-7.042286c0.090286,-0.451429 0.270857,-0.993143 0.451429,-1.444571l0.090286,-0.361143l0.090286,0.361143c1.354286,4.604572 1.625143,7.493715 0.812571,8.577143zm0.451429,-11.737143l0,0l-0.090286,-0.180571l0,-0.090286c1.534857,-3.069714 3.250286,-4.875429 4.694857,-4.875429l0,0c1.715429,0 2.889143,1.534857 2.889143,3.701714c0,1.444571 -0.632,2.257143 -1.173714,2.708572c-0.632,0.541714 -1.444571,0.812571 -2.257143,0.812571c-1.896,0 -3.340572,-1.083429 -4.062857,-2.076572z"/>
     <path stroke="null" id="svg_4" d="m51.198859,33.351428c2.347429,-0.180571 4.153143,-3.340572 4.875429,-4.694857l0.180571,-0.361143l0.090286,0.361143c0.361143,1.896 1.354286,5.056 4.604572,5.146286l0,0c1.354286,0 2.979429,-0.812571 4.604572,-2.437714l0.090286,-0.090286l0.090286,0.180571c1.083429,1.805714 2.528,2.798857 4.062857,2.708572c2.257143,-0.090286 3.611429,-1.715429 3.792,-2.798857c0,-0.270857 0,-0.541714 -0.180571,-0.722286c-0.180571,-0.270857 -0.541714,-0.270857 -0.722286,-0.090286l-0.090286,0.090286c-0.541714,0.541714 -1.534857,1.444571 -2.618286,1.534857c-1.354286,0.090286 -2.257143,-0.722286 -2.889143,-2.347429l0,-0.090286l0,-0.090286c3.611429,-4.694857 6.139429,-11.917715 5.868572,-16.793143c-0.090286,-2.257143 -0.722286,-4.875429 -3.250286,-4.875429c-0.090286,0 -0.090286,0 -0.180571,0c-0.902857,0.090286 -1.805714,0.451429 -2.528,1.354286c-2.257143,2.528 -3.430857,8.757715 -2.979429,15.890286c0.090286,1.444571 0.361143,2.889143 0.722286,4.153143l0,0.090286l-0.090286,0.090286c-1.354286,1.534857 -2.618286,2.437714 -3.701714,2.437714c-2.528,0 -2.437714,-4.243429 -2.257143,-7.854857c0,-0.722286 0.090286,-1.264 -0.090286,-1.534857c-0.180571,-0.180571 -0.451429,-0.270857 -0.812571,-0.270857l-0.090286,0c-0.902857,0 -1.083429,0.180571 -1.534857,1.534857c-0.993143,2.798857 -2.889143,7.493715 -4.785143,7.493715c-0.541714,0 -0.902857,-0.180571 -1.173714,-0.541714c-0.902857,-1.173714 -0.180571,-4.153143 0.361143,-6.500572c0.090286,-0.451429 0.180571,-0.812571 0.270857,-1.264c0.090286,-0.541714 0.090286,-0.993143 -0.090286,-1.264c-0.180571,-0.270857 -0.632,-0.361143 -1.083429,-0.270857c-0.812571,0.090286 -1.354286,0.451429 -1.625143,1.986286l-0.090286,0.361143l-0.180571,-0.270857c-0.361143,-0.541714 -1.083429,-1.173714 -2.347429,-1.173714c-0.090286,0 -0.270857,0 -0.361143,0c-1.354286,0.090286 -2.979429,1.083429 -4.153143,2.528c-1.354286,1.715429 -1.986286,3.792 -1.805714,5.958857c0,0.090286 0,0.270857 0,0.361143l0,0.090286l0,0.090286c-0.812571,0.902857 -1.625143,1.354286 -2.437714,1.354286c-1.264,0 -1.986286,-0.902857 -1.986286,-2.528c0,-2.618286 1.805714,-10.563429 1.805714,-13.362286c0,-3.069714 -1.354286,-4.694857 -3.701714,-4.694857l0,0c-3.430857,0 -6.139429,3.882286 -8.667429,11.917715c-0.270857,0.722286 -0.451429,1.625143 -0.722286,2.347429l-0.361143,1.173714l0.090286,-1.264c0.270857,-2.798857 0.361143,-5.507429 0.451429,-8.125715c0.090286,-3.882286 -0.361143,-6.410286 -1.625143,-7.674286c-0.632,-0.722286 -1.534857,-0.993143 -2.618286,-0.993143l0,0c-4.243429,0 -6.229715,7.132572 -7.674286,12.098286c-0.451429,1.534857 -1.354286,4.965714 -1.896,7.222857l0.361143,-0.541714c0.090286,-3.16 0.812571,-10.473143 0.812571,-14.445715c-0.090286,-4.243429 -1.444571,-6.229715 -4.604572,-6.229715l0,0c-1.715429,0 -2.889143,0.812571 -3.611429,1.534857c-1.083429,1.083429 -1.715429,2.798857 -1.715429,4.153143c0,0.902857 0.541714,1.625143 0.993143,1.625143c0.270857,0 0.361143,-0.361143 0.451429,-0.541714c0.993143,-3.16 2.166857,-4.785143 3.792,-4.785143c0.632,0 1.173714,0.180571 1.534857,0.632c1.264,1.354286 0.993143,4.965714 0.632,11.646858c-0.090286,2.166857 -0.270857,4.604572 -0.451429,7.313143c0,0.451429 -0.090286,0.902857 -0.090286,1.354286c-0.090286,1.896 -0.180571,3.430857 0.541714,3.521143c0.902857,0.180571 1.534857,-0.270857 1.896,-1.173714c0.451429,-1.354286 1.534857,-5.146286 3.521143,-12.098286c1.986286,-6.681143 3.430857,-9.028572 5.326857,-9.028572c2.166857,0 2.347429,3.701714 1.896,11.556572c-0.090286,1.625143 -0.180571,3.521143 -0.270857,5.597714c0,0.270857 0,0.541714 0,0.812571c-0.090286,1.715429 -0.180571,3.069714 0.361143,3.521143c0.180571,0.180571 0.361143,0.270857 0.632,0.270857c0.902857,0 1.264,-0.812571 1.715429,-2.166857c0.090286,-0.270857 0.180571,-0.541714 0.270857,-0.812571c3.250286,-8.848 5.597714,-16.612572 8.848,-16.612572c0.993143,0 1.715429,0.812571 1.715429,2.257143c0,3.521143 -1.715429,10.292572 -1.715429,13.723429c0,1.264 0.361143,2.347429 0.993143,3.069714c0.722286,0.812571 1.625143,1.264 2.798857,1.264l0,0c1.083429,0 2.166857,-0.541714 3.340572,-1.534857l0.090286,-0.090286l0.090286,0.090286c0.722286,0.993143 1.986286,1.534857 3.250286,1.444571c1.986286,-0.180571 3.611429,-1.896 4.243429,-3.611429l0.090286,-0.361143l0.090286,0.361143c0.451429,1.354286 1.444571,2.889143 3.611429,2.708572zm18.328001,-23.203429l0,0c0.270857,0 0.451429,0.090286 0.632,0.361143c0.812571,1.083429 0.812571,4.965714 -0.541714,9.389715c-0.812571,2.528 -1.805714,4.965714 -2.979429,6.952l-0.270857,0.270857l-0.090286,-0.361143c-0.180571,-1.083429 -0.180571,-2.166857 -0.270857,-3.16c-0.270857,-6.681143 1.715429,-13.362286 3.521143,-13.452572zm-22.120001,15.619429c-0.722286,2.798857 -1.986286,6.139429 -4.424,6.410286c-0.090286,0 -0.090286,0 -0.180571,0c-0.993143,0 -1.534857,-0.632 -1.625143,-1.986286c-0.090286,-1.625143 0.541714,-3.521143 1.805714,-4.785143c0.812571,-0.812571 1.625143,-1.264 2.437714,-1.264l0,0c0.993143,0 1.715429,0.812571 1.986286,1.625143l0,0l0,0z"/>
     <path stroke="null" id="svg_5" d="m58.602288,15.474856c-0.902857,0 -1.625143,0.722286 -1.625143,1.534857c0,0.902857 0.722286,1.534857 1.625143,1.625143l0,0.090286l0,0l0,-0.090286c0.902857,0 1.625143,-0.722286 1.625143,-1.534857c-0.090286,-0.902857 -0.722286,-1.625143 -1.625143,-1.625143z"/>
     <path stroke="null" id="svg_6" d="m114.398861,15.474856c-0.902857,0 -1.625143,0.722286 -1.625143,1.534857c0,0.902857 0.722286,1.534857 1.625143,1.625143l0,0.090286l0,0l0,-0.090286c0.902857,0 1.625143,-0.722286 1.625143,-1.534857c0,-0.902857 -0.722286,-1.625143 -1.625143,-1.625143z"/>
    </g>
    <g stroke="null" id="svg_7">
     <path stroke="null" id="svg_8" d="m157.916577,32.087428c-0.632,0 -1.083429,0.451429 -1.083429,1.083429s0.451429,1.083429 1.083429,1.083429s1.083429,-0.451429 1.083429,-1.083429s-0.451429,-1.083429 -1.083429,-1.083429zm0,1.986286c-0.541714,0 -0.902857,-0.451429 -0.902857,-0.902857c0,-0.541714 0.451429,-0.902857 0.902857,-0.902857c0.541714,0 0.902857,0.451429 0.902857,0.902857c0,0.541714 -0.361143,0.902857 -0.902857,0.902857z" fill="#020202"/>
     <path stroke="null" id="svg_9" d="m158.368006,32.9c0,-0.180571 -0.090286,-0.361143 -0.361143,-0.361143l-0.451429,0l0,1.264l0.180571,0l0,-0.541714l0.180571,0l0.361143,0.541714l0.180571,0l-0.361143,-0.541714c0.180571,0 0.270857,-0.090286 0.270857,-0.361143zm-0.451429,0.180571l-0.180571,0l0,-0.451429l0.270857,0c0.090286,0 0.270857,0.090286 0.270857,0.180571c0,0.270857 -0.270857,0.270857 -0.361143,0.270857z" fill="#020202"/>
    </g>
   </g>
  </g>
 </g>
</svg>