<svg width="160" height="50" xmlns="http://www.w3.org/2000/svg" xmlns:svg="http://www.w3.org/2000/svg">
 <defs>
  <style>.cls-1{fill:#2760b2;}.cls-2{fill:#417cc2;}.cls-3{fill:#cc286e;}.cls-4{fill:#3f7cc2;}.cls-5{fill:#fdfdfd;}.cls-6{fill:#d8e2f4;}.cls-7{fill:#e7266a;}.cls-8{fill:#d4266c;}.cls-9{fill:#ca286e;}.cls-10{fill:#df266c;}.cls-11{fill:#2b63b3;}.cls-12{fill:#a62555;}.cls-13{fill:#dd276c;}.cls-14{fill:#d8e3f4;}</style>
 </defs>
 <g class="layer">
  <title>Layer 1</title>
  <g id="Guidelines">
   <path d="m151.99265,27.82836l-7.20024,0c0.40801,2.25608 2.35208,2.8001 5.40018,1.43205l1.00003,1.35205a6.20821,6.20821 0 0 1 -6.84023,0.73602a5.07217,5.07217 0 0 1 -2.32008,-5.55219a5.05617,5.05617 0 0 1 9.26431,-1.60005a5.12017,5.12017 0 0 1 0.41601,0.96003a7.68026,7.68026 0 0 1 0.28001,2.67209zm-7.36825,-1.94407l4.87217,0a2.30408,2.30408 0 0 0 -2.40008,-2.07207a2.26408,2.26408 0 0 0 -2.47208,2.07207z" id="svg_1"/>
   <path d="m76.06207,31.70849c0,-1.92807 0,-3.86413 0,-5.7922c0,-1.06404 -0.24001,-1.88806 -1.48005,-1.84006s-2.08807,0.53602 -2.08007,1.93607c0,1.88806 0,3.76813 0,5.72819l-2.60809,0c0,-1.88006 0,-3.76013 0,-5.60019c0,-1.14404 -0.18401,-2.08807 -1.60005,-2.04007a1.96807,1.96807 0 0 0 -1.96007,2.21608c0,1.78406 0,3.56812 0,5.44018l-2.50409,0l0,-9.70433l2.56009,0a4.26414,4.26414 0 0 1 0,0.92003c3.0161,-1.60005 4.32015,-1.60005 5.8722,0.19201a17.5286,17.5286 0 0 1 3.20011,-1.32004a2.49608,2.49608 0 0 1 3.20011,2.57609c0.088,2.40008 0,4.80016 0,7.29625l-2.60009,-0.008z" id="svg_2"/>
   <path d="m110.32724,31.74049l0,-13.36845l2.46408,0l0,4.52015a21.11272,21.11272 0 0 1 3.10411,-1.08004c2.30408,-0.37601 3.65612,0.80003 3.68012,3.14411s0,4.46415 0,6.76023l-2.54409,0c0,-1.83206 0,-3.69613 0,-5.55219s-1.45605,-2.78409 -3.11211,-1.80006a2.60809,2.60809 0 0 0 -1.04004,1.79206c-0.136,1.81606 -0.048,3.64812 -0.048,5.55219l-2.50409,0.032z" id="svg_3"/>
   <path d="m141.97631,31.74849l-3.20011,0a30.40103,30.40103 0 0 0 -2.70409,-3.80813c-1.28804,0.27201 -1.05604,2.53609 -1.15204,3.79213l-2.28808,0l0,-13.32845l2.30408,0l0,7.52026l0.32801,0.17601c0.61602,-0.68802 1.22404,-1.38405 1.82406,-2.08007a17.84061,17.84061 0 0 1 1.84006,-1.86406s2.09607,-0.056 2.8641,0.048l-3.69613,4.26414c1.24004,1.74406 2.60009,3.56012 3.88013,5.28018z" id="svg_4"/>
   <path d="m89.35853,31.81249c-0.52002,0 -1.99207,0 -1.99207,0l0,-0.80003s-0.57602,0.22401 -1.60005,0.54402a7.20024,7.20024 0 0 1 -3.56012,0.144c-1.45605,-0.32801 -2.05607,-1.60005 -1.97607,-3.0881s0.88003,-2.20007 2.26408,-2.68009a4.88817,4.88817 0 0 1 4.39215,0.24001c-0.18401,-0.48002 -0.24001,-1.48005 -0.80003,-1.85606c-1.45605,-1.04804 -2.9201,-0.34401 -4.40015,0.55202l-0.89603,-1.45605c1.90406,-2.00007 5.42418,-2.04007 6.87223,-1.00803a4.16814,4.16814 0 0 1 1.60005,2.40008a6.78423,6.78423 0 0 1 0.072,1.36005l0.024,5.64819zm-4.51215,-1.44805c0.86403,-0.16001 1.99207,-0.112 1.95207,-1.50405s-1.14404,-1.37605 -2.09607,-1.42405s-1.91206,0.33601 -1.88806,1.48805s0.95203,1.41605 2.03207,1.44005z" id="svg_5"/>
   <path d="m108.47118,23.06019l-0.80003,1.38405c-1.32004,-0.24801 -2.04007,-0.67202 -3.20011,-0.80003c-0.70402,-0.072 -1.44805,0.44001 -1.49605,0.86403s0.50402,0.80003 0.85603,0.92003c0.96003,0.35201 1.97607,0.52002 2.9521,0.80003a2.60009,2.60009 0 0 1 2.00807,2.60009a2.64009,2.64009 0 0 1 -1.80006,2.75209a6.92824,6.92824 0 0 1 -6.91223,-0.96803l0.95203,-1.55205c1.28004,0.40801 1.84006,1.03204 3.60012,1.07204c0.50402,0 1.56005,-0.20001 1.60005,-0.80003s-0.80003,-0.97603 -1.30404,-1.18404c-0.88803,-0.37601 -1.93607,-0.36001 -2.76809,-0.80003a3.32011,3.32011 0 0 1 -1.62406,-2.33608a3.46412,3.46412 0 0 1 1.41605,-2.56809c2.13607,-1.28004 4.30415,-0.70402 6.52022,0.61602z" id="svg_6"/>
   <path d="m98.71884,31.77249l-2.40008,0l0,-13.42446l2.40008,0l0,13.42446z" id="svg_7"/>
   <path d="m93.96668,22.13216l0,9.60033l-2.40008,0l0,-9.60033l2.40008,0z" id="svg_8"/>
   <path d="m94.3907,19.96409a1.66406,1.66406 0 0 1 -1.60005,0.80003a1.30404,1.30404 0 0 1 -1.45605,-1.26404a1.60005,1.60005 0 0 1 3.0001,-0.80003a2.40008,2.40008 0 0 1 0.056,1.26404z" id="svg_9"/>
   <path d="m130.39192,31.9245c-0.52002,0 -1.99207,0 -1.99207,0l0,-0.80003s-0.57602,0.22401 -1.60005,0.53602a7.08824,7.08824 0 0 1 -3.56012,0.144c-1.45605,-0.32801 -2.05607,-1.60005 -1.97607,-3.0881s0.88003,-2.20007 2.26408,-2.68009a4.91217,4.91217 0 0 1 4.39215,0.24801c-0.18401,-0.48802 -0.24001,-1.48805 -0.80003,-1.85606c-1.45605,-1.04804 -2.9201,-0.35201 -4.40015,0.55202l-0.91203,-1.47205c1.90406,-2.00007 5.42418,-2.04007 6.87223,-1.00803a4.20014,4.20014 0 0 1 1.60005,2.40008a7.51226,7.51226 0 0 1 0.072,1.36005l0.04,5.66419zm-4.51215,-1.44805c0.85603,-0.16001 1.99207,-0.112 1.95207,-1.50405s-1.15204,-1.37605 -2.09607,-1.42405s-1.91206,0.33601 -1.88806,1.48805s0.94403,1.41605 2.04807,1.44005l-0.016,0z" id="svg_10"/>
   <path class="cls-1" d="m58.59748,20.71611l0,25.31286c-0.38401,0.23201 -0.44001,0.68802 -0.67202,1.03204a4.44815,4.44815 0 0 1 -3.62412,2.22408c-2.9441,0.056 -5.8962,0 -8.8483,0c0,-0.28001 -0.24001,-0.40801 -0.44802,-0.56002c-2.26408,-1.71206 -4.54415,-3.39212 -6.76823,-5.15217c-1.60005,-1.26404 -3.38411,-2.28808 -4.70416,-3.88013l4.59216,-3.68012c1.45605,-1.06404 2.9281,-2.09607 4.36815,-3.20011c3.93613,-3.0001 7.84827,-6.0162 11.7764,-9.02431c1.52805,-0.91203 2.75209,-2.24808 4.32815,-3.0721z" id="svg_11"/>
   <path class="cls-2" d="m46.96509,6.24362c-0.96803,1.36805 -1.28804,2.9921 -1.84806,4.52015a37.12926,37.12926 0 0 0 -2.19207,5.60019a25.20086,25.20086 0 0 0 -1.75206,4.58416c-0.31201,0.68002 -0.60802,1.36005 -0.92803,2.03207c-0.60002,1.24004 -1.60005,1.75206 -2.72009,1.35205a2.28008,2.28008 0 0 1 -1.36805,-2.9601c0.136,-0.47202 0.48002,-0.88803 0.46402,-1.40805a62.54612,62.54612 0 0 0 2.29608,-5.8802c0.84803,-2.00807 1.68806,-4.00014 2.33608,-6.08821c0.67202,-1.66406 1.38405,-3.31211 2.00007,-5.00017a5.69619,5.69619 0 0 1 1.43205,-2.28808a6.88023,6.88023 0 0 1 1.90406,0.104a1.60005,1.60005 0 0 1 1.15204,0.80003a4.43215,4.43215 0 0 1 -0.55202,3.40012a2.17607,2.17607 0 0 0 -0.22401,1.23204z" id="svg_12"/>
   <path class="cls-3" d="m57.07743,19.50807l1.52005,0.95203l0,0.25601c-1.60005,0.80003 -2.8001,2.16007 -4.32815,3.0641a10.56036,10.56036 0 0 0 -5.9042,-1.48005c-0.64002,0 -1.02403,-0.112 -1.24804,-0.74403a10.03234,10.03234 0 0 0 -0.67202,-1.34405a6.64823,6.64823 0 0 1 2.09607,-0.26401c2.46408,0 4.93617,0 7.40025,0c0.40801,-0.008 0.96803,0.26401 1.13604,-0.44001z" id="svg_13"/>
   <path class="cls-4" d="m45.45303,49.26108c-2.8241,0 -5.64819,0.048 -8.46429,0.056l-23.89681,0c-3.20011,0 -5.10417,-1.90406 -5.10417,-5.10417q0,-11.7524 0.048,-23.5048l1.14404,0.76003c1.64006,1.14404 3.09611,2.55209 4.84816,3.54412c0.31201,0.28001 0.60002,0.58402 0.92803,0.80003c4.98417,3.80013 9.96034,7.60826 14.97651,11.35239c1.16004,0.87203 2.14407,2.01607 3.60012,2.46408c1.32004,1.60005 3.11211,2.61609 4.70416,3.88013c2.22408,1.76006 4.50415,3.44012 6.76823,5.15217c0.20801,0.19201 0.42401,0.35201 0.44802,0.60002z" id="svg_14"/>
   <path class="cls-5" d="m46.44507,20.2121a10.03234,10.03234 0 0 1 0.67202,1.34405c0.22401,0.63202 0.60802,0.75203 1.24804,0.74403a10.56036,10.56036 0 0 1 5.9042,1.48005c-3.92813,3.0081 -7.84027,6.0242 -11.7764,9.02431c-1.44005,1.08804 -2.9121,2.12007 -4.36815,3.20011c-0.26401,-0.45602 -0.80003,-0.44001 -1.20004,-0.60002a9.84833,9.84833 0 0 1 -5.8482,-5.59219a11.7844,11.7844 0 0 0 -2.46408,-3.76813a11.01637,11.01637 0 0 0 -9.03231,-3.34411l1.00803,-2.26408l1.84006,-2.49608a25.00085,25.00085 0 0 1 3.80813,-3.0561c4.12014,-1.96007 8.32828,-2.54409 12.68043,-0.80003a62.54612,62.54612 0 0 1 -2.29608,5.8802a2.13607,2.13607 0 0 0 -1.65606,1.04804a5.32018,5.32018 0 0 0 2.76809,8.00027c0.60802,0.16801 0.95203,0 1.26404,-0.61602a8.63229,8.63229 0 0 1 2.59209,-3.38411c1.60005,-1.17604 1.42405,-2.9841 -0.42401,-4.07214a25.20086,25.20086 0 0 1 1.75206,-4.58416c1.19204,0.80003 1.96007,1.96807 2.9761,2.9121a1.50405,1.50405 0 0 0 0.55202,0.94403z" id="svg_15"/>
   <path class="cls-6" d="m19.58016,22.72418a11.01637,11.01637 0 0 1 9.03231,3.34411a11.7844,11.7844 0 0 1 2.46408,3.74413a9.84833,9.84833 0 0 0 5.8482,5.60019c0.41601,0.16001 0.93603,0.144 1.20004,0.60002l-4.59216,3.68012c-1.45605,-0.44802 -2.40008,-1.60005 -3.60012,-2.46408c-5.01617,-3.74413 -9.99234,-7.55226 -14.97651,-11.35239c-0.32801,-0.24801 -0.61602,-0.55202 -0.92803,-0.80003a10.09634,10.09634 0 0 1 5.55219,-2.35208z" id="svg_16"/>
   <path class="cls-7" d="m38.91681,14.09989c-4.35215,-1.73606 -8.56029,-1.15204 -12.68043,0.80003a2.68809,2.68809 0 0 0 -1.44805,-0.28801l-6.56022,0c-0.52002,0 -1.01603,0 -1.32805,-0.48802c3.75213,-2.74409 7.52026,-5.47219 11.25638,-8.24828c1.60005,-1.21604 3.24811,-2.36008 5.44819,-2.20007a6.04821,6.04821 0 0 1 3.20011,1.03204c1.50405,1.06404 2.9761,2.17607 4.46415,3.27211c-0.66402,2.11207 -1.50405,4.11214 -2.35208,6.12021z" id="svg_17"/>
   <path class="cls-8" d="m22.42825,17.96402l-1.84006,2.49608l-10.20035,0c-0.53602,0 -1.12804,0.104 -1.40005,-0.56002l3.80013,-2.76809c0.34401,0.45602 0.84803,0.28001 1.28804,0.28801c2.35208,0 4.71216,0 7.06424,0c0.50402,0.008 1.03204,-0.056 1.28804,0.54402z" id="svg_18"/>
   <path class="cls-9" d="m8.9718,19.90009c0.27201,0.66402 0.86403,0.56002 1.40005,0.56002l10.21635,0l-1.00803,2.26408a10.09634,10.09634 0 0 0 -5.55219,2.28808c-1.75206,-1.00003 -3.20011,-2.40008 -4.84816,-3.54412l-1.14404,-0.76003c0.136,-0.49602 0.59202,-0.57602 0.93603,-0.80803z" id="svg_19"/>
   <path class="cls-10" d="m22.42825,17.96402c-0.25601,-0.60002 -0.80003,-0.53602 -1.29604,-0.53602c-2.35208,0 -4.71216,0 -7.06424,0c-0.44001,0 -0.94403,0.16801 -1.28804,-0.28801l4.12014,-2.9761c0.31201,0.50402 0.80003,0.49602 1.32805,0.48802l6.56022,0a2.68809,2.68809 0 0 1 1.45605,0.27201a25.00085,25.00085 0 0 0 -3.81613,3.0401z" id="svg_20"/>
   <path class="cls-11" d="m46.96509,6.24362a2.17607,2.17607 0 0 1 0.22401,-1.23204a4.43215,4.43215 0 0 0 0.54402,-3.40812c2.35208,1.46405 4.72016,2.9121 7.04824,4.40815a2.10407,2.10407 0 0 1 0.66402,3.0001a2.17607,2.17607 0 0 1 -3.0881,0.70402c-1.81606,-1.12004 -3.56812,-2.30408 -5.39218,-3.47212z" id="svg_21"/>
   <path class="cls-12" d="m45.90105,19.29207c-1.01603,-0.94403 -1.78406,-2.14407 -2.9761,-2.9121a37.12926,37.12926 0 0 1 2.19207,-5.60019l3.12011,2.34408a16.05655,16.05655 0 0 0 -1.53605,4.05614a5.21618,5.21618 0 0 0 -0.80003,2.11207z" id="svg_22"/>
   <path class="cls-8" d="m45.90105,19.29207a5.21618,5.21618 0 0 1 0.80003,-2.12807c0.33601,0.70402 1.00003,0.53602 1.55205,0.50402c1.96007,-0.128 3.94413,0.35201 5.8722,-0.28001l2.9521,2.12007c-0.16801,0.67202 -0.72802,0.43201 -1.13604,0.44001c-2.46408,0 -4.93617,0 -7.40025,0a6.64823,6.64823 0 0 0 -2.09607,0.26401a1.50405,1.50405 0 0 1 -0.54402,-0.92003z" id="svg_23"/>
   <path class="cls-13" d="m54.12533,17.388c-1.92807,0.63202 -3.91213,0.15201 -5.8722,0.28001c-0.55202,0 -1.21604,0.20001 -1.55205,-0.50402a16.05655,16.05655 0 0 1 1.53605,-4.05614l5.8882,4.28015z" id="svg_24"/>
   <path class="cls-14" d="m41.17289,20.96412c1.84806,1.08804 2.01607,2.8961 0.41601,4.04814a8.63229,8.63229 0 0 0 -2.60009,3.34411c-0.31201,0.64802 -0.65602,0.80003 -1.26404,0.61602a5.32018,5.32018 0 0 1 -2.76809,-8.00027a2.13607,2.13607 0 0 1 1.65606,-1.01603c0,0.52002 -0.32801,0.93603 -0.46402,1.40805a2.28008,2.28008 0 0 0 1.36805,2.9601c1.08004,0.40001 2.12007,-0.112 2.72009,-1.35205c0.32801,-0.64802 0.62402,-1.32805 0.93603,-2.00807z" id="svg_25"/>
  </g>
 </g>
</svg>