<svg xmlns="http://www.w3.org/2000/svg" viewBox="0 0 240 90"><defs><style>.cls-1{fill:#646b71;}.cls-2{fill:#84c011;}</style></defs><title>mambu-logo_240x90_web</title><g id="Guidelines"><g id="ojH43F"><path class="cls-1" d="M89.47,62.84l-9.55-22H79.8c-.06.86-.13,1.72-.16,2.58-.13,3.49-.24,7-.38,10.46-.1,2.57-.23,5.14-.33,7.71,0,.28,0,.8,0,.8h-.8c-.59,0-1.18,0-1.77,0,0-1.24,0-2.4,0-3.57.13-2.94.3-5.89.44-8.83.23-5,.44-10,.69-14.95,0-.43.07-1.76.07-1.76s1.85.39,2.25,1.15C80.42,35.6,81,36.8,81.54,38q3.92,9.15,7.79,18.34s.08.07.17.16a2.5,2.5,0,0,0,.24-.36c1-2.49,2.08-5,3.13-7.48Q95.1,43.37,97.37,38c.42-1,.83-2,1.33-2.93a4.5,4.5,0,0,1,1.22-1.53,6.8,6.8,0,0,1,1.38-.48s.07,1.1.1,1.61c.16,2.62.28,5.25.4,7.87q.4,8.24.79,16.47c0,1.07,0,2.14,0,3.23a.54.54,0,0,1-.19.07c-.67,0-1.42,0-2.18,0,0-.58-.11-1.24-.15-1.87-.16-2.84-.28-5.68-.41-8.52-.18-3.69-.34-7.38-.64-11.11Z"/><path class="cls-1" d="M155.88,40.67c-3.22,7.44-6.37,14.72-9.6,22.21l-9.62-22.26c-.07,1.15-.14,2.09-.18,3-.18,4.21-.35,8.42-.54,12.62-.08,1.83-.21,3.65-.29,5.47l0,.6-.58,0c-1,.07-1.89.05-1.89.05s0-.87,0-1.84c.23-5.3.5-10.61.75-15.91.16-3.29.29-6.59.47-9.88,0-.54.16-1.3.16-1.3a4.93,4.93,0,0,1,1.59.47,3.27,3.27,0,0,1,1,1.29c1.33,3,2.61,6,3.91,9.08,1.06,2.49,2.13,5,3.19,7.46.58,1.38,1.13,2.78,1.71,4.16.07.19.16.38.32.72.62-1.46,1.17-2.78,1.73-4.09,1.08-2.54,2.18-5.07,3.26-7.61,1.29-3.06,2.59-6.11,3.87-9.18.65-1.58,1.24-2.09,2.41-2.07h.6s.06.47.06.65q.21,5.1.45,10.2c.25,5.28.52,10.56.78,15.83v.24c0,.88,0,1.66,0,1.66l-1.69.08-.89,0s-.05-.73-.06-1.07c-.11-2.57-.23-5.14-.34-7.71L156,41.1A2.63,2.63,0,0,0,155.88,40.67Z"/><path class="cls-1" d="M179.38,47.39a21,21,0,0,1,1.8,1.38,8.33,8.33,0,0,1,1.41,9.54,7,7,0,0,1-6.25,4c-2.89.15-5.79.06-8.68.05a1.73,1.73,0,0,1-1.82-1.83q0-12.48,0-24.94a1.67,1.67,0,0,1,1.51-1.79,75.61,75.61,0,0,1,9.16.1c4.73.52,6.85,4.75,5.91,9.2a6.83,6.83,0,0,1-2.36,3.73Zm-11,6.83v4.91c0,.41,0,.74.58.74,2.52,0,5.05.06,7.56-.06a4.5,4.5,0,0,0,4.35-3.23,5.54,5.54,0,0,0-4.08-7.51,48.63,48.63,0,0,0-7.93-.33c-.16,0-.45.47-.46.73C168.31,51.06,168.33,52.64,168.33,54.22Zm0-13.11c0,1.5,0,3,0,4.5,0,.56.2.75.76.74,1.87,0,3.75,0,5.62,0a5.8,5.8,0,0,0,4-1.53,5.1,5.1,0,0,0,1.42-5.44,4,4,0,0,0-3.8-3.28c-2.45-.17-4.92-.11-7.38-.15-.55,0-.58.35-.58.76Z"/><path class="cls-1" d="M128.67,62.32c-1.13.07-2.48.07-2.48.07s-.42-1.16-.61-2c-.58-2.58-1.18-5.16-1.73-7.75-.06-.28-.14-.75-.14-.75H112.25s-.12.44-.18.71c-.6,2.77-1.26,5.53-1.87,8.3-.14.63-.33,1.38-.33,1.38l-2.68-.08c.19-.85.37-1.7.57-2.55.85-3.54,1.71-7.08,2.55-10.62s1.67-7.25,2.56-10.86c.49-2,1.46-3.65,3.6-4.26,3-.87,5.8.93,6.59,4.26.71,3,1.39,6.1,2.11,9.15.66,2.81,1.38,5.62,2,8.43.47,2,.9,4,1.34,5.95C128.59,61.9,128.64,62.14,128.67,62.32ZM112.92,49.23H123c-.11-.44-.18-.75-.25-1.06-.69-3-1.36-6-2.08-9a5.32,5.32,0,0,0-.79-1.9,2.29,2.29,0,0,0-2.58-.86,2.68,2.68,0,0,0-2,2.14c-.71,3.08-1.41,6.15-2.12,9.23C113.14,48.25,113,48.71,112.92,49.23Z"/><path class="cls-1" d="M189,33.84a2,2,0,0,1,2.45,1.38,6.21,6.21,0,0,1,.16,1.43q0,8.18,0,16.34A7.23,7.23,0,0,0,193,57.3c1.6,2.25,4,2.82,6.54,2.63,4.42-.34,6.37-3.78,6.34-7.65,0-5.18,0-10.36,0-15.54a7.79,7.79,0,0,1,.07-1.28,1.88,1.88,0,0,1,2.46-1.63v.84q0,9.3,0,18.6a8.88,8.88,0,0,1-8,9.09,11.23,11.23,0,0,1-5.46-.52,8.09,8.09,0,0,1-5.68-7.29c-.2-2.4-.16-4.82-.17-7.23,0-4.21,0-8.43,0-12.64Z"/></g><g id="lTm1To.tif"><path class="cls-2" d="M31.76,46.41A7.42,7.42,0,0,1,33,43.06a3.56,3.56,0,0,1,5.54-.26,12.57,12.57,0,0,1,2,3,17.4,17.4,0,0,0,2.25,3.5,11.9,11.9,0,0,0,5.87,3.9,6.86,6.86,0,0,0,4.43-.12,7.29,7.29,0,0,0,4.14-4.35,22.34,22.34,0,0,0,1.18-5.36c.19-1.3.32-2.62.52-3.92a6.18,6.18,0,0,1,1-2.71,2.34,2.34,0,0,1,2.54-1,4.72,4.72,0,0,1,2.66,2A18.81,18.81,0,0,1,68,46.58a13.84,13.84,0,0,1-.23,3.78,18.76,18.76,0,0,1-2,6.08A18.07,18.07,0,0,1,63.23,60a17.82,17.82,0,0,1-6.13,4.38,17.52,17.52,0,0,1-5.93,1.47,24.23,24.23,0,0,1-3.71-.14A16,16,0,0,1,41.82,64a18.42,18.42,0,0,1-5.23-3.87,18.16,18.16,0,0,1-3-4.27,17.48,17.48,0,0,1-1.75-5.51A18.72,18.72,0,0,1,31.76,46.41Z"/><path class="cls-2" d="M51.67,29.61a17.51,17.51,0,0,1,6.09,1.69c.73.34,1.42.75,2.13,1.13a2.69,2.69,0,0,1,.29.25H59a3.61,3.61,0,0,0-2.33.77A6.83,6.83,0,0,0,54.71,36C54.3,37,54,38,53.5,38.87A3.7,3.7,0,0,1,50.74,41a5.26,5.26,0,0,1-3.33-.55c-1-.54-2-1.19-3-1.82a10.56,10.56,0,0,0-4.48-1.84,6.46,6.46,0,0,0-3.5.73c-.45.21-.9.43-1.36.61a2.28,2.28,0,0,1-.64,0l0-.11c.41-.58.79-1.18,1.24-1.74A18.53,18.53,0,0,1,37,34.78a18,18,0,0,1,6.21-4.07,15.54,15.54,0,0,1,4.6-1.1A26.14,26.14,0,0,1,51.67,29.61Z"/></g></g></svg>