<?xml version="1.0"?>
<svg width="160" height="50" xmlns="http://www.w3.org/2000/svg" xmlns:svg="http://www.w3.org/2000/svg">
 <g>
  <title>Layer 1</title>
  <g display="none" id="Layer_2">
   <rect id="svg_1" height="90" width="260" stroke-miterlimit="10" stroke-width="1.1277" stroke="#E8E7E7" fill="none" x="-10"/>
  </g>
  <g stroke="null" id="Layer_1">
   <g stroke="null" id="svg_2">
    <path stroke="null" d="m0.599998,16.999822l9.062149,-1.274365l0,8.778957l-9.062149,0l0,-7.504592zm9.062149,8.637361l0,8.637361l-9.062149,-1.274365l0,-7.362996l9.062149,0l0,0l0,0zm0.991173,-10.053322l12.035667,-1.628355l0,10.548908l-12.035667,0l0,-8.920553zm12.106465,10.053322l0,10.407312l-12.035667,-1.628355l0,-8.778957l12.035667,0z" fill="#22AAE2" id="path13"/>
    <path stroke="null" id="svg_3" d="m41.167275,31.51342l0,-8.000178c0,-0.920375 0,-1.628355 0.070798,-2.265537l0,-0.424788l0,0c-0.141596,0.637182 -0.212394,1.132769 -0.35399,1.415961l-3.823094,9.274543l-1.345163,0l-3.893892,-9.203745c-0.070798,-0.141596 -0.141596,-0.637182 -0.35399,-1.486759l-0.070798,0c0.070798,0.70798 0.070798,1.699153 0.070798,2.973518l0,7.716986l-1.911547,0l0,-12.602051l3.044316,0l3.185912,7.92938c0.283192,0.778778 0.495586,1.345163 0.566384,1.699153l0.070798,0c0.212394,-0.70798 0.495586,-1.274365 0.637182,-1.769951l3.327508,-7.92938l2.90272,0l0,12.602051l-2.123941,0.070798l0,0z" fill="#22AAE2"/>
    <path stroke="null" id="svg_4" d="m47.255906,20.468926c-0.35399,0 -0.637182,-0.070798 -0.849576,-0.35399c-0.283192,-0.212394 -0.35399,-0.495586 -0.35399,-0.778778c0,-0.35399 0.070798,-0.637182 0.35399,-0.849576c0.212394,-0.212394 0.495586,-0.35399 0.849576,-0.35399c0.35399,0 0.637182,0.070798 0.920375,0.35399c0.212394,0.212394 0.35399,0.495586 0.35399,0.849576c0,0.283192 -0.070798,0.566384 -0.35399,0.849576c-0.283192,0.212394 -0.566384,0.283192 -0.920375,0.283192zm-1.061971,11.044494l0,-8.991351l2.053143,0l0,8.991351l-2.053143,0z" fill="#22AAE2"/>
    <path stroke="null" id="svg_5" d="m57.380026,31.15943c-0.70798,0.424788 -1.486759,0.566384 -2.548729,0.566384c-1.345163,0 -2.407133,-0.424788 -3.185912,-1.274365c-0.920375,-0.849576 -1.345163,-1.911547 -1.345163,-3.185912c0,-1.486759 0.424788,-2.761124 1.345163,-3.6107c0.849576,-0.849576 2.053143,-1.345163 3.539902,-1.345163c0.849576,0 1.557557,0.141596 2.123941,0.424788l0,1.911547c-0.637182,-0.495586 -1.345163,-0.70798 -2.053143,-0.70798c-0.849576,0 -1.486759,0.283192 -2.053143,0.849576c-0.495586,0.566384 -0.778778,1.345163 -0.778778,2.265537c0,0.920375 0.212394,1.628355 0.778778,2.194739c0.495586,0.566384 1.203567,0.778778 2.053143,0.778778c0.70798,0 1.415961,-0.212394 2.123941,-0.778778l0,1.911547l0,0z" fill="#22AAE2"/>
    <path stroke="null" id="svg_6" d="m64.672224,24.504414c-0.35399,-0.212394 -0.70798,-0.283192 -1.203567,-0.283192c-0.566384,0 -1.061971,0.212394 -1.415961,0.778778c-0.35399,0.495586 -0.566384,1.203567 -0.566384,1.982345l0,4.601873l-2.053143,0l0,-9.062149l2.053143,0l0,1.769951l0,0c0.424788,-1.274365 1.203567,-1.911547 2.336335,-1.911547c0.35399,0 0.637182,0 0.849576,0.141596l0,1.982345l0,0z" fill="#22AAE2"/>
    <path stroke="null" id="svg_7" d="m70.123673,31.725814c-1.415961,0 -2.477931,-0.424788 -3.327508,-1.274365c-0.849576,-0.849576 -1.274365,-1.911547 -1.274365,-3.327508c0,-1.486759 0.424788,-2.690325 1.274365,-3.539902c0.849576,-0.849576 1.982345,-1.274365 3.469104,-1.274365c1.415961,0 2.477931,0.424788 3.25671,1.274365c0.778778,0.849576 1.203567,1.982345 1.203567,3.398306c0,1.486759 -0.424788,2.619527 -1.274365,3.469104c-0.778778,0.849576 -1.911547,1.274365 -3.327508,1.274365zm0.070798,-7.787784c-0.778778,0 -1.415961,0.283192 -1.840749,0.778778c-0.424788,0.566384 -0.70798,1.345163 -0.70798,2.265537s0.212394,1.699153 0.70798,2.194739s1.061971,0.778778 1.840749,0.778778c1.628355,0 2.477931,-1.061971 2.477931,-3.044316c0,-0.991173 -0.212394,-1.769951 -0.637182,-2.265537c-0.424788,-0.424788 -0.991173,-0.70798 -1.840749,-0.70798z" fill="#22AAE2"/>
    <path stroke="null" id="svg_8" d="m76.707891,31.230228l0,-1.911547c0.778778,0.566384 1.557557,0.849576 2.407133,0.849576c0.991173,0 1.486759,-0.283192 1.486759,-0.991173c0,-0.283192 -0.070798,-0.566384 -0.283192,-0.70798c-0.212394,-0.141596 -0.70798,-0.424788 -1.415961,-0.70798c-0.849576,-0.35399 -1.486759,-0.778778 -1.699153,-1.203567s-0.424788,-0.920375 -0.424788,-1.486759c0,-0.778778 0.283192,-1.486759 0.991173,-1.982345s1.486759,-0.778778 2.477931,-0.778778c0.70798,0 1.415961,0.141596 1.982345,0.35399l0,1.840749c-0.637182,-0.424788 -1.345163,-0.637182 -2.053143,-0.637182c-0.424788,0 -0.70798,0.070798 -0.991173,0.283192c-0.212394,0.141596 -0.35399,0.424788 -0.35399,0.70798s0.070798,0.495586 0.212394,0.70798c0.141596,0.141596 0.566384,0.424788 1.345163,0.70798c0.849576,0.35399 1.486759,0.70798 1.769951,1.132769c0.35399,0.424788 0.495586,0.920375 0.495586,1.486759c0,0.849576 -0.283192,1.486759 -0.991173,1.982345s-1.486759,0.778778 -2.619527,0.778778c-0.778778,0.070798 -1.628355,-0.070798 -2.336335,-0.424788z" fill="#22AAE2"/>
    <path stroke="null" id="svg_9" d="m88.885154,31.725814c-1.415961,0 -2.477931,-0.424788 -3.327508,-1.274365s-1.274365,-1.911547 -1.274365,-3.327508c0,-1.486759 0.424788,-2.690325 1.274365,-3.539902c0.849576,-0.849576 1.982345,-1.274365 3.469104,-1.274365c1.415961,0 2.477931,0.424788 3.25671,1.274365s1.203567,1.982345 1.203567,3.398306c0,1.486759 -0.424788,2.619527 -1.274365,3.469104c-0.778778,0.849576 -1.911547,1.274365 -3.327508,1.274365zm0.070798,-7.787784c-0.778778,0 -1.415961,0.283192 -1.840749,0.778778s-0.70798,1.345163 -0.70798,2.265537s0.212394,1.699153 0.70798,2.194739s1.061971,0.778778 1.840749,0.778778c1.628355,0 2.477931,-1.061971 2.477931,-3.044316c0,-0.991173 -0.212394,-1.769951 -0.637182,-2.265537c-0.424788,-0.495586 -1.061971,-0.70798 -1.840749,-0.70798z" fill="#22AAE2"/>
    <path stroke="null" id="svg_10" d="m100.92082,19.831744c-0.283192,-0.141596 -0.637182,-0.212394 -0.991173,-0.212394c-0.920375,0 -1.415961,0.566384 -1.415961,1.628355l0,1.203567l1.982345,0l0,1.628355l-1.982345,0l0,7.362996l-2.053143,0l0,-7.292198l-1.486759,0l0,-1.628355l1.486759,0l0,-1.345163c0,-0.991173 0.283192,-1.699153 0.920375,-2.336335c0.566384,-0.566384 1.415961,-0.920375 2.336335,-0.920375c0.495586,0 0.849576,0.070798 1.203567,0.141596l0,1.769951l0,0z" fill="#22AAE2"/>
    <path stroke="null" id="svg_11" d="m107.009452,31.442622c-0.424788,0.212394 -0.920375,0.283192 -1.557557,0.283192c-1.769951,0 -2.619527,-0.920375 -2.619527,-2.831922l0,-4.743469l-1.486759,0l0,-1.628355l1.486759,0l0,-2.053143l2.053143,-0.637182l0,2.690325l2.194739,0l0,1.628355l-2.194739,0l0,4.389478c0,0.566384 0.070798,0.991173 0.283192,1.203567c0.212394,0.212394 0.495586,0.35399 0.991173,0.35399c0.283192,0 0.637182,-0.070798 0.920375,-0.283192l-0.070798,1.628355l0,0z" fill="#22AAE2"/>
    <path stroke="null" id="svg_12" d="m122.018636,31.51342l-1.132769,-3.185912l-5.026661,0l-1.132769,3.185912l-2.265537,0l4.743469,-12.602051l2.336335,0l4.743469,12.602051l-2.265537,0zm-3.469104,-9.840927c-0.070798,-0.212394 -0.141596,-0.495586 -0.141596,-0.920375l-0.070798,0c0,0.35399 -0.070798,0.637182 -0.141596,0.920375l-1.699153,4.814267l3.893892,0l-1.840749,-4.814267z" fill="#22AAE2"/>
    <path stroke="null" id="svg_13" d="m127.682479,29.885065l4.814267,0l0,1.628355l-7.646188,0l0,-0.70798l4.885065,-6.655016l-4.389478,0l0,-1.628355l7.150602,0l0,0.778778l-4.814267,6.584218z" fill="#22AAE2"/>
    <path stroke="null" id="svg_14" d="m140.142934,31.51342l0,-1.345163l0,0c-0.637182,1.061971 -1.486759,1.557557 -2.690325,1.557557c-2.123941,0 -3.185912,-1.274365 -3.185912,-3.752296l0,-5.451449l2.053143,0l0,5.168257c0,1.557557 0.637182,2.336335 1.840749,2.336335c0.637182,0 1.132769,-0.212394 1.486759,-0.637182c0.35399,-0.424788 0.566384,-0.991173 0.566384,-1.699153l0,-5.168257l2.053143,0l0,8.991351l-2.123941,0z" fill="#22AAE2"/>
    <path stroke="null" id="svg_15" d="m150.337852,24.504414c-0.35399,-0.212394 -0.70798,-0.283192 -1.203567,-0.283192c-0.566384,0 -1.061971,0.212394 -1.415961,0.778778c-0.35399,0.495586 -0.566384,1.203567 -0.566384,1.982345l0,4.601873l-1.982345,0l0,-9.062149l2.053143,0l0,1.769951l0,0c0.424788,-1.274365 1.203567,-1.911547 2.336335,-1.911547c0.35399,0 0.637182,0 0.849576,0.141596l-0.070798,1.982345l0,0z" fill="#22AAE2"/>
    <path stroke="null" id="svg_16" d="m153.31137,27.619528c0.070798,1.628355 0.991173,2.548729 2.690325,2.548729c0.991173,0 1.840749,-0.283192 2.690325,-0.849576l0,1.699153c-0.849576,0.495586 -1.911547,0.778778 -3.185912,0.778778c-1.345163,0 -2.407133,-0.424788 -3.185912,-1.203567c-0.778778,-0.778778 -1.132769,-1.911547 -1.132769,-3.398306c0,-1.486759 0.424788,-2.619527 1.274365,-3.469104c0.849576,-0.849576 1.840749,-1.274365 2.973518,-1.274365c1.274365,0 2.194739,0.35399 2.90272,1.132769c0.70798,0.778778 1.061971,1.840749 1.061971,3.115114l0,0.991173l-6.088631,-0.070798l0,0zm4.106286,-1.557557c0,-1.486759 -0.637182,-2.194739 -1.911547,-2.194739c-0.566384,0 -0.991173,0.212394 -1.415961,0.566384s-0.637182,0.920375 -0.778778,1.557557l4.106286,0l0,0.070798z" fill="#22AAE2"/>
   </g>
  </g>
 </g>
</svg>