<svg width="160" height="50" xmlns="http://www.w3.org/2000/svg" xmlns:svg="http://www.w3.org/2000/svg" xmlns:xlink="http://www.w3.org/1999/xlink">
 <style type="text/css">.st0{display:none;}
	.st1{display:inline;}
	.st2{fill:#0C0407;}
	.st3{fill:#35A8E1;}</style>
 <defs>
  <symbol id="svg_41" viewBox="0 0 240 90" xmlns="http://www.w3.org/2000/svg" xmlns:xlink="http://www.w3.org/1999/xlink">
   <g display="none" id="svg_40">
    <rect fill="none" height="90" id="svg_44" stroke="#E8E7E7" stroke-miterlimit="10" stroke-width="1.1277" width="260" x="-10"/>
   </g>
   <g id="svg_39">
    <g id="svg_45">
     <path d="m92.8,74.3l-4,0c-0.2,-6.8 -0.6,-13.3 -1.3,-19.3l0,0l-6.2,19.3l-3.1,0l-6.1,-19.3l0,0c-0.5,5.8 -0.7,12.2 -0.9,19.3l-3.7,0c0.2,-8.6 0.8,-16.7 1.8,-24.2l5,0l5.8,17.8l0,0l5.9,-17.8l4.8,0c1.2,8.8 1.8,16.9 2,24.2" fill="#6A7E91" id="svg_46"/>
     <path d="m110.3,56.4c-1.6,8.9 -3.8,15.4 -6.5,19.5c-2.1,3.1 -4.4,4.7 -6.9,4.7c-0.7,0 -1.5,-0.2 -2.5,-0.6l0,-2.2c0.5,0.1 1,0.1 1.7,0.1c1.2,0 2.1,-0.3 2.8,-1c0.9,-0.8 1.3,-1.7 1.3,-2.7c0,-0.7 -0.3,-2 -1,-4.1l-4.4,-13.8l4,0l3.2,10.3c0.7,2.3 1,4 0.9,4.9c1.7,-4.7 3,-9.7 3.7,-15.2l3.7,0l0,0.1z" fill="#6A7E91" id="svg_47"/>
     <polygon fill="#FA8A3B" id="svg_48" points="164.2,74.3 152.7,74.3 152.7,50.1 156.6,50.1 156.6,71.3 164.2,71.3   "/>
     <path clip-rule="evenodd" d="m149.7,74.9l-4.4,-2.2c0.4,-0.3 0.8,-0.7 1.1,-1.1c1.9,-2.2 2.8,-5.5 2.8,-9.9c0,-8 -3.1,-12 -9.4,-12c-3.1,0 -5.5,1 -7.2,3c-1.9,2.2 -2.8,5.5 -2.8,9.8c0,4.3 0.8,7.4 2.5,9.4c1.5,1.8 3.8,2.7 6.9,2.7c1.2,0 2.2,-0.1 3.2,-0.4l5.8,3.4l1.5,-2.7zm-14.4,-5.5c-1,-1.6 -1.5,-4.1 -1.5,-7.6c0,-6.1 1.9,-9.1 5.6,-9.1c1.9,0 3.4,0.7 4.3,2.2c1,1.6 1.5,4.1 1.5,7.5c0,6.1 -1.9,9.2 -5.6,9.2c-2,0 -3.4,-0.7 -4.3,-2.2" fill="#FA8A3B" fill-rule="evenodd" id="svg_49"/>
     <path d="m128.1,67.6c0,2.1 -0.8,3.7 -2.3,5.1c-1.5,1.3 -3.5,2 -6.1,2c-2.4,0 -4.7,-0.8 -6.9,-2.3l1,-2.1c1.9,1 3.6,1.4 5.2,1.4c1.5,0 2.6,-0.3 3.4,-1c0.8,-0.6 1.3,-1.5 1.3,-2.7c0,-1.4 -1,-2.7 -2.8,-3.7c-1.7,-0.9 -5.1,-2.9 -5.1,-2.9c-1.8,-1.3 -2.8,-2.8 -2.8,-5.1c0,-2 0.7,-3.5 2.1,-4.7c1.4,-1.2 3.1,-1.8 5.3,-1.8c2.2,0 4.3,0.6 6.1,1.8l-0.9,2.1c-1.6,-0.7 -3.1,-1 -4.7,-1c-1.2,0 -2.2,0.3 -2.9,0.9c-0.7,0.6 -1.1,1.4 -1.1,2.3c0,1.4 1,2.7 2.9,3.7c1.7,0.9 5.2,2.9 5.2,2.9c2.1,1.3 3.1,2.7 3.1,5.1" fill="#FA8A3B" id="svg_50"/>
     <path clip-rule="evenodd" d="m169.1,42c-2.3,-0.1 -4.1,0.2 -5.7,0.8c-0.4,0.2 -1.1,0.2 -1.2,0.7c0.2,0.2 0.3,0.6 0.5,0.9c0.4,0.6 1,1.4 1.5,1.8c0.6,0.5 1.2,0.9 1.9,1.3c1.1,0.7 2.4,1.1 3.5,1.8c0.6,0.4 1.3,0.9 1.9,1.4c0.3,0.2 0.5,0.6 0.9,0.8l0,-0.1c-0.2,-0.3 -0.3,-0.6 -0.5,-0.9c-0.3,-0.3 -0.6,-0.6 -0.9,-0.8c-0.8,-1.1 -1.9,-2.1 -3,-3c-0.9,-0.6 -3,-1.5 -3.4,-2.6c0,0 0,0 -0.1,-0.1c0.6,-0.1 1.4,-0.3 2,-0.5c1,-0.3 1.9,-0.2 2.9,-0.5c0.5,-0.1 0.9,-0.3 1.4,-0.4l0,-0.3c-0.5,-0.5 -0.9,-1.2 -1.5,-1.7c-1.5,-1.3 -3.1,-2.5 -4.8,-3.6c-0.9,-0.6 -2.1,-1 -3,-1.5c-0.3,-0.2 -0.9,-0.3 -1.1,-0.6c-0.5,-0.6 -0.8,-1.5 -1.2,-2.2c-0.8,-1.6 -1.7,-3.4 -2.4,-5.1c-0.5,-1.1 -0.8,-2.3 -1.5,-3.3c-3,-5 -6.3,-8 -11.3,-10.9c-1.1,-0.6 -2.4,-0.9 -3.7,-1.2c-0.7,0 -1.5,-0.1 -2.2,-0.1c-0.5,-0.2 -0.9,-0.8 -1.3,-1c-1.7,-1.1 -6,-3.3 -7.2,-0.3c-0.8,1.9 1.2,3.8 1.8,4.7c0.5,0.7 1.1,1.4 1.5,2.2c0.2,0.5 0.3,1 0.5,1.5c0.5,1.3 0.9,2.7 1.5,3.9c0.3,0.6 0.7,1.3 1.1,1.8c0.2,0.3 0.6,0.5 0.7,1c-0.4,0.6 -0.4,1.5 -0.7,2.2c-1.1,3.3 -0.6,7.4 0.8,9.8c0.5,0.7 1.6,2.3 3.1,1.7c1.3,-0.5 1,-2.2 1.4,-3.7c0.1,-0.4 0,-0.6 0.2,-0.8l0,0.1c0.4,0.8 0.8,1.6 1.2,2.4c0.9,1.4 2.5,2.9 3.8,3.9c0.7,0.5 1.3,1.4 2.1,1.8l0,-0.1l-0.1,0c-0.2,-0.3 -0.4,-0.4 -0.7,-0.6c-0.5,-0.5 -1.1,-1.2 -1.5,-1.8c-1.2,-1.6 -2.3,-3.4 -3.3,-5.3c-0.5,-0.9 -0.9,-1.9 -1.3,-2.8c-0.2,-0.3 -0.2,-0.9 -0.5,-1.1c-0.4,0.6 -1.1,1.2 -1.4,2c-0.6,1.3 -0.6,2.8 -0.8,4.4c-0.1,0 -0.1,0 -0.1,0.1c-0.9,-0.2 -1.3,-1.2 -1.6,-2c-0.9,-2.1 -1,-5.4 -0.3,-7.8c0.2,-0.6 1.1,-2.5 0.7,-3.1c-0.2,-0.6 -0.8,-0.9 -1.1,-1.3c-0.4,-0.6 -0.8,-1.3 -1.1,-1.9c-0.7,-1.6 -1.1,-3.4 -1.8,-5.1c-0.4,-0.8 -1,-1.6 -1.5,-2.3c-0.6,-0.8 -1.2,-1.3 -1.6,-2.3c-0.1,-0.3 -0.3,-0.8 -0.1,-1.2c0.1,-0.2 0.2,-0.3 0.4,-0.4c0.4,-0.3 1.5,0.1 1.8,0.3c1.1,0.4 2,0.8 2.9,1.5c0.4,0.3 0.8,0.8 1.4,1l0.6,0c0.9,0.2 2,0.1 2.9,0.3c1.5,0.5 2.9,1.2 4.2,2c3.8,2.4 7,5.9 9.1,10c0.4,0.7 0.5,1.3 0.8,2c0.6,1.4 1.4,2.9 2,4.3c0.6,1.4 1.2,2.8 2.1,3.9c0.4,0.6 2.2,0.9 3,1.3c0.6,0.3 1.5,0.5 2,0.8c1,0.6 2,1.3 2.9,2c0.9,0.6 2.4,1.3 2.5,1.9" fill="#6A7E91" fill-rule="evenodd" id="svg_51"/>
     <path clip-rule="evenodd" d="m139.3,16.6c-0.5,0 -0.8,0.1 -1.2,0.1l0,0.1l0.1,0c0.2,0.5 0.6,0.8 0.9,1.2c0.2,0.5 0.4,0.9 0.7,1.4c0,0 0.1,-0.1 0.1,-0.1c0.4,-0.3 0.6,-0.8 0.6,-1.5c-0.2,-0.2 -0.2,-0.4 -0.4,-0.6c-0.2,-0.2 -0.6,-0.4 -0.8,-0.6" fill="#6A7E91" fill-rule="evenodd" id="svg_52"/>
     <path d="m171.9,74.3l0.6,0l0,-3l-0.9,0l-0.7,2l-0.8,-2l-0.9,0l0,3l0.6,0l0,-2.3l0,0l0.8,2.3l0.4,0l0.8,-2.3l0,2.3l0.1,0zm-4.9,0l0.6,0l0,-2.5l0.8,0l0,-0.5l-2.4,0l0,0.5l0.9,0l0,2.5l0.1,0z" fill="#FA8A3B" id="svg_53"/>
    </g>
   </g>
  </symbol>
 </defs>
 <g class="layer">
  <title>Layer 1</title>
  <g class="st0" id="Layer_1">
   <g class="st1" id="svg_1">
    <path class="st2" d="m240,673.4l1.6,-0.1c0.1,0.6 0.3,1.2 0.5,1.6c0.3,0.4 0.7,0.7 1.3,1c0.6,0.3 1.2,0.4 2,0.4c0.7,0 1.2,-0.1 1.7,-0.3s0.9,-0.5 1.1,-0.8s0.4,-0.7 0.4,-1.1c0,-0.4 -0.1,-0.8 -0.4,-1.1s-0.6,-0.6 -1.2,-0.8c-0.3,-0.1 -1.1,-0.3 -2.3,-0.6s-2,-0.6 -2.5,-0.8c-0.6,-0.3 -1.1,-0.7 -1.4,-1.2c-0.3,-0.5 -0.5,-1 -0.5,-1.6c0,-0.7 0.2,-1.3 0.6,-1.8s0.9,-1 1.6,-1.3s1.5,-0.4 2.4,-0.4c1,0 1.8,0.2 2.5,0.5c0.7,0.3 1.3,0.8 1.7,1.4s0.6,1.3 0.6,2l-1.6,0.1c-0.1,-0.8 -0.4,-1.4 -0.9,-1.8c-0.5,-0.4 -1.3,-0.6 -2.2,-0.6c-1,0 -1.8,0.2 -2.3,0.6c-0.5,0.4 -0.7,0.8 -0.7,1.4c0,0.5 0.2,0.8 0.5,1.1c0.3,0.3 1.2,0.6 2.6,0.9c1.4,0.3 2.3,0.6 2.9,0.8c0.8,0.3 1.3,0.8 1.7,1.3s0.5,1.1 0.5,1.8c0,0.7 -0.2,1.3 -0.6,1.9c-0.4,0.6 -1,1.1 -1.7,1.4c-0.7,0.3 -1.6,0.5 -2.5,0.5c-1.2,0 -2.1,-0.2 -2.9,-0.5c-0.8,-0.3 -1.4,-0.9 -1.9,-1.5c-0.3,-0.7 -0.6,-1.5 -0.6,-2.4z" id="svg_2"/>
    <path class="st2" d="m258.8,674.6l1.6,0.2c-0.3,1 -0.7,1.7 -1.4,2.2s-1.6,0.8 -2.7,0.8c-1.4,0 -2.4,-0.4 -3.2,-1.3c-0.8,-0.8 -1.2,-2 -1.2,-3.5c0,-1.6 0.4,-2.8 1.2,-3.7s1.9,-1.3 3.1,-1.3c1.2,0 2.3,0.4 3.1,1.3s1.2,2 1.2,3.6c0,0.1 0,0.2 0,0.4l-7,0c0.1,1 0.3,1.8 0.9,2.4s1.2,0.8 2,0.8c0.6,0 1.1,-0.2 1.5,-0.5s0.7,-0.8 0.9,-1.4zm-5.2,-2.6l5.2,0c-0.1,-0.8 -0.3,-1.4 -0.6,-1.8c-0.5,-0.6 -1.2,-0.9 -2,-0.9c-0.7,0 -1.3,0.2 -1.8,0.7s-0.8,1.2 -0.8,2z" id="svg_3"/>
    <path class="st2" d="m268.8,674.6l1.6,0.2c-0.3,1 -0.7,1.7 -1.4,2.2s-1.6,0.8 -2.7,0.8c-1.4,0 -2.4,-0.4 -3.2,-1.3c-0.8,-0.8 -1.2,-2 -1.2,-3.5c0,-1.6 0.4,-2.8 1.2,-3.7s1.9,-1.3 3.1,-1.3c1.2,0 2.3,0.4 3.1,1.3s1.2,2 1.2,3.6c0,0.1 0,0.2 0,0.4l-7,0c0.1,1 0.3,1.8 0.9,2.4s1.2,0.8 2,0.8c0.6,0 1.1,-0.2 1.5,-0.5s0.7,-0.8 0.9,-1.4zm-5.2,-2.6l5.2,0c-0.1,-0.8 -0.3,-1.4 -0.6,-1.8c-0.5,-0.6 -1.2,-0.9 -2,-0.9c-0.7,0 -1.3,0.2 -1.8,0.7s-0.7,1.2 -0.8,2z" id="svg_4"/>
    <path class="st2" d="m272.4,677.6l0,-12.9l1.6,0l0,7.3l3.7,-3.8l2,0l-3.6,3.5l3.9,5.9l-2,0l-3.1,-4.8l-1.1,1.1l0,3.7l-1.4,0z" id="svg_5"/>
    <path class="st2" d="m285.3,677.6l-5,-12.9l1.8,0l3.3,9.4c0.3,0.8 0.5,1.5 0.7,2.1c0.2,-0.7 0.4,-1.4 0.7,-2.1l3.5,-9.4l1.7,0l-5,12.9l-1.7,0z" id="svg_6"/>
    <path class="st2" d="m298.8,674.6l1.6,0.2c-0.3,1 -0.7,1.7 -1.4,2.2s-1.6,0.8 -2.7,0.8c-1.4,0 -2.4,-0.4 -3.2,-1.3c-0.8,-0.8 -1.2,-2 -1.2,-3.5c0,-1.6 0.4,-2.8 1.2,-3.7s1.9,-1.3 3.1,-1.3c1.2,0 2.3,0.4 3.1,1.3s1.2,2 1.2,3.6c0,0.1 0,0.2 0,0.4l-7,0c0.1,1 0.3,1.8 0.9,2.4s1.2,0.8 2,0.8c0.6,0 1.1,-0.2 1.5,-0.5s0.7,-0.8 0.9,-1.4zm-5.2,-2.6l5.2,0c-0.1,-0.8 -0.3,-1.4 -0.6,-1.8c-0.5,-0.6 -1.2,-0.9 -2,-0.9c-0.7,0 -1.3,0.2 -1.8,0.7s-0.7,1.2 -0.8,2z" id="svg_7"/>
    <path class="st2" d="m308.5,674.2l1.6,0.2c-0.2,1.1 -0.6,1.9 -1.3,2.5c-0.7,0.6 -1.6,0.9 -2.6,0.9c-1.3,0 -2.3,-0.4 -3.1,-1.3c-0.8,-0.8 -1.2,-2 -1.2,-3.6c0,-1 0.2,-1.9 0.5,-2.6s0.8,-1.3 1.5,-1.7c0.7,-0.4 1.4,-0.6 2.2,-0.6c1,0 1.8,0.3 2.5,0.8s1.1,1.2 1.2,2.2l-1.5,0.2c-0.1,-0.6 -0.4,-1.1 -0.8,-1.4s-0.8,-0.5 -1.3,-0.5c-0.8,0 -1.4,0.3 -1.9,0.9c-0.5,0.6 -0.7,1.5 -0.7,2.7c0,1.3 0.2,2.2 0.7,2.7s1.1,0.9 1.9,0.9c0.6,0 1.1,-0.2 1.6,-0.6s0.6,-1 0.7,-1.7z" id="svg_8"/>
    <path class="st2" d="m314.9,676.2l0.2,1.4c-0.4,0.1 -0.8,0.1 -1.2,0.1c-0.6,0 -1,-0.1 -1.3,-0.3s-0.5,-0.4 -0.7,-0.7s-0.2,-0.9 -0.2,-1.9l0,-5.3l-1.2,0l0,-1.2l1.2,0l0,-2.3l1.6,-0.9l0,3.3l1.6,0l0,1.2l-1.6,0l0,5.5c0,0.5 0,0.7 0.1,0.9s0.1,0.2 0.3,0.3c0.1,0.1 0.3,0.1 0.5,0.1c0.2,-0.2 0.4,-0.2 0.7,-0.2z" id="svg_9"/>
    <path class="st2" d="m315.9,672.9c0,-1.7 0.5,-3 1.4,-3.8c0.8,-0.7 1.8,-1 2.9,-1c1.3,0 2.3,0.4 3.1,1.3s1.2,2 1.2,3.5c0,1.2 -0.2,2.1 -0.5,2.8c-0.4,0.7 -0.9,1.2 -1.6,1.6s-1.4,0.6 -2.3,0.6c-1.3,0 -2.4,-0.4 -3.2,-1.3c-0.6,-0.9 -1,-2.1 -1,-3.7zm1.6,0c0,1.2 0.3,2.1 0.8,2.7c0.5,0.6 1.2,0.9 2,0.9c0.8,0 1.4,-0.3 2,-0.9s0.8,-1.5 0.8,-2.7c0,-1.2 -0.3,-2 -0.8,-2.6c-0.5,-0.6 -1.2,-0.9 -2,-0.9c-0.8,0 -1.4,0.3 -2,0.9s-0.8,1.4 -0.8,2.6z" id="svg_10"/>
    <path class="st2" d="m326.4,677.6l0,-9.3l1.4,0l0,1.4c0.4,-0.7 0.7,-1.1 1,-1.3c0.3,-0.2 0.6,-0.3 1,-0.3c0.5,0 1.1,0.2 1.6,0.5l-0.5,1.5c-0.4,-0.2 -0.8,-0.3 -1.2,-0.3c-0.3,0 -0.7,0.1 -0.9,0.3s-0.5,0.5 -0.6,0.9c-0.2,0.6 -0.3,1.2 -0.3,1.8l0,4.9l-1.5,0l0,-0.1z" id="svg_11"/>
    <path class="st2" d="m332.6,677.6l0,-12.9l1.7,0l0,11.4l6.3,0l0,1.5l-8,0z" id="svg_12"/>
    <path class="st2" d="m341.9,672.9c0,-1.7 0.5,-3 1.4,-3.8c0.8,-0.7 1.8,-1 2.9,-1c1.3,0 2.3,0.4 3.1,1.3s1.2,2 1.2,3.5c0,1.2 -0.2,2.1 -0.5,2.8c-0.4,0.7 -0.9,1.2 -1.6,1.6s-1.4,0.6 -2.3,0.6c-1.3,0 -2.4,-0.4 -3.2,-1.3c-0.6,-0.9 -1,-2.1 -1,-3.7zm1.6,0c0,1.2 0.3,2.1 0.8,2.7c0.5,0.6 1.2,0.9 2,0.9c0.8,0 1.4,-0.3 2,-0.9s0.8,-1.5 0.8,-2.7c0,-1.2 -0.3,-2 -0.8,-2.6c-0.5,-0.6 -1.2,-0.9 -2,-0.9c-0.8,0 -1.4,0.3 -2,0.9s-0.8,1.4 -0.8,2.6z" id="svg_13"/>
    <path class="st2" d="m352.2,678.3l1.5,0.2c0.1,0.5 0.2,0.8 0.5,1c0.4,0.3 0.9,0.4 1.6,0.4c0.7,0 1.3,-0.1 1.7,-0.4s0.7,-0.7 0.8,-1.2c0.1,-0.3 0.1,-1 0.1,-2c-0.7,0.8 -1.6,1.2 -2.6,1.2c-1.3,0 -2.3,-0.5 -3,-1.4s-1.1,-2 -1.1,-3.3c0,-0.9 0.2,-1.7 0.5,-2.5c0.3,-0.8 0.8,-1.3 1.4,-1.7s1.3,-0.6 2.2,-0.6c1.1,0 2,0.4 2.7,1.3l0,-1.1l1.5,0l0,8.1c0,1.5 -0.1,2.5 -0.4,3.1c-0.3,0.6 -0.8,1.1 -1.4,1.4c-0.6,0.4 -1.4,0.5 -2.4,0.5c-1.1,0 -2,-0.3 -2.7,-0.8c-0.6,-0.4 -0.9,-1.1 -0.9,-2.2zm1.3,-5.6c0,1.2 0.2,2.1 0.7,2.7s1.1,0.8 1.8,0.8c0.7,0 1.3,-0.3 1.8,-0.8s0.7,-1.4 0.7,-2.6c0,-1.1 -0.3,-2 -0.8,-2.6c-0.5,-0.6 -1.1,-0.9 -1.8,-0.9c-0.7,0 -1.3,0.3 -1.8,0.9c-0.4,0.6 -0.6,1.4 -0.6,2.5z" id="svg_14"/>
    <path class="st2" d="m361.9,672.9c0,-1.7 0.5,-3 1.4,-3.8c0.8,-0.7 1.8,-1 2.9,-1c1.3,0 2.3,0.4 3.1,1.3s1.2,2 1.2,3.5c0,1.2 -0.2,2.1 -0.5,2.8c-0.4,0.7 -0.9,1.2 -1.6,1.6s-1.4,0.6 -2.3,0.6c-1.3,0 -2.4,-0.4 -3.2,-1.3c-0.6,-0.9 -1,-2.1 -1,-3.7zm1.6,0c0,1.2 0.3,2.1 0.8,2.7c0.5,0.6 1.2,0.9 2,0.9c0.8,0 1.4,-0.3 2,-0.9s0.8,-1.5 0.8,-2.7c0,-1.2 -0.3,-2 -0.8,-2.6c-0.5,-0.6 -1.2,-0.9 -2,-0.9c-0.8,0 -1.4,0.3 -2,0.9s-0.8,1.4 -0.8,2.6z" id="svg_15"/>
    <path class="st2" d="m372.9,677.6l0,-1.8l1.8,0l0,1.8l-1.8,0z" id="svg_16"/>
    <path class="st2" d="m386.9,673.1l1.7,0.4c-0.4,1.4 -1,2.5 -1.9,3.2s-2.1,1.1 -3.4,1.1c-1.4,0 -2.5,-0.3 -3.4,-0.8c-0.9,-0.6 -1.5,-1.4 -2,-2.5c-0.5,-1.1 -0.7,-2.2 -0.7,-3.5c0,-1.3 0.3,-2.5 0.8,-3.5c0.5,-1 1.2,-1.8 2.2,-2.3c0.9,-0.5 2,-0.8 3.1,-0.8c1.3,0 2.4,0.3 3.3,1s1.5,1.6 1.8,2.8l-1.7,0.4c-0.3,-0.9 -0.7,-1.6 -1.3,-2s-1.3,-0.6 -2.1,-0.6c-1,0 -1.8,0.2 -2.5,0.7c-0.7,0.5 -1.1,1.1 -1.4,1.9c-0.3,0.8 -0.4,1.6 -0.4,2.5c0,1.1 0.2,2.1 0.5,2.9c0.3,0.8 0.8,1.4 1.5,1.8s1.4,0.6 2.2,0.6c1,0 1.8,-0.3 2.4,-0.8s1.1,-1.5 1.3,-2.5z" id="svg_17"/>
    <path class="st2" d="m389.9,672.9c0,-1.7 0.5,-3 1.4,-3.8c0.8,-0.7 1.8,-1 2.9,-1c1.3,0 2.3,0.4 3.1,1.3s1.2,2 1.2,3.5c0,1.2 -0.2,2.1 -0.5,2.8c-0.4,0.7 -0.9,1.2 -1.6,1.6s-1.4,0.6 -2.3,0.6c-1.3,0 -2.4,-0.4 -3.2,-1.3c-0.6,-0.9 -1,-2.1 -1,-3.7zm1.6,0c0,1.2 0.3,2.1 0.8,2.7c0.5,0.6 1.2,0.9 2,0.9c0.8,0 1.4,-0.3 2,-0.9s0.8,-1.5 0.8,-2.7c0,-1.2 -0.3,-2 -0.8,-2.6c-0.5,-0.6 -1.2,-0.9 -2,-0.9c-0.8,0 -1.4,0.3 -2,0.9s-0.8,1.4 -0.8,2.6z" id="svg_18"/>
    <path class="st2" d="m400.5,677.6l0,-9.3l1.4,0l0,1.3c0.3,-0.5 0.7,-0.8 1.2,-1.1s1,-0.4 1.7,-0.4c0.7,0 1.3,0.1 1.7,0.4c0.4,0.3 0.8,0.7 0.9,1.2c0.7,-1.1 1.7,-1.6 2.9,-1.6c0.9,0 1.6,0.3 2.1,0.8s0.7,1.3 0.7,2.4l0,6.4l-1.6,0l0,-5.9c0,-0.6 -0.1,-1.1 -0.2,-1.4c-0.1,-0.3 -0.3,-0.5 -0.6,-0.7s-0.6,-0.3 -0.9,-0.3c-0.7,0 -1.2,0.2 -1.6,0.7c-0.4,0.4 -0.7,1.1 -0.7,2.1l0,5.4l-1.6,0l0,-6.1c0,-0.7 -0.1,-1.2 -0.4,-1.6s-0.7,-0.5 -1.3,-0.5c-0.4,0 -0.9,0.1 -1.2,0.4c-0.4,0.2 -0.7,0.6 -0.8,1s-0.3,1.1 -0.3,2l0,4.8l-1.4,0z" id="svg_19"/>
   </g>
  </g>
  <g id="Layer_2">
   <g id="svg_20">
    <path class="st3" d="m16.47122,12.64817c5.78656,-0.81011 11.55659,-1.60371 17.34315,-2.39729c-0.01653,5.09217 0,10.18435 0,15.27652c-5.78656,0 -11.57312,0 -17.35968,0c0.01653,-4.28206 -0.01653,-8.58064 0.01653,-12.87923" id="svg_21"/>
    <path class="st3" d="m99.41743,12.74736c0.59518,-0.79358 1.78556,-0.99198 2.59569,-0.42986c-0.62826,0.16534 -1.33917,0.13226 -1.91783,0.44639c-0.496,0.69438 -0.23146,1.62024 -0.31413,2.43035c1.15732,0.01653 2.29809,0 3.4554,0.01653c0.01653,-0.84319 0.03306,-1.66983 0.03306,-2.51302l0.61173,0.01653c0,0.82666 0,1.6533 0,2.46342c0.61173,0.01653 1.20691,0.01653 1.81864,0.03306l0,0.46292c-0.61173,0 -1.22344,0 -1.81864,0.01653c0.01653,1.78556 0,3.5546 0,5.34017c0.04959,0.47945 -0.11573,1.12424 0.33066,1.4549c0.41333,0.33066 0.99198,0.24799 1.48798,0.34719c0,0.11573 0,0.34719 0,0.44639c-0.92585,0.01653 -2.23196,-0.18187 -2.38076,-1.30611c-0.11573,-2.09969 -0.01653,-4.19939 -0.03306,-6.29908c-1.15732,0 -2.31462,0 -3.47194,0c0,2.54609 0.01653,5.09217 -0.01653,7.63826c-0.14879,-0.04959 -0.41333,-0.14879 -0.56212,-0.18187c-0.11573,-2.46342 -0.03306,-4.95991 -0.03306,-7.42334c-0.56212,-0.0992 -1.37224,0.1984 -1.68637,-0.44639c0.54559,-0.03306 1.10771,-0.06614 1.6533,-0.08267c0.03306,-0.81011 -0.08267,-1.66983 0.24799,-2.43035" id="svg_22"/>
    <path class="st3" d="m42.65954,12.06951c0.24799,0.04959 0.72746,0.14879 0.97545,0.1984c1.7029,3.32314 3.10821,6.81161 4.71192,10.18435c1.78556,-3.29007 3.10821,-6.82814 4.71192,-10.21741c0.34719,0 0.69438,-0.01653 1.04158,-0.01653c0,3.67033 0,7.34067 0,11.02753c-0.18187,-0.01653 -0.56212,-0.04959 -0.74399,-0.06614c0.01653,-3.38927 0.04959,-6.762 -0.01653,-10.15128c-1.62024,3.35621 -3.04208,6.81161 -4.59618,10.18435c-0.16534,0 -0.51253,0 -0.67785,0c-1.04158,-2.24849 -2.06663,-4.51352 -3.09168,-6.77855c-0.496,-1.07465 -0.87625,-2.21542 -1.60371,-3.15781c-0.11573,3.30661 -0.03306,6.61321 -0.04959,9.93635c-0.16534,0 -0.51253,0.01653 -0.67785,0.03306c0.01653,-3.73647 0,-7.4564 0.01653,-11.17633" id="svg_23"/>
    <path class="st3" d="m56.29929,12.20177c0.14879,0 0.44639,0.01653 0.57865,0.01653l0,1.47144c-0.14879,0 -0.44639,0 -0.59518,0c0,-0.496 0.01653,-0.99198 0.01653,-1.48798" id="svg_24"/>
    <path class="st3" d="m2.6,14.59907c4.39779,-0.62826 8.8121,-1.15732 13.20989,-1.88476c0.03306,4.28206 0,8.54758 0.01653,12.82964c-4.39779,0.03306 -8.79557,-0.04959 -13.19336,0.04959c-0.03306,-3.67033 0,-7.34067 -0.03306,-10.99447" id="svg_25"/>
    <path class="st3" d="m59.68856,16.08703c1.83517,-1.91783 5.73696,-1.33917 6.43134,1.40531c-0.13226,0.04959 -0.41333,0.14879 -0.56212,0.1984c-0.496,-2.64528 -4.46392,-2.97594 -5.78656,-0.85972c-0.94239,1.4549 -0.87625,3.5546 0.11573,4.95991c1.28958,1.6533 4.49699,1.52104 5.32363,-0.54559c0.1984,-0.41333 0.36372,-0.95892 0.95892,-0.84319c-0.41333,2.18236 -2.77755,3.505 -4.86071,2.84368c-3.00901,-0.71092 -3.67033,-5.09217 -1.62024,-7.1588" id="svg_26"/>
    <path class="st3" d="m56.29929,15.17772l0.59518,0.01653c0,2.66182 0,5.34017 0,8.00199l-0.57865,0.03306c-0.03306,-2.67835 -0.03306,-5.35671 -0.01653,-8.05158" id="svg_27"/>
    <path class="st3" d="m67.70708,15.19425c0.14879,0 0.44639,0 0.61173,0c0.01653,0.496 0.01653,0.97545 0.03306,1.47144c0.89278,-0.77705 1.9509,-1.6533 3.22394,-1.43837c0.06614,0.08267 0.21493,0.24799 0.28107,0.34719c-1.47144,0.06614 -3.10821,0.84319 -3.43887,2.41382c-0.21493,1.78556 0.01653,3.6042 -0.13226,5.38977c-0.14879,-0.08267 -0.41333,-0.24799 -0.54559,-0.31413c-0.0992,-2.62875 -0.01653,-5.24097 -0.03306,-7.86973" id="svg_28"/>
    <path class="st3" d="m74.81628,15.60758c-2.92635,0.94239 -3.10821,5.72043 -0.3968,7.04307c1.19038,0.496 2.72795,0.38025 3.6538,-0.57865c1.42184,-1.4549 1.4549,-4.01753 0.16534,-5.5551c-0.82666,-0.99198 -2.23196,-1.23997 -3.42234,-0.90931m-0.33066,-0.3968c1.40531,-0.496 3.09168,-0.16534 4.13326,0.89278c1.6533,1.76903 1.53757,4.92685 -0.33066,6.48095c-1.73597,1.40531 -4.67885,0.95892 -5.77002,-1.04158c-1.32264,-2.11623 -0.54559,-5.5055 1.96743,-6.33216" id="svg_29"/>
    <path class="st3" d="m82.30574,15.50838c1.33917,-0.69438 3.09168,-0.74399 4.39779,0.03306c0.74399,0.3968 0.89278,1.30611 1.10771,2.03356c-0.95892,0.01653 -0.74399,-1.23997 -1.4549,-1.63677c-1.07465,-0.66132 -2.56262,-0.62826 -3.6538,-0.04959c-0.89278,0.46292 -0.87625,1.88476 0.03306,2.33116c1.40531,0.72746 3.14128,0.52906 4.49699,1.37224c0.79358,0.496 0.92585,1.60371 0.61173,2.41382c-0.41333,0.90931 -1.47144,1.20691 -2.36423,1.35571c-1.40531,0.21493 -3.07514,-0.0992 -3.91833,-1.33917c-0.31413,-0.496 -0.69438,-1.25651 0.01653,-1.57063c0.26452,0.64479 0.41333,1.42184 1.00851,1.86823c1.09118,0.82666 2.62875,0.74399 3.8522,0.31413c1.07465,-0.34719 1.33917,-2.00049 0.36372,-2.61222c-1.4549,-0.81011 -3.32314,-0.52906 -4.69538,-1.50451c-1.00851,-0.74399 -0.89278,-2.43035 0.1984,-3.00901" id="svg_30"/>
    <path class="st3" d="m92.72155,15.49185c-2.62875,0.1984 -3.6042,3.5546 -2.52955,5.63776c0.74399,1.8021 3.27354,2.33116 4.81111,1.22344c1.62024,-1.23997 1.83517,-3.76953 0.79358,-5.4559c-0.62826,-1.04158 -1.88476,-1.57063 -3.07514,-1.40531m-1.22344,-0.18187c1.52104,-0.66132 3.47194,-0.31413 4.56312,0.97545c1.37224,1.7029 1.30611,4.38125 -0.16534,5.98495c-1.38878,1.42184 -3.88526,1.53757 -5.35671,0.18187c-2.1493,-1.86823 -1.7525,-6.00149 0.95892,-7.14227" id="svg_31"/>
    <path class="st3" d="m2.63307,26.17218c4.39779,0 8.79557,0 13.19336,0c0.01653,4.24899 0,8.49797 0.01653,12.7635c-4.41432,-0.3968 -8.79557,-1.22344 -13.19336,-1.7525c-0.03306,-3.68687 -0.03306,-7.34067 -0.01653,-11.011" id="svg_32"/>
    <path class="st3" d="m16.45468,39.06795c0.03306,-4.29859 -0.03306,-8.61371 0.03306,-12.91229c5.77002,0.03306 11.55659,-0.01653 17.32662,0.01653c0,5.1087 0,10.20088 0,15.30958c-5.8031,-0.74399 -11.58965,-1.58717 -17.35968,-2.41382" id="svg_33"/>
    <path class="st3" d="m44.9411,33.82697c1.38878,0 2.76102,0 4.14979,0c-0.66132,-1.73597 -1.28958,-3.48847 -2.03356,-5.17484c-0.79358,1.66983 -1.37224,3.4554 -2.11623,5.17484m1.27305,-6.49748c0.59518,0 1.17385,0.01653 1.76903,0.03306c1.52104,3.68687 3.05861,7.37373 4.67885,11.02753c-0.57865,0 -1.15732,-0.01653 -1.73597,-0.01653c-0.42986,-1.10771 -0.85972,-2.19889 -1.28958,-3.30661c-1.73597,0.01653 -3.4554,0 -5.19137,0.01653c-0.44639,1.10771 -0.89278,2.19889 -1.33917,3.30661c-0.52906,0 -1.04158,0 -1.5541,0c1.5541,-3.68687 3.09168,-7.39026 4.66231,-11.0606" id="svg_34"/>
    <path class="st3" d="m72.28672,31.92568c0.81011,-1.00851 1.8517,-1.86823 3.22394,-1.83517c0,0.44639 0,0.89278 0.01653,1.33917c-1.19038,0.04959 -2.57915,0.51253 -2.92635,1.8021c-0.3968,1.68637 -0.11573,3.42234 -0.1984,5.14178c-0.47945,0 -0.95892,0 -1.42184,0c-0.01653,-2.67835 -0.01653,-5.37324 0,-8.05158l1.32264,0l0,1.60371l-0.01653,0l0.00001,0z" id="svg_35"/>
    <path class="st3" d="m77.21357,33.62858c1.76903,0.03306 3.52154,0.03306 5.29057,0c-0.28107,-1.32264 -1.38878,-2.59569 -2.87675,-2.34769c-1.33917,-0.06614 -2.1493,1.19038 -2.41382,2.34769m-0.38025,-2.0501c1.38878,-1.7525 4.36472,-1.93437 5.88576,-0.24799c0.84319,0.94239 1.09118,2.21542 1.12424,3.43887c-2.21542,0.01653 -4.41432,-0.01653 -6.62974,0.01653c0.16534,0.66132 0.21493,1.42184 0.76052,1.9013c1.28958,1.28958 3.83566,0.99198 4.49699,-0.81011c0.33066,0.01653 0.99198,0.01653 1.30611,0.03306c-0.77705,2.79408 -4.66231,3.43887 -6.66282,1.62024c-1.53757,-1.5541 -1.68637,-4.28206 -0.28107,-5.95189" id="svg_36"/>
    <path class="st3" d="m53.14147,30.33851c2.31462,-0.01653 4.61272,-0.03306 6.92734,0.01653c-0.04959,0.89278 -0.74399,1.48798 -1.28958,2.13276c-1.37224,1.57063 -2.76102,3.14128 -4.11672,4.72845c1.83517,0.34719 3.7034,-0.1984 5.53856,0.1984c0,0.23146 0.01653,0.71092 0.01653,0.95892c-2.43035,0 -4.87724,0 -7.30759,0l0,-1.00851c1.7029,-1.9509 3.48847,-3.81913 5.1087,-5.83616c-1.57063,-0.13226 -3.15781,-0.01653 -4.72845,-0.11573c-0.04959,-0.24799 -0.11573,-0.79358 -0.14879,-1.07465" id="svg_37"/>
    <path class="st3" d="m61.49066,30.32198c0.46292,0 0.94239,0 1.42184,0.01653c0.03306,1.98396 -0.0992,3.98446 0.04959,5.96842c0.74399,2.13276 4.36472,1.14078 4.36472,-0.99198c0.04959,-1.6533 0,-3.32314 0.01653,-4.97644c0.34719,0 1.02504,0 1.37224,0c0,2.67835 0,5.37324 0,8.05158c-0.31413,0 -0.94239,0 -1.25651,0c-0.03306,-0.26452 -0.08267,-0.81011 -0.11573,-1.09118c-1.12424,1.27305 -3.02555,1.62024 -4.54658,0.90931c-0.95892,-0.42986 -1.27305,-1.5541 -1.27305,-2.51302c-0.06614,-1.8021 -0.01653,-3.58767 -0.03306,-5.37324" id="svg_38"/>
   </g>
  </g>
  <use id="svg_42" transform="matrix(0.789462 0 0 0.789462 34.2358 8.9985)" x="45.74278" xlink:href="#svg_41" y="-3.65951"/>
  <g id="svg_43"/>
 </g>
</svg>