<?xml version="1.0"?>
<svg width="160" height="50" xmlns="http://www.w3.org/2000/svg" xmlns:svg="http://www.w3.org/2000/svg">
 <g>
  <title>Layer 1</title>
  <g stroke="null" id="Layer_1_1_">
   <g stroke="null" id="svg_1">
    <circle stroke="null" id="svg_2" r="6.570355" cy="43.119809" cx="11.575906" fill="#33547D"/>
    <circle stroke="null" id="svg_3" r="4.619781" cy="43.222471" cx="35.290784" fill="#33547D"/>
    <circle stroke="null" id="svg_4" r="2.053236" cy="43.222471" cx="54.693867" fill="#33547D"/>
    <path stroke="null" id="svg_5" d="m33.956181,29.363126c-1.12928,0 -2.053236,-0.923956 -2.053236,-2.053236l0,-8.52093c0,-2.977193 -1.437265,-5.235752 -4.51712,-5.235752c-3.182516,0 -5.030429,2.463883 -5.030429,5.235752l0,8.52093c0,1.12928 -0.718633,2.053236 -2.053236,2.053236c-1.231942,0 -2.053236,-0.923956 -2.053236,-2.053236l0,-8.52093c0,-2.977193 -1.539927,-5.235752 -4.722443,-5.235752c-3.285178,0 -4.927767,2.463883 -4.927767,5.235752l0,8.52093c0,1.12928 -0.821294,2.053236 -2.053236,2.053236c-1.12928,0 -2.053236,-0.923956 -2.053236,-2.053236l0,-15.091286c0,-1.231942 0.718633,-2.053236 2.053236,-2.053236s2.053236,0.923956 2.053236,2.053236l0,1.437265c1.231942,-2.25856 3.593163,-3.593163 6.159709,-3.593163c3.079854,0 5.338414,1.539927 6.570356,3.798487c1.642589,-2.566545 4.106472,-3.798487 7.083665,-3.798487c5.133091,0 7.596974,3.490502 7.596974,8.52093l0,8.828916c0,1.12928 -0.821294,1.950574 -2.053236,1.950574z" fill="#33547D"/>
    <path stroke="null" id="svg_6" d="m41.655817,2.568393c1.231942,0 2.361222,1.026618 2.361222,2.361222s-1.026618,2.361222 -2.361222,2.361222s-2.361222,-1.026618 -2.361222,-2.361222s1.026618,-2.361222 2.361222,-2.361222zm0,26.794733c-1.231942,0 -2.053236,-0.923956 -2.053236,-2.053236l0,-15.091286c0,-1.12928 0.821294,-2.053236 2.053236,-2.053236s2.053236,0.923956 2.053236,2.053236l0,15.193948c-0.102662,1.12928 -0.923956,1.950574 -2.053236,1.950574z" fill="#33547D"/>
    <path stroke="null" id="svg_7" d="m54.899191,17.146371l5.030429,-6.262371c0.307985,-0.410647 0.718633,-0.615971 1.334604,-0.615971c1.12928,0 1.847913,0.718633 1.847913,1.745251c0,0.410647 -0.102662,0.718633 -0.513309,1.12928l-5.543738,6.673018l5.6464,6.673018c0.307985,0.307985 0.513309,0.718633 0.513309,1.231942c0,1.026618 -0.821294,1.745251 -1.745251,1.745251c-0.615971,0 -1.026618,-0.205324 -1.437265,-0.615971l-5.133091,-6.365032l-5.133091,6.365032c-0.307985,0.410647 -0.821294,0.615971 -1.437265,0.615971c-0.923956,0 -1.745251,-0.718633 -1.745251,-1.745251c0,-0.513309 0.205324,-0.821294 0.513309,-1.231942l5.6464,-6.673018l-5.543738,-6.673018c-0.307985,-0.410647 -0.513309,-0.718633 -0.513309,-1.12928c0,-1.026618 0.718633,-1.745251 1.847913,-1.745251c0.513309,0 1.026618,0.205324 1.334604,0.615971l5.030429,6.262371z" fill="#33547D"/>
    <path stroke="null" id="svg_8" d="m76.868818,29.56845c-2.874531,0 -5.235752,-1.539927 -6.570356,-3.695825l0,9.444887c0,1.12928 -0.821294,2.053236 -2.053236,2.053236s-2.053236,-0.923956 -2.053236,-2.053236l0,-23.098908c0,-1.12928 0.718633,-2.053236 1.950574,-2.053236s1.950574,0.923956 1.950574,2.053236l0,1.437265c1.231942,-2.25856 3.798487,-3.695825 6.673018,-3.695825c4.927767,0 8.931578,4.106472 8.931578,9.752872c0,5.954385 -4.003811,9.855534 -8.828916,9.855534zm-0.821294,-16.220566c-3.490502,0 -5.749061,2.977193 -5.749061,6.467694s2.25856,6.467694 5.749061,6.467694s5.6464,-2.669207 5.6464,-6.467694c0,-3.901149 -2.25856,-6.467694 -5.6464,-6.467694z" fill="#33547D"/>
    <path stroke="null" id="svg_9" d="m106.846068,27.412552c0,1.12928 -0.718633,2.053236 -2.053236,2.053236c-1.231942,0 -1.950574,-0.923956 -1.950574,-2.053236l0,-0.923956c-1.231942,1.745251 -3.490502,3.079854 -6.262371,3.079854c-5.954385,0 -9.444887,-4.311796 -9.444887,-9.752872c0,-5.338414 3.798487,-9.752872 9.855534,-9.752872c6.159709,0 9.752872,4.003811 9.752872,9.752872l0.102662,7.596974l0,0zm-9.752872,-13.962006c-3.38784,0 -5.851723,2.874531 -5.851723,6.365032c0,3.695825 2.053236,6.365032 5.851723,6.365032c3.490502,0 5.749061,-2.977193 5.749061,-6.365032c0,-3.901149 -2.361222,-6.365032 -5.749061,-6.365032z" fill="#33547D"/>
    <path stroke="null" id="svg_10" d="m118.960161,10.062706c5.133091,0 8.931578,3.901149 8.931578,8.931578l0,8.418269c0,1.12928 -0.923956,2.053236 -2.053236,2.053236s-2.053236,-0.923956 -2.053236,-2.053236l0,-8.931578c0,-2.669207 -2.155898,-4.825105 -4.927767,-4.825105c-2.771869,0 -4.927767,2.053236 -4.927767,4.825105l0,8.931578c0,1.12928 -0.923956,2.053236 -2.053236,2.053236s-2.053236,-0.923956 -2.053236,-2.053236l0,-8.418269c0.205324,-5.030429 4.003811,-8.931578 9.136901,-8.931578z" fill="#33547D"/>
    <path stroke="null" id="svg_11" d="m148.732087,19.815578c0,0.718633 -0.410647,1.334604 -1.539927,1.334604l-12.730065,0c0.205324,2.977193 2.25856,5.133091 5.749061,5.133091c2.25856,0 3.490502,-0.718633 4.927767,-2.053236c0.307985,-0.307985 0.821294,-0.615971 1.334604,-0.615971c0.923956,0 1.642589,0.615971 1.642589,1.642589c0,0.410647 -0.205324,0.821294 -0.513309,1.12928c-1.642589,1.847913 -4.51712,3.079854 -7.596974,3.079854c-6.365032,0 -9.752872,-4.414458 -9.752872,-9.752872c0,-5.543738 4.003811,-9.752872 9.547549,-9.752872c5.441076,0.102662 8.931578,4.414458 8.931578,9.855534zm-8.828916,-6.570356c-2.977193,0 -4.927767,2.053236 -5.338414,4.722443l10.471505,0c-0.307985,-2.566545 -2.25856,-4.722443 -5.133091,-4.722443z" fill="#33547D"/>
    <path stroke="null" id="svg_12" d="m153.45453,29.363126c-1.231942,0 -2.053236,-0.923956 -2.053236,-2.053236l0,-24.94682c0,-1.12928 0.821294,-2.053236 2.053236,-2.053236s2.053236,0.923956 2.053236,2.053236l0,25.049482c0,1.12928 -0.821294,1.950574 -2.053236,1.950574z" fill="#33547D"/>
   </g>
  </g>
 </g>
</svg>