<?xml version="1.0"?>
<svg width="160" height="50" xmlns="http://www.w3.org/2000/svg" xmlns:svg="http://www.w3.org/2000/svg">
 <g>
  <title>Layer 1</title>
  <g display="none" id="Layer_2">
   <rect id="svg_1" height="90" width="260" stroke-miterlimit="10" stroke-width="1.1277" stroke="#E8E7E7" fill="none" x="-10"/>
  </g>
  <g stroke="null" id="Layer_1">
   <g stroke="null" id="svg_2">
    <linearGradient stroke="null" transform="translate(-0.25,10) translate(-25.25,-19.25) translate(0.25,-37.150001525878906) scale(0.9761146306991577,0.9660633206367493) translate(-0.25,37.150001525878906) translate(0.25611746311187744,-38.45503616333008) scale(0.8654159903526306) translate(-0.25611746311187744,38.45503616333008) translate(0,55.92573547363281) scale(1,0.884989857673645) translate(0,-55.92573547363281) " y2="0.558701" x2="1.608339" y1="0.43962" x1="-0.699741" id="SVGID_1_">
     <stop stroke="null" stop-color="#999875" offset="0.2308"/>
     <stop stroke="null" stop-color="#9B9977" offset="0.5626"/>
     <stop stroke="null" stop-color="#A09F7E" offset="0.6822"/>
     <stop stroke="null" stop-color="#A9A889" offset="0.7674"/>
     <stop stroke="null" stop-color="#B7B69A" offset="0.8363"/>
     <stop stroke="null" stop-color="#C9C7B0" offset="0.8953"/>
     <stop stroke="null" stop-color="#DFDDCC" offset="0.9476"/>
     <stop stroke="null" stop-color="#F8F6EB" offset="0.9937"/>
     <stop stroke="null" stop-color="#FCFAF0" offset="1"/>
    </linearGradient>
    <path stroke="null" id="svg_3" d="m10.897213,45.794663l-1.098169,-0.295957c0,0 0.168949,-5.031271 -1.942914,-5.327228c-1.351592,-1.405796 0.253424,-58.821478 5.152946,-0.221968c0,0 -1.68949,0.739893 -2.027389,1.997711c-0.253424,1.257818 -0.084475,3.847443 -0.084475,3.847443z" fill="url(#SVGID_1_)"/>
    <linearGradient stroke="null" transform="translate(-0.25,10) translate(-25.25,-19.25) translate(0.25,-37.150001525878906) scale(0.9761146306991577,0.9660633206367493) translate(-0.25,37.150001525878906) translate(0.25611746311187744,-38.45503616333008) scale(0.8654159903526306) translate(-0.25611746311187744,38.45503616333008) translate(0,55.92573547363281) scale(1,0.884989857673645) translate(0,-55.92573547363281) " y2="0.975314" x2="0.78332" y1="0.007221" x1="-0.167226" id="SVGID_2_">
     <stop stroke="null" stop-color="#49A547" offset="0"/>
     <stop stroke="null" stop-color="#409143" offset="1"/>
    </linearGradient>
    <path stroke="null" id="svg_4" d="m11.488535,40.985359c0,0 9.799044,-5.623185 7.518232,-17.387481c-2.196338,-8.508767 -7.433758,-11.32036 -7.940605,-12.35621c-0.591322,-0.739893 -1.267118,-2.145689 -1.267118,-2.145689l0.422373,23.750559c0,0 -0.844745,7.324939 1.267118,8.138821z" fill="url(#SVGID_2_)"/>
    <linearGradient stroke="null" transform="translate(-0.25,10) translate(-25.25,-19.25) translate(0.25,-37.150001525878906) scale(0.9761146306991577,0.9660633206367493) translate(-0.25,37.150001525878906) translate(0.25611746311187744,-38.45503616333008) scale(0.8654159903526306) translate(-0.25611746311187744,38.45503616333008) translate(0,55.92573547363281) scale(1,0.884989857673645) translate(0,-55.92573547363281) " y2="0.461342" x2="1.522515" y1="0.559263" x1="-0.097801" id="SVGID_3_">
     <stop stroke="null" stop-color="#42A347" offset="0"/>
     <stop stroke="null" stop-color="#4CA84A" offset="0.3592"/>
     <stop stroke="null" stop-color="#68B554" offset="0.9744"/>
     <stop stroke="null" stop-color="#69B654" offset="1"/>
    </linearGradient>
    <path stroke="null" id="svg_5" d="m9.207723,40.653383c0,0 -9.207723,-6.186745 -8.616401,-17.138956c0.506847,-10.952211 7.011385,-16.30291 8.278503,-17.306166c0.844745,-0.836047 0.844745,-1.170465 0.92922,-2.006512c0.591322,1.25407 0.506847,18.142212 0.506847,20.148724c0.253424,7.691629 -0.422373,14.798026 -1.098169,16.30291z" fill="url(#SVGID_3_)"/>
    <path stroke="null" id="svg_6" d="m114.125078,20.253845c0.506847,0 2.534236,0.083605 3.463455,0.083605c1.68949,0 2.956608,-0.083605 6.16664,-0.083605c2.703185,0 4.983997,0.668837 6.673487,2.090117c2.027389,1.672093 3.041083,4.096629 3.041083,6.939187c0,4.096629 -1.858439,6.437559 -3.801353,7.775234c-1.858439,1.337675 -4.308201,2.173721 -7.85613,2.173721c-1.858439,0 -5.068471,-0.083605 -7.687181,-0.083605l0,0c-0.084475,-0.250814 0.253424,-1.170465 0.422373,-1.170465c0.675796,-0.083605 0.92922,-0.083605 1.267118,-0.250814c0.591322,-0.250814 0.675796,-0.501628 0.760271,-1.504884c0.084475,-1.839303 0.084475,-4.096629 0.084475,-6.688373c0,-1.839303 0,-5.350699 0,-6.521164c-0.084475,-0.919651 -0.506847,-1.170465 -1.351592,-1.337675c-0.422373,-0.083605 -1.013694,-0.167209 -1.68949,-0.250814c-0.168949,-0.167209 0.253424,-1.003256 0.506847,-1.170465zm6.16664,16.804538c0.675796,0.501628 1.942914,0.668837 3.125557,0.668837c1.436067,0 2.956608,-0.250814 4.392675,-1.504884c1.436067,-1.337675 2.449761,-3.344187 2.449761,-6.521164c0,-3.093373 -1.182643,-5.517908 -3.54793,-7.022792c-1.351592,-0.836047 -3.125557,-1.170465 -5.152946,-1.170465c-0.591322,0 -1.182643,0 -1.520541,0.167209c-0.084475,0.083605 -0.253424,0.334419 -0.253424,0.418023c-0.084475,0.585233 -0.084475,4.681861 -0.084475,7.190001c0,2.50814 0,6.019536 0.084475,6.437559c-0.084475,0.418023 0.084475,1.086861 0.506847,1.337675z" fill="#C1BFBE"/>
    <path stroke="null" id="svg_7" d="m136.003979,20.253845c0.253424,0 1.098169,0.083605 3.210032,0.083605c2.027389,0 3.54793,-0.083605 5.490844,-0.083605c2.365287,0 5.659793,0.836047 5.659793,4.347443c0,1.672093 -1.267118,3.093373 -2.872134,3.76221c-0.084475,0 -0.084475,0.083605 0,0.083605c2.280812,0.585233 4.308201,2.006512 4.308201,4.598257c0,2.591745 -1.68949,4.263838 -4.054777,5.267094c-1.436067,0.668837 -3.210032,0.836047 -5.068471,0.836047c-1.351592,0 -5.152946,-0.167209 -7.180334,-0.083605c-0.253424,-0.083605 0.168949,-1.003256 0.337898,-1.170465c0.506847,0 0.844745,-0.083605 1.351592,-0.250814c0.760271,-0.167209 0.844745,-0.418023 0.92922,-1.504884c0.084475,-0.919651 0.084475,-4.263838 0.084475,-6.688373c0,-3.260582 0,-5.434303 0,-6.521164c0,-0.836047 -0.337898,-1.086861 -0.92922,-1.25407c-0.422373,-0.083605 -1.267118,-0.167209 -1.858439,-0.250814c0,-0.083605 0.506847,-1.086861 0.591322,-1.170465zm12.671178,13.62756c0,-2.675349 -2.027389,-4.180233 -5.575318,-4.180233c-0.168949,0 -1.351592,0 -1.605016,0c-0.084475,0 -0.168949,0.083605 -0.168949,0.167209c0,1.922907 0,4.932675 0.084475,6.186745c0.084475,0.501628 0.422373,1.25407 0.92922,1.421279c0.506847,0.250814 1.605016,0.334419 2.365287,0.334419c2.027389,0 3.970302,-1.170465 3.970302,-3.929419zm-7.09586,-12.122676c-0.084475,0 -0.253424,0.334419 -0.253424,0.501628c0,1.086861 -0.084475,3.929419 -0.084475,5.852327c0,0.083605 0.084475,0.167209 0.168949,0.167209c0.422373,0 1.351592,0.083605 2.196338,0.083605c1.182643,0 1.858439,-0.167209 2.196338,-0.334419c1.013694,-0.501628 1.436067,-1.504884 1.436067,-2.675349c0,-2.675349 -1.858439,-3.595001 -4.646099,-3.595001c-0.084475,-0.083605 -0.591322,-0.083605 -1.013694,0z" fill="#C1BFBE"/>
    <path stroke="null" id="svg_8" d="m25.257882,39.232103c0,-0.083605 -0.084475,-0.334419 -0.084475,-0.585233c0,-0.250814 0,-0.334419 0.084475,-0.418023c0.591322,-0.083605 0.844745,-0.167209 1.182643,-0.250814c0.591322,-0.167209 0.760271,-0.418023 0.760271,-1.086861c0.084475,-1.672093 0.084475,-4.765466 0,-6.855582l0,-0.083605c0,-0.250814 0,-0.585233 -0.337898,-0.752442c-0.422373,-0.334419 -1.013694,-0.501628 -1.68949,-0.668837c-0.253424,-0.083605 -0.422373,-0.250814 -0.337898,-0.334419c0,-0.167209 0.168949,-0.334419 0.506847,-0.418023c0.92922,-0.083605 3.210032,-0.668837 4.139252,-1.086861c0,0.083605 0.168949,0.250814 0.084475,0.418023c0,0.083605 0,0.167209 0,0.334419c0,0.334419 0,0.668837 0,1.003256c0,0.083605 0.084475,0.167209 0.253424,0.167209c0.084475,0 0.084475,0 0.168949,-0.083605c1.773965,-1.337675 3.294506,-1.839303 4.139252,-1.839303c1.351592,0 2.365287,0.668837 3.125557,1.922907c0,0.083605 0.084475,0.083605 0.168949,0.083605s0.084475,0 0.168949,-0.083605c1.605016,-1.25407 3.210032,-1.922907 4.308201,-1.922907c2.534236,0 4.054777,1.839303 4.054777,5.01628c0,0.919651 0,2.006512 0,3.093373c0,0.919651 0,1.839303 0,2.424535c0,0.167209 0.168949,0.585233 0.506847,0.668837c0.337898,0.167209 0.92922,0.250814 1.605016,0.334419l0,0c0,0.167209 0,0.919651 -0.168949,1.003256c-0.168949,0 -0.422373,0 -0.675796,0c-0.506847,0 -1.267118,-0.083605 -2.027389,-0.083605c-1.68949,0 -2.534236,0 -3.378981,0.083605c-0.084475,-0.250814 -0.084475,-0.919651 0,-1.003256c0.506847,-0.083605 0.675796,-0.167209 1.013694,-0.250814c0.506847,-0.167209 0.675796,-0.418023 0.675796,-1.086861c0,-0.501628 0.084475,-4.932675 -0.084475,-5.935931c-0.168949,-1.086861 -1.013694,-2.340931 -2.787659,-2.340931c-0.675796,0 -1.773965,0.250814 -2.787659,1.003256c-0.084475,0.083605 -0.084475,0.167209 -0.084475,0.250814l0,0c0.084475,0.585233 0.084475,1.25407 0.084475,2.257326c0,0.585233 0,1.170465 0,1.755698c0,1.25407 0,2.340931 0,3.260582c0,0.585233 0.337898,0.752442 0.675796,0.836047c0.168949,0 0.337898,0.083605 0.422373,0.083605c0.253424,0.083605 0.506847,0.083605 0.844745,0.167209c0,0.083605 0,0.418023 0,0.752442c0,0.167209 -0.084475,0.250814 -0.084475,0.250814c-0.92922,0 -1.858439,-0.083605 -3.294506,-0.083605c-0.422373,0 -1.098169,0 -1.68949,0c-0.506847,0 -0.92922,0 -1.182643,0c0,-0.083605 -0.084475,-0.250814 -0.084475,-0.501628c0,-0.250814 0,-0.418023 0.084475,-0.501628c0.084475,0 0.253424,0 0.337898,-0.083605c0.337898,-0.083605 0.591322,-0.083605 0.844745,-0.167209c0.422373,-0.167209 0.675796,-0.334419 0.675796,-1.003256c0.084475,-1.337675 0.168949,-5.183489 0,-6.186745c-0.337898,-1.588489 -1.267118,-2.340931 -2.703185,-2.340931c-0.844745,0 -1.942914,0.418023 -2.787659,1.003256c-0.168949,0.083605 -0.253424,0.334419 -0.253424,0.668837c0,0.418023 0,1.003256 0,1.588489c0,1.922907 0,4.347443 0,5.434303c0,0.334419 0.168949,0.668837 0.760271,0.836047c0.168949,0 0.337898,0.083605 0.675796,0.083605c0.168949,0 0.337898,0 0.506847,0.083605c0.084475,0.167209 0,0.836047 -0.084475,1.003256c-0.253424,0 -0.591322,0 -1.013694,0c-0.591322,0 -1.351592,-0.083605 -2.111863,-0.083605c-1.013694,0 -1.68949,0 -2.196338,0.083605c-0.253424,0.167209 -0.591322,0.167209 -0.92922,0.167209l0,0z" fill="#484749"/>
    <path stroke="null" id="svg_9" d="m56.513455,39.482917c-4.646099,0 -6.335589,-3.427791 -6.335589,-6.521164c0,-2.173721 0.92922,-3.929419 2.703185,-5.099885c1.267118,-0.752442 2.787659,-1.25407 4.139252,-1.25407c3.54793,0 5.997691,2.50814 5.997691,6.103141c0,2.424535 -1.013694,4.431047 -2.872134,5.601513c-0.760271,0.585233 -2.365287,1.170465 -3.632404,1.170465l0,0zm-0.506847,-11.537444c-0.591322,0 -1.098169,0.167209 -1.436067,0.418023c-1.098169,0.668837 -1.605016,1.922907 -1.605016,3.845815c0,3.511396 1.773965,6.019536 4.392675,6.019536c0.760271,0 1.351592,-0.250814 1.858439,-0.668837c0.760271,-0.668837 1.182643,-1.922907 1.182643,-3.76221c0,-3.511396 -1.773965,-5.852327 -4.392675,-5.852327l0,0z" fill="#484749"/>
    <path stroke="null" id="svg_10" d="m104.663931,39.482917c-4.646099,0 -6.335589,-3.427791 -6.335589,-6.521164c0,-2.173721 0.92922,-3.929419 2.703185,-5.099885c1.267118,-0.752442 2.787659,-1.25407 4.139252,-1.25407c3.54793,0 5.997691,2.50814 5.997691,6.103141c0,2.424535 -1.013694,4.431047 -2.872134,5.601513c-0.760271,0.585233 -2.365287,1.170465 -3.632404,1.170465l0,0zm-0.506847,-11.537444c-0.591322,0 -1.098169,0.167209 -1.436067,0.418023c-1.098169,0.668837 -1.605016,1.922907 -1.605016,3.845815c0,3.511396 1.773965,6.019536 4.392675,6.019536c0.760271,0 1.351592,-0.250814 1.858439,-0.668837c0.760271,-0.668837 1.182643,-1.922907 1.182643,-3.76221c0,-3.511396 -1.773965,-5.852327 -4.392675,-5.852327l0,0z" fill="#484749"/>
    <path stroke="null" id="svg_11" d="m88.613773,46.756523c-1.68949,0 -2.872134,-0.334419 -3.885828,-1.086861c-1.013694,-0.752442 -1.436067,-1.922907 -1.436067,-2.675349c0,-0.250814 0,-0.836047 0.591322,-1.337675c0.337898,-0.334419 1.013694,-0.919651 2.534236,-2.006512c0,0 0.084475,-0.083605 0.084475,-0.083605c0,-0.083605 0,-0.083605 -0.084475,-0.083605c-1.267118,-0.501628 -1.68949,-1.25407 -1.773965,-1.672093c0,0 0,0 0,-0.083605c0,-0.167209 -0.084475,-0.334419 0.168949,-0.501628c0.168949,-0.083605 0.422373,-0.334419 0.760271,-0.501628c0.422373,-0.250814 1.013694,-0.585233 1.267118,-0.836047c0,0 0.084475,-0.083605 0,-0.167209c0,-0.083605 0,-0.083605 -0.084475,-0.167209c-1.858439,-0.668837 -2.872134,-2.006512 -2.872134,-4.096629c0,-1.337675 0.675796,-2.591745 1.773965,-3.427791c0.760271,-0.585233 2.703185,-1.337675 3.885828,-1.337675l0.084475,0c1.267118,0 2.027389,0.334419 3.041083,0.668837c0.506847,0.167209 1.013694,0.250814 1.773965,0.250814c1.013694,0 1.520541,-0.334419 1.942914,-0.668837c0,0 0.084475,0.167209 0.084475,0.585233c0,0.334419 -0.084475,0.836047 -0.337898,1.25407c-0.253424,0.334419 -0.675796,0.501628 -1.182643,0.501628c0,0 -0.084475,0 -0.168949,0c-0.506847,0 -0.675796,-0.083605 -0.675796,-0.083605l-0.084475,0c0,0 0,0.083605 0,0.167209l0,0c0.084475,0.250814 0.168949,1.003256 0.168949,1.170465c0,2.257326 -0.92922,3.176977 -1.858439,3.929419c-0.92922,0.668837 -2.027389,1.086861 -3.210032,1.25407l0,0c0,0 -0.168949,0 -0.337898,0c-0.168949,0 -0.337898,0 -0.337898,0l0,0c-0.253424,0.083605 -0.760271,0.334419 -0.760271,0.752442c0,0.418023 0.253424,0.919651 1.436067,1.003256c0.253424,0 0.506847,0 0.760271,0c1.520541,0.083605 3.463455,0.250814 4.392675,0.585233c1.267118,0.418023 2.027389,1.588489 2.027389,2.926163c0,2.006512 -1.436067,3.845815 -3.801353,5.01628c-1.436067,0.501628 -2.61871,0.752442 -3.885828,0.752442l0,0zm-0.253424,-7.022792c-0.506847,0 -0.92922,0.167209 -1.182643,0.334419c-1.098169,0.668837 -1.68949,1.421279 -1.68949,2.257326c0,0.752442 0.337898,1.421279 1.013694,1.922907c0.760271,0.668837 1.858439,1.003256 3.294506,1.003256c2.787659,0 4.054777,-1.504884 4.054777,-2.926163c0,-1.003256 -0.506847,-1.672093 -1.605016,-2.090117c-0.760271,-0.334419 -2.111863,-0.501628 -3.885828,-0.501628l0,0zm0.253424,-11.871862c-1.436067,0 -2.365287,1.086861 -2.365287,2.842559c0,1.755698 0.760271,3.76221 3.041083,3.76221c0.337898,0 1.098169,-0.167209 1.436067,-0.585233c0.506847,-0.501628 0.844745,-1.421279 0.844745,-2.50814c0,-2.173721 -1.098169,-3.511396 -2.956608,-3.511396l0,0z" fill="#484749"/>
    <path stroke="null" id="svg_12" d="m80.926591,38.145243c-0.675796,-0.083605 -1.182643,-0.167209 -1.773965,-0.418023c-0.084475,-0.083605 -0.253424,-0.334419 -0.253424,-0.418023c-0.084475,-0.919651 -0.084475,-3.678605 -0.084475,-5.434303c0,-1.421279 -0.253424,-2.758954 -0.844745,-3.595001c-0.760271,-1.003256 -1.773965,-1.672093 -3.125557,-1.672093c-1.182643,0 -2.787659,0.836047 -4.139252,1.922907c0,0 -0.253424,0.250814 -0.253424,-0.083605c0,-0.334419 0,-0.919651 0.084475,-1.25407c0,-0.334419 -0.168949,-0.585233 -0.168949,-0.585233c-0.844745,0.418023 -3.294506,1.003256 -4.223726,1.086861c-0.675796,0.083605 -0.844745,0.752442 -0.084475,1.003256l0,0l0,0c0.760271,0.250814 1.267118,0.418023 1.605016,0.668837c0.253424,0.250814 0.253424,0.501628 0.253424,0.752442c0,2.006512 0,5.099885 -0.084475,6.855582c0,0.668837 -0.253424,0.919651 -0.675796,1.003256l0,0c-0.337898,0.083605 -0.675796,0.167209 -1.098169,0.250814c-0.168949,0.167209 -0.168949,1.003256 0,1.170465c0.337898,0 1.858439,-0.083605 3.210032,-0.083605c1.773965,0 2.703185,0.083605 3.210032,0.083605c0.168949,-0.250814 0.253424,-1.003256 0.084475,-1.170465c-0.506847,0 -0.92922,-0.083605 -1.267118,-0.167209c-0.506847,-0.083605 -0.591322,-0.334419 -0.675796,-0.919651c-0.084475,-1.421279 -0.084475,-4.431047 -0.084475,-6.521164c0,-0.585233 0.168949,-0.836047 0.337898,-1.003256c0.591322,-0.585233 1.68949,-0.919651 2.534236,-0.919651s1.436067,0.250814 1.858439,0.668837c0.591322,0.501628 0.760271,1.170465 0.844745,1.672093c0.084475,1.170465 0.084475,3.427791 0.084475,5.434303c0,1.086861 -0.084475,1.337675 -0.506847,1.504884c-0.168949,0.083605 -0.675796,0.167209 -1.267118,0.250814c-0.168949,0.167209 -0.084475,1.003256 0,1.170465c0.760271,0 1.68949,-0.083605 3.125557,-0.083605c1.68949,0 2.787659,0.083605 3.210032,0.083605c0.253424,-0.250814 0.337898,-1.003256 0.168949,-1.25407z" fill="#484749"/>
    <path stroke="null" id="svg_13" d="m156.700236,39.148499c-1.351592,0 -2.449761,-1.003256 -2.449761,-2.424535s1.013694,-2.424535 2.449761,-2.424535c1.351592,0 2.365287,1.003256 2.365287,2.340931c0.084475,1.504884 -1.013694,2.50814 -2.365287,2.50814zm0,-4.514652c-1.182643,0 -2.196338,1.003256 -2.196338,2.173721c0,1.170465 1.013694,2.173721 2.196338,2.173721c1.182643,0 2.196338,-1.003256 2.196338,-2.173721c0,-1.170465 -0.92922,-2.173721 -2.196338,-2.173721zm0.675796,3.678605l-0.591322,-1.337675l-0.506847,0l0,1.337675l-0.422373,0l0,-3.009768l0.92922,0c0.675796,0 0.92922,0.334419 0.92922,0.836047c0,0.418023 -0.253424,0.668837 -0.591322,0.752442l0.675796,1.337675l-0.422373,0.083605l0,0zm-1.182643,-1.588489l0.506847,0c0.422373,0 0.591322,-0.167209 0.591322,-0.501628s-0.168949,-0.501628 -0.675796,-0.501628l-0.506847,0l0,1.003256l0.084475,0z" fill="#C1BFBE"/>
   </g>
  </g>
 </g>
</svg>