<svg width="160" height="50" xmlns="http://www.w3.org/2000/svg" xmlns:svg="http://www.w3.org/2000/svg">
 <defs>
  <style>.cls-1{fill:#7b83eb;}.cls-2{fill-opacity:0.1;}.cls-3{fill-opacity:0.2;}.cls-4{fill:#5059c9;}.cls-5{fill:#4b53bc;}.cls-6{fill:#fff;}.cls-7{fill:none;}</style>
 </defs>
 <g class="layer">
  <title>Layer 1</title>
  <g id="Guidelines">
   <circle class="cls-1" cx="20.32517" cy="13.26495" id="svg_1" r="5.47671"/>
   <path class="cls-2" d="m19.9317,14.43473l-4.95563,0l0,0.11698l0,0l0,0.09571a5.49798,5.49798 0 0 0 6.46571,3.95599l0,-2.59479a1.58452,1.58452 0 0 0 -1.56326,-1.57389l0.05317,0z" id="svg_2"/>
   <path class="cls-3" d="m18.76192,15.61515l-3.38174,0a5.48735,5.48735 0 0 0 4.94499,3.12651l0,-1.56326a1.56326,1.56326 0 0 0 -1.56326,-1.56326z" id="svg_3"/>
   <circle class="cls-4" cx="32.65043" cy="15.03026" id="svg_4" r="4.10487"/>
   <path class="cls-4" d="m36.18105,20.30492l-9.24129,0a0.75504,0.75504 0 0 0 -0.74441,0.75504l0,9.57095a6.01907,6.01907 0 0 0 4.6685,5.91272a5.6894,5.6894 0 0 0 1.20169,0.12761a5.90209,5.90209 0 0 0 5.87018,-5.87018l0,-8.73084a1.76531,1.76531 0 0 0 -1.75467,-1.76531z" id="svg_5"/>
   <path class="cls-1" d="m29.71534,22.07022l0,11.15548a9.37953,9.37953 0 0 1 -17.50421,4.67913a8.06087,8.06087 0 0 1 -0.59553,-1.16978a11.55958,11.55958 0 0 1 -0.38284,-1.16978a10.31536,10.31536 0 0 1 -0.29776,-2.3502l0,-11.14484l0,0a1.77594,1.77594 0 0 1 1.76531,-1.76531l15.26035,0a1.77594,1.77594 0 0 1 1.75467,1.76531z" id="svg_6"/>
   <path class="cls-3" d="m18.76192,15.61515l-3.38174,0a5.48735,5.48735 0 0 0 4.94499,3.12651l0,-1.56326a1.56326,1.56326 0 0 0 -1.56326,-1.56326z" id="svg_7"/>
   <path class="cls-2" d="m21.50559,20.30492l0,14.88815a1.56326,1.56326 0 0 1 -1.22296,1.52072a1.24422,1.24422 0 0 1 -0.3403,0l-8.32673,0a11.55958,11.55958 0 0 1 -0.38284,-1.16978a10.31536,10.31536 0 0 1 -0.29776,-2.3502l0,-11.12357l0,0a1.77594,1.77594 0 0 1 1.76531,-1.76531l8.80528,0z" id="svg_8"/>
   <path class="cls-3" d="m20.32517,20.30492l0,16.0473a1.24422,1.24422 0 0 1 0,0.3403a1.56326,1.56326 0 0 1 -1.52072,1.21232l-6.59332,0a8.06087,8.06087 0 0 1 -0.59553,-1.16978a11.55958,11.55958 0 0 1 -0.38284,-1.16978a10.31536,10.31536 0 0 1 -0.29776,-2.3502l0,-11.14484l0,0a1.77594,1.77594 0 0 1 1.76531,-1.76531l7.62486,0zm0,0l0,13.6971a1.58452,1.58452 0 0 1 -1.56326,1.56326l-7.52915,0a10.31536,10.31536 0 0 1 -0.29776,-2.3502l0,-11.14484l0,0a1.77594,1.77594 0 0 1 1.76531,-1.76531l7.62486,0zm-7.62486,0l0,0a1.77594,1.77594 0 0 0 -1.76531,1.76531l0,11.14484a10.31536,10.31536 0 0 0 0.29776,2.3502l6.38063,0a1.58452,1.58452 0 0 0 1.55262,-1.56326l0,-13.6971l-6.46571,0z" id="svg_9"/>
   <path class="cls-5" d="m1.93831,15.61515l15.65382,0a1.57389,1.57389 0 0 1 1.57389,1.56326l0,15.63256a1.57389,1.57389 0 0 1 -1.56326,1.56326l-15.66446,0a1.57389,1.57389 0 0 1 -1.56326,-1.56326l0,-15.63256a1.57389,1.57389 0 0 1 1.56326,-1.56326z" id="svg_10"/>
   <path class="cls-6" d="m14.43372,21.45343l-3.50935,0l0,9.41144l-2.29703,0l0,-9.41144l-3.53062,0l0,-2.3183l9.337,0l0,2.3183z" id="svg_11"/>
   <path class="cls-7" d="m0.37505,6.22498l37.55004,0l0,37.55004l-37.55004,0l0,-37.55004z" id="svg_12"/>
   <path class="cls-4" d="m63.90491,30.97121l-1.31866,0l0,-7.58232c0,-0.60616 0,-1.33993 0.10634,-2.20132l0,0a6.54015,6.54015 0 0 1 -0.3403,1.06344l-3.83902,8.7202l-0.6487,0l-3.84965,-8.62449a7.33773,7.33773 0 0 1 -0.3403,-1.15915l0,0c0,0.44664 0.06381,1.19105 0.06381,2.21195l0,7.57169l-1.27613,0l0,-11.30436l1.74404,0l3.47745,7.88008a11.0066,11.0066 0 0 1 0.52109,1.3612l0,0c0.22332,-0.62743 0.40411,-1.06344 0.54235,-1.39311l3.54125,-7.84818l1.65897,0l-0.04254,11.30436z" id="svg_13"/>
   <path class="cls-4" d="m66.88254,20.84727a0.80821,0.80821 0 0 1 -0.59553,-0.23396a0.85075,0.85075 0 0 1 1.19105,-1.20169a0.81885,0.81885 0 0 1 0,1.19105a0.81885,0.81885 0 0 1 -0.59553,0.24459zm0.62743,10.12394l-1.2974,0l0,-8.0715l1.2974,0l0,8.0715z" id="svg_14"/>
   <path class="cls-4" d="m75.14546,30.59901a4.25376,4.25376 0 0 1 -2.21195,0.56362a3.6795,3.6795 0 0 1 -2.78621,-1.12725a4.08361,4.08361 0 0 1 -1.06344,-2.91382a4.45581,4.45581 0 0 1 1.13788,-3.19032a3.99853,3.99853 0 0 1 3.05207,-1.21232a4.17932,4.17932 0 0 1 1.87165,0.39347l0,1.31866a3.29666,3.29666 0 0 0 -1.91419,-0.62743a2.57352,2.57352 0 0 0 -2.03117,0.89329a3.32856,3.32856 0 0 0 -0.79758,2.32893a3.19032,3.19032 0 0 0 0.74441,2.23322a2.56289,2.56289 0 0 0 1.99927,0.81885a3.19032,3.19032 0 0 0 1.98863,-0.70187l0.01063,1.22296z" id="svg_15"/>
   <path class="cls-4" d="m80.84549,24.20774a1.53135,1.53135 0 0 0 -0.97836,-0.26586a1.65897,1.65897 0 0 0 -1.38247,0.78694a3.58379,3.58379 0 0 0 -0.55299,2.12688l0,4.11551l-1.33993,0l0,-8.0715l1.2974,0l0,1.65897l0,0a2.78621,2.78621 0 0 1 0.89329,-1.31866a1.91419,1.91419 0 0 1 1.26549,-0.47855a2.12688,2.12688 0 0 1 0.77631,0.11698l0.02127,1.3293z" id="svg_16"/>
   <path class="cls-4" d="m84.90783,31.16263a3.75394,3.75394 0 0 1 -2.86065,-1.13788a4.18995,4.18995 0 0 1 -1.06344,-2.9989a4.37073,4.37073 0 0 1 1.06344,-3.19032a4.03043,4.03043 0 0 1 3.05207,-1.12725a3.6476,3.6476 0 0 1 2.81811,1.06344a4.45581,4.45581 0 0 1 1.01027,3.08397a4.31756,4.31756 0 0 1 -1.06344,3.09461a3.81775,3.81775 0 0 1 -2.95636,1.21232zm0.09571,-7.36963a2.48845,2.48845 0 0 0 -1.978,0.85075a3.49871,3.49871 0 0 0 -0.72314,2.33957a3.25412,3.25412 0 0 0 0.73377,2.25449a2.49908,2.49908 0 0 0 1.96736,0.82948a2.36083,2.36083 0 0 0 1.92482,-0.80821a3.53062,3.53062 0 0 0 0.66997,-2.30766a3.62633,3.62633 0 0 0 -0.66997,-2.33957a2.36083,2.36083 0 0 0 -1.92482,-0.81885z" id="svg_17"/>
   <path class="cls-4" d="m90.02297,30.68408l0,-1.38247a3.80711,3.80711 0 0 0 2.3183,0.77631c1.13788,0 1.7015,-0.3722 1.7015,-1.12725a0.989,0.989 0 0 0 -0.13825,-0.55299a1.54199,1.54199 0 0 0 -0.39347,-0.39347a3.36047,3.36047 0 0 0 -0.58489,-0.31903l-0.72314,-0.28713a10.26219,10.26219 0 0 1 -0.94646,-0.42538a3.0308,3.0308 0 0 1 -0.66997,-0.48918a1.80785,1.80785 0 0 1 -0.41474,-0.61679a2.12688,2.12688 0 0 1 -0.13825,-0.81885a1.94609,1.94609 0 0 1 0.25523,-0.99963a2.3183,2.3183 0 0 1 0.70187,-0.73377a2.9989,2.9989 0 0 1 0.989,-0.44664a4.81738,4.81738 0 0 1 3.02017,0.21269l0,1.30803a3.62633,3.62633 0 0 0 -2.05244,-0.58489a2.45654,2.45654 0 0 0 -0.6487,0.08508a1.3612,1.3612 0 0 0 -0.49982,0.23396a0.97836,0.97836 0 0 0 -0.32967,0.36157a0.93583,0.93583 0 0 0 -0.10634,0.45728a1.15915,1.15915 0 0 0 0.10634,0.53172a1.11661,1.11661 0 0 0 0.3403,0.3722a2.12688,2.12688 0 0 0 0.53172,0.29776l0.72314,0.29776q0.52109,0.21269 0.9571,0.41474a3.19032,3.19032 0 0 1 0.72314,0.48918a1.90356,1.90356 0 0 1 0.46791,0.62743a2.12688,2.12688 0 0 1 0.15952,0.85075a1.978,1.978 0 0 1 -0.26586,1.06344a2.39274,2.39274 0 0 1 -0.70187,0.72314a3.19032,3.19032 0 0 1 -1.06344,0.43601a4.95563,4.95563 0 0 1 -1.20169,0.14888a4.46644,4.46644 0 0 1 -2.11624,-0.51045z" id="svg_18"/>
   <path class="cls-4" d="m100.24262,31.16263a3.73267,3.73267 0 0 1 -2.85002,-1.13788a4.18995,4.18995 0 0 1 -1.06344,-2.9989a4.37073,4.37073 0 0 1 1.06344,-3.19032a4.00917,4.00917 0 0 1 2.9989,-1.13788a3.63696,3.63696 0 0 1 2.81811,1.06344a4.40264,4.40264 0 0 1 1.06344,3.08397a4.3601,4.3601 0 0 1 -1.06344,3.09461a3.83902,3.83902 0 0 1 -2.967,1.22296zm0.09571,-7.36963a2.45654,2.45654 0 0 0 -1.96736,0.85075a3.49871,3.49871 0 0 0 -0.72314,2.33957a3.25412,3.25412 0 0 0 0.73377,2.25449a2.47781,2.47781 0 0 0 1.95673,0.82948a2.3821,2.3821 0 0 0 1.93546,-0.80821a3.53062,3.53062 0 0 0 0.66997,-2.30766a3.62633,3.62633 0 0 0 -0.66997,-2.33957a2.3821,2.3821 0 0 0 -1.93546,-0.81885z" id="svg_19"/>
   <path class="cls-4" d="m109.55835,20.15603a1.6696,1.6696 0 0 0 -0.86139,-0.21269c-0.90392,0 -1.35057,0.56362 -1.35057,1.71214l0,1.24422l1.88229,0l0,1.06344l-1.88229,0l0,6.97616l-1.2974,0l0,-6.94426l-1.38247,0l0,-1.06344l1.38247,0l0,-1.33993a2.71177,2.71177 0 0 1 0.73377,-2.0099a2.47781,2.47781 0 0 1 1.82912,-0.73377a2.52035,2.52035 0 0 1 0.94646,0.13825l0,1.16978z" id="svg_20"/>
   <path class="cls-4" d="m113.92908,30.88613a2.49908,2.49908 0 0 1 -1.21232,0.25523c-1.41437,0 -2.12688,-0.78694 -2.12688,-2.36083l0,-4.78548l-1.39311,0l0,-1.06344l1.42501,0l0,-2.0099l1.28676,-0.41474l0,2.39274l2.0418,0l0,1.06344l-2.0418,0l0,4.59406a1.91419,1.91419 0 0 0 0.27649,1.15915a1.06344,1.06344 0 0 0 0.91456,0.35093a1.44628,1.44628 0 0 0 0.85075,-0.26586l-0.02127,1.08471z" id="svg_21"/>
   <path class="cls-4" d="m126.20117,20.8579l-3.26476,0l0,10.11331l-1.31866,0l0,-10.11331l-3.26476,0l0,-1.19105l7.84818,0l0,1.19105z" id="svg_22"/>
   <path class="cls-4" d="m132.1458,27.25981l-5.70003,0a2.98826,2.98826 0 0 0 0.72314,2.07371a2.48845,2.48845 0 0 0 1.90356,0.73377a3.9879,3.9879 0 0 0 2.50972,-0.89329l0,1.21232a4.7323,4.7323 0 0 1 -2.81811,0.77631a3.39237,3.39237 0 0 1 -2.67987,-1.06344a4.46644,4.46644 0 0 1 -0.97836,-3.09461a4.43454,4.43454 0 0 1 1.06344,-3.07334a3.43491,3.43491 0 0 1 2.6586,-1.18042a3.0308,3.0308 0 0 1 2.44591,1.06344a4.3282,4.3282 0 0 1 0.87202,2.85002l0,0.59553zm-1.3293,-1.06344a2.55225,2.55225 0 0 0 -0.54235,-1.74404a1.82912,1.82912 0 0 0 -1.47818,-0.62743a2.12688,2.12688 0 0 0 -1.55262,0.65933a2.98826,2.98826 0 0 0 -0.78694,1.71214l4.3601,0z" id="svg_23"/>
   <path class="cls-4" d="m139.38782,30.97121l-1.28676,0l0,-1.26549l0,0a2.7224,2.7224 0 0 1 -2.48845,1.45691a2.63733,2.63733 0 0 1 -1.88229,-0.63806a2.22259,2.22259 0 0 1 -0.6806,-1.7015c0,-1.51008 0.88265,-2.3821 2.6586,-2.62669l2.42464,-0.3403c0,-1.37184 -0.55299,-2.06307 -1.6696,-2.06307a3.92409,3.92409 0 0 0 -2.62669,0.99963l0,-1.3293a5.0088,5.0088 0 0 1 2.74367,-0.75504c1.89292,0 2.83938,0.99963 2.83938,3.00953l-0.0319,5.25339zm-1.28676,-4.08361l-1.94609,0.26586a3.19032,3.19032 0 0 0 -1.3612,0.44664a1.26549,1.26549 0 0 0 -0.45728,1.12725a1.21232,1.21232 0 0 0 0.42538,0.96773a1.57389,1.57389 0 0 0 1.11661,0.3722a2.12688,2.12688 0 0 0 1.59516,-0.66997a2.42464,2.42464 0 0 0 0.62743,-1.71214l0,-0.79758z" id="svg_24"/>
   <path class="cls-4" d="m152.80842,30.97121l-1.2974,0l0,-4.63659a3.46681,3.46681 0 0 0 -0.41474,-1.93546a1.55262,1.55262 0 0 0 -1.39311,-0.60616a1.75467,1.75467 0 0 0 -1.40374,0.75504a2.94573,2.94573 0 0 0 -0.57426,1.81848l0,4.60469l-1.2974,0l0,-4.79611c0,-1.58452 -0.60616,-2.3821 -1.83975,-2.3821a1.73341,1.73341 0 0 0 -1.40374,0.7125a2.9989,2.9989 0 0 0 -0.54235,1.86102l0,4.60469l-1.2974,0l0,-8.0715l1.2974,0l0,1.27613l0,0a2.75431,2.75431 0 0 1 2.50972,-1.46755a2.3183,2.3183 0 0 1 2.28639,1.6696a2.89255,2.89255 0 0 1 2.67987,-1.6696c1.77594,0 2.66923,1.06344 2.66923,3.28603l0.02127,4.9769z" id="svg_25"/>
   <path class="cls-4" d="m154.27596,30.68408l0,-1.38247a3.80711,3.80711 0 0 0 2.32893,0.77631c1.13788,0 1.7015,-0.3722 1.7015,-1.12725a0.99963,0.99963 0 0 0 -0.14888,-0.55299a1.26549,1.26549 0 0 0 -0.39347,-0.39347a3.00953,3.00953 0 0 0 -0.58489,-0.31903l-0.72314,-0.28713a9.97506,9.97506 0 0 1 -0.93583,-0.42538a2.87129,2.87129 0 0 1 -0.6806,-0.48918a1.77594,1.77594 0 0 1 -0.40411,-0.61679a2.12688,2.12688 0 0 1 -0.13825,-0.81885a1.94609,1.94609 0 0 1 0.25523,-0.99963a2.12688,2.12688 0 0 1 0.69124,-0.73377a3.10524,3.10524 0 0 1 0.989,-0.44664a4.84928,4.84928 0 0 1 3.0308,0.21269l0,1.30803a3.62633,3.62633 0 0 0 -2.05244,-0.58489a2.54162,2.54162 0 0 0 -0.65933,0.08508a1.44628,1.44628 0 0 0 -0.49982,0.23396a1.06344,1.06344 0 0 0 -0.43601,0.81885a1.15915,1.15915 0 0 0 0.11698,0.53172a1.21232,1.21232 0 0 0 0.32967,0.3722a2.18005,2.18005 0 0 0 0.54235,0.29776l0.7125,0.29776c0.36157,0.13825 0.6806,0.27649 0.96773,0.41474a3.73267,3.73267 0 0 1 0.72314,0.48918a1.87165,1.87165 0 0 1 0.45728,0.62743a2.29703,2.29703 0 0 1 -0.09571,1.89292a2.30766,2.30766 0 0 1 -0.7125,0.72314a2.9989,2.9989 0 0 1 -1.01027,0.43601a4.9769,4.9769 0 0 1 -1.21232,0.14888a4.46644,4.46644 0 0 1 -2.15878,-0.48918z" id="svg_26"/>
  </g>
 </g>
</svg>