<svg xmlns="http://www.w3.org/2000/svg" viewBox="0 0 180 35.31"><defs><style>.cls-1{fill:#7b83eb;}.cls-2{fill-opacity:0.1;}.cls-3{fill-opacity:0.2;}.cls-4{fill:#5059c9;}.cls-5{fill:#4b53bc;}.cls-6{fill:#fff;}.cls-7{fill:none;}</style></defs><g id="Guidelines"><circle class="cls-1" cx="34.09" cy="6.62" r="5.15"/><path class="cls-2" d="M33.72,7.72H29.06l0,.11h0l0,.09a5.17,5.17,0,0,0,6.08,3.72V9.2a1.49,1.49,0,0,0-1.47-1.48Z"/><path class="cls-3" d="M32.62,8.83H29.44a5.16,5.16,0,0,0,4.65,2.94V10.3a1.47,1.47,0,0,0-1.47-1.47Z"/><circle class="cls-4" cx="45.68" cy="8.28" r="3.86"/><path class="cls-4" d="M49,13.24H40.31a.71.71,0,0,0-.7.71v9A5.66,5.66,0,0,0,44,28.51a5.35,5.35,0,0,0,1.13.12,5.55,5.55,0,0,0,5.52-5.52V14.9A1.66,1.66,0,0,0,49,13.24Z"/><path class="cls-1" d="M42.92,14.9V25.39a8.82,8.82,0,0,1-16.46,4.4,7.58,7.58,0,0,1-.56-1.1,10.87,10.87,0,0,1-.36-1.1,9.7,9.7,0,0,1-.28-2.21V14.9h0a1.67,1.67,0,0,1,1.66-1.66H41.27a1.67,1.67,0,0,1,1.65,1.66Z"/><path class="cls-3" d="M32.62,8.83H29.44a5.16,5.16,0,0,0,4.65,2.94V10.3a1.47,1.47,0,0,0-1.47-1.47Z"/><path class="cls-2" d="M35.2,13.24v14a1.47,1.47,0,0,1-1.15,1.43,1.17,1.17,0,0,1-.32,0H25.9a10.87,10.87,0,0,1-.36-1.1,9.7,9.7,0,0,1-.28-2.21V14.9h0a1.67,1.67,0,0,1,1.66-1.66Z"/><path class="cls-3" d="M34.09,13.24V28.33a1.17,1.17,0,0,1,0,.32,1.47,1.47,0,0,1-1.43,1.14H26.46a7.58,7.58,0,0,1-.56-1.1,10.87,10.87,0,0,1-.36-1.1,9.7,9.7,0,0,1-.28-2.21V14.9h0a1.67,1.67,0,0,1,1.66-1.66Zm0,0V26.12a1.49,1.49,0,0,1-1.47,1.47H25.54a9.7,9.7,0,0,1-.28-2.21V14.9h0a1.67,1.67,0,0,1,1.66-1.66Zm-7.17,0h0a1.67,1.67,0,0,0-1.66,1.66V25.38a9.7,9.7,0,0,0,.28,2.21h6A1.49,1.49,0,0,0,33,26.12V13.24Z"/><path class="cls-5" d="M16.8,8.83H31.52A1.48,1.48,0,0,1,33,10.3V25a1.48,1.48,0,0,1-1.47,1.47H16.8A1.48,1.48,0,0,1,15.33,25V10.3A1.48,1.48,0,0,1,16.8,8.83Z"/><path class="cls-6" d="M28.55,14.32h-3.3v8.85H23.09V14.32H19.77V12.14h8.78Z"/><path class="cls-7" d="M15.33,0H50.64V35.31H15.33Z"/><path class="cls-4" d="M75.07,23.27H73.83V16.14c0-.57,0-1.26.1-2.07h0a6.15,6.15,0,0,1-.32,1L70,23.27h-.61l-3.62-8.11a6.9,6.9,0,0,1-.32-1.09h0c0,.42.06,1.12.06,2.08v7.12h-1.2V12.64h1.64l3.27,7.41a10.35,10.35,0,0,1,.49,1.28h0c.21-.59.38-1,.51-1.31l3.33-7.38h1.56Z"/><path class="cls-4" d="M77.87,13.75a.76.76,0,0,1-.56-.22.8.8,0,0,1,1.12-1.13.77.77,0,0,1,0,1.12A.77.77,0,0,1,77.87,13.75Zm.59,9.52H77.24V15.68h1.22Z"/><path class="cls-4" d="M85.64,22.92a4,4,0,0,1-2.08.53,3.46,3.46,0,0,1-2.62-1.06,3.84,3.84,0,0,1-1-2.74,4.19,4.19,0,0,1,1.07-3,3.76,3.76,0,0,1,2.87-1.14,3.93,3.93,0,0,1,1.76.37v1.24a3.1,3.1,0,0,0-1.8-.59,2.42,2.42,0,0,0-1.91.84,3.13,3.13,0,0,0-.75,2.19,3,3,0,0,0,.7,2.1,2.41,2.41,0,0,0,1.88.77,3,3,0,0,0,1.87-.66Z"/><path class="cls-4" d="M91,16.91a1.44,1.44,0,0,0-.92-.25,1.56,1.56,0,0,0-1.3.74,3.37,3.37,0,0,0-.52,2v3.87H87V15.68h1.22v1.56h0A2.62,2.62,0,0,1,89.06,16a1.8,1.8,0,0,1,1.19-.45,2,2,0,0,1,.73.11Z"/><path class="cls-4" d="M94.82,23.45a3.53,3.53,0,0,1-2.69-1.07,3.94,3.94,0,0,1-1-2.82,4.11,4.11,0,0,1,1-3A3.79,3.79,0,0,1,95,15.5a3.43,3.43,0,0,1,2.65,1,4.19,4.19,0,0,1,.95,2.9,4.06,4.06,0,0,1-1,2.91A3.59,3.59,0,0,1,94.82,23.45Zm.09-6.93a2.34,2.34,0,0,0-1.86.8,3.29,3.29,0,0,0-.68,2.2,3.06,3.06,0,0,0,.69,2.12,2.35,2.35,0,0,0,1.85.78,2.22,2.22,0,0,0,1.81-.76,3.32,3.32,0,0,0,.63-2.17,3.41,3.41,0,0,0-.63-2.2A2.22,2.22,0,0,0,94.91,16.52Z"/><path class="cls-4" d="M99.63,23v-1.3a3.58,3.58,0,0,0,2.18.73c1.07,0,1.6-.35,1.6-1.06a.93.93,0,0,0-.13-.52,1.45,1.45,0,0,0-.37-.37,3.16,3.16,0,0,0-.55-.3l-.68-.27a9.65,9.65,0,0,1-.89-.4,2.85,2.85,0,0,1-.63-.46,1.7,1.7,0,0,1-.39-.58,2,2,0,0,1-.13-.77,1.83,1.83,0,0,1,.24-.94,2.18,2.18,0,0,1,.66-.69,2.82,2.82,0,0,1,.93-.42,4.53,4.53,0,0,1,2.84.2v1.23a3.41,3.41,0,0,0-1.93-.55,2.31,2.31,0,0,0-.61.08,1.28,1.28,0,0,0-.47.22.92.92,0,0,0-.31.34.88.88,0,0,0-.1.43,1.09,1.09,0,0,0,.1.5,1.05,1.05,0,0,0,.32.35,2,2,0,0,0,.5.28l.68.28q.49.2.9.39a3,3,0,0,1,.68.46,1.79,1.79,0,0,1,.44.59,2,2,0,0,1,.15.8,1.86,1.86,0,0,1-.25,1,2.25,2.25,0,0,1-.66.68,3,3,0,0,1-1,.41,4.66,4.66,0,0,1-1.13.14A4.2,4.2,0,0,1,99.63,23Z"/><path class="cls-4" d="M109.24,23.45a3.51,3.51,0,0,1-2.68-1.07,3.94,3.94,0,0,1-1-2.82,4.11,4.11,0,0,1,1-3,3.77,3.77,0,0,1,2.82-1.07,3.42,3.42,0,0,1,2.65,1,4.14,4.14,0,0,1,1,2.9,4.1,4.1,0,0,1-1,2.91A3.61,3.61,0,0,1,109.24,23.45Zm.09-6.93a2.31,2.31,0,0,0-1.85.8,3.29,3.29,0,0,0-.68,2.2,3.06,3.06,0,0,0,.69,2.12,2.33,2.33,0,0,0,1.84.78,2.24,2.24,0,0,0,1.82-.76,3.32,3.32,0,0,0,.63-2.17,3.41,3.41,0,0,0-.63-2.2A2.24,2.24,0,0,0,109.33,16.52Z"/><path class="cls-4" d="M118,13.1a1.57,1.57,0,0,0-.81-.2c-.85,0-1.27.53-1.27,1.61v1.17h1.77v1h-1.77v6.56H114.7V16.71h-1.3v-1h1.3V14.45a2.55,2.55,0,0,1,.69-1.89,2.33,2.33,0,0,1,1.72-.69A2.37,2.37,0,0,1,118,12Z"/><path class="cls-4" d="M122.11,23.19a2.35,2.35,0,0,1-1.14.24c-1.33,0-2-.74-2-2.22v-4.5h-1.31v-1H119V13.82l1.21-.39v2.25h1.92v1h-1.92V21a1.8,1.8,0,0,0,.26,1.09,1,1,0,0,0,.86.33,1.36,1.36,0,0,0,.8-.25Z"/><path class="cls-4" d="M133.65,13.76h-3.07v9.51h-1.24V13.76h-3.07V12.64h7.38Z"/><path class="cls-4" d="M139.24,19.78h-5.36a2.81,2.81,0,0,0,.68,1.95,2.34,2.34,0,0,0,1.79.69,3.75,3.75,0,0,0,2.36-.84v1.14a4.45,4.45,0,0,1-2.65.73,3.19,3.19,0,0,1-2.52-1,4.2,4.2,0,0,1-.92-2.91,4.17,4.17,0,0,1,1-2.89,3.23,3.23,0,0,1,2.5-1.11,2.85,2.85,0,0,1,2.3,1,4.07,4.07,0,0,1,.82,2.68Zm-1.25-1a2.4,2.4,0,0,0-.51-1.64,1.72,1.72,0,0,0-1.39-.59,2,2,0,0,0-1.46.62,2.81,2.81,0,0,0-.74,1.61Z"/><path class="cls-4" d="M146.05,23.27h-1.21V22.08h0a2.56,2.56,0,0,1-2.34,1.37,2.48,2.48,0,0,1-1.77-.6,2.09,2.09,0,0,1-.64-1.6c0-1.42.83-2.24,2.5-2.47l2.28-.32c0-1.29-.52-1.94-1.57-1.94a3.69,3.69,0,0,0-2.47.94V16.21a4.71,4.71,0,0,1,2.58-.71c1.78,0,2.67.94,2.67,2.83Zm-1.21-3.84-1.83.25a3,3,0,0,0-1.28.42,1.19,1.19,0,0,0-.43,1.06,1.14,1.14,0,0,0,.4.91,1.48,1.48,0,0,0,1.05.35,2,2,0,0,0,1.5-.63,2.28,2.28,0,0,0,.59-1.61Z"/><path class="cls-4" d="M158.67,23.27h-1.22V18.91a3.26,3.26,0,0,0-.39-1.82,1.46,1.46,0,0,0-1.31-.57,1.65,1.65,0,0,0-1.32.71,2.77,2.77,0,0,0-.54,1.71v4.33h-1.22V18.76c0-1.49-.57-2.24-1.73-2.24a1.63,1.63,0,0,0-1.32.67,2.82,2.82,0,0,0-.51,1.75v4.33h-1.22V15.68h1.22v1.2h0a2.59,2.59,0,0,1,2.36-1.38,2.18,2.18,0,0,1,2.15,1.57,2.72,2.72,0,0,1,2.52-1.57c1.67,0,2.51,1,2.51,3.09Z"/><path class="cls-4" d="M160.05,23v-1.3a3.58,3.58,0,0,0,2.19.73c1.07,0,1.6-.35,1.6-1.06a.94.94,0,0,0-.14-.52,1.19,1.19,0,0,0-.37-.37,2.83,2.83,0,0,0-.55-.3l-.68-.27a9.38,9.38,0,0,1-.88-.4,2.7,2.7,0,0,1-.64-.46,1.67,1.67,0,0,1-.38-.58,2,2,0,0,1-.13-.77,1.83,1.83,0,0,1,.24-.94,2,2,0,0,1,.65-.69,2.92,2.92,0,0,1,.93-.42,4.56,4.56,0,0,1,2.85.2v1.23a3.41,3.41,0,0,0-1.93-.55,2.39,2.39,0,0,0-.62.08,1.36,1.36,0,0,0-.47.22,1,1,0,0,0-.41.77,1.09,1.09,0,0,0,.11.5,1.14,1.14,0,0,0,.31.35,2.05,2.05,0,0,0,.51.28l.67.28c.34.13.64.26.91.39a3.51,3.51,0,0,1,.68.46,1.76,1.76,0,0,1,.43.59,2.16,2.16,0,0,1-.09,1.78,2.17,2.17,0,0,1-.67.68,2.82,2.82,0,0,1-.95.41,4.68,4.68,0,0,1-1.14.14A4.2,4.2,0,0,1,160.05,23Z"/></g></svg>