<?xml version="1.0" encoding="utf-8"?>
<!-- Generator: Adobe Illustrator 26.0.3, SVG Export Plug-In . SVG Version: 6.00 Build 0)  -->
<svg version="1.1" id="Layer_1" xmlns="http://www.w3.org/2000/svg" xmlns:xlink="http://www.w3.org/1999/xlink" x="0px" y="0px"
	 viewBox="0 0 240 90" style="enable-background:new 0 0 240 90;" xml:space="preserve">
<style type="text/css">
	.st0{display:none;}
	.st1{display:inline;fill:none;stroke:#E8E7E7;stroke-width:1.1277;stroke-miterlimit:10;}
	.st2{fill-rule:evenodd;clip-rule:evenodd;fill:#FA8A3B;}
	.st3{fill-rule:evenodd;clip-rule:evenodd;fill:#FFFFFF;}
</style>
<g id="Layer_2_00000070109433369796760050000010816182922500317085_" class="st0">
	<rect x="-10" class="st1" width="260" height="90"/>
</g>
<path class="st2" d="M76.4,88.3h87.5V0.8H76.4V88.3z"/>
<path class="st3" d="M138.6,56.3c-2.4,0-4.2,0.2-5.8,0.8c-0.4,0.2-1.1,0.2-1.2,0.7c0.2,0.2,0.3,0.6,0.5,1c0.3,0.6,1,1.4,1.5,1.8
	c0.6,0.5,1.3,1,1.9,1.4c1.1,0.7,2.5,1.1,3.6,1.8c0.7,0.4,1.3,1,2,1.4c0.3,0.2,0.5,0.6,1,0.8v-0.1c-0.2-0.3-0.3-0.7-0.5-1
	c-0.3-0.3-0.6-0.6-0.9-0.9c-0.9-1.2-1.9-2.2-3.1-3c-1-0.7-3-1.5-3.4-2.6l0,0c0.7,0,1.4-0.3,2.1-0.5c1-0.3,1.9-0.2,3-0.5
	c0.5-0.1,1-0.3,1.4-0.4v-0.3c-0.5-0.5-0.9-1.3-1.5-1.8c-1.5-1.3-3.2-2.6-4.9-3.7c-0.9-0.6-2.1-1-3.1-1.5c-0.3-0.2-1-0.3-1.1-0.6
	c-0.5-0.7-0.8-1.5-1.2-2.3c-0.9-1.6-1.7-3.5-2.5-5.2c-0.5-1.2-0.9-2.3-1.5-3.4c-3.1-5.1-6.4-8.1-11.5-11.1c-1.1-0.6-2.4-0.9-3.8-1.2
	c-0.7,0-1.5-0.1-2.2-0.1c-0.5-0.2-1-0.8-1.4-1.1c-1.7-1.1-6.1-3.4-7.3-0.3c-0.8,1.9,1.2,3.9,1.9,4.8c0.5,0.7,1.2,1.4,1.5,2.2
	c0.2,0.5,0.3,1.1,0.5,1.6c0.5,1.3,0.9,2.8,1.5,4c0.3,0.6,0.7,1.3,1.1,1.8c0.2,0.4,0.7,0.5,0.7,1c-0.4,0.6-0.4,1.5-0.7,2.2
	c-1,3.4-0.7,7.5,0.9,10c0.5,0.7,1.6,2.4,3.1,1.8c1.4-0.5,1-2.2,1.4-3.7c0.1-0.4,0-0.6,0.2-0.8v0c0.4,0.8,0.8,1.6,1.2,2.5
	c0.9,1.4,2.5,3,3.9,4c0.7,0.5,1.3,1.4,2.2,1.8v-0.1h0c-0.2-0.3-0.4-0.4-0.7-0.6c-0.5-0.5-1.1-1.2-1.5-1.8c-1.3-1.7-2.4-3.5-3.3-5.4
	c-0.5-0.9-0.9-1.9-1.3-2.8c-0.2-0.4-0.2-0.9-0.5-1.1c-0.4,0.7-1.1,1.2-1.4,2c-0.6,1.3-0.6,2.8-0.8,4.5c-0.1,0,0,0-0.1,0
	c-1-0.2-1.3-1.2-1.6-2.1c-0.9-2.1-1-5.5-0.3-8c0.2-0.6,1.1-2.6,0.7-3.2c-0.2-0.6-0.8-0.9-1.1-1.4c-0.4-0.6-0.8-1.3-1.1-1.9
	c-0.7-1.7-1.1-3.5-1.8-5.2c-0.4-0.8-1-1.6-1.5-2.3c-0.6-0.8-1.2-1.4-1.6-2.3c-0.1-0.4-0.3-0.9-0.1-1.2c0-0.2,0.2-0.3,0.4-0.4
	c0.4-0.3,1.5,0.1,1.9,0.3c1.1,0.4,2,0.9,2.9,1.5c0.4,0.3,0.9,0.9,1.4,1h0.6c1,0.2,2,0,2.9,0.3c1.6,0.5,3,1.3,4.3,2.1
	c3.9,2.5,7.1,6,9.3,10.2c0.4,0.7,0.5,1.3,0.8,2c0.6,1.4,1.4,2.9,2,4.4c0.6,1.4,1.2,2.8,2.1,4c0.4,0.6,2.2,1,3,1.3
	c0.6,0.3,1.5,0.5,2.1,0.8c1,0.6,2,1.4,3,2C137,55,138.5,55.7,138.6,56.3z"/>
<path class="st3" d="M108.2,30.5c-0.5,0-0.9,0-1.2,0.1v0h0c0.2,0.5,0.7,0.8,1,1.2c0.2,0.5,0.4,1,0.7,1.4l0,0
	c0.4-0.3,0.6-0.8,0.6-1.5c-0.2-0.2-0.2-0.4-0.4-0.6C108.9,30.9,108.5,30.7,108.2,30.5z"/>
</svg>
