<svg width="160" height="50" xmlns="http://www.w3.org/2000/svg" xmlns:svg="http://www.w3.org/2000/svg">
 <g class="layer">
  <title>Layer 1</title>
  <g id="svg_1">
   <path d="m157.32496,2.79385c0.106,0 0.31799,0 0.42398,-0.21199c0.106,-0.106 0.106,-0.106 0.106,-0.21199c0,-0.106 -0.106,-0.21199 -0.21199,-0.31799c-0.106,0 -0.21199,0 -0.42398,0l-0.106,0l0,0.74197l0.21199,0zm-0.21199,-1.05996c0.31799,0 0.52998,0 0.63598,0.106c0.42398,0.106 0.42398,0.52998 0.42398,0.74197c0,0 0,0.106 0,0.21199c0,0.106 -0.106,0.31799 -0.31799,0.42398c0,0 0,0 -0.106,0.106l0.52998,1.05996l-0.52998,0l-0.52998,-0.95396l-0.31799,0l0,0.95396l-0.52998,0l0,-2.43791l0.74197,0l0,-0.21199zm0.21199,3.49787c1.27195,0 2.22591,-0.95396 2.22591,-2.22591s-0.95396,-2.22591 -2.22591,-2.22591c-1.27195,0 -2.22591,0.95396 -2.22591,2.22591s0.95396,2.22591 2.22591,2.22591m-1.80193,-2.22591c0,-0.95396 0.74197,-1.69594 1.80193,-1.69594c0.95396,0 1.69594,0.74197 1.69594,1.69594c0,0.95396 -0.74197,1.69594 -1.69594,1.69594c-0.95396,0 -1.80193,-0.74197 -1.80193,-1.69594m-15.36941,14.20346c-2.96789,0 -5.40579,-2.01392 -6.14776,-4.66382l16.21738,0l2.22591,-3.49787l-18.44329,0c0.74197,-2.6499 3.17988,-4.66382 6.14776,-4.66382l11.12957,0l2.22591,-3.49787l-13.67348,0c-5.40579,0 -9.85762,4.45183 -9.85762,9.85762c0,5.51179 4.45183,9.85762 9.85762,9.85762l11.76555,0l2.22591,-3.49787l-13.67348,0l0,0.106zm-46.53222,3.49787l11.76555,0l2.22591,-3.49787l-13.67348,0c-3.49787,0 -6.35976,-2.86189 -6.35976,-6.35976c0,-3.49787 2.86189,-6.35976 6.35976,-6.35976l11.12957,0l2.22591,-3.49787l-13.67348,0c-5.51179,0 -9.85762,4.45183 -9.85762,9.85762c0,5.40579 4.45183,9.85762 9.85762,9.85762m-72.18323,-3.49787l-10.91758,0c-3.49787,0 -6.35976,-2.86189 -6.35976,-6.35976c0,-3.49787 2.86189,-6.35976 6.35976,-6.35976l11.02358,0c3.49787,0 6.35976,2.86189 6.35976,6.35976c0,3.49787 -2.86189,6.35976 -6.46575,6.35976m-11.12957,3.49787l11.44756,0c5.51179,0 9.85762,-4.45183 9.85762,-9.85762c0,-5.51179 -4.45183,-9.85762 -9.85762,-9.85762l-11.44756,0c-5.51179,0 -9.85762,4.45183 -9.85762,9.85762c-0.106,5.40579 4.34583,9.85762 9.85762,9.85762m39.96047,-6.46575c3.70986,0 6.67774,-2.96789 6.67774,-6.67774s-2.96789,-6.67774 -6.67774,-6.67774l-16.64136,0l0,19.82124l3.81585,0l0,-16.32337l12.61352,0c1.80193,0 3.17988,1.37795 3.17988,3.17988c0,1.80193 -1.37795,3.17988 -3.17988,3.17988l-10.70559,0l11.34157,9.96362l5.51179,0l-7.63171,-6.35976l1.69594,0l0,-0.106zm62.85559,2.96789l0,-16.32337l-3.81585,0l0,17.91331c0,0.52998 0.21199,0.95396 0.52998,1.27195c0.31799,0.42398 0.84797,0.52998 1.37795,0.52998l17.27734,0l2.22591,-3.49787l-17.59533,0l0,0.106zm-46.53222,-3.49787l10.17561,0l-5.40579,-8.69167l-9.75163,15.6874l-4.45183,0l11.97754,-18.76128c0.52998,-0.74197 1.37795,-1.16596 2.33191,-1.16596c0.95396,0 1.80193,0.42398 2.33191,1.16596l11.87155,18.76128l-4.45183,0l-2.11992,-3.49787l-10.28161,0l-2.22591,-3.49787z" fill="#ED2127" id="svg_2"/>
   <polygon id="svg_3" points="2.2529056072235107,32.472712337970734 7.234715461730957,32.472712337970734 13.382478713989258,45.298220455646515 13.382478713989258,32.472712337970734 16.668352127075195,32.472712337970734 16.668352127075195,48.796091854572296 11.792539596557617,48.796091854572296 5.538778305053711,35.22860985994339 5.538778305053711,48.796091854572296 2.2529056072235107,48.796091854572296 "/>
   <polygon id="svg_4" points="20.272214889526367,32.472712337970734 31.189796447753906,32.472712337970734 31.189796447753906,35.12261086702347 23.770078659057617,35.12261086702347 23.770078659057617,39.04445916414261 30.765810012817383,39.04445916414261 30.765810012817383,41.69436150789261 23.770078659057617,41.69436150789261 23.770078659057617,46.146189510822296 31.50778579711914,46.146189510822296 31.50778579711914,48.796091854572296 20.272214889526367,48.796091854572296 "/>
   <polygon id="svg_5" points="38.18552780151367,35.22860985994339 33.309715270996094,35.22860985994339 33.309715270996094,32.472712337970734 46.559207916259766,32.472712337970734 46.559207916259766,35.22860985994339 41.68339538574219,35.22860985994339 41.68339538574219,48.796091854572296 38.18552780151367,48.796091854572296 "/>
   <path d="m50.79904,44.02627c0,1.16596 0.21199,3.17988 3.92185,3.17988c3.39187,0 3.81585,-2.11992 3.81585,-2.86189c0,-1.80193 -1.48394,-2.22591 -3.70986,-2.75589c-2.43791,-0.63598 -3.60386,-0.84797 -4.45183,-1.48394c-1.37795,-0.95396 -1.69594,-2.11992 -1.69594,-3.17988c0,-3.28587 3.17988,-4.76982 6.14776,-4.76982c1.05996,0 3.28587,0.21199 4.55783,1.58994c0.95396,0.95396 0.95396,2.11992 0.95396,2.75589l-2.33191,0c-0.106,-2.01392 -1.80193,-2.43791 -3.39187,-2.43791c-2.22591,0 -3.60386,1.05996 -3.60386,2.6499c0,1.48394 0.95396,1.90793 2.96789,2.43791c3.92185,0.95396 4.34583,1.05996 5.2998,1.69594c1.48394,0.95396 1.58994,2.5439 1.58994,3.28587c0,2.86189 -2.22591,5.08781 -6.46575,5.08781c-1.27195,0 -3.81585,-0.21199 -5.08781,-1.80193c-0.95396,-1.16596 -0.95396,-2.5439 -0.95396,-3.28587l2.43791,0l0,-0.106z" id="svg_6"/>
   <path d="m66.69844,32.57871l0,10.06961c0,1.69594 0.42398,2.43791 0.74197,2.96789c1.05996,1.37795 2.5439,1.58994 3.70986,1.58994c4.34583,0 4.34583,-3.49787 4.34583,-4.66382l0,-9.96362l2.22591,0l0,10.06961c0,0.84797 0,2.75589 -1.37795,4.34583c-1.58994,2.01392 -4.02785,2.22591 -5.2998,2.22591c-1.48394,0 -4.23984,-0.42398 -5.72378,-2.5439c-0.52998,-0.74197 -0.95396,-1.69594 -0.95396,-4.13384l0,-9.96362l2.33191,0z" id="svg_7"/>
   <rect height="16.32337" id="svg_8" width="2.22591" x="82.38583" y="32.57871"/>
   <polygon id="svg_9" points="93.4094009399414,48.796091854572296 93.4094009399414,34.486635982990265 87.89762115478516,34.486635982990265 87.89762115478516,32.578711330890656 101.0411148071289,32.578711330890656 101.0411148071289,34.486635982990265 95.63533020019531,34.486635982990265 95.63533020019531,48.796091854572296 "/>
   <polygon id="svg_10" points="103.69100952148438,32.578711330890656 113.97262573242188,32.578711330890656 113.97262573242188,34.486635982990265 106.02293395996094,34.486635982990265 106.02293395996094,39.468447506427765 113.54863739013672,39.468447506427765 113.54863739013672,41.376372158527374 106.02293395996094,41.376372158527374 106.02293395996094,46.7821643948555 114.07861328125,46.7821643948555 114.07861328125,48.796091854572296 103.69100952148438,48.796091854572296 "/>
  </g>
 </g>
</svg>