<svg width="160" height="50" xmlns="http://www.w3.org/2000/svg" xmlns:svg="http://www.w3.org/2000/svg">
 <g>
  <title>Layer 1</title>
  <g stroke="null" id="svg_1">
   <path stroke="null" id="svg_2" d="m71.77729,19.3984c4.2263,0 7.55857,3.41355 7.55857,7.55857s-3.41355,7.55857 -7.55857,7.55857c-4.2263,0 -7.55857,-3.41355 -7.55857,-7.55857s3.41355,-7.55857 7.55857,-7.55857zm0,13.73546c3.41355,0 6.17689,-2.76335 6.17689,-6.17689s-2.76335,-6.17689 -6.17689,-6.17689c-3.41355,0 -6.17689,2.76335 -6.17689,6.17689s2.84462,6.17689 6.17689,6.17689zm60.06217,-6.58327l0,0.73147l-13.57291,0c0.16255,3.16972 2.84462,5.77052 6.09562,5.77052c2.03187,0 3.98247,-0.9753 5.12032,-2.43825l1.13785,0.81275c-1.38167,1.86932 -3.81992,3.00717 -6.25817,3.00717c-4.14502,0 -7.47729,-3.33227 -7.47729,-7.47729c0,-4.14502 3.33227,-7.47729 7.47729,-7.47729c3.98247,-0.08127 7.31474,3.08845 7.47729,7.07092zm-13.41036,-0.73147l11.94741,0c-0.48765,-2.84462 -3.00717,-4.95777 -6.01434,-4.95777c-2.9259,0 -5.44542,2.11315 -5.93307,4.95777zm30.88447,0.73147l0,0.73147l-13.57291,0c0.16255,3.16972 2.84462,5.77052 6.09562,5.77052c2.03187,0 3.98247,-0.9753 5.12032,-2.43825l1.13785,0.81275c-1.38167,1.86932 -3.81992,3.00717 -6.25817,3.00717c-4.14502,0 -7.47729,-3.33227 -7.47729,-7.47729c0,-4.14502 3.33227,-7.47729 7.47729,-7.47729c3.98247,-0.08127 7.23347,3.08845 7.47729,7.07092zm-13.49164,-0.73147l11.94741,0c-0.48765,-2.84462 -3.00717,-4.95777 -6.01434,-4.95777c-2.9259,0 -5.44542,2.11315 -5.93307,4.95777zm-32.02232,-10.97212c0.89402,-0.9753 2.11315,-1.38167 3.65737,-1.38167l1.21912,0l0,1.46295l-1.21912,0c-1.05657,0 -1.9506,0.3251 -2.6008,0.9753c-1.3004,1.38167 -1.3004,3.73865 -1.3004,3.73865l0,0.40637l5.12032,0l0,1.46295l-5.12032,0l0,12.67889l-1.54422,0l0,-12.67889l-2.68207,0l0,-1.46295l2.68207,0l0,-0.40637c0,-0.16255 0,-3.00717 1.78805,-4.79522zm51.60958,6.66454l0,6.90837c0,0 0,2.2757 1.3004,3.65737c0.6502,0.6502 1.46295,0.9753 2.6008,0.9753l0,1.46295c-1.46295,0 -2.76335,-0.48765 -3.65737,-1.38167c-1.70677,-1.78805 -1.70677,-4.5514 -1.70677,-4.71395l0,-6.82709l-3.00717,0l0,-1.54422l3.00717,0l0,-4.63267l1.46295,0l0,4.63267l3.9012,0l0,1.46295l-3.9012,0zm-43.56336,-7.96494l1.46295,0l0,20.72511l-1.46295,0l0,-20.72511zm-22.3506,5.93307c3.9012,0 7.15219,3.16972 7.15219,7.15219l0,7.63984l-1.46295,0l0,-7.63984c0,-3.08845 -2.51952,-5.60797 -5.60797,-5.60797c-3.08845,0 -5.60797,2.51952 -5.60797,5.60797l0,7.63984l-1.46295,0l0,-7.63984c-0.16255,-3.9012 3.00717,-7.15219 6.98964,-7.15219z" fill="#48595F" clip-rule="evenodd" fill-rule="evenodd"/>
   <linearGradient stroke="null" transform="translate(0,2.074069023132324) translate(-0.04996693134307861,0) translate(-21.5947265625,-19.458984375) translate(0.7395879626274109,11.17533016204834) scale(0.8127492666244507) translate(-0.7395879626274109,-11.17533016204834) " y2="0.99635" x2="0.50295" y1="-0.00272" x1="0.50295" id="SVGID_1_">
    <stop stroke="null" stop-color="#00B2FF" offset="0"/>
    <stop stroke="null" stop-color="#AF7CFB" offset="1"/>
   </linearGradient>
   <path stroke="null" id="svg_3" d="m28.70158,27.93227c0.6502,0.6502 1.70677,1.54422 3.00717,2.68207c1.38167,1.05657 3.08845,2.2757 5.2016,3.251c1.05657,0.40637 2.19442,0.81275 3.41355,0.81275c0.56892,0 1.21912,0 1.78805,-0.16255c0.3251,-0.08127 0.56892,-0.16255 0.81275,-0.3251c0.24382,-0.16255 0.56892,-0.24382 0.81275,-0.48765c0.48765,-0.3251 0.9753,-0.81275 1.38167,-1.3004c0.40637,-0.56892 0.73147,-1.13785 1.05657,-1.78805c0.56892,-1.3004 0.89402,-2.84462 0.9753,-4.38885c0.08127,-1.54422 -0.16255,-3.16972 -0.6502,-4.71395c-0.48765,-1.46295 -1.3004,-2.84462 -2.43825,-3.73865c-1.13785,-0.81275 -2.51952,-1.13785 -4.06375,-0.89402c-0.73147,0.16255 -1.54422,0.3251 -2.35697,0.73147c-0.40637,0.16255 -0.81275,0.40637 -1.13785,0.56892c-0.40637,0.24382 -0.81275,0.40637 -1.13785,0.6502c-1.54422,0.9753 -3.00717,2.11315 -4.38885,3.33227c-0.73147,0.6502 -1.38167,1.3004 -2.11315,1.9506c-0.3251,0.3251 -0.6502,0.6502 -0.9753,1.05657l-1.05657,1.05657c-1.3004,1.46295 -2.84462,2.9259 -4.38885,4.30757c-1.54422,1.38167 -3.251,2.6008 -5.03905,3.73865c-1.78805,1.05657 -3.81992,1.9506 -6.09562,2.2757c-1.13785,0.16255 -2.2757,0.08127 -3.49482,-0.16255c-1.13785,-0.24382 -2.2757,-0.81275 -3.16972,-1.54422c-0.89402,-0.73147 -1.6255,-1.6255 -2.19442,-2.6008c-0.56892,-0.9753 -0.9753,-1.9506 -1.21912,-2.9259c-0.24382,-0.9753 -0.40637,-1.9506 -0.48765,-2.9259c-0.08127,-0.9753 -0.08127,-1.9506 0.08127,-2.9259c0.16255,-1.86932 0.73147,-3.65737 1.54422,-5.28287c0.40637,-0.81275 0.89402,-1.54422 1.54422,-2.19442c0.56892,-0.6502 1.3004,-1.21912 2.03187,-1.70677c0.73147,-0.48765 1.54422,-0.73147 2.35697,-0.89402c0.81275,-0.16255 1.6255,-0.16255 2.35697,-0.08127c1.46295,0.24382 2.76335,0.73147 3.9012,1.3004c2.19442,1.21912 3.81992,2.68207 5.03905,3.98247c1.21912,1.3004 2.11315,2.35697 2.68207,3.08845c0.56892,0.73147 0.89402,1.13785 0.89402,1.13785s-0.3251,-0.3251 -1.05657,-0.9753c-0.6502,-0.6502 -1.70677,-1.54422 -3.00717,-2.6008c-1.38167,-1.05657 -3.08845,-2.2757 -5.2016,-3.16972c-1.05657,-0.40637 -2.19442,-0.73147 -3.41355,-0.81275c-1.21912,0 -2.43825,0.24382 -3.41355,0.9753c-0.48765,0.3251 -0.9753,0.81275 -1.38167,1.3004c-0.40637,0.56892 -0.73147,1.13785 -1.05657,1.78805c-0.56892,1.3004 -0.89402,2.84462 -0.9753,4.38885c-0.08127,1.54422 0.08127,3.16972 0.56892,4.71395c0.48765,1.46295 1.3004,2.84462 2.43825,3.65737c1.13785,0.81275 2.51952,1.13785 4.06375,0.89402c0.16255,0 0.40637,-0.08127 0.56892,-0.08127c0.16255,0 0.40637,-0.08127 0.56892,-0.16255l0.56892,-0.16255l0.56892,-0.24382c0.16255,-0.08127 0.40637,-0.16255 0.56892,-0.24382l0.56892,-0.24382c0.40637,-0.24382 0.81275,-0.40637 1.13785,-0.6502c1.54422,-0.9753 3.00717,-2.11315 4.38885,-3.41355c1.46295,-1.3004 2.76335,-2.6008 4.14502,-4.06375l1.05657,-1.05657c0.3251,-0.40637 0.73147,-0.73147 1.05657,-1.13785c0.73147,-0.73147 1.46295,-1.46295 2.2757,-2.11315c1.54422,-1.38167 3.251,-2.6008 5.03905,-3.73865c1.78805,-1.05657 3.81992,-1.9506 6.09562,-2.2757c1.13785,-0.16255 2.2757,-0.08127 3.49482,0.16255c1.13785,0.24382 2.2757,0.81275 3.16972,1.6255c0.89402,0.73147 1.6255,1.6255 2.19442,2.6008c0.56892,0.9753 0.9753,1.9506 1.21912,2.9259c0.24382,0.9753 0.40637,1.9506 0.48765,2.9259c0.08127,0.9753 0.08127,1.9506 0,2.9259c-0.16255,1.86932 -0.6502,3.73865 -1.54422,5.28287c-0.40637,0.81275 -0.89402,1.54422 -1.54422,2.19442c-0.56892,0.6502 -1.3004,1.21912 -2.03187,1.70677c-0.40637,0.24382 -0.81275,0.40637 -1.13785,0.56892c-0.40637,0.08127 -0.81275,0.24382 -1.21912,0.3251c-0.81275,0.16255 -1.6255,0.16255 -2.35697,0c-1.46295,-0.24382 -2.76335,-0.73147 -3.9012,-1.38167c-2.19442,-1.21912 -3.81992,-2.68207 -5.03905,-3.98247c-1.21912,-1.3004 -2.11315,-2.35697 -2.68207,-3.08845c-0.56892,-0.73147 -0.89402,-1.13785 -0.89402,-1.13785s0.48765,0.24382 1.13785,0.89402z" fill="url(#SVGID_1_)" clip-rule="evenodd" fill-rule="evenodd"/>
  </g>
 </g>
</svg>