<svg width="160" height="50" xmlns="http://www.w3.org/2000/svg" xmlns:svg="http://www.w3.org/2000/svg">
 <g>
  <title>Layer 1</title>
  <g stroke="null" id="svg_1">
   <path stroke="null" id="svg_2" d="m66.69937,28.02738l10.12436,0l-5.35995,-8.63548l-9.82658,15.58357l-4.46663,0l11.91101,-18.75984c0.49629,-0.79407 1.38962,-1.1911 2.3822,-1.1911c0.89333,0 1.78665,0.39703 2.28294,1.1911l12.01027,18.75984l-4.46663,0l-2.08443,-3.47404l-10.22362,0l-2.28294,-3.47404" fill="#F80000"/>
   <path stroke="null" id="svg_3" d="m113.15231,31.50143l0,-16.27838l-3.77182,0l0,17.86652c0,0.49629 0.19852,0.99258 0.59555,1.29036c0.39703,0.39703 0.89333,0.59555 1.38962,0.59555l17.27097,0l2.28294,-3.47404l-17.76726,0" fill="#F80000"/>
   <path stroke="null" id="svg_4" d="m50.42099,28.52367c3.67256,0 6.65031,-2.97775 6.65031,-6.65031c0,-3.67256 -2.97775,-6.65031 -6.65031,-6.65031l-16.57616,0l0,19.75243l3.77182,0l0,-16.27838l12.50656,0c1.78665,0 3.17627,1.38962 3.17627,3.17627s-1.38962,3.17627 -3.17627,3.17627l-10.71991,0l11.31546,9.92584l5.45921,0l-7.6429,-6.35254l1.88591,-0.09926" fill="#F80000"/>
   <path stroke="null" id="svg_5" d="m10.41985,34.97547c-5.45921,0 -9.82658,-4.36737 -9.82658,-9.82658s4.36737,-9.82658 9.82658,-9.82658l11.41472,0c5.45921,0 9.82658,4.36737 9.82658,9.82658s-4.36737,9.82658 -9.82658,9.82658l-11.41472,0m11.2162,-3.47404c3.5733,0 6.35254,-2.87849 6.35254,-6.35254c0,-3.5733 -2.87849,-6.35254 -6.35254,-6.35254l-10.91843,0c-3.47404,0 -6.35254,2.87849 -6.35254,6.35254s2.87849,6.35254 6.35254,6.35254l10.91843,0" fill="#F80000"/>
   <path stroke="null" id="svg_6" d="m93.69766,34.97547c-5.45921,0 -9.92584,-4.36737 -9.92584,-9.82658s4.46663,-9.82658 9.92584,-9.82658l13.5984,0l-2.28294,3.47404l-11.11694,0c-3.5733,0 -6.4518,2.87849 -6.4518,6.35254s2.87849,6.35254 6.4518,6.35254l13.69766,0l-2.18369,3.47404l-11.71249,0" fill="#F80000"/>
   <path stroke="null" id="svg_7" d="m140.05135,31.50143c-2.87849,0 -5.35995,-1.98517 -6.15402,-4.66515l16.27838,0l2.18369,-3.47404l-18.46207,0c0.79407,-2.67998 3.27553,-4.66515 6.15402,-4.66515l11.11694,0l2.18369,-3.47404l-13.5984,0c-5.45921,0 -9.82658,4.36737 -9.82658,9.82658s4.36737,9.82658 9.82658,9.82658l11.71249,0l2.18369,-3.47404l-13.5984,0.09926" fill="#F80000"/>
   <path stroke="null" id="svg_8" d="m155.4364,17.30747c0,-0.99258 0.79407,-1.78665 1.78665,-1.78665s1.78665,0.79407 1.78665,1.78665s-0.79407,1.78665 -1.78665,1.78665s-1.78665,-0.79407 -1.78665,-1.78665m1.78665,2.28294c1.1911,0 2.18369,-0.99258 2.18369,-2.18369s-0.99258,-2.18369 -2.18369,-2.18369s-2.18369,0.99258 -2.18369,2.18369s0.89333,2.18369 2.18369,2.18369m-0.19852,-3.47404c0.29778,0 0.49629,0 0.59555,0.09926c0.49629,0.09926 0.49629,0.59555 0.49629,0.69481c0,0 0,0.09926 0,0.19852c0,0.09926 -0.09926,0.29778 -0.29778,0.39703c0,0 0,0 -0.09926,0.09926l0.59555,0.99258l-0.59555,0l-0.49629,-0.99258l-0.29778,0l0,0.99258l-0.49629,0l0,-2.48146l0.59555,0m0.09926,0.99258c0.19852,0 0.29778,0 0.39703,-0.19852c0.09926,0 0.09926,-0.09926 0.09926,-0.19852c0,-0.09926 -0.09926,-0.19852 -0.19852,-0.29778c-0.09926,-0.09926 -0.19852,-0.09926 -0.49629,-0.09926l-0.09926,0l0,0.79407l0.29778,0" fill="#F80000"/>
  </g>
 </g>
</svg>