<?xml version="1.0"?>
<svg width="160" height="50" xmlns="http://www.w3.org/2000/svg" xmlns:svg="http://www.w3.org/2000/svg">
 <g>
  <title>Layer 1</title>
  <g stroke="null" id="svg_1">
   <g stroke="null" id="svg_2">
    <path stroke="null" id="svg_3" d="m31.692434,21.42944c0,-0.756118 0.252039,-1.260197 0.672105,-1.59625c0.420066,-0.336053 1.008158,-0.504079 1.764276,-0.504079c0.504079,0 0.924145,0.084013 1.344211,0.168026c0.420066,0.084013 0.672105,0.168026 0.756118,0.252039l0,10.417632c0,1.764276 0.420066,3.1925 1.260197,4.116645c0.840132,0.924145 2.184342,1.428224 3.864605,1.428224c1.764276,0 3.024474,-0.504079 3.864605,-1.428224c0.840132,-0.924145 1.260197,-2.268355 1.260197,-4.116645l0,-8.737368c0,-0.756118 0.252039,-1.260197 0.672105,-1.59625c0.420066,-0.336053 1.008158,-0.504079 1.764276,-0.504079c0.504079,0 0.924145,0.084013 1.344211,0.168026c0.420066,0.084013 0.672105,0.168026 0.756118,0.252039l0,11.425789c0,1.344211 -0.252039,2.520395 -0.672105,3.612566c-0.504079,1.092171 -1.092171,2.016316 -2.016316,2.688421c-0.840132,0.756118 -1.848289,1.344211 -3.108487,1.680263c-1.176184,0.420066 -2.520395,0.588092 -3.948618,0.588092c-1.428224,0 -2.772434,-0.168026 -3.948618,-0.588092c-1.176184,-0.420066 -2.184342,-0.924145 -3.024474,-1.680263c-0.840132,-0.756118 -1.512237,-1.680263 -2.016316,-2.688421c-0.504079,-1.092171 -0.756118,-2.268355 -0.756118,-3.612566l0,-9.745526l0.168026,0z" fill="#FF7A01"/>
    <path stroke="null" id="svg_4" d="m54.628026,15.800559c0,-0.756118 0.252039,-1.260197 0.672105,-1.59625c0.420066,-0.336053 1.008158,-0.504079 1.764276,-0.504079c0.504079,0 0.924145,0.084013 1.344211,0.168026c0.420066,0.084013 0.672105,0.168026 0.840132,0.252039l0,5.208816l5.796908,0c0.840132,0 1.512237,0.168026 1.848289,0.504079c0.336053,0.336053 0.504079,0.840132 0.504079,1.59625c0,0.420066 -0.084013,0.840132 -0.168026,1.260197c-0.168026,0.420066 -0.252039,0.672105 -0.336053,0.840132l-7.645197,0l0,8.821382c0,0.672105 0.084013,1.260197 0.252039,1.680263c0.168026,0.420066 0.420066,0.756118 0.756118,1.092171c0.336053,0.252039 0.756118,0.420066 1.176184,0.588092c0.420066,0.084013 0.924145,0.168026 1.344211,0.168026c0.756118,0 1.512237,-0.084013 2.184342,-0.336053c0.672105,-0.252039 1.176184,-0.504079 1.428224,-0.672105l1.848289,3.024474c-0.252039,0.168026 -0.504079,0.336053 -0.924145,0.588092c-0.420066,0.252039 -0.840132,0.504079 -1.428224,0.672105c-0.588092,0.252039 -1.176184,0.420066 -1.848289,0.504079c-0.672105,0.168026 -1.428224,0.252039 -2.268355,0.252039c-2.352368,0 -4.116645,-0.588092 -5.292829,-1.848289c-1.176184,-1.176184 -1.764276,-2.772434 -1.764276,-4.704737l0,-17.55875l-0.084013,0z" fill="#FF7A01"/>
    <path stroke="null" id="svg_5" d="m70.002434,12.10398c0,-0.756118 0.252039,-1.260197 0.672105,-1.59625c0.420066,-0.336053 1.008158,-0.504079 1.764276,-0.504079c0.504079,0 0.924145,0.084013 1.344211,0.168026c0.420066,0.084013 0.672105,0.168026 0.756118,0.252039l0,11.425789c0.672105,-0.840132 1.59625,-1.59625 2.772434,-2.184342c1.176184,-0.588092 2.520395,-0.924145 4.032632,-0.924145c1.428224,0 2.772434,0.252039 4.032632,0.756118c1.260197,0.504079 2.268355,1.260197 3.1925,2.184342c0.924145,0.924145 1.59625,2.016316 2.184342,3.360526c0.504079,1.260197 0.756118,2.688421 0.756118,4.200658c0,1.512237 -0.252039,2.940461 -0.756118,4.200658c-0.504079,1.260197 -1.260197,2.436382 -2.184342,3.360526c-0.924145,0.924145 -2.100329,1.680263 -3.360526,2.184342c-1.344211,0.504079 -2.772434,0.756118 -4.284671,0.756118c-1.59625,0 -3.024474,-0.252039 -4.284671,-0.672105c-1.344211,-0.504079 -2.436382,-1.176184 -3.360526,-2.184342c-0.924145,-0.924145 -1.680263,-2.184342 -2.184342,-3.612566c-0.504079,-1.428224 -0.756118,-3.108487 -0.756118,-5.040789l0,-16.130526l-0.336053,0zm10.669671,23.607697c0.924145,0 1.764276,-0.168026 2.520395,-0.504079c0.756118,-0.336053 1.428224,-0.756118 1.932303,-1.344211c0.504079,-0.588092 0.924145,-1.260197 1.260197,-2.016316c0.252039,-0.756118 0.420066,-1.59625 0.420066,-2.520395c0,-0.924145 -0.168026,-1.764276 -0.420066,-2.604408c-0.252039,-0.756118 -0.672105,-1.512237 -1.260197,-2.016316c-0.504079,-0.588092 -1.176184,-1.008158 -1.932303,-1.344211c-0.756118,-0.336053 -1.59625,-0.504079 -2.520395,-0.504079c-0.924145,0 -1.764276,0.168026 -2.520395,0.504079c-0.756118,0.336053 -1.428224,0.756118 -1.932303,1.344211c-0.504079,0.588092 -0.924145,1.260197 -1.260197,2.100329c-0.336053,0.756118 -0.420066,1.680263 -0.420066,2.520395c0,0.924145 0.168026,1.848289 0.420066,2.604408c0.336053,0.756118 0.756118,1.428224 1.260197,2.016316c0.504079,0.588092 1.176184,1.008158 1.932303,1.344211c0.756118,0.252039 1.59625,0.420066 2.520395,0.420066" fill="#FF7A01"/>
    <path stroke="null" id="svg_6" d="m94.114211,26.47023c0,-2.436382 0.756118,-4.284671 2.268355,-5.628882c1.512237,-1.344211 3.528553,-2.016316 6.216974,-2.016316c1.680263,0 3.024474,0.252039 4.032632,0.672105c1.008158,0.504079 1.59625,1.176184 1.59625,2.100329c0,0.420066 -0.084013,0.924145 -0.336053,1.344211c-0.252039,0.420066 -0.420066,0.672105 -0.588092,0.756118c-0.420066,-0.252039 -1.008158,-0.420066 -1.680263,-0.588092c-0.672105,-0.168026 -1.428224,-0.252039 -2.268355,-0.252039c-3.108487,0 -4.620724,1.680263 -4.620724,4.956776l0,11.509803l-4.536711,0l0,-12.854013l-0.084013,0z" fill="#FF7A01"/>
    <path stroke="null" id="svg_7" d="m127.803487,39.156217c-0.252039,0.084013 -0.672105,0.084013 -1.260197,0.168026c-0.588092,0.084013 -1.260197,0.168026 -2.016316,0.168026c-0.756118,0.084013 -1.59625,0.168026 -2.604408,0.168026c-0.924145,0.084013 -1.932303,0.084013 -2.940461,0.084013c-2.100329,0 -3.780592,-0.168026 -5.040789,-0.504079c-1.344211,-0.336053 -2.352368,-0.840132 -3.108487,-1.428224c-0.756118,-0.588092 -1.260197,-1.260197 -1.512237,-2.100329c-0.252039,-0.756118 -0.420066,-1.59625 -0.420066,-2.436382c0,-1.092171 0.168026,-2.016316 0.504079,-2.856447c0.336053,-0.840132 0.840132,-1.512237 1.59625,-2.100329c0.756118,-0.588092 1.764276,-1.008158 2.940461,-1.260197s2.688421,-0.420066 4.452697,-0.420066c1.008158,0 1.932303,0 2.856447,0.084013c0.924145,0.084013 1.59625,0.168026 2.016316,0.168026c0,-0.924145 -0.168026,-1.680263 -0.420066,-2.268355c-0.336053,-0.588092 -0.756118,-1.092171 -1.260197,-1.428224c-0.504079,-0.336053 -1.176184,-0.588092 -1.932303,-0.756118c-0.756118,-0.168026 -1.59625,-0.168026 -2.436382,-0.168026c-1.512237,0 -2.688421,0.168026 -3.612566,0.504079c-0.924145,0.336053 -1.512237,0.672105 -1.848289,0.840132c-0.168026,-0.168026 -0.336053,-0.420066 -0.672105,-0.756118c-0.252039,-0.336053 -0.420066,-0.840132 -0.420066,-1.344211c0,-0.336053 0.084013,-0.756118 0.336053,-1.092171c0.168026,-0.336053 0.588092,-0.672105 1.092171,-0.924145c0.504079,-0.252039 1.176184,-0.504079 2.016316,-0.672105c0.840132,-0.168026 1.932303,-0.252039 3.1925,-0.252039c1.59625,0 3.024474,0.168026 4.284671,0.420066c1.260197,0.336053 2.352368,0.756118 3.276513,1.428224c0.924145,0.672105 1.680263,1.512237 2.184342,2.604408c0.504079,1.092171 0.756118,2.436382 0.756118,3.948618l0,12.181908zm-4.452697,-8.821382c-0.252039,-0.084013 -0.756118,-0.168026 -1.512237,-0.252039c-0.756118,-0.084013 -1.848289,-0.168026 -3.276513,-0.168026c-1.764276,0 -3.108487,0.252039 -3.948618,0.840132c-0.840132,0.504079 -1.260197,1.428224 -1.260197,2.520395c0,0.504079 0.084013,0.924145 0.252039,1.344211c0.168026,0.420066 0.504079,0.756118 0.924145,1.008158c0.420066,0.252039 1.008158,0.504079 1.764276,0.672105c0.756118,0.168026 1.59625,0.252039 2.688421,0.252039c1.176184,0 2.184342,-0.084013 2.856447,-0.168026c0.672105,-0.084013 1.176184,-0.168026 1.428224,-0.252039l0,-5.796908l0.084013,0z" fill="#FF7A01"/>
    <path stroke="null" id="svg_8" d="m134.104474,10.423716c0.756118,0 1.428224,0.252039 1.932303,0.756118c0.504079,0.504079 0.756118,1.176184 0.756118,1.932303s-0.252039,1.428224 -0.756118,1.932303c-0.504079,0.504079 -1.176184,0.756118 -1.932303,0.756118s-1.428224,-0.252039 -1.932303,-0.756118c-0.504079,-0.504079 -0.756118,-1.176184 -0.756118,-1.932303s0.252039,-1.428224 0.756118,-1.932303c0.504079,-0.504079 1.176184,-0.756118 1.932303,-0.756118m-2.268355,11.005724c0,-0.756118 0.252039,-1.260197 0.672105,-1.59625c0.420066,-0.336053 1.008158,-0.504079 1.764276,-0.504079c0.504079,0 0.924145,0.084013 1.344211,0.168026c0.420066,0.084013 0.672105,0.168026 0.756118,0.252039l0,19.491053l-4.536711,0l0,-17.81079z" fill="#FF7A01"/>
    <path stroke="null" id="svg_9" d="m140.405461,27.226348c0,-1.344211 0.252039,-2.520395 0.756118,-3.528553c0.504079,-1.008158 1.176184,-1.932303 2.016316,-2.688421c0.840132,-0.756118 1.848289,-1.260197 3.024474,-1.680263c1.176184,-0.420066 2.436382,-0.588092 3.864605,-0.588092c1.428224,0 2.688421,0.168026 3.864605,0.588092c1.176184,0.420066 2.184342,0.924145 3.108487,1.680263c0.840132,0.756118 1.512237,1.59625 2.016316,2.688421c0.504079,1.008158 0.756118,2.268355 0.756118,3.528553l0,12.013882l-4.536711,0l0,-10.921711c0,-1.764276 -0.420066,-3.1925 -1.344211,-4.116645c-0.840132,-0.924145 -2.184342,-1.428224 -3.864605,-1.428224c-1.680263,0 -3.024474,0.504079 -3.864605,1.428224c-0.840132,0.924145 -1.260197,2.268355 -1.260197,4.116645l0,10.921711l-4.536711,0l0,-12.013882z" fill="#FF7A01"/>
    <path stroke="null" id="svg_10" d="m28.163882,20.001216c-0.756118,-1.764276 -1.764276,-3.276513 -3.108487,-4.536711c-1.344211,-1.260197 -2.856447,-2.268355 -4.620724,-3.024474c-1.764276,-0.756118 -3.612566,-1.092171 -5.712895,-1.092171c-2.100329,0 -3.948618,0.336053 -5.712895,1.092171c-1.764276,0.672105 -3.360526,1.680263 -4.620724,3.024474c-1.344211,1.260197 -2.352368,2.772434 -3.108487,4.536711c-0.756118,1.680263 -1.092171,3.612566 -1.092171,5.628882c0,2.016316 0.336053,3.948618 1.092171,5.712895c0.756118,1.764276 1.764276,3.276513 3.108487,4.536711c1.344211,1.260197 2.856447,2.268355 4.620724,3.024474c1.764276,0.756118 3.696579,1.092171 5.712895,1.092171c2.100329,0 3.948618,-0.336053 5.712895,-1.092171c1.764276,-0.756118 3.276513,-1.764276 4.620724,-3.024474c1.344211,-1.260197 2.352368,-2.772434 3.108487,-4.536711c0.756118,-1.764276 1.092171,-3.612566 1.092171,-5.712895c0,-2.016316 -0.336053,-3.948618 -1.092171,-5.628882m-22.095461,4.620724c1.59625,-0.504079 3.780592,-1.176184 3.780592,-1.176184c4.704737,-1.512237 5.376842,-3.276513 5.376842,-3.276513s1.008158,1.764276 4.452697,2.940461c0,0 1.932303,0.588092 3.696579,1.260197c0.084013,0.168026 0.168026,0.336053 0.252039,0.504079c0.336053,0.756118 0.504079,1.512237 0.672105,2.268355l-2.436382,0c0,0 0,0 0,-0.084013c-0.168026,-0.420066 -0.420066,-0.756118 -0.756118,-1.092171c-0.336053,-0.336053 -0.672105,-0.504079 -1.092171,-0.756118c-0.420066,-0.168026 -0.840132,-0.252039 -1.344211,-0.252039c-0.504079,0 -0.924145,0.084013 -1.344211,0.252039c-0.420066,0.168026 -0.756118,0.420066 -1.092171,0.756118c-0.336053,0.336053 -0.588092,0.672105 -0.756118,1.092171c-0.084013,0.168026 -0.084013,0.252039 -0.168026,0.420066l-0.924145,0c0,-0.168026 -0.084013,-0.252039 -0.168026,-0.420066c-0.168026,-0.420066 -0.420066,-0.756118 -0.756118,-1.092171c-0.336053,-0.336053 -0.672105,-0.504079 -1.092171,-0.756118c-0.420066,-0.168026 -0.840132,-0.252039 -1.344211,-0.252039c-0.504079,0 -0.924145,0.084013 -1.344211,0.252039c-0.420066,0.168026 -0.756118,0.420066 -1.092171,0.756118c-0.336053,0.336053 -0.588092,0.672105 -0.756118,1.092171c0,0 0,0 0,0.084013l-2.520395,0c0.084013,-0.840132 0.336053,-1.59625 0.672105,-2.268355c0,-0.084013 0,-0.168026 0.084013,-0.252039m14.534276,3.864605c0,0.252039 -0.084013,0.588092 -0.168026,0.840132c-0.084013,0.252039 -0.252039,0.420066 -0.420066,0.672105c-0.168026,0.168026 -0.420066,0.336053 -0.672105,0.420066c-0.252039,0.084013 -0.504079,0.168026 -0.840132,0.168026c-0.252039,0 -0.588092,-0.084013 -0.840132,-0.168026c-0.252039,-0.084013 -0.504079,-0.252039 -0.672105,-0.420066c-0.168026,-0.168026 -0.336053,-0.420066 -0.420066,-0.672105c-0.084013,-0.252039 -0.168026,-0.504079 -0.168026,-0.840132c0,-0.252039 0.084013,-0.588092 0.168026,-0.840132c0.084013,-0.252039 0.252039,-0.420066 0.420066,-0.672105c0.168026,-0.168026 0.420066,-0.336053 0.672105,-0.420066c0.252039,-0.084013 0.504079,-0.168026 0.840132,-0.168026c0.252039,0 0.588092,0.084013 0.840132,0.168026c0.252039,0.084013 0.504079,0.252039 0.672105,0.420066c0.168026,0.168026 0.336053,0.420066 0.420066,0.672105c0.084013,0.252039 0.168026,0.504079 0.168026,0.840132m-7.645197,0c0,0.252039 -0.084013,0.588092 -0.168026,0.840132c-0.084013,0.252039 -0.252039,0.420066 -0.420066,0.672105c-0.168026,0.168026 -0.420066,0.336053 -0.672105,0.420066c-0.252039,0.084013 -0.504079,0.168026 -0.840132,0.168026c-0.252039,0 -0.588092,-0.084013 -0.840132,-0.168026c-0.252039,-0.084013 -0.504079,-0.252039 -0.672105,-0.420066c-0.168026,-0.168026 -0.336053,-0.420066 -0.420066,-0.672105c-0.084013,-0.252039 -0.168026,-0.504079 -0.168026,-0.840132c0,-0.252039 0.084013,-0.588092 0.168026,-0.840132c0.084013,-0.252039 0.252039,-0.420066 0.420066,-0.672105c0.168026,-0.168026 0.420066,-0.336053 0.672105,-0.420066c0.252039,-0.084013 0.504079,-0.168026 0.840132,-0.168026c0.252039,0 0.588092,0.084013 0.840132,0.168026c0.252039,0.084013 0.504079,0.252039 0.672105,0.420066c0.168026,0.168026 0.336053,0.420066 0.420066,0.672105c0.168026,0.252039 0.168026,0.504079 0.168026,0.840132m8.569342,6.805066c-0.840132,0.840132 -1.848289,1.512237 -3.024474,2.016316c-1.176184,0.504079 -2.436382,0.756118 -3.780592,0.756118s-2.604408,-0.252039 -3.780592,-0.756118c-1.176184,-0.504079 -2.184342,-1.176184 -3.024474,-2.016316c-0.840132,-0.840132 -1.512237,-1.848289 -2.016316,-2.940461c-0.420066,-1.176184 -0.672105,-2.352368 -0.672105,-3.612566l2.268355,0c0,0.420066 0.084013,0.756118 0.252039,1.092171c0.168026,0.420066 0.420066,0.756118 0.756118,1.092171c0.336053,0.336053 0.672105,0.504079 1.092171,0.756118c0.420066,0.168026 0.840132,0.252039 1.344211,0.252039c0.504079,0 0.924145,-0.084013 1.344211,-0.252039c0.420066,-0.168026 0.756118,-0.420066 1.092171,-0.756118c0.336053,-0.336053 0.588092,-0.672105 0.756118,-1.092171c0.084013,-0.252039 0.168026,-0.588092 0.252039,-0.840132l0.756118,0c0,0.336053 0.084013,0.588092 0.252039,0.840132c0.168026,0.420066 0.420066,0.756118 0.756118,1.092171c0.336053,0.336053 0.672105,0.504079 1.092171,0.756118c0.420066,0.168026 0.840132,0.252039 1.344211,0.252039c0.504079,0 0.924145,-0.084013 1.344211,-0.252039c0.420066,-0.168026 0.756118,-0.420066 1.092171,-0.756118c0.336053,-0.336053 0.588092,-0.672105 0.756118,-1.092171c0.168026,-0.336053 0.252039,-0.756118 0.252039,-1.092171l2.268355,0c0,1.260197 -0.252039,2.520395 -0.756118,3.612566c-0.504079,1.092171 -1.176184,2.100329 -2.016316,2.940461" fill="#FF7A01"/>
   </g>
  </g>
 </g>
</svg>