<?xml version="1.0" encoding="utf-8"?>
<!-- Generator: Adobe Illustrator 24.1.0, SVG Export Plug-In . SVG Version: 6.00 Build 0)  -->
<svg version="1.1" id="Layer_1" xmlns="http://www.w3.org/2000/svg" xmlns:xlink="http://www.w3.org/1999/xlink" x="0px" y="0px"
	 viewBox="0 0 200 200" enable-background="new 0 0 200 200" xml:space="preserve">
<g>
	<rect fill="#5952FF" width="200" height="200"/>
</g>
<path fill-rule="evenodd" clip-rule="evenodd" fill="#FFFFFF" d="M154.6,60.5C141.2,47,112.2,41.1,93.1,41.1
	c-19.5,0-34.2,5-42.8,13.5C41.1,63.9,37.5,75,37.5,87.7c0,20.2,10.2,41.8,24.4,56c3.7,3.7,16.5,15.1,33.2,15.1
	c17.1,0,29.9-10.5,37.9-18.6c15.5-15.6,29.5-42.4,29.5-59.9C162.5,70.7,158,63.9,154.6,60.5z M116.8,110.8
	c-6.5,6.5-12.7,8.9-18.8,8.9s-12.1-2.8-15.9-6.7c-4.1-4.2-7.9-11.1-7.9-18.2c0-7.2,2.8-12.2,6.1-15.5c4.2-4.2,10.4-7.1,19.7-7.1
	c7.3,0,14.1,1.7,20.2,7.8c4,4,4.8,8.7,4.8,11.9C125,96.3,123.2,104.3,116.8,110.8z"/>
</svg>
