<?xml version="1.0" encoding="utf-8"?>
<!-- Generator: Adobe Illustrator 19.2.1, SVG Export Plug-In . SVG Version: 6.00 Build 0)  -->
<!DOCTYPE svg PUBLIC "-//W3C//DTD SVG 1.1//EN" "http://www.w3.org/Graphics/SVG/1.1/DTD/svg11.dtd">
<svg version="1.1" id="Layer_1" xmlns="http://www.w3.org/2000/svg" xmlns:xlink="http://www.w3.org/1999/xlink" x="0px" y="0px"
	 viewBox="0 0 162.9 63.2" enable-background="new 0 0 162.9 63.2" xml:space="preserve">
<g id="Layer_1_1_">
	<g>
		<path fill="#818B91" d="M140.7,17.7c0,5.3,0,10.6,0,16c-0.5,0-1.2,0-1.8,0c0-0.7,0-1.1,0-1.9c-0.5,0.5-0.9,0.9-1.4,1.3
			c-3.3,2.2-7.8,0-8.3-3.9c-0.2-1.5-0.1-3,0.7-4.4c1.7-3.1,5.7-3.7,8.3-1.3c0.2,0.2,0.4,0.5,0.7,0.7c0-1.1,0-2.4,0-3.5
			c0-1,0-2.1,0-3.2C139.7,17.6,140.2,17.7,140.7,17.7z M135.1,23.6c-1.2,0-2.1,0.3-2.9,1.1c-1.3,1.3-1.6,3.5-0.8,5.3
			c1.1,2.4,4,3.1,6,1.5c1-0.8,1.5-1.9,1.6-3.1C139.4,25.7,137.3,23.6,135.1,23.6z"/>
		<path fill="#818B91" d="M98,24.2c0.2-0.2,0.4-0.3,0.6-0.5c2.3-2.5,6.3-2.2,8.3,1c1.3,2,1.1,5.3-0.3,7.2c-2,2.7-5.5,2.9-8,0.6
			c-0.2-0.1-0.4-0.4-0.6-0.6c0,1.7,0,3.8,0,5.4c-0.6,0-1.1,0-1.7,0c0-5,0-10,0-15c0.5,0,1.4,0,1.7,0C98,23,98,23.4,98,24.2z
			 M105.9,28.1c0-0.3,0-0.5,0-0.8c-0.2-1.6-1-2.9-2.6-3.5s-3.1-0.2-4.3,1.1c-1.5,1.6-1.6,4-0.3,5.8c1.2,1.6,3.2,2.1,5,1.3
			C105.3,31.2,105.9,29.8,105.9,28.1z"/>
		<path fill="#818B91" d="M119.2,33.7c-0.6,0-1.4,0-1.8,0c0-0.6-0.1-0.7-0.1-1.2c-0.5,0.4-1,0.8-1.6,1c-1.3,0.6-2.5,0.7-3.8,0.3
			c-1.8-0.5-2.9-1.9-2.8-3.6c0.1-1.6,1.3-2.9,3.1-3.3c1.5-0.3,3-0.3,4.5,0.1c0.2,0.1,0.5,0.2,0.8,0.1c0.2-1.5-0.4-2.7-1.8-3.2
			c-1.2-0.4-2.4-0.2-3.6,0.1c-0.4,0.1-0.8,0.3-1.2,0.3c-0.3-0.5-0.4-0.7-0.6-1.2c2.3-1,4.6-1.5,6.9-0.4c1.2,0.6,2,1.6,2,2.9
			C119.3,28.3,119.2,31,119.2,33.7z M117.6,28.5c-1.4-0.5-2.8-0.6-4.2-0.5c-0.5,0.1-1,0.3-1.5,0.6c-1.2,0.8-1.3,2.6-0.1,3.4
			c1.4,0.9,2.8,0.8,4.2,0C117.3,31.3,117.8,30.2,117.6,28.5z"/>
		<path fill="#818B91" d="M149.2,22c3.3,0,5.9,2.6,5.9,6s-2.6,6-6,6s-6-2.7-5.9-6.1C143.2,24.1,146.3,21.8,149.2,22z M153.2,28
			c0-2.6-1.8-4.4-4.2-4.4s-4.1,1.9-4.1,4.4s1.9,4.5,4.3,4.5C151.5,32.4,153.2,30.6,153.2,28z"/>
		<path fill="#818B91" d="M159.3,23.9c0,2.4,0,4.7,0,7c0,0.9,0.6,1.3,1.5,1.4c0.3,0,0.7,0,1,0s0.6-0.1,1-0.2
			c0.1,0.6,0.1,0.9,0.1,1.3c-1.2,0.7-2.5,0.8-3.8,0.2c-1.2-0.5-1.6-1.6-1.6-2.9c0-1.9,0-3.8,0-5.7c0-0.4,0-0.8,0-1.2
			c-0.4,0-1.1,0-1.5,0c0-0.5,0-1.2,0-1.7c0.5,0,1.1,0,1.5,0c0-1,0-2.1,0-3.2c0.7,0,1.2,0,1.8,0c0,1.1,0,2.1,0,3.1c1.2,0,2.3,0,3.6,0
			c0,0.5,0,1.3,0,1.7C161.7,23.9,160.6,23.9,159.3,23.9z"/>
		<path fill="#818B91" d="M122.1,22.3c0.6,0,1.1,0,1.6,0c0,0.8,0,1.6,0,2.5c0.8-0.7,1.3-1.6,2.1-2c0.8-0.4,1.6-0.8,2.6-0.6
			c0,0.6,0,1.1,0,1.6c-0.2,0.2-0.4,0.2-0.7,0.2c-1.9,0.1-3.5,1.7-3.8,3.7c-0.2,1.5-0.1,2.9-0.2,4.4c0,0.5,0,1.1,0,1.6
			c-0.5,0-1.1,0-1.7,0C122.1,29.9,122.1,26.1,122.1,22.3z"/>
		<path fill="#3498DB" d="M25.3,30c0,0-0.7-0.1-1.4-0.1c-1.1,0-1.5,0.4-1.5,0.4c-0.3,0.2-0.5,0.6-0.5,1c0,0.3,0.1,0.5,0.2,0.7
			c0.1,0.1,0.1,0.1,0.3,0.3c0,0,0.5,0.4,1.5,0.3c0.7,0,1.4-0.2,1.4-0.2l0,0V30z"/>
		<path fill="#3498DB" d="M35.6,26.8c-0.7,0-1.2,0.3-1.5,0.8c-0.2,0.3-0.3,0.7-0.4,1.2h3.7c0-0.5-0.1-0.9-0.3-1.2
			C36.7,27.1,36.3,26.8,35.6,26.8z"/>
		<path fill="#3498DB" d="M56.6,26.8c-0.7,0-1.2,0.2-1.5,0.7s-0.5,1.2-0.5,2.1s0.2,1.6,0.5,2.1s0.8,0.7,1.5,0.7s1.2-0.2,1.5-0.7
			s0.5-1.2,0.5-2.1s-0.2-1.6-0.5-2.1C57.8,27.1,57.3,26.8,56.6,26.8z"/>
		<path fill="#3498DB" d="M77.4,26.8c-0.7,0-1.2,0.3-1.5,0.8c-0.2,0.3-0.3,0.7-0.4,1.2h3.7c0-0.5-0.1-0.9-0.3-1.2
			C78.5,27.1,78.1,26.8,77.4,26.8z"/>
		<path fill="#3498DB" d="M70.7,8.6c-2.8,0-5.5,0.6-7.9,1.7C60.1,5.3,54.9,2,48.9,2c-4.5,0-8.5,1.9-11.4,4.9C34.3,2.7,29.3,0,23.6,0
			C13.9,0,6.1,7.8,6.1,17.5c0,2.5,0.5,4.8,1.4,7C3,27.1,0,32,0,37.7c0,8.4,6.7,15.2,15,15.2c1.1,0,2.1-0.1,3.1-0.3
			c2.3,6.2,8.2,10.6,15.2,10.6c6.7,0,12.4-4.1,14.9-9.9c1.9,0.9,4,1.4,6.2,1.4c5.3,0,10-2.9,12.4-7.3c1.2,0.2,2.5,0.4,3.8,0.4
			C81.3,47.8,90,39,90,28.2C90.1,17.3,81.4,8.6,70.7,8.6z M19.3,31.3c0,1.6-1.1,2.6-3,2.6c-0.9,0-1.8-0.1-2.7-0.6
			c-0.2-0.1-0.3-0.2-0.5-0.3c0,0-0.1-0.1,0-0.2l0.4-1c0.1-0.2,0.2-0.1,0.2-0.1c0.1,0.1,0.2,0.1,0.3,0.2c1.1,0.7,2.1,0.7,2.4,0.7
			c0.8,0,1.3-0.4,1.3-1l0,0c0-0.6-0.8-0.9-1.7-1.1l-0.2-0.1c-1.2-0.3-2.5-0.9-2.5-2.4l0,0c0-1.5,1.2-2.5,2.9-2.5h0.2
			c1,0,2,0.3,2.6,0.7c0.1,0,0.1,0.1,0.1,0.2s-0.3,0.9-0.4,1c-0.1,0.2-0.2,0.1-0.2,0.1c-0.6-0.3-1.6-0.6-2.3-0.6
			c-0.7,0-1.2,0.4-1.2,0.9l0,0c0,0.6,0.8,0.9,1.7,1.2l0.2,0.1C18,29.3,19.3,29.8,19.3,31.3L19.3,31.3z M26.9,33.4
			c0,0-0.2,0.1-0.4,0.1c-0.2,0-0.8,0.2-1.3,0.3s-1.1,0.1-1.6,0.1s-1,0-1.4-0.1s-0.8-0.2-1.1-0.5c-0.3-0.2-0.5-0.5-0.7-0.8
			s-0.2-0.7-0.2-1.2s0.1-0.9,0.3-1.2c0.2-0.3,0.4-0.6,0.8-0.9c0.3-0.2,0.7-0.4,1.1-0.5s0.8-0.2,1.3-0.2c0.3,0,0.6,0,0.8,0
			c0,0,0.4,0,0.9,0.1v-0.2c0-0.7-0.1-1-0.4-1.2s-0.7-0.3-1.3-0.3c0,0-1.3,0-2.3,0.5h-0.1c0,0-0.1,0-0.2-0.1l-0.4-1
			c-0.1-0.1,0-0.2,0-0.2c0.5-0.4,1.6-0.6,1.6-0.6c0.4-0.1,1-0.1,1.4-0.1c1,0,1.9,0.2,2.4,0.7c0.6,0.5,0.8,1.3,0.8,2.3v4.8
			C27,33.2,27,33.4,26.9,33.4z M30.4,33.5c0,0.1-0.1,0.2-0.1,0.2h-1.4c-0.1,0-0.1-0.1-0.1-0.2V22.4c0-0.1,0.1-0.2,0.1-0.2h1.4
			c0.1,0,0.1,0.1,0.1,0.2V33.5z M39,30c0,0.1-0.2,0.1-0.2,0.1h-5.2c0,0.8,0.2,1.4,0.6,1.7c0.4,0.4,1,0.6,1.8,0.6
			c1.2,0,1.8-0.2,2.1-0.4c0,0,0.1-0.1,0.2,0.1l0.3,1c0.1,0.2,0,0.2,0,0.3c-0.3,0.2-1.1,0.5-2.6,0.5c-0.7,0-1.4-0.1-1.9-0.3
			s-1-0.5-1.3-0.9s-0.6-0.8-0.8-1.3s-0.2-1.1-0.2-1.7s0.1-1.2,0.2-1.7c0.2-0.5,0.4-1,0.7-1.4s0.7-0.7,1.2-0.9
			c0.5-0.2,1.1-0.3,1.7-0.3c0.6,0,1.1,0.1,1.5,0.3c0.3,0.1,0.7,0.4,1,0.8c0.2,0.2,0.5,0.7,0.7,1.2C39.2,28.9,39,29.9,39,30z
			 M40.7,33.3c-0.2-0.1-0.3-0.2-0.5-0.3c0,0-0.1-0.1,0-0.2l0.4-1c0.1-0.2,0.2-0.1,0.2-0.1c0.1,0.1,0.2,0.1,0.3,0.2
			c1.1,0.7,2.1,0.7,2.4,0.7c0.8,0,1.3-0.4,1.3-1l0,0c0-0.6-0.8-0.9-1.7-1.1l-0.2-0.1c-1.2-0.3-2.5-0.9-2.5-2.4l0,0
			c0-1.5,1.2-2.5,2.9-2.5h0.2c1,0,2,0.3,2.6,0.7c0.1,0,0.1,0.1,0.1,0.2s-0.3,0.9-0.4,1c-0.1,0.2-0.2,0.1-0.2,0.1
			c-0.6-0.3-1.6-0.6-2.3-0.6s-1.2,0.4-1.2,0.9l0,0c0,0.6,0.8,0.9,1.7,1.2l0.2,0.1c1.2,0.4,2.5,0.9,2.5,2.4l0,0c0,1.6-1.1,2.6-3,2.6
			C42.4,33.9,41.6,33.8,40.7,33.3z M52.5,26.8c0,0.2-0.2,0.2-0.2,0.2h-1.7l-1.2,6.7c-0.1,0.7-0.3,1.3-0.5,1.8s-0.4,0.8-0.7,1.2
			c-0.3,0.3-0.6,0.5-1,0.7c-0.4,0.1-0.8,0.2-1.3,0.2c-0.2,0-0.5,0-0.8-0.1c-0.2,0-0.3-0.1-0.5-0.1c-0.1,0-0.1-0.1-0.1-0.2
			c0-0.1,0.3-1,0.4-1.1C45,36,45.1,36,45.1,36c0.1,0,0.2,0.1,0.3,0.1s0.3,0,0.4,0c0.2,0,0.4,0,0.6-0.1c0.2-0.1,0.3-0.2,0.5-0.4
			c0.1-0.2,0.2-0.4,0.4-0.7c0.1-0.3,0.2-0.8,0.3-1.3l1.2-6.5h-1.2c-0.1,0-0.2-0.1-0.2-0.2l0.2-1.1c0-0.2,0.2-0.2,0.2-0.2H49l0.1-0.4
			c0.2-1.1,0.5-1.8,1-2.4c0.5-0.5,1.3-0.8,2.2-0.8c0.3,0,0.5,0,0.7,0.1c0.2,0,0.3,0.1,0.5,0.1c0,0,0.1,0.1,0.1,0.2l-0.4,1.1
			c0,0.1-0.1,0.1-0.2,0.1c0,0-0.1,0-0.3-0.1c-0.1,0-0.3,0-0.4,0c-0.2,0-0.4,0-0.6,0.1c-0.2,0.1-0.3,0.1-0.4,0.3
			c-0.1,0.1-0.3,0.3-0.4,0.6c-0.2,0.6-0.3,1.1-0.3,1.2h1.7c0.1,0,0.2,0.1,0.2,0.2V26.8z M60.1,31.3c-0.2,0.5-0.4,1-0.7,1.3
			c-0.3,0.4-0.7,0.7-1.2,0.9s-1,0.3-1.7,0.3s-1.2-0.1-1.7-0.3s-0.9-0.5-1.2-0.9s-0.6-0.8-0.7-1.3c-0.2-0.5-0.2-1.1-0.2-1.7
			s0.1-1.2,0.2-1.7c0.2-0.5,0.4-1,0.7-1.3c0.3-0.4,0.7-0.7,1.2-0.9c0.5-0.2,1-0.3,1.7-0.3c0.6,0,1.2,0.1,1.7,0.3
			c0.5,0.2,0.9,0.5,1.2,0.9s0.6,0.8,0.7,1.3c0.2,0.5,0.2,1.1,0.2,1.7C60.3,30.2,60.3,30.8,60.1,31.3z M66.2,26.9
			c0,0.1-0.1,0.2-0.2,0.1c0,0-0.3-0.1-0.6-0.1c-0.2,0-0.5,0-0.7,0.1s-0.5,0.2-0.6,0.4c-0.2,0.2-0.3,0.4-0.5,0.8
			c-0.1,0.3-0.2,0.8-0.2,1.4v3.9c0,0.1-0.1,0.2-0.2,0.2h-1.4c-0.1,0-0.2-0.1-0.2-0.2v-7.8c0-0.1,0.1-0.2,0.1-0.2H63
			c0.1,0,0.1,0.1,0.1,0.2v0.6c0.2-0.3,0.6-0.5,0.9-0.7c0.3-0.1,0.7-0.3,1.3-0.2c0.3,0,0.8,0.1,0.9,0.1c0,0,0.1,0.1,0.1,0.2
			C66.5,26,66.3,26.7,66.2,26.9z M73.1,33.5c-0.6,0.2-1.4,0.4-2.2,0.4c-1.3,0-2.4-0.4-3-1.1c-0.7-0.8-1-1.8-1-3.1
			c0-0.6,0.1-1.2,0.3-1.7c0.2-0.5,0.4-1,0.8-1.3c0.3-0.4,0.7-0.7,1.2-0.9c0.5-0.2,1.1-0.3,1.7-0.3c0.4,0,0.8,0,1.2,0.1
			c0.4,0.1,0.8,0.2,1,0.3c0,0,0.1,0.1,0.1,0.2c-0.1,0.4-0.2,0.7-0.4,1.1c-0.1,0.2-0.2,0.1-0.2,0.1c-0.5-0.2-1-0.2-1.6-0.2
			c-0.8,0-1.3,0.3-1.7,0.8c-0.4,0.5-0.6,1.2-0.6,2c0,1,0.2,1.7,0.7,2.1c0.4,0.4,1,0.7,1.8,0.7c0.3,0,0.6,0,0.8-0.1
			c0.3,0,0.5-0.1,0.7-0.2c0,0,0.1-0.1,0.2,0.1l0.4,1C73.2,33.4,73.1,33.5,73.1,33.5z M80.8,30c0,0.1-0.2,0.1-0.2,0.1h-5.2
			c0,0.8,0.2,1.4,0.6,1.7c0.4,0.4,1,0.6,1.8,0.6c1.2,0,1.8-0.2,2.1-0.4c0,0,0.1-0.1,0.2,0.1l0.3,1c0.1,0.2,0,0.2,0,0.3
			c-0.3,0.2-1.1,0.5-2.6,0.5c-0.7,0-1.4-0.1-1.9-0.3s-1-0.5-1.3-0.9s-0.6-0.8-0.8-1.3c-0.2-0.5-0.2-1.1-0.2-1.7s0.1-1.2,0.2-1.7
			c0.2-0.5,0.4-1,0.7-1.4c0.3-0.4,0.7-0.7,1.2-0.9c0.5-0.2,1.1-0.3,1.7-0.3s1.1,0.1,1.5,0.3c0.3,0.1,0.7,0.4,1,0.8
			c0.2,0.2,0.5,0.7,0.7,1.2C81,28.9,80.8,29.9,80.8,30z"/>
	</g>
</g>
</svg>
