<?xml version="1.0"?>
<svg width="160" height="49.99999999999999" xmlns="http://www.w3.org/2000/svg" xmlns:svg="http://www.w3.org/2000/svg">
 <g>
  <title>Layer 1</title>
  <g stroke="null" id="Layer_1_1_">
   <g stroke="null" id="svg_1">
    <path stroke="null" id="svg_2" d="m126.24559,14.150825c0,4.136736 0,8.273472 0,12.48826c-0.390258,0 -0.936619,0 -1.404929,0c0,-0.546361 0,-0.858568 0,-1.482981c-0.390258,0.390258 -0.702465,0.702465 -1.092723,1.014671c-2.575704,1.717136 -6.088027,0 -6.478285,-3.044013c-0.156103,-1.170774 -0.078052,-2.341549 0.546361,-3.434271c1.326878,-2.4196 4.448943,-2.88791 6.478285,-1.014671c0.156103,0.156103 0.312206,0.390258 0.546361,0.546361c0,-0.858568 0,-1.873239 0,-2.731807c0,-0.780516 0,-1.639084 0,-2.497652c0.624413,0.078052 1.014671,0.156103 1.404929,0.156103zm-4.370891,4.605046c-0.936619,0 -1.639084,0.234155 -2.263497,0.858568c-1.014671,1.014671 -1.248826,2.731807 -0.624413,4.136736c0.858568,1.873239 3.122065,2.4196 4.683097,1.170774c0.780516,-0.624413 1.170774,-1.482981 1.248826,-2.4196c0.312206,-2.107394 -1.326878,-3.746478 -3.044013,-3.746478z" fill="#818B91"/>
    <path stroke="null" id="svg_3" d="m92.917547,19.224181c0.156103,-0.156103 0.312206,-0.234155 0.46831,-0.390258c1.795187,-1.951291 4.917252,-1.717136 6.478285,0.780516c1.014671,1.561032 0.858568,4.136736 -0.234155,5.619717c-1.561032,2.107394 -4.292839,2.263497 -6.24413,0.46831c-0.156103,-0.078052 -0.312206,-0.312206 -0.46831,-0.46831c0,1.326878 0,2.965962 0,4.214788c-0.46831,0 -0.858568,0 -1.326878,0c0,-3.902581 0,-7.805162 0,-11.707744c0.390258,0 1.092723,0 1.326878,0c0,0.546361 0,0.858568 0,1.482981zm6.166078,3.044013c0,-0.234155 0,-0.390258 0,-0.624413c-0.156103,-1.248826 -0.780516,-2.263497 -2.029342,-2.731807s-2.4196,-0.156103 -3.35622,0.858568c-1.170774,1.248826 -1.248826,3.122065 -0.234155,4.526994c0.936619,1.248826 2.497652,1.639084 3.902581,1.014671c1.248826,-0.624413 1.717136,-1.717136 1.717136,-3.044013z" fill="#818B91"/>
    <path stroke="null" id="svg_4" d="m109.464491,26.639085c-0.46831,0 -1.092723,0 -1.404929,0c0,-0.46831 -0.078052,-0.546361 -0.078052,-0.936619c-0.390258,0.312206 -0.780516,0.624413 -1.248826,0.780516c-1.014671,0.46831 -1.951291,0.546361 -2.965962,0.234155c-1.404929,-0.390258 -2.263497,-1.482981 -2.185445,-2.809858c0.078052,-1.248826 1.014671,-2.263497 2.4196,-2.575704c1.170774,-0.234155 2.341549,-0.234155 3.512323,0.078052c0.156103,0.078052 0.390258,0.156103 0.624413,0.078052c0.156103,-1.170774 -0.312206,-2.107394 -1.404929,-2.497652c-0.936619,-0.312206 -1.873239,-0.156103 -2.809858,0.078052c-0.312206,0.078052 -0.624413,0.234155 -0.936619,0.234155c-0.234155,-0.390258 -0.312206,-0.546361 -0.46831,-0.936619c1.795187,-0.780516 3.590375,-1.170774 5.385562,-0.312206c0.936619,0.46831 1.561032,1.248826 1.561032,2.263497c0.078052,2.107394 0,4.214788 0,6.322181zm-1.248826,-4.058684c-1.092723,-0.390258 -2.185445,-0.46831 -3.278168,-0.390258c-0.390258,0.078052 -0.780516,0.234155 -1.170774,0.46831c-0.936619,0.624413 -1.014671,2.029342 -0.078052,2.653755c1.092723,0.702465 2.185445,0.624413 3.278168,0c1.014671,-0.546361 1.404929,-1.404929 1.248826,-2.731807z" fill="#818B91"/>
    <path stroke="null" id="svg_5" d="m132.879978,17.507045c2.575704,0 4.605046,2.029342 4.605046,4.683097s-2.029342,4.683097 -4.683097,4.683097s-4.683097,-2.107394 -4.605046,-4.761149c0,-2.965962 2.4196,-4.761149 4.683097,-4.605046zm3.122065,4.683097c0,-2.029342 -1.404929,-3.434271 -3.278168,-3.434271s-3.200117,1.482981 -3.200117,3.434271s1.482981,3.512323 3.35622,3.512323c1.795187,-0.078052 3.122065,-1.482981 3.122065,-3.512323z" fill="#818B91"/>
    <path stroke="null" id="svg_6" d="m140.763192,18.990026c0,1.873239 0,3.668426 0,5.463614c0,0.702465 0.46831,1.014671 1.170774,1.092723c0.234155,0 0.546361,0 0.780516,0s0.46831,-0.078052 0.780516,-0.156103c0.078052,0.46831 0.078052,0.702465 0.078052,1.014671c-0.936619,0.546361 -1.951291,0.624413 -2.965962,0.156103c-0.936619,-0.390258 -1.248826,-1.248826 -1.248826,-2.263497c0,-1.482981 0,-2.965962 0,-4.448943c0,-0.312206 0,-0.624413 0,-0.936619c-0.312206,0 -0.858568,0 -1.170774,0c0,-0.390258 0,-0.936619 0,-1.326878c0.390258,0 0.858568,0 1.170774,0c0,-0.780516 0,-1.639084 0,-2.497652c0.546361,0 0.936619,0 1.404929,0c0,0.858568 0,1.639084 0,2.4196c0.936619,0 1.795187,0 2.809858,0c0,0.390258 0,1.014671 0,1.326878c-0.936619,0.156103 -1.795187,0.156103 -2.809858,0.156103z" fill="#818B91"/>
    <path stroke="null" id="svg_7" d="m111.727988,17.7412c0.46831,0 0.858568,0 1.248826,0c0,0.624413 0,1.248826 0,1.951291c0.624413,-0.546361 1.014671,-1.248826 1.639084,-1.561032c0.624413,-0.312206 1.248826,-0.624413 2.029342,-0.46831c0,0.46831 0,0.858568 0,1.248826c-0.156103,0.156103 -0.312206,0.156103 -0.546361,0.156103c-1.482981,0.078052 -2.731807,1.326878 -2.965962,2.88791c-0.156103,1.170774 -0.078052,2.263497 -0.156103,3.434271c0,0.390258 0,0.858568 0,1.248826c-0.390258,0 -0.858568,0 -1.326878,0c0.078052,-2.965962 0.078052,-5.931923 0.078052,-8.897885z" fill="#818B91"/>
    <path stroke="null" id="svg_8" d="m36.174017,23.751175c0,0 -0.546361,-0.078052 -1.092723,-0.078052c-0.858568,0 -1.170774,0.312206 -1.170774,0.312206c-0.234155,0.156103 -0.390258,0.46831 -0.390258,0.780516c0,0.234155 0.078052,0.390258 0.156103,0.546361c0.078052,0.078052 0.078052,0.078052 0.234155,0.234155c0,0 0.390258,0.312206 1.170774,0.234155c0.546361,0 1.092723,-0.156103 1.092723,-0.156103l0,0l0,-1.873239z" fill="#3498DB"/>
    <path stroke="null" id="svg_9" d="m44.213334,21.253523c-0.546361,0 -0.936619,0.234155 -1.170774,0.624413c-0.156103,0.234155 -0.234155,0.546361 -0.312206,0.936619l2.88791,0c0,-0.390258 -0.078052,-0.702465 -0.234155,-0.936619c-0.312206,-0.390258 -0.624413,-0.624413 -1.170774,-0.624413z" fill="#3498DB"/>
    <path stroke="null" id="svg_10" d="m60.604175,21.253523c-0.546361,0 -0.936619,0.156103 -1.170774,0.546361s-0.390258,0.936619 -0.390258,1.639084s0.156103,1.248826 0.390258,1.639084s0.624413,0.546361 1.170774,0.546361s0.936619,-0.156103 1.170774,-0.546361s0.390258,-0.936619 0.390258,-1.639084s-0.156103,-1.248826 -0.390258,-1.639084c-0.234155,-0.312206 -0.624413,-0.546361 -1.170774,-0.546361z" fill="#3498DB"/>
    <path stroke="null" id="svg_11" d="m76.838913,21.253523c-0.546361,0 -0.936619,0.234155 -1.170774,0.624413c-0.156103,0.234155 -0.234155,0.546361 -0.312206,0.936619l2.88791,0c0,-0.390258 -0.078052,-0.702465 -0.234155,-0.936619c-0.312206,-0.390258 -0.624413,-0.624413 -1.170774,-0.624413z" fill="#3498DB"/>
    <path stroke="null" id="svg_12" d="m71.609454,7.048127c-2.185445,0 -4.292839,0.46831 -6.166078,1.326878c-2.107394,-3.902581 -6.166078,-6.478285 -10.849176,-6.478285c-3.512323,0 -6.634388,1.482981 -8.897885,3.82453c-2.497652,-3.278168 -6.400233,-5.385562 -10.849176,-5.385562c-7.571007,0 -13.659034,6.088027 -13.659034,13.659034c0,1.951291 0.390258,3.746478 1.092723,5.463614c-3.512323,2.029342 -5.853872,5.853872 -5.853872,10.302814c0,6.556336 5.229459,11.863847 11.707744,11.863847c0.858568,0 1.639084,-0.078052 2.4196,-0.234155c1.795187,4.839201 6.400233,8.273472 11.863847,8.273472c5.229459,0 9.678401,-3.200117 11.629692,-7.727111c1.482981,0.702465 3.122065,1.092723 4.839201,1.092723c4.136736,0 7.805162,-2.263497 9.678401,-5.697769c0.936619,0.156103 1.951291,0.312206 2.965962,0.312206c8.351524,0 15.142015,-6.868543 15.142015,-15.298118c0.078052,-8.507627 -6.71244,-15.298118 -15.063963,-15.298118zm-40.118534,17.717719c0,1.248826 -0.858568,2.029342 -2.341549,2.029342c-0.702465,0 -1.404929,-0.078052 -2.107394,-0.46831c-0.156103,-0.078052 -0.234155,-0.156103 -0.390258,-0.234155c0,0 -0.078052,-0.078052 0,-0.156103l0.312206,-0.780516c0.078052,-0.156103 0.156103,-0.078052 0.156103,-0.078052c0.078052,0.078052 0.156103,0.078052 0.234155,0.156103c0.858568,0.546361 1.639084,0.546361 1.873239,0.546361c0.624413,0 1.014671,-0.312206 1.014671,-0.780516l0,0c0,-0.46831 -0.624413,-0.702465 -1.326878,-0.858568l-0.156103,-0.078052c-0.936619,-0.234155 -1.951291,-0.702465 -1.951291,-1.873239l0,0c0,-1.170774 0.936619,-1.951291 2.263497,-1.951291l0.156103,0c0.780516,0 1.561032,0.234155 2.029342,0.546361c0.078052,0 0.078052,0.078052 0.078052,0.156103s-0.234155,0.702465 -0.312206,0.780516c-0.078052,0.156103 -0.156103,0.078052 -0.156103,0.078052c-0.46831,-0.234155 -1.248826,-0.46831 -1.795187,-0.46831c-0.546361,0 -0.936619,0.312206 -0.936619,0.702465l0,0c0,0.46831 0.624413,0.702465 1.326878,0.936619l0.156103,0.078052c0.858568,0.156103 1.873239,0.546361 1.873239,1.717136l0,0zm5.931923,1.639084c0,0 -0.156103,0.078052 -0.312206,0.078052c-0.156103,0 -0.624413,0.156103 -1.014671,0.234155s-0.858568,0.078052 -1.248826,0.078052s-0.780516,0 -1.092723,-0.078052s-0.624413,-0.156103 -0.858568,-0.390258c-0.234155,-0.156103 -0.390258,-0.390258 -0.546361,-0.624413s-0.156103,-0.546361 -0.156103,-0.936619s0.078052,-0.702465 0.234155,-0.936619c0.156103,-0.234155 0.312206,-0.46831 0.624413,-0.702465c0.234155,-0.156103 0.546361,-0.312206 0.858568,-0.390258s0.624413,-0.156103 1.014671,-0.156103c0.234155,0 0.46831,0 0.624413,0c0,0 0.312206,0 0.702465,0.078052l0,-0.156103c0,-0.546361 -0.078052,-0.780516 -0.312206,-0.936619s-0.546361,-0.234155 -1.014671,-0.234155c0,0 -1.014671,0 -1.795187,0.390258l-0.078052,0c0,0 -0.078052,0 -0.156103,-0.078052l-0.312206,-0.780516c-0.078052,-0.078052 0,-0.156103 0,-0.156103c0.390258,-0.312206 1.248826,-0.46831 1.248826,-0.46831c0.312206,-0.078052 0.780516,-0.078052 1.092723,-0.078052c0.780516,0 1.482981,0.156103 1.873239,0.546361c0.46831,0.390258 0.624413,1.014671 0.624413,1.795187l0,3.746478c0.078052,0 0.078052,0.156103 0,0.156103zm2.731807,0.078052c0,0.078052 -0.078052,0.156103 -0.078052,0.156103l-1.092723,0c-0.078052,0 -0.078052,-0.078052 -0.078052,-0.156103l0,-8.66373c0,-0.078052 0.078052,-0.156103 0.078052,-0.156103l1.092723,0c0.078052,0 0.078052,0.078052 0.078052,0.156103l0,8.66373zm6.71244,-2.731807c0,0.078052 -0.156103,0.078052 -0.156103,0.078052l-4.058684,0c0,0.624413 0.156103,1.092723 0.46831,1.326878c0.312206,0.312206 0.780516,0.46831 1.404929,0.46831c0.936619,0 1.404929,-0.156103 1.639084,-0.312206c0,0 0.078052,-0.078052 0.156103,0.078052l0.234155,0.780516c0.078052,0.156103 0,0.156103 0,0.234155c-0.234155,0.156103 -0.858568,0.390258 -2.029342,0.390258c-0.546361,0 -1.092723,-0.078052 -1.482981,-0.234155s-0.780516,-0.390258 -1.014671,-0.702465s-0.46831,-0.624413 -0.624413,-1.014671s-0.156103,-0.858568 -0.156103,-1.326878s0.078052,-0.936619 0.156103,-1.326878c0.156103,-0.390258 0.312206,-0.780516 0.546361,-1.092723s0.546361,-0.546361 0.936619,-0.702465c0.390258,-0.156103 0.858568,-0.234155 1.326878,-0.234155c0.46831,0 0.858568,0.078052 1.170774,0.234155c0.234155,0.078052 0.546361,0.312206 0.780516,0.624413c0.156103,0.156103 0.390258,0.546361 0.546361,0.936619c0.312206,0.936619 0.156103,1.717136 0.156103,1.795187zm1.326878,2.575704c-0.156103,-0.078052 -0.234155,-0.156103 -0.390258,-0.234155c0,0 -0.078052,-0.078052 0,-0.156103l0.312206,-0.780516c0.078052,-0.156103 0.156103,-0.078052 0.156103,-0.078052c0.078052,0.078052 0.156103,0.078052 0.234155,0.156103c0.858568,0.546361 1.639084,0.546361 1.873239,0.546361c0.624413,0 1.014671,-0.312206 1.014671,-0.780516l0,0c0,-0.46831 -0.624413,-0.702465 -1.326878,-0.858568l-0.156103,-0.078052c-0.936619,-0.234155 -1.951291,-0.702465 -1.951291,-1.873239l0,0c0,-1.170774 0.936619,-1.951291 2.263497,-1.951291l0.156103,0c0.780516,0 1.561032,0.234155 2.029342,0.546361c0.078052,0 0.078052,0.078052 0.078052,0.156103s-0.234155,0.702465 -0.312206,0.780516c-0.078052,0.156103 -0.156103,0.078052 -0.156103,0.078052c-0.46831,-0.234155 -1.248826,-0.46831 -1.795187,-0.46831s-0.936619,0.312206 -0.936619,0.702465l0,0c0,0.46831 0.624413,0.702465 1.326878,0.936619l0.156103,0.078052c0.936619,0.312206 1.951291,0.702465 1.951291,1.873239l0,0c0,1.248826 -0.858568,2.029342 -2.341549,2.029342c-0.858568,-0.156103 -1.482981,-0.234155 -2.185445,-0.624413zm9.210092,-5.073356c0,0.156103 -0.156103,0.156103 -0.156103,0.156103l-1.326878,0l-0.936619,5.229459c-0.078052,0.546361 -0.234155,1.014671 -0.390258,1.404929s-0.312206,0.624413 -0.546361,0.936619c-0.234155,0.234155 -0.46831,0.390258 -0.780516,0.546361c-0.312206,0.078052 -0.624413,0.156103 -1.014671,0.156103c-0.156103,0 -0.390258,0 -0.624413,-0.078052c-0.156103,0 -0.234155,-0.078052 -0.390258,-0.078052c-0.078052,0 -0.078052,-0.078052 -0.078052,-0.156103c0,-0.078052 0.234155,-0.780516 0.312206,-0.858568c0.078052,-0.078052 0.156103,-0.078052 0.156103,-0.078052c0.078052,0 0.156103,0.078052 0.234155,0.078052s0.234155,0 0.312206,0c0.156103,0 0.312206,0 0.46831,-0.078052c0.156103,-0.078052 0.234155,-0.156103 0.390258,-0.312206c0.078052,-0.156103 0.156103,-0.312206 0.312206,-0.546361c0.078052,-0.234155 0.156103,-0.624413 0.234155,-1.014671l0.936619,-5.073356l-0.936619,0c-0.078052,0 -0.156103,-0.078052 -0.156103,-0.156103l0.156103,-0.858568c0,-0.156103 0.156103,-0.156103 0.156103,-0.156103l0.936619,0l0.078052,-0.312206c0.156103,-0.858568 0.390258,-1.404929 0.780516,-1.873239c0.390258,-0.390258 1.014671,-0.624413 1.717136,-0.624413c0.234155,0 0.390258,0 0.546361,0.078052c0.156103,0 0.234155,0.078052 0.390258,0.078052c0,0 0.078052,0.078052 0.078052,0.156103l-0.312206,0.858568c0,0.078052 -0.078052,0.078052 -0.156103,0.078052c0,0 -0.078052,0 -0.234155,-0.078052c-0.078052,0 -0.234155,0 -0.312206,0c-0.156103,0 -0.312206,0 -0.46831,0.078052c-0.156103,0.078052 -0.234155,0.078052 -0.312206,0.234155c-0.078052,0.078052 -0.234155,0.234155 -0.312206,0.46831c-0.156103,0.46831 -0.234155,0.858568 -0.234155,0.936619l1.326878,0c0.078052,0 0.156103,0.078052 0.156103,0.156103l0,0.702465zm5.931923,3.512323c-0.156103,0.390258 -0.312206,0.780516 -0.546361,1.014671c-0.234155,0.312206 -0.546361,0.546361 -0.936619,0.702465s-0.780516,0.234155 -1.326878,0.234155s-0.936619,-0.078052 -1.326878,-0.234155s-0.702465,-0.390258 -0.936619,-0.702465s-0.46831,-0.624413 -0.546361,-1.014671c-0.156103,-0.390258 -0.156103,-0.858568 -0.156103,-1.326878s0.078052,-0.936619 0.156103,-1.326878c0.156103,-0.390258 0.312206,-0.780516 0.546361,-1.014671c0.234155,-0.312206 0.546361,-0.546361 0.936619,-0.702465c0.390258,-0.156103 0.780516,-0.234155 1.326878,-0.234155c0.46831,0 0.936619,0.078052 1.326878,0.234155c0.390258,0.156103 0.702465,0.390258 0.936619,0.702465s0.46831,0.624413 0.546361,1.014671c0.156103,0.390258 0.156103,0.858568 0.156103,1.326878c0,0.46831 0,0.936619 -0.156103,1.326878zm4.761149,-3.434271c0,0.078052 -0.078052,0.156103 -0.156103,0.078052c0,0 -0.234155,-0.078052 -0.46831,-0.078052c-0.156103,0 -0.390258,0 -0.546361,0.078052s-0.390258,0.156103 -0.46831,0.312206c-0.156103,0.156103 -0.234155,0.312206 -0.390258,0.624413c-0.078052,0.234155 -0.156103,0.624413 -0.156103,1.092723l0,3.044013c0,0.078052 -0.078052,0.156103 -0.156103,0.156103l-1.092723,0c-0.078052,0 -0.156103,-0.078052 -0.156103,-0.156103l0,-6.088027c0,-0.078052 0.078052,-0.156103 0.078052,-0.156103l1.014671,0c0.078052,0 0.078052,0.078052 0.078052,0.156103l0,0.46831c0.156103,-0.234155 0.46831,-0.390258 0.702465,-0.546361c0.234155,-0.078052 0.546361,-0.234155 1.014671,-0.156103c0.234155,0 0.624413,0.078052 0.702465,0.078052c0,0 0.078052,0.078052 0.078052,0.156103c0.156103,0.234155 0,0.780516 -0.078052,0.936619zm5.385562,5.151407c-0.46831,0.156103 -1.092723,0.312206 -1.717136,0.312206c-1.014671,0 -1.873239,-0.312206 -2.341549,-0.858568c-0.546361,-0.624413 -0.780516,-1.404929 -0.780516,-2.4196c0,-0.46831 0.078052,-0.936619 0.234155,-1.326878c0.156103,-0.390258 0.312206,-0.780516 0.624413,-1.014671c0.234155,-0.312206 0.546361,-0.546361 0.936619,-0.702465c0.390258,-0.156103 0.858568,-0.234155 1.326878,-0.234155c0.312206,0 0.624413,0 0.936619,0.078052c0.312206,0.078052 0.624413,0.156103 0.780516,0.234155c0,0 0.078052,0.078052 0.078052,0.156103c-0.078052,0.312206 -0.156103,0.546361 -0.312206,0.858568c-0.078052,0.156103 -0.156103,0.078052 -0.156103,0.078052c-0.390258,-0.156103 -0.780516,-0.156103 -1.248826,-0.156103c-0.624413,0 -1.014671,0.234155 -1.326878,0.624413c-0.312206,0.390258 -0.46831,0.936619 -0.46831,1.561032c0,0.780516 0.156103,1.326878 0.546361,1.639084c0.312206,0.312206 0.780516,0.546361 1.404929,0.546361c0.234155,0 0.46831,0 0.624413,-0.078052c0.234155,0 0.390258,-0.078052 0.546361,-0.156103c0,0 0.078052,-0.078052 0.156103,0.078052l0.312206,0.780516c-0.078052,-0.078052 -0.156103,0 -0.156103,0zm6.009975,-2.731807c0,0.078052 -0.156103,0.078052 -0.156103,0.078052l-4.058684,0c0,0.624413 0.156103,1.092723 0.46831,1.326878c0.312206,0.312206 0.780516,0.46831 1.404929,0.46831c0.936619,0 1.404929,-0.156103 1.639084,-0.312206c0,0 0.078052,-0.078052 0.156103,0.078052l0.234155,0.780516c0.078052,0.156103 0,0.156103 0,0.234155c-0.234155,0.156103 -0.858568,0.390258 -2.029342,0.390258c-0.546361,0 -1.092723,-0.078052 -1.482981,-0.234155s-0.780516,-0.390258 -1.014671,-0.702465s-0.46831,-0.624413 -0.624413,-1.014671c-0.156103,-0.390258 -0.156103,-0.858568 -0.156103,-1.326878s0.078052,-0.936619 0.156103,-1.326878c0.156103,-0.390258 0.312206,-0.780516 0.546361,-1.092723c0.234155,-0.312206 0.546361,-0.546361 0.936619,-0.702465c0.390258,-0.156103 0.858568,-0.234155 1.326878,-0.234155s0.858568,0.078052 1.170774,0.234155c0.234155,0.078052 0.546361,0.312206 0.780516,0.624413c0.156103,0.156103 0.390258,0.546361 0.546361,0.936619c0.312206,0.936619 0.156103,1.717136 0.156103,1.795187z" fill="#3498DB"/>
   </g>
  </g>
 </g>
</svg>