<svg width="150" height="60" xmlns="http://www.w3.org/2000/svg" xmlns:svg="http://www.w3.org/2000/svg">
 <defs>
  <style>.cls-1{fill:#30323d;}.cls-2{fill:#e72964;}</style>
 </defs>
 <g class="layer">
  <title>Layer 1</title>
  <g id="Guidelines">
   <g id="K3kLU0.tif">
    <path class="cls-1" d="m125.3581,13.3573l0,26.61859l-3.17931,0l0,-2.57102a10.00833,10.00833 0 0 1 -9.27839,2.27904a9.58658,9.58658 0 0 1 -5.58001,-3.82815a9.90289,9.90289 0 0 1 0.95704,-12.71723a10.09754,10.09754 0 0 1 13.89325,-0.42174l0,-9.35949l3.18742,0zm-9.95156,10.00833a6.7317,6.7317 0 1 0 6.76414,6.75603a6.73981,6.73981 0 0 0 -6.76414,-6.75603z" id="svg_1"/>
    <path class="cls-2" d="m16.91291,46.55348l0,-3.08198c0,-3.68216 0,-7.36431 0,-11.05458c0,-0.59206 -0.18654,-0.75427 -0.7705,-0.75427c-4.44454,0 -8.92153,0 -13.34985,0l-0.76238,0a4.99605,4.99605 0 0 1 0.32442,-0.41363q7.07234,-7.05612 14.169,-14.11223a1.13547,1.13547 0 0 1 0.72183,-0.32442c4.69597,0 9.39193,0 14.0879,0c0.13788,0 0.27576,0 0.49474,0l0,0.68128q0,6.79658 0,13.61749a1.395,1.395 0 0 1 -0.33253,0.90026q-7.09667,7.13722 -14.20956,14.22578c-0.0811,0.06488 -0.17843,0.13788 -0.37308,0.31631z" id="svg_2"/>
    <path class="cls-1" d="m39.33838,20.08089l3.11442,0l0,2.63591a10.02455,10.02455 0 0 1 9.57847,-2.20605a9.51359,9.51359 0 0 1 5.36103,3.82815a9.94345,9.94345 0 0 1 -0.95704,12.53069a10.1381,10.1381 0 0 1 -13.94191,0.44608l0,9.32705l-3.15498,0l0,-26.56181zm3.14687,9.93533a6.75603,6.75603 0 1 0 6.72359,-6.7317a6.76414,6.76414 0 0 0 -6.72359,6.7317z" id="svg_3"/>
    <path class="cls-1" d="m81.26955,31.56532l-16.22095,0a6.72359,6.72359 0 0 0 4.42021,4.76896a7.29943,7.29943 0 0 0 4.74463,-0.04866a8.00504,8.00504 0 0 0 3.84437,-2.89544l2.34393,2.14117a10.6815,10.6815 0 0 1 -5.4989,3.88492a10.17865,10.17865 0 0 1 -12.09272,-4.86629a9.93533,9.93533 0 0 1 7.00745,-14.37988a9.65147,9.65147 0 0 1 11.45199,9.59469c0.00811,0.56773 0,1.13547 0,1.80053zm-3.43884,-3.1712c-0.12977,-2.60346 -3.0982,-5.06905 -6.14774,-5.13393s-6.34239,2.43314 -6.5776,5.13393l12.72534,0z" id="svg_4"/>
    <path class="cls-1" d="m138.10777,20.17821a9.911,9.911 0 1 1 -9.95967,9.83801a9.90289,9.90289 0 0 1 9.95967,-9.83801zm0,3.18742a6.7317,6.7317 0 1 0 6.73981,6.72359a6.74792,6.74792 0 0 0 -6.73981,-6.72359z" id="svg_5"/>
    <path class="cls-1" d="m87.19019,22.46537a9.18106,9.18106 0 0 1 15.0936,4.39588a11.73586,11.73586 0 0 1 0.45419,3.00088c0.05677,3.24419 0,6.48838 0,9.73257a3.47128,3.47128 0 0 1 0,0.34875l-3.19553,0l0,-0.68128c0,-3.20364 0,-6.39917 0,-9.59469a6.48838,6.48838 0 0 0 -4.7203,-6.2694a6.12341,6.12341 0 0 0 -7.29943,4.50943a8.97019,8.97019 0 0 0 -0.28387,2.28715c0,3.00899 0,6.02608 0,9.03507l0,0.75427l-3.13064,0l0,-19.88689l3.08198,0l0,2.36826z" id="svg_6"/>
   </g>
  </g>
 </g>
</svg>