<?xml version="1.0"?>
<svg width="160" height="50" xmlns="http://www.w3.org/2000/svg" xmlns:svg="http://www.w3.org/2000/svg">
 <g>
  <title>Layer 1</title>
  <g stroke="null" id="svg_1">
   <path stroke="null" id="svg_2" d="m13.31778,14.63607c-3.075012,0 -4.897242,1.366672 -5.694467,2.391676c-0.113889,-0.911115 -0.683336,-1.936119 -2.733344,-1.936119l-4.669463,0l0,4.783353l1.936119,0c0.341668,0 0.455557,0.113889 0.455557,0.455557l0,22.094534l5.466689,0l0,-8.313922c0,-0.227779 0,-0.455557 0,-0.569447c0.911115,0.797225 2.505566,1.936119 5.125021,1.936119c5.352799,0 9.111148,-4.213906 9.111148,-10.363931c0,-6.377804 -3.644459,-10.47782 -8.997259,-10.47782m-1.025004,15.944509c-2.961123,0 -4.327795,-2.847234 -4.327795,-5.466689c0,-4.100017 2.277787,-5.580578 4.441685,-5.580578c2.619455,0 4.327795,2.277787 4.327795,5.580578c-0.113889,3.758349 -2.277787,5.466689 -4.441685,5.466689" fill="#203232"/>
   <path stroke="null" id="svg_3" d="m29.603957,29.669464l0,-11.616714c0,-1.936119 -0.911115,-2.961123 -2.961123,-2.961123l-4.783353,0l0,4.783353l1.936119,0c0.341668,0 0.455557,0.113889 0.455557,0.455557l0,11.616714c0,2.050008 0.911115,2.961123 2.847234,2.961123l4.897242,0l0,-4.783353l-1.936119,0c-0.227779,0 -0.455557,-0.113889 -0.455557,-0.455557" fill="#203232"/>
   <path stroke="null" id="svg_4" d="m44.067904,14.63607c-3.075012,0 -4.897242,1.366672 -5.808357,2.391676c-0.113889,-0.797225 -0.683336,-1.936119 -2.733344,-1.936119l-4.669463,0l0,4.783353l1.936119,0c0.341668,0 0.455557,0.113889 0.455557,0.455557l0,22.094534l5.466689,0l0,-8.313922c0,-0.227779 0,-0.455557 0,-0.569447c0.911115,0.797225 2.505566,1.936119 5.125021,1.936119c5.352799,0 9.111148,-4.213906 9.111148,-10.363931c0,-6.377804 -3.53057,-10.47782 -8.883369,-10.47782m-1.138893,15.944509c-2.961123,0 -4.327795,-2.847234 -4.327795,-5.466689c0,-4.100017 2.277787,-5.580578 4.441685,-5.580578c2.619455,0 4.327795,2.277787 4.327795,5.580578c0,3.758349 -2.277787,5.466689 -4.441685,5.466689" fill="#203232"/>
   <path stroke="null" id="svg_5" d="m63.315204,14.63607c-5.922246,0 -10.136152,4.327795 -10.136152,10.363931c0,6.036135 4.441685,10.363931 10.705599,10.363931c4.897242,0 7.858365,-2.847234 7.972254,-2.961123l0.227779,-0.227779l-2.391676,-3.986127l-0.341668,0.341668c0,0 -2.163898,2.050008 -5.125021,2.050008c-2.733344,0 -4.783353,-1.70834 -5.23891,-4.327795l12.983386,0l0,-0.341668c0,0 0.113889,-1.252783 0.113889,-1.82223c0.113889,-5.694467 -3.53057,-9.452816 -8.76948,-9.452816m-4.213906,7.516697c0.569447,-1.936119 2.050008,-3.075012 4.100017,-3.075012c1.70834,0 2.961123,1.252783 3.188902,3.075012l-7.288918,0z" fill="#203232"/>
   <path stroke="null" id="svg_6" d="m92.243098,29.669464l0,-19.133411c0,-1.936119 -0.911115,-2.961123 -2.961123,-2.961123l-4.897242,0l0,4.783353l1.936119,0c0.341668,0 0.455557,0.113889 0.455557,0.455557l0,3.41668c-0.797225,-0.683336 -2.391676,-1.70834 -5.125021,-1.70834c-5.352799,0 -9.111148,4.327795 -9.111148,10.363931c0,6.263914 3.53057,10.363931 8.883369,10.363931c3.075012,0 4.783353,-1.366672 5.694467,-2.391676c0.113889,0.911115 0.683336,1.936119 2.733344,1.936119l4.783353,0l0,-4.783353l-1.82223,0c-0.455557,0.113889 -0.569447,0 -0.569447,-0.341668m-9.908373,0.911115c-2.619455,0 -4.327795,-2.163898 -4.327795,-5.580578c0,-3.302791 1.70834,-5.466689 4.441685,-5.466689c2.961123,0 4.327795,2.733344 4.327795,5.466689c0,4.100017 -2.277787,5.580578 -4.441685,5.580578" fill="#203232"/>
   <path stroke="null" id="svg_7" d="m106.707046,14.749959c-2.277787,0 -4.441685,1.366672 -5.694467,3.41668l0,-0.341668c0,-1.82223 -1.025004,-2.733344 -2.961123,-2.733344l-4.783353,0l0,4.783353l1.936119,0c0.341668,0 0.455557,0.113889 0.455557,0.455557l0,14.577837l5.466689,0l0,-7.972254c0,-1.025004 0.113889,-2.050008 0.341668,-2.961123c0.797225,-2.733344 3.075012,-3.758349 4.783353,-3.758349c0.683336,0 1.138893,0.113889 1.138893,0.113889l0.455557,0.113889l0,-5.466689l-0.341668,0c0.113889,-0.113889 -0.341668,-0.227779 -0.797225,-0.227779" fill="#203232"/>
   <path stroke="null" id="svg_8" d="m115.818193,29.669464l0,-11.616714c0,-1.936119 -0.911115,-2.961123 -2.847234,-2.961123l-4.441685,0l0,4.783353l1.480562,0c0.341668,0 0.455557,0.113889 0.455557,0.455557l0,11.616714c0,2.050008 0.911115,2.961123 2.961123,2.961123l4.897242,0l0,-4.783353l-1.936119,0c-0.455557,0 -0.569447,-0.113889 -0.569447,-0.455557" fill="#203232"/>
   <path stroke="null" id="svg_9" d="m136.659944,15.091627l-2.961123,0c-1.70834,0 -2.619455,0.569447 -3.188902,2.050008l-3.644459,10.022263c-0.113889,0.341668 -0.227779,0.797225 -0.341668,1.138893c-0.113889,-0.455557 -0.227779,-0.797225 -0.341668,-1.252783l-3.644459,-10.022263c-0.569447,-1.480562 -1.480562,-2.050008 -3.188902,-2.050008l-3.075012,0l0,4.783353l0.797225,0c0.455557,0 0.569447,0.113889 0.683336,0.455557l5.580578,14.577837l6.150025,0l5.580578,-14.577837c0.113889,-0.227779 0.227779,-0.455557 0.683336,-0.455557l0.797225,0l0,-4.669463l0.113889,0z" fill="#203232"/>
   <path stroke="null" id="svg_10" d="m146.11276,14.63607c-5.922246,0 -10.136152,4.327795 -10.136152,10.363931c0,6.036135 4.441685,10.363931 10.591709,10.363931c4.897242,0 7.858365,-2.847234 7.972254,-2.961123l0.227779,-0.227779l-2.391676,-3.986127l-0.341668,0.341668c0,0 -2.163898,2.050008 -5.125021,2.050008c-2.733344,0 -4.783353,-1.70834 -5.23891,-4.327795l13.097275,0l0,-0.341668c0,0 0.113889,-1.252783 0.113889,-1.82223c0.113889,-5.694467 -3.41668,-9.452816 -8.76948,-9.452816m-4.100017,7.516697c0.569447,-1.936119 2.050008,-3.075012 4.100017,-3.075012c1.70834,0 2.961123,1.252783 3.188902,3.075012l-7.288918,0z" fill="#203232"/>
   <rect stroke="null" id="svg_11" height="5.125021" width="4.897242" fill="#203232" y="7.57493" x="24.365047"/>
   <rect stroke="null" id="svg_12" height="5.125021" width="4.897242" fill="#203232" y="7.57493" x="110.579283"/>
   <polygon stroke="null" id="svg_13" points="154.8822479248047,15.09162712097168 155.56556701660156,15.09162712097168 155.56556701660156,17.027746200561523 156.135009765625,17.027746200561523 156.135009765625,15.09162712097168 156.9322509765625,15.09162712097168 156.9322509765625,14.636069774627686 154.8822479248047,14.636069774627686 " fill="#203232"/>
   <polygon stroke="null" id="svg_14" points="158.9822540283203,14.636069774627686 158.52670288085938,16.230520248413086 158.52670288085938,16.230520248413086 157.95724487304688,14.636069774627686 157.1600341796875,14.636069774627686 157.1600341796875,17.027746200561523 157.61558532714844,17.027746200561523 157.61558532714844,15.319406032562256 157.61558532714844,15.319406032562256 158.29891967773438,17.027746200561523 158.64059448242188,17.027746200561523 159.32391357421875,15.319406032562256 159.32391357421875,15.319406032562256 159.32391357421875,17.027746200561523 159.7794952392578,17.027746200561523 159.7794952392578,14.636069774627686 " fill="#203232"/>
  </g>
 </g>
</svg>