<svg width="160" height="49.99999999999999" xmlns="http://www.w3.org/2000/svg" xmlns:svg="http://www.w3.org/2000/svg">
 <g>
  <title>Layer 1</title>
  <g stroke="null" id="svg_1">
   <path stroke="null" id="svg_2" d="m54.98884,46.34782c-0.18323,0.27485 -0.45808,0.45808 -0.82454,0.45808l-10.53584,0c-0.18323,0 -0.27485,-0.09162 -0.36646,-0.18323c0,-0.09162 0,-0.18323 0.09162,-0.27485l10.99392,-19.5142c0.18323,-0.27485 0.18323,-0.64131 0,-1.00778l-10.99392,-20.33874c-0.09162,-0.09162 -0.09162,-0.27485 0,-0.45808c0.09162,-0.09162 0.18323,-0.09162 0.27485,-0.09162l10.53584,0c0.36646,0 0.64131,0.18323 0.82454,0.45808l11.08553,20.33874c0.18323,0.27485 0.18323,0.64131 0,1.00778l-11.08553,19.60582z" fill="#75459F"/>
   <path stroke="null" id="svg_3" d="m37.12373,40.66763c3.93949,-4.12272 6.59635,-9.06998 6.59635,-15.57471c0.18323,-11.91008 -9.34483,-21.71298 -21.2549,-21.98783c-11.91008,-0.18323 -21.71298,9.34483 -21.98783,21.2549c0,0.27485 0,0.45808 0,0.73293c0,11.54361 9.06998,21.43814 20.52198,21.62137l19.42258,0c0.18323,0 0.27485,-0.18323 0.27485,-0.36646c0,0 0,-0.09162 0,-0.09162l-3.57302,-5.58857zm-15.02502,-4.12272c-6.3215,0 -11.36038,-5.13049 -11.36038,-11.36038s5.13049,-11.36038 11.36038,-11.36038s11.36038,5.13049 11.36038,11.36038s-5.03888,11.36038 -11.36038,11.36038l0,0z" fill="#75459F"/>
   <path stroke="null" id="svg_4" d="m111.6075,18.49657c-0.36646,0.82454 -0.82454,1.55747 -1.46586,2.19878c-0.64131,0.64131 -1.46586,1.09939 -2.2904,1.37424c-2.01555,0.64131 -4.12272,0.64131 -6.04665,0c-0.82454,-0.27485 -1.64909,-0.82454 -2.2904,-1.37424c-0.64131,-0.64131 -1.09939,-1.37424 -1.46586,-2.19878c-0.36646,-0.91616 -0.5497,-1.83232 -0.5497,-2.84009l0,-10.62745l4.12272,0l0,10.3526c0,0.45808 0.09162,0.91616 0.18323,1.37424c0.09162,0.36646 0.27485,0.82454 0.5497,1.09939c0.27485,0.36646 0.64131,0.64131 1.00778,0.82454c0.91616,0.36646 2.01555,0.36646 3.02333,0c0.36646,-0.18323 0.73293,-0.45808 1.00778,-0.82454c0.27485,-0.36646 0.45808,-0.73293 0.5497,-1.09939c0.09162,-0.45808 0.18323,-0.91616 0.18323,-1.37424l0,-10.3526l4.12272,0l0,10.62745c-0.09162,1.00778 -0.27485,2.01555 -0.64131,2.84009z" fill="#75459F"/>
   <path stroke="null" id="svg_5" d="m116.738,22.16121l0,-17.13219l4.21433,0l0,17.13219l-4.21433,0l0,0z" fill="#75459F"/>
   <path stroke="null" id="svg_6" d="m137.80967,21.88636c-1.19101,0.5497 -2.56525,0.82454 -3.84787,0.73293c-1.28262,0 -2.47363,-0.18323 -3.66464,-0.64131c-2.19878,-0.82454 -3.93949,-2.56525 -4.85565,-4.67241c-0.91616,-2.38202 -0.91616,-5.03888 0,-7.42089c0.45808,-1.09939 1.09939,-2.01555 1.92394,-2.84009c0.82454,-0.82454 1.83232,-1.37424 2.93171,-1.83232c2.2904,-0.82454 4.85565,-0.82454 7.23766,0c1.09939,0.36646 2.10717,1.00778 2.84009,1.83232l-2.84009,2.84009c-0.36646,-0.5497 -0.91616,-0.91616 -1.55747,-1.19101c-0.64131,-0.27485 -1.28262,-0.36646 -1.92394,-0.36646c-0.64131,0 -1.37424,0.09162 -2.01555,0.36646c-0.5497,0.27485 -1.09939,0.64131 -1.55747,1.09939c-0.45808,0.45808 -0.82454,1.00778 -1.00778,1.64909c-0.27485,0.64131 -0.36646,1.37424 -0.36646,2.10717c0,0.73293 0.09162,1.46586 0.36646,2.10717c0.18323,0.64131 0.5497,1.19101 1.00778,1.64909c0.45808,0.45808 0.91616,0.82454 1.55747,1.09939c0.64131,0.27485 1.28262,0.36646 1.92394,0.36646c0.73293,0 1.46586,-0.18323 2.19878,-0.45808c0.5497,-0.27485 1.09939,-0.73293 1.46586,-1.28262l2.84009,2.74848c-0.64131,0.91616 -1.55747,1.64909 -2.65686,2.10717z" fill="#75459F"/>
   <path stroke="null" id="svg_7" d="m154.11731,22.16121l-6.3215,-7.87897l-0.09162,0l0,7.87897l-4.0311,0l0,-17.13219l4.0311,0l0,6.96281l0.09162,0l6.13827,-6.96281l5.22211,0l-7.42089,7.87897l7.78736,9.25321l-5.40534,0l0,0z" fill="#75459F"/>
   <path stroke="null" id="svg_8" d="m93.74239,13.27446c0.09162,-4.94726 -3.93949,-9.06998 -8.88675,-9.06998c-4.94726,-0.09162 -9.06998,3.93949 -9.06998,8.88675c-0.09162,4.85565 3.75625,8.88675 8.6119,9.06998l0,0l8.33705,0l-1.55747,-2.65686c1.09939,-0.73293 2.56525,-3.57302 2.56525,-6.22989zm-8.97836,5.03888c-2.74848,0.09162 -5.13049,-2.10717 -5.22211,-4.85565c-0.09162,-2.74848 2.10717,-5.13049 4.85565,-5.22211c2.74848,-0.09162 5.13049,2.10717 5.22211,4.85565c0,0.09162 0,0.09162 0,0.18323c0,2.74848 -1.37424,5.03888 -4.85565,5.03888l0,0z" fill="#75459F"/>
   <path stroke="null" id="svg_9" d="m78.16768,29.21563l5.13049,0c0.64131,0 1.28262,0.09162 1.92394,0.18323c0.64131,0.09162 1.28262,0.36646 1.83232,0.73293c0.5497,0.36646 1.00778,0.82454 1.28262,1.37424c0.36646,0.64131 0.5497,1.37424 0.45808,2.10717c0,0.82454 -0.27485,1.7407 -0.82454,2.38202c-0.5497,0.64131 -1.37424,1.09939 -2.19878,1.28262l0,0.09162c1.00778,0.09162 2.01555,0.5497 2.74848,1.28262c0.73293,0.82454 1.19101,1.92394 1.09939,3.02333c0,1.37424 -0.64131,2.65686 -1.7407,3.48141c-0.64131,0.45808 -1.28262,0.73293 -2.01555,0.91616c-0.82454,0.27485 -1.7407,0.36646 -2.65686,0.36646l-5.03888,0l0,-17.2238l0,0zm1.7407,7.51251l3.48141,0c0.45808,0 0.82454,-0.09162 1.28262,-0.18323c0.45808,-0.09162 0.82454,-0.27485 1.19101,-0.45808c0.36646,-0.27485 0.64131,-0.5497 0.82454,-0.91616c0.18323,-0.45808 0.36646,-0.91616 0.36646,-1.46586c0,-0.45808 -0.09162,-1.00778 -0.36646,-1.37424c-0.18323,-0.36646 -0.5497,-0.73293 -0.91616,-0.91616c-0.36646,-0.27485 -0.82454,-0.45808 -1.28262,-0.5497c-0.5497,-0.09162 -1.09939,-0.18323 -1.55747,-0.18323l-3.02333,0l0,6.04665l0,0zm0,8.15382l3.20656,0c0.64131,0 1.19101,-0.09162 1.83232,-0.18323c0.5497,-0.09162 1.00778,-0.27485 1.46586,-0.64131c0.45808,-0.27485 0.73293,-0.64131 1.00778,-1.00778c0.73293,-1.37424 0.36646,-3.02333 -0.73293,-4.0311c-1.00778,-0.64131 -2.10717,-0.91616 -3.29817,-0.82454l-3.57302,0l0,6.68797l0.09162,0z" fill="#75459F"/>
   <path stroke="null" id="svg_10" d="m93.00946,46.34782l-1.92394,0l7.42089,-17.13219l1.64909,0l7.32928,17.13219l-1.83232,0l-1.92394,-4.48918l-8.88675,0l-1.83232,4.48918zm2.56525,-6.13827l7.51251,0l-3.75625,-9.06998l-3.75625,9.06998z" fill="#75459F"/>
   <path stroke="null" id="svg_11" d="m119.0284,31.96411c-0.36646,-0.5497 -0.82454,-0.91616 -1.46586,-1.28262c-0.64131,-0.36646 -1.37424,-0.45808 -2.10717,-0.45808c-0.45808,0 -0.82454,0.09162 -1.28262,0.18323c-0.45808,0.09162 -0.82454,0.36646 -1.19101,0.64131c-0.36646,0.27485 -0.64131,0.64131 -0.82454,1.00778c-0.18323,0.45808 -0.36646,0.91616 -0.36646,1.46586c0,0.45808 0.09162,0.91616 0.27485,1.37424c0.18323,0.36646 0.45808,0.64131 0.82454,0.91616c0.36646,0.27485 0.73293,0.45808 1.19101,0.64131c0.45808,0.18323 0.91616,0.36646 1.37424,0.45808c0.5497,0.18323 1.19101,0.36646 1.83232,0.64131c0.5497,0.18323 1.09939,0.5497 1.64909,0.91616c0.45808,0.36646 0.91616,0.82454 1.19101,1.37424c0.36646,0.64131 0.45808,1.37424 0.45808,2.10717c0,0.73293 -0.18323,1.55747 -0.45808,2.19878c-0.27485,0.64131 -0.73293,1.09939 -1.28262,1.55747c-0.5497,0.36646 -1.19101,0.73293 -1.83232,0.91616c-0.64131,0.18323 -1.37424,0.27485 -2.01555,0.27485c-0.5497,0 -1.00778,-0.09162 -1.55747,-0.18323c-0.5497,-0.09162 -1.00778,-0.27485 -1.46586,-0.45808c-0.45808,-0.18323 -0.91616,-0.45808 -1.28262,-0.82454c-0.36646,-0.36646 -0.73293,-0.73293 -1.09939,-1.09939l1.46586,-1.09939c0.36646,0.64131 0.91616,1.19101 1.55747,1.55747c0.73293,0.45808 1.55747,0.64131 2.38202,0.64131c0.45808,0 0.91616,-0.09162 1.37424,-0.18323c0.45808,-0.09162 0.82454,-0.36646 1.19101,-0.64131c0.36646,-0.27485 0.64131,-0.64131 0.91616,-1.00778c0.45808,-0.91616 0.45808,-2.01555 0,-2.93171c-0.27485,-0.36646 -0.5497,-0.73293 -0.91616,-1.00778c-0.45808,-0.27485 -0.82454,-0.45808 -1.37424,-0.64131c-0.45808,-0.18323 -1.00778,-0.36646 -1.55747,-0.5497c-0.5497,-0.18323 -1.09939,-0.36646 -1.64909,-0.64131c-0.5497,-0.18323 -1.00778,-0.5497 -1.46586,-0.91616c-0.45808,-0.36646 -0.82454,-0.82454 -1.09939,-1.37424c-0.5497,-1.28262 -0.5497,-2.84009 0.09162,-4.12272c0.27485,-0.5497 0.73293,-1.09939 1.28262,-1.46586c0.5497,-0.36646 1.19101,-0.64131 1.83232,-0.82454c0.64131,-0.18323 1.28262,-0.27485 1.92394,-0.27485c1.00778,0 2.01555,0.18323 3.02333,0.64131c0.73293,0.36646 1.37424,0.82454 1.83232,1.46586l-1.37424,1.00778z" fill="#75459F"/>
   <path stroke="null" id="svg_12" d="m126.72414,44.79035l9.1616,0l0,1.55747l-10.9023,0l0,-17.13219l10.62745,0l0,1.55747l-8.88675,0l0,5.86342l8.33705,0l0,1.55747l-8.33705,0l0,6.59635l0,0z" fill="#75459F"/>
   <path stroke="null" id="svg_13" d="m63.78397,45.24843l-0.64131,0l0,1.55747l-0.36646,0l0,-1.55747l-0.64131,0l0,-0.36646l1.55747,0l0.09162,0.36646l0,0zm2.47363,1.55747l-0.36646,0l0,-1.37424l0,0l-0.5497,1.37424l-0.27485,0l-0.5497,-1.37424l0,0l0,1.37424l-0.36646,0l0,-1.92394l0.5497,0l0.5497,1.37424l0.5497,-1.37424l0.5497,0l-0.09162,1.92394l0,0z" fill="#75459F"/>
  </g>
 </g>
</svg>