<svg id="Export" xmlns="http://www.w3.org/2000/svg" viewBox="0 0 180 35.31"><defs><style>.cls-1{fill:#424242;}.cls-1,.cls-2{fill-rule:evenodd;}.cls-2{fill:#53bad3;}</style></defs><title>recharge-logo_cropped</title><g id="Page-1"><g id="horizontal"><g id="recharge-horiz-full_color" data-name="recharge-horiz-full color"><path id="Fill-1" class="cls-1" d="M73.13,15.8a2.09,2.09,0,0,0,.57-1.54,2.12,2.12,0,0,0-.57-1.55,2.37,2.37,0,0,0-1.72-.58h-4v4.25h4A2.32,2.32,0,0,0,73.13,15.8Zm3.58,8.66H73.79l-3-5.77H67.45v5.77H65V9.82h6.43A4.91,4.91,0,0,1,75,11a4.29,4.29,0,0,1,1.24,3.22,4.6,4.6,0,0,1-.72,2.59,3.89,3.89,0,0,1-2.15,1.53Z"/><path id="Fill-3" class="cls-1" d="M82.32,15.52a2.71,2.71,0,0,0-1.91.68,2.93,2.93,0,0,0-1,1.81h5.69a2.89,2.89,0,0,0-.91-1.81A2.69,2.69,0,0,0,82.32,15.52Zm5.24,4.31H79.42a3.21,3.21,0,0,0,.92,2,2.88,2.88,0,0,0,2.07.75,2.91,2.91,0,0,0,1.52-.41,2.29,2.29,0,0,0,1-1.12h2.48a5,5,0,0,1-1.85,2.63,5.18,5.18,0,0,1-3.19,1,5,5,0,0,1-3.86-1.59,5.62,5.62,0,0,1-1.48-4,5.67,5.67,0,0,1,1.49-4,5.4,5.4,0,0,1,7.64,0,5.63,5.63,0,0,1,1.45,4Z"/><path id="Fill-5" class="cls-1" d="M106.92,9v5.92a3.49,3.49,0,0,1,3.11-1.4A3.77,3.77,0,0,1,113,14.67a4.42,4.42,0,0,1,1,3.07v6.72h-2.45V18.05a2.76,2.76,0,0,0-.53-1.78,1.94,1.94,0,0,0-1.6-.65,2.4,2.4,0,0,0-1.84.7,2.71,2.71,0,0,0-.67,2v6.18h-2.46V9Z"/><path id="Fill-7" class="cls-1" d="M123,19.45l-2.84.44c-1.34.2-2,.71-2,1.51s.64,1.39,1.9,1.39a3,3,0,0,0,2.19-.75,2.63,2.63,0,0,0,.76-1.91Zm-3.44,5.26a4,4,0,0,1-2.83-.88,3.13,3.13,0,0,1-.93-2.36c0-1.85,1.37-3,4.11-3.37l3.09-.44V17.5c0-1.31-.76-2-2.29-2-1.33,0-2.09.53-2.27,1.58H116a3.9,3.9,0,0,1,1.31-2.58,6.22,6.22,0,0,1,6.87,0,3.78,3.78,0,0,1,1.16,2.95v4.92a5.18,5.18,0,0,0,.31,2h-2.33s0-.05,0-.15,0-.27-.06-.51,0-.48,0-.74A4.08,4.08,0,0,1,119.51,24.71Z"/><path id="Fill-9" class="cls-1" d="M133.48,13.68V16a3.69,3.69,0,0,0-.56,0q-2.76,0-2.76,3v5.56H127.7V13.76H130v1.49a3.34,3.34,0,0,1,3.16-1.59Z"/><path id="Fill-11" class="cls-1" d="M142.81,18.92a3.32,3.32,0,0,0-.82-2.33,2.77,2.77,0,0,0-2.17-.91,2.74,2.74,0,0,0-2.14.91,3.32,3.32,0,0,0-.83,2.33,3.35,3.35,0,0,0,.83,2.32,2.75,2.75,0,0,0,2.14.92,2.78,2.78,0,0,0,2.17-.92,3.34,3.34,0,0,0,.82-2.32m.09-3.63V13.76h2.26V24a4.93,4.93,0,0,1-1.35,3.58,5.8,5.8,0,0,1-7.21.26,4.28,4.28,0,0,1-1.46-2.6h2.46a2.26,2.26,0,0,0,2.49,1.63,2.6,2.6,0,0,0,1.93-.69,2.51,2.51,0,0,0,.69-1.85V22.67a3.73,3.73,0,0,1-3.38,1.65,4.5,4.5,0,0,1-3.58-1.56,5.64,5.64,0,0,1-1.35-3.84,5.67,5.67,0,0,1,1.35-3.85,4.49,4.49,0,0,1,3.58-1.55,3.92,3.92,0,0,1,3.57,1.77"/><path id="Fill-13" class="cls-1" d="M152.12,15.52a2.73,2.73,0,0,0-1.91.68,2.93,2.93,0,0,0-1,1.81H155A2.89,2.89,0,0,0,154,16.2,2.69,2.69,0,0,0,152.12,15.52Zm5.24,4.31h-8.14a3.16,3.16,0,0,0,.93,2,2.84,2.84,0,0,0,2.06.75,2.91,2.91,0,0,0,1.52-.41,2.29,2.29,0,0,0,1-1.12h2.48a5,5,0,0,1-1.85,2.63,5.17,5.17,0,0,1-3.18,1,5,5,0,0,1-3.87-1.59,5.66,5.66,0,0,1-1.48-4,5.67,5.67,0,0,1,1.49-4,5.4,5.4,0,0,1,7.64,0,5.63,5.63,0,0,1,1.45,4Z"/><path id="Fill-15" class="cls-1" d="M99.2,21.6a4.65,4.65,0,0,1-2.86.87A4.36,4.36,0,0,1,92.89,21a5.63,5.63,0,0,1-1.26-3.85,5.58,5.58,0,0,1,1.26-3.83,4.38,4.38,0,0,1,3.45-1.42,4.65,4.65,0,0,1,2.86.87,4,4,0,0,1,1.4,1.91l2.3-1.24A6.27,6.27,0,0,0,101,11.07a7.28,7.28,0,0,0-4.7-1.54A7.07,7.07,0,0,0,91,11.67,7.62,7.62,0,0,0,89,17.19,7.66,7.66,0,0,0,91,22.74a7.07,7.07,0,0,0,5.3,2.14,7.34,7.34,0,0,0,4.7-1.54,6.24,6.24,0,0,0,1.73-2.13L100.48,20A3.94,3.94,0,0,1,99.2,21.6"/><g id="Group-21"><path id="Fill-17" class="cls-2" d="M40.3,8.41l-7.57,3.95,2.3,1.3L42.2,9.41Zm7.53,3.94-3.32-1.74-7.27,4.31,3,1.73ZM39.6,17.83,36.55,16.1v3.12L34.34,18V14.85L32,13.53v9l7.59,4.27Zm9,4.7v-9L41,17.83v9.06Zm-18-10.63,9.67-5L50,11.92V23.33l-9.6,5.5-9.73-5.47Z"/><path id="Fill-19" class="cls-2" d="M49.89,2.84,49,.67,50.41.08l2.3,5.52-5.8.49c0-.51-.08-1-.13-1.54l2.49-.21A15.09,15.09,0,0,0,42.4,1.7,15.72,15.72,0,0,0,30.17,5.13,16.11,16.11,0,1,0,51.44,29.28l1.06,1.1a17.64,17.64,0,0,1-27.2-22A17.12,17.12,0,0,1,36.43.45,17.46,17.46,0,0,1,49.89,2.84"/></g></g></g></g></svg>