<svg width="160" height="50" xmlns="http://www.w3.org/2000/svg" xmlns:svg="http://www.w3.org/2000/svg" xmlns:se="http://svg-edit.googlecode.com">
 <defs>
  <style>.cls-1{fill:#424242;}.cls-1,.cls-2{fill-rule:evenodd;}.cls-2{fill:#53bad3;}</style>
 </defs>
 <title>recharge-logo_cropped</title>
 <g class="layer">
  <title>Layer 1</title>
  <g id="Page-1">
   <g id="horizontal">
    <g data-name="recharge-horiz-full color" id="recharge-horiz-full_color">
     <path class="cls-1" d="m60.31122,22.87733a2.4313,2.4313 0 0 0 0.66308,-1.79149a2.4662,2.4662 0 0 0 -0.66308,-1.80312a2.75703,2.75703 0 0 0 -2.00088,-0.67472l-4.65321,0l0,4.94404l4.65321,0a2.69886,2.69886 0 0 0 2.00088,-0.67472zm4.16462,10.0742l-3.39684,0l-3.48991,-6.71226l-3.88543,0l0,6.71226l-2.85009,0l0,-17.03075l7.48004,0a5.71182,5.71182 0 0 1 4.15299,1.3727a4.99057,4.99057 0 0 1 1.4425,3.74583a5.35119,5.35119 0 0 1 -0.83758,3.01295a4.52525,4.52525 0 0 1 -2.5011,1.77985l3.88543,7.11941z" id="Fill-1"/>
     <path class="cls-1" d="m71.00197,22.55161a3.15255,3.15255 0 0 0 -2.22191,0.79105a3.40848,3.40848 0 0 0 -1.1633,2.10558l6.61919,0a3.36195,3.36195 0 0 0 -1.05861,-2.10558a3.12928,3.12928 0 0 0 -2.17538,-0.79105zm6.09571,5.01383l-9.46928,0a3.7342,3.7342 0 0 0 1.07024,2.32661a3.35031,3.35031 0 0 0 2.40804,0.87248a3.38521,3.38521 0 0 0 1.76822,-0.47695a2.66396,2.66396 0 0 0 1.1633,-1.3029l2.88499,0a5.81651,5.81651 0 0 1 -2.15211,3.05949a6.02591,6.02591 0 0 1 -3.71094,1.1633a5.81651,5.81651 0 0 1 -4.49035,-1.84965a6.53776,6.53776 0 0 1 -1.72169,-4.65321a6.59593,6.59593 0 0 1 1.73332,-4.65321a6.28184,6.28184 0 0 1 8.88763,0a6.54939,6.54939 0 0 1 1.68679,4.65321l-0.05817,0.86084z" id="Fill-3"/>
     <path class="cls-1" d="m99.61922,14.96688l0,6.88675a4.05993,4.05993 0 0 1 3.61787,-1.62862a4.38565,4.38565 0 0 1 3.45501,1.3378a5.1418,5.1418 0 0 1 1.1633,3.57134l0,7.81739l-2.85009,0l0,-7.45677a3.21072,3.21072 0 0 0 -0.61655,-2.07068a2.25681,2.25681 0 0 0 -1.86128,-0.75615a2.79193,2.79193 0 0 0 -2.14048,0.81431a3.15255,3.15255 0 0 0 -0.77941,2.32661l0,7.18921l-2.86172,0l0,-18.03119l2.87336,0z" id="Fill-5"/>
     <path class="cls-1" d="m118.32513,27.12339l-3.30378,0.51185c-1.55883,0.23266 -2.32661,0.82594 -2.32661,1.75659s0.74451,1.61699 2.21028,1.61699a3.48991,3.48991 0 0 0 2.54763,-0.87248a3.05949,3.05949 0 0 0 0.88411,-2.22191l-0.01163,-0.79105zm-4.00176,6.11897a4.65321,4.65321 0 0 1 -3.29215,-1.02371a3.64114,3.64114 0 0 1 -1.08187,-2.74539c0,-2.15211 1.59372,-3.48991 4.78117,-3.92033l3.59461,-0.51185l0,-0.18613c0,-1.52393 -0.88411,-2.32661 -2.66396,-2.32661c-1.54719,0 -2.4313,0.61655 -2.6407,1.83802l-2.83846,0a4.53688,4.53688 0 0 1 1.52393,-3.00132a7.23574,7.23574 0 0 1 7.99189,0a4.39728,4.39728 0 0 1 1.34943,3.43174l0,5.72345a6.02591,6.02591 0 0 0 0.36062,2.32661l-2.7105,0s0,-0.05817 0,-0.1745s0,-0.31409 -0.0698,-0.59328s0,-0.55839 0,-0.86084a4.74628,4.74628 0 0 1 -4.36239,2.02415l0.05817,0z" id="Fill-7"/>
     <path class="cls-1" d="m130.51654,20.41113l0,2.69886a4.29259,4.29259 0 0 0 -0.65145,0q-3.21072,0 -3.21072,3.48991l0,6.46796l-2.86172,0l0,-12.56367l2.6756,0l0,1.73332a3.88543,3.88543 0 0 1 3.67604,-1.84965l0.37226,0.02327z" id="Fill-9"/>
     <path class="cls-1" d="m141.37015,26.50684a3.86217,3.86217 0 0 0 -0.95391,-2.7105a3.22235,3.22235 0 0 0 -2.52437,-1.05861a3.18745,3.18745 0 0 0 -2.48947,1.05861a3.86217,3.86217 0 0 0 -0.96554,2.7105a3.89706,3.89706 0 0 0 0.96554,2.69886a3.19908,3.19908 0 0 0 2.48947,1.07024a3.23398,3.23398 0 0 0 2.52437,-1.07024a3.88543,3.88543 0 0 0 0.95391,-2.69886m0.1047,-4.22279l0,-1.77985l2.62906,0l0,11.91222a5.73508,5.73508 0 0 1 -1.57046,4.16462a6.74716,6.74716 0 0 1 -8.38741,0.30246a4.97894,4.97894 0 0 1 -1.69842,-3.02459l2.86172,0a2.62906,2.62906 0 0 0 2.89662,1.89618a3.02459,3.02459 0 0 0 2.24517,-0.80268a2.91989,2.91989 0 0 0 0.80268,-2.15211l0,-1.93108a4.33912,4.33912 0 0 1 -3.93196,1.91945a5.23486,5.23486 0 0 1 -4.16462,-1.81475a6.56103,6.56103 0 0 1 -1.57046,-4.46708a6.59593,6.59593 0 0 1 1.57046,-4.47872a5.22323,5.22323 0 0 1 4.16462,-1.80312a4.56015,4.56015 0 0 1 4.15299,2.05905" id="Fill-11"/>
     <path class="cls-1" d="m152.2005,22.55161a3.17582,3.17582 0 0 0 -2.22191,0.79105a3.40848,3.40848 0 0 0 -1.1633,2.10558l6.73552,0a3.36195,3.36195 0 0 0 -1.1633,-2.10558a3.12928,3.12928 0 0 0 -2.18701,-0.79105zm6.09571,5.01383l-9.46928,0a3.67604,3.67604 0 0 0 1.08187,2.32661a3.30378,3.30378 0 0 0 2.3964,0.87248a3.38521,3.38521 0 0 0 1.76822,-0.47695a2.66396,2.66396 0 0 0 1.1633,-1.3029l2.88499,0a5.81651,5.81651 0 0 1 -2.15211,3.05949a6.01428,6.01428 0 0 1 -3.6993,1.1633a5.81651,5.81651 0 0 1 -4.50198,-1.84965a6.58429,6.58429 0 0 1 -1.72169,-4.65321a6.59593,6.59593 0 0 1 1.73332,-4.65321a6.28184,6.28184 0 0 1 8.88763,0a6.54939,6.54939 0 0 1 1.68679,4.65321l-0.05817,0.86084z" id="Fill-13"/>
     <path class="cls-1" d="m90.63852,29.62449a5.40936,5.40936 0 0 1 -3.32705,1.01207a5.072,5.072 0 0 1 -4.01339,-1.71006a6.54939,6.54939 0 0 1 -1.46576,-4.47872a6.49123,6.49123 0 0 1 1.46576,-4.45545a5.09527,5.09527 0 0 1 4.01339,-1.65189a5.40936,5.40936 0 0 1 3.32705,1.01207a4.65321,4.65321 0 0 1 1.62862,2.22191l2.6756,-1.4425a7.29391,7.29391 0 0 0 -2.21028,-2.75703a8.46884,8.46884 0 0 0 -5.46752,-1.79149a8.22455,8.22455 0 0 0 -6.1655,2.48947a8.86437,8.86437 0 0 0 -2.32661,6.42143a8.9109,8.9109 0 0 0 2.32661,6.45633a8.22455,8.22455 0 0 0 6.1655,2.48947a8.53864,8.53864 0 0 0 5.46752,-1.79149a7.25901,7.25901 0 0 0 2.01251,-2.47783l-2.61743,-1.4076a4.58341,4.58341 0 0 1 -1.48903,1.86128" id="Fill-15"/>
     <g id="Group-21">
      <path class="cls-2" d="m22.11999,14.28053l-8.8062,4.59505l2.6756,1.51229l8.34088,-4.94404l-2.21028,-1.1633zm8.75967,4.58341l-3.86217,-2.02415l-8.45721,5.01383l3.48991,2.01251l8.82947,-5.0022zm-9.57398,6.3749l-3.54807,-2.01251l0,3.6295l-2.5709,-1.41923l0,-3.6644l-2.72213,-1.53556l0,10.46973l8.82947,4.9673l0.01163,-10.43483zm10.46973,5.46752l0,-10.46973l-8.8411,5.0022l0,10.53952l8.8411,-5.072zm-20.93945,-12.36591l11.24914,-5.81651l11.31894,5.83978l0,13.27328l-11.16771,6.39817l-11.31894,-6.36327l-0.08143,-13.33145z" id="Fill-17"/>
      <path class="cls-2" d="m33.27606,7.80093l-1.03534,-2.52437l1.64026,-0.68635l2.6756,6.42143l-6.74716,0.57002c0,-0.59328 -0.09306,-1.1633 -0.15123,-1.79149l2.89662,-0.24429a17.55424,17.55424 0 0 0 -7.99189,-3.07112a18.28712,18.28712 0 0 0 -14.22719,3.99013a18.74081,18.74081 0 1 0 24.74345,28.09376l1.2331,1.27963a20.52066,20.52066 0 0 1 -31.64184,-25.59266a19.91574,19.91574 0 0 1 12.94756,-9.22499a20.31127,20.31127 0 0 1 15.65806,2.78029" id="Fill-19"/>
     </g>
    </g>
   </g>
  </g>
 </g>
</svg>