<?xml version="1.0"?>
<svg width="160" height="50" xmlns="http://www.w3.org/2000/svg" xmlns:svg="http://www.w3.org/2000/svg">
 <g>
  <title>Layer 1</title>
  <g stroke="null" id="Layer_1_1_">
   <g stroke="null" id="svg_1">
    <g stroke="null" id="svg_2">
     <path stroke="null" id="svg_3" d="m24.26769,27.930132c-1.674361,-2.631139 -2.989931,-4.425098 -3.827111,-5.142681c4.425098,-1.076375 8.850195,-4.783889 8.850195,-10.883348c0,-7.415028 -5.142681,-11.002945 -13.155696,-11.002945l0,0l0,0c-7.175834,0 -11.361737,3.348723 -12.198918,9.208987l-3.587917,0l7.056237,5.979862l7.415028,-5.979862l-3.946709,0c0,0 0,-4.185903 5.262278,-4.185903c4.425098,0 5.979862,3.348723 5.979862,5.979862c0,3.946709 -2.15275,7.056237 -7.175834,7.056237l-11.122543,0l0,19.374752l7.056237,0l0,-14.590862l0,0c1.554764,0 2.989931,0.597986 5.62107,4.425098l6.338653,10.165765l7.893417,0l-6.458251,-10.404959z" fill="#723080"/>
    </g>
    <path stroke="null" id="svg_4" d="m124.848963,38.335091l0,-35.281184l6.577848,0l0,35.161586l-6.577848,0.119597l0,0z" fill="#723080"/>
    <path stroke="null" id="svg_5" d="m43.881636,33.790396c3.229125,0 5.142681,-1.076375 6.338653,-1.674361l2.15275,4.185903c-1.554764,0.837181 -4.066306,2.272347 -8.969792,2.272347c-8.013015,0 -12.557709,-5.142681 -12.557709,-12.677307s5.262278,-12.438112 11.840126,-12.438112c7.534626,0 11.122543,5.381875 10.404959,14.232071l-15.428043,0c0.358792,3.707514 2.15275,6.099459 6.219056,6.099459zm2.750736,-10.644154c0,-2.750736 -1.076375,-4.903487 -4.066306,-4.903487c-2.750736,0 -4.3055,1.674361 -4.783889,4.903487l8.850195,0z" fill="#723080"/>
    <path stroke="null" id="svg_6" d="m68.279472,38.693883c-7.654223,0 -12.438112,-5.142681 -12.438112,-12.557709c0,-8.132612 5.381875,-12.557709 12.557709,-12.557709c3.946709,0 6.219056,1.195972 7.415028,1.913556l-2.15275,4.3055c-1.076375,-0.717583 -2.631139,-1.435167 -5.023084,-1.435167c-3.827111,0 -5.860264,3.229125 -5.860264,7.654223s1.913556,7.893417 5.979862,7.893417c2.750736,0 4.3055,-1.076375 5.023084,-1.554764l2.033153,4.185903c-1.076375,0.597986 -3.109528,2.15275 -7.534626,2.15275z" fill="#723080"/>
    <path stroke="null" id="svg_7" d="m85.979862,14.296047l0,14.830057c0,2.391945 0.837181,3.707514 3.229125,3.707514c2.511542,0 4.425098,-2.391945 4.903487,-2.989931l0,-15.54764l6.577848,0l0,17.102404c0,2.989931 0.358792,5.501473 0.597986,6.936639l-6.458251,0c-0.239194,-0.597986 -0.478389,-2.272347 -0.478389,-3.229125c-1.31557,1.674361 -3.707514,3.827111 -7.77382,3.827111c-5.262278,0 -7.175834,-3.348723 -7.175834,-7.77382l0,-16.86321l6.577848,0z" fill="#723080"/>
    <path stroke="null" id="svg_8" d="m119.706282,20.036715c-0.358792,-0.239194 -1.076375,-0.597986 -2.511542,-0.597986c-2.870334,0 -4.664292,2.631139 -5.262278,3.707514l0,15.188849l-6.577848,0l0,-24.039044l6.577848,0l0,3.229125c1.076375,-1.793958 2.989931,-3.827111 6.099459,-3.827111c1.793958,0 2.750736,0.358792 3.229125,0.597986l-1.554764,5.740667z" fill="#723080"/>
    <path stroke="null" id="svg_9" d="m152.356326,14.296047l-4.664292,15.786835l-5.62107,-15.786835l-7.175834,0l9.208987,22.125488c-1.554764,5.979862 -3.109528,7.77382 -6.577848,7.77382c-1.435167,0 -2.272347,-0.239194 -2.631139,-0.358792l-0.837181,4.664292c0.478389,0.119597 1.913556,0.597986 3.946709,0.597986c6.697445,0 9.687376,-4.425098 11.840126,-10.285362l7.415028,-18.537571l2.391945,-6.099459l-7.295431,0.119597z" fill="#723080"/>
   </g>
  </g>
 </g>
</svg>