<svg width="160" height="50" xmlns="http://www.w3.org/2000/svg" xmlns:svg="http://www.w3.org/2000/svg">
 <g>
  <title>Layer 1</title>
  <g stroke="null" id="svg_1">
   <g stroke="null" id="svg_2">
    <g stroke="null" id="svg_3">
     <path stroke="null" id="svg_4" d="m70.84461,9.42489l7.00333,0l-3.72052,-5.98201l-6.78448,10.7968l-3.13691,0l8.2435,-12.98534c0.36476,-0.51066 0.94837,-0.87542 1.60493,-0.87542c0.65656,0 1.24017,0.29181 1.60493,0.80246l8.31645,12.98534l-3.13691,0l-1.45903,-2.40739l-7.07628,0l-1.45903,-2.33444" fill="#E42313"/>
     <path stroke="null" id="svg_5" d="m103.01615,11.83228l0,-11.30746l-2.62625,0l0,12.40173c0,0.36476 0.1459,0.65656 0.36476,0.87542c0.21885,0.21885 0.58361,0.36476 0.94837,0.36476l11.96402,0l1.53198,-2.40739l-12.18288,0" fill="#E42313"/>
     <path stroke="null" id="svg_6" d="m59.53715,9.78964c2.5533,0 4.59594,-2.04264 4.59594,-4.59594c0,-2.5533 -2.04264,-4.59594 -4.59594,-4.59594l-11.52631,0l0,13.6419l2.62625,0l0,-11.30746l8.68121,0c1.24017,0 2.18854,1.02132 2.18854,2.18854c0,1.24017 -1.02132,2.18854 -2.18854,2.18854l-7.44104,0l7.87875,6.85743l3.79347,0l-5.2525,-4.45003l1.24017,0.07295" fill="#E42313"/>
     <path stroke="null" id="svg_7" d="m31.81563,14.23968c-3.79347,0 -6.85743,-3.06396 -6.85743,-6.85743c0,-3.79347 3.06396,-6.85743 6.85743,-6.85743l7.9517,0c3.79347,0 6.85743,3.06396 6.85743,6.85743c0,3.79347 -3.06396,6.85743 -6.85743,6.85743l-7.9517,0m7.80579,-2.40739c2.48035,0 4.45003,-1.96969 4.45003,-4.45003c0,-2.48035 -1.96969,-4.45003 -4.45003,-4.45003l-7.58694,0c-2.48035,0 -4.45003,1.96969 -4.45003,4.45003c0,2.40739 1.96969,4.45003 4.45003,4.45003l7.58694,0" fill="#E42313"/>
     <path stroke="null" id="svg_8" d="m89.52015,14.23968c-3.79347,0 -6.85743,-3.06396 -6.85743,-6.85743c0,-3.79347 3.06396,-6.85743 6.85743,-6.85743l9.41072,0l-1.53198,2.40739l-7.73284,0c-2.48035,0 -4.45003,1.96969 -4.45003,4.45003c0,2.40739 1.96969,4.45003 4.45003,4.45003l9.48368,0l-1.53198,2.40739l-8.0976,0" fill="#E42313"/>
     <path stroke="null" id="svg_9" d="m121.6917,11.83228c-2.04264,0 -3.72052,-1.38608 -4.23118,-3.20986l11.23451,0l1.53198,-2.40739l-12.76649,0c0.51066,-1.89674 2.26149,-3.20986 4.23118,-3.20986l7.73284,0l1.53198,-2.40739l-9.41072,0c-3.79347,0 -6.85743,3.06396 -6.85743,6.85743c0,3.79347 3.06396,6.85743 6.85743,6.85743l8.0976,0l1.53198,-2.40739l-9.48368,-0.07295" fill="#E42313"/>
     <path stroke="null" id="svg_10" d="m132.3426,1.98385c0,-0.65656 0.51066,-1.24017 1.24017,-1.24017c0.65656,0 1.24017,0.51066 1.24017,1.24017c0,0.65656 -0.51066,1.24017 -1.24017,1.24017c-0.72951,0 -1.24017,-0.58361 -1.24017,-1.24017m1.16722,1.53198c0.87542,0 1.53198,-0.65656 1.53198,-1.53198c0,-0.87542 -0.65656,-1.53198 -1.53198,-1.53198c-0.87542,0 -1.53198,0.72951 -1.53198,1.53198c0,0.87542 0.72951,1.53198 1.53198,1.53198m-0.1459,-2.40739c0.21885,0 0.36476,0 0.43771,0.07295c0.29181,0.07295 0.29181,0.36476 0.29181,0.51066c0,0 0,0.07295 0,0.1459c0,0.07295 -0.07295,0.21885 -0.21885,0.29181c0,0 0,0 -0.07295,0.07295l0.36476,0.72951l-0.36476,0l-0.36476,-0.65656l-0.1459,0l0,0.65656l-0.36476,0l0,-1.75083l0.43771,-0.07295m0.1459,0.80246c0.07295,0 0.21885,0 0.29181,-0.07295c0.07295,-0.07295 0.07295,-0.07295 0.07295,-0.1459c0,-0.07295 -0.07295,-0.1459 -0.1459,-0.21885c-0.07295,0 -0.1459,0 -0.29181,0l-0.1459,0l0,0.51066l0.21885,0" fill="#E42313"/>
    </g>
   </g>
   <g stroke="null" id="svg_11">
    <g stroke="null" id="svg_12">
     <g stroke="null" id="svg_13">
      <path stroke="null" id="svg_14" d="m29.40824,34.88491l3.20986,0l0,2.26149c0.65656,-1.53198 1.67788,-2.5533 3.57462,-2.48035l0,3.35576l-0.1459,0c-2.11559,0 -3.42871,1.31312 -3.42871,3.93937l0,4.15823l-3.20986,0l0,-11.23451z"/>
      <path stroke="null" id="svg_15" d="m36.41157,40.64807l0,0c0,-3.28281 2.26149,-5.90906 5.5443,-5.90906c3.79347,0 5.47135,2.91805 5.47135,6.12791c0,0.21885 0,0.58361 -0.07295,0.87542l-7.80579,0c0.29181,1.45903 1.31312,2.18854 2.77215,2.18854c1.09427,0 1.82378,-0.36476 2.6992,-1.16722l1.82378,1.60493c-1.02132,1.31312 -2.5533,2.11559 -4.59594,2.11559c-3.35576,0 -5.83611,-2.33444 -5.83611,-5.83611zm7.9517,-0.94837c-0.21885,-1.45903 -1.02132,-2.40739 -2.40739,-2.40739c-1.31312,0 -2.18854,0.94837 -2.40739,2.40739l4.81479,0z"/>
      <path stroke="null" id="svg_16" d="m49.54281,42.5448c0.87542,0.87542 1.96969,1.53198 3.20986,1.53198c0.80246,0 1.96969,-0.21885 1.96969,-1.09427c0,-0.36476 -0.21885,-0.51066 -0.43771,-0.65656c-0.51066,-0.21885 -1.24017,-0.29181 -1.89674,-0.43771c-0.51066,-0.07295 -1.02132,-0.21885 -1.45903,-0.36476c-0.65656,-0.21885 -1.31312,-0.43771 -1.82378,-0.94837c-0.51066,-0.51066 -0.80246,-1.24017 -0.80246,-2.04264c0,-1.82378 1.53198,-3.64757 4.59594,-3.64757c2.5533,0 4.15823,1.09427 4.88774,1.60493l-1.96969,1.82378c-1.02132,-0.80246 -1.96969,-1.09427 -2.77215,-1.09427c-1.24017,0 -1.53198,0.51066 -1.53198,0.80246c0,0.65656 0.65656,0.72951 1.75083,0.94837c2.18854,0.36476 4.74184,1.02132 4.74184,3.57462c0,2.5533 -2.62625,3.86642 -5.17955,3.86642c-3.06396,0 -4.59594,-1.45903 -5.32545,-2.11559l2.04264,-1.75083z"/>
      <path stroke="null" id="svg_17" d="m58.88059,34.95786l3.20986,0l0,1.60493c0.80246,-1.02132 1.82378,-1.82378 3.50166,-1.82378c2.62625,0 5.10659,2.04264 5.10659,5.83611l0,0.07295c0,3.72052 -2.48035,5.83611 -5.10659,5.83611c-1.67788,0 -2.77215,-0.80246 -3.50166,-1.67788l0,4.81479l-3.20986,0l0,-14.66322zm8.60826,5.69021l0,0c0,-1.89674 -1.24017,-3.13691 -2.77215,-3.13691c-1.45903,0 -2.6992,1.24017 -2.6992,3.13691l0,0.07295c0,1.89674 1.24017,3.13691 2.6992,3.13691c1.53198,-0.1459 2.77215,-1.31312 2.77215,-3.20986z"/>
      <path stroke="null" id="svg_18" d="m71.50117,40.64807l0,0c0,-3.28281 2.62625,-5.90906 6.12791,-5.90906c3.50166,0 6.05496,2.5533 6.05496,5.83611l0,0.07295c0,3.20986 -2.62625,5.83611 -6.12791,5.83611c-3.50166,0 -6.05496,-2.5533 -6.05496,-5.83611zm8.97302,0l0,0c0,-1.67788 -1.16722,-3.13691 -2.99101,-3.13691c-1.82378,0 -2.91805,1.38608 -2.91805,3.06396l0,0.07295c0,1.67788 1.16722,3.13691 2.99101,3.13691c1.82378,-0.07295 2.91805,-1.45903 2.91805,-3.13691z"/>
      <path stroke="null" id="svg_19" d="m84.48651,34.95786l3.20986,0l0,1.60493c0.72951,-0.94837 1.67788,-1.82378 3.28281,-1.82378c2.40739,0 3.79347,1.60493 3.79347,4.15823l0,7.29514l-3.20986,0l0,-6.27382c0,-1.53198 -0.72951,-2.26149 -1.89674,-2.26149c-1.24017,0 -1.96969,0.80246 -1.96969,2.26149l0,6.27382l-3.20986,0l0,-11.23451l0,0z"/>
      <path stroke="null" id="svg_20" d="m97.61775,42.5448c0.87542,0.87542 1.96969,1.53198 3.20986,1.53198c0.80246,0 1.96969,-0.21885 1.96969,-1.09427c0,-0.36476 -0.21885,-0.51066 -0.43771,-0.65656c-0.51066,-0.21885 -1.24017,-0.29181 -1.89674,-0.43771c-0.51066,-0.07295 -1.02132,-0.21885 -1.45903,-0.36476c-0.65656,-0.21885 -1.31312,-0.43771 -1.82378,-0.94837c-0.51066,-0.51066 -0.80246,-1.24017 -0.80246,-2.04264c0,-1.82378 1.53198,-3.64757 4.59594,-3.64757c2.5533,0 4.15823,1.09427 4.88774,1.60493l-1.96969,1.82378c-1.02132,-0.80246 -1.96969,-1.09427 -2.77215,-1.09427c-1.24017,0 -1.53198,0.51066 -1.53198,0.80246c0,0.65656 0.72951,0.72951 1.75083,0.94837c2.18854,0.36476 4.74184,1.02132 4.74184,3.57462c0,2.5533 -2.62625,3.86642 -5.17955,3.86642c-3.06396,0 -4.59594,-1.45903 -5.32545,-2.11559l2.04264,-1.75083z"/>
      <path stroke="null" id="svg_21" d="m106.80962,48.89157l1.09427,-2.33444c0.43771,0.21885 0.94837,0.43771 1.38608,0.43771c0.51066,0 0.80246,-0.1459 1.09427,-0.72951l-4.37708,-11.30746l3.35576,0l2.5533,7.65989l2.48035,-7.65989l3.28281,0l-4.30413,11.52631c-0.87542,2.26149 -1.82378,3.13691 -3.72052,3.13691c-1.16722,0 -2.04264,-0.29181 -2.8451,-0.72951z"/>
      <path stroke="null" id="svg_22" d="m118.70069,42.5448c0.87542,0.87542 1.96969,1.53198 3.20986,1.53198c0.80246,0 1.96969,-0.21885 1.96969,-1.09427c0,-0.36476 -0.21885,-0.51066 -0.43771,-0.65656c-0.51066,-0.21885 -1.24017,-0.29181 -1.89674,-0.43771c-0.51066,-0.07295 -1.02132,-0.21885 -1.45903,-0.36476c-0.65656,-0.21885 -1.31312,-0.43771 -1.82378,-0.94837c-0.51066,-0.51066 -0.80246,-1.24017 -0.80246,-2.04264c0,-1.82378 1.53198,-3.64757 4.59594,-3.64757c2.5533,0 4.15823,1.09427 4.88774,1.60493l-1.96969,1.82378c-1.02132,-0.80246 -1.96969,-1.09427 -2.77215,-1.09427c-1.24017,0 -1.53198,0.51066 -1.53198,0.80246c0,0.65656 0.65656,0.72951 1.75083,0.94837c2.18854,0.36476 4.74184,1.02132 4.74184,3.57462c0,2.5533 -2.62625,3.86642 -5.17955,3.86642c-3.06396,0 -4.59594,-1.45903 -5.32545,-2.11559l2.04264,-1.75083z"/>
     </g>
    </g>
    <g stroke="null" id="svg_23">
     <g stroke="null" id="svg_24">
      <g stroke="null" id="svg_25">
       <path stroke="null" id="svg_26" d="m128.76798,35.76033l0.51066,0c0.21885,0 0.36476,0 0.51066,0.1459c0.07295,0.07295 0.1459,0.21885 0.1459,0.36476c0,0.29181 -0.21885,0.36476 -0.29181,0.43771l0.36476,0.65656l-0.36476,0l-0.29181,-0.58361l-0.29181,0l0,0.58361l-0.29181,0l0,-1.60493l0,0zm0.29181,0.29181l0,0.51066l0.07295,0c0.07295,0 0.1459,0 0.21885,0c0.07295,0 0.29181,0 0.29181,-0.21885c0,0 0,-0.1459 -0.1459,-0.21885c-0.07295,0 -0.1459,0 -0.29181,0c0,-0.07295 -0.1459,-0.07295 -0.1459,-0.07295z"/>
      </g>
     </g>
     <path stroke="null" id="svg_27" d="m130.66472,36.56279c0,0.72951 -0.65656,1.38608 -1.38608,1.38608c-0.72951,0 -1.38608,-0.65656 -1.38608,-1.38608c0,-0.72951 0.58361,-1.38608 1.38608,-1.38608c0.80246,0 1.38608,0.58361 1.38608,1.38608zm-1.38608,-1.16722c-0.65656,0 -1.16722,0.51066 -1.16722,1.16722s0.51066,1.16722 1.16722,1.16722c0.65656,0 1.16722,-0.51066 1.16722,-1.16722c0,-0.65656 -0.51066,-1.16722 -1.16722,-1.16722z"/>
    </g>
   </g>
   <rect stroke="null" id="svg_28" height="1.09427" width="107.8221" y="23.94221" x="26.12543"/>
  </g>
 </g>
</svg>