<svg width="160" height="50" xmlns="http://www.w3.org/2000/svg" xmlns:svg="http://www.w3.org/2000/svg">
 <g>
  <title>Layer 1</title>
  <g stroke="null" id="svg_1">
   <path stroke="null" id="svg_2" d="m58.77684,14.13971l-4.97418,0c-0.33161,0 -0.66322,0.24871 -0.82903,0.58032l-3.81354,12.93286c-0.0829,0.33161 -0.24871,0.33161 -0.33161,0l-3.89644,-12.93286c-0.0829,-0.33161 -0.49742,-0.58032 -0.82903,-0.58032l-4.97418,0c-0.33161,0 -0.49742,0.24871 -0.41451,0.58032l7.62707,20.39413c0.0829,0.33161 0.49742,0.58032 0.82903,0.58032l3.64773,0c0.33161,0 0.74613,-0.24871 0.82903,-0.58032l7.46127,-20.39413c0.16581,-0.33161 0,-0.58032 -0.33161,-0.58032z" fill="#005F9E"/>
   <path stroke="null" id="svg_3" d="m109.84507,14.72003c-0.0829,-0.33161 -0.49742,-0.58032 -0.82903,-0.58032l-3.64773,0c-0.33161,0 -0.74613,0.24871 -0.82903,0.58032l-7.46127,20.39413c-0.0829,0.33161 0.0829,0.58032 0.41451,0.58032l4.97418,0c0.33161,0 0.66322,-0.24871 0.82903,-0.58032l3.81354,-12.93286c0.0829,-0.33161 0.24871,-0.33161 0.33161,0l3.89644,12.93286c0.0829,0.33161 0.49742,0.58032 0.82903,0.58032l4.97418,0c0.33161,0 0.49742,-0.24871 0.41451,-0.58032l-7.70998,-20.39413z" fill="#005F9E"/>
   <path stroke="null" id="svg_4" d="m68.22778,14.13971l-4.64257,0c-0.33161,0 -0.66322,0.24871 -0.66322,0.66322l0,20.31123c0,0.33161 0.24871,0.66322 0.66322,0.66322l4.64257,0c0.33161,0 0.66322,-0.24871 0.66322,-0.66322l0,-20.31123c-0.0829,-0.33161 -0.33161,-0.66322 -0.66322,-0.66322z" fill="#005F9E"/>
   <path stroke="null" id="svg_5" d="m93.34738,14.13971l-4.64257,0c-0.33161,0 -0.66322,0.24871 -0.66322,0.66322l0,9.69965c0,0.33161 -0.16581,0.41451 -0.41451,0.16581l-7.87578,-10.03126c-0.24871,-0.24871 -0.66322,-0.49742 -0.99484,-0.49742l-3.39902,0c-0.33161,0 -0.66322,0.24871 -0.66322,0.66322l0,20.31123c0,0.33161 0.24871,0.66322 0.66322,0.66322l4.64257,0c0.33161,0 0.66322,-0.24871 0.66322,-0.66322l0,-9.36803c0,-0.33161 0.16581,-0.41451 0.41451,-0.16581l7.79288,9.61674c0.24871,0.24871 0.66322,0.49742 0.99484,0.49742l3.48192,0c0.33161,0 0.66322,-0.24871 0.66322,-0.66322l0,-20.22832c-0.0829,-0.33161 -0.33161,-0.66322 -0.66322,-0.66322z" fill="#005F9E"/>
   <path stroke="null" id="svg_6" d="m134.30144,14.13971l-17.07801,0c-0.33161,0 -0.66322,0.24871 -0.66322,0.66322l0,3.89644c0,0.33161 0.24871,0.66322 0.66322,0.66322l4.97418,0c0.33161,0 0.66322,0.24871 0.66322,0.66322l0,15.17124c0,0.33161 0.24871,0.66322 0.66322,0.66322l4.64257,0c0.33161,0 0.66322,-0.24871 0.66322,-0.66322l0,-15.25415c0,-0.33161 0.24871,-0.66322 0.66322,-0.66322l4.97418,0c0.33161,0 0.66322,-0.24871 0.66322,-0.66322l0,-3.81354c-0.24871,-0.33161 -0.49742,-0.66322 -0.82903,-0.66322z" fill="#005F9E"/>
   <path stroke="null" id="svg_7" d="m23.70889,19.2797l11.1919,0c0.33161,0 0.66322,-0.24871 0.66322,-0.66322l0,-3.81354c0,-0.33161 -0.24871,-0.66322 -0.66322,-0.66322l-11.1919,0c-0.33161,0 -0.66322,0.24871 -0.66322,0.66322l0,3.89644c0,0.33161 0.24871,0.58032 0.66322,0.58032z" fill="#005F9E"/>
   <path stroke="null" id="svg_8" d="m37.47078,30.5545l-13.76189,0c-0.33161,0 -0.66322,0.24871 -0.66322,0.66322l0,3.89644c0,0.33161 0.24871,0.66322 0.66322,0.66322l13.76189,0c0.33161,0 0.66322,-0.24871 0.66322,-0.66322l0,-3.89644c-0.0829,-0.41451 -0.33161,-0.66322 -0.66322,-0.66322z" fill="#005F9E"/>
   <path stroke="null" id="svg_9" d="m23.70889,27.48709l8.87062,0c0.33161,0 0.66322,-0.24871 0.66322,-0.66322l0,-3.89644c0,-0.33161 -0.24871,-0.66322 -0.66322,-0.66322l-8.87062,0c-0.33161,0 -0.66322,0.24871 -0.66322,0.66322l0,3.89644c0,0.41451 0.24871,0.66322 0.66322,0.66322z" fill="#005F9E"/>
   <path stroke="null" id="svg_10" d="m139.27562,19.2797l16.33188,0c0.33161,0 0.66322,-0.24871 0.66322,-0.66322l0,-3.81354c0,-0.33161 -0.24871,-0.66322 -0.66322,-0.66322l-16.33188,0c-0.33161,0 -0.66322,0.24871 -0.66322,0.66322l0,3.89644c0,0.33161 0.33161,0.58032 0.66322,0.58032z" fill="#005F9E"/>
   <path stroke="null" id="svg_11" d="m158.09459,30.5545l-18.90188,0c-0.33161,0 -0.66322,0.24871 -0.66322,0.66322l0,3.89644c0,0.33161 0.24871,0.66322 0.66322,0.66322l18.90188,0c0.33161,0 0.66322,-0.24871 0.66322,-0.66322l0,-3.89644c0,-0.41451 -0.24871,-0.66322 -0.66322,-0.66322z" fill="#005F9E"/>
   <path stroke="null" id="svg_12" d="m139.27562,27.48709l13.9277,0c0.33161,0 0.66322,-0.24871 0.66322,-0.66322l0,-3.89644c0,-0.33161 -0.24871,-0.66322 -0.66322,-0.66322l-13.9277,0c-0.33161,0 -0.66322,0.24871 -0.66322,0.66322l0,3.89644c0,0.41451 0.33161,0.66322 0.66322,0.66322z" fill="#005F9E"/>
   <path stroke="null" id="svg_13" d="m15.6673,28.31612c-0.16581,-0.33161 -0.0829,-0.74613 0.16581,-0.91193c0,0 1.24354,-1.16064 1.82387,-2.23838c0.58032,-1.07774 0.82903,-2.23838 0.82903,-3.48192c0,-0.91193 -0.16581,-1.82387 -0.58032,-2.7358c-0.33161,-0.91193 -0.82903,-1.74096 -1.49225,-2.40419c-0.66322,-0.66322 -1.40935,-1.24354 -2.32128,-1.74096c-0.91193,-0.41451 -2.32128,-0.58032 -2.32128,-0.58032c-0.33161,0 -0.91193,-0.0829 -1.24354,-0.0829l-8.62191,0c-0.33161,0 -0.66322,0.24871 -0.66322,0.66322l0,20.31123c0,0.33161 0.24871,0.66322 0.66322,0.66322l4.64257,0c0.33161,0 0.66322,-0.24871 0.66322,-0.66322l0,-5.38869c0,-0.33161 0.24871,-0.66322 0.66322,-0.66322l0.99484,0c0.33161,0 0.66322,0.16581 0.91193,0.49742l3.48192,5.5545c0.16581,0.33161 0.58032,0.49742 0.91193,0.49742l5.4716,0c0.33161,0 0.49742,-0.24871 0.33161,-0.49742l-4.31095,-6.79804zm-3.73063,-4.97418c-0.41451,0.58032 -1.32645,0.58032 -1.65806,0.58032l-2.48709,0c-0.33161,0 -0.66322,-0.24871 -0.66322,-0.66322l0,-3.39902c0,-0.33161 0.24871,-0.66322 0.66322,-0.66322l2.32128,0c0.33161,0 1.24354,0.0829 1.74096,0.58032c0.41451,0.41451 0.58032,0.99484 0.58032,1.74096c0,0.82903 -0.16581,1.40935 -0.49742,1.82387z" fill="#005F9E"/>
  </g>
 </g>
</svg>