<?xml version="1.0" encoding="utf-8"?>
<!-- Generator: Adobe Illustrator 23.0.4, SVG Export Plug-In . SVG Version: 6.00 Build 0)  -->
<svg version="1.1" id="Layer_1" xmlns="http://www.w3.org/2000/svg" xmlns:xlink="http://www.w3.org/1999/xlink" x="0px" y="0px"
	 viewBox="0 0 240 90" enable-background="new 0 0 240 90" xml:space="preserve">
<g>
	<path fill="#0073AE" d="M33.6,45.9l-1.3,7.7H25l3.8-21.9h10.5c1.4,0,2.7,0.1,4.1,0.3c1,0.1,1.9,0.4,2.8,0.9
		c0.6,0.3,1.2,0.8,1.5,1.5c0.3,0.6,0.5,1.4,0.5,2.1c0,0.5-0.1,1-0.2,1.5c-0.2,1.2-0.7,2.4-1.5,3.4c-0.8,1-1.9,1.7-3.2,2
		c0.4,0.2,0.8,0.3,1.2,0.5c0.3,0.2,0.7,0.4,0.9,0.7c0.3,0.3,0.5,0.6,0.6,1c0.2,0.5,0.2,1,0.2,1.5c0,0.7-0.1,1.5-0.2,2.2l-0.4,1.9
		c-0.1,0.4-0.1,0.8-0.1,1.2c0,0.5,0.2,0.7,0.6,0.7l-0.1,0.7h-7.4c0-0.2-0.1-0.5,0-0.7c0-0.4,0-0.8,0.1-1.3c0.1-0.5,0.1-1.1,0.3-1.8
		c0.1-0.6,0.2-1.1,0.2-1.7c0.1-0.6-0.2-1.3-0.7-1.6c-0.8-0.4-1.7-0.5-2.7-0.5C35.8,45.9,33.6,45.9,33.6,45.9z M34.5,41.1h2.9
		c0.9,0,1.8-0.1,2.7-0.5c0.6-0.3,1.1-0.9,1.1-1.6c0-0.2,0-0.3,0-0.5c0-0.6-0.2-1.1-0.7-1.4c-0.6-0.3-1.2-0.5-1.8-0.5h-3.4L34.5,41.1
		z M58.4,37.6h5.9l-0.4,2.5c0.8-0.9,1.7-1.6,2.7-2.2c1-0.5,2.1-0.8,3.2-0.7c1.4-0.1,2.9,0.3,4,1.2c0.9,1,1.3,2.3,1.2,3.6
		c0,0.7-0.1,1.3-0.2,2l-1.7,9.5h-6.4l1.5-8.4c0.1-0.3,0.1-0.7,0.1-1.1c0-0.5-0.1-1-0.4-1.4c-0.4-0.4-0.9-0.6-1.4-0.6
		c-0.8-0.1-1.6,0.3-2.2,0.9c-0.5,0.7-0.8,1.5-0.9,2.4L62,53.5h-6.4L58.4,37.6z M81,53.9L81,53.9c0,0.3,0.1,0.5,0.3,0.7
		c0.4,0.3,0.8,0.5,1.3,0.4c0.8,0.1,1.5-0.2,2.1-0.7c0.6-0.7,0.9-1.5,1-2.4l0.2-1.3c-0.6,0.5-1.3,0.9-2,1.2c-0.9,0.4-1.9,0.5-3,0.5
		c-0.9,0-1.7-0.1-2.5-0.5c-0.7-0.3-1.3-0.7-1.8-1.2c-0.5-0.5-0.9-1.2-1.1-1.9c-0.2-0.8-0.4-1.5-0.4-2.3c0-0.3,0-0.5,0-0.8l0.1-0.8
		c0.2-1,0.5-2,0.9-2.9c0.4-1,1-1.8,1.7-2.6c0.7-0.8,1.6-1.4,2.6-1.9c1.1-0.5,2.3-0.7,3.5-0.7c0.9,0,1.8,0.2,2.6,0.7
		c0.8,0.4,1.4,1.1,1.8,1.8l0.4-2.1h5.6L92.2,50c-0.2,1.1-0.4,2.2-0.8,3.3c-0.3,1-0.8,1.9-1.5,2.7c-0.8,0.8-1.8,1.4-2.9,1.8
		c-2.7,0.8-5.6,0.8-8.3,0.3c-0.8-0.2-1.6-0.5-2.3-1c-0.6-0.4-1-0.8-1.3-1.4c-0.3-0.5-0.4-1.1-0.4-1.6v-0.2L81,53.9L81,53.9z
		 M84.8,41.2c-0.4,0-0.8,0.1-1.2,0.3c-0.3,0.2-0.7,0.4-0.9,0.8c-0.3,0.4-0.5,0.8-0.6,1.2c-0.2,0.5-0.3,0.9-0.4,1.4
		c0,0.2,0,0.3,0,0.4l0,0.4c0,0.6,0.1,1.2,0.5,1.6c0.4,0.5,1,0.7,1.6,0.7h0.2c0.4,0,0.8-0.1,1.2-0.3c0.4-0.2,0.7-0.4,0.9-0.7
		c0.3-0.3,0.5-0.7,0.6-1.1c0.2-0.4,0.3-0.8,0.4-1.2c0.1-0.3,0.1-0.7,0.1-1c0-0.6-0.2-1.2-0.5-1.7C86.2,41.4,85.5,41.1,84.8,41.2
		L84.8,41.2L84.8,41.2z M47.3,53.5l3.6-12.9h4.6l-1.9,12.9C53.7,53.5,47.3,53.5,47.3,53.5z"/>
	<path fill="#FF8800" d="M109.4,40.2c0-0.1,0-0.1,0-0.2c0-0.1,0-0.1,0-0.2c0.1-0.8-0.2-1.6-0.8-2.2c-0.7-0.5-1.5-0.8-2.3-0.8
		c-1.2,0-2.4,0.6-3.1,1.5c-1,1.3-1.6,2.9-1.8,4.5c-0.1,0.4-0.1,0.8-0.2,1.1c0,0.3-0.1,0.7-0.1,1c0,0.5,0,0.9,0.2,1.4
		c0.1,0.4,0.3,0.8,0.6,1.1c0.3,0.3,0.6,0.6,1.1,0.8c0.5,0.2,1.1,0.3,1.6,0.3c1,0,2-0.3,2.7-1c0.7-0.7,1.2-1.6,1.5-2.5h6.6
		c-0.4,1.3-0.9,2.5-1.7,3.6c-0.7,1-1.6,1.9-2.6,2.7c-1,0.7-2.1,1.3-3.3,1.7c-2.6,0.8-5.3,0.8-7.9,0c-1.1-0.3-2.1-0.9-3-1.7
		c-0.8-0.7-1.4-1.6-1.8-2.7c-0.4-1.1-0.6-2.3-0.6-3.5c0-0.4,0-0.8,0.1-1.2c0-0.4,0.1-0.8,0.2-1.3c0.3-1.6,0.8-3.1,1.6-4.5
		c0.7-1.3,1.7-2.4,2.8-3.4c1.1-1,2.3-1.7,3.7-2.2c1.3-0.5,2.8-0.8,4.2-0.8c3,0,5.3,0.7,6.8,2c1.5,1.4,2.4,3.5,2.3,5.6v0.4
		c0,0.1,0,0.3,0,0.4L109.4,40.2L109.4,40.2z M122.6,46.5l0,0.3c0,0.1,0,0.2,0,0.3c0,0.7,0.3,1.4,0.8,1.8c0.5,0.5,1.2,0.7,1.9,0.7
		c0.5,0,1-0.1,1.5-0.4c0.5-0.2,0.9-0.6,1.2-1.1h6.1c-0.4,0.9-1,1.8-1.8,2.5c-0.7,0.7-1.5,1.2-2.4,1.6c-0.9,0.4-1.8,0.7-2.8,0.9
		c-0.9,0.2-1.9,0.2-2.9,0.2c-1.1,0-2.1-0.1-3.2-0.4c-0.9-0.2-1.8-0.7-2.5-1.3c-0.7-0.6-1.3-1.3-1.6-2.1c-0.4-0.9-0.6-1.9-0.6-2.8
		c0-0.3,0-0.5,0.1-0.8c0-0.3,0-0.5,0.1-0.8c0.2-1.3,0.7-2.5,1.3-3.5c0.6-1,1.5-2,2.4-2.7c1-0.7,2-1.3,3.2-1.7
		c1.2-0.4,2.4-0.6,3.7-0.6c1.2,0,2.3,0.2,3.4,0.6c0.9,0.3,1.8,0.8,2.5,1.5c0.7,0.7,1.2,1.5,1.5,2.4c0.4,1,0.5,2,0.5,3
		c0,0.8-0.1,1.6-0.3,2.3L122.6,46.5L122.6,46.5z M129,43.3c0-0.1,0-0.3,0-0.4c0-0.6-0.2-1.2-0.7-1.6c-0.4-0.4-1.1-0.7-1.7-0.7
		c-0.8,0-1.7,0.2-2.3,0.7c-0.6,0.5-1,1.2-1.2,2L129,43.3L129,43.3z M137.2,37.6h5.9l-0.4,2.5c0.8-0.9,1.7-1.6,2.7-2.2
		c1-0.5,2.1-0.8,3.2-0.7c1.4-0.1,2.9,0.3,4,1.2c0.9,1,1.4,2.3,1.3,3.6c0,0.7-0.1,1.3-0.2,2l-1.6,9.5h-6.4l1.5-8.4
		c0.1-0.3,0.1-0.7,0.1-1.1c0-0.5-0.1-1-0.4-1.4c-0.4-0.4-0.9-0.6-1.4-0.5c-0.8-0.1-1.6,0.3-2.2,0.9c-0.5,0.7-0.8,1.5-0.9,2.4
		l-1.4,8.1h-6.4L137.2,37.6z M163.8,53.4c-0.7,0.1-1.4,0.1-2,0.1c-0.6,0-1.2,0-1.7,0c-0.8,0-1.6,0-2.4-0.1c-0.5-0.1-1.1-0.2-1.6-0.5
		c-0.4-0.2-0.7-0.5-0.8-0.9c-0.2-0.5-0.3-1-0.2-1.5c0-0.4,0-0.8,0.1-1.2c0-0.5,0.1-1,0.2-1.5l1.2-6.6h-2.3l0.6-3.7h2.4l0.9-4.9h6.3
		l-0.9,5h3.1l-0.6,3.7H163l-1,5.8l-0.1,0.5c0,0.1,0,0.3,0,0.4c0,0.3,0.1,0.6,0.4,0.8c0.4,0.2,0.9,0.3,1.4,0.2h1L163.8,53.4z
		 M167.9,37.6h5.8l-0.6,3.2h0.1c1-2.2,3.2-3.7,5.6-3.7c0.1,0,0.3,0,0.4,0l0.4,0.1l-1.1,6.3c-0.2-0.1-0.4-0.1-0.6-0.1
		c-0.2,0-0.4-0.1-0.7-0.1c-1.1-0.1-2.3,0.3-3.1,1c-0.9,1-1.5,2.3-1.6,3.6l-0.9,5.5h-6.4L167.9,37.6z M188.3,53.5l0-2.2
		c-0.9,0.8-2,1.4-3.1,1.7c-1.1,0.3-2.2,0.5-3.3,0.4c-0.6,0-1.3-0.1-1.9-0.2c-0.6-0.1-1.1-0.4-1.6-0.7c-0.5-0.3-0.8-0.7-1.1-1.2
		c-0.3-0.5-0.4-1.1-0.4-1.7c0-0.3,0-0.6,0.1-0.9c0.1-1.1,0.6-2,1.3-2.8c0.7-0.7,1.5-1.2,2.4-1.5c0.9-0.4,1.9-0.6,2.9-0.7l2.8-0.4
		c0.7-0.1,1.5-0.2,2.2-0.5c0.5-0.1,1-0.5,1.1-1.1c0,0,0-0.1,0-0.1c0,0,0-0.1,0-0.1c0-0.2-0.1-0.4-0.2-0.6c-0.1-0.1-0.3-0.2-0.5-0.3
		c-0.2-0.1-0.4-0.1-0.6-0.2c-0.2,0-0.4,0-0.6,0c-0.2,0-0.5,0-0.7,0c-0.3,0-0.5,0.1-0.7,0.2c-0.2,0.1-0.5,0.3-0.6,0.5
		c-0.2,0.2-0.3,0.5-0.4,0.8h-6.2c0.1-0.8,0.4-1.6,0.9-2.3c0.5-0.7,1.1-1.3,1.8-1.7c0.9-0.5,1.9-0.9,2.9-1.1c1.4-0.3,2.7-0.4,4.1-0.4
		c1.2,0,2.4,0.1,3.6,0.3c0.8,0.1,1.5,0.4,2.2,0.8c0.5,0.3,0.9,0.8,1.1,1.3c0.2,0.5,0.3,1.1,0.3,1.7c0,0.4,0,0.8-0.1,1.2
		c0,0.4-0.1,0.8-0.2,1.3l-1.3,7.4c-0.1,0.3-0.1,0.6-0.1,0.9c0,0.2,0,0.4,0.1,0.6c0.1,0.2,0.3,0.4,0.5,0.6l0,0.8L188.3,53.5
		L188.3,53.5z M185.3,49.9c0.5,0,1-0.1,1.5-0.3c0.4-0.2,0.8-0.5,1.1-0.8c0.3-0.4,0.5-0.8,0.7-1.3c0.2-0.5,0.3-1,0.4-1.5
		c-0.6,0.2-1.2,0.4-1.8,0.5l-1.6,0.4c-0.5,0.1-0.9,0.3-1.3,0.6c-0.4,0.3-0.6,0.7-0.7,1.1v0.2c0,0.3,0.2,0.7,0.4,0.8
		C184.4,49.9,184.9,50,185.3,49.9L185.3,49.9z M196,53.5l3.8-21.9h6.4l-3.8,21.9L196,53.5L196,53.5z M57.9,34.8
		c0-0.1-0.1-0.1-0.1-0.2c-0.1-0.2-0.3-0.3-0.5-0.5c-0.7-0.6-1.5-0.9-2.3-1.1c-0.5-0.1-1-0.1-1.5-0.1c-0.7,0.1-1.3,0.3-1.9,0.7
		c0,0-0.1,0-0.1,0.1c-0.3,0.3-0.8,0.3-1.1,0c-0.3-0.3-0.3-0.8,0-1c0,0,0,0,0,0c0.8-0.7,1.8-1.1,2.9-1.2c0.6-0.1,1.3,0,1.9,0.1
		c1.6,0.2,3.1,1.1,4,2.5c0.2,0.4,0,0.8-0.3,1c0,0,0,0,0,0c-0.1,0-0.2,0.1-0.3,0.1C58.3,35.2,58,35.1,57.9,34.8L57.9,34.8z M56,36.5
		C56,36.5,56,36.5,56,36.5c-0.1-0.2-0.2-0.3-0.3-0.3c-0.4-0.3-0.8-0.5-1.3-0.6c-0.3-0.1-0.6-0.1-0.8,0c-0.4,0-0.7,0.2-1,0.4
		c0,0,0,0,0,0c-0.2,0.2-0.6,0.2-0.9,0c-0.2-0.2-0.2-0.6,0-0.9c0,0,0,0,0,0c0.5-0.4,1.1-0.7,1.8-0.8c0.4,0,0.8,0,1.2,0
		c1,0.1,2,0.7,2.5,1.6c0.1,0.3,0,0.7-0.3,0.8c-0.1,0-0.2,0.1-0.2,0.1C56.3,36.9,56.1,36.8,56,36.5L56,36.5z M55.5,38
		c0.1,0.9-0.5,1.8-1.4,1.9c-0.9,0.1-1.8-0.5-1.9-1.4s0.5-1.8,1.4-1.9c0.1,0,0.2,0,0.3,0C54.7,36.6,55.4,37.2,55.5,38
		C55.5,38,55.5,38,55.5,38 M208.1,34c0.2-0.4,0.5-0.8,0.8-1.1c1.1-1,2.6-1.3,3.9-0.8c0.4,0.2,0.8,0.4,1.1,0.8
		c0.3,0.3,0.6,0.7,0.8,1.1c0.2,0.4,0.3,0.9,0.3,1.4c0,0.5-0.1,1-0.3,1.4c-0.2,0.4-0.4,0.8-0.8,1.1c-0.3,0.3-0.7,0.6-1.1,0.8
		c-0.4,0.2-0.9,0.3-1.4,0.3c-0.5,0-0.9-0.1-1.4-0.3c-0.9-0.3-1.6-1-1.9-1.9c-0.2-0.4-0.3-0.9-0.3-1.4C207.8,35,207.9,34.5,208.1,34
		L208.1,34z M208.7,36.6c0.1,0.4,0.4,0.7,0.6,1c0.3,0.3,0.6,0.5,0.9,0.6c0.4,0.2,0.8,0.2,1.2,0.2c1.2,0,2.3-0.7,2.7-1.8
		c0.2-0.4,0.2-0.8,0.2-1.2c0-0.4-0.1-0.8-0.2-1.2c-0.1-0.4-0.4-0.7-0.6-0.9c-0.6-0.6-1.3-0.9-2.1-0.9c-0.4,0-0.8,0.1-1.2,0.2
		c-0.7,0.3-1.3,0.9-1.5,1.6c-0.2,0.4-0.2,0.8-0.2,1.2C208.4,35.8,208.5,36.3,208.7,36.6L208.7,36.6z M211.6,33.4
		c0.4,0,0.8,0.1,1.1,0.3c0.2,0.2,0.4,0.6,0.4,0.9c0,0.3-0.1,0.6-0.3,0.8c-0.2,0.2-0.5,0.3-0.8,0.3l1.2,1.8h-0.7l-1.1-1.8h-0.7v1.8
		H210v-4.1H211.6L211.6,33.4z M211.3,35.2h0.4c0.1,0,0.2,0,0.4-0.1c0.1,0,0.2-0.1,0.2-0.2c0.1-0.1,0.1-0.2,0.1-0.4
		c0-0.1,0-0.2-0.1-0.3c-0.1-0.1-0.1-0.2-0.2-0.2c-0.1,0-0.2-0.1-0.3-0.1c-0.1,0-0.2,0-0.4,0h-0.8v1.3L211.3,35.2L211.3,35.2z"/>
</g>
</svg>
