<svg xmlns="http://www.w3.org/2000/svg" viewBox="0 0 180 35.31"><defs><style>.cls-1{fill:#0296ce;}.cls-2{fill:#8ccd16;}</style></defs><title>sassoptics-logo_cropped</title><g id="Guidelines"><g id="rmDHYi.tif"><path class="cls-1" d="M9.35,33.89c-.69-.2-1.42-.27-2.1-.52A10.26,10.26,0,0,1,.15,25a10.16,10.16,0,0,1,4-10A10.61,10.61,0,0,1,8.89,12.9c.19,0,.33,0,.37-.31a12.37,12.37,0,0,1,3-6.58A12.61,12.61,0,0,1,23.2,1.47a12.78,12.78,0,0,1,11,7.72c.19.39.31.47.73.31a12.57,12.57,0,0,1,16.84,9.13,11.8,11.8,0,0,1-8.85,13.93,11.38,11.38,0,0,1-8.21-1.21c.2-.1.35,0,.51.1a10.71,10.71,0,0,0,12.2-2.72A10,10,0,0,0,44.54,13a9.37,9.37,0,0,0-9,.32A21.48,21.48,0,0,0,31.76,16c-.09.08-.16.2-.33.21A15.06,15.06,0,0,0,31.54,14a9.32,9.32,0,0,0-18.46-1.27,8.57,8.57,0,0,0,0,3.31c.06.31,0,.35-.31.35a20.11,20.11,0,0,0-3.2.12,6.89,6.89,0,0,0-5.66,7.08,6.92,6.92,0,0,0,6,6.32A10.55,10.55,0,0,0,11.4,30H23a3,3,0,0,0,2.86-1.8,2.18,2.18,0,0,0-.67-2.62,9.48,9.48,0,0,0-3.32-1.72,14.42,14.42,0,0,1-3.49-1.46,5.56,5.56,0,0,1-2.57-4.62,7.83,7.83,0,0,1,.22-2.41,5.15,5.15,0,0,1,4-3.88,15.18,15.18,0,0,1,8.55.35.42.42,0,0,1,.35.48c0,.9,0,1.79,0,2.69,0,.29-.06.33-.34.25a15.61,15.61,0,0,0-5.85-.44c-1.91.19-2.5,1.56-2.38,3.07a1.71,1.71,0,0,0,.78,1.13,9.74,9.74,0,0,0,2.42,1.35c.8.33,1.62.61,2.43.94a7.42,7.42,0,0,1,3.47,2.53,6.4,6.4,0,0,1-.56,7.94,7.7,7.7,0,0,1-4.16,1.82,16.52,16.52,0,0,1-3,.19c-.15,0-.32-.08-.45.07Z"/><path class="cls-2" d="M180,17.92c-.56,0-.56,0-.56-.52s0-1.13,0-1.7c0,0,0,0-.06-.09a2.81,2.81,0,0,0-.31.91c-.11.38-.23.76-.31,1.15-.05.21-.15.26-.35.27s-.27-.09-.31-.27c-.17-.68-.36-1.36-.58-2a4,4,0,0,0-.08,1.14q0,.4,0,.81c0,.25,0,.36-.32.36s-.29-.14-.28-.34V14.82c0-.15-.08-.4.2-.36s.65-.23.77.27c.18.75.4,1.48.63,2.33.21-.8.42-1.49.58-2.18.08-.35.23-.48.58-.43a2,2,0,0,0,.42,0Z"/><path class="cls-1" d="M104.14,30.38a16.84,16.84,0,0,1-4.48-.53c-.35-.1-.52-.24-.49-.64a16.26,16.26,0,0,0,0-1.71c0-.3,0-.37.37-.3a14.86,14.86,0,0,0,5.94.18,2,2,0,0,0,1.77-1.85,1.7,1.7,0,0,0-.82-1.58,9.17,9.17,0,0,0-2.89-1.34,6.14,6.14,0,0,1-3-1.69,4.66,4.66,0,0,1,2.64-7.66,11.68,11.68,0,0,1,6,.36.44.44,0,0,1,.38.51c0,.62,0,1.25,0,1.87,0,.27-.06.3-.32.23A11.6,11.6,0,0,0,104.6,16a1.91,1.91,0,0,0-1.69,2.22,1.34,1.34,0,0,0,.62.93,10.44,10.44,0,0,0,2.93,1.46A8.4,8.4,0,0,1,109.13,22a4.77,4.77,0,0,1,0,7.17,6.72,6.72,0,0,1-3.43,1.17A10.46,10.46,0,0,1,104.14,30.38Z"/><path class="cls-1" d="M63.84,30.38a14.91,14.91,0,0,1-4.3-.57c-.27-.08-.39-.19-.38-.49,0-.62,0-1.23,0-1.84,0-.28,0-.35.35-.27a15.23,15.23,0,0,0,5.9.18,2,2,0,0,0,1.82-1.82,1.69,1.69,0,0,0-.7-1.52,7.43,7.43,0,0,0-2.3-1.2A17.46,17.46,0,0,1,61.91,22a4.85,4.85,0,0,1-1.23-7.56,5,5,0,0,1,3-1.27,12.74,12.74,0,0,1,5.21.38c.44.12.64.29.6.78a11.5,11.5,0,0,0,0,1.66c0,.3-.08.31-.34.24A11.58,11.58,0,0,0,64.57,16a1.91,1.91,0,0,0-1.7,2.25,1,1,0,0,0,.36.66A5.11,5.11,0,0,0,65,20c.78.33,1.59.62,2.38.94a4.84,4.84,0,0,1,3.18,3.32,4.54,4.54,0,0,1-1.14,4.65,5.71,5.71,0,0,1-3.18,1.34A14.22,14.22,0,0,1,63.84,30.38Z"/><path class="cls-1" d="M83.83,25.35V30c0,.23,0,.37-.31.37-2.16-.05-4.34.09-6.5-.09A4.77,4.77,0,0,1,73.81,29a3.56,3.56,0,0,1,.57-5.27,7.64,7.64,0,0,1,3.44-1.08c.75-.09,1.5-.12,2.26-.16.21,0,.3-.07.29-.29a5.89,5.89,0,0,0-.11-1.32,1.63,1.63,0,0,0-1.53-1.25,12,12,0,0,0-4.76.56c-.38.11-.43,0-.42-.33,0-.68,0-1.36,0-2a.37.37,0,0,1,.28-.43,11.83,11.83,0,0,1,7.11-.28,3.87,3.87,0,0,1,2.82,3.64C83.91,22.36,83.78,24,83.83,25.35Zm-3.46.76c0-.37,0-.74,0-1.1s-.08-.35-.36-.34a13,13,0,0,0-1.87.17,3.06,3.06,0,0,0-1.27.47,1.15,1.15,0,0,0-.15,1.77,1.75,1.75,0,0,0,.92.41,20.49,20.49,0,0,0,2.48.06c.22,0,.25-.11.25-.29C80.36,26.88,80.37,26.5,80.37,26.11Z"/><path class="cls-1" d="M97,25.53c0,1.5,0,3,0,4.48,0,.23,0,.38-.31.37-2.17-.05-4.34.09-6.5-.09a5.75,5.75,0,0,1-2.66-.85,3.55,3.55,0,0,1,.6-6.07,11,11,0,0,1,3.69-.84c.49,0,1-.05,1.49-.07.14,0,.25,0,.25-.2a4.9,4.9,0,0,0-.13-1.48,1.62,1.62,0,0,0-1.51-1.18,12,12,0,0,0-4.76.56c-.37.11-.46.05-.45-.34,0-.67,0-1.34,0-2a.44.44,0,0,1,.35-.49A12.07,12.07,0,0,1,93.88,17a3.82,3.82,0,0,1,3,3.36,8.36,8.36,0,0,1,.1,1.41Zm-3.44.65c0-.47,0-.86,0-1.24s-.07-.29-.29-.27c-.48,0-1,0-1.45.1a3.7,3.7,0,0,0-1.77.54,1.12,1.12,0,0,0-.14,1.77,1.69,1.69,0,0,0,.88.4,5.73,5.73,0,0,0,1.31.07c.47,0,1.09.2,1.36-.07S93.47,26.56,93.52,26.18Z"/><path class="cls-2" d="M112.85,23.37a27.1,27.1,0,0,1,.09-3.12,4.08,4.08,0,0,1,4-3.77,8.5,8.5,0,0,1,2.93.15A3.76,3.76,0,0,1,123,19.84a24.3,24.3,0,0,1,0,7,3.9,3.9,0,0,1-3.77,3.48,8.12,8.12,0,0,1-3.18-.14A3.94,3.94,0,0,1,113,26.69C112.79,25.58,112.9,24.47,112.85,23.37Zm2.77,0c0,.91-.05,1.82.07,2.73a2.06,2.06,0,0,0,2.32,2,2.1,2.1,0,0,0,2.3-2,37.92,37.92,0,0,0,0-5.33,2.33,2.33,0,0,0-4.61,0A26.65,26.65,0,0,0,115.62,23.38Z"/><path class="cls-2" d="M125.19,23.39c0-2.14,0-4.27,0-6.41,0-.34.06-.46.43-.45,1.74,0,3.48,0,5.22,0A5.39,5.39,0,0,1,133,17a3.13,3.13,0,0,1,1.88,2.47,8.81,8.81,0,0,1,0,2.76,3.13,3.13,0,0,1-2,2.55,6.31,6.31,0,0,1-2.46.45c-.66,0-1.32,0-2,0-.42,0-.49.13-.49.51,0,1.36,0,2.73,0,4.1,0,.32-.07.44-.42.43-.63,0-1.26,0-1.88,0-.37,0-.49-.07-.48-.46C125.2,27.69,125.19,25.54,125.19,23.39ZM128,20.88c0,.61,0,1.22,0,1.83,0,.19,0,.33.27.32.65,0,1.31,0,2,0,1.36-.1,1.94-.66,2-2,0-1-.24-2.05-1.8-2.18-.71-.06-1.42,0-2.14,0-.23,0-.28.09-.28.3C128,19.68,128,20.28,128,20.88Z"/><path class="cls-2" d="M168,30.38a13.55,13.55,0,0,1-3.73-.42c-.27-.08-.4-.2-.38-.51a9.11,9.11,0,0,0,0-1.28c0-.34.08-.4.42-.32a12.38,12.38,0,0,0,4.54.14,1.61,1.61,0,0,0,1.54-1.5,1.41,1.41,0,0,0-.74-1.35,7.31,7.31,0,0,0-2.24-1,5.6,5.6,0,0,1-2-1,3.74,3.74,0,0,1-1.15-4,3.26,3.26,0,0,1,2.85-2.53,10,10,0,0,1,4.73.26.43.43,0,0,1,.37.52,10.76,10.76,0,0,0,0,1.27c0,.32,0,.42-.39.32a8.91,8.91,0,0,0-3.56-.19,1.56,1.56,0,0,0-1.36,1.73,1.16,1.16,0,0,0,.55.83,8.55,8.55,0,0,0,2.24,1.12,8.25,8.25,0,0,1,1.64.72,3.78,3.78,0,0,1,1.84,4,3.45,3.45,0,0,1-2.91,3A9.45,9.45,0,0,1,168,30.38Z"/><path class="cls-2" d="M153.26,23.39a30.16,30.16,0,0,1,.09-3.16,3.94,3.94,0,0,1,3.74-3.74,12.2,12.2,0,0,1,4.5.32c.35.1.53.24.49.64a11.63,11.63,0,0,0,0,1.32c0,.21,0,.28-.27.21a12.11,12.11,0,0,0-3.7-.28,1.89,1.89,0,0,0-1.89,1.94,42.67,42.67,0,0,0,0,5.54,1.9,1.9,0,0,0,2.16,1.91,16.82,16.82,0,0,0,3.32-.31c.28-.06.39,0,.37.28,0,.49,0,1,0,1.46a.33.33,0,0,1-.28.39,10.68,10.68,0,0,1-5.41.25,3.82,3.82,0,0,1-3-3.41A31.52,31.52,0,0,1,153.26,23.39Z"/><path class="cls-2" d="M140.27,24.53c0-1.78,0-3.56,0-5.34,0-.34-.1-.42-.43-.41-.91,0-1.83,0-2.74,0-.28,0-.37-.08-.36-.36,0-.52,0-1.05,0-1.58,0-.22.05-.32.31-.32h9.15c.29,0,.34.1.33.35,0,.52,0,1.05,0,1.58,0,.27-.09.33-.34.33-.9,0-1.8,0-2.7,0-.39,0-.46.12-.46.49,0,3.51,0,7,0,10.54,0,.38-.08.52-.49.5-.64,0-1.28,0-1.92,0-.31,0-.38-.09-.38-.38C140.28,28.12,140.27,26.32,140.27,24.53Z"/><path class="cls-2" d="M151.23,23.39c0,2.14,0,4.27,0,6.41,0,.43-.12.52-.52.5-.64,0-1.29,0-1.93,0-.26,0-.34-.07-.34-.33q0-6.55,0-13.11c0-.28.11-.32.35-.32.69,0,1.37,0,2.06,0,.3,0,.38.08.38.38C151.22,19.07,151.23,21.23,151.23,23.39Z"/><path class="cls-2" d="M37.78,27.39a5.61,5.61,0,0,0,3.26.26,5,5,0,0,0,2.67-8.28,4.59,4.59,0,0,0-7.13.48c-.18.26-.29.32-.55.11a12.72,12.72,0,0,0-1.2-.88c-.23-.16-.23-.26-.06-.46a6.19,6.19,0,0,1,6.52-2.27,5.78,5.78,0,0,1,4.65,5,5.75,5.75,0,0,1-7.85,6.27A.52.52,0,0,1,37.78,27.39Z"/><path class="cls-2" d="M174.59,16.42a8.68,8.68,0,0,1,0-1c0-.4-.11-.52-.49-.48-.17,0-.47.15-.45-.24,0-.16.06-.23.22-.23h2c.17,0,.26.05.26.24s-.08.23-.25.24c-.67,0-.67.05-.67.71s0,1.31,0,2c0,.23,0,.34-.3.34s-.32-.09-.31-.32C174.6,17.22,174.59,16.82,174.59,16.42Z"/><polygon class="cls-2" points="37.65 27.37 37.64 27.35 37.67 27.35 37.65 27.37"/></g></g></svg>