<svg xmlns:xlink="http://www.w3.org/1999/xlink" id="Layer_1" data-name="Layer 1" width="200" height="200" xmlns="http://www.w3.org/2000/svg" viewBox="0 0 788 200">
                    <defs>
                        <style>
                            .cls-1 {
                                fill: #010101;
                            }

                            .cls-2 {
                                fill: #25252b;
                            }
                        </style>
                    </defs>
                    <g>
                        <g>
                            <path class="cls-1" d="M462.47,148.07h4.31l14.83,21.6,14.78-21.6h4.36v37.04h-6.82v-21.95l-11.23,16.24h-2.26l-11.23-16.24v21.95h-6.77v-37.04h.03Z" fill="#010101">
                            </path>
                            <path class="cls-1" d="M535.47,176.68h-13.13l-3.06,8.42h-7.27l14.33-37.04h5.26l14.18,37.04h-7.27l-3.06-8.42h.02Zm-11.13-6.16h9.17l-4.56-12.68-4.61,12.68Z" fill="#010101">
                            </path>
                            <path class="cls-1" d="M603.98,148.07v37.04h-6.87v-37.04h6.87Z" fill="#010101"></path>
                            <path class="cls-1" d="M615.89,166.61c0-11.28,8.72-19.19,19.55-19.19,6.21,0,11.83,2.66,15.04,6.21l-4.56,4.81c-2.66-2.71-6.36-4.41-10.47-4.41-7.17,0-12.53,5.31-12.53,12.53s5.21,12.53,12.43,12.53c4.06,0,7.97-1.8,10.37-4.26v-5.61h-10.72v-6.01h17.04v14.98c-4.56,4.81-10.42,7.47-16.89,7.47-11.18,0-19.24-8.07-19.24-19.04h-.02Z" fill="#010101">
                            </path>
                            <path class="cls-1" d="M663.07,166.71c0-10.78,8.47-19.3,19.24-19.3s19.24,8.57,19.24,19.19-8.37,19.09-19.35,19.09-19.14-8.37-19.14-18.99h.01Zm31.37-.09c0-7.22-5.46-12.43-12.13-12.43s-12.13,5.31-12.13,12.43,5.26,12.38,12.13,12.38,12.18-5.26,12.13-12.38h0Z" fill="#010101">
                            </path>
                            <path class="cls-1" d="M712.47,148.07h6.87v30.47h19.04v6.57h-25.91v-37.04Z" fill="#010101"></path>
                            <path class="cls-1" d="M745.92,148.07h14.28c11.03,0,17.64,7.17,17.64,18.59s-6.72,18.44-17.94,18.44h-13.98v-37.04h0Zm14.23,30.48c6.97,0,10.57-5.41,10.57-12.03s-3.61-11.88-10.52-11.88h-7.47v23.91h7.42Z" fill="#010101">
                            </path>
                            <path class="cls-1" d="M577.66,175.01c-1.07-1.84-1.67-2.91-2.56-4.46,.29-.08,.44-.13,.44-.13,5.41-1.75,7.77-6.26,7.77-10.78,0-6.01-3.96-11.58-12.43-11.58h-13.78v37.04h6.82v-13.88h3.66c1.54,2.62,2.66,4.58,4.35,7.49,2.89,4.96,6.22,6.57,12.17,6.57v-6.67c-2.18,0-4.78-.76-6.43-3.6h0Zm-13.75-20.58h6.97c3.56,0,5.41,2.46,5.41,5.26s-1.7,5.36-6.16,5.36h-6.21v-10.62h0Z" fill="#010101">
                            </path>
                        </g>
                        <g>
                            <g>
                                <path class="cls-1" d="M391.75,148.77h4.23v16.45h.09c.75-1.16,1.83-2.08,3.24-2.75s2.91-1.01,4.51-1.01c1.72,0,3.28,.3,4.68,.89,1.39,.6,2.59,1.42,3.57,2.47,.99,1.05,1.75,2.29,2.28,3.71,.53,1.43,.8,2.97,.8,4.63s-.27,3.2-.8,4.61-1.29,2.65-2.28,3.71c-.99,1.07-2.18,1.9-3.57,2.49-1.39,.59-2.95,.89-4.68,.89-1.5,0-2.97-.33-4.4-.99s-2.55-1.58-3.36-2.77h-.09v3.2h-4.23v-35.54h0Zm11.56,32.16c1.13,0,2.15-.2,3.06-.59s1.68-.92,2.3-1.6c.63-.67,1.11-1.49,1.46-2.44,.34-.96,.52-2,.52-3.13s-.17-2.17-.52-3.13c-.35-.96-.83-1.77-1.46-2.44s-1.39-1.21-2.3-1.6c-.91-.39-1.93-.59-3.06-.59s-2.15,.2-3.06,.59-1.68,.92-2.3,1.6c-.63,.67-1.11,1.49-1.46,2.44-.35,.96-.52,2-.52,3.13s.17,2.17,.52,3.13c.34,.96,.83,1.77,1.46,2.44s1.39,1.21,2.3,1.6c.91,.39,1.93,.59,3.06,.59Z" fill="#010101">
                                </path>
                                <path class="cls-1" d="M403.83,185.45c-1.58,0-3.14-.35-4.64-1.04-1.02-.47-1.9-1.07-2.63-1.81v2.28h-5.39v-36.7h5.39v15.51c.69-.7,1.53-1.28,2.5-1.75,1.48-.71,3.09-1.07,4.76-1.07,1.79,0,3.44,.32,4.91,.94,1.46,.62,2.73,1.5,3.77,2.6,1.04,1.1,1.84,2.42,2.4,3.91,.55,1.49,.84,3.11,.84,4.83s-.28,3.34-.84,4.81c-.56,1.48-1.36,2.79-2.4,3.9-1.04,1.12-2.31,2.01-3.77,2.63-1.46,.62-3.11,.94-4.91,.94v.02Zm-8.42-4.92h.98l.17,.25c.75,1.1,1.8,1.96,3.12,2.57,1.34,.62,2.74,.93,4.15,.93,1.64,0,3.13-.28,4.45-.85,1.31-.56,2.45-1.35,3.37-2.35,.93-1,1.66-2.19,2.16-3.52,.51-1.34,.76-2.82,.76-4.4s-.26-3.07-.76-4.43c-.5-1.35-1.23-2.53-2.16-3.52s-2.06-1.77-3.38-2.33-2.81-.85-4.45-.85c-1.5,0-2.94,.32-4.26,.95-1.31,.62-2.32,1.48-3.01,2.54l-.17,.27h-.99v-16.45h-3.07v34.38h3.07v-3.2h.02Zm7.92,.99c-1.2,0-2.31-.21-3.29-.64-.98-.42-1.82-1.01-2.5-1.74-.68-.73-1.21-1.62-1.58-2.64-.37-1.01-.55-2.13-.55-3.32s.19-2.31,.55-3.32c.37-1.02,.9-1.91,1.58-2.64s1.52-1.31,2.5-1.74c.98-.42,2.08-.64,3.29-.64s2.31,.21,3.29,.63,1.82,1.01,2.5,1.74c.68,.73,1.21,1.62,1.58,2.64s.55,2.13,.55,3.32-.19,2.31-.55,3.32c-.37,1.03-.9,1.92-1.58,2.64-.68,.73-1.52,1.31-2.5,1.74-.98,.42-2.08,.64-3.29,.64h0Zm0-15.5c-1.04,0-1.99,.18-2.83,.54-.83,.36-1.54,.85-2.11,1.46-.57,.61-1.02,1.37-1.34,2.25-.32,.89-.48,1.87-.48,2.93s.16,2.04,.48,2.93c.32,.88,.77,1.63,1.34,2.25,.57,.61,1.28,1.1,2.11,1.46s1.78,.54,2.83,.54,1.99-.18,2.83-.54c.83-.36,1.54-.85,2.11-1.46,.57-.61,1.02-1.37,1.34-2.25,.32-.89,.48-1.87,.48-2.93s-.16-2.04-.48-2.93c-.32-.88-.77-1.63-1.34-2.25-.57-.61-1.28-1.1-2.11-1.46s-1.78-.54-2.83-.54Z" fill="#010101">
                                </path>
                            </g>
                            <g>
                                <path class="cls-1" d="M417.84,162.02h4.89l6.6,17.39h.09l6.33-17.39h4.51l-10.58,27.08c-.37,.97-.77,1.86-1.17,2.66-.41,.8-.89,1.48-1.45,2.04s-1.24,1-2.04,1.32c-.8,.31-1.77,.47-2.93,.47-.62,0-1.26-.04-1.9-.12-.64-.08-1.26-.24-1.85-.49l.51-3.85c.84,.34,1.68,.52,2.52,.52,.65,0,1.21-.09,1.66-.26s.84-.42,1.17-.75c.33-.33,.6-.71,.82-1.15,.22-.44,.44-.94,.65-1.5l1.37-3.53-9.22-22.42,.02-.02Z" fill="#010101">
                                </path>
                                <path class="cls-1" d="M422.1,196.17c-.64,0-1.3-.04-1.97-.12-.69-.08-1.37-.26-2.01-.54l-.41-.17,.67-5.04,.7,.29c.77,.31,1.54,.47,2.3,.47,.58,0,1.07-.07,1.45-.22,.38-.14,.69-.35,.96-.62s.52-.62,.71-1c.21-.42,.42-.91,.63-1.46l1.29-3.31-9.46-23.01h6.16l6.23,16.43,5.98-16.43h5.77l-10.89,27.87c-.38,.98-.78,1.89-1.19,2.71-.43,.85-.95,1.59-1.56,2.19-.62,.62-1.37,1.11-2.24,1.45-.86,.34-1.92,.51-3.14,.51h.02Zm-3.11-1.57c.42,.14,.84,.24,1.28,.29,.62,.08,1.23,.11,1.83,.11,1.07,0,1.99-.14,2.71-.43,.72-.28,1.34-.68,1.84-1.19,.52-.52,.97-1.16,1.34-1.9,.4-.78,.78-1.66,1.15-2.6l10.27-26.29h-3.25l-6.33,17.39h-.9l-6.6-17.39h-3.62l8.98,21.84-1.45,3.74c-.22,.57-.45,1.1-.67,1.55-.25,.49-.56,.93-.93,1.3-.38,.39-.85,.68-1.37,.89-.52,.2-1.15,.3-1.87,.3-.68,0-1.36-.1-2.04-.31l-.36,2.69h0Z" fill="#010101">
                                </path>
                            </g>
                        </g>
                    </g>
                    <g>
                        <path class="cls-2" d="M147.21,3.78l-45.82,120.18h31.13l8.42-23.21h43.66l8.62,23.21h31.91L179.31,3.78h-32.1Zm3.33,71.28l12.33-33.88,12.34,33.88h-24.67Z" fill="#25252B">
                        </path>
                        <rect class="cls-2" x="228" y="3.78" width="31.5" height="120.18" fill="#25252B"></rect>
                        <polygon class="cls-2" points="305.08 3.78 273.58 3.78 273.58 123.96 350.08 123.96 354.78 97.44 305.08 97.44 305.08 3.78" fill="#25252B">
                        </polygon>
                        <polygon class="cls-2" points="518.09 49.37 471.68 49.37 471.68 3.78 450.54 3.78 440 3.78 344.5 3.78 339.81 31.13 376.82 31.13 360.37 123.96 391.89 123.96 408.34 31.13 440.18 31.13 440.18 123.96 471.68 123.96 471.68 76.72 518.09 76.72 518.09 123.96 549.59 123.96 549.59 3.78 518.09 3.78 518.09 49.37" fill="#25252B">
                        </polygon>
                        <path class="cls-2" d="M73.59,52.59l-23.49-5.48c-6.28-1.37-9.99-4.31-9.99-9.58,0-6.66,6.07-10.63,15.08-10.63,10.38,0,15.85,5.06,18.4,11.69h30.73C101,17.87,84.36,1.83,54.99,1.83,28.36,1.83,8.78,17.33,8.78,40.81c0,20.38,13.3,29.59,30.94,33.51l23.09,4.89c7.64,1.76,11.37,4.31,11.37,9.99,0,7.45-6.66,11.5-16.25,11.5s-16.85-4.09-19.4-12.38H5.84c4.31,24.04,23.89,37.63,52.67,37.63,26.24,0,46.99-14.07,46.99-38.73,0-18.6-11.35-29.73-31.92-34.63h0Z" fill="#25252B">
                        </path>
                        <path class="cls-2" d="M662.54,44.73c0-26.24-17.83-40.95-43.67-40.95h-54.37V123.96h31.5v-39.78h10.93l25.06,39.78h34.86l-28.2-43.04c14.69-5.48,23.9-17.98,23.9-36.18h-.01Zm-47,14.57h-19.54V30.3h19.54c11.16,0,16.26,5.69,16.26,14.5s-5.09,14.5-16.26,14.5h0Z" fill="#25252B">
                        </path>
                        <path class="cls-2" d="M749.34,3.78V72.17c0,17.03-8.12,25.85-21.05,25.85s-21.23-8.82-21.23-25.85V3.78h-31.5V74.92c0,33.09,20.6,51.09,52.31,51.09s52.13-18,52.13-50.9V3.78h-30.66Z" fill="#25252B">
                        </path>
                    </g>
                </svg>