<svg width="160" height="50" xmlns="http://www.w3.org/2000/svg" xmlns:svg="http://www.w3.org/2000/svg">
 <g>
  <title>Layer 1</title>
  <g stroke="null" id="svg_1">
   <g stroke="null" id="svg_2">
    <path stroke="null" id="svg_3" d="m78.77205,15.79042c0,-0.38373 0,-0.76747 0,-1.07445c0,-0.30699 0,-0.61397 0,-0.92096l1.30469,0c0,0.23024 0,0.46048 0,0.69072c0,0.23024 0,0.46048 0,0.69072l0,0c0.07675,-0.23024 0.23024,-0.38373 0.38373,-0.61397c0.15349,-0.15349 0.38373,-0.38373 0.61397,-0.53723s0.53723,-0.23024 0.76747,-0.38373c0.30699,-0.07675 0.61397,-0.15349 0.92096,-0.15349c0.46048,0 0.84421,0.07675 1.1512,0.15349c0.30699,0.07675 0.53723,0.23024 0.76747,0.38373s0.38373,0.30699 0.46048,0.53723c0.07675,0.15349 0.23024,0.30699 0.30699,0.46048c0.30699,-0.46048 0.69072,-0.84421 1.07445,-1.1512c0.38373,-0.30699 0.92096,-0.38373 1.53493,-0.38373c0.61397,0 1.07445,0.07675 1.45818,0.23024c0.38373,0.15349 0.69072,0.38373 0.9977,0.69072c0.23024,0.30699 0.46048,0.69072 0.53723,1.07445c0.07675,0.46048 0.15349,0.92096 0.15349,1.45818l0,4.98852l-1.38144,0l0,-4.91178c0,-0.30699 0,-0.53723 -0.07675,-0.84421c-0.07675,-0.30699 -0.15349,-0.53723 -0.30699,-0.69072c-0.15349,-0.23024 -0.38373,-0.38373 -0.61397,-0.53723c-0.23024,-0.15349 -0.61397,-0.23024 -0.9977,-0.23024c-0.30699,0 -0.53723,0.07675 -0.84421,0.15349c-0.23024,0.15349 -0.46048,0.30699 -0.69072,0.46048c-0.23024,0.23024 -0.38373,0.46048 -0.46048,0.76747c-0.07675,0.30699 -0.15349,0.61397 -0.15349,0.9977l0,4.75828l-1.38144,0l0,-4.68154c0,-0.92096 -0.15349,-1.53493 -0.38373,-1.91866c-0.23024,-0.38373 -0.69072,-0.53723 -1.22794,-0.53723c-0.46048,0 -0.84421,0.07675 -1.1512,0.23024s-0.61397,0.38373 -0.76747,0.69072c-0.23024,0.30699 -0.38373,0.61397 -0.46048,0.9977s-0.15349,0.84421 -0.15349,1.30469l0,3.99082l-1.38144,0l0,-6.13972z" fill="#818B91"/>
    <path stroke="null" id="svg_4" d="m93.73763,14.94621c0.46048,-0.46048 0.92096,-0.76747 1.53493,-0.9977c0.61397,-0.23024 1.1512,-0.30699 1.76517,-0.30699c1.22794,0 2.07216,0.30699 2.68613,0.84421c0.53723,0.61397 0.84421,1.45818 0.84421,2.60938l0,3.53034c0,0.23024 0,0.46048 0,0.76747c0,0.23024 0.07675,0.46048 0.07675,0.69072l-1.30469,0c-0.07675,-0.15349 -0.07675,-0.38373 -0.07675,-0.61397c0,-0.23024 0,-0.46048 0,-0.61397l0,0c-0.30699,0.46048 -0.61397,0.76747 -1.07445,1.07445c-0.46048,0.30699 -0.9977,0.38373 -1.61168,0.38373c-0.46048,0 -0.84421,-0.07675 -1.22794,-0.15349c-0.38373,-0.07675 -0.69072,-0.23024 -0.9977,-0.46048c-0.30699,-0.23024 -0.46048,-0.46048 -0.69072,-0.76747c-0.15349,-0.30699 -0.23024,-0.69072 -0.23024,-1.07445c0,-0.69072 0.15349,-1.22794 0.53723,-1.61168c0.38373,-0.38373 0.76747,-0.69072 1.30469,-0.84421c0.53723,-0.15349 1.07445,-0.30699 1.68842,-0.38373c0.61397,-0.07675 1.1512,-0.07675 1.68842,-0.07675l0.53723,0l0,-0.23024c0,-0.61397 -0.15349,-1.07445 -0.53723,-1.38144s-0.84421,-0.46048 -1.53493,-0.46048c-0.46048,0 -0.92096,0.07675 -1.30469,0.23024c-0.46048,0.15349 -0.84421,0.38373 -1.1512,0.69072l-0.92096,-0.84421zm3.99082,3.22335c-0.92096,0 -1.61168,0.15349 -2.07216,0.38373c-0.53723,0.23024 -0.76747,0.69072 -0.76747,1.22794c0,0.53723 0.15349,0.92096 0.53723,1.07445c0.38373,0.23024 0.76747,0.30699 1.30469,0.30699c0.38373,0 0.76747,-0.07675 1.07445,-0.23024c0.30699,-0.15349 0.53723,-0.30699 0.76747,-0.53723c0.23024,-0.23024 0.38373,-0.46048 0.46048,-0.76747c0.07675,-0.30699 0.15349,-0.61397 0.15349,-0.9977l0,-0.53723l-1.45818,0l0,0.07675z" fill="#818B91"/>
    <path stroke="null" id="svg_5" d="m102.94721,15.79042c0,-0.38373 0,-0.76747 0,-1.07445s0,-0.61397 0,-0.92096l1.30469,0c0,0.23024 0,0.46048 0,0.69072s0,0.46048 0,0.69072l0,0c0.07675,-0.23024 0.23024,-0.38373 0.38373,-0.61397s0.38373,-0.38373 0.61397,-0.53723s0.53723,-0.23024 0.76747,-0.38373c0.30699,-0.07675 0.61397,-0.15349 0.92096,-0.15349c0.07675,0 0.15349,0 0.30699,0s0.15349,0 0.30699,0.07675l-0.07675,1.38144c-0.23024,-0.07675 -0.46048,-0.07675 -0.76747,-0.07675c-0.84421,0 -1.45818,0.30699 -1.84192,0.84421c-0.38373,0.53723 -0.53723,1.30469 -0.53723,2.22565l0,3.99082l-1.38144,0l0,-6.13972z" fill="#818B91"/>
    <path stroke="null" id="svg_6" d="m109.16368,8.80649l1.38144,0l0,8.7491l3.76058,-3.60709l1.99541,0l-3.99082,3.76058l4.37455,4.52804l-1.99541,0l-4.06757,-4.37455l0,4.37455l-1.38144,0l0,-13.43064l-0.07675,0z" fill="#818B91"/>
    <path stroke="null" id="svg_7" d="m125.43394,20.62545c-0.46048,0.61397 -0.9977,1.07445 -1.61168,1.30469c-0.61397,0.23024 -1.30469,0.38373 -2.07216,0.38373c-0.61397,0 -1.22794,-0.15349 -1.76517,-0.30699c-0.53723,-0.23024 -0.92096,-0.53723 -1.30469,-0.92096s-0.61397,-0.84421 -0.84421,-1.38144s-0.30699,-1.07445 -0.30699,-1.68842c0,-0.61397 0.07675,-1.22794 0.30699,-1.76517c0.23024,-0.53723 0.53723,-0.9977 0.92096,-1.38144s0.84421,-0.69072 1.30469,-0.92096c0.53723,-0.23024 1.07445,-0.30699 1.68842,-0.30699c0.61397,0 1.07445,0.07675 1.61168,0.30699c0.46048,0.23024 0.92096,0.46048 1.22794,0.84421s0.61397,0.84421 0.76747,1.38144c0.15349,0.53723 0.30699,1.1512 0.30699,1.84192l0,0.46048l-6.67695,0c0,0.38373 0.07675,0.69072 0.23024,0.9977s0.30699,0.61397 0.53723,0.84421s0.53723,0.46048 0.84421,0.53723c0.30699,0.15349 0.69072,0.23024 1.07445,0.23024c0.61397,0 1.07445,-0.07675 1.53493,-0.30699c0.38373,-0.23024 0.76747,-0.53723 1.07445,-0.92096l1.1512,0.76747zm-1.22794,-3.37685c0,-0.69072 -0.23024,-1.30469 -0.69072,-1.68842c-0.46048,-0.46048 -0.9977,-0.61397 -1.76517,-0.61397s-1.38144,0.23024 -1.84192,0.61397c-0.46048,0.46048 -0.76747,0.9977 -0.84421,1.68842l5.14202,0z" fill="#818B91"/>
    <path stroke="null" id="svg_8" d="m132.34113,15.02295l-2.45589,0l0,4.14431c0,0.30699 0,0.53723 0,0.76747c0,0.23024 0.07675,0.46048 0.15349,0.61397s0.23024,0.30699 0.38373,0.38373c0.15349,0.07675 0.38373,0.15349 0.69072,0.15349c0.23024,0 0.38373,0 0.61397,-0.07675c0.23024,-0.07675 0.38373,-0.15349 0.61397,-0.23024l0.07675,1.22794c-0.23024,0.07675 -0.46048,0.15349 -0.76747,0.23024c-0.30699,0.07675 -0.53723,0.07675 -0.84421,0.07675c-0.46048,0 -0.92096,-0.07675 -1.1512,-0.23024c-0.30699,-0.15349 -0.53723,-0.30699 -0.69072,-0.53723s-0.30699,-0.53723 -0.30699,-0.84421c-0.07675,-0.38373 -0.07675,-0.76747 -0.07675,-1.1512l0,-4.52804l-1.76517,0l0,-1.1512l1.76517,0l0,-2.37914l1.38144,0l0,2.37914l2.45589,0l0,1.1512l-0.07675,0z" fill="#818B91"/>
    <path stroke="null" id="svg_9" d="m133.87606,10.6484c0,-0.30699 0.07675,-0.53723 0.30699,-0.69072c0.23024,-0.23024 0.46048,-0.30699 0.69072,-0.30699c0.30699,0 0.53723,0.07675 0.69072,0.30699c0.23024,0.23024 0.30699,0.46048 0.30699,0.69072c0,0.30699 -0.07675,0.53723 -0.30699,0.69072c-0.15349,0.15349 -0.46048,0.30699 -0.69072,0.30699s-0.53723,-0.07675 -0.69072,-0.30699c-0.23024,-0.15349 -0.30699,-0.38373 -0.30699,-0.69072zm0.30699,3.22335l1.38144,0l0,8.28862l-1.38144,0l0,-8.28862z" fill="#818B91"/>
    <path stroke="null" id="svg_10" d="m138.32736,15.79042c0,-0.38373 0,-0.76747 0,-1.07445s0,-0.61397 0,-0.92096l1.30469,0c0,0.23024 0,0.46048 0,0.69072c0,0.23024 0,0.46048 0,0.69072l0,0c0.07675,-0.23024 0.23024,-0.38373 0.38373,-0.61397s0.38373,-0.38373 0.61397,-0.53723s0.53723,-0.23024 0.76747,-0.38373c0.30699,-0.07675 0.61397,-0.15349 0.92096,-0.15349c0.53723,0 0.9977,0.07675 1.38144,0.23024s0.69072,0.38373 0.9977,0.69072c0.23024,0.30699 0.46048,0.61397 0.53723,1.07445c0.15349,0.38373 0.15349,0.84421 0.15349,1.38144l0,5.06527l-1.38144,0l0,-4.98852c0,-0.69072 -0.15349,-1.22794 -0.46048,-1.61168c-0.30699,-0.38373 -0.76747,-0.61397 -1.45818,-0.61397c-0.46048,0 -0.84421,0.07675 -1.1512,0.23024c-0.30699,0.15349 -0.61397,0.38373 -0.76747,0.69072c-0.23024,0.30699 -0.38373,0.61397 -0.46048,0.9977c-0.07675,0.38373 -0.15349,0.84421 -0.15349,1.30469l0,3.99082l-1.38144,0l0,-6.13972l0.15349,0z" fill="#818B91"/>
    <path stroke="null" id="svg_11" d="m156.36279,21.77665c0,1.53493 -0.38373,2.68613 -1.1512,3.45359c-0.76747,0.76747 -1.91866,1.1512 -3.37685,1.1512c-0.84421,0 -1.53493,-0.15349 -2.22565,-0.38373s-1.30469,-0.61397 -1.84192,-1.22794l0.9977,-1.1512c0.46048,0.46048 0.92096,0.84421 1.38144,1.07445c0.46048,0.23024 1.07445,0.38373 1.68842,0.38373c0.61397,0 1.1512,-0.07675 1.53493,-0.30699c0.38373,-0.15349 0.69072,-0.46048 0.9977,-0.76747s0.38373,-0.69072 0.46048,-1.07445c0.07675,-0.38373 0.15349,-0.84421 0.15349,-1.22794l0,-1.07445l0,0c-0.30699,0.53723 -0.76747,0.92096 -1.30469,1.1512c-0.53723,0.23024 -1.07445,0.38373 -1.61168,0.38373c-0.61397,0 -1.22794,-0.07675 -1.76517,-0.30699c-0.53723,-0.23024 -0.9977,-0.53723 -1.38144,-0.84421s-0.69072,-0.84421 -0.92096,-1.30469c-0.23024,-0.53723 -0.30699,-1.07445 -0.30699,-1.68842c0,-0.69072 0.07675,-1.30469 0.30699,-1.84192c0.23024,-0.53723 0.53723,-0.9977 0.92096,-1.38144c0.38373,-0.38373 0.84421,-0.69072 1.38144,-0.84421c0.53723,-0.23024 1.1512,-0.30699 1.76517,-0.30699c0.30699,0 0.53723,0 0.84421,0.07675c0.30699,0.07675 0.53723,0.15349 0.84421,0.30699c0.23024,0.15349 0.53723,0.30699 0.69072,0.53723c0.23024,0.23024 0.38373,0.46048 0.53723,0.69072l0,0l0,-1.38144l1.38144,0l0,7.90489zm-7.21417,-3.76058c0,0.46048 0.07675,0.84421 0.23024,1.1512c0.15349,0.38373 0.38373,0.69072 0.61397,0.92096c0.23024,0.23024 0.53723,0.46048 0.92096,0.61397c0.38373,0.15349 0.76747,0.23024 1.1512,0.23024c0.46048,0 0.92096,-0.07675 1.22794,-0.23024s0.69072,-0.38373 0.92096,-0.69072c0.23024,-0.30699 0.46048,-0.61397 0.53723,-0.92096s0.23024,-0.76747 0.23024,-1.1512c0,-0.46048 -0.07675,-0.84421 -0.23024,-1.22794c-0.15349,-0.38373 -0.30699,-0.69072 -0.61397,-0.9977c-0.23024,-0.30699 -0.53723,-0.46048 -0.92096,-0.61397c-0.38373,-0.15349 -0.76747,-0.23024 -1.22794,-0.23024s-0.84421,0.07675 -1.22794,0.23024s-0.69072,0.38373 -0.92096,0.69072s-0.46048,0.61397 -0.61397,0.9977c0,0.38373 -0.07675,0.76747 -0.07675,1.22794z" fill="#818B91"/>
    <path stroke="null" id="svg_12" d="m84.68154,34.82356c-0.30699,-0.38373 -0.61397,-0.61397 -0.92096,-0.76747c-0.30699,-0.15349 -0.69072,-0.23024 -1.1512,-0.23024c-0.46048,0 -0.84421,0.07675 -1.22794,0.23024c-0.38373,0.15349 -0.61397,0.38373 -0.84421,0.69072c-0.23024,0.30699 -0.38373,0.61397 -0.53723,0.9977c-0.15349,0.38373 -0.15349,0.76747 -0.15349,1.22794c0,0.46048 0.07675,0.84421 0.23024,1.22794s0.30699,0.69072 0.53723,0.9977s0.53723,0.53723 0.84421,0.69072c0.30699,0.15349 0.69072,0.23024 1.1512,0.23024c0.92096,0 1.61168,-0.30699 2.07216,-0.9977l0.9977,0.9977c-0.38373,0.46048 -0.84421,0.76747 -1.38144,0.9977c-0.53723,0.23024 -1.07445,0.30699 -1.68842,0.30699c-0.61397,0 -1.22794,-0.07675 -1.76517,-0.30699c-0.53723,-0.23024 -0.9977,-0.53723 -1.38144,-0.92096s-0.69072,-0.84421 -0.84421,-1.38144s-0.30699,-1.07445 -0.30699,-1.76517c0,-0.61397 0.07675,-1.22794 0.30699,-1.76517c0.23024,-0.53723 0.46048,-0.9977 0.84421,-1.38144c0.38373,-0.38373 0.84421,-0.69072 1.38144,-0.92096c0.53723,-0.23024 1.07445,-0.30699 1.76517,-0.30699c0.61397,0 1.22794,0.07675 1.76517,0.30699c0.53723,0.23024 0.9977,0.53723 1.45818,0.9977l-1.1512,0.84421z" fill="#818B91"/>
    <path stroke="null" id="svg_13" d="m87.44441,27.68613l1.38144,0l0,13.3539l-1.38144,0l0,-13.3539z" fill="#818B91"/>
    <path stroke="null" id="svg_14" d="m91.0515,36.89571c0,-0.61397 0.07675,-1.22794 0.30699,-1.76517s0.53723,-0.9977 0.92096,-1.38144c0.38373,-0.38373 0.84421,-0.69072 1.38144,-0.92096c0.53723,-0.23024 1.1512,-0.30699 1.76517,-0.30699s1.22794,0.07675 1.76517,0.30699c0.53723,0.23024 0.9977,0.53723 1.38144,0.92096c0.38373,0.38373 0.69072,0.84421 0.92096,1.38144c0.23024,0.53723 0.30699,1.1512 0.30699,1.76517c0,0.61397 -0.07675,1.22794 -0.30699,1.76517c-0.23024,0.53723 -0.53723,0.9977 -0.92096,1.38144c-0.38373,0.38373 -0.84421,0.69072 -1.38144,0.92096c-0.53723,0.23024 -1.1512,0.30699 -1.76517,0.30699s-1.22794,-0.07675 -1.76517,-0.30699c-0.53723,-0.23024 -0.9977,-0.53723 -1.38144,-0.92096c-0.38373,-0.38373 -0.69072,-0.84421 -0.92096,-1.38144c-0.23024,-0.53723 -0.30699,-1.1512 -0.30699,-1.76517zm1.45818,0c0,0.46048 0.07675,0.84421 0.23024,1.22794c0.15349,0.38373 0.30699,0.69072 0.61397,0.9977s0.53723,0.46048 0.92096,0.69072c0.38373,0.15349 0.76747,0.23024 1.22794,0.23024s0.84421,-0.07675 1.22794,-0.23024s0.69072,-0.38373 0.92096,-0.69072c0.23024,-0.30699 0.46048,-0.61397 0.61397,-0.9977c0.15349,-0.38373 0.23024,-0.76747 0.23024,-1.22794c0,-0.46048 -0.07675,-0.84421 -0.23024,-1.22794c-0.15349,-0.38373 -0.30699,-0.69072 -0.61397,-0.9977c-0.23024,-0.30699 -0.53723,-0.46048 -0.92096,-0.69072s-0.76747,-0.23024 -1.22794,-0.23024s-0.84421,0.07675 -1.22794,0.23024c-0.38373,0.15349 -0.69072,0.38373 -0.92096,0.69072s-0.46048,0.61397 -0.61397,0.9977s-0.23024,0.76747 -0.23024,1.22794z" fill="#818B91"/>
    <path stroke="null" id="svg_15" d="m109.24042,39.04462c0,0.38373 0,0.76747 0,1.07445c0,0.30699 0,0.61397 0,0.92096l-1.22794,0c0,-0.23024 0,-0.46048 0,-0.69072c0,-0.23024 0,-0.46048 0,-0.69072l0,0c-0.07675,0.23024 -0.23024,0.38373 -0.38373,0.61397c-0.15349,0.15349 -0.38373,0.38373 -0.61397,0.53723c-0.23024,0.15349 -0.53723,0.23024 -0.76747,0.38373c-0.30699,0.07675 -0.61397,0.15349 -0.92096,0.15349c-0.53723,0 -0.9977,-0.07675 -1.38144,-0.23024s-0.69072,-0.38373 -0.9977,-0.69072c-0.23024,-0.30699 -0.46048,-0.61397 -0.53723,-1.07445c-0.15349,-0.38373 -0.15349,-0.84421 -0.15349,-1.38144l0,-5.06527l1.38144,0l0,4.98852c0,0.69072 0.15349,1.22794 0.46048,1.61168s0.76747,0.61397 1.45818,0.61397c0.46048,0 0.84421,-0.07675 1.1512,-0.23024s0.61397,-0.38373 0.76747,-0.69072c0.23024,-0.30699 0.38373,-0.61397 0.46048,-0.9977c0.07675,-0.38373 0.15349,-0.84421 0.15349,-1.30469l0,-3.99082l1.38144,0l0,6.13972l-0.23024,0z" fill="#818B91"/>
    <path stroke="null" id="svg_16" d="m118.68025,39.58184l0,0c-0.30699,0.46048 -0.69072,0.84421 -1.22794,1.22794c-0.53723,0.30699 -1.22794,0.46048 -1.91866,0.46048c-0.61397,0 -1.1512,-0.07675 -1.61168,-0.30699c-0.53723,-0.23024 -0.92096,-0.53723 -1.30469,-0.92096c-0.38373,-0.38373 -0.69072,-0.84421 -0.84421,-1.38144c-0.23024,-0.53723 -0.30699,-1.07445 -0.30699,-1.76517s0.07675,-1.22794 0.30699,-1.76517c0.23024,-0.53723 0.53723,-0.9977 0.92096,-1.38144c0.38373,-0.38373 0.84421,-0.69072 1.38144,-0.92096c0.53723,-0.23024 1.1512,-0.30699 1.76517,-0.30699c0.61397,0 1.1512,0.15349 1.68842,0.38373c0.53723,0.23024 0.92096,0.61397 1.30469,1.07445l0,0l0,-6.29321l1.38144,0l0,13.3539l-1.38144,0l0,-1.45818l-0.15349,0zm0,-2.68613c0,-0.46048 -0.07675,-0.84421 -0.23024,-1.22794c-0.15349,-0.38373 -0.30699,-0.69072 -0.61397,-0.9977c-0.23024,-0.30699 -0.53723,-0.46048 -0.92096,-0.69072c-0.38373,-0.15349 -0.76747,-0.23024 -1.22794,-0.23024c-0.46048,0 -0.84421,0.07675 -1.22794,0.23024c-0.38373,0.15349 -0.69072,0.38373 -0.92096,0.69072s-0.46048,0.61397 -0.61397,0.9977s-0.23024,0.76747 -0.23024,1.22794c0,0.46048 0.07675,0.84421 0.23024,1.22794c0.15349,0.38373 0.30699,0.69072 0.61397,0.9977s0.53723,0.46048 0.92096,0.69072c0.38373,0.15349 0.76747,0.23024 1.22794,0.23024c0.46048,0 0.84421,-0.07675 1.22794,-0.23024c0.38373,-0.15349 0.69072,-0.38373 0.92096,-0.69072c0.23024,-0.30699 0.46048,-0.61397 0.61397,-0.9977c0.15349,-0.38373 0.23024,-0.76747 0.23024,-1.22794z" fill="#818B91"/>
   </g>
   <g stroke="null" id="Layer_1_2_">
    <g stroke="null" id="svg_17">
     <path stroke="null" id="svg_18" d="m23.13082,23.77206c0,0 -0.53723,-0.07675 -1.07445,-0.07675c-0.84421,0 -1.1512,0.30699 -1.1512,0.30699c-0.23024,0.15349 -0.38373,0.46048 -0.38373,0.76747c0,0.23024 0.07675,0.38373 0.15349,0.53723c0.07675,0.07675 0.07675,0.07675 0.23024,0.23024c0,0 0.38373,0.30699 1.1512,0.23024c0.53723,0 1.07445,-0.15349 1.07445,-0.15349l0,0l0,-1.84192z" fill="#3498DB"/>
     <path stroke="null" id="svg_19" d="m30.95897,21.31617c-0.53723,0 -0.92096,0.23024 -1.1512,0.61397c-0.15349,0.23024 -0.23024,0.53723 -0.30699,0.92096l2.83962,0c0,-0.38373 -0.07675,-0.69072 -0.23024,-0.92096c-0.23024,-0.38373 -0.61397,-0.61397 -1.1512,-0.61397z" fill="#3498DB"/>
     <path stroke="null" id="svg_20" d="m47.07574,21.31617c-0.53723,0 -0.92096,0.15349 -1.1512,0.53723s-0.38373,0.92096 -0.38373,1.61168c0,0.69072 0.15349,1.22794 0.38373,1.61168s0.61397,0.53723 1.1512,0.53723s0.92096,-0.15349 1.1512,-0.53723s0.38373,-0.92096 0.38373,-1.61168c0,-0.69072 -0.15349,-1.22794 -0.38373,-1.61168c-0.23024,-0.30699 -0.61397,-0.53723 -1.1512,-0.53723z" fill="#3498DB"/>
     <path stroke="null" id="svg_21" d="m63.03902,21.31617c-0.53723,0 -0.92096,0.23024 -1.1512,0.61397c-0.15349,0.23024 -0.23024,0.53723 -0.30699,0.92096l2.83962,0c0,-0.38373 -0.07675,-0.69072 -0.23024,-0.92096c-0.23024,-0.38373 -0.61397,-0.61397 -1.1512,-0.61397z" fill="#3498DB"/>
     <path stroke="null" id="svg_22" d="m57.897,7.3483c-2.1489,0 -4.22106,0.46048 -6.06298,1.30469c-2.1489,-3.76058 -6.13972,-6.36996 -10.66777,-6.36996c-3.45359,0 -6.52345,1.45818 -8.7491,3.76058c-2.45589,-3.22335 -6.29321,-5.29551 -10.66777,-5.29551c-7.44441,0 -13.43064,5.98623 -13.43064,13.43064c0,1.91866 0.38373,3.68383 1.07445,5.37226c-3.45359,1.99541 -5.75599,5.83274 -5.75599,10.13054c0,6.44671 5.14202,11.66547 11.51198,11.66547c0.84421,0 1.61168,-0.07675 2.37914,-0.23024c1.76517,4.75828 6.29321,8.13513 11.66547,8.13513c5.14202,0 9.51657,-3.14661 11.43523,-7.59791c1.45818,0.69072 3.06986,1.07445 4.75828,1.07445c4.06757,0 7.67465,-2.22565 9.51657,-5.6025c0.92096,0.15349 1.91866,0.30699 2.91637,0.30699c8.21188,0 14.88883,-6.75369 14.88883,-15.04232c0.07675,-8.28862 -6.6002,-15.04232 -14.81208,-15.04232zm-39.44771,17.49821c0,1.22794 -0.84421,1.99541 -2.3024,1.99541c-0.69072,0 -1.38144,-0.07675 -2.07216,-0.46048c-0.15349,-0.07675 -0.23024,-0.15349 -0.38373,-0.23024c0,0 -0.07675,-0.07675 0,-0.15349l0.30699,-0.76747c0.07675,-0.15349 0.15349,-0.07675 0.15349,-0.07675c0.07675,0.07675 0.15349,0.07675 0.23024,0.15349c0.84421,0.53723 1.61168,0.53723 1.84192,0.53723c0.61397,0 0.9977,-0.30699 0.9977,-0.76747l0,0c0,-0.46048 -0.61397,-0.69072 -1.30469,-0.84421l-0.15349,-0.07675c-0.92096,-0.23024 -1.91866,-0.69072 -1.91866,-1.84192l0,0c0,-1.1512 0.92096,-1.91866 2.22565,-1.91866l0.15349,0c0.76747,0 1.53493,0.23024 1.99541,0.53723c0.07675,0 0.07675,0.07675 0.07675,0.15349c0,0.07675 -0.23024,0.69072 -0.30699,0.76747c-0.07675,0.15349 -0.15349,0.07675 -0.15349,0.07675c-0.46048,-0.23024 -1.22794,-0.46048 -1.76517,-0.46048s-0.92096,0.30699 -0.92096,0.69072l0,0c0,0.46048 0.61397,0.69072 1.30469,0.92096l0.15349,0.07675c0.84421,0.07675 1.84192,0.53723 1.84192,1.68842l0,0zm5.83274,1.53493c0,0 -0.15349,0.07675 -0.30699,0.07675c-0.15349,0 -0.61397,0.15349 -0.9977,0.23024c-0.38373,0.07675 -0.84421,0.07675 -1.22794,0.07675s-0.76747,0 -1.07445,-0.07675s-0.61397,-0.15349 -0.84421,-0.38373c-0.23024,-0.15349 -0.38373,-0.38373 -0.53723,-0.61397s-0.15349,-0.53723 -0.15349,-0.92096s0.07675,-0.69072 0.23024,-0.92096s0.30699,-0.46048 0.61397,-0.69072c0.23024,-0.15349 0.53723,-0.30699 0.84421,-0.38373c0.30699,-0.07675 0.61397,-0.15349 0.9977,-0.15349c0.23024,0 0.46048,0 0.61397,0c0,0 0.30699,0 0.69072,0.07675l0,-0.15349c0,-0.53723 -0.07675,-0.76747 -0.30699,-0.92096c-0.23024,-0.15349 -0.53723,-0.23024 -0.9977,-0.23024c0,0 -0.9977,0 -1.76517,0.38373l-0.07675,0c0,0 -0.07675,0 -0.15349,-0.07675l-0.30699,-0.76747c-0.07675,-0.07675 0,-0.15349 0,-0.15349c0.38373,-0.30699 1.22794,-0.46048 1.22794,-0.46048c0.30699,-0.07675 0.76747,-0.07675 1.07445,-0.07675c0.76747,0 1.45818,0.15349 1.84192,0.53723c0.46048,0.38373 0.61397,0.9977 0.61397,1.76517l0,3.68383c0.07675,0 0.07675,0.15349 0,0.15349zm2.68613,0.15349c0,0.07675 -0.07675,0.15349 -0.07675,0.15349l-1.07445,0c-0.07675,0 -0.07675,-0.07675 -0.07675,-0.15349l0,-8.59561c0,-0.07675 0.07675,-0.15349 0.07675,-0.15349l1.07445,0c0.07675,0 0.07675,0.07675 0.07675,0.15349l0,8.59561zm6.67695,-2.76287c0,0.07675 -0.15349,0.07675 -0.15349,0.07675l-3.99082,0c0,0.61397 0.15349,1.07445 0.46048,1.30469c0.30699,0.30699 0.76747,0.46048 1.38144,0.46048c0.92096,0 1.38144,-0.15349 1.61168,-0.30699c0,0 0.07675,-0.07675 0.15349,0.07675l0.23024,0.76747c0.07675,0.15349 0,0.15349 0,0.23024c-0.23024,0.15349 -0.84421,0.38373 -1.99541,0.38373c-0.53723,0 -1.07445,-0.07675 -1.45818,-0.23024s-0.76747,-0.38373 -0.9977,-0.69072s-0.46048,-0.61397 -0.61397,-0.9977c-0.15349,-0.38373 -0.15349,-0.84421 -0.15349,-1.30469c0,-0.46048 0.07675,-0.92096 0.15349,-1.30469c0.15349,-0.38373 0.30699,-0.76747 0.53723,-1.07445c0.23024,-0.30699 0.53723,-0.53723 0.92096,-0.69072s0.84421,-0.23024 1.30469,-0.23024s0.84421,0.07675 1.1512,0.23024c0.23024,0.07675 0.53723,0.30699 0.76747,0.61397c0.15349,0.15349 0.38373,0.53723 0.53723,0.92096c0.23024,0.92096 0.15349,1.68842 0.15349,1.76517zm1.22794,2.53264c-0.15349,-0.07675 -0.23024,-0.15349 -0.38373,-0.23024c0,0 -0.07675,-0.07675 0,-0.15349l0.30699,-0.76747c0.07675,-0.15349 0.15349,-0.07675 0.15349,-0.07675c0.07675,0.07675 0.15349,0.07675 0.23024,0.15349c0.84421,0.53723 1.61168,0.53723 1.84192,0.53723c0.61397,0 0.9977,-0.30699 0.9977,-0.76747l0,0c0,-0.46048 -0.61397,-0.69072 -1.30469,-0.84421l-0.15349,-0.07675c-0.92096,-0.23024 -1.91866,-0.69072 -1.91866,-1.84192l0,0c0,-1.1512 0.92096,-1.91866 2.22565,-1.91866l0.15349,0c0.76747,0 1.53493,0.23024 1.99541,0.53723c0.07675,0 0.07675,0.07675 0.07675,0.15349c0,0.07675 -0.23024,0.69072 -0.30699,0.76747c-0.07675,0.15349 -0.15349,0.07675 -0.15349,0.07675c-0.46048,-0.23024 -1.22794,-0.46048 -1.76517,-0.46048c-0.53723,0 -0.92096,0.30699 -0.92096,0.69072l0,0c0,0.46048 0.61397,0.69072 1.30469,0.92096l0.15349,0.07675c0.92096,0.30699 1.91866,0.69072 1.91866,1.84192l0,0c0,1.22794 -0.84421,1.99541 -2.3024,1.99541c-0.76747,-0.15349 -1.45818,-0.23024 -2.1489,-0.61397zm9.05609,-4.98852c0,0.15349 -0.15349,0.15349 -0.15349,0.15349l-1.30469,0l-0.92096,5.14202c-0.07675,0.53723 -0.23024,0.9977 -0.38373,1.38144s-0.30699,0.61397 -0.53723,0.92096c-0.23024,0.23024 -0.46048,0.38373 -0.76747,0.53723c-0.30699,0.07675 -0.61397,0.15349 -0.9977,0.15349c-0.15349,0 -0.38373,0 -0.61397,-0.07675c-0.15349,0 -0.23024,-0.07675 -0.38373,-0.07675c-0.07675,0 -0.07675,-0.07675 -0.07675,-0.15349c0,-0.07675 0.23024,-0.76747 0.30699,-0.84421s0.15349,-0.07675 0.15349,-0.07675c0.07675,0 0.15349,0.07675 0.23024,0.07675c0.07675,0 0.23024,0 0.30699,0c0.15349,0 0.30699,0 0.46048,-0.07675s0.23024,-0.15349 0.38373,-0.30699c0.07675,-0.15349 0.15349,-0.30699 0.30699,-0.53723c0.07675,-0.23024 0.15349,-0.61397 0.23024,-0.9977l0.92096,-4.98852l-0.92096,0c-0.07675,0 -0.15349,-0.07675 -0.15349,-0.15349l0.15349,-0.84421c0,-0.15349 0.15349,-0.15349 0.15349,-0.15349l0.92096,0l0.07675,-0.30699c0.15349,-0.84421 0.38373,-1.38144 0.76747,-1.84192c0.38373,-0.38373 0.9977,-0.61397 1.68842,-0.61397c0.23024,0 0.38373,0 0.53723,0.07675c0.15349,0 0.23024,0.07675 0.38373,0.07675c0,0 0.07675,0.07675 0.07675,0.15349l-0.30699,0.84421c0,0.07675 -0.07675,0.07675 -0.15349,0.07675c0,0 -0.07675,0 -0.23024,-0.07675c-0.07675,0 -0.23024,0 -0.30699,0c-0.15349,0 -0.30699,0 -0.46048,0.07675s-0.23024,0.07675 -0.30699,0.23024c-0.07675,0.07675 -0.23024,0.23024 -0.30699,0.46048c-0.15349,0.46048 -0.23024,0.84421 -0.23024,0.92096l1.45818,0c0.07675,0 0.15349,0.07675 0.15349,0.15349l-0.15349,0.69072zm5.90948,3.45359c-0.15349,0.38373 -0.30699,0.76747 -0.53723,0.9977c-0.23024,0.30699 -0.53723,0.53723 -0.92096,0.69072s-0.76747,0.23024 -1.30469,0.23024s-0.92096,-0.07675 -1.30469,-0.23024s-0.69072,-0.38373 -0.92096,-0.69072c-0.23024,-0.30699 -0.46048,-0.61397 -0.53723,-0.9977c-0.15349,-0.38373 -0.15349,-0.84421 -0.15349,-1.30469c0,-0.46048 0.07675,-0.92096 0.15349,-1.30469c0.15349,-0.38373 0.30699,-0.76747 0.53723,-0.9977c0.23024,-0.30699 0.53723,-0.53723 0.92096,-0.69072s0.76747,-0.23024 1.30469,-0.23024c0.46048,0 0.92096,0.07675 1.30469,0.23024s0.69072,0.38373 0.92096,0.69072c0.23024,0.30699 0.46048,0.61397 0.53723,0.9977c0.15349,0.38373 0.15349,0.84421 0.15349,1.30469c0,0.53723 -0.07675,0.92096 -0.15349,1.30469zm4.60479,-3.3001c0,0.07675 -0.07675,0.15349 -0.15349,0.07675c0,0 -0.23024,-0.07675 -0.46048,-0.07675c-0.15349,0 -0.38373,0 -0.53723,0.07675s-0.38373,0.15349 -0.46048,0.30699c-0.15349,0.15349 -0.23024,0.30699 -0.38373,0.61397c-0.07675,0.23024 -0.15349,0.61397 -0.15349,1.07445l0,2.99311c0,0.07675 -0.07675,0.15349 -0.15349,0.15349l-1.07445,0c-0.07675,0 -0.15349,-0.07675 -0.15349,-0.15349l0,-5.98623c0,-0.07675 0.07675,-0.15349 0.07675,-0.15349l0.9977,0c0.07675,0 0.07675,0.07675 0.07675,0.15349l0,0.46048c0.15349,-0.23024 0.46048,-0.38373 0.69072,-0.53723c0.23024,-0.07675 0.53723,-0.23024 0.9977,-0.15349c0.23024,0 0.61397,0.07675 0.69072,0.07675c0,0 0.07675,0.07675 0.07675,0.15349c0.23024,0.15349 0,0.69072 -0.07675,0.92096zm5.29551,4.98852c-0.46048,0.15349 -1.07445,0.30699 -1.68842,0.30699c-0.9977,0 -1.84192,-0.30699 -2.3024,-0.84421c-0.53723,-0.61397 -0.76747,-1.38144 -0.76747,-2.37914c0,-0.46048 0.07675,-0.92096 0.23024,-1.30469c0.15349,-0.38373 0.30699,-0.76747 0.61397,-0.9977c0.23024,-0.30699 0.53723,-0.53723 0.92096,-0.69072s0.84421,-0.23024 1.30469,-0.23024c0.30699,0 0.61397,0 0.92096,0.07675c0.30699,0.07675 0.61397,0.15349 0.76747,0.23024c0,0 0.07675,0.07675 0.07675,0.15349c-0.07675,0.30699 -0.15349,0.53723 -0.30699,0.84421c-0.07675,0.15349 -0.15349,0.07675 -0.15349,0.07675c-0.38373,-0.15349 -0.76747,-0.15349 -1.22794,-0.15349c-0.61397,0 -0.9977,0.23024 -1.30469,0.61397c-0.30699,0.38373 -0.46048,0.92096 -0.46048,1.53493c0,0.76747 0.15349,1.30469 0.53723,1.61168c0.30699,0.30699 0.76747,0.53723 1.38144,0.53723c0.23024,0 0.46048,0 0.61397,-0.07675c0.23024,0 0.38373,-0.07675 0.53723,-0.15349c0,0 0.07675,-0.07675 0.15349,0.07675l0.30699,0.76747c0,-0.07675 -0.15349,0 -0.15349,0zm5.98623,-2.68613c0,0.07675 -0.15349,0.07675 -0.15349,0.07675l-3.99082,0c0,0.61397 0.15349,1.07445 0.46048,1.30469c0.30699,0.30699 0.76747,0.46048 1.38144,0.46048c0.92096,0 1.38144,-0.15349 1.61168,-0.30699c0,0 0.07675,-0.07675 0.15349,0.07675l0.23024,0.76747c0.07675,0.15349 0,0.15349 0,0.23024c-0.23024,0.15349 -0.84421,0.38373 -1.99541,0.38373c-0.53723,0 -1.07445,-0.07675 -1.45818,-0.23024s-0.76747,-0.38373 -0.9977,-0.69072s-0.46048,-0.61397 -0.61397,-0.9977c-0.15349,-0.38373 -0.15349,-0.84421 -0.15349,-1.30469c0,-0.46048 0.07675,-0.92096 0.15349,-1.30469c0.15349,-0.38373 0.30699,-0.76747 0.53723,-1.07445c0.23024,-0.30699 0.53723,-0.53723 0.92096,-0.69072s0.84421,-0.23024 1.30469,-0.23024s0.84421,0.07675 1.1512,0.23024c0.23024,0.07675 0.53723,0.30699 0.76747,0.61397c0.15349,0.15349 0.38373,0.53723 0.53723,0.92096c0.30699,0.92096 0.15349,1.68842 0.15349,1.76517z" fill="#3498DB"/>
    </g>
   </g>
  </g>
 </g>
</svg>