<?xml version="1.0" encoding="utf-8"?>
<!-- Generator: Adobe Illustrator 21.1.0, SVG Export Plug-In . SVG Version: 6.00 Build 0)  -->
<svg version="1.1" id="Layer_1" xmlns="http://www.w3.org/2000/svg" xmlns:xlink="http://www.w3.org/1999/xlink" x="0px" y="0px"
	 viewBox="0 0 150 46.3" enable-background="new 0 0 150 46.3" xml:space="preserve">
<g>
	<path fill="#00B7FF" d="M85.4,28.9c-1.4-0.5-1.3-2-0.2-2.5c3.7-1.3,6-4.5,6-8.1c0-1.7-0.9-3.9-1.8-5.1l2.1-1.9V9.6H80.9l0,0
		c-5.3,0.3-9.5,4-9.5,8.7c0,3.6,2.1,7,6.6,8.1c-1.1,0.8-1.1,1.6-0.4,2.5c-3.9,1.4-6.8,4.4-6.8,8.2c0,5.1,4.7,9.2,10.6,9.2
		c5.9,0,10.6-4.1,10.6-9.2C92,33.4,89.3,30.3,85.4,28.9 M81.4,41.7c-2.8,0-5.1-1.9-5.1-4.4c0-2.3,1.9-4.1,4.5-4.3V22.3
		c-2.2-0.3-3.9-1.9-3.9-3.9c0-2.2,2-3.9,4.6-3.9c2.5,0,4.6,1.8,4.6,3.9c0,2-1.7,3.6-3.9,3.9V33c2.5,0.3,4.5,2.1,4.5,4.3
		C86.5,39.7,84.2,41.7,81.4,41.7"/>
	<path fill="#00B7FF" d="M14,18.3c-0.8-0.7-1.9-1.1-3.4-1.5c-1.1-0.3-1.7-0.4-1.8-0.5c-0.7-0.3-1.1-0.7-1.1-1.1c0-0.4,0.2-0.7,0.5-1
		c0.4-0.3,0.9-0.4,1.4-0.4c1.1,0,2.3,0.4,3.5,1l2.2-4.5c-1.9-0.9-3.9-1.2-5.9-1.2c-2.6,0-4.6,0.7-6,2c-1.3,1.3-2,3-2,5.1
		c0,1.8,0.6,3.2,1.8,4.1c0.8,0.5,1.9,1,3.4,1.3c1.1,0.3,1.8,0.5,2.2,0.7c0.4,0.3,0.5,0.6,0.5,1.1s-0.2,0.8-0.5,1.1S8,24.9,7.4,24.9
		c-1.6,0-3.2-0.7-5.1-2L0,27.7C2.4,29.2,4.8,30,7.3,30s4.5-0.6,6-1.8c1.8-1.3,2.6-3.2,2.6-5.6C15.8,20.7,15.2,19.3,14,18.3"/>
	<path fill="#00B7FF" d="M30.1,24.7c-0.4,0.3-1.1,0.4-1.8,0.4c-2.5,0-3.9-1.5-3.9-4.4h13.5c0-2.2-0.3-4-0.7-5.4s-1.2-2.6-2.4-3.8
		c-1.7-1.7-3.9-2.5-6.8-2.5c-4.2,0-7.1,1.6-8.7,4.7c-0.9,1.8-1.4,3.7-1.4,5.8c0,2.6,0.7,4.9,2.1,6.7c1.9,2.5,4.6,3.7,8.2,3.7
		c1.6,0,3.1-0.3,4.5-0.9c1.3-0.5,2.4-1.3,3.2-2.5c0.7-0.9,1.2-2,1.7-3.5h-6.1C31,24,30.5,24.4,30.1,24.7 M25.7,14.4
		c0.6-0.5,1.4-0.8,2.4-0.8c1,0,1.8,0.3,2.4,0.9c0.7,0.5,1.1,1.3,1.3,2.3h-7.4C24.7,15.8,25.1,15,25.7,14.4"/>
	<polygon fill="#00B7FF" points="50.3,1.3 51.8,2.3 51.8,29.3 58.2,29.3 58.2,0 50.3,0 	"/>
	<polygon fill="#00B7FF" points="39.6,0 39.6,1.3 41,2.3 41,29.3 47.4,29.3 47.4,0 47.4,0 	"/>
	<path fill="#00B7FF" d="M65.7,0.3c-1,0-1.8,0.4-2.5,1.1c-0.7,0.7-1.1,1.5-1.1,2.5c0,1.1,0.4,1.8,1.1,2.6c0.7,0.7,1.6,1.1,2.5,1.1
		c1,0,1.8-0.4,2.5-1.1c0.7-0.7,1.1-1.6,1.1-2.5S69,2,68.3,1.3C67.6,0.6,66.7,0.3,65.7,0.3"/>
	<path fill="#00B7FF" d="M105.8,24.7c-0.4,0.3-1.1,0.4-1.8,0.4c-2.5,0-3.9-1.5-3.9-4.4h13.5c0-2.2-0.3-4-0.7-5.4
		c-0.4-1.4-1.2-2.6-2.4-3.8c-1.7-1.7-3.9-2.5-6.8-2.5c-4.2,0-7.1,1.6-8.8,4.7c-0.9,1.8-1.4,3.7-1.4,5.8c0,2.6,0.7,4.9,2.1,6.7
		c1.9,2.5,4.6,3.7,8.2,3.7c1.6,0,3.1-0.3,4.5-0.9c1.3-0.5,2.4-1.3,3.2-2.5c0.7-0.9,1.2-2,1.6-3.5h-6.1
		C106.7,24,106.2,24.4,105.8,24.7 M101.4,14.4c0.6-0.5,1.4-0.8,2.5-0.8c1,0,1.8,0.3,2.4,0.9c0.6,0.5,1.1,1.3,1.3,2.3h-7.4
		C100.4,15.8,100.7,15,101.4,14.4"/>
	<polygon fill="#00B7FF" points="61.1,11.1 62.6,12.1 62.6,29.2 69,29.2 69,9.7 61.1,9.7 	"/>
	<path fill="#00B7FF" d="M134.1,11.4c-1.3-1.4-3-2.2-5.3-2.2c-1.5,0-2.7,0.4-3.8,1c-0.6,0.4-1.3,1.1-2,1.9V9.6h-7.9V11l1.5,1v17.2
		h6.4V18.7c0-1.2,0.3-2.1,0.7-2.7c0.7-0.9,1.6-1.3,2.6-1.3c0.5,0,1.1,0.2,1.6,0.4c0.4,0.3,0.8,0.6,1.1,1.1c0.3,0.5,0.4,1.6,0.4,3.1
		v9.9h6.4V16.7c0-1.3-0.1-2.4-0.4-3.2C135.1,12.8,134.7,12.1,134.1,11.4"/>
	<path fill="#00B7FF" d="M147.6,25.5c-2-0.1-2.6-1.8-2.7-3v-7.8l0,0v-1.3h4.4V8h-4.4V2.5h-6.4V8v3.3v5.3v6.7
		c0.5,5.3,4.6,6.8,8.1,6.6c1.3-0.1,1.9-0.3,3.2-0.6l0.1-3.9C149,25.5,148.8,25.5,147.6,25.5"/>
</g>
</svg>
