<?xml version="1.0"?>
<svg width="160" height="50" xmlns="http://www.w3.org/2000/svg" xmlns:svg="http://www.w3.org/2000/svg">
 <g>
  <title>Layer 1</title>
  <g stroke="null" id="svg_1">
   <path stroke="null" id="svg_2" d="m1.209242,33.540749c0.938544,0.563126 2.721777,1.126253 4.129593,1.126253c1.783233,0 2.627923,-0.750835 2.627923,-1.783233c0,-1.126253 -0.656981,-1.689379 -2.627923,-2.346359c-3.191049,-1.126253 -4.50501,-2.815631 -4.50501,-4.786573c0,-2.815631 2.346359,-5.068137 6.100535,-5.068137c1.783233,0 3.378758,0.469272 4.317301,0.938544l-0.844689,2.909486c-0.656981,-0.375418 -1.970942,-0.938544 -3.472612,-0.938544c-1.50167,0 -2.252505,0.656981 -2.252505,1.689379c0,1.032398 0.750835,1.50167 2.815631,2.252505c2.909486,1.032398 4.317301,2.534068 4.317301,4.974282c0,2.909486 -2.346359,5.068137 -6.569807,5.068137c-1.970942,0 -3.754175,-0.469272 -4.974282,-1.126253l0.938544,-2.909486z" fill="#58595B"/>
   <path stroke="null" id="svg_3" d="m17.727613,30.3497c0.093854,2.909486 2.440214,4.223447 4.974282,4.223447c1.877088,0 3.284903,-0.281563 4.50501,-0.750835l0.563126,2.815631c-1.407816,0.563126 -3.378758,1.032398 -5.631263,1.032398c-5.255845,0 -8.35304,-3.284903 -8.35304,-8.259185c0,-4.50501 2.721777,-8.728457 7.977622,-8.728457c5.255845,0 7.039078,4.317301 7.039078,7.883768c0,0.750835 -0.093854,1.407816 -0.093854,1.783233l-10.980962,0zm7.132933,-2.815631c0,-1.50167 -0.656981,-3.941884 -3.378758,-3.941884c-2.534068,0 -3.566466,2.346359 -3.754175,3.941884l7.132933,0z" fill="#58595B"/>
   <path stroke="null" id="svg_4" d="m31.618061,25.938544c0,-1.877088 0,-3.472612 -0.093854,-4.880428l3.566466,0l0.187709,2.440214l0.093854,0c0.656981,-1.313961 2.440214,-2.815631 5.161991,-2.815631c2.815631,0 5.818972,1.877088 5.818972,6.945224l0,9.667001l-4.129593,0l0,-9.103875c0,-2.346359 -0.844689,-4.129593 -3.097195,-4.129593c-1.595524,0 -2.815631,1.126253 -3.191049,2.440214c-0.093854,0.375418 -0.187709,0.844689 -0.187709,1.313961l0,9.573147l-4.129593,0l0,-11.450234z" fill="#58595B"/>
   <path stroke="null" id="svg_5" d="m65.124075,13.64362l0,19.146293c0,1.689379 0.093854,3.472612 0.093854,4.598865l-3.660321,0l-0.093854,-2.627923l-0.093854,0c-0.938544,1.783233 -2.909486,2.909486 -5.3497,2.909486c-3.84803,0 -6.945224,-3.284903 -6.945224,-8.35304c0,-5.443554 3.378758,-8.634603 7.320642,-8.634603c2.252505,0 3.84803,0.938544 4.598865,2.158651l0.093854,0l0,-9.197729l4.035738,0zm-4.035738,14.172011c0,-0.375418 0,-0.750835 -0.093854,-1.032398c-0.375418,-1.595524 -1.689379,-2.909486 -3.566466,-2.909486c-2.627923,0 -4.129593,2.346359 -4.129593,5.3497c0,3.00334 1.50167,5.161991 4.035738,5.161991c1.689379,0 3.097195,-1.126253 3.566466,-2.909486c0.093854,-0.375418 0.093854,-0.750835 0.093854,-1.220107l0,-2.440214l0.093854,0z" fill="#58595B"/>
   <path stroke="null" id="svg_6" d="m71.506173,21.058116l1.689379,7.414496c0.375418,1.783233 0.750835,3.472612 1.032398,5.255845l0.093854,0c0.375418,-1.783233 0.844689,-3.566466 1.313961,-5.255845l2.064796,-7.414496l3.378758,0l2.064796,7.226787c0.469272,1.877088 0.938544,3.660321 1.313961,5.443554l0.093854,0c0.281563,-1.783233 0.656981,-3.566466 1.032398,-5.443554l1.783233,-7.226787l4.035738,0l-5.068137,16.236808l-3.84803,0l-1.970942,-6.569807c-0.469272,-1.689379 -0.844689,-3.284903 -1.220107,-5.161991l-0.093854,0c-0.375418,1.970942 -0.750835,3.566466 -1.220107,5.161991l-2.064796,6.569807l-3.84803,0l-4.786573,-16.236808l4.223447,0z" fill="#F7931D"/>
   <path stroke="null" id="svg_7" d="m98.911652,15.332999c0,1.689379 -1.220107,3.097195 -3.284903,3.097195c-1.877088,0 -3.191049,-1.407816 -3.191049,-3.097195c0,-1.783233 1.313961,-3.097195 3.191049,-3.097195c1.970942,0 3.191049,1.313961 3.284903,3.097195z" fill="#F7931D"/>
   <rect stroke="null" id="svg_8" height="16.236808" width="4.129593" fill="#F7931D" y="21.058116" x="93.561952"/>
   <path stroke="null" id="svg_9" d="m106.232293,16.459252l0,4.598865l3.941884,0l0,3.097195l-3.941884,0l0,7.132933c0,1.970942 0.563126,3.00334 2.064796,3.00334c0.656981,0 1.220107,-0.093854 1.595524,-0.187709l0.093854,3.097195c-0.563126,0.281563 -1.689379,0.375418 -3.00334,0.375418c-1.50167,0 -2.815631,-0.469272 -3.566466,-1.313961c-0.844689,-0.938544 -1.313961,-2.440214 -1.313961,-4.50501l0,-7.602205l-2.252505,0l0,-3.097195l2.346359,0l0,-3.660321l4.035738,-0.938544z" fill="#F7931D"/>
   <path stroke="null" id="svg_10" d="m112.614391,13.64362l4.129593,0l0,9.667001l0.093854,0c0.469272,-0.750835 1.126253,-1.407816 2.064796,-1.877088c0.844689,-0.469272 1.783233,-0.750835 2.815631,-0.750835c2.815631,0 5.631263,1.877088 5.631263,7.039078l0,9.573147l-4.129593,0l0,-9.103875c0,-2.346359 -0.844689,-4.129593 -3.097195,-4.129593c-1.595524,0 -2.721777,1.032398 -3.191049,2.346359c-0.093854,0.375418 -0.187709,0.750835 -0.187709,1.220107l0,9.760855l-4.129593,0l0,-23.745158z" fill="#F7931D"/>
   <path stroke="null" id="svg_11" d="m145.557278,32.508351c0,1.970942 0.093854,3.566466 0.093854,4.880428l-3.566466,0l-0.187709,-2.440214l-0.093854,0c-0.656981,1.126253 -2.346359,2.815631 -5.161991,2.815631c-3.00334,0 -5.631263,-1.783233 -5.631263,-7.039078l0,-9.667001l4.129593,0l0,8.822312c0,2.721777 0.844689,4.411156 3.00334,4.411156c1.595524,0 2.721777,-1.126253 3.097195,-2.158651c0.093854,-0.375418 0.187709,-0.844689 0.187709,-1.220107l0,-9.85471l4.129593,0l0,11.450234z" fill="#58595B"/>
   <path stroke="null" id="svg_12" d="m149.123745,33.540749c0.938544,0.563126 2.721777,1.126253 4.129593,1.126253c1.783233,0 2.627923,-0.750835 2.627923,-1.783233c0,-1.126253 -0.656981,-1.689379 -2.627923,-2.346359c-3.191049,-1.126253 -4.50501,-2.815631 -4.50501,-4.786573c0,-2.909486 2.346359,-5.068137 6.100535,-5.068137c1.783233,0 3.378758,0.469272 4.317301,0.938544l-0.844689,2.909486c-0.656981,-0.375418 -1.970942,-0.938544 -3.472612,-0.938544c-1.50167,0 -2.252505,0.656981 -2.252505,1.689379c0,1.032398 0.750835,1.50167 2.815631,2.252505c2.909486,1.032398 4.317301,2.534068 4.317301,4.974282c0,2.909486 -2.346359,5.068137 -6.569807,5.068137c-1.970942,0 -3.754175,-0.469272 -4.974282,-1.126253l0.938544,-2.909486z" fill="#58595B"/>
  </g>
 </g>
</svg>