<?xml version="1.0"?>
<svg width="160" height="50" xmlns="http://www.w3.org/2000/svg" xmlns:svg="http://www.w3.org/2000/svg">
 <g>
  <title>Layer 1</title>
  <g stroke="null" id="svg_1">
   <polygon stroke="null" id="svg_2" points="27.7697811126709,10.92093563079834 9.293784141540527,10.92093563079834 9.293784141540527,20.158933639526367 0.0557861402630806,20.158933639526367 0.0557861402630806,38.63493061065674 18.531782150268555,38.63493061065674 18.531782150268555,29.396931648254395 27.7697811126709,29.396931648254395 " fill="#FFFFFF"/>
   <polygon stroke="null" id="svg_3" points="0.0557861402630806,20.158933639526367 0.0557861402630806,29.396931648254395 9.293784141540527,29.396931648254395 9.293784141540527,38.63493061065674 18.531782150268555,38.63493061065674 18.531782150268555,20.158933639526367 " fill="#00B3E3" opacity="0.4"/>
   <path stroke="null" id="svg_4" d="m33.010569,34.815374l3.997211,-3.197769c1.15475,1.954192 2.931288,3.108942 4.974307,3.108942c2.220673,0 3.464249,-1.421231 3.464249,-3.020115c0,-1.865365 -2.3095,-2.487153 -4.796653,-3.286596c-3.108942,-0.977096 -6.573191,-2.131846 -6.573191,-6.573191c0,-3.73073 3.197769,-6.662018 7.727941,-6.662018c3.73073,0 5.951403,1.421231 7.816768,3.375422l-3.641903,2.753634c-0.977096,-1.421231 -2.3095,-2.220673 -4.086038,-2.220673c-2.043019,0 -3.197769,1.065923 -3.197769,2.57598c0,1.776538 2.220673,2.398326 4.707826,3.197769c3.108942,0.977096 6.662018,2.398326 6.662018,6.839672c0,3.641903 -2.931288,7.194979 -7.994422,7.194979c-4.174865,0.088827 -7.017326,-1.687711 -9.060344,-4.086038zm35.441936,-11.991632l4.263692,0l0,1.776538c0.977096,-1.332404 2.57598,-2.131846 4.352518,-2.131846c3.73073,0 5.951403,2.398326 5.951403,6.484364l0,9.682133l-4.441345,0l0,-9.060344c0,-2.131846 -0.977096,-3.375422 -2.931288,-3.375422c-1.687711,0 -3.020115,1.15475 -3.020115,3.819557l0,8.61621l-4.174865,0l0,-15.811189zm15.633536,7.905595c0,-5.596095 4.086038,-8.260902 7.727941,-8.260902c2.043019,0 3.641903,0.799442 4.707826,1.865365l0,-8.793864l4.352518,0l0,23.094996l-4.352518,0l0,-1.776538c-1.065923,1.243577 -2.753634,2.131846 -4.796653,2.131846c-3.375422,0 -7.639114,-2.664807 -7.639114,-8.260902zm12.524594,0c0,-2.3095 -1.687711,-4.263692 -4.086038,-4.263692c-2.398326,0 -4.263692,1.776538 -4.263692,4.263692c0,2.398326 1.865365,4.263692 4.263692,4.263692c2.398326,0 4.086038,-1.954192 4.086038,-4.263692zm5.240787,-3.641903c0,-6.573191 4.974307,-11.902805 11.813979,-11.902805c3.464249,0 6.30671,1.243577 8.349729,3.197769c0.888269,0.799442 1.598884,1.687711 2.131846,2.753634l-3.819557,2.3095c-1.421231,-2.664807 -3.641903,-3.997211 -6.662018,-3.997211c-4.174865,0 -7.46146,3.464249 -7.46146,7.639114c0,4.263692 3.197769,7.639114 7.639114,7.639114c3.375422,0 5.773749,-1.865365 6.573191,-4.88548l-7.283806,0l0,-4.174865l11.991632,0l0,1.776538c0,6.217883 -4.441345,11.547498 -11.281017,11.547498c-7.194979,0 -11.991632,-5.507268 -11.991632,-11.902805zm24.427399,-4.263692l4.263692,0l0,2.57598c0.799442,-1.687711 2.220673,-2.57598 4.352518,-2.57598l1.776538,0l-1.598884,4.174865l-1.15475,0c-2.3095,0 -3.286596,1.243577 -3.286596,4.174865l0,7.46146l-4.352518,0l0,-15.811189zm11.547498,0l4.352518,0l0,15.811189l-4.352518,0l0,-11.636325l-1.598884,0l1.598884,-4.174865zm2.220673,-2.398326c1.421231,0 2.57598,-1.15475 2.57598,-2.57598c0,-1.421231 -1.15475,-2.57598 -2.57598,-2.57598c-1.421231,0 -2.57598,1.15475 -2.57598,2.57598c-0.088827,1.421231 1.065923,2.57598 2.57598,2.57598zm3.108942,10.303921c0,-5.596095 4.086038,-8.260902 7.727941,-8.260902c2.043019,0 3.641903,0.799442 4.707826,1.865365l0,-8.793864l4.352518,0l0,23.094996l-4.352518,0l0,-1.776538c-1.065923,1.243577 -2.753634,2.131846 -4.796653,2.131846c-3.286596,0 -7.639114,-2.664807 -7.639114,-8.260902zm12.613421,0c0,-2.3095 -1.687711,-4.263692 -4.086038,-4.263692c-2.398326,0 -4.263692,1.776538 -4.263692,4.263692c0,2.398326 1.865365,4.263692 4.263692,4.263692c2.3095,0 4.086038,-1.954192 4.086038,-4.263692zm-88.382772,0c0,-4.530172 -3.286596,-8.172075 -8.172075,-8.172075c-4.530172,0 -8.260902,3.641903 -8.260902,8.260902c0,4.530172 3.464249,8.260902 8.349729,8.260902c3.464249,0 5.862576,-1.687711 7.283806,-3.997211l-3.464249,-2.043019c-0.710615,1.421231 -2.131846,2.3095 -3.819557,2.3095c-2.3095,0 -3.73073,-1.15475 -4.174865,-2.842461l12.258113,0l0,-1.776538zm-11.991632,-1.954192c0.621788,-1.510057 2.043019,-2.487153 3.908384,-2.487153c1.865365,0 3.197769,0.888269 3.73073,2.487153l-7.639114,0z" fill="#263746"/>
   <rect stroke="null" id="svg_5" height="9.237998" width="9.237998" fill="#1A82E2" y="29.396932" x="0.055786"/>
   <polygon stroke="null" id="svg_6" points="18.531782150268555,20.158933639526367 18.531782150268555,10.92093563079834 9.293784141540527,10.92093563079834 9.293784141540527,20.158933639526367 9.293784141540527,29.396931648254395 18.531782150268555,29.396931648254395 27.7697811126709,29.396931648254395 27.7697811126709,20.158933639526367 " fill="#00B3E3"/>
   <rect stroke="null" id="svg_7" height="9.237998" width="9.237998" fill="#1A82E2" y="10.920936" x="18.531783"/>
  </g>
 </g>
</svg>