<svg width="160" height="50" xmlns="http://www.w3.org/2000/svg" xmlns:svg="http://www.w3.org/2000/svg">
 <g>
  <title>Layer 1</title>
  <g stroke="null" id="svg_1">
   <g stroke="null" id="svg_2">
    <path stroke="null" id="svg_3" d="m88.02985,15.44273l-3.05484,3.57852c-2.09474,-1.74562 -4.18949,-2.53115 -6.63336,-2.53115c-2.61843,0 -4.36405,1.13465 -4.36405,3.2294c0,2.09474 1.13465,2.96755 6.02239,4.45133c5.41142,1.74562 8.90266,4.01493 8.90266,9.51363c0,5.4987 -4.36405,9.33907 -11.60838,9.33907c-4.97502,0 -8.64082,-1.74562 -11.08469,-4.18949l3.31668,-3.6658c2.09474,1.92018 4.53861,3.05484 7.59345,3.05484s5.14958,-1.48378 5.14958,-4.10221c0,-2.35659 -1.13465,-3.40396 -5.76055,-4.80046c-6.54608,-2.00746 -9.07723,-4.62589 -9.07723,-9.16451c0,-5.14958 4.45133,-8.46626 10.47372,-8.46626c4.53861,0 7.59345,1.30922 10.1246,3.75308z" fill="#0675C1"/>
    <path stroke="null" id="svg_4" d="m99.72551,17.01379l0,8.46626l8.98995,0l0,4.71318l-8.98995,0l0,12.21934l-6.37151,0l0,-30.02467l17.4562,0l-0.69825,4.62589l-10.38644,0z" fill="#0675C1"/>
    <path stroke="null" id="svg_5" d="m126.08438,17.36291l0,25.04965l-6.37151,0l0,-25.04965l-7.94257,0l0,-4.97502l22.69307,0l-0.69825,4.97502l-7.68073,0z" fill="#0675C1"/>
    <path stroke="null" id="svg_6" d="m159.25117,22.07608c0,6.98248 -4.97502,10.1246 -11.78294,10.1246l-3.40396,0l0,10.21188l-6.37151,0l0,-30.02467l9.25179,0c7.68073,0 12.30662,3.14212 12.30662,9.68819zm-6.54608,0c0,-3.49124 -2.09474,-5.0623 -5.84783,-5.0623l-2.79299,0l0,10.47372l2.88027,0c3.49124,0 5.76055,-1.3965 5.76055,-5.41142z" fill="#0675C1"/>
   </g>
   <path stroke="null" id="svg_7" d="m49.01523,43.98362l-46.86991,0c-0.78553,0 -1.3965,-0.61097 -1.3965,-1.3965l0,-35.17425c0,-0.78553 0.61097,-1.3965 1.3965,-1.3965l11.34653,0c0.43641,0 0.78553,0.17456 1.04737,0.52369l1.74562,3.49124c0.26184,0.34912 0.69825,0.52369 1.13465,0.52369l31.59573,-0.43641c0.78553,0 1.48378,0.61097 1.48378,1.3965l0,30.98476c0,0.87281 -0.69825,1.48378 -1.48378,1.48378z" fill="#0675C1"/>
  </g>
 </g>
</svg>