<?xml version="1.0"?>
<svg width="160" height="50" xmlns="http://www.w3.org/2000/svg" xmlns:svg="http://www.w3.org/2000/svg">
 <g>
  <title>Layer 1</title>
  <g stroke="null" id="svg_1">
   <path stroke="null" id="svg_2" d="m99.738582,34.027362l-2.52579,0c-0.748382,0 -1.309669,-0.467739 -1.309669,-1.309669l0,-15.24829c0,-0.748382 0.467739,-1.309669 1.309669,-1.309669l2.52579,0c0.748382,0 1.309669,0.467739 1.309669,1.309669l0,15.24829c0,0.748382 -0.561287,1.309669 -1.309669,1.309669z" fill="#3B474F"/>
   <path stroke="null" id="svg_3" d="m99.738582,14.850065l-2.52579,0c-0.748382,0 -1.309669,-0.467739 -1.309669,-1.309669l0,-2.52579c0,-0.748382 0.467739,-1.309669 1.309669,-1.309669l2.52579,0c0.748382,0 1.309669,0.467739 1.309669,1.309669l0,2.52579c0,0.84193 -0.561287,1.309669 -1.309669,1.309669z" fill="#3B474F"/>
   <path stroke="null" id="svg_4" d="m87.016082,16.159734c-2.712886,0 -3.835459,2.058051 -3.835459,2.058051l0,-7.109632c0,-0.748382 -0.467739,-1.309669 -1.309669,-1.309669l-2.52579,0c-0.748382,0 -1.309669,0.467739 -1.309669,1.309669l0,21.703088c0,0.748382 0.467739,1.309669 1.309669,1.309669l2.52579,0c0.748382,0 1.309669,-0.467739 1.309669,-1.309669l0,-6.36125l0,-3.929007c0,-1.403217 1.122573,-2.52579 2.52579,-2.52579s2.52579,1.122573 2.52579,2.52579l0,10.196709c0,0.748382 0.467739,1.309669 1.309669,1.309669l2.52579,0c0.748382,0 1.309669,-0.467739 1.309669,-1.309669l0,-8.88704c0,-4.209651 -0.935478,-7.670919 -6.36125,-7.670919z" fill="#3B474F"/>
   <path stroke="null" id="svg_5" d="m67.932332,33.840266c-5.238676,0 -7.390276,-2.899982 -7.483823,-4.864485c0,-0.374191 0,-0.654835 0.280643,-0.935478c0.280643,-0.280643 0.654835,-0.374191 0.935478,-0.374191l2.806434,0c0.467739,0 0.935478,0.374191 1.029026,0.748382c0.280643,0.748382 0.935478,1.777408 2.52579,1.777408c0.654835,0 2.712886,0 2.712886,-1.403217c0,-1.496765 -2.151599,-1.870956 -3.835459,-2.338695c-0.467739,-0.093548 -1.029026,-0.280643 -1.403217,-0.280643l-0.654835,0.093548c-2.338695,-0.748382 -4.490294,-1.403217 -4.490294,-4.864485c0,-3.180625 2.712886,-4.958033 7.483823,-4.958033c5.893511,0 7.109632,2.899982 7.390276,4.67739c0,0.374191 0,0.748382 -0.280643,1.029026c-0.280643,0.280643 -0.467739,0.374191 -0.935478,0.374191l-2.712886,0c-0.467739,0 -0.935478,-0.374191 -1.029026,-0.748382c-0.280643,-0.748382 -0.935478,-1.777408 -2.52579,-1.777408c-2.151599,0 -2.712886,0.748382 -2.712886,1.403217c0,1.122573 1.496765,1.403217 3.274173,1.777408c3.087077,0.654835 6.922537,1.403217 6.922537,5.893511c0.187096,1.777408 -1.309669,4.770937 -7.296728,4.770937z" fill="#3B474F"/>
   <path stroke="null" id="svg_6" d="m150.722128,16.253282c-5.51932,0 -8.793492,3.274173 -8.793492,8.793492s3.274173,8.793492 8.793492,8.793492c5.51932,0 8.793492,-3.274173 8.793492,-8.793492s-3.274173,-8.793492 -8.793492,-8.793492zm0,13.938621c-2.52579,0 -3.835459,-2.338695 -3.835459,-5.051581s1.309669,-5.051581 3.835459,-5.051581c2.52579,0 3.835459,2.338695 3.835459,5.051581s-1.309669,5.051581 -3.835459,5.051581z" fill="#3B474F"/>
   <path stroke="null" id="svg_7" d="m132.8545,16.159734c-3.741912,0 -4.958033,2.52579 -5.051581,2.52579l0,0l0,-1.309669c0,-0.748382 -0.467739,-1.309669 -1.309669,-1.309669l-2.52579,0c-0.748382,0 -1.309669,0.467739 -1.309669,1.309669l0,21.703088c0,0.748382 0.467739,1.309669 1.309669,1.309669l2.52579,0c0.748382,0 1.309669,-0.467739 1.309669,-1.309669l0,-7.670919l0,0l0,0c0,0 1.496765,2.52579 5.051581,2.52579c4.583842,0 7.670919,-3.461268 7.670919,-8.88704c0,-5.145129 -3.180625,-8.88704 -7.670919,-8.88704zm-1.216121,14.032169c-2.52579,0 -3.835459,-2.338695 -3.835459,-5.051581s1.309669,-5.051581 3.835459,-5.051581c2.52579,0 3.835459,2.338695 3.835459,5.051581s-1.309669,5.051581 -3.835459,5.051581z" fill="#3B474F"/>
   <path stroke="null" id="svg_8" d="m113.77075,16.159734c-3.741912,0 -4.958033,2.52579 -5.051581,2.52579l0,0l0,-1.309669c0,-0.748382 -0.467739,-1.309669 -1.309669,-1.309669l-2.52579,0c-0.748382,0 -1.309669,0.467739 -1.309669,1.309669l0,21.703088c0,0.748382 0.467739,1.309669 1.309669,1.309669l2.52579,0c0.748382,0 1.309669,-0.467739 1.309669,-1.309669l0,-7.670919l0,0l0,0c0,0 1.496765,2.52579 5.051581,2.52579c4.583842,0 7.670919,-3.461268 7.670919,-8.88704c0,-5.145129 -3.180625,-8.88704 -7.670919,-8.88704zm-1.309669,14.032169c-2.52579,0 -3.835459,-2.338695 -3.835459,-5.051581s1.309669,-5.051581 3.835459,-5.051581c2.52579,0 3.835459,2.338695 3.835459,5.051581s-1.216121,5.051581 -3.835459,5.051581z" fill="#3B474F"/>
   <path stroke="null" id="svg_9" d="m52.590495,19.995193c0,-5.612867 -4.583842,-10.196709 -10.196709,-10.196709c-4.864485,0 -6.36125,1.870956 -11.506378,2.52579c-3.087077,0.374191 -2.899982,-1.309669 -6.36125,-1.309669c-2.52579,0 -5.051581,1.309669 -5.051581,1.309669s-2.432243,-2.899982 -3.835459,-2.52579c-1.870956,0.654835 0,6.36125 0,6.36125s-1.309669,2.52579 -3.835459,5.051581c-1.870956,1.870956 -6.36125,2.899982 -8.699945,3.554816c0.187096,-11.693474 9.72897,-21.235349 21.422444,-21.235349c5.051581,0 9.822518,1.777408 13.470882,4.864485c0.935478,-0.280643 2.058051,-0.374191 3.180625,-0.467739c-4.209651,-4.209651 -10.103161,-6.922537 -16.745055,-6.922537c-13.096691,0 -23.948235,10.851544 -23.948235,24.041782s10.851544,23.948235 24.041782,23.948235c11.599926,0 21.235349,-8.138658 23.480496,-19.083749c-1.029026,0.467739 -2.058051,1.029026 -3.087077,1.496765c-2.712886,8.419301 -10.290257,14.687003 -19.645036,15.061194c1.309669,-2.151599 4.209651,-6.267702 8.04511,-9.916066c8.606397,-8.138658 19.270845,-6.922537 19.270845,-16.557959zm-26.099834,-1.309669c-1.029026,0 -1.870956,-0.935478 -1.870956,-1.870956s0.935478,-1.870956 1.870956,-1.870956s1.870956,0.935478 1.870956,1.870956s-0.84193,1.870956 -1.870956,1.870956z" fill="#3B474F"/>
  </g>
 </g>
</svg>