<svg width="160" height="50" xmlns="http://www.w3.org/2000/svg" xmlns:svg="http://www.w3.org/2000/svg">
 <g>
  <title>Layer 1</title>
  <g stroke="null" id="svg_1">
   <g stroke="null" id="svg_2">
    <g stroke="null" id="svg_3">
     <path stroke="null" id="svg_4" d="m45.90145,30.01579l0.96796,-1.40794c0.79197,0.96796 2.3759,1.75993 4.13582,1.75993c1.93592,0 2.90388,-0.87996 2.90388,-2.11191c0,-2.99187 -7.74367,-1.14395 -7.74367,-5.71976c0,-1.93592 1.67193,-3.51985 4.6638,-3.51985c2.11191,0 3.60785,0.79197 4.57581,1.75993l-0.87996,1.31994c-0.70397,-0.87996 -2.11191,-1.58393 -3.69584,-1.58393c-1.67193,0 -2.72788,0.87996 -2.72788,1.93592c0,2.72788 7.74367,0.87996 7.74367,5.71976c0,2.11191 -1.67193,3.69584 -4.92779,3.69584c-2.11191,0.088 -3.78384,-0.52798 -5.01579,-1.84792z" fill="#242E3A"/>
     <path stroke="null" id="svg_5" d="m67.28454,31.68772l0,-8.18365c0,-2.19991 -1.14395,-2.81588 -2.81588,-2.81588c-1.49594,0 -2.90388,0.87996 -3.69584,1.93592l0,9.06362l-1.93592,0l0,-17.15927l1.93592,0l0,6.51172c0.87996,-1.05596 2.55189,-2.11191 4.48781,-2.11191c2.55189,0 3.95983,1.31994 3.95983,3.95983l0,8.71163l-1.93592,0.088l0,0z" fill="#242E3A"/>
     <path stroke="null" id="svg_6" d="m72.74031,16.20037c0,-0.70397 0.61597,-1.31994 1.31994,-1.31994c0.70397,0 1.31994,0.61597 1.31994,1.31994s-0.61597,1.31994 -1.31994,1.31994c-0.70397,-0.088 -1.31994,-0.61597 -1.31994,-1.31994zm0.35199,15.48734l0,-12.40747l1.93592,0l0,12.40747c0.088,0 -1.93592,0 -1.93592,0z" fill="#242E3A"/>
     <path stroke="null" id="svg_7" d="m80.83596,29.7518l0,6.59972l-1.93592,0l0,-17.07127l1.93592,0l0,1.84792c0.87996,-1.31994 2.4639,-2.11191 4.22382,-2.11191c3.25586,0 5.54376,2.4639 5.54376,6.51172s-2.2879,6.51172 -5.54376,6.51172c-1.75993,-0.088 -3.25586,-0.87996 -4.22382,-2.2879zm7.65567,-4.31182c0,-2.72788 -1.49594,-4.7518 -3.95983,-4.7518c-1.49594,0 -3.07987,0.87996 -3.69584,1.93592l0,5.63176c0.70397,1.14395 2.19991,2.02391 3.69584,2.02391c2.4639,0 3.95983,-2.11191 3.95983,-4.83979z" fill="#242E3A"/>
    </g>
    <g stroke="null" id="svg_8">
     <path stroke="null" id="svg_9" d="m102.65903,24.47202c0,-1.49594 -0.79197,-2.02391 -2.11191,-2.02391c-1.14395,0 -1.93592,0.70397 -2.3759,1.23195l0,8.00766l-3.95983,0l0,-17.15927l3.95983,0l0,6.15974c0.70397,-0.87996 2.19991,-1.84792 4.31182,-1.84792c2.81588,0 4.13582,1.58393 4.13582,3.87184l0,8.88762l-3.95983,0l0,-7.1277l0,0z" fill="#242E3A"/>
     <path stroke="null" id="svg_10" d="m115.2425,18.92826c3.69584,0 6.33573,2.72788 6.33573,6.9517l0,0.87996l-8.88762,0c0.26399,1.14395 1.31994,2.19991 3.16787,2.19991c1.14395,0 2.2879,-0.43998 3.07987,-1.05596l1.67193,2.3759c-1.23195,1.14395 -3.34386,1.67193 -5.19178,1.67193c-3.87184,0 -6.77571,-2.55189 -6.77571,-6.51172c0,-3.60785 2.72788,-6.51172 6.59972,-6.51172zm-2.55189,5.19178l5.10378,0c-0.088,-0.87996 -0.70397,-2.11191 -2.55189,-2.11191c-1.75993,0 -2.3759,1.23195 -2.55189,2.11191z" fill="#242E3A"/>
     <path stroke="null" id="svg_11" d="m123.51415,19.28024l3.95983,0l0,1.58393c0.79197,-0.96796 2.3759,-1.93592 3.87184,-1.93592l0,3.87184c-0.26399,-0.088 -0.52798,-0.088 -0.96796,-0.088c-1.05596,0 -2.3759,0.43998 -2.90388,1.14395l0,7.91966l-3.87184,0l0,-12.49547l-0.088,0z" fill="#242E3A"/>
     <path stroke="null" id="svg_12" d="m132.31377,25.43998c0,-3.51985 2.55189,-6.51172 6.77571,-6.51172c4.31182,0 6.77571,2.99187 6.77571,6.51172s-2.55189,6.51172 -6.77571,6.51172c-4.13582,0 -6.77571,-3.07987 -6.77571,-6.51172zm9.5036,0c0,-1.67193 -0.96796,-2.99187 -2.72788,-2.99187c-1.67193,0 -2.72788,1.31994 -2.72788,2.99187c0,1.67193 0.96796,3.07987 2.72788,3.07987c1.75993,0 2.72788,-1.40794 2.72788,-3.07987z" fill="#242E3A"/>
    </g>
    <g stroke="null" id="svg_13">
     <path stroke="null" id="svg_14" d="m151.40896,15.5844l-1.23195,0l0,-0.96796l3.60785,0l0,0.96796l-1.23195,0l0,3.43185l-1.14395,0l0,-3.43185z" fill="#242E3A"/>
     <path stroke="null" id="svg_15" d="m158.18468,16.02438l-1.14395,2.99187l-0.52798,0l-1.14395,-2.99187l0,2.99187l-1.14395,0l0,-4.39981l1.58393,0l0.87996,2.55189l0.87996,-2.55189l1.58393,0l0,4.39981l-1.14395,0l0.17599,-2.99187l0,0z" fill="#242E3A"/>
    </g>
   </g>
   <path stroke="null" id="svg_16" d="m21.43848,1.85698c-0.43998,0 -0.87996,0 -1.31994,0c-5.54376,3.34386 -10.99953,6.59972 -16.5433,9.94358c-0.87996,0.52798 -1.84792,1.23195 -2.72788,1.93592l0,22.61504c5.19178,3.16787 10.47156,6.33573 15.66333,9.5036c1.23195,0.70397 2.3759,1.49594 3.51985,2.2879c0.43998,0 0.87996,0 1.31994,0c6.42373,-3.87184 12.93545,-7.74367 19.18319,-11.43951l0,-23.40701l-19.09519,-11.43951z" fill="#F05353"/>
   <path stroke="null" id="svg_17" d="m35.60588,23.15208c0,-2.55189 0,-4.39981 0,-6.9517c-4.48781,-2.55189 -9.15161,-5.36777 -13.99141,-7.91966c-0.70397,-0.35199 -2.02391,0.088 -2.81588,0.61597c-3.51985,1.93592 -6.9517,3.87184 -10.29556,5.98375c-3.51985,2.11191 -3.51985,4.92779 0,6.9517c2.11191,1.23195 4.13582,2.4639 6.24773,3.60785c0,0 5.89575,3.43185 8.71163,5.10378c0.70397,0.35199 1.23195,0.87996 2.11191,1.58393c-1.75993,1.14395 -3.25586,1.93592 -4.92779,2.99187c-4.92779,-2.90388 -9.67959,-5.54376 -14.78337,-8.53564c0,2.55189 0,4.39981 0,6.9517c4.48781,2.55189 9.15161,5.36777 13.99141,7.91966c0.70397,0.35199 2.02391,-0.088 2.81588,-0.61597c3.51985,-1.93592 6.9517,-3.87184 10.29556,-5.98375c3.51985,-2.11191 3.51985,-4.92779 0,-6.9517c-2.11191,-1.23195 -6.33573,-3.60785 -6.33573,-3.60785c-2.90388,-1.67193 -5.71976,-3.43185 -8.62363,-5.10378c-0.70397,-0.35199 -1.23195,-0.87996 -2.11191,-1.58393c1.75993,-1.14395 3.25586,-1.93592 4.92779,-2.99187c4.92779,2.81588 9.59159,5.63176 14.78337,8.53564z" fill="#FFFFFF"/>
  </g>
 </g>
</svg>