<?xml version="1.0"?>
<svg width="160" height="50" xmlns="http://www.w3.org/2000/svg" xmlns:svg="http://www.w3.org/2000/svg">
 <g>
  <title>Layer 1</title>
  <g stroke="null" id="Layer_1_1_">
   <g stroke="null" id="svg_1">
    <path stroke="null" id="svg_2" d="m20.760264,18.081914c0,0 -1.046433,-0.697622 -3.48811,-0.697622c-6.046058,0 -9.069086,3.953192 -9.069086,8.255194c0,4.883354 4.883354,5.115895 4.883354,8.138924c0,0.697622 -0.465081,1.744055 -1.860325,1.744055c-1.860325,0 -4.185732,-1.976596 -4.185732,-1.976596l-1.162703,3.953192c0,0 2.209136,2.674218 6.627409,2.674218c3.604381,0 6.278598,-2.674218 6.278598,-6.97622c0,-5.464706 -6.046058,-6.278598 -6.046058,-8.604005c0,-0.348811 0.11627,-2.092866 2.790488,-2.092866c1.860325,0 3.25557,0.813892 3.25557,0.813892l1.976596,-5.232165zm34.41602,9.417897c-1.395244,-0.697622 -2.092866,-1.395244 -2.092866,-2.209136c0,-1.046433 1.046433,-1.860325 2.557947,-1.860325c1.860325,0 3.37184,0.697622 3.37184,0.697622l1.278974,-3.836921c0,0 -1.162703,-0.930163 -4.534543,-0.930163c-4.650814,0 -8.022653,2.674218 -8.022653,6.511139c0,2.209136 1.511514,3.836921 3.604381,4.999625c1.627785,0.930163 2.209136,1.627785 2.209136,2.557947s-0.813892,1.860325 -2.325407,1.860325c-2.325407,0 -4.418273,-1.162703 -4.418273,-1.162703l-1.278974,3.836921c0,0 1.976596,1.278974 5.348436,1.278974c4.883354,0 8.255194,-2.441677 8.255194,-6.74368c0,-2.092866 -1.860325,-3.720651 -3.953192,-4.999625zm19.300876,-8.022653c-2.441677,0 -4.302003,1.046433 -5.697247,2.906758l-0.11627,0l2.092866,-10.813142l-5.348436,0l-5.232165,27.672341l5.464706,0l1.860325,-9.417897c0.697622,-3.604381 2.557947,-5.813517 4.302003,-5.813517c1.162703,0 1.744055,0.813892 1.744055,1.976596c0,0.697622 -0.11627,1.627785 -0.232541,2.441677l-2.092866,10.813142l5.464706,0l2.092866,-11.161953c0.232541,-1.162703 0.348811,-2.557947 0.348811,-3.48811c-0.11627,-3.25557 -1.744055,-5.115895 -4.650814,-5.115895zm24.06796,7.557572c0,6.74368 -4.302003,12.440926 -10.696871,12.440926c-4.883354,0 -7.441302,-3.37184 -7.441302,-7.557572c0,-6.511139 4.302003,-12.440926 10.813142,-12.440926c4.999625,0 7.325031,3.720651 7.325031,7.557572zm-5.464706,-0.11627c0,-1.627785 -0.581352,-3.25557 -2.557947,-3.25557c-2.906758,0 -4.534543,5.115895 -4.534543,8.138924c0,1.976596 0.813892,3.48811 2.557947,3.48811c2.906758,0 4.534543,-5.115895 4.534543,-8.371464zm24.881853,-0.581352c0,6.627409 -4.185732,13.138548 -10.464331,13.138548c-2.092866,0 -3.25557,-0.697622 -3.25557,-0.697622l-0.11627,0l-1.511514,8.022653l-5.464706,0l3.836921,-19.882228c0.348811,-2.209136 0.930163,-5.232165 1.046433,-7.208761l4.767084,0l-0.348811,2.906758l0.11627,0c0,0 2.092866,-3.25557 5.697247,-3.25557c4.069462,0.11627 5.697247,3.37184 5.697247,6.97622zm-5.580976,0.581352c0,-1.395244 -0.465081,-3.023029 -2.209136,-3.023029c-1.860325,0 -3.604381,2.209136 -4.302003,5.580976l-0.930163,5.115895c0,0 0.813892,0.813892 2.209136,0.813892c3.139299,0 5.232165,-4.999625 5.232165,-8.487735zm13.254819,-15.231414c-1.744055,0 -3.139299,1.395244 -3.139299,3.139299c0,1.627785 1.046433,2.674218 2.557947,2.674218l0.11627,0c1.744055,0 3.139299,-1.046433 3.25557,-3.139299c0,-1.511514 -1.046433,-2.674218 -2.790488,-2.674218zm-7.441302,27.4398l5.464706,0l3.720651,-19.184606l-5.464706,0l-3.720651,19.184606zm22.788987,-19.300876l-3.836921,0l0.232541,-0.930163c0.348811,-1.860325 1.395244,-3.48811 3.25557,-3.48811c1.046433,0 1.744055,0.348811 1.744055,0.348811l1.046433,-4.185732c0,0 -0.930163,-0.465081 -2.906758,-0.465081c-1.860325,0 -3.836921,0.465081 -5.348436,1.860325c-1.860325,1.627785 -2.674218,3.836921 -3.139299,6.162328l-0.232541,0.930163l-2.441677,0l-0.813892,4.069462l2.557947,0l-2.906758,15.115144l5.464706,0l2.906758,-15.115144l3.720651,0l0.697622,-4.302003zm13.022278,0c0,0 -3.37184,8.487735 -4.883354,13.254819l-0.11627,0c-0.11627,-1.511514 -1.278974,-13.254819 -1.278974,-13.254819l-5.697247,0l3.25557,17.673092c0.11627,0.348811 0,0.581352 -0.11627,0.930163c-0.581352,1.162703 -1.744055,2.441677 -2.906758,3.25557c-1.046433,0.697622 -2.209136,1.162703 -3.139299,1.511514l1.511514,4.650814c1.046433,-0.232541 3.37184,-1.046433 5.348436,-2.906758c2.557947,-2.325407 4.650814,-5.929787 7.092491,-10.696871l6.627409,-14.184981l-5.697247,-0.232541l0,0z"/>
    <path stroke="null" id="svg_3" d="m34.596434,10.873153c0,-0.232541 -0.232541,-0.348811 -0.348811,-0.348811c-0.232541,0 -3.604381,-0.348811 -3.604381,-0.348811s-2.441677,-2.441677 -2.557947,-2.557947c-0.348811,-0.348811 -0.813892,-0.232541 -1.046433,-0.11627c0,0 -0.465081,0.232541 -1.278974,0.348811c-0.813892,-2.325407 -2.209136,-4.418273 -4.650814,-4.418273c-0.11627,0 -0.11627,0 -0.232541,0c-0.813892,-0.930163 -1.744055,-1.278974 -2.441677,-1.278974c-5.697247,0 -8.487735,7.208761 -9.301627,10.813142c-2.209136,0.697622 -3.836921,1.162703 -3.953192,1.162703c-1.162703,0.348811 -1.278974,0.348811 -1.395244,1.627785c-0.232541,0.930163 -3.48811,26.160826 -3.48811,26.160826l25.463204,4.767084l13.7199,-3.023029c0,0 -4.883354,-32.555695 -4.883354,-32.788236zm-10.34806,-2.557947c-0.581352,0.232541 -1.395244,0.348811 -2.092866,0.697622c0,-0.232541 0,-0.348811 0,-0.465081c0,-1.395244 -0.232541,-2.557947 -0.465081,-3.48811c1.162703,0.11627 2.092866,1.627785 2.557947,3.25557zm-4.185732,-2.906758c0.348811,0.930163 0.581352,2.209136 0.581352,3.953192c0,0.11627 0,0.232541 0,0.232541c-1.395244,0.348811 -2.906758,0.930163 -4.418273,1.395244c0.813892,-3.48811 2.441677,-4.999625 3.836921,-5.580976zm-1.744055,-1.744055c0.232541,0 0.465081,0.11627 0.697622,0.232541c-1.860325,0.930163 -3.836921,3.023029 -4.650814,7.441302c-1.162703,0.348811 -2.441677,0.697622 -3.48811,1.046433c0.930163,-3.37184 3.25557,-8.720275 7.441302,-8.720275z" fill="#94BE47"/>
    <path stroke="null" id="svg_4" d="m34.131353,10.408072c-0.232541,0 -3.604381,-0.348811 -3.604381,-0.348811s-2.441677,-2.441677 -2.557947,-2.557947c-0.11627,-0.11627 -0.232541,-0.11627 -0.348811,-0.232541l-1.860325,39.299375l13.7199,-3.023029c0,0 -4.767084,-32.671965 -4.883354,-32.904506c0,-0.11627 -0.232541,-0.232541 -0.465081,-0.232541z" fill="#5F8D3E"/>
    <path stroke="null" id="svg_5" d="m20.876534,18.081914l-1.627785,4.999625c0,0 -1.511514,-0.813892 -3.25557,-0.813892c-2.674218,0 -2.790488,1.744055 -2.790488,2.092866c0,2.325407 6.046058,3.25557 6.046058,8.604005c0,4.185732 -2.674218,6.97622 -6.278598,6.97622c-4.418273,0 -6.627409,-2.674218 -6.627409,-2.674218l1.162703,-3.953192c0,0 2.325407,1.976596 4.185732,1.976596c1.278974,0 1.860325,-1.046433 1.860325,-1.744055c0,-3.023029 -4.883354,-3.139299 -4.883354,-8.138924c0,-4.185732 3.023029,-8.255194 9.069086,-8.255194c2.092866,0.232541 3.139299,0.930163 3.139299,0.930163z" fill="#FFFFFF"/>
   </g>
  </g>
 </g>
</svg>