<?xml version="1.0"?>
<svg width="160" height="50" xmlns="http://www.w3.org/2000/svg" xmlns:svg="http://www.w3.org/2000/svg">
 <g>
  <title>Layer 1</title>
  <g stroke="null" id="svg_1">
   <path stroke="null" id="svg_2" d="m0.396873,41.247338l2.472421,-3.002225c1.766015,1.412812 3.53203,2.295819 5.739549,2.295819c1.766015,0 2.737323,-0.706406 2.737323,-1.766015l0,0c0,-1.059609 -0.618105,-1.589413 -3.885233,-2.472421c-3.796932,-0.971308 -6.357654,-2.119218 -6.357654,-5.91615l0,0c0,-3.53203 2.825624,-5.827849 6.710857,-5.827849c2.825624,0 5.209744,0.883007 7.15236,2.472421l-2.207519,3.178827c-1.677714,-1.14791 -3.355428,-1.854316 -5.033143,-1.854316c-1.589413,0 -2.472421,0.794707 -2.472421,1.677714l0,0c0,1.324511 0.883007,1.677714 4.150135,2.560722c3.885233,0.971308 6.092752,2.38412 6.092752,5.739549l0,0c0,3.796932 -2.913925,6.004451 -7.06406,6.004451c-2.825624,-0.088301 -5.739549,-1.059609 -8.035368,-3.090526l0,0zm17.836751,-16.423939l7.858766,0c4.591639,0 7.417263,2.737323 7.417263,6.622556l0,0c0,4.415037 -3.443729,6.799157 -7.770466,6.799157l-3.267128,0l0,5.739549l-4.238436,0l0,-19.161262l0,0zm7.505563,9.624781c2.119218,0 3.355428,-1.324511 3.355428,-2.913925l0,0c0,-1.854316 -1.324511,-2.913925 -3.443729,-2.913925l-3.267128,0l0,5.91615l3.355428,0l0,-0.088301zm13.686616,-9.801383l3.885233,0l8.211969,19.337864l-4.415037,0l-1.766015,-4.326737l-8.123669,0l-1.766015,4.326737l-4.326737,0l8.30027,-19.337864l0,0zm4.415037,11.302496l-2.560722,-6.269353l-2.560722,6.269353l5.121443,0l0,0zm9.713082,-11.125894l8.741774,0c2.472421,0 4.326737,0.706406 5.651248,1.942616c1.059609,1.059609 1.677714,2.560722 1.677714,4.415037l0,0c0,3.090526 -1.677714,5.033143 -4.150135,6.004451l4.67994,6.799157l-4.944842,0l-4.150135,-6.092752l-3.267128,0l0,6.092752l-4.238436,0l0,-19.161262l0,0zm8.476872,9.271578c2.030917,0 3.267128,-1.059609 3.267128,-2.737323l0,0c0,-1.766015 -1.324511,-2.737323 -3.355428,-2.737323l-4.150135,0l0,5.562947l4.238436,0l0,-0.088301zm30.110555,-9.271578l6.975759,0c4.238436,0 7.15236,2.207519 7.15236,5.91615l0,0c0,4.061834 -3.53203,6.092752 -7.505563,6.092752l-5.209744,0l0,7.15236l-1.412812,0l0,-19.161262l0,0zm6.622556,10.68439c3.53203,0 6.004451,-1.854316 6.004451,-4.76824l0,0c0,-3.090526 -2.38412,-4.67994 -5.827849,-4.67994l-5.474646,0l0,9.44818l5.298045,0l0,0zm30.375457,5.739549l0.883007,-1.059609c2.119218,1.942616 4.061834,2.825624 6.887458,2.825624c2.913925,0 4.856541,-1.589413 4.856541,-3.796932l0,0c0,-2.030917 -1.059609,-3.178827 -5.474646,-4.061834c-4.591639,-0.883007 -6.534255,-2.472421 -6.534255,-5.386346l0,0c0,-2.825624 2.649022,-5.033143 6.181052,-5.033143c2.825624,0 4.67994,0.794707 6.534255,2.295819l-0.883007,1.14791c-1.766015,-1.589413 -3.620331,-2.207519 -5.739549,-2.207519c-2.825624,0 -4.67994,1.589413 -4.67994,3.620331l0,0c0,2.030917 1.059609,3.267128 5.651248,4.238436c4.415037,0.883007 6.357654,2.472421 6.357654,5.298045l0,0c0,3.090526 -2.649022,5.209744 -6.357654,5.209744c-3.090526,-0.088301 -5.386346,-1.059609 -7.682165,-3.090526l0,0zm22.340089,-15.187728l-6.710857,0l0,-1.324511l14.834525,0l0,1.324511l-6.710857,0l0,17.925052l-1.412812,0l0,-17.925052l0,0zm-74.702432,6.799157l6.622556,-8.123669l5.209744,0l-7.858766,9.183278l8.388571,10.066285l-5.474646,0l-6.975759,-8.653473l0,8.653473l-4.238436,0l0,-19.249563l4.238436,0l0,8.123669l0.088301,0z" fill="#55555A"/>
   <path stroke="null" id="svg_3" d="m124.724325,20.408361c-2.119218,1.589413 -2.560722,4.415037 -2.649022,6.357654c-3.355428,-3.885233 6.269353,-15.452631 -4.67994,-22.51669c6.799157,8.741774 -9.624781,17.483548 -9.624781,30.375457c0,5.121443 3.178827,9.536481 10.154586,11.125894c6.799157,-1.412812 10.242887,-6.004451 10.242887,-11.125894c-0.088301,-7.593864 -4.856541,-10.066285 -3.443729,-14.21642l0,0zm-6.799157,21.192179c-3.708631,0 -6.710857,-3.002225 -6.710857,-6.710857s3.002225,-6.710857 6.710857,-6.710857c3.708631,0 6.710857,3.002225 6.710857,6.710857s-3.090526,6.710857 -6.710857,6.710857l0,0z" fill="#FA6423"/>
  </g>
 </g>
</svg>