<svg xmlns="http://www.w3.org/2000/svg" width="200" height="225" viewBox="0 0 200 225" version="1.1"><path d="M 137.665 16.250 C 140.888 27.112, 148.129 37.516, 156.469 43.265 L 159.500 45.355 157.412 42.928 C 151.962 36.593, 147.679 26.282, 146.467 16.583 L 145.770 11 140.939 11 L 136.108 11 137.665 16.250 M 186 75.013 L 186 89.287 178.750 88.620 C 174.762 88.253, 168.575 87.239, 165 86.366 C 158.077 84.676, 143.891 78.483, 139.054 75.039 L 136.135 72.960 135.799 115.730 L 135.464 158.500 132.550 166.901 C 119.121 205.609, 76.530 223.578, 40.126 205.895 L 32.500 202.191 37 206.136 C 42.615 211.060, 55.436 217.468, 64 219.632 C 72.521 221.786, 87.562 221.750, 96 219.557 C 108.301 216.359, 116.638 211.440, 126.539 201.539 C 133.502 194.576, 136.421 190.777, 139.247 185 C 145.702 171.804, 145.969 169.359, 145.985 123.250 C 145.993 100.563, 146.268 82, 146.596 82 C 146.923 82, 148.463 82.905, 150.016 84.012 C 159.261 90.594, 177.335 96.602, 189.629 97.178 L 196.500 97.500 196.773 79.750 C 197.026 63.325, 196.914 61.999, 195.273 61.989 C 194.298 61.983, 191.813 61.699, 189.750 61.358 L 186 60.738 186 75.013 M 78 102.750 L 78 116.500 69.250 116.514 C 61.706 116.526, 59.794 116.899, 55.377 119.217 C 49.003 122.562, 42.646 129.655, 40.575 135.734 C 36.022 149.097, 40.941 164.306, 52.108 171.390 L 54.716 173.044 52.108 167.774 C 49.997 163.509, 49.500 161.074, 49.500 155.002 C 49.500 142.154, 55.664 132.790, 67.769 127.248 C 72.347 125.152, 74.288 124.847, 81.065 125.154 L 89 125.515 89 107.257 L 89 89 83.500 89 L 78 89 78 102.750" stroke="none" fill="#ff004e" fill-rule="evenodd"/><path d="M 110.488 12.220 C 110.229 12.924, 109.900 47.250, 109.758 88.500 L 109.500 163.500 106.797 168.623 C 103.431 175.005, 96.337 181.356, 90.266 183.425 C 78.960 187.277, 67.395 184.629, 57.310 175.879 C 54.534 173.470, 50.672 170.277, 48.726 168.783 C 46.725 167.246, 43.845 163.376, 42.094 159.873 C 36.583 148.843, 38.216 135.581, 46.202 126.508 C 48.430 123.977, 52.559 120.695, 55.377 119.217 C 59.794 116.899, 61.706 116.526, 69.250 116.514 L 78 116.500 78 102.605 L 78 88.711 71.512 89.317 C 63.608 90.055, 52.752 93.717, 45.241 98.179 C 36.360 103.455, 26.076 114.356, 21.306 123.551 C 14.964 135.774, 13.562 141.571, 13.581 155.500 C 13.594 166.004, 13.942 168.497, 16.371 175.500 C 19.339 184.056, 23.132 190.909, 28.690 197.756 C 32.424 202.357, 44.449 208.811, 53.115 210.867 C 75.492 216.173, 98.871 209.895, 115.373 194.150 C 122.313 187.529, 129.164 176.659, 132.550 166.901 L 135.464 158.500 135.799 115.730 L 136.135 72.960 139.054 75.039 C 143.891 78.483, 158.077 84.676, 165 86.366 C 168.575 87.239, 174.775 88.255, 178.778 88.623 L 186.057 89.292 185.778 74.990 L 185.500 60.688 180.176 58.880 C 173.038 56.455, 169.085 53.945, 158.922 45.383 C 145.413 34.002, 141.678 28.947, 137.946 17 L 136.228 11.500 123.594 11.220 C 114.036 11.008, 110.845 11.252, 110.488 12.220" stroke="none" fill="#000000" fill-rule="evenodd"/><path d="M 99.786 77.852 L 99.500 152.704 96 159.564 C 90.250 170.834, 80.414 176.707, 67.916 176.333 C 64.845 176.241, 60.578 175.433, 58.435 174.537 L 54.539 172.909 57.485 175.984 C 59.105 177.676, 63.106 180.396, 66.375 182.030 C 77.144 187.411, 90.511 185.703, 99.492 177.798 C 102.023 175.570, 105.311 171.441, 106.797 168.623 L 109.500 163.500 110 87.500 L 110.500 11.500 123.250 11.220 L 136 10.940 136 6.970 L 136 3 118.036 3 L 100.072 3 99.786 77.852 M 162.547 48.563 C 167.991 53.252, 174.094 56.796, 180.548 59.017 L 186 60.892 186 57.172 L 186 53.451 178.423 52.245 C 174.256 51.582, 168.090 49.717, 164.720 48.099 L 158.593 45.159 162.547 48.563 M 54.104 81.546 C 36.182 85.434, 18.266 99.491, 10.176 116.012 C 7.890 120.681, 5.340 127.182, 4.510 130.460 C 2.539 138.239, 2.554 154.853, 4.539 162.540 C 7.887 175.512, 16.213 188.844, 26.060 197.003 L 31.488 201.500 28.375 197.500 C 22.912 190.482, 19.222 183.719, 16.371 175.500 C 13.942 168.497, 13.594 166.004, 13.581 155.500 C 13.562 141.571, 14.964 135.774, 21.306 123.551 C 26.076 114.356, 36.360 103.455, 45.241 98.179 C 52.752 93.717, 63.608 90.055, 71.512 89.317 L 78 88.711 78 84.355 L 78 80 69.250 80.079 C 64.438 80.123, 57.622 80.783, 54.104 81.546" stroke="none" fill="#01f2eb" fill-rule="evenodd"/><path d="M 0 112.505 L 0 225.010 100.250 224.755 L 200.500 224.500 200.754 112.250 L 201.009 -0 100.504 -0 L 0 0 0 112.505 M 0.483 113 C 0.483 174.875, 0.603 200.188, 0.750 169.250 C 0.897 138.313, 0.897 87.688, 0.750 56.750 C 0.603 25.813, 0.483 51.125, 0.483 113 M 99.786 77.852 L 99.500 152.704 96 159.564 C 90.218 170.897, 80.417 176.709, 67.736 176.325 C 55.307 175.949, 49.500 169.159, 49.500 155 C 49.500 142.154, 55.665 132.790, 67.769 127.248 C 72.347 125.152, 74.288 124.847, 81.065 125.154 L 89 125.515 89 107.257 L 89 89 83.500 89 L 78 89 78 84.500 L 78 80 69.750 80.017 C 50.940 80.057, 35.561 86.378, 22.416 99.472 C 9.131 112.706, 3 127.556, 3 146.500 C 3 168.804, 10.824 184.151, 30.782 200.992 C 48.146 215.645, 61.849 221.288, 80 221.261 C 91.268 221.244, 99.548 219.301, 110 214.222 C 120.538 209.102, 134.072 195.579, 139.247 185 C 145.702 171.804, 145.969 169.359, 145.985 123.250 C 145.993 100.563, 146.268 82, 146.596 82 C 146.923 82, 148.463 82.905, 150.016 84.012 C 159.261 90.594, 177.335 96.602, 189.629 97.178 L 196.500 97.500 196.773 79.868 L 197.045 62.236 191.523 61.546 L 186 60.856 186 57.153 L 186 53.451 178.658 52.283 C 169.788 50.871, 161.420 47.281, 157.909 43.379 C 152.090 36.912, 147.732 26.706, 146.467 16.583 L 145.770 11 140.885 11 L 136 11 136 7 L 136 3 118.036 3 L 100.072 3 99.786 77.852" stroke="none" fill="#ffffff" fill-rule="evenodd"/></svg>