<svg width="160" height="50" xmlns="http://www.w3.org/2000/svg" xmlns:svg="http://www.w3.org/2000/svg">
 <g>
  <title>Layer 1</title>
  <g id="svg_1">
   <path id="svg_2" d="m148.49659,37.9c-2.1,0 -3.1,-1.5 -3.1,-4.5l0,-21.1c0,-3 1,-4.5 3.1,-4.5c2.1,0 3,1.5 3,4.5l0,21.1c0.1,3 -0.9,4.5 -3,4.5zm-18.3,8.6c-5.7,0 -9.1,-2.1 -9.1,-4.5c0,-1.4 1.1,-2.6 2.5,-2.7l0.2,0c1.6,0 3.4,1.7 6.6,1.7c3.2,0 4.8,-1.8 4.8,-5.2c0,-0.2 -0.1,-0.5 -0.1,-0.8c-1.2,1.9 -3.4,3 -5.6,2.9c-4.9,0 -8.9,-4.5 -8.9,-10.7s4.4,-10.9 9.6,-10.9c1.9,-0.1 3.7,0.7 5,2.2c0.5,-1.1 1.5,-1.9 2.7,-2c2.1,0 3.1,1.4 3.1,4.5l0,12.3c0,3.7 -0.2,6.6 -1.4,8.5c-1.9,3.1 -5.1,4.7 -9.4,4.7l0,0zm0.9,-24.4c-2.3,0 -4.1,2 -4.1,5.1c0,3.1 1.7,5.2 4.1,5.2s4.1,-2 4.1,-5.2c-0.1,-3.2 -1.9,-5.1 -4.1,-5.1zm-24.4,24.4c-5.7,0 -9.1,-2.1 -9.1,-4.5c0,-1.4 1.1,-2.6 2.5,-2.7l0.2,0c1.6,0 3.4,1.7 6.6,1.7s4.8,-1.8 4.8,-5.2c0,-0.2 -0.1,-0.5 -0.1,-0.8c-1.2,1.9 -3.4,3 -5.6,2.9c-4.8,0 -8.9,-4.5 -8.9,-10.7s4.4,-10.9 9.6,-10.9c1.9,-0.1 3.7,0.7 5,2.2c0.5,-1.1 1.5,-1.9 2.7,-2c2.1,0 3.1,1.4 3.1,4.5l0,12.3c0,3.7 -0.2,6.6 -1.4,8.5c-1.7,3.1 -5,4.7 -9.4,4.7l0,0zm0.9,-24.4c-2.3,0 -4.1,2 -4.1,5.1c0,3.1 1.7,5.2 4.1,5.2c2.3,0 4.1,-2 4.1,-5.2c0,-3.2 -1.8,-5.1 -4.1,-5.1zm-22.7,16.1c-6.1,0 -10.4,-4.6 -10.4,-11s4.4,-11 10.4,-11c6,0 10.4,4.6 10.4,11s-4.3,11 -10.4,11l0,0zm0,-16.3c-2.3,0 -4.1,2 -4.1,5.2s1.7,5.2 4.1,5.2s4.1,-2 4.1,-5.2c-0.1,-3.2 -1.8,-5.2 -4.1,-5.2zm-14.4,0.6l-0.5,0l0,10.9c0,3 -1,4.5 -3,4.5s-3,-1.5 -3,-4.5l0,-10.9l-0.2,0c-2.2,0 -3.5,-1.1 -3.5,-2.7c0,-1.6 1.3,-2.6 3.7,-2.7l0,-2.7c0,-3 1,-4.5 3.1,-4.5c2.1,0 3,1.5 3,4.5l0,2.6l0.5,0c2.4,0 3.9,1.1 3.9,2.7c0,1.8 -1.4,2.8 -4,2.8z"/>
   <circle id="svg_3" r="21.2" cy="24.7" cx="29.69659" fill="#E1393F"/>
   <path id="svg_4" d="m31.09659,11.9l-3,0l0,14.9l3,0l0,-14.9zm-1.5,23.9c-5.8,0 -10.4,-4.7 -10.4,-10.5c0,-4.7 3.2,-8.8 7.7,-10.1l0,3.1c-3.8,1.5 -5.8,5.8 -4.3,9.6s5.8,5.8 9.6,4.3c3.8,-1.5 5.8,-5.8 4.3,-9.6c-0.8,-2 -2.3,-3.5 -4.3,-4.3l0,-3.1c5.6,1.5 8.9,7.2 7.4,12.8c-1.2,4.6 -5.3,7.8 -10,7.8z" fill="#FFFFFF"/>
  </g>
 </g>
</svg>