<?xml version="1.0" encoding="utf-8"?>
<!-- Generator: Adobe Illustrator 19.2.1, SVG Export Plug-In . SVG Version: 6.00 Build 0)  -->
<!DOCTYPE svg PUBLIC "-//W3C//DTD SVG 1.1//EN" "http://www.w3.org/Graphics/SVG/1.1/DTD/svg11.dtd">
<svg version="1.1" id="Layer_1" xmlns="http://www.w3.org/2000/svg" xmlns:xlink="http://www.w3.org/1999/xlink" x="0px" y="0px"
	 viewBox="0 0 68.6 55.7" enable-background="new 0 0 68.6 55.7" xml:space="preserve">
<g id="Layer_1_1_">
	<path fill="#55ACEE" d="M68.6,6.6c-2.5,1.1-5.2,1.9-8.1,2.2c2.9-1.7,5.1-4.5,6.2-7.8C64,2.6,61,3.8,57.8,4.4
		C55.2,1.7,51.5,0,47.5,0c-7.8,0-14.1,6.3-14.1,14.1c0,1.1,0.1,2.2,0.4,3.2c-11.7-0.6-22.1-6.2-29-14.7c-1.2,2.1-1.9,4.5-1.9,7
		c0,4.9,2.5,9.2,6.3,11.7c-2.3-0.1-4.5-0.7-6.4-1.8c0,0.1,0,0.1,0,0.2c0,6.8,4.8,12.5,11.3,13.8c-1.2,0.3-2.4,0.5-3.7,0.5
		c-0.9,0-1.8-0.1-2.6-0.3c1.8,5.6,7,9.7,13.1,9.8c-4.8,3.8-10.9,6-17.5,6c-1.1,0-2.3-0.1-3.4-0.2c6.2,4,13.6,6.3,21.6,6.3
		c25.9,0,40-21.4,40-40c0-0.6,0-1.2,0-1.8C64.3,11.9,66.7,9.4,68.6,6.6z"/>
</g>
</svg>
