<svg width="160.00000000000003" height="50" xmlns="http://www.w3.org/2000/svg" xmlns:svg="http://www.w3.org/2000/svg">
 <g>
  <title>Layer 1</title>
  <g stroke="null" id="svg_1">
   <path stroke="null" id="svg_2" d="m54.51517,21.0064l0,-1.62541l8.48827,0l0,1.62541l-3.37123,0l0,9.33108l-1.68561,0l0,-9.33108l-3.43143,0zm22.81599,9.45148c-0.90301,0 -1.68561,-0.4214 -2.10702,-1.02341l0,4.03343l-1.62541,0l0,-11.01669l1.62541,0l0,0.90301c0.301,-0.5418 1.20401,-1.02341 2.10702,-1.02341c2.28762,0 3.49163,1.50501 3.49163,4.03343c0,2.52842 -1.20401,4.09363 -3.49163,4.09363l0,0zm1.80602,-4.09363c0,-0.78261 -0.1806,-1.44481 -0.5418,-1.92642c-0.3612,-0.4816 -0.84281,-0.72241 -1.44481,-0.72241s-1.08361,0.2408 -1.44481,0.72241c-0.3612,0.4816 -0.5418,1.08361 -0.5418,1.92642s0.1806,1.44481 0.5418,1.92642c0.3612,0.4816 0.84281,0.72241 1.44481,0.72241s1.08361,-0.2408 1.44481,-0.72241c0.3612,-0.4816 0.5418,-1.08361 0.5418,-1.92642zm10.29429,0.4816l-5.47825,0c0,1.26421 0.72241,2.16722 1.92642,2.16722c0.90301,0 1.62541,-0.4816 2.04682,-1.32441l1.38461,0.5418c-0.78261,1.56521 -1.68561,2.22742 -3.43143,2.22742c-2.58862,0 -3.61203,-2.16722 -3.61203,-4.03343c0,-1.86622 1.08361,-4.03343 3.61203,-4.03343c2.46822,0 3.61203,2.04682 3.61203,3.79263l-0.0602,0.66221l0,0l0,0zm-5.47825,-1.32441l3.79263,0c-0.1204,-0.96321 -0.78261,-1.74581 -1.86622,-1.74581c-1.08361,0 -1.74581,0.66221 -1.92642,1.74581l0,0zm6.80266,-1.62541l0,-1.44481l1.02341,0l0,-0.4214c0,-1.86622 0.96321,-2.76922 2.58862,-2.76922c0.5418,0 0.90301,0.0602 1.26421,0.301l-0.301,1.38461c-0.301,-0.1204 -0.60201,-0.2408 -0.90301,-0.2408c-0.66221,0 -1.02341,0.4214 -1.02341,1.26421l0,0.5418l1.74581,0l0,1.44481l-1.74581,0l0,6.38125l-1.62541,0l0,-6.44145l-1.02341,0c0,0 0,0 0,0zm5.35785,2.46822c0,-1.14381 0.301,-2.10702 1.02341,-2.88962c0.66221,-0.78261 1.62541,-1.14381 2.76922,-1.14381c1.14381,0 2.10702,0.3612 2.76922,1.14381c0.66221,0.78261 1.02341,1.74581 1.02341,2.88962c0,1.14381 -0.3612,2.10702 -1.02341,2.88962c-0.66221,0.78261 -1.62541,1.14381 -2.76922,1.14381c-1.14381,0 -2.10702,-0.3612 -2.76922,-1.14381c-0.66221,-0.72241 -1.02341,-1.68561 -1.02341,-2.88962l0,0zm1.68561,0c0,0.72241 0.1806,1.32441 0.5418,1.86622c0.3612,0.5418 0.90301,0.78261 1.56521,0.78261c0.66221,0 1.20401,-0.2408 1.56521,-0.78261c0.3612,-0.5418 0.60201,-1.14381 0.60201,-1.86622c0,-0.72241 -0.1806,-1.32441 -0.60201,-1.80602c-0.3612,-0.5418 -0.90301,-0.78261 -1.56521,-0.78261c-0.66221,0 -1.20401,0.301 -1.56521,0.78261c-0.3612,0.5418 -0.5418,1.14381 -0.5418,1.80602zm9.09028,3.97323l-1.62541,0l0,-7.88627l1.62541,0l0,1.32441c0.5418,-0.90301 1.44481,-1.44481 2.28762,-1.44481c0.3612,0 0.66221,0.0602 0.96321,0.1806l-0.301,1.50501c-0.2408,-0.1806 -0.5418,-0.2408 -0.90301,-0.2408c-0.60201,0 -1.08361,0.301 -1.50501,0.96321c-0.4214,0.66221 -0.60201,1.50501 -0.60201,2.70902l0.0602,2.88962l0,0zm4.93644,-7.88627l1.62541,0l0,1.32441c0.60201,-0.96321 1.38461,-1.44481 2.34782,-1.44481c1.02341,0 1.92642,0.66221 2.10702,1.62541c0.5418,-1.02341 1.44481,-1.62541 2.40802,-1.62541c1.38461,0 2.22742,0.96321 2.22742,2.34782l0,5.59865l-1.62541,0l0,-5.23744c0,-0.84281 -0.4214,-1.26421 -1.14381,-1.26421c-1.02341,0 -1.80602,1.32441 -1.80602,3.43143l0,3.13043l-1.62541,0l0,-5.23744c0,-0.84281 -0.4214,-1.26421 -1.14381,-1.26421c-1.02341,0 -1.80602,1.32441 -1.80602,3.55183l0,3.01003l-1.62541,0l0.0602,-7.94647l0,0l0,0zm-39.67213,0l-1.86622,0l-2.64882,5.77925l-2.46822,-5.77925l-1.80602,0l3.37123,7.82607l-1.50501,3.19063l1.86622,0l5.05684,-11.01669l0,0z" fill="#262627"/>
   <path stroke="#262627" id="svg_3" d="m80.34118,34.73212c-1.68561,3.85283 -3.55183,6.80266 -6.08025,9.27088c-2.82942,2.70902 -6.26085,4.15383 -10.11369,4.51504c-3.19063,0.301 -6.32105,-0.1204 -9.39128,-1.02341c-3.13043,-0.90301 -6.02005,-2.34782 -8.48827,-4.57524c-2.04682,-1.86622 -3.61203,-4.03343 -4.81604,-6.50165c-1.86622,-3.79263 -3.13043,-7.76587 -3.73243,-11.9799c-0.3612,-2.70902 -0.4214,-5.41805 0.301,-8.06687c0.66221,-2.52842 1.98662,-4.69564 3.85283,-6.50165c1.86622,-1.80602 3.97323,-3.19063 6.26085,-4.33444c3.49163,-1.74581 7.16386,-3.01003 11.01669,-3.73243c2.76922,-0.4816 5.47825,-0.60201 8.24747,-0.0602c2.58862,0.5418 4.81604,1.80602 6.80266,3.61203c2.10702,1.98662 3.67223,4.33444 4.93644,6.92306c1.44481,2.94982 2.52842,6.08025 2.94982,9.39128c0.4816,3.31103 0.2408,6.56186 -0.66221,9.75248c-0.3612,1.26421 -0.84281,2.58862 -1.08361,3.31103l0,0z" fill="none"/>
  </g>
 </g>
</svg>