<svg xmlns="http://www.w3.org/2000/svg" xmlns:xlink="http://www.w3.org/1999/xlink" viewBox="0 0 180 35.31"><defs><style>.cls-1{fill:#3498db;}.cls-2{fill:url(#linear-gradient);}</style><linearGradient id="linear-gradient" x1="29.85" y1="-120.65" x2="29.85" y2="-112.79" gradientTransform="matrix(1, 0, 0, -1, 34, -97.69)" gradientUnits="userSpaceOnUse"><stop offset="0" stop-color="#231815" stop-opacity="0.35"/><stop offset="1" stop-color="#231815" stop-opacity="0"/></linearGradient></defs><title>ujet-logo_cropped</title><g id="Guidelines"><path class="cls-1" d="M76.88,15.69C76.88,23.45,71.76,26,67,26s-9.62-2.87-9.62-10.29V9.52a3.61,3.61,0,0,1,3.61-3.61h1.15v9.78s-.45,5.8,4.89,5.8c5.54,0,5.25-5.8,5.25-5.8V9.47a3.56,3.56,0,0,1,3.55-3.56h1Z"/><path class="cls-1" d="M86.05,5.91H85.3a3.72,3.72,0,0,0-4,4V23.37c0,1.83.16,3.34-.36,4.57a6.86,6.86,0,0,1-3.35,3.66l2.85,3.71S86,32.88,86,26.74Z"/><path class="cls-1" d="M119.27,19.58a10.47,10.47,0,0,1-.39-3.87h0v-.39h0V9.67h3.68V5.86h-3.71V4.58C118.85-.33,115,0,114.15,0V15.35h0v.36h0v2.67c0,6.22,5.59,8.7,5.59,8.7l2.93-3.76a7.19,7.19,0,0,1-3.4-3.74"/><path class="cls-1" d="M110.59,16.52l-4.2.11A6.26,6.26,0,0,1,96,20.13l10.25-6.3h0l3.68-2.27A10.46,10.46,0,0,0,89.79,15.5a10.7,10.7,0,0,0,.47,3.16,10.86,10.86,0,0,0,2.07,3.72,10.38,10.38,0,0,0,7.91,3.6,10.49,10.49,0,0,0,10.43-9.43h-.08Zm-16.28-1.3a5.77,5.77,0,0,1,5.93-6,6.33,6.33,0,0,1,3.53,1.1l-9.38,5.72A4.49,4.49,0,0,1,94.31,15.22Z"/><path class="cls-2" d="M62.32,22.53a7,7,0,0,0,8.05-2.14h0a1.14,1.14,0,0,1-.28.21s-.06,0-.08,0a3,3,0,0,1-.26.16s-.08,0-.11.05-.16.08-.23.13l-.13.05a2.49,2.49,0,0,1-.27.11.88.88,0,0,0-.15.05l-.26.08a.75.75,0,0,0-.16,0,1,1,0,0,1-.29.05c-.05,0-.1,0-.18,0a1.23,1.23,0,0,1-.34,0,.44.44,0,0,0-.16,0c-.15,0-.34,0-.52,0h0c-5.31,0-4.86-5.8-4.86-5.8V5.91H60.94a3.4,3.4,0,0,0-.73.08c-.06,0-.08,0-.13,0a2,2,0,0,0-.24.05,3.61,3.61,0,0,0-2.51,3.45v6.14A7.12,7.12,0,0,0,62.32,22.53Z"/></g></svg>