<?xml version="1.0"?>
<svg width="160" height="50" xmlns="http://www.w3.org/2000/svg" xmlns:svg="http://www.w3.org/2000/svg">
 <g>
  <title>Layer 1</title>
  <g stroke="null" id="Wordmark_x2F_icon_1_">
   <g stroke="null" id="svg_1">
    <g stroke="null" id="svg_2">
     <path stroke="null" id="svg_3" d="m57.185918,10.98476c21.410033,-9.366889 39.060566,-11.214779 50.912548,-7.519c9.239449,2.931135 7.710161,8.602245 3.950661,12.425465c-11.214779,11.34222 -30.649481,13.572431 -32.115049,13.763592c-1.84789,0.191161 -1.210686,-0.382322 -0.700924,-0.509763c7.901322,-1.84789 20.263067,-3.82322 27.782066,-12.106864c9.303169,-10.131533 -12.234304,-18.287736 -48.554896,-5.60739c-9.366889,3.377178 -3.7595,0.637203 -1.274407,-0.446042" fill="#00698F"/>
     <path stroke="null" id="svg_4" d="m106.696619,12.960091c0.191161,0.254881 -0.382322,1.465568 -1.91161,2.803695c-5.097627,4.396703 -21.856075,16.503567 -55.946454,8.538525c-1.146966,-0.254881 -1.465568,-0.955805 0.318602,-0.764644c11.278499,1.338127 37.467557,3.568339 54.672048,-8.538525c2.166491,-1.529288 2.612534,-2.357652 2.867415,-2.039051" fill="#00698F"/>
     <path stroke="null" id="svg_5" d="m66.043045,29.97342c0.573483,0.892085 1.401847,1.656729 3.632059,1.91161c1.274407,0.127441 2.102771,0.191161 4.396703,0.318602c0.892085,0.06372 1.338127,-0.382322 1.593008,-0.700924c0.509763,-0.637203 0.700924,-0.892085 1.083246,-1.593008c0.191161,-0.318602 0.191161,-0.446042 -0.254881,-0.382322c-1.97533,0.446042 -6.563195,0.573483 -10.195254,0.06372c-0.382322,0 -0.509763,-0.06372 -0.254881,0.382322" fill="#00698F"/>
     <path stroke="null" id="svg_6" d="m54.509664,17.356794c-0.06372,0.509763 -0.254881,1.210686 -1.019525,1.338127c-0.892085,0.191161 -6.754356,0.828364 -9.43061,0.828364c-1.210686,0 -0.828364,-0.127441 0,-0.318602c0.828364,-0.191161 9.49433,-2.166491 10.004093,-2.230212c0.509763,-0.127441 0.509763,-0.06372 0.446042,0.382322" fill="#00698F"/>
     <path stroke="null" id="svg_7" d="m43.486046,46.668148c0.700924,-0.382322 1.210686,-1.146966 1.210686,-2.039051c0,-1.274407 -1.019525,-2.293932 -2.357652,-2.293932l-3.695779,0c-0.382322,0 -0.382322,0 -0.382322,0.382322l0,6.563195l1.784169,0l0,-2.357652l1.656729,0l1.338127,2.421373l2.039051,0l-1.593008,-2.676254zm-1.465568,-1.146966l-1.91161,0l0,-1.784169l1.91161,0c0.446042,0 0.892085,0.382322 0.892085,0.892085c0,0.509763 -0.382322,0.892085 -0.892085,0.892085" fill="#00698F"/>
     <path stroke="null" id="svg_8" d="m60.945418,49.344402l-0.509763,-1.274407l-2.485093,0l-0.509763,1.274407l-1.720449,0l2.548813,-6.818076c0.127441,-0.254881 0.191161,-0.191161 0.955805,-0.191161c0.700924,0 0.828364,0 0.955805,0.254881c0.127441,0.318602 2.548813,6.754356 2.548813,6.754356l-1.784169,0l0,0zm-1.720449,-4.715305l-0.764644,2.102771l1.529288,0l-0.764644,-2.102771z" fill="#00698F"/>
     <path stroke="null" id="svg_9" d="m82.865213,49.344402l-0.509763,-1.274407l-2.485093,0l-0.509763,1.274407l-1.720449,0l2.548813,-6.818076c0.127441,-0.254881 0.191161,-0.191161 0.955805,-0.191161c0.700924,0 0.828364,0 0.955805,0.254881c0.127441,0.318602 2.548813,6.754356 2.548813,6.754356l-1.784169,0l0,0zm-1.720449,-4.715305l-0.764644,2.102771l1.529288,0l-0.764644,-2.102771z" fill="#00698F"/>
     <rect stroke="null" id="svg_10" height="6.945517" width="1.784169" fill="#00698F" y="42.335165" x="86.879594"/>
     <polygon stroke="null" id="svg_11" points="113.76957702636719,49.34440612792969 113.76957702636719,46.668148040771484 110.90216064453125,46.668148040771484 110.90216064453125,49.34440612792969 109.11799621582031,49.34440612792969 109.11799621582031,42.33516311645508 110.90216064453125,42.33516311645508 110.90216064453125,45.075138092041016 113.76957702636719,45.075138092041016 113.76957702636719,42.33516311645508 115.55374908447266,42.33516311645508 115.55374908447266,49.34440612792969 " fill="#00698F"/>
     <rect stroke="null" id="svg_12" height="6.945517" width="1.784169" fill="#00698F" y="42.335165" x="118.803482"/>
     <path stroke="null" id="svg_13" d="m97.011128,46.668148c0.700924,-0.382322 1.210686,-1.146966 1.210686,-2.039051c0,-1.274407 -1.019525,-2.293932 -2.357652,-2.293932l-3.695779,0c-0.382322,0 -0.382322,0 -0.382322,0.382322l0,6.563195l1.784169,0l0,-2.357652l1.529288,0l1.338127,2.421373l2.039051,0l-1.465568,-2.676254zm-1.465568,-1.146966l-1.91161,0l0,-1.784169l1.91161,0c0.446042,0 0.892085,0.382322 0.892085,0.892085c0,0.509763 -0.446042,0.892085 -0.892085,0.892085" fill="#00698F"/>
     <path stroke="null" id="svg_14" d="m127.596889,42.335165l-3.377178,0c-0.382322,0 -0.382322,0 -0.382322,0.382322l0,6.563195l1.784169,0l0,-2.230212l1.97533,0c1.401847,0 2.421373,-1.083246 2.421373,-2.421373c0,-1.210686 -0.955805,-2.293932 -2.421373,-2.293932m-0.318602,3.313457l-1.656729,0l0,-1.84789l1.656729,0c0.509763,0 0.892085,0.382322 0.892085,0.892085c0,0.509763 -0.382322,0.955805 -0.892085,0.955805" fill="#00698F"/>
     <path stroke="null" id="svg_15" d="m69.929985,42.335165l0,3.950661c-1.465568,-1.720449 -2.293932,-2.676254 -3.249737,-3.695779c-0.191161,-0.254881 -0.446042,-0.318602 -0.700924,-0.318602l-0.509763,0c-0.382322,0 -0.382322,0 -0.382322,0.382322l0,6.690635l1.784169,0l0,-3.82322l3.249737,3.632059c0.191161,0.191161 0.446042,0.318602 0.700924,0.318602l0,0l0.509763,0c0.382322,0 0.382322,0 0.382322,-0.382322l0,-6.754356l-1.784169,0z" fill="#00698F"/>
     <path stroke="null" id="svg_16" d="m52.661774,45.584902c0.446042,-0.446042 0.637203,-0.828364 0.637203,-1.338127c0,-1.210686 -0.955805,-1.84789 -2.485093,-1.84789l-2.739974,0c-0.382322,0 -0.382322,0 -0.382322,0.382322l0,6.244593c0,0.318602 0,0.382322 0.382322,0.382322l3.313457,0c1.338127,0 2.421373,-0.828364 2.421373,-2.102771c0,-0.828364 -0.509763,-1.401847 -1.146966,-1.720449m-1.91161,-1.784169c0.446042,0 0.764644,0.254881 0.764644,0.637203s-0.254881,0.700924 -0.764644,0.700924l-1.274407,0l0,-1.338127l1.274407,0zm0.446042,4.078101l-1.720449,0l0,-1.401847l1.720449,0c0.446042,0 0.828364,0.254881 0.828364,0.700924c-0.06372,0.446042 -0.446042,0.700924 -0.828364,0.700924" fill="#00698F"/>
     <path stroke="null" id="svg_17" d="m103.701763,49.408122c-1.210686,0 -2.421373,-0.382322 -3.377178,-1.083246l1.019525,-1.083246c0.700924,0.509763 1.465568,0.828364 2.421373,0.828364c0.700924,0 1.146966,-0.254881 1.146966,-0.637203l0,0c0,-0.382322 -0.254881,-0.573483 -1.593008,-0.892085c-1.593008,-0.382322 -2.676254,-0.764644 -2.676254,-2.102771l0,0c0,-1.274407 1.146966,-2.102771 2.803695,-2.102771c1.146966,0 2.166491,0.318602 2.994856,0.892085l-0.892085,1.146966c-0.700924,-0.446042 -1.401847,-0.700924 -2.102771,-0.700924c-0.637203,0 -1.019525,0.254881 -1.019525,0.637203l0,0c0,0.446042 0.382322,0.637203 1.720449,0.955805c1.656729,0.382322 2.548813,0.892085 2.548813,2.102771l0,0c-0.06372,1.274407 -1.274407,2.039051 -2.994856,2.039051" fill="#00698F"/>
     <path stroke="null" id="svg_18" d="m34.628919,42.335165l-1.338127,0l0,2.485093c0,1.84789 0,2.230212 -0.382322,2.548813c-0.382322,0.382322 -0.892085,0.382322 -1.210686,0.382322c-0.955805,0 -1.656729,-0.700924 -1.656729,-1.656729l0,-3.7595l-1.720449,0l0,4.014381c0,1.91161 1.401847,3.122296 3.313457,3.122296c0.700924,0 1.210686,-0.191161 1.656729,-0.509763l0.446042,0.382322l1.338127,0l0,-6.945517l-0.446042,-0.06372l0,0z" fill="#00698F"/>
    </g>
   </g>
  </g>
 </g>
</svg>