<?xml version="1.0"?>
<svg width="160" height="50" xmlns="http://www.w3.org/2000/svg" xmlns:svg="http://www.w3.org/2000/svg">
 <g>
  <title>Layer 1</title>
  <g stroke="null" id="svg_1">
   <path stroke="null" d="m57.039831,0.172256c-0.109857,0 -0.109857,0 -0.219715,0l0,0l-41.526049,0l-0.109857,0l0,0c-0.109857,0 -0.109857,0 -0.109857,0l0,0c-3.62529,0 -6.481579,2.966146 -6.481579,6.481579l0,0c0,0.769001 0.109857,1.647859 0.439429,2.307003l0,0c0.109857,0.439429 0.329572,0.769001 0.549286,1.20843l0,0l20.763025,36.143043c0.329572,0.549286 0.659144,0.988715 1.098573,1.428145l0,0c1.20843,1.318287 2.856289,2.087288 4.723863,2.087288l0,0c1.538002,0 3.076004,-0.549286 4.064719,-1.538002l0,0c0.659144,-0.549286 1.20843,-1.098573 1.647859,-1.867574l0,0l20.763025,-36.2529c0.219715,-0.329572 0.439429,-0.769001 0.549286,-1.20843l0,0c0.329572,-0.769001 0.439429,-1.538002 0.439429,-2.307003l0,0c0,-3.515433 -2.856289,-6.481579 -6.261865,-6.481579l0,0c-0.109857,0 -0.219715,0 -0.329572,0l0,0zm-18.895451,33.945897l16.478591,-28.672748c0.109857,-0.109857 0.109857,-0.109857 0.109857,-0.219715l0,0c0.549286,-0.878858 1.538002,-1.538002 2.636575,-1.538002l0,0c1.538002,0 2.746432,1.318287 2.746432,2.966146l0,0c0,0.549286 -0.219715,1.098573 -0.439429,1.538002l0,0l-0.109857,0.109857l0,0l-18.236307,31.41918l-3.185861,-5.602721zm-22.850313,-30.430465l36.2529,0l-3.295718,5.602721l-32.957182,0c-0.109857,0 -0.109857,0 -0.219715,0l0,0c0,0 -0.109857,0 -0.219715,0l0,0c-1.538002,0 -2.746432,-1.20843 -2.746432,-2.746432l0,0c0,-1.647859 1.318287,-2.966146 2.856289,-2.966146l0,0c0.109857,0.109857 0.109857,0.109857 0.329572,0.109857l0,0c-0.109857,0 -0.109857,0 0,0l0,0c-0.109857,0 -0.109857,0 0,0l0,0zm10.656155,9.228011l20.213738,0l-10.216726,17.577164l-9.997012,-17.577164zm7.470295,31.638895c0,0 0,-0.109857 0,0l0,0l-18.016593,-31.638895l6.481579,0l16.588448,28.672748c0,0.109857 0.109857,0.109857 0.109857,0.219715l0,0c0.109857,0.549286 0.329572,1.098573 0.329572,1.647859l0,0c0,1.538002 -1.318287,2.746432 -2.746432,2.746432l0,0c-1.20843,0 -2.197145,-0.769001 -2.746432,-1.647859l0,0z" fill="#00B1D1" id="path-1_4_"/>
   <path stroke="null" id="svg_2" d="m86.811152,31.921008c-0.219715,0.549286 -0.549286,0.988715 -0.769001,1.428145c-0.329572,0.329572 -0.549286,0.659144 -0.878858,0.878858c-0.329572,0.219715 -0.659144,0.329572 -0.988715,0.439429c-0.329572,0.109857 -0.659144,0.109857 -0.878858,0.109857c-0.329572,0 -0.659144,0 -0.988715,-0.109857c-0.329572,-0.109857 -0.659144,-0.219715 -0.988715,-0.439429c-0.329572,-0.219715 -0.659144,-0.549286 -0.878858,-0.878858c-0.329572,-0.329572 -0.549286,-0.878858 -0.769001,-1.428145l-6.04215,-14.061731c-0.219715,-0.549286 -0.329572,-0.988715 -0.329572,-1.428145c0,-0.659144 0.219715,-1.318287 0.769001,-1.757716c0.439429,-0.439429 1.098573,-0.659144 1.867574,-0.659144c0.439429,0 0.769001,0.109857 1.318287,0.329572c0.549286,0.219715 0.878858,0.769001 1.20843,1.647859l4.943577,12.743444l-0.219715,0l5.053435,-12.853301c0.329572,-0.878858 0.769001,-1.428145 1.20843,-1.647859c0.439429,-0.219715 0.878858,-0.329572 1.20843,-0.329572c0.769001,0 1.318287,0.219715 1.757716,0.659144c0.439429,0.439429 0.659144,0.988715 0.659144,1.647859c0,0.109857 0,0.329572 -0.109857,0.549286c0,0.219715 -0.109857,0.549286 -0.219715,0.878858l-5.932293,14.281446z" fill="#354255"/>
   <path stroke="null" id="svg_3" d="m114.495185,23.022569c0,-0.109857 0,-0.329572 -0.109857,-0.549286c-0.219715,-1.428145 -0.549286,-2.746432 -1.098573,-3.735147s-1.318287,-1.977431 -2.087288,-2.746432c-0.878858,-0.659144 -1.757716,-1.20843 -2.856289,-1.538002c-1.098573,-0.329572 -2.197145,-0.549286 -3.405575,-0.549286c-1.538002,0 -2.966146,0.219715 -4.064719,0.769001c-1.318287,0.549286 -2.41686,1.20843 -3.405575,2.197145s-1.647859,2.087288 -2.197145,3.405575c-0.549286,1.318287 -0.769001,2.746432 -0.769001,4.284434c0,1.647859 0.219715,3.076004 0.769001,4.284434c0.549286,1.318287 1.318287,2.41686 2.307003,3.295718c0.988715,0.878858 2.087288,1.538002 3.405575,2.087288c1.318287,0.549286 2.746432,0.769001 4.174576,0.769001c1.647859,0 3.076004,-0.219715 4.064719,-0.659144c1.20843,-0.439429 2.307003,-1.098573 3.295718,-2.087288c0.329572,-0.329572 0.549286,-0.659144 0.659144,-0.988715c0.109857,-0.329572 0.219715,-0.659144 0.219715,-0.878858c0,-0.659144 -0.219715,-1.098573 -0.549286,-1.428145c-0.439429,-0.329572 -0.878858,-0.549286 -1.428145,-0.549286c-0.329572,0 -0.549286,0 -0.769001,0.109857c-0.219715,0.109857 -0.549286,0.329572 -0.878858,0.549286c-0.659144,0.549286 -1.318287,0.988715 -1.977431,1.20843c-0.659144,0.329572 -1.538002,0.439429 -2.636575,0.439429c-0.769001,0 -1.428145,-0.109857 -2.087288,-0.329572c-0.659144,-0.219715 -1.318287,-0.549286 -1.757716,-0.988715c-0.549286,-0.439429 -0.988715,-0.988715 -1.318287,-1.538002c-0.329572,-0.549286 -0.549286,-1.318287 -0.549286,-1.977431l12.413872,0c0.878858,0 1.538002,-0.219715 1.977431,-0.549286c0.439429,-0.439429 0.659144,-0.988715 0.659144,-1.977431c0,0 0,-0.109857 0,-0.329572zm-15.050446,-0.549286c0.109857,-1.428145 0.659144,-2.636575 1.757716,-3.405575c1.098573,-0.878858 2.307003,-1.318287 3.735147,-1.318287c0.769001,0 1.538002,0.109857 2.087288,0.439429c0.549286,0.219715 1.098573,0.659144 1.538002,1.098573c0.439429,0.439429 0.659144,0.988715 0.878858,1.538002c0.219715,0.549286 0.219715,1.20843 0.219715,1.867574l-10.216726,-0.219715l0,0z" fill="#354255"/>
   <path stroke="null" id="svg_4" d="m121.855622,31.811151c0,0.549286 -0.109857,1.098573 -0.219715,1.428145c-0.219715,0.329572 -0.439429,0.659144 -0.659144,0.878858c-0.219715,0.219715 -0.549286,0.329572 -0.878858,0.439429c-0.329572,0.109857 -0.549286,0.109857 -0.769001,0.109857c-0.219715,0 -0.439429,0 -0.769001,-0.109857c-0.329572,-0.109857 -0.549286,-0.219715 -0.769001,-0.439429c-0.219715,-0.219715 -0.439429,-0.439429 -0.659144,-0.878858c-0.219715,-0.439429 -0.219715,-0.878858 -0.219715,-1.428145l0,-15.050446c0,-0.549286 0.109857,-0.988715 0.219715,-1.318287c0.109857,-0.329572 0.439429,-0.659144 0.659144,-0.769001c0.219715,-0.219715 0.549286,-0.329572 0.769001,-0.439429s0.549286,-0.109857 0.659144,-0.109857c0.109857,0 0.439429,0 0.659144,0.109857c0.329572,0.109857 0.549286,0.219715 0.769001,0.439429s0.439429,0.439429 0.659144,0.769001s0.219715,0.769001 0.219715,1.318287l0,1.098573l0.109857,0c0.439429,-1.098573 1.098573,-1.977431 1.977431,-2.746432c0.988715,-0.769001 1.977431,-1.098573 3.295718,-1.098573c0.769001,0 1.428145,0.219715 1.867574,0.549286c0.439429,0.329572 0.769001,0.878858 0.769001,1.647859c0,0.659144 -0.219715,1.20843 -0.659144,1.647859c-0.439429,0.439429 -1.098573,0.769001 -2.087288,0.769001c-1.538002,0 -2.856289,0.549286 -3.62529,1.647859s-1.318287,2.41686 -1.318287,4.064719l0,7.470295l0,0z" fill="#354255"/>
   <path stroke="null" id="svg_5" d="m150.52837,19.946566c-0.549286,-1.318287 -1.318287,-2.41686 -2.307003,-3.295718c-0.988715,-0.878858 -2.087288,-1.647859 -3.405575,-2.087288c-1.318287,-0.549286 -2.746432,-0.769001 -4.174576,-0.769001s-2.966146,0.219715 -4.174576,0.769001c-1.318287,0.549286 -2.526717,1.20843 -3.405575,2.087288c-0.988715,0.878858 -1.757716,2.087288 -2.307003,3.295718c-0.549286,1.318287 -0.878858,2.746432 -0.878858,4.174576c0,1.538002 0.329572,3.076004 0.878858,4.284434c0.549286,1.318287 1.318287,2.41686 2.307003,3.405575c0.988715,0.988715 2.087288,1.647859 3.405575,2.197145c1.318287,0.549286 2.746432,0.769001 4.174576,0.769001s2.966146,-0.219715 4.174576,-0.769001c1.318287,-0.549286 2.526717,-1.318287 3.405575,-2.197145c0.988715,-0.988715 1.757716,-2.087288 2.307003,-3.405575c0.549286,-1.318287 0.878858,-2.746432 0.878858,-4.284434s-0.329572,-2.856289 -0.878858,-4.174576zm-4.504148,6.591436c-0.219715,0.769001 -0.549286,1.428145 -1.098573,2.087288c-0.439429,0.659144 -1.098573,1.098573 -1.757716,1.538002c-0.769001,0.439429 -1.538002,0.549286 -2.636575,0.549286c-1.098573,0 -1.867574,-0.219715 -2.636575,-0.549286c-0.769001,-0.439429 -1.318287,-0.878858 -1.757716,-1.538002c-0.439429,-0.659144 -0.878858,-1.318287 -1.098573,-2.087288c-0.219715,-0.769001 -0.329572,-1.538002 -0.329572,-2.307003c0,-0.769001 0.109857,-1.538002 0.329572,-2.307003c0.219715,-0.769001 0.549286,-1.428145 1.098573,-2.087288c0.439429,-0.659144 1.098573,-1.098573 1.757716,-1.538002c0.769001,-0.329572 1.538002,-0.549286 2.636575,-0.549286c1.098573,0 1.867574,0.219715 2.636575,0.549286c0.769001,0.329572 1.318287,0.878858 1.757716,1.538002s0.878858,1.318287 1.098573,2.087288c0.219715,0.769001 0.329572,1.538002 0.329572,2.307003c0,0.769001 -0.109857,1.538002 -0.329572,2.307003z" fill="#354255"/>
  </g>
 </g>
</svg>