<?xml version="1.0"?>
<svg width="160" height="50" xmlns="http://www.w3.org/2000/svg" xmlns:svg="http://www.w3.org/2000/svg">
 <g>
  <title>Layer 1</title>
  <g stroke="null" id="svg_1">
   <circle stroke="null" id="svg_2" r="16.603769" cy="25" cx="17.120172" fill="#88C34D"/>
   <g stroke="null" id="svg_3">
    <polygon stroke="null" id="svg_4" points="56.2859992980957,26.747764587402344 52.393253326416016,17.611720085144043 49.453826904296875,17.611720085144043 45.56108093261719,26.747764587402344 41.90665817260742,17.611720085144043 38.093353271484375,17.611720085144043 44.766639709472656,33.97715759277344 46.19662857055664,33.97715759277344 50.883819580078125,22.855015754699707 55.65045166015625,33.97715759277344 57.00099563598633,33.97715759277344 63.67428207397461,17.611720085144043 59.94042205810547,17.611720085144043 " fill="#636363"/>
    <path stroke="null" id="svg_5" d="m78.133066,18.406159c-1.350546,-0.714995 -2.859979,-1.03277 -4.528301,-1.03277c-1.747765,0 -3.257199,0.397219 -4.607745,1.112214c-1.350546,0.714995 -2.383316,1.747765 -3.177755,3.018867c-0.794439,1.271102 -1.112214,2.701092 -1.112214,4.210525c0,1.509434 0.397219,2.939423 1.112214,4.210525c0.794439,1.271102 1.827209,2.303872 3.177755,3.018867c1.350546,0.714995 2.859979,1.112214 4.528301,1.112214c1.668321,0 3.177755,-0.397219 4.528301,-1.03277c1.350546,-0.714995 2.46276,-1.747765 3.177755,-3.018867c0.794439,-1.271102 1.191658,-2.701092 1.191658,-4.210525c0,-1.509434 -0.397219,-3.018867 -1.191658,-4.289969c-0.635551,-1.42999 -1.747765,-2.383316 -3.098311,-3.098311zm-4.448857,12.393244c-1.03277,0 -1.906653,-0.238332 -2.701092,-0.635551c-0.794439,-0.397219 -1.42999,-1.03277 -1.827209,-1.827209c-0.476663,-0.794439 -0.635551,-1.668321 -0.635551,-2.621648c0,-0.953326 0.238332,-1.906653 0.635551,-2.621648c0.397219,-0.794439 1.03277,-1.350546 1.827209,-1.827209c0.794439,-0.397219 1.747765,-0.635551 2.701092,-0.635551c1.03277,0 1.906653,0.238332 2.701092,0.635551c0.794439,0.397219 1.42999,1.03277 1.827209,1.827209c0.476663,0.794439 0.635551,1.668321 0.635551,2.621648c0,1.509434 -0.476663,2.701092 -1.42999,3.654418c-0.953326,0.953326 -2.224428,1.42999 -3.733862,1.42999z" fill="#636363"/>
    <path stroke="null" id="svg_6" d="m97.676259,18.406159c-1.350546,-0.714995 -2.859979,-1.03277 -4.528301,-1.03277c-1.747765,0 -3.257199,0.397219 -4.607745,1.112214c-1.350546,0.714995 -2.383316,1.747765 -3.177755,3.018867c-0.794439,1.271102 -1.112214,2.701092 -1.112214,4.210525c0,1.509434 0.397219,2.939423 1.112214,4.210525c0.794439,1.271102 1.827209,2.303872 3.177755,3.018867c1.350546,0.714995 2.859979,1.112214 4.528301,1.112214c1.668321,0 3.177755,-0.397219 4.528301,-1.03277c1.350546,-0.714995 2.46276,-1.747765 3.177755,-3.018867c0.794439,-1.271102 1.191658,-2.701092 1.191658,-4.210525c0,-1.509434 -0.397219,-3.018867 -1.191658,-4.289969c-0.635551,-1.42999 -1.747765,-2.383316 -3.098311,-3.098311zm-4.448857,12.393244c-1.03277,0 -1.906653,-0.238332 -2.701092,-0.635551c-0.794439,-0.397219 -1.42999,-1.03277 -1.827209,-1.827209c-0.476663,-0.794439 -0.635551,-1.668321 -0.635551,-2.621648c0,-0.953326 0.238332,-1.906653 0.635551,-2.621648c0.397219,-0.794439 1.03277,-1.350546 1.827209,-1.827209c0.794439,-0.397219 1.747765,-0.635551 2.701092,-0.635551c1.03277,0 1.906653,0.238332 2.701092,0.635551c0.794439,0.397219 1.42999,1.03277 1.827209,1.827209c0.476663,0.794439 0.635551,1.668321 0.635551,2.621648c0,1.509434 -0.476663,2.701092 -1.42999,3.654418c-0.953326,0.953326 -2.224428,1.42999 -3.733862,1.42999z" fill="#636363"/>
    <polygon stroke="null" id="svg_7" points="102.8401107788086,20.551143646240234 108.40118408203125,20.551143646240234 108.40118408203125,33.73882484436035 111.97615814208984,33.73882484436035 111.97615814208984,20.551143646240234 117.5372314453125,20.551143646240234 117.5372314453125,17.611720085144043 102.8401107788086,17.611720085144043 " fill="#636363"/>
    <path stroke="null" id="svg_8" d="m131.916567,29.448857c-0.556107,-1.112214 -1.03277,-1.906653 -1.509434,-2.383316c-0.317775,-0.317775 -0.635551,-0.635551 -0.953326,-0.873883c0.714995,-0.397219 1.271102,-0.873883 1.668321,-1.42999c0.476663,-0.714995 0.714995,-1.509434 0.714995,-2.46276c0,-1.350546 -0.476663,-2.542204 -1.509434,-3.416086c-0.953326,-0.873883 -2.224428,-1.271102 -3.813306,-1.271102l-5.878847,0l0,16.20655l3.574974,0l0,-6.593841l0.794439,0c0.397219,0 0.794439,0.079444 1.112214,0.317775c0.317775,0.238332 0.714995,0.635551 1.112214,1.112214c0.397219,0.556107 1.03277,1.668321 1.906653,3.336643c0.397219,0.794439 0.714995,1.350546 0.953326,1.668321l0.079444,0.158888l4.051637,0l-0.317775,-0.476663c-0.317775,-0.714995 -1.03277,-2.065541 -1.986097,-3.89275zm-7.547168,-8.977158l1.588877,0c0.794439,0 1.350546,0.158888 1.747765,0.476663c0.397219,0.317775 0.556107,0.714995 0.556107,1.350546c0,0.635551 -0.158888,1.03277 -0.556107,1.42999c-0.397219,0.317775 -0.953326,0.556107 -1.668321,0.556107l-1.588877,0l0,-3.813306l-0.079444,0z" fill="#636363"/>
    <rect stroke="null" id="svg_9" height="16.20655" width="3.574974" fill="#636363" y="17.61172" x="137.557082"/>
    <path stroke="null" id="svg_10" d="m159.006928,29.131081c-1.191658,0.635551 -2.144985,1.03277 -2.859979,1.271102c-0.714995,0.238332 -1.509434,0.317775 -2.383316,0.317775c-1.03277,0 -2.065541,-0.238332 -2.859979,-0.635551c-0.873883,-0.397219 -1.509434,-1.03277 -1.986097,-1.827209c-0.476663,-0.794439 -0.714995,-1.668321 -0.714995,-2.621648c0,-0.953326 0.238332,-1.827209 0.714995,-2.621648c0.476663,-0.794439 1.112214,-1.42999 1.986097,-1.827209c0.873883,-0.397219 1.827209,-0.635551 2.859979,-0.635551c0.873883,0 1.668321,0.158888 2.46276,0.317775c0.794439,0.238332 1.668321,0.635551 2.621648,1.191658l0.476663,0.238332l0,-3.49553l-0.158888,-0.079444c-1.03277,-0.476663 -1.906653,-0.873883 -2.780536,-1.03277c-0.873883,-0.238332 -1.747765,-0.317775 -2.701092,-0.317775c-1.747765,0 -3.257199,0.317775 -4.687188,1.03277c-1.350546,0.714995 -2.46276,1.747765 -3.257199,3.018867c-0.794439,1.271102 -1.191658,2.780536 -1.191658,4.369413c0,1.509434 0.397219,2.939423 1.191658,4.210525c0.794439,1.271102 1.827209,2.224428 3.177755,2.939423c1.350546,0.635551 2.859979,1.03277 4.528301,1.03277c1.112214,0 2.144985,-0.079444 3.018867,-0.317775c0.873883,-0.238332 1.827209,-0.635551 2.859979,-1.112214l0.158888,-0.079444l0,-3.49553l-0.476663,0.158888z" fill="#636363"/>
   </g>
   <circle stroke="null" id="svg_11" r="12.393245" cy="25" cx="17.120172" fill="#61873C"/>
   <circle stroke="null" id="svg_12" r="6.593843" cy="25" cx="17.120172" fill="#344828"/>
  </g>
 </g>
</svg>