<svg xmlns="http://www.w3.org/2000/svg" viewBox="0 0 180 35.31"><defs><style>.cls-1{fill:#ff8601;}.cls-2{fill:#0268b1;}.cls-3{fill:#fff;}</style></defs><title>workday-logo_cropped</title><g id="Guidelines"><path class="cls-1" d="M93.3,0l0,0s0,0,0,0l.7,0c.33,0,.66.05,1,.1l.72.1c.37.05.73.12,1.1.19L97.9.71l1,.28c.72.21,1.43.45,2.14.72.3.12.6.24.9.38a24.5,24.5,0,0,1,2.4,1.21c.64.36,1.27.76,1.87,1.18.39.28.78.56,1.15.85s.76.62,1.13,1a26.29,26.29,0,0,1,2,2,23.57,23.57,0,0,1,1.61,2c.35.48.69,1,1,1.47a24.64,24.64,0,0,1,1.34,2.41q.26.53.48,1.05a1.36,1.36,0,0,1-.1,1.31,1.32,1.32,0,0,1-.87.62,1.41,1.41,0,0,1-1.58-.78l-.21-.47a17.38,17.38,0,0,0-.89-1.78c-.29-.52-.61-1-.94-1.53s-.83-1.16-1.28-1.71-.82-1-1.26-1.41-.77-.75-1.17-1.11S105.55,7.38,105,7s-1-.69-1.51-1-.76-.45-1.16-.65-.87-.45-1.32-.65-1-.44-1.55-.63S98.5,3.7,98,3.57s-.81-.22-1.23-.31S96,3.09,95.57,3l-.9-.13-.76-.08c-.32,0-.63,0-1-.06s-.54,0-.81,0H91.09l-.33,0h-.14c-.33,0-.66,0-1,.08s-.77.09-1.15.14l-.58.1c-.57.1-1.13.23-1.69.38s-1.26.37-1.88.59-1.32.52-2,.83a20.54,20.54,0,0,0-1.9,1,21.32,21.32,0,0,0-1.78,1.2c-.55.41-1.08.85-1.59,1.3s-.88.83-1.29,1.26-1,1.07-1.4,1.64-.83,1.14-1.21,1.73a21.48,21.48,0,0,0-1.32,2.4l-.27.6c0,.09-.08.19-.13.28A1.4,1.4,0,0,1,69,15.15c.11-.27.23-.53.36-.79q.45-1,1-1.89t1.23-1.92c.3-.41.61-.82.93-1.22a26,26,0,0,1,2.06-2.27c.37-.36.76-.71,1.15-1,.61-.53,1.25-1,1.91-1.49s1.29-.86,2-1.24a20.92,20.92,0,0,1,1.94-1c.7-.33,1.43-.62,2.16-.88s1.53-.5,2.3-.69c.57-.14,1.13-.26,1.71-.35l1-.15.88-.1.54,0,.77,0H91L91,0Z"/><path class="cls-2" d="M46.1,21h.06l0-.05a.37.37,0,0,1,.34-.24H48a.44.44,0,0,1,.39.3,1.42,1.42,0,0,1,.07.22c.23.95.45,1.9.69,2.86s.45,1.86.68,2.79c.08.32.15.65.23,1s.11.55.15.83.07.59.1.89a2.09,2.09,0,0,0,0,.35s0,0,0,0h0s0-.08,0-.12c.07-.47.14-.93.24-1.39q.06-.3.15-.6l.63-2.38c.27-1,.54-2,.8-3,.11-.4.22-.8.32-1.2a1.18,1.18,0,0,1,.07-.2.51.51,0,0,1,.4-.32h1.8a.56.56,0,0,1,.5.41c0,.16.09.32.14.48l.69,2.55c.29,1.06.57,2.12.86,3.18l.21.78c.09.34.14.68.2,1l.12.77a.14.14,0,0,0,0,.06s0,0,0,0l.09-.61c0-.21.07-.41.1-.62.08-.57.21-1.12.34-1.68.16-.72.31-1.44.47-2.16l.36-1.58c.11-.53.23-1.07.35-1.6l.12-.54a.51.51,0,0,1,.51-.43h1.35a.35.35,0,0,1,.31.41,1.77,1.77,0,0,1,0,.2c-.21.79-.42,1.59-.64,2.38L60,26.91l-.75,2.77-.24.88a.58.58,0,0,1,0,.14.47.47,0,0,1-.39.3,1,1,0,0,1-.24,0H56.58a1,1,0,0,1-.25,0,.38.38,0,0,1-.31-.25,1.17,1.17,0,0,1-.05-.2c-.23-.84-.45-1.68-.68-2.52-.27-1-.53-2-.8-3-.09-.32-.17-.65-.26-1a6.83,6.83,0,0,1-.17-.81c0-.31-.08-.63-.13-.94l0-.18,0,0s0,0,0,0c0,.2-.06.41-.08.61a11.31,11.31,0,0,1-.27,1.41l-.87,3.25c-.17.6-.33,1.2-.49,1.8l-.36,1.34,0,.12a.46.46,0,0,1-.39.33,1.07,1.07,0,0,1-.25,0h-1.8a.91.91,0,0,1-.23,0,.35.35,0,0,1-.29-.23.78.78,0,0,1,0-.14c-.1-.38-.21-.76-.31-1.14-.17-.6-.33-1.2-.49-1.79-.27-1-.53-1.95-.8-2.92l-.81-3-.15-.51a.19.19,0,0,0,0-.08s0,0-.07,0Z"/><path class="cls-2" d="M124.24,35.31v0l0,0a.64.64,0,0,1-.34-.31c-.09-.14-.17-.28-.27-.42a.41.41,0,0,1,0-.45.51.51,0,0,1,.26-.22l.33-.13a2.2,2.2,0,0,0,.8-.46,4.16,4.16,0,0,0,.46-.48,4.6,4.6,0,0,0,.65-1.24,4.89,4.89,0,0,0,.19-.62.23.23,0,0,0,0-.14l-.21-.47-1.62-3.79-1.65-3.84-.63-1.47a.69.69,0,0,1,0-.13.27.27,0,0,1,.06-.27.56.56,0,0,1,.3-.14h1.3a.77.77,0,0,1,.33.06.58.58,0,0,1,.33.32,1.89,1.89,0,0,1,.09.21l1.17,3.1c.36.93.71,1.85,1.06,2.78a6.14,6.14,0,0,1,.3,1l0,.12s0,0,0,0,0,0,0,0c.07-.23.13-.46.2-.68.11-.37.23-.74.35-1.1.23-.73.47-1.46.71-2.19l1-3.05a2.25,2.25,0,0,1,.08-.24.47.47,0,0,1,.23-.25.61.61,0,0,1,.3-.08h1.36a.43.43,0,0,1,.29.15.21.21,0,0,1,.07.14.51.51,0,0,1,0,.21l-.18.51c-.27.8-.55,1.6-.83,2.4s-.55,1.56-.82,2.35l-1.35,3.89c-.24.67-.47,1.34-.7,2-.08.22-.17.44-.27.65a4,4,0,0,1-.84,1.15,3.87,3.87,0,0,1-.87.63,6,6,0,0,1-.73.33l-.43.15a.06.06,0,0,0,0,.06Z"/><path class="cls-2" d="M133.9,29.88a.08.08,0,0,0,0,0,.87.87,0,0,1-.13.35,1.37,1.37,0,0,1-.83.64,1.38,1.38,0,0,1-1.17-.2,1.4,1.4,0,0,1-.42-1.84,1.31,1.31,0,0,1,.64-.59,1.43,1.43,0,0,1,1.87.74c0,.06,0,.12.05.18s0,0,0,0Zm-.23-.35a1.13,1.13,0,0,0-1.17-1.12,1.15,1.15,0,0,0-1.13,1.23,1.17,1.17,0,0,0,1.21,1.07A1.14,1.14,0,0,0,133.67,29.53Z"/><path class="cls-2" d="M107.13,23.36v6.92a.86.86,0,0,1,0,.16.48.48,0,0,1-.4.48l-.17,0c-.23,0-.45,0-.68,0a.53.53,0,0,1-.18,0,.49.49,0,0,1-.28-.27,1.21,1.21,0,0,1,0-.18c-.05-.17-.08-.35-.13-.52a1.21,1.21,0,0,0,0-.18s0,0,0,0l-.2.24a3.32,3.32,0,0,1-1,.81A3.14,3.14,0,0,1,103,31a5.82,5.82,0,0,1-1.32,0,3.89,3.89,0,0,1-1.12-.26,3.17,3.17,0,0,1-1.48-1.2,4.09,4.09,0,0,1-.46-.88,6.56,6.56,0,0,1-.34-1.32,11.16,11.16,0,0,1-.11-2.08c0-.35,0-.69.08-1a5.32,5.32,0,0,1,.29-1.24,4.22,4.22,0,0,1,.32-.68,4.89,4.89,0,0,1,.55-.74,3.24,3.24,0,0,1,.94-.71,4.12,4.12,0,0,1,1.22-.38,4.5,4.5,0,0,1,1.37,0,3,3,0,0,1,1.4.62,3.58,3.58,0,0,1,.61.62l.09.12a0,0,0,0,0,0,0s0,0,0,0a.13.13,0,0,0,0-.06v-5.6a.42.42,0,0,1,.28-.41.73.73,0,0,1,.2-.05h.94a.78.78,0,0,1,.26,0,.48.48,0,0,1,.22.15.37.37,0,0,1,.1.25,1.33,1.33,0,0,1,0,.2Zm-1.95,2.52a7.91,7.91,0,0,0-.15-1.61,4.16,4.16,0,0,0-.25-.83,2.57,2.57,0,0,0-.62-.94,1.9,1.9,0,0,0-1-.52A2.52,2.52,0,0,0,102,22a1.65,1.65,0,0,0-.58.32,1.52,1.52,0,0,0-.4.47c-.07.12-.14.25-.2.38a4.72,4.72,0,0,0-.3,1.16,6.2,6.2,0,0,0-.09,1.05,11.29,11.29,0,0,0,.08,1.84,4.25,4.25,0,0,0,.14.71,3,3,0,0,0,.42.94,1.71,1.71,0,0,0,.91.65,2.61,2.61,0,0,0,1.33.05,2.39,2.39,0,0,0,.58-.22,2.07,2.07,0,0,0,.75-.75,3,3,0,0,0,.34-.78,5.93,5.93,0,0,0,.21-1.26C105.17,26.36,105.17,26.12,105.18,25.88Z"/><path class="cls-2" d="M86.92,23.42V16.25a.41.41,0,0,1,.2-.34.63.63,0,0,1,.23-.08h1.14a1,1,0,0,1,.18.06.4.4,0,0,1,.25.35v8.89a1.48,1.48,0,0,0,0,.21s0,0,0,.05,0,0,0,0l.21-.23,1-1.07.87-1,.67-.74.9-1,.39-.43a.72.72,0,0,1,.53-.25h1.53a.34.34,0,0,1,.19.07.27.27,0,0,1,.08.35,1,1,0,0,1-.12.16l-.69.69c-.51.52-1,1-1.54,1.54l-1.81,1.82-.13.14s0,.06,0,.12l0,.07,1.55,1.8,1.23,1.43c.39.44.77.89,1.15,1.33l.23.27a.54.54,0,0,1,.1.16.29.29,0,0,1-.18.37A.83.83,0,0,1,95,31H93.44A.67.67,0,0,1,93,30.8l-.15-.17c-.51-.66-1-1.31-1.55-2l-.83-1.06c-.37-.46-.74-.93-1.1-1.4l-.27-.34a.27.27,0,0,0-.08-.07h0s0,0,0,0a1.34,1.34,0,0,0,0,.2v4.35a1.2,1.2,0,0,1,0,.19.45.45,0,0,1-.27.39.67.67,0,0,1-.28.06h-.85a1.07,1.07,0,0,1-.25,0,.45.45,0,0,1-.21-.12.4.4,0,0,1-.14-.31V23.42Z"/><path class="cls-2" d="M119.8,27.82v2.65a.45.45,0,0,1-.25.4.55.55,0,0,1-.28.07h-.62a.76.76,0,0,1-.21,0,.47.47,0,0,1-.37-.35s0-.1,0-.16-.09-.41-.14-.62a.14.14,0,0,0,0-.06s0,0,0,0a.86.86,0,0,0-.07.1,4.2,4.2,0,0,1-.72.74,2.75,2.75,0,0,1-1.25.51,5.17,5.17,0,0,1-1,0,4.53,4.53,0,0,1-1.69-.46,4,4,0,0,1-1.49-1.31,5.22,5.22,0,0,1-.71-1.58,6.1,6.1,0,0,1-.19-1.12,5.78,5.78,0,0,1,0-1.1c0-.14,0-.29,0-.43a6.22,6.22,0,0,1,.45-1.95,4.32,4.32,0,0,1,.92-1.39,3.49,3.49,0,0,1,.74-.59,4.51,4.51,0,0,1,1.51-.56,5.81,5.81,0,0,1,1.44-.08,5.33,5.33,0,0,1,1.06.17,3.77,3.77,0,0,1,2.32,1.81,5.24,5.24,0,0,1,.59,1.72,6.09,6.09,0,0,1,.1.73,7.31,7.31,0,0,1,0,.81c0,.69,0,1.38,0,2.07Zm-7-1.83a8.13,8.13,0,0,0,.07,1.1,7,7,0,0,0,.22,1,2.77,2.77,0,0,0,.41.78,1.86,1.86,0,0,0,.27.29,2,2,0,0,0,.92.44,2.92,2.92,0,0,0,1.44-.05,2,2,0,0,0,.85-.49,2.44,2.44,0,0,0,.45-.65,3.7,3.7,0,0,0,.31-.92,6.77,6.77,0,0,0,.14-1.27,9.78,9.78,0,0,0,0-1.53,6.68,6.68,0,0,0-.18-.89,3.61,3.61,0,0,0-.27-.67,2.13,2.13,0,0,0-.46-.61,2.06,2.06,0,0,0-.83-.46,3,3,0,0,0-.78-.09,2.78,2.78,0,0,0-.76.09,2,2,0,0,0-1,.59,2.88,2.88,0,0,0-.26.35,3.68,3.68,0,0,0-.34.85,5.86,5.86,0,0,0-.14.75q0,.39-.06.78C112.74,25.58,112.75,25.79,112.75,26Z"/><path class="cls-2" d="M73.8,25.75a8,8,0,0,1-.17,1.64,5.12,5.12,0,0,1-.78,1.83,4.05,4.05,0,0,1-1.74,1.46,4.92,4.92,0,0,1-1.24.37,6,6,0,0,1-1.2.06,4.81,4.81,0,0,1-1.87-.42,4.12,4.12,0,0,1-1.26-.85,4.46,4.46,0,0,1-1-1.42A6.2,6.2,0,0,1,64.14,27a7.39,7.39,0,0,1-.07-1.82,6.36,6.36,0,0,1,.34-1.67,4.86,4.86,0,0,1,.81-1.44,4.67,4.67,0,0,1,.91-.81,4.75,4.75,0,0,1,1.7-.68,6.33,6.33,0,0,1,1.3-.1,5.33,5.33,0,0,1,1.63.29,4.31,4.31,0,0,1,1.56.95,4.19,4.19,0,0,1,.75,1,5.49,5.49,0,0,1,.58,1.55A8.55,8.55,0,0,1,73.8,25.75ZM66.17,26c0,.15,0,.31,0,.47a5,5,0,0,0,.13,1,3.87,3.87,0,0,0,.49,1.23,2.19,2.19,0,0,0,1.31.94,2.3,2.3,0,0,0,.64.09,3.05,3.05,0,0,0,1-.12,2.13,2.13,0,0,0,.76-.43,2.57,2.57,0,0,0,.57-.73,3.94,3.94,0,0,0,.32-.89,5.52,5.52,0,0,0,.17-1.21,9.69,9.69,0,0,0,0-1.32,5.47,5.47,0,0,0-.22-1.14A3.5,3.5,0,0,0,71,23a2.22,2.22,0,0,0-1.28-.93A2.84,2.84,0,0,0,69,22a3.18,3.18,0,0,0-1,.11,2.17,2.17,0,0,0-1,.62,2.68,2.68,0,0,0-.39.56,4.36,4.36,0,0,0-.41,1.36c0,.19,0,.38-.06.58S66.17,25.72,66.17,26Z"/><path class="cls-2" d="M77.35,25.83V21.25a2,2,0,0,1,0-.23.35.35,0,0,1,.14-.22.45.45,0,0,1,.3-.12h.79A.47.47,0,0,1,79,21a.57.57,0,0,1,0,.14c.09.26.17.52.25.79a.69.69,0,0,0,.05.13h0l.09-.09a4.86,4.86,0,0,1,.53-.58,3.22,3.22,0,0,1,1.15-.73,2.8,2.8,0,0,1,.76-.17,3,3,0,0,1,.89,0,2,2,0,0,1,.39.13,1,1,0,0,1,.24.17.41.41,0,0,1,.12.38.75.75,0,0,0,0,.16c-.07.22-.13.44-.19.65a1.18,1.18,0,0,1-.07.2.47.47,0,0,1-.45.31l-.27,0-.7-.16a5.73,5.73,0,0,0-.58-.07,1.32,1.32,0,0,0-.89.28,2,2,0,0,0-.51.56,2.41,2.41,0,0,0-.29.66,3.38,3.38,0,0,0-.14.69q0,.3,0,.6v2.57c0,.55,0,1.1,0,1.66,0,.36,0,.71,0,1.07,0,.06,0,.11,0,.17a.42.42,0,0,1-.28.42.6.6,0,0,1-.24.05H78l-.22,0a.54.54,0,0,1-.27-.11.43.43,0,0,1-.16-.28c0-.07,0-.14,0-.21V25.83Z"/><path class="cls-3" d="M133.67,29.53a1.14,1.14,0,0,1-1.09,1.18,1.17,1.17,0,0,1-1.21-1.07,1.15,1.15,0,0,1,1.13-1.23A1.13,1.13,0,0,1,133.67,29.53Zm-1.73,0v.64s0,.07,0,.1a0,0,0,0,0,0,0h.31s0,0,0,0,0-.05,0-.08v-.43c0-.06,0-.08.09-.08s.08,0,.1.05l.15.3c.16.34.06.27.43.28h.06a0,0,0,0,0,0-.05.36.36,0,0,0,0-.09l-.21-.43,0-.07a.06.06,0,0,1,0,0l.13-.08a.32.32,0,0,0,.15-.25.76.76,0,0,0,0-.15.37.37,0,0,0-.1-.22l-.1-.07a.75.75,0,0,0-.29-.09H132l0,0a.34.34,0,0,0,0,.1Z"/><path class="cls-2" d="M131.94,29.53V28.9a.34.34,0,0,1,0-.1l0,0h.73a.75.75,0,0,1,.29.09l.1.07a.37.37,0,0,1,.1.22.76.76,0,0,1,0,.15.32.32,0,0,1-.15.25l-.13.08a.06.06,0,0,0,0,0l0,.07.21.43a.36.36,0,0,1,0,.09,0,0,0,0,1,0,.05h-.06c-.37,0-.27.06-.43-.28l-.15-.3s-.05-.05-.1-.05-.09,0-.09.08v.43s0,.06,0,.08,0,0,0,0H132a0,0,0,0,1,0,0s0-.07,0-.1Zm.56-.09.17,0a.19.19,0,0,0,.11-.3.24.24,0,0,0-.13-.09.82.82,0,0,0-.27,0,.06.06,0,0,0,0,.06v.31a0,0,0,0,0,0,0s0,0,0,0Z"/><path class="cls-3" d="M132.5,29.44l-.13,0s0,0,0,0a0,0,0,0,1,0,0v-.31a.06.06,0,0,1,0-.06.82.82,0,0,1,.27,0,.24.24,0,0,1,.13.09.19.19,0,0,1-.11.3Z"/></g></svg>