<svg width="160" height="50" xmlns="http://www.w3.org/2000/svg" xmlns:svg="http://www.w3.org/2000/svg">
 <defs>
  <style>.cls-1{fill:#ff8601;}.cls-2{fill:#0268b1;}.cls-3{fill:#fff;}</style>
 </defs>
 <title>workday-logo_cropped</title>
 <g class="layer">
  <title>Layer 1</title>
  <g id="Guidelines">
   <path class="cls-1" d="m84.48031,0.88545l0,0s0,0 0,0l0.95503,0c0.45023,0 0.90046,0.06822 1.36433,0.13643l0.98232,0.13643c0.5048,0.06822 0.99596,0.16372 1.50076,0.25922l1.47348,0.43659l1.36433,0.38201c0.98232,0.28651 1.95099,0.61395 2.91967,0.98232c0.4093,0.16372 0.8186,0.32744 1.2279,0.51845a33.42611,33.42611 0 0 1 3.27439,1.65084c0.87317,0.49116 1.7327,1.03689 2.5513,1.60991c0.53209,0.38201 1.06418,0.76403 1.56898,1.15968s1.03689,0.84589 1.54169,1.36433a35.86826,35.86826 0 0 1 2.72866,2.72866a32.15728,32.15728 0 0 1 2.19657,2.72866c0.47752,0.65488 0.94139,1.36433 1.36433,2.00557a33.61712,33.61712 0 0 1 1.8282,3.28804q0.35473,0.7231 0.65488,1.43255a1.85549,1.85549 0 0 1 -0.13643,1.78727a1.80092,1.80092 0 0 1 -1.18697,0.84589a1.92371,1.92371 0 0 1 -2.15564,-1.06418l-0.28651,-0.64124a23.71207,23.71207 0 0 0 -1.21425,-2.42851c-0.39566,-0.70945 -0.83224,-1.36433 -1.28247,-2.08743s-1.13239,-1.58262 -1.74634,-2.33301s-1.11875,-1.36433 -1.71906,-1.92371s-1.05053,-1.02325 -1.59627,-1.51441s-1.45983,-1.39162 -2.21022,-1.91006s-1.36433,-0.94139 -2.06014,-1.36433s-1.03689,-0.61395 -1.58262,-0.88682s-1.18697,-0.61395 -1.80092,-0.88682s-1.36433,-0.60031 -2.11471,-0.85953s-1.30976,-0.5048 -1.99192,-0.68217s-1.10511,-0.30015 -1.67813,-0.42294s-1.05053,-0.23194 -1.6372,-0.35473l-1.2279,-0.17736l-1.03689,-0.10915c-0.43659,0 -0.85953,0 -1.36433,-0.08186s-0.73674,0 -1.10511,0l-1.37797,0l-0.45023,0l-0.19101,0c-0.45023,0 -0.90046,0 -1.36433,0.10915s-1.05053,0.12279 -1.56898,0.19101l-0.79131,0.13643c-0.77767,0.13643 -1.54169,0.3138 -2.30572,0.51845s-1.71906,0.5048 -2.56494,0.80496s-1.80092,0.70945 -2.72866,1.13239a28.02336,28.02336 0 0 0 -2.59223,1.36433a29.08754,29.08754 0 0 0 -2.42851,1.6372c-0.75038,0.55938 -1.47348,1.15968 -2.16929,1.77363s-1.20061,1.13239 -1.75999,1.71906s-1.36433,1.45983 -1.91006,2.2375s-1.13239,1.55534 -1.65084,2.36029a29.30583,29.30583 0 0 0 -1.80092,3.27439l-0.36837,0.8186c0,0.12279 -0.10915,0.25922 -0.17736,0.38201a1.91006,1.91006 0 0 1 -3.31532,-1.51441c0.15008,-0.36837 0.3138,-0.7231 0.49116,-1.07782q0.61395,-1.36433 1.36433,-2.57859t1.67813,-2.61952c0.4093,-0.55938 0.83224,-1.11875 1.26883,-1.66448a35.47261,35.47261 0 0 1 2.81052,-3.09703c0.5048,-0.49116 1.03689,-0.96868 1.56898,-1.36433c0.83224,-0.7231 1.70541,-1.36433 2.60587,-2.03285s1.75999,-1.17332 2.72866,-1.69177a28.5418,28.5418 0 0 1 2.6468,-1.36433c0.95503,-0.45023 1.95099,-0.84589 2.94695,-1.20061s2.08743,-0.68217 3.13796,-0.94139c0.77767,-0.19101 1.54169,-0.35473 2.33301,-0.47752l1.36433,-0.20465l1.20061,-0.13643l0.73674,0l1.05053,0l0.08186,0l0,-0.21829l3.13796,0z" id="svg_1"/>
   <path class="cls-2" d="m20.08389,29.5364l0.08186,0l0,-0.06822a0.5048,0.5048 0 0 1 0.46387,-0.32744l2.0465,0a0.60031,0.60031 0 0 1 0.53209,0.4093a1.93735,1.93735 0 0 1 0.0955,0.30015c0.3138,1.29611 0.61395,2.59223 0.94139,3.90199s0.61395,2.53766 0.92775,3.80648c0.10915,0.43659 0.20465,0.88682 0.3138,1.36433s0.15008,0.75038 0.20465,1.13239s0.0955,0.80496 0.13643,1.21425a2.85145,2.85145 0 0 0 0,0.47752s0,0 0,0l0,0s0,-0.10915 0,-0.16372c0.0955,-0.64124 0.19101,-1.26883 0.32744,-1.89642q0.08186,-0.4093 0.20465,-0.8186l0.85953,-3.24711c0.36837,-1.36433 0.73674,-2.72866 1.09146,-4.09299c0.15008,-0.54573 0.30015,-1.09146 0.43659,-1.6372a1.60991,1.60991 0 0 1 0.0955,-0.27287a0.69581,0.69581 0 0 1 0.54573,-0.43659l2.4558,0a0.76403,0.76403 0 0 1 0.68217,0.55938c0,0.21829 0.12279,0.43659 0.19101,0.65488l0.94139,3.47904c0.39566,1.44619 0.77767,2.89238 1.17332,4.33857l0.28651,1.06418c0.12279,0.46387 0.19101,0.92775 0.27287,1.36433l0.16372,1.05053a0.19101,0.19101 0 0 0 0,0.08186s0,0 0,0l0.12279,-0.83224c0,-0.28651 0.0955,-0.55938 0.13643,-0.84589c0.10915,-0.77767 0.28651,-1.52805 0.46387,-2.29208c0.21829,-0.98232 0.42294,-1.96464 0.64124,-2.94695l0.49116,-2.15564c0.15008,-0.7231 0.3138,-1.45983 0.47752,-2.18293l0.16372,-0.73674a0.69581,0.69581 0 0 1 0.69581,-0.58666l1.84185,0a0.47752,0.47752 0 0 1 0.42294,0.55938a2.41487,2.41487 0 0 1 0,0.27287c-0.28651,1.07782 -0.57302,2.16929 -0.87317,3.24711l-1.09146,4.32493l-1.02325,3.7792l-0.32744,1.20061a0.79131,0.79131 0 0 1 0,0.19101a0.64124,0.64124 0 0 1 -0.53209,0.4093a1.36433,1.36433 0 0 1 -0.32744,0l-2.4558,0a1.36433,1.36433 0 0 1 -0.34108,0a0.51845,0.51845 0 0 1 -0.42294,-0.34108a1.59627,1.59627 0 0 1 -0.06822,-0.27287c-0.3138,-1.14604 -0.61395,-2.29208 -0.92775,-3.43811c-0.36837,-1.36433 -0.7231,-2.72866 -1.09146,-4.09299c-0.12279,-0.43659 -0.23194,-0.88682 -0.35473,-1.36433a9.31838,9.31838 0 0 1 -0.23194,-1.10511c0,-0.42294 -0.10915,-0.85953 -0.17736,-1.28247l0,-0.24558l0,0s0,0 0,0c0,0.27287 -0.08186,0.55938 -0.10915,0.83224a15.43058,15.43058 0 0 1 -0.36837,1.92371l-1.18697,4.43408c-0.23194,0.8186 -0.45023,1.6372 -0.66852,2.4558l-0.49116,1.8282l0,0.16372a0.62759,0.62759 0 0 1 -0.53209,0.45023a1.45983,1.45983 0 0 1 -0.34108,0l-2.4558,0a1.24154,1.24154 0 0 1 -0.3138,0a0.47752,0.47752 0 0 1 -0.39566,-0.3138a1.06418,1.06418 0 0 1 0,-0.19101c-0.13643,-0.51845 -0.28651,-1.03689 -0.42294,-1.55534c-0.23194,-0.8186 -0.45023,-1.6372 -0.66852,-2.44215c-0.36837,-1.36433 -0.7231,-2.66045 -1.09146,-3.98385l-1.10511,-4.09299l-0.20465,-0.69581a0.25922,0.25922 0 0 0 0,-0.10915s0,0 -0.0955,0l-0.23194,-0.20465z" id="svg_2"/>
   <path class="cls-2" d="m126.69271,49.05998l0,0l0,0a0.87317,0.87317 0 0 1 -0.46387,-0.42294c-0.12279,-0.19101 -0.23194,-0.38201 -0.36837,-0.57302a0.55938,0.55938 0 0 1 0,-0.61395a0.69581,0.69581 0 0 1 0.35473,-0.30015l0.45023,-0.17736a3.00153,3.00153 0 0 0 1.09146,-0.62759a5.67562,5.67562 0 0 0 0.62759,-0.65488a6.27592,6.27592 0 0 0 0.88682,-1.69177a6.67158,6.67158 0 0 0 0.25922,-0.84589a0.3138,0.3138 0 0 0 0,-0.19101l-0.28651,-0.64124l-2.21022,-5.17081l-2.25115,-5.23903l-0.85953,-2.00557a0.94139,0.94139 0 0 1 0,-0.17736a0.36837,0.36837 0 0 1 0.08186,-0.36837a0.76403,0.76403 0 0 1 0.4093,-0.19101l1.77363,0a1.05053,1.05053 0 0 1 0.45023,0.08186a0.79131,0.79131 0 0 1 0.45023,0.43659a2.57859,2.57859 0 0 1 0.12279,0.28651l1.59627,4.22943c0.49116,1.26883 0.96868,2.52401 1.44619,3.79284a8.37699,8.37699 0 0 1 0.4093,1.36433l0,0.16372s0,0 0,0s0,0 0,0c0.0955,-0.3138 0.17736,-0.62759 0.27287,-0.92775c0.15008,-0.5048 0.3138,-1.0096 0.47752,-1.50076c0.3138,-0.99596 0.64124,-1.99192 0.96868,-2.98788l1.36433,-4.16121a3.06974,3.06974 0 0 1 0.10915,-0.32744a0.64124,0.64124 0 0 1 0.3138,-0.34108a0.83224,0.83224 0 0 1 0.4093,-0.10915l1.85549,0a0.58666,0.58666 0 0 1 0.39566,0.20465a0.28651,0.28651 0 0 1 0.0955,0.19101a0.69581,0.69581 0 0 1 0,0.28651l-0.24558,0.69581c-0.36837,1.09146 -0.75038,2.18293 -1.13239,3.27439s-0.75038,2.12836 -1.11875,3.20618l-1.84185,5.30725c-0.32744,0.9141 -0.64124,1.8282 -0.95503,2.72866c-0.10915,0.30015 -0.23194,0.60031 -0.36837,0.88682a5.45732,5.45732 0 0 1 -1.14604,1.56898a5.27996,5.27996 0 0 1 -1.18697,0.85953a8.18599,8.18599 0 0 1 -0.99596,0.45023l-0.58666,0.20465a0.08186,0.08186 0 0 0 0,0.08186l-0.65488,-0.05457z" id="svg_3"/>
   <path class="cls-2" d="m139.87215,41.65166a0.10915,0.10915 0 0 0 0,0a1.18697,1.18697 0 0 1 -0.17736,0.47752a1.86913,1.86913 0 0 1 -1.13239,0.87317a1.88278,1.88278 0 0 1 -1.59627,-0.27287a1.91006,1.91006 0 0 1 -0.57302,-2.51037a1.78727,1.78727 0 0 1 0.87317,-0.80496a1.95099,1.95099 0 0 1 2.5513,1.0096c0,0.08186 0,0.16372 0.06822,0.24558s0,0 0,0l-0.01364,0.98232zm-0.3138,-0.47752a1.54169,1.54169 0 0 0 -1.59627,-1.52805a1.56898,1.56898 0 0 0 -1.54169,1.67813a1.59627,1.59627 0 0 0 1.65084,1.45983a1.55534,1.55534 0 0 0 1.48712,-1.60991z" id="svg_4"/>
   <path class="cls-2" d="m103.34901,32.75622l0,9.44117a1.17332,1.17332 0 0 1 0,0.21829a0.65488,0.65488 0 0 1 -0.54573,0.65488l-0.23194,0c-0.3138,0 -0.61395,0 -0.92775,0a0.7231,0.7231 0 0 1 -0.24558,0a0.66852,0.66852 0 0 1 -0.38201,-0.36837a1.65084,1.65084 0 0 1 0,-0.24558c-0.06822,-0.23194 -0.10915,-0.47752 -0.17736,-0.70945a1.65084,1.65084 0 0 0 0,-0.24558s0,0 0,0l-0.27287,0.32744a4.52958,4.52958 0 0 1 -1.36433,1.10511a4.284,4.284 0 0 1 -1.48712,0.24558a7.94041,7.94041 0 0 1 -1.80092,0a5.30725,5.30725 0 0 1 -1.52805,-0.35473a4.32493,4.32493 0 0 1 -2.01921,-1.6372a5.58011,5.58011 0 0 1 -0.62759,-1.20061a8.95001,8.95001 0 0 1 -0.46387,-1.80092a15.22593,15.22593 0 0 1 -0.15008,-2.83781c0,-0.47752 0,-0.94139 0.10915,-1.36433a7.25824,7.25824 0 0 1 0.39566,-1.69177a5.75748,5.75748 0 0 1 0.43659,-0.92775a6.67158,6.67158 0 0 1 0.75038,-1.0096a4.42043,4.42043 0 0 1 1.28247,-0.96868a5.62104,5.62104 0 0 1 1.66448,-0.51845a6.13949,6.13949 0 0 1 1.86913,0a4.09299,4.09299 0 0 1 1.91006,0.84589a4.88431,4.88431 0 0 1 0.83224,0.84589l0.12279,0.16372a0,0 0 0 0 0,0s0,0 0,0a0.17736,0.17736 0 0 0 0,-0.08186l0,-7.64025a0.57302,0.57302 0 0 1 0.38201,-0.55938a0.99596,0.99596 0 0 1 0.27287,-0.06822l1.28247,0a1.06418,1.06418 0 0 1 0.35473,0a0.65488,0.65488 0 0 1 0.30015,0.20465a0.5048,0.5048 0 0 1 0.13643,0.34108a1.81456,1.81456 0 0 1 0,0.27287l0.12279,9.56396zm-2.66045,3.43811a10.79186,10.79186 0 0 0 -0.20465,-2.19657a5.67562,5.67562 0 0 0 -0.34108,-1.13239a3.50633,3.50633 0 0 0 -0.84589,-1.28247a2.59223,2.59223 0 0 0 -1.36433,-0.70945a3.43811,3.43811 0 0 0 -1.58262,0.02729a2.25115,2.25115 0 0 0 -0.79131,0.43659a2.07378,2.07378 0 0 0 -0.54573,0.64124c-0.0955,0.16372 -0.19101,0.34108 -0.27287,0.51845a6.43964,6.43964 0 0 0 -0.4093,1.58262a8.45885,8.45885 0 0 0 -0.12279,1.43255a15.4033,15.4033 0 0 0 0.10915,2.51037a5.79841,5.79841 0 0 0 0.19101,0.96868a4.09299,4.09299 0 0 0 0.57302,1.28247a2.33301,2.33301 0 0 0 1.24154,0.88682a3.5609,3.5609 0 0 0 1.81456,0.06822a3.26075,3.26075 0 0 0 0.79131,-0.30015a2.82417,2.82417 0 0 0 1.02325,-1.02325a4.09299,4.09299 0 0 0 0.46387,-1.06418a8.09048,8.09048 0 0 0 0.28651,-1.71906c-0.02729,-0.27287 -0.02729,-0.60031 -0.01364,-0.92775z" id="svg_5"/>
   <path class="cls-2" d="m75.77588,32.83808l0,-9.78225a0.55938,0.55938 0 0 1 0.27287,-0.46387a0.85953,0.85953 0 0 1 0.3138,-0.10915l1.55534,0a1.36433,1.36433 0 0 1 0.24558,0.08186a0.54573,0.54573 0 0 1 0.34108,0.47752l0,12.1289a2.01921,2.01921 0 0 0 0,0.28651s0,0 0,0.06822s0,0 0,0l0.28651,-0.3138l1.36433,-1.45983l1.18697,-1.36433l0.9141,-1.0096l1.2279,-1.36433l0.53209,-0.58666a0.98232,0.98232 0 0 1 0.7231,-0.34108l2.08743,0a0.46387,0.46387 0 0 1 0.25922,0.0955a0.36837,0.36837 0 0 1 0.10915,0.47752a1.36433,1.36433 0 0 1 -0.16372,0.21829l-0.94139,0.94139c-0.69581,0.70945 -1.36433,1.36433 -2.10107,2.10107l-2.46944,2.48308l-0.17736,0.19101s0,0.08186 0,0.16372l0,0.0955l2.11471,2.4558l1.67813,1.95099c0.53209,0.60031 1.05053,1.21425 1.56898,1.81456l0.3138,0.36837a0.73674,0.73674 0 0 1 0.13643,0.21829a0.39566,0.39566 0 0 1 -0.24558,0.5048a1.13239,1.13239 0 0 1 -0.10915,0.01364l-2.12836,0a0.9141,0.9141 0 0 1 -0.60031,-0.27287l-0.20465,-0.23194c-0.69581,-0.90046 -1.36433,-1.78727 -2.11471,-2.72866l-1.13239,-1.44619c-0.5048,-0.62759 -1.0096,-1.26883 -1.50076,-1.91006l-0.36837,-0.46387a0.36837,0.36837 0 0 0 -0.10915,-0.0955l0,0s0,0 0,0a1.8282,1.8282 0 0 0 0,0.27287l0,5.93484a1.6372,1.6372 0 0 1 0,0.25922a0.61395,0.61395 0 0 1 -0.36837,0.53209a0.9141,0.9141 0 0 1 -0.38201,0.08186l-1.15968,0a1.45983,1.45983 0 0 1 -0.34108,0a0.61395,0.61395 0 0 1 -0.28651,-0.16372a0.54573,0.54573 0 0 1 -0.19101,-0.42294l0,-9.68675l-0.13643,0z" id="svg_6"/>
   <path class="cls-2" d="m120.63508,38.84114l0,3.61548a0.61395,0.61395 0 0 1 -0.34108,0.54573a0.75038,0.75038 0 0 1 -0.38201,0.0955l-0.84589,0a1.03689,1.03689 0 0 1 -0.28651,0a0.64124,0.64124 0 0 1 -0.5048,-0.47752s0,-0.13643 0,-0.21829s-0.12279,-0.55938 -0.19101,-0.84589a0.19101,0.19101 0 0 0 0,-0.08186s0,0 0,0a1.17332,1.17332 0 0 0 -0.0955,0.13643a5.73019,5.73019 0 0 1 -0.98232,1.0096a3.75191,3.75191 0 0 1 -1.70541,0.69581a7.05359,7.05359 0 0 1 -1.36433,0a6.18042,6.18042 0 0 1 -2.30572,-0.62759a5.45732,5.45732 0 0 1 -2.03285,-1.78727a7.12181,7.12181 0 0 1 -0.96868,-2.15564a8.32242,8.32242 0 0 1 -0.25922,-1.52805a7.88583,7.88583 0 0 1 0,-1.50076c0,-0.19101 0,-0.39566 0,-0.58666a8.48614,8.48614 0 0 1 0.61395,-2.66045a5.89391,5.89391 0 0 1 1.25518,-1.89642a4.76152,4.76152 0 0 1 1.0096,-0.80496a6.15313,6.15313 0 0 1 2.06014,-0.76403a7.92676,7.92676 0 0 1 1.96464,-0.10915a7.27188,7.27188 0 0 1 1.44619,0.23194a5.14353,5.14353 0 0 1 3.16525,2.46944a7.14909,7.14909 0 0 1 0.80496,2.34665a8.30878,8.30878 0 0 1 0.13643,0.99596a9.97326,9.97326 0 0 1 0,1.10511c0,0.94139 0,1.88278 0,2.82417l-0.19101,-0.02729zm-9.55032,-2.49673a11.09201,11.09201 0 0 0 0.0955,1.50076a9.55032,9.55032 0 0 0 0.30015,1.36433a3.7792,3.7792 0 0 0 0.55938,1.06418a2.53766,2.53766 0 0 0 0.36837,0.39566a2.72866,2.72866 0 0 0 1.25518,0.60031a3.98385,3.98385 0 0 0 1.96464,-0.06822a2.72866,2.72866 0 0 0 1.15968,-0.66852a3.32897,3.32897 0 0 0 0.61395,-0.88682a5.04802,5.04802 0 0 0 0.42294,-1.25518a9.23652,9.23652 0 0 0 0.19101,-1.7327a13.34316,13.34316 0 0 0 0,-2.08743a9.11373,9.11373 0 0 0 -0.24558,-1.21425a4.92523,4.92523 0 0 0 -0.36837,-0.9141a2.90603,2.90603 0 0 0 -0.62759,-0.83224a2.81052,2.81052 0 0 0 -1.13239,-0.62759a4.09299,4.09299 0 0 0 -1.06418,-0.12279a3.79284,3.79284 0 0 0 -1.03689,0.12279a2.72866,2.72866 0 0 0 -1.36433,0.80496a3.92927,3.92927 0 0 0 -0.35473,0.47752a5.02074,5.02074 0 0 0 -0.46387,1.15968a7.99498,7.99498 0 0 0 -0.19101,1.02325q0,0.53209 -0.08186,1.06418c-0.08186,0.27287 -0.06822,0.55938 -0.06822,0.84589l0.06822,-0.01364z" id="svg_7"/>
   <path class="cls-2" d="m57.87586,36.01697a10.91465,10.91465 0 0 1 -0.23194,2.2375a6.98537,6.98537 0 0 1 -1.06418,2.49673a5.52554,5.52554 0 0 1 -2.37394,1.99192a6.71251,6.71251 0 0 1 -1.69177,0.5048a8.18599,8.18599 0 0 1 -1.6372,0.08186a6.56243,6.56243 0 0 1 -2.5513,-0.57302a5.62104,5.62104 0 0 1 -1.71906,-1.15968a6.08492,6.08492 0 0 1 -1.36433,-1.93735a8.45885,8.45885 0 0 1 -0.54573,-1.93735a10.08241,10.08241 0 0 1 -0.0955,-2.48308a8.67715,8.67715 0 0 1 0.46387,-2.27843a6.63065,6.63065 0 0 1 1.10511,-1.96464a6.37143,6.37143 0 0 1 1.24154,-1.10511a6.48057,6.48057 0 0 1 2.31936,-0.92775a8.63622,8.63622 0 0 1 1.77363,-0.13643a7.27188,7.27188 0 0 1 2.22386,0.39566a5.88027,5.88027 0 0 1 2.12836,1.29611a5.71655,5.71655 0 0 1 1.02325,1.36433a7.49018,7.49018 0 0 1 0.79131,2.11471a11.66503,11.66503 0 0 1 0.20465,2.01921zm-10.40985,0.34108c0,0.20465 0,0.42294 0,0.64124a6.82166,6.82166 0 0 0 0.17736,1.36433a5.27996,5.27996 0 0 0 0.66852,1.67813a2.98788,2.98788 0 0 0 1.78727,1.28247a3.13796,3.13796 0 0 0 0.87317,0.12279a4.16121,4.16121 0 0 0 1.36433,-0.16372a2.90603,2.90603 0 0 0 1.03689,-0.58666a3.50633,3.50633 0 0 0 0.77767,-0.99596a5.37546,5.37546 0 0 0 0.43659,-1.21425a7.53111,7.53111 0 0 0 0.23194,-1.65084a13.22037,13.22037 0 0 0 0,-1.80092a7.46289,7.46289 0 0 0 -0.30015,-1.55534a4.77516,4.77516 0 0 0 -0.46387,-1.21425a3.02881,3.02881 0 0 0 -1.74634,-1.26883a3.8747,3.8747 0 0 0 -0.98232,-0.0955a4.33857,4.33857 0 0 0 -1.36433,0.15008a2.9606,2.9606 0 0 0 -1.36433,0.84589a3.65641,3.65641 0 0 0 -0.53209,0.76403a5.94848,5.94848 0 0 0 -0.55938,1.85549c0,0.25922 0,0.51845 -0.08186,0.79131s0.04093,0.66852 0.04093,1.05053z" id="svg_8"/>
   <path class="cls-2" d="m62.71923,36.12612l0,-6.24864a2.72866,2.72866 0 0 1 0,-0.3138a0.47752,0.47752 0 0 1 0.19101,-0.30015a0.61395,0.61395 0 0 1 0.4093,-0.16372l1.07782,0a0.64124,0.64124 0 0 1 0.57302,0.43659a0.77767,0.77767 0 0 1 0,0.19101c0.12279,0.35473 0.23194,0.70945 0.34108,1.07782a0.94139,0.94139 0 0 0 0.06822,0.17736l0,0l0.12279,-0.12279a6.63065,6.63065 0 0 1 0.7231,-0.79131a4.39315,4.39315 0 0 1 1.56898,-0.99596a3.82013,3.82013 0 0 1 1.03689,-0.23194a4.09299,4.09299 0 0 1 1.21425,0a2.72866,2.72866 0 0 1 0.53209,0.17736a1.36433,1.36433 0 0 1 0.32744,0.23194a0.55938,0.55938 0 0 1 0.16372,0.51845a1.02325,1.02325 0 0 0 0,0.21829c-0.0955,0.30015 -0.17736,0.60031 -0.25922,0.88682a1.60991,1.60991 0 0 1 -0.0955,0.27287a0.64124,0.64124 0 0 1 -0.61395,0.42294l-0.36837,0l-0.95503,-0.21829a7.81762,7.81762 0 0 0 -0.79131,-0.0955a1.80092,1.80092 0 0 0 -1.21425,0.38201a2.72866,2.72866 0 0 0 -0.69581,0.76403a3.28804,3.28804 0 0 0 -0.39566,0.90046a4.61144,4.61144 0 0 0 -0.19101,0.94139q0,0.4093 0,0.8186l0,3.50633c0,0.75038 0,1.50076 0,2.26479c0,0.49116 0,0.96868 0,1.45983c0,0.08186 0,0.15008 0,0.23194a0.57302,0.57302 0 0 1 -0.38201,0.57302a0.8186,0.8186 0 0 1 -0.32744,0.06822l-1.17332,0l-0.30015,0a0.73674,0.73674 0 0 1 -0.36837,-0.15008a0.58666,0.58666 0 0 1 -0.21829,-0.38201c0,-0.0955 0,-0.19101 0,-0.28651l0,-6.22135z" id="svg_9"/>
   <path class="cls-3" d="m139.55835,41.17414a1.55534,1.55534 0 0 1 -1.48712,1.60991a1.59627,1.59627 0 0 1 -1.65084,-1.45983a1.56898,1.56898 0 0 1 1.54169,-1.67813a1.54169,1.54169 0 0 1 1.59627,1.52805zm-2.36029,0l0,0.87317s0,0.0955 0,0.13643a0,0 0 0 0 0,0l0.42294,0s0,0 0,0s0,-0.06822 0,-0.10915l0,-0.58666c0,-0.08186 0,-0.10915 0.12279,-0.10915s0.10915,0 0.13643,0.06822l0.20465,0.4093c0.21829,0.46387 0.08186,0.36837 0.58666,0.38201l0.08186,0a0,0 0 0 0 0,-0.06822a0.49116,0.49116 0 0 0 0,-0.12279l-0.28651,-0.58666l0,-0.0955a0.08186,0.08186 0 0 1 0,0l0.17736,-0.10915a0.43659,0.43659 0 0 0 0.20465,-0.34108a1.03689,1.03689 0 0 0 0,-0.20465a0.5048,0.5048 0 0 0 -0.13643,-0.30015l-0.13643,-0.0955a1.02325,1.02325 0 0 0 -0.39566,-0.12279l-0.90046,0l0,0a0.46387,0.46387 0 0 0 0,0.13643l-0.08186,0.84589z" id="svg_10"/>
   <path class="cls-2" d="m137.19806,41.17414l0,-0.85953a0.46387,0.46387 0 0 1 0,-0.13643l0,0l0.99596,0a1.02325,1.02325 0 0 1 0.39566,0.12279l0.13643,0.0955a0.5048,0.5048 0 0 1 0.13643,0.30015a1.03689,1.03689 0 0 1 0,0.20465a0.43659,0.43659 0 0 1 -0.20465,0.34108l-0.17736,0.10915a0.08186,0.08186 0 0 0 0,0l0,0.0955l0.28651,0.58666a0.49116,0.49116 0 0 1 0,0.12279a0,0 0 0 1 0,0.06822l-0.08186,0c-0.5048,0 -0.36837,0.08186 -0.58666,-0.38201l-0.20465,-0.4093s-0.06822,-0.06822 -0.13643,-0.06822s-0.12279,0 -0.12279,0.10915l0,0.58666s0,0.08186 0,0.10915s0,0 0,0l-0.35473,0a0,0 0 0 1 0,0s0,-0.0955 0,-0.13643l-0.08186,-0.85953zm0.76403,-0.12279l0.23194,0a0.25922,0.25922 0 0 0 0.15008,-0.4093a0.32744,0.32744 0 0 0 -0.17736,-0.12279a1.11875,1.11875 0 0 0 -0.36837,0a0.08186,0.08186 0 0 0 0,0.08186l0,0.42294a0,0 0 0 0 0,0s0,0 0,0l0.16372,0.02729z" id="svg_11"/>
   <path class="cls-3" d="m137.96209,41.05136l-0.17736,0s0,0 0,0a0,0 0 0 1 0,0l0,-0.42294a0.08186,0.08186 0 0 1 0,-0.08186a1.11875,1.11875 0 0 1 0.36837,0a0.32744,0.32744 0 0 1 0.17736,0.12279a0.25922,0.25922 0 0 1 -0.15008,0.4093l-0.21829,-0.02729z" id="svg_12"/>
  </g>
 </g>
</svg>