<?xml version="1.0"?>
<svg width="160" height="50" xmlns="http://www.w3.org/2000/svg" xmlns:svg="http://www.w3.org/2000/svg">
 <g>
  <title>Layer 1</title>
  <g stroke="null" id="svg_1">
   <path stroke="null" id="svg_2" d="m80.000001,49.439942c13.476883,0 24.439942,-10.96306 24.439942,-24.439942c0,-13.476883 -10.96306,-24.439942 -24.439942,-24.439942c-13.476883,0 -24.439942,10.96306 -24.439942,24.439942c0,13.476883 10.96306,24.439942 24.439942,24.439942" fill="#00B7E3"/>
   <path stroke="null" id="svg_3" d="m67.291231,24.930171l4.189704,-4.189704c0.139657,-0.139657 0.209485,-0.349142 0.209485,-0.558627c0,-0.41897 -0.349142,-0.768112 -0.768112,-0.768112c-0.209485,0 -0.41897,0.069828 -0.558627,0.209485c0,0 -4.189704,4.189704 -4.189704,4.189704l-4.189704,-4.189704c-0.139657,-0.139657 -0.349142,-0.209485 -0.558627,-0.209485c-0.41897,0 -0.768112,0.349142 -0.768112,0.768112c0,0.209485 0.069828,0.41897 0.209485,0.558627l4.189704,4.189704l-4.189704,4.189704c-0.139657,0.139657 -0.209485,0.349142 -0.209485,0.558627c0,0.41897 0.349142,0.768112 0.768112,0.768112c0.209485,0 0.41897,-0.069828 0.558627,-0.209485l4.189704,-4.189704l4.189704,4.189704c0.139657,0.139657 0.349142,0.209485 0.558627,0.209485c0.41897,0 0.768112,-0.349142 0.768112,-0.768112c0,-0.209485 -0.069828,-0.41897 -0.209485,-0.558627l-4.189704,-4.189704z" fill="#FFFFFF"/>
   <path stroke="null" id="svg_4" d="m92.080316,24.930171c0,0.768112 0.628456,1.32674 1.32674,1.32674c0.768112,0 1.32674,-0.628456 1.32674,-1.32674c0,-0.768112 -0.628456,-1.32674 -1.32674,-1.32674c-0.768112,0 -1.32674,0.558627 -1.32674,1.32674" fill="#FFFFFF"/>
   <path stroke="null" id="svg_5" d="m89.496664,24.930171c0,-2.164681 1.74571,-3.910391 3.910391,-3.910391c2.164681,0 3.910391,1.74571 3.910391,3.910391c0,2.164681 -1.74571,3.910391 -3.910391,3.910391c-2.164681,0 -3.910391,-1.74571 -3.910391,-3.910391m-1.536225,0c0,3.002622 2.443994,5.446616 5.446616,5.446616c3.002622,0 5.446616,-2.443994 5.446616,-5.446616c0,-3.002622 -2.443994,-5.446616 -5.446616,-5.446616c-3.002622,-0.069828 -5.446616,2.443994 -5.446616,5.446616" fill="#FFFFFF"/>
   <path stroke="null" id="svg_6" d="m87.541469,19.553383l-0.209485,0c-0.698284,0 -1.32674,0.209485 -1.885367,0.628456c-0.069828,-0.349142 -0.349142,-0.558627 -0.698284,-0.558627c-0.41897,0 -0.768112,0.349142 -0.768112,0.768112c0,0 0,9.21735 0,9.21735c0,0.41897 0.349142,0.768112 0.768112,0.768112c0.41897,0 0.768112,-0.349142 0.768112,-0.768112c0,0 0,-5.656101 0,-5.656101c0,-1.885367 0.139657,-2.653479 1.815539,-2.862965c0.139657,0 0.279314,0 0.279314,0c0.41897,0 0.768112,-0.349142 0.768112,-0.698284c-0.069828,-0.488799 -0.41897,-0.837941 -0.837941,-0.837941" fill="#FFFFFF"/>
   <path stroke="null" id="svg_7" d="m73.226646,24.022401c0,0 0,-0.069828 0,0c0.41897,-1.74571 1.955195,-3.07245 3.840562,-3.07245c1.885367,0 3.421592,1.32674 3.840562,3.07245l-7.681125,0zm9.21735,-0.139657c-0.349142,-1.536225 -1.187083,-2.793136 -2.443994,-3.561249c-1.885367,-1.187083 -4.329361,-1.117255 -6.075071,0.139657c-1.466397,1.047426 -2.304337,2.723308 -2.304337,4.469018c0,0.41897 0.069828,0.907769 0.139657,1.32674c0.558627,2.164681 2.443994,3.840562 4.678503,4.119876c0.628456,0.069828 1.32674,0.069828 1.955195,-0.139657c0.558627,-0.139657 1.117255,-0.349142 1.606053,-0.698284c0.558627,-0.349142 0.977598,-0.768112 1.396568,-1.32674c0,0 0,0 0,0c0.279314,-0.349142 0.209485,-0.907769 -0.069828,-1.117255c-0.279314,-0.209485 -0.768112,-0.279314 -1.117255,0.139657c-0.069828,0.139657 -0.139657,0.209485 -0.279314,0.349142c-0.279314,0.349142 -0.628456,0.628456 -1.047426,0.837941c-0.558627,0.279314 -1.187083,0.488799 -1.815539,0.488799c-2.164681,0 -3.351764,-1.536225 -3.770734,-2.653479c-0.069828,-0.209485 -0.139657,-0.41897 -0.139657,-0.628456c0,-0.069828 0,-0.069828 0,-0.139657c0.41897,0 7.820782,0 7.820782,0c1.047426,0 1.606053,-0.768112 1.466397,-1.606053" fill="#FFFFFF"/>
  </g>
 </g>
</svg>