<svg width="160" height="49.99999999999999" xmlns="http://www.w3.org/2000/svg" xmlns:svg="http://www.w3.org/2000/svg">
 <g>
  <title>Layer 1</title>
  <g stroke="null" id="svg_1">
   <g stroke="null" id="logo">
    <g stroke="null" id="logo_1_">
     <g stroke="null" id="svg_2">
      <ellipse stroke="null" id="svg_3" ry="24.37305" rx="24.37305" cy="25" cx="80" fill="#2F84ED"/>
     </g>
    </g>
   </g>
   <g stroke="null" id="svg_4">
    <polygon stroke="null" id="svg_5" points="66.3797607421875,15.566197395324707 69.2471923828125,15.566197395324707 71.4551010131836,19.49456024169922 73.60565948486328,15.566197395324707 76.32970428466797,15.566197395324707 72.71675872802734,21.845842361450195 72.71675872802734,25.200716018676758 70.0500717163086,25.200716018676758 70.0500717163086,21.931865692138672 " fill="#FFFFFF"/>
    <path stroke="null" id="svg_6" d="m75.49816,20.41213c0,-2.92477 2.4373,-4.93196 5.2187,-4.93196s5.2187,2.06454 5.2187,4.93196c0,2.92477 -2.4373,4.98931 -5.2187,4.98931c-2.78139,-0.05735 -5.2187,-2.03587 -5.2187,-4.98931m7.74203,0c0,-1.49106 -0.94625,-2.72405 -2.58068,-2.72405c-1.60575,0 -2.58068,1.20432 -2.58068,2.72405s0.94625,2.72405 2.58068,2.72405c1.69178,0 2.58068,-1.20432 2.58068,-2.72405" fill="#FFFFFF"/>
    <polygon stroke="null" id="svg_7" points="88.40152740478516,17.716758728027344 85.82086181640625,17.716758728027344 85.82086181640625,15.566197395324707 93.6202392578125,15.566197395324707 93.6202392578125,17.716758728027344 91.03955841064453,17.716758728027344 91.03955841064453,25.200716018676758 88.40152740478516,25.200716018676758 " fill="#FFFFFF"/>
    <path stroke="null" id="svg_8" d="m69.76332,35.78149l-2.58068,0l0,-9.63452l3.67029,0c2.63802,0 4.12908,1.63443 4.12908,3.78499s-1.46238,3.78499 -4.12908,3.78499l-1.11829,0l0,2.06454l0.02867,0zm0.94625,-4.27245c1.17564,0 1.60575,-0.63083 1.60575,-1.57708c0,-0.91757 -0.43011,-1.63443 -1.60575,-1.63443l-0.94625,0l0,3.21151l0.94625,0z" fill="#FFFFFF"/>
    <path stroke="null" id="svg_9" d="m75.44081,30.9929c0,-2.92477 2.4373,-4.93196 5.2187,-4.93196s5.2187,2.06454 5.2187,4.93196c0,2.92477 -2.4373,4.98931 -5.2187,4.98931c-2.78139,-0.05735 -5.2187,-2.03587 -5.2187,-4.98931m7.79938,0c0,-1.49106 -0.94625,-2.72405 -2.58068,-2.72405c-1.60575,0 -2.58068,1.20432 -2.58068,2.72405c0,1.49106 0.94625,2.72405 2.58068,2.72405s2.58068,-1.20432 2.58068,-2.72405" fill="#FFFFFF"/>
    <path stroke="null" id="svg_10" d="m85.87821,34.57717c0,-0.86023 0.65951,-1.43371 1.40503,-1.43371s1.40503,0.57348 1.40503,1.43371c0,0.86023 -0.65951,1.43371 -1.40503,1.43371c-0.71685,-0.08602 -1.40503,-0.65951 -1.40503,-1.43371" fill="#FFFFFF"/>
   </g>
  </g>
 </g>
</svg>