<?xml version="1.0"?>
<svg width="160" height="50" xmlns="http://www.w3.org/2000/svg" xmlns:svg="http://www.w3.org/2000/svg">
 <g>
  <title>Layer 1</title>
  <g stroke="null" id="svg_1">
   <path stroke="null" id="svg_2" d="m26.701561,39.043194l11.086732,-17.163904l-9.772749,0c-0.082124,-0.492744 -0.082124,-1.067611 -0.082124,-1.642479c0,-0.574868 0,-1.067611 0.082124,-1.560355l15.767797,0l0.164248,0.492744l-11.168856,17.246028l10.429741,0c0.082124,0.574868 0.082124,1.067611 0.082124,1.642479c0,0.574868 -0.082124,1.067611 -0.082124,1.560355l-16.342664,0l-0.164248,-0.574868z" fill="#FF4A00"/>
   <path stroke="null" id="svg_3" d="m58.56565,25.82124c0,-1.642479 -0.41062,-2.71009 -1.231859,-3.367082c-0.821239,-0.656992 -1.970975,-0.903363 -3.531329,-0.903363c-0.985487,0 -1.888851,0.082124 -2.71009,0.246372c-0.821239,0.164248 -1.642479,0.328496 -2.463718,0.574868c-0.492744,-0.903363 -0.739115,-1.970975 -0.739115,-3.202834c0.903363,-0.328496 1.970975,-0.492744 3.038586,-0.656992c1.149735,-0.164248 2.217346,-0.246372 3.202834,-0.246372c2.71009,0 4.763189,0.656992 6.24142,1.888851c1.396107,1.231859 2.135222,3.202834 2.135222,5.995048l0,13.139831c-0.985487,0.246372 -2.135222,0.41062 -3.449206,0.656992c-1.396107,0.246372 -2.792214,0.328496 -4.188321,0.328496c-1.313983,0 -2.545842,-0.082124 -3.613453,-0.328496c-1.067611,-0.246372 -1.970975,-0.656992 -2.71009,-1.149735c-0.739115,-0.574868 -1.313983,-1.231859 -1.724603,-2.053099c-0.41062,-0.821239 -0.574868,-1.888851 -0.574868,-3.038586c0,-1.149735 0.246372,-2.217346 0.739115,-3.12071c0.492744,-0.903363 1.149735,-1.642479 1.970975,-2.217346c0.821239,-0.574868 1.724603,-0.985487 2.792214,-1.313983c1.067611,-0.246372 2.217346,-0.41062 3.367082,-0.41062c0.903363,0 1.560355,0 2.135222,0.082124c0.574868,0 1.067611,0.082124 1.396107,0.164248l0,-1.067611l-0.082124,0zm0,3.941949c-0.41062,-0.082124 -0.903363,-0.082124 -1.560355,-0.164248c-0.656992,-0.082124 -1.149735,-0.082124 -1.560355,-0.082124c-1.724603,0 -2.956462,0.328496 -3.859825,0.903363c-0.903363,0.656992 -1.313983,1.560355 -1.313983,2.874338c0,0.821239 0.164248,1.478231 0.41062,1.888851c0.328496,0.492744 0.656992,0.821239 1.149735,1.067611c0.41062,0.246372 0.985487,0.41062 1.478231,0.41062c0.574868,0.082124 1.067611,0.082124 1.560355,0.082124c0.656992,0 1.313983,0 1.970975,-0.082124c0.656992,-0.082124 1.231859,-0.164248 1.806727,-0.328496l0,-6.569915l-0.082124,0z" fill="#FF4A00"/>
   <path stroke="null" id="svg_4" d="m66.942292,18.594333c0.246372,-0.082124 0.574868,-0.082124 0.821239,-0.082124c0.246372,0 0.574868,0 0.903363,0c0.246372,0 0.574868,0 0.821239,0c0.328496,0 0.574868,0.082124 0.821239,0.082124c0,0.082124 0.082124,0.246372 0.082124,0.492744c0,0.246372 0.082124,0.574868 0.082124,0.903363c0,0.328496 0.082124,0.656992 0.082124,0.903363c0,0.328496 0.082124,0.492744 0.082124,0.574868c0.246372,-0.41062 0.574868,-0.821239 0.985487,-1.231859c0.41062,-0.41062 0.821239,-0.739115 1.396107,-1.067611c0.492744,-0.328496 1.149735,-0.574868 1.806727,-0.739115c0.656992,-0.164248 1.396107,-0.246372 2.217346,-0.246372c1.231859,0 2.381594,0.164248 3.449206,0.574868c1.067611,0.41062 1.970975,1.067611 2.71009,1.888851c0.739115,0.821239 1.313983,1.970975 1.724603,3.284958c0.41062,1.313983 0.656992,2.874338 0.656992,4.681065c0,3.613453 -0.985487,6.405667 -2.956462,8.458766c-1.970975,2.053099 -4.681065,3.038586 -8.294518,3.038586c-0.574868,0 -1.231859,0 -1.806727,-0.082124c-0.656992,-0.082124 -1.149735,-0.164248 -1.642479,-0.328496l0,9.608501c-0.328496,0.082124 -0.656992,0.082124 -1.067611,0.082124c-0.328496,0 -0.739115,0 -0.985487,0c-0.328496,0 -0.656992,0 -0.985487,0c-0.328496,0 -0.739115,-0.082124 -0.985487,-0.082124l0,-30.714354l0.082124,0zm4.106197,17.574523c0.492744,0.164248 1.067611,0.328496 1.560355,0.41062c0.574868,0.082124 1.231859,0.082124 2.135222,0.082124c0.985487,0 1.888851,-0.164248 2.71009,-0.492744c0.821239,-0.328496 1.560355,-0.821239 2.135222,-1.478231c0.574868,-0.656992 1.067611,-1.478231 1.396107,-2.463718c0.328496,-0.985487 0.492744,-2.135222 0.492744,-3.531329c0,-2.217346 -0.41062,-3.941949 -1.231859,-5.173808c-0.821239,-1.313983 -2.135222,-1.888851 -3.941949,-1.888851c-0.656992,0 -1.313983,0.082124 -1.970975,0.328496c-0.656992,0.246372 -1.149735,0.574868 -1.642479,1.067611c-0.492744,0.492744 -0.903363,1.149735 -1.149735,1.888851c-0.328496,0.739115 -0.41062,1.642479 -0.41062,2.71009l0,8.54089l-0.082124,0z" fill="#FF4A00"/>
   <path stroke="null" id="svg_5" d="m90.758235,21.797167l-2.627966,0c-0.082124,-0.246372 -0.082124,-0.492744 -0.082124,-0.739115c0,-0.246372 0,-0.574868 0,-0.821239c0,-0.246372 0,-0.574868 0,-0.821239c0,-0.246372 0.082124,-0.574868 0.082124,-0.739115l6.652039,0l0,21.023729c-0.328496,0.082124 -0.656992,0.082124 -0.985487,0.082124c-0.328496,0 -0.739115,0 -0.985487,0c-0.246372,0 -0.574868,0 -0.985487,0c-0.328496,0 -0.739115,-0.082124 -0.985487,-0.082124l0,-17.903019l-0.082124,0z" fill="#FF4A00"/>
   <path stroke="null" id="svg_6" d="m103.487446,30.091685c0.082124,2.29947 0.656992,3.941949 1.806727,5.00956c1.067611,1.149735 2.71009,1.642479 4.927436,1.642479c1.970975,0 3.777701,-0.328496 5.502304,-0.985487c0.246372,0.41062 0.41062,0.903363 0.492744,1.478231c0.164248,0.574868 0.246372,1.149735 0.246372,1.724603c-0.903363,0.41062 -1.888851,0.656992 -2.956462,0.821239c-1.067611,0.164248 -2.29947,0.246372 -3.613453,0.246372c-1.888851,0 -3.531329,-0.246372 -4.927436,-0.821239c-1.396107,-0.492744 -2.463718,-1.313983 -3.367082,-2.217346s-1.560355,-2.135222 -1.970975,-3.449206c-0.41062,-1.313983 -0.574868,-2.792214 -0.574868,-4.352569c0,-1.560355 0.164248,-3.038586 0.574868,-4.352569c0.41062,-1.313983 0.985487,-2.545842 1.806727,-3.531329c0.821239,-0.985487 1.888851,-1.806727 3.12071,-2.381594c1.231859,-0.574868 2.71009,-0.903363 4.434693,-0.903363c1.478231,0 2.71009,0.246372 3.777701,0.739115c1.067611,0.492744 1.970975,1.149735 2.71009,2.053099c0.739115,0.821239 1.313983,1.888851 1.642479,3.038586c0.41062,1.149735 0.574868,2.463718 0.574868,3.859825c0,0.41062 0,0.821239 -0.082124,1.231859c0,0.41062 -0.082124,0.821239 -0.082124,1.067611l-14.043194,0l0,0.082124zm10.347617,-2.956462c0,-0.739115 -0.082124,-1.478231 -0.328496,-2.217346c-0.164248,-0.656992 -0.492744,-1.313983 -0.903363,-1.806727c-0.41062,-0.492744 -0.903363,-0.903363 -1.478231,-1.231859c-0.574868,-0.328496 -1.313983,-0.492744 -2.217346,-0.492744c-1.642479,0 -2.956462,0.492744 -3.859825,1.478231c-0.903363,0.985487 -1.396107,2.381594 -1.642479,4.188321l10.429741,0l0,0.082124z" fill="#FF4A00"/>
   <path stroke="null" id="svg_7" d="m122.293828,18.594333c0.328496,-0.082124 0.574868,-0.082124 0.821239,-0.082124c0.246372,0 0.574868,0 0.821239,0c0.328496,0 0.574868,0 0.903363,0c0.328496,0 0.574868,0.082124 0.821239,0.082124c0.082124,0.41062 0.164248,0.985487 0.246372,1.642479c0.082124,0.656992 0.164248,1.231859 0.164248,1.724603c0.574868,-0.903363 1.313983,-1.724603 2.29947,-2.381594c0.903363,-0.656992 2.135222,-0.985487 3.613453,-0.985487c0.246372,0 0.41062,0 0.656992,0c0.246372,0 0.41062,0 0.574868,0.082124c0.082124,0.246372 0.082124,0.492744 0.082124,0.739115c0,0.246372 0,0.574868 0,0.821239c0,0.328496 0,0.656992 -0.082124,0.985487c0,0.328496 -0.082124,0.656992 -0.164248,0.985487c-0.246372,-0.082124 -0.41062,-0.082124 -0.656992,-0.082124c-0.246372,0 -0.41062,0 -0.574868,0c-0.739115,0 -1.478231,0.082124 -2.135222,0.328496c-0.656992,0.164248 -1.231859,0.574868 -1.806727,1.067611c-0.492744,0.492744 -0.985487,1.231859 -1.231859,2.135222c-0.328496,0.903363 -0.492744,2.053099 -0.492744,3.449206l0,10.429741c-0.328496,0.082124 -0.656992,0.082124 -0.985487,0.082124c-0.328496,0 -0.739115,0 -0.985487,0c-0.328496,0 -0.656992,0 -0.985487,0c-0.328496,0 -0.739115,-0.082124 -1.067611,-0.082124l0,-20.941605l0.164248,0z" fill="#FF4A00"/>
   <path stroke="null" id="svg_8" d="m98.560009,6.275742l-3.941949,0l2.792214,-2.792214c-0.246372,-0.328496 -0.492744,-0.574868 -0.739115,-0.903363l0,0c-0.246372,-0.246372 -0.574868,-0.492744 -0.903363,-0.739115l-2.792214,2.792214l0,-3.941949c-0.328496,-0.082124 -0.656992,-0.082124 -1.067611,-0.082124l0,0c-0.41062,0 -0.739115,0 -1.149735,0.082124l0,3.941949l-2.792214,-2.792214c-0.328496,0.246372 -0.574868,0.492744 -0.903363,0.739115l0,0c-0.246372,0.246372 -0.492744,0.574868 -0.739115,0.903363l2.792214,2.792214l-3.941949,0c0,0 -0.082124,0.739115 -0.082124,1.149735l0,0c0,0.41062 0,0.739115 0.082124,1.149735l3.941949,0l-2.792214,2.792214c0.41062,0.656992 0.985487,1.149735 1.642479,1.642479l2.792214,-2.792214l0,3.941949c0.328496,0.082124 0.739115,0.082124 1.149735,0.082124l0,0c0.41062,0 0.739115,0 1.149735,-0.082124l0,-3.941949l2.792214,2.792214c0.328496,-0.246372 0.574868,-0.492744 0.903363,-0.739115l0,0c0.246372,-0.246372 0.492744,-0.574868 0.739115,-0.903363l-2.792214,-2.792214l3.941949,0c0.082124,-0.328496 0.082124,-0.739115 0.082124,-1.149735l0,0c0,-0.41062 -0.082124,-0.821239 -0.164248,-1.149735zm-4.927436,1.149735c0,0.492744 -0.082124,0.985487 -0.246372,1.396107c-0.41062,0.164248 -0.903363,0.246372 -1.396107,0.246372l0,0c-0.492744,0 -0.985487,-0.082124 -1.396107,-0.246372c-0.164248,-0.41062 -0.246372,-0.903363 -0.246372,-1.396107l0,0c0,-0.492744 0.082124,-0.985487 0.246372,-1.396107c0.41062,-0.164248 0.903363,-0.246372 1.396107,-0.246372l0,0c0.492744,0 0.985487,0.082124 1.396107,0.246372c0.082124,0.41062 0.246372,0.903363 0.246372,1.396107l0,0z" fill="#FF4A00"/>
  </g>
 </g>
</svg>