<?xml version="1.0"?>
<svg width="160" height="50" xmlns="http://www.w3.org/2000/svg" xmlns:svg="http://www.w3.org/2000/svg">
 <defs>
  <style>.cls-1{fill:#334443;}</style>
 </defs>
 <title>zendesk-chat-logo</title>
 <g>
  <title>Layer 1</title>
  <g stroke="null" id="Layer_2">
   <g stroke="null" id="content">
    <polygon stroke="null" id="svg_1" points="0.34023043513298035,21.190210342407227 0.34023043513298035,23.71156883239746 8.027530670166016,23.71156883239746 0.16013334691524506,31.730626106262207 0.16013334691524506,34.2993803024292 11.771653175354004,34.2993803024292 11.771653175354004,31.78749942779541 3.8094682693481445,31.78749942779541 11.667387008666992,23.758962631225586 11.667387008666992,21.190210342407227 0.34023043513298035,21.190210342407227 " class="cls-1"/>
    <path stroke="null" id="svg_2" d="m21.269403,31.929681a5.061675,5.061675 0 0 0 3.601941,-1.402861l1.782013,1.895758a7.014306,7.014306 0 0 1 -5.355517,2.123249c-4.360244,0 -7.175446,-2.90051 -7.175446,-6.834209a6.682548,6.682548 0 0 1 6.777336,-6.834209c4.331808,0 6.777336,3.308098 6.568803,7.895834l-10.246574,0a3.696729,3.696729 0 0 0 4.028487,3.118523m3.118523,-5.308123a3.270183,3.270183 0 0 0 -3.45028,-3.090086a3.526111,3.526111 0 0 0 -3.696729,3.128001l7.147009,-0.037915z" class="cls-1"/>
    <path stroke="null" id="svg_3" d="m44.464007,27.749534a6.540366,6.540366 0 0 1 6.559324,-6.815251a5.687275,5.687275 0 0 1 4.350766,1.96211l0,-7.734694l2.777286,0l0,19.137681l-2.786765,0l0,-1.810449a5.57353,5.57353 0 0 1 -4.379202,2.075855a6.635154,6.635154 0 0 1 -6.530888,-6.815251m11.06175,0a4.142232,4.142232 0 1 0 -8.284464,0a4.142232,4.142232 0 1 0 8.284464,0" class="cls-1"/>
    <path stroke="null" id="svg_4" d="m67.933496,31.929681a5.061675,5.061675 0 0 0 3.601941,-1.402861l1.782013,1.895758a7.014306,7.014306 0 0 1 -5.355517,2.123249c-4.360244,0 -7.175446,-2.90051 -7.175446,-6.834209a6.682548,6.682548 0 0 1 6.777336,-6.834209c4.331808,0 6.777336,3.308098 6.568803,7.895834l-10.227617,0a3.696729,3.696729 0 0 0 4.028487,3.118523m3.118523,-5.308123a3.270183,3.270183 0 0 0 -3.45028,-3.090086a3.526111,3.526111 0 0 0 -3.696729,3.090086l7.147009,0z" class="cls-1"/>
    <path stroke="null" id="svg_5" d="m75.857766,31.522093l2.521359,-1.308073a3.734644,3.734644 0 0 0 3.355492,1.895758c1.573479,0 2.388656,-0.815176 2.388656,-1.734619s-1.516607,-1.289116 -3.175395,-1.630352c-2.227516,-0.47394 -4.540341,-1.203807 -4.540341,-3.905262c0,-2.075855 1.96211,-3.981093 5.061675,-3.962135a5.971639,5.971639 0 0 1 5.270208,2.540316l-2.331783,1.317552a3.383929,3.383929 0 0 0 -2.938426,-1.497649c-1.497649,0 -2.255952,0.729867 -2.255952,1.573479s1.203807,1.203807 3.090086,1.630352c2.151686,0.47394 4.587735,1.184849 4.587735,3.905262c0,1.810449 -1.573479,4.246499 -5.298645,4.218062a6.132778,6.132778 0 0 1 -5.744148,-3.042692" class="cls-1"/>
    <polygon stroke="null" id="svg_6" points="94.13287353515625,28.47940158843994 91.93379974365234,30.896492958068848 91.93379974365234,34.2993803024292 89.15650939941406,34.2993803024292 89.15650939941406,15.161698341369629 91.93379974365234,15.161698341369629 91.93379974365234,27.69266128540039 97.82960510253906,21.190210342407227 101.21353149414062,21.190210342407227 96.1044692993164,26.801654815673828 101.34623718261719,34.2993803024292 98.19927978515625,34.2993803024292 94.13287353515625,28.47940158843994 " class="cls-1"/>
    <path stroke="null" id="svg_7" d="m36.179543,20.962719c-3.29862,0 -6.066427,2.151686 -6.066427,5.687275l0,7.658864l2.843638,0l0,-7.29867a3.099565,3.099565 0 0 1 3.317577,-3.412365c2.094813,0 3.146959,1.289116 3.146959,3.440801l0,7.29867l2.843638,0l0,-7.658864c0,-3.564026 -2.767807,-5.687275 -6.066427,-5.687275" class="cls-1"/>
    <path stroke="null" id="svg_8" d="m108.379501,27.654746a6.521409,6.521409 0 0 1 6.635154,-6.635154a6.379227,6.379227 0 0 1 6.009554,3.876826l-2.43605,1.042667a3.791517,3.791517 0 0 0 -3.573505,-2.388656a3.952656,3.952656 0 0 0 -3.952656,4.104317a3.990571,3.990571 0 0 0 4.009529,4.056923a3.791517,3.791517 0 0 0 3.573505,-2.483443l2.464486,1.042667a6.398185,6.398185 0 0 1 -6.085384,3.981093a6.540366,6.540366 0 0 1 -6.644633,-6.597239z" class="cls-1"/>
    <path stroke="null" id="svg_9" d="m123.06215,15.483977l2.691977,0l0,7.421894a4.872099,4.872099 0 0 1 3.905262,-1.895758c3.194353,0 5.146984,2.075855 5.146984,5.526136l0,7.402937l-2.767807,0l0,-7.099615c0,-2.104292 -1.014231,-3.421844 -3.071129,-3.421844c-1.80097,0 -3.194353,1.374425 -3.194353,3.601941l0,6.976391l-2.710934,0l0,-18.512081z" class="cls-1"/>
    <path stroke="null" id="svg_10" d="m136.939101,27.654746a6.322354,6.322354 0 0 1 6.341312,-6.635154a5.459784,5.459784 0 0 1 4.208584,1.895758l0,-1.601916l2.710934,0l0,12.682624l-2.710934,0l0,-1.772534a5.393433,5.393433 0 0 1 -4.199105,2.028461a6.379227,6.379227 0 0 1 -6.350791,-6.597239zm10.701556,0a4.009529,4.009529 0 1 0 -8.019058,0a4.009529,4.009529 0 1 0 8.019058,0z" class="cls-1"/>
    <path stroke="null" id="svg_11" d="m152.256829,21.313434l2.151686,0l0,-2.995298l2.739371,-1.497649l0,4.492947l2.691977,0l0,2.43605l-2.691977,0l0,5.042717c0,2.284389 0.350715,2.635104 2.691977,2.635104l0,2.559274l-0.436024,0c-3.857868,0 -5.02376,-1.213285 -5.02376,-5.17542l0,-5.061675l-2.151686,0l0.028436,-2.43605z" class="cls-1"/>
   </g>
  </g>
 </g>
</svg>