<svg width="160" height="50" xmlns="http://www.w3.org/2000/svg" xmlns:svg="http://www.w3.org/2000/svg">
 <g>
  <title>Layer 1</title>
  <g stroke="null" id="svg_1">
   <path stroke="null" id="svg_2" d="m76.75212,2.90031c0,0 0,0 0,0c4.23636,4.23636 4.23636,11.08515 0.07061,15.25091l-7.69606,-7.69606l7.62545,-7.55485z" fill="#F79A3E"/>
   <path stroke="null" id="svg_3" d="m85.43667,11.58485c0,0 0,0 0,0c-3.03606,-3.03606 -3.03606,-7.90788 0,-10.87333l5.43667,5.43667l-5.43667,5.43667z" fill="#00363D"/>
   <path stroke="null" id="svg_4" d="m69.69152,47.38212c0.98848,0 1.90636,-0.35303 2.61242,-1.05909l1.34151,1.41212c-0.84727,0.91788 -2.04758,1.55333 -3.95394,1.55333c-3.17727,0 -5.29545,-2.11818 -5.29545,-5.01303c-0.07061,-2.68303 2.11818,-4.94242 4.80121,-5.01303c0.07061,0 0.14121,0 0.21182,0c3.17727,0 5.01303,2.40061 4.80121,5.7897l-7.48424,0c0.28242,1.41212 1.27091,2.33 2.96545,2.33m2.25939,-3.88333c-0.21182,-1.27091 -0.98848,-2.25939 -2.54182,-2.25939c-1.34151,-0.07061 -2.54182,0.91788 -2.68303,2.25939l5.22485,0z" fill="#00363D"/>
   <polygon stroke="null" id="svg_5" points="20.337890625,47.24090230464935 26.127586364746094,41.380600333213806 20.479103088378906,41.380600333213806 20.479103088378906,39.54484212398529 28.810617446899414,39.54484212398529 28.810617446899414,41.451210379600525 23.020919799804688,47.311508536338806 28.8812198638916,47.311508536338806 28.8812198638916,49.14726674556732 20.337890625,49.14726674556732 " fill="#00363D"/>
   <path stroke="null" id="svg_6" d="m35.37698,47.38212c0.98848,0 1.90636,-0.35303 2.61242,-1.05909l1.34151,1.41212c-0.84727,0.91788 -2.04758,1.55333 -3.95394,1.55333c-3.17727,0 -5.29545,-2.11818 -5.29545,-5.01303c-0.07061,-2.68303 2.11818,-4.94242 4.80121,-5.01303c0.07061,0 0.14121,0 0.21182,0c3.17727,0 5.01303,2.40061 4.80121,5.7897l-7.48424,0c0.28242,1.41212 1.27091,2.33 2.96545,2.33m2.25939,-3.88333c-0.21182,-1.27091 -0.98848,-2.25939 -2.54182,-2.25939c-1.34151,-0.07061 -2.54182,0.91788 -2.68303,2.25939l5.22485,0z" fill="#00363D"/>
   <path stroke="null" id="svg_7" d="m52.39304,44.27545c0,-3.10667 2.25939,-5.01303 4.80121,-5.01303c1.2003,0 2.40061,0.49424 3.17727,1.41212l0,-5.64848l2.04758,0l0,14.0506l-2.04758,0l0,-1.34151c-0.77667,0.98848 -1.97697,1.55333 -3.24788,1.48273c-2.68303,0 -4.80121,-2.18879 -4.80121,-4.87182c0.07061,0 0.07061,0 0.07061,-0.07061m8.1903,0c-0.07061,-1.69455 -1.41212,-3.03606 -3.10667,-2.96545c-1.69455,0.07061 -3.03606,1.41212 -2.96545,3.10667c0.07061,1.62394 1.41212,2.96545 3.03606,2.96545c1.69455,0 3.03606,-1.34151 3.03606,-3.03606c0,0 0,-0.07061 0,-0.07061" fill="#00363D"/>
   <path stroke="null" id="svg_8" d="m75.55182,47.09969l1.83576,-0.98848c0.49424,0.91788 1.48273,1.41212 2.47121,1.41212c1.1297,0 1.76515,-0.56485 1.76515,-1.27091c0,-0.77667 -1.1297,-0.91788 -2.33,-1.2003c-1.62394,-0.35303 -3.31848,-0.91788 -3.31848,-2.89485c0,-1.48273 1.41212,-2.89485 3.74212,-2.89485c1.76515,0 3.10667,0.70606 3.88333,1.83576l-1.69455,0.91788c-0.49424,-0.70606 -1.27091,-1.1297 -2.18879,-1.1297c-1.1297,0 -1.62394,0.56485 -1.62394,1.1297c0,0.70606 0.91788,0.91788 2.25939,1.2003c1.55333,0.35303 3.38909,0.84727 3.38909,2.89485c0,1.34151 -1.1297,3.10667 -3.88333,3.10667c-2.11818,0.07061 -3.5303,-0.70606 -4.30697,-2.11818" fill="#00363D"/>
   <polygon stroke="null" id="svg_9" points="89.24939727783203,44.84029805660248 87.62545776367188,46.60545003414154 87.62545776367188,49.07666051387787 85.577880859375,49.07666051387787 85.577880859375,35.096664786338806 87.62545776367188,35.096664786338806 87.62545776367188,44.27545201778412 91.93241882324219,39.4742397069931 94.40363311767578,39.4742397069931 90.66151428222656,43.63999593257904 94.54485321044922,49.07666051387787 92.21485137939453,49.07666051387787 " fill="#00363D"/>
   <path stroke="null" id="svg_10" d="m46.25031,39.33303c-2.40061,0 -4.44818,1.55333 -4.44818,4.16576l0,5.57788l2.11818,0l0,-5.36606c0,-1.55333 0.91788,-2.54182 2.47121,-2.54182s2.33,0.91788 2.33,2.54182l0,5.36606l2.11818,0l0,-5.57788c-0.14121,-2.61242 -2.18879,-4.16576 -4.58939,-4.16576" fill="#00363D"/>
   <path stroke="null" id="svg_11" d="m100.61697,44.27545c0,-2.75364 2.18879,-4.94242 4.87182,-5.01303c0.07061,0 0.07061,0 0.14121,0c1.97697,-0.07061 3.74212,1.1297 4.51879,2.96545l-1.83576,0.77667c-0.42364,-1.1297 -1.48273,-1.83576 -2.68303,-1.83576c-1.62394,0 -2.96545,1.34151 -2.96545,2.96545c0,0 0,0.07061 0,0.07061c0,1.69455 1.27091,3.03606 2.96545,3.03606c0,0 0.07061,0 0.07061,0c1.2003,0 2.25939,-0.77667 2.68303,-1.90636l1.83576,0.77667c-0.77667,1.83576 -2.61242,3.03606 -4.58939,3.03606c-2.75364,0 -4.94242,-2.18879 -5.01303,-4.87182c0,0.07061 0,0.07061 0,0z" fill="#00363D"/>
   <path stroke="null" id="svg_12" d="m111.84333,35.09666l2.04758,0l0,5.64848c0.70606,-0.91788 1.83576,-1.41212 2.96545,-1.41212c2.40061,0 3.88333,1.55333 3.88333,4.16576l0,5.57788l-2.11818,0l0,-5.43667c0,-1.62394 -0.77667,-2.61242 -2.33,-2.61242c-1.34151,0 -2.40061,1.05909 -2.40061,2.75364l0,5.29545l-2.04758,0l0,-13.98z" fill="#00363D"/>
   <path stroke="null" id="svg_13" d="m122.43423,44.27545c0,-3.03606 2.25939,-5.01303 4.80121,-5.01303c1.2003,0 2.40061,0.49424 3.17727,1.41212l0,-1.27091l2.04758,0l0,9.60242l-2.04758,0l0,-1.34151c-0.77667,0.98848 -1.97697,1.55333 -3.17727,1.48273c-2.47121,0.14121 -4.80121,-1.83576 -4.80121,-4.87182zm8.1197,0c-0.07061,-1.69455 -1.48273,-2.96545 -3.10667,-2.96545c-1.69455,0.07061 -2.96545,1.48273 -2.96545,3.10667c0.07061,1.62394 1.41212,2.96545 3.03606,2.96545c1.69455,0 3.03606,-1.34151 3.03606,-3.03606c0,0 0,0 0,-0.07061l0,0z" fill="#00363D"/>
   <path stroke="null" id="svg_14" d="m133.94302,39.47424l1.62394,0l0,-2.25939l2.04758,-1.1297l0,3.38909l2.04758,0l0,1.83576l-2.04758,0l0,3.81273c0,1.69455 0.28242,1.97697 2.04758,1.97697l0,1.90636l-0.35303,0c-2.89485,0 -3.81273,-0.91788 -3.81273,-3.88333l0,-3.88333l-1.62394,0l0,-1.76515l0.07061,0z" fill="#00363D"/>
  </g>
 </g>
</svg>