<svg width="160" height="50" xmlns="http://www.w3.org/2000/svg" xmlns:svg="http://www.w3.org/2000/svg">
 <g>
  <title>Layer 1</title>
  <g stroke="null" id="svg_1">
   <rect stroke="null" id="svg_2" height="11.3" width="22.6" fill="#78A300" transform="matrix(0.17526442970037462,-0.6198344751954079,0.6198344751954079,0.17526442970037462,40.99609765272554,79.58022674823712) " y="15.99326" x="108.94709"/>
   <rect stroke="null" id="svg_3" height="11.3" width="11.3" fill="#00363D" transform="matrix(0.6200921222805977,-0.17436266490221022,0.17436266490221022,0.6200921222805977,-0.9516819341141345,23.27190716240119) " y="14.2573" x="128.51504"/>
   <path stroke="null" id="svg_4" d="m57.13382,43.55033c0.90176,0 1.80353,-0.32206 2.44765,-0.96618l1.22382,1.28824c-0.77294,0.83735 -1.86794,1.41706 -3.60706,1.41706c-2.96294,0 -4.83088,-1.93235 -4.83088,-4.57324c-0.06441,-2.51206 1.93235,-4.50882 4.38,-4.57324c0.06441,0 0.12882,0 0.19324,0c2.89853,0 4.57324,2.19 4.44441,5.28177l-6.95647,0c0.25765,1.28824 1.15941,2.12559 2.70529,2.12559m2.12559,-3.60706c-0.19324,-1.22382 -0.90176,-2.06118 -2.31882,-2.06118c-1.22382,-0.06441 -2.31882,0.83735 -2.51206,2.06118l4.83088,0z" fill="#00363D"/>
   <polygon stroke="null" id="svg_5" points="11.852340698242188,43.42150157690048 17.198516845703125,38.075325429439545 11.98116397857666,38.075325429439545 11.98116397857666,36.33620494604111 19.64616584777832,36.33620494604111 19.64616584777832,38.075325429439545 14.364399909973145,43.48591274023056 19.7105770111084,43.48591274023056 19.7105770111084,45.16062206029892 11.852340698242188,45.16062206029892 " fill="#00363D"/>
   <path stroke="null" id="svg_6" d="m25.70087,43.55033c0.90176,0 1.80353,-0.32206 2.44765,-0.96618l1.22382,1.28824c-0.77294,0.83735 -1.86794,1.41706 -3.60706,1.41706c-2.96294,0 -4.83088,-1.93235 -4.83088,-4.57324c-0.06441,-2.51206 1.93235,-4.50882 4.38,-4.57324c0.06441,0 0.12882,0 0.19324,0c2.89853,0 4.57324,2.19 4.44441,5.28177l-6.95647,0c0.19324,1.28824 1.095,2.12559 2.70529,2.12559m2.06118,-3.60706c-0.19324,-1.22382 -0.90176,-2.06118 -2.31882,-2.06118c-1.22382,-0.06441 -2.31882,0.83735 -2.51206,2.06118l4.83088,0z" fill="#00363D"/>
   <path stroke="null" id="svg_7" d="m41.28852,40.71621c0,-2.83412 2.12559,-4.57324 4.44441,-4.57324c1.095,0 2.19,0.45088 2.96294,1.35265l0,-5.21735l1.86794,0l0,12.88235l-1.86794,0l0,-1.22382c-0.70853,0.90176 -1.80353,1.41706 -2.96294,1.41706c-2.44765,0 -4.44441,-1.99676 -4.38,-4.44441c-0.06441,-0.12882 -0.06441,-0.12882 -0.06441,-0.19324m7.47177,0c-0.06441,-1.54588 -1.35265,-2.76971 -2.89853,-2.70529c-1.54588,0.06441 -2.76971,1.35265 -2.70529,2.89853c0.06441,1.54588 1.28824,2.70529 2.76971,2.70529c1.54588,0 2.76971,-1.22382 2.76971,-2.76971c0.06441,-0.06441 0.06441,-0.12882 0.06441,-0.12882" fill="#00363D"/>
   <path stroke="null" id="svg_8" d="m62.5444,43.29268l1.67471,-0.90176c0.45088,0.83735 1.35265,1.28824 2.25441,1.28824c1.03059,0 1.61029,-0.51529 1.61029,-1.15941c0,-0.70853 -1.03059,-0.83735 -2.12559,-1.095c-1.48147,-0.32206 -3.09177,-0.83735 -3.09177,-2.64088c0,-1.41706 1.35265,-2.70529 3.41382,-2.64088c1.67471,0 2.83412,0.64412 3.54265,1.73912l-1.54588,0.83735c-0.45088,-0.64412 -1.22382,-1.03059 -1.99676,-1.03059c-1.03059,0 -1.54588,0.51529 -1.54588,1.03059c0,0.64412 0.83735,0.83735 2.06118,1.095c1.48147,0.32206 3.09177,0.77294 3.09177,2.64088c0,1.22382 -1.03059,2.83412 -3.54265,2.83412c-1.73912,0 -3.02735,-0.70853 -3.80029,-1.99676" fill="#00363D"/>
   <polygon stroke="null" id="svg_9" points="75.10470581054688,41.23149913549423 73.62322998046875,42.84179347753525 73.62322998046875,45.16062206029892 71.75528717041016,45.16062206029892 71.75528717041016,32.27826541662216 73.62322998046875,32.27826541662216 73.62322998046875,40.71620982885361 77.61676025390625,36.33620494604111 79.87117767333984,36.33620494604111 76.39293670654297,40.072090566158295 79.93558502197266,45.16062206029892 77.80999755859375,45.16062206029892 " fill="#00363D"/>
   <path stroke="null" id="svg_10" d="m35.62028,36.14297c-2.25441,0 -4.12235,1.41706 -4.12235,3.86471l0,5.15294l1.93235,0l0,-4.89529c0,-1.41706 0.83735,-2.31882 2.25441,-2.31882c1.41706,0 2.12559,0.83735 2.12559,2.31882l0,4.89529l1.93235,0l0,-5.15294c0,-2.44765 -1.86794,-3.86471 -4.12235,-3.86471" fill="#00363D"/>
   <path stroke="null" id="svg_11" d="m85.15294,43.29268l1.67471,-0.90176c0.45088,0.83735 1.35265,1.28824 2.31882,1.28824c1.095,0 1.67471,-0.51529 1.67471,-1.15941c0,-0.70853 -1.03059,-0.90176 -2.19,-1.15941c-1.48147,-0.32206 -3.09177,-0.77294 -3.09177,-2.57647c0,-1.41706 1.35265,-2.70529 3.41382,-2.64088c1.73912,0 2.83412,0.64412 3.60706,1.73912l-1.61029,0.83735c-0.45088,-0.64412 -1.22382,-1.03059 -1.99676,-1.03059c-1.03059,0 -1.54588,0.45088 -1.54588,1.03059c0,0.64412 0.77294,0.77294 2.12559,1.095c1.48147,0.32206 3.15618,0.83735 3.15618,2.64088c0,1.35265 -1.15941,2.83412 -3.60706,2.83412c-1.86794,0 -3.15618,-0.64412 -3.92912,-1.99676z" fill="#00363D"/>
   <path stroke="null" id="svg_12" d="m94.17058,41.42474l0,-5.15294l1.93235,0l0,4.95971c0,1.41706 0.70853,2.38324 2.12559,2.38324c1.22382,0 2.19,-0.96618 2.19,-2.51206l0,-4.83088l1.86794,0l0,8.82441l-1.86794,0l0,-1.15941c-0.64412,0.83735 -1.61029,1.35265 -2.70529,1.35265c-2.25441,0 -3.54265,-1.41706 -3.54265,-3.86471z" fill="#00363D"/>
   <path stroke="null" id="svg_13" d="m106.21559,44.00121l0,5.15294l-1.86794,0l0,-12.88235l1.86794,0l0,1.22382c0.70853,-0.90176 1.80353,-1.41706 2.96294,-1.41706c2.31882,0 4.38,1.73912 4.38,4.57324s-2.12559,4.57324 -4.38,4.57324c-1.22382,0.06441 -2.31882,-0.38647 -2.96294,-1.22382zm5.475,-3.285c-0.06441,-1.54588 -1.35265,-2.76971 -2.89853,-2.70529c-1.54588,0.06441 -2.76971,1.35265 -2.70529,2.89853c0.06441,1.48147 1.28824,2.70529 2.76971,2.70529c1.54588,0 2.76971,-1.22382 2.76971,-2.76971c0.06441,-0.06441 0.06441,-0.12882 0.06441,-0.12882z" fill="#00363D"/>
   <path stroke="null" id="svg_14" d="m117.03676,44.00121l0,5.15294l-1.86794,0l0,-12.88235l1.86794,0l0,1.22382c0.70853,-0.90176 1.80353,-1.41706 2.96294,-1.41706c2.31882,0 4.38,1.73912 4.38,4.57324s-2.12559,4.57324 -4.38,4.57324c-1.22382,0.06441 -2.31882,-0.38647 -2.96294,-1.22382zm5.475,-3.285c-0.06441,-1.54588 -1.35265,-2.76971 -2.89853,-2.70529c-1.54588,0.06441 -2.76971,1.35265 -2.70529,2.89853c0.06441,1.48147 1.28824,2.70529 2.76971,2.70529c1.54588,0 2.76971,-1.22382 2.76971,-2.76971c0.06441,-0.06441 0.06441,-0.12882 0.06441,-0.12882z" fill="#00363D"/>
   <path stroke="null" id="svg_15" d="m125.60353,40.71621c0,-2.51206 2.06118,-4.57324 4.57324,-4.57324c2.51206,0 4.57324,2.06118 4.57324,4.57324c0,2.51206 -2.06118,4.57324 -4.57324,4.57324c-2.51206,0 -4.57324,-1.99676 -4.57324,-4.50882c0,0 0,0 0,-0.06441zm7.27853,0c-0.06441,-1.48147 -1.35265,-2.64088 -2.83412,-2.57647s-2.64088,1.35265 -2.57647,2.83412c0.06441,1.41706 1.22382,2.57647 2.70529,2.57647c1.48147,-0.06441 2.70529,-1.28824 2.70529,-2.83412l0,0z" fill="#00363D"/>
   <path stroke="null" id="svg_16" d="m136.36029,36.33621l1.86794,0l0,1.41706c0.45088,-0.90176 1.35265,-1.41706 2.57647,-1.41706l0.83735,0l0,1.80353l-1.15941,0c-1.61029,0 -2.25441,0.83735 -2.25441,2.64088l0,4.38l-1.93235,0l0,-8.82441l0.06441,0z" fill="#00363D"/>
   <path stroke="null" id="svg_17" d="m142.86588,36.33621l1.48147,0l0,-2.06118l1.93235,-1.03059l0,3.09177l1.86794,0l0,1.67471l-1.86794,0l0,3.47824c0,1.61029 0.25765,1.86794 1.86794,1.86794l0,1.80353l-0.25765,0c-2.70529,0 -3.47824,-0.83735 -3.47824,-3.60706l0,-3.54265l-1.48147,0l0,-1.67471l-0.06441,0z" fill="#00363D"/>
  </g>
 </g>
</svg>