<?xml version="1.0"?>
<svg width="160" height="50" xmlns="http://www.w3.org/2000/svg" xmlns:svg="http://www.w3.org/2000/svg">
 <g>
  <title>Layer 1</title>
  <g stroke="null" id="Layer_1_1_">
   <g stroke="null" id="svg_1">
    <path stroke="null" id="svg_2" d="m152.08059,38.505783c-2.387763,2.984704 -5.521702,4.178585 -8.954111,4.178585c-1.492352,0.149235 -3.133939,0 -4.62629,-0.29847c-1.641587,-0.29847 -3.133939,-1.044646 -4.62629,-1.641587c-4.775526,-2.835468 -7.610994,-7.014053 -8.65564,-12.535755c-1.492352,-9.849522 5.223231,-18.355927 14.028107,-19.848279c8.65564,-1.492352 16.863575,3.581644 19.699043,11.491109c0.596941,1.641587 0.895411,3.581644 0.895411,5.521702c0,4.775526 0,9.700287 0,14.475812c0,0.596941 -0.149235,1.193881 -0.149235,1.790822c-0.149235,0.596941 -0.447706,1.044646 -1.044646,1.044646c-1.641587,0 -3.581644,0 -5.372466,0c-0.746176,0 -1.193881,-0.596941 -1.193881,-1.343117c0,-0.596941 0,-1.641587 0,-2.835468zm-9.551051,-3.432409c4.32782,0.29847 9.849522,-3.133939 9.849522,-9.401816c0,-6.118642 -5.073996,-9.700287 -9.401816,-9.700287c-4.775526,-0.149235 -9.849522,3.880115 -9.849522,9.700287c-0.29847,5.820172 4.62629,9.551051 9.401816,9.401816z" fill="#3A4C5D"/>
    <path stroke="null" id="svg_3" d="m36.423328,42.982839c-0.447706,0 -0.746176,0 -1.193881,0c-10.894168,0 -21.788336,0 -32.682504,0c-0.596941,0 -1.193881,0.149235 -1.492352,-0.447706c-0.596941,-0.746176 -0.895411,-1.492352 -0.596941,-2.387763c0.149235,-0.895411 0.447706,-1.492352 1.044646,-2.089292c1.044646,-1.492352 2.238528,-2.984704 3.432409,-4.178585c4.62629,-5.521702 9.401816,-11.043403 14.028107,-16.415869c0.149235,-0.149235 0.29847,-0.29847 0.447706,-0.596941c0.29847,-0.29847 0.149235,-0.596941 -0.29847,-0.746176c-0.29847,0 -0.447706,0 -0.746176,0c-5.073996,0 -10.147992,0 -15.371223,0c-0.29847,0 -0.746176,0 -1.044646,-0.149235c-0.746176,-0.29847 -0.895411,-0.746176 -0.895411,-1.343117c0,-1.492352 0,-3.133939 0,-4.775526c0,-0.895411 0.596941,-1.343117 1.343117,-1.343117c0.149235,0 0.447706,0 0.596941,0c9.401816,0 18.654397,0 28.056213,0c0.447706,0 0.895411,0 1.193881,0.149235c0.447706,0.149235 0.746176,0.447706 0.746176,0.895411c0,1.193881 0,2.238528 0,3.432409c0,0.447706 -0.29847,0.596941 -0.447706,0.895411c-2.387763,2.835468 -4.775526,5.670937 -7.312524,8.65564c-3.432409,4.02935 -6.864818,7.909464 -9.998757,11.789579c-0.29847,0.29847 -0.596941,0.447706 -0.447706,1.044646c0.29847,0.447706 0.596941,0.29847 1.044646,0.29847c5.521702,0 11.043403,0 16.565105,0c0.149235,0 0.29847,0 0.29847,0c0.746176,0 0.746176,0 1.044646,0.746176c0.447706,1.343117 0.895411,2.536998 1.343117,3.880115c0.29847,0.895411 0.895411,1.492352 1.492352,2.089292c0,-0.149235 0,-0.149235 -0.149235,0.596941z" fill="#3A4C5D"/>
    <path stroke="null" id="svg_4" d="m86.267877,8.360278c9.103346,-0.149235 17.311281,7.312524 17.311281,17.460516c-0.149235,9.849522 -8.207935,17.311281 -17.460516,17.162045c-9.252581,-0.149235 -17.311281,-7.461759 -17.162045,-17.460516c0.29847,-9.998757 8.506405,-17.311281 17.311281,-17.162045zm0,7.610994c-4.62629,-0.149235 -9.700287,3.730879 -9.700287,9.849522c0,5.521702 4.477055,9.700287 9.700287,9.700287c4.62629,0.149235 9.849522,-3.581644 9.849522,-9.849522s-5.372466,-9.849522 -9.849522,-9.700287z" fill="#3A4C5D"/>
    <path stroke="null" id="svg_5" d="m58.211664,38.804254c-1.492352,2.536998 -4.02935,3.432409 -6.715583,3.880115c-1.790822,0.29847 -3.730879,0.447706 -5.670937,0.29847c-1.193881,0 -2.387763,-0.149235 -3.581644,-0.447706c-2.835468,-0.895411 -4.62629,-2.686233 -5.521702,-5.372466c-0.895411,-2.089292 -1.044646,-4.32782 -1.044646,-6.715583c0,-6.864818 0,-13.431166 0,-20.445219c0,-0.149235 0,-0.29847 0,-0.447706c0.149235,-0.746176 0.447706,-1.193881 1.193881,-1.193881c1.641587,0 3.581644,0 5.372466,0c0.596941,0 1.044646,0.29847 1.193881,1.044646c0,0.29847 0,0.596941 0,0.895411c0,5.969407 0,11.938814 0,17.908221c0,1.193881 0.149235,2.238528 0.29847,3.283174c0.596941,2.387763 1.940057,3.581644 4.32782,3.730879c1.492352,0.149235 3.133939,-0.149235 4.62629,-0.596941c1.790822,-0.746176 3.283174,-2.089292 4.178585,-4.178585c0.895411,-1.641587 1.193881,-3.730879 1.193881,-5.521702c0.149235,-4.924761 0,-9.849522 0,-14.774283c0,-1.492352 0.29847,-1.790822 1.790822,-1.790822s2.835468,0 4.32782,0c1.044646,0 1.492352,0.447706 1.492352,1.492352c0,0.149235 0,0.29847 0,0.447706c0,10.147992 0,20.445219 0,30.742446c0,0.29847 0,0.746176 -0.149235,1.044646c-0.149235,0.447706 -0.447706,0.895411 -1.044646,0.895411c-1.790822,0 -3.730879,0 -5.521702,0c-0.596941,0 -1.044646,-0.447706 -1.193881,-1.193881c0,-0.746176 0,-1.492352 0,-2.089292c0.447706,-0.29847 0.447706,-0.596941 0.447706,-0.895411z" fill="#3A4C5D"/>
    <path stroke="null" id="svg_6" d="m114.174855,12.389627c0.149235,-0.149235 0.29847,-0.149235 0.29847,-0.149235c0.895411,-1.492352 1.940057,-2.089292 3.432409,-2.686233c2.238528,-1.044646 4.775526,-1.343117 7.163288,-1.193881c0.895411,0 1.343117,0.596941 1.193881,1.492352c-0.29847,1.641587 -0.447706,3.581644 -0.596941,5.372466c-0.149235,0.895411 -0.447706,1.193881 -1.343117,1.193881c-0.895411,0.149235 -1.492352,0.149235 -2.387763,0.29847c-2.536998,0.596941 -4.178585,2.089292 -5.521702,4.178585c-1.193881,1.940057 -1.790822,4.178585 -1.940057,6.417113c-0.149235,1.193881 -0.149235,2.089292 -0.149235,3.283174c0,3.581644 0,7.014053 0,10.595698c0,0.149235 0,0.447706 0,0.596941c-0.149235,0.895411 -0.447706,1.193881 -1.193881,1.193881c-1.044646,0 -1.790822,0 -2.835468,0c-0.895411,0 -1.492352,0 -2.238528,0c-0.895411,0 -1.343117,-0.447706 -1.343117,-1.343117c0,-0.149235 0,-0.447706 0,-0.596941c0,-10.147992 0,-20.445219 0,-30.742446c0,-1.343117 0.149235,-2.089292 1.940057,-1.940057c1.492352,0.149235 2.835468,0.149235 4.32782,0c0.895411,0 1.343117,0.447706 1.343117,1.343117c-0.149235,0.746176 0,1.492352 0,2.089292c-0.29847,0.29847 -0.149235,0.596941 -0.149235,0.596941z" fill="#3A4C5D"/>
   </g>
  </g>
 </g>
</svg>