<?xml version="1.0" encoding="utf-8"?>
<!-- Generator: Adobe Illustrator 21.0.2, SVG Export Plug-In . SVG Version: 6.00 Build 0)  -->
<svg version="1.1" xmlns="http://www.w3.org/2000/svg" xmlns:xlink="http://www.w3.org/1999/xlink" x="0px" y="0px"
	 viewBox="0 0 60 60" style="enable-background:new 0 0 60 60;" xml:space="preserve">
<style type="text/css">
	.st0{fill:none;stroke:#71F5FF;stroke-width:0.8;stroke-miterlimit:10;}
	.st1{fill:#1E2124;}
	.st2{fill:#FFD201;}
	.st3{clip-path:url(#SVGID_2_);fill:none;stroke:#000000;stroke-width:2;stroke-linecap:square;stroke-miterlimit:10;}
	.st4{fill:none;stroke:#000000;stroke-width:2;stroke-linecap:square;stroke-miterlimit:10;}
	.st5{clip-path:url(#SVGID_4_);fill:none;stroke:#000000;stroke-width:2;stroke-linecap:square;stroke-miterlimit:10;}
	.st6{fill:none;stroke:#000000;stroke-width:2;stroke-miterlimit:10;}
	.st7{fill:#FFFFFF;}
	.st8{fill:none;stroke:#000000;stroke-width:1.6888;stroke-miterlimit:10;}
	.st9{fill:none;stroke:#000000;stroke-width:1.8261;stroke-linecap:square;stroke-miterlimit:10;}
	.st10{fill:none;stroke:#FFD201;stroke-width:2;stroke-miterlimit:10;}
	.st11{fill:#1E2123;}
	.st12{fill:none;stroke:#000000;stroke-width:2;stroke-linecap:round;stroke-miterlimit:10;}
	.st13{fill:#FFFFFF;stroke:#000000;stroke-width:2;stroke-miterlimit:10;}
	.st14{fill:#FFFFFF;stroke:#000000;stroke-width:2;stroke-linecap:square;stroke-miterlimit:10;}
	.st15{fill:none;stroke:#000000;stroke-width:2;stroke-linecap:round;stroke-linejoin:round;}
	.st16{fill:none;stroke:#000000;stroke-width:2;stroke-linecap:round;stroke-linejoin:round;stroke-dasharray:0,6.2815;}
	.st17{fill:none;stroke:#000000;stroke-width:4;stroke-linecap:square;stroke-miterlimit:10;}
	.st18{fill:none;stroke:#000000;stroke-width:4;stroke-linecap:round;stroke-linejoin:round;}
	.st19{fill:none;stroke:#000000;stroke-width:4;stroke-linecap:round;stroke-linejoin:round;stroke-dasharray:0,9.8149;}
	.st20{fill:none;stroke:#000000;stroke-width:3;stroke-linecap:round;stroke-linejoin:round;}
	.st21{fill:none;stroke:#000000;stroke-width:3;stroke-linecap:round;stroke-linejoin:round;stroke-dasharray:0,7.8519;}
	.st22{display:none;}
	.st23{display:inline;}
	.st24{fill:#53092F;}
</style>
<g id="Bounding_boxes">
</g>
<g id="Art">
	<path class="st2" d="M47.6,55H20.4C18,55,16,53,16,50.6V29.4c0-2.4,2-4.4,4.4-4.4h27.2c2.4,0,4.4,2,4.4,4.4v21.2
		C52,53,50,55,47.6,55z"/>
	<g>
		<ellipse transform="matrix(0.4 -0.9165 0.9165 0.4 -22.4934 44.6392)" cx="22.8" cy="39.5" rx="1.5" ry="1.5"/>
		<ellipse transform="matrix(0.4 -0.9165 0.9165 0.4 -18.112 51.3322)" cx="30.2" cy="39.5" rx="1.5" ry="1.5"/>
		<ellipse transform="matrix(0.4 -0.9165 0.9165 0.4 -13.9118 57.7492)" cx="37.2" cy="39.5" rx="1.5" ry="1.5"/>
	</g>
	<path d="M13,31.6v-6.2c0-1.9,1.5-3.4,3.4-3.4H20v-2h-3.6c-3,0-5.4,2.4-5.4,5.4v6.2c0,1.9-1.5,3.4-3.4,3.4H4v2h3.6
		c1.9,0,3.4,1.5,3.4,3.4v6.2c0,3,2.4,5.4,5.4,5.4H20v-2h-3.6c-1.9,0-3.4-1.5-3.4-3.4v-6.2c0-1.8-0.9-3.4-2.3-4.4
		C12.1,35,13,33.4,13,31.6z"/>
	<path d="M52.4,35c-1.9,0-3.4-1.5-3.4-3.4v-6.2c0-3-2.4-5.4-5.4-5.4H40v2h3.6c1.9,0,3.4,1.5,3.4,3.4v6.2c0,1.8,0.9,3.4,2.3,4.4
		c-1.4,1-2.3,2.6-2.3,4.4v6.2c0,1.9-1.5,3.4-3.4,3.4H40v2h3.6c3,0,5.4-2.4,5.4-5.4v-6.2c0-1.9,1.5-3.4,3.4-3.4H56v-2H52.4z"/>
</g>
<g id="Layer_3" class="st22">
</g>
<g id="Layer_4">
</g>
</svg>