<?xml version="1.0" encoding="utf-8"?>
<!-- Generator: Adobe Illustrator 23.1.1, SVG Export Plug-In . SVG Version: 6.00 Build 0)  -->
<svg version="1.1" id="Layer_1" xmlns="http://www.w3.org/2000/svg" xmlns:xlink="http://www.w3.org/1999/xlink" x="0px" y="0px"
	 viewBox="0 0 60 60" enable-background="new 0 0 60 60" xml:space="preserve">
<g id="Bounding_boxes">
</g>
<g id="Art">
	<path fill="#66BDFF" d="M47.6,55H20.4C18,55,16,53,16,50.6V29.4c0-2.4,2-4.4,4.4-4.4h27.2c2.4,0,4.4,2,4.4,4.4v21.2
		C52,53,50,55,47.6,55z"/>
	<g>
		<ellipse cx="22.8" cy="39.5" rx="1.5" ry="1.5"/>
		<ellipse cx="30.2" cy="39.5" rx="1.5" ry="1.5"/>
		<ellipse cx="37.2" cy="39.5" rx="1.5" ry="1.5"/>
	</g>
	<path d="M13,31.6v-6.2c0-1.9,1.5-3.4,3.4-3.4H20v-2h-3.6c-3,0-5.4,2.4-5.4,5.4v6.2c0,1.9-1.5,3.4-3.4,3.4H4v2h3.6
		c1.9,0,3.4,1.5,3.4,3.4v6.2c0,3,2.4,5.4,5.4,5.4H20v-2h-3.6c-1.9,0-3.4-1.5-3.4-3.4v-6.2c0-1.8-0.9-3.4-2.3-4.4
		C12.1,35,13,33.4,13,31.6z"/>
	<path d="M52.4,35c-1.9,0-3.4-1.5-3.4-3.4v-6.2c0-3-2.4-5.4-5.4-5.4H40v2h3.6c1.9,0,3.4,1.5,3.4,3.4v6.2c0,1.8,0.9,3.4,2.3,4.4
		c-1.4,1-2.3,2.6-2.3,4.4v6.2c0,1.9-1.5,3.4-3.4,3.4H40v2h3.6c3,0,5.4-2.4,5.4-5.4v-6.2c0-1.9,1.5-3.4,3.4-3.4H56v-2
		C56,35,52.4,35,52.4,35z"/>
</g>
<g id="Layer_3" display="none">
</g>
<g id="Layer_4">
</g>
</svg>
