<svg version="1.1" xmlns="http://www.w3.org/2000/svg" xmlns:xlink="http://www.w3.org/1999/xlink" x="0px" y="0px"
	 viewBox="0 0 60 60" enable-background="new 0 0 60 60" xml:space="preserve">
<title>Availability Icon</title>
<g id="Bounding_boxes">
</g>
<g id="Art">
	<path fill="#FFD201" d="M37.6,13H23.4C21,13,19,15,19,17.4v34.2c0,2.4,2,4.4,4.4,4.4h14.2c2.4,0,4.4-2,4.4-4.4V17.4
		C42,15,40,13,37.6,13z M29.5,46c-3,0-5.5-2.5-5.5-5.5c0-3,2.5-5.5,5.5-5.5s5.5,2.5,5.5,5.5C35,43.5,32.5,46,29.5,46z"/>
	<g>
		<polygon points="17,10 41,10 41,31 43,31 43,8 15,8 15,53 43,53 43,51 17,51 		"/>
		<path d="M29.4,13.2c-3.4,0-6.5,1.8-8.2,4.8l1.7,1c1.3-2.3,3.8-3.8,6.4-3.8c2.6,0,5.1,1.4,6.4,3.7l1.7-1
			C35.9,15,32.8,13.2,29.4,13.2z"/>
		<ellipse transform="matrix(0.4 -0.9165 0.9165 0.4 -17.4992 66.833)" cx="42.3" cy="46.8" rx="1.5" ry="1.5"/>
		<ellipse transform="matrix(0.4 -0.9165 0.9165 0.4 -12.3197 63.4424)" cx="42.3" cy="41.1" rx="1.5" ry="1.5"/>
		<ellipse transform="matrix(0.4 -0.9165 0.9165 0.4 -7.1395 60.0532)" cx="42.3" cy="35.5" rx="1.5" ry="1.5"/>
		<path d="M29.5,18c-3.6,0-6.5,2.9-6.5,6.5s2.9,6.5,6.5,6.5s6.5-2.9,6.5-6.5S33.1,18,29.5,18z M29.5,29C27,29,25,27,25,24.5
			s2-4.5,4.5-4.5s4.5,2,4.5,4.5S32,29,29.5,29z"/>
		<path d="M29.5,34c-3.6,0-6.5,2.9-6.5,6.5s2.9,6.5,6.5,6.5s6.5-2.9,6.5-6.5S33.1,34,29.5,34z M29.5,45C27,45,25,43,25,40.5
			s2-4.5,4.5-4.5s4.5,2,4.5,4.5S32,45,29.5,45z"/>
	</g>
</g>
</svg>