<?xml version="1.0" encoding="utf-8"?>
<!-- Generator: Adobe Illustrator 22.0.1, SVG Export Plug-In . SVG Version: 6.00 Build 0)  -->
<svg version="1.1" xmlns="http://www.w3.org/2000/svg" xmlns:xlink="http://www.w3.org/1999/xlink" x="0px" y="0px"
	 viewBox="0 0 60 60" style="enable-background:new 0 0 60 60;" xml:space="preserve">
<style type="text/css">
	.st0{fill:none;stroke:#71F5FF;stroke-width:0.8;stroke-miterlimit:10;}
	.st1{fill:#1E2124;}
	.st2{fill:#FFD201;}
	.st3{fill:none;stroke:#E2E2E2;stroke-miterlimit:10;}
	.st4{fill:#FED22A;}
	.st5{clip-path:url(#SVGID_2_);fill:none;stroke:#000000;stroke-width:2;stroke-linecap:square;stroke-miterlimit:10;}
	.st6{fill:none;stroke:#000000;stroke-width:2;stroke-linecap:square;stroke-miterlimit:10;}
	.st7{clip-path:url(#SVGID_4_);fill:none;stroke:#000000;stroke-width:2;stroke-linecap:square;stroke-miterlimit:10;}
	.st8{fill:none;stroke:#000000;stroke-width:2;stroke-miterlimit:10;}
	.st9{fill:none;stroke:#000000;stroke-width:1.8261;stroke-linecap:square;stroke-miterlimit:10;}
	.st10{fill:#1E2123;}
	.st11{fill:#FFFFFF;}
	.st12{fill:none;stroke:#FFD201;stroke-width:2;stroke-miterlimit:10;}
	.st13{fill:none;stroke:#000000;stroke-width:2;stroke-linecap:round;stroke-miterlimit:10;}
	.st14{fill:#FFFFFF;stroke:#000000;stroke-width:2;stroke-miterlimit:10;}
	.st15{fill:#FFFFFF;stroke:#000000;stroke-width:2;stroke-linecap:square;stroke-miterlimit:10;}
	.st16{fill:none;stroke:#000000;stroke-width:2;stroke-linecap:round;stroke-linejoin:round;}
	.st17{fill:none;stroke:#000000;stroke-width:2;stroke-linecap:round;stroke-linejoin:round;stroke-dasharray:0,6.2815;}
	.st18{fill:none;stroke:#000000;stroke-width:3;stroke-linecap:round;stroke-linejoin:round;}
	.st19{fill:none;stroke:#000000;stroke-width:3;stroke-linecap:round;stroke-linejoin:round;stroke-dasharray:0,7.8519;}
	.st20{fill:none;stroke:#1E2023;stroke-width:4;stroke-miterlimit:10;}
	.st21{fill:#1E2023;}
	.st22{fill:none;stroke:#1E2023;stroke-width:3;stroke-miterlimit:10;}
	.st23{fill:none;stroke:#000000;stroke-width:3;stroke-miterlimit:10;}
	.st24{fill:none;stroke:#000000;stroke-width:3;stroke-linecap:square;stroke-miterlimit:10;}
	.st25{fill:#FFD02A;}
	.st26{fill:#53092F;}
	.st27{fill:#FBD00A;}
	.st28{fill:#FBD00A;stroke:#000000;stroke-width:2.7546;stroke-linejoin:bevel;stroke-miterlimit:10;}
	.st29{fill:#FFFFFF;stroke:#000000;stroke-width:3;stroke-miterlimit:10;}
	.st30{fill:#2A6BAA;}
	.st31{fill:#CA3593;}
	.st32{fill:#3298CB;}
	.st33{fill:none;stroke:#FFFFFF;stroke-width:2;stroke-miterlimit:10;}
	.st34{fill:#3399CC;}
	.st35{fill:#CC3399;}
	.st36{fill:#3399CC;stroke:#202020;stroke-width:4;stroke-linecap:round;stroke-linejoin:bevel;stroke-miterlimit:10;}
	.st37{fill:#202020;}
	.st38{fill:#151515;}
	.st39{fill:#3399CC;stroke:#202020;stroke-width:2;stroke-linecap:round;stroke-linejoin:bevel;stroke-miterlimit:10;}
	.st40{fill:#3399CC;stroke:#FFFFFF;stroke-width:2;stroke-linecap:square;stroke-miterlimit:10;}
	.st41{clip-path:url(#SVGID_6_);fill:none;stroke:#000000;stroke-width:6;stroke-linecap:square;stroke-miterlimit:10;}
	.st42{fill:none;stroke:#000000;stroke-width:6;stroke-linecap:square;stroke-miterlimit:10;}
	.st43{clip-path:url(#SVGID_8_);fill:none;stroke:#000000;stroke-width:6;stroke-linecap:square;stroke-miterlimit:10;}
	.st44{fill:#FFFFFF;stroke:#000000;stroke-width:6;stroke-linecap:square;stroke-miterlimit:10;}
	.st45{fill:none;stroke:#000000;stroke-width:6.024;stroke-linecap:round;stroke-linejoin:round;}
	.st46{fill:none;stroke:#000000;stroke-width:6.024;stroke-linecap:round;stroke-linejoin:round;stroke-dasharray:0,18.9217;}
	.st47{fill:none;stroke:#000000;stroke-width:5;stroke-miterlimit:10;}
	.st48{fill:url(#SVGID_9_);}
	.st49{fill:none;stroke:#000000;stroke-width:4;stroke-linecap:square;stroke-miterlimit:10;}
	.st50{fill:none;stroke:#000000;stroke-width:4;stroke-linecap:round;stroke-linejoin:round;}
	.st51{fill:none;stroke:#000000;stroke-width:4;stroke-linecap:round;stroke-linejoin:round;stroke-dasharray:0,9.8149;}
	.st52{fill:none;stroke:#000000;stroke-width:1.7;stroke-miterlimit:10;}
	.st53{fill:none;stroke:#000000;stroke-width:1.6645;stroke-miterlimit:10;}
</style>
<g id="Bounding_boxes">
</g>
<g id="Art">
	<g>
		<circle class="st2" cx="21" cy="16.7" r="10"/>
		<polygon points="18.1,16.6 12.7,11.2 14.1,9.8 18.1,13.8 27.1,4.8 28.5,6.2 		"/>
		<rect x="40.1" y="10.5" width="12" height="2"/>
		<g>
			<circle cx="35.6" cy="11.7" r="1.5"/>
		</g>
		<rect x="34.1" y="17.2" width="14" height="2"/>
		<rect x="34.1" y="39.5" width="18" height="2"/>
		<rect x="34.1" y="46.2" width="8" height="2"/>
		<g>
			<circle cx="46.6" cy="47.2" r="1.5"/>
		</g>
		<path d="M18,23.7c-6.1,0-11-5-11-11c0-6.1,5-11,11-11c1.3,0,2.5,0.2,3.7,0.6L21,4.2c-1-0.3-2-0.5-3-0.5c-5,0-9,4.1-9,9s4.1,9,9,9
			s9-4.1,9-9h2C29,18.8,24,23.7,18,23.7z"/>
		<g>
			<circle class="st2" cx="21" cy="45.2" r="10"/>
			<polygon points="18.1,45.2 12.7,39.7 14.1,38.3 18.1,42.3 27.1,33.3 28.5,34.7 			"/>
			<path d="M18,52.3c-6.1,0-11-5-11-11s5-11,11-11c1.3,0,2.5,0.2,3.7,0.6L21,32.7c-1-0.3-2-0.5-3-0.5c-5,0-9,4.1-9,9s4.1,9,9,9
				s9-4.1,9-9h2C29,47.3,24,52.3,18,52.3z"/>
		</g>
	</g>
</g>
</svg>