<?xml version="1.0" encoding="utf-8"?>
<!-- Generator: Adobe Illustrator 23.1.1, SVG Export Plug-In . SVG Version: 6.00 Build 0)  -->
<svg version="1.1" id="Layer_1" xmlns="http://www.w3.org/2000/svg" xmlns:xlink="http://www.w3.org/1999/xlink" x="0px" y="0px"
	 viewBox="0 0 60 60" enable-background="new 0 0 60 60" xml:space="preserve">
<g id="Bounding_boxes">
</g>
<g id="Art">
	<g>
		<circle fill="#66BDFF" cx="21" cy="16.7" r="10"/>
		<polygon points="18.1,16.6 12.7,11.2 14.1,9.8 18.1,13.8 27.1,4.8 28.5,6.2 		"/>
		<rect x="40.1" y="10.5" width="12" height="2"/>
		<g>
			<circle cx="35.6" cy="11.7" r="1.5"/>
		</g>
		<rect x="34.1" y="17.2" width="14" height="2"/>
		<rect x="34.1" y="39.5" width="18" height="2"/>
		<rect x="34.1" y="46.2" width="8" height="2"/>
		<g>
			<circle cx="46.6" cy="47.2" r="1.5"/>
		</g>
		<path d="M18,23.7c-6.1,0-11-5-11-11c0-6.1,5-11,11-11c1.3,0,2.5,0.2,3.7,0.6L21,4.2c-1-0.3-2-0.5-3-0.5c-5,0-9,4.1-9,9s4.1,9,9,9
			s9-4.1,9-9h2C29,18.8,24,23.7,18,23.7z"/>
		<g>
			<circle fill="#66BDFF" cx="21" cy="45.2" r="10"/>
			<polygon points="18.1,45.2 12.7,39.7 14.1,38.3 18.1,42.3 27.1,33.3 28.5,34.7 			"/>
			<path d="M18,52.3c-6.1,0-11-5-11-11s5-11,11-11c1.3,0,2.5,0.2,3.7,0.6L21,32.7c-1-0.3-2-0.5-3-0.5c-5,0-9,4.1-9,9s4.1,9,9,9
				s9-4.1,9-9h2C29,47.3,24,52.3,18,52.3z"/>
		</g>
	</g>
</g>
</svg>
