<?xml version="1.0" encoding="utf-8"?>
<!-- Generator: Adobe Illustrator 23.1.1, SVG Export Plug-In . SVG Version: 6.00 Build 0)  -->
<svg version="1.1" id="Layer_1" xmlns="http://www.w3.org/2000/svg" xmlns:xlink="http://www.w3.org/1999/xlink" x="0px" y="0px"
	 viewBox="0 0 60 60" enable-background="new 0 0 60 60" xml:space="preserve">
<title>Latency Features Icon</title>
<g id="Bounding_boxes">
</g>
<g id="Art">
	<g>
		<circle fill="#66BDFF" cx="32" cy="38" r="19"/>
	</g>
	<g>
		<path d="M29.9,46.5c-0.8-0.3-1.8,0-2.1,0.8c-0.4,0.8,0,1.6,0.8,2c0.8,0.3,1.8,0,2.1-0.8C31.1,47.7,30.7,46.8,29.9,46.5z"/>
		<path d="M18,33.5c-0.8-0.3-1.8,0-2.1,0.8s0,1.6,0.8,2c0.8,0.3,1.8,0,2.1-0.8C19.2,34.7,18.8,33.8,18,33.5z"/>
		<ellipse cx="29.1" cy="21.9" rx="1.5" ry="1.5"/>
		<path d="M32.9,34c-0.4-1.4-1.5-2.5-2.9-2.9V26h-2v5.1c-1.7,0.4-3,2-3,3.9c0,2.2,1.8,4,4,4c1.9,0,3.4-1.3,3.9-3H44v-2H32.9z M29,37
			c-1.1,0-2-0.9-2-2s0.9-2,2-2s2,0.9,2,2S30.1,37,29,37z"/>
		<path d="M30,15.1V12h5v-2H23v2h5v3.1C17.4,15.6,9,24.3,9,35c0,11,9,20,20,20s20-9,20-20C49,24.3,40.6,15.6,30,15.1z M29,53
			c-9.9,0-18-8.1-18-18s8.1-18,18-18s18,8.1,18,18S38.9,53,29,53z"/>
	</g>
</g>
</svg>
