<?xml version="1.0" encoding="utf-8"?>
<!-- Generator: Adobe Illustrator 23.1.1, SVG Export Plug-In . SVG Version: 6.00 Build 0)  -->
<svg version="1.1" id="Layer_1" xmlns="http://www.w3.org/2000/svg" xmlns:xlink="http://www.w3.org/1999/xlink" x="0px" y="0px"
	 viewBox="0 0 60 60" enable-background="new 0 0 60 60" xml:space="preserve">
<title>Warehouse Icon</title>
<g id="Bounding_boxes">
</g>
<g id="Art">
	<g>
		<g>
			<g>
				<circle fill="#66BDFF" cx="32.6" cy="33.4" r="22.4"/>
			</g>
		</g>
	</g>
	<g>
		<g>
			<g>
				<ellipse cx="30" cy="15.8" rx="1.4" ry="1.4"/>
			</g>
		</g>
		<g>
			<g>
				<ellipse cx="30" cy="45.2" rx="1.4" ry="1.4"/>
			</g>
		</g>
		<g>
			<g>
				<ellipse cx="44.7" cy="30.5" rx="1.4" ry="1.4"/>
			</g>
		</g>
		<g>
			<g>
				<ellipse cx="15.3" cy="30.5" rx="1.4" ry="1.4"/>
			</g>
		</g>
		<g>
			<g>
				<ellipse cx="40.4" cy="20.1" rx="1.4" ry="1.4"/>
			</g>
		</g>
		<g>
			<g>
				<ellipse cx="19.6" cy="40.9" rx="1.4" ry="1.4"/>
			</g>
		</g>
		<g>
			<g>
				<ellipse cx="43.5" cy="24.9" rx="1.4" ry="1.4"/>
			</g>
		</g>
		<g>
			<g>
				<ellipse cx="16.5" cy="36.1" rx="1.4" ry="1.4"/>
			</g>
		</g>
		<g>
			<g>
				<ellipse cx="43.7" cy="35.8" rx="1.4" ry="1.4"/>
			</g>
		</g>
		<g>
			<g>
				<ellipse cx="16.3" cy="25.2" rx="1.4" ry="1.4"/>
			</g>
		</g>
		<g>
			<g>
				<ellipse cx="35.5" cy="44.1" rx="1.4" ry="1.4"/>
			</g>
		</g>
		<g>
			<g>
				<ellipse cx="24.5" cy="16.9" rx="1.4" ry="1.4"/>
			</g>
		</g>
		<g>
			<g>
				<ellipse cx="24.3" cy="44" rx="1.4" ry="1.4"/>
			</g>
		</g>
		<g>
			<g>
				<ellipse cx="35.7" cy="17" rx="1.4" ry="1.4"/>
			</g>
		</g>
		<g>
			<g>
				<ellipse cx="40.4" cy="40.9" rx="1.4" ry="1.4"/>
			</g>
		</g>
		<g>
			<g>
				<ellipse cx="19.6" cy="20.1" rx="1.4" ry="1.4"/>
			</g>
		</g>
		<g>
			<g>
				<path d="M30,22.5c-4.4,0-8,3.6-8,8s3.6,8,8,8s8-3.6,8-8S34.4,22.5,30,22.5z M30,36.5c-3.3,0-6-2.7-6-6s2.7-6,6-6s6,2.7,6,6
					S33.3,36.5,30,36.5z"/>
			</g>
		</g>
		<g>
			<g>
				<path d="M30,7C17,7,6.5,17.5,6.5,30.5S17,54,30,54s23.5-10.5,23.5-23.5S43,7,30,7z M30,52C18.1,52,8.5,42.4,8.5,30.5
					S18.1,9,30,9s21.5,9.6,21.5,21.5S41.9,52,30,52z"/>
			</g>
		</g>
	</g>
</g>
</svg>
