<svg xmlns="http://www.w3.org/2000/svg" xmlns:xlink="http://www.w3.org/1999/xlink" x="0px" y="0px"
	 viewBox="0 0 60 60" enable-background="new 0 0 60 60" xml:space="preserve">
<title>Warehouse Icon</title>
<g id="Bounding_boxes">
</g>
<g id="Art">
	<g>
		<g>
			<g>
				<circle fill="#FFD201" cx="32.6" cy="33.4" r="22.4"/>
			</g>
		</g>
	</g>
	<g>
		<g>
			<g>
				<ellipse transform="matrix(0.4 -0.9165 0.9165 0.4 3.4989 36.9892)" cx="30" cy="15.8" rx="1.4" ry="1.4"/>
			</g>
		</g>
		<g>
			<g>
				<ellipse transform="matrix(0.4 -0.9165 0.9165 0.4 -23.406 54.6022)" cx="30" cy="45.2" rx="1.4" ry="1.4"/>
			</g>
		</g>
		<g>
			<g>
				<ellipse transform="matrix(0.4 -0.9165 0.9165 0.4 -1.1482 59.2461)" cx="44.7" cy="30.5" rx="1.4" ry="1.4"/>
			</g>
		</g>
		<g>
			<g>
				<ellipse transform="matrix(0.4 -0.9165 0.9165 0.4 -18.7603 32.3426)" cx="15.3" cy="30.5" rx="1.4" ry="1.4"/>
			</g>
		</g>
		<g>
			<g>
				<ellipse transform="matrix(0.9309 -0.3652 0.3652 0.9309 -4.5594 16.1376)" cx="40.4" cy="20.1" rx="1.4" ry="1.4"/>
			</g>
		</g>
		<g>
			<g>
				<ellipse transform="matrix(0.9309 -0.3652 0.3652 0.9309 -13.5747 9.9904)" cx="19.6" cy="40.9" rx="1.4" ry="1.4"/>
			</g>
		</g>
		<g>
			<g>
				
					<ellipse transform="matrix(1.619575e-02 -0.9999 0.9999 1.619575e-02 17.9961 67.9851)" cx="43.5" cy="24.8" rx="1.4" ry="1.4"/>
			</g>
		</g>
		<g>
			<g>
				
					<ellipse transform="matrix(1.619540e-02 -0.9999 0.9999 1.619540e-02 -19.9598 52.0191)" cx="16.5" cy="36.2" rx="1.4" ry="1.4"/>
			</g>
		</g>
		<g>
			<g>
				<ellipse transform="matrix(0.7034 -0.7108 0.7108 0.7034 -12.4786 41.6735)" cx="43.7" cy="35.8" rx="1.4" ry="1.4"/>
			</g>
		</g>
		<g>
			<g>
				<ellipse transform="matrix(0.7034 -0.7108 0.7108 0.7034 -13.0839 19.0714)" cx="16.3" cy="25.2" rx="1.4" ry="1.4"/>
			</g>
		</g>
		<g>
			<g>
				
					<ellipse transform="matrix(2.705145e-02 -0.9996 0.9996 2.705145e-02 -9.5455 78.4051)" cx="35.5" cy="44.1" rx="1.4" ry="1.4"/>
			</g>
		</g>
		<g>
			<g>
				<ellipse transform="matrix(2.705085e-02 -0.9996 0.9996 2.705085e-02 6.9448 40.9228)" cx="24.5" cy="16.9" rx="1.4" ry="1.4"/>
			</g>
		</g>
		<g>
			<g>
				<ellipse transform="matrix(0.7231 -0.6907 0.6907 0.7231 -23.6817 28.9971)" cx="24.3" cy="44" rx="1.4" ry="1.4"/>
			</g>
		</g>
		<g>
			<g>
				<ellipse transform="matrix(0.7231 -0.6907 0.6907 0.7231 -1.8395 29.3363)" cx="35.7" cy="17" rx="1.4" ry="1.4"/>
			</g>
		</g>
		<g>
			<g>
				<ellipse transform="matrix(0.9309 -0.3652 0.3652 0.9309 -12.1407 17.5716)" cx="40.4" cy="40.9" rx="1.4" ry="1.4"/>
			</g>
		</g>
		<g>
			<g>
				<ellipse transform="matrix(0.9309 -0.3652 0.3652 0.9309 -5.9934 8.5564)" cx="19.6" cy="20.1" rx="1.4" ry="1.4"/>
			</g>
		</g>
		<g>
			<g>
				<path d="M30,22.5c-4.4,0-8,3.6-8,8s3.6,8,8,8s8-3.6,8-8S34.4,22.5,30,22.5z M30,36.5c-3.3,0-6-2.7-6-6s2.7-6,6-6s6,2.7,6,6
					S33.3,36.5,30,36.5z"/>
			</g>
		</g>
		<g>
			<g>
				<path d="M30,7C17,7,6.5,17.5,6.5,30.5S17,54,30,54s23.5-10.5,23.5-23.5S43,7,30,7z M30,52C18.1,52,8.5,42.4,8.5,30.5
					S18.1,9,30,9s21.5,9.6,21.5,21.5S41.9,52,30,52z"/>
			</g>
		</g>
	</g>
</g>
</svg>