<?xml version="1.0" encoding="utf-8"?>
<!-- Generator: Adobe Illustrator 22.1.0, SVG Export Plug-In . SVG Version: 6.00 Build 0)  -->
<svg version="1.1" xmlns="http://www.w3.org/2000/svg" xmlns:xlink="http://www.w3.org/1999/xlink" x="0px" y="0px"
	 viewBox="0 0 60 60" style="enable-background:new 0 0 60 60;" xml:space="preserve">
<style type="text/css">
	.st0{fill:none;stroke:#71F5FF;stroke-width:0.8;stroke-miterlimit:10;}
	.st1{fill:#1E2124;}
	.st2{fill:#FFD201;}
	.st3{fill:#FED22A;}
	.st4{clip-path:url(#SVGID_2_);fill:none;stroke:#000000;stroke-width:2;stroke-linecap:square;stroke-miterlimit:10;}
	.st5{fill:none;stroke:#000000;stroke-width:2;stroke-linecap:square;stroke-miterlimit:10;}
	.st6{clip-path:url(#SVGID_4_);fill:none;stroke:#000000;stroke-width:2;stroke-linecap:square;stroke-miterlimit:10;}
	.st7{fill:none;stroke:#000000;stroke-width:2;stroke-miterlimit:10;}
	.st8{fill:none;stroke:#000000;stroke-width:1.8261;stroke-linecap:square;stroke-miterlimit:10;}
	.st9{fill:#1E2123;}
	.st10{fill:#FFFFFF;}
	.st11{fill:none;stroke:#FFD201;stroke-width:2;stroke-miterlimit:10;}
	.st12{fill:none;stroke:#000000;stroke-width:2;stroke-linecap:round;stroke-miterlimit:10;}
	.st13{fill:#FFFFFF;stroke:#000000;stroke-width:2;stroke-miterlimit:10;}
	.st14{fill:#FFFFFF;stroke:#000000;stroke-width:2;stroke-linecap:square;stroke-miterlimit:10;}
	.st15{fill:none;stroke:#000000;stroke-width:2;stroke-linecap:round;stroke-linejoin:round;}
	.st16{fill:none;stroke:#000000;stroke-width:2;stroke-linecap:round;stroke-linejoin:round;stroke-dasharray:0,6.2815;}
	.st17{fill:none;stroke:#000000;stroke-width:3;stroke-linecap:round;stroke-linejoin:round;}
	.st18{fill:none;stroke:#000000;stroke-width:3;stroke-linecap:round;stroke-linejoin:round;stroke-dasharray:0,7.8519;}
	.st19{fill:none;stroke:#1E2023;stroke-width:4;stroke-miterlimit:10;}
	.st20{fill:#1E2023;}
	.st21{fill:none;stroke:#1E2023;stroke-width:3;stroke-miterlimit:10;}
	.st22{fill:none;stroke:#000000;stroke-width:3;stroke-miterlimit:10;}
	.st23{fill:none;stroke:#000000;stroke-width:3;stroke-linecap:square;stroke-miterlimit:10;}
	.st24{fill:#FFD02A;}
	.st25{fill:#53092F;}
	.st26{fill:#FBD00A;}
	.st27{fill:#FBD00A;stroke:#000000;stroke-width:2.7546;stroke-linejoin:bevel;stroke-miterlimit:10;}
	.st28{fill:#FFFFFF;stroke:#000000;stroke-width:3;stroke-miterlimit:10;}
	.st29{fill:none;stroke:#000000;stroke-width:4;stroke-linecap:square;stroke-miterlimit:10;}
	.st30{fill:none;stroke:#000000;stroke-width:4;stroke-linecap:round;stroke-linejoin:round;}
	.st31{fill:none;stroke:#000000;stroke-width:4;stroke-linecap:round;stroke-linejoin:round;stroke-dasharray:0,9.8149;}
	.st32{fill:none;stroke:#000000;stroke-width:1.7;stroke-miterlimit:10;}
	.st33{fill:none;stroke:#000000;stroke-width:1.6645;stroke-miterlimit:10;}
	.st34{fill:none;stroke:#FFCC00;stroke-width:2;stroke-miterlimit:10;}
	.st35{fill:#FFCC02;}
	.st36{fill:#FDD108;}
	.st37{fill:none;stroke:#E490BD;stroke-width:1.6634;stroke-miterlimit:10;}
	.st38{fill:none;stroke:#000000;stroke-width:1.8829;stroke-miterlimit:10;}
	.st39{fill:none;stroke:#000000;stroke-width:1.875;stroke-linecap:square;stroke-miterlimit:10;}
	.st40{fill:#1D1F22;}
	.st41{fill:none;stroke:#E490BD;stroke-width:1.4417;stroke-miterlimit:10;}
	.st42{fill:none;stroke:#000000;stroke-width:1.6318;stroke-miterlimit:10;}
</style>
<g id="Bounding_boxes">
</g>
<g id="Art">
	<g id="icon-extensibility">
		<path class="st36" d="M31.5,54.7H12.8c-2.4,0-4.4-2-4.4-4.4V31.6c0-2.4,2-4.4,4.4-4.4h18.7c2.4,0,4.4,2,4.4,4.4v18.7
			C35.9,52.7,33.9,54.7,31.5,54.7z"/>
		<path d="M18.3,45.4c-2.4,0-4.4,1.7-4.9,4H6.8v-6.6c2.4-0.4,4.2-2.5,4.2-5s-1.8-4.6-4.2-5V26h3.7v-2H4.8v10.6l1,0l0.1,0
			c1.7,0,3.1,1.4,3.1,3.1c0,1.7-1.4,3.1-3,3.1l-1.2-0.1v10.6h10.4l0-1c0-1.7,1.4-3,3.1-3c1.8,0,3.1,1.5,3.1,3.8v0.2h2v-0.2
			C23.4,47.7,21.3,45.4,18.3,45.4z"/>
		<path d="M53.2,37.6c0-1.6,1.3-3,2.9-3.1l0.9,0l0-10.4h-8.5c0-1.3-0.6-2.5-1.5-3.4c-1-1-2.2-1.5-3.6-1.5c-2.8,0-5.1,2.3-5.1,5.1
			v0.2h2v-0.2c0-1.7,1.4-3.1,3.1-3.1c0.8,0,1.6,0.3,2.2,0.9c0.6,0.6,0.9,1.3,0.9,2.1l0,1.9h8.5v6.6c-2.2,0.5-3.9,2.6-3.9,4.9
			s1.6,4.4,3.9,4.9v6.8H31.9v-6.6c2.7-0.1,4.9-2.4,4.9-5.1s-2.2-5-4.9-5.1v-8.6l-5.7,0v2h3.7v8.6h1.8l0,0c1.7,0,3,1.4,3,3.1
			c0,1.7-1.4,3.1-3.1,3.1l-1.8,0v10.6h1.8l25.4,0V40.7l-0.9,0C54.5,40.6,53.2,39.2,53.2,37.6z"/>
		<g>
			<g>
				<g>
					<path d="M14.9,25.6c0.3-0.7,0-1.4-0.7-1.7c-0.7-0.3-1.4,0-1.7,0.7c-0.3,0.7,0,1.4,0.7,1.7C13.9,26.5,14.6,26.2,14.9,25.6z"/>
				</g>
			</g>
			<g>
				<g>
					<path d="M19.5,25.6c0.3-0.7,0-1.4-0.7-1.7c-0.7-0.3-1.4,0-1.7,0.7c-0.3,0.7,0,1.4,0.7,1.7C18.5,26.5,19.2,26.2,19.5,25.6z"/>
				</g>
			</g>
			<g>
				<g>
					<path d="M23.5,23.9c-0.7-0.3-1.4,0-1.7,0.7c-0.3,0.7,0,1.4,0.7,1.7c0.7,0.3,1.4,0,1.7-0.7C24.4,24.9,24.1,24.1,23.5,23.9z"/>
				</g>
			</g>
		</g>
	</g>
</g>
</svg>