<?xml version="1.0" encoding="utf-8"?>
<!-- Generator: Adobe Illustrator 23.1.1, SVG Export Plug-In . SVG Version: 6.00 Build 0)  -->
<svg version="1.1" id="Layer_1" xmlns="http://www.w3.org/2000/svg" xmlns:xlink="http://www.w3.org/1999/xlink" x="0px" y="0px"
	 viewBox="0 0 60 60" enable-background="new 0 0 60 60" xml:space="preserve">
<g id="Bounding_boxes">
</g>
<g id="Art">
	<g id="icon-extensibility">
		<path fill="#66BDFF" d="M31.5,54.7H12.8c-2.4,0-4.4-2-4.4-4.4V31.6c0-2.4,2-4.4,4.4-4.4h18.7c2.4,0,4.4,2,4.4,4.4v18.7
			C35.9,52.7,33.9,54.7,31.5,54.7z"/>
		<path d="M18.3,45.4c-2.4,0-4.4,1.7-4.9,4H6.8v-6.6c2.4-0.4,4.2-2.5,4.2-5s-1.8-4.6-4.2-5V26h3.7v-2H4.8v10.6h1h0.1
			C7.6,34.6,9,36,9,37.7c0,1.7-1.4,3.1-3,3.1l-1.2-0.1v10.6h10.4v-1c0-1.7,1.4-3,3.1-3c1.8,0,3.1,1.5,3.1,3.8v0.2h2v-0.2
			C23.4,47.7,21.3,45.4,18.3,45.4z"/>
		<path d="M53.2,37.6c0-1.6,1.3-3,2.9-3.1H57V24.1h-8.5c0-1.3-0.6-2.5-1.5-3.4c-1-1-2.2-1.5-3.6-1.5c-2.8,0-5.1,2.3-5.1,5.1v0.2h2
			v-0.2c0-1.7,1.4-3.1,3.1-3.1c0.8,0,1.6,0.3,2.2,0.9c0.6,0.6,0.9,1.3,0.9,2.1v1.9H55v6.6c-2.2,0.5-3.9,2.6-3.9,4.9s1.6,4.4,3.9,4.9
			v6.8H31.9v-6.6c2.7-0.1,4.9-2.4,4.9-5.1s-2.2-5-4.9-5.1v-8.6h-5.7v2h3.7v8.6h1.8l0,0c1.7,0,3,1.4,3,3.1c0,1.7-1.4,3.1-3.1,3.1
			h-1.8v10.6h1.8H57V40.7h-0.9C54.5,40.6,53.2,39.2,53.2,37.6z"/>
		<g>
			<g>
				<g>
					<path d="M14.9,25.6c0.3-0.7,0-1.4-0.7-1.7c-0.7-0.3-1.4,0-1.7,0.7s0,1.4,0.7,1.7C13.9,26.5,14.6,26.2,14.9,25.6z"/>
				</g>
			</g>
			<g>
				<g>
					<path d="M19.5,25.6c0.3-0.7,0-1.4-0.7-1.7c-0.7-0.3-1.4,0-1.7,0.7c-0.3,0.7,0,1.4,0.7,1.7C18.5,26.5,19.2,26.2,19.5,25.6z"/>
				</g>
			</g>
			<g>
				<g>
					<path d="M23.5,23.9c-0.7-0.3-1.4,0-1.7,0.7c-0.3,0.7,0,1.4,0.7,1.7c0.7,0.3,1.4,0,1.7-0.7C24.4,24.9,24.1,24.1,23.5,23.9z"/>
				</g>
			</g>
		</g>
	</g>
</g>
</svg>
