<svg xmlns="http://www.w3.org/2000/svg" xmlns:xlink="http://www.w3.org/1999/xlink" x="0px" y="0px"
   viewBox="0 0 60 60" enable-background="new 0 0 60 60" xml:space="preserve">
<title>File Icon</title>
<g id="Bounding_boxes">
</g>
<g id="Art">
  <g>
    <g>
      <path fill="#FFD201" d="M45.6,55.3H19.5c-2.4,0-4.4-2-4.4-4.4V16.6c0-2.4,2-4.4,4.4-4.4h26.1c2.4,0,4.4,2,4.4,4.4v34.3
        C50,53.3,48,55.3,45.6,55.3z"/>
    </g>
  </g>
  <g>
    <path d="M38.2,7H11v45h39V19.1L38.2,7z M39,10.4l7.6,7.6H39V10.4z M13,50V9h24v11h11v30H13z"/>
    <rect x="22" y="41" width="11" height="2"/>
    <rect x="22" y="33" width="17" height="2"/>
    <rect x="33" y="25" width="6" height="2"/>
    <ellipse transform="matrix(0.9309 -0.3652 0.3652 0.9309 -12.6244 16.9391)" cx="38.5" cy="41.8" rx="1.5" ry="1.5"/>
    <ellipse transform="matrix(0.9309 -0.3652 0.3652 0.9309 -7.5548 12.0395)" cx="28.1" cy="26" rx="1.5" ry="1.5"/>
    <ellipse transform="matrix(0.9309 -0.3652 0.3652 0.9309 -7.9392 10.007)" cx="22.5" cy="26" rx="1.5" ry="1.5"/>
    <rect x="22" y="18" width="9" height="2"/>
  </g>
</g>
</svg>