<svg xmlns="http://www.w3.org/2000/svg" xmlns:xlink="http://www.w3.org/1999/xlink" x="0px" y="0px"
	 viewBox="0 0 60 60" enable-background="new 0 0 60 60" xml:space="preserve">
<title>JSON Features Icon</title>
<g id="Bounding_boxes">
</g>
<g id="Art">
	<g>
		<g>
			<path fill="#FFD201" d="M51.6,56H28.4C26,56,24,54,24,51.6V24.4c0-2.4,2-4.4,4.4-4.4h23.2c2.4,0,4.4,2,4.4,4.4v27.2
				C56,54,54,56,51.6,56z"/>
		</g>
	</g>
	<g>
		<g>
			<ellipse transform="matrix(0.4 -0.9165 0.9165 0.4 -6.6069 8.9077)" cx="3.5" cy="9.5" rx="1.5" ry="1.5"/>
		</g>
	</g>
	<g>
		<g>
			<rect x="8" y="8.7" width="20" height="2"/>
		</g>
	</g>
	<g>
		<g>
			<rect x="8" y="15.7" width="8" height="2"/>
		</g>
	</g>
	<g>
		<g>
			<rect x="8" y="22.7" width="8" height="2"/>
		</g>
	</g>
	<g>
		<path d="M26,15c-3.3,0-6,2.7-6,6v32h36V15H26z M26,17h28v10H22v-6C22,18.8,23.8,17,26,17z M22,51V29h32v6h-9v2h9v6h-9v2h9v6H22z"
			/>
		<rect x="29" y="35" width="12" height="2"/>
		<rect x="29" y="43" width="12" height="2"/>
	</g>
</g>
</svg>