<?xml version="1.0" encoding="utf-8"?>
<!-- Generator: Adobe Illustrator 23.1.1, SVG Export Plug-In . SVG Version: 6.00 Build 0)  -->
<svg version="1.1" id="Layer_1" xmlns="http://www.w3.org/2000/svg" xmlns:xlink="http://www.w3.org/1999/xlink" x="0px" y="0px"
	 viewBox="0 0 60 60" enable-background="new 0 0 60 60" xml:space="preserve">
<title>Security Features Icon</title>
<g id="Bounding_boxes">
</g>
<g id="Art">
	<g>
		<g>
			<path fill="#66BDFF" d="M40.6,56H23.4C21,56,19,54,19,51.6V34.4c0-2.4,2-4.4,4.4-4.4h17.2c2.4,0,4.4,2,4.4,4.4v17.2
				C45,54,43,56,40.6,56z"/>
		</g>
	</g>
	<g>
		<g>
			<path d="M42,52.5H14V26.3h28V52.5z M16,50.5h24V28.3H16V50.5z"/>
		</g>
	</g>
	<g>
		<g>
			<path d="M39,27.3h-2v-6.8c0-4.5-4.2-8.5-9-8.5s-9,4-9,8.5v6.8h-2v-6.8C17,14.8,22,10,28,10s11,4.8,11,10.5V27.3z"/>
		</g>
	</g>
	<g>
		<g>
			<ellipse fill="#1E2123" cx="28.5" cy="36.8" rx="1.5" ry="1.5"/>
		</g>
	</g>
	<g>
		<g>
			<ellipse fill="#1E2123" cx="28.5" cy="42" rx="1.5" ry="1.5"/>
		</g>
	</g>
</g>
</svg>
