<?xml version="1.0" encoding="utf-8"?>
<!-- Generator: Adobe Illustrator 23.1.1, SVG Export Plug-In . SVG Version: 6.00 Build 0)  -->
<svg version="1.1" id="Layer_1" xmlns="http://www.w3.org/2000/svg" xmlns:xlink="http://www.w3.org/1999/xlink" x="0px" y="0px"
	 viewBox="0 0 60 60" enable-background="new 0 0 60 60" xml:space="preserve">
<title>Replication Features Icon</title>
<g id="Bounding_boxes">
</g>
<g id="Art">
	<g>
		<path fill="#66BDFF" d="M34,50c0.2-2.2,5.7-8,8-11c3.3-4.3,6-9.8,6-14c0-6.7-14.7-12-14.7-12v37c0.9,0,0.8,0,1.8,0"/>
	</g>
	<g>
		<path fill="#66BDFF" d="M27,16c-0.2,2.2-6.7,8-9,11c-3.3,4.3-6,9.8-6,14c0,6.7,14.7,11,14.7,11V16c-0.9,0,0.2,0-0.8,0"/>
	</g>
	<g>
		<ellipse cx="15.5" cy="49.5" rx="1.5" ry="1.5"/>
	</g>
	<g>
		<ellipse cx="6.5" cy="42" rx="1.5" ry="1.5"/>
	</g>
	<g>
		<ellipse cx="17.5" cy="23.8" rx="1.5" ry="1.5"/>
	</g>
	<g>
		<ellipse cx="20.5" cy="49.5" rx="1.5" ry="1.5"/>
	</g>
	<g>
		<ellipse cx="44.5" cy="15.7" rx="1.5" ry="1.5"/>
	</g>
	<g>
		<ellipse cx="53.5" cy="24.1" rx="1.5" ry="1.5"/>
	</g>
	<path d="M50,25v-2H34V10h-8v13h-5v2h5v7H10v2h16v7H10v2h16v13h8V43h5v-2h-5v-7h16v-2H34v-7H50z M32,54h-4V12h4V54z"/>
	<g>
		<ellipse cx="42.5" cy="41.8" rx="1.5" ry="1.5"/>
	</g>
	<g>
		<ellipse cx="39.5" cy="15.7" rx="1.5" ry="1.5"/>
	</g>
</g>
</svg>
