<svg xmlns="http://www.w3.org/2000/svg" xmlns:xlink="http://www.w3.org/1999/xlink" x="0px" y="0px"
	 viewBox="0 0 60 60" enable-background="new 0 0 60 60" xml:space="preserve">
<title>Replication Features Icon</title>
<g id="Bounding_boxes">
</g>
<g id="Art">
	<g>
		<path fill="#FFD201" d="M34,50c0.2-2.2,5.7-8,8-11c3.3-4.3,6-9.8,6-14c0-6.7-14.7-12-14.7-12l0,37c0.9,0,0.8,0,1.8,0"/>
	</g>
	<g>
		<path fill="#FFD201" d="M27,16c-0.2,2.2-6.7,8-9,11c-3.3,4.3-6,9.8-6,14c0,6.7,14.7,11,14.7,11l0-36c-0.9,0,0.2,0-0.8,0"/>
	</g>
	<g>
		<ellipse transform="matrix(0.4 -0.9165 0.9165 0.4 -36.0674 43.9054)" cx="15.5" cy="49.5" rx="1.5" ry="1.5"/>
	</g>
	<g>
		<ellipse transform="matrix(0.4 -0.9165 0.9165 0.4 -34.5935 31.1568)" cx="6.5" cy="42" rx="1.5" ry="1.5"/>
	</g>
	<g>
		<ellipse transform="matrix(0.4 -0.9165 0.9165 0.4 -11.3095 30.3163)" cx="17.5" cy="23.8" rx="1.5" ry="1.5"/>
	</g>
	<g>
		<ellipse transform="matrix(0.4 -0.9165 0.9165 0.4 -33.0675 48.4879)" cx="20.5" cy="49.5" rx="1.5" ry="1.5"/>
	</g>
	<g>
		<ellipse transform="matrix(0.4 -0.9165 0.9165 0.4 12.2835 50.2221)" cx="44.5" cy="15.7" rx="1.5" ry="1.5"/>
	</g>
	<g>
		<ellipse transform="matrix(0.4 -0.9165 0.9165 0.4 10.0331 63.4789)" cx="53.5" cy="24.1" rx="1.5" ry="1.5"/>
	</g>
	<path d="M50,25v-2H34V10h-8v13h-5v2h5v7H10v2h16v7H10v2h16v13h8V43h5v-2h-5v-7h16v-2H34v-7H50z M32,54h-4V12h4V54z"/>
	<g>
		<ellipse transform="matrix(0.4 -0.9165 0.9165 0.4 -12.8256 64.0411)" cx="42.5" cy="41.8" rx="1.5" ry="1.5"/>
	</g>
	<g>
		<ellipse transform="matrix(0.4 -0.9165 0.9165 0.4 9.2836 45.6395)" cx="39.5" cy="15.7" rx="1.5" ry="1.5"/>
	</g>
</g>
</svg>