<?xml version="1.0" encoding="utf-8"?>
<!-- Generator: Adobe Illustrator 23.1.1, SVG Export Plug-In . SVG Version: 6.00 Build 0)  -->
<svg version="1.1" id="Layer_1" xmlns="http://www.w3.org/2000/svg" xmlns:xlink="http://www.w3.org/1999/xlink" x="0px" y="0px"
	 viewBox="0 0 60 60" enable-background="new 0 0 60 60" xml:space="preserve">
<title>Integration Infrastructure Icon</title>
<g id="Bounding_boxes">
</g>
<g id="Art">
	<g>
		<g>
			<path fill="#66BDFF" d="M29.2,16v16.7c0,0.8,0.5,1.5,1.2,1.8c4.2,1.5,11.4,1.8,15.6-0.6c0.8-0.5,1.4-1.2,1.4-2.1V17.5
				c0,0,0.6-5-9.4-5C29.3,12.6,29.2,16,29.2,16z"/>
		</g>
	</g>
	<g>
		<path d="M53.4,39.8c-0.5-0.8-1.3-1.3-2.2-1.5s-1.8,0-2.6,0.4l-7.8,3.8c-0.4-1.4-1.8-2.6-3.3-2.6h-5.2l-5-3H18v-3h-8v2h6v15h-6v2h8
			v-2.7l11.8,4.3c0.7,0.2,1.4,0.4,2.1,0.4c1,0,2-0.2,2.9-0.7l17.7-9.6c0.8-0.5,1.3-1.3,1.5-2.2C54.1,41.6,53.9,40.6,53.4,39.8z
			 M52,42.1c-0.1,0.4-0.3,0.7-0.6,0.9l-17.6,9.6c-1,0.6-2.2,0.6-3.3,0.2l-12.1-4.5c-0.1,0-0.2-0.1-0.3-0.1V39h8.7l5,3h5.8
			c0.8,0,1.5,0.7,1.5,1.5S38.3,45,37.5,45H26v2h11.5c1.5,0,2.8-0.8,3.3-2.1l8.9-4.4h0.1c0.3-0.2,0.7-0.3,1.1-0.2
			c0.4,0.1,0.7,0.3,0.9,0.7C52,41.3,52.1,41.7,52,42.1z"/>
		<path d="M36.5,32.1c4.7,0,8.9-1.3,10.6-3.2l-1.5-1.3c-1,1.2-4.4,2.5-9.1,2.5c-5.7,0-9.4-1.9-9.4-3.3V15.6c2,1.4,6,2.2,9.5,2.2
			c5.5,0,11.4-1.8,11.4-5.3s-5.9-5.3-11.4-5.3S25,9.1,25,12.5v14.3C25,30.2,31,32.1,36.5,32.1z M36.6,9.3c5.7,0,9.3,1.9,9.3,3.3
			s-3.6,3.3-9.3,3.3s-9.3-1.9-9.3-3.3S30.9,9.3,36.6,9.3z"/>
	</g>
	<g>
		<g>
			<ellipse cx="47.6" cy="19.9" rx="1.5" ry="1.5"/>
		</g>
	</g>
	<g>
		<g>
			<ellipse cx="47.6" cy="24.9" rx="1.5" ry="1.5"/>
		</g>
	</g>
	<g>
		<g>
			<ellipse cx="5.9" cy="35.3" rx="1.5" ry="1.5"/>
		</g>
	</g>
	<g>
		<g>
			<ellipse cx="5.9" cy="52.3" rx="1.5" ry="1.5"/>
		</g>
	</g>
</g>
</svg>
