<?xml version="1.0" encoding="utf-8"?>
<!-- Generator: Adobe Illustrator 23.1.1, SVG Export Plug-In . SVG Version: 6.00 Build 0)  -->
<svg version="1.1" id="Layer_1" xmlns="http://www.w3.org/2000/svg" xmlns:xlink="http://www.w3.org/1999/xlink" x="0px" y="0px"
	 viewBox="0 0 60 60" enable-background="new 0 0 60 60" xml:space="preserve">
<title>Features Support Icon</title>
<g id="Bounding_boxes">
</g>
<g id="Art">
	<g>
		<g>
			<path fill="#66BDFF" d="M39,47H13.4C11,47,9,45,9,42.6V27.4C9,25,11,23,13.4,23H39c2.4,0,4.4,2,4.4,4.4v15.2
				C43.4,45,41.4,47,39,47z"/>
		</g>
	</g>
	<g>
		<path d="M48,23h-5v1c0-3.3-2.7-6-6-6H11c-3.3,0-6,2.7-6,6v15c0,2.4,1.7,4.4,4,4.9v7.3l8.4-7.2H37c3.3,0,6-2.7,6-6V25h5
			c2.2,0,4,1.8,4,4v15c0,1.7-1.3,3-3,3h-1v4.8L42.4,47H27v2h14.6l8.4,7.2v-7.3c2.3-0.5,4-2.5,4-4.9V29C54,25.7,51.3,23,48,23z
			 M41,38c0,2.2-1.8,4-4,4H16.6L11,46.8V42h-1c-1.7,0-3-1.3-3-3V24c0-2.2,1.8-4,4-4h26c2.2,0,4,1.8,4,4V38z"/>
		<ellipse cx="16.9" cy="31" rx="1.5" ry="1.5"/>
		<ellipse cx="30.6" cy="31.1" rx="1.5" ry="1.5"/>
		<ellipse cx="23.8" cy="31" rx="1.5" ry="1.5"/>
	</g>
</g>
</svg>
