<?xml version="1.0" encoding="utf-8"?>
<!-- Generator: Adobe Illustrator 22.1.0, SVG Export Plug-In . SVG Version: 6.00 Build 0)  -->
<svg version="1.1" xmlns="http://www.w3.org/2000/svg" xmlns:xlink="http://www.w3.org/1999/xlink" x="0px" y="0px"
	 viewBox="0 0 60 60" style="enable-background:new 0 0 60 60;" xml:space="preserve">
<style type="text/css">
	.st0{fill:none;stroke:#71F5FF;stroke-width:0.8;stroke-miterlimit:10;}
	.st1{fill:#1E2124;}
	.st2{fill:#FFD201;}
	.st3{fill:#FED22A;}
	.st4{clip-path:url(#SVGID_2_);fill:none;stroke:#000000;stroke-width:2;stroke-linecap:square;stroke-miterlimit:10;}
	.st5{fill:none;stroke:#000000;stroke-width:2;stroke-linecap:square;stroke-miterlimit:10;}
	.st6{clip-path:url(#SVGID_4_);fill:none;stroke:#000000;stroke-width:2;stroke-linecap:square;stroke-miterlimit:10;}
	.st7{fill:none;stroke:#000000;stroke-width:2;stroke-miterlimit:10;}
	.st8{fill:none;stroke:#000000;stroke-width:1.8261;stroke-linecap:square;stroke-miterlimit:10;}
	.st9{fill:#1E2123;}
	.st10{fill:#FFFFFF;}
	.st11{fill:none;stroke:#FFD201;stroke-width:2;stroke-miterlimit:10;}
	.st12{fill:none;stroke:#000000;stroke-width:2;stroke-linecap:round;stroke-miterlimit:10;}
	.st13{fill:#FFFFFF;stroke:#000000;stroke-width:2;stroke-miterlimit:10;}
	.st14{fill:#FFFFFF;stroke:#000000;stroke-width:2;stroke-linecap:square;stroke-miterlimit:10;}
	.st15{fill:none;stroke:#000000;stroke-width:2;stroke-linecap:round;stroke-linejoin:round;}
	.st16{fill:none;stroke:#000000;stroke-width:2;stroke-linecap:round;stroke-linejoin:round;stroke-dasharray:0,6.2815;}
	.st17{fill:none;stroke:#000000;stroke-width:3;stroke-linecap:round;stroke-linejoin:round;}
	.st18{fill:none;stroke:#000000;stroke-width:3;stroke-linecap:round;stroke-linejoin:round;stroke-dasharray:0,7.8519;}
	.st19{fill:none;stroke:#1E2023;stroke-width:4;stroke-miterlimit:10;}
	.st20{fill:#1E2023;}
	.st21{fill:none;stroke:#1E2023;stroke-width:3;stroke-miterlimit:10;}
	.st22{fill:none;stroke:#000000;stroke-width:3;stroke-miterlimit:10;}
	.st23{fill:none;stroke:#000000;stroke-width:3;stroke-linecap:square;stroke-miterlimit:10;}
	.st24{fill:#FFD02A;}
	.st25{fill:#53092F;}
	.st26{fill:#FBD00A;}
	.st27{fill:#FBD00A;stroke:#000000;stroke-width:2.7546;stroke-linejoin:bevel;stroke-miterlimit:10;}
	.st28{fill:#FFFFFF;stroke:#000000;stroke-width:3;stroke-miterlimit:10;}
	.st29{fill:none;stroke:#000000;stroke-width:4;stroke-linecap:square;stroke-miterlimit:10;}
	.st30{fill:none;stroke:#000000;stroke-width:4;stroke-linecap:round;stroke-linejoin:round;}
	.st31{fill:none;stroke:#000000;stroke-width:4;stroke-linecap:round;stroke-linejoin:round;stroke-dasharray:0,9.8149;}
	.st32{fill:none;stroke:#000000;stroke-width:1.7;stroke-miterlimit:10;}
	.st33{fill:none;stroke:#000000;stroke-width:1.6645;stroke-miterlimit:10;}
</style>
<g id="Bounding_boxes">
</g>
<g id="Art">
	<g>
		<g>
			<path class="st2" d="M23.6,55.8h-6.2c-2.4,0-4.4-2-4.4-4.4v-6.2c0-2.4,2-4.4,4.4-4.4h6.2c2.4,0,4.4,2,4.4,4.4v6.2
				C28,53.9,26,55.8,23.6,55.8z"/>
		</g>
	</g>
	<g>
		<g>
			<rect x="40" y="15.2" width="12" height="2"/>
		</g>
	</g>
	<g>
		<g>
			<circle cx="35.5" cy="16.3" r="1.5"/>
		</g>
	</g>
	<g>
		<g>
			<rect x="34" y="21.8" width="14" height="2"/>
		</g>
	</g>
	<g>
		<g>
			<rect x="34" y="42.2" width="18" height="2"/>
		</g>
	</g>
	<g>
		<polygon points="14,41.4 12.6,42.8 18,48.2 28.4,37.8 27,36.4 18,45.4 		"/>
		<polygon points="26,45.8 24,45.8 24,50.8 11,50.8 11,37.8 22,37.8 22,35.8 9,35.8 9,52.8 26,52.8 		"/>
		<polygon points="24,25.8 11,25.8 11,12.8 26,12.8 26,10.8 9,10.8 9,27.8 26,27.8 26,11.8 24,11.8 		"/>
	</g>
	<g>
		<g>
			<rect x="34" y="48.8" width="8" height="2"/>
		</g>
	</g>
	<g>
		<g>
			<circle cx="46.5" cy="49.8" r="1.5"/>
		</g>
	</g>
</g>
</svg>