<?xml version="1.0" encoding="utf-8"?>
<!-- Generator: Adobe Illustrator 23.1.1, SVG Export Plug-In . SVG Version: 6.00 Build 0)  -->
<svg version="1.1" id="Layer_1" xmlns="http://www.w3.org/2000/svg" xmlns:xlink="http://www.w3.org/1999/xlink" x="0px" y="0px"
	 viewBox="0 0 40 42" enable-background="new 0 0 40 42" xml:space="preserve">
<title>Integrations Table Icon</title>
<g id="Bounding_boxes">
</g>
<g id="Art">
	<g>
		<g>
			<path fill="#66BDFF" d="M30.6,38H13.4C11,38,9,36,9,33.6V14.7c0-2.4,2-4.4,4.4-4.4h17.2c2.4,0,4.4,2,4.4,4.4v18.9
				C35,36,33,38,30.6,38z"/>
		</g>
	</g>
	<g>
		<path d="M11,5c-3.3,0-6,2.7-6,6v24h30V5H11z M11,7h22v7H7v-3C7,8.8,8.8,7,11,7z M7,33V16h26v4h-8v2h8v4h-8v2h8v5H7z"/>
		<rect x="12" y="20" width="9" height="2"/>
		<rect x="12" y="26" width="9" height="2"/>
	</g>
</g>
</svg>
