<?xml version="1.0" encoding="utf-8"?>
<!-- Generator: Adobe Illustrator 23.1.1, SVG Export Plug-In . SVG Version: 6.00 Build 0)  -->
<svg version="1.1" id="Layer_1" xmlns="http://www.w3.org/2000/svg" xmlns:xlink="http://www.w3.org/1999/xlink" x="0px" y="0px"
	 viewBox="0 0 60 60" enable-background="new 0 0 60 60" xml:space="preserve">
<g id="Bounding_boxes">
</g>
<g id="Art">
	<g>
		<g>
			<path fill="#66BDFF" d="M23.6,55.8h-6.2c-2.4,0-4.4-2-4.4-4.4v-6.2c0-2.4,2-4.4,4.4-4.4h6.2c2.4,0,4.4,2,4.4,4.4v6.2
				C28,53.9,26,55.8,23.6,55.8z"/>
		</g>
	</g>
	<g>
		<g>
			<rect x="40" y="15.2" width="12" height="2"/>
		</g>
	</g>
	<g>
		<g>
			<circle cx="35.5" cy="16.3" r="1.5"/>
		</g>
	</g>
	<g>
		<g>
			<rect x="34" y="21.8" width="14" height="2"/>
		</g>
	</g>
	<g>
		<g>
			<rect x="34" y="42.2" width="18" height="2"/>
		</g>
	</g>
	<g>
		<polygon points="14,41.4 12.6,42.8 18,48.2 28.4,37.8 27,36.4 18,45.4 		"/>
		<polygon points="26,45.8 24,45.8 24,50.8 11,50.8 11,37.8 22,37.8 22,35.8 9,35.8 9,52.8 26,52.8 		"/>
		<polygon points="24,25.8 11,25.8 11,12.8 26,12.8 26,10.8 9,10.8 9,27.8 26,27.8 26,11.8 24,11.8 		"/>
	</g>
	<g>
		<g>
			<rect x="34" y="48.8" width="8" height="2"/>
		</g>
	</g>
	<g>
		<g>
			<circle cx="46.5" cy="49.8" r="1.5"/>
		</g>
	</g>
</g>
</svg>
