<svg width="16px" height="16px" viewBox="0 0 16 16" version="1.1" xmlns="http://www.w3.org/2000/svg" xmlns:xlink="http://www.w3.org/1999/xlink"><title>icon/download</title><desc>Created with Sketch.</desc><defs><path d="M2.821,5.1115 L3.788,6.0785 C3.905,6.1955 4.095,6.1955 4.213,6.0785 L7,3.2915 L7,11.5905 C7,11.7575 7.134,11.8915 7.3,11.8915 L8.7,11.8915 C8.866,11.8915 9,11.7575 9,11.5905 L9,3.2915 L11.788,6.0785 C11.905,6.1955 12.095,6.1955 12.213,6.0785 L13.18,5.1115 C13.3,4.9915 13.297,4.7955 13.172,4.6795 L8.204,0.0795 C8.089,-0.0265 7.912,-0.0265 7.797,0.0795 L2.829,4.6795 C2.704,4.7955 2.7,4.9915 2.821,5.1115 M16,11.1915 L16,15.5905 C16,15.7575 15.866,15.8915 15.7,15.8915 L0.3,15.8915 C0.134,15.8915 0,15.7575 0,15.5905 L0,11.1915 C0,11.0255 0.134,10.8915 0.3,10.8915 L1.7,10.8915 C1.866,10.8915 2,11.0255 2,11.1915 L2,13.8915 L14,13.8915 L14,11.1915 C14,11.0255 14.134,10.8915 14.3,10.8915 L15.7,10.8915 C15.866,10.8915 16,11.0255 16,11.1915" id="path-1"></path></defs><g id="Style" stroke="none" stroke-width="1" fill="none" fill-rule="evenodd"><g id="Icons" transform="translate(-512.000000, -554.000000)"><g id="icon/download" transform="translate(512.000000, 554.000000)"><mask id="mask-2" fill="white"><use xlink:href="#path-1"></use></mask><use id="Mask" fill="#020202" fill-rule="nonzero" xlink:href="#path-1"></use></g></g></g></svg>