<svg xmlns="http://www.w3.org/2000/svg" viewBox="0 0 60 60"><defs><style>.cls-1{fill:#ffd201;}</style></defs><title>icon-user-profile</title><g id="Art"><rect class="cls-1" x="11" y="27" width="42" height="29" rx="4.4" ry="4.4"/><circle cx="38.05" cy="35.29" r="1.5" transform="translate(-9.52 56.04) rotate(-66.42)"/><circle cx="44.5" cy="35.29" r="1.5" transform="translate(-5.64 61.96) rotate(-66.42)"/><circle cx="31.59" cy="35.29" r="1.5" transform="translate(-13.39 50.13) rotate(-66.42)"/><rect x="11" y="16" width="38" height="2"/><path d="M7,22V53H53V22ZM51,51H9V24H51Z"/><path d="M21.54,43.7a7.38,7.38,0,0,1,6.36,3.67l1.73-1a9.35,9.35,0,0,0-16.27.15l1.75,1A7.36,7.36,0,0,1,21.54,43.7Z"/><path d="M21.5,40A5.5,5.5,0,1,0,16,34.5,5.51,5.51,0,0,0,21.5,40Zm0-9A3.5,3.5,0,1,1,18,34.5,3.5,3.5,0,0,1,21.5,31Z"/></g></svg>