<?xml version="1.0" encoding="utf-8"?>
<!-- Generator: Adobe Illustrator 23.1.1, SVG Export Plug-In . SVG Version: 6.00 Build 0)  -->
<svg version="1.1" id="Layer_1" xmlns="http://www.w3.org/2000/svg" xmlns:xlink="http://www.w3.org/1999/xlink" x="0px" y="0px"
	 viewBox="0 0 60 60" enable-background="new 0 0 60 60" xml:space="preserve">
<title>icon-user-profile</title>
<g id="Art">
	<path fill="#66BDFF" d="M15.4,27h33.2c2.4,0,4.4,2,4.4,4.4v20.2c0,2.4-2,4.4-4.4,4.4H15.4C13,56,11,54,11,51.6V31.4
		C11,29,13,27,15.4,27z"/>
	<circle cx="38" cy="35.3" r="1.5"/>
	<circle cx="44.5" cy="35.3" r="1.5"/>
	<circle cx="31.6" cy="35.3" r="1.5"/>
	<rect x="11" y="16" width="38" height="2"/>
	<path d="M7,22v31h46V22H7z M51,51H9V24h42V51z"/>
	<path d="M21.5,43.7c2.6,0,5,1.4,6.4,3.7l1.7-1c-2.6-4.5-8.3-6-12.8-3.4c-1.5,0.8-2.7,2.1-3.5,3.6l1.8,1
		C16.4,45.2,18.9,43.7,21.5,43.7z"/>
	<path d="M21.5,40c3,0,5.5-2.5,5.5-5.5S24.5,29,21.5,29S16,31.5,16,34.5C16,37.5,18.5,40,21.5,40z M21.5,31c1.9,0,3.5,1.6,3.5,3.5
		S23.4,38,21.5,38S18,36.4,18,34.5S19.6,31,21.5,31z"/>
</g>
</svg>
