<svg width="160" height="50" xmlns="http://www.w3.org/2000/svg" xmlns:svg="http://www.w3.org/2000/svg" xmlns:xlink="http://www.w3.org/1999/xlink">
 <metadata id="metadata2193">image/svg+xml</metadata>
 <defs>
  <linearGradient id="linearGradient2795">
   <stop stop-color="#b8b8b8" stop-opacity="0.49804" id="stop2797" offset="0"/>
   <stop stop-color="#7f7f7f" stop-opacity="0" id="stop2799" offset="1"/>
  </linearGradient>
  <linearGradient id="linearGradient4671">
   <stop stop-color="#ffd43b" id="stop4673" offset="0"/>
   <stop stop-color="#ffe873" id="stop4675" offset="1"/>
  </linearGradient>
  <linearGradient id="linearGradient4689">
   <stop stop-color="#5a9fd4" id="stop4691" offset="0"/>
   <stop stop-color="#306998" id="stop4693" offset="1"/>
  </linearGradient>
  <linearGradient xlink:href="#linearGradient4671" id="linearGradient1475" y2="0.44914" x2="0.23443" y1="0.82276" x1="0.5"/>
  <linearGradient xlink:href="#linearGradient4689" id="linearGradient1478" y2="0.6411" x2="0.74521" y1="0" x1="0"/>
  <radialGradient gradientTransform="matrix(2.382716e-8,-0.296405,1.43676,4.683673e-7,-128.544,150.5202)" gradientUnits="userSpaceOnUse" xlink:href="#linearGradient2795" id="radialGradient1480" fy="132.28575" fx="61.51888" r="29.03691" cy="132.28575" cx="61.51888"/>
 </defs>
 <g>
  <title>Layer 1</title>
  <g stroke="null" id="g2303">
   <path stroke="null" fill="#646464" d="m60.49034,25.69313c0,-4.86658 -1.38766,-7.36503 -4.16298,-7.50184c-1.10427,-0.05212 -2.18247,0.12378 -3.23136,0.53096c-0.83716,0.29968 -1.40069,0.59611 -1.69711,0.89579l0,11.61596c1.77529,1.11404 3.35189,1.63197 4.72652,1.55053c2.90888,-0.19219 4.36494,-2.55382 4.36494,-7.09141zm3.42355,0.20196c0,2.47238 -0.57982,4.52456 -1.74598,6.15652c-1.29971,1.84696 -3.10106,2.79812 -5.40406,2.85024c-1.73621,0.05538 -3.52453,-0.48862 -5.36497,-1.62871l0,10.5573l-2.97728,-1.06192l0,-23.43388c0.48861,-0.59936 1.11729,-1.11404 1.87953,-1.55053c1.77204,-1.0326 3.92519,-1.56356 6.45946,-1.58962l0.04235,0.04235c2.31603,-0.02932 4.10109,0.92185 5.3552,2.85024c1.16941,1.76878 1.75575,4.03595 1.75575,6.80801z" id="path46"/>
   <path stroke="null" fill="#646464" d="m82.10984,32.82362c0,3.31605 -0.33226,5.61254 -0.99677,6.88944c-0.66777,1.27691 -1.93817,2.29648 -3.81444,3.05546c-1.52121,0.59936 -3.16621,0.92511 -4.93173,0.98048l-0.49187,-1.87627c1.79484,-0.24431 3.05872,-0.48862 3.79164,-0.73292c1.44304,-0.48861 2.43329,-1.23782 2.97728,-2.24111c0.43649,-0.81761 0.65148,-2.37791 0.65148,-4.68743l0,-0.77526c-2.03589,0.92511 -4.1695,1.3844 -6.40083,1.3844c-1.46584,0 -2.75904,-0.4593 -3.87307,-1.3844c-1.25085,-1.00655 -1.87628,-2.28345 -1.87628,-3.83073l0,-12.39123l2.97728,-1.01957l0,12.47266c0,1.33228 0.42998,2.35837 1.28994,3.07827c0.85996,0.71989 1.974,1.06517 3.33886,1.03912c1.36486,-0.02932 2.82744,-0.55702 4.38123,-1.58962l0,-14.55089l2.97728,0l0,16.1796z" id="path48"/>
   <path stroke="null" fill="#646464" d="m93.73231,34.73898c-0.35506,0.02932 -0.6808,0.04235 -0.98048,0.04235c-1.68409,0 -2.99683,-0.40066 -3.93497,-1.20524c-0.93488,-0.80458 -1.40395,-1.91536 -1.40395,-3.33234l0,-11.72671l-2.03915,0l0,-1.87301l2.03915,0l0,-4.97408l2.97402,-1.05866l0,6.03274l3.34537,0l0,1.87301l-3.34537,0l0,11.64528c0,1.11729 0.29968,1.90885 0.89905,2.3714c0.51467,0.38112 1.33228,0.59937 2.44632,0.65474l0,1.55053z" id="path50"/>
   <path stroke="null" fill="#646464" d="m111.75887,34.49467l-2.97728,0l0,-11.49218c0,-1.16942 -0.27362,-2.17596 -0.81761,-3.01637c-0.62868,-0.95117 -1.50167,-1.42675 -2.62222,-1.42675c-1.36486,0 -3.07175,0.71989 -5.12066,2.15967l0,13.77563l-2.97729,0l0,-27.46982l2.97729,-0.93814l0,12.51175c1.90233,-1.3844 3.98056,-2.07823 6.23795,-2.07823c1.57659,0 2.8535,0.53096 3.83073,1.58962c0.98049,1.05866 1.4691,2.37791 1.4691,3.95451l0,12.43032l0,0z" id="path52"/>
   <path stroke="null" fill="#646464" d="m127.58342,25.22406c0,-1.86976 -0.35505,-3.41378 -1.06192,-4.63531c-0.84041,-1.48864 -2.14664,-2.27368 -3.91216,-2.35512c-3.26393,0.18893 -4.89264,2.52776 -4.89264,7.00997c0,2.05543 0.33877,3.77209 1.02282,5.14998c0.87299,1.75575 2.18247,2.62222 3.92845,2.59291c3.27696,-0.02606 4.91544,-2.61245 4.91544,-7.76243zm3.26068,0.01954c0,2.66131 -0.6808,4.87636 -2.03915,6.64514c-1.49515,1.98051 -3.56036,2.97402 -6.19561,2.97402c-2.61245,0 -4.64834,-0.99351 -6.11743,-2.97402c-1.33228,-1.76878 -1.9968,-3.98382 -1.9968,-6.64514c0,-2.5017 0.71989,-4.60599 2.15967,-6.31939c1.52122,-1.81764 3.52127,-2.72972 5.99365,-2.72972c2.47238,0 4.48547,0.91208 6.036,2.72972c1.43978,1.7134 2.15967,3.8177 2.15967,6.31939z" id="path54"/>
   <path stroke="null" fill="#646464" d="m147.91298,34.49467l-2.97728,0l0,-12.14366c0,-1.33228 -0.40066,-2.3714 -1.20199,-3.12061c-0.80133,-0.74595 -1.86976,-1.10752 -3.20204,-1.0782c-1.41372,0.02606 -2.75904,0.48861 -4.03594,1.3844l0,14.95807l-2.97728,0l0,-15.32616c1.7134,-1.24759 3.28999,-2.06195 4.72977,-2.44307c1.35835,-0.35506 2.55708,-0.53096 3.58968,-0.53096c0.70686,0 1.37137,0.06841 1.9968,0.20522c1.16942,0.27037 2.12058,0.77201 2.8535,1.50819c0.81761,0.81435 1.22479,1.79158 1.22479,2.93493l0,13.65185z" id="path56"/>
   <path stroke="null" fill="url(#linearGradient1478)" d="m19.01576,7.13486c-1.53183,0.00712 -2.99469,0.13776 -4.28186,0.36552c-3.79184,0.6699 -4.48029,2.07204 -4.48029,4.65783l0,3.41505l8.96058,0l0,1.13835l-8.96058,0l-3.36283,0c-2.60419,0 -4.8845,1.56527 -5.59775,4.54295c-0.82273,3.41311 -0.85922,5.54295 0,9.10679c0.63695,2.65278 2.15807,4.54295 4.76227,4.54295l3.08085,0l0,-4.09388c0,-2.95758 2.55897,-5.56642 5.59775,-5.56642l8.95014,0c2.4914,0 4.48029,-2.05134 4.48029,-4.55339l0,-8.53239c0,-2.42837 -2.0486,-4.25254 -4.48029,-4.65783c-1.53929,-0.25623 -3.13645,-0.37264 -4.66827,-0.36552zm-4.84581,2.74666c0.92556,0 1.68141,0.7682 1.68141,1.71274c0,0.9412 -0.75585,1.7023 -1.68141,1.7023c-0.92889,0 -1.68141,-0.7611 -1.68141,-1.7023c0,-0.94455 0.75253,-1.71274 1.68141,-1.71274z" id="path1948"/>
   <path stroke="null" fill="url(#linearGradient1475)" d="m29.28178,16.71161l0,3.979c0,3.08487 -2.61537,5.6813 -5.59775,5.6813l-8.95014,0c-2.45159,0 -4.48029,2.09823 -4.48029,4.55339l0,8.53239c0,2.42837 2.11163,3.85671 4.48029,4.55339c2.83642,0.83402 5.55639,0.98475 8.95014,0c2.25586,-0.65315 4.48029,-1.9676 4.48029,-4.55339l0,-3.41505l-8.95014,0l0,-1.13835l8.95014,0l4.48029,0c2.60419,0 3.57462,-1.81648 4.48029,-4.54295c0.93552,-2.80686 0.89571,-5.50611 0,-9.10679c-0.64358,-2.59249 -1.87278,-4.54295 -4.48029,-4.54295l-3.36283,0zm-5.0338,21.60774c0.92888,0 1.68141,0.7611 1.68141,1.7023c0,0.94455 -0.75253,1.71274 -1.68141,1.71274c-0.92557,0 -1.68141,-0.7682 -1.68141,-1.71274c0,-0.9412 0.75584,-1.7023 1.68141,-1.7023z" id="path1950"/>
   <path fill="#646464" stroke-width="1px" d="m153.71077,13.98965l0.52199,0l0,-3.27385l1.23656,0l0,-0.39023l-2.99512,0l0,0.39023l1.23656,0l0,3.27385m2.22139,0l0.44597,0l0,-2.99004l0.96796,2.98967l0.49651,0l1.00865,-2.97953l0,2.97991l0.48652,0l0,-3.66407l-0.64362,0l-1.10228,3.13904l-0.94008,-3.13904l-0.71964,0l0,3.66407" id="text3004"/>
   <path opacity="0.44382" fill="url(#radialGradient1480)" fill-rule="nonzero" stroke-width="20" stroke-miterlimit="4" d="m31.32378,49.81141a12.00792,2.32844 0 1 1 -24.01584,0a12.00792,2.32844 0 1 1 24.01584,0z" id="path1894"/>
  </g>
 </g>
</svg>