<svg width="160" height="50" xmlns="http://www.w3.org/2000/svg" xmlns:svg="http://www.w3.org/2000/svg">
 <title>indicative</title>
 <g>
  <title>Layer 1</title>
  <g stroke="null" id="svg_1">
   <path stroke="null" id="svg_2" d="m19.259772,31.786619c0,-1.781487 0.848327,-2.544982 2.120818,-2.544982c1.272491,0 2.120818,0.848327 2.120818,2.544982l0,14.845726c0,1.781487 -0.848327,2.544982 -2.120818,2.544982c-1.272491,0 -2.120818,-0.848327 -2.120818,-2.544982l0,-14.845726l0,0z" fill="#464245"/>
   <path stroke="null" id="svg_3" d="m27.573379,31.786619c0,-1.781487 0.848327,-2.544982 2.120818,-2.544982c1.272491,0 2.120818,0.848327 2.120818,2.460149l0.084833,0c0.678662,-1.696654 2.375316,-2.460149 3.987138,-2.460149c2.375316,0 4.156803,1.442156 4.156803,4.750632l0,12.724908c0,1.781487 -0.848327,2.544982 -2.120818,2.544982c-1.272491,0 -2.120818,-0.848327 -2.120818,-2.544982l0,-11.706916c0,-1.442156 -0.763494,-2.035985 -1.696654,-2.035985c-1.357324,0 -2.290483,1.017993 -2.290483,3.393309l0,10.264759c0,1.781487 -0.848327,2.544982 -2.120818,2.544982c-1.272491,0 -2.120818,-0.848327 -2.120818,-2.544982l0,-14.845726l0,0z" fill="#464245"/>
   <path stroke="null" id="svg_4" d="m48.018065,40.694055c0,3.138811 0.169665,5.005131 1.781487,5.005131c1.696654,0 2.120818,-1.951153 2.120818,-4.6658l0,-3.562974c0,-3.817472 -1.102825,-4.6658 -2.120818,-4.6658c-1.442156,0 -1.86632,1.187658 -1.86632,5.344461l0,2.544982l0.084833,0zm-4.580967,-3.987138c0,-3.902305 0.678662,-7.46528 4.580967,-7.46528c1.611822,0 3.053978,0.763494 3.817472,2.205651l0.084833,0l0,-5.938291c0,-1.781487 0.848327,-2.544982 2.120818,-2.544982c1.272491,0 2.120818,0.848327 2.120818,2.544982l0,21.20818c0,1.781487 -0.848327,2.544982 -2.120818,2.544982c-1.272491,0 -2.120818,-0.93316 -2.120818,-2.205651l-0.084833,0c-0.763494,1.526989 -2.205651,2.205651 -3.817472,2.205651c-3.902305,0 -4.580967,-3.562974 -4.580967,-7.46528l0,-5.089963l0,0z" fill="#464245"/>
   <path stroke="null" id="svg_5" d="m60.403642,31.786619c0,-1.781487 0.848327,-2.544982 2.120818,-2.544982c1.272491,0 2.120818,0.848327 2.120818,2.544982l0,14.845726c0,1.781487 -0.848327,2.544982 -2.120818,2.544982c-1.272491,0 -2.120818,-0.848327 -2.120818,-2.544982l0,-14.845726l0,0z" fill="#464245"/>
   <path stroke="null" id="svg_6" d="m68.293085,37.470411c0,-4.580967 0.593829,-8.228774 6.277621,-8.228774c4.920298,0 5.938291,3.478142 5.938291,5.259629c0,1.696654 -0.93316,2.460149 -2.120818,2.460149c-1.442156,0 -2.205651,-0.678662 -2.205651,-2.460149c0,-1.187658 -0.678662,-1.86632 -1.611822,-1.86632c-1.696654,0 -1.86632,1.951153 -1.86632,4.496134l0,4.241636c0,3.138811 0.424164,4.496134 1.86632,4.496134c0.848327,0 1.611822,-0.424164 1.611822,-1.951153c0.084833,-2.460149 0.848327,-3.138811 2.205651,-3.138811c1.272491,0 2.120818,0.93316 2.120818,2.544982c0,1.86632 -0.848327,5.938291 -5.938291,5.938291c-5.768625,0 -6.277621,-3.647807 -6.277621,-8.228774l0,-3.562974l0,0z" fill="#464245"/>
   <path stroke="null" id="svg_7" d="m91.452418,38.912567l-1.526989,1.017993c-1.86632,1.357324 -2.290483,2.035985 -2.290483,3.647807c0,1.442156 0.593829,2.290483 1.526989,2.290483c1.442156,0 2.290483,-1.526989 2.290483,-3.562974l0,-3.393309l0,0zm4.326469,5.768625c0,1.272491 0.254498,2.290483 0.254498,2.884313c0,1.102825 -0.763494,1.696654 -2.120818,1.696654c-1.187658,0 -2.290483,-0.593829 -2.290483,-2.460149l-0.084833,0c-0.763494,1.696654 -2.375316,2.375316 -3.902305,2.375316c-2.544982,0 -4.411302,-1.526989 -4.411302,-5.089963c0,-2.884313 0.848327,-4.580967 3.053978,-5.768625l3.817472,-2.035985c0.93316,-0.508996 1.357324,-1.187658 1.357324,-2.035985c0,-1.017993 -0.593829,-1.86632 -1.696654,-1.86632c-1.442156,0 -1.951153,0.763494 -2.120818,2.290483c-0.084833,0.848327 -0.93316,1.357324 -2.035985,1.357324c-0.93316,0 -2.290483,-0.424164 -2.290483,-1.781487c0,-3.308476 2.714647,-5.089963 6.023123,-5.089963c5.768625,0 6.362454,2.544982 6.362454,5.683792l0,9.840596l0.084833,0z" fill="#464245"/>
   <path stroke="null" id="svg_8" d="m99.850858,32.889444l-0.424164,0c-1.272491,0 -1.86632,-0.424164 -1.86632,-1.611822c0,-1.187658 0.593829,-1.611822 1.86632,-1.611822l0.424164,0l0,-3.308476c0,-1.781487 0.848327,-2.544982 2.120818,-2.544982c1.272491,0 2.120818,0.848327 2.120818,2.544982l0,3.308476l1.017993,0c1.272491,0 1.86632,0.424164 1.86632,1.611822c0,1.187658 -0.593829,1.611822 -1.86632,1.611822l-1.017993,0l0,11.197919c0,0.848327 0.169665,1.272491 1.187658,1.357324c1.017993,0 1.611822,0.424164 1.611822,1.526989c0,1.442156 -0.848327,2.035985 -2.714647,2.035985c-3.308476,0 -4.326469,-1.696654 -4.326469,-3.562974l0,-12.555243l0,0z" fill="#464245"/>
   <path stroke="null" id="svg_9" d="m108.758293,31.786619c0,-1.781487 0.848327,-2.544982 2.120818,-2.544982c1.272491,0 2.120818,0.848327 2.120818,2.544982l0,14.845726c0,1.781487 -0.848327,2.544982 -2.120818,2.544982c-1.272491,0 -2.120818,-0.848327 -2.120818,-2.544982l0,-14.845726l0,0z" fill="#464245"/>
   <path stroke="null" id="svg_10" d="m116.053908,32.210782c-0.084833,-0.424164 -0.169665,-0.678662 -0.169665,-1.017993c0,-1.272491 1.017993,-1.951153 2.205651,-1.951153c1.442156,0 2.120818,0.593829 2.460149,2.290483l2.290483,12.555243l0.084833,0l2.120818,-12.555243c0.254498,-1.442156 0.763494,-2.290483 2.290483,-2.290483c1.526989,0 2.120818,0.93316 2.120818,1.86632c0,0.508996 -0.084833,0.93316 -0.169665,1.442156l-3.562974,14.760894c-0.339331,1.272491 -0.93316,1.951153 -3.053978,1.951153c-2.290483,0 -2.79948,-0.848327 -3.223643,-2.714647l-3.393309,-14.33673l0,0z" fill="#464245"/>
   <path stroke="null" id="svg_11" d="m139.382906,36.791749l0,-1.611822c0,-1.442156 -0.424164,-2.544982 -1.86632,-2.544982c-1.442156,0 -1.86632,1.102825 -1.86632,2.544982l0,1.611822l3.73264,0l0,0zm-8.228774,0.424164c0,-4.835465 0.678662,-7.974276 6.53212,-7.974276c4.496134,0 6.023123,2.544982 6.023123,7.550112c0,1.696654 -0.254498,3.053978 -2.375316,3.053978l-5.683792,0l0,1.951153c0,2.290483 0.169665,4.071971 1.951153,4.071971c0.93316,0 1.611822,-0.93316 1.696654,-1.951153c0.084833,-1.86632 0.93316,-2.290483 2.120818,-2.290483c1.272491,0 2.205651,0.424164 2.205651,2.120818c0,3.478142 -2.375316,5.514127 -5.853458,5.514127c-5.853458,0 -6.53212,-3.138811 -6.53212,-7.974276l0,-4.071971l-0.084833,0z" fill="#464245"/>
   <path stroke="null" id="svg_12" d="m62.609293,21.776358c-1.017993,0 -1.86632,-0.848327 -1.86632,-1.86632c0,-1.017993 0.848327,-1.86632 1.86632,-1.86632s1.86632,0.848327 1.86632,1.86632c0,1.017993 -0.848327,1.86632 -1.86632,1.86632l0,0zm0,-7.041116c-2.79948,0 -5.089963,2.290483 -5.089963,5.089963c0,2.79948 2.290483,5.089963 5.089963,5.089963c2.79948,0 5.089963,-2.290483 5.089963,-5.089963c0,-2.79948 -2.290483,-5.089963 -5.089963,-5.089963l0,0z" fill="#464245"/>
   <path stroke="null" id="svg_13" d="m110.879112,7.778959c-1.017993,0 -1.86632,-0.848327 -1.86632,-1.86632c0,-1.017993 0.848327,-1.86632 1.86632,-1.86632c1.017993,0 1.86632,0.848327 1.86632,1.86632c0,1.017993 -0.848327,1.86632 -1.86632,1.86632l0,0zm0,-7.041116c-2.79948,0 -5.089963,2.290483 -5.089963,5.089963c0,2.79948 2.290483,5.089963 5.089963,5.089963c2.79948,0 5.089963,-2.290483 5.089963,-5.089963c0,-2.79948 -2.290483,-5.089963 -5.089963,-5.089963l0,0z" fill="#464245"/>
   <path stroke="null" id="svg_14" d="m21.38059,17.025725c-1.017993,0 -1.86632,-0.848327 -1.86632,-1.86632c0,-1.017993 0.848327,-1.86632 1.86632,-1.86632c1.017993,0 1.86632,0.848327 1.86632,1.86632c0.084833,1.017993 -0.763494,1.86632 -1.86632,1.86632l0,0zm0,-7.041116c-2.79948,0 -5.089963,2.290483 -5.089963,5.089963c0,2.79948 2.290483,5.089963 5.089963,5.089963c2.79948,0 5.089963,-2.290483 5.089963,-5.089963c0.084833,-2.79948 -2.205651,-5.089963 -5.089963,-5.089963l0,0z" fill="#464245"/>
   <path stroke="null" id="svg_15" d="m28.930702,14.904907c-0.593829,-0.084833 -1.187658,0.508996 -1.272491,1.272491c-0.084833,0.763494 0.424164,1.442156 1.017993,1.442156l26.043646,2.884313c0.593829,-0.084833 1.017993,-0.593829 1.102825,-1.272491c0.084833,-0.678662 -0.339331,-1.272491 -0.848327,-1.442156l0,0l0,0c0,0.084833 -25.958813,-2.884313 -26.043646,-2.884313l0,0z" fill="#22B6B4"/>
   <path stroke="null" id="svg_16" d="m69.904907,16.686394c-0.593829,0.169665 -0.93316,0.93316 -0.763494,1.696654c0.169665,0.763494 0.848327,1.272491 1.442156,1.102825l33.593758,-9.755763c0.508996,-0.254498 0.763494,-0.93316 0.593829,-1.611822c-0.169665,-0.678662 -0.763494,-1.187658 -1.272491,-1.102825l0,0c0,0 -33.593758,9.586098 -33.593758,9.67093l0,0z" fill="#22B6B4"/>
  </g>
 </g>
</svg>