<?xml version="1.0" encoding="utf-8"?>
<!-- Generator: Adobe Illustrator 19.2.1, SVG Export Plug-In . SVG Version: 6.00 Build 0)  -->
<!DOCTYPE svg PUBLIC "-//W3C//DTD SVG 1.1//EN" "http://www.w3.org/Graphics/SVG/1.1/DTD/svg11.dtd">
<svg version="1.1" id="Layer_1" xmlns="http://www.w3.org/2000/svg" xmlns:xlink="http://www.w3.org/1999/xlink" x="0px" y="0px"
	 viewBox="0 0 221.5 91" enable-background="new 0 0 221.5 91" xml:space="preserve">
<g>
	<g>
		<path fill="#005FC5" d="M40.3,44l-6.9-11.9c-0.3-0.6-1.2-1.1-1.9-1.1H17.8c-0.7,0-1.5,0.5-1.9,1.1L9.1,44c-0.3,0.6-0.3,1.6,0,2.2
			L16,58c0.3,0.6,1.2,1.1,1.9,1.1l13.8,0c0.7,0,1.5-0.5,1.9-1.1l6.9-11.9C40.7,45.5,40.7,44.6,40.3,44z"/>
		<path fill="#004EB3" d="M24.8,39.1c-3.2,0-5.8,2.6-5.8,5.8c0,1.4,0.5,2.7,1.3,3.7l0,0l0,0c0.2,0.2,7.6,7.7,10.3,10.5l0.9,0
			c0.7,0,1.5-0.5,1.9-1.1l4.5-7.9l-8.3-8.6C28.2,40.1,26.8,39.1,24.8,39.1z"/>
		<path fill="#FFFFFF" d="M24.8,50.7c-3.2,0-5.8-2.6-5.8-5.8s2.6-5.8,5.8-5.8s5.8,2.6,5.8,5.8S28,50.7,24.8,50.7z M24.8,40.5
			c-2.4,0-4.4,2-4.4,4.4c0,2.4,2,4.4,4.4,4.4s4.4-2,4.4-4.4C29.2,42.5,27.2,40.5,24.8,40.5z"/>
		<g>
			<path fill="#FFFFFF" d="M31.6,51l-2.3-2.4c0.8-1,1.3-2.2,1.3-3.6c0-3.2-2.6-5.8-5.8-5.8S19,41.7,19,44.9s2.6,5.8,5.8,5.8
				c1.3,0,2.6-0.5,3.6-1.2l2.2,2.4L31.6,51z M24.8,49.3c-2.4,0-4.4-2-4.4-4.4c0-2.4,2-4.4,4.4-4.4s4.4,2,4.4,4.4
				C29.2,47.4,27.2,49.3,24.8,49.3z"/>
			<rect x="24.2" y="43.4" fill="#FFFFFF" width="1" height="4.8"/>
			<polygon fill="#FFFFFF" points="22,46.8 23,47.7 23,44.8 22,44.8 			"/>
			<polygon fill="#FFFFFF" points="26.4,47.7 27.4,46.8 27.4,45.6 26.4,45.6 			"/>
		</g>
	</g>
	<g>
		<path fill="#767D82" d="M123.8,54.9V39.3h5.7c1.2,0,2.3,0.4,3.2,1.2c0.9,0.8,1.3,1.8,1.3,3.1c0,0.7-0.2,1.4-0.6,2
			c-0.4,0.6-0.9,1-1.5,1.3v0.1c0.8,0.3,1.4,0.7,1.9,1.4c0.5,0.6,0.7,1.4,0.7,2.2c0,1.3-0.5,2.3-1.4,3.2c-0.9,0.8-2.1,1.3-3.3,1.3
			H123.8z M125.8,46h3.7c0.8,0,1.4-0.3,1.8-0.8c0.5-0.5,0.7-1.1,0.7-1.7c0-0.6-0.2-1.1-0.7-1.6c-0.4-0.5-1-0.7-1.8-0.7h-3.7V46z
			 M125.8,53h4c0.8,0,1.4-0.3,1.9-0.8c0.5-0.5,0.7-1.1,0.7-1.8c0-0.6-0.2-1.2-0.7-1.8c-0.5-0.5-1.1-0.8-1.9-0.8h-4V53z"/>
		<path fill="#767D82" d="M138.6,41.5c-0.3,0.3-0.6,0.4-1,0.4c-0.4,0-0.7-0.1-1-0.4c-0.3-0.3-0.4-0.6-0.4-1c0-0.4,0.1-0.7,0.4-1
			c0.3-0.3,0.6-0.4,1-0.4c0.4,0,0.7,0.1,1,0.4c0.3,0.3,0.4,0.6,0.4,1C139,40.9,138.9,41.3,138.6,41.5z M138.6,54.9h-2V44.2h2V54.9z"
			/>
		<path fill="#767D82" d="M145.8,60c-1.3,0-2.3-0.3-3.1-1c-0.8-0.6-1.4-1.4-1.7-2.2l1.8-0.8c0.2,0.6,0.6,1.1,1.1,1.5
			c0.5,0.4,1.2,0.6,1.9,0.6c1.1,0,2-0.3,2.6-1c0.6-0.7,1-1.6,1-2.7v-1h-0.1c-0.4,0.5-0.8,1-1.5,1.3c-0.6,0.3-1.4,0.5-2.2,0.5
			c-1.4,0-2.6-0.5-3.6-1.6c-1-1.1-1.5-2.5-1.5-4.1c0-1.6,0.5-3,1.5-4.1c1-1.1,2.2-1.6,3.6-1.6c0.8,0,1.5,0.2,2.2,0.5
			c0.6,0.3,1.1,0.8,1.5,1.3h0.1v-1.5h1.9v10.2c0,1.8-0.5,3.2-1.6,4.2C148.6,59.5,147.3,60,145.8,60z M145.9,53.5
			c0.9,0,1.8-0.4,2.4-1.1s1-1.6,1-2.8c0-1.2-0.3-2.1-1-2.8c-0.7-0.7-1.5-1.1-2.4-1.1c-0.9,0-1.7,0.4-2.4,1.1c-0.7,0.7-1,1.6-1,2.8
			c0,1.2,0.3,2.1,1,2.8C144.2,53.1,145,53.5,145.9,53.5z"/>
		<path fill="#767D82" d="M166.2,56l-1.1-1.6c-1.2,0.6-2.4,0.9-3.8,0.9c-2.3,0-4.2-0.8-5.7-2.4c-1.5-1.6-2.3-3.5-2.3-5.8
			c0-2.3,0.8-4.2,2.3-5.8c1.5-1.6,3.5-2.4,5.7-2.4c2.3,0,4.2,0.8,5.7,2.4c1.5,1.6,2.3,3.5,2.3,5.8c0,2.5-0.9,4.6-2.7,6.2l1.1,1.6
			L166.2,56z M161.4,53.4c0.9,0,1.8-0.2,2.6-0.6l-1.8-2.8l1.6-1.1l1.8,2.7c1.2-1.2,1.8-2.7,1.8-4.6c0-1.8-0.6-3.3-1.7-4.5
			c-1.2-1.2-2.6-1.8-4.3-1.8c-1.7,0-3.1,0.6-4.3,1.8c-1.2,1.2-1.7,2.7-1.7,4.5c0,1.8,0.6,3.3,1.7,4.5
			C158.3,52.8,159.7,53.4,161.4,53.4z"/>
		<path fill="#767D82" d="M180.9,54.9h-1.9v-1.5h-0.1c-0.3,0.5-0.8,0.9-1.4,1.3c-0.6,0.4-1.3,0.5-2,0.5c-1.3,0-2.4-0.4-3.1-1.2
			c-0.7-0.8-1-1.9-1-3.3v-6.6h2v6.2c0,2,0.9,3,2.6,3c0.8,0,1.5-0.3,2-1c0.5-0.7,0.8-1.4,0.8-2.3v-5.9h2V54.9z"/>
		<path fill="#767D82" d="M188.1,55.3c-1.6,0-2.9-0.5-4-1.6c-1-1.1-1.5-2.4-1.5-4.1c0-1.6,0.5-2.9,1.5-4c1-1.1,2.2-1.7,3.8-1.7
			c1.6,0,2.9,0.5,3.8,1.6c1,1,1.4,2.4,1.4,4.2l0,0.4h-8.5c0.1,1.1,0.4,1.9,1.1,2.6c0.7,0.6,1.4,0.9,2.3,0.9c1.4,0,2.4-0.6,2.9-1.8
			l1.8,0.7c-0.4,0.8-0.9,1.5-1.7,2.1C190.2,55,189.2,55.3,188.1,55.3z M190.9,48.3c0-0.6-0.3-1.2-0.8-1.8c-0.5-0.6-1.3-0.8-2.3-0.8
			c-0.7,0-1.4,0.2-1.9,0.7c-0.5,0.5-0.9,1.1-1.1,1.9H190.9z"/>
		<path fill="#767D82" d="M196.9,54.9h-2V44.2h1.9V46h0.1c0.2-0.6,0.6-1.1,1.3-1.4c0.6-0.4,1.3-0.6,1.8-0.6c0.6,0,1.1,0.1,1.5,0.3
			l-0.8,1.9c-0.3-0.1-0.6-0.2-1.1-0.2c-0.7,0-1.4,0.3-1.9,0.9c-0.6,0.6-0.8,1.3-0.8,2.3V54.9z"/>
		<path fill="#767D82" d="M206,59.7h-2.1l2.5-5.4l-4.4-10h2.2l3.2,7.7h0l3.1-7.7h2.2L206,59.7z"/>
	</g>
	<g>
		<path fill="#767D82" d="M56.9,54.8c-2.5,0-4.6-0.9-6.4-2.6c-1.8-1.8-2.7-3.9-2.7-6.3s0.9-4.6,2.7-6.3c1.8-1.8,3.9-2.6,6.4-2.6
			c2.4,0,4.4,0.8,6.1,2.5l-1.7,1.7c-1.2-1.2-2.7-1.7-4.4-1.7c-1.8,0-3.3,0.6-4.6,1.9c-1.2,1.3-1.9,2.8-1.9,4.6s0.6,3.3,1.9,4.6
			c1.2,1.3,2.8,1.9,4.6,1.9c1.8,0,3.3-0.6,4.5-1.8c0.7-0.7,1.2-1.7,1.3-3.1h-5.9v-2.4h8.2c0.1,0.4,0.1,0.9,0.1,1.5
			c0,2.4-0.7,4.3-2.1,5.7C61.5,54,59.4,54.8,56.9,54.8z M76,53.2c-1.1,1.1-2.5,1.6-4.1,1.6c-1.6,0-3-0.6-4.1-1.6
			c-1.1-1.1-1.7-2.5-1.7-4.1c0-1.6,0.6-3,1.7-4.1c1.1-1.1,2.5-1.6,4.1-1.6c1.6,0,3,0.6,4.1,1.6c1.1,1.1,1.7,2.5,1.7,4.1
			C77.7,50.7,77.1,52.1,76,53.2z M69.6,51.6c0.6,0.7,1.4,1,2.3,1c0.9,0,1.6-0.3,2.3-1c0.6-0.7,1-1.5,1-2.5c0-1-0.3-1.9-0.9-2.5
			c-0.6-0.7-1.4-1-2.3-1c-0.9,0-1.7,0.3-2.3,1s-0.9,1.5-0.9,2.5C68.7,50.1,69,50.9,69.6,51.6z M88.6,53.2c-1.1,1.1-2.5,1.6-4.1,1.6
			c-1.6,0-3-0.6-4.1-1.6c-1.1-1.1-1.7-2.5-1.7-4.1c0-1.6,0.6-3,1.7-4.1c1.1-1.1,2.5-1.6,4.1-1.6c1.6,0,3,0.6,4.1,1.6
			c1.1,1.1,1.7,2.5,1.7,4.1C90.3,50.7,89.8,52.1,88.6,53.2z M82.2,51.6c0.6,0.7,1.4,1,2.3,1c0.9,0,1.6-0.3,2.3-1
			c0.6-0.7,1-1.5,1-2.5c0-1-0.3-1.9-0.9-2.5c-0.6-0.7-1.4-1-2.3-1c-0.9,0-1.7,0.3-2.3,1s-0.9,1.5-0.9,2.5
			C81.3,50.1,81.6,50.9,82.2,51.6z M96.9,60c-1.3,0-2.4-0.3-3.2-1c-0.9-0.7-1.5-1.5-1.9-2.4l2.2-0.9c0.2,0.6,0.6,1,1.1,1.4
			c0.5,0.4,1.1,0.6,1.8,0.6c1,0,1.7-0.3,2.3-0.9c0.5-0.6,0.8-1.4,0.8-2.5v-0.8h-0.1c-0.7,0.9-1.7,1.3-3,1.3c-1.5,0-2.8-0.6-3.9-1.7
			s-1.7-2.5-1.7-4.1c0-1.6,0.6-3,1.7-4.1c1.1-1.1,2.4-1.7,3.9-1.7c0.7,0,1.2,0.1,1.8,0.4c0.5,0.3,0.9,0.6,1.3,0.9h0.1v-0.9h2.4V54
			c0,2-0.5,3.5-1.5,4.5C99.8,59.5,98.5,60,96.9,60z M97.1,52.6c0.9,0,1.6-0.3,2.2-1c0.6-0.7,0.9-1.5,0.9-2.5c0-1-0.3-1.8-0.9-2.5
			c-0.6-0.7-1.3-1-2.2-1c-0.9,0-1.6,0.3-2.3,1c-0.6,0.7-0.9,1.5-0.9,2.5c0,1,0.3,1.8,0.9,2.5C95.5,52.2,96.2,52.6,97.1,52.6z
			 M106.7,37.5v16.9h-2.5V37.5H106.7z M113.6,54.8c-1.6,0-3-0.6-4.1-1.7c-1.1-1.1-1.6-2.5-1.6-4.1c0-1.7,0.5-3.1,1.6-4.1
			c1.1-1.1,2.3-1.6,3.9-1.6c0.7,0,1.3,0.1,1.9,0.4c0.6,0.3,1.1,0.6,1.5,1c0.4,0.4,0.7,0.8,0.9,1.2c0.2,0.4,0.4,0.8,0.6,1.1l0.3,0.7
			l-7.7,3.2c0.6,1.2,1.5,1.7,2.8,1.7c1.2,0,2.1-0.5,2.8-1.6l2,1.3c-0.4,0.7-1.1,1.2-1.9,1.8C115.8,54.6,114.8,54.8,113.6,54.8z
			 M110.4,48.9l5.2-2.1c-0.1-0.4-0.4-0.7-0.8-0.9c-0.4-0.2-0.8-0.3-1.3-0.3c-0.7,0-1.4,0.3-2.1,0.9
			C110.7,47.1,110.4,47.9,110.4,48.9z"/>
	</g>
</g>
</svg>
