<?xml version="1.0"?>
<svg width="160" height="50" xmlns="http://www.w3.org/2000/svg" xmlns:svg="http://www.w3.org/2000/svg">
 <g>
  <title>Layer 1</title>
  <g id="svg_1" stroke="null">
   <path fill="#0ABEF5" d="m12.78033,25.99502c0.55721,-1.27363 -0.07961,-2.70646 -1.27364,-3.26368c-1.83084,-0.95522 -3.66169,-2.06965 -5.49253,-3.10448c-0.71642,-0.39801 -1.43284,-0.87562 -2.22886,-1.27363c-0.0796,-0.0796 -0.23881,-0.0796 -0.31841,-0.1592c-1.19403,-0.39801 -2.54726,0.1592 -2.94527,1.35323c-0.0796,0.07961 -0.0796,0.23881 -0.15921,0.31841l0,0.95523c0.31841,0.87562 0.95523,1.51243 1.75125,1.91044c1.27363,0.63682 2.46766,1.43284 3.66169,2.14926c0,0 0.0796,0.0796 0.0796,0.1592l-1.11443,0.63682c-0.95522,0.55721 -1.83084,1.11443 -2.78607,1.59204c-0.79602,0.39801 -1.43283,1.03482 -1.67164,1.91044l0,0.87563c0.71642,2.06965 2.54727,2.22885 3.9801,1.35323c2.30846,-1.43284 4.69652,-2.86567 7.08458,-4.0597c0.71642,-0.23881 1.19403,-0.71642 1.43284,-1.35324z" id="svg_2" stroke="null"/>
   <path fill="#0ABEF5" d="m5.77535,15.24875c2.54726,1.51244 5.09453,3.02488 7.72139,4.45772c1.75125,1.03482 3.6617,-0.15921 3.6617,-2.14926c0,-2.94527 0,-5.89054 0,-8.83582c0,-0.2388 0,-0.55721 -0.07961,-0.79602c-0.2388,-0.95522 -0.87562,-1.43283 -1.75124,-1.75124l-0.95522,0c-1.43284,0.47761 -1.91045,1.51243 -1.83085,2.94527c0,0.47761 0,0.95522 0,1.43284l0,3.10448c-0.23881,-0.07961 -0.39801,-0.15921 -0.55721,-0.23881c-1.27364,-0.71642 -2.46767,-1.43284 -3.7413,-2.14926c-0.39801,-0.2388 -0.79602,-0.39801 -1.27363,-0.39801c-1.03483,-0.0796 -2.06965,0.55722 -2.38806,1.59205c-0.31841,1.11442 0.1592,2.30845 1.19403,2.78607l0,-0.00001z" id="svg_3" stroke="null"/>
   <path fill="#0ABEF5" d="m15.40719,30.13433c-0.71642,-0.1592 -1.43283,-0.0796 -2.06965,0.31841c-2.46766,1.43283 -5.01493,2.86567 -7.48259,4.29851c-0.1592,0.0796 -0.39801,0.2388 -0.55721,0.3184c-0.71642,0.55722 -1.03483,1.43284 -0.79602,2.22886c0.0796,0.31841 0.1592,0.55721 0.31841,0.79602c0.71641,1.11443 2.06965,1.43284 3.18408,0.71642c1.27363,-0.71642 2.54726,-1.51244 3.90049,-2.22886l0.55722,-0.31841c0,1.59204 0.0796,3.02488 0,4.53732c-0.0796,1.43283 0.47761,2.46766 1.83084,2.94527l0.95523,0c1.03482,-0.39801 1.83084,-1.03483 1.83084,-2.22886c0,-3.10447 0,-6.20895 0,-9.31343c0,-0.95522 -0.63681,-1.83085 -1.67164,-2.06965z" id="svg_4" stroke="null"/>
   <path fill="#0ABEF5" d="m24.95943,19.62686c1.67164,-0.95522 3.42289,-1.99005 5.17413,-2.94527c0.79602,-0.47761 1.59204,-0.87562 2.38806,-1.43284c0.79602,-0.39801 1.35324,-1.27363 1.27363,-2.22885c0,-0.39801 -0.1592,-0.71642 -0.3184,-1.03483c-0.63682,-1.11443 -2.06966,-1.43283 -3.18408,-0.79602c-1.27364,0.71642 -2.54727,1.51244 -3.9005,2.22886c-0.15921,0.0796 -0.31841,0.1592 -0.55722,0.31841c0,-1.67165 0,-3.26369 0,-4.85573c0,-0.3184 0,-0.55721 -0.0796,-0.87562c-0.2388,-0.95522 -0.87562,-1.43283 -1.75124,-1.75124l-0.95523,0c-1.43283,0.47761 -1.91044,1.51244 -1.83084,2.94527c0,2.78607 0,5.49254 0,8.27861c0,2.14925 1.83084,3.26368 3.74129,2.14925z" id="svg_5" stroke="null"/>
   <path fill="#0ABEF5" d="m32.60122,34.91045c-2.62686,-1.51244 -5.17413,-3.02488 -7.8806,-4.53732c-1.67164,-0.95522 -3.50248,0.15921 -3.50248,2.14926c0,2.78607 0.0796,5.57214 0,8.35821c0,1.43283 0.39801,2.46766 1.83084,2.94527l0.95523,0c1.43283,-0.47761 1.99005,-1.51244 1.83084,-2.94527c0,-0.55722 0,-1.11443 0,-1.75125l0,-2.78607c0.23881,0.07961 0.39801,0.15921 0.55722,0.31841c1.27363,0.71642 2.54726,1.51244 3.82089,2.22886c0.07961,0.0796 0.15921,0.0796 0.15921,0.0796c1.11443,0.63682 2.54726,0.1592 3.10447,-0.95522c0.71642,-1.11443 0.23881,-2.54727 -0.87562,-3.10448z" id="svg_6" stroke="null"/>
   <path fill="#0ABEF5" d="m158.45198,25.35821c0.47761,0.0796 0.87562,-0.15921 1.11443,-0.55721l0,-0.55722l-0.23881,-0.95522c-0.79602,-3.58209 -4.2189,-5.89055 -7.80099,-5.25373c-0.07961,0 -0.15921,0 -0.23881,0.0796c-3.74129,0.95522 -6.04975,4.77612 -5.09453,8.51741c0.71642,3.10448 3.50249,5.33334 6.68657,5.33334c2.78607,0.0796 4.69652,-1.27364 6.20896,-3.50249c0.2388,-0.39801 0.1592,-0.87562 -0.23881,-1.19403c0,0 0,0 -0.0796,0c-0.39801,-0.23881 -0.87562,-0.07961 -1.03483,0.2388c-0.0796,0.15921 -0.1592,0.23881 -0.2388,0.39801c-0.95523,1.35324 -2.38806,2.22886 -4.05971,2.30846c-2.94527,0.23881 -5.57214,-1.99005 -5.73134,-4.93532l0.55721,0c3.34329,0.0796 6.76617,0.0796 10.18906,0.0796zm-10.66667,-1.67164c0.31841,-2.14926 2.46766,-3.9801 4.69652,-4.13931c2.54727,-0.0796 4.69652,1.59204 5.25373,4.0597l-9.95025,0.07961l0,0z" id="svg_7" stroke="null"/>
   <path fill="#0ABEF5" d="m36.66092,22.57214c0.87563,-0.39801 1.35324,-1.35324 1.27364,-2.30846c-0.15921,-1.75124 -1.99005,-2.62687 -3.58209,-1.75124c-2.54727,1.43283 -5.01493,2.86567 -7.48259,4.2985c-1.99005,1.11443 -1.99005,3.26369 0,4.45772l7.32338,4.2189c0.15921,0.0796 0.39801,0.23881 0.55722,0.31841c0.95522,0.39801 2.06965,0.0796 2.70646,-0.71642c0.79602,-1.03482 0.63682,-2.46766 -0.39801,-3.26368c-0.3184,-0.23881 -0.63681,-0.39801 -0.95522,-0.63682l-3.8209,-2.14925c0.23881,-0.1592 0.39801,-0.2388 0.55722,-0.31841l3.82089,-2.14925z" id="svg_8" stroke="null"/>
   <path fill="#0ABEF5" d="m101.61616,18.03483c-0.55722,-0.07961 -0.79602,0.2388 -0.95523,0.71641c-0.95522,2.70647 -1.91045,5.33334 -2.94527,8.03981c-0.23881,0.71641 -0.55722,1.43283 -0.87562,2.22885c-0.07961,-0.2388 -0.15921,-0.39801 -0.23881,-0.55721c-0.87562,-2.14926 -1.75124,-4.21891 -2.70647,-6.36816c-0.1592,-0.39801 -0.39801,-0.79602 -0.95522,-0.71642c-0.47761,0 -0.71642,0.31841 -0.87563,0.71642l-1.19403,2.94527l-1.67164,3.9801c-0.0796,-0.2388 -0.1592,-0.31841 -0.1592,-0.39801c-1.19403,-3.34328 -2.46766,-6.60696 -3.66169,-9.95025c0,0 0,-0.0796 0,-0.0796c-0.15921,-0.39801 -0.63682,-0.63682 -1.03483,-0.47761c0,0 0,0 -0.0796,0c-0.39801,0.2388 -0.55722,0.71642 -0.39801,1.11443c0.2388,0.71641 0.47761,1.35323 0.79602,2.06965c1.27363,3.34328 2.46766,6.60696 3.74129,9.95025c0.15921,0.39801 0.39801,0.71642 0.87562,0.71642c0.47762,0 0.71642,-0.31841 0.87563,-0.71642c0.1592,-0.39801 0.31841,-0.79602 0.55721,-1.27363l2.46766,-5.81095c0.07961,0.23881 0.15921,0.39801 0.23881,0.63682c0.87562,2.14925 1.75124,4.2189 2.70647,6.36816c0.1592,0.39801 0.31841,0.79602 0.87562,0.79602c0.47761,0 0.71642,-0.31841 0.87562,-0.79602c1.51244,-3.9801 2.94528,-7.9602 4.45771,-11.9403c0.07961,-0.15921 0.07961,-0.31841 0.07961,-0.47762c-0.15921,-0.39801 -0.39801,-0.71641 -0.79602,-0.71641z" id="svg_9" stroke="null"/>
   <path fill="#0ABEF5" d="m130.43208,17.95522c-0.47761,0 -0.79602,0.39801 -0.79602,0.95523c0,0.39801 0,0.79602 0,1.27363c-0.0796,0 -0.0796,0 -0.0796,0c-0.15921,-0.1592 -0.31841,-0.31841 -0.55722,-0.47761c-1.91045,-1.67165 -4.0597,-2.22886 -6.52736,-1.35324c-4.0597,1.43284 -5.81095,6.44777 -3.58209,10.26866c1.83084,3.10448 5.49254,4.29851 8.59701,2.70647c0.79602,-0.47761 1.51244,-0.95523 2.14926,-1.51244c0,0.39801 0,0.79602 0,1.27363c0,0.63682 0.2388,0.95523 0.79602,0.95523c0.47761,0 0.79602,-0.39801 0.79602,-1.03483c0,-1.75124 0,-3.50249 0,-5.25373c0,-2.22886 0,-4.53732 0,-6.76617c0,-0.63682 -0.31841,-1.03483 -0.79602,-1.03483zm-2.70647,11.22388c-1.27363,1.19404 -3.10448,1.51244 -4.69652,0.87563c-1.75124,-0.63682 -3.02487,-2.14926 -3.34328,-3.9801c-0.0796,-0.39801 -0.0796,-0.71642 -0.15921,-1.03483l0,0c0.07961,-1.83085 0.71642,-3.34328 2.06966,-4.45771c1.91044,-1.51244 4.69651,-1.35324 6.36816,0.47761c0.0796,0.0796 0.0796,0.0796 0.1592,0.1592c2.14925,2.30846 1.91045,5.89055 -0.39801,7.9602z" id="svg_10" stroke="null"/>
   <path fill="#0ABEF5" d="m142.05397,27.26866l-2.46766,-3.02488l4.93532,-4.77612c0.15921,-0.1592 0.23881,-0.31841 0.39801,-0.47761c0.15921,-0.31841 0.15921,-0.71642 -0.1592,-0.95522c-0.23881,-0.31841 -0.63682,-0.39801 -0.95523,-0.15921c-0.1592,0.15921 -0.39801,0.31841 -0.55721,0.47761l-7.00498,6.84578c-0.0796,0.1592 -0.2388,0.2388 -0.47761,0.47761l0,-0.71642c0,-3.8209 0,-7.72139 0,-11.54229c0,-0.1592 0,-0.31841 0,-0.47761c0,-0.0796 0,-0.0796 0,-0.15921c-0.0796,-0.47761 -0.47761,-0.79602 -0.87562,-0.71641c-0.47761,0 -0.79602,0.3184 -0.79602,0.95522c0,5.97015 0,12.0199 0,17.99005c0,0.1592 0,0.31841 0.0796,0.47761c0.15921,0.31841 0.55722,0.55722 0.87562,0.47761c0.39801,-0.0796 0.71642,-0.47761 0.71642,-0.87562c0,-0.87562 0,-1.75124 0,-2.62686c0,-0.15921 0,-0.31841 0.0796,-0.47762c0.79602,-0.87562 1.67165,-1.67164 2.54727,-2.54726c0.1592,0.23881 0.31841,0.31841 0.39801,0.47761c1.51244,1.75125 2.94527,3.58209 4.45771,5.33334c0.1592,0.2388 0.39801,0.55721 0.63682,0.55721c0.3184,0.0796 0.71641,0 0.95522,-0.1592c0.39801,-0.31841 0.23881,-0.79602 -0.0796,-1.11443l-2.70647,-3.26368z" id="svg_11" stroke="null"/>
   <path fill="#0ABEF5" d="m74.63108,18.11443c0,0 -0.0796,0 0,0c-3.8209,0.95522 -6.12936,4.85572 -5.17413,8.59701c0.79602,3.10448 3.42288,5.25373 6.44776,5.25373c0.31841,0 0.71642,0 1.03483,-0.0796c0.39801,-0.0796 0.79602,-0.1592 1.19403,-0.31841c3.66169,-1.43283 5.49253,-5.81094 3.82089,-9.55224c-1.27363,-2.94527 -4.37811,-4.61691 -7.32338,-3.90049zm4.53731,10.90547c-1.27363,1.19403 -3.10448,1.59204 -4.69652,1.03483c-1.91044,-0.63682 -2.94527,-2.06966 -3.42288,-3.9801c-0.0796,-0.15921 -0.0796,-0.39801 -0.0796,-0.55722c0,-0.1592 0,-0.39801 0,-0.55721l0,0c-0.07961,-1.67164 0.63681,-3.26368 1.99005,-4.29851c1.91044,-1.67164 4.77612,-1.43284 6.44776,0.39801c0,0 0.0796,0.0796 0.0796,0.0796c2.06965,2.22886 1.91045,5.81095 -0.31841,7.8806z" id="svg_12" stroke="null"/>
   <path fill="#0ABEF5" d="m60.22312,18.11443c-1.11443,0.2388 -2.22886,0.79602 -3.02488,1.59204c0,-0.31841 0,-0.55722 0,-0.71642c0,-0.63682 -0.23881,-0.95523 -0.79602,-0.95523c-0.47761,0 -0.79602,0.39801 -0.79602,0.95523c0,4.0597 0,8.0398 0,12.0995c0,0.15921 0,0.31841 0.0796,0.47761c0.15921,0.31841 0.47761,0.55722 0.87562,0.47762c0.39801,-0.07961 0.71642,-0.39801 0.63682,-0.87563c0,-2.46766 0,-4.85572 0,-7.32338c0,0 0,-0.0796 0,-0.0796c0,-2.30846 1.91045,-4.13931 4.21891,-4.13931c0,0 0.0796,0 0.0796,0c2.22885,0.07961 3.9801,1.99005 3.9005,4.21891c0,2.38806 0,4.77612 0,7.16418c0,0.63682 0.3184,0.95522 0.87562,0.95522c0.47761,0 0.79602,-0.3184 0.79602,-0.95522c0,-2.62687 0,-5.17413 -0.0796,-7.801c-0.07961,-3.26368 -3.50249,-5.81094 -6.76617,-5.09452z" id="svg_13" stroke="null"/>
   <path fill="#0ABEF5" d="m51.30769,25.0398c-0.63681,-0.31841 -1.35323,-0.63681 -2.06965,-0.87562c-1.11443,-0.39801 -2.22885,-0.71642 -3.26368,-1.19403c-1.19403,-0.55721 -1.27363,-1.83085 -0.23881,-2.70647c0.87563,-0.71642 1.99005,-0.95522 3.10448,-0.71642c0.87562,0.23881 1.67164,0.71642 2.38806,1.27363c0.31841,0.23881 0.63682,0.39801 0.95523,0.07961c0.3184,-0.31841 0.1592,-0.71642 -0.07961,-0.95523c-0.0796,-0.0796 -0.1592,-0.1592 -0.2388,-0.2388c-2.06965,-2.14926 -5.41294,-2.38806 -7.7214,-0.39801c-1.27363,1.03482 -1.59204,3.90049 0.31841,4.93532c0.87562,0.47761 1.75125,0.79602 2.62687,1.11443c1.03482,0.31841 2.14925,0.79602 3.10448,1.19403c1.27363,0.63681 1.27363,2.14925 0.0796,2.94527c-0.95523,0.63682 -2.14926,0.95523 -3.34329,0.71642c-0.95522,-0.1592 -1.91044,-0.55721 -2.78607,-1.03482c-0.3184,-0.15921 -0.63681,-0.23881 -0.87562,0.0796c0,0 0,0 0,0c-0.2388,0.31841 -0.2388,0.71642 0.0796,0.95522c0.07961,0.15921 0.23881,0.23881 0.31841,0.31841c1.35324,0.95522 2.94528,1.43284 4.61692,1.35323c1.19403,0 2.38806,-0.47761 3.34328,-1.19403c1.83085,-1.35323 2.14926,-4.37811 -0.31841,-5.65174z" id="svg_14" stroke="null"/>
   <path fill="#0ABEF5" d="m110.84999,12.06467c-1.99005,-0.0796 -3.8209,0.47762 -4.13931,3.10448c-0.0796,0.79602 -0.0796,1.67164 -0.1592,2.54727l-0.79602,0c-0.23881,0 -0.55721,0 -0.79602,0c-0.55721,0 -0.87562,0.39801 -0.87562,0.87562c0,0 0,0.0796 0,0.0796c0.0796,0.47761 0.47761,0.79602 0.95522,0.79602c0.47761,0 0.95522,0 1.51244,0l0,0.63682c0,3.58209 0,7.16418 0,10.74627c0,0.87562 0.31841,1.27363 0.87562,1.27363c0.55722,0 0.79602,-0.39801 0.79602,-1.19403c0,-3.58209 0,-7.08458 0,-10.66667l0,-0.71642l1.59204,-0.0796c0.63682,0 1.11443,-0.39801 1.03483,-0.87562c0,-0.47761 -0.39801,-0.79602 -1.03483,-0.79602c-0.47761,0 -1.03482,0 -1.67164,0c0.0796,-0.95523 0.1592,-1.91045 0.2388,-2.78607c0.07961,-0.71642 0.71642,-1.27363 1.43284,-1.19403c0.31841,0 0.63682,0 0.95522,0c0.47762,0 0.79602,-0.39801 0.79602,-0.87562c0,0 0,0 0,0c0,-0.47762 -0.3184,-0.87563 -0.71641,-0.87563z" id="svg_15" stroke="null"/>
   <path fill="#0ABEF5" d="m23.12859,26.07463c0.55721,-0.63682 0.55721,-1.51244 0,-2.14926c-0.95523,-0.95522 -1.91045,-1.91044 -2.86568,-2.86567c-0.63681,-0.55721 -1.59204,-0.55721 -2.22885,0c-0.95523,0.95523 -1.91045,1.91045 -2.86567,2.86567c-0.55722,0.63682 -0.55722,1.59204 0,2.22886c0.87562,0.87562 1.75124,1.83085 2.70646,2.70647c0.31841,0.2388 0.71642,0.47761 1.11443,0.63681c0.39801,-0.0796 0.79602,-0.31841 1.11443,-0.47761c1.11443,-0.95522 2.06965,-1.91045 3.02488,-2.94527zm-3.34329,0.1592c-0.1592,0.1592 -0.39801,0.31841 -0.55721,0.39801l0,0c-0.23881,-0.1592 -0.39801,-0.31841 -0.55722,-0.47761c-1.19403,-1.19403 -1.19403,-1.19403 0,-2.30846c0.47762,-0.47761 0.71642,-0.47761 1.19403,0c1.11443,1.19403 1.11443,1.19403 -0.0796,2.38806z" id="svg_16" stroke="null"/>
   <path fill="#0ABEF5" d="m115.62611,22.01493c0,-2.94528 0,-5.81095 0,-8.67662c0,-0.15921 0,-0.31841 0,-0.47761c0,-0.39801 -0.31841,-0.71642 -0.71642,-0.71642c0,0 0,0 0,0c-0.39801,-0.0796 -0.79602,0.1592 -0.87562,0.55721c-0.07961,0.15921 -0.07961,0.39801 -0.07961,0.55722c0,5.81094 0,11.70149 0,17.51243c0,0.23881 0,0.39801 0.07961,0.63682c0.0796,0.39801 0.47761,0.63682 0.79602,0.55721c0.39801,0 0.71641,-0.3184 0.79602,-0.71641c0,-0.15921 0,-0.31841 0,-0.47762c0,-2.86567 0,-5.81094 0,-8.75622l0,0.00001z" id="svg_17" stroke="null"/>
  </g>
 </g>
</svg>