<svg xmlns="http://www.w3.org/2000/svg" xmlns:xlink="http://www.w3.org/1999/xlink" version="1.1" id="Layer_1" x="0px" y="0px" viewBox="0 0 44 83.6" style="enable-background:new 0 0 44 83.6;" xml:space="preserve">
<style type="text/css">
	.st0{fill:#E7F5FD;}
	.st1{fill:#169EF2;}
	.st2{fill:#FFFFFF;}
	.st3{fill:#90CDF0;}
	.st4{fill:#F5F4F4;}
	.st5{fill:#D2D0D0;}
	.st6{fill:#FCEDC4;}
	.st7{fill:#F2B711;}
	.st8{fill:#444444;}
</style>
<g>
	<path class="st6" d="M16.9,47.2l-4.6,9.1c-0.2,0.4-0.1,0.8,0.2,1.2l4,4c0.3,0.3,0.4,0.8,0.2,1.2l-4.4,8.7c-0.2,0.4-0.1,0.8,0.2,1.2   l8.8,8.8c0.4,0.4,1,0.4,1.4,0l9-9c0.2-0.2,0.3-0.4,0.3-0.7l0-31.7c0-0.3,0.2-0.7,0.5-0.8c5.8-3.6,9.7-10.1,9.5-17.5   C41.8,11.2,33.4,2.6,23.1,2C11.5,1.4,2,10.6,2,22c0,9.1,6,16.7,14.3,19.2c0.4,0.1,0.7,0.5,0.7,1l0,4.6C17,46.9,17,47.1,16.9,47.2z"/>
	<path class="st7" d="M22,83.6c-0.8,0-1.5-0.3-2.1-0.9l-8.8-8.8c-0.9-0.9-1.1-2.3-0.6-3.5l4-8.1l-3.5-3.5c-0.9-0.9-1.1-2.3-0.6-3.5   l4.5-8.9l0-3.7C6.1,39.9,0,31.4,0,22c0-6.1,2.4-11.8,6.9-16c4.4-4.2,10.2-6.3,16.3-6c11.4,0.6,20.6,10,20.8,21.5   c0.2,7.6-3.6,14.8-10,18.9l0,31.1c0,0.8-0.3,1.6-0.9,2.1l-9,9C23.5,83.3,22.8,83.6,22,83.6z M14.4,71.6l7.6,7.6l8-8l0-31.3   c0-1,0.5-2,1.4-2.5C36.9,34,40.1,28,40,21.6C39.8,12.2,32.3,4.5,23,4c-5-0.3-9.7,1.5-13.4,4.9C6,12.4,4,17,4,22   c0,7.9,5.3,15,12.8,17.3c1.3,0.4,2.2,1.5,2.2,2.9l0,4.6c0,0.5-0.1,0.9-0.3,1.3l-4.2,8.5l3.5,3.5c0.9,0.9,1.1,2.3,0.6,3.5L14.4,71.6   z"/>
</g>
<circle class="st7" cx="22" cy="17" r="5.8"/>
</svg>