
<svg xmlns="http://www.w3.org/2000/svg" xmlns:xlink="http://www.w3.org/1999/xlink" version="1.1" id="Layer_1" x="0px" y="0px" viewBox="0 0 48 88" style="enable-background:new 0 0 48 88;" xml:space="preserve">
<style type="text/css">
	.st0{fill:#E7F5FD;}
	.st1{fill:#169EF2;}
	.st2{fill:#FFFFFF;}
	.st3{fill:#90CDF0;}
	.st4{fill:#F5F4F4;}
	.st5{fill:#D2D0D0;}
	.st6{fill:#FCEDC4;}
	.st7{fill:#F2B711;}
	.st8{fill:#444444;}
</style>
<path class="st5" d="M24,88C10.8,88,0,77.2,0,64c0-2.2,1.8-4,4-4s4,1.8,4,4c0,8.8,7.2,16,16,16s16-7.2,16-16V47.7l-3.2,3.2  c-1.6,1.6-4.1,1.6-5.7,0c-1.6-1.6-1.6-4.1,0-5.7l10-10c1.1-1.1,2.9-1.5,4.4-0.9C47,34.9,48,36.4,48,38v26C48,77.2,37.2,88,24,88z"/>
<path class="st1" d="M4,54c-0.5,0-1-0.1-1.5-0.3C1,53.1,0,51.6,0,50V24C0,10.8,10.8,0,24,0s24,10.8,24,24c0,2.2-1.8,4-4,4  s-4-1.8-4-4c0-8.8-7.2-16-16-16S8,15.2,8,24v16.3l3.2-3.2c1.6-1.6,4.1-1.6,5.7,0c1.6,1.6,1.6,4.1,0,5.7l-10,10C6.1,53.6,5,54,4,54z"/>
</svg>