<?xml version="1.0"?>
<svg width="160" height="50" xmlns="http://www.w3.org/2000/svg" xmlns:svg="http://www.w3.org/2000/svg">
 <g>
  <title>Layer 1</title>
  <g stroke="null" id="svg_1">
   <path stroke="null" id="svg_2" d="m28.467309,22.80192c0,-7.733975 -6.26859,-13.921154 -13.921154,-13.921154c-7.733975,0 -13.921154,6.18718 -13.921154,13.921154c0,6.512821 4.396154,11.885898 10.420513,13.432693l3.500641,4.558975l3.500641,-4.558975c5.942949,-1.465385 10.420513,-6.919872 10.420513,-13.432693z" fill="#F9A31A"/>
   <path stroke="null" id="svg_3" d="m7.870513,18.894228c-0.569872,-0.325641 -0.569872,-0.814103 0,-1.139744l5.780128,-2.930769c0.569872,-0.325641 1.628205,-0.325641 2.198077,0l5.780128,2.930769c0.569872,0.325641 0.569872,0.814103 0,1.139744l-5.780128,2.930769c-0.569872,0.325641 -1.628205,0.325641 -2.198077,0l-5.780128,-2.930769zm7.245513,5.698718c0,-0.651282 0.488462,-1.465385 1.139744,-1.791026l6.024359,-3.01218c0.569872,-0.325641 1.139744,0 1.139744,0.732692l0,5.780128c0,0.651282 -0.488462,1.465385 -1.139744,1.791026l-6.024359,2.930769c-0.569872,0.325641 -1.139744,0 -1.139744,-0.732692l0,-5.698718zm-8.303846,3.500641c-0.569872,-0.325641 -1.139744,-1.139744 -1.139744,-1.791026l0,-5.780128c0,-0.651282 0.488462,-0.976923 1.139744,-0.732692l6.024359,3.01218c0.569872,0.325641 1.139744,1.139744 1.139744,1.791026l0,5.780128c0,0.651282 -0.488462,0.976923 -1.139744,0.732692l-6.024359,-3.01218z" fill="#FFFFFF"/>
   <path stroke="null" id="svg_4" d="m47.110258,33.059613l0,0c-1.221154,1.546795 -3.337821,2.523718 -5.617308,2.523718c-5.617308,0 -8.873718,-4.640385 -8.873718,-9.036539c0,-4.233333 3.500641,-8.955128 9.036539,-8.955128c2.523718,0 4.477564,1.139744 5.454487,2.523718l0.08141,0l0,-2.116667l3.663462,0l0,17.096154l-3.663462,0l0,-2.035256l-0.08141,0zm-5.210257,-0.895513c2.849359,0 5.373077,-2.523718 5.373077,-5.535898s-2.523718,-5.535898 -5.373077,-5.535898c-3.01218,0 -5.454487,2.523718 -5.454487,5.535898s2.442308,5.535898 5.454487,5.535898zm12.944231,-10.664744l-2.360898,0l0,-3.419231l2.360898,0l0,-2.849359c0,-3.175 1.953846,-6.18718 6.35,-6.18718c0.895513,0 2.035256,0.162821 2.849359,0.407051l-1.465385,3.337821c-0.488462,-0.244231 -0.976923,-0.325641 -1.628205,-0.325641c-1.465385,0 -2.360898,1.221154 -2.360898,2.523718l0,3.09359l3.663462,0l0,3.419231l-3.663462,0l0,13.595513l-3.663462,0l-0.08141,-13.595513l0,0zm11.397436,0l-2.116667,0l0,-3.419231l2.116667,0l0,-5.128846l3.663462,0l0,5.128846l2.605128,0l0,3.419231l-2.605128,0l0,13.595513l-3.663462,0l0,-13.595513zm23.934616,9.932052c-2.035256,2.605128 -4.884616,4.151923 -7.896795,4.151923c-6.024359,0 -9.44359,-4.477564 -9.44359,-9.036539s3.419231,-8.955128 9.44359,-8.955128c3.582051,0 8.873718,2.930769 8.873718,9.606411l0,0.651282l-14.165385,0c0.244231,2.605128 2.686539,4.477564 5.210257,4.477564c2.035256,0 3.663462,-0.976923 4.966026,-2.686539l3.01218,1.791026l0,0zm-3.419231,-6.594231c-0.814103,-2.605128 -2.686539,-3.989103 -5.047436,-3.989103c-2.360898,0 -4.233333,1.465385 -4.803205,3.989103l9.850641,0zm5.861539,-6.757051l3.419231,0l0,1.872436l0.08141,0c0.569872,-1.383974 1.872436,-2.360898 3.419231,-2.360898c0.814103,0 1.465385,0.244231 2.035256,0.569872l-1.302564,3.663462c-0.325641,-0.244231 -0.976923,-0.488462 -1.383974,-0.488462c-1.302564,0 -2.523718,0.976923 -2.523718,2.605128l0,11.316026l-3.663462,0l-0.08141,-17.177565l0,0zm10.908975,11.967308c1.302564,1.383974 3.419231,2.523718 5.373077,2.523718c2.116667,0 3.419231,-1.221154 3.419231,-2.198077c0,-1.139744 -0.895513,-1.709615 -2.198077,-2.035256l-2.116667,-0.407051c-4.803205,-0.895513 -6.18718,-2.442308 -6.18718,-4.884616c0,-2.849359 2.442308,-5.617308 6.675641,-5.617308c2.360898,0 4.396154,0.732692 6.757051,2.360898l-2.116667,2.605128c-1.791026,-1.465385 -3.419231,-1.872436 -4.640385,-1.872436c-1.628205,0 -3.175,0.814103 -3.175,2.198077c0,0.976923 0.814103,1.546795 2.198077,1.791026l3.744872,0.732692c3.01218,0.569872 4.558975,2.035256 4.558975,4.558975c0,2.523718 -2.035256,5.780128 -7.245513,5.780128c-2.849359,0 -5.373077,-0.976923 -7.733975,-3.01218l2.686539,-2.523718l0,0zm31.42436,-11.967308l3.663462,0l0,17.096154l-3.663462,0l0,-17.096154zm-17.828847,-5.128846l3.663462,0l0,7.245513l0.08141,0c0.976923,-1.628205 2.849359,-2.605128 5.210257,-2.605128c3.582051,0 6.675641,3.01218 6.675641,7.245513l0,10.339103l-3.663462,0l0,-9.525c0,-3.09359 -1.628205,-4.396154 -4.070513,-4.396154c-2.360898,0 -4.233333,1.465385 -4.233333,4.314744l0,9.606411l-3.663462,0l0,-22.225001l0,0zm27.760898,7.164103l0,0c1.383974,-1.628205 3.337821,-2.523718 5.617308,-2.523718c5.617308,0 8.873718,4.640385 8.873718,9.036539c0,4.233333 -3.500641,8.955128 -9.036539,8.955128c-2.523718,0 -4.477564,-1.139744 -5.454487,-2.523718l-0.08141,0l0,8.059616l-3.663462,0l0,-23.039103l3.663462,0l0.08141,2.035256l0,0zm5.210257,0.976923c-2.849359,0 -5.373077,2.523718 -5.373077,5.535898s2.523718,5.535898 5.373077,5.535898c3.01218,0 5.454487,-2.523718 5.454487,-5.535898s-2.523718,-5.535898 -5.454487,-5.535898zm-13.269872,-8.303846c1.139744,0 2.035256,0.976923 2.035256,2.035256c0,1.139744 -0.976923,2.035256 -2.035256,2.035256c-1.139744,0 -2.035256,-0.976923 -2.035256,-2.035256c0,-1.221154 0.895513,-2.035256 2.035256,-2.035256z" fill="#343433"/>
  </g>
 </g>
</svg>