<?xml version="1.0"?>
<svg width="160" height="50" xmlns="http://www.w3.org/2000/svg" xmlns:svg="http://www.w3.org/2000/svg">
 <g>
  <title>Layer 1</title>
  <g id="svg_1">
   <g id="svg_2">
    <path id="svg_3" d="m5.4,22.549999l19.9,0l3.4,-4.8l-26.7,0l3.4,4.8zm3.1,8.3l13.1,0l3.4,-4.8l-19.6,0l3.1,4.8zm54,-0.7c-1,0 -2.1,0.3 -2.8,0.3c-2.8,0 -3.4,-1 -3.4,-3.4l0,-11.4l-4.8,0l0,11.7c0,5.5 3.4,7.2 8.6,7.2c2.4,0 5.5,-0.3 7.6,-1l0,-17.9l-4.8,0l0,14.4l-0.4,0l0,0.1zm-20.3,-14.8c-2.4,0 -4.5,0.7 -6.2,1.4l0,4.1c1.4,-1 3.1,-1.4 5.1,-1.4c1.7,0 3.4,0.7 3.4,2.4l0,1l-2.1,0c-5.1,0 -8.2,1.7 -8.2,5.5c0,4.1 3.4,5.5 8.2,5.5c2.4,0 5.1,-0.3 6.9,-0.7l0,-11.3c0.5,-4.8 -2.6,-6.5 -7.1,-6.5zm2.7,15.1c-0.7,0 -1.4,0.3 -2.1,0.3c-2.1,0 -3.1,-0.7 -3.1,-2.4c0,-1.7 1.4,-2.1 3.8,-2.1l1.7,0l0,4.1l-0.3,0.1l0,0zm42,-15.1c-5.5,0 -9.6,3.8 -9.6,9.6c0,5.8 4.1,9.6 9.6,9.6c5.5,0 9.6,-3.8 9.6,-9.6c-0.4,-5.8 -4.5,-9.6 -9.6,-9.6zm0,14.8c-2.8,0 -4.5,-2.1 -4.5,-5.1c0,-3.4 2.1,-5.1 4.5,-5.1c2.8,0 4.5,2.1 4.5,5.1s-2.1,5.1 -4.5,5.1zm29.5,3.8l4.8,0l0,-18.3l-4.8,0l0,18.3zm22.7,-18.6c-5.5,0 -9.6,3.8 -9.6,9.6c0,5.8 4.1,9.6 9.6,9.6s9.6,-3.8 9.6,-9.6s-4.1,-9.6 -9.6,-9.6zm0,14.8c-2.8,0 -4.5,-2.1 -4.5,-5.1c0,-3.4 2.1,-5.1 4.5,-5.1c2.8,0 4.5,2.1 4.5,5.1c0.3,3 -1.7,5.1 -4.5,5.1zm-20.3,-21.3c-1.7,0 -3.1,1.4 -3.1,3.1c0,1.7 1.4,2.8 3.1,2.8c1.7,0 3.1,-1.4 3.1,-2.8c0,-1.8 -1.3,-3.1 -3.1,-3.1zm-41.2,6.8l-3.4,0l0,-4.5l-4.8,4.1l0,18.6l4.8,0l0,-14.1l3.4,0l0,-4.1zm77.3,0l0,-4.5l-4.8,4.1l0,18.6l4.8,0l0,-14.1l3.1,0l0,-4.1l-3.1,0zm-31.3,18.3l4.8,0l0,-24.4l-4.8,4.1l0,20.3zm-18.8,-18.6c-3.1,0 -5.1,0.7 -7.2,1.4l0,24.4l4.8,-4.1l0,-3.1c0,0 0.7,0.3 2.1,0.3c6.5,0 10.3,-3.4 10.3,-10c-0.1,-5.5 -4.2,-8.9 -10,-8.9zm-0.8,14.8c-1,0 -1.7,-0.3 -1.7,-0.3l0,-9.6c0,0 1,-0.3 2.1,-0.3c3.1,0 5.1,1.7 5.1,4.8c0.1,3.6 -2.4,5.4 -5.5,5.4z" fill="#2E2E2E"/>
   </g>
  </g>
 </g>
</svg>