<?xml version="1.0"?>
<svg width="160" height="50" xmlns="http://www.w3.org/2000/svg" xmlns:svg="http://www.w3.org/2000/svg">
 <g>
  <title>Layer 1</title>
  <g stroke="null" id="svg_1">
   <path stroke="null" d="m63.471671,41.484376l-1.142917,1.934167l-0.79125,0l4.307917,-7.033334l1.934167,7.033334l-0.879167,0l-0.5275,-1.934167l-2.90125,0l0,0l0,0zm2.022083,-3.340834l-1.5825,2.725417l2.285833,0l-0.703333,-2.725417l0,0l0,0z" fill="#3E3C42" id="Fill-1"/>
   <path stroke="null" d="m129.145425,38.143543c-0.439583,-0.5275 -1.142917,-0.879167 -1.934167,-0.879167c-1.494583,0 -2.989167,1.31875 -3.165,2.813334c-0.26375,1.494583 0.79125,2.813334 2.285833,2.813334c0.79125,0 1.5825,-0.351667 2.197917,-0.879167l-0.175833,0.967083c-0.615417,0.439583 -1.406667,0.615417 -2.11,0.615417c-1.934167,0 -3.340834,-1.5825 -2.989167,-3.42875c0.26375,-1.934167 2.197917,-3.516667 4.132084,-3.516667c0.79125,0 1.406667,0.175833 1.934167,0.615417l-0.175833,0.879167" fill="#3E3C42" id="Fill-2"/>
   <path stroke="null" d="m129.233341,41.308543c0.175833,-1.230833 1.31875,-2.197917 2.549583,-2.197917c1.230833,0 2.022083,0.967083 1.84625,2.197917c-0.175833,1.230833 -1.31875,2.197917 -2.549583,2.197917s-2.11,-0.967083 -1.84625,-2.197917m0.703333,0c-0.175833,0.879167 0.351667,1.5825 1.230833,1.5825c0.879167,0 1.5825,-0.703333 1.758333,-1.5825c0.175833,-0.879167 -0.351667,-1.5825 -1.230833,-1.5825c-0.879167,0.087917 -1.670417,0.703333 -1.758333,1.5825" fill="#3E3C42" id="Fill-3"/>
   <path stroke="null" d="m135.299592,39.638126l0,0c0.26375,-0.351667 0.703333,-0.5275 1.142917,-0.5275c0.5275,0 0.879167,0.26375 1.055,0.703333c0.351667,-0.439583 0.879167,-0.703333 1.406667,-0.703333c1.055,0 1.230833,0.879167 1.055,1.758333l-0.439583,2.549583l-0.703333,0l0.351667,-2.461667c0.087917,-0.5275 0.175833,-1.230833 -0.615417,-1.230833c-0.79125,0 -1.055,0.79125 -1.142917,1.406667l-0.351667,2.197917l-0.703333,0l0.351667,-2.37375c0.087917,-0.5275 0.175833,-1.230833 -0.5275,-1.230833c-0.879167,0 -1.055,0.879167 -1.142917,1.494583l-0.351667,2.197917l-0.703333,0l0.703333,-4.22l0.703333,0l-0.087917,0.439583" fill="#3E3C42" id="Fill-4"/>
   <path stroke="null" d="m141.629592,39.813959l0,0c0.439583,-0.439583 0.967083,-0.703333 1.5825,-0.703333c1.230833,0 1.84625,1.055 1.670417,2.197917c-0.175833,1.230833 -1.142917,2.197917 -2.37375,2.197917c-0.615417,0 -1.055,-0.26375 -1.31875,-0.703333l0,0l-0.439583,2.90125l-0.703333,0l1.055,-6.505834l0.703333,0l-0.175833,0.615417l0,0l0,0zm-0.26375,1.494583c-0.175833,0.79125 0.26375,1.5825 1.142917,1.5825c0.967083,0 1.494583,-0.703333 1.670417,-1.5825c0.175833,-0.879167 -0.26375,-1.494583 -1.142917,-1.494583c-0.879167,0 -1.5825,0.703333 -1.670417,1.494583l0,0l0,0z" fill="#3E3C42" id="Fill-5"/>
   <path stroke="null" d="m149.190426,43.418543l-0.703333,0l0.087917,-0.615417l0,0c-0.439583,0.439583 -0.967083,0.703333 -1.5825,0.703333c-1.230833,0 -1.84625,-1.055 -1.670417,-2.197917c0.175833,-1.230833 1.142917,-2.197917 2.37375,-2.197917c0.615417,0 1.055,0.26375 1.31875,0.703333l0,0l0.087917,-0.615417l0.703333,0l-0.615417,4.22l0,0l0,0zm-3.077084,-2.11c-0.175833,0.79125 0.26375,1.5825 1.142917,1.5825c0.967083,0 1.494583,-0.703333 1.670417,-1.5825c0.175833,-0.879167 -0.26375,-1.494583 -1.142917,-1.494583c-0.879167,0 -1.5825,0.703333 -1.670417,1.494583l0,0l0,0z" fill="#3E3C42" id="Fill-6"/>
   <path stroke="null" d="m151.300426,39.726043l0,0c0.351667,-0.439583 0.79125,-0.615417 1.31875,-0.615417c1.142917,0 1.31875,0.879167 1.142917,1.84625l-0.439583,2.461667l-0.703333,0l0.351667,-2.37375c0.087917,-0.703333 0.175833,-1.31875 -0.703333,-1.31875c-0.967083,0 -1.230833,0.879167 -1.31875,1.670417l-0.351667,2.022083l-0.703333,0l0.703333,-4.22l0.703333,0l0,0.5275" fill="#3E3C42" id="Fill-7"/>
   <path stroke="null" d="m154.37751,39.198543l0.879167,0l1.055,2.989167l1.84625,-2.989167l0.79125,0l-4.132084,6.505834l-0.967083,0l1.84625,-2.725417l-1.31875,-3.780417" fill="#3E3C42" id="Fill-8"/>
   <path stroke="null" d="m104.70459,36.736876c-0.175833,1.31875 -1.230833,1.31875 -2.197917,1.31875l-0.5275,0l0.351667,-2.461667c0,-0.175833 0.175833,-0.26375 0.26375,-0.26375l0.26375,0c0.703333,0 1.31875,0 1.670417,0.351667c0.175833,0.26375 0.26375,0.615417 0.175833,1.055m-0.439583,-3.42875l-3.6925,0c-0.26375,0 -0.439583,0.175833 -0.5275,0.439583l-1.494583,9.407084c0,0.175833 0.087917,0.351667 0.26375,0.351667l1.934167,0c0.175833,0 0.351667,-0.087917 0.351667,-0.26375l0.439583,-2.6375c0,-0.26375 0.26375,-0.439583 0.5275,-0.439583l1.142917,0c2.461667,0 3.868334,-1.142917 4.22,-3.516667c0.175833,-1.055 0,-1.84625 -0.439583,-2.37375c-0.5275,-0.615417 -1.494583,-0.967083 -2.725417,-0.967083" fill="#3E3C42" id="Fill-9"/>
   <path stroke="null" d="m78.153755,36.736876c-0.175833,1.31875 -1.230833,1.31875 -2.197917,1.31875l-0.5275,0l0.351667,-2.461667c0,-0.175833 0.175833,-0.26375 0.26375,-0.26375l0.26375,0c0.703333,0 1.31875,0 1.670417,0.351667c0.175833,0.26375 0.26375,0.615417 0.175833,1.055m-0.439583,-3.42875l-3.6925,0c-0.26375,0 -0.439583,0.175833 -0.5275,0.439583l-1.494583,9.407084c0,0.175833 0.087917,0.351667 0.26375,0.351667l1.758333,0c0.26375,0 0.439583,-0.175833 0.5275,-0.439583l0.439583,-2.549583c0,-0.26375 0.26375,-0.439583 0.5275,-0.439583l1.142917,0c2.461667,0 3.868334,-1.142917 4.22,-3.516667c0.175833,-1.055 0,-1.84625 -0.439583,-2.37375c-0.5275,-0.5275 -1.494583,-0.879167 -2.725417,-0.879167" fill="#3E3C42" id="Fill-10"/>
   <path stroke="null" d="m86.330005,40.165626c-0.175833,0.967083 -0.967083,1.670417 -2.022083,1.670417c-0.5275,0 -0.967083,-0.175833 -1.230833,-0.439583c-0.26375,-0.351667 -0.351667,-0.703333 -0.26375,-1.230833c0.175833,-0.967083 0.967083,-1.670417 2.022083,-1.670417c0.5275,0 0.879167,0.175833 1.230833,0.439583c0.26375,0.26375 0.351667,0.703333 0.26375,1.230833m2.461667,-3.42875l-1.758333,0c-0.175833,0 -0.26375,0.087917 -0.26375,0.26375l-0.087917,0.5275l-0.087917,-0.175833c-0.351667,-0.5275 -1.230833,-0.703333 -2.11,-0.703333c-1.934167,0 -3.6925,1.494583 -3.95625,3.516667c-0.175833,1.055 0.087917,2.022083 0.703333,2.725417c0.5275,0.615417 1.31875,0.879167 2.285833,0.879167c1.5825,0 2.461667,-0.967083 2.461667,-0.967083l-0.087917,0.5275c0,0.175833 0.087917,0.351667 0.26375,0.351667l1.5825,0c0.26375,0 0.439583,-0.175833 0.5275,-0.439583l0.967083,-5.978334c-0.087917,-0.351667 -0.175833,-0.5275 -0.439583,-0.5275" fill="#3E3C42" id="Fill-11"/>
   <path stroke="null" d="m112.88084,40.165626c-0.175833,0.967083 -0.967083,1.670417 -2.022083,1.670417c-0.5275,0 -0.967083,-0.175833 -1.230833,-0.439583c-0.26375,-0.351667 -0.351667,-0.703333 -0.26375,-1.230833c0.175833,-0.967083 0.967083,-1.670417 2.022083,-1.670417c0.5275,0 0.879167,0.175833 1.230833,0.439583c0.26375,0.26375 0.351667,0.703333 0.26375,1.230833m2.549583,-3.42875l-1.758333,0c-0.175833,0 -0.26375,0.087917 -0.26375,0.26375l-0.087917,0.5275l-0.087917,-0.175833c-0.351667,-0.5275 -1.230833,-0.703333 -2.11,-0.703333c-1.934167,0 -3.6925,1.494583 -3.95625,3.516667c-0.175833,1.055 0.087917,2.022083 0.703333,2.725417c0.5275,0.615417 1.31875,0.879167 2.285833,0.879167c1.5825,0 2.461667,-0.967083 2.461667,-0.967083l-0.087917,0.5275c0,0.175833 0.087917,0.351667 0.26375,0.351667l1.5825,0c0.26375,0 0.439583,-0.175833 0.5275,-0.439583l0.967083,-5.978334c-0.175833,-0.351667 -0.26375,-0.5275 -0.439583,-0.5275" fill="#3E3C42" id="Fill-12"/>
   <path stroke="null" d="m98.37459,36.736876l-1.758333,0c-0.175833,0 -0.351667,0.087917 -0.439583,0.26375l-2.461667,3.604584l-1.055,-3.42875c-0.087917,-0.175833 -0.26375,-0.351667 -0.5275,-0.351667l-1.758333,0c-0.175833,0 -0.351667,0.175833 -0.26375,0.439583l1.934167,5.714584l-1.84625,2.549583c-0.175833,0.175833 0,0.439583 0.26375,0.439583l1.758333,0c0.175833,0 0.351667,-0.087917 0.439583,-0.175833l5.978334,-8.440001c0.087917,-0.351667 -0.087917,-0.615417 -0.26375,-0.615417" fill="#3E3C42" id="Fill-13"/>
   <path stroke="null" d="m117.540424,33.571876l-1.494583,9.582917c0,0.175833 0.087917,0.351667 0.26375,0.351667l1.494583,0c0.26375,0 0.439583,-0.175833 0.5275,-0.439583l1.494583,-9.407084c0,-0.175833 -0.087917,-0.351667 -0.26375,-0.351667l-1.758333,0c-0.175833,0 -0.26375,0.087917 -0.26375,0.26375" fill="#3E3C42" id="Fill-14"/>
   <path stroke="null" d="m0.875,24.076875l0,-2.6375l2.197917,0l0,-12.835834l-2.197917,0l0,-2.6375l8.703751,0c3.95625,0 6.417917,1.758333 6.417917,4.923334c0,2.022083 -1.230833,3.252917 -2.813334,3.868334c2.285833,0.615417 3.868334,2.11 3.868334,4.22c0,3.340834 -2.6375,5.187084 -7.033334,5.187084l-9.143334,0l0,-0.087917l0,0zm5.187084,-15.473334l0,4.923334l3.252917,0c2.461667,0 3.6925,-0.879167 3.6925,-2.461667c0,-1.670417 -1.31875,-2.461667 -3.780417,-2.461667l-3.165,0l0,0l0,0zm0,12.835834l3.6925,0c2.90125,0 4.307917,-0.879167 4.307917,-2.6375c0,-1.758333 -1.494583,-2.6375 -4.48375,-2.6375l-3.516667,0l0,5.275l0,0l0,0z" fill="#3E3C42" id="Fill-15"/>
   <path stroke="null" d="m32.876669,14.669791c-0.351667,-1.055 -1.142917,-1.670417 -2.197917,-1.670417c-2.461667,0 -4.835417,1.758333 -4.835417,5.01125l0,3.42875l4.835417,0l0,2.6375l-10.813751,0l0,-2.6375l3.077084,0l0,-8.000417l-2.37375,0l0,-2.6375l5.275,0l0,2.285833c0.879167,-1.5825 2.6375,-2.725417 5.01125,-2.725417c2.6375,0 4.307917,1.494583 4.835417,3.604584l-2.813334,0.703333" fill="#3E3C42" id="Fill-16"/>
   <path stroke="null" d="m47.470836,16.340208l0,-0.79125c0,-1.84625 -1.5825,-2.6375 -3.252917,-2.6375c-1.5825,0 -2.989167,0.615417 -4.044167,1.5825l-1.84625,-1.934167c1.31875,-1.142917 3.165,-2.197917 5.978334,-2.197917c3.516667,0 6.154167,1.758333 6.154167,5.187084l0,5.890417l2.022083,0l0,2.6375l-5.01125,0l0,-1.406667c-0.79125,1.142917 -2.725417,1.84625 -4.7475,1.84625c-2.90125,0 -5.362917,-1.406667 -5.362917,-4.22c0,-3.252917 3.340834,-4.571667 6.417917,-4.571667c1.494583,0.087917 2.725417,0.351667 3.6925,0.615417m0,2.37375c-0.879167,-0.351667 -2.285833,-0.5275 -3.516667,-0.5275c-1.84625,0 -3.604584,0.5275 -3.604584,2.197917c0,1.230833 1.142917,1.758333 2.6375,1.758333c2.11,0 4.48375,-1.055 4.48375,-2.989167l0,-0.439583" fill="#3E3C42" id="Fill-17"/>
   <path stroke="null" d="m69.801671,21.439375l0,2.6375l-13.978751,0l0,-2.6375l5.8025,0l0,-8.000417l-4.395834,0l0,-2.6375l7.297084,0l0,10.637917l5.275,0l0,0l0,0zm-8.527917,-17.407501l3.252917,0l0,4.044167l-3.252917,0l0,-4.044167l0,0z" fill="#3E3C42" id="Fill-18"/>
   <path stroke="null" d="m73.230421,21.439375l2.11,0l0,-8.000417l-2.022083,0l0,-2.6375l4.835417,0l0,1.758333c0.879167,-1.31875 2.6375,-2.197917 4.7475,-2.197917c3.077084,0 5.275,1.84625 5.275,4.923334l0,6.154167l2.11,0l0,2.6375l-7.209167,0l0,-2.6375l2.197917,0l0,-5.450834c0,-2.285833 -1.494583,-2.989167 -2.813334,-2.989167c-2.197917,0 -4.395834,1.5825 -4.395834,3.95625l0,4.48375l2.197917,0l0,2.6375l-7.209167,0l0,-2.6375" fill="#3E3C42" id="Fill-19"/>
   <path stroke="null" d="m94.242506,13.438958l-3.604584,0l0,-2.6375l3.604584,0l0,-4.835417l2.90125,0l0,4.835417l6.769584,0l0,2.6375l-6.769584,0l0,5.626667c0,2.11 1.494583,2.90125 3.252917,2.90125c1.5825,0 2.989167,-0.879167 3.95625,-1.84625l1.934167,1.934167c-1.230833,1.31875 -3.252917,2.549583 -5.890417,2.549583c-3.516667,0 -6.06625,-1.84625 -6.06625,-5.450834l0,-5.714584" fill="#3E3C42" id="Fill-20"/>
   <path stroke="null" d="m121.848341,14.669791c-0.351667,-1.055 -1.142917,-1.670417 -2.197917,-1.670417c-2.461667,0 -4.835417,1.758333 -4.835417,5.01125l0,3.42875l4.835417,0l0,2.6375l-10.725834,0l0,-2.6375l3.077084,0l0,-8.000417l-2.37375,0l0,-2.6375l5.275,0l0,2.285833c0.879167,-1.5825 2.6375,-2.725417 5.01125,-2.725417c2.6375,0 4.307917,1.494583 4.835417,3.604584l-2.90125,0.703333" fill="#3E3C42" id="Fill-21"/>
   <path stroke="null" d="m141.102092,22.054792c-1.406667,1.406667 -3.95625,2.461667 -6.769584,2.461667c-4.659584,0 -7.912501,-2.989167 -7.912501,-7.12125s3.165,-7.12125 7.560834,-7.12125c4.395834,0 7.385,3.252917 7.385,7.64875l0,0.439583l-11.956667,0c0.5275,2.197917 2.37375,3.604584 4.923334,3.604584c2.11,0 3.868334,-0.79125 4.835417,-1.84625l1.934167,1.934167l0,0l0,0zm-11.517084,-5.978334l8.527917,0c-0.439583,-1.934167 -2.197917,-3.165 -4.132084,-3.165c-2.285833,-0.087917 -3.95625,1.230833 -4.395834,3.165l0,0l0,0z" fill="#3E3C42" id="Fill-22"/>
   <path stroke="null" d="m158.86126,22.054792c-1.406667,1.406667 -3.95625,2.461667 -6.769584,2.461667c-4.659584,0 -7.912501,-2.989167 -7.912501,-7.12125s3.165,-7.12125 7.560834,-7.12125c4.395834,0 7.385,3.252917 7.385,7.64875l0,0.439583l-11.956667,0c0.5275,2.197917 2.37375,3.604584 4.923334,3.604584c2.11,0 3.868334,-0.79125 4.835417,-1.84625l1.934167,1.934167l0,0l0,0zm-11.517084,-5.978334l8.527917,0c-0.439583,-1.934167 -2.197917,-3.165 -4.132084,-3.165c-2.197917,-0.087917 -3.95625,1.230833 -4.395834,3.165l0,0l0,0z" fill="#3E3C42" id="Fill-23"/>
  </g>
 </g>
</svg>