<?xml version="1.0"?>
<svg width="160" height="50" xmlns="http://www.w3.org/2000/svg" xmlns:svg="http://www.w3.org/2000/svg">
 <g>
  <title>Layer 1</title>
  <path id="svg_1" d="m69.508436,13.102628c1.376491,0 2.49489,-1.118399 2.49489,-2.49489c0,-1.376491 -1.118399,-2.49489 -2.49489,-2.49489c-1.376491,0 -2.49489,1.118399 -2.49489,2.49489c0,1.376491 1.118399,2.49489 2.49489,2.49489zm75.362881,2.150767c9.635437,6.796424 0.774276,19.012782 -5.07581,16.517892c-1.032368,-0.516184 -1.032368,-1.20443 0.516184,-5.07581l4.559626,-11.442081zm-3.699319,-1.720614l-1.548552,3.957412c0,0 -0.602215,-2.839013 -3.699319,-2.839013c-5.07581,0 -8.172915,7.48467 -9.205283,12.388419c-0.516184,2.236798 -4.98978,4.215504 -7.656731,4.215504c-4.473596,0 -2.752982,-4.817718 -2.752982,-4.817718c5.247872,0.602215 8.172915,-0.688245 9.893529,-4.301534c2.150767,-4.559626 -0.172061,-7.48467 -3.871381,-7.48467c-6.452301,0 -10.495744,8.689099 -10.495744,13.678879l0,0.258092c-0.086031,1.118399 -2.839013,2.752982 -3.957412,2.752982c-0.774276,0 -1.634583,-0.516184 0,-4.559626l4.98978,-12.388419c13.85094,-2.925043 22.798132,-2.666951 28.304096,-0.860307zm-9.377345,16.862014c-0.774276,0 -1.118399,-0.430153 -1.118399,-1.462522c0,-2.666951 2.925043,-10.753836 6.108179,-10.753836c1.720614,0 1.720614,2.322829 1.720614,2.322829l-2.752982,6.710394c-0.086031,0.172061 -1.978706,3.183135 -3.957412,3.183135zm-84.654195,-12.216357c1.20443,0 1.20443,1.032368 0.430153,2.839013c-0.688245,1.634583 -1.806644,3.097105 -4.129473,3.097105l-0.946338,0c-0.172061,0 -0.258092,0 -0.430153,-0.086031c-0.086031,0.086031 2.150767,-5.850087 5.07581,-5.850087zm75.018758,0c1.20443,0 1.20443,1.032368 0.430153,2.839013c-0.860307,1.892675 -2.150767,3.613289 -5.505964,3.011074c0,0 2.150767,-5.850087 5.07581,-5.850087zm-50.413982,25.637144c-1.806644,3.183135 -4.731688,3.011074 -4.98978,1.634583c-0.516184,-2.49489 2.925043,-4.645657 8.258946,-8.000854c-1.032368,2.322829 -1.806644,3.871381 -3.269166,6.366271zm3.097105,-13.420787c-0.774276,0 -1.20443,-0.430153 -1.20443,-1.462522c0,-2.666951 2.925043,-10.753836 6.108179,-10.753836c1.720614,0 1.720614,2.322829 1.720614,2.322829l-2.752982,6.710394c0,0.172061 -1.892675,3.183135 -3.871381,3.183135zm11.872235,-4.129473c-0.860307,1.806644 -3.269166,3.097105 -4.817718,4.129473l5.936117,-14.625217c0.086031,-0.258092 0,-0.516184 -0.344123,-0.516184l-3.183135,0c-0.344123,0 -0.688245,0.258092 -0.774276,0.516184l-0.688245,1.720614c-0.258092,-1.462522 -1.720614,-2.839013 -3.871381,-2.839013c-4.98978,0 -8.172915,7.742762 -9.119253,12.56048c-0.344123,1.720614 -3.441227,4.043442 -4.645657,4.043442c-0.688245,0 -1.376491,-0.602215 0.172061,-4.559626l4.387565,-11.011928c0.086031,-0.258092 0,-0.516184 -0.344123,-0.516184l-3.183135,0c-0.344123,0 -0.688245,0.258092 -0.774276,0.516184c0,0 -3.871381,9.893529 -4.817718,12.216357c-0.774276,1.978706 -3.011074,3.269166 -4.129473,3.269166c-0.688245,0 -1.376491,-0.602215 0.172061,-4.559626l8.689099,-21.163549c0.086031,-0.258092 0,-0.516184 -0.344123,-0.516184l-3.183135,0c-0.344123,0 -0.688245,0.258092 -0.774276,0.516184l-8.344977,20.303242c-0.946338,2.408859 -5.678025,5.505964 -8.603069,5.505964c-3.957412,0 -3.097105,-3.78535 -2.839013,-4.731688l2.150767,0c3.957412,0.086031 6.366271,-1.29046 7.828792,-4.473596c2.150767,-4.559626 -0.172061,-7.48467 -3.871381,-7.48467c-4.731688,0 -8.172915,4.645657 -9.635437,9.033222c0,0.086031 -0.086031,0.172061 -0.086031,0.344123c-0.688245,0 -1.376491,-0.086031 -1.892675,-0.086031c0.774276,-1.892675 1.20443,-3.957412 1.20443,-6.194209c-0.086031,-8.861161 -7.312608,-16.173769 -16.34583,-16.173769c-2.580921,0 -5.07581,0.602215 -7.226578,1.720614l0,0c-7.656731,3.613289 -9.549406,11.872235 -0.516184,16.948045c-1.29046,2.580921 -3.011074,4.645657 -4.731688,6.968486c-0.258092,0.258092 -0.258092,0.602215 -0.086031,0.946338c0.516184,0.860307 1.806644,2.064736 2.752982,2.752982l0,0l0.258092,0.172061c2.666951,1.892675 6.022148,3.011074 9.549406,3.011074c5.936117,0 11.183989,-3.183135 14.023002,-8.000854c0.602215,0.086031 1.462522,0.086031 2.408859,0.086031c-0.172061,0.774276 -0.172061,1.462522 -0.172061,2.150767c0,3.613289 2.064736,5.678025 6.108179,5.678025c3.527258,0 6.366271,-1.548552 8.603069,-3.699319c-0.086031,2.666951 1.548552,3.699319 3.527258,3.699319c1.806644,0 3.527258,-0.946338 5.161841,-2.49489c0.344123,1.806644 1.720614,2.49489 3.441227,2.49489c2.064736,0 3.957412,-1.20443 5.764056,-3.097105c0.344123,1.806644 1.548552,3.097105 3.441227,3.097105c2.49489,0 4.043442,-2.408859 4.043442,-2.408859l-0.602215,1.892675c-4.731688,4.215504 -12.474449,6.022148 -12.732542,11.442081c-0.344123,6.108179 9.033222,7.5707 12.474449,-1.032368l4.043442,-9.721468c1.462522,-1.032368 3.183135,-2.150767 4.903749,-3.699319l-1.29046,3.097105c-0.086031,0.258092 0,0.516184 0.344123,0.516184l3.183135,0c0.344123,0 0.688245,-0.258092 0.774276,-0.516184l5.247872,-12.732542c1.548552,-1.806644 3.269166,-2.580921 4.215504,-2.580921c0.602215,0 1.032368,0.258092 1.032368,0.774276c0,0.516184 -2.322829,6.366271 -2.322829,6.366271c-2.580921,6.28024 -0.946338,8.603069 2.236798,8.603069c1.634583,0 3.183135,-0.774276 4.645657,-1.978706c0.516184,1.462522 1.806644,1.978706 3.441227,1.978706c2.150767,0 4.129473,-1.118399 5.850087,-2.925043c0.860307,1.892675 2.752982,2.925043 5.591995,2.925043c3.355197,0 6.194209,-1.462522 8.431007,-3.527258c0.258092,1.978706 1.376491,3.527258 3.613289,3.527258c2.925043,0 5.161841,-2.839013 5.161841,-2.839013s0.258092,2.064736 3.527258,2.839013c11.958265,2.925043 21.421641,-14.281094 7.312608,-21.249579l2.925043,-7.312608c0.086031,-0.258092 0,-0.516184 -0.344123,-0.516184l-3.269166,0c-0.344123,0 -0.688245,0.258092 -0.774276,0.516184l-2.408859,5.850087c-6.194209,-1.720614 -15.313462,-1.892675 -28.304096,0.688245l2.666951,-6.624363c0.086031,-0.258092 -0.086031,-0.516184 -0.344123,-0.516184l-3.183135,0c-0.344123,0 -0.688245,0.258092 -0.774276,0.516184l-2.752982,6.968486l0,0.086031l0,0l-0.258092,0.774276c-1.118399,0.258092 -2.236798,0.516184 -3.441227,0.860307c-0.344123,0.086031 -0.688245,0.344123 -0.774276,0.688245c-0.172061,0.430153 -0.430153,0.688245 -0.602215,1.032368c-0.086031,0.258092 0.344123,0.430153 0.602215,0.430153c1.118399,-0.258092 2.150767,-0.516184 3.183135,-0.774276c-2.322829,5.850087 -4.98978,12.56048 -5.419933,13.592848c-0.688245,1.462522 -2.236798,2.322829 -3.011074,2.322829c-0.602215,0 -1.462522,-0.430153 0.172061,-4.559626l1.978706,-4.98978c0.774276,-1.806644 1.118399,-3.269166 1.118399,-4.215504c0,-1.806644 -1.20443,-2.839013 -3.011074,-2.839013c-2.839013,0 -5.161841,2.322829 -5.161841,2.322829l2.408859,-5.678025c5.07581,-0.258092 9.893529,-1.978706 10.409713,-6.022148c0,-6.108179 -9.635437,-7.828792 -12.732542,0.860307l-1.032368,2.580921c-2.925043,-0.258092 -5.764056,-1.29046 -7.914823,-2.49489c-0.344123,-0.172061 -0.688245,-0.086031 -0.774276,0.258092l-0.344123,0.516184c-0.172061,0.344123 0,0.774276 0.258092,1.032368c1.29046,1.032368 4.301534,2.322829 8.086884,2.839013l0,0l-6.538332,15.399493zm11.442081,-17.378199c2.236798,-6.022148 6.366271,-5.850087 6.28024,-3.699319c-0.086031,1.806644 -2.925043,3.355197 -6.28024,3.699319zm-81.643121,-2.666951c1.29046,-0.430153 2.666951,-0.688245 4.129473,-0.688245c0.516184,0 1.032368,0 1.548552,0.086031c-3.957412,2.236798 -6.366271,7.828792 -8.258946,12.302388c-5.764056,-4.301534 -3.613289,-9.549406 2.580921,-11.700173zm8.947191,0.344123c4.301534,1.892675 7.398639,6.194209 7.398639,11.183989c0,2.150767 -0.516184,4.215504 -1.548552,5.936117c-4.645657,-0.516184 -9.807498,-1.634583 -14.109032,-3.78535c1.634583,-4.731688 3.957412,-11.442081 8.258946,-13.334756zm-12.388419,21.593702c1.20443,-1.720614 2.666951,-4.301534 3.441227,-6.28024c4.301534,1.806644 9.119253,2.925043 13.592848,3.699319c-2.236798,2.666951 -5.936117,5.07581 -9.721468,5.07581c-2.752982,-0.086031 -5.333903,-0.946338 -7.312608,-2.49489z" fill="#323232" clip-rule="evenodd" fill-rule="evenodd"/>
 </g>
</svg>