<?xml version="1.0"?>
<svg width="160" height="50" xmlns="http://www.w3.org/2000/svg" xmlns:svg="http://www.w3.org/2000/svg">
 <g>
  <title>Layer 1</title>
  <g display="none" id="Layer_2">
   <rect id="svg_1" height="90" width="260" stroke-miterlimit="10" stroke-width="1.1277" stroke="#E8E7E7" fill="none" y="0" x="-10"/>
  </g>
  <g stroke="null" id="Layer_1">
   <g stroke="null" id="svg_2">
    <g stroke="null" id="svg_3">
     <g stroke="null" id="svg_4">
      <path stroke="null" id="svg_5" d="m64.193104,21.441381c-1.737931,-0.165517 -3.227586,0.331034 -4.468965,1.903448l0,-0.496552l0,0l0,-8.275862l0,-0.082759l0,-0.57931l-4.634483,0.57931l0,21.599999l4.551724,0l0,-1.241379c0.662069,0.496552 1.241379,0.910345 1.903448,1.241379c2.648276,0.910345 6.206896,0.165517 7.448276,-3.393103c0.744828,-2.317241 0.744828,-4.634483 0.165517,-7.034482c-0.57931,-2.482759 -2.317241,-3.889655 -4.965517,-4.220689zm0.662069,9.351724c-0.248276,1.406896 -1.324138,2.234483 -2.648276,2.068965c-0.331034,0 -0.662069,-0.082759 -0.910345,-0.248276c-1.075862,-0.662069 -1.406896,-1.655172 -1.489655,-2.4l0,0c-0.082759,-0.993103 -0.165517,-3.144827 0.331034,-4.137931c0.413793,-0.744828 1.158621,-1.158621 2.151724,-1.241379c1.406896,-0.082759 2.4,0.662069 2.565517,2.068965c0.165517,1.406896 0.165517,2.648276 0,3.889655z" fill="#3B5998"/>
      <path stroke="null" id="svg_6" d="m80.413793,21.689656c-1.572414,-0.413793 -3.227586,-0.413793 -4.8,0c-2.317241,0.662069 -3.972414,2.151724 -4.468965,4.551724c-0.331034,1.324138 -0.331034,2.648276 -0.248276,3.972414c0.165517,3.062069 2.068965,5.296552 5.048276,5.875862c0.082759,0 0.082759,0 0.165517,0l0,0l0,0c0.082759,0 0.248276,0.082759 0.331034,0.082759l0.082759,0l0,0c0.165517,0 0.331034,0.082759 0.496552,0.082759c0.57931,0.082759 1.324138,0.082759 1.903448,0l0,0l0.082759,0c3.062069,-0.165517 5.37931,-2.068965 6.041379,-5.048276c0.413793,-1.655172 0.413793,-3.227586 0,-4.882758c-0.496552,-2.317241 -2.068965,-3.972414 -4.634483,-4.634483zm0.248276,8.855172c0,0.082759 0,0.165517 -0.082759,0.331034c-0.331034,1.324138 -1.241379,2.151724 -2.565517,2.068965c-1.406896,-0.082759 -2.4,-0.827586 -2.482759,-2.317241c-0.082759,-0.993103 -0.082759,-2.068965 0,-3.144827c0.165517,-1.655172 1.158621,-2.482759 2.648276,-2.482759c1.241379,0 2.151724,0.744828 2.4,1.986207c0.331034,1.158621 0.082759,3.310345 0.082759,3.558621z" fill="#3B5998"/>
      <path stroke="null" id="svg_7" d="m11.558623,21.606898l-3.310345,0l0,-2.234483c0.248276,-2.068965 3.641379,-1.655172 3.641379,-1.655172l0,-0.165517l0,0l0,-3.393103l0,0l0,0l0,0c-0.082759,0 -6.786207,-1.572414 -8.110345,3.475862l0,0l0,0c-0.248276,0.662069 -0.165517,3.558621 -0.165517,3.972414l-2.813793,0l0,3.889655l2.97931,0l0,10.510344l4.386207,0l0,-10.510344l3.393103,0l0.413793,-3.889655l-0.413793,0z" fill="#3B5998"/>
      <path stroke="null" id="svg_8" d="m21.986209,23.510346c-0.082759,-0.082759 -0.082759,-0.082759 -0.165517,-0.165517l0,0l0,0c-0.082759,-0.082759 -0.082759,-0.082759 -0.082759,-0.082759l0,0c-0.993103,-0.993103 -1.406896,-1.324138 -2.234483,-1.572414c-3.144827,-0.910345 -6.124138,0.744828 -7.034482,3.889655c-0.662069,1.903448 -0.662069,3.972414 -0.248276,5.793103c0.744828,4.220689 3.889655,5.627586 7.2,4.965517c0.993103,-0.248276 1.82069,-0.827586 2.482759,-1.737931c0,0 0.082759,-0.082759 0.165517,-0.248276l0,1.903448l4.220689,0l0,-14.565517l-4.386207,0l0,1.82069l0.082759,0zm-0.248276,7.282758c-0.165517,1.324138 -1.241379,2.151724 -2.482759,2.151724c-1.324138,-0.082759 -2.234483,-0.827586 -2.4,-2.068965c-0.331034,-1.82069 0.082759,-3.972414 0.082759,-4.055172c0.331034,-1.158621 1.241379,-1.82069 2.482759,-1.82069c1.241379,0 2.234483,0.827586 2.4,2.151724c0,1.158621 0,2.4 -0.082759,3.641379z" fill="#3B5998"/>
      <path stroke="null" id="svg_9" d="m39.365519,35.096552c-0.248276,-0.744828 -0.413793,-1.406896 -0.662069,-2.151724l-0.248276,-0.827586c0,0 -5.37931,2.565517 -6.206896,-2.317241c-0.082759,-0.827586 -0.082759,-1.655172 0.082759,-2.4c0.248276,-1.489655 1.075862,-2.317241 2.565517,-2.4c0.496552,-0.082759 0.993103,0 1.489655,0.082759c0.662069,0.082759 1.324138,0.331034 2.068965,0.496552c0.248276,-0.827586 0.57931,-1.572414 0.827586,-2.317241c0,-0.165517 0.082759,-0.248276 0.082759,-0.331034l0,0l0.165517,-0.496552c0,-0.082759 -0.082759,-0.165517 -0.248276,-0.165517l0,0c-0.165517,-0.082759 -0.331034,-0.165517 -0.662069,-0.331034c-0.165517,-0.082759 -0.248276,-0.082759 -0.413793,-0.165517c-0.165517,0 -0.165517,-0.082759 -0.165517,-0.082759l0,0c-1.406896,-0.413793 -2.813793,-0.496552 -4.303448,-0.331034c-3.062069,0.331034 -5.213793,2.151724 -5.793103,5.213793c-0.331034,1.572414 -0.331034,3.227586 0.082759,4.8c0.57931,2.317241 1.986207,3.972414 4.303448,4.634483c1.572414,0.496552 3.144827,0.496552 4.634483,0.248276c0.662069,-0.082759 1.572414,-0.496552 2.317241,-0.744828l0.248276,-0.082759l-0.165517,-0.331034l0,0z" fill="#3B5998"/>
      <path stroke="null" id="svg_10" d="m53.517242,29.468966c0,-0.993103 0,-2.068965 -0.165517,-2.97931c-0.413793,-2.648276 -2.068965,-4.386207 -4.717241,-4.882758c-0.993103,-0.165517 -2.151724,-0.165517 -3.144827,-0.082759c-2.813793,0.248276 -4.965517,2.068965 -5.462069,4.717241c-0.248276,1.572414 -0.331034,3.310345 -0.082759,4.965517c0.331034,2.4 1.489655,3.972414 3.558621,4.717241l0,0l0,0l0,0c0.910345,0.331034 5.544827,1.489655 9.517241,-0.57931l-0.165517,-0.662069l0,0c-0.165517,-0.827586 -0.413793,-1.572414 -0.662069,-2.317241l0,-0.082759c0,0 -0.082759,0 -0.248276,0.082759l0,0c-0.165517,0.082759 -0.331034,0.082759 -0.57931,0.165517l-0.082759,0c-0.662069,0.165517 -1.489655,0.413793 -2.4,0.496552c-0.827586,0.082759 -1.572414,0.082759 -2.4,0c-1.241379,-0.248276 -2.317241,-0.827586 -2.234483,-2.482759l0.744828,0c2.482759,0 5.048276,0 7.531034,0c0.082759,0 0.165517,0 0.165517,0l0,0l0.57931,0l0,-0.165517l0.248276,-0.910345zm-4.137931,-1.986207l-4.965517,0c0,-0.993103 0.165517,-1.903448 0.993103,-2.4c0.910345,-0.662069 1.986207,-0.662069 2.896552,-0.082759c1.075862,0.413793 1.158621,1.406896 1.075862,2.482759z" fill="#3B5998"/>
      <polygon stroke="null" id="svg_11" points="116.16551208496094,21.85517406463623 111.28275299072266,21.85517406463623 106.97930908203125,28.39310359954834 106.97930908203125,14.57241439819336 106.97930908203125,14.489656448364258 106.97930908203125,13.993104934692383 102.4275894165039,14.489656448364258 102.4275894165039,36.17241382598877 106.97930908203125,36.17241382598877 106.97930908203125,29.55172634124756 111.28275299072266,36.17241382598877 116.16551208496094,36.17241382598877 111.44827270507812,28.97241497039795 " fill="#3B5998"/>
      <path stroke="null" id="svg_12" d="m96.055172,21.689656c-1.572414,-0.413793 -3.227586,-0.413793 -4.8,0c-2.4,0.662069 -3.972414,2.151724 -4.468965,4.551724c-0.331034,1.324138 -0.331034,2.648276 -0.248276,3.972414c0.165517,3.062069 2.068965,5.296552 5.048276,5.875862c0.082759,0 0.082759,0 0.165517,0l0,0l0,0c0.082759,0 0.248276,0.082759 0.331034,0.082759l0.082759,0l0,0c0.165517,0 0.331034,0.082759 0.496552,0.082759c0.57931,0.082759 1.324138,0.082759 1.903448,0l0,0l0.082759,0c3.062069,-0.165517 5.37931,-2.068965 6.041379,-5.048276c0.413793,-1.655172 0.413793,-3.227586 0,-4.882758c-0.496552,-2.317241 -2.068965,-3.972414 -4.634483,-4.634483zm0.248276,8.855172c0,0.082759 0,0.165517 -0.082759,0.331034c-0.331034,1.324138 -1.241379,2.151724 -2.565517,2.068965c-1.406896,-0.082759 -2.4,-0.827586 -2.482759,-2.317241c-0.082759,-0.993103 -0.082759,-2.068965 0,-3.144827c0.165517,-1.655172 1.158621,-2.482759 2.648276,-2.482759c1.241379,0 2.151724,0.744828 2.4,1.986207c0.331034,1.158621 0.082759,3.310345 0.082759,3.558621z" fill="#3B5998"/>
     </g>
    </g>
    <g stroke="null" id="svg_13">
     <path stroke="null" id="svg_14" d="m135.779308,35.758621l-1.241379,-4.386207l-6.703448,0l-1.241379,4.386207l-1.655172,0l5.37931,-17.875861l1.82069,0l5.37931,17.875861l-1.737931,0zm-4.634483,-16.055172l-3.062069,10.344827l6.041379,0l-2.97931,-10.344827z" fill="#828282"/>
     <path stroke="null" id="svg_15" d="m146.951721,35.758621l0,-1.903448c-0.744828,1.324138 -2.068965,2.317241 -3.475862,2.317241c-2.896552,0 -4.551724,-2.731034 -4.551724,-6.786207s1.655172,-6.786207 4.551724,-6.786207c1.324138,0 2.648276,0.827586 3.475862,2.317241l0,-6.951724l1.324138,0l0,17.875861l-1.324138,-0.082759l0,0zm0,-3.227586l0,-6.372414c-0.57931,-1.241379 -1.82069,-2.4 -3.227586,-2.4c-2.317241,0 -3.393103,2.565517 -3.393103,5.544827c0,2.97931 0.993103,5.544827 3.393103,5.544827c1.406896,0 2.648276,-1.075862 3.227586,-2.317241z" fill="#828282"/>
     <path stroke="null" id="svg_16" d="m151.006894,34.268966l0.744828,-0.910345c0.744828,0.910345 1.82069,1.655172 3.310345,1.655172c1.655172,0 2.731034,-0.910345 2.731034,-2.4c0,-3.393103 -6.455172,-2.317241 -6.455172,-6.786207c0,-1.82069 1.489655,-3.310345 3.889655,-3.310345c1.655172,0 2.896552,0.662069 3.724138,1.655172l-0.744828,0.910345c-0.662069,-0.910345 -1.737931,-1.406896 -2.97931,-1.406896c-1.572414,0 -2.482759,0.910345 -2.482759,2.151724c0,3.144827 6.455172,2.234483 6.455172,6.786207c0,2.068965 -1.572414,3.558621 -3.972414,3.558621c-1.82069,0 -3.062069,-0.662069 -4.220689,-1.903448z" fill="#828282"/>
    </g>
   </g>
  </g>
 </g>
</svg>