<?xml version="1.0"?>
<svg width="160" height="50" xmlns="http://www.w3.org/2000/svg" xmlns:svg="http://www.w3.org/2000/svg">
 <g>
  <title>Layer 1</title>
  <g stroke="null" id="svg_9">
   <path stroke="null" d="m19.744085,25.726367c-0.999685,0 -1.832755,0.83307 -1.832755,1.916062l0,3.832124c0,0.166614 0.166614,0.416535 0.416535,0.416535l2.749133,0c0.249921,0 0.416535,-0.166614 0.416535,-0.416535l0,-3.748817c0,-1.082992 -0.749763,-1.916062 -1.749448,-1.999369l0,0z" fill="#514A59" id="Shape_4_"/>
   <path d="m35.239196,11.897398l-12.41275,-7.164406c-1.916062,-1.082992 -4.331966,-1.082992 -6.248028,0l-12.41275,7.164406c-2.332597,1.332913 -3.165668,3.248975 -3.165668,5.498265l0,14.412119c0,2.24929 1.166299,4.331966 3.082361,5.414958l12.496057,7.164406c1.916062,1.082992 4.331966,1.082992 6.248028,0l12.41275,-7.164406c1.916062,-1.082992 3.082361,-3.165668 3.082361,-5.414958l0,-14.412119c0.083307,-2.24929 -1.082992,-4.331966 -3.082361,-5.498265l0,0zm-8.330705,23.159359c0,0.333228 -0.249921,0.583149 -0.583149,0.583149l-13.24582,0c-0.333228,0 -0.583149,-0.249921 -0.583149,-0.583149l0,-2.749133c0,-0.333228 0.166614,-0.666456 0.333228,-0.83307l1.582834,-1.499527l0.916378,-8.830547c0,-0.249921 -0.083307,-0.499842 -0.249921,-0.666456l-1.249606,-1.082992c-0.249921,-0.249921 -0.416535,-0.499842 -0.416535,-0.83307l0,-4.331966c0,-0.333228 0.249921,-0.666456 0.583149,-0.666456l1.999369,0c0.333228,0 0.666456,0.249921 0.666456,0.583149l0,0.999685l1.582834,0l0,-0.916378c0,-0.333228 0.333228,-0.666456 0.666456,-0.666456l1.582834,0c0.333228,0 0.583149,0.249921 0.583149,0.583149l0,0.999685l1.582834,0l0,-0.916378c0,-0.416535 0.333228,-0.666456 0.749763,-0.666456l1.916062,0c0.333228,0 0.666456,0.249921 0.666456,0.583149l0,4.49858c0,0.249921 -0.166614,0.583149 -0.333228,0.749763l-1.332913,1.082992c-0.166614,0.166614 -0.249921,0.416535 -0.249921,0.583149l0.916378,8.913854l1.582834,1.582834c0.166614,0.166614 0.249921,0.416535 0.249921,0.666456l0.083307,2.83244l0,0z" fill="#514A59" id="Shape_5_"/>
   <path stroke="null" id="svg_2" d="m51.067534,33.140694c0,-0.83307 0,-1.582834 0,-2.415904c0.499842,0 0.999685,0 1.499527,0c0.249921,0 0.333228,-0.083307 0.333228,-0.333228c0,-3.582203 0,-7.164406 0,-10.746609c0,-0.083307 0,-0.083307 0,-0.166614c-0.583149,0 -1.166299,0 -1.832755,0c0,-0.83307 0,-1.666141 0,-2.415904c3.998738,0 7.914169,0 11.912908,0c0,1.499527 0,2.999054 0,4.581888c-0.83307,0 -1.666141,0 -2.582518,0c0,-0.583149 0,-1.166299 0,-1.749448c0,-0.333228 -0.083307,-0.499842 -0.499842,-0.499842c-1.249606,0 -2.582518,0 -3.832124,0c-0.166614,0 -0.416535,0 -0.416535,0.249921c0,1.41622 0,2.915747 0,4.415273c1.582834,0 3.165668,0 4.748502,0c0,0.83307 0,1.582834 0,2.332597c-1.582834,0 -3.165668,0 -4.748502,0c0,1.41622 0,2.83244 0,4.331966c0.666456,0 1.41622,0 2.082676,0c0,0.83307 0,1.582834 0,2.415904c-2.165983,0 -4.415273,0 -6.664564,0z" fill="#514A59"/>
   <path stroke="null" id="svg_4" d="m69.22847,33.390615c-2.915747,0 -5.08173,-1.749448 -5.664879,-4.581888c-0.583149,-3.248975 1.666141,-6.248028 4.998423,-6.581257c1.916062,-0.166614 3.582203,0.249921 4.915116,1.666141c1.499527,1.666141 1.916062,3.66551 1.166299,5.748186c-0.749763,2.082676 -2.24929,3.248975 -4.415273,3.582203c-0.333228,0.083307 -0.666456,0.083307 -0.999685,0.166614zm-2.999054,-5.664879c0.083307,0.416535 0.083307,0.749763 0.166614,1.082992c0.333228,1.249606 1.332913,2.24929 2.582518,2.332597c1.499527,0.083307 2.582518,-0.583149 3.082361,-1.916062c0.333228,-0.916378 0.333228,-1.916062 0,-2.83244c-0.416535,-1.249606 -1.582834,-1.999369 -2.83244,-1.916062c-1.332913,0 -2.415904,0.83307 -2.749133,2.082676c-0.166614,0.333228 -0.166614,0.83307 -0.249921,1.166299z" fill="#514A59"/>
   <path stroke="null" id="svg_5" d="m76.642797,33.140694c0,-0.749763 0,-1.41622 0,-2.165983c0.499842,0 0.999685,0 1.499527,0c0,-2.082676 0,-4.248659 0,-6.331335c-0.499842,0 -0.999685,0 -1.499527,0c0,-0.749763 0,-1.499527 0,-2.165983c1.332913,0 2.665825,0 4.082045,0c0,0.749763 0,1.499527 0,2.24929c0,0 0.083307,0 0.083307,0c0.083307,-0.083307 0.166614,-0.249921 0.249921,-0.333228c0.499842,-0.666456 0.999685,-1.332913 1.749448,-1.832755c0.666456,-0.416535 1.41622,-0.499842 2.165983,-0.249921c0.749763,0.249921 1.166299,0.83307 1.166299,1.582834c0,0.749763 -0.416535,1.332913 -1.082992,1.582834c-0.666456,0.249921 -1.41622,0 -1.832755,-0.583149c-0.083307,-0.083307 -0.083307,-0.166614 -0.166614,-0.249921c-0.583149,0.166614 -0.999685,0.583149 -1.41622,0.999685c-0.499842,0.499842 -0.83307,1.082992 -0.749763,1.832755c0.083307,1.082992 0,2.24929 0,3.415589c0.583149,0 1.166299,0 1.832755,0c0,0.749763 0,1.41622 0,2.165983c-1.999369,0.083307 -3.998738,0.083307 -6.081414,0.083307z" fill="#514A59"/>
   <path stroke="null" id="svg_1" d="m91.638066,30.974711c0.499842,0 0.916378,0 1.41622,0c0,0.749763 0,1.41622 0,2.165983c-1.832755,0 -3.748817,0 -5.581572,0c0,-0.666456 0,-1.41622 0,-2.165983c0.499842,0 0.999685,0 1.582834,0c0,-0.166614 0,-0.333228 0,-0.416535c0,-1.832755 0,-3.66551 0,-5.498265c0,-0.333228 -0.083307,-0.499842 -0.499842,-0.416535c-0.333228,0 -0.749763,0 -1.166299,0c0,-0.749763 0,-1.41622 0,-2.165983c1.332913,0 2.749133,0 4.082045,0c0,0.499842 0,0.999685 0,1.666141c0.166614,-0.166614 0.333228,-0.333228 0.416535,-0.416535c0.749763,-0.666456 1.499527,-1.249606 2.582518,-1.41622c1.499527,-0.249921 2.83244,0.166614 3.582203,1.666141c0.333228,-0.249921 0.749763,-0.583149 1.082992,-0.83307c0.999685,-0.749763 2.082676,-0.999685 3.332282,-0.83307c1.582834,0.249921 2.665825,1.41622 2.665825,3.248975c0,1.666141 0,3.248975 0,4.915116c0,0.166614 0,0.333228 0,0.499842c0.499842,0 1.082992,0 1.582834,0c0,0.749763 0,1.499527 0,2.165983c-1.916062,0 -3.748817,0 -5.664879,0c0,-0.749763 0,-1.41622 0,-2.165983c0.499842,0 0.916378,0 1.41622,0c0,-0.166614 0.083307,-0.249921 0.083307,-0.333228c0,-1.499527 0,-3.082361 -0.083307,-4.581888c-0.083307,-1.082992 -0.749763,-1.582834 -1.916062,-1.41622c-0.749763,0.166614 -1.41622,0.583149 -1.999369,0.999685c-0.083307,0.083307 -0.166614,0.166614 -0.166614,0.333228c0,1.666141 0,3.248975 0,4.998423c0.499842,0 0.916378,0 1.41622,0c0,0.749763 0,1.41622 0,2.165983c-1.832755,0 -3.66551,0 -5.498265,0c0,-0.666456 0,-1.41622 0,-2.165983c0.499842,0 0.916378,0 1.41622,0c0,-0.166614 0,-0.333228 0,-0.499842c0,-1.332913 0,-2.749133 0,-4.082045c0,-1.582834 -0.83307,-2.165983 -2.332597,-1.666141c-0.583149,0.166614 -1.082992,0.583149 -1.666141,0.916378c-0.083307,0.083307 -0.166614,0.166614 -0.166614,0.333228c0.083307,1.666141 0.083307,3.332282 0.083307,4.998423z" fill="#514A59"/>
   <path stroke="null" id="svg_3" d="m114.880731,24.726683c-0.916378,0.916378 -1.832755,1.832755 -2.749133,2.749133c-0.083307,0.083307 -0.083307,0.166614 -0.083307,0.249921c0,1.332913 0,2.749133 0,4.082045c0,0 0,0.083307 0.083307,0.083307c0.666456,0 1.332913,0 2.082676,0c0,0.416535 0,0.749763 0,1.166299c-1.916062,0 -3.748817,0 -5.664879,0c0,-0.416535 0,-0.749763 0,-1.166299c0.666456,0 1.41622,0 2.165983,0c0,-0.166614 0,-0.333228 0,-0.499842c0,-4.248659 0,-8.497319 0,-12.745978c0,-0.499842 0,-0.499842 -0.583149,-0.499842c-0.499842,0 -1.082992,0 -1.582834,0c0,-0.416535 0,-0.749763 0,-1.166299c1.916062,0 3.748817,0 5.664879,0c0,0.333228 0,0.666456 0,1.166299c-0.499842,0 -1.082992,0 -1.582834,0c-0.583149,0 -0.583149,0 -0.583149,0.583149c0,2.24929 0,4.49858 0,6.747871c0,0.166614 0,0.249921 0,0.333228c2.582518,-2.499211 5.08173,-5.08173 7.664248,-7.664248c-0.666456,0 -1.41622,0 -2.165983,0c0,-0.416535 0,-0.749763 0,-1.166299c1.916062,0 3.832124,0 5.748186,0c0,0.333228 0,0.749763 0,1.166299c-0.499842,0 -0.916378,0 -1.41622,0c-0.249921,0 -0.499842,0.083307 -0.666456,0.249921c-1.749448,1.666141 -3.415589,3.415589 -5.08173,5.08173c-0.249921,0.249921 -0.249921,0.333228 -0.083307,0.583149c1.749448,2.499211 3.498896,4.998423 5.165037,7.497634c0.166614,0.249921 0.333228,0.333228 0.666456,0.333228c0.499842,0 0.999685,0 1.499527,0c0,0.416535 0,0.749763 0,1.166299c-0.916378,0 -1.832755,0 -2.749133,0c-0.083307,0 -0.249921,-0.166614 -0.333228,-0.249921c-1.749448,-2.582518 -3.498896,-5.165037 -5.248344,-7.747555c0.083307,-0.083307 0,-0.166614 -0.166614,-0.333228z" fill="#514A59"/>
   <path stroke="null" id="svg_8" d="m137.540248,28.308886c0,2.082676 1.249606,3.498896 2.999054,3.832124c1.582834,0.333228 2.999054,0 4.331966,-0.749763c0.083307,-0.083307 0.166614,-0.083307 0.249921,-0.166614c0,0 0.083307,0 0.083307,0c0,0.333228 -0.083307,0.666456 -0.083307,1.082992c0,0.083307 -0.083307,0.166614 -0.166614,0.249921c-1.999369,1.249606 -5.248344,1.332913 -7.164406,-0.416535c-1.41622,-1.249606 -1.832755,-2.915747 -1.582834,-4.665195c0.166614,-1.916062 1.082992,-3.498896 2.83244,-4.248659c3.165668,-1.41622 6.664564,0.416535 6.664564,4.415273c0,0.916378 0,0.749763 -0.749763,0.749763c-2.415904,0 -4.831809,0 -7.164406,0c-0.083307,-0.083307 -0.166614,-0.083307 -0.249921,-0.083307zm0,-1.166299c2.332597,0 4.665195,0 6.914485,0c0,-1.41622 -0.83307,-3.248975 -3.165668,-3.415589c-1.916062,-0.083307 -3.582203,1.41622 -3.748817,3.415589z" fill="#514A59"/>
   <path stroke="null" id="svg_7" d="m125.710647,28.308886c-0.083307,2.082676 1.499527,3.748817 3.582203,3.915431c1.332913,0.083307 2.499211,-0.166614 3.66551,-0.749763c0.166614,-0.083307 0.333228,-0.166614 0.499842,-0.249921c0,0.083307 0,0.083307 0,0.083307c-0.083307,1.249606 0.166614,1.082992 -1.082992,1.582834c-1.999369,0.749763 -3.998738,0.83307 -5.831493,-0.416535c-1.332913,-0.83307 -1.999369,-2.165983 -2.165983,-3.66551c-0.166614,-1.749448 0.249921,-3.332282 1.499527,-4.665195c1.332913,-1.41622 3.082361,-1.749448 4.915116,-1.249606c1.832755,0.499842 2.749133,1.916062 3.082361,3.748817c0.083307,0.416535 0.083307,0.749763 0.083307,1.166299c0,0.416535 -0.083307,0.583149 -0.499842,0.499842c-2.415904,0 -4.831809,0 -7.247713,0c-0.166614,0 -0.333228,0 -0.499842,0zm0.083307,-1.166299c2.332597,0 4.581888,0 6.914485,0c0.083307,-1.999369 -1.41622,-3.498896 -3.415589,-3.415589c-1.916062,0 -3.66551,1.749448 -3.498896,3.415589z" fill="#514A59"/>
   <path id="svg_6" d="m150.702761,32.099277c0,1.666141 0,3.165668 0,4.831809c0.666456,0 1.41622,0 2.082676,0c0,0.416535 0,0.749763 0,1.082992c-1.666141,0 -3.332282,0 -4.998423,0c0,-0.333228 0,-0.666456 0,-1.082992c0.583149,0 1.082992,0 1.666141,0c0,-4.331966 0,-8.663933 0,-12.995899c-0.583149,0 -1.082992,0 -1.666141,0c0,-0.416535 0,-0.749763 0,-1.082992c0.916378,0 1.832755,0 2.83244,0c0,0.499842 0,0.999685 0,1.41622c0,0 0.083307,0 0.083307,0.083307c0.083307,-0.083307 0.166614,-0.166614 0.249921,-0.249921c1.332913,-1.41622 2.999054,-1.749448 4.831809,-1.249606c1.832755,0.583149 2.915747,1.916062 3.332282,3.748817c0.333228,1.749448 0.083307,3.332282 -0.999685,4.748502c-1.666141,2.165983 -4.748502,2.582518 -6.997792,0.999685c-0.083307,-0.083307 -0.249921,-0.166614 -0.416535,-0.249921zm0,-3.915431c0,0.83307 0,1.582834 0,2.415904c0,0.249921 0.083307,0.416535 0.333228,0.583149c0.583149,0.499842 1.332913,0.749763 2.082676,0.916378c2.082676,0.416535 3.915431,-0.499842 4.665195,-2.415904c0.416535,-1.082992 0.416535,-2.24929 0.083307,-3.332282c-0.499842,-1.666141 -1.999369,-2.749133 -3.748817,-2.665825c-1.249606,0.083307 -2.24929,0.583149 -3.082361,1.499527c-0.166614,0.166614 -0.249921,0.416535 -0.249921,0.583149c-0.166614,0.83307 -0.083307,1.666141 -0.083307,2.415904z" fill="#514A59"/>
  </g>
 </g>
</svg>