<?xml version="1.0"?>
<svg width="160" height="50" xmlns="http://www.w3.org/2000/svg" xmlns:svg="http://www.w3.org/2000/svg">
 <g>
  <title>Layer 1</title>
  <g stroke="null" id="svg_1">
   <g stroke="null" id="svg_2">
    <path stroke="null" id="svg_3" d="m114.034158,14.182297l-2.995671,0l0,22.051471l11.982686,0l0,-2.746032l-8.987014,0l0,-19.305438l0,0zm20.470422,18.140455c-0.748918,0.748918 -1.997114,1.581049 -3.661376,1.581049c-2.246754,0 -3.162098,-1.08177 -3.162098,-2.579606c0,-2.163541 1.497836,-3.245311 4.743147,-3.245311c0.582492,0 1.581049,0.083213 2.080327,0.166426l0,4.077442l0,0zm-3.078885,-13.314095c-2.41318,0 -4.57672,0.832131 -6.324195,2.246754l1.08177,1.830688c1.248196,-0.665705 2.662819,-1.414623 4.82636,-1.414623c2.41318,0 3.49495,1.248196 3.49495,3.328524l0,1.08177c-0.499279,-0.083213 -1.414623,-0.166426 -2.080327,-0.166426c-5.159212,0 -7.822031,1.830688 -7.822031,5.658491c0,3.411737 2.080327,5.075999 5.242425,5.075999c2.163541,0 4.160655,-0.998557 4.909573,-2.579606l0.499279,2.163541l2.080327,0l0,-11.316981c0,-3.578163 -1.497836,-5.90813 -5.90813,-5.90813l0,0zm15.477636,14.978357c-1.08177,0 -2.080327,-0.166426 -2.829245,-0.499279l0,-10.151998c0.998557,-0.832131 2.246754,-1.414623 3.827802,-1.414623c2.829245,0 3.994229,1.997114 3.994229,5.325638c0,4.57672 -1.747475,6.740261 -4.992786,6.740261m1.248196,-14.978357c-2.662819,0 -4.077442,1.830688 -4.077442,1.830688l0,-2.829245l0,-3.744589l-2.912458,0l0,21.468979c1.414623,0.582492 3.411737,0.915344 5.575277,0.915344c5.492064,0 8.154883,-3.49495 8.154883,-9.652719c0.083213,-4.82636 -2.41318,-7.988457 -6.740261,-7.988457m-66.404051,-2.496393c2.662819,0 4.327081,0.915344 5.408851,1.747475l1.248196,-2.246754c-1.747475,-1.497836 -4.077442,-2.329967 -6.573835,-2.329967c-6.324195,0 -10.734489,3.827802 -10.734489,11.56662c0,8.07167 4.743147,11.316981 10.235211,11.316981c2.746032,0 5.075999,-0.665705 6.573835,-1.248196l0,-8.654162l0,-2.746032l-8.07167,0l0,2.746032l5.159212,0l0.083213,6.573835c-0.665705,0.332852 -1.830688,0.582492 -3.411737,0.582492c-4.410294,0 -7.322753,-2.746032 -7.322753,-8.570949c0,-5.824917 2.995671,-8.737375 7.405966,-8.737375m20.886487,-2.329967l-2.912458,0l0,3.744589l0,12.814817c0,3.578163 1.581049,5.991343 5.991343,5.991343c0.582492,0 1.164983,-0.083213 1.747475,-0.166426l0,-2.579606c-0.416065,0.083213 -0.832131,0.083213 -1.33141,0.083213c-2.41318,0 -3.49495,-1.248196 -3.49495,-3.328524l0,-8.903801l4.82636,0l0,-2.41318l-4.82636,0c0,-0.083213 0,-5.242425 0,-5.242425zm-10.235211,22.051471l2.912458,0l0,-16.892259l-2.912458,0l0,16.892259l0,0zm0,-19.222225l2.912458,0l0,-2.829245l-2.912458,0l0,2.829245z" fill="#8C929D"/>
   </g>
   <path stroke="null" id="svg_4" d="m31.486766,49.381437l9.652719,-29.790289l-19.305438,0l9.652719,29.790289l0,0z" fill="#E24329"/>
   <path stroke="null" id="svg_5" d="m31.486766,49.381437l-9.652719,-29.873502l-13.563735,0l23.216454,29.873502l0,0z" fill="#FC6D26"/>
   <path stroke="null" id="svg_6" d="m8.270312,19.507936l-2.995671,9.070228c-0.249639,0.832131 0,1.747475 0.748918,2.246754l25.463208,18.556521l-23.216454,-29.873502l0,0z" fill="#FCA326"/>
   <path stroke="null" id="svg_7" d="m8.270312,19.507936l13.563735,0l-5.824917,-17.974029c-0.332852,-0.915344 -1.581049,-0.915344 -1.913901,0l-5.824917,17.974029l0,0z" fill="#E24329"/>
   <path stroke="null" id="svg_8" d="m31.486766,49.381437l9.652719,-29.790289l13.563735,0l-23.216454,29.790289l0,0z" fill="#FC6D26"/>
   <path stroke="null" id="svg_9" d="m54.786433,19.507936l2.912458,9.070228c0.249639,0.832131 0,1.747475 -0.748918,2.246754l-25.463208,18.556521l23.299667,-29.873502l0,0z" fill="#FCA326"/>
   <path stroke="null" id="svg_10" d="m54.786433,19.507936l-13.563735,0l5.824917,-17.974029c0.332852,-0.915344 1.581049,-0.915344 1.913901,0l5.824917,17.974029l0,0z" fill="#E24329"/>
  </g>
 </g>
</svg>