<?xml version="1.0"?>
<svg width="160" height="50" xmlns="http://www.w3.org/2000/svg" xmlns:svg="http://www.w3.org/2000/svg">
 <g>
  <title>Layer 1</title>
  <g display="none" id="Layer_2">
   <rect id="svg_1" height="90" width="260" stroke-miterlimit="10" stroke-width="1.1277" stroke="#E8E7E7" fill="none" y="0.6" x="-10"/>
  </g>
  <g stroke="null" id="Layer_1">
   <g stroke="null" id="svg_2">
    <g stroke="null" id="svg_3">
     <path stroke="null" id="svg_4" d="m35.419647,31.173831c-1.969565,0 -3.711873,-0.681773 -5.151171,-2.12107c-1.439298,-1.439298 -2.196823,-3.105853 -2.196823,-5.075418c0,-1.969565 0.757525,-3.711873 2.196823,-5.075418c1.439298,-1.439298 3.181605,-2.12107 5.151171,-2.12107c1.893813,0 3.560368,0.681773 4.923913,1.969565l-1.363545,1.363545c-0.984783,-0.90903 -2.196823,-1.439298 -3.560368,-1.439298c-1.439298,0 -2.651338,0.530268 -3.63612,1.51505c-0.984783,0.984783 -1.51505,2.272575 -1.51505,3.711873c0,1.439298 0.530268,2.72709 1.51505,3.711873c0.984783,0.984783 2.196823,1.51505 3.63612,1.51505c1.439298,0 2.651338,-0.454515 3.63612,-1.439298c0.60602,-0.60602 0.90903,-1.363545 1.060535,-2.499833l-4.696656,0l0,-1.969565l6.666221,0c0.075753,0.378763 0.075753,0.757525 0.075753,1.21204c0,1.969565 -0.60602,3.484615 -1.742308,4.620903c-1.21204,1.439298 -2.954348,2.12107 -4.999666,2.12107zm15.453512,-1.287793c-0.90903,0.90903 -1.969565,1.363545 -3.33311,1.363545c-1.287793,0 -2.42408,-0.454515 -3.33311,-1.363545c-0.90903,-0.90903 -1.363545,-1.969565 -1.363545,-3.33311c0,-1.287793 0.454515,-2.42408 1.363545,-3.33311c0.90903,-0.90903 1.969565,-1.363545 3.33311,-1.363545c1.287793,0 2.42408,0.454515 3.33311,1.363545c0.90903,0.90903 1.363545,1.969565 1.363545,3.33311c-0.075753,1.287793 -0.454515,2.42408 -1.363545,3.33311zm-5.151171,-1.363545c0.530268,0.530268 1.136288,0.833278 1.81806,0.833278c0.681773,0 1.363545,-0.30301 1.81806,-0.833278c0.530268,-0.530268 0.757525,-1.21204 0.757525,-2.045318c0,-0.833278 -0.227258,-1.51505 -0.757525,-2.045318c-0.530268,-0.530268 -1.136288,-0.757525 -1.81806,-0.757525c-0.757525,0 -1.363545,0.227258 -1.81806,0.757525c-0.530268,0.530268 -0.757525,1.21204 -0.757525,2.045318c-0.075753,0.90903 0.227258,1.51505 0.757525,2.045318zm15.302007,1.363545c-0.90903,0.90903 -1.969565,1.363545 -3.33311,1.363545s-2.42408,-0.454515 -3.33311,-1.363545s-1.363545,-1.969565 -1.363545,-3.33311c0,-1.287793 0.454515,-2.42408 1.363545,-3.33311s1.969565,-1.363545 3.33311,-1.363545s2.42408,0.454515 3.33311,1.363545c0.90903,0.90903 1.363545,1.969565 1.363545,3.33311c0,1.287793 -0.454515,2.42408 -1.363545,3.33311zm-5.151171,-1.363545c0.530268,0.530268 1.136288,0.833278 1.81806,0.833278c0.681773,0 1.363545,-0.30301 1.81806,-0.833278c0.530268,-0.530268 0.757525,-1.21204 0.757525,-2.045318c0,-0.833278 -0.227258,-1.51505 -0.757525,-2.045318c-0.530268,-0.530268 -1.136288,-0.757525 -1.81806,-0.757525s-1.363545,0.227258 -1.81806,0.757525c-0.530268,0.530268 -0.757525,1.21204 -0.757525,2.045318c0,0.90903 0.227258,1.51505 0.757525,2.045318zm11.817391,6.817726c-1.060535,0 -1.893813,-0.30301 -2.575585,-0.833278c-0.681773,-0.530268 -1.21204,-1.21204 -1.51505,-1.893813l1.742308,-0.757525c0.151505,0.454515 0.454515,0.833278 0.90903,1.136288c0.378763,0.30301 0.90903,0.530268 1.439298,0.530268c0.757525,0 1.363545,-0.227258 1.81806,-0.681773c0.454515,-0.454515 0.681773,-1.136288 0.681773,-2.045318l0,-0.681773l-0.075753,0c-0.60602,0.681773 -1.363545,1.060535 -2.42408,1.060535c-1.21204,0 -2.196823,-0.454515 -3.105853,-1.363545c-0.90903,-0.90903 -1.363545,-1.969565 -1.363545,-3.257358c0,-1.287793 0.454515,-2.42408 1.363545,-3.33311c0.90903,-0.90903 1.893813,-1.363545 3.105853,-1.363545c0.530268,0 0.984783,0.075753 1.439298,0.30301c0.454515,0.227258 0.757525,0.454515 0.984783,0.757525l0.075753,0l0,-0.757525l1.969565,0l0,8.332776c0,1.590803 -0.378763,2.802843 -1.21204,3.63612c-0.90903,0.833278 -1.969565,1.21204 -3.257358,1.21204zm0.151505,-5.984448c0.681773,0 1.287793,-0.30301 1.742308,-0.833278c0.454515,-0.530268 0.681773,-1.21204 0.681773,-1.969565c0,-0.833278 -0.227258,-1.51505 -0.681773,-2.045318c-0.454515,-0.530268 -1.060535,-0.833278 -1.742308,-0.833278c-0.681773,0 -1.287793,0.30301 -1.81806,0.833278c-0.530268,0.530268 -0.757525,1.21204 -0.757525,2.045318c0,0.833278 0.227258,1.439298 0.757525,1.969565c0.454515,0.60602 1.060535,0.833278 1.81806,0.833278zm7.726756,-12.120401l0,13.635452l-2.045318,0l0,-13.635452l2.045318,0zm5.605686,13.938462c-1.287793,0 -2.42408,-0.454515 -3.257358,-1.363545c-0.90903,-0.90903 -1.287793,-1.969565 -1.287793,-3.33311c0,-1.363545 0.454515,-2.499833 1.287793,-3.33311c0.833278,-0.833278 1.893813,-1.287793 3.105853,-1.287793c0.530268,0 1.060535,0.075753 1.590803,0.30301c0.454515,0.227258 0.90903,0.454515 1.21204,0.757525c0.30301,0.30301 0.60602,0.60602 0.757525,0.90903c0.151505,0.30301 0.30301,0.60602 0.454515,0.90903l0.227258,0.530268l-6.211706,2.575585c0.454515,0.90903 1.21204,1.439298 2.272575,1.439298c0.90903,0 1.666555,-0.454515 2.272575,-1.287793l1.590803,1.060535c-0.378763,0.530268 -0.833278,0.984783 -1.51505,1.439298c-0.757525,0.454515 -1.590803,0.681773 -2.499833,0.681773zm-2.575585,-4.772408l4.166388,-1.742308c-0.151505,-0.30301 -0.30301,-0.530268 -0.681773,-0.681773c-0.30301,-0.151505 -0.681773,-0.30301 -1.060535,-0.30301c-0.60602,0 -1.136288,0.227258 -1.666555,0.757525c-0.530268,0.530268 -0.833278,1.136288 -0.757525,1.969565z" fill="#757D80"/>
     <path stroke="null" id="svg_5" d="m89.506939,30.870821l4.772408,-12.574916l1.81806,0l4.772408,12.574916l-1.81806,0l-1.21204,-3.408863l-5.302676,0l-1.21204,3.408863l-1.81806,0zm3.63612,-4.923913l4.166388,0l-2.045318,-5.681438l-0.075753,0l-2.045318,5.681438z" fill="#757D80"/>
     <path stroke="null" id="svg_6" d="m105.414965,31.173831c-1.136288,0 -2.045318,-0.454515 -2.878595,-1.287793c-0.833278,-0.90903 -1.21204,-1.969565 -1.21204,-3.257358c0,-1.287793 0.378763,-2.42408 1.21204,-3.257358c0.833278,-0.90903 1.742308,-1.287793 2.878595,-1.287793c0.681773,0 1.21204,0.151505 1.742308,0.454515c0.530268,0.30301 0.90903,0.60602 1.136288,1.060535l0.075753,0l-0.075753,-1.21204l0,-3.93913l1.590803,0l0,12.574916l-1.51505,0l0,-1.21204l-0.075753,0c-0.227258,0.454515 -0.681773,0.757525 -1.136288,1.060535c-0.530268,0.151505 -1.060535,0.30301 -1.742308,0.30301zm0.227258,-1.439298c0.757525,0 1.439298,-0.30301 1.969565,-0.833278c0.530268,-0.530268 0.833278,-1.287793 0.833278,-2.272575c0,-0.984783 -0.30301,-1.742308 -0.833278,-2.272575c-0.530268,-0.530268 -1.21204,-0.833278 -1.969565,-0.833278c-0.757525,0 -1.363545,0.30301 -1.969565,0.833278c-0.530268,0.60602 -0.833278,1.287793 -0.833278,2.272575c0,0.90903 0.30301,1.666555 0.833278,2.272575c0.60602,0.530268 1.21204,0.833278 1.969565,0.833278z" fill="#757D80"/>
     <path stroke="null" id="svg_7" d="m126.852925,18.295904l-3.33311,12.574916l-1.666555,0l-2.72709,-8.332776l-0.075753,0l-2.72709,8.332776l-1.666555,0l-3.484615,-12.574916l1.666555,0l2.651338,9.923579l0.075753,0l2.72709,-8.181271l1.51505,0l2.72709,8.181271l0.075753,0l2.499833,-9.923579l1.742308,0z" fill="#757D80"/>
     <path stroke="null" id="svg_8" d="m127.91346,23.29557c0.833278,-0.90903 1.893813,-1.287793 3.181605,-1.287793c1.287793,0 2.348328,0.454515 3.181605,1.287793c0.833278,0.90903 1.21204,1.969565 1.21204,3.257358c0,1.287793 -0.378763,2.42408 -1.21204,3.257358c-0.833278,0.90903 -1.893813,1.287793 -3.181605,1.287793c-1.287793,0 -2.348328,-0.454515 -3.181605,-1.287793c-0.833278,-0.90903 -1.21204,-1.969565 -1.21204,-3.257358c0,-1.287793 0.378763,-2.348328 1.21204,-3.257358zm1.21204,5.529933c0.530268,0.60602 1.21204,0.833278 1.969565,0.833278c0.757525,0 1.439298,-0.30301 1.969565,-0.833278c0.530268,-0.60602 0.833278,-1.287793 0.833278,-2.272575c0,-0.90903 -0.30301,-1.666555 -0.833278,-2.272575c-0.530268,-0.60602 -1.21204,-0.833278 -1.969565,-0.833278c-0.757525,0 -1.439298,0.30301 -1.969565,0.833278c-0.530268,0.60602 -0.833278,1.287793 -0.833278,2.272575c0,0.984783 0.30301,1.742308 0.833278,2.272575z" fill="#757D80"/>
     <path stroke="null" id="svg_9" d="m138.443059,30.870821l-1.590803,0l0,-8.560033l1.51505,0l0,1.439298l0.075753,0c0.151505,-0.454515 0.530268,-0.833278 0.984783,-1.136288c0.530268,-0.30301 0.984783,-0.454515 1.51505,-0.454515c0.454515,0 0.90903,0.075753 1.21204,0.227258l-0.60602,1.51505c-0.227258,-0.075753 -0.530268,-0.151505 -0.833278,-0.151505c-0.60602,0 -1.136288,0.227258 -1.590803,0.681773c-0.454515,0.454515 -0.681773,1.060535 -0.681773,1.81806l0,4.620903z" fill="#757D80"/>
     <path stroke="null" id="svg_10" d="m146.32132,31.173831c-1.136288,0 -2.045318,-0.454515 -2.878595,-1.287793c-0.833278,-0.90903 -1.21204,-1.969565 -1.21204,-3.257358c0,-1.287793 0.378763,-2.42408 1.21204,-3.257358c0.833278,-0.90903 1.742308,-1.287793 2.878595,-1.287793c0.681773,0 1.21204,0.151505 1.742308,0.454515c0.530268,0.30301 0.90903,0.60602 1.136288,1.060535l0.075753,0l-0.075753,-1.21204l0,-3.93913l1.590803,0l0,12.574916l-1.51505,0l0,-1.21204l-0.075753,0c-0.227258,0.454515 -0.681773,0.757525 -1.136288,1.060535c-0.530268,0.151505 -1.060535,0.30301 -1.742308,0.30301zm0.227258,-1.439298c0.757525,0 1.439298,-0.30301 1.969565,-0.833278c0.530268,-0.530268 0.833278,-1.287793 0.833278,-2.272575c0,-0.984783 -0.30301,-1.742308 -0.833278,-2.272575c-0.530268,-0.530268 -1.21204,-0.833278 -1.969565,-0.833278c-0.757525,0 -1.363545,0.30301 -1.969565,0.833278c-0.530268,0.60602 -0.833278,1.287793 -0.833278,2.272575c0,0.90903 0.30301,1.666555 0.833278,2.272575c0.60602,0.530268 1.287793,0.833278 1.969565,0.833278z" fill="#757D80"/>
     <path stroke="null" id="svg_11" d="m155.941889,31.173831c-0.984783,0 -1.742308,-0.227258 -2.348328,-0.681773c-0.60602,-0.454515 -1.060535,-1.060535 -1.363545,-1.742308l1.439298,-0.60602c0.454515,1.060535 1.21204,1.590803 2.348328,1.590803c0.530268,0 0.90903,-0.075753 1.21204,-0.30301c0.30301,-0.227258 0.454515,-0.530268 0.454515,-0.90903c0,-0.530268 -0.378763,-0.90903 -1.21204,-1.136288l-1.742308,-0.454515c-0.530268,-0.151505 -1.060535,-0.378763 -1.590803,-0.833278c-0.530268,-0.378763 -0.757525,-0.90903 -0.757525,-1.590803c0,-0.757525 0.30301,-1.363545 0.984783,-1.81806c0.681773,-0.454515 1.439298,-0.681773 2.42408,-0.681773c0.757525,0 1.439298,0.151505 2.045318,0.530268c0.60602,0.378763 1.060535,0.833278 1.287793,1.51505l-1.439298,0.60602c-0.30301,-0.757525 -0.984783,-1.136288 -1.969565,-1.136288c-0.454515,0 -0.90903,0.075753 -1.21204,0.30301c-0.30301,0.227258 -0.530268,0.454515 -0.530268,0.833278c0,0.530268 0.378763,0.833278 1.136288,0.984783l1.742308,0.378763c0.833278,0.151505 1.439298,0.530268 1.81806,0.984783c0.378763,0.454515 0.60602,0.984783 0.60602,1.51505c0,0.757525 -0.30301,1.439298 -0.984783,1.969565c-0.530268,0.454515 -1.363545,0.681773 -2.348328,0.681773z" fill="#757D80"/>
    </g>
    <path stroke="null" id="svg_12" d="m14.96647,33.522158l4.620903,0l0,0l-6.287458,-18.786622l0,18.10485c0.454515,0.378763 0.984783,0.681773 1.666555,0.681773" fill="#099B59"/>
    <path stroke="null" id="svg_13" d="m10.11831,24.053095l2.651338,7.878261c0,0 0,0 0,0c0.151505,0.30301 0.30301,0.60602 0.530268,0.833278l0,-18.10485l0,0l-3.181605,9.393311z" fill="#0A6F3D"/>
    <path stroke="null" id="svg_14" d="m7.012457,14.659784l0,0l0,0l-6.287458,18.862375l0,0l4.620903,0c0.681773,0 1.287793,-0.30301 1.666555,-0.681773c0.227258,-0.227258 0.378763,-0.530268 0.530268,-0.833278c0,0 0,0 0,0l5.757191,-17.271572l-6.287458,-0.075753l0,0l0,0z" fill="#547CBE"/>
   </g>
  </g>
 </g>
</svg>