<?xml version="1.0"?>
<svg width="160" height="50" xmlns="http://www.w3.org/2000/svg" xmlns:svg="http://www.w3.org/2000/svg">
 <g>
  <title>Layer 1</title>
  <g display="none" id="Layer_2">
   <rect id="svg_1" height="90" width="260" stroke-miterlimit="10" stroke-width="1.1277" stroke="#E8E7E7" fill="none" x="-10"/>
  </g>
  <g id="Layer_1">
   <g id="svg_2">
    <path id="svg_3" d="m61.500003,38.049999l0,-14.3c0,-1 -0.7,-1.5 -1.7,-1.5c-1.8,0 -4,0.5 -5.9,1.3l0,14.5l-4,0l0.2,-26.6l4,0l0,8.8c2,-0.7 4.3,-1.3 6.4,-1.3c3.6,0 5.1,2.3 5,5.4l0,13.9l-4,-0.2l0,0zm11.6,-8.6c0.2,4.8 1,5.8 4,5.8c2.3,0 5,-0.8 6.9,-1.5l0.7,3c-2.1,1 -4.8,2 -7.9,1.8c-6.8,0 -7.8,-3.8 -7.8,-9.6c0,-3.3 0.3,-6.1 1,-8.9c2,-0.8 4.8,-1.2 8.1,-1.2c5.4,0 7.3,3.1 7.1,8.4l0,2l-12.1,0.2l0,0zm5.2,-7.1c-1.2,0 -3.1,0 -4.8,0.3c-0.2,0.8 -0.3,2 -0.5,4l8.4,0c0.1,-2.8 -0.4,-4.3 -3.1,-4.3l0,0zm14.7,1.4l0,14.5l-4,0l0,-16.4c3.5,-1.8 6.9,-2.3 9.4,-2.5l0,3.3c-1.7,0.2 -3.7,0.4 -5.4,1.1l0,0zm16.1,15.1c-6.1,0 -8.8,-3 -8.8,-9.7c0,-7.1 3.6,-9.9 8.8,-9.9c5.9,0 8.8,3 8.8,9.7c-0.1,7.1 -3.7,9.9 -8.8,9.9l0,0zm0,-16.3c-3.1,0 -4.8,1.8 -4.8,6.4c0,5.1 1.5,6.3 4.8,6.3c3.1,0 4.8,-1.7 4.8,-6.4c-0.1,-5.1 -1.5,-6.3 -4.8,-6.3l0,0zm28.2,15.9l-4.8,0c-1.2,-3 -2.6,-5.9 -5,-8.6l-2.1,0l0,8.6l-4,0l0,-26.6l4,0l0,15.4l1.8,0c2,-2.1 3.6,-4.8 4.8,-7.3l4.6,0c-1.5,3.1 -3.6,5.9 -5.8,8.1c2.7,3.3 4.7,6.9 6.5,10.4l0,0zm7.6,0.4c-3.6,0 -5.1,-2.3 -5,-5.4l0,-13.9l4,0l0,14.4c0,1 0.7,1.5 1.7,1.5c1.8,0 4.1,-0.5 6.1,-1.3l0,-14.6l4,0l0,16.2c-4.9,3 -8.7,3.3 -10.8,3.1l0,0z" fill="#6762A6"/>
    <path id="svg_4" d="m36.700003,47.849999l-28.1,-0.2c-2.5,0 -4.3,-2 -4.3,-4.5l0,-36.8c0,-2.5 2,-4.3 4.3,-4.3l28.1,0.2c2.5,0 4.3,2 4.3,4.5l-0.2,37c0.2,2.2 -1.7,4.2 -4.1,4.1l0,0zm3,-41c0,-1.7 -1.3,-3.1 -3.1,-3.1l-27.6,-0.2c-1.7,0 -3.1,1.3 -3.1,3.1l-0.2,36.5c0,1.7 1.3,3.1 3.1,3.1l27.6,0.2c1.7,0 3.1,-1.3 3.1,-3.1l0.2,-36.5l0,0z" fill="#6762A6"/>
    <path id="svg_5" d="m27.300003,41.549999l0,-18.2c0,0 1.2,-4.3 -14.5,1.7l0,-16.9l5.1,0l0,10.8c0,0 14.4,-5.6 14.4,4.3s0,18.2 0,18.2l-5,0.1l0,0zm3.2,-26.6l-5.5,0c2,-2.3 3.8,-6.4 3.8,-6.4l5.6,0c-0.1,0 -1,2.6 -3.9,6.4l0,0zm-17.7,26.6l0,-10.4l5.1,5.1l-5.1,5.3l0,0z" fill="#6762A6"/>
   </g>
  </g>
 </g>
</svg>