<?xml version="1.0"?>
<svg width="160" height="50" xmlns="http://www.w3.org/2000/svg" xmlns:svg="http://www.w3.org/2000/svg">
 <defs>
  <style>.cls-1{fill:#fc0;}.cls-2{fill:#1e2023;}</style>
 </defs>
 <title>webhooks_logo_240x90_web</title>
 <g>
  <title>Layer 1</title>
  <g id="OvHZFw.tif">
   <path id="svg_1" d="m23.12,21.183403c-2,3.33 -3.88,6.56 -5.82,9.77a2.55,2.55 0 0 0 -0.35,2.54a4.75,4.75 0 0 1 -3.36,6.46a4.85,4.85 0 0 1 -6,-4a5,5 0 0 1 4.41,-5.56c0.24,0 0.49,0 0.89,-0.07l4.37,-7.32c-2.75,-2.73 -4.38,-5.92 -4,-9.88a11.23,11.23 0 0 1 3.36,-7.19a11.42,11.42 0 0 1 14.25,-1.5a11.1,11.1 0 0 1 4.63,12.88l-4,-1.08a7.56,7.56 0 0 0 -1.61,-6.91a6.9,6.9 0 0 0 -4.32,-2.26a7,7 0 0 0 -7.68,5c-1.08,3.71 0.61,6.8 5.23,9.12z" class="cls-1"/>
   <path id="svg_2" d="m28.79,17.243403l4.22,7.45a11.49,11.49 0 0 1 10.56,20.2a11.31,11.31 0 0 1 -14.75,-1.47l3.25,-2.72c4.1,2.65 7.68,2.53 10.34,-0.61a7.13,7.13 0 0 0 -0.11,-9.32c-2.69,-3 -6.3,-3.12 -10.66,-0.21c-1.81,-3.21 -3.65,-6.39 -5.4,-9.63a3.28,3.28 0 0 0 -2.57,-2a4.58,4.58 0 0 1 -3.74,-4.43a4.83,4.83 0 0 1 8.57,-3.22a4.55,4.55 0 0 1 0.84,4.5c-0.13,0.47 -0.34,0.91 -0.55,1.46z" class="cls-2"/>
   <path id="svg_3" d="m32.13,37.393403l-8.56,0a11.72,11.72 0 0 1 -5.64,7.83a11.41,11.41 0 0 1 -7.65,1.36a11.63,11.63 0 0 1 -9.47,-10.4a11.51,11.51 0 0 1 8.82,-12l1.1,4c-4.84,2.47 -6.51,5.58 -5.16,9.47a7,7 0 0 0 8.25,4.57c3.75,-0.74 5.65,-3.86 5.42,-8.87c3.56,0 7.12,0 10.68,0a3.9,3.9 0 0 0 3.51,-1.35a4.61,4.61 0 0 1 6.75,0.07a4.85,4.85 0 1 1 -7,6.71a16.73,16.73 0 0 1 -1.05,-1.39z" class="cls-2"/>
  </g>
  <path id="svg_4" d="m57.77,19.82l3.29,0l1.89,8.93l1.93,-8.93l3.38,0l-3.59,12.4l-3.33,0l-1.95,-9l-2,9l-3.33,0l-3.48,-12.4l3.48,0l1.94,8.89l1.77,-8.89z" class="cls-2"/>
  <path id="svg_5" d="m77.28,20.07a5,5 0 0 1 2.14,1.83a6.09,6.09 0 0 1 1,2.56a15.87,15.87 0 0 1 0.11,2.46l-9,0a3,3 0 0 0 1.3,2.62a3.29,3.29 0 0 0 1.79,0.47a2.52,2.52 0 0 0 2.38,-1.43l3.31,0a4,4 0 0 1 -1.2,2.24a6,6 0 0 1 -4.66,1.81a6.76,6.76 0 0 1 -4.37,-1.53q-1.89,-1.53 -1.89,-5a6.71,6.71 0 0 1 1.71,-4.94a6,6 0 0 1 4.47,-1.66a7.05,7.05 0 0 1 2.91,0.57zm-4.85,2.8a3.37,3.37 0 0 0 -0.86,1.92l5.58,0a2.7,2.7 0 0 0 -0.86,-2a2.84,2.84 0 0 0 -1.92,-0.67a2.57,2.57 0 0 0 -1.94,0.75z" class="cls-2"/>
  <path id="svg_6" d="m92.48,21.31a7.12,7.12 0 0 1 1.39,4.55a8,8 0 0 1 -1.37,4.79a5,5 0 0 1 -6.31,1.29a4.92,4.92 0 0 1 -1.19,-1.28l0,1.56l-3.2,0l0,-16.72l3.2,0l0,6a4.75,4.75 0 0 1 1.36,-1.32a4.07,4.07 0 0 1 2.24,-0.57a4.63,4.63 0 0 1 3.88,1.7zm-2.71,7.55a4.59,4.59 0 0 0 0.7,-2.66a6,6 0 0 0 -0.34,-2.18a2.4,2.4 0 0 0 -2.41,-1.64a2.43,2.43 0 0 0 -2.44,1.6a6,6 0 0 0 -0.34,2.21a4.59,4.59 0 0 0 0.71,2.64a2.44,2.44 0 0 0 2.17,1a2.25,2.25 0 0 0 1.95,-0.97z" class="cls-2"/>
  <path id="svg_7" d="m104.4,19.88a3.64,3.64 0 0 1 1.53,1.22a3.25,3.25 0 0 1 0.62,1.43a17.62,17.62 0 0 1 0.11,2.4l0,7.29l-3.31,0l0,-7.56a3.34,3.34 0 0 0 -0.34,-1.62a1.7,1.7 0 0 0 -1.67,-0.87a2.29,2.29 0 0 0 -1.94,0.86a4,4 0 0 0 -0.66,2.45l0,6.72l-3.24,0l0,-16.7l3.24,0l0,5.91a4,4 0 0 1 1.62,-1.51a4.58,4.58 0 0 1 1.94,-0.43a5.25,5.25 0 0 1 2.1,0.41z" class="cls-2"/>
  <path id="svg_8" d="m119.33,30.7a6.83,6.83 0 0 1 -9.53,0a7.69,7.69 0 0 1 0,-9.31a6.76,6.76 0 0 1 9.53,0a7.69,7.69 0 0 1 0,9.31zm-2.59,-1.79a4.7,4.7 0 0 0 0.76,-2.87a4.67,4.67 0 0 0 -0.76,-2.87a2.88,2.88 0 0 0 -4.37,0a4.64,4.64 0 0 0 -0.77,2.87a4.67,4.67 0 0 0 0.77,2.87a2.87,2.87 0 0 0 4.37,0z" class="cls-2"/>
  <path id="svg_9" d="m132.92,30.7a6.83,6.83 0 0 1 -9.53,0a7.69,7.69 0 0 1 0,-9.31a6.76,6.76 0 0 1 9.53,0a7.69,7.69 0 0 1 0,9.31zm-2.59,-1.79a4.7,4.7 0 0 0 0.76,-2.87a4.68,4.68 0 0 0 -0.76,-2.87a2.88,2.88 0 0 0 -4.37,0a4.64,4.64 0 0 0 -0.77,2.87a4.67,4.67 0 0 0 0.81,2.86a2.87,2.87 0 0 0 4.37,0l-0.04,0.01z" class="cls-2"/>
  <path id="svg_10" d="m136.1,15.5l3.18,0l0,9l4.09,-4.68l4,0l-4.37,4.68l4.62,7.72l-3.94,0l-3,-5.3l-1.34,1.4l0,3.9l-3.24,0l0,-16.72z" class="cls-2"/>
  <path id="svg_11" d="m150.67,28.25a2.16,2.16 0 0 0 0.45,1.23a3,3 0 0 0 2.24,0.65a3.42,3.42 0 0 0 1.53,-0.28a1,1 0 0 0 0.11,-1.68a18.59,18.59 0 0 0 -3.39,-1a7.05,7.05 0 0 1 -3,-1.31a2.84,2.84 0 0 1 -0.86,-2.23a3.86,3.86 0 0 1 1.35,-3a5.43,5.43 0 0 1 3.8,-1.23a7,7 0 0 1 3.79,0.93a4,4 0 0 1 1.68,3.2l-3.24,0a1.92,1.92 0 0 0 -0.35,-1a2.23,2.23 0 0 0 -1.83,-0.66a2.63,2.63 0 0 0 -1.51,0.33a1,1 0 0 0 -0.45,0.77a0.85,0.85 0 0 0 0.48,0.81a20.7,20.7 0 0 0 3.38,0.9a6.21,6.21 0 0 1 2.9,1.38a3.12,3.12 0 0 1 1,2.33a3.77,3.77 0 0 1 -1.37,3a8.25,8.25 0 0 1 -8.57,-0.07a4,4 0 0 1 -1.4,-3.15l3.29,0l-0.03,0.08z" class="cls-2"/>
 </g>
</svg>