<?xml version="1.0"?>
<svg width="160" height="50" xmlns="http://www.w3.org/2000/svg" xmlns:svg="http://www.w3.org/2000/svg">
 <g>
  <title>Layer 1</title>
  <g stroke="null" id="svg_1">
   <linearGradient transform="translate(0,6.574587821960449) translate(0.149993896484375,0) translate(0,-0.20000000298023224) scale(0.9383078813552856) translate(0,0.20000000298023224) " stroke="null" y2="0.133152" x2="0.222949" y1="0.974661" x1="0.782847" id="SVGID_1_">
    <stop stroke="null" stop-color="#F1BD0F" offset="0"/>
    <stop stroke="null" stop-color="#F3A211" offset="1"/>
   </linearGradient>
   <path stroke="null" id="svg_2" d="m20.042121,18.103436l8.444771,19.704466c-2.721093,2.064277 -6.099001,3.190247 -9.758402,3.190247c-3.190247,0 -6.286663,-1.032139 -8.820094,-2.627262c-4.410047,-2.814924 -7.318801,-7.881786 -7.318801,-13.511633c0,-0.562985 0,-1.2198 0.093831,-1.782785l14.356111,-6.192832c1.2198,-0.469154 2.533431,0.093831 3.002585,1.2198l0,0z" fill="url(#SVGID_1_)"/>
   <linearGradient transform="translate(0,6.574587821960449) translate(0.149993896484375,0) translate(0,-0.20000000298023224) scale(0.9383078813552856) translate(0,0.20000000298023224) " stroke="null" y2="0.502748" x2="0.997239" y1="0.502748" x1="-0.002046" id="SVGID_2_">
    <stop stroke="null" stop-color="#D75F09" offset="0"/>
    <stop stroke="null" stop-color="#E07118" offset="1"/>
   </linearGradient>
   <path stroke="null" id="svg_3" d="m18.72849,40.998149c-3.190247,0 -6.286663,-1.032139 -8.820094,-2.627262c-3.377908,-2.158108 -5.817509,-5.536016 -6.849648,-9.47691l10.884371,-4.691539c1.125969,-0.469154 2.4396,0 3.002585,1.2198l6.380494,14.919095c-1.501293,0.469154 -3.002585,0.656816 -4.597709,0.656816l0,0z" fill="url(#SVGID_2_)"/>
   <linearGradient transform="translate(0,6.574587821960449) translate(0.149993896484375,0) translate(0,-0.20000000298023224) scale(0.9383078813552856) translate(0,0.20000000298023224) " stroke="null" y2="0.498673" x2="0.997616" y1="0.498673" x1="-0.008695" id="SVGID_3_">
    <stop stroke="null" stop-color="#CB3F30" offset="0"/>
    <stop stroke="null" stop-color="#D54334" offset="1"/>
   </linearGradient>
   <path stroke="null" id="svg_4" d="m10.846704,32.084224c1.125969,-0.469154 2.4396,0 3.002585,1.2198l3.284078,7.694125c-2.627262,-0.281492 -5.160693,-1.2198 -7.224971,-2.533431c-1.688954,-1.032139 -3.096416,-2.4396 -4.222385,-4.034724l5.160693,-2.34577l0,0z" fill="url(#SVGID_3_)"/>
   <path stroke="null" id="svg_5" d="m34.116739,21.481345l-0.187662,0l-0.469154,0c-0.281492,0 -0.562985,0.093831 -0.750646,0.375323c-0.281492,0.375323 -0.281492,0.844477 0,1.125969l2.064277,2.908754c0.281492,0.375323 0.656816,0.469154 1.125969,0.281492c0.187662,-0.093831 0.281492,-0.187662 0.375323,-0.375323l2.064277,-2.908754c0.187662,-0.281492 0.187662,-0.656816 0.093831,-0.938308c-0.093831,-0.281492 -0.469154,-0.562985 -0.844477,-0.562985l-0.562985,0l-0.281492,0c-0.750646,-4.034724 -2.908754,-7.787955 -6.099001,-10.509048c-3.284078,-2.721093 -7.506463,-4.316216 -12.010341,-4.316216l-0.093831,0c-10.133725,0.093831 -18.390834,8.35094 -18.390834,18.390834c0,10.133725 8.35094,18.390834 18.484665,18.390834c8.538602,0 15.857403,-5.723678 17.921681,-13.886957c0.281492,-1.125969 -0.187662,-1.688954 -0.844477,-1.782785c-0.938308,-0.187662 -1.501293,0.469154 -1.688954,1.2198c-1.782785,6.943478 -7.975617,11.91651 -15.294418,11.91651l0,0c-4.222385,0 -8.257109,-1.688954 -11.259695,-4.691539s-4.597709,-7.037309 -4.503878,-11.259695c0,-8.632433 7.037309,-15.763572 15.763572,-15.763572l0.187662,0c7.318801,0.093831 13.605464,5.348355 15.200588,12.385664l0,0zm125.357933,15.48208c-0.375323,-0.469154 -0.750646,-0.938308 -1.2198,-1.407462c-0.187662,-0.187662 -0.375323,-0.281492 -0.562985,-0.281492c-0.187662,0 -0.375323,0.093831 -0.562985,0.187662c-0.093831,0.093831 -0.281492,0.187662 -0.375323,0.281492c-1.313631,0.938308 -2.721093,1.688954 -4.222385,2.251939c-1.595123,0.562985 -4.222385,0.750646 -5.348355,-0.844477c0.093831,-0.093831 0.093831,-0.093831 0.093831,-0.093831c0.093831,0 0.187662,0 0.281492,-0.093831c1.313631,-0.187662 2.627262,-0.562985 3.847062,-1.2198c2.627262,-1.407462 4.034724,-3.753232 4.034724,-6.661986c0,-2.908754 -2.251939,-4.879201 -5.066863,-4.879201c-2.251939,0 -5.254524,1.501293 -6.849648,4.879201c-0.562985,1.2198 -1.125969,2.814924 -1.407462,5.629847c0,0.375323 -0.093831,0.656816 -0.281492,0.938308c-1.032139,1.688954 -2.627262,2.533431 -4.503878,2.908754c-0.093831,0 -0.187662,0 -0.281492,0c-0.469154,0 -0.844477,-0.281492 -1.032139,-0.844477c-0.281492,-0.844477 -0.375323,-1.688954 -0.187662,-2.627262c0.093831,-0.469154 0.187662,-0.938308 0.562985,-1.313631c0.750646,-0.938308 4.316216,-6.099001 5.254524,-7.600294c3.940893,-5.817509 5.536016,-11.822679 5.817509,-13.980787c0.093831,-0.938308 0.187662,-1.782785 0.093831,-2.721093c-0.187662,-1.2198 -0.750646,-1.970447 -1.970447,-2.251939c-0.281492,-0.093831 -0.469154,-0.093831 -0.750646,-0.093831c-0.469154,0 -0.938308,0.093831 -1.407462,0.281492c-1.125969,0.469154 -2.4396,1.313631 -3.377908,2.4396c-1.970447,2.158108 -3.377908,4.78537 -4.503878,7.506463c-1.2198,2.908754 -2.158108,5.91134 -2.814924,9.007756c-0.281492,1.595123 -0.562985,3.190247 -0.750646,4.78537c-0.093831,0.750646 -0.187662,1.501293 -0.187662,2.251939c0,0.375323 -0.187662,0.656816 -0.469154,0.844477c-0.656816,0.469154 -1.2198,0.938308 -1.876616,1.313631c-0.562985,0.281492 -1.125969,0.562985 -1.688954,0.844477c0,-0.093831 0,-0.187662 0,-0.187662c0,-0.187662 0.093831,-0.375323 0.093831,-0.562985c0.562985,-1.876616 0.750646,-3.847062 0.656816,-5.817509c-0.093831,-1.2198 -0.469154,-2.34577 -1.2198,-3.284078c-0.187662,-0.281492 -0.469154,-0.562985 -0.844477,-0.750646c-0.750646,-0.375323 -1.501293,-0.562985 -2.34577,-0.562985c-0.281492,0 -0.562985,0 -0.844477,0.093831c-0.469154,0.093831 -1.032139,0.187662 -1.688954,0.281492c1.032139,-1.125969 3.002585,-3.659401 4.973032,-7.881786c0.844477,-1.876616 1.313631,-3.847062 1.407462,-5.91134c0,-1.125969 0,-2.251939 -0.562985,-3.284078c-0.750646,-1.313631 -2.158108,-1.407462 -2.627262,-1.407462c-1.125969,0 -2.4396,0.562985 -3.471739,1.876616c-0.750646,1.032139 -1.407462,2.158108 -1.970447,3.284078c-1.2198,2.533431 -2.064277,5.160693 -2.814924,7.881786c-2.4396,8.820094 -2.814924,12.667156 -3.377908,14.825265c-0.938308,3.847062 -2.627262,3.940893 -3.096416,3.847062c-0.844477,-0.187662 -1.313631,-1.970447 -0.844477,-4.034724c0.562985,-2.721093 1.125969,-5.442186 1.782785,-8.069448c0.281492,-1.032139 -0.281492,-1.782785 -1.125969,-2.064277c-1.032139,-0.375323 -2.158108,-0.562985 -3.284078,-0.562985c-0.656816,0 -1.313631,0.093831 -1.970447,0.187662c-2.064277,0.375323 -3.659401,1.688954 -5.066863,3.190247c-1.032139,1.125969 -1.876616,2.4396 -2.533431,3.847062c-0.469154,1.032139 -1.2198,1.407462 -2.158108,1.688954c-0.187662,0 -0.469154,0.093831 -0.656816,0.093831c-1.032139,0 -1.595123,-0.656816 -1.595123,-1.970447c0,-0.187662 0,-0.375323 0,-0.469154c0.093831,-0.750646 0.187662,-1.595123 0.375323,-2.34577c0.093831,-0.750646 0.281492,-1.407462 0.375323,-2.158108c0.093831,-0.938308 -0.656816,-1.688954 -1.595123,-1.782785l-0.562985,0c-0.656816,0 -1.2198,0.187662 -1.688954,0.562985c-0.469154,0.375323 -0.938308,0.656816 -1.313631,1.125969c-0.656816,0.844477 -1.2198,1.876616 -1.782785,2.814924c-0.187662,0.281492 -0.281492,0.656816 -0.469154,0.938308c0,-0.750646 0.187662,-1.407462 0.281492,-2.064277c0.187662,-0.750646 0.375323,-1.501293 0.562985,-2.251939c0.093831,-0.562985 0,-0.938308 -0.469154,-1.125969c-0.375323,-0.093831 -0.844477,-0.187662 -1.2198,-0.187662c-0.469154,0 -0.938308,0.093831 -1.407462,0.281492c-0.281492,0.093831 -0.469154,0.375323 -0.562985,0.562985c-0.187662,0.375323 -0.375323,0.844477 -0.469154,1.313631c-0.750646,2.814924 -1.407462,5.723678 -1.782785,8.726263c0,0.375323 -0.093831,0.656816 -0.469154,0.844477c-0.375323,0.187662 -0.750646,0.469154 -1.125969,0.656816c-1.313631,0.750646 -2.627262,1.501293 -4.128555,1.782785c-0.375323,0.093831 -0.844477,0.093831 -1.2198,0.093831c-0.750646,0 -1.407462,-0.093831 -2.158108,-0.562985c-0.375323,-0.187662 -0.656816,-0.469154 -0.938308,-0.844477c0.187662,0 0.281492,-0.093831 0.375323,-0.093831c1.407462,-0.187662 2.721093,-0.562985 3.940893,-1.2198c2.721093,-1.501293 3.940893,-3.847062 3.940893,-6.849648c0,-1.595123 -1.032139,-4.691539 -4.973032,-4.691539c-1.2198,0 -2.4396,0.469154 -3.56557,1.2198c-1.688954,1.125969 -2.627262,2.533431 -3.471739,4.316216c-0.656816,1.688954 -1.125969,3.284078 -1.125969,5.442186c0,0.375323 -0.093831,0.656816 -0.469154,0.938308c-0.187662,0.093831 -0.375323,0.281492 -0.562985,0.375323c-1.313631,0.844477 -2.721093,1.501293 -4.222385,2.064277c-0.469154,0.187662 -1.032139,0.281492 -1.595123,0.281492c-0.281492,0 -0.562985,0 -0.844477,-0.093831c-0.562985,-0.093831 -1.032139,-0.375323 -1.2198,-0.938308c-0.187662,-0.469154 -0.281492,-0.938308 -0.281492,-1.407462c0,-0.844477 0.093831,-1.688954 0.187662,-2.533431c0.093831,-1.970447 0.562985,-3.847062 1.032139,-5.723678c0.093831,-0.375323 0.375323,-0.469154 0.750646,-0.562985c0.093831,0 0.469154,0 0.469154,0l6.568155,0c0.375323,0 0.938308,-0.375323 1.125969,-0.844477c0.187662,-0.562985 0.375323,-1.032139 0.562985,-1.595123c0.187662,-0.562985 0,-1.032139 -0.562985,-1.032139l-4.879201,0c2.34577,-1.876616 5.160693,-5.348355 6.00517,-9.664571c0.375323,-1.782785 1.2198,-6.192832 -1.782785,-7.13114c-3.002585,-0.938308 -6.568155,3.190247 -8.632433,7.881786c-2.064277,4.597709 -2.908754,9.101586 -2.908754,9.101586l-0.938308,0l-0.656816,0c-0.469154,0 -0.750646,0 -0.938308,0.469154c-0.281492,0.656816 -0.469154,1.407462 -0.656816,2.158108c-0.093831,0.562985 0.093831,0.656816 0.656816,0.656816l0.938308,0l1.125969,0c-0.093831,0.469154 -0.187662,1.032139 -0.281492,1.501293c-0.469154,2.158108 -0.750646,4.222385 -0.938308,6.568155c0,0.187662 -0.093831,0.469154 -0.187662,0.562985c-1.032139,0.938308 -2.064277,1.876616 -3.56557,2.627262c-2.4396,1.2198 -2.158108,-1.313631 -2.064277,-2.158108c0.093831,-1.125969 0.375323,-2.533431 0.656816,-3.659401c0.656816,-2.814924 1.2198,-4.597709 1.970447,-7.037309c0.093831,-0.281492 0.093831,-0.562985 0.093831,-0.844477c0,-0.938308 -1.032139,-1.032139 -1.595123,-1.032139c-0.562985,0 -2.34577,0 -3.190247,1.970447c-2.533431,6.286663 -2.908754,12.573326 -2.721093,14.074618c0.469154,3.471739 3.940893,2.908754 5.536016,2.4396c1.688954,-0.562985 3.284078,-1.595123 4.78537,-2.627262c0.187662,-0.093831 0.375323,-0.187662 0.469154,-0.281492c0.093831,0 0.093831,0.093831 0.093831,0.093831c0,0.187662 0.093831,0.375323 0.187662,0.656816c0.375323,1.313631 1.125969,2.064277 2.4396,2.4396c0.469154,0.093831 1.032139,0.187662 1.595123,0.187662c0.281492,0 0.562985,0 0.938308,-0.093831c2.34577,-0.375323 4.597709,-1.032139 6.568155,-2.34577c0.562985,-0.375323 1.2198,-0.750646 1.782785,-1.125969c0.093831,0 0.093831,0 0.093831,0.093831c0.093831,0.093831 0.187662,0.281492 0.281492,0.375323c0.938308,1.313631 2.251939,2.4396 3.847062,2.721093c0.562985,0.093831 1.125969,0.187662 1.688954,0.187662c0.750646,0 1.501293,-0.093831 2.34577,-0.281492c1.782785,-0.375323 3.471739,-1.407462 5.066863,-2.34577c0.187662,-0.093831 0.375323,-0.187662 0.656816,-0.375323c0,0 0.093831,1.501293 0.187662,2.064277c0.093831,0.562985 0.281492,0.844477 0.844477,0.844477c0.187662,0 0.375323,0 0.656816,0c0.281492,0 0.562985,0 0.938308,0c1.313631,-0.093831 1.688954,-0.562985 1.876616,-1.876616c0.187662,-1.595123 0.469154,-3.284078 0.750646,-4.78537c0.281492,-1.501293 0.750646,-3.002585 1.501293,-4.316216c0.187662,-0.281492 0.375323,-0.562985 0.562985,-0.750646c0.093831,-0.093831 0.187662,-0.093831 0.281492,-0.093831c0.187662,0 0.281492,0.093831 0.375323,0.375323c0.093831,0.375323 0.093831,0.750646 0.187662,1.125969c0.187662,1.032139 0.375323,2.064277 0.938308,2.908754c0.656816,1.032139 1.501293,1.782785 2.814924,1.876616c0.281492,0 0.469154,0 0.750646,0c0.469154,0 0.938308,-0.093831 1.407462,-0.187662c0.187662,0 0.281492,-0.093831 0.562985,-0.093831c0,0.469154 0,0.844477 0.093831,1.2198c0.469154,3.096416 2.4396,4.503878 4.597709,4.503878s4.222385,-1.501293 5.254524,-2.533431c0.093831,-0.093831 0.281492,-0.187662 0.375323,-0.281492c0,0.187662 0.093831,0.281492 0.093831,0.375323c0.938308,2.814924 3.190247,2.533431 3.940893,2.4396c0.938308,-0.093831 2.908754,-1.032139 4.034724,-2.251939c0.187662,0.093831 0.375323,0.281492 0.562985,0.375323c1.595123,1.125969 3.284078,1.876616 5.160693,1.876616c0.375323,0 2.721093,0.187662 5.254524,-1.595123c0.281492,-0.187662 0.562985,-0.281492 0.938308,-0.469154c0.938308,-0.281492 1.876616,-0.562985 2.814924,-0.844477c1.313631,-0.375323 2.4396,-1.125969 3.56557,-1.970447c0.187662,1.407462 0.375323,2.064277 0.656816,2.721093c0.562985,1.313631 1.313631,2.064277 2.908754,2.064277c1.032139,0 3.471739,0 7.787955,-3.096416c2.34577,3.190247 5.348355,3.096416 5.817509,3.096416c0.656816,0 4.222385,0.469154 9.758402,-4.222385c0.187662,-0.187662 0.469154,-0.375323 0.656816,-0.562985s0.093831,-0.562985 -0.187662,-0.844477zm-111.001822,-20.26745c2.064277,0.093831 2.814924,1.688954 2.251939,3.471739c-0.375323,1.125969 -1.313631,1.688954 -2.4396,1.782785c-0.562985,0.093831 -1.125969,0 -1.688954,-0.093831c-1.2198,-0.187662 -1.876616,-1.501293 -1.688954,-2.721093c0.187662,-1.501293 1.313631,-2.4396 2.814924,-2.533431c0.187662,0.093831 0.469154,0.093831 0.750646,0.093831zm14.449941,-4.034724c0.562985,-0.562985 1.125969,-0.375323 1.032139,0.562985c0,0.844477 -0.187662,1.782785 -0.469154,2.4396c-1.2198,3.096416 -3.190247,4.879201 -4.691539,6.00517c1.501293,-6.380494 3.56557,-8.257109 4.128555,-9.007756zm7.224971,19.892127c0.187662,-1.125969 0.656816,-2.251939 1.313631,-3.284078c0.562985,-0.844477 1.313631,-1.407462 2.34577,-1.595123c0.093831,0 0.187662,0 0.375323,0c0.656816,0 1.2198,0.469154 1.313631,1.2198c0,0.281492 0,0.656816 -0.093831,0.938308c-0.562985,1.970447 -2.533431,3.471739 -4.597709,3.471739l-0.093831,0c-0.656816,0 -0.750646,-0.187662 -0.562985,-0.750646zm34.342068,1.2198c-0.187662,0.938308 -0.375323,1.970447 -0.844477,2.908754c-0.375323,0.750646 -0.844477,1.313631 -1.595123,1.688954c-0.187662,0.093831 -0.469154,0.187662 -0.750646,0.187662l-0.187662,0c-0.656816,0 -0.938308,-0.281492 -1.125969,-1.125969c-0.187662,-0.938308 -0.093831,-1.782785 0.187662,-2.721093c0.469154,-1.782785 1.2198,-3.56557 2.4396,-5.066863c0.562985,-0.656816 1.2198,-1.313631 2.064277,-1.688954c0.281492,-0.093831 0.562985,-0.281492 0.938308,-0.281492c0.093831,0 0.187662,0 0.375323,0c-0.562985,2.158108 -1.032139,4.128555 -1.501293,6.099001zm13.886957,-9.383079c0.844477,-2.814924 1.782785,-5.536016 2.908754,-8.257109c1.876616,-4.410047 2.533431,-4.597709 2.908754,-4.316216c0.281492,0.187662 0.281492,1.125969 -0.093831,2.4396c-0.469154,1.595123 -1.2198,3.096416 -1.970447,4.597709c-1.032139,1.970447 -2.158108,3.847062 -3.377908,5.629847c-0.093831,0.187662 -0.187662,0.281492 -0.375323,0.469154c0,0 -0.093831,0 -0.093831,0c0,-0.187662 0,-0.375323 0.093831,-0.562985zm5.160693,11.541187c-0.750646,2.251939 -2.34577,3.190247 -4.597709,3.284078c-1.2198,0 -2.251939,-0.469154 -2.158108,-1.125969c0,-0.375323 0.093831,-0.656816 0.093831,-1.032139c0.375323,-1.876616 0.844477,-3.753232 1.595123,-5.629847c0.281492,-0.656816 0.562985,-1.2198 1.125969,-1.595123c0.656816,-0.562985 1.407462,-0.844477 2.251939,-0.844477c0.281492,0 0.562985,0 0.844477,0.093831c0.750646,0.187662 1.313631,0.656816 1.407462,1.407462c0.093831,0.375323 0.093831,0.750646 0.093831,1.125969c0,1.501293 -0.187662,2.908754 -0.656816,4.316216zm12.291833,-9.007756c0.656816,-3.56557 1.782785,-7.037309 3.377908,-10.321387c0.656816,-1.313631 1.407462,-2.533431 2.34577,-3.659401c0.281492,-0.281492 0.562985,-0.656816 0.844477,-0.844477c0.093831,-0.093831 0.281492,-0.187662 0.375323,-0.187662c0.281492,0 0.469154,0.187662 0.469154,0.562985c0,0.281492 0,0.656816 -0.093831,0.938308c-0.281492,1.595123 -0.938308,3.190247 -1.595123,4.691539c-1.032139,2.34577 -2.158108,4.691539 -3.56557,6.849648c-0.656816,1.032139 -1.407462,2.064277 -2.158108,3.190247c-0.093831,0 -0.093831,0 -0.187662,0c0.093831,-0.375323 0.093831,-0.750646 0.187662,-1.2198zm10.790541,5.91134c0.187662,-1.407462 0.656816,-2.721093 1.595123,-3.847062c1.595123,-2.064277 3.659401,-1.407462 3.753232,0c0,0.281492 0,0.656816 -0.093831,0.938308c-0.562985,1.876616 -2.4396,3.377908 -4.410047,3.471739c-0.656816,0 -0.938308,-0.093831 -0.844477,-0.562985z" fill="#484848"/>
  </g>
 </g>
</svg>