<?xml version="1.0"?>
<svg width="160" height="50" xmlns="http://www.w3.org/2000/svg" xmlns:svg="http://www.w3.org/2000/svg">
 <g>
  <title>Layer 1</title>
  <g stroke="null" id="svg_1">
   <g stroke="null" id="svg_2">
    <polygon stroke="null" id="svg_3" points="37.280357360839844,17.410446166992188 36.189640045166016,24.95455551147461 28.37285804748535,36.40705490112305 31.008750915527344,34.9527702331543 74.00106811523438,11.320625305175781 81.99964141845703,6.957768440246582 " fill="#FBAD18"/>
    <polygon stroke="null" id="svg_4" points="37.0076789855957,15.410804748535156 70.72892761230469,7.77580451965332 68.54750061035156,7.5031256675720215 59.730892181396484,6.230625629425049 40.91606903076172,3.5947327613830566 16.375,0.23169708251953125 25.37339210510254,6.866875648498535 36.73500061035156,15.1381254196167 " fill="#FBAD18"/>
   </g>
   <g stroke="null" id="svg_5">
    <path stroke="null" id="svg_6" d="m113.175893,43.496697c-0.363571,2.181429 -0.63625,2.635893 -5.271786,6.271607l-1.090714,-1.545179c3.544821,-2.908571 3.999286,-3.18125 4.362857,-5.180893l3.363036,-18.905714l2.181429,-0.272679l-3.544821,19.632857zm2.635893,-26.904286l2.181429,-0.272679l-0.727143,4.181071l-2.090536,0.272679l0.63625,-4.181071z" fill="#FBAD18"/>
    <path stroke="null" id="svg_7" d="m119.538393,37.406876c0,0.363571 -0.090893,0.63625 -0.090893,0.999821c0,1.545179 0.545357,2.272321 3.090357,2.272321c2.090536,0 4.181071,-0.727143 6.3625,-1.726964l0.545357,1.636071c-2.181429,1.181607 -4.726429,1.999643 -7.180536,1.999643c-3.363036,0 -4.908214,-1.363393 -4.908214,-4.090179c0,-0.545357 0.090893,-1.181607 0.181786,-1.817857l1.090714,-6.089821c0.818036,-4.635536 3.18125,-6.816964 7.816786,-6.816964c2.908571,0 4.817321,1.454286 4.817321,4.181071c0,2.908571 -1.90875,4.45375 -6.907857,5.817143c-3.453929,0.999821 -4.45375,1.181607 -4.45375,1.181607l-0.363571,2.454107zm9.725536,-9.634643c0,-1.636071 -1.090714,-2.363214 -2.999464,-2.363214c-3.18125,0 -4.908214,1.636071 -5.544464,5.271786l-0.363571,2.272321c0,0 0.727143,-0.181786 4.181071,-1.090714c3.363036,-0.908929 4.726429,-2.090536 4.726429,-4.090179z" fill="#FBAD18"/>
    <path stroke="null" id="svg_8" d="m133.354107,40.042769c0,-0.272679 0,-0.454464 0.090893,-0.727143l2.363214,-13.543036l-3.453929,0l0.272679,-1.817857l3.453929,0l0.818036,-4.45375l2.090536,-0.272679l-0.818036,4.726429l5.453571,0l-0.363571,1.817857l-5.362679,0l-2.363214,13.270357c-0.090893,0.272679 -0.090893,0.454464 -0.090893,0.63625c0,0.727143 0.363571,0.908929 1.181607,0.908929c0.999821,0 2.272321,-0.272679 3.635714,-0.818036l0.545357,1.363393c-1.363393,0.818036 -2.908571,1.181607 -4.45375,1.181607c-1.90875,0.181786 -2.999464,-0.63625 -2.999464,-2.272321z" fill="#FBAD18"/>
   </g>
   <g stroke="null" id="svg_9">
    <path stroke="null" id="svg_10" d="m57.549464,25.863483c2.363214,-1.2725 5.180893,-2.272321 7.271429,-2.272321c1.90875,0 2.817679,0.999821 3.18125,2.272321c2.545,-1.454286 5.362679,-2.272321 7.453214,-2.272321c2.454107,0 3.272143,1.636071 3.272143,3.635714c0,0.63625 -0.090893,1.181607 -0.181786,1.817857l-2.272321,12.997679l-4.45375,0l2.272321,-12.906786c0,-0.181786 0,-0.363571 0,-0.454464c0,-0.454464 -0.272679,-0.727143 -0.908929,-0.727143c-1.181607,0 -3.726607,1.090714 -5.362679,2.090536l-2.090536,11.997857l-4.45375,0l2.272321,-12.906786c0,-0.181786 0,-0.363571 0,-0.454464c0,-0.454464 -0.272679,-0.727143 -0.908929,-0.727143c-1.181607,0 -3.726607,1.090714 -5.362679,2.090536l-2.090536,11.997857l-4.45375,0l2.363214,-13.543036" fill="#FBAD18"/>
    <path stroke="null" id="svg_11" d="m93.179464,42.042411l-3.726607,0l0,-1.999643c-1.545179,1.454286 -3.453929,2.363214 -5.908036,2.363214c-3.090357,0 -4.181071,-1.636071 -4.181071,-4.090179c0,-0.63625 0.090893,-1.181607 0.181786,-1.90875l0.908929,-5.271786c0.818036,-4.908214 1.999643,-7.544107 8.998393,-7.544107c1.726964,0 4.999107,0.545357 6.816964,1.181607l-3.090357,17.269643zm-1.90875,-14.361071c-0.818036,-0.181786 -1.636071,-0.272679 -2.545,-0.272679c-2.817679,0 -3.453929,1.181607 -3.8175,3.544821l-1.090714,6.3625c0,0.272679 0,0.363571 0,0.454464c0,0.63625 0.363571,0.999821 1.181607,0.999821c1.363393,0 3.453929,-1.363393 4.817321,-2.726786l1.454286,-8.362143z" fill="#FBAD18"/>
    <path stroke="null" id="svg_12" d="m99.0875,24.318304l4.544643,-0.63625l-3.18125,18.360357l-4.45375,0l3.090357,-17.724107zm1.363393,-7.725893l4.544643,-0.63625l-0.908929,5.09l-4.544643,0.63625l0.908929,-5.09z" fill="#FBAD18"/>
    <path stroke="null" id="svg_13" d="m107.904107,16.592411l4.544643,-0.63625l-4.635536,26.08625l-4.45375,0l4.544643,-25.45z" fill="#FBAD18"/>
   </g>
  </g>
 </g>
</svg>