<?xml version="1.0"?>
<svg width="160" height="50" xmlns="http://www.w3.org/2000/svg" xmlns:svg="http://www.w3.org/2000/svg">
 <g>
  <title>Layer 1</title>
  <g stroke="null" id="svg_22">
   <g stroke="null" id="svg_3">
    <rect stroke="null" y="5.758083" id="svg_4" height="38.483834" width="43.431755" fill="#E6E6E5" x="0.650002"/>
    <polygon stroke="null" id="svg_5" points="44.081756591796875,5.758083343505859 0.6500015258789062,5.758083343505859 22.45750617980957,37.461429595947266 " fill="#DADBDB"/>
    <polygon stroke="null" id="svg_6" points="17.78447151184082,44.24191665649414 26.947288513183594,44.24191665649414 22.45750617980957,37.461429595947266 " fill="#BABCBE"/>
    <polygon stroke="null" id="svg_7" points="22.45750617980957,25.916282653808594 13.111435890197754,12.35531234741211 13.111435890197754,23.99209213256836 18.42586898803711,31.780487060546875 "/>
    <polygon stroke="null" id="svg_8" points="22.45750617980957,25.916282653808594 26.39752197265625,31.780487060546875 31.620325088500977,24.08371925354004 31.620325088500977,12.35531234741211 " fill="#F7A344"/>
    <polygon stroke="null" id="svg_9" points="22.45750617980957,25.916282653808594 18.42586898803711,31.780487060546875 22.45750617980957,37.64468765258789 26.39752197265625,31.780487060546875 " fill="#C77E2A"/>
    <polygon stroke="null" id="svg_10" points="6.5142059326171875,37.64468765258789 13.111435890197754,37.64468765258789 13.111435890197754,23.99209213256836 6.5142059326171875,14.371131896972656 " fill="#46BAE4"/>
    <polygon stroke="null" id="svg_11" points="6.5142059326171875,12.35531234741211 6.5142059326171875,14.371131896972656 13.111435890197754,23.99209213256836 13.111435890197754,12.35531234741211 " fill="#058DC1"/>
    <polygon stroke="null" id="svg_12" points="31.620325088500977,24.08371925354004 31.620325088500977,37.64468765258789 38.21755599975586,37.64468765258789 38.21755599975586,14.554388999938965 " fill="#D21F38"/>
    <polygon stroke="null" id="svg_13" points="38.21755599975586,12.35531234741211 31.620325088500977,12.35531234741211 31.620325088500977,24.08371925354004 38.21755599975586,14.554388999938965 " fill="#A21D2F"/>
   </g>
   <g stroke="null" id="svg_21">
    <polygon stroke="null" id="svg_2" points="56.54319381713867,25.366514205932617 52.419925689697266,19.319049835205078 49.39619064331055,19.319049835205078 49.39619064331055,30.589317321777344 52.419925689697266,30.589317321777344 52.419925689697266,24.541858673095703 54.710628509521484,28.023725509643555 56.54319381713867,30.589317321777344 58.375755310058594,28.023725509643555 60.66646194458008,24.541858673095703 60.66646194458008,30.589317321777344 63.690185546875,30.589317321777344 63.690185546875,19.319049835205078 60.66646194458008,19.319049835205078 " fill="#171717"/>
    <path stroke="null" id="svg_14" d="m76.334876,19.319052l-3.665127,0l-4.03164,11.453522l3.115358,0l0.824654,-2.382333l3.940012,0l0.824654,2.382333l3.115358,0l-0.091628,-0.183256l-4.03164,-11.270266zm-0.641397,6.597229l-2.657217,0l1.374423,-3.940012l1.282794,3.940012z" fill="#171717"/>
    <polygon stroke="null" id="svg_15" points="92.9195785522461,19.410682678222656 92.9195785522461,26.374422073364258 88.4297866821289,19.319049835205078 85.13118743896484,19.319049835205078 85.13118743896484,30.772571563720703 88.06328582763672,30.772571563720703 88.06328582763672,23.717205047607422 92.55307006835938,30.86420440673828 95.85167694091797,30.86420440673828 95.85167694091797,19.319049835205078 92.9195785522461,19.319049835205078 " fill="#171717"/>
    <path stroke="null" id="svg_16" d="m109.687532,20.876731c-0.549769,-0.549769 -1.191166,-0.916282 -2.01582,-1.191166c-0.824654,-0.274885 -1.740935,-0.366513 -2.748845,-0.366513l-4.306524,0l0,11.453522l4.123268,0c1.099538,0 2.01582,-0.091628 2.840473,-0.458141c0.824654,-0.274885 1.557679,-0.641397 2.107448,-1.191166c0.549769,-0.549769 1.00791,-1.099538 1.282794,-1.832564c0.274885,-0.733025 0.458141,-1.557679 0.458141,-2.382333s-0.183256,-1.649307 -0.458141,-2.382333c-0.274885,-0.549769 -0.733025,-1.099538 -1.282794,-1.649307zm-4.764665,7.421882l-1.282794,0l0,-6.413972l1.099538,0c1.191166,0 2.01582,0.274885 2.565589,0.824654c0.549769,0.549769 0.824654,1.374423 0.824654,2.473961s-0.274885,1.924192 -0.916282,2.473961c-0.458141,0.366513 -1.191166,0.641397 -2.290704,0.641397z" fill="#171717"/>
    <path stroke="null" id="svg_17" d="m124.806181,24.999999c0.366513,-0.549769 0.641397,-1.282794 0.641397,-2.107448c0,-1.099538 -0.366513,-2.01582 -1.191166,-2.748845c-0.824654,-0.641397 -2.01582,-1.00791 -3.390243,-1.00791l-4.581409,0l0,11.453522l3.115358,0l0,-0.091628l0,-3.573499l1.191166,-0.091628l2.290704,3.756755l3.481871,0l-2.932102,-4.489781c0.458141,-0.091628 1.00791,-0.549769 1.374423,-1.099538zm-4.306524,-0.274885l-1.374423,0l0,-3.02373l1.099538,0c0.733025,0 1.191166,0.091628 1.557679,0.366513c0.366513,0.274885 0.458141,0.549769 0.458141,1.00791c0,0.549769 -0.183256,0.916282 -0.458141,1.099538c-0.183256,0.366513 -0.641397,0.458141 -1.282794,0.549769l0,0z" fill="#171717"/>
    <polygon stroke="null" id="svg_18" points="130.9452667236328,30.772571563720703 131.0369110107422,30.772571563720703 134.0606231689453,30.772571563720703 134.0606231689453,19.319049835205078 130.9452667236328,19.319049835205078 " fill="#171717"/>
    <polygon stroke="null" id="svg_19" points="142.03228759765625,19.319049835205078 138.9169158935547,19.319049835205078 138.9169158935547,30.772571563720703 139.00856018066406,30.772571563720703 146.705322265625,30.772571563720703 146.705322265625,28.206987380981445 142.03228759765625,28.206987380981445 " fill="#171717"/>
    <polygon stroke="null" id="svg_20" points="154.67697143554688,28.206987380981445 154.67697143554688,19.319049835205078 151.56161499023438,19.319049835205078 151.56161499023438,30.772571563720703 151.65322875976562,30.772571563720703 159.35000610351562,30.772571563720703 159.35000610351562,28.206987380981445 " fill="#171717"/>
   </g>
  </g>
 </g>
</svg>