<?xml version="1.0"?>
<svg width="160" height="50" xmlns="http://www.w3.org/2000/svg" xmlns:svg="http://www.w3.org/2000/svg">
 <g>
  <title>Layer 1</title>
  <g display="none" id="Layer_2">
   <rect id="svg_1" height="90" width="260" stroke-miterlimit="10" stroke-width="1.1277" stroke="#E8E7E7" fill="none" x="-10"/>
  </g>
  <g stroke="null" id="Layer_1">
   <g stroke="null" id="svg_2">
    <path stroke="null" d="m127.765947,25.917648l0,11.977709l-1.545511,0l0,-2.125077c-1.352322,1.642105 -2.897833,2.511455 -4.733127,2.511455c-1.7387,0 -3.284211,-0.579567 -4.443344,-1.931889s-1.835294,-2.801238 -1.835294,-4.539938c0,-1.7387 0.579567,-3.284211 1.835294,-4.443344c1.255728,-1.255728 2.704644,-1.931889 4.346749,-1.931889c1.931889,0 3.573994,0.86935 4.733127,2.511455l0,-2.125077l1.642105,0.096594m-1.448916,6.085449c0,-1.352322 -0.482972,-2.511455 -1.352322,-3.477399c-0.965944,-0.965944 -2.028483,-1.448916 -3.380805,-1.448916c-1.352322,0 -2.511455,0.482972 -3.380805,1.448916s-1.352322,2.125077 -1.352322,3.477399s0.482972,2.511455 1.352322,3.477399c0.965944,0.965944 2.028483,1.448916 3.380805,1.448916c1.352322,0 2.414861,-0.482972 3.380805,-1.352322c0.86935,-1.062539 1.352322,-2.221672 1.352322,-3.573994" fill="#A57242" id="path4393"/>
    <path stroke="null" d="m131.243346,37.895357l0,-16.227864l3.380805,0c2.318266,0 3.960372,0.193189 5.119505,0.579567c1.062539,0.386378 2.028483,0.86935 2.801238,1.642105c0.772755,0.772755 1.352322,1.642105 1.835294,2.704644c0.386378,1.062539 0.579567,2.318266 0.579567,3.670588c0,1.352322 -0.386378,2.704644 -0.965944,3.960372c-0.676161,1.255728 -1.545511,2.125077 -2.704644,2.801238c-1.159133,0.579567 -2.704644,0.965944 -4.829721,0.965944l-5.216099,-0.096594m1.545511,-1.545511l1.931889,0c1.931889,0 3.380805,-0.096594 4.250155,-0.289783c0.86935,-0.193189 1.642105,-0.579567 2.318266,-1.159133c0.676161,-0.579567 1.159133,-1.352322 1.545511,-2.125077c0.386378,-0.86935 0.579567,-1.7387 0.579567,-2.897833s-0.193189,-2.125077 -0.579567,-2.994427c-0.386378,-0.965944 -0.965944,-1.642105 -1.7387,-2.221672c-0.772755,-0.579567 -1.642105,-0.965944 -2.60805,-1.159133c-0.965944,-0.193189 -2.511455,-0.289783 -4.443344,-0.289783l-1.159133,0l-0.096594,13.136842" fill="#A57242" id="path4397"/>
    <path stroke="null" d="m110.282355,22.536843c0,-0.386378 0.096594,-0.676161 0.386378,-0.965944c0.289783,-0.289783 0.579567,-0.386378 0.965944,-0.386378c0.386378,0 0.676161,0.096594 0.965944,0.386378c0.289783,0.193189 0.386378,0.579567 0.386378,0.965944c0,0.386378 -0.096594,0.676161 -0.386378,0.965944c-0.193189,0.193189 -0.579567,0.386378 -0.965944,0.386378c-0.386378,0 -0.676161,-0.096594 -0.965944,-0.386378c-0.289783,-0.386378 -0.386378,-0.676161 -0.386378,-0.965944m0.482972,3.380805l1.545511,0l0,11.977709l-1.545511,0l0,-11.977709" fill="#A57242" id="path4401"/>
    <path stroke="null" d="m67.104645,37.895357l2.318266,-16.227864l0.193189,0l6.665016,13.330031l6.568421,-13.330031l0.193189,0l2.318266,16.227864l-1.642105,0l-1.545511,-11.687926l-5.699071,11.687926l-0.386378,0l-5.795666,-11.78452l-1.545511,11.78452l-1.642105,0" fill="#A57242" id="path4405"/>
    <path stroke="null" d="m100.333129,25.917648l0,11.977709l-1.545511,0l0,-2.125077c-1.352322,1.642105 -2.897833,2.511455 -4.733127,2.511455s-3.284211,-0.579567 -4.443344,-1.931889s-1.835294,-2.801238 -1.835294,-4.539938c0,-1.7387 0.579567,-3.284211 1.835294,-4.443344c1.255728,-1.255728 2.704644,-1.931889 4.346749,-1.931889c1.931889,0 3.573994,0.86935 4.733127,2.511455l0,-2.125077l1.642105,0.096594m-1.352322,6.085449c0,-1.352322 -0.482972,-2.511455 -1.352322,-3.477399c-0.965944,-0.965944 -2.028483,-1.448916 -3.380805,-1.448916c-1.352322,0 -2.511455,0.482972 -3.380805,1.448916s-1.352322,2.125077 -1.352322,3.477399s0.482972,2.511455 1.352322,3.477399c0.965944,0.965944 2.028483,1.448916 3.380805,1.448916c1.352322,0 2.414861,-0.482972 3.380805,-1.352322c0.772755,-1.062539 1.352322,-2.221672 1.352322,-3.573994" fill="#A57242" id="path4409"/>
    <path stroke="null" d="m102.941178,25.917648l1.545511,0l0,1.7387c0.386378,-0.676161 0.86935,-1.255728 1.255728,-1.545511c0.386378,-0.386378 0.86935,-0.482972 1.352322,-0.482972c0.482972,0 0.965944,0.193189 1.545511,0.386378l-0.772755,1.352322c-0.193189,-0.193189 -0.482972,-0.193189 -0.676161,-0.193189c-0.482972,0 -0.965944,0.193189 -1.352322,0.772755c-0.386378,0.482972 -0.676161,1.159133 -0.965944,1.931889c-0.193189,0.772755 -0.289783,2.125077 -0.289783,4.15356l0,4.056966l-1.545511,0l-0.096594,-12.170898" fill="#A57242" id="path4413"/>
    <path stroke="null" d="m148.34056,21.667493l3.187616,0c1.7387,0 2.994427,0.386378 3.863777,1.062539c0.86935,0.676161 1.352322,1.642105 1.352322,2.897833c0,0.676161 -0.193189,1.352322 -0.579567,1.931889c-0.386378,0.579567 -0.86935,1.062539 -1.545511,1.448916c1.159133,0.386378 1.931889,0.965944 2.511455,1.642105c0.579567,0.772755 0.86935,1.545511 0.86935,2.60805c0,1.352322 -0.482972,2.511455 -1.448916,3.380805c-0.965944,0.86935 -2.221672,1.352322 -3.863777,1.352322l-4.443344,0l0.096594,-16.324459m1.545511,1.545511l0,5.216099l0.965944,0c1.448916,0 2.511455,-0.193189 3.187616,-0.676161c0.676161,-0.482972 1.062539,-1.159133 1.062539,-2.125077c0,-1.642105 -1.062539,-2.414861 -3.284211,-2.414861l-1.931889,0m0,6.858204l0,6.278638l2.028483,0c1.159133,0 2.028483,-0.096594 2.511455,-0.386378c0.579567,-0.193189 0.965944,-0.579567 1.352322,-1.062539c0.386378,-0.482972 0.579567,-0.965944 0.579567,-1.545511s-0.096594,-0.965944 -0.289783,-1.352322c-0.193189,-0.386378 -0.482972,-0.772755 -0.86935,-1.062539c-0.386378,-0.289783 -0.86935,-0.579567 -1.352322,-0.676161s-1.545511,-0.193189 -2.994427,-0.193189l-0.965944,0" fill="#A57242" id="path4417"/>
    <path stroke="null" d="m69.905884,1.865635c-1.062539,0 -0.772755,0.386378 -3.091022,0.965944c-2.318266,0.579567 -5.216099,0.386378 -7.727554,1.448916c-7.534365,3.187616 -8.983282,13.909598 -15.841486,17.773375c-5.119505,2.897833 -10.239009,3.091022 -14.875542,4.539938c-3.091022,0.965944 -6.375232,2.897833 -9.176471,5.312694c-2.125077,1.835294 -2.221672,3.477399 -4.443344,5.795666c-2.414861,2.511455 -9.562848,0 -12.750465,3.863777c1.062539,1.062539 1.545511,1.352322 3.573994,1.062539c-0.386378,0.772755 -2.897833,1.448916 -2.414861,2.704644c0.482972,1.255728 6.568421,2.125077 11.977709,-1.255728c2.511455,-1.545511 4.539938,-3.767183 8.596904,-4.346749c5.119505,-0.676161 11.108359,0.386378 17.00062,1.352322c-0.86935,2.60805 -2.704644,4.346749 -4.056966,6.471827c-0.386378,0.482972 0.86935,0.579567 2.414861,0.193189c2.704644,-0.676161 4.636533,-1.159133 6.76161,-2.414861c2.511455,-1.448916 2.897833,-5.216099 5.988855,-6.085449c1.7387,2.704644 6.375232,3.284211 9.36966,1.159133c-2.511455,-0.772755 -3.284211,-6.182043 -2.414861,-8.596904c0.772755,-2.318266 1.642105,-5.89226 2.414861,-8.886687c0.86935,-3.187616 1.159133,-7.244582 2.318266,-8.886687c1.642105,-2.511455 3.380805,-3.284211 4.926316,-4.733127s2.994427,-2.704644 2.897833,-5.89226c0.096594,-0.965944 -0.482972,-1.545511 -1.448916,-1.545511l0,0z" fill="#002B64" id="path9"/>
    <path stroke="null" d="m4.318266,44.94675c3.863777,0.579567 6.278638,0 9.466254,-1.352322c2.704644,-1.159133 5.216099,-3.573994 8.403715,-4.539938c4.636533,-1.545511 9.756037,0 14.682353,0.289783c1.159133,0.096594 2.414861,0.096594 3.573994,0c1.835294,-1.159133 1.835294,-5.312694 3.573994,-5.795666c0,5.89226 -2.511455,9.562848 -5.02291,12.943653c5.409288,-0.965944 8.596904,-4.056966 10.721982,-8.210526c0.676161,-1.255728 1.255728,-2.60805 1.7387,-4.056966c0.772755,0.579567 0.386378,2.414861 0.772755,3.380805c3.670588,-2.125077 5.795666,-6.76161 7.244582,-11.494737c1.642105,-5.505882 2.318266,-11.108359 3.380805,-12.750465c1.062539,-1.545511 2.60805,-2.60805 4.056966,-3.573994c1.642105,-1.159133 3.091022,-2.318266 3.380805,-4.539938c-1.7387,-0.193189 -2.125077,-0.579567 -2.414861,-1.448916c-0.86935,0.482972 -1.642105,0.579567 -2.60805,0.579567c-0.772755,0 -1.642105,0 -2.704644,0.096594c-8.693499,0.86935 -9.852632,10.528793 -15.455109,15.938081c-0.386378,0.386378 -0.86935,0.772755 -1.352322,1.159133c-1.931889,1.448916 -4.346749,2.511455 -6.568421,3.380805c-3.573994,1.352322 -6.954799,1.448916 -10.335604,2.704644c-2.511455,0.86935 -4.926316,2.125077 -6.954799,3.477399c-0.482972,0.386378 -0.965944,0.676161 -1.448916,1.062539c-1.159133,0.965944 -1.931889,2.028483 -2.704644,3.187616c-0.772755,1.159133 -1.545511,2.318266 -2.704644,3.477399c-1.835294,1.835294 -8.790093,0.579567 -11.204954,2.221672c-0.289783,0.193189 -0.482972,0.386378 -0.579567,0.676161c1.352322,0.579567 2.221672,0.193189 3.767183,0.386378c0.193189,1.352322 -3.187616,2.125077 -2.704644,2.801238l0,0z" fill="#C49A6C" id="path3352"/>
    <path stroke="null" d="m57.155419,34.514552c0.096594,1.642105 1.062539,4.926316 1.931889,5.795666c-1.642105,0.386378 -4.539938,-0.289783 -5.312694,-1.448916c0.386378,-1.7387 2.414861,-3.284211 3.380805,-4.346749z" fill="#C49A6C" id="path3873"/>
    <path stroke="null" d="m59.666874,8.047678c1.255728,1.062539 3.863777,0.193189 3.380805,-1.931889c-1.931889,-0.096594 -3.091022,0.579567 -3.380805,1.931889z" fill="#002B64" id="path3880"/>
    <path stroke="null" d="m68.263778,5.536223c-0.386378,0.676161 -0.965944,1.545511 -0.965944,3.284211c0,0.289783 -0.193189,0.482972 -0.193189,0c0,-1.7387 0.482972,-2.511455 0.965944,-3.477399c0.193189,-0.193189 0.289783,0 0.193189,0.193189z" fill="#002B64" id="path3882"/>
    <path stroke="null" d="m67.877401,5.343034c-0.386378,0.676161 -1.352322,1.835294 -1.448916,3.573994c0,0.289783 -0.289783,0.482972 -0.193189,0c0.193189,-1.7387 0.965944,-2.801238 1.448916,-3.670588c0.289783,-0.386378 0.386378,-0.193189 0.193189,0.096594z" fill="#002B64" id="path3884"/>
    <path stroke="null" d="m67.587617,4.956657c-0.386378,0.579567 -1.931889,2.028483 -2.125077,3.767183c0,0.289783 -0.289783,0.482972 -0.193189,0c0.289783,-1.7387 1.545511,-2.994427 2.221672,-3.863777c0.193189,-0.289783 0.289783,-0.096594 0.096594,0.096594z" fill="#002B64" id="path3886"/>
    <path stroke="null" d="m67.297834,4.570279c-0.579567,0.579567 -2.221672,2.414861 -2.801238,4.056966c-0.096594,0.289783 -0.386378,0.386378 -0.193189,0c0.579567,-1.642105 2.028483,-3.380805 2.801238,-4.15356c0.386378,-0.289783 0.482972,-0.096594 0.193189,0.096594l0,0z" fill="#002B64" id="path3888"/>
   </g>
  </g>
 </g>
</svg>