<?xml version="1.0"?>
<svg width="160" height="50" xmlns="http://www.w3.org/2000/svg" xmlns:svg="http://www.w3.org/2000/svg">
 <g>
  <title>Layer 1</title>
  <g stroke="null" id="Layer_1_1_">
   <g stroke="null" id="svg_1">
    <path stroke="null" id="svg_2" d="m135.540617,0.419374l-3.83654,0c-0.892219,0 -1.873659,0.713775 -2.052103,1.605994l-4.907203,20.96714c2.587434,0.802997 4.817981,1.695216 6.602418,2.587434l5.442534,-23.465352c0.178444,-0.981441 -0.356887,-1.695216 -1.249106,-1.695216zm-10.349737,6.513197l-3.83654,0c-0.892219,0 -1.873659,0.713775 -2.052103,1.605994l-2.944322,12.491062c2.498212,0.446109 4.817981,0.892219 6.870084,1.42755l3.211987,-13.918612c0.178444,-0.802997 -0.356887,-1.605994 -1.249106,-1.605994zm-19.450368,8.11919l-3.83654,0c-0.892219,0 -1.873659,0.713775 -2.052103,1.605994l-0.802997,3.479653c0.624553,0 1.159884,-0.089222 1.873659,-0.089222c1.873659,0 3.658097,0 5.353312,0.089222l0.802997,-3.479653c0.178444,-0.892219 -0.446109,-1.605994 -1.338328,-1.605994zm9.99285,-4.371872l-3.83654,0c-0.892219,0 -1.873659,0.713775 -2.052103,1.605994l-1.873659,7.940747c2.498212,0.178444 4.817981,0.356887 7.048528,0.624553l1.962881,-8.5653c0.267666,-0.802997 -0.356887,-1.605994 -1.249106,-1.605994z" fill="#8870B1"/>
    <path stroke="null" id="svg_3" d="m27.582154,28.702708c0.267666,-0.981441 1.249106,-1.784437 2.230547,-1.784437l3.747319,0c0.981441,0 1.784437,0.802997 1.784437,1.784437l-0.089222,2.587434c0,0.981441 -0.089222,2.676656 -0.089222,3.658097c0,0 0,1.516772 0,2.141325c-0.089222,1.873659 -0.178444,3.390431 -0.356887,5.442534c0.446109,-1.070662 0.981441,-2.319769 1.605994,-3.747319c0.446109,-1.159884 1.159884,-2.676656 1.42755,-3.390431l3.033544,-6.870084c0.446109,-0.892219 1.605994,-1.695216 2.587434,-1.695216l3.747319,0c0.981441,0 1.605994,0.802997 1.42755,1.784437l-4.28265,18.647371c-0.267666,0.981441 -1.249106,1.784437 -2.230547,1.784437l-1.338328,0c-0.981441,0 -1.605994,-0.802997 -1.338328,-1.784437l3.301209,-12.937171c0.267666,-0.981441 0.089222,-1.070662 -0.267666,-0.089222l-5.888643,13.115615c-0.446109,0.892219 -1.605994,1.695216 -2.587434,1.695216l-0.981441,0c-0.981441,0 -1.784437,-0.802997 -1.784437,-1.784437l0.089222,-12.847949c0,-0.981441 -0.178444,-1.070662 -0.356887,0l-2.676656,12.937171c-0.178444,0.981441 -1.159884,1.784437 -2.230547,1.784437l-1.42755,0c-0.981441,0 -1.605994,-0.802997 -1.42755,-1.784437l4.371872,-18.647371z" fill="#333F48"/>
    <path stroke="null" id="svg_4" d="m59.702027,47.171635c0,0.267666 -0.089222,0.535331 -0.089222,0.713775c0,0.713775 0.178444,0.892219 0.446109,1.159884l-3.83654,0c-0.981441,0 -1.695216,-0.446109 -1.605994,-0.892219c0.089222,-0.535331 -0.446109,-0.356887 -1.159884,0.356887c0,0 -1.159884,0.981441 -3.122765,0.981441c-0.356887,0 -3.301209,0 -3.301209,-3.033544c0,-1.070662 0.624553,-4.014984 1.695216,-5.174869c1.070662,-1.159884 2.587434,-1.605994 8.476078,-3.301209c0.178444,-0.624553 0.356887,-1.695216 0.356887,-1.962881c0,-0.892219 -0.802997,-0.981441 -1.338328,-0.981441c-1.42755,0 -1.695216,0.713775 -2.141325,2.498212l-2.944322,0c-0.981441,0 -1.605994,-0.802997 -1.338328,-1.784437c0,0 0.624553,-2.141325 2.141325,-2.944322c1.159884,-0.624553 2.765878,-0.892219 4.550315,-0.892219c2.8551,0 5.888643,0.713775 5.888643,3.658097c0,0.624553 0,0.624553 0,0.624553c-0.178444,0.713775 -0.446109,2.052103 -0.713775,3.033544l-1.962881,7.940747zm-3.301209,-5.977865c-1.159884,0.356887 -2.587434,0.802997 -3.211987,1.249106c-0.802997,0.624553 -1.070662,2.498212 -1.070662,2.765878c0,0.535331 0.267666,1.070662 1.070662,1.070662c0.892219,0 0.892219,0 0.892219,0c0.624553,-0.535331 1.42755,-1.784437 1.605994,-2.765878l0.713775,-2.319769z" fill="#333F48"/>
    <path stroke="null" id="svg_5" d="m70.230208,35.662013c1.42755,-2.676656 2.408991,-3.211987 5.085647,-3.658097l-0.802997,2.944322c-0.267666,0.981441 -0.802997,1.784437 -1.159884,1.695216c0,0 0,0 -0.356887,0c-2.765878,0 -3.301209,1.159884 -4.014984,4.28265l-1.516772,6.423975c-0.178444,0.981441 -1.249106,1.784437 -2.230547,1.784437l-1.338328,0c-0.981441,0 -1.605994,-0.802997 -1.42755,-1.784437l3.122765,-13.294059c0.267666,-0.981441 1.249106,-1.784437 2.230547,-1.784437l1.338328,0c0.981441,0 1.605994,0.802997 1.42755,1.784437l-0.356887,1.605994z" fill="#333F48"/>
    <path stroke="null" id="svg_6" d="m80.847611,26.91827c0.981441,0 1.605994,0.802997 1.42755,1.784437l-1.873659,8.11919c-0.267666,0.981441 0.089222,1.159884 0.713775,0.356887l2.8551,-3.568875c0.624553,-0.802997 1.962881,-1.42755 2.944322,-1.42755l1.962881,0c0.981441,0 1.249106,0.624553 0.624553,1.338328l-4.104206,4.550315c-0.624553,0.713775 -0.981441,2.141325 -0.713775,3.122765l1.873659,6.067087c0.267666,0.981441 -0.267666,1.784437 -1.338328,1.784437l-1.338328,0c-0.981441,0 -2.052103,-0.802997 -2.319769,-1.784437l-1.42755,-5.531756c-0.267666,-0.981441 -0.624553,-0.981441 -0.892219,0l-1.249106,5.531756c-0.178444,0.981441 -1.249106,1.784437 -2.230547,1.784437l-1.338328,0c-0.981441,0 -1.605994,-0.802997 -1.42755,-1.784437l4.28265,-18.647371c0.267666,-0.981441 1.249106,-1.784437 2.230547,-1.784437l1.338328,0.089222l0,0z" fill="#333F48"/>
    <path stroke="null" id="svg_7" d="m102.796191,43.691982c-0.356887,1.249106 -0.624553,2.765878 -1.695216,3.83654c-0.981441,1.159884 -2.676656,2.052103 -5.620978,2.052103c-0.892219,0 -3.211987,-0.089222 -4.728759,-1.249106c-0.713775,-0.624553 -1.42755,-1.516772 -1.42755,-3.301209c0,-2.230547 1.605994,-8.476078 2.141325,-9.725184c0.535331,-1.338328 1.873659,-3.479653 6.513197,-3.479653c2.052103,0 5.977865,0.356887 5.977865,4.104206c0,0.713775 -0.089222,1.42755 -0.267666,2.141325c-0.267666,1.249106 -0.535331,2.319769 -0.802997,3.747319l-6.245531,0c-0.981441,0 -2.052103,0.802997 -2.230547,1.784437c0,0 -0.178444,0.535331 -0.178444,1.338328c0,0.178444 0,0.356887 0.089222,0.535331c0.178444,0.356887 0.713775,0.624553 1.42755,0.624553c1.42755,0 1.605994,-0.624553 1.605994,-0.624553c0.178444,-0.981441 1.249106,-1.784437 2.230547,-1.784437c0,0 3.211987,0 3.211987,0zm-4.104206,-4.907203c0.089222,-0.535331 0.446109,-1.873659 0.446109,-2.319769c0,-0.356887 -0.089222,-0.624553 -0.267666,-0.892219c-0.356887,-0.356887 -0.892219,-0.446109 -1.159884,-0.446109c-1.516772,0 -1.873659,1.784437 -1.873659,1.784437c-0.178444,0.981441 0.446109,1.784437 1.516772,1.784437l1.338328,0.089222l0,0z" fill="#333F48"/>
    <path stroke="null" id="svg_8" d="m109.041722,28.702708c0.178444,-0.981441 1.249106,-1.784437 2.230547,-1.784437l1.249106,0c0.981441,0 1.605994,0.802997 1.42755,1.784437l-0.446109,1.784437c-0.267666,0.981441 0.089222,1.784437 0.713775,1.784437s0.981441,0.713775 0.713775,1.516772c-0.178444,0.802997 -0.892219,1.516772 -1.42755,1.516772s-1.249106,0.802997 -1.516772,1.784437l-1.249106,5.26409c-0.267666,0.981441 -0.446109,2.141325 -0.535331,2.498212c0,0 0,0 0,0.267666c0,0.892219 0.624553,0.892219 2.052103,0.892219l-0.356887,1.42755c-0.178444,0.981441 -1.249106,1.784437 -2.230547,1.784437c0,0 -4.907203,0 -4.907203,-2.498212c0,-0.535331 0.089222,-0.981441 0.267666,-1.605994l1.873659,-7.940747c0.267666,-0.981441 0,-1.784437 -0.535331,-1.784437s-0.892219,-0.713775 -0.624553,-1.516772c0.178444,-0.802997 0.802997,-1.516772 1.338328,-1.516772s1.159884,-0.802997 1.42755,-1.784437l0.535331,-1.873659z" fill="#333F48"/>
    <path stroke="null" id="svg_9" d="m129.116643,36.46501c0,1.784437 -1.338328,7.405415 -1.784437,8.832965c-0.624553,1.784437 -1.605994,4.28265 -6.602418,4.28265c-3.747319,0 -6.156309,-1.249106 -6.156309,-4.550315c0,-1.784437 1.42755,-7.405415 1.695216,-8.297634c0.535331,-1.784437 1.605994,-4.817981 6.423975,-4.817981c2.408991,-0.089222 6.423975,0.356887 6.423975,4.550315zm-4.996425,0.624553c0.089222,-0.178444 0.089222,-0.446109 0.089222,-0.624553c0,-0.802997 -0.624553,-1.249106 -1.338328,-1.249106c-1.338328,0 -1.605994,1.159884 -1.784437,1.962881l-1.159884,4.907203c-0.267666,0.981441 -0.446109,2.052103 -0.535331,2.408991c0,0 0,0 0,0.356887c0,0.624553 0.356887,1.249106 1.338328,1.249106c1.338328,0 1.516772,-0.535331 1.516772,-0.535331c0.267666,-0.981441 0.624553,-2.587434 0.802997,-3.568875l1.070662,-4.907203z" fill="#333F48"/>
    <path stroke="null" id="svg_10" d="m132.685518,31.825473c1.159884,0 2.141325,0.981441 2.141325,2.141325c0,1.249106 -0.981441,2.141325 -2.141325,2.141325s-2.141325,-0.981441 -2.141325,-2.141325c-0.089222,-1.159884 0.892219,-2.141325 2.141325,-2.141325l0,0zm-0.089222,0.446109c-0.892219,0 -1.605994,0.802997 -1.605994,1.695216s0.713775,1.695216 1.605994,1.695216s1.605994,-0.802997 1.605994,-1.695216c0.089222,-0.892219 -0.624553,-1.695216 -1.605994,-1.695216l0,0zm-0.356887,3.033544l-0.535331,0l0,-2.408991c0.178444,0 0.356887,-0.089222 0.802997,-0.089222s0.713775,0.089222 0.802997,0.178444c0.089222,0.089222 0.178444,0.267666 0.178444,0.535331s-0.178444,0.535331 -0.446109,0.535331l0,0c0.178444,0 0.356887,0.267666 0.356887,0.535331c0,0.356887 0.089222,0.535331 0.089222,0.624553l-0.535331,0c-0.089222,-0.089222 -0.089222,-0.267666 -0.178444,-0.624553c0,-0.267666 -0.178444,-0.356887 -0.446109,-0.356887l-0.178444,0l0.089222,1.070662l0,0zm0,-1.42755l0.267666,0c0.267666,0 0.535331,-0.089222 0.535331,-0.356887c0,-0.178444 -0.178444,-0.356887 -0.535331,-0.356887c-0.089222,0 -0.178444,0 -0.267666,0l0,0.713775z" fill="#333F48"/>
   </g>
  </g>
 </g>
</svg>