<?xml version="1.0"?>
<svg width="153.5" height="50" xmlns="http://www.w3.org/2000/svg" xmlns:svg="http://www.w3.org/2000/svg">
 <g>
  <title>Layer 1</title>
  <g stroke="null" id="svg_1">
   <radialGradient stroke="null" transform="translate(0,0.0000019073486328125) translate(-0.000003814697265625,0) translate(3.5000038146972656,0) translate(0,0.9435787796974182) translate(1,0) translate(0,1) translate(0,-8.25) translate(-0.000003814697265625,0) translate(0,-3.040271759033203) translate(-3.1499996185302734,0) translate(-7,-1) translate(-8,-4) translate(153.5,66.5999984741211) scale(0.8832684755325317) translate(-153.5,-66.5999984741211) translate(164.7290802001953,70.87312316894531) scale(0.8604992628097534) translate(-164.7290802001953,-70.87312316894531) translate(23.879945755004883,-0.40750744938850403) scale(0.9232081770896912) translate(-23.879945755004883,0.40750744938850403) " gradientUnits="userSpaceOnUse" gradientTransform="matrix(1.4407 0 0 -1.4407 181.0216 594.2325)" r="40.0949" cy="392.9634" cx="-97.9424" id="SVGID_1_">
    <stop stroke="null" stop-color="#FFFFFF" offset="0"/>
    <stop stroke="null" stop-color="#99A5B4" offset="0.8655"/>
    <stop stroke="null" stop-color="#8A97A8" offset="0.9939"/>
   </radialGradient>
   <path stroke="null" id="svg_2" d="m48.331709,23.736966c-0.070169,-0.210506 -0.771855,0.210506 -0.982361,0.280674c0.280674,1.473541 0.350843,3.01725 0.421012,4.420622c-1.403372,-0.701686 -3.999611,-2.455901 -4.701297,-3.01725l-0.421012,0.210506c0,-0.070169 0,-0.140337 0,-0.210506l-0.701686,0.210506c-0.210506,0.140337 -0.140337,0 -0.140337,0.280674c0.210506,1.894552 -0.140337,3.929442 -0.771855,5.964332c-1.403372,-1.192866 -2.736576,-2.876913 -3.087419,-4.420622c-0.140337,0.070169 -0.280674,0.140337 -0.49118,0.140337c-0.210506,0.070169 -0.280674,0 -0.210506,0.210506c0.561349,2.105058 2.175227,3.789105 3.297925,4.631128c-1.333204,0.49118 -2.806744,1.052529 -4.490791,1.613878c-0.561349,0.210506 -1.403372,0.421012 -2.315564,0.771855c0.842023,-1.192866 2.736576,-4.911803 3.438262,-7.157198l-1.052529,0.421012c-1.122698,2.666407 -2.876913,5.473152 -3.648768,6.666018c-0.070169,0.070169 -0.070169,0.140337 -0.140337,0.210506c-0.701686,-1.333204 -0.982361,-2.876913 -0.421012,-4.631128l0,0c0.070169,-0.280674 -0.912192,0.421012 -0.982361,0.49118c-0.280674,0.140337 -0.280674,0.350843 -0.350843,0.631517c-0.070169,0.421012 -0.140337,0.842023 -0.140337,1.333204c0,0.982361 0.350843,1.964721 0.912192,2.876913c-2.175227,0.631517 -4.631128,1.403372 -7.016861,2.03489c0,-0.070169 0,-0.140337 0,-0.210506c0.350843,-1.684047 2.03489,-3.859274 3.999611,-4.981971l0.49118,-0.561349l-2.666407,1.824384c-1.263035,1.052529 -2.666407,2.736576 -3.01725,4.280285c-0.49118,2.245396 1.192866,3.999611 3.01725,5.332814c1.964721,1.403372 4.069779,2.105058 6.455512,2.806744c2.596239,0.771855 7.929053,1.473541 10.665629,1.473541c0.210506,0 0.49118,0 0.49118,0s0.140337,-0.210506 0.140337,-0.280674c0.210506,-0.421012 3.368093,-6.315175 4.210117,-11.297146c0.631517,-3.438262 1.052529,-7.999222 0.210506,-12.349675m-5.753826,2.175227c1.122698,0.771855 4.069779,2.455901 5.122309,2.876913c-1.333204,0.982361 -3.227756,2.105058 -5.964332,3.227756c0.771855,-2.736576 0.982361,-4.841634 0.842023,-6.104669m-5.753826,8.981582c1.263035,-0.421012 2.455901,-0.912192 3.508431,-1.403372c-0.842023,2.105058 -1.964721,4.210117 -3.01725,6.0345l0,0c-0.561349,-0.280674 -1.052529,-0.631517 -1.543709,-0.982361c-1.052529,-0.771855 -1.964721,-1.613878 -2.666407,-2.52607c1.263035,-0.350843 2.52607,-0.701686 3.718936,-1.122698m-12.419844,3.227756c2.245396,-0.561349 4.631128,-1.052529 7.016861,-1.613878c-1.754215,2.596239 -3.297925,4.490791 -4.139948,5.964332c-1.333204,-1.052529 -2.736576,-2.736576 -2.876913,-4.350454m3.157587,4.56096c1.403372,-2.105058 3.157587,-3.999611 4.701297,-5.894163c0.350843,0.49118 0.842023,0.912192 1.263035,1.333204c0.771855,0.701686 1.684047,1.333204 2.666407,1.824384c-2.736576,0.982361 -5.54332,2.03489 -8.279896,2.947082c-0.140337,-0.070169 -0.210506,-0.140337 -0.350843,-0.210506m6.104669,2.806744c-0.140337,-0.070169 -0.280674,-0.070169 -0.421012,-0.140337c-2.455901,-0.842023 -3.508431,-1.263035 -4.981971,-2.245396c1.122698,-0.350843 6.0345,-1.613878 8.350065,-2.385733c-1.333204,2.245396 -2.52607,3.929442 -2.947082,4.771466l0,0m9.893774,1.754215c-1.894552,-0.210506 -5.753826,-0.842023 -8.350065,-1.333204c3.578599,-0.842023 5.964332,-1.192866 10.034111,-3.157587c-0.701686,1.964721 -1.333204,3.718936 -1.684047,4.490791m-9.051751,-1.543709l0,0c-0.210506,0 -0.280674,0 -0.421012,-0.070169c1.403372,-1.684047 2.666407,-3.297925 3.648768,-4.911803c3.508431,1.473541 7.016861,1.754215 7.437873,1.754215c-1.613878,0.631517 -10.244617,3.087419 -10.665629,3.227756m12.490013,-9.192088c-0.280674,1.403372 -0.982361,3.648768 -1.684047,5.753826c-2.315564,-0.421012 -4.841634,-1.122698 -7.016861,-2.175227c2.385733,-0.982361 7.437873,-3.297925 8.771076,-4.210117c0.070169,0.210506 0,0.421012 -0.070169,0.631517m0.210506,-0.982361c-1.403372,0.842023 -6.174838,2.666407 -8.420233,3.508431c1.192866,-2.105058 2.03489,-4.069779 2.596239,-5.823995c2.455901,1.473541 5.05214,2.105058 5.823995,2.315564c0,-0.070169 0,-0.070169 0,0m0.070169,-0.280674c-1.894552,-0.49118 -3.648768,-1.403372 -5.262646,-2.455901c3.297925,-1.684047 5.54332,-3.297925 5.753826,-3.508431c0,2.175227 -0.210506,4.210117 -0.49118,5.964332" fill="url(#SVGID_1_)"/>
   <radialGradient stroke="null" transform="translate(0,0.0000019073486328125) translate(-0.000003814697265625,0) translate(3.5000038146972656,0) translate(0,0.9435787796974182) translate(1,0) translate(0,1) translate(0,-8.25) translate(-0.000003814697265625,0) translate(0,-3.040271759033203) translate(-3.1499996185302734,0) translate(-7,-1) translate(-8,-4) translate(153.5,66.5999984741211) scale(0.8832684755325317) translate(-153.5,-66.5999984741211) translate(164.7290802001953,70.87312316894531) scale(0.8604992628097534) translate(-164.7290802001953,-70.87312316894531) translate(23.879945755004883,-0.40750744938850403) scale(0.9232081770896912) translate(-23.879945755004883,0.40750744938850403) " gradientUnits="userSpaceOnUse" gradientTransform="matrix(1.4407 0 0 -1.4407 181.0216 594.2325)" r="19.6342" cy="402.0621" cx="-102.5" id="SVGID_2_">
    <stop stroke="null" stop-color="#FFFFFF" offset="0"/>
    <stop stroke="null" stop-color="#99A5B4" offset="0.8655"/>
    <stop stroke="null" stop-color="#8A97A8" offset="0.9939"/>
   </radialGradient>
   <path stroke="null" id="svg_3" d="m32.052592,7.949029c-0.912192,-0.701686 0.070169,-1.684047 0.631517,-2.105058c0.210506,-0.210506 0.49118,-0.350843 0.701686,-0.561349c0.701686,0.842023 2.455901,3.087419 3.157587,3.789105l1.263035,-0.070169c-0.701686,-0.49118 -3.368093,-3.227756 -4.139948,-3.859274l0,0c1.263035,0.49118 5.54332,1.333204 7.858884,1.473541c0,0 0,0 0,0.070169c-0.771855,0.421012 -2.245396,1.122698 -3.789105,2.175227l1.052529,0.140337c1.192866,-0.631517 2.03489,-1.192866 2.947082,-2.03489c0.421012,0.912192 0.912192,1.894552 1.543709,2.947082l0.982361,0.140337c-1.894552,-3.227756 -3.227756,-6.0345 -3.789105,-8.420233c-1.333204,0.421012 -8.56057,2.947082 -9.893774,4.701297c-0.49118,0.771855 0.982361,1.263035 1.473541,1.613878m8.279896,-5.964332c0.140337,1.403372 0.421012,2.666407 0.982361,4.069779c-1.684047,-0.421012 -5.753826,-1.052529 -7.227367,-1.192866c2.455901,-1.473541 5.823995,-2.666407 6.245006,-2.876913" fill="url(#SVGID_2_)"/>
   <radialGradient stroke="null" transform="translate(0,0.0000019073486328125) translate(-0.000003814697265625,0) translate(3.5000038146972656,0) translate(0,0.9435787796974182) translate(1,0) translate(0,1) translate(0,-8.25) translate(-0.000003814697265625,0) translate(0,-3.040271759033203) translate(-3.1499996185302734,0) translate(-7,-1) translate(-8,-4) translate(153.5,66.5999984741211) scale(0.8832684755325317) translate(-153.5,-66.5999984741211) translate(164.7290802001953,70.87312316894531) scale(0.8604992628097534) translate(-164.7290802001953,-70.87312316894531) translate(23.879945755004883,-0.40750744938850403) scale(0.9232081770896912) translate(-23.879945755004883,0.40750744938850403) " gradientUnits="userSpaceOnUse" gradientTransform="matrix(1.4407 0 0 -1.4407 181.0216 594.2325)" r="16.6284" cy="393.7516" cx="-107.6317" id="SVGID_3_">
    <stop stroke="null" stop-color="#E23126" offset="0"/>
    <stop stroke="null" stop-color="#B92226" offset="1"/>
   </radialGradient>
   <path stroke="null" id="svg_4" d="m64.96167,19.877693c-2.52607,-3.929442 -6.315175,-7.57821 -17.752658,-9.683268c-2.385733,-0.421012 -5.262646,-0.771855 -10.314786,-1.684047c-1.754215,-0.280674 -7.016861,-1.122698 -6.385344,-2.175227c-0.350843,0.421012 -0.070169,0.842023 0.140337,1.052529c2.596239,2.947082 6.385344,4.701297 6.385344,10.735797c0,5.54332 -4.981971,10.735797 -10.034111,14.875745c-0.280674,0.210506 -0.561349,0.421012 -0.842023,0.701686c6.0345,-3.718936 9.823605,-5.192477 14.524902,-7.016861c5.894163,-2.315564 17.612321,-5.613489 24.348508,-6.525681l-0.070169,-0.280674zm-9.753437,-6.315175c0.701686,0.280674 1.333204,0.561349 1.964721,0.842023c-3.227756,0.701686 -6.104669,1.613878 -8.700908,2.666407c0.982361,-1.964721 1.403372,-3.718936 1.543709,-5.192477c1.684047,0.49118 3.438262,0.982361 5.192477,1.684047zm-7.929053,3.648768c-1.192866,-0.701686 -2.385733,-1.333204 -3.648768,-1.824384c1.684047,-1.192866 3.648768,-2.455901 5.823995,-3.578599c-0.140337,1.263035 -0.842023,3.087419 -2.175227,5.402983zm-9.823605,-2.455901c1.122698,0.210506 2.455901,0.631517 3.929442,1.192866c-1.122698,0.912192 -2.385733,2.03489 -3.789105,3.438262c0.210506,-1.613878 0.140337,-3.157587 -0.140337,-4.631128zm4.420622,1.894552c-0.350843,1.684047 -1.122698,3.368093 -2.105058,5.05214c-0.701686,-0.771855 -1.473541,-1.263035 -2.03489,-1.473541c0.771855,-0.771855 2.175227,-2.03489 4.139948,-3.578599zm0.912192,-0.140337c1.052529,0.49118 2.175227,1.052529 3.297925,1.613878c-1.824384,0.842023 -3.438262,1.754215 -4.911803,2.736576c0.842023,-1.543709 1.333204,-2.947082 1.613878,-4.350454zm5.964332,-4.911803c-2.105058,0.912192 -3.859274,1.754215 -5.823995,3.157587c0.070169,-1.613878 -0.280674,-3.157587 -0.842023,-4.420622c2.245396,0.421012 4.490791,0.771855 6.666018,1.263035zm-7.08703,-1.333204c0.49118,1.473541 0.631517,3.01725 0.49118,4.56096c-1.473541,-0.49118 -3.01725,-0.912192 -4.420622,-1.263035c0.982361,-1.052529 2.385733,-2.105058 3.929442,-3.297925l0,0zm-9.402594,-2.03489c0.842023,0.280674 1.824384,0.561349 2.947082,0.842023c0.49118,1.403372 0.842023,2.666407 1.192866,3.789105c-0.982361,-1.754215 -2.385733,-3.368093 -4.139948,-4.631128zm3.368093,0.912192c2.03489,0.49118 4.210117,0.842023 5.473152,1.052529c-0.912192,0.49118 -3.01725,1.754215 -3.999611,2.947082c-0.49118,-1.894552 -1.122698,-3.297925 -1.473541,-3.999611zm1.613878,12.279507c0.631517,0.280674 1.122698,0.631517 1.543709,0.982361c-1.192866,0.842023 -2.315564,1.684047 -3.227756,2.455901c0.771855,-1.122698 1.333204,-2.245396 1.684047,-3.438262zm-2.52607,4.701297c0.912192,-0.631517 2.175227,-1.543709 3.789105,-2.596239c-1.543709,1.894552 -3.578599,3.718936 -6.0345,5.192477c0.842023,-0.842023 1.613878,-1.754215 2.245396,-2.596239zm-1.192866,2.596239c2.596239,-1.824384 4.56096,-3.648768 5.964332,-5.54332c0.631517,0.842023 0.982361,1.684047 1.052529,2.455901c-2.666407,1.122698 -4.911803,2.03489 -7.016861,3.087419zm7.57821,-3.157587c0,-1.333204 -0.350843,-2.315564 -0.771855,-3.157587c1.684047,-0.982361 3.578599,-2.03489 5.683657,-3.087419c-1.333204,1.824384 -2.947082,3.859274 -4.911803,6.245006l0,0zm0.771855,-0.350843c2.52607,-2.245396 4.280285,-4.350454 5.54332,-6.315175c1.473541,0.912192 2.876913,2.03489 4.069779,3.227756c-2.806744,0.771855 -6.104669,1.754215 -9.6131,3.087419zm10.314786,-3.227756l0,0c-0.982361,-1.613878 -2.245396,-2.876913 -3.648768,-3.929442c2.736576,-1.192866 5.823995,-2.385733 9.121919,-3.297925c-1.052529,1.824384 -2.806744,3.789105 -5.473152,7.227367l0,0l0,0zm0.842023,-0.210506c2.52607,-2.385733 3.718936,-3.859274 5.122309,-6.806355c2.947082,1.613878 4.981971,3.508431 6.0345,4.771466c0.070169,0.070169 0.140337,0.140337 0.280674,0.210506c-1.403372,0 -5.402983,0.350843 -11.437483,1.824384z" fill="url(#SVGID_3_)"/>
   <polyline stroke="null" id="svg_5" points="46.226654052734375,46.40142631530762 45.80563735961914,46.40142631530762 45.80563735961914,47.66446495056152 45.595130920410156,47.66446495056152 45.595130920410156,46.40142631530762 45.244285583496094,46.40142631530762 45.244285583496094,46.26108741760254 46.226654052734375,46.26108741760254 " fill="#231F20"/>
   <path stroke="null" id="svg_6" d="m47.840529,47.664462l-0.140337,0l0,-0.912192c0,-0.070169 0,-0.140337 0,-0.280674l0,0c0,0.070169 0,0.140337 -0.070169,0.140337l-0.49118,1.052529l-0.070169,0l-0.49118,-1.052529c0,0 0,-0.070169 -0.070169,-0.140337l0,0c0,0.070169 0,0.140337 0,0.280674l0,0.912192l-0.140337,0l0,-1.403372l0.210506,0l0.421012,0.982361c0,0.070169 0.070169,0.140337 0.070169,0.140337l0,0c0,-0.070169 0.070169,-0.140337 0.070169,-0.140337l0.421012,-0.982361l0.210506,0" fill="#231F20"/>
   <g stroke="null" id="svg_7">
    <path stroke="null" id="svg_8" d="m80.188258,27.59624c0,0.280674 -0.070169,0.421012 -0.280674,0.631517c-0.140337,0.140337 -0.350843,0.280674 -0.631517,0.280674s-0.49118,-0.070169 -0.631517,-0.280674c-0.140337,-0.140337 -0.280674,-0.350843 -0.280674,-0.631517s0.070169,-0.421012 0.280674,-0.631517c0.140337,-0.140337 0.350843,-0.280674 0.631517,-0.280674s0.421012,0.070169 0.631517,0.210506c0.140337,0.210506 0.280674,0.421012 0.280674,0.701686m-0.140337,0c0,-0.210506 -0.070169,-0.421012 -0.210506,-0.561349c-0.140337,-0.140337 -0.350843,-0.210506 -0.561349,-0.210506s-0.421012,0.070169 -0.561349,0.210506c-0.140337,0.140337 -0.210506,0.350843 -0.210506,0.561349s0.070169,0.421012 0.210506,0.561349c0.140337,0.140337 0.350843,0.210506 0.561349,0.210506s0.421012,-0.070169 0.561349,-0.210506s0.210506,-0.350843 0.210506,-0.561349m-0.350843,0.561349l-0.210506,0l-0.140337,-0.280674c-0.070169,-0.140337 -0.140337,-0.210506 -0.210506,-0.210506l-0.070169,0l0,0.49118l-0.140337,0l0,-1.122698l0.350843,0c0.140337,0 0.210506,0 0.350843,0.070169c0.070169,0.070169 0.070169,0.140337 0.070169,0.210506s0,0.140337 -0.070169,0.210506c-0.070169,0.070169 -0.140337,0.070169 -0.280674,0.070169l0,0c0.070169,0 0.140337,0.070169 0.210506,0.210506l0.140337,0.350843zm-0.210506,-0.842023c0,-0.070169 0,-0.140337 -0.070169,-0.140337s-0.140337,-0.070169 -0.210506,-0.070169l-0.140337,0l0,0.350843l0.210506,0c0.140337,0.070169 0.210506,0 0.210506,-0.140337" fill="#231F20"/>
   </g>
   <g stroke="null" id="svg_9">
    <path stroke="null" id="svg_10" d="m57.313291,30.473153l-0.49118,0l0,-2.947082c0,-0.210506 0,-0.49118 0.070169,-0.842023l0,0c-0.070169,0.210506 -0.070169,0.350843 -0.140337,0.421012l-1.473541,3.368093l-0.280674,0l-1.473541,-3.368093c-0.140337,-0.070169 -0.210506,-0.210506 -0.210506,-0.421012l0,0c0,0.210506 0,0.49118 0,0.842023l0,2.947082l-0.49118,0l0,-4.420622l0.701686,0l1.333204,3.087419c0.070169,0.210506 0.140337,0.421012 0.210506,0.561349l0,0c0.070169,-0.210506 0.140337,-0.421012 0.210506,-0.561349l1.403372,-3.01725l0.631517,0l0,4.350454z" fill="#231F20"/>
    <path stroke="null" id="svg_11" d="m58.997338,26.263036c0,0.070169 0,0.140337 -0.070169,0.210506s-0.140337,0.070169 -0.210506,0.070169s-0.140337,0 -0.210506,-0.070169s-0.070169,-0.140337 -0.070169,-0.210506s0,-0.140337 0.070169,-0.210506s0.140337,-0.070169 0.210506,-0.070169s0.140337,0 0.210506,0.070169c0,0 0.070169,0.070169 0.070169,0.210506m-0.140337,1.122698l0,3.157587l-0.49118,0l0,-3.157587l0.49118,0z" fill="#231F20"/>
    <path stroke="null" id="svg_12" d="m62.014588,30.332816c-0.210506,0.140337 -0.561349,0.210506 -0.842023,0.210506c-0.421012,0 -0.842023,-0.140337 -1.052529,-0.421012c-0.280674,-0.280674 -0.421012,-0.631517 -0.421012,-1.122698c0,-0.49118 0.140337,-0.912192 0.421012,-1.263035c0.280674,-0.350843 0.701686,-0.49118 1.192866,-0.49118c0.280674,0 0.49118,0.070169 0.701686,0.140337l0,0.49118c-0.210506,-0.140337 -0.49118,-0.210506 -0.771855,-0.210506c-0.350843,0 -0.561349,0.140337 -0.771855,0.350843s-0.280674,0.561349 -0.280674,0.912192s0.070169,0.631517 0.280674,0.842023c0.210506,0.210506 0.421012,0.350843 0.771855,0.350843c0.280674,0 0.561349,-0.070169 0.771855,-0.280674l0,0.49118z" fill="#231F20"/>
    <path stroke="null" id="svg_13" d="m64.400321,27.876914c-0.070169,-0.070169 -0.210506,-0.070169 -0.350843,-0.070169c-0.210506,0 -0.350843,0.070169 -0.49118,0.280674c-0.140337,0.210506 -0.210506,0.49118 -0.210506,0.842023l0,1.613878l-0.49118,0l0,-3.157587l0.49118,0l0,0.631517l0,0c0.070169,-0.210506 0.210506,-0.421012 0.350843,-0.561349s0.280674,-0.140337 0.49118,-0.140337c0.140337,0 0.210506,0 0.280674,0.070169l0,0.49118l-0.070169,0z" fill="#231F20"/>
    <path stroke="null" id="svg_14" d="m67.698246,28.929443c0,0.49118 -0.140337,0.912192 -0.421012,1.192866c-0.280674,0.280674 -0.631517,0.421012 -1.122698,0.421012c-0.49118,0 -0.842023,-0.140337 -1.122698,-0.421012c-0.280674,-0.280674 -0.421012,-0.701686 -0.421012,-1.122698c0,-0.561349 0.140337,-0.982361 0.49118,-1.263035c0.280674,-0.280674 0.631517,-0.421012 1.122698,-0.421012c0.49118,0 0.842023,0.140337 1.122698,0.421012c0.280674,0.280674 0.350843,0.701686 0.350843,1.192866m-0.49118,0c0,-0.421012 -0.070169,-0.701686 -0.280674,-0.912192c-0.210506,-0.210506 -0.421012,-0.280674 -0.771855,-0.280674c-0.280674,0 -0.561349,0.070169 -0.771855,0.280674c-0.210506,0.210506 -0.280674,0.561349 -0.280674,0.912192s0.070169,0.701686 0.280674,0.912192c0.210506,0.210506 0.421012,0.350843 0.771855,0.350843s0.561349,-0.140337 0.771855,-0.350843c0.210506,-0.210506 0.280674,-0.49118 0.280674,-0.912192" fill="#231F20"/>
    <path stroke="null" id="svg_15" d="m70.224316,29.631129c0,0.280674 -0.070169,0.49118 -0.280674,0.631517c-0.210506,0.210506 -0.49118,0.280674 -0.842023,0.280674c-0.280674,0 -0.561349,-0.070169 -0.771855,-0.210506l0,-0.561349c0.280674,0.210506 0.49118,0.280674 0.842023,0.280674c0.421012,0 0.631517,-0.140337 0.631517,-0.421012c0,-0.140337 -0.070169,-0.210506 -0.140337,-0.280674c-0.070169,-0.070169 -0.280674,-0.210506 -0.49118,-0.280674c-0.280674,-0.140337 -0.421012,-0.210506 -0.561349,-0.350843c-0.140337,-0.140337 -0.210506,-0.350843 -0.210506,-0.561349c0,-0.280674 0.070169,-0.49118 0.280674,-0.631517s0.49118,-0.280674 0.771855,-0.280674s0.49118,0.070169 0.701686,0.140337l0,0.49118c-0.210506,-0.140337 -0.421012,-0.210506 -0.701686,-0.210506c-0.140337,0 -0.280674,0.070169 -0.421012,0.140337c-0.070169,0.070169 -0.140337,0.210506 -0.140337,0.280674c0,0.140337 0.070169,0.280674 0.140337,0.350843s0.210506,0.140337 0.49118,0.280674c0.280674,0.140337 0.49118,0.210506 0.561349,0.350843c0.070169,0.140337 0.140337,0.350843 0.140337,0.561349" fill="#231F20"/>
    <path stroke="null" id="svg_16" d="m73.802915,28.929443c0,0.49118 -0.140337,0.912192 -0.421012,1.192866s-0.631517,0.421012 -1.122698,0.421012s-0.842023,-0.140337 -1.122698,-0.421012c-0.280674,-0.280674 -0.421012,-0.701686 -0.421012,-1.122698c0,-0.561349 0.140337,-0.982361 0.49118,-1.263035c0.280674,-0.280674 0.631517,-0.421012 1.122698,-0.421012s0.842023,0.140337 1.122698,0.421012c0.210506,0.280674 0.350843,0.701686 0.350843,1.192866m-0.49118,0c0,-0.421012 -0.070169,-0.701686 -0.280674,-0.912192s-0.421012,-0.280674 -0.771855,-0.280674c-0.280674,0 -0.561349,0.070169 -0.771855,0.280674c-0.210506,0.210506 -0.280674,0.561349 -0.280674,0.912192s0.070169,0.701686 0.280674,0.912192s0.421012,0.350843 0.771855,0.350843s0.561349,-0.140337 0.771855,-0.350843c0.140337,-0.210506 0.280674,-0.49118 0.280674,-0.912192" fill="#231F20"/>
    <path stroke="null" id="svg_17" d="m76.04831,26.333205c-0.070169,-0.070169 -0.210506,-0.070169 -0.350843,-0.070169c-0.350843,0 -0.561349,0.210506 -0.561349,0.631517l0,0.49118l0.701686,0l0,0.421012l-0.701686,0l0,2.736576l-0.49118,0l0,-2.736576l-0.561349,0l0,-0.421012l0.561349,0l0,-0.49118c0,-0.350843 0.140337,-0.631517 0.350843,-0.842023c0.210506,-0.140337 0.421012,-0.280674 0.701686,-0.280674c0.140337,0 0.280674,0 0.350843,0.070169l0,0.49118z" fill="#231F20"/>
    <path stroke="null" id="svg_18" d="m78.013031,30.473153c-0.140337,0.070169 -0.280674,0.070169 -0.49118,0.070169c-0.561349,0 -0.842023,-0.280674 -0.842023,-0.912192l0,-1.824384l-0.561349,0l0,-0.421012l0.561349,0l0,-0.771855c0.140337,-0.070169 0.350843,-0.070169 0.49118,-0.140337l0,0.912192l0.771855,0l0,0.421012l-0.771855,0l0,1.754215c0,0.210506 0.070169,0.350843 0.140337,0.421012s0.210506,0.140337 0.350843,0.140337s0.210506,0 0.350843,-0.070169l0,0.421012z" fill="#231F20"/>
   </g>
   <g stroke="null" id="svg_19">
    <path stroke="null" id="svg_20" d="m69.452461,48.29598c-0.631517,-0.771855 -1.263035,-1.543709 -2.03489,-2.245396c-0.350843,-0.350843 -0.771855,-0.561349 -1.263035,-0.701686c-3.01725,-0.631517 -4.841634,-2.596239 -4.981971,-5.753826c-0.070169,-0.982361 -0.070169,-1.964721 0.140337,-2.876913c0.561349,-2.666407 2.385733,-4.210117 5.192477,-4.490791c2.736576,-0.350843 4.911803,0.771855 5.964332,2.947082c0.561349,1.192866 0.771855,2.455901 0.701686,3.789105c0,1.473541 -0.421012,2.876913 -1.333204,4.139948c-0.631517,0.842023 -1.403372,1.543709 -2.385733,1.894552c-0.210506,0.070169 -0.350843,0.140337 -0.631517,0.280674c0.421012,0.421012 0.701686,0.771855 1.052529,1.192866c0.561349,0.631517 1.192866,1.263035 1.754215,1.894552c-0.701686,-0.070169 -1.403372,-0.070169 -2.175227,-0.070169zm-6.595849,-9.542931c0.070169,0.561349 0.070169,1.122698 0.210506,1.613878c0.350843,1.894552 1.964721,3.438262 3.789105,3.508431c2.175227,0.070169 3.789105,-0.842023 4.420622,-3.01725c0.421012,-1.473541 0.350843,-2.876913 0,-4.350454c-0.421012,-1.473541 -1.333204,-2.455901 -2.806744,-2.736576c-1.613878,-0.280674 -3.087419,-0.140337 -4.210117,1.192866c-1.122698,1.122698 -1.403372,2.385733 -1.403372,3.789105z"/>
    <path stroke="null" id="svg_21" d="m123.973471,43.173671c0,0.49118 0,0.912192 0,1.403372c-1.684047,0.771855 -3.368093,1.192866 -5.122309,0.280674c-1.192866,-0.631517 -1.964721,-1.543709 -2.175227,-2.876913c-0.280674,-1.754215 -0.210506,-3.438262 1.052529,-4.841634c1.052529,-1.192866 2.455901,-1.613878 3.999611,-1.333204c1.684047,0.350843 2.666407,1.684047 2.806744,3.578599c0,0.49118 0,0.982361 0,1.613878c-2.105058,0 -4.210117,0 -6.245006,0c-0.070169,1.754215 1.543709,3.227756 3.087419,2.876913c0.912192,-0.070169 1.684047,-0.421012 2.596239,-0.701686zm-5.54332,-3.508431c1.473541,0 2.947082,0 4.420622,0c0,-1.333204 -0.842023,-2.315564 -1.964721,-2.385733c-1.333204,-0.070169 -2.385733,0.842023 -2.455901,2.385733z"/>
    <path stroke="null" id="svg_22" d="m101.238841,41.138781c-2.175227,0 -4.210117,0 -6.245006,0c0,1.894552 1.543709,3.227756 3.297925,2.876913c0.631517,-0.140337 1.263035,-0.421012 1.894552,-0.631517c0.140337,-0.070169 0.280674,-0.140337 0.561349,-0.210506c0,0.49118 0,0.982361 0,1.473541c-1.613878,0.771855 -3.227756,1.192866 -4.981971,0.421012c-1.684047,-0.771855 -2.385733,-2.105058 -2.455901,-3.929442c-0.070169,-1.613878 0.280674,-3.01725 1.473541,-4.139948c1.263035,-1.192866 2.806744,-1.473541 4.350454,-0.771855c1.543709,0.631517 2.03489,1.964721 2.105058,3.508431c0.070169,0.350843 0,0.771855 0,1.403372zm-1.684047,-1.473541c-0.070169,-1.543709 -0.982361,-2.455901 -2.315564,-2.385733c-1.192866,0.070169 -2.175227,1.192866 -2.03489,2.385733c1.473541,0 2.947082,0 4.350454,0z"/>
    <path stroke="null" id="svg_23" d="m85.310567,42.963165c0.49118,0.210506 0.842023,0.421012 1.263035,0.561349c0.771855,0.210506 1.543709,0.350843 2.315564,0.421012c0.771855,0 1.333204,-0.350843 1.684047,-1.052529c0.350843,-0.771855 0.140337,-1.473541 -0.421012,-1.964721c-0.49118,-0.49118 -1.122698,-0.912192 -1.684047,-1.333204c-0.631517,-0.49118 -1.403372,-0.912192 -1.964721,-1.473541c-0.982361,-0.912192 -1.473541,-1.964721 -0.982361,-3.368093c0.49118,-1.473541 1.543709,-2.245396 3.01725,-2.385733c0.912192,-0.070169 1.824384,0.070169 2.736576,0.070169c0.280674,0 0.49118,0.140337 0.771855,0.280674c0,0.561349 0,1.052529 0,1.684047c-0.280674,-0.140337 -0.561349,-0.210506 -0.771855,-0.280674c-0.912192,-0.350843 -1.824384,-0.49118 -2.806744,-0.210506c-1.192866,0.280674 -1.894552,2.03489 -0.701686,3.01725c0.561349,0.49118 1.192866,0.912192 1.824384,1.333204c0.701686,0.49118 1.473541,0.982361 2.105058,1.613878c1.613878,1.543709 1.192866,4.139948 -0.771855,5.122309c-1.754215,0.912192 -3.578599,0.631517 -5.332814,-0.070169c-0.280674,-0.701686 -0.280674,-1.333204 -0.280674,-1.964721z"/>
    <path stroke="null" id="svg_24" d="m52.892669,44.787549c0,-0.631517 0,-1.192866 0,-1.894552c0.421012,0.210506 0.771855,0.350843 1.122698,0.49118c0.912192,0.421012 1.894552,0.701686 2.876913,0.421012c1.403372,-0.421012 1.894552,-1.824384 0.842023,-2.947082c-0.49118,-0.561349 -1.122698,-0.912192 -1.754215,-1.403372c-0.701686,-0.49118 -1.403372,-0.912192 -2.03489,-1.473541c-0.912192,-0.842023 -1.403372,-1.894552 -1.052529,-3.157587c0.350843,-1.333204 1.192866,-2.175227 2.52607,-2.455901c1.333204,-0.350843 2.596239,-0.280674 3.929442,0.280674c0,0.561349 0,1.122698 0,1.684047c-0.49118,-0.140337 -0.982361,-0.350843 -1.473541,-0.421012c-0.561349,-0.070169 -1.192866,-0.140337 -1.824384,-0.070169c-0.701686,0.070169 -1.263035,0.49118 -1.473541,1.263035c-0.280674,0.701686 0,1.333204 0.49118,1.824384c0.49118,0.421012 1.052529,0.842023 1.613878,1.192866c0.561349,0.421012 1.192866,0.771855 1.824384,1.192866c1.333204,1.052529 1.754215,2.315564 1.333204,3.789105c-0.49118,1.543709 -1.684047,2.105058 -3.157587,2.385733c-1.263035,0.070169 -2.596239,-0.210506 -3.789105,-0.701686z"/>
    <path stroke="null" id="svg_25" d="m76.749996,43.524514c1.754215,0 3.368093,0 5.05214,0c0,0.561349 0,0.982361 0,1.543709c-2.245396,0 -4.420622,0 -6.666018,0c0,-4.210117 0,-8.420233 0,-12.700518c0.561349,0 1.052529,0 1.684047,0c-0.070169,3.718936 -0.070169,7.437873 -0.070169,11.156809z"/>
    <path stroke="null" id="svg_26" d="m107.975028,36.086642c0.701686,0 1.192866,0 1.754215,0c0.771855,2.315564 1.613878,4.56096 2.385733,6.876524c0.070169,0 0.140337,0 0.140337,0c0.842023,-2.315564 1.754215,-4.56096 2.596239,-6.876524c0.561349,0 1.052529,0 1.684047,0c-1.192866,3.087419 -2.385733,6.0345 -3.578599,9.051751c-0.561349,0 -1.052529,0 -1.684047,0c-1.052529,-3.01725 -2.175227,-6.0345 -3.297925,-9.051751z"/>
    <path stroke="null" id="svg_27" d="m104.466598,45.138392c-0.631517,0 -1.122698,0 -1.684047,0c0,-3.01725 0,-5.964332 0,-9.051751c0.49118,0 1.052529,0 1.613878,0c0,0.350843 0.070169,0.701686 0.070169,1.263035c0.701686,-1.333204 1.824384,-1.613878 3.087419,-1.403372c0,0.561349 0,1.052529 0,1.543709c-0.140337,0 -0.210506,0 -0.350843,0c-1.473541,-0.210506 -2.52607,0.561349 -2.666407,2.03489c-0.070169,1.263035 -0.070169,2.52607 -0.140337,3.789105c0,0.561349 0.070169,1.122698 0.070169,1.824384z"/>
    <path stroke="null" id="svg_28" d="m130.849995,35.876136c0,0.561349 0,1.052529 0,1.543709c-0.070169,0.070169 -0.140337,0.070169 -0.140337,0.070169c-1.894552,-0.210506 -2.947082,0.701686 -2.947082,2.666407c0,1.403372 0,2.806744 0,4.210117c0,0.210506 0,0.49118 0,0.771855c-0.561349,0 -1.122698,0 -1.684047,0c0,-3.01725 0,-5.964332 0,-9.051751c0.561349,0 1.052529,0 1.613878,0c0,0.350843 0.070169,0.701686 0.140337,1.192866c0.701686,-1.263035 1.754215,-1.613878 3.01725,-1.403372z"/>
   </g>
  </g>
 </g>
</svg>