<?xml version="1.0" encoding="utf-8"?>
<!-- Generator: Adobe Illustrator 21.0.0, SVG Export Plug-In . SVG Version: 6.00 Build 0)  -->
<svg version="1.1" xmlns="http://www.w3.org/2000/svg" xmlns:xlink="http://www.w3.org/1999/xlink" x="0px" y="0px"
	 viewBox="0 0 240 90" enable-background="new 0 0 240 90" xml:space="preserve">
<g id="Layer_2" display="none">
	
		<rect x="-10" display="inline" fill="none" stroke="#E8E7E7" stroke-width="1.1277" stroke-miterlimit="10" width="260" height="90"/>
</g>
<g id="Layer_1">
	<g>
		<path fill="#6A7E91" d="M92.8,74.3h-4C88.6,67.5,88.2,61,87.5,55h0l-6.2,19.3h-3.1L72.1,55h0c-0.5,5.8-0.7,12.2-0.9,19.3h-3.7
			c0.2-8.6,0.8-16.7,1.8-24.2h5l5.8,17.8h0l5.9-17.8h4.8C92,58.9,92.6,67,92.8,74.3"/>
		<path fill="#6A7E91" d="M110.3,56.4c-1.6,8.9-3.8,15.4-6.5,19.5c-2.1,3.1-4.4,4.7-6.9,4.7c-0.7,0-1.5-0.2-2.5-0.6v-2.2
			c0.5,0.1,1,0.1,1.7,0.1c1.2,0,2.1-0.3,2.8-1c0.9-0.8,1.3-1.7,1.3-2.7c0-0.7-0.3-2-1-4.1l-4.4-13.8h4l3.2,10.3c0.7,2.3,1,4,0.9,4.9
			c1.7-4.7,3-9.7,3.7-15.2H110.3z"/>
		<polygon fill="#FA8A3B" points="164.2,74.3 152.7,74.3 152.7,50.1 156.6,50.1 156.6,71.3 164.2,71.3 		"/>
		<path fill-rule="evenodd" clip-rule="evenodd" fill="#FA8A3B" d="M149.7,74.9l-4.4-2.2c0.4-0.3,0.8-0.7,1.1-1.1
			c1.9-2.2,2.8-5.5,2.8-9.9c0-8-3.1-12-9.4-12c-3.1,0-5.5,1-7.2,3c-1.9,2.2-2.8,5.5-2.8,9.8c0,4.3,0.8,7.4,2.5,9.4
			c1.5,1.8,3.8,2.7,6.9,2.7c1.2,0,2.2-0.1,3.2-0.4l5.8,3.4L149.7,74.9z M135.3,69.4c-1-1.6-1.5-4.1-1.5-7.6c0-6.1,1.9-9.1,5.6-9.1
			c1.9,0,3.4,0.7,4.3,2.2c1,1.6,1.5,4.1,1.5,7.5c0,6.1-1.9,9.2-5.6,9.2C137.6,71.6,136.2,70.9,135.3,69.4"/>
		<path fill="#FA8A3B" d="M128.1,67.6c0,2.1-0.8,3.7-2.3,5.1c-1.5,1.3-3.5,2-6.1,2c-2.4,0-4.7-0.8-6.9-2.3l1-2.1
			c1.9,1,3.6,1.4,5.2,1.4c1.5,0,2.6-0.3,3.4-1c0.8-0.6,1.3-1.5,1.3-2.7c0-1.4-1-2.7-2.8-3.7c-1.7-0.9-5.1-2.9-5.1-2.9
			c-1.8-1.3-2.8-2.8-2.8-5.1c0-2,0.7-3.5,2.1-4.7c1.4-1.2,3.1-1.8,5.3-1.8c2.2,0,4.3,0.6,6.1,1.8l-0.9,2.1c-1.6-0.7-3.1-1-4.7-1
			c-1.2,0-2.2,0.3-2.9,0.9c-0.7,0.6-1.1,1.4-1.1,2.3c0,1.4,1,2.7,2.9,3.7c1.7,0.9,5.2,2.9,5.2,2.9C127.1,63.8,128.1,65.2,128.1,67.6
			"/>
		<path fill-rule="evenodd" clip-rule="evenodd" fill="#6A7E91" d="M169.1,42c-2.3-0.1-4.1,0.2-5.7,0.8c-0.4,0.2-1.1,0.2-1.2,0.7
			c0.2,0.2,0.3,0.6,0.5,0.9c0.4,0.6,1,1.4,1.5,1.8c0.6,0.5,1.2,0.9,1.9,1.3c1.1,0.7,2.4,1.1,3.5,1.8c0.6,0.4,1.3,0.9,1.9,1.4
			c0.3,0.2,0.5,0.6,0.9,0.8v-0.1c-0.2-0.3-0.3-0.6-0.5-0.9c-0.3-0.3-0.6-0.6-0.9-0.8c-0.8-1.1-1.9-2.1-3-3c-0.9-0.6-3-1.5-3.4-2.6
			c0,0,0,0-0.1-0.1c0.6-0.1,1.4-0.3,2-0.5c1-0.3,1.9-0.2,2.9-0.5c0.5-0.1,0.9-0.3,1.4-0.4v-0.3c-0.5-0.5-0.9-1.2-1.5-1.7
			c-1.5-1.3-3.1-2.5-4.8-3.6c-0.9-0.6-2.1-1-3-1.5c-0.3-0.2-0.9-0.3-1.1-0.6c-0.5-0.6-0.8-1.5-1.2-2.2c-0.8-1.6-1.7-3.4-2.4-5.1
			c-0.5-1.1-0.8-2.3-1.5-3.3c-3-5-6.3-8-11.3-10.9c-1.1-0.6-2.4-0.9-3.7-1.2c-0.7,0-1.5-0.1-2.2-0.1c-0.5-0.2-0.9-0.8-1.3-1
			c-1.7-1.1-6-3.3-7.2-0.3c-0.8,1.9,1.2,3.8,1.8,4.7c0.5,0.7,1.1,1.4,1.5,2.2c0.2,0.5,0.3,1,0.5,1.5c0.5,1.3,0.9,2.7,1.5,3.9
			c0.3,0.6,0.7,1.3,1.1,1.8c0.2,0.3,0.6,0.5,0.7,1c-0.4,0.6-0.4,1.5-0.7,2.2c-1.1,3.3-0.6,7.4,0.8,9.8c0.5,0.7,1.6,2.3,3.1,1.7
			c1.3-0.5,1-2.2,1.4-3.7c0.1-0.4,0-0.6,0.2-0.8v0.1c0.4,0.8,0.8,1.6,1.2,2.4c0.9,1.4,2.5,2.9,3.8,3.9c0.7,0.5,1.3,1.4,2.1,1.8v-0.1
			h-0.1c-0.2-0.3-0.4-0.4-0.7-0.6c-0.5-0.5-1.1-1.2-1.5-1.8c-1.2-1.6-2.3-3.4-3.3-5.3c-0.5-0.9-0.9-1.9-1.3-2.8
			c-0.2-0.3-0.2-0.9-0.5-1.1c-0.4,0.6-1.1,1.2-1.4,2c-0.6,1.3-0.6,2.8-0.8,4.4c-0.1,0-0.1,0-0.1,0.1c-0.9-0.2-1.3-1.2-1.6-2
			c-0.9-2.1-1-5.4-0.3-7.8c0.2-0.6,1.1-2.5,0.7-3.1c-0.2-0.6-0.8-0.9-1.1-1.3c-0.4-0.6-0.8-1.3-1.1-1.9c-0.7-1.6-1.1-3.4-1.8-5.1
			c-0.4-0.8-1-1.6-1.5-2.3c-0.6-0.8-1.2-1.3-1.6-2.3c-0.1-0.3-0.3-0.8-0.1-1.2c0.1-0.2,0.2-0.3,0.4-0.4c0.4-0.3,1.5,0.1,1.8,0.3
			c1.1,0.4,2,0.8,2.9,1.5c0.4,0.3,0.8,0.8,1.4,1h0.6c0.9,0.2,2,0.1,2.9,0.3c1.5,0.5,2.9,1.2,4.2,2c3.8,2.4,7,5.9,9.1,10
			c0.4,0.7,0.5,1.3,0.8,2c0.6,1.4,1.4,2.9,2,4.3c0.6,1.4,1.2,2.8,2.1,3.9c0.4,0.6,2.2,0.9,3,1.3c0.6,0.3,1.5,0.5,2,0.8
			c1,0.6,2,1.3,2.9,2C167.5,40.7,169,41.4,169.1,42"/>
		<path fill-rule="evenodd" clip-rule="evenodd" fill="#6A7E91" d="M139.3,16.6c-0.5,0-0.8,0.1-1.2,0.1v0.1h0.1
			c0.2,0.5,0.6,0.8,0.9,1.2c0.2,0.5,0.4,0.9,0.7,1.4c0,0,0.1-0.1,0.1-0.1c0.4-0.3,0.6-0.8,0.6-1.5c-0.2-0.2-0.2-0.4-0.4-0.6
			C139.9,17,139.5,16.8,139.3,16.6"/>
		<path fill="#FA8A3B" d="M171.9,74.3h0.6v-3h-0.9l-0.7,2l-0.8-2h-0.9v3h0.6V72h0l0.8,2.3h0.4l0.8-2.3V74.3z M167,74.3h0.6v-2.5h0.8
			v-0.5h-2.4v0.5h0.9V74.3z"/>
	</g>
</g>
</svg>
