<?xml version="1.0"?>
<svg width="160" height="50" xmlns="http://www.w3.org/2000/svg" xmlns:svg="http://www.w3.org/2000/svg">
 <g>
  <title>Layer 1</title>
  <g stroke="null" id="Layer_1_1_">
   <g stroke="null" id="svg_1">
    <polygon stroke="null" id="svg_2" points="0.3655242919921875,8.36778450012207 21.811073303222656,8.36778450012207 21.811073303222656,26.858613967895508 13.614108085632324,16.18349552154541 0.3655242919921875,16.18349552154541 " fill="#003B71"/>
    <polygon stroke="null" id="svg_3" points="1.9858548641204834,17.517887115478516 8.753117561340332,17.517887115478516 8.753117561340332,33.62587547302246 12.184404373168945,33.62587547302246 12.184404373168945,40.011884689331055 1.9858548641204834,40.011884689331055 " fill="#A7BAC9"/>
    <polygon stroke="null" id="svg_4" points="34.9643440246582,41.63221549987793 13.423480987548828,41.63221549987793 13.423480987548828,23.141386032104492 21.715761184692383,33.72118949890137 34.9643440246582,33.72118949890137 " fill="#003B71"/>
    <polygon stroke="null" id="svg_5" points="33.34401321411133,32.38680076599121 26.576751708984375,32.38680076599121 26.576751708984375,16.18349552154541 23.145463943481445,16.18349552154541 23.145463943481445,9.988114356994629 33.34401321411133,9.988114356994629 " fill="#A7BAC9"/>
    <polygon stroke="null" id="svg_6" points="58.50679397583008,33.2446231842041 54.59893798828125,33.2446231842041 47.83167266845703,21.139801025390625 47.83167266845703,33.2446231842041 44.11444854736328,33.2446231842041 44.11444854736328,15.611614227294922 48.97543716430664,15.611614227294922 54.7895622253418,25.714853286743164 54.7895622253418,15.611614227294922 58.50679397583008,15.611614227294922 " fill="#231F20"/>
    <polygon stroke="null" id="svg_7" points="73.1850814819336,33.2446231842041 61.84276580810547,33.2446231842041 61.84276580810547,15.611614227294922 73.1850814819336,15.611614227294922 73.1850814819336,18.947589874267578 65.84593200683594,18.947589874267578 65.84593200683594,22.09293556213379 72.80382537841797,22.09293556213379 72.80382537841797,25.428911209106445 65.84593200683594,25.428911209106445 65.84593200683594,29.718021392822266 73.1850814819336,29.718021392822266 " fill="#231F20"/>
    <polygon stroke="null" id="svg_8" points="89.57901000976562,18.947589874267578 84.62271118164062,18.947589874267578 84.62271118164062,33.2446231842041 80.61953735351562,33.2446231842041 80.61953735351562,18.947589874267578 75.6632308959961,18.947589874267578 75.6632308959961,15.611614227294922 89.57901000976562,15.611614227294922 " fill="#231F20"/>
    <path stroke="null" id="svg_9" d="m104.161986,28.09769c0,0.667195 -0.095314,1.33439 -0.381254,2.001585s-0.667195,1.239076 -1.143763,1.715644c-0.571881,0.571881 -1.239076,0.857822 -2.001585,1.143763c-0.762508,0.285941 -1.715644,0.381254 -2.764093,0.381254c-1.143763,0 -2.096898,-0.095314 -3.050034,-0.285941c-0.953136,-0.190627 -1.810958,-0.667195 -2.764093,-1.048449l0,-2.95472l0.095314,0c0.762508,0.762508 1.715644,1.239076 2.764093,1.715644s2.001585,0.667195 2.95472,0.667195c1.239076,0 2.382839,-0.285941 2.95472,-0.857822c0.762508,-0.571881 1.048449,-1.239076 1.048449,-2.192212c0,-0.762508 -0.190627,-1.33439 -0.571881,-1.715644s-0.857822,-0.667195 -1.62033,-0.857822c-0.571881,-0.095314 -1.048449,-0.285941 -1.715644,-0.381254c-0.667195,-0.095314 -1.239076,-0.190627 -1.906271,-0.381254c-1.33439,-0.285941 -2.478152,-0.857822 -3.050034,-1.715644c-0.667195,-0.857822 -0.953136,-1.810958 -0.953136,-3.145347c0,-1.525017 0.571881,-2.66878 1.715644,-3.621915s2.573466,-1.33439 4.28911,-1.33439c1.048449,0 2.096898,0.095314 3.050034,0.285941c0.953136,0.190627 1.715644,0.571881 2.478152,0.857822l0,2.764093l-0.095314,0c-0.667195,-0.571881 -1.33439,-1.048449 -2.382839,-1.33439c-1.048449,-0.190627 -2.001585,-0.285941 -3.050034,-0.285941c-1.143763,0 -2.001585,0.190627 -2.66878,0.762508c-0.667195,0.571881 -1.048449,1.143763 -1.048449,2.001585c0,0.762508 0.190627,1.239076 0.571881,1.715644c0.285941,0.381254 0.953136,0.762508 1.810958,0.953136c0.381254,0.095314 1.048449,0.190627 1.906271,0.381254c0.857822,0.095314 1.62033,0.285941 2.096898,0.571881c1.143763,0.285941 2.001585,0.857822 2.66878,1.62033c0.476568,0.381254 0.762508,1.33439 0.762508,2.573466l0,0z" fill="#231F20"/>
    <path stroke="null" id="svg_10" d="m120.555917,26.096106c0,1.239076 -0.095314,2.382839 -0.381254,3.335974c-0.190627,0.953136 -0.667195,1.715644 -1.239076,2.382839c-0.571881,0.667195 -1.143763,1.048449 -1.906271,1.239076c-0.762508,0.285941 -1.62033,0.381254 -2.573466,0.381254s-1.810958,-0.095314 -2.573466,-0.381254c-0.762508,-0.285941 -1.33439,-0.762508 -1.906271,-1.239076c-0.571881,-0.667195 -0.953136,-1.33439 -1.239076,-2.382839c-0.190627,-0.953136 -0.381254,-2.001585 -0.381254,-3.431288l0,-10.389177l2.096898,0l0,10.579805c0,0.953136 0.095314,1.715644 0.190627,2.192212c0.095314,0.571881 0.285941,1.048449 0.667195,1.525017c0.285941,0.571881 0.762508,0.857822 1.239076,1.143763c0.571881,0.190627 1.143763,0.381254 1.906271,0.381254s1.33439,-0.095314 1.906271,-0.381254c0.571881,-0.190627 0.953136,-0.667195 1.239076,-1.143763c0.285941,-0.381254 0.381254,-0.953136 0.667195,-1.62033c0.095314,-0.571881 0.190627,-1.239076 0.190627,-2.096898l0,-10.579805l2.096898,0l0,10.484491l0,0z" fill="#231F20"/>
    <polygon stroke="null" id="svg_11" points="129.038818359375,33.2446231842041 126.94192504882812,33.2446231842041 126.94192504882812,15.611614227294922 129.038818359375,15.611614227294922 " fill="#231F20"/>
    <polygon stroke="null" id="svg_12" points="146.004638671875,17.708511352539062 140.38113403320312,17.708511352539062 140.38113403320312,33.2446231842041 138.28424072265625,33.2446231842041 138.28424072265625,17.708511352539062 132.66073608398438,17.708511352539062 132.66073608398438,15.611614227294922 146.004638671875,15.611614227294922 " fill="#231F20"/>
    <polygon stroke="null" id="svg_13" points="159.6344757080078,33.2446231842041 149.14999389648438,33.2446231842041 149.14999389648438,15.611614227294922 159.6344757080078,15.611614227294922 159.6344757080078,17.708511352539062 151.34219360351562,17.708511352539062 151.34219360351562,22.47418975830078 159.6344757080078,22.47418975830078 159.6344757080078,24.571088790893555 151.34219360351562,24.571088790893555 151.34219360351562,31.052410125732422 159.6344757080078,31.052410125732422 " fill="#231F20"/>
   </g>
  </g>
 </g>
</svg>