<?xml version="1.0"?>
<svg width="160" height="50" xmlns="http://www.w3.org/2000/svg" xmlns:svg="http://www.w3.org/2000/svg">
 <g>
  <title>Layer 1</title>
  <g stroke="null" id="svg_1">
   <path stroke="null" id="svg_2" d="m46.774268,10.96823l8.634936,0c6.194628,0 10.418237,3.191172 10.418237,8.634936l0,0.093858c0,5.913054 -5.068332,9.010367 -10.981385,9.010367l-6.006912,0l0,10.512095l-2.064876,0l0,-28.251256l0,0zm8.259504,15.674285c5.256048,0 8.728794,-2.721882 8.728794,-6.945492l0,0c0,-4.505184 -3.472746,-6.851634 -8.541078,-6.851634l-6.382344,0l0,13.797125l6.194628,0z"/>
   <path stroke="null" id="svg_3" d="m66.484447,33.118716l0,0c0,-4.317468 3.660462,-6.757776 9.010367,-6.757776c2.81574,0 4.786758,0.375432 6.757776,0.844722l0,-0.844722c0,-4.129752 -2.534166,-6.288486 -6.757776,-6.288486c-2.534166,0 -4.505184,0.657006 -6.476202,1.689444l-0.750864,-1.689444c2.252592,-1.032438 4.505184,-1.783302 7.320924,-1.783302c2.81574,0 4.974474,0.750864 6.476202,2.252592c1.40787,1.40787 2.064876,3.28503 2.064876,5.819196l0,12.764687l-1.971018,0l0,-3.472746c-1.40787,1.971018 -3.942036,3.942036 -7.884072,3.942036c-3.660462,0 -7.790214,-2.158734 -7.790214,-6.476202zm15.862001,-1.689444l0,-2.34645c-1.689444,-0.46929 -4.035894,-0.93858 -6.945492,-0.93858c-4.317468,0 -6.757776,1.971018 -6.757776,4.786758l0,0.093858c0,3.003456 2.81574,4.6929 5.913054,4.6929c4.22361,0 7.790214,-2.534166 7.790214,-6.288486z"/>
   <path stroke="null" id="svg_4" d="m86.757774,18.570727l1.971018,0l0,5.819196c1.595586,-3.660462 6.006912,-5.819196 10.136663,-5.819196l0,1.783302l-0.187716,0c-4.786758,0 -9.948947,3.566604 -9.948947,10.230521l0,8.44722l-1.971018,0l0,-20.461043z"/>
   <path stroke="null" id="svg_5" d="m101.305763,18.570727l0,-6.57006l1.971018,0l0,6.57006l7.227066,0l0,1.783302l-7.227066,0l0,13.233977c0,2.909598 1.689444,3.942036 4.129752,3.942036c1.032438,0 1.87716,-0.187716 3.003456,-0.750864l0,1.87716c-1.032438,0.46929 -2.064876,0.750864 -3.378888,0.750864c-3.191172,0 -5.725338,-1.689444 -5.725338,-5.63148l0,-13.421693"/>
   <path stroke="null" id="svg_6" d="m116.698475,29.176681l0,0c0,-5.725338 4.505184,-10.605953 10.136663,-10.605953c3.75432,0 6.10077,1.689444 7.97793,3.660462l-1.40787,1.40787c-1.689444,-1.783302 -3.660462,-3.28503 -6.663918,-3.28503c-4.505184,0 -8.071788,3.848178 -8.071788,8.634936l0,0.093858c0,4.786758 3.660462,8.634936 8.259504,8.634936c2.81574,0 4.974474,-1.501728 6.663918,-3.378888l1.314012,1.220154c-2.064876,2.34645 -4.505184,3.942036 -8.165646,3.942036c-5.63148,0.093858 -10.042805,-4.6929 -10.042805,-10.324379z"/>
   <path stroke="null" id="svg_7" d="m137.065659,9.748076l1.971018,0l0,29.377552l-1.971018,0l0,-29.377552z"/>
   <path stroke="null" id="svg_8" d="m141.101553,29.082823l0,0c0,-5.913054 4.035894,-10.512095 9.479657,-10.512095c5.63148,0 9.198083,4.599042 9.198083,10.512095c0,0.375432 0,0.46929 0,0.750864l-16.519007,0c0.375432,4.974474 3.942036,7.884072 7.790214,7.884072c3.097314,0 5.16219,-1.40787 6.851634,-3.097314l1.314012,1.220154c-2.064876,2.158734 -4.411326,3.75432 -8.259504,3.75432c-5.256048,0 -9.855089,-4.22361 -9.855089,-10.512095zm16.612865,-0.93858c-0.281574,-4.035894 -2.628024,-7.790214 -7.133208,-7.790214c-3.942036,0 -7.03935,3.378888 -7.320924,7.790214l14.454131,0z"/>
   <g stroke="null" id="svg_9">
    <rect stroke="null" id="svg_10" height="20.554901" width="1.971018" y="18.570727" x="112.662581"/>
    <rect stroke="null" id="svg_11" height="3.28503" width="1.971018" y="12.000668" x="112.662581"/>
   </g>
   <g stroke="null" id="svg_12">
    <g stroke="null" id="svg_13">
     <polygon stroke="null" id="svg_14" points="37.106895446777344,25.04692840576172 27.251806259155273,27.11180305480957 25.937793731689453,25.04692840576172 27.251806259155273,22.888195037841797 " fill="#00AEEF"/>
     <polygon stroke="null" id="svg_15" points="18.71072769165039,32.27399444580078 20.775602340698242,33.58800506591797 18.71072769165039,43.44309616088867 16.55199432373047,33.58800506591797 " fill="#00AEEF"/>
     <polygon stroke="null" id="svg_16" points="18.71072769165039,6.556903839111328 20.775602340698242,16.4119930267334 18.71072769165039,17.72600555419922 16.55199432373047,16.4119930267334 " fill="#00AEEF"/>
     <polygon stroke="null" id="svg_17" points="10.07579231262207,22.888195037841797 11.38980484008789,25.04692840576172 10.07579231262207,27.11180305480957 0.2207031100988388,25.04692840576172 " fill="#00AEEF"/>
    </g>
    <polygon stroke="null" id="svg_18" points="31.663131713867188,12.000667572021484 23.309770584106445,25.04692840576172 31.663131713867188,37.999332427978516 18.71072769165039,29.645971298217773 5.664466857910156,37.999332427978516 14.017828941345215,25.04692840576172 5.664466857910156,12.000667572021484 18.71072769165039,20.354028701782227 " fill="#00AEEF"/>
   </g>
  </g>
 </g>
</svg>