<?xml version="1.0"?>
<svg width="160" height="50" xmlns="http://www.w3.org/2000/svg" xmlns:svg="http://www.w3.org/2000/svg">
 <g>
  <title>Layer 1</title>
  <g display="none" id="Layer_2">
   <rect id="svg_1" height="90" width="260" stroke-miterlimit="10" stroke-width="1.1277" stroke="#E8E7E7" fill="none" x="-10"/>
  </g>
  <g stroke="null" id="Layer_1">
   <g stroke="null" id="svg_2">
    <path stroke="null" id="svg_3" d="m118.704278,16.436363c-2.014973,1.091444 -1.931016,4.617647 0.251872,5.457219c2.350802,0.839572 4.869519,0.923529 7.220321,1.51123c0.587701,0.167914 1.175401,0.419786 1.427273,1.007487c0.587701,1.175401 0.083957,2.938503 -1.259358,3.358289c-1.931016,0.587701 -4.197861,0.587701 -6.04492,-0.167914c-1.259358,-0.503743 -1.847059,-1.763102 -1.931016,-2.938503c-0.503743,0 -1.091444,0 -1.595187,0.083957c0.083957,1.175401 0.335829,2.434759 1.259358,3.190374c1.51123,1.175401 3.442246,1.343316 5.289305,1.427273c1.679144,0 3.526203,-0.167914 4.953476,-1.091444c1.679144,-1.175401 1.847059,-4.281818 -0.167914,-5.289305c-1.847059,-0.923529 -3.945989,-1.007487 -5.877005,-1.427273c-0.923529,-0.251872 -2.014973,-0.335829 -2.854545,-0.923529c-1.091444,-1.007487 -0.587701,-3.106417 0.839572,-3.442246c1.847059,-0.503743 3.862032,-0.587701 5.625134,0.083957c1.091444,0.335829 1.51123,1.51123 1.679144,2.434759c0.503743,0 1.007487,0 1.595187,0c0,-1.007487 -0.335829,-2.09893 -1.175401,-2.770588c-1.343316,-1.091444 -3.190374,-1.175401 -4.785561,-1.175401c-1.427273,-0.083957 -3.02246,-0.083957 -4.449733,0.671658z" fill="#326690"/>
    <path stroke="null" id="svg_4" d="m58.842781,16.85615c-0.839572,-0.755615 -2.09893,-1.007487 -3.190374,-1.007487c-2.434759,0 -4.869519,0.083957 -7.304278,0.083957c0,4.281818 0,8.647594 0,12.929412c0.419786,0 0.839572,0 1.259358,0c0,-1.847059 -0.083957,-3.694118 0,-5.457219c2.09893,0 4.113904,0 6.212834,0c1.51123,-0.083957 3.274332,-0.755615 3.862032,-2.266845c0.503743,-1.427273 0.335829,-3.274332 -0.839572,-4.281818zm-0.671658,4.029947c-0.419786,1.091444 -1.679144,1.427273 -2.770588,1.51123c-1.931016,0.083957 -3.862032,0 -5.709091,0c0,-1.763102 0,-3.61016 0,-5.373262c1.847059,0 3.694118,0 5.541176,0c0.923529,0 2.014973,0.167914 2.602674,0.923529c0.587701,0.755615 0.671658,1.931016 0.335829,2.938503z"/>
    <path stroke="null" id="svg_5" d="m147.33369,15.93262c0,4.281818 0,8.563636 0,12.929412c3.694118,0 7.472193,0 11.16631,0c0,-0.335829 0,-0.671658 0,-1.091444c-3.190374,-0.083957 -6.380749,0 -9.65508,-0.083957c0,-3.945989 0,-7.891979 0,-11.837968c-0.503743,0.083957 -1.007487,0.083957 -1.51123,0.083957z" fill="#326690"/>
    <path stroke="null" id="svg_6" d="m82.854545,17.611765c0,0.923529 0,1.847059 0,2.770588c-0.587701,0 -1.091444,0 -1.679144,0c0,0.251872 0,0.587701 0,0.839572c0.587701,0 1.175401,0 1.679144,0c0,1.931016 0,3.945989 0,5.877005c0,0.587701 0.167914,1.175401 0.671658,1.51123c0.923529,0.419786 1.931016,0.335829 2.938503,0.251872c0,-0.251872 0,-0.587701 0,-0.839572c-0.671658,0.083957 -1.343316,0.167914 -1.931016,-0.167914c-0.419786,-0.251872 -0.335829,-0.755615 -0.419786,-1.175401c0,-1.847059 0,-3.61016 0,-5.457219c0.755615,0 1.51123,0 2.266845,0c0,-0.335829 0,-0.587701 -0.083957,-0.923529c-0.755615,0 -1.51123,0 -2.266845,0c0,-0.923529 0,-1.847059 0,-2.770588c-0.251872,0.083957 -0.755615,0.083957 -1.175401,0.083957z" fill="#FFFFFF"/>
    <path stroke="null" id="svg_7" d="m72.191979,20.886096c-1.175401,0.755615 -1.175401,2.938503 0.251872,3.526203c1.931016,0.671658 4.113904,0.503743 6.128877,1.091444c1.007487,0.335829 1.091444,1.847059 0.167914,2.350802c-1.343316,0.671658 -2.938503,0.587701 -4.365775,0.335829c-1.007487,-0.167914 -1.847059,-0.839572 -1.931016,-1.931016c-0.503743,0 -1.007487,0 -1.427273,0c0.167914,0.755615 0.335829,1.595187 1.007487,2.09893c1.091444,0.755615 2.518717,0.755615 3.778075,0.839572c1.343316,0 2.770588,-0.083957 3.945989,-0.755615c1.007487,-0.587701 1.343316,-1.931016 0.755615,-2.854545c-0.419786,-0.671658 -1.175401,-0.923529 -1.931016,-1.091444c-1.595187,-0.335829 -3.274332,-0.335829 -4.869519,-0.671658c-0.587701,-0.167914 -1.091444,-0.587701 -1.091444,-1.175401c0,-0.839572 0.923529,-1.259358 1.679144,-1.427273c1.175401,-0.167914 2.518717,-0.251872 3.694118,0.251872c0.671658,0.251872 0.839572,0.923529 1.007487,1.595187c0.503743,0 0.923529,0 1.427273,0c-0.083957,-0.755615 -0.335829,-1.595187 -1.007487,-2.014973c-1.259358,-0.839572 -2.770588,-0.839572 -4.197861,-0.755615c-1.007487,-0.083957 -2.09893,0 -3.02246,0.587701z" fill="#FFFFFF"/>
    <path stroke="null" id="svg_8" d="m101.996791,20.46631c-0.587701,0.251872 -0.923529,0.839572 -1.259358,1.427273c0,-0.503743 0,-1.007487 0,-1.427273c-0.419786,0 -0.839572,0 -1.343316,0c-0.083957,2.854545 0,5.625134 0,8.479679c0.419786,0 0.839572,0 1.259358,0c0,-1.427273 0,-2.938503 0,-4.365775c0,-1.007487 0.335829,-2.182888 1.175401,-2.770588c0.923529,-0.671658 2.09893,-0.503743 3.190374,-0.503743c0,-0.335829 0,-0.755615 0,-1.091444c-1.007487,-0.083957 -2.014973,-0.167914 -3.02246,0.251872z" fill="#FFFFFF"/>
    <path stroke="null" id="svg_9" d="m133.564706,16.604278c1.847059,-0.923529 3.945989,-1.091444 5.960963,-0.923529c1.931016,0.167914 3.862032,0.839572 5.12139,2.350802c1.595187,1.679144 1.931016,4.365775 1.259358,6.548663c-0.335829,1.259358 -1.175401,2.182888 -2.09893,3.02246c0.755615,0.503743 1.51123,1.007487 2.266845,1.595187c-0.335829,0.335829 -0.671658,0.587701 -1.007487,0.923529c-0.755615,-0.503743 -1.51123,-1.091444 -2.266845,-1.51123c-0.587701,0 -1.175401,0.335829 -1.847059,0.503743c-1.679144,0.335829 -3.526203,0.335829 -5.205348,0c-1.847059,-0.335829 -3.694118,-1.427273 -4.701604,-3.106417c-1.007487,-1.595187 -1.091444,-3.694118 -0.671658,-5.457219c0.503743,-1.763102 1.679144,-3.190374 3.190374,-3.945989zm2.518717,0.335829c-1.763102,0.419786 -3.442246,1.679144 -4.029947,3.442246c-0.587701,1.931016 -0.419786,4.197861 1.007487,5.793048c1.259358,1.427273 3.106417,2.014973 4.953476,2.014973c2.014973,0.083957 4.197861,-0.503743 5.541176,-2.09893c1.847059,-2.350802 1.595187,-6.128877 -0.839572,-7.975936c-1.847059,-1.595187 -4.365775,-1.679144 -6.63262,-1.175401z" fill="#326690"/>
    <path stroke="null" id="svg_10" d="m82.854545,17.611765c0.419786,0 0.839572,0 1.343316,0c0,0.923529 0,1.847059 0,2.770588c0.755615,0 1.51123,0 2.266845,0c0,0.335829 0,0.587701 0.083957,0.923529c-0.755615,0 -1.51123,0 -2.266845,0c0,1.847059 0,3.61016 0,5.457219c0,0.419786 0,0.923529 0.419786,1.175401c0.587701,0.251872 1.259358,0.167914 1.931016,0.167914c0,0.251872 0,0.587701 0,0.839572c-1.007487,0.083957 -2.014973,0.167914 -2.938503,-0.251872c-0.587701,-0.251872 -0.755615,-0.923529 -0.671658,-1.51123c0,-1.931016 0,-3.945989 0,-5.877005c-0.587701,0 -1.175401,0 -1.679144,0c0,-0.251872 0,-0.587701 0,-0.839572c0.587701,0 1.091444,0 1.679144,0c-0.167914,-1.007487 -0.167914,-1.931016 -0.167914,-2.854545z"/>
    <path stroke="null" id="svg_11" d="m68.413904,20.886096c-1.51123,-0.839572 -3.358289,-0.923529 -5.037433,-0.671658c-1.427273,0.251872 -2.770588,1.007487 -3.358289,2.350802c-0.587701,1.343316 -0.587701,2.938503 0.083957,4.281818c0.755615,1.427273 2.350802,2.182888 3.862032,2.266845c1.931016,0.167914 4.113904,-0.083957 5.541176,-1.595187c1.51123,-1.931016 1.175401,-5.373262 -1.091444,-6.63262zm-0.251872,6.296791c-0.755615,0.755615 -1.847059,1.091444 -2.854545,1.091444c-1.175401,0.083957 -2.434759,-0.167914 -3.274332,-0.923529c-1.091444,-1.007487 -1.259358,-2.686631 -0.839572,-4.113904c0.419786,-1.259358 1.595187,-2.014973 2.854545,-2.182888c1.175401,-0.167914 2.518717,-0.083957 3.61016,0.587701c0.839572,0.503743 1.259358,1.427273 1.343316,2.350802c0.167914,1.175401 0,2.350802 -0.839572,3.190374z"/>
    <path stroke="null" id="svg_12" d="m72.191979,20.886096c0.839572,-0.587701 1.931016,-0.671658 2.938503,-0.755615c1.427273,-0.083957 3.02246,-0.083957 4.197861,0.755615c0.671658,0.419786 0.923529,1.259358 1.007487,2.014973c-0.503743,0 -0.923529,0 -1.427273,0c-0.083957,-0.671658 -0.335829,-1.259358 -1.007487,-1.595187c-1.175401,-0.503743 -2.434759,-0.503743 -3.694118,-0.251872c-0.755615,0.083957 -1.679144,0.503743 -1.679144,1.427273c-0.083957,0.587701 0.503743,1.091444 1.091444,1.175401c1.595187,0.419786 3.274332,0.335829 4.869519,0.671658c0.755615,0.167914 1.51123,0.503743 1.931016,1.091444c0.587701,0.923529 0.251872,2.350802 -0.755615,2.854545c-1.175401,0.671658 -2.602674,0.755615 -3.945989,0.755615c-1.259358,-0.083957 -2.686631,-0.083957 -3.778075,-0.839572c-0.671658,-0.503743 -0.923529,-1.259358 -1.007487,-2.09893c0.503743,0 1.007487,0 1.427273,0c0,1.091444 0.923529,1.847059 1.931016,1.931016c1.427273,0.167914 3.02246,0.335829 4.365775,-0.335829c0.923529,-0.503743 0.839572,-2.014973 -0.167914,-2.350802c-2.014973,-0.587701 -4.197861,-0.419786 -6.128877,-1.091444c-1.343316,-0.419786 -1.343316,-2.602674 -0.167914,-3.358289z"/>
    <path stroke="null" id="svg_13" d="m90.494652,20.298396c1.343316,-0.335829 2.854545,-0.335829 4.197861,0.083957c0.755615,0.251872 1.343316,0.839572 1.931016,1.343316c0,-0.503743 0.083957,-0.923529 0.083957,-1.343316c0.419786,0 0.839572,0 1.259358,0c0.083957,2.602674 0,5.205348 0.083957,7.808021c0.083957,1.091444 -0.167914,2.266845 -1.007487,3.02246c-1.091444,1.007487 -2.686631,1.175401 -4.113904,1.175401c-1.259358,0 -2.602674,-0.083957 -3.778075,-0.671658c-0.755615,-0.419786 -1.175401,-1.259358 -1.343316,-2.09893c0.419786,0 0.839572,0 1.259358,0c0.251872,0.587701 0.503743,1.259358 1.091444,1.51123c0.923529,0.419786 1.931016,0.419786 2.938503,0.419786c1.091444,-0.083957 2.350802,-0.251872 3.02246,-1.175401c0.671658,-0.923529 0.503743,-2.09893 0.503743,-3.190374c-1.343316,1.427273 -3.442246,1.679144 -5.289305,1.427273c-1.175401,-0.167914 -2.350802,-0.587701 -3.190374,-1.51123c-0.923529,-1.175401 -1.007487,-2.770588 -0.671658,-4.113904c0.335829,-1.343316 1.679144,-2.350802 3.02246,-2.686631zm1.091444,0.839572c-0.923529,0.167914 -1.931016,0.587701 -2.434759,1.427273c-0.587701,1.007487 -0.587701,2.350802 -0.251872,3.358289c0.419786,1.091444 1.679144,1.679144 2.770588,1.847059c1.427273,0.167914 3.106417,0 4.113904,-1.091444c1.175401,-1.427273 1.007487,-3.862032 -0.503743,-4.953476c-1.007487,-0.755615 -2.434759,-0.755615 -3.694118,-0.587701z"/>
    <path stroke="null" id="svg_14" d="m101.996791,20.46631c1.007487,-0.419786 2.014973,-0.335829 3.02246,-0.335829c0,0.335829 0,0.755615 0,1.091444c-1.091444,0 -2.266845,-0.167914 -3.190374,0.503743c-0.839572,0.587701 -1.175401,1.763102 -1.175401,2.770588c0,1.427273 0,2.938503 0,4.365775c-0.419786,0 -0.839572,0 -1.259358,0c-0.083957,-2.854545 -0.083957,-5.625134 0,-8.479679c0.419786,0 0.839572,0 1.343316,0c0,0.503743 0,1.007487 0,1.427273c0.335829,-0.503743 0.671658,-1.091444 1.259358,-1.343316z"/>
    <path stroke="null" id="svg_15" d="m105.522995,22.229412c0.839572,-1.427273 2.602674,-2.014973 4.197861,-2.09893c1.679144,-0.083957 3.526203,0.167914 4.701604,1.427273c0.923529,0.839572 1.175401,2.09893 1.259358,3.358289c-3.190374,0 -6.296791,0 -9.487166,0c0.083957,0.839572 0.335829,1.763102 1.007487,2.350802c1.259358,1.091444 3.106417,1.259358 4.617647,0.839572c1.007487,-0.251872 1.847059,-1.007487 2.182888,-2.014973c0.503743,0 1.007487,0 1.427273,0c-0.419786,1.427273 -1.679144,2.434759 -3.106417,2.770588c-1.931016,0.419786 -4.197861,0.335829 -5.877005,-0.839572c-1.679144,-1.175401 -2.014973,-3.945989 -0.923529,-5.793048zm2.434759,-0.671658c-0.923529,0.503743 -1.427273,1.51123 -1.595187,2.518717c2.686631,0 5.373262,0 8.059893,0c-0.083957,-0.587701 -0.251872,-1.259358 -0.671658,-1.679144c-1.427273,-1.679144 -4.029947,-1.847059 -5.793048,-0.839572z"/>
    <path stroke="null" id="svg_16" d="m23.664706,6.781283c-1.595187,-0.251872 -3.274332,-0.335829 -4.869519,-0.083957c-0.923529,0.167914 -1.847059,0.587701 -2.602674,1.007487c-2.602674,-0.839572 -5.541176,-1.343316 -8.227807,-0.839572c-1.931016,0.335829 -3.778075,1.51123 -4.785561,3.274332c-1.259358,2.09893 -1.51123,4.617647 -1.343316,7.052406c0.335829,2.686631 1.007487,5.373262 1.763102,7.975936c0.671658,2.266845 1.427273,4.53369 2.686631,6.548663c0.671658,1.091444 1.679144,2.266845 3.02246,2.602674c1.091444,0.251872 2.182888,-0.083957 3.02246,-0.755615c0.419786,0.419786 0.923529,0.755615 1.51123,0.923529c1.595187,0.587701 3.358289,0.587701 4.953476,-0.083957c0.083957,2.182888 0,4.449733 0.839572,6.464706c0.335829,1.007487 0.839572,1.931016 1.763102,2.518717c1.007487,0.671658 2.182888,0.755615 3.358289,0.587701c1.007487,-0.167914 2.09893,-0.503743 2.938503,-1.007487c0.923529,-0.587701 1.679144,-1.427273 2.09893,-2.434759c1.007487,-2.266845 1.091444,-4.701604 1.175401,-7.136364c2.350802,0.167914 4.785561,-0.419786 6.548663,-2.014973c0.671658,-0.587701 1.259358,-1.51123 1.007487,-2.434759c-0.251872,-0.839572 -1.175401,-1.427273 -2.014973,-1.343316c-0.923529,0.083957 -1.763102,0.335829 -2.686631,0.335829c2.014973,-3.526203 3.61016,-7.304278 4.281818,-11.250267c0.251872,-1.679144 0.503743,-3.358289 0,-5.037433c-0.251872,-0.923529 -0.923529,-1.679144 -1.595187,-2.350802c-1.51123,-1.51123 -3.61016,-2.518717 -5.709091,-2.938503c-2.434759,-0.503743 -4.869519,-0.251872 -7.136364,0.419786z" fill="#FFFFFF"/>
    <path stroke="null" id="svg_17" d="m23.580749,7.78877c2.518717,-0.755615 5.205348,-1.007487 7.724064,-0.251872c2.014973,0.587701 3.862032,1.763102 5.12139,3.442246c0.503743,0.671658 0.671658,1.595187 0.671658,2.434759c0.083957,1.51123 -0.251872,3.02246 -0.587701,4.449733c-0.923529,3.862032 -2.602674,7.472193 -4.701604,10.830481c1.175401,0.503743 2.518717,0.251872 3.694118,0.083957c0.503743,-0.083957 1.175401,-0.251872 1.51123,0.251872c0.335829,0.503743 0,1.091444 -0.335829,1.427273c-1.763102,1.763102 -4.449733,2.182888 -6.800535,1.763102c-0.251872,2.09893 -0.503743,4.197861 -0.839572,6.380749c-0.167914,1.175401 -0.587701,2.434759 -1.51123,3.190374c-0.839572,0.755615 -2.014973,1.091444 -3.106417,1.259358c-1.091444,0.167914 -2.434759,0.083957 -3.274332,-0.755615c-0.923529,-0.839572 -1.51123,-2.09893 -1.595187,-3.274332c-0.251872,-2.09893 -0.251872,-4.281818 -0.251872,-6.380749c-1.007487,0.839572 -2.350802,1.343316 -3.694118,1.259358c-0.923529,-0.083957 -2.014973,-0.251872 -2.686631,-0.923529c-0.419786,-0.335829 -0.335829,-1.007487 0.083957,-1.343316c0.755615,-0.587701 1.763102,-0.503743 2.602674,-0.839572c0.671658,-0.167914 1.007487,-0.839572 1.343316,-1.259358c-0.755615,-0.083957 -1.51123,-0.251872 -2.09893,-0.587701c-1.007487,1.091444 -2.014973,2.266845 -2.938503,3.358289c-0.587701,0.671658 -1.343316,1.259358 -2.266845,1.091444c-1.007487,-0.167914 -1.763102,-0.923529 -2.350802,-1.679144c-1.091444,-1.595187 -1.847059,-3.442246 -2.434759,-5.289305c-0.923529,-3.02246 -1.679144,-6.04492 -2.09893,-9.151337c-0.251872,-2.350802 0,-4.869519 1.343316,-6.800535c1.091444,-1.595187 2.938503,-2.434759 4.785561,-2.602674c2.518717,-0.251872 5.037433,0.251872 7.388235,1.091444c1.931016,-1.259358 4.449733,-1.51123 6.716578,-1.007487c0.251872,-0.167914 0.419786,-0.083957 0.587701,-0.167914zm1.847059,0.671658c0.503743,0.335829 1.007487,0.587701 1.51123,0.923529c2.014973,1.343316 3.61016,3.274332 4.53369,5.457219c0.251872,0.671658 0.587701,1.259358 0.503743,2.014973c0,1.427273 -0.503743,2.854545 -0.335829,4.281818c0.167914,1.51123 0.503743,3.106417 0.083957,4.617647c-0.083957,0.503743 -0.419786,1.007487 -0.587701,1.51123c0,0.083957 0.083957,0.251872 0.083957,0.251872c0.167914,-0.251872 0.335829,-0.503743 0.503743,-0.755615c1.595187,-2.602674 2.770588,-5.457219 3.61016,-8.395722c0.419786,-1.595187 0.755615,-3.274332 0.755615,-4.953476c0,-0.671658 -0.083957,-1.427273 -0.503743,-2.014973c-0.923529,-1.175401 -2.182888,-2.09893 -3.61016,-2.686631c-2.09893,-0.671658 -4.365775,-0.755615 -6.548663,-0.251872zm-5.877005,0.167914c-1.595187,0.167914 -3.106417,1.091444 -4.029947,2.350802c-1.259358,1.763102 -1.847059,3.945989 -2.014973,6.04492c1.343316,-0.587701 2.770588,-1.175401 4.281818,-0.839572c0.923529,0.251872 1.679144,1.091444 1.847059,2.014973c0.419786,1.931016 0.671658,3.862032 0.251872,5.793048c-0.335829,1.51123 -1.259358,2.854545 -1.595187,4.449733c0.419786,0 0.839572,0.083957 1.175401,0.251872c0.755615,0.419786 1.175401,1.259358 1.091444,2.09893c-0.083957,2.09893 -0.083957,4.197861 0.083957,6.296791c0.083957,0.839572 0.083957,1.763102 0.335829,2.602674c0.335829,1.007487 1.007487,2.014973 2.09893,2.266845c1.175401,0.167914 2.350802,-0.167914 3.442246,-0.671658c1.007487,-0.503743 1.51123,-1.679144 1.679144,-2.770588c0.335829,-2.266845 0.587701,-4.53369 0.839572,-6.800535c0.083957,-0.839572 -0.083957,-1.679144 0.419786,-2.434759c0.251872,-0.503743 0.755615,-0.671658 1.175401,-0.923529c-0.335829,-0.503743 -0.755615,-1.007487 -1.091444,-1.51123c-1.091444,-2.350802 -2.602674,-4.53369 -3.106417,-7.052406c-0.167914,-1.091444 -0.083957,-2.350802 0.839572,-3.106417c1.007487,-0.839572 2.350802,-0.755615 3.61016,-0.755615c-0.755615,-2.09893 -2.09893,-3.945989 -3.778075,-5.289305c-2.182888,-1.595187 -4.953476,-2.350802 -7.55615,-2.014973zm-11.16631,0.167914c-1.427273,0.251872 -2.854545,1.091444 -3.61016,2.434759c-1.007487,1.763102 -1.091444,3.778075 -0.923529,5.709091c0.335829,2.518717 0.923529,5.037433 1.679144,7.55615c0.671658,2.09893 1.343316,4.197861 2.518717,6.04492c0.419786,0.671658 0.923529,1.343316 1.679144,1.595187c0.671658,0.167914 1.175401,-0.419786 1.595187,-0.839572c0.839572,-1.091444 1.847059,-2.09893 2.770588,-3.190374c-1.343316,-1.175401 -2.014973,-3.02246 -1.847059,-4.869519c0.167914,-1.343316 0.251872,-2.770588 0.167914,-4.197861c-0.167914,-1.931016 0.167914,-3.945989 0.755615,-5.877005c0.419786,-1.427273 1.175401,-2.686631 2.182888,-3.778075c-2.266845,-0.503743 -4.701604,-1.007487 -6.968449,-0.587701zm19.562032,8.647594c-0.671658,0.503743 -0.671658,1.51123 -0.503743,2.266845c0.503743,2.434759 1.931016,4.449733 2.938503,6.63262c0.839572,-1.595187 0.335829,-3.442246 0.167914,-5.205348c-0.167914,-1.427273 0.251872,-2.770588 0.335829,-4.113904c-0.923529,0 -2.014973,-0.167914 -2.938503,0.419786zm-14.524599,0.923529c0,1.175401 0.083957,2.350802 0,3.442246c-0.083957,1.007487 -0.335829,2.014973 -0.083957,3.02246c0.335829,1.847059 1.931016,3.358289 3.862032,3.358289c0.251872,-0.923529 0.587701,-1.847059 1.007487,-2.686631c1.175401,-2.266845 0.923529,-4.869519 0.335829,-7.220321c-0.167914,-0.671658 -0.755615,-1.175401 -1.427273,-1.175401c-1.343316,0 -2.602674,0.587701 -3.694118,1.259358zm17.043315,11.334225c-0.335829,0.335829 -0.335829,0.839572 -0.335829,1.259358c0.755615,0.251872 1.595187,0.251872 2.434759,0.167914c1.175401,-0.167914 2.434759,-0.503743 3.358289,-1.427273c-1.427273,0.167914 -3.02246,0.503743 -4.449733,-0.167914c-0.335829,-0.167914 -0.755615,0 -1.007487,0.167914zm-13.852941,1.679144c-0.839572,0.503743 -1.847059,0.419786 -2.602674,0.839572c1.679144,0.839572 4.113904,0.587701 5.289305,-1.007487c0.587701,-0.587701 0,-1.763102 -0.755615,-1.679144c-0.839572,0.503743 -1.175401,1.427273 -1.931016,1.847059z" fill="#FFFFFF"/>
    <path stroke="null" id="svg_18" d="m28.282353,17.779679c0.503743,-0.335829 1.175401,-0.335829 1.679144,-0.167914c0,0.671658 -0.839572,1.175401 -1.427273,0.839572c-0.167914,-0.083957 -0.503743,-0.419786 -0.251872,-0.671658z" fill="#FFFFFF"/>
    <path stroke="null" id="svg_19" d="m16.444385,17.863636c0.503743,-0.167914 1.091444,-0.083957 1.51123,0.251872c0.251872,0.251872 0,0.671658 -0.251872,0.755615c-0.587701,0.419786 -1.51123,0 -1.595187,-0.671658c0,-0.167914 0.167914,-0.335829 0.335829,-0.335829z" fill="#FFFFFF"/>
    <path stroke="null" id="svg_20" d="m25.427807,8.460428c2.09893,-0.503743 4.449733,-0.419786 6.464706,0.335829c1.427273,0.503743 2.686631,1.51123 3.61016,2.686631c0.503743,0.587701 0.503743,1.343316 0.503743,2.014973c0,1.679144 -0.335829,3.274332 -0.755615,4.953476c-0.839572,2.938503 -2.014973,5.793048 -3.61016,8.395722c-0.167914,0.251872 -0.335829,0.503743 -0.503743,0.755615c0,-0.083957 -0.083957,-0.251872 -0.083957,-0.251872c0.167914,-0.503743 0.503743,-1.007487 0.587701,-1.51123c0.419786,-1.51123 0.083957,-3.106417 -0.083957,-4.617647c-0.167914,-1.427273 0.335829,-2.854545 0.335829,-4.281818c0.083957,-0.671658 -0.251872,-1.343316 -0.503743,-2.014973c-1.007487,-2.182888 -2.518717,-4.113904 -4.53369,-5.457219c-0.335829,-0.419786 -0.923529,-0.671658 -1.427273,-1.007487z" fill="#326690"/>
    <path stroke="null" id="svg_21" d="m19.550802,8.628342c2.602674,-0.335829 5.373262,0.419786 7.472193,2.014973c1.679144,1.343316 3.106417,3.190374 3.778075,5.289305c-1.175401,0 -2.602674,-0.083957 -3.61016,0.755615c-0.923529,0.755615 -1.007487,2.014973 -0.839572,3.106417c0.503743,2.602674 2.014973,4.785561 3.106417,7.052406c0.251872,0.587701 0.671658,1.007487 1.091444,1.51123c-0.503743,0.251872 -0.923529,0.419786 -1.175401,0.923529c-0.419786,0.755615 -0.251872,1.595187 -0.419786,2.434759c-0.251872,2.266845 -0.503743,4.53369 -0.839572,6.800535c-0.167914,1.091444 -0.671658,2.266845 -1.679144,2.770588c-1.007487,0.503743 -2.266845,0.839572 -3.442246,0.671658c-1.091444,-0.167914 -1.847059,-1.259358 -2.09893,-2.266845c-0.251872,-0.839572 -0.251872,-1.763102 -0.335829,-2.602674c-0.083957,-2.09893 -0.083957,-4.197861 -0.083957,-6.296791c0.083957,-0.839572 -0.335829,-1.679144 -1.091444,-2.09893c-0.335829,-0.167914 -0.755615,-0.251872 -1.175401,-0.251872c0.335829,-1.51123 1.259358,-2.854545 1.595187,-4.449733c0.419786,-1.931016 0.167914,-3.862032 -0.251872,-5.793048c-0.167914,-0.923529 -0.923529,-1.763102 -1.847059,-2.014973c-1.51123,-0.335829 -2.938503,0.167914 -4.281818,0.839572c0.167914,-2.09893 0.755615,-4.281818 2.014973,-6.04492c1.007487,-1.259358 2.518717,-2.09893 4.113904,-2.350802z" fill="#326690"/>
    <path stroke="null" id="svg_22" d="m8.384492,8.796257c2.350802,-0.419786 4.701604,0 6.968449,0.671658c-1.007487,1.091444 -1.763102,2.350802 -2.182888,3.778075c-0.587701,1.847059 -0.839572,3.862032 -0.755615,5.877005c0.083957,1.427273 0.083957,2.770588 -0.167914,4.197861c-0.251872,1.763102 0.503743,3.61016 1.847059,4.869519c-0.923529,1.091444 -1.847059,2.09893 -2.770588,3.190374c-0.419786,0.503743 -0.923529,1.007487 -1.595187,0.839572c-0.755615,-0.251872 -1.259358,-0.923529 -1.679144,-1.595187c-1.175401,-1.847059 -1.847059,-3.945989 -2.518717,-6.04492c-0.755615,-2.434759 -1.343316,-4.953476 -1.679144,-7.55615c-0.167914,-1.931016 -0.083957,-4.029947 0.923529,-5.709091c0.755615,-1.343316 2.09893,-2.182888 3.61016,-2.518717z" fill="#326690"/>
    <path stroke="null" id="svg_23" d="m27.946524,17.44385c0.839572,-0.587701 2.014973,-0.503743 2.938503,-0.419786c-0.083957,1.343316 -0.503743,2.686631 -0.335829,4.113904c0.167914,1.679144 0.587701,3.526203 -0.167914,5.205348c-1.091444,-2.182888 -2.518717,-4.197861 -2.938503,-6.63262c-0.083957,-0.755615 -0.083957,-1.679144 0.503743,-2.266845zm0.335829,0.335829c-0.251872,0.251872 0,0.587701 0.251872,0.671658c0.587701,0.335829 1.427273,-0.167914 1.427273,-0.839572c-0.503743,-0.167914 -1.175401,-0.167914 -1.679144,0.167914z" fill="#326690"/>
    <path stroke="null" id="svg_24" d="m13.421925,18.367379c1.091444,-0.671658 2.350802,-1.259358 3.61016,-1.175401c0.671658,0 1.259358,0.503743 1.427273,1.175401c0.587701,2.350802 0.755615,4.953476 -0.335829,7.220321c-0.419786,0.839572 -0.755615,1.763102 -1.007487,2.686631c-1.931016,0 -3.526203,-1.595187 -3.862032,-3.358289c-0.251872,-1.007487 0.083957,-2.014973 0.083957,-3.02246c0.167914,-1.259358 0.083957,-2.350802 0.083957,-3.526203zm3.02246,-0.503743c-0.167914,0.083957 -0.335829,0.167914 -0.335829,0.335829c0.083957,0.671658 1.007487,1.091444 1.595187,0.671658c0.251872,-0.167914 0.503743,-0.503743 0.251872,-0.755615c-0.419786,-0.335829 -1.007487,-0.419786 -1.51123,-0.251872z" fill="#326690"/>
    <path stroke="null" id="svg_25" d="m30.465241,29.701604c0.251872,-0.167914 0.671658,-0.419786 1.007487,-0.167914c1.343316,0.755615 2.938503,0.335829 4.449733,0.167914c-0.923529,0.839572 -2.09893,1.259358 -3.358289,1.427273c-0.839572,0.083957 -1.679144,0.167914 -2.434759,-0.167914c0,-0.419786 0,-0.923529 0.335829,-1.259358z" fill="#326690"/>
    <path stroke="null" id="svg_26" d="m16.612299,31.380748c0.755615,-0.419786 1.091444,-1.343316 1.847059,-1.847059c0.755615,-0.083957 1.427273,1.091444 0.755615,1.679144c-1.175401,1.595187 -3.61016,1.931016 -5.289305,1.007487c0.839572,-0.335829 1.847059,-0.335829 2.686631,-0.839572z" fill="#326690"/>
    <path stroke="null" id="svg_27" d="m23.664706,6.781283c2.266845,-0.587701 4.701604,-0.839572 7.052406,-0.419786c2.09893,0.335829 4.113904,1.427273 5.709091,2.938503c0.671658,0.671658 1.343316,1.427273 1.595187,2.350802c0.503743,1.679144 0.251872,3.358289 0,5.037433c-0.755615,3.945989 -2.266845,7.724064 -4.281818,11.250267c0.923529,0 1.763102,-0.251872 2.686631,-0.335829c0.839572,-0.083957 1.847059,0.503743 2.014973,1.343316c0.251872,0.923529 -0.335829,1.847059 -1.007487,2.434759c-1.847059,1.595187 -4.365775,2.09893 -6.63262,2.014973c-0.167914,2.434759 -0.167914,4.869519 -1.175401,7.136364c-0.503743,1.007487 -1.175401,1.847059 -2.09893,2.434759c-0.923529,0.587701 -1.931016,0.839572 -2.938503,1.007487c-1.091444,0.167914 -2.350802,0.083957 -3.358289,-0.587701c-0.923529,-0.587701 -1.427273,-1.51123 -1.763102,-2.518717c-0.755615,-2.09893 -0.671658,-4.281818 -0.839572,-6.464706c-1.595187,0.671658 -3.358289,0.671658 -4.953476,0.083957c-0.587701,-0.167914 -1.091444,-0.503743 -1.51123,-0.923529c-0.839572,0.671658 -1.931016,1.007487 -3.02246,0.755615c-1.343316,-0.335829 -2.266845,-1.51123 -3.02246,-2.602674c-1.259358,-2.014973 -2.014973,-4.281818 -2.686631,-6.548663c-0.755615,-2.602674 -1.427273,-5.205348 -1.763102,-7.975936c-0.167914,-2.434759 0,-4.953476 1.343316,-7.052406c1.007487,-1.679144 2.854545,-2.854545 4.785561,-3.274332c2.770588,-0.587701 5.625134,0 8.227807,0.755615c0.839572,-0.419786 1.679144,-0.839572 2.602674,-1.007487c1.763102,-0.251872 3.442246,-0.083957 5.037433,0.167914zm-0.083957,1.007487c-0.167914,0.083957 -0.419786,-0.083957 -0.587701,-0.083957c-2.266845,-0.503743 -4.785561,-0.251872 -6.716578,1.007487c-2.350802,-0.839572 -4.869519,-1.343316 -7.388235,-1.091444c-1.847059,0.167914 -3.778075,1.091444 -4.785561,2.602674c-1.343316,2.014973 -1.51123,4.53369 -1.343316,6.800535c0.419786,3.106417 1.175401,6.128877 2.09893,9.06738c0.671658,1.847059 1.343316,3.694118 2.434759,5.289305c0.587701,0.755615 1.343316,1.595187 2.350802,1.679144c0.923529,0.083957 1.679144,-0.419786 2.266845,-1.091444c1.007487,-1.175401 1.931016,-2.266845 2.938503,-3.358289c0.671658,0.335829 1.427273,0.503743 2.09893,0.587701c-0.419786,0.503743 -0.755615,1.091444 -1.343316,1.259358c-0.839572,0.335829 -1.847059,0.251872 -2.602674,0.839572c-0.419786,0.335829 -0.503743,1.007487 -0.083957,1.343316c0.671658,0.671658 1.763102,0.839572 2.686631,0.923529c1.343316,0.083957 2.686631,-0.335829 3.694118,-1.259358c0,2.09893 0,4.281818 0.251872,6.380749c0.083957,1.259358 0.671658,2.518717 1.595187,3.274332c0.839572,0.755615 2.182888,0.923529 3.274332,0.755615c1.091444,-0.251872 2.266845,-0.587701 3.106417,-1.259358c0.923529,-0.839572 1.343316,-2.014973 1.51123,-3.190374c0.335829,-2.09893 0.587701,-4.197861 0.839572,-6.380749c2.350802,0.419786 5.037433,-0.083957 6.800535,-1.763102c0.335829,-0.335829 0.755615,-1.007487 0.335829,-1.427273c-0.335829,-0.419786 -1.007487,-0.335829 -1.51123,-0.251872c-1.175401,0.251872 -2.518717,0.503743 -3.694118,-0.083957c2.09893,-3.358289 3.778075,-6.968449 4.701604,-10.830481c0.335829,-1.427273 0.587701,-2.938503 0.587701,-4.449733c-0.083957,-0.839572 -0.167914,-1.763102 -0.671658,-2.434759c-1.259358,-1.679144 -3.106417,-2.854545 -5.12139,-3.442246c-2.434759,-0.335829 -5.205348,-0.167914 -7.724064,0.587701z"/>
   </g>
  </g>
 </g>
</svg>