<?xml version="1.0"?>
<svg width="160" height="50" xmlns="http://www.w3.org/2000/svg" xmlns:svg="http://www.w3.org/2000/svg">
 <g>
  <title>Layer 1</title>
  <g stroke="null" id="Layer_1_1_">
   <g stroke="null" id="svg_1">
    <path stroke="null" id="svg_2" d="m41.1507,18.258631l1.037134,0c0.086428,0 0.172856,-0.086428 0.259283,-0.086428c0.086428,-0.086428 0.086428,-0.172856 0.086428,-0.259283l0,-6.568514c0,-0.259283 -0.172856,-0.432139 -0.432139,-0.432139l-1.037134,0c-0.259283,0 -0.432139,0.172856 -0.432139,0.432139l0,6.568514c0.172856,0.172856 0.345711,0.345711 0.518567,0.345711z" fill="#4A85C5"/>
    <path stroke="null" id="svg_3" d="m67.338328,18.258631l1.037134,0c0.259283,0 0.432139,-0.172856 0.432139,-0.432139l0,-6.568514c0,-0.086428 -0.172856,-0.259283 -0.432139,-0.259283l-1.037134,0c-0.259283,0 -0.432139,0.172856 -0.432139,0.432139l0,6.568514c0,0.086428 0.259283,0.259283 0.432139,0.259283z" fill="#4A85C5"/>
    <path stroke="null" id="svg_4" d="m52.127032,12.813679l1.642128,0l0,5.099241c0,0.259283 0.172856,0.432139 0.432139,0.432139l1.037134,0c0.259283,0 0.432139,-0.172856 0.432139,-0.432139l0,-5.099241l1.642128,0c0.259283,0 0.432139,-0.172856 0.432139,-0.432139l0,-1.037134c0,-0.086428 -0.086428,-0.172856 -0.086428,-0.259283c-0.086428,-0.086428 -0.172856,-0.086428 -0.259283,-0.086428l-2.074268,0l-1.037134,0l-2.074268,0c-0.259283,0 -0.432139,0.172856 -0.432139,0.432139l0,1.037134c-0.086428,0.086428 0.086428,0.345711 0.345711,0.345711z" fill="#4A85C5"/>
    <path stroke="null" id="svg_5" d="m75.894681,12.38154l0,-1.037134c0,-0.259283 -0.172856,-0.432139 -0.432139,-0.432139l-2.074268,0l-1.037134,0l-2.074268,0c-0.259283,0 -0.432139,0.172856 -0.432139,0.432139l0,1.037134c0,0.259283 0.172856,0.432139 0.432139,0.432139l1.642128,0l0,5.099241c0,0.259283 0.172856,0.432139 0.432139,0.432139l1.037134,0c0.259283,0 0.432139,-0.172856 0.432139,-0.432139l0,-5.099241l1.642128,0c0.172856,0 0.345711,-0.172856 0.432139,-0.432139z" fill="#4A85C5"/>
    <path stroke="null" id="svg_6" d="m44.780668,18.258631l1.037134,0c0.086428,0 0.172856,-0.086428 0.259283,-0.086428c0.086428,-0.086428 0.086428,-0.172856 0.086428,-0.259283l0,-4.667102c0.77785,-0.518567 1.382845,-0.77785 1.814984,-0.77785c0.259283,0 0.432139,0.086428 0.518567,0.172856c0.172856,0.172856 0.345711,0.432139 0.432139,0.604995c0.086428,0.259283 0.086428,0.432139 0.086428,0.604995l0,3.975679c0,0.259283 0.172856,0.432139 0.432139,0.432139l1.037134,0c0.259283,0 0.432139,-0.172856 0.432139,-0.432139l0,-4.580674c0,0 0,0 0,-0.086428c0,-0.172856 0,-0.604995 -0.259283,-1.037134c-0.172856,-0.432139 -0.604995,-0.950706 -1.296417,-1.209989l0,0l0,0c-0.259283,-0.086428 -0.604995,-0.172856 -0.864278,-0.172856c-0.950706,0 -1.814984,0.518567 -2.247123,0.950706l0,-0.345711c0,-0.259283 -0.172856,-0.432139 -0.432139,-0.432139l-1.037134,0c-0.259283,0 -0.432139,0.172856 -0.432139,0.432139l0,6.568514c0.086428,0.172856 0.259283,0.345711 0.432139,0.345711z" fill="#4A85C5"/>
    <path stroke="null" id="svg_7" d="m60.337675,18.258631l0,0c0.259283,0.086428 0.604995,0.172856 0.864278,0.172856c0.950706,0 1.814984,-0.518567 2.247123,-0.950706l0,0.345711c0,0.259283 0.172856,0.432139 0.432139,0.432139l1.037134,0c0.086428,0 0.172856,-0.086428 0.259283,-0.086428c0.086428,-0.086428 0.086428,-0.172856 0.086428,-0.259283l0,-6.568514c0,-0.086428 0,-0.172856 -0.086428,-0.259283c-0.086428,-0.086428 -0.172856,-0.086428 -0.259283,-0.086428l-1.037134,0c-0.086428,0 -0.259283,0.086428 -0.345711,0.086428c-0.086428,0.086428 -0.172856,0.172856 -0.172856,0.259283l0,4.667102c-0.77785,0.604995 -1.296417,0.77785 -1.728556,0.77785c-0.259283,0 -0.345711,-0.086428 -0.518567,-0.172856c-0.172856,-0.172856 -0.345711,-0.345711 -0.432139,-0.604995c0,-0.259283 -0.086428,-0.518567 -0.086428,-0.691423l0,-3.975679c0,-0.259283 -0.172856,-0.432139 -0.432139,-0.432139l-1.037134,0c-0.259283,0 -0.432139,0.172856 -0.432139,0.432139l0,4.580674c0,0 0,0 0,0.086428c0,0.172856 0,0.604995 0.259283,1.037134c0.259283,0.518567 0.604995,0.950706 1.382845,1.209989l0,0z" fill="#4A85C5"/>
    <ellipse stroke="null" id="svg_8" ry="1.3" rx="1.3" cy="1.931701" cx="54.358707" fill="#4A85C5" transform="matrix(0.0018690714792705177,-0.8642781376838684,0.8642781376838684,0.0018690714792705177,52.86720225961208,56.02622226098818) "/>
    <ellipse stroke="null" id="svg_9" ry="1.3" rx="1.3" cy="1.931701" cx="75.458707" fill="#4A85C5" transform="matrix(0.0018690714792705177,-0.8642781376838684,0.8642781376838684,0.0018690714792705177,71.07131981801987,74.36395721948189) "/>
    <path stroke="null" id="svg_10" d="m17.728762,7.541582c-9.593487,-0.086428 -17.631274,7.692075 -17.631274,17.458418c0,9.420632 7.605648,17.544846 17.544846,17.544846c9.852771,0 17.458418,-7.951359 17.458418,-17.458418c0,-9.679915 -7.778503,-17.458418 -17.371991,-17.544846zm-0.950706,19.186975c0,2.679262 0,5.444952 0,8.124214c0,0.518567 0,0.518567 -0.518567,0.518567s-1.037134,0 -1.469273,0c-0.259283,0 -0.345711,-0.086428 -0.345711,-0.345711c0,-0.864278 0,-1.728556 0,-2.679262c0,-3.802824 0,-7.51922 0,-11.322044c0,-0.518567 0,-0.518567 -0.518567,-0.518567c-0.950706,0 -1.814984,-0.086428 -2.76569,0.172856c-2.074268,0.518567 -3.54354,2.333551 -3.457113,4.580674c0.086428,2.074268 1.642128,3.889252 3.629968,4.234963c0.345711,0.086428 0.77785,0.086428 1.209989,0.086428c0.259283,0 0.259283,0.086428 0.259283,0.259283c0,0.604995 0,1.209989 0,1.814984c0,0.259283 -0.086428,0.259283 -0.345711,0.345711c-2.852118,0.086428 -5.53138,-1.555701 -6.654942,-4.148535c-1.209989,-2.679262 -0.604995,-5.704236 1.382845,-7.692075c1.382845,-1.382845 3.111401,-2.074268 5.012813,-2.074268c1.382845,0 2.76569,0 4.148535,0c0.345711,0 0.432139,0.086428 0.432139,0.432139c0,2.679262 0,5.444952 0,8.210642zm7.259936,5.185669c-0.604995,0.086428 -1.209989,0.086428 -1.901412,0.086428c-1.123562,0 -2.160695,0 -3.284257,0c-0.345711,0 -0.518567,-0.086428 -0.432139,-0.432139l0,0c0,-2.76569 0,-5.444952 0,-8.210642c0,-2.679262 0,-5.444952 0,-8.124214c0,-0.345711 0.086428,-0.518567 0.518567,-0.518567c0.518567,0 1.037134,0 1.469273,0c0.345711,0 0.432139,0.086428 0.432139,0.432139c0,4.580674 0,9.161348 0,13.82845c0,0.691423 -0.086428,0.604995 0.604995,0.604995c0.864278,0 1.728556,0.086428 2.592834,-0.086428c2.074268,-0.518567 3.629968,-2.419979 3.54354,-4.580674c-0.086428,-2.247123 -1.728556,-3.975679 -3.889252,-4.321391c-0.345711,-0.086428 -0.691423,-0.086428 -1.037134,-0.086428c-0.259283,0 -0.345711,-0.086428 -0.345711,-0.345711c0,-0.604995 0,-1.209989 0,-1.814984c0,-0.172856 0.086428,-0.259283 0.259283,-0.259283c3.629968,-0.086428 6.654942,2.419979 7.173509,5.877091c0.691423,3.889252 -1.814984,7.259936 -5.704236,7.951359z" fill="#46A948"/>
    <path stroke="null" id="svg_11" d="m57.831268,37.186322c-1.123562,0 -2.333551,0 -3.457113,0c-0.086428,0 -0.259283,0.086428 -0.345711,-0.086428c0,-0.086428 0.172856,-0.172856 0.259283,-0.172856c0.518567,-0.259283 0.950706,-0.604995 1.296417,-0.950706c2.160695,-2.247123 2.852118,-4.926385 2.247123,-7.864931c-1.037134,-4.839958 -5.704236,-7.692075 -10.544193,-6.654942c-4.494246,0.864278 -7.346364,4.926385 -6.914225,9.50706s4.148535,7.951359 8.729209,7.951359c2.074268,0 4.062107,0 6.136375,0c0.864278,0 1.814984,0 2.679262,0c0.345711,0 0.432139,-0.086428 0.432139,-0.432139c0,-0.259283 0,-0.518567 0,-0.950706c-0.086428,-0.259283 -0.259283,-0.345711 -0.518567,-0.345711zm-5.012813,-1.296417c-1.123562,0.77785 -2.419979,1.123562 -3.716396,1.123562c-3.370685,0 -6.136375,-2.506407 -6.568514,-5.877091c-0.259283,-2.419979 0.345711,-4.580674 2.160695,-6.30923c2.247123,-2.160695 5.877091,-2.333551 8.469926,-0.432139c3.629968,2.852118 3.457113,8.988493 -0.345711,11.494899z" fill="#5F6062"/>
    <path stroke="null" id="svg_12" d="m105.625849,30.012814c0.172856,-0.172856 0.432139,-0.259283 0.604995,-0.345711c1.382845,-0.604995 2.160695,-1.728556 2.333551,-3.197829c0.086428,-1.469273 -0.345711,-2.679262 -1.555701,-3.54354c-1.123562,-0.77785 -2.419979,-1.037134 -3.802824,-1.123562c-1.728556,0 -3.457113,0 -5.185669,0c-0.345711,0 -0.432139,0.086428 -0.432139,0.432139c0,5.444952 0,10.976332 0,16.421285c0,0.345711 0.086428,0.432139 0.432139,0.432139c1.814984,0 3.54354,0 5.358524,0c1.209989,0 2.419979,-0.172856 3.54354,-0.691423c3.197829,-1.382845 3.111401,-5.012813 1.728556,-6.741369c-0.864278,-0.950706 -1.814984,-1.469273 -3.024973,-1.642128zm-5.53138,-6.30923c1.037134,0 2.160695,0 3.197829,0c0.77785,0 1.469273,0.172856 2.074268,0.604995c1.382845,0.950706 1.296417,3.370685 -0.172856,4.234963c-0.691423,0.432139 -1.469273,0.518567 -2.333551,0.518567c-0.950706,0 -1.98784,0 -2.938546,0c-0.259283,0 -0.345711,-0.086428 -0.345711,-0.345711c0,-1.037134 0,-3.716396 0,-4.580674c0,-0.345711 0.172856,-0.432139 0.518567,-0.432139zm7.087081,10.717049c-0.086428,1.123562 -0.691423,1.814984 -1.642128,2.247123c-0.864278,0.432139 -1.728556,0.518567 -2.679262,0.518567s-1.901412,0 -2.852118,0c-0.259283,0 -0.345711,-0.086428 -0.345711,-0.345711c0,-1.037134 0,-4.407819 0,-5.358524c0,-0.345711 0.086428,-0.432139 0.432139,-0.432139c1.209989,0 2.419979,0 3.629968,0c0.77785,0 1.555701,0.172856 2.247123,0.604995c0.950706,0.604995 1.296417,1.555701 1.209989,2.76569z" fill="#5F6062"/>
    <path stroke="null" id="svg_13" d="m91.36526,33.210643c-0.259283,-0.259283 -0.259283,-0.432139 0,-0.691423c1.642128,-1.469273 3.197829,-2.938546 4.75353,-4.494246c0.086428,-0.086428 0.259283,-0.172856 0.259283,-0.432139c-0.77785,0 -1.296417,0 -2.247123,0c-0.259283,0 -0.432139,0.086428 -0.604995,0.259283c-1.555701,1.469273 -3.024973,2.938546 -4.580674,4.407819c-0.086428,0.086428 -0.172856,0.172856 -0.259283,0.172856c-0.086428,-0.172856 -0.086428,-0.345711 -0.086428,-0.432139c0,-1.98784 0,-3.889252 0,-5.877091c0,-1.296417 0,-2.592834 0,-3.889252c0,-0.518567 0,-0.518567 -0.518567,-0.518567c-0.259283,0 -0.604995,0 -0.864278,0c-0.604995,0 -0.604995,0 -0.604995,0.518567c0,5.358524 0,10.717049 0,16.075573c0,0.086428 0,0.172856 0,0.259283c0,0.259283 0.086428,0.345711 0.345711,0.345711c0.432139,0 0.77785,0 1.123562,0s0.432139,-0.086428 0.432139,-0.518567c0,-1.642128 0,-3.284257 0,-4.926385c0,-0.172856 -0.086428,-0.345711 0.086428,-0.432139c0.172856,0.086428 0.259283,0.172856 0.345711,0.345711c1.642128,1.728556 3.284257,3.54354 4.926385,5.272097c0.086428,0.086428 0.172856,0.259283 0.345711,0.259283c0.864278,0 1.728556,0 2.592834,0l0,-0.086428c-0.086428,-0.086428 -0.172856,-0.172856 -0.259283,-0.259283c-1.642128,-1.728556 -3.457113,-3.54354 -5.185669,-5.358524z" fill="#5F6062"/>
    <path stroke="null" id="svg_14" d="m146.506205,38.742023c-1.814984,-1.814984 -3.54354,-3.716396 -5.358524,-5.53138c-0.172856,-0.172856 -0.259283,-0.259283 0,-0.518567c1.296417,-1.209989 2.592834,-2.333551 3.802824,-3.54354c0.432139,-0.432139 0.864278,-0.950706 1.296417,-1.382845c-0.691423,0 -1.382845,0 -2.160695,0c-0.259283,0 -0.432139,0.086428 -0.604995,0.259283c-1.382845,1.382845 -2.76569,2.679262 -4.148535,4.062107c-0.259283,0.172856 -0.432139,0.432139 -0.77785,0.604995c0,-0.172856 0,-0.345711 0,-0.518567c0,-3.197829 0,-6.395658 0,-9.679915c0,-0.086428 0,-0.172856 0,-0.345711c0,-0.259283 -0.086428,-0.345711 -0.345711,-0.345711c-0.345711,0 -0.77785,0 -1.123562,0c-0.518567,0 -0.518567,0 -0.518567,0.518567c0,5.444952 0,10.803477 0,16.248429c0,0.086428 0,0.172856 0,0.259283c0,0.259283 0.086428,0.259283 0.259283,0.259283c0.432139,0 0.77785,0 1.209989,0c0.345711,0 0.432139,-0.086428 0.432139,-0.432139c0,-1.642128 0,-3.370685 0,-5.012813c0,-0.172856 -0.086428,-0.259283 0.086428,-0.432139c0.172856,0 0.172856,0.172856 0.259283,0.172856c1.728556,1.814984 3.457113,3.629968 5.185669,5.53138c0.086428,0.086428 0.172856,0.172856 0.259283,0.172856c0.864278,0 1.728556,0 2.592834,0c-0.086428,-0.172856 -0.259283,-0.259283 -0.345711,-0.345711z" fill="#5F6062"/>
    <path stroke="null" id="svg_15" d="m113.231497,28.19783c-2.160695,1.209989 -3.024973,3.111401 -2.938546,5.53138c0,1.469273 0.518567,2.76569 1.555701,3.889252c1.296417,1.296417 2.852118,1.814984 4.667102,1.814984c3.457113,0 5.963519,-2.506407 5.963519,-6.049947c0,-0.604995 -0.086428,-1.209989 -0.259283,-1.901412c-1.296417,-4.148535 -6.049947,-4.926385 -8.988493,-3.284257zm4.580674,9.161348c-2.76569,0.950706 -5.704236,-0.864278 -5.444952,-4.321391c0.086428,-1.728556 0.950706,-3.111401 2.679262,-3.629968c2.679262,-0.950706 5.444952,0.950706 5.358524,4.062107c0,1.814984 -0.950706,3.370685 -2.592834,3.889252z" fill="#5F6062"/>
    <path stroke="null" id="svg_16" d="m128.615647,27.506407c-2.333551,0.259283 -4.062107,1.469273 -4.926385,3.802824c-0.77785,2.333551 -0.518567,4.580674 1.296417,6.395658c1.642128,1.642128 3.629968,2.074268 5.877091,1.642128c2.938546,-0.604995 4.667102,-2.852118 4.667102,-5.790664c0,-1.642128 -0.518567,-3.111401 -1.728556,-4.321391c-1.382845,-1.555701 -3.197829,-1.98784 -5.185669,-1.728556zm1.98784,10.025626c-2.506407,0.77785 -5.012813,-1.037134 -5.185669,-3.629968c-0.086428,-1.382845 0.172856,-2.679262 1.296417,-3.629968c1.209989,-1.123562 2.679262,-1.296417 4.148535,-0.77785c1.555701,0.518567 2.333551,1.728556 2.506407,3.370685c0,0.172856 0,0.432139 0,0.604995c0.086428,1.98784 -0.950706,3.54354 -2.76569,4.062107z" fill="#5F6062"/>
    <path stroke="null" id="svg_17" d="m69.758306,32.346365c0,-1.469273 0,-2.938546 0,-4.407819c0,-0.259283 -0.086428,-0.345711 -0.345711,-0.345711c-0.432139,0 -0.864278,0 -1.296417,0c-0.259283,0 -0.259283,0.086428 -0.259283,0.259283c0,0.172856 0,0.345711 0,0.432139c0,1.901412 0.086428,3.802824 -0.086428,5.704236c-0.172856,2.333551 -1.555701,3.54354 -3.802824,3.457113c-0.950706,-0.086428 -1.642128,-0.518567 -1.98784,-1.382845c-0.259283,-0.604995 -0.345711,-1.209989 -0.345711,-1.901412c0,-2.074268 0,-4.234963 0,-6.30923c0,-0.259283 -0.086428,-0.345711 -0.345711,-0.345711c-0.432139,0 -0.77785,0 -1.209989,0c-0.259283,0 -0.345711,0.086428 -0.345711,0.345711c0,2.333551 0,4.75353 0,7.087081c0,1.123562 0.259283,2.160695 1.037134,3.024973c1.296417,1.555701 4.234963,1.728556 5.877091,0.604995c0.518567,-0.345711 0.864278,-0.77785 1.209989,-1.296417l0.086428,0c0,0.432139 0,0.864278 0,1.209989s0.086428,0.432139 0.432139,0.432139s0.604995,0 0.950706,0c0.432139,0.086428 0.518567,-0.086428 0.432139,-0.518567c-0.086428,-1.98784 0,-3.975679 0,-6.049947z" fill="#5F6062"/>
    <path stroke="null" id="svg_18" d="m153.42043,33.124215c-0.691423,-0.345711 -1.382845,-0.518567 -2.074268,-0.604995c-0.77785,-0.172856 -1.642128,-0.345711 -2.333551,-0.864278c-0.518567,-0.345711 -0.604995,-0.950706 -0.259283,-1.555701c0.172856,-0.259283 0.345711,-0.432139 0.604995,-0.518567c1.296417,-0.691423 2.679262,-0.345711 3.54354,0.77785c0.172856,0.259283 0.259283,0.259283 0.518567,0.086428c0.345711,-0.259283 0.691423,-0.518567 1.123562,-0.691423c0.172856,-0.086428 0.172856,-0.172856 0.086428,-0.345711c-0.259283,-0.432139 -0.604995,-0.77785 -1.037134,-1.123562c-1.642128,-1.123562 -4.234963,-0.950706 -5.877091,0.172856c-1.555701,1.209989 -1.728556,4.062107 0.432139,5.012813c0.432139,0.172856 0.950706,0.345711 1.382845,0.518567c0.864278,0.259283 1.728556,0.259283 2.506407,0.691423c0.518567,0.259283 0.864278,0.604995 0.950706,1.296417c0,0.691423 -0.259283,1.123562 -0.864278,1.469273c-0.77785,0.432139 -1.555701,0.432139 -2.419979,0.345711c-0.864278,-0.172856 -1.469273,-0.604995 -1.98784,-1.209989c-0.172856,-0.172856 -0.259283,-0.172856 -0.432139,-0.086428c-0.345711,0.259283 -0.691423,0.518567 -1.037134,0.77785c-0.172856,0.172856 -0.172856,0.259283 -0.086428,0.432139c0.259283,0.345711 0.604995,0.691423 0.950706,0.950706c0.950706,0.77785 2.074268,0.950706 3.284257,0.950706c1.037134,0 2.160695,-0.172856 3.111401,-0.77785c1.123562,-0.691423 1.555701,-1.728556 1.469273,-3.111401c0.086428,-1.296417 -0.518567,-2.074268 -1.555701,-2.592834z" fill="#5F6062"/>
    <path stroke="null" id="svg_19" d="m78.833227,29.839958c1.555701,-1.209989 3.716396,-1.037134 5.012813,0.345711c0.172856,0.172856 0.345711,0.172856 0.518567,0c0.345711,-0.259283 0.604995,-0.604995 0.950706,-0.864278c0.259283,-0.259283 0.259283,-0.345711 0,-0.604995c-1.98784,-1.728556 -5.185669,-1.98784 -7.432792,-0.604995c-1.555701,1.037134 -2.333551,2.506407 -2.506407,4.321391c-0.345711,3.54354 1.814984,6.741369 5.963519,6.654942c0.259283,0 0.691423,0 1.037134,-0.086428c1.123562,-0.172856 2.160695,-0.604995 2.938546,-1.469273c0.172856,-0.172856 0.259283,-0.345711 0,-0.518567c-0.345711,-0.259283 -0.604995,-0.518567 -0.864278,-0.864278c-0.172856,-0.172856 -0.345711,-0.172856 -0.518567,0c-1.209989,1.382845 -3.54354,1.555701 -4.926385,0.345711c-1.209989,-1.037134 -1.642128,-2.419979 -1.555701,-3.975679c0,-0.864278 0.432139,-1.901412 1.382845,-2.679262z" fill="#5F6062"/>
    <path stroke="null" id="svg_20" d="m73.647558,29.062108c0,-0.345711 0,-0.77785 0,-1.123562c0,-0.259283 -0.086428,-0.345711 -0.345711,-0.345711c-0.345711,0 -0.77785,0 -1.123562,0s-0.432139,0.086428 -0.432139,0.432139c0,1.728556 0,3.54354 0,5.272097s0,3.457113 0,5.185669c0,0.518567 0,0.518567 0.518567,0.518567c0.345711,0 0.518567,0 0.950706,0c0.345711,0 0.518567,-0.086428 0.518567,-0.518567c-0.086428,-3.111401 -0.086428,-6.30923 -0.086428,-9.420632z" fill="#5F6062"/>
    <path stroke="null" id="svg_21" d="m158.260388,36.667755c-0.950706,0 -1.642128,0.691423 -1.642128,1.555701s0.691423,1.555701 1.642128,1.555701c0.950706,0 1.642128,-0.691423 1.642128,-1.555701s-0.691423,-1.555701 -1.642128,-1.555701zm0.086428,2.938546c-0.77785,0 -1.382845,-0.604995 -1.382845,-1.382845c0,-0.77785 0.604995,-1.382845 1.382845,-1.382845c0.691423,0 1.296417,0.604995 1.296417,1.382845c0,0.77785 -0.604995,1.382845 -1.296417,1.382845z" fill="#5F6062"/>
    <path stroke="null" id="svg_22" d="m158.95181,38.137028c0.086428,-0.086428 0.086428,-0.172856 0.086428,-0.259283s-0.086428,-0.259283 -0.172856,-0.345711c-0.086428,-0.086428 -0.259283,-0.172856 -0.432139,-0.172856l-0.691423,0l0,1.814984l0.259283,0l0,-0.77785l0.518567,0l0.345711,0.77785l0.259283,0l-0.345711,-0.864278c0,0 0.086428,-0.086428 0.172856,-0.172856zm-0.518567,0.086428l-0.518567,0l0,-0.691423l0.518567,0c0.086428,0 0.172856,0 0.259283,0.086428s0.086428,0.172856 0.086428,0.259283s0,0.172856 -0.086428,0.259283c-0.086428,0 -0.172856,0.086428 -0.259283,0.086428z" fill="#5F6062"/>
   </g>
  </g>
 </g>
</svg>