<svg width="160" height="50" xmlns="http://www.w3.org/2000/svg">
 <style type="text/css">.st0{fill:#00956D;}
	.st1{fill:#6CC04A;}
	.st2{fill:#004750;}</style>

 <g>
  <title>background</title>
  <rect fill="none" id="canvas_background" height="52" width="162" y="-1" x="-1"/>
 </g>
 <g>
  <title>Layer 1</title>
  <g stroke="null" id="svg_33">
   <path stroke="null" id="svg_1" d="m15.850844,39.592534l0,-4.37051l0,-2.734158l0,-24.193157c-0.414266,0 -0.6214,0.082853 -1.657066,0.869959l-1.532786,1.180659l-3.624831,2.754871c-0.807819,0.6214 -0.973526,1.760632 -0.352126,2.568452c0.6214,0.807819 1.760632,0.973526 2.568452,0.352126l1.014953,-0.787106c0.579973,-0.455693 1.429219,-0.331413 1.884912,0.24856c0.455693,0.579973 0.331413,1.429219 -0.24856,1.884912l-0.579973,0.43498l-1.719206,1.304939l-3.624831,2.796298c-0.807819,0.6214 -0.973526,1.760632 -0.352126,2.568452c0.6214,0.807819 1.760632,0.973526 2.568452,0.352126l1.947052,-1.470646l0,0c0.579973,-0.455693 1.429219,-0.331413 1.884912,0.24856c0.455693,0.579973 0.331413,1.429219 -0.24856,1.884912l-1.242799,0.952813l-1.719206,1.304939l-3.624831,2.754871c-0.807819,0.6214 -0.973526,1.760632 -0.352126,2.568452c0.6214,0.807819 1.760632,0.973526 2.568452,0.352126l2.609878,-1.988479c0.579973,-0.455693 1.429219,-0.331413 1.884912,0.24856c0.18642,0.24856 0.269273,0.517833 0.269273,0.807819l0,0l0,0l0,6.980389c-6.317562,-0.807819 -11.205906,-6.213996 -11.205906,-12.759405c0,-3.666258 1.574212,-7.166809 4.30837,-9.590267l0.103567,-0.103567l-0.12428,-0.144993c-0.041427,-0.041427 -0.082853,-0.082853 -0.103567,-0.12428c-0.331413,-0.414266 -0.55926,-0.911386 -0.662826,-1.429219l-0.041427,-0.24856l-0.18642,0.165707c-3.417698,2.858438 -5.385463,7.042529 -5.385463,11.495892c0,8.264614 6.711115,14.97573 14.97573,14.97573l0,-2.112759l0,0z" class="st0"/>
   <path stroke="null" id="svg_2" d="m25.441111,15.23367l-0.18642,-0.165707l-0.041427,0.24856c-0.103567,0.517833 -0.331413,1.014953 -0.662826,1.429219c-0.041427,0.041427 -0.06214,0.082853 -0.103567,0.12428l-0.12428,0.144993l0.103567,0.103567c2.734158,2.444172 4.30837,5.944723 4.30837,9.590267c0,3.438411 -1.346366,6.669689 -3.769824,9.093147c-2.029905,2.029905 -4.639784,3.293418 -7.436082,3.666258l0,-6.980389l0,0l0,0c0,-0.289986 0.082853,-0.55926 0.269273,-0.807819c0.455693,-0.579973 1.284226,-0.704253 1.884912,-0.24856l2.609878,1.988479c0.807819,0.6214 1.967765,0.455693 2.568452,-0.352126c0.6214,-0.807819 0.455693,-1.967765 -0.352126,-2.568452l-3.624831,-2.754871l-1.719206,-1.304939l-1.242799,-0.952813c-0.579973,-0.455693 -0.704253,-1.284226 -0.24856,-1.884912c0.455693,-0.579973 1.284226,-0.704253 1.884912,-0.24856l0,0l1.947052,1.470646c0.807819,0.6214 1.967765,0.455693 2.568452,-0.352126c0.6214,-0.807819 0.455693,-1.967765 -0.352126,-2.568452l-3.624831,-2.754871l-1.719206,-1.304939l-0.579973,-0.43498c-0.579973,-0.455693 -0.704253,-1.284226 -0.24856,-1.884912c0.455693,-0.579973 1.284226,-0.704253 1.884912,-0.24856l1.014953,0.787106c0.807819,0.6214 1.967765,0.455693 2.568452,-0.352126c0.6214,-0.807819 0.455693,-1.967765 -0.352126,-2.568452l-3.624831,-2.754871l-1.532786,-1.201373c-1.035666,-0.787106 -1.242799,-0.869959 -1.657066,-0.869959l0,24.193157l0,2.734158l0,5.758303l0,0l0,0.704253l0,0c8.264614,0 14.97573,-6.711115 14.97573,-14.97573c0,-4.453364 -1.967765,-8.637454 -5.385463,-11.495892z" class="st1"/>
   <g stroke="null" id="svg_3">
    <g stroke="null" id="svg_4">
     <path stroke="null" id="svg_5" d="m42.239613,27.185256c-1.802059,-0.37284 -3.396984,-0.49712 -3.396984,-1.905625c0,-0.849246 0.704253,-1.512072 2.174899,-1.512072c0.994239,0 1.719206,0.165707 2.713445,0.517833c0.68354,0.24856 1.387792,-0.165707 1.594926,-0.787106c0.207133,-0.68354 -0.082853,-1.387792 -0.807819,-1.657066c-1.014953,-0.37284 -2.009192,-0.579973 -3.645544,-0.579973c-2.692732,0 -4.888343,1.470646 -4.888343,4.204804c0,2.630592 1.657066,3.396984 3.376271,3.811251c1.864199,0.455693 3.811251,0.455693 3.811251,2.009192c0,1.035666 -0.849246,1.719206 -2.527025,1.719206c-1.429219,0 -2.154185,-0.207133 -2.982718,-0.517833c-0.642113,-0.24856 -1.408506,0.06214 -1.657066,0.787106c-0.207133,0.6214 0.06214,1.408506 0.724966,1.657066c0.973526,0.352126 2.029905,0.579973 3.873391,0.579973c2.941291,0 5.42689,-1.304939 5.42689,-4.349797c0.020713,-2.899865 -1.905625,-3.583404 -3.790537,-3.976957z" class="st2"/>
    </g>
    <g stroke="null" id="svg_6">
     <path stroke="null" id="svg_7" d="m59.618088,34.227784c0,-0.455693 -0.207133,-0.766393 -0.49712,-0.952813c-0.49712,-0.331413 -0.724966,-0.600686 -0.724966,-1.594926l0,-4.80549c0,-3.831964 -1.325652,-5.61331 -5.24047,-5.61331c-0.952813,0 -2.257752,0.144993 -3.314131,0.538546c-0.849246,0.352126 -1.429219,0.807819 -1.429219,1.491359c0,0.642113 0.49712,1.159946 1.159946,1.159946c0.43498,0 0.766393,-0.207133 1.367079,-0.43498c0.517833,-0.18642 1.118519,-0.352126 2.009192,-0.352126c1.947052,0 2.444172,1.014953 2.444172,2.879151l0,0.600686l-2.775585,0c-3.479838,0 -5.17833,1.594926 -5.17833,3.997671l0,0.207133c0,2.423458 1.512072,4.121951 4.826203,4.121951c1.201373,0 2.713445,-0.24856 3.749111,-1.284226c0.18642,0.352126 0.455693,0.642113 0.766393,0.869959c0.43498,0.269273 0.869959,0.414266 1.367079,0.414266c0.828533,0.020713 1.470646,-0.37284 1.470646,-1.242799zm-4.225517,-3.459124c0,1.677779 -1.014953,2.527025 -2.547738,2.527025c-1.760632,0 -2.423458,-0.787106 -2.423458,-1.864199l0,-0.18642c0,-1.014953 0.600686,-1.843485 2.527025,-1.843485l2.444172,0l0,1.367079z" class="st2"/>
    </g>
    <g stroke="null" id="svg_8">
     <path stroke="null" id="svg_9" d="m71.67324,35.491297c0.849246,0 1.491359,-0.37284 1.491359,-1.242799c0,-0.455693 -0.207133,-0.766393 -0.49712,-0.952813c-0.49712,-0.331413 -0.724966,-0.600686 -0.724966,-1.594926l0,-4.80549c0,-3.831964 -1.325652,-5.61331 -5.24047,-5.61331c-0.952813,0 -2.257752,0.144993 -3.314131,0.538546c-0.849246,0.352126 -1.429219,0.807819 -1.429219,1.491359c0,0.642113 0.49712,1.159946 1.159946,1.159946c0.43498,0 0.766393,-0.207133 1.367079,-0.43498c0.517833,-0.18642 1.118519,-0.352126 2.009192,-0.352126c1.947052,0 2.444172,1.014953 2.444172,2.879151l0,0.600686l-2.775585,0c-3.479838,0 -5.17833,1.594926 -5.17833,3.997671l0,0.207133c0,2.423458 1.512072,4.121951 4.826203,4.121951c1.201373,0 2.713445,-0.24856 3.749111,-1.284226c0.18642,0.352126 0.455693,0.642113 0.766393,0.869959c0.43498,0.269273 0.869959,0.414266 1.346366,0.414266zm-2.734158,-4.722637c0,1.677779 -1.014953,2.527025 -2.547738,2.527025c-1.760632,0 -2.423458,-0.787106 -2.423458,-1.864199l0,-0.18642c0,-1.014953 0.600686,-1.843485 2.527025,-1.843485l2.444172,0l0,1.367079z" class="st2"/>
    </g>
    <g stroke="null" id="svg_10">
     <path stroke="null" id="svg_11" d="m80.849241,27.185256c-1.802059,-0.37284 -3.396984,-0.49712 -3.396984,-1.905625c0,-0.849246 0.704253,-1.512072 2.174899,-1.512072c1.014953,0 1.719206,0.165707 2.713445,0.517833c0.68354,0.24856 1.387792,-0.165707 1.594926,-0.787106c0.207133,-0.68354 -0.082853,-1.387792 -0.807819,-1.657066c-1.014953,-0.37284 -2.009192,-0.579973 -3.645544,-0.579973c-2.692732,0 -4.888343,1.470646 -4.888343,4.204804c0,2.630592 1.657066,3.396984 3.376271,3.811251c1.864199,0.455693 3.811251,0.455693 3.811251,2.009192c0,1.035666 -0.849246,1.719206 -2.527025,1.719206c-1.429219,0 -2.154185,-0.207133 -2.982718,-0.517833c-0.642113,-0.24856 -1.408506,0.06214 -1.657066,0.787106c-0.207133,0.6214 0.06214,1.408506 0.724966,1.657066c0.973526,0.352126 2.029905,0.579973 3.873391,0.579973c2.941291,0 5.42689,-1.304939 5.42689,-4.349797c0.020713,-2.899865 -1.905625,-3.583404 -3.790537,-3.976957z" class="st2"/>
    </g>
    <g stroke="null" id="svg_12">
     <path stroke="null" id="svg_13" d="m92.220853,20.950547c-3.956244,0 -5.654736,2.589165 -5.654736,5.696163l0,3.169138c0,3.086285 1.677779,5.67545 5.654736,5.67545c0.642113,0 1.201373,-0.082853 1.719206,-0.207133l1.014953,2.216325c0.24856,0.517833 0.745679,0.828533 1.284226,0.828533c0.207133,0 0.393553,-0.041427 0.600686,-0.12428c0.704253,-0.331413 1.014953,-1.180659 0.68354,-1.884912l-1.118519,-2.402745c0.973526,-1.035666 1.429219,-2.485598 1.429219,-4.080524l0,-3.169138c0.020713,-3.148425 -1.677779,-5.716876 -5.61331,-5.716876zm-2.630592,8.823874l0,-3.148425c0,-1.843485 0.787106,-2.962005 2.630592,-2.962005c1.822772,0 2.630592,1.118519 2.630592,2.962005l0,3.148425c0,1.843485 -0.807819,2.962005 -2.630592,2.962005c-1.843485,0 -2.630592,-1.097806 -2.630592,-2.962005z" class="st2"/>
    </g>
    <g stroke="null" id="svg_14">
     <path stroke="null" id="svg_15" d="m111.939933,33.295685c-0.49712,-0.331413 -0.849246,-0.600686 -0.849246,-1.594926l0,-8.906727c0,-0.849246 -0.642113,-1.512072 -1.491359,-1.512072c-0.849246,0 -1.512072,0.68354 -1.512072,1.512072l0,8.347468c-0.538546,0.932099 -1.429219,1.491359 -2.775585,1.491359c-1.822772,0 -2.216325,-0.973526 -2.216325,-2.506312l0,-7.353228c0,-0.849246 -0.704253,-1.512072 -1.512072,-1.512072c-0.849246,0 -1.512072,0.68354 -1.512072,1.512072l0,7.684642c0,2.941291 1.201373,5.033337 4.515504,5.033337c1.822772,0 3.148425,-0.538546 4.101237,-1.491359c0.165707,0.352126 0.37284,0.642113 0.68354,0.890673c0.455693,0.414266 1.077093,0.600686 1.574212,0.600686c0.869959,0 1.512072,-0.37284 1.512072,-1.242799c-0.041427,-0.476406 -0.24856,-0.766393 -0.517833,-0.952813z" class="st2"/>
    </g>
    <g stroke="null" id="svg_16">
     <path stroke="null" id="svg_17" d="m126.004277,34.227784c0,-0.455693 -0.207133,-0.766393 -0.49712,-0.952813c-0.49712,-0.331413 -0.724966,-0.600686 -0.724966,-1.594926l0,-4.80549c0,-3.831964 -1.325652,-5.61331 -5.24047,-5.61331c-0.952813,0 -2.257752,0.144993 -3.314131,0.538546c-0.849246,0.352126 -1.429219,0.807819 -1.429219,1.491359c0,0.642113 0.49712,1.159946 1.159946,1.159946c0.43498,0 0.766393,-0.207133 1.367079,-0.43498c0.517833,-0.18642 1.118519,-0.352126 2.009192,-0.352126c1.947052,0 2.444172,1.014953 2.444172,2.879151l0,0.600686l-2.775585,0c-3.479838,0 -5.17833,1.594926 -5.17833,3.997671l0,0.207133c0,2.423458 1.512072,4.121951 4.826203,4.121951c1.201373,0 2.713445,-0.24856 3.749111,-1.284226c0.18642,0.352126 0.455693,0.642113 0.766393,0.869959c0.43498,0.269273 0.869959,0.414266 1.367079,0.414266c0.807819,0.020713 1.470646,-0.37284 1.470646,-1.242799zm-4.24623,-3.459124c0,1.677779 -1.014953,2.527025 -2.547738,2.527025c-1.760632,0 -2.423458,-0.787106 -2.423458,-1.864199l0,-0.18642c0,-1.014953 0.600686,-1.843485 2.527025,-1.843485l2.444172,0l0,1.367079z" class="st2"/>
    </g>
    <g stroke="null" id="svg_18">
     <path stroke="null" id="svg_19" d="m128.407022,23.953978l0,5.30261c0,3.645544 1.201373,6.089716 5.05405,6.089716l0.890673,0c0.724966,0 1.367079,-0.600686 1.367079,-1.367079c0,-0.724966 -0.6214,-1.325652 -1.367079,-1.325652l-0.517833,0c-1.947052,0 -2.382032,-1.014953 -2.382032,-3.438411l0,-5.261183l2.278465,0c0.704253,0 1.284226,-0.579973 1.284226,-1.284226c0,-0.704253 -0.579973,-1.242799 -1.284226,-1.242799l-2.278465,0l0,-2.340605c0,-0.849246 -0.68354,-1.512072 -1.512072,-1.512072c-0.807819,0 -1.512072,0.68354 -1.512072,1.512072l0,2.340605l-0.600686,0c-0.68354,0 -1.242799,0.538546 -1.242799,1.242799c0,0.704253 0.579973,1.284226 1.242799,1.284226l0.579973,0z" class="st2"/>
    </g>
    <g stroke="null" id="svg_20">
     <path stroke="null" id="svg_21" d="m145.868351,33.129978c-0.24856,-0.642113 -0.952813,-0.952813 -1.574212,-0.642113c-0.849246,0.414266 -1.574212,0.517833 -2.299178,0.517833c-1.802059,0 -2.692732,-1.304939 -2.692732,-3.438411l0,-2.361318c0,-2.112759 1.035666,-3.417698 2.775585,-3.417698c0.932099,0 1.574212,0.165707 2.216325,0.455693c0.600686,0.289986 1.304939,0.020713 1.553499,-0.600686c0.289986,-0.724966 0.020713,-1.284226 -0.538546,-1.594926c-1.035666,-0.600686 -2.361318,-0.787106 -3.479838,-0.787106c-3.686971,0 -5.530456,2.817011 -5.530456,6.255422l0,1.864199c0,3.521264 1.636352,6.110429 5.509743,6.110429c1.139233,0 2.361318,-0.18642 3.479838,-0.787106c0.517833,-0.3107 0.828533,-0.849246 0.579973,-1.574212z" class="st2"/>
    </g>
    <g stroke="null" id="svg_22">
     <path stroke="null" id="svg_23" d="m159.124875,33.999938l0,-7.705355c0,-2.941291 -1.077093,-5.033337 -4.536217,-5.033337c-1.491359,0 -2.651305,0.37284 -3.500551,1.077093l0,-4.86763c0,-0.807819 -0.68354,-1.491359 -1.512072,-1.491359c-0.807819,0 -1.512072,0.68354 -1.512072,1.491359l0,16.529229c0,0.807819 0.704253,1.491359 1.512072,1.491359c0.849246,0 1.512072,-0.68354 1.512072,-1.491359l0,-8.471748c0.538546,-0.869959 1.512072,-1.408506 2.775585,-1.408506c1.843485,0 2.216325,1.077093 2.216325,2.506312l0,7.394655c0,0.807819 0.68354,1.491359 1.512072,1.491359c0.849246,-0.020713 1.532786,-0.704253 1.532786,-1.512072z" class="st2"/>
    </g>
   </g>
   <g stroke="null" id="svg_24">
    <path stroke="null" id="svg_25" d="m36.647017,17.056443l0,-4.598357c0,-0.144993 0.041427,-0.24856 0.144993,-0.352126c0.103567,-0.103567 0.207133,-0.144993 0.352126,-0.144993l1.967765,0c0.68354,0 1.222086,0.18642 1.594926,0.55926c0.3107,0.3107 0.455693,0.704253 0.455693,1.201373l0,0.020713c0,0.43498 -0.103567,0.787106 -0.331413,1.056379c-0.227847,0.269273 -0.538546,0.476406 -0.911386,0.600686l1.056379,1.325652c0.103567,0.12428 0.165707,0.24856 0.165707,0.37284c0,0.12428 -0.041427,0.24856 -0.144993,0.331413c-0.103567,0.082853 -0.207133,0.12428 -0.331413,0.12428c-0.18642,0 -0.352126,-0.082853 -0.476406,-0.24856l-1.346366,-1.719206l-1.222086,0l0,1.470646c0,0.144993 -0.041427,0.24856 -0.144993,0.352126c-0.082853,0.082853 -0.207133,0.144993 -0.352126,0.144993c-0.144993,0 -0.24856,-0.041427 -0.352126,-0.144993c-0.082853,-0.103567 -0.12428,-0.227847 -0.12428,-0.352126zm0.952813,-2.361318l1.429219,0c0.352126,0 0.6214,-0.082853 0.828533,-0.24856c0.207133,-0.165707 0.3107,-0.393553 0.3107,-0.662826l0,-0.020713c0,-0.289986 -0.103567,-0.517833 -0.289986,-0.68354c-0.207133,-0.165707 -0.476406,-0.227847 -0.849246,-0.227847l-1.408506,0l0,1.843485l-0.020713,0z" class="st2"/>
    <path stroke="null" id="svg_26" d="m42.985293,17.491422c-0.144993,0 -0.24856,-0.041427 -0.352126,-0.144993c-0.103567,-0.103567 -0.144993,-0.207133 -0.144993,-0.352126l0,-4.536217c0,-0.144993 0.041427,-0.24856 0.144993,-0.352126c0.103567,-0.103567 0.207133,-0.144993 0.352126,-0.144993l3.210565,0c0.12428,0 0.227847,0.041427 0.3107,0.12428c0.082853,0.082853 0.12428,0.18642 0.12428,0.3107s-0.041427,0.227847 -0.12428,0.3107c-0.082853,0.082853 -0.18642,0.12428 -0.3107,0.12428l-2.734158,0l0,1.429219l2.382032,0c0.12428,0 0.227847,0.041427 0.3107,0.12428c0.082853,0.082853 0.12428,0.18642 0.12428,0.3107c0,0.12428 -0.041427,0.207133 -0.12428,0.289986c-0.082853,0.082853 -0.18642,0.12428 -0.3107,0.12428l-2.382032,0l0,1.491359l2.775585,0c0.12428,0 0.207133,0.041427 0.3107,0.12428c0.082853,0.082853 0.12428,0.18642 0.12428,0.3107c0,0.12428 -0.041427,0.227847 -0.12428,0.3107c-0.082853,0.082853 -0.18642,0.12428 -0.3107,0.12428l-3.251991,0l0,0.020713z" class="st2"/>
    <path stroke="null" id="svg_27" d="m47.95649,17.056443l0,-4.598357c0,-0.144993 0.041427,-0.24856 0.144993,-0.352126c0.103567,-0.103567 0.207133,-0.144993 0.352126,-0.144993l3.210565,0c0.12428,0 0.227847,0.041427 0.3107,0.12428c0.082853,0.082853 0.12428,0.18642 0.12428,0.3107s-0.041427,0.227847 -0.12428,0.3107c-0.082853,0.082853 -0.18642,0.12428 -0.3107,0.12428l-2.734158,0l0,1.532786l2.382032,0c0.12428,0 0.227847,0.041427 0.3107,0.12428c0.082853,0.082853 0.12428,0.18642 0.12428,0.3107c0,0.12428 -0.041427,0.227847 -0.12428,0.3107c-0.082853,0.082853 -0.18642,0.12428 -0.3107,0.12428l-2.382032,0l0,1.822772c0,0.144993 -0.041427,0.24856 -0.144993,0.352126c-0.082853,0.082853 -0.207133,0.144993 -0.352126,0.144993c-0.144993,0 -0.24856,-0.041427 -0.352126,-0.144993c-0.082853,-0.103567 -0.12428,-0.227847 -0.12428,-0.352126z" class="st2"/>
    <path stroke="null" id="svg_28" d="m53.776932,17.491422c-0.144993,0 -0.24856,-0.041427 -0.352126,-0.144993c-0.103567,-0.103567 -0.144993,-0.207133 -0.144993,-0.352126l0,-4.536217c0,-0.144993 0.041427,-0.24856 0.144993,-0.352126c0.103567,-0.103567 0.207133,-0.144993 0.352126,-0.144993l3.210565,0c0.12428,0 0.227847,0.041427 0.3107,0.12428c0.082853,0.082853 0.12428,0.18642 0.12428,0.3107s-0.041427,0.227847 -0.12428,0.3107c-0.082853,0.082853 -0.18642,0.12428 -0.3107,0.12428l-2.734158,0l0,1.429219l2.382032,0c0.12428,0 0.227847,0.041427 0.3107,0.12428c0.082853,0.082853 0.12428,0.18642 0.12428,0.3107c0,0.12428 -0.041427,0.207133 -0.12428,0.289986c-0.082853,0.082853 -0.18642,0.12428 -0.3107,0.12428l-2.382032,0l0,1.491359l2.775585,0c0.12428,0 0.207133,0.041427 0.3107,0.12428c0.082853,0.082853 0.12428,0.18642 0.12428,0.3107c0,0.12428 -0.041427,0.227847 -0.12428,0.3107c-0.082853,0.082853 -0.18642,0.12428 -0.3107,0.12428l-3.251991,0l0,0.020713z" class="st2"/>
    <path stroke="null" id="svg_29" d="m58.727416,17.056443l0,-4.598357c0,-0.144993 0.041427,-0.24856 0.144993,-0.352126c0.103567,-0.103567 0.207133,-0.144993 0.352126,-0.144993l1.967765,0c0.68354,0 1.222086,0.18642 1.594926,0.55926c0.3107,0.3107 0.455693,0.704253 0.455693,1.201373l0,0.020713c0,0.43498 -0.103567,0.787106 -0.331413,1.056379c-0.227847,0.269273 -0.538546,0.476406 -0.911386,0.600686l1.056379,1.325652c0.103567,0.12428 0.165707,0.24856 0.165707,0.37284c0,0.12428 -0.041427,0.24856 -0.144993,0.331413c-0.103567,0.082853 -0.207133,0.12428 -0.331413,0.12428c-0.18642,0 -0.352126,-0.082853 -0.476406,-0.24856l-1.346366,-1.719206l-1.222086,0l0,1.470646c0,0.144993 -0.041427,0.24856 -0.144993,0.352126c-0.082853,0.082853 -0.207133,0.144993 -0.352126,0.144993c-0.144993,0 -0.24856,-0.041427 -0.352126,-0.144993c-0.082853,-0.103567 -0.12428,-0.227847 -0.12428,-0.352126zm0.973526,-2.361318l1.429219,0c0.352126,0 0.6214,-0.082853 0.828533,-0.24856c0.207133,-0.165707 0.3107,-0.393553 0.3107,-0.662826l0,-0.020713c0,-0.289986 -0.103567,-0.517833 -0.289986,-0.68354c-0.207133,-0.165707 -0.476406,-0.227847 -0.849246,-0.227847l-1.429219,0l0,1.843485z" class="st2"/>
    <path stroke="null" id="svg_30" d="m64.589285,17.056443l0,-4.598357c0,-0.144993 0.041427,-0.24856 0.144993,-0.352126c0.103567,-0.103567 0.207133,-0.144993 0.352126,-0.144993l1.967765,0c0.68354,0 1.222086,0.18642 1.594926,0.55926c0.3107,0.3107 0.455693,0.704253 0.455693,1.201373l0,0.020713c0,0.43498 -0.103567,0.787106 -0.331413,1.056379c-0.227847,0.269273 -0.538546,0.476406 -0.911386,0.600686l1.056379,1.325652c0.103567,0.12428 0.165707,0.24856 0.165707,0.37284c0,0.12428 -0.041427,0.24856 -0.144993,0.331413c-0.103567,0.082853 -0.207133,0.12428 -0.331413,0.12428c-0.18642,0 -0.352126,-0.082853 -0.476406,-0.24856l-1.346366,-1.719206l-1.222086,0l0,1.470646c0,0.144993 -0.041427,0.24856 -0.144993,0.352126c-0.082853,0.082853 -0.207133,0.144993 -0.352126,0.144993c-0.144993,0 -0.24856,-0.041427 -0.352126,-0.144993c-0.082853,-0.103567 -0.12428,-0.227847 -0.12428,-0.352126zm0.973526,-2.361318l1.429219,0c0.352126,0 0.6214,-0.082853 0.828533,-0.24856c0.207133,-0.165707 0.3107,-0.393553 0.3107,-0.662826l0,-0.020713c0,-0.289986 -0.103567,-0.517833 -0.289986,-0.68354c-0.207133,-0.165707 -0.476406,-0.227847 -0.849246,-0.227847l-1.408506,0l0,1.843485l-0.020713,0z" class="st2"/>
    <path stroke="null" id="svg_31" d="m70.078315,17.077156c0,-0.06214 0.020713,-0.144993 0.06214,-0.227847l2.050619,-4.577644c0.12428,-0.269273 0.3107,-0.393553 0.579973,-0.393553l0.041427,0c0.269273,0 0.455693,0.12428 0.579973,0.393553l2.050619,4.577644c0.041427,0.06214 0.06214,0.144993 0.06214,0.207133c0,0.12428 -0.041427,0.24856 -0.12428,0.331413c-0.082853,0.082853 -0.18642,0.12428 -0.331413,0.12428c-0.227847,0 -0.37284,-0.103567 -0.476406,-0.331413l-0.455693,-1.035666l-2.692732,0l-0.455693,1.056379c-0.082853,0.207133 -0.227847,0.3107 -0.455693,0.3107c-0.12428,0 -0.227847,-0.041427 -0.3107,-0.12428c-0.082853,-0.082853 -0.12428,-0.18642 -0.12428,-0.3107zm1.739919,-1.781345l1.947052,0l-0.973526,-2.237038l-0.973526,2.237038z" class="st2"/>
    <path stroke="null" id="svg_32" d="m76.706577,16.994303l0,-4.577644c0,-0.144993 0.041427,-0.24856 0.144993,-0.352126c0.103567,-0.082853 0.207133,-0.144993 0.352126,-0.144993c0.144993,0 0.24856,0.041427 0.352126,0.144993c0.082853,0.082853 0.144993,0.207133 0.144993,0.352126l0,4.204804l2.506312,0c0.12428,0 0.227847,0.041427 0.3107,0.12428c0.082853,0.082853 0.12428,0.18642 0.12428,0.3107c0,0.12428 -0.041427,0.227847 -0.12428,0.3107c-0.082853,0.082853 -0.18642,0.12428 -0.3107,0.12428l-2.982718,0c-0.144993,0 -0.24856,-0.041427 -0.352126,-0.144993c-0.103567,-0.103567 -0.165707,-0.207133 -0.165707,-0.352126z" class="st2"/>
   </g>
  </g>
 </g>
</svg>