<?xml version="1.0"?>
<svg width="160" height="50" xmlns="http://www.w3.org/2000/svg" xmlns:svg="http://www.w3.org/2000/svg">
 <g>
  <title>Layer 1</title>
  <g stroke="null" id="Layer_1_1_">
   <g stroke="null" id="svg_1">
    <path stroke="null" id="svg_2" d="m64.494779,23.704723c0,0 -0.533349,-0.076193 -1.142891,-0.076193c-0.83812,0 -1.219084,0.304771 -1.219084,0.304771c-0.228578,0.152385 -0.380964,0.457156 -0.380964,0.761927c0,0.228578 0.076193,0.380964 0.152385,0.533349c0.076193,0.076193 0.076193,0.152385 0.228578,0.228578c0,0 0.380964,0.304771 1.219084,0.228578c0.609542,0 1.142891,-0.152385 1.142891,-0.152385l0,0l0,-1.828626z" fill="#3498DB"/>
    <path stroke="null" id="svg_3" d="m72.571209,21.266556c-0.533349,0 -0.914313,0.228578 -1.142891,0.609542c-0.152385,0.228578 -0.304771,0.609542 -0.304771,0.990505l2.895324,0c0,-0.380964 -0.076193,-0.685735 -0.304771,-0.990505c-0.228578,-0.380964 -0.609542,-0.609542 -1.142891,-0.609542z" fill="#3498DB"/>
    <path stroke="null" id="svg_4" d="m89.028839,21.266556c-0.533349,0 -0.914313,0.152385 -1.142891,0.533349s-0.380964,0.914313 -0.380964,1.67624c0,0.685735 0.152385,1.219084 0.380964,1.67624c0.228578,0.380964 0.609542,0.609542 1.142891,0.609542s0.914313,-0.152385 1.142891,-0.609542c0.228578,-0.380964 0.380964,-0.914313 0.380964,-1.67624c0,-0.685735 -0.152385,-1.219084 -0.380964,-1.67624c-0.228578,-0.304771 -0.609542,-0.533349 -1.142891,-0.533349z" fill="#3498DB"/>
    <path stroke="null" id="svg_5" d="m105.334083,21.266556c-0.533349,0 -0.914313,0.228578 -1.142891,0.609542c-0.152385,0.228578 -0.304771,0.609542 -0.304771,0.990505l2.895324,0c0,-0.380964 -0.076193,-0.685735 -0.304771,-0.990505c-0.228578,-0.380964 -0.609542,-0.609542 -1.142891,-0.609542z" fill="#3498DB"/>
    <path stroke="null" id="svg_6" d="m100.076785,6.942322c-2.209589,0 -4.266793,0.457156 -6.171611,1.295276c-2.133396,-3.809637 -6.171611,-6.476382 -10.89556,-6.476382c-3.504866,0 -6.628768,1.523855 -8.914549,3.885829c-2.51436,-3.276287 -6.476382,-5.409684 -10.89556,-5.409684c-7.54308,0 -13.714692,6.171611 -13.714692,13.714692c0,1.904818 0.380964,3.809637 1.142891,5.485877c-3.581058,2.057204 -5.943033,5.86684 -5.943033,10.286019c0,6.552575 5.257298,11.962259 11.809873,11.962259c0.83812,0 1.67624,-0.076193 2.438167,-0.228578c1.752433,4.876335 6.400189,8.305008 11.886066,8.305008c5.257298,0 9.75267,-3.200095 11.657488,-7.771659c1.447662,0.685735 3.123902,1.142891 4.876335,1.142891c4.1906,0 7.771659,-2.285782 9.75267,-5.714455c0.990505,0.228578 1.981011,0.304771 2.971516,0.304771c8.3812,0 15.238546,-6.857346 15.238546,-15.390932c0,-8.533586 -6.781153,-15.390932 -15.238546,-15.390932zm-40.229762,17.829099c0,1.219084 -0.914313,1.981011 -2.361975,1.981011c-0.685735,0 -1.371469,-0.076193 -2.133396,-0.457156c-0.152385,-0.076193 -0.304771,-0.152385 -0.380964,-0.228578c0,0 -0.076193,-0.076193 0,-0.152385l0.304771,-0.761927c0.076193,-0.152385 0.152385,-0.076193 0.152385,-0.076193c0.076193,0.076193 0.152385,0.076193 0.228578,0.152385c0.83812,0.533349 1.600047,0.533349 1.828626,0.533349c0.609542,0 0.990505,-0.304771 0.990505,-0.761927l0,0c0,-0.457156 -0.609542,-0.685735 -1.295276,-0.914313l-0.152385,-0.076193c-0.990505,-0.304771 -1.981011,-0.685735 -1.981011,-1.904818l0,0c0,-1.142891 0.914313,-1.981011 2.285782,-1.981011l0.152385,0c0.761927,0 1.523855,0.228578 2.057204,0.533349c0.076193,0 0.076193,0.076193 0.076193,0.152385s-0.304771,0.685735 -0.304771,0.761927c-0.076193,0.152385 -0.228578,0.076193 -0.228578,0.076193c-0.457156,-0.228578 -1.219084,-0.457156 -1.828626,-0.457156c-0.533349,0 -0.914313,0.304771 -0.914313,0.685735l0,0c0,0.457156 0.609542,0.685735 1.371469,0.914313l0.152385,0.076193c0.914313,0.380964 1.981011,0.761927 1.981011,1.904818l0,0zm5.86684,1.67624c0,0 -0.152385,0.076193 -0.304771,0.076193c-0.152385,0 -0.609542,0.152385 -1.066698,0.228578c-0.380964,0.076193 -0.83812,0.076193 -1.219084,0.076193s-0.761927,0 -1.066698,-0.076193s-0.609542,-0.228578 -0.83812,-0.380964c-0.228578,-0.152385 -0.380964,-0.380964 -0.533349,-0.609542s-0.152385,-0.609542 -0.152385,-0.914313c0,-0.380964 0.076193,-0.685735 0.228578,-0.914313c0.152385,-0.304771 0.380964,-0.533349 0.609542,-0.685735c0.228578,-0.152385 0.533349,-0.304771 0.83812,-0.380964s0.685735,-0.152385 0.990505,-0.152385c0.228578,0 0.457156,0 0.609542,0c0,0 0.304771,0 0.685735,0.076193l0,-0.152385c0,-0.533349 -0.076193,-0.83812 -0.304771,-0.990505c-0.228578,-0.152385 -0.533349,-0.228578 -0.990505,-0.228578c0,0 -0.990505,0 -1.752433,0.380964l-0.076193,0c0,0 -0.076193,0 -0.152385,-0.076193l-0.304771,-0.761927c-0.076193,-0.076193 0,-0.152385 0,-0.152385c0.380964,-0.304771 1.295276,-0.457156 1.295276,-0.457156c0.304771,-0.076193 0.761927,-0.076193 1.066698,-0.076193c0.83812,0 1.447662,0.228578 1.904818,0.533349c0.457156,0.380964 0.685735,0.990505 0.685735,1.828626l0,3.733444c0,-0.076193 0,0 -0.152385,0.076193zm2.742938,0.076193c0,0.076193 -0.076193,0.152385 -0.152385,0.152385l-1.066698,0c-0.076193,0 -0.152385,-0.076193 -0.152385,-0.152385l0,-8.762164c0,-0.076193 0.076193,-0.152385 0.152385,-0.152385l1.066698,0c0.076193,0 0.152385,0.076193 0.152385,0.152385l0,8.762164zm6.781153,-2.819131c0,0.152385 -0.076193,0.152385 -0.076193,0.152385l-4.114407,0c0,0.609542 0.152385,1.066698 0.457156,1.371469c0.304771,0.304771 0.761927,0.457156 1.371469,0.457156c0.990505,0 1.371469,-0.228578 1.67624,-0.304771c0,0 0.076193,-0.076193 0.152385,0.076193l0.304771,0.761927c0.076193,0.152385 0,0.152385 0,0.228578c-0.228578,0.152385 -0.914313,0.380964 -2.057204,0.380964c-0.609542,0 -1.066698,-0.076193 -1.523855,-0.228578c-0.380964,-0.152385 -0.761927,-0.380964 -1.066698,-0.685735s-0.457156,-0.609542 -0.609542,-1.066698c-0.152385,-0.380964 -0.152385,-0.83812 -0.152385,-1.295276s0.076193,-0.914313 0.152385,-1.295276c0.152385,-0.380964 0.304771,-0.761927 0.533349,-1.066698s0.533349,-0.533349 0.914313,-0.685735c0.380964,-0.152385 0.83812,-0.228578 1.371469,-0.228578c0.457156,0 0.83812,0.076193 1.142891,0.228578c0.228578,0.076193 0.533349,0.304771 0.761927,0.609542c0.152385,0.152385 0.457156,0.609542 0.533349,0.990505c0.380964,0.761927 0.228578,1.600047 0.228578,1.600047zm1.295276,2.590553c-0.152385,-0.076193 -0.304771,-0.152385 -0.380964,-0.228578c0,0 -0.076193,-0.076193 0,-0.152385l0.304771,-0.761927c0.076193,-0.152385 0.152385,-0.076193 0.152385,-0.076193c0.076193,0.076193 0.152385,0.076193 0.228578,0.152385c0.83812,0.533349 1.600047,0.533349 1.828626,0.533349c0.609542,0 0.990505,-0.304771 0.990505,-0.761927l0,0c0,-0.457156 -0.609542,-0.685735 -1.295276,-0.914313l-0.152385,-0.076193c-0.990505,-0.304771 -1.981011,-0.685735 -1.981011,-1.904818l0,0c0,-1.142891 0.914313,-1.981011 2.285782,-1.981011l0.152385,0c0.761927,0 1.523855,0.228578 2.057204,0.533349c0.076193,0 0.076193,0.076193 0.076193,0.152385s-0.304771,0.685735 -0.304771,0.761927c-0.076193,0.152385 -0.228578,0.076193 -0.228578,0.076193c-0.457156,-0.228578 -1.219084,-0.457156 -1.828626,-0.457156c-0.533349,0 -0.914313,0.304771 -0.914313,0.685735l0,0c0,0.457156 0.609542,0.685735 1.371469,0.914313l0.152385,0.076193c0.914313,0.304771 1.981011,0.685735 1.981011,1.904818l0,0c0,1.219084 -0.914313,1.981011 -2.361975,1.981011c-0.685735,0.076193 -1.371469,-0.076193 -2.133396,-0.457156zm9.295513,-5.02872c0,0.152385 -0.152385,0.152385 -0.152385,0.152385l-1.371469,0l-0.914313,5.257298c-0.076193,0.533349 -0.228578,0.990505 -0.380964,1.371469s-0.304771,0.685735 -0.533349,0.914313s-0.457156,0.457156 -0.761927,0.533349c-0.304771,0.076193 -0.609542,0.152385 -0.990505,0.152385c-0.152385,0 -0.380964,0 -0.609542,-0.076193c-0.152385,-0.076193 -0.228578,-0.076193 -0.380964,-0.076193c-0.076193,0 -0.076193,-0.076193 -0.076193,-0.152385c0,-0.076193 0.304771,-0.761927 0.304771,-0.83812c0.076193,-0.076193 0.152385,-0.076193 0.152385,-0.076193c0.076193,0 0.152385,0.076193 0.228578,0.076193s0.228578,0 0.304771,0c0.152385,0 0.304771,0 0.457156,-0.076193c0.152385,-0.076193 0.304771,-0.152385 0.380964,-0.304771s0.228578,-0.304771 0.304771,-0.609542c0.076193,-0.228578 0.152385,-0.609542 0.228578,-0.990505l0.914313,-5.104913l-0.914313,0c-0.076193,0 -0.152385,-0.076193 -0.152385,-0.152385l0.152385,-0.83812c0,-0.152385 0.152385,-0.152385 0.152385,-0.152385l0.914313,0l0.076193,-0.304771c0.152385,-0.83812 0.380964,-1.447662 0.83812,-1.828626c0.380964,-0.380964 0.990505,-0.609542 1.752433,-0.609542c0.228578,0 0.380964,0 0.533349,0.076193c0.152385,0 0.304771,0.076193 0.380964,0.076193c0,0 0.076193,0.076193 0.076193,0.152385l-0.304771,0.83812c0,0.076193 -0.076193,0.076193 -0.152385,0.076193c0,0 -0.076193,0 -0.228578,-0.076193c-0.076193,0 -0.228578,0 -0.304771,0c-0.152385,0 -0.304771,0 -0.457156,0.076193c-0.152385,0.076193 -0.228578,0.076193 -0.304771,0.228578c-0.076193,0.076193 -0.228578,0.228578 -0.304771,0.457156c-0.152385,0.457156 -0.228578,0.914313 -0.228578,0.914313l1.371469,0c0.076193,0 0.152385,0.076193 0.152385,0.152385l-0.152385,0.761927zm6.019226,3.504866c-0.152385,0.380964 -0.304771,0.761927 -0.533349,1.066698s-0.533349,0.533349 -0.914313,0.685735s-0.83812,0.228578 -1.295276,0.228578c-0.457156,0 -0.914313,-0.076193 -1.295276,-0.228578s-0.685735,-0.380964 -0.914313,-0.685735s-0.457156,-0.685735 -0.533349,-1.066698c-0.152385,-0.380964 -0.152385,-0.83812 -0.152385,-1.295276s0.076193,-0.914313 0.152385,-1.295276c0.152385,-0.380964 0.304771,-0.761927 0.533349,-1.066698s0.533349,-0.533349 0.914313,-0.685735c0.380964,-0.152385 0.83812,-0.228578 1.295276,-0.228578c0.457156,0 0.914313,0.076193 1.295276,0.228578c0.380964,0.152385 0.685735,0.380964 0.914313,0.685735s0.457156,0.685735 0.533349,1.066698c0.152385,0.380964 0.152385,0.83812 0.152385,1.295276c0,0.457156 -0.076193,0.914313 -0.152385,1.295276zm4.723949,-3.428673c0,0.076193 -0.076193,0.152385 -0.152385,0.076193c0,0 -0.228578,-0.076193 -0.457156,-0.076193c-0.152385,0 -0.380964,0 -0.533349,0.076193s-0.380964,0.152385 -0.533349,0.304771c-0.152385,0.152385 -0.304771,0.380964 -0.380964,0.609542s-0.152385,0.685735 -0.152385,1.066698l0,3.047709c0,0.076193 -0.076193,0.152385 -0.152385,0.152385l-1.066698,0c-0.076193,0 -0.152385,-0.076193 -0.152385,-0.152385l0,-6.095418c0,-0.076193 0.076193,-0.152385 0.152385,-0.152385l1.066698,0c0.076193,0 0.152385,0.076193 0.152385,0.152385l0,0.533349c0.152385,-0.228578 0.457156,-0.380964 0.685735,-0.533349s0.533349,-0.228578 1.066698,-0.152385c0.304771,0 0.609542,0.076193 0.685735,0.152385c0,0 0.076193,0.076193 0.076193,0.152385c0,0.076193 -0.228578,0.685735 -0.304771,0.83812zm5.409684,5.181106c-0.457156,0.152385 -1.066698,0.304771 -1.67624,0.304771c-1.066698,0 -1.828626,-0.304771 -2.361975,-0.914313s-0.83812,-1.371469 -0.83812,-2.438167c0,-0.457156 0.076193,-0.914313 0.228578,-1.295276c0.152385,-0.380964 0.304771,-0.761927 0.609542,-1.066698c0.228578,-0.304771 0.609542,-0.533349 0.990505,-0.685735c0.380964,-0.152385 0.83812,-0.228578 1.371469,-0.228578c0.304771,0 0.609542,0 0.914313,0.076193c0.304771,0.076193 0.685735,0.152385 0.83812,0.228578c0,0 0.076193,0.076193 0.076193,0.152385c-0.076193,0.304771 -0.228578,0.533349 -0.304771,0.83812c-0.076193,0.152385 -0.152385,0.076193 -0.152385,0.076193c-0.380964,-0.152385 -0.761927,-0.152385 -1.295276,-0.152385c-0.609542,0 -1.066698,0.228578 -1.371469,0.609542s-0.457156,0.914313 -0.457156,1.600047c0,0.761927 0.152385,1.295276 0.533349,1.67624c0.304771,0.380964 0.761927,0.533349 1.371469,0.533349c0.228578,0 0.457156,0 0.685735,-0.076193c0.228578,0 0.380964,-0.076193 0.533349,-0.152385c0,0 0.152385,-0.076193 0.152385,0.076193l0.304771,0.83812c-0.076193,-0.076193 -0.152385,0 -0.152385,0zm6.095418,-2.819131c0,0.152385 -0.152385,0.152385 -0.152385,0.152385l-4.114407,0c0,0.609542 0.152385,1.066698 0.457156,1.371469c0.304771,0.304771 0.761927,0.457156 1.371469,0.457156c0.990505,0 1.371469,-0.228578 1.67624,-0.304771c0,0 0.076193,-0.076193 0.152385,0.076193l0.304771,0.761927c0.076193,0.152385 0,0.152385 0,0.228578c-0.228578,0.152385 -0.914313,0.380964 -2.057204,0.380964c-0.609542,0 -1.066698,-0.076193 -1.523855,-0.228578c-0.380964,-0.152385 -0.761927,-0.380964 -1.066698,-0.685735s-0.457156,-0.609542 -0.609542,-1.066698c-0.152385,-0.380964 -0.152385,-0.83812 -0.152385,-1.295276s0.076193,-0.914313 0.152385,-1.295276c0.152385,-0.380964 0.304771,-0.761927 0.533349,-1.066698c0.228578,-0.304771 0.533349,-0.533349 0.914313,-0.685735c0.380964,-0.152385 0.83812,-0.228578 1.371469,-0.228578c0.457156,0 0.83812,0.076193 1.142891,0.228578c0.228578,0.076193 0.533349,0.304771 0.761927,0.609542c0.152385,0.152385 0.457156,0.609542 0.533349,0.990505c0.457156,0.761927 0.304771,1.600047 0.304771,1.600047z" fill="#3498DB"/>
   </g>
  </g>
 </g>
</svg>