<?xml version="1.0"?>
<svg width="160" height="50" xmlns="http://www.w3.org/2000/svg" xmlns:svg="http://www.w3.org/2000/svg">
 <g>
  <title>Layer 1</title>
  <g stroke="null" id="Layer_1_1_">
   <g stroke="null" id="svg_1">
    <path stroke="null" id="svg_2" d="m7.158662,35.456542c-0.708918,0 -1.535989,0 -2.36306,-0.118153c-1.772295,-0.236306 -2.599367,-0.472612 -4.726121,-1.299683l0.472612,-1.535989l0.472612,-2.008601l0.354459,-1.654142l0.708918,-0.118153c0.827071,1.299683 1.299683,1.772295 2.008601,2.36306c1.18153,0.827071 2.481213,1.299683 3.89905,1.299683c2.835673,0 4.844274,-1.654142 4.844274,-4.017203c0,-1.063377 -0.354459,-2.008601 -1.063377,-2.71752c-0.708918,-0.708918 -1.654142,-1.299683 -4.017203,-2.599367c-3.190132,-1.535989 -4.135356,-2.244907 -5.316886,-3.308285c-1.299683,-1.299683 -2.008601,-3.071979 -2.008601,-5.08058c0,-5.316886 4.253509,-8.97963 10.515619,-8.97963c0.590765,0 1.299683,0 1.890448,0.118153c1.654142,0.118153 2.599367,0.472612 4.726121,1.299683l-0.590765,1.535989l-0.590765,2.008601l-0.354459,1.299683l-0.590765,0c-0.827071,-1.18153 -1.299683,-1.654142 -2.126754,-2.126754c-0.827071,-0.590765 -2.008601,-0.945224 -3.190132,-0.945224c-2.481213,0 -4.017203,1.417836 -4.017203,3.426438c0,1.063377 0.472612,2.008601 1.299683,2.71752c0.827071,0.827071 1.890448,1.299683 4.135356,2.481213c3.190132,1.535989 4.135356,2.244907 5.316886,3.544591s1.772295,2.953826 1.772295,4.844274c0,5.553192 -4.844274,9.570395 -11.460843,9.570395z" fill="#2A2B24"/>
    <path stroke="null" id="svg_3" d="m39.296285,23.759393l-0.472612,0.472612l-1.890448,0l-4.135356,0l-3.662744,0l-1.890448,0.118153c0.118153,4.726121 2.599367,7.44364 6.852875,7.44364c0.590765,0 1.18153,0 1.772295,-0.118153c0.945224,-0.118153 1.535989,-0.472612 2.599367,-1.299683l0.590765,0.354459l-0.708918,1.890448l-0.590765,1.772295c-0.590765,0.236306 -1.18153,0.354459 -1.535989,0.472612c-1.417836,0.354459 -3.071979,0.472612 -4.371662,0.472612c-6.143957,0 -10.16116,-4.135356 -10.16116,-10.397466s4.017203,-10.633772 9.688548,-10.633772c4.962427,0 8.152559,3.071979 8.152559,7.7981c-0.236306,0.354459 -0.236306,0.945224 -0.236306,1.654142zm-8.507018,-7.089181c-1.299683,0 -2.244907,0.472612 -2.835673,1.654142c-0.590765,0.945224 -0.708918,1.535989 -0.827071,3.662744l1.890448,0l2.599367,-0.118153c1.654142,0 2.244907,-0.590765 2.244907,-1.772295c0.118153,-2.008601 -1.299683,-3.426438 -3.071979,-3.426438z" fill="#2A2B24"/>
    <path stroke="null" id="svg_4" d="m61.863512,16.552058l-0.590765,1.299683c-1.18153,-0.118153 -1.654142,-0.118153 -2.36306,-0.118153c-0.118153,0 -0.236306,0 -0.354459,0l-0.354459,0c0.708918,1.063377 0.827071,1.654142 0.827071,2.835673c0,4.135356 -3.308285,6.734722 -8.743324,6.734722c-1.063377,0 -1.417836,0 -2.36306,-0.236306c-0.827071,0.708918 -1.063377,1.18153 -1.063377,1.654142c0,1.417836 1.417836,1.890448 5.316886,1.890448l2.008601,0c4.607968,0 6.852875,1.890448 6.852875,5.553192c0,4.844274 -4.489815,8.152559 -11.224537,8.152559c-5.316886,0 -8.97963,-2.244907 -8.97963,-5.671345c0,-1.063377 0.354459,-1.890448 0.945224,-2.481213s0.945224,-0.827071 2.36306,-1.654142l1.063377,-0.590765l-0.827071,-0.354459c-1.417836,-0.590765 -2.244907,-1.654142 -2.244907,-2.71752c0,-0.945224 0.472612,-1.772295 1.654142,-2.71752l2.008601,-1.654142c-2.36306,-1.299683 -3.426438,-3.071979 -3.426438,-5.435039c0,-4.017203 3.308285,-6.498416 8.625171,-6.498416c1.772295,0 2.835673,0.118153 4.253509,0.708918l3.662744,0c1.18153,0 1.772295,0 3.308285,-0.236306l0.236306,0.354459l-0.590765,1.18153zm-6.616569,19.14079c-1.063377,-0.590765 -2.126754,-0.708918 -5.553192,-0.708918c-1.772295,0 -2.244907,0.118153 -2.953826,0.472612c-1.18153,0.590765 -1.772295,1.535989 -1.772295,2.599367c0,2.244907 2.126754,3.544591 5.553192,3.544591c3.544591,0 6.025804,-1.535989 6.025804,-3.780897c-0.118153,-0.827071 -0.590765,-1.654142 -1.299683,-2.126754zm-4.489815,-19.022637c-0.118153,0 -0.236306,0 -0.236306,0c-1.772295,0.118153 -2.599367,1.299683 -2.599367,3.662744c0,2.953826 1.063377,4.607968 3.071979,4.607968c1.890448,0 2.835673,-1.299683 2.835673,-3.662744c-0.118153,-2.953826 -1.18153,-4.607968 -3.071979,-4.607968z" fill="#2A2B24"/>
    <path stroke="null" id="svg_5" d="m95.418971,34.511318l-3.190132,0l-1.654142,0.118153c0.118153,-0.827071 0.236306,-1.417836 0.236306,-1.772295c0.118153,-0.945224 0.236306,-3.544591 0.236306,-5.789498l0,-3.426438l0,-0.236306c0,-1.417836 -0.118153,-2.126754 -0.236306,-2.835673c-0.354459,-1.18153 -1.535989,-2.008601 -2.835673,-2.008601c-1.18153,0 -2.244907,0.472612 -3.071979,1.299683c-0.945224,1.063377 -1.18153,1.772295 -1.18153,4.253509l0,2.835673c0,3.662744 0.236306,5.907651 0.827071,7.561794l-1.772295,0l-3.190132,0l-1.654142,0.118153c0.118153,-0.827071 0.236306,-1.417836 0.236306,-1.772295c0.118153,-0.945224 0.236306,-3.544591 0.236306,-5.789498l0,-3.426438l0,-0.236306c0,-1.417836 -0.118153,-2.244907 -0.236306,-2.835673c-0.354459,-1.18153 -1.535989,-2.008601 -2.835673,-2.008601c-1.18153,0 -2.244907,0.472612 -3.071979,1.299683c-0.945224,1.063377 -1.18153,1.772295 -1.18153,4.253509l0,2.835673c0,3.662744 0.236306,5.907651 0.827071,7.561794l-1.772295,-0.118153l-3.190132,0l-1.654142,0.118153c0.118153,-0.827071 0.236306,-1.417836 0.236306,-1.772295c0.118153,-0.945224 0.236306,-3.662744 0.236306,-5.789498l0.118153,-4.489815c0,-2.008601 -0.118153,-3.426438 -0.354459,-4.135356c-0.236306,-0.827071 -0.827071,-1.299683 -1.772295,-1.299683l-0.354459,0l0.827071,-1.772295l1.417836,-0.118153l3.308285,0l1.890448,-0.118153l-0.118153,3.426438l1.654142,-1.417836c1.890448,-1.654142 3.544591,-2.36306 5.553192,-2.36306c2.71752,0 4.607968,1.299683 5.553192,3.780897l1.654142,-1.417836c1.890448,-1.654142 3.544591,-2.36306 5.553192,-2.36306c2.126754,0 3.780897,0.708918 4.844274,2.126754c0.827071,1.18153 1.063377,2.244907 1.063377,5.198733l0,5.08058c0,3.662744 0.236306,5.907651 0.827071,7.561794l-2.008601,-0.118153z" fill="#2A2B24"/>
    <path stroke="null" id="svg_6" d="m118.695117,23.759393l-0.472612,0.472612l-1.890448,0l-4.135356,0l-3.662744,0l-1.890448,0.118153c0.118153,4.726121 2.599367,7.44364 6.852875,7.44364c0.590765,0 1.18153,0 1.772295,-0.118153c0.945224,-0.118153 1.535989,-0.472612 2.599367,-1.299683l0.590765,0.354459l-0.708918,1.890448l-0.708918,1.772295c-0.590765,0.236306 -1.18153,0.354459 -1.535989,0.472612c-1.417836,0.354459 -3.071979,0.472612 -4.371662,0.472612c-6.143957,0 -10.16116,-4.135356 -10.16116,-10.397466s4.017203,-10.633772 9.688548,-10.633772c4.962427,0 8.152559,3.071979 8.152559,7.7981c-0.118153,0.354459 -0.118153,0.945224 -0.118153,1.654142zm-8.507018,-7.089181c-1.299683,0 -2.244907,0.472612 -2.835673,1.654142c-0.590765,0.945224 -0.708918,1.535989 -0.827071,3.662744l1.890448,0l2.599367,-0.118153c1.654142,0 2.244907,-0.590765 2.244907,-1.772295c0.118153,-2.008601 -1.299683,-3.426438 -3.071979,-3.426438z" fill="#2A2B24"/>
    <path stroke="null" id="svg_7" d="m140.789732,34.511318l-3.190132,0l-1.654142,0.118153c0.118153,-0.827071 0.236306,-1.417836 0.236306,-1.772295c0.118153,-0.590765 0.118153,-1.654142 0.118153,-2.835673c0,-1.299683 0.118153,-2.244907 0.118153,-2.953826l0,-3.426438c0,-1.654142 -0.118153,-2.36306 -0.354459,-3.071979c-0.354459,-1.18153 -1.654142,-2.008601 -3.071979,-2.008601c-1.18153,0 -2.244907,0.472612 -3.190132,1.299683c-1.063377,1.063377 -1.299683,1.772295 -1.299683,4.253509l0,2.835673c0,3.662744 0.236306,5.907651 0.827071,7.561794l-1.772295,-0.118153l-3.190132,0l-1.654142,0.118153c0.118153,-0.827071 0.236306,-1.417836 0.236306,-1.772295c0.118153,-0.945224 0.236306,-3.662744 0.236306,-5.789498l0.118153,-4.489815c0,-2.008601 -0.118153,-3.426438 -0.354459,-4.135356c-0.236306,-0.827071 -0.708918,-1.299683 -1.772295,-1.299683l-0.354459,0l0.827071,-1.772295l1.654142,-0.118153l3.190132,-0.118153l1.890448,-0.118153l-0.118153,3.426438l1.654142,-1.299683c2.008601,-1.654142 3.544591,-2.36306 5.671345,-2.36306s3.89905,0.708918 4.962427,2.126754c0.827071,1.18153 1.18153,2.244907 1.063377,5.198733l0,5.08058c0,3.662744 0.236306,5.907651 0.827071,7.561794l-1.654142,-0.118153z" fill="#2A2B24"/>
    <path stroke="null" id="svg_8" d="m159.221604,16.788364l-0.472612,1.535989c-1.535989,-0.118153 -2.126754,-0.118153 -3.426438,-0.118153l-1.654142,0l-0.118153,3.662744l0,4.253509l0,0.236306c0,2.008601 0,2.599367 0.236306,3.426438c0.354459,1.299683 1.299683,2.126754 2.71752,2.126754c0.827071,0 1.535989,-0.236306 2.599367,-0.708918l0.472612,0.236306l-0.354459,1.299683l-0.354459,1.654142c-2.36306,0.590765 -3.544591,0.827071 -4.726121,0.827071c-4.017203,0 -5.789498,-2.008601 -5.789498,-6.734722l0,-1.890448l0,-3.89905c0,-2.126754 -0.118153,-3.544591 -0.354459,-4.371662c-0.236306,-0.827071 -0.708918,-1.299683 -1.772295,-1.299683l-0.708918,0l0.827071,-2.008601l2.126754,0c0,-1.299683 0,-1.654142 -0.118153,-3.426438l1.535989,-0.472612l2.481213,-1.18153l1.417836,-0.708918l0.472612,0.472612c-0.236306,1.890448 -0.354459,2.36306 -0.354459,5.435039l2.71752,0l0.236306,0c1.299683,0 1.654142,0 2.835673,-0.236306l0.236306,0.354459l-0.708918,1.535989z" fill="#2A2B24"/>
   </g>
  </g>
 </g>
</svg>