<svg width="160" height="49.99999999999999" xmlns="http://www.w3.org/2000/svg" xmlns:svg="http://www.w3.org/2000/svg">
 <g>
  <title>Layer 1</title>
  <g stroke="null" id="svg_1">
   <path stroke="null" id="svg_2" d="m50.349803,20.16913c0,-1.070261 0.832425,-1.70449 2.497276,-1.70449c2.061243,0 2.854029,0.792786 2.972947,2.655833l4.756716,-0.475672c-0.237836,-4.717076 -3.884651,-5.906255 -7.571106,-5.906255c-4.320683,0 -7.808941,2.100883 -7.808941,6.18373c0,7.491827 10.425135,4.796355 10.425135,8.44317c0,1.466654 -1.189179,1.942326 -2.81439,1.942326c-2.735111,0 -3.329701,-1.466654 -3.646815,-3.290062l-4.717076,0.792786c0.277475,5.668419 4.835994,6.381927 8.205334,6.381927c4.241405,0 8.205334,-1.863047 8.205334,-6.500845c0.039639,-7.33327 -10.504413,-4.994551 -10.504413,-8.522449z"/>
   <rect stroke="null" id="svg_3" height="19.740369" width="5.311666" y="15.0953" x="65.888407"/>
   <polygon stroke="null" id="svg_4" points="90.34584869211614,27.819514661405265 83.64681094550616,15.095299878354353 77.42345374307553,15.095299878354353 77.42345374307553,34.835672770801466 82.25943228488978,34.835672770801466 82.25943228488978,22.23037525797372 89.11703021289287,34.835672770801466 95.14221011515548,34.835672770801466 95.14221011515548,15.095299878354353 90.34584869211614,15.095299878354353 "/>
   <path stroke="null" id="svg_5" d="m110.442976,27.978071l2.893669,0l0,0.475672c0,1.268457 -0.990982,2.695472 -3.567537,2.695472c-3.488258,0 -4.47924,-2.338718 -4.47924,-6.263009c0,-3.765733 1.308097,-5.985534 4.598158,-5.985534c2.854029,0 3.408979,1.863047 3.567537,3.36934l4.915273,-0.475672c-0.356754,-5.113469 -3.765733,-7.055795 -8.403531,-7.055795c-6.857598,0 -10.187299,4.360323 -10.187299,10.583692c0,5.708059 2.536915,9.830545 8.760284,9.830545c2.378358,0 4.796355,-0.792786 5.747698,-2.616194l0.515311,2.299079l3.845012,0l0,-10.425135l-8.165695,0l0,3.567537l-0.039639,0z"/>
   <polygon stroke="null" id="svg_6" points="128.9941745407221,27.106007218970717 136.84273539147654,27.106007218970717 136.84273539147654,23.023160880557043 128.9941745407221,23.023160880557043 128.9941745407221,19.297063486991192 137.27878353249872,19.297063486991192 137.27878353249872,15.095299878354353 123.68249252815514,15.095299878354353 123.68249252815514,34.835672770801466 137.91300897368893,34.835672770801466 137.91300897368893,30.5546262056464 128.9941745407221,30.5546262056464 "/>
   <path stroke="null" id="svg_7" d="m155.23538,26.392499c1.981965,-0.990982 3.329701,-2.774751 3.329701,-5.668419c0,-3.012586 -1.783768,-5.62878 -6.936877,-5.62878l-8.522449,0l0,19.740369l5.272026,0l0,-7.174713l1.902686,0l3.686455,7.174713l5.747698,0l-4.47924,-8.44317zm-5.351305,-2.616194l-1.466654,0l0,-4.677437l1.823408,0c2.021604,0 2.893669,0.713507 2.893669,2.100883c0,2.100883 -1.585572,2.576554 -3.250422,2.576554z"/>
   <rect stroke="null" id="svg_8" height="3.567537" width="22.198006" y="15.452054" x="17.132073"/>
   <rect stroke="null" id="svg_9" height="3.567537" width="30.125865" y="23.181716" x="9.204214"/>
   <rect stroke="null" id="svg_10" height="3.567537" width="14.270147" y="30.911379" x="25.059932"/>
   <circle stroke="null" id="svg_11" r="2.576554" cy="32.695147" cx="18.678005"/>
   <circle stroke="null" id="svg_12" r="2.576554" cy="25.163681" cx="2.861926"/>
   <circle stroke="null" id="svg_13" r="2.576553" cy="17.235822" cx="10.670867"/>
  </g>
 </g>
</svg>