<?xml version="1.0"?>
<svg width="160" height="50" xmlns="http://www.w3.org/2000/svg" xmlns:svg="http://www.w3.org/2000/svg">
 <g>
  <title>Layer 1</title>
  <g stroke="null" id="Layer_1_1_">
   <g stroke="null" id="svg_1">
    <path stroke="null" d="m33.045312,35.335938c0,1.18125 -0.984375,2.067188 -2.067187,2.067188l-21.2625,0c-1.18125,0 -2.067187,-0.885937 -2.067187,-2.067188l0,-20.770312c0,-1.18125 0.984375,-2.067188 2.067187,-2.067188l21.2625,0c1.18125,0 2.067187,0.885937 2.067187,2.067188l0,20.770312zm0.590625,-29.925l-26.676562,0c-3.740625,0 -6.69375,2.953125 -6.69375,6.496875l0,26.085938c0,3.642187 2.953125,6.496875 6.69375,6.496875l26.676562,0c3.740625,0 6.69375,-2.953125 6.69375,-6.496875l0,-26.085938c0,-3.54375 -2.953125,-6.496875 -6.69375,-6.496875l0,0z" id="outside"/>
    <path stroke="null" d="m16.114063,30.709376c-0.689063,0 -1.18125,-0.492188 -1.18125,-1.18125l0,-8.26875c0,-0.689063 0.492188,-1.18125 1.18125,-1.18125l8.465625,0c0.689062,0 1.18125,0.492188 1.18125,1.18125l0,8.26875c0,0.689062 -0.590625,1.18125 -1.18125,1.18125l-8.465625,0z" id="inside"/>
    <path stroke="null" d="m60.509375,23.228126c-1.279688,-0.295313 -2.460938,-0.689063 -3.346875,-1.082813c-1.673437,-0.689062 -2.460938,-1.771875 -2.460938,-3.248438c0,-2.75625 2.75625,-3.9375 5.414063,-3.9375c2.559375,0 4.823438,1.082813 6.3,2.953125l0.098437,0.098438l2.165625,-1.673438l0,-0.098437c-1.96875,-2.460938 -5.020312,-3.839063 -8.367188,-3.839063c-2.264062,0 -4.33125,0.590625 -5.807812,1.673438c-1.673438,1.18125 -2.559375,2.953125 -2.559375,5.020312c0,4.823438 4.725,6.004687 8.465625,6.989062c3.839062,0.984375 6.103125,1.771875 6.103125,4.528125s-2.264062,4.626562 -5.90625,4.626562c-1.771875,0 -5.020312,-0.492188 -7.0875,-3.54375l-0.098438,-0.098437l-2.264062,1.575l0.098437,0.098438c1.96875,2.854687 5.315625,4.528125 9.253125,4.528125c5.315625,0 8.859375,-2.953125 8.859375,-7.284375c-0.098438,-5.020313 -4.921875,-6.3 -8.859375,-7.284375" id="s"/>
    <path stroke="null" d="m80.39375,35.532813c-2.75625,0 -5.807813,-1.771875 -5.807813,-6.890625c0,-3.346875 1.476563,-6.890625 5.807813,-6.890625c3.642187,0 6.004687,2.657812 6.004687,6.890625c0,4.134375 -2.3625,6.890625 -6.004687,6.890625l0,0zm6.004687,-15.848438l0,2.657812c-1.476563,-1.96875 -3.642188,-3.051562 -6.201562,-3.051562c-4.823438,0 -8.26875,3.839063 -8.26875,9.351563s3.445313,9.253125 8.26875,9.253125c2.559375,0 4.725,-1.082813 6.201562,-3.051563l0,9.745312l2.559375,0l0,-24.904687l-2.559375,0z" id="q"/>
    <path stroke="null" d="m105.889062,19.979688l0,9.84375c0,3.445313 -2.460938,5.90625 -5.709375,5.90625c-2.75625,0 -4.134375,-1.575 -4.134375,-4.921875l0,-10.828125l-2.559375,0l0,11.41875c0,4.232813 2.3625,6.792187 6.398438,6.792187c2.460938,0 4.626563,-0.984375 6.103125,-2.854687l0,2.460938l2.559375,0l0,-17.817187l-2.657813,0z" id="u"/>
    <path stroke="null" d="m118.882813,35.532813c-1.18125,0 -3.9375,-0.295313 -3.9375,-3.15c0,-1.96875 1.279687,-2.559375 3.839063,-3.051562c0.295312,0 0.492188,-0.098438 0.7875,-0.098438c1.575,-0.295313 3.346875,-0.590625 4.626563,-1.378125l0,2.559375c0,3.740625 -2.75625,5.11875 -5.315625,5.11875m1.378125,-16.242188c-2.559375,0 -5.11875,0.7875 -6.989063,2.264062l-0.098437,0.098438l1.378125,1.96875l0.098438,-0.098438c1.575,-1.378125 3.9375,-1.870312 5.610938,-1.870312c0.984375,0 4.035937,0.196875 4.035937,2.460938c0,2.067188 -2.559375,2.460938 -5.020312,2.75625c-0.295313,0 -0.590625,0.098437 -0.885938,0.098437c-1.771875,0.295313 -6.004687,0.984375 -6.004687,5.315625c0,3.346875 2.460938,5.414062 6.398438,5.414062c2.3625,0 4.232812,-0.7875 5.610937,-2.3625l0,1.96875l2.559375,0l0,-12.698437c-0.196875,-3.346875 -2.559375,-5.315625 -6.69375,-5.315625" id="a"/>
    <path stroke="null" d="m142.114062,19.979688c-0.590625,-0.39375 -1.575,-0.689063 -2.559375,-0.689063c-2.067187,0 -4.035937,1.082812 -5.217188,2.657813l0,-2.264063l-2.559375,0l0,17.817188l2.559375,0l0,-9.548438c0,-4.232812 2.460938,-6.103125 4.823438,-6.103125c0.7875,0 1.575,0.196875 2.067187,0.39375l0.196875,0.098437l0.7875,-2.264062l-0.098437,-0.098437z" id="r"/>
    <path stroke="null" d="m145.657812,26.870313c0.39375,-3.15 2.559375,-5.11875 5.709375,-5.11875c3.839063,0 5.414063,2.657812 5.610937,5.11875l-11.320313,0zm5.807813,-7.579688c-5.020312,0 -8.564062,3.839063 -8.564062,9.351563s3.54375,9.253125 8.760938,9.253125c3.740625,0 6.004687,-1.771875 7.185937,-3.248438l0.098437,-0.098437l-1.870312,-1.575l-0.098438,0.098438c-1.18125,1.575 -3.051562,2.3625 -5.217187,2.3625c-3.740625,0 -6.103125,-2.559375 -6.201563,-6.496875l13.978125,0l0,-0.196875c0,-0.098437 0.098437,-0.689062 0.098437,-1.279688c0.098437,-4.725 -3.346875,-8.170312 -8.170313,-8.170312l0,0z" id="e"/>
   </g>
  </g>
 </g>
</svg>