<?xml version="1.0"?>
<svg width="160" height="50" xmlns="http://www.w3.org/2000/svg" xmlns:svg="http://www.w3.org/2000/svg">
 <g>
  <title>Layer 1</title>
  <g stroke="null" id="Layer_1_1_">
   <path stroke="null" d="m124.339281,23.398064c0.228848,-3.890414 1.258663,-5.721198 3.318295,-5.721198c1.945207,0 2.975023,1.830783 3.089447,5.721198l-6.407741,0zm14.531842,2.288479c0,-4.34811 -0.915392,-7.666405 -2.746175,-10.069308s-4.691382,-3.661567 -8.238525,-3.661567c-7.323133,0 -11.900091,5.377926 -11.900091,14.074146c0,4.92023 1.258663,8.467373 3.661567,10.870276c2.174055,2.059631 5.263502,3.089447 9.26834,3.089447c3.661567,0 7.094285,-0.915392 9.26834,-2.288479l-0.915392,-5.950046c-2.174055,1.14424 -4.576958,1.716359 -7.323133,1.716359c-1.716359,0 -2.860599,-0.343272 -3.661567,-1.029816c-0.915392,-0.800968 -1.373087,-2.059631 -1.601935,-3.77599l14.302994,0c-0.228848,-0.343272 -0.114424,-2.288479 -0.114424,-2.975023zm-34.556034,5.835622c-0.686544,1.373087 -1.716359,2.059631 -2.975023,2.059631c-0.915392,0 -1.601935,-0.228848 -2.288479,-0.57212l0,-12.815483c1.487511,-1.487511 2.746175,-1.716359 3.318295,-1.716359c2.174055,0 3.318295,2.402903 3.318295,6.979861c-0.228848,2.631751 -0.57212,4.691382 -1.373087,6.06447zm7.208709,-16.705897c-1.487511,-1.945207 -3.661567,-2.975023 -6.407741,-2.975023c-2.517327,0 -4.691382,1.029816 -6.751013,3.203871l-0.457696,-2.746175l-7.551981,0l0,37.073361l8.581797,-1.373087l0,-8.696221c1.373087,0.457696 2.631751,0.57212 3.890414,0.57212c2.174055,0 5.263502,-0.57212 7.666405,-3.203871c2.288479,-2.517327 3.547143,-6.522165 3.547143,-11.671243c0,-4.462534 -0.800968,-7.895253 -2.517327,-10.183732zm-33.182947,-2.402903l8.696221,0l0,27.004053l-8.696221,0l0,-27.004053zm4.34811,-2.631751c2.517327,0 4.576958,-2.059631 4.576958,-4.576958s-2.059631,-4.576958 -4.576958,-4.576958s-4.576958,2.059631 -4.576958,4.576958s1.945207,4.576958 4.576958,4.576958zm-8.124101,2.288479c-2.402903,0 -4.34811,1.258663 -5.149078,3.547143l-0.57212,-3.203871l-7.551981,0l0,27.004053l8.581797,0l0,-17.506865c1.029816,-1.373087 2.631751,-1.830783 4.691382,-1.830783c0.457696,0 0.915392,0 1.487511,0.114424l0,-8.009677c-0.457696,-0.114424 -0.915392,-0.114424 -1.487511,-0.114424zm-16.591473,6.751013l1.029816,-6.407741l-5.49235,0l0,-7.780829l-7.323133,1.258663l-1.14424,6.522165l-2.631751,0.457696l-1.029816,5.950046l3.661567,0l0,12.586635c0,3.318295 0.800968,5.49235 2.517327,6.865437c1.373087,1.14424 3.432719,1.716359 6.407741,1.716359c2.174055,0 3.547143,-0.343272 4.576958,-0.57212l0,-6.751013c-0.57212,0.114424 -1.716359,0.343272 -2.517327,0.343272c-1.716359,0 -2.402903,-0.915392 -2.402903,-2.860599l0,-11.327971c0,0 4.34811,0 4.34811,0zm-24.60115,3.77599c-2.517327,-0.915392 -3.890414,-1.716359 -3.890414,-2.860599c0,-1.029816 0.800968,-1.487511 2.174055,-1.487511c2.631751,0 5.263502,1.029816 7.094285,1.945207l1.029816,-6.407741c-1.487511,-0.686544 -4.462534,-1.830783 -8.581797,-1.830783c-2.975023,0 -5.377926,0.800968 -7.094285,2.174055c-1.830783,1.487511 -2.746175,3.661567 -2.746175,6.293317c0,4.691382 2.860599,6.751013 7.551981,8.467373c2.975023,1.029816 4.004838,1.830783 4.004838,2.975023s-1.029816,1.830783 -2.746175,1.830783c-2.174055,0 -5.835622,-1.029816 -8.124101,-2.517327l-1.029816,6.522165c2.059631,1.14424 5.721198,2.288479 9.611612,2.288479c3.089447,0 5.721198,-0.686544 7.437557,-2.174055c1.945207,-1.487511 2.975023,-3.77599 2.975023,-6.751013c0,-4.691382 -2.975023,-6.751013 -7.666405,-8.467373l0,0z" id="Stripe_Logo"/>
  </g>
 </g>
</svg>