<?xml version="1.0"?>
<svg width="160" height="50" xmlns="http://www.w3.org/2000/svg" xmlns:svg="http://www.w3.org/2000/svg">
 <g>
  <title>Layer 1</title>
  <g id="svg_1">
   <path id="svg_2" d="m9.4,14.35l-9.4,-0.1l0,-8.6l29,0.2l0,8.6l-9.4,-0.1l-0.1,24.8l-10.3,-0.1l0.2,-24.7zm0,0" fill="#154A99"/>
   <path id="svg_3" d="m37.5,28.45c-1.1,0.6 -2.4,0.9 -3.7,1.1c-2.1,0.5 -3.1,1 -3.1,2.6c0,1.1 1.2,2.3 2.9,2.3c2.1,0 3.7,-1.2 3.9,-3.8l0,-2.2zm8.9,5.5c0,1.8 0.1,3.9 1.1,5.4l-9.5,0c-0.2,-0.7 -0.4,-1.6 -0.3,-2.3l-0.1,0c-2,2.2 -4.8,2.9 -7.8,2.9c-4.7,0 -8.5,-2.3 -8.5,-7.4c0,-7.7 9,-7.3 13.8,-8.2c1.3,-0.2 2.5,-0.6 2.5,-2.1c0,-1.6 -1.5,-2.3 -3,-2.3c-2.9,0 -3.4,1.4 -3.5,2.5l-8.6,0c0.3,-6.8 6.8,-7.9 12.5,-7.9c11.6,0.1 11.5,4.9 11.4,9.6l0,9.8zm0,0" fill="#154A99"/>
   <g id="svg_4">
    <path id="svg_5" d="m60.6,21.35c-3.3,0 -4.1,3.1 -4.1,6c0,2.9 0.7,6 4,6.1c3.3,0 4.1,-3.1 4.1,-6c0.1,-3 -0.6,-6.1 -4,-6.1m-12.9,-15.4l9.3,0.1l-0.1,11.8l0.1,0c1.4,-2 3.9,-3.3 6.7,-3.2c8.1,0 10.3,7 10.3,12.7c0,6.1 -3.4,12.8 -10.3,12.8c-4.5,0 -5.9,-1.8 -7.1,-3.3l-0.1,0l0,2.7l-8.9,-0.1l0.1,-33.5zm0,0" fill="#154A99"/>
    <path id="svg_6" d="m86.9,12.45c-3.5,0 -4,3.4 -4,6c0,2.6 0.4,6 3.9,6.1c3.5,0 4,-3.4 4,-6c0.1,-2.7 -0.4,-6.1 -3.9,-6.1m-0.1,18.7c-9.1,-0.1 -13.2,-6.1 -13.2,-12.8c0,-6.7 4.2,-12.7 13.3,-12.6c9.1,0.1 13.2,6.1 13.2,12.8c0,6.7 -4.2,12.7 -13.3,12.6" fill="#154A99"/>
   </g>
   <path id="svg_7" d="m109.9,12.55c-3.5,0 -4,3.4 -4,6c0,2.6 0.4,6 3.9,6.1c3.5,0 4,-3.4 4,-6c0.1,-2.6 -0.4,-6 -3.9,-6.1m-0.1,18.8c-9.1,-0.1 -13.2,-6.1 -13.2,-12.8c0,-6.7 4.2,-12.7 13.3,-12.6c9.1,0.1 13.2,6.1 13.2,12.8c0,6.6 -4.2,12.6 -13.3,12.6" fill="#154A99"/>
   <g id="svg_8">
    <path id="svg_9" d="m124.1,6.45l9.3,0.1l-0.2,33.4l-9.3,-0.1l0.2,-33.4zm0,0" fill="#154A99"/>
    <path id="svg_10" d="m150.1,29.05c-1.1,0.6 -2.4,0.9 -3.7,1.1c-2.1,0.5 -3.1,1 -3.2,2.6c0,1.1 1.2,2.3 2.9,2.3c2.1,0 3.7,-1.2 3.9,-3.8l0.1,-2.2zm8.8,5.6c0,1.8 0.1,3.9 1.1,5.4l-9.4,-0.1c-0.2,-0.7 -0.4,-1.6 -0.3,-2.3l-0.1,0c-2,2.2 -4.8,2.9 -7.8,2.9c-4.7,0 -8.5,-2.3 -8.5,-7.4c0,-7.7 9,-7.3 13.7,-8.2c1.3,-0.2 2.5,-0.6 2.5,-2.1c0,-1.6 -1.5,-2.3 -3,-2.3c-2.9,0 -3.4,1.4 -3.5,2.5l-8.6,0c0.3,-6.8 6.8,-7.9 12.5,-7.9c11.6,0.1 11.5,4.9 11.4,9.6l0,9.9zm0,0" fill="#154A99"/>
    <path id="svg_11" d="m77.1,31.05c6.6,2.9 13.4,4.2 20.8,4.3c7.8,0 13.7,-1.2 21.2,-4l0,8.1c-6.7,3.3 -14,4.9 -21.2,4.8c-7.9,0 -13.6,-1.7 -20.8,-5.1l0,-8.1zm0,0" fill="#154A99"/>
   </g>
  </g>
 </g>
</svg>