<?xml version="1.0"?>
<svg width="160" height="50" xmlns="http://www.w3.org/2000/svg" xmlns:svg="http://www.w3.org/2000/svg">
 <g>
  <title>Layer 1</title>
  <g stroke="null" id="Layer_1_1_">
   <g stroke="null" id="svg_1">
    <linearGradient stroke="null" transform="translate(0,-1.5921878814697266) translate(-0.008987456560134888,0) translate(0.474609375,4.74609375) translate(0.4746094048023224,4.546093940734863) scale(1.2939364910125732) translate(-0.4746094048023224,-4.546093940734863) translate(0.36679497361183167,38.113380432128906) scale(1.0151443481445312) translate(-0.36679497361183167,-38.113380432128906) " y2="1.002486" x2="0.500129" y1="0.005994" x1="0.500129" id="Type_1_">
     <stop stroke="null" stop-color="#338CCB" offset="0"/>
     <stop stroke="null" stop-color="#0079BE" offset="1"/>
    </linearGradient>
    <path stroke="null" d="m129.191789,36.42773c-2.495711,1.050826 -4.334657,4.46601 -7.355781,6.436308c-0.131353,0.131353 -0.39406,0.131353 -0.525413,0.131353c-0.262706,0 -0.525413,-0.262706 -0.525413,-1.313532c0,-3.809244 1.182179,-5.516836 2.233005,-8.275254c3.546537,-9.326079 9.720139,-17.207273 15.105622,-25.876587c0.39406,-0.656766 0.656766,-1.444886 0.656766,-2.233005c0,-0.656766 -0.262706,-1.182179 -0.525413,-1.838945c-0.262706,-0.525413 -1.313532,-1.050826 -2.495711,-1.050826c-0.656766,0 -1.313532,0 -2.101652,0c-2.889771,0 -3.415184,4.203303 -4.07195,5.254129c-4.597363,7.749841 -9.720139,17.207273 -12.347204,23.906288c-0.525413,1.444886 -1.182179,3.021124 -1.707592,4.597363c-2.627065,0.788119 -4.597363,4.46601 -7.749841,6.567662c-0.131353,0.131353 -0.39406,0.131353 -0.525413,0.131353c-0.262706,0 -0.525413,-0.262706 -0.525413,-1.313532c0,-3.809244 1.182179,-5.516836 2.233005,-8.275254c3.546537,-9.326079 9.720139,-17.207273 15.105622,-25.876587c0.39406,-0.656766 0.656766,-1.444886 0.656766,-2.233005c0,-0.656766 -0.262706,-1.182179 -0.525413,-1.838945c-0.262706,-0.525413 -1.313532,-1.050826 -2.495711,-1.050826c-0.656766,0 -1.313532,0 -2.101652,0c-2.889771,0 -3.415184,4.203303 -4.07195,5.254129c-4.597363,7.749841 -9.720139,17.207273 -12.347204,23.906288c-0.262706,0.525413 -0.39406,1.050826 -0.656766,1.576239c-0.131353,0 -0.131353,0.131353 -0.262706,0.131353c-3.152478,1.838945 -5.648189,4.991423 -9.457433,7.224428c-0.788119,0.39406 -3.021124,1.970298 -4.728716,1.970298c-0.39406,0 -0.788119,-0.131353 -1.182179,-0.262706c-0.525413,0.131353 -1.050826,-1.050826 -1.050826,-1.444886c0,-0.262706 0,-0.39406 0.656766,-0.788119c5.385482,-3.152478 9.720139,-7.749841 13.39803,-12.347204c1.444886,-1.707592 3.152478,-4.991423 3.152478,-7.487134c0,-1.576239 -0.525413,-3.415184 -2.364358,-4.07195c-1.313532,-0.525413 -2.889771,-0.788119 -4.07195,-0.788119c-3.152478,0 -5.516836,1.444886 -6.961721,2.889771c-1.313532,1.444886 -2.627065,2.889771 -3.940597,4.46601c-1.313532,-1.050826 -3.021124,-1.576239 -4.728716,-1.576239c-1.970298,0 -5.779542,2.495711 -7.749841,3.940597c-0.262706,0.262706 -0.525413,0.39406 -0.656766,0.39406c0,0 -0.131353,0 -0.131353,-0.131353c0,0 0.131353,-0.656766 0.131353,-1.576239c0,-0.788119 -0.131353,-1.970298 -0.919473,-3.283831c-0.131353,-0.262706 -1.313532,-0.919473 -2.627065,-0.919473c-1.576239,0 -3.152478,0.788119 -3.152478,1.576239c0,0.656766 0.525413,0.788119 0.525413,1.444886c0,0.262706 -0.262706,1.707592 -0.656766,3.021124c-1.050826,3.940597 -2.364358,7.749841 -3.67789,11.559084c-0.788119,2.101652 -3.152478,3.940597 -3.152478,6.304955c0,0.788119 0.525413,1.707592 1.182179,2.364358c1.050826,1.182179 1.707592,1.576239 2.758418,1.576239c0.39406,0 0.919473,-0.131353 1.313532,-0.525413c0.919473,-0.788119 1.444886,-1.576239 1.576239,-2.627065c1.576239,-7.093075 6.173602,-11.953144 11.165025,-15.236975c1.707592,-1.050826 3.940597,-2.233005 4.334657,-2.233005c0.262706,0 0.788119,0.131353 1.313532,0.262706c-1.444886,2.233005 -2.495711,4.728716 -3.283831,7.224428c-0.262706,0.788119 -0.39406,1.576239 -0.39406,2.495711c0,1.444886 0.262706,2.889771 0.788119,4.203303c0.656766,1.970298 1.707592,3.67789 3.283831,4.46601c2.758418,1.444886 4.728716,2.233005 6.567662,2.233005c1.050826,0 1.838945,-0.131353 2.627065,-0.656766c3.940597,-2.233005 6.436308,-3.940597 8.1439,-5.516836c0,1.576239 0.39406,2.364358 1.444886,3.546537c1.050826,1.182179 2.758418,2.233005 4.991423,2.627065c0.39406,0 0.788119,0.131353 1.050826,0.131353c2.627065,0 4.991423,-2.101652 6.961721,-4.203303c0.262706,0.39406 0.525413,0.919473 1.050826,1.313532c1.050826,1.182179 2.758418,2.233005 4.991423,2.627065c0.39406,0 0.788119,0.131353 1.050826,0.131353c3.021124,0 5.910895,-2.889771 7.881194,-5.254129c0.656766,1.313532 2.495711,2.758418 4.728716,3.809244c0.656766,0.262706 1.313532,0.525413 1.970298,0.525413c2.627065,0 4.46601,-2.101652 5.910895,-3.67789c3.809244,-4.07195 5.779542,-9.194726 7.355781,-15.631035c0.131353,-0.525413 0.262706,-0.656766 0.525413,-0.656766c0.656766,0 1.444886,0 2.233005,-0.131353c1.576239,-0.262706 2.889771,-0.788119 4.46601,-1.050826c0.919473,-0.131353 0.788119,-0.525413 1.576239,-0.788119c0.656766,-0.262706 1.050826,-0.525413 1.050826,-1.050826c0,-1.050826 -1.838945,-2.101652 -4.728716,-2.101652c-2.233005,0 -3.546537,0.131353 -4.46601,0.131353c-1.444886,0 -1.707592,-0.39406 -2.627065,-2.758418c0,0 0.919473,2.364358 0,0c-0.131353,-0.525413 -0.39406,-0.788119 -0.919473,-1.182179c-1.313532,-1.050826 -2.889771,-1.444886 -4.07195,-1.444886c-3.021124,0 -5.648189,3.152478 -7.487134,5.648189c-0.39406,0.656766 -1.050826,1.050826 -1.444886,1.707592c-1.970298,4.203303 -4.334657,8.406607 -4.597363,12.872617zm-77.498407,-20.622457c1.576239,0 2.364358,-0.131353 2.495711,-0.131353c0.131353,0 0.262706,0 0.262706,0.262706c0,0.131353 0,0.262706 -0.525413,1.182179c-3.67789,7.881194 -6.173602,16.025094 -8.53796,24.825761c0,0.262706 -0.262706,1.182179 -0.262706,2.101652c0,0.788119 0.262706,1.707592 1.050826,2.233005c1.576239,0.919473 3.021124,1.444886 3.940597,1.444886c1.313532,0 1.970298,-0.788119 1.970298,-2.233005c0,-1.182179 0,-2.495711 0.262706,-3.415184c1.707592,-8.93202 4.203303,-15.893741 8.1439,-23.118169c1.838945,-3.415184 2.101652,-3.67789 2.101652,-3.940597c0,-0.131353 0,-0.262706 -0.131353,-0.525413c2.364358,-0.525413 5.385482,-0.919473 8.012547,-0.919473c0.262706,0 1.576239,0.39406 1.707592,0.656766c0.39406,0.39406 0.788119,0.788119 1.576239,0.788119c0.656766,0 1.576239,-0.39406 1.970298,-0.656766c0.788119,-0.656766 1.313532,-1.313532 1.313532,-2.364358s-3.809244,-3.546537 -6.436308,-3.546537c-3.283831,0 -6.173602,0.39406 -9.063373,0.919473c-1.182179,0.262706 -5.516836,0.919473 -8.669313,0.919473c-3.021124,0 -2.889771,-0.39406 -4.07195,-0.39406c-0.788119,0 -1.050826,0.39406 -1.444886,0.656766c-0.262706,0.262706 -0.525413,1.576239 -0.525413,2.627065c0,0.525413 0,0.919473 0.262706,1.313532c1.182179,1.182179 2.889771,1.313532 4.597363,1.313532c0,0 -1.707592,0 0,0zm44.922805,4.991423c0,0.525413 -0.131353,0.919473 -0.919473,2.101652c-0.788119,1.182179 -0.39406,1.182179 -1.313532,2.364358c-1.707592,2.364358 -3.940597,4.728716 -6.830368,7.355781c-0.788119,0.788119 -0.919473,0.788119 -1.050826,0.788119c0,0 -0.131353,0 -0.131353,-0.131353s0,-0.39406 0.656766,-1.707592c1.838945,-3.940597 4.203303,-6.567662 6.699015,-9.063373c1.444886,-1.444886 2.233005,-1.838945 2.495711,-1.838945c0.262706,-0.262706 0.39406,-0.262706 0.39406,0.131353c0,0 0,-0.39406 0,0zm46.499044,1.576239c0,0 0.131353,0 0.131353,0.131353s0.131353,0.39406 0.525413,0.656766c0.262706,0.131353 0.262706,1.050826 0.262706,1.707592c0,5.910895 -3.283831,10.770965 -6.567662,15.631035c-0.788119,1.050826 -1.182179,1.313532 -1.576239,1.313532c-0.262706,0 -0.788119,-0.788119 -0.919473,-1.313532c-0.262706,-0.656766 -0.262706,-1.444886 -0.262706,-1.707592c0,-4.728716 4.46601,-11.690438 7.487134,-15.631035c0.39406,-0.788119 0.788119,-0.788119 0.919473,-0.788119c0,0 -0.131353,0 0,0z" fill="url(#Type_1_)" id="Type"/>
    <linearGradient stroke="null" transform="translate(0,-1.5921878814697266) translate(-0.008987456560134888,0) translate(0.474609375,4.74609375) translate(0.4746094048023224,4.546093940734863) scale(1.2939364910125732) translate(-0.4746094048023224,-4.546093940734863) translate(0.36679497361183167,38.113380432128906) scale(1.0151443481445312) translate(-0.36679497361183167,-38.113380432128906) " y2="1.002759" x2="0.499828" y1="-0.00069" x1="0.499828" id="Board_1_">
     <stop stroke="null" stop-color="#338CCB" offset="0"/>
     <stop stroke="null" stop-color="#0079BE" offset="1"/>
    </linearGradient>
    <path stroke="null" d="m5.194338,9.237612l28.635004,0c2.627065,0 4.728716,2.101652 4.728716,4.728716l0,28.635004c0,2.627065 -2.101652,4.728716 -4.728716,4.728716l-28.635004,0c-2.627065,0 -4.728716,-2.101652 -4.728716,-4.728716l0,-28.635004c0,-2.627065 2.101652,-4.728716 4.728716,-4.728716z" fill="url(#Board_1_)" id="Board"/>
    <path stroke="null" d="m24.37191,14.229034l7.093075,0c1.313532,0 2.233005,1.050826 2.233005,2.233005l0,12.084497c0,1.313532 -1.050826,2.233005 -2.233005,2.233005l-7.093075,0c-1.313532,0 -2.233005,-1.050826 -2.233005,-2.233005l0,-12.084497c-0.131353,-1.182179 0.919473,-2.233005 2.233005,-2.233005z" fill="#FFFFFF" id="Right-List"/>
    <path stroke="null" d="m7.69005,14.229034l7.093075,0c1.313532,0 2.233005,1.050826 2.233005,2.233005l0,21.673283c0,1.313532 -1.050826,2.233005 -2.233005,2.233005l-7.093075,0c-1.313532,0 -2.233005,-1.050826 -2.233005,-2.233005l0,-21.673283c0,-1.182179 1.050826,-2.233005 2.233005,-2.233005z" fill="#FFFFFF" id="Left-List"/>
   </g>
  </g>
 </g>
</svg>