<?xml version="1.0"?>
<svg width="160" height="50" xmlns="http://www.w3.org/2000/svg" xmlns:svg="http://www.w3.org/2000/svg">
 <defs>
  <style>.cls-1{fill:#334443;}</style>
 </defs>
 <title>zendesk-chat-logo</title>
 <g>
  <title>Layer 1</title>
  <g stroke="null" id="Layer_2">
   <g stroke="null" id="content">
    <polygon stroke="null" id="svg_1" points="0.6821854114532471,17.0994873046875 0.6821854114532471,21.085947036743164 12.836394309997559,21.085947036743164 0.39743804931640625,33.76469039916992 0.39743804931640625,37.826087951660156 18.75613784790039,37.826087951660156 18.75613784790039,33.85460662841797 6.167315483093262,33.85460662841797 18.591285705566406,21.160879135131836 18.591285705566406,17.0994873046875 0.6821854114532471,17.0994873046875 " class="cls-1"/>
    <path stroke="null" id="svg_2" d="m33.772807,34.079411a8.002895,8.002895 0 0 0 5.694944,-2.218031l2.817499,2.997339a11.090154,11.090154 0 0 1 -8.467482,3.35702c-6.89388,0 -11.344928,-4.585929 -11.344928,-10.805407a10.56562,10.56562 0 0 1 10.715487,-10.805407c6.848919,0 10.715487,5.230356 10.385779,12.483917l-16.200617,0a5.844811,5.844811 0 0 0 6.369345,4.930623m4.930623,-8.392549a5.17041,5.17041 0 0 0 -5.455157,-4.885662a5.57505,5.57505 0 0 0 -5.844811,4.945609l11.299968,-0.059947z" class="cls-1"/>
    <path stroke="null" id="svg_3" d="m70.445249,27.470279a10.340819,10.340819 0 0 1 10.370793,-10.775433a8.992017,8.992017 0 0 1 6.878893,3.102246l0,-12.229143l4.391102,0l0,30.258136l-4.406088,0l0,-2.862459a8.812176,8.812176 0 0 1 -6.923853,3.282086a10.490686,10.490686 0 0 1 -10.325833,-10.775433m17.489473,0a6.549186,6.549186 0 1 0 -13.098371,0a6.549186,6.549186 0 1 0 13.098371,0" class="cls-1"/>
    <path stroke="null" id="svg_4" d="m107.552304,34.079411a8.002895,8.002895 0 0 0 5.694944,-2.218031l2.817499,2.997339a11.090154,11.090154 0 0 1 -8.467482,3.35702c-6.89388,0 -11.344928,-4.585929 -11.344928,-10.805407a10.56562,10.56562 0 0 1 10.715487,-10.805407c6.848919,0 10.715487,5.230356 10.385779,12.483917l-16.170643,0a5.844811,5.844811 0 0 0 6.369345,4.930623m4.930623,-8.392549a5.17041,5.17041 0 0 0 -5.455157,-4.885662a5.57505,5.57505 0 0 0 -5.844811,4.885662l11.299968,0z" class="cls-1"/>
    <path stroke="null" id="svg_5" d="m120.081181,33.434983l3.986461,-2.068164a5.904758,5.904758 0 0 0 5.30529,2.997339c2.487791,0 3.776647,-1.288856 3.776647,-2.742565s-2.397871,-2.03819 -5.020543,-2.577711c-3.521873,-0.749335 -7.178627,-1.90331 -7.178627,-6.174518c0,-3.282086 3.102246,-6.294412 8.002895,-6.264438a9.441618,9.441618 0 0 1 8.332602,4.016434l-3.686727,2.083151a5.35025,5.35025 0 0 0 -4.645875,-2.367898c-2.367898,0 -3.566833,1.153975 -3.566833,2.487791s1.90331,1.90331 4.885662,2.577711c3.40198,0.749335 7.25356,1.873337 7.25356,6.174518c0,2.862459 -2.487791,6.714039 -8.377562,6.669079a9.696391,9.696391 0 0 1 -9.081937,-4.810729" class="cls-1"/>
    <polygon stroke="null" id="svg_6" points="148.97552490234375,28.62425422668457 145.49862670898438,32.445858001708984 145.49862670898438,37.826087951660156 141.10751342773438,37.826087951660156 141.10751342773438,7.567948341369629 145.49862670898438,7.567948341369629 145.49862670898438,27.38035774230957 154.82034301757812,17.0994873046875 160.1705780029297,17.0994873046875 152.09275817871094,25.971609115600586 160.38040161132812,37.826087951660156 155.40481567382812,37.826087951660156 148.97552490234375,28.62425422668457 " class="cls-1"/>
    <path stroke="null" id="svg_7" d="m57.346877,16.739805c-5.21537,0 -9.591485,3.40198 -9.591485,8.992017l0,12.109249l4.496008,0l0,-11.539755a4.900649,4.900649 0 0 1 5.245343,-5.39521c3.31206,0 4.975583,2.03819 4.975583,5.44017l0,11.539755l4.496008,0l0,-12.109249c0,-5.634997 -4.376115,-8.992017 -9.591485,-8.992017" class="cls-1"/>
    <path stroke="null" id="svg_8" d="m171.50053,27.320412a10.310846,10.310846 0 0 1 10.490686,-10.490686a10.086045,10.086045 0 0 1 9.501564,6.129558l-3.851581,1.648536a5.994678,5.994678 0 0 0 -5.649984,-3.776647a6.249452,6.249452 0 0 0 -6.249452,6.489239a6.309398,6.309398 0 0 0 6.339372,6.414305a5.994678,5.994678 0 0 0 5.649984,-3.926514l3.896541,1.648536a10.116019,10.116019 0 0 1 -9.621458,6.294412a10.340819,10.340819 0 0 1 -10.505673,-10.430739z" class="cls-1"/>
    <path stroke="null" id="svg_9" d="m194.71492,8.077496l4.256221,0l0,11.734582a7.703161,7.703161 0 0 1 6.174518,-2.997339c5.050516,0 8.137775,3.282086 8.137775,8.737243l0,11.704608l-4.376115,0l0,-11.225034c0,-3.327046 -1.603576,-5.410197 -4.855689,-5.410197c-2.847472,0 -5.050516,2.173071 -5.050516,5.694944l0,11.030207l-4.286195,0l0,-29.269015z" class="cls-1"/>
    <path stroke="null" id="svg_10" d="m216.655441,27.320412a9.996125,9.996125 0 0 1 10.026099,-10.490686a8.632336,8.632336 0 0 1 6.654092,2.997339l0,-2.532751l4.286195,0l0,20.052197l-4.286195,0l0,-2.802512a8.527429,8.527429 0 0 1 -6.639106,3.207153a10.086045,10.086045 0 0 1 -10.041085,-10.430739zm16.919978,0a6.339372,6.339372 0 1 0 -12.678744,0a6.339372,6.339372 0 1 0 12.678744,0z" class="cls-1"/>
    <path stroke="null" id="svg_11" d="m240.873939,17.294313l3.40198,0l0,-4.735795l4.331155,-2.367898l0,7.103693l4.256221,0l0,3.851581l-4.256221,0l0,7.972922c0,3.611793 0.554508,4.166301 4.256221,4.166301l0,4.046408l-0.689388,0c-6.099585,0 -7.942948,-1.918297 -7.942948,-8.182735l0,-8.002895l-3.40198,0l0.04496,-3.851581z" class="cls-1"/>
   </g>
  </g>
 </g>
</svg>