<?xml version="1.0" encoding="utf-8"?>
<!-- Generator: Adobe Illustrator 21.0.0, SVG Export Plug-In . SVG Version: 6.00 Build 0)  -->
<svg version="1.1" xmlns="http://www.w3.org/2000/svg" xmlns:xlink="http://www.w3.org/1999/xlink" x="0px" y="0px"
	 viewBox="0 0 240 90" enable-background="new 0 0 240 90" xml:space="preserve">
<g id="Layer_2" display="none">
	<g display="inline">
		<rect x="-10" y="0" fill="none" stroke="#E8E7E7" stroke-width="1.1277" stroke-miterlimit="10" width="260" height="90"/>
	</g>
</g>
<g id="Layer_1">
	<g>
		<g>
			<path fill="#444445" d="M63.6,36.2l6.3,16h-1.6l-1.9-5H59l-1.9,5h-1.6l6.4-16H63.6z M65.8,45.9l-3.1-8.2l-3.2,8.2H65.8z"/>
			<path fill="#444445" d="M72.3,40.6v1.9h0.1c0.4-0.7,0.9-1.3,1.5-1.7c0.6-0.4,1.4-0.6,2.3-0.6c0.8,0,1.5,0.2,2.1,0.6
				c0.6,0.4,1,0.9,1.2,1.7c0.3-0.8,0.9-1.3,1.5-1.7c0.7-0.4,1.4-0.6,2.1-0.6c2.5,0,3.8,1.4,3.8,4v7.8h-1.4v-7.8c0-1-0.2-1.7-0.6-2.2
				c-0.4-0.5-1.1-0.7-2.1-0.7c-0.6,0-1.1,0.1-1.5,0.3c-0.4,0.2-0.7,0.5-1,0.9c-0.2,0.4-0.4,0.8-0.5,1.3c-0.1,0.5-0.1,1-0.1,1.6v6.5
				h-1.4v-7.8c0-0.4,0-0.8-0.1-1.1c-0.1-0.4-0.2-0.7-0.4-0.9c-0.2-0.3-0.4-0.5-0.7-0.6c-0.3-0.1-0.7-0.2-1.1-0.2
				c-0.6,0-1.1,0.1-1.6,0.3c-0.4,0.2-0.8,0.5-1.1,0.9c-0.3,0.4-0.5,0.8-0.6,1.3c-0.1,0.5-0.2,1.1-0.2,1.7v6.4H71V40.6H72.3z"/>
			<path fill="#444445" d="M90,42.4c0.2-0.5,0.6-0.9,1-1.2s0.9-0.5,1.4-0.7c0.6-0.1,1.2-0.2,1.8-0.2c0.5,0,1,0,1.5,0.1
				c0.5,0.1,1,0.3,1.4,0.5c0.4,0.3,0.7,0.6,1,1.1s0.4,1.1,0.4,1.9v6.1c0,0.6,0.3,0.9,0.8,0.9c0.2,0,0.3,0,0.4-0.1v1.2
				c-0.2,0-0.3,0.1-0.4,0.1c-0.1,0-0.3,0-0.5,0c-0.4,0-0.6,0-0.9-0.1c-0.2-0.1-0.4-0.2-0.5-0.4c-0.1-0.2-0.2-0.4-0.2-0.6
				c0-0.2-0.1-0.5-0.1-0.8h0c-0.3,0.4-0.5,0.7-0.8,1c-0.3,0.3-0.6,0.5-0.9,0.7c-0.3,0.2-0.7,0.3-1.1,0.4s-0.9,0.2-1.5,0.2
				c-0.5,0-1-0.1-1.5-0.2c-0.5-0.1-0.9-0.3-1.2-0.6c-0.4-0.3-0.6-0.6-0.8-1.1c-0.2-0.4-0.3-0.9-0.3-1.5c0-0.8,0.2-1.4,0.5-1.9
				c0.4-0.5,0.8-0.8,1.4-1c0.6-0.2,1.3-0.4,2-0.5c0.7-0.1,1.5-0.2,2.2-0.3c0.3,0,0.6-0.1,0.8-0.1c0.2,0,0.4-0.1,0.6-0.2
				c0.1-0.1,0.3-0.3,0.3-0.5c0.1-0.2,0.1-0.4,0.1-0.8c0-0.5-0.1-0.9-0.2-1.2c-0.2-0.3-0.4-0.5-0.6-0.7c-0.3-0.2-0.6-0.3-1-0.4
				c-0.4-0.1-0.8-0.1-1.2-0.1c-0.9,0-1.6,0.2-2.2,0.6c-0.6,0.4-0.9,1.1-0.9,2h-1.4C89.6,43.5,89.7,42.9,90,42.4z M97,45.9
				c-0.1,0.2-0.3,0.3-0.5,0.4c-0.3,0.1-0.5,0.1-0.7,0.2c-0.6,0.1-1.2,0.2-1.8,0.3c-0.6,0.1-1.2,0.2-1.7,0.4c-0.5,0.2-1,0.4-1.3,0.7
				c-0.3,0.3-0.5,0.7-0.5,1.3c0,0.4,0.1,0.7,0.2,1c0.1,0.3,0.3,0.5,0.6,0.7c0.2,0.2,0.5,0.4,0.8,0.5c0.3,0.1,0.6,0.2,1,0.2
				c0.5,0,1.1-0.1,1.5-0.2c0.5-0.2,0.9-0.4,1.3-0.7c0.4-0.3,0.7-0.7,0.9-1.1c0.2-0.4,0.3-1,0.3-1.5L97,45.9L97,45.9z"/>
			<path fill="#444445" d="M109.9,51v1.2h-9.6V51l7.5-9.2h-7v-1.2h8.8v1L102,51H109.9z"/>
			<path fill="#444445" d="M118.8,40.8c0.7,0.3,1.2,0.8,1.7,1.3c0.5,0.6,0.8,1.2,1.1,1.9c0.2,0.7,0.4,1.5,0.4,2.4
				c0,0.8-0.1,1.6-0.4,2.4c-0.2,0.7-0.6,1.4-1.1,1.9c-0.5,0.6-1,1-1.7,1.3c-0.7,0.3-1.5,0.5-2.3,0.5c-0.9,0-1.7-0.2-2.3-0.5
				c-0.7-0.3-1.2-0.8-1.7-1.3c-0.5-0.6-0.8-1.2-1.1-1.9c-0.2-0.7-0.4-1.5-0.4-2.4c0-0.8,0.1-1.6,0.4-2.4c0.2-0.7,0.6-1.4,1.1-1.9
				c0.5-0.6,1-1,1.7-1.3c0.7-0.3,1.5-0.5,2.3-0.5C117.4,40.3,118.2,40.5,118.8,40.8z M114.7,41.9c-0.5,0.3-0.9,0.7-1.3,1.1
				c-0.3,0.5-0.6,1-0.8,1.6c-0.2,0.6-0.3,1.2-0.3,1.8c0,0.6,0.1,1.2,0.3,1.8c0.2,0.6,0.4,1.1,0.8,1.6c0.3,0.5,0.8,0.8,1.3,1.1
				c0.5,0.3,1.1,0.4,1.8,0.4c0.7,0,1.3-0.1,1.8-0.4c0.5-0.3,0.9-0.7,1.3-1.1c0.3-0.5,0.6-1,0.8-1.6c0.2-0.6,0.3-1.2,0.3-1.8
				c0-0.6-0.1-1.2-0.3-1.8c-0.2-0.6-0.4-1.1-0.8-1.6c-0.3-0.5-0.8-0.8-1.3-1.1c-0.5-0.3-1.1-0.4-1.8-0.4
				C115.8,41.5,115.2,41.6,114.7,41.9z"/>
			<path fill="#444445" d="M125.5,40.6v2h0c0.3-0.7,0.7-1.3,1.4-1.7c0.7-0.4,1.4-0.6,2.3-0.6c0.8,0,1.5,0.1,2,0.3
				c0.5,0.2,1,0.5,1.3,0.9c0.3,0.4,0.6,0.8,0.7,1.4c0.1,0.6,0.2,1.2,0.2,1.9v7.4H132V45c0-0.5,0-1-0.1-1.4c-0.1-0.4-0.2-0.8-0.5-1.1
				c-0.2-0.3-0.5-0.6-0.9-0.7c-0.4-0.2-0.9-0.3-1.4-0.3c-0.6,0-1.1,0.1-1.5,0.3c-0.4,0.2-0.8,0.5-1.1,0.8c-0.3,0.4-0.5,0.8-0.7,1.3
				c-0.2,0.5-0.3,1-0.3,1.6v6.7H124V40.6H125.5z"/>
			<path fill="#444445" d="M151.1,36.2c0.7,0,1.4,0.1,1.9,0.3c0.6,0.2,1.1,0.5,1.5,1c0.4,0.4,0.7,0.9,0.9,1.4
				c0.2,0.5,0.3,1.1,0.3,1.7c0,0.9-0.2,1.8-0.6,2.4c-0.4,0.7-1,1.2-1.9,1.6v0c0.4,0.1,0.8,0.3,1.1,0.5c0.3,0.2,0.5,0.5,0.7,0.9
				c0.2,0.3,0.3,0.7,0.4,1.1c0.1,0.4,0.1,0.8,0.2,1.2c0,0.3,0,0.6,0,0.9c0,0.3,0,0.7,0.1,1.1c0,0.4,0.1,0.7,0.2,1
				c0.1,0.3,0.2,0.6,0.4,0.8h-3.5c-0.2-0.5-0.3-1.1-0.4-1.8c0-0.7-0.1-1.4-0.2-2c-0.1-0.8-0.4-1.4-0.8-1.8c-0.4-0.4-1-0.6-1.9-0.6
				H146v6.2h-3.5v-16H151.1z M149.9,43.4c0.8,0,1.4-0.2,1.8-0.5c0.4-0.4,0.6-0.9,0.6-1.7c0-0.8-0.2-1.3-0.6-1.7
				c-0.4-0.4-1-0.5-1.8-0.5H146v4.5H149.9z"/>
			<path fill="#444445" d="M161.7,49.4c0.5,0.5,1.2,0.7,2.1,0.7c0.6,0,1.2-0.2,1.7-0.5c0.5-0.3,0.7-0.7,0.9-1h2.8
				c-0.4,1.4-1.1,2.4-2.1,3c-0.9,0.6-2,0.9-3.4,0.9c-0.9,0-1.7-0.1-2.5-0.4c-0.7-0.3-1.3-0.7-1.9-1.2c-0.5-0.5-0.9-1.2-1.2-1.9
				c-0.3-0.7-0.4-1.6-0.4-2.5c0-0.9,0.1-1.7,0.4-2.4c0.3-0.7,0.7-1.4,1.2-1.9c0.5-0.5,1.1-1,1.9-1.3c0.7-0.3,1.5-0.5,2.4-0.5
				c1,0,1.8,0.2,2.6,0.6c0.7,0.4,1.3,0.9,1.8,1.5c0.5,0.6,0.8,1.4,1,2.2c0.2,0.8,0.3,1.7,0.2,2.6h-8.3
				C161,48.2,161.2,48.9,161.7,49.4z M165.3,43.3c-0.4-0.4-1-0.6-1.7-0.6c-0.5,0-0.9,0.1-1.3,0.3c-0.3,0.2-0.6,0.4-0.8,0.6
				c-0.2,0.3-0.3,0.5-0.4,0.8c-0.1,0.3-0.1,0.5-0.1,0.8h5.2C165.9,44.3,165.7,43.7,165.3,43.3z"/>
			<path fill="#444445" d="M179.4,50.7c-0.4,0.6-0.9,1.1-1.5,1.4c-0.6,0.3-1.3,0.4-2,0.4c-0.9,0-1.6-0.2-2.3-0.5
				c-0.7-0.3-1.2-0.8-1.6-1.4c-0.4-0.6-0.7-1.2-1-2c-0.2-0.7-0.3-1.5-0.3-2.3c0-0.8,0.1-1.5,0.3-2.2c0.2-0.7,0.5-1.4,1-1.9
				c0.4-0.6,1-1,1.6-1.3c0.6-0.3,1.4-0.5,2.2-0.5c0.7,0,1.3,0.1,2,0.4s1.1,0.7,1.5,1.3h0v-5.8h3.2v16h-3L179.4,50.7L179.4,50.7z
				 M179.2,45c-0.1-0.4-0.2-0.8-0.5-1.2c-0.2-0.3-0.5-0.6-0.8-0.8c-0.3-0.2-0.8-0.3-1.3-0.3s-1,0.1-1.3,0.3
				c-0.4,0.2-0.6,0.5-0.9,0.8c-0.2,0.3-0.4,0.7-0.5,1.2c-0.1,0.4-0.1,0.9-0.1,1.4c0,0.4,0.1,0.9,0.2,1.3c0.1,0.4,0.3,0.8,0.5,1.2
				c0.2,0.4,0.5,0.6,0.9,0.9c0.4,0.2,0.8,0.3,1.3,0.3c0.5,0,1-0.1,1.3-0.3c0.4-0.2,0.6-0.5,0.8-0.8c0.2-0.4,0.4-0.7,0.4-1.2
				c0.1-0.4,0.1-0.9,0.1-1.4C179.4,45.9,179.3,45.4,179.2,45z"/>
			<path fill="#444445" d="M187.5,49.3c0.1,0.2,0.3,0.4,0.5,0.6c0.2,0.2,0.5,0.3,0.8,0.3c0.3,0.1,0.6,0.1,0.9,0.1
				c0.2,0,0.5,0,0.7-0.1c0.2-0.1,0.5-0.1,0.7-0.2c0.2-0.1,0.4-0.3,0.5-0.4c0.1-0.2,0.2-0.4,0.2-0.7c0-0.5-0.3-0.8-1-1.1
				c-0.6-0.2-1.5-0.5-2.7-0.7c-0.5-0.1-0.9-0.2-1.4-0.4c-0.4-0.1-0.8-0.3-1.2-0.6c-0.3-0.2-0.6-0.5-0.8-0.9
				c-0.2-0.4-0.3-0.8-0.3-1.3c0-0.7,0.1-1.4,0.4-1.8c0.3-0.5,0.7-0.9,1.2-1.1c0.5-0.3,1-0.5,1.6-0.6c0.6-0.1,1.2-0.2,1.8-0.2
				s1.2,0.1,1.8,0.2c0.6,0.1,1.1,0.3,1.6,0.6c0.5,0.3,0.8,0.7,1.2,1.1c0.3,0.5,0.5,1.1,0.5,1.8h-3c0-0.6-0.3-1-0.7-1.2
				c-0.4-0.2-0.9-0.3-1.5-0.3c-0.2,0-0.4,0-0.6,0c-0.2,0-0.4,0.1-0.6,0.1c-0.2,0.1-0.3,0.2-0.4,0.3c-0.1,0.1-0.2,0.3-0.2,0.6
				c0,0.3,0.1,0.5,0.3,0.7c0.2,0.2,0.5,0.3,0.8,0.4c0.3,0.1,0.7,0.2,1.2,0.3c0.4,0.1,0.9,0.2,1.3,0.3c0.5,0.1,0.9,0.2,1.4,0.4
				c0.4,0.1,0.8,0.3,1.2,0.6c0.3,0.2,0.6,0.6,0.8,0.9c0.2,0.4,0.3,0.8,0.3,1.4c0,0.8-0.2,1.4-0.5,1.9c-0.3,0.5-0.7,0.9-1.2,1.2
				c-0.5,0.3-1.1,0.5-1.7,0.7c-0.6,0.1-1.3,0.2-1.9,0.2c-0.7,0-1.3-0.1-2-0.2c-0.6-0.1-1.2-0.4-1.7-0.7c-0.5-0.3-0.9-0.7-1.2-1.2
				c-0.3-0.5-0.5-1.2-0.5-1.9h3C187.3,48.8,187.4,49,187.5,49.3z"/>
			<path fill="#444445" d="M200,36.2v6h0.1c0.4-0.7,0.9-1.2,1.5-1.5c0.6-0.3,1.2-0.5,1.8-0.5c0.9,0,1.5,0.1,2.1,0.3
				c0.5,0.2,1,0.6,1.3,1s0.5,0.9,0.7,1.5c0.1,0.6,0.2,1.2,0.2,2v7.1h-3.2v-6.5c0-1-0.1-1.7-0.4-2.1c-0.3-0.5-0.8-0.7-1.6-0.7
				c-0.9,0-1.5,0.3-1.9,0.8c-0.4,0.5-0.6,1.4-0.6,2.5v6.1h-3.2v-16H200z"/>
			<path fill="#444445" d="M210.2,38.8v-2.6h3.2v2.6H210.2z M213.4,40.6v11.6h-3.2V40.6H213.4z"/>
			<path fill="#444445" d="M214.7,42.7v-2.1h1.9v-0.9c0-1,0.3-1.9,1-2.5c0.6-0.7,1.6-1,2.9-1c0.3,0,0.6,0,0.9,0c0.3,0,0.6,0,0.8,0.1
				v2.4c-0.4,0-0.8-0.1-1.2-0.1c-0.4,0-0.7,0.1-0.9,0.3c-0.2,0.2-0.3,0.5-0.3,1v0.7h2.2v2.1h-2.2v9.4h-3.2v-9.4H214.7z"/>
			<path fill="#444445" d="M229.7,40.6v2.1h-2.3v5.7c0,0.5,0.1,0.9,0.3,1.1c0.2,0.2,0.5,0.3,1.1,0.3c0.2,0,0.4,0,0.5,0
				c0.2,0,0.3,0,0.5-0.1v2.5c-0.3,0-0.6,0.1-0.9,0.1c-0.3,0-0.6,0-1,0c-0.5,0-1,0-1.4-0.1c-0.4-0.1-0.8-0.2-1.2-0.4
				c-0.3-0.2-0.6-0.5-0.8-0.8c-0.2-0.4-0.3-0.8-0.3-1.4v-6.8h-1.9v-2.1h1.9v-3.5h3.2v3.5H229.7z"/>
		</g>
		<g id="Layer_1_1_">
			<polygon fill="#5294CF" points="40.4,30.6 43.4,32.1 43.4,57.8 40.4,59.3 35.6,45 			"/>
			<polygon fill="#205B99" points="10.1,30.6 7.1,32.1 7.1,57.8 10.1,59.3 17.7,45 			"/>
			<polygon fill="#205B99" points="25.3,55.6 40.4,59.3 40.4,30.6 25.3,34.3 			"/>
			<polygon fill="#5294CF" points="25.3,55.6 10.1,59.3 10.1,30.6 25.3,34.3 			"/>
			<polygon fill="#5294CF" points="28.9,65 34.7,62.1 34.7,27.9 28.9,25 23.1,44 			"/>
			<polygon fill="#205B99" points="21.6,65 15.8,62.1 15.8,27.9 21.6,25 26.8,45 			"/>
			<rect x="21.6" y="25" fill="#2E73B8" width="7.3" height="40"/>
		</g>
	</g>
</g>
</svg>
