<svg width="160" height="50" xmlns="http://www.w3.org/2000/svg" xmlns:svg="http://www.w3.org/2000/svg">
 <g>
  <title>Layer 1</title>
  <g stroke="null" id="svg_1">
   <g stroke="null" id="svg_2">
    <path stroke="null" id="svg_3" d="m25.10496,23.83181l-5.37366,-9.26761c-0.23364,-0.46727 -0.93455,-0.85667 -1.4797,-0.85667l-10.66944,0c-0.54515,0 -1.16819,0.3894 -1.4797,0.85667l-5.29578,9.26761c-0.23364,0.46727 -0.23364,1.24607 0,1.71334l5.37366,9.18974c0.23364,0.46727 0.93455,0.85667 1.4797,0.85667l10.74732,0c0.54515,0 1.16819,-0.3894 1.4797,-0.85667l5.37366,-9.26761c0.15576,-0.46727 0.15576,-1.16819 -0.15576,-1.63546z" fill="#005FC5"/>
    <path stroke="null" id="svg_4" d="m13.0337,20.01574c-2.49213,0 -4.51699,2.02486 -4.51699,4.51699c0,1.09031 0.3894,2.10274 1.01243,2.88153l0,0l0,0c0.15576,0.15576 5.91881,5.99669 8.02155,8.17731l0.70091,0c0.54515,0 1.16819,-0.3894 1.4797,-0.85667l3.50456,-6.15245l-6.46397,-6.6976c-1.09031,-1.09031 -2.18062,-1.8691 -3.7382,-1.8691z" fill="#004EB3"/>
    <path stroke="null" id="svg_5" d="m13.0337,29.04971c-2.49213,0 -4.51699,-2.02486 -4.51699,-4.51699s2.02486,-4.51699 4.51699,-4.51699s4.51699,2.02486 4.51699,4.51699s-2.02486,4.51699 -4.51699,4.51699zm0,-7.94367c-1.8691,0 -3.42668,1.55758 -3.42668,3.42668c0,1.8691 1.55758,3.42668 3.42668,3.42668s3.42668,-1.55758 3.42668,-3.42668c0,-1.8691 -1.55758,-3.42668 -3.42668,-3.42668z" fill="#FFFFFF"/>
    <g stroke="null" id="svg_6">
     <path stroke="null" id="svg_7" d="m18.32948,29.28335l-1.79122,-1.8691c0.62303,-0.77879 1.01243,-1.71334 1.01243,-2.80365c0,-2.49213 -2.02486,-4.51699 -4.51699,-4.51699s-4.51699,1.94698 -4.51699,4.43911s2.02486,4.51699 4.51699,4.51699c1.01243,0 2.02486,-0.3894 2.80365,-0.93455l1.71334,1.8691l0.77879,-0.70091zm-5.29578,-1.32394c-1.8691,0 -3.42668,-1.55758 -3.42668,-3.42668c0,-1.8691 1.55758,-3.42668 3.42668,-3.42668s3.42668,1.55758 3.42668,3.42668c0,1.94698 -1.55758,3.42668 -3.42668,3.42668z" fill="#FFFFFF"/>
     <rect stroke="null" id="svg_8" height="3.7382" width="0.77879" fill="#FFFFFF" y="23.36454" x="12.56642"/>
     <polygon stroke="null" id="svg_9" points="10.853080749511719,26.012428283691406 11.631871223449707,26.713340759277344 11.631871223449707,24.454845428466797 10.853080749511719,24.454845428466797 " fill="#FFFFFF"/>
     <polygon stroke="null" id="svg_10" points="14.27976131439209,26.713340759277344 15.058551788330078,26.012428283691406 15.058551788330078,25.077878952026367 14.27976131439209,25.077878952026367 " fill="#FFFFFF"/>
    </g>
   </g>
   <g stroke="null" id="svg_11">
    <path stroke="null" id="svg_12" d="m90.13402,32.32064l0,-12.14914l4.43911,0c0.93455,0 1.79122,0.31152 2.49213,0.93455c0.70091,0.62303 1.01243,1.40182 1.01243,2.41425c0,0.54515 -0.15576,1.09031 -0.46727,1.55758c-0.31152,0.46727 -0.70091,0.77879 -1.16819,1.01243l0,0.07788c0.62303,0.23364 1.09031,0.54515 1.4797,1.09031c0.3894,0.46727 0.54515,1.09031 0.54515,1.71334c0,1.01243 -0.3894,1.79122 -1.09031,2.49213c-0.70091,0.62303 -1.63546,1.01243 -2.57001,1.01243l-4.67275,0l0,-0.15576zm1.55758,-6.93124l2.88153,0c0.62303,0 1.09031,-0.23364 1.40182,-0.62303c0.3894,-0.3894 0.54515,-0.85667 0.54515,-1.32394c0,-0.46727 -0.15576,-0.85667 -0.54515,-1.24607c-0.31152,-0.3894 -0.77879,-0.54515 -1.40182,-0.54515l-2.88153,0l0,3.7382zm0,5.45154l3.11516,0c0.62303,0 1.09031,-0.23364 1.4797,-0.62303c0.3894,-0.3894 0.54515,-0.85667 0.54515,-1.40182c0,-0.46727 -0.15576,-0.93455 -0.54515,-1.40182c-0.3894,-0.3894 -0.85667,-0.62303 -1.4797,-0.62303l-3.11516,0l0,4.04971z" fill="#767D82"/>
    <path stroke="null" id="svg_13" d="m101.66013,21.88484c-0.23364,0.23364 -0.46727,0.31152 -0.77879,0.31152c-0.31152,0 -0.54515,-0.07788 -0.77879,-0.31152c-0.23364,-0.23364 -0.31152,-0.46727 -0.31152,-0.77879c0,-0.31152 0.07788,-0.54515 0.31152,-0.77879c0.23364,-0.23364 0.46727,-0.31152 0.77879,-0.31152c0.31152,0 0.54515,0.07788 0.77879,0.31152c0.23364,0.23364 0.31152,0.46727 0.31152,0.77879c0,0.31152 -0.07788,0.62303 -0.31152,0.77879zm0,10.4358l-1.55758,0l0,-8.33307l1.55758,0l0,8.33307z" fill="#767D82"/>
    <path stroke="null" id="svg_14" d="m107.26742,36.29247c-1.01243,0 -1.79122,-0.23364 -2.41425,-0.77879c-0.62303,-0.46727 -1.09031,-1.09031 -1.32394,-1.71334l1.40182,-0.62303c0.15576,0.46727 0.46727,0.85667 0.85667,1.16819c0.3894,0.31152 0.93455,0.46727 1.4797,0.46727c0.85667,0 1.55758,-0.23364 2.02486,-0.77879c0.46727,-0.54515 0.77879,-1.24607 0.77879,-2.10274l0,-0.77879l-0.07788,0c-0.31152,0.3894 -0.62303,0.77879 -1.16819,1.01243c-0.46727,0.23364 -1.09031,0.3894 -1.71334,0.3894c-1.09031,0 -2.02486,-0.3894 -2.80365,-1.24607c-0.77879,-0.85667 -1.16819,-1.94698 -1.16819,-3.19304c0,-1.24607 0.3894,-2.33637 1.16819,-3.19304c0.77879,-0.85667 1.71334,-1.24607 2.80365,-1.24607c0.62303,0 1.16819,0.15576 1.71334,0.3894c0.46727,0.23364 0.85667,0.62303 1.16819,1.01243l0.07788,0l0,-1.16819l1.4797,0l0,7.94367c0,1.40182 -0.3894,2.49213 -1.24607,3.27092c-0.85667,0.77879 -1.8691,1.16819 -3.03729,1.16819zm0.07788,-5.06214c0.70091,0 1.40182,-0.31152 1.8691,-0.85667s0.77879,-1.24607 0.77879,-2.18062c0,-0.93455 -0.23364,-1.63546 -0.77879,-2.18062c-0.54515,-0.54515 -1.16819,-0.85667 -1.8691,-0.85667c-0.70091,0 -1.32394,0.31152 -1.8691,0.85667c-0.54515,0.54515 -0.77879,1.24607 -0.77879,2.18062c0,0.93455 0.23364,1.63546 0.77879,2.18062c0.54515,0.54515 1.16819,0.85667 1.8691,0.85667z" fill="#767D82"/>
    <path stroke="null" id="svg_15" d="m123.15476,33.17731l-0.85667,-1.24607c-0.93455,0.46727 -1.8691,0.70091 -2.95941,0.70091c-1.79122,0 -3.27092,-0.62303 -4.43911,-1.8691c-1.16819,-1.24607 -1.79122,-2.72577 -1.79122,-4.51699c0,-1.79122 0.62303,-3.27092 1.79122,-4.51699c1.16819,-1.24607 2.72577,-1.8691 4.43911,-1.8691c1.79122,0 3.27092,0.62303 4.43911,1.8691c1.16819,1.24607 1.79122,2.72577 1.79122,4.51699c0,1.94698 -0.70091,3.58244 -2.10274,4.82851l0.85667,1.24607l-1.16819,0.85667zm-3.7382,-2.02486c0.70091,0 1.40182,-0.15576 2.02486,-0.46727l-1.40182,-2.18062l1.24607,-0.85667l1.40182,2.10274c0.93455,-0.93455 1.40182,-2.10274 1.40182,-3.58244c0,-1.40182 -0.46727,-2.57001 -1.32394,-3.50456c-0.93455,-0.93455 -2.02486,-1.40182 -3.3488,-1.40182c-1.32394,0 -2.41425,0.46727 -3.3488,1.40182c-0.93455,0.93455 -1.32394,2.10274 -1.32394,3.50456c0,1.40182 0.46727,2.57001 1.32394,3.50456c0.93455,1.01243 2.02486,1.4797 3.3488,1.4797z" fill="#767D82"/>
    <path stroke="null" id="svg_16" d="m134.60299,32.32064l-1.4797,0l0,-1.16819l-0.07788,0c-0.23364,0.3894 -0.62303,0.70091 -1.09031,1.01243c-0.46727,0.31152 -1.01243,0.3894 -1.55758,0.3894c-1.01243,0 -1.8691,-0.31152 -2.41425,-0.93455c-0.54515,-0.62303 -0.77879,-1.4797 -0.77879,-2.57001l0,-5.14002l1.55758,0l0,4.82851c0,1.55758 0.70091,2.33637 2.02486,2.33637c0.62303,0 1.16819,-0.23364 1.55758,-0.77879c0.3894,-0.54515 0.62303,-1.09031 0.62303,-1.79122l0,-4.59487l1.55758,0l0,8.41094l0.07788,0z" fill="#767D82"/>
    <path stroke="null" id="svg_17" d="m140.21029,32.63215c-1.24607,0 -2.25849,-0.3894 -3.11516,-1.24607c-0.77879,-0.85667 -1.16819,-1.8691 -1.16819,-3.19304c0,-1.24607 0.3894,-2.25849 1.16819,-3.11516c0.77879,-0.85667 1.71334,-1.32394 2.95941,-1.32394c1.24607,0 2.25849,0.3894 2.95941,1.24607c0.77879,0.77879 1.09031,1.8691 1.09031,3.27092l0,0.31152l-6.61972,0c0.07788,0.85667 0.31152,1.4797 0.85667,2.02486c0.54515,0.46727 1.09031,0.70091 1.79122,0.70091c1.09031,0 1.8691,-0.46727 2.25849,-1.40182l1.40182,0.54515c-0.31152,0.62303 -0.70091,1.16819 -1.32394,1.63546c-0.62303,0.31152 -1.40182,0.54515 -2.25849,0.54515zm2.18062,-5.45154c0,-0.46727 -0.23364,-0.93455 -0.62303,-1.40182c-0.3894,-0.46727 -1.01243,-0.62303 -1.79122,-0.62303c-0.54515,0 -1.09031,0.15576 -1.4797,0.54515c-0.3894,0.3894 -0.70091,0.85667 -0.85667,1.4797l4.75063,0z" fill="#767D82"/>
    <path stroke="null" id="svg_18" d="m147.06365,32.32064l-1.55758,0l0,-8.33307l1.4797,0l0,1.40182l0.07788,0c0.15576,-0.46727 0.46727,-0.85667 1.01243,-1.09031c0.46727,-0.31152 1.01243,-0.46727 1.40182,-0.46727c0.46727,0 0.85667,0.07788 1.16819,0.23364l-0.62303,1.4797c-0.23364,-0.07788 -0.46727,-0.15576 -0.85667,-0.15576c-0.54515,0 -1.09031,0.23364 -1.4797,0.70091c-0.46727,0.46727 -0.62303,1.01243 -0.62303,1.79122l0,4.43911z" fill="#767D82"/>
    <path stroke="null" id="svg_19" d="m154.15065,36.05883l-1.63546,0l1.94698,-4.20547l-3.42668,-7.78791l1.71334,0l2.49213,5.99669l0,0l2.41425,-5.99669l1.71334,0l-5.2179,11.99338z" fill="#767D82"/>
   </g>
   <g stroke="null" id="svg_20">
    <path stroke="null" id="svg_21" d="m38.03289,32.24276c-1.94698,0 -3.58244,-0.70091 -4.98426,-2.02486c-1.40182,-1.40182 -2.10274,-3.03729 -2.10274,-4.90638s0.70091,-3.58244 2.10274,-4.90638c1.40182,-1.40182 3.03729,-2.02486 4.98426,-2.02486c1.8691,0 3.42668,0.62303 4.75063,1.94698l-1.32394,1.32394c-0.93455,-0.93455 -2.10274,-1.32394 -3.42668,-1.32394c-1.40182,0 -2.57001,0.46727 -3.58244,1.4797c-0.93455,1.01243 -1.4797,2.18062 -1.4797,3.58244s0.46727,2.57001 1.4797,3.58244c0.93455,1.01243 2.18062,1.4797 3.58244,1.4797c1.40182,0 2.57001,-0.46727 3.50456,-1.40182c0.54515,-0.54515 0.93455,-1.32394 1.01243,-2.41425l-4.59487,0l0,-1.8691l6.38609,0c0.07788,0.31152 0.07788,0.70091 0.07788,1.16819c0,1.8691 -0.54515,3.3488 -1.63546,4.43911c-1.16819,1.24607 -2.80365,1.8691 -4.75063,1.8691zm14.87491,-1.24607c-0.85667,0.85667 -1.94698,1.24607 -3.19304,1.24607c-1.24607,0 -2.33637,-0.46727 -3.19304,-1.24607c-0.85667,-0.85667 -1.32394,-1.94698 -1.32394,-3.19304c0,-1.24607 0.46727,-2.33637 1.32394,-3.19304c0.85667,-0.85667 1.94698,-1.24607 3.19304,-1.24607c1.24607,0 2.33637,0.46727 3.19304,1.24607c0.85667,0.85667 1.32394,1.94698 1.32394,3.19304c0,1.24607 -0.46727,2.33637 -1.32394,3.19304zm-4.98426,-1.24607c0.46727,0.54515 1.09031,0.77879 1.79122,0.77879c0.70091,0 1.24607,-0.23364 1.79122,-0.77879c0.46727,-0.54515 0.77879,-1.16819 0.77879,-1.94698c0,-0.77879 -0.23364,-1.4797 -0.70091,-1.94698c-0.46727,-0.54515 -1.09031,-0.77879 -1.79122,-0.77879c-0.70091,0 -1.32394,0.23364 -1.79122,0.77879s-0.70091,1.16819 -0.70091,1.94698c-0.07788,0.77879 0.15576,1.40182 0.62303,1.94698zm14.79703,1.24607c-0.85667,0.85667 -1.94698,1.24607 -3.19304,1.24607c-1.24607,0 -2.33637,-0.46727 -3.19304,-1.24607c-0.85667,-0.85667 -1.32394,-1.94698 -1.32394,-3.19304c0,-1.24607 0.46727,-2.33637 1.32394,-3.19304c0.85667,-0.85667 1.94698,-1.24607 3.19304,-1.24607c1.24607,0 2.33637,0.46727 3.19304,1.24607c0.85667,0.85667 1.32394,1.94698 1.32394,3.19304c0,1.24607 -0.3894,2.33637 -1.32394,3.19304zm-4.98426,-1.24607c0.46727,0.54515 1.09031,0.77879 1.79122,0.77879c0.70091,0 1.24607,-0.23364 1.79122,-0.77879c0.46727,-0.54515 0.77879,-1.16819 0.77879,-1.94698c0,-0.77879 -0.23364,-1.4797 -0.70091,-1.94698c-0.46727,-0.54515 -1.09031,-0.77879 -1.79122,-0.77879c-0.70091,0 -1.32394,0.23364 -1.79122,0.77879s-0.70091,1.16819 -0.70091,1.94698c-0.07788,0.77879 0.15576,1.40182 0.62303,1.94698zm11.44823,6.54185c-1.01243,0 -1.8691,-0.23364 -2.49213,-0.77879c-0.70091,-0.54515 -1.16819,-1.16819 -1.4797,-1.8691l1.71334,-0.70091c0.15576,0.46727 0.46727,0.77879 0.85667,1.09031c0.3894,0.31152 0.85667,0.46727 1.40182,0.46727c0.77879,0 1.32394,-0.23364 1.79122,-0.70091c0.3894,-0.46727 0.62303,-1.09031 0.62303,-1.94698l0,-0.62303l-0.07788,0c-0.54515,0.70091 -1.32394,1.01243 -2.33637,1.01243c-1.16819,0 -2.18062,-0.46727 -3.03729,-1.32394s-1.32394,-1.94698 -1.32394,-3.19304c0,-1.24607 0.46727,-2.33637 1.32394,-3.19304c0.85667,-0.85667 1.8691,-1.32394 3.03729,-1.32394c0.54515,0 0.93455,0.07788 1.40182,0.31152c0.3894,0.23364 0.70091,0.46727 1.01243,0.70091l0.07788,0l0,-0.70091l1.8691,0l0,8.09943c0,1.55758 -0.3894,2.72577 -1.16819,3.50456c-0.93455,0.77879 -1.94698,1.16819 -3.19304,1.16819zm0.15576,-5.76305c0.70091,0 1.24607,-0.23364 1.71334,-0.77879c0.46727,-0.54515 0.70091,-1.16819 0.70091,-1.94698c0,-0.77879 -0.23364,-1.40182 -0.70091,-1.94698c-0.46727,-0.54515 -1.01243,-0.77879 -1.71334,-0.77879c-0.70091,0 -1.24607,0.23364 -1.79122,0.77879c-0.46727,0.54515 -0.70091,1.16819 -0.70091,1.94698c0,0.77879 0.23364,1.40182 0.70091,1.94698c0.54515,0.46727 1.09031,0.77879 1.79122,0.77879zm7.47639,-11.75975l0,13.16157l-1.94698,0l0,-13.16157l1.94698,0zm5.37366,13.47309c-1.24607,0 -2.33637,-0.46727 -3.19304,-1.32394c-0.85667,-0.85667 -1.24607,-1.94698 -1.24607,-3.19304c0,-1.32394 0.3894,-2.41425 1.24607,-3.19304c0.85667,-0.85667 1.79122,-1.24607 3.03729,-1.24607c0.54515,0 1.01243,0.07788 1.4797,0.31152c0.46727,0.23364 0.85667,0.46727 1.16819,0.77879c0.31152,0.31152 0.54515,0.62303 0.70091,0.93455c0.15576,0.31152 0.31152,0.62303 0.46727,0.85667l0.23364,0.54515l-5.99669,2.49213c0.46727,0.93455 1.16819,1.32394 2.18062,1.32394c0.93455,0 1.63546,-0.3894 2.18062,-1.24607l1.55758,1.01243c-0.31152,0.54515 -0.85667,0.93455 -1.4797,1.40182c-0.62303,0.3894 -1.40182,0.54515 -2.33637,0.54515zm-2.49213,-4.59487l4.04971,-1.63546c-0.07788,-0.31152 -0.31152,-0.54515 -0.62303,-0.70091c-0.31152,-0.15576 -0.62303,-0.23364 -1.01243,-0.23364c-0.54515,0 -1.09031,0.23364 -1.63546,0.70091c-0.54515,0.46727 -0.77879,1.09031 -0.77879,1.8691z" fill="#767D82"/>
   </g>
  </g>
 </g>
</svg>