<svg width="160" height="50" xmlns="http://www.w3.org/2000/svg" xmlns:svg="http://www.w3.org/2000/svg">
 <g>
  <title>Layer 1</title>
  <g stroke="null" id="svg_1">
   <circle stroke="null" id="svg_2" r="19.219061" cy="24.999999" cx="19.536832" fill="#9FC9EC"/>
   <g stroke="null" id="XMLID_15_">
    <path stroke="null" d="m19.459956,37.761455c-0.153752,-0.153752 -0.230629,-0.230629 -0.461257,-0.230629l0,-3.613183l-0.538134,0l0,3.305678c-0.461257,-0.230629 -1.076267,-0.153752 -1.460649,0.230629c-0.461257,0.538134 -0.076876,1.921906 -0.076876,1.768154c0,-0.153752 0.230629,-0.384381 0.538134,-0.538134c0,0.538134 0.153752,0.999391 0.153752,0.845639c0,-0.461257 2.306287,-1.383772 1.84503,-1.768154z" fill="#F4D3AA" id="XMLID_17_"/>
    <path stroke="null" id="svg_3" d="m19.536832,37.607703c-0.076876,-0.076876 -0.384381,-0.153752 -0.384381,-0.230629c-0.076876,-0.076876 0,-0.230629 0,-0.384381l0,-3.228802c0,-0.076876 -0.076876,-0.076876 -0.076876,-0.076876l-0.538134,0c-0.076876,0 -0.153752,0.076876 -0.153752,0.076876l0,3.305678c0.076876,-0.076876 0.153752,-0.076876 0.153752,-0.076876c-0.61501,-0.307505 -1.614401,-0.076876 -1.84503,0.61501c-0.076876,0.307505 -0.076876,0.691886 -0.076876,0.999391c0,0.153752 0.076876,0.461257 0.153752,0.538134c0.076876,0.076876 0.153752,0 0.153752,-0.076876c0.153752,-0.230629 0.230629,-0.384381 0.461257,-0.538134c-0.076876,0 -0.153752,-0.076876 -0.153752,-0.076876c0,0.153752 0,0.845639 0.230629,0.922515c0.076876,0 0.153752,0 0.153752,-0.076876c0.230629,-0.230629 2.46004,-1.076267 1.921906,-1.691277c-0.076876,-0.076876 -0.230629,0.076876 -0.153752,0.153752c0.230629,0.307505 -0.768762,0.845639 -0.999391,0.999391c-0.307505,0.153752 -0.768762,0.461257 -0.845639,0.845639c0.076876,-0.076876 0.153752,-0.076876 0.153752,-0.076876c-0.076876,-0.076876 -0.076876,-0.768762 -0.076876,-0.845639c0,-0.076876 -0.153752,-0.076876 -0.153752,-0.076876c-0.230629,0.153752 -0.384381,0.384381 -0.538134,0.61501c0.076876,0 0.153752,-0.076876 0.153752,-0.076876c0,0 -0.076876,-0.230629 -0.076876,-0.384381c-0.076876,-0.153752 -0.076876,-0.384381 -0.076876,-0.61501c0.076876,-0.768762 0.845639,-1.153144 1.537525,-0.845639c0.076876,0.076876 0.153752,0 0.153752,-0.076876l0,-3.305678c-0.076876,0.076876 -0.076876,0.076876 -0.153752,0.076876l0.538134,0c-0.076876,-0.076876 -0.076876,-0.076876 -0.076876,-0.076876l0,3.613183c0,0.076876 0,0.076876 0.076876,0.076876c0.153752,0.076876 0.230629,0.153752 0.384381,0.230629c0.076876,0 0.230629,-0.076876 0.153752,-0.230629z" fill="#6290C3"/>
    <path stroke="null" d="m19.690585,37.838332c0.153752,-0.153752 0.230629,-0.230629 0.461257,-0.230629l0,-3.613183l0.461257,0l0,3.305678c0.461257,-0.230629 1.076267,-0.153752 1.460649,0.230629c0.461257,0.538134 0.076876,1.921906 0.076876,1.768154c0,-0.153752 -0.230629,-0.384381 -0.538134,-0.538134c0,0.538134 -0.153752,0.999391 -0.153752,0.845639c0.076876,-0.461257 -2.229411,-1.383772 -1.768154,-1.768154z" fill="#F4D3AA" id="XMLID_16_"/>
    <path stroke="null" id="svg_4" d="m19.844337,37.838332c0.076876,-0.076876 0.230629,-0.153752 0.384381,-0.230629c0.076876,0 0.076876,-0.076876 0.076876,-0.076876l0,-3.613183c-0.076876,0.076876 -0.076876,0.076876 -0.153752,0.076876c0.076876,0 0.461257,-0.076876 0.461257,0c-0.076876,-0.076876 -0.076876,0.153752 -0.076876,0.153752l0,3.151926c0,0.076876 0.153752,0 0.153752,0c0.691886,-0.384381 1.460649,0.153752 1.537525,0.922515c0,0.230629 0,0.461257 -0.076876,0.691886c0,0.076876 -0.153752,0.384381 -0.076876,0.384381l0.230629,0c-0.153752,-0.230629 -0.230629,-0.384381 -0.538134,-0.538134c-0.076876,-0.076876 -0.230629,0 -0.230629,0.076876c0,0.153752 -0.076876,0.384381 -0.076876,0.538134c-0.076876,0.153752 -0.153752,0.230629 0,0.230629l0.153752,0c-0.076876,-0.461257 -2.152535,-1.383772 -1.768154,-1.768154c0.076876,-0.076876 -0.153752,-0.076876 -0.153752,0c-0.461257,0.538134 1.691277,1.306896 1.768154,1.84503c0,0.076876 0.076876,0.076876 0.153752,0c0.307505,-0.076876 0.230629,-0.691886 0.230629,-0.922515c-0.076876,0 -0.153752,0.076876 -0.230629,0.076876c0.230629,0.153752 0.384381,0.307505 0.538134,0.538134c0.076876,0.076876 0.153752,0 0.153752,0c0.153752,-0.076876 0.153752,-0.307505 0.153752,-0.461257c0.076876,-0.384381 0.076876,-0.768762 0,-1.076267c-0.230629,-0.768762 -1.23002,-0.845639 -1.84503,-0.538134l0.153752,0l0,-3.305678c0,-0.076876 -0.076876,-0.076876 -0.076876,-0.076876l-0.538134,0c-0.076876,0 -0.153752,0.076876 -0.153752,0.076876l0,3.613183l0.076876,-0.076876c-0.153752,0.076876 -0.307505,0.153752 -0.461257,0.230629c-0.076876,0.076876 0.076876,0.076876 0.230629,0.076876z" fill="#6290C3"/>
   </g>
   <path stroke="null" id="svg_5" d="m31.298897,23.078093c-0.384381,-0.768762 -1.153144,-1.153144 -1.84503,-1.076267c-0.153752,0.076876 -0.384381,0.076876 -0.538134,0.230629c0,-2.229411 -0.076876,-4.305069 -0.230629,-6.303852c0,-0.768762 -0.384381,-1.537525 -0.845639,-1.998782c-0.076876,-0.076876 -0.153752,-0.153752 -0.307505,-0.230629c0,-0.076876 -0.076876,-0.153752 -0.076876,-0.153752c-0.307505,-0.845639 -0.076876,-1.614401 -0.384381,-1.998782c-0.461257,0 -1.84503,0.230629 -2.536916,0.538134c-0.461257,0.230629 -0.768762,0.461257 -1.076267,0.768762c-0.768762,-0.076876 -1.614401,-0.153752 -2.46004,-0.153752c-0.538134,-0.153752 -1.076267,-0.307505 -1.614401,-0.538134c-1.153144,-0.461257 -1.998782,-1.076267 -2.613792,-1.537525l2.152535,1.921906c-0.384381,-0.076876 -0.768762,-0.230629 -1.076267,-0.384381c-1.153144,-0.461257 -1.998782,-1.076267 -2.613792,-1.537525l2.46004,2.152535c-0.61501,0.076876 -1.153144,0.076876 -1.768154,0.153752c-0.230629,-0.230629 -0.61501,-0.538134 -1.153144,-0.845639c-0.691886,-0.384381 -2.152535,-0.538134 -2.536916,-0.538134c-0.307505,0.384381 0,1.153144 -0.384381,1.998782c0,0.076876 -0.076876,0.076876 -0.076876,0.153752c-0.230629,0.153752 -0.384381,0.230629 -0.538134,0.461257c-0.845639,0.845639 -0.845639,1.84503 -0.845639,1.998782c-0.153752,1.998782 -0.230629,4.074441 -0.307505,6.303852c-0.153752,-0.076876 -0.384381,-0.153752 -0.538134,-0.153752c-0.768762,-0.153752 -1.537525,0.307505 -1.84503,1.076267c-0.307505,0.845639 -0.691886,2.383163 -0.461257,4.305069c0.230629,1.998782 1.076267,3.459431 1.460649,4.151317c0.538134,-0.922515 1.076267,-2.229411 1.537525,-3.613183l0,-0.076876c0.076876,0.999391 0.153752,1.998782 0.230629,2.921297c0,0.768762 0.384381,1.537525 0.845639,1.998782c0.845639,0.845639 1.84503,0.845639 1.998782,0.845639c1.998782,0.230629 4.228193,0.384381 6.611357,0.307505c2.075659,0 3.997565,-0.153752 5.765718,-0.307505c0.768762,0 1.537525,-0.384381 1.998782,-0.845639c0.845639,-0.845639 0.845639,-1.84503 0.845639,-1.998782l0.153752,-2.844421c0.461257,1.460649 0.999391,2.613792 1.460649,3.613183c0.461257,-0.768762 1.23002,-2.152535 1.460649,-4.151317c0.384381,-2.229411 -0.076876,-3.843812 -0.307505,-4.612574z" fill="#78A6D1"/>
   <path stroke="null" id="svg_6" d="m31.529526,23.231846c-0.538134,-0.922515 -1.84503,-1.768154 -2.921297,-1.153144c0.153752,0.153752 0.307505,0.230629 0.461257,0.384381c0,-1.768154 -0.076876,-3.536307 -0.153752,-5.304461c-0.076876,-0.768762 0,-1.537525 -0.384381,-2.306287c-0.153752,-0.307505 -0.384381,-0.538134 -0.61501,-0.845639c-0.307505,-0.307505 -0.384381,-0.61501 -0.461257,-1.076267c-0.076876,-0.538134 0.076876,-1.076267 -0.384381,-1.460649c-0.153752,-0.076876 -0.230629,-0.153752 -0.384381,-0.230629c-0.230629,-0.076876 -0.538134,0.076876 -0.768762,0.076876c-0.61501,0.076876 -1.23002,0.230629 -1.768154,0.538134c-0.307505,0.153752 -0.538134,0.384381 -0.845639,0.538134c-0.153752,0.153752 -0.230629,0.153752 -0.461257,0.076876c-0.230629,0 -0.461257,-0.076876 -0.691886,-0.076876c-0.461257,-0.076876 -0.999391,0 -1.460649,-0.076876c-0.461257,-0.076876 -0.845639,-0.230629 -1.23002,-0.384381c-0.845639,-0.384381 -1.768154,-0.768762 -2.536916,-1.306896c-0.153752,-0.153752 -0.307505,-0.230629 -0.461257,-0.384381c0.61501,0.538134 1.153144,1.076267 1.768154,1.537525c0.076876,0.076876 0.230629,0.153752 0.384381,0.307505l0.076876,0.076876c0,0 -0.61501,-0.230629 -0.691886,-0.230629c-0.922515,-0.384381 -1.84503,-0.768762 -2.613792,-1.383772c-0.153752,-0.153752 -0.307505,-0.230629 -0.461257,-0.384381c0.538134,0.461257 1.076267,0.922515 1.537525,1.383772c0.230629,0.230629 0.61501,0.461257 0.768762,0.691886l0.076876,0.076876c0,0.076876 -0.230629,0 -0.307505,0.076876c-0.461257,0.076876 -0.922515,0.076876 -1.460649,0.076876c0.153752,0.153752 0.307505,0.230629 0.461257,0.384381c-0.461257,-0.461257 -1.076267,-0.922515 -1.691277,-1.23002c-0.384381,-0.153752 -0.768762,-0.230629 -1.23002,-0.384381c-0.384381,-0.076876 -0.845639,-0.230629 -1.153144,-0.153752c-0.153752,0.076876 -0.230629,0.153752 -0.230629,0.307505c-0.076876,0.230629 -0.076876,0.461257 -0.076876,0.61501c0,0.230629 0,0.461257 -0.076876,0.61501c-0.076876,0.153752 -0.076876,0.307505 -0.153752,0.461257c-0.076876,0.153752 -0.230629,0.230629 -0.384381,0.307505c-0.61501,0.538134 -1.076267,1.306896 -1.153144,2.152535c-0.076876,1.076267 -0.153752,1.998782 -0.230629,3.07505c-0.076876,0.538134 -0.076876,1.076267 -0.076876,1.614401c0,0.307505 0,0.61501 -0.076876,0.922515l0,0.768762c0.076876,0.153752 0,0.230629 -0.153752,0.076876c-0.153752,0 -0.230629,-0.076876 -0.384381,-0.153752c-0.076876,0 -0.230629,-0.076876 -0.307505,0c-0.230629,0 -0.461257,0.076876 -0.61501,0.153752c-0.461257,0.153752 -0.768762,0.538134 -0.922515,0.922515c-0.307505,0.768762 -0.461257,1.537525 -0.461257,2.306287c-0.153752,2.152535 0.384381,4.305069 1.537525,6.073223c0.076876,0.076876 0.461257,0.307505 0.461257,0.384381c0.61501,-1.153144 1.153144,-2.383163 1.537525,-3.69006c-0.153752,-0.153752 -0.307505,-0.230629 -0.461257,-0.384381c0.076876,1.076267 0.076876,2.229411 0.230629,3.305678c0.076876,0.845639 0.538134,1.537525 1.23002,1.998782c0.538134,0.384381 0.999391,0.691886 1.614401,0.845639c0.691886,0.153752 1.460649,0.153752 2.152535,0.230629c2.152535,0.153752 4.305069,0.230629 6.457604,0.153752c1.076267,-0.076876 2.075659,-0.076876 3.151926,-0.153752c0.922515,-0.076876 1.921906,-0.076876 2.767545,-0.61501c0.768762,-0.461257 1.23002,-1.23002 1.306896,-2.152535c0.153752,-1.076267 0.076876,-2.152535 0.153752,-3.151926c-0.153752,-0.153752 -0.307505,-0.230629 -0.461257,-0.384381c0.384381,1.23002 0.845639,2.46004 1.460649,3.613183c0.076876,0.076876 0.461257,0.384381 0.461257,0.384381c1.921906,-2.46004 2.306287,-5.611966 1.306896,-8.456387c-0.076876,-0.153752 -0.461257,-0.153752 -0.461257,-0.384381c0.999391,2.844421 0.61501,5.996347 -0.999391,8.456387c0.153752,0.153752 0.307505,0.230629 0.461257,0.384381c-0.61501,-1.153144 -1.076267,-2.306287 -1.460649,-3.613183c-0.076876,-0.153752 -0.461257,-0.230629 -0.461257,-0.384381c-0.076876,0.999391 -0.076876,1.921906 -0.153752,2.921297c-0.076876,0.61501 -0.230629,1.23002 -0.61501,1.691277c-0.538134,0.61501 -1.306896,1.076267 -2.152535,1.153144c-0.922515,0.076876 -1.84503,0.153752 -2.767545,0.230629c-2.075659,0.153752 -4.074441,0.153752 -6.226976,0.076876c-0.922515,-0.076876 -1.84503,-0.076876 -2.690668,-0.153752c-0.538134,-0.076876 -1.23002,-0.076876 -1.768154,-0.230629c-0.461257,-0.153752 -0.768762,-0.384381 -0.999391,-0.768762c-0.230629,-0.384381 -0.461257,-0.768762 -0.538134,-1.23002c-0.076876,-0.538134 -0.076876,-1.153144 -0.153752,-1.614401c-0.076876,-0.61501 -0.076876,-1.23002 -0.153752,-1.768154c0,-0.076876 -0.461257,-0.230629 -0.461257,-0.384381c-0.384381,1.23002 -0.922515,2.536916 -1.537525,3.69006c0.153752,0.153752 0.307505,0.230629 0.461257,0.384381c-1.306896,-1.998782 -1.84503,-4.535698 -1.460649,-6.918862c0.153752,-0.999391 0.461257,-2.229411 1.537525,-2.536916c0.230629,-0.076876 0.538134,-0.076876 0.845639,-0.076876c0.076876,0 0.461257,0.153752 0.461257,0.153752c0.076876,-0.076876 0,-0.61501 0,-0.691886c0,-0.768762 0.076876,-1.537525 0.076876,-2.383163c0.076876,-1.23002 0.076876,-2.46004 0.230629,-3.69006c0.076876,-0.538134 0.307505,-1.076267 0.61501,-1.460649c0.230629,-0.230629 0.461257,-0.384381 0.691886,-0.61501c0.230629,-0.230629 0.230629,-0.768762 0.230629,-1.076267c0,-0.230629 0,-0.538134 0.076876,-0.845639c0.076876,-0.307505 0.153752,-0.307505 0.384381,-0.230629c0.538134,0.076876 1.076267,0.153752 1.537525,0.307505c0.230629,0.076876 0.538134,0.153752 0.768762,0.230629c0.076876,0.076876 0.61501,0.384381 0.384381,0.230629c-0.230629,-0.153752 0.076876,0.076876 0.153752,0.153752l0.153752,0.153752c0.076876,0.076876 0.230629,0.153752 0.384381,0.230629c0.230629,0.153752 0.461257,0.076876 0.768762,0.076876c0.153752,0 1.153144,-0.076876 1.153144,-0.076876c0,-0.076876 -0.153752,-0.153752 -0.153752,-0.153752c-0.230629,-0.230629 -0.538134,-0.461257 -0.845639,-0.691886c-0.461257,-0.461257 -0.999391,-0.845639 -1.460649,-1.306896c-0.153752,-0.153752 -0.307505,-0.230629 -0.461257,-0.384381c0.538134,0.461257 1.153144,0.845639 1.768154,1.23002c0.538134,0.307505 1.076267,0.538134 1.537525,0.768762c0.076876,0.076876 0.845639,0.230629 0.922515,0.307505c0,0 -0.076876,-0.076876 -0.076876,-0.076876c-0.153752,-0.153752 -0.307505,-0.230629 -0.461257,-0.384381c-0.230629,-0.230629 -0.461257,-0.461257 -0.768762,-0.61501l-0.922515,-0.768762c-0.153752,-0.153752 -0.307505,-0.230629 -0.461257,-0.384381c1.460649,1.153144 3.305678,2.306287 5.227584,2.46004c0.307505,0 0.61501,0.076876 0.922515,0.076876c0.307505,0 0.61501,0.153752 0.922515,0.076876c0.153752,-0.076876 0.384381,-0.230629 0.538134,-0.384381l0.61501,-0.384381c0.768762,-0.307505 1.614401,-0.461257 2.46004,-0.538134c-0.153752,-0.153752 -0.307505,-0.230629 -0.461257,-0.384381c0.230629,0.307505 0.153752,0.691886 0.153752,1.076267c0,0.384381 0.076876,0.845639 0.230629,1.153144c0.153752,0.230629 0.384381,0.384381 0.538134,0.538134c0.153752,0.153752 0.230629,0.384381 0.384381,0.538134c0.153752,0.384381 0.230629,0.845639 0.230629,1.23002c0.076876,2.075659 0.153752,4.151317 0.153752,6.303852c0,0.076876 0.461257,0.384381 0.461257,0.384381c0.384381,-0.153752 0.768762,-0.230629 1.153144,-0.153752c0.461257,0.076876 0.538134,0.230629 0.768762,0.61501c0.384381,0.307505 0.691886,0.307505 0.768762,0.461257z" fill="#6290C3"/>
   <path stroke="null" d="m18.998699,17.543004c0.768762,1.998782 1.153144,5.996347 -1.84503,7.918253c-2.690668,1.691277 -6.226976,0.845639 -7.918253,-1.84503c-1.84503,-2.998173 0.153752,-6.380728 1.84503,-7.918253c0.384381,-0.384381 2.536916,-2.229411 4.843203,-1.537525c1.998782,0.61501 2.844421,2.767545 3.07505,3.382555z" fill="#FFFFFF" id="XMLID_14_"/>
   <path stroke="null" id="svg_7" d="m18.76807,17.543004c0.61501,1.84503 0.845639,3.997565 0,5.765718c-1.076267,2.46004 -3.997565,3.536307 -6.457604,2.613792c-1.153144,-0.461257 -2.152535,-1.23002 -2.844421,-2.306287c-0.768762,-1.23002 -0.922515,-2.613792 -0.538134,-3.997565c0.538134,-2.075659 1.998782,-3.920688 3.920688,-4.920079c0.768762,-0.461257 1.691277,-0.768762 2.613792,-0.538134c0.691886,0.153752 1.383772,0.538134 1.921906,0.999391c0.538134,0.61501 0.999391,1.460649 1.383772,2.383163c0.076876,0.076876 0.461257,0 0.461257,0c-0.384381,-0.922515 -0.768762,-1.768154 -1.460649,-2.46004c-0.922515,-0.845639 -2.152535,-1.23002 -3.382555,-1.076267c-2.306287,0.230629 -4.305069,2.075659 -5.304461,4.074441c-0.691886,1.383772 -1.076267,2.998173 -0.538134,4.458822c0.461257,1.306896 1.460649,2.46004 2.690668,3.151926c2.152535,1.153144 5.227584,0.845639 6.995738,-0.845639c1.921906,-1.84503 1.921906,-4.920079 1.076267,-7.303243c-0.153752,-0.076876 -0.538134,0 -0.538134,0z" fill="#6290C3"/>
   <path stroke="null" d="m20.305595,17.773633c-0.768762,1.998782 -1.153144,5.996347 1.84503,7.918253c2.690668,1.691277 6.226976,0.845639 7.918253,-1.84503c1.84503,-2.998173 -0.153752,-6.380728 -1.84503,-7.918253c-0.384381,-0.384381 -2.536916,-2.229411 -4.843203,-1.537525c-1.998782,0.61501 -2.767545,2.767545 -3.07505,3.382555z" fill="#FFFFFF" id="XMLID_13_"/>
   <path stroke="null" id="svg_8" d="m20.151842,17.773633c-0.768762,1.998782 -0.845639,4.612574 0.384381,6.457604c1.460649,2.229411 4.458822,2.844421 6.841985,1.998782c1.23002,-0.461257 2.306287,-1.306896 2.998173,-2.46004c0.845639,-1.306896 0.922515,-2.998173 0.461257,-4.458822c-0.768762,-2.152535 -2.536916,-4.228193 -4.689451,-4.920079c-1.383772,-0.461257 -2.998173,-0.307505 -4.151317,0.61501c-0.999391,0.768762 -1.460649,1.768154 -1.84503,2.767545c0,0.076876 0.461257,0.153752 0.461257,0c0.307505,-0.768762 0.691886,-1.537525 1.23002,-2.229411c0.999391,-1.076267 2.383163,-1.537525 3.766936,-1.076267c1.998782,0.61501 3.69006,2.46004 4.535698,4.381946c0.538134,1.23002 0.691886,2.690668 0.230629,3.997565c-0.461257,1.23002 -1.383772,2.306287 -2.536916,2.921297c-2.229411,1.23002 -5.304461,0.61501 -6.765109,-1.537525c-1.306896,-1.84503 -1.153144,-4.535698 -0.461257,-6.53448c0,0 -0.461257,0 -0.461257,0.076876z" fill="#6290C3"/>
   <path stroke="null" d="m19.536832,26.306895c-3.228802,0 -6.150099,5.535089 -5.458213,7.456995c0,0.076876 0,0.076876 0.076876,0.076876c1.691277,0.153752 3.536307,0.230629 5.535089,0.230629l0.153752,0c1.84503,0 3.613183,-0.153752 5.227584,-0.230629c0,-0.076876 0.076876,-0.076876 0.076876,-0.076876c0.538134,-1.998782 -2.383163,-7.456995 -5.611966,-7.456995z" fill="#FFFFFF" id="XMLID_12_"/>
   <path stroke="null" id="svg_9" d="m19.613709,26.306895c-1.383772,0 -2.536916,0.845639 -3.459431,1.84503c-0.999391,1.153144 -1.84503,2.536916 -2.152535,3.997565c-0.153752,0.61501 -0.230629,1.23002 0,1.84503c3.613183,0.307505 7.303243,0.307505 10.83955,-0.076876c0.076876,0 0.153752,0 0.153752,-0.076876c0.230629,-0.61501 0.153752,-1.383772 -0.076876,-2.075659c-0.230629,-0.922515 -0.61501,-1.768154 -1.153144,-2.536916c-0.845639,-1.383772 -2.306287,-2.921297 -4.151317,-2.921297c-0.076876,0 -0.230629,0.076876 -0.153752,0.076876c1.84503,0.076876 3.305678,1.614401 4.228193,3.07505c0.461257,0.768762 0.845639,1.537525 1.076267,2.383163c0.153752,0.61501 0.307505,1.383772 0.076876,1.998782c0.076876,0 0.076876,-0.076876 0.153752,-0.076876c-1.768154,0.153752 -3.459431,0.230629 -5.227584,0.230629c-0.922515,0 -1.84503,0 -2.690668,-0.076876c-0.384381,0 -0.768762,-0.076876 -1.23002,-0.076876c-0.461257,-0.076876 -0.922515,0 -1.383772,-0.076876c-0.307505,-0.076876 -0.307505,-0.153752 -0.384381,-0.461257c-0.076876,-0.230629 -0.076876,-0.461257 0,-0.61501c0.076876,-0.461257 0.153752,-0.922515 0.307505,-1.460649c0.384381,-1.076267 0.922515,-2.075659 1.614401,-2.921297c0.845639,-1.076267 1.998782,-1.998782 3.382555,-1.998782c0.153752,0.076876 0.307505,0 0.230629,0l0,0z" fill="#6290C3"/>
   <g stroke="null" id="svg_10" opacity="0.3">
    <ellipse stroke="null" ry="2.536916" rx="1.537525" cy="20.387425" cx="14.386124" fill="#EEF3F9" id="XMLID_11_"/>
    <g stroke="null" id="svg_11" opacity="0.9">
     <path stroke="null" id="svg_12" d="m15.69302,21.540569l0.076876,-0.076876c0,0 -0.076876,0 -0.076876,-0.076876c0,-0.076876 -0.076876,0.153752 -0.153752,0.384381c-0.076876,0.076876 0,0 0.153752,-0.230629z" fill="#F0F2F8"/>
     <path stroke="null" id="svg_13" d="m15.923649,20.771806c0,0.076876 0,0.153752 -0.076876,0.230629c0,0.076876 0,0.153752 -0.076876,0.230629c0.076876,-0.076876 0.076876,-0.153752 0.076876,-0.153752c0.076876,-0.076876 0.076876,-0.153752 0.076876,-0.230629l0,-0.230629c0.076876,-0.076876 0.076876,0 0,0.153752c0.076876,0.076876 0,0.153752 0,0.230629l0,-0.307505c0,0 0,0 0,0.076876l-0.076876,0.153752c0,0 0.076876,-0.153752 0.076876,-0.153752zm-0.999391,1.383772c0.076876,-0.076876 0.076876,-0.076876 0.076876,-0.153752l-0.076876,0.076876l-0.076876,0.076876c0.076876,0 0,0 0.076876,0l0,0l0,0l-0.076876,0l0.076876,0c-0.076876,0 -0.076876,0.076876 -0.153752,0.076876l-0.076876,0.076876c0.076876,0 0.153752,-0.076876 0.230629,-0.153752z" fill="#F0F2F8"/>
     <path stroke="null" id="svg_14" d="m14.155496,22.386207c0,0.076876 0,0.076876 0,0c0,0.076876 0.076876,0.076876 0.076876,0.076876c0.076876,0 0.076876,0.076876 0.076876,0.076876c-0.076876,0.076876 0.076876,0.153752 0.230629,0.153752s0.384381,-0.076876 0.461257,-0.153752c0.076876,-0.076876 0.230629,-0.153752 0.384381,-0.230629s0.230629,-0.230629 0.307505,-0.384381c0,-0.076876 0,-0.076876 0.076876,-0.153752c-0.076876,0.076876 -0.076876,0.153752 -0.076876,0.230629c0,-0.076876 0.076876,-0.153752 0.076876,-0.153752c0,0.076876 -0.076876,0.076876 -0.076876,0.076876l0,-0.076876c-0.076876,0.076876 -0.153752,0.153752 -0.230629,0.230629c-0.076876,0.076876 -0.153752,0.076876 -0.153752,0.076876l-0.076876,0.076876c-0.153752,0.230629 -0.230629,0.230629 -0.230629,0.153752c-0.076876,0.076876 -0.230629,0.153752 -0.307505,0.153752c-0.153752,0 -0.230629,-0.076876 -0.307505,-0.076876l-0.076876,0c-0.153752,-0.076876 -0.153752,-0.076876 -0.153752,-0.076876c0,0 0,0 0,0z" fill="#EEF1F8"/>
     <path stroke="null" id="svg_15" d="m16.000525,20.387425c0.076876,0 0.076876,-0.076876 0.076876,-0.153752c0,-0.076876 0.076876,-0.076876 0.076876,-0.153752s0,-0.153752 0.076876,-0.153752c0.076876,-0.230629 0,-0.61501 -0.153752,-0.922515c-0.153752,-0.384381 -0.307505,-0.691886 -0.538134,-0.999391c-0.153752,-0.153752 -0.307505,-0.307505 -0.538134,-0.384381c-0.230629,-0.076876 -0.461257,-0.153752 -0.768762,-0.076876c0.076876,0 0.076876,0 0.076876,0.076876c0,0 0,0.076876 -0.076876,0.076876s-0.076876,0.076876 -0.153752,0.076876c-0.076876,0 -0.076876,0.076876 -0.076876,0.076876s-0.153752,-0.153752 -0.153752,-0.076876c-0.076876,0.076876 -0.076876,0.076876 -0.153752,0.076876c-0.076876,0.076876 -0.076876,0.076876 -0.153752,0.076876c-0.076876,0.076876 -0.076876,0.076876 -0.153752,0.076876c0,0.076876 0,0.076876 0,0.076876c-0.153752,0.153752 -0.153752,0.307505 -0.230629,0.461257s-0.076876,0.230629 -0.153752,0.461257c0.076876,-0.076876 0.076876,-0.076876 0.153752,-0.153752c0.153752,-0.230629 0.307505,-0.461257 0.538134,-0.768762c0.076876,-0.076876 0.153752,-0.076876 0.153752,-0.076876c0.076876,0 0.076876,0 -0.076876,0.076876c0.153752,-0.076876 0.230629,-0.153752 0.384381,-0.230629c0.076876,0 0.153752,-0.076876 0.153752,-0.076876l0.307505,0c0.076876,0 0.076876,0 0.076876,0.076876c0.076876,0 0.076876,0 0.076876,0.076876c0,0 0.076876,0 0.076876,0.076876c0.076876,0.076876 0.076876,0.076876 0.076876,0.076876c0,0.076876 -0.076876,0.076876 0,0.153752c0,0.076876 0.076876,0.076876 0.076876,0.076876c0.153752,0.076876 0.384381,0.230629 0.461257,0.384381c0.153752,0.153752 0.230629,0.384381 0.384381,0.538134c0.076876,0.076876 0.076876,0.230629 0.076876,0.384381c0.076876,0.153752 0.076876,0.461257 0.153752,0.61501c-0.153752,0.076876 -0.153752,0.153752 -0.076876,0.153752z" fill="#C2CFE6"/>
     <path stroke="null" id="svg_16" d="m12.464218,20.07992l0,-0.461257c-0.076876,0.230629 -0.076876,0.461257 -0.153752,0.691886c0,0.076876 0.076876,0.153752 0.076876,0.153752c0.076876,-0.076876 0.076876,-0.230629 0.076876,-0.384381z" fill="#CAD5E9"/>
     <path stroke="null" id="svg_17" d="m14.386124,18.081138c0.076876,-0.076876 0,-0.076876 0,0l-0.230629,-0.076876c-0.230629,0.076876 -0.384381,0.230629 -0.538134,0.307505l-0.153752,0.153752c0,0 -0.076876,0.076876 -0.076876,-0.076876c-0.076876,0.076876 -0.076876,0.076876 -0.076876,0.153752l-0.076876,0.076876l0,0.076876c-0.076876,0.153752 0.076876,-0.153752 -0.076876,-0.076876c-0.153752,0.230629 -0.230629,0.538134 -0.230629,0.691886c-0.076876,0.076876 -0.076876,0.153752 -0.076876,0.153752c-0.076876,0 -0.076876,0 -0.076876,-0.076876l0,-0.384381c0,-0.153752 0.153752,-0.384381 0.230629,-0.61501c-0.076876,0.076876 -0.230629,0.384381 -0.153752,0.153752l0.153752,-0.230629c0,-0.076876 0.076876,-0.076876 0.076876,-0.153752s0.076876,-0.076876 0.076876,-0.076876c-0.153752,0.230629 -0.307505,0.461257 -0.384381,0.768762c-0.076876,0.230629 -0.153752,0.461257 -0.153752,0.61501c0,0.076876 -0.076876,0.076876 -0.076876,0.153752c0,0.076876 -0.076876,0.076876 -0.076876,0.153752l0,0.461257c-0.076876,0.076876 -0.076876,0.230629 -0.076876,0.461257c0,0.076876 0.076876,0.153752 0.076876,0.153752c0.076876,0.076876 0.076876,-0.076876 0.076876,-0.153752l0,-0.230629c0,-0.076876 0,-0.153752 0.076876,-0.153752c0,0.307505 0.076876,0.538134 0.076876,0.538134c0.076876,0.076876 0.076876,0.076876 0.153752,-0.076876c0.076876,-0.076876 0.076876,-0.153752 0.076876,-0.230629c0.076876,-0.076876 0.076876,-0.153752 0.076876,-0.307505c0,-0.076876 0,-0.153752 0.076876,-0.230629c0,-0.076876 0,-0.153752 0.076876,-0.230629l0,0.153752c0.076876,-0.307505 0.153752,-0.384381 0.230629,-0.768762c0,0 0.076876,0 0,0.076876c0,-0.076876 0.076876,-0.153752 0.076876,-0.153752s0.076876,-0.076876 0.076876,-0.153752c0.076876,-0.076876 0.076876,-0.076876 0.153752,-0.076876c0.076876,0 0.076876,-0.076876 0.153752,-0.153752c0,0 0,-0.076876 0.076876,-0.076876c0,0 0,-0.076876 0.076876,-0.076876l0.076876,-0.076876c0.076876,-0.153752 0.230629,-0.307505 0.384381,-0.384381c0.153752,-0.076876 0.230629,-0.076876 0.384381,-0.076876l-0.076876,0c-0.307505,0.076876 -0.307505,0.076876 -0.384381,0.076876c0.076876,0 0,0 0,0z" fill="#CAD5E9"/>
     <path stroke="null" id="svg_18" d="m14.770506,18.081138c-0.076876,-0.076876 0,-0.076876 0,-0.153752c0,0 0,-0.076876 -0.076876,-0.076876c0,0 -0.076876,0 -0.076876,-0.076876c0,0 -0.076876,0 -0.076876,-0.076876c-0.076876,0 -0.076876,0 -0.076876,-0.076876l-0.307505,0c-0.076876,0 -0.153752,0.076876 -0.153752,0.076876c-0.153752,0.076876 -0.230629,0.076876 -0.384381,0.230629c0.076876,-0.076876 0.076876,-0.076876 0.076876,-0.076876c-0.076876,0 -0.153752,0.076876 -0.153752,0.076876c-0.230629,0.307505 -0.384381,0.538134 -0.538134,0.768762c-0.076876,0.076876 -0.076876,0.076876 -0.153752,0.153752c0.076876,-0.230629 0.153752,-0.384381 0.153752,-0.461257c0.076876,-0.153752 0.076876,-0.230629 0.230629,-0.461257c0,0 0.076876,-0.076876 0.076876,-0.076876c0.076876,-0.076876 0.076876,-0.076876 0.153752,-0.076876c0.076876,-0.076876 0.076876,-0.076876 0.153752,-0.076876c0.076876,-0.076876 0.076876,-0.076876 0.153752,-0.076876c0.076876,-0.076876 0.076876,-0.076876 0.153752,-0.076876c0.076876,0 0.076876,-0.076876 0.076876,-0.076876c0.076876,-0.076876 0.076876,-0.076876 0.153752,-0.076876c0.076876,0 0.076876,-0.076876 0.076876,-0.076876s-0.076876,-0.076876 -0.076876,-0.076876c-0.076876,0 -0.153752,0.076876 -0.230629,0.076876c-0.076876,0 -0.076876,0.076876 -0.153752,0.076876l-0.153752,0.076876c-0.076876,0.076876 -0.153752,0.076876 -0.230629,0.153752l-0.153752,0.153752c0,0.076876 -0.076876,0.076876 -0.076876,0.076876c0,0.230629 -0.076876,0.230629 -0.076876,0.230629c0,0.076876 -0.076876,0.076876 -0.076876,0.153752l-0.153752,0.230629c-0.076876,0.153752 0.153752,-0.153752 0.153752,-0.153752c-0.153752,0.230629 -0.307505,0.461257 -0.230629,0.61501l0,0.384381c0,0.076876 0.076876,0.076876 0.076876,0.076876c0.076876,0 0.076876,-0.076876 0.076876,-0.153752c0.076876,-0.153752 0.153752,-0.384381 0.230629,-0.691886c0.076876,-0.076876 -0.076876,0.153752 0.076876,0.076876l0,-0.076876l0.076876,-0.076876c0.076876,-0.076876 0.076876,-0.076876 0.076876,-0.153752c-0.076876,0.076876 0.076876,0 0.076876,0.076876l0.153752,-0.153752c0.153752,-0.076876 0.307505,-0.230629 0.538134,-0.307505l0.153752,0c0.076876,0 0.076876,0.076876 0.076876,0.076876l0.153752,0c0,0 0.153752,0 0.230629,0.076876c0,0.153752 0,0.076876 0,0z" fill="#C5D2E7"/>
     <path stroke="null" id="svg_19" d="m13.694238,18.619271c-0.076876,0.076876 -0.076876,0.153752 -0.153752,0.153752c-0.076876,0 -0.076876,0 -0.153752,0.076876c-0.076876,0.076876 -0.076876,0.076876 -0.076876,0.153752c0,0 -0.076876,0.076876 -0.076876,0.153752c0.076876,-0.076876 0,-0.076876 0,-0.076876c-0.153752,0.384381 -0.153752,0.461257 -0.230629,0.768762l0,-0.230629c0,0.076876 0,0.153752 -0.076876,0.230629c0,0.076876 0,0.153752 -0.076876,0.230629c-0.076876,0.153752 -0.076876,0.230629 -0.076876,0.307505c0,0.076876 -0.076876,0.153752 -0.076876,0.230629c-0.076876,0.076876 -0.076876,0.153752 -0.153752,0.076876c-0.076876,-0.076876 -0.076876,-0.230629 -0.076876,-0.538134c0,0.076876 -0.076876,0.076876 -0.076876,0.153752l0,0.230629c0,0.153752 0,0.230629 -0.076876,0.153752c0,-0.076876 -0.076876,-0.076876 -0.076876,-0.153752c0,0.230629 0.076876,0.461257 0.076876,0.691886c0.076876,0.230629 0.153752,0.461257 0.230629,0.768762c0.076876,0 0.076876,0 0,-0.076876c0,-0.076876 -0.076876,-0.153752 -0.076876,-0.153752l0,-0.153752c0,-0.076876 0,-0.076876 0.076876,-0.153752c0.076876,-0.076876 0.076876,-0.076876 0.076876,-0.307505l0,-0.384381c0.076876,-0.153752 0.153752,0 0.153752,-0.153752l0,-0.307505c0.076876,-0.076876 0.076876,-0.076876 0.153752,-0.230629c0,-0.076876 0.076876,-0.153752 0.076876,-0.153752c0,-0.076876 0.076876,-0.153752 0.076876,-0.153752c0.076876,-0.076876 0.076876,-0.153752 0.076876,-0.230629c0.076876,-0.076876 0.076876,-0.153752 0.076876,-0.153752l0.076876,-0.076876l0.076876,-0.076876c0.076876,-0.230629 0.153752,-0.461257 0.230629,-0.691886l-0.076876,0.076876c0.153752,0 0.153752,0 0.153752,0c0,0 0,0 0,0z" fill="#CDD7EA"/>
     <path stroke="null" id="svg_20" d="m15.923649,22.616836c0,-0.076876 0.076876,-0.076876 0.076876,-0.076876c0,-0.076876 0.076876,-0.076876 0.076876,-0.076876c0.076876,-0.076876 0.076876,-0.153752 0.076876,-0.230629c-0.153752,0.307505 -0.384381,0.461257 -0.461257,0.61501c-0.076876,0.076876 -0.153752,0.153752 -0.230629,0.153752c-0.076876,0.076876 -0.153752,0.076876 -0.230629,0.076876c0,0 -0.076876,0.076876 -0.230629,0.076876c-0.076876,0.076876 -0.153752,0.076876 -0.153752,0.076876c-0.076876,0.076876 -0.153752,0.076876 -0.230629,0.076876l-0.230629,0c-0.076876,0 -0.153752,0 -0.230629,-0.076876c-0.076876,0 -0.153752,-0.076876 -0.153752,-0.076876s-0.153752,0 -0.153752,0l0.153752,0c0.076876,0 0.230629,0.076876 0.384381,0c-0.076876,0 -0.153752,0 -0.153752,-0.076876c-0.076876,0 -0.076876,-0.076876 -0.153752,-0.076876c-0.076876,0 -0.076876,-0.076876 -0.153752,-0.076876c-0.076876,0.076876 -0.076876,0.076876 -0.076876,0.076876l-0.153752,-0.153752l-0.076876,-0.076876l-0.076876,-0.076876c-0.076876,-0.076876 -0.076876,-0.076876 -0.076876,-0.153752c0,-0.076876 -0.076876,-0.076876 -0.076876,-0.153752c-0.076876,-0.076876 -0.076876,-0.076876 -0.076876,-0.153752c-0.076876,-0.076876 -0.076876,-0.153752 -0.076876,-0.153752c-0.076876,-0.230629 -0.076876,-0.538134 -0.076876,-0.691886c0,-0.076876 0,-0.153752 0.076876,-0.230629c0.076876,-0.076876 0.076876,-0.076876 0.076876,-0.153752c0.076876,-0.076876 0.076876,-0.384381 0.076876,-0.61501c-0.076876,-0.076876 -0.076876,-0.230629 -0.076876,-0.384381c0,0.076876 -0.076876,0.153752 -0.076876,0.230629c0,0.076876 -0.076876,0.076876 -0.076876,0.153752c-0.076876,0.076876 -0.153752,0.153752 -0.153752,0.230629c-0.076876,0.153752 -0.076876,0.384381 0,0.61501c0.076876,0.230629 -0.153752,0.076876 -0.153752,0.230629l0,0.307505c0,0.076876 0.076876,0.153752 0.076876,0.230629s0.076876,0.153752 0.076876,0.230629c0.076876,0.076876 0.076876,0.153752 0.076876,0.230629c0,0.076876 0.076876,0.076876 0.076876,0.153752c0.076876,0.076876 0.076876,0.153752 0.153752,0.230629c0.153752,0.076876 0.384381,0.230629 0.538134,0.230629c0.076876,0.076876 0.230629,0.076876 0.307505,0.076876l0.461257,0c0.076876,0 0.153752,-0.076876 0.230629,-0.076876c0.076876,-0.076876 0.153752,-0.076876 0.153752,-0.076876c0.076876,-0.076876 0.153752,-0.076876 0.230629,-0.153752c0.076876,-0.076876 0.076876,-0.076876 0.153752,-0.076876c0.076876,-0.076876 0.076876,-0.076876 0.153752,-0.076876c0.076876,-0.076876 0.153752,-0.076876 0.153752,-0.153752c0.076876,-0.076876 0.076876,-0.076876 0.076876,-0.076876c0,-0.076876 0.076876,-0.076876 0.076876,-0.076876c0,0.307505 0.076876,0.307505 0.076876,0.230629l0,0z" fill="#DAE1EF"/>
     <path stroke="null" id="svg_21" d="m13.156104,20.07992c0,0.230629 -0.076876,0.153752 -0.153752,0.230629c-0.076876,0.076876 0,0.307505 0,0.307505c-0.076876,0.153752 -0.153752,0 -0.153752,0.153752l0,0.384381c0,0.230629 -0.076876,0.230629 -0.076876,0.307505c0,0.076876 -0.076876,0.076876 -0.076876,0.153752l0,0.153752c0,0.076876 0,0.076876 0.076876,0.153752l0,0.076876c-0.076876,-0.076876 0.076876,0.230629 0.076876,0.307505c0.076876,0.076876 0.076876,0.153752 0.153752,0.230629c0,0 0.076876,0.153752 0.076876,0.153752c0.076876,0.076876 0.076876,0.076876 0.153752,0.153752c0.076876,0.076876 0.076876,0.153752 0.153752,0.153752c0.076876,0.076876 0.076876,0.076876 0.153752,0.153752c-0.076876,-0.076876 -0.153752,-0.153752 -0.153752,-0.230629c-0.076876,-0.076876 -0.076876,-0.153752 -0.076876,-0.153752c-0.076876,-0.076876 -0.076876,-0.153752 -0.076876,-0.230629c0,-0.076876 -0.076876,-0.153752 -0.076876,-0.230629c0,-0.076876 -0.076876,-0.153752 -0.076876,-0.230629l0,-0.307505c0,-0.153752 0.153752,0 0.153752,-0.230629c-0.076876,-0.307505 -0.076876,-0.538134 0,-0.61501c0.076876,-0.153752 0.076876,-0.230629 0.153752,-0.230629c0,0 0.076876,-0.076876 0.076876,-0.153752c0,-0.076876 0.076876,-0.153752 0.076876,-0.230629l0,-0.230629c0,-0.076876 0,-0.076876 0.076876,-0.153752l0,-0.076876c0,-0.076876 0,-0.153752 0.076876,-0.230629c0,-0.076876 0,-0.153752 0.076876,-0.230629l-0.076876,0.076876l-0.076876,0.076876c-0.076876,0.076876 -0.076876,0.076876 -0.076876,0.153752c-0.076876,0.076876 -0.076876,0.153752 -0.076876,0.230629c0,0.076876 -0.076876,0.076876 -0.076876,0.153752c-0.230629,-0.076876 -0.230629,0 -0.230629,0l0,0z" fill="#D5DEED"/>
     <path stroke="null" id="svg_22" d="m16.30803,21.771197c0,-0.076876 0.076876,-0.153752 0.076876,-0.230629c0.076876,-0.230629 0.076876,-0.153752 0.076876,-0.307505l0,-0.076876c-0.076876,0.153752 -0.076876,0.230629 -0.153752,0.230629c-0.076876,0.153752 -0.076876,0.230629 -0.076876,0.307505c-0.076876,0 -0.076876,0.076876 -0.076876,0.076876l-0.076876,0.076876c-0.076876,0.076876 -0.153752,0.153752 -0.153752,0.230629l-0.153752,0.153752c-0.076876,0.076876 -0.076876,0.076876 -0.153752,0.153752c-0.076876,0.076876 -0.076876,0.153752 -0.153752,0.230629c-0.076876,0.076876 -0.153752,0.076876 -0.307505,0.153752c-0.153752,0.153752 -0.153752,0.076876 -0.230629,0.076876c0,0 -0.076876,-0.076876 -0.076876,-0.076876l-0.076876,0c-0.076876,0 -0.076876,0 -0.153752,0.076876c-0.076876,0 -0.153752,0.076876 -0.307505,0.076876c-0.076876,0 -0.153752,-0.076876 -0.230629,-0.076876c0,-0.076876 0.076876,-0.076876 0.076876,-0.076876l0,-0.076876c0,0 -0.076876,-0.076876 -0.076876,-0.076876c-0.153752,-0.076876 -0.230629,-0.153752 -0.384381,-0.307505c0,-0.076876 -0.076876,-0.076876 -0.076876,-0.076876c0,-0.076876 -0.076876,-0.076876 -0.076876,-0.076876s-0.076876,-0.076876 -0.076876,-0.076876l0,-0.076876c-0.076876,-0.153752 -0.076876,-0.230629 -0.076876,-0.307505c0,-0.076876 0.076876,-0.153752 0.076876,-0.153752c-0.076876,-0.230629 -0.153752,-0.61501 -0.230629,-0.922515c-0.076876,0.230629 0,0.61501 -0.076876,0.61501c-0.076876,0 -0.076876,0.076876 -0.076876,0.153752c0.076876,0 0.076876,0.076876 0.076876,0.153752c0,0.153752 0.076876,0.461257 0.153752,0.691886c0.076876,0.076876 0.076876,0.153752 0.076876,0.153752c0.076876,0.076876 0.076876,0.076876 0.076876,0.153752s0.076876,0.076876 0.076876,0.153752s0.076876,0.076876 0.076876,0.153752l0.076876,0.076876l0.076876,0.076876l0.153752,0.153752c0.076876,0 0.076876,0.076876 0.076876,0.076876c0.076876,0.076876 0.076876,0.076876 0.153752,0.076876s0.076876,0.076876 0.153752,0.076876s0.153752,0.076876 0.153752,0.076876l-0.61501,0c0,0 0.076876,0.076876 0.076876,0.076876c0.076876,0 0.076876,0.076876 0.153752,0.076876c0.076876,0 0.153752,0.076876 0.230629,0.076876l0.307505,0c0.076876,0 0.153752,-0.076876 0.230629,-0.076876c0.076876,-0.076876 0.153752,-0.076876 0.153752,-0.076876c0.076876,-0.076876 0.153752,-0.076876 0.230629,-0.076876s0.153752,-0.076876 0.230629,-0.076876c0.076876,-0.076876 0.153752,-0.076876 0.230629,-0.153752c0.153752,-0.153752 0.384381,-0.307505 0.461257,-0.61501c0.076876,-0.076876 0.076876,-0.153752 0.076876,-0.230629c0,-0.461257 0.076876,-0.538134 0.076876,-0.61501l0,0z" fill="#DFE5F1"/>
     <path stroke="null" id="svg_23" d="m14.155496,22.53996c0.076876,0.076876 0.076876,0.076876 0.076876,0.076876l0,0.076876c0,0.076876 -0.076876,0.076876 -0.076876,0.076876c0,0.076876 0.076876,0.076876 0.230629,0.076876c0.076876,0 0.230629,0 0.307505,-0.076876c0.076876,0 0.076876,-0.076876 0.153752,-0.076876l0.076876,0c0.076876,0 0.076876,0 0.076876,0.076876s0.076876,0.076876 0.230629,-0.076876c0.076876,-0.076876 0.153752,-0.153752 0.230629,-0.230629c0.076876,-0.076876 0.153752,-0.153752 0.153752,-0.230629c0.076876,-0.076876 0.076876,-0.153752 0.153752,-0.153752l0.153752,-0.153752c0.076876,-0.076876 0.153752,-0.153752 0.153752,-0.230629l0.076876,-0.076876c0.076876,-0.076876 0.076876,-0.076876 0.076876,-0.076876c0.076876,-0.076876 0.076876,-0.153752 0.076876,-0.307505l-0.076876,-0.076876c0,0 -0.076876,0.076876 -0.076876,0.153752c-0.076876,0.076876 -0.076876,0.230629 -0.153752,0.307505c-0.076876,0.076876 -0.076876,0 -0.076876,-0.076876l0,-0.384381c-0.076876,0.076876 -0.076876,0.153752 -0.076876,0.153752c0,0.076876 0,0.076876 -0.076876,0.076876l0,-0.076876c-0.076876,0.076876 -0.076876,0.153752 -0.153752,0.153752l-0.153752,0.153752c0,0.076876 0,0.076876 -0.076876,0.076876c0,-0.076876 0,-0.076876 0.076876,-0.076876c-0.076876,0.076876 -0.076876,0.153752 -0.153752,0.153752c-0.076876,0.076876 -0.076876,0.153752 -0.153752,0.230629c-0.076876,0.076876 -0.076876,0.153752 -0.153752,0.153752c-0.076876,0.076876 -0.076876,0.076876 -0.076876,0.076876s-0.076876,0.076876 -0.076876,0.076876c-0.076876,0.076876 -0.230629,0.153752 -0.461257,0.153752l-0.153752,0c-0.076876,0 -0.076876,-0.076876 -0.076876,-0.076876l-0.153752,0l0.076876,-0.076876c-0.076876,0 -0.076876,-0.076876 -0.076876,-0.076876c0,-0.076876 -0.076876,-0.076876 -0.076876,-0.076876l0.076876,0c0,0 0.076876,0 0.076876,0.076876c-0.076876,0 -0.076876,-0.076876 -0.076876,-0.076876l-0.153752,0l0.153752,0c-0.076876,-0.076876 -0.076876,-0.076876 -0.153752,-0.153752c0,0 -0.076876,0 -0.076876,-0.076876c0,0 0.076876,0 0.076876,0.076876l0,-0.076876l-0.076876,0l-0.076876,-0.076876c0,0 -0.076876,-0.076876 -0.076876,-0.076876c-0.076876,-0.076876 -0.076876,-0.076876 -0.153752,-0.153752l0,-0.153752c0,-0.076876 -0.076876,-0.153752 -0.076876,-0.230629c-0.076876,0.076876 -0.076876,0.076876 -0.076876,0.153752s0,0.153752 0.076876,0.307505l0,0.076876c0,0.076876 0.076876,0.076876 0.076876,0.076876s0.076876,0.076876 0.076876,0.076876s0.076876,0.076876 0.076876,0.076876c0.307505,0.384381 0.384381,0.538134 0.538134,0.538134l0,0z" fill="#E7EBF5"/>
    </g>
   </g>
   <path stroke="null" d="m15.001134,20.310549c-0.307505,0 -0.538134,-0.384381 -0.538134,-0.922515c0,-0.230629 0.076876,-0.384381 0.153752,-0.538134c-0.076876,-0.076876 -0.153752,-0.076876 -0.230629,-0.076876c-0.538134,0 -0.999391,0.768762 -0.999391,1.614401c0,0.922515 0.461257,1.614401 0.999391,1.614401c0.538134,0 0.999391,-0.768762 0.999391,-1.614401l0,-0.307505c-0.153752,0.230629 -0.230629,0.230629 -0.384381,0.230629z" fill="#4E5057" id="XMLID_10_"/>
   <path stroke="null" id="svg_24" d="m15.07801,20.233672c-0.61501,-0.076876 -0.538134,-1.076267 -0.384381,-1.383772c0,-0.076876 -0.076876,-0.076876 -0.076876,-0.076876c-0.538134,-0.153752 -0.999391,0.230629 -1.23002,0.691886c-0.307505,0.61501 -0.230629,1.537525 0.153752,2.152535c0.230629,0.461257 0.768762,0.61501 1.23002,0.307505c0.61501,-0.384381 0.691886,-1.23002 0.61501,-1.84503c0,-0.076876 -0.153752,0 -0.230629,0c0,0.153752 -0.076876,0.153752 -0.076876,0.153752c-0.153752,0 -0.230629,0.153752 -0.076876,0.153752c0.153752,-0.076876 0.230629,-0.076876 0.461257,-0.230629l-0.230629,0c0.076876,0.538134 -0.153752,2.075659 -0.999391,1.768154c-0.61501,-0.230629 -0.768762,-1.23002 -0.691886,-1.84503c0.076876,-0.307505 0.153752,-0.61501 0.307505,-0.922515c0.153752,-0.153752 0.384381,-0.384381 0.538134,-0.307505c0.153752,0.076876 0.076876,0.153752 0.076876,0.230629l0,0.230629c0,0.384381 0.153752,0.922515 0.61501,0.922515c0,0.153752 0.076876,0.076876 0,0z" fill="#4F5057"/>
   <g stroke="null" id="svg_25" opacity="0.3">
    <ellipse stroke="null" ry="2.536916" rx="1.537525" cy="20.541177" cx="24.764417" fill="#EEF3F9" id="XMLID_9_"/>
    <g stroke="null" id="svg_26" opacity="0.9">
     <path stroke="null" id="svg_27" d="m26.071313,21.694321l0.076876,-0.076876c0,0 -0.076876,0 -0.076876,-0.076876c0,-0.076876 -0.076876,0.153752 -0.153752,0.384381c-0.076876,0.076876 0,0.076876 0.153752,-0.230629z" fill="#F0F2F8"/>
     <path stroke="null" id="svg_28" d="m26.609447,20.618054l0,-0.153752c-0.076876,0.153752 -0.076876,0.153752 0,0.153752z" fill="#EDF0F7"/>
     <path stroke="null" id="svg_29" d="m26.301942,20.925559c0,0.076876 0,0.153752 -0.076876,0.230629c0,0.076876 0,0.153752 -0.076876,0.230629c0.076876,-0.076876 0.076876,-0.153752 0.076876,-0.153752c0.076876,-0.076876 0.076876,-0.153752 0.076876,-0.230629l0,-0.230629c0.076876,-0.076876 0.076876,0 0,0.153752c0.076876,0.076876 0,0.153752 0,0.230629l0,-0.307505c0,0.076876 0,0.076876 0,0.076876l-0.076876,0.153752c0.076876,0 0.076876,-0.153752 0.076876,-0.153752zm-0.999391,1.460649c0,0 0.076876,0 0,0c0.076876,-0.076876 0.076876,-0.076876 0.076876,-0.153752l0,0l-0.076876,0.076876l0,0.076876l0,0l0,0l-0.076876,0l0.076876,0c-0.076876,0 -0.076876,0.076876 -0.153752,0.076876l-0.076876,0.076876c0.076876,-0.076876 0.230629,-0.153752 0.230629,-0.153752z" fill="#F0F2F8"/>
     <path stroke="null" id="svg_30" d="m24.533788,22.53996c0,0 0,0 0,0c0,0.076876 0.076876,0.076876 0.076876,0.076876c0.076876,0 0.076876,0.076876 0.076876,0.076876c-0.076876,0.076876 0.076876,0.153752 0.230629,0.153752c0.153752,0 0.384381,-0.076876 0.461257,-0.153752c0.076876,-0.076876 0.230629,-0.153752 0.384381,-0.230629s0.230629,-0.230629 0.307505,-0.384381c0,-0.076876 0,-0.076876 0.076876,-0.153752c-0.076876,0.076876 -0.076876,0.153752 -0.076876,0.230629c0,-0.076876 0.076876,-0.153752 0.076876,-0.153752c0,0.076876 -0.076876,0.076876 -0.076876,0.076876l0,-0.153752c-0.076876,0.076876 -0.153752,0.153752 -0.230629,0.230629c-0.076876,0.076876 -0.153752,0.076876 -0.153752,0.076876l-0.076876,0.076876c-0.153752,0.230629 -0.230629,0.230629 -0.230629,0.153752c-0.076876,0.076876 -0.230629,0.153752 -0.307505,0.153752c-0.153752,0 -0.230629,-0.076876 -0.307505,-0.076876l-0.153752,0c0,0 0,0 -0.076876,0c0.076876,0 0.076876,0 0,0z" fill="#EEF1F8"/>
     <path stroke="null" id="svg_31" d="m26.378818,20.541177c0.076876,0 0.076876,-0.076876 0.076876,-0.153752c0,-0.076876 0.076876,-0.076876 0.076876,-0.153752s0,-0.153752 0.076876,-0.153752c0.076876,-0.230629 0,-0.61501 -0.153752,-0.922515s-0.307505,-0.691886 -0.538134,-0.999391c-0.153752,-0.153752 -0.307505,-0.307505 -0.538134,-0.384381c-0.230629,-0.076876 -0.461257,-0.153752 -0.768762,-0.076876c0.076876,0 0.076876,0 0.076876,0.076876c0,0 0,0.076876 -0.076876,0.076876s-0.076876,0.076876 -0.153752,0.076876c-0.076876,0 -0.076876,0.076876 -0.076876,0.076876c-0.076876,0 -0.076876,0.076876 -0.153752,0.076876c-0.076876,0.076876 -0.076876,0.076876 -0.153752,0.076876c0,-0.076876 -0.076876,-0.076876 -0.076876,-0.076876c-0.076876,0.076876 -0.076876,0.076876 -0.153752,0.076876c-0.076876,0.076876 -0.076876,0.076876 -0.076876,0.076876c-0.153752,0.153752 -0.153752,0.307505 -0.230629,0.461257c-0.076876,0.153752 -0.076876,0.230629 -0.153752,0.461257c0.076876,-0.076876 0.076876,-0.076876 0.153752,-0.153752c0.153752,-0.230629 0.307505,-0.461257 0.538134,-0.768762c0.076876,-0.076876 0.153752,-0.076876 0.153752,-0.076876c0.076876,0 0.076876,0 -0.076876,0.076876c0.153752,-0.076876 0.230629,-0.153752 0.384381,-0.230629c0.076876,0 0.153752,-0.076876 0.153752,-0.076876l0.307505,0c0.076876,0 0.076876,0 0.076876,0.076876c0.076876,0 0.076876,0 0.076876,0.076876c0,0 0.076876,0 0.076876,0.076876c0.076876,0.076876 0.076876,0.076876 0.076876,0.076876c0,0.076876 -0.076876,0.076876 0,0.153752c0,0.076876 0.076876,0.076876 0.076876,0.076876c0.153752,0.076876 0.384381,0.230629 0.461257,0.384381c0.153752,0.153752 0.230629,0.384381 0.384381,0.538134c0.076876,0.076876 0.076876,0.230629 0.076876,0.384381c0.076876,0.153752 0.076876,0.461257 0.153752,0.61501c-0.153752,0.076876 -0.076876,0.153752 -0.076876,0.153752z" fill="#C2CFE6"/>
     <path stroke="null" id="svg_32" d="m22.919387,20.310549l0,-0.461257c-0.076876,0.230629 -0.076876,0.461257 -0.153752,0.691886c0,0.076876 0.076876,0.153752 0.076876,0.153752c0,-0.153752 0.076876,-0.307505 0.076876,-0.384381z" fill="#CAD5E9"/>
     <path stroke="null" id="svg_33" d="m24.764417,18.23489c0.076876,0 0,0 0,0l-0.153752,0c-0.230629,0.076876 -0.384381,0.230629 -0.538134,0.307505l-0.153752,0.153752c0,0 -0.076876,0.076876 -0.076876,-0.076876c-0.076876,0.076876 -0.076876,0.076876 -0.076876,0.153752l-0.076876,0.076876l0,0.076876c-0.076876,0.153752 0.076876,-0.153752 -0.076876,-0.076876c-0.153752,0.230629 -0.230629,0.538134 -0.230629,0.691886c-0.076876,0.076876 -0.076876,0.153752 -0.076876,0.153752c-0.076876,0 -0.076876,0 -0.076876,-0.076876l0,-0.384381c0,-0.153752 0.153752,-0.384381 0.230629,-0.61501c-0.076876,0.076876 -0.230629,0.384381 -0.153752,0.153752l0.153752,-0.230629c0,-0.076876 0.076876,-0.076876 0.076876,-0.153752c0,-0.076876 0.076876,-0.076876 0.076876,-0.076876c-0.153752,0.230629 -0.307505,0.461257 -0.384381,0.768762s-0.153752,0.384381 -0.230629,0.538134c0,0.076876 -0.076876,0.076876 -0.076876,0.153752s-0.076876,0.076876 -0.076876,0.153752l0,0.461257c-0.076876,0.076876 -0.076876,0.230629 -0.076876,0.461257c0,0.076876 0.076876,0.153752 0.076876,0.153752c0.076876,0.076876 0.076876,-0.076876 0.076876,-0.153752l0,-0.230629c0,-0.076876 0,-0.153752 0.076876,-0.153752c0,0.307505 0.076876,0.538134 0.076876,0.538134c0.076876,0.076876 0.076876,0.076876 0.153752,-0.076876c0.076876,-0.076876 0.076876,-0.153752 0.076876,-0.230629c0.076876,-0.076876 0.076876,-0.153752 0.076876,-0.307505c0,-0.076876 0,-0.153752 0.076876,-0.230629c0,-0.076876 0,-0.153752 0.076876,-0.230629l0,0.153752c0.076876,-0.307505 0.153752,-0.384381 0.230629,-0.768762c0,0 0.076876,0 0,0.076876c0,-0.076876 0.076876,-0.153752 0.076876,-0.153752s0.076876,-0.076876 0.076876,-0.153752c0.076876,-0.076876 0.076876,-0.076876 0.153752,-0.076876c0.076876,0 0.076876,-0.076876 0.153752,-0.153752c0,0 0,-0.076876 0.076876,-0.076876c0,0 0,-0.076876 0.076876,-0.076876l0.076876,-0.076876c0.076876,-0.153752 0.230629,-0.307505 0.384381,-0.384381c0.153752,-0.076876 0.230629,-0.076876 0.384381,-0.076876l-0.076876,0c-0.230629,0.076876 -0.230629,0.076876 -0.384381,0.076876c0.076876,0 0.076876,0 0,0l0,0z" fill="#CAD5E9"/>
     <path stroke="null" id="svg_34" d="m25.148798,18.311766c-0.076876,-0.076876 0,-0.076876 0,-0.153752c0,0 0,-0.076876 -0.076876,-0.076876c0,0 -0.076876,0 -0.076876,-0.076876c0,0 -0.076876,0 -0.076876,-0.076876c-0.076876,0 -0.076876,0 -0.076876,-0.076876l-0.230629,0c-0.076876,0 -0.153752,0.076876 -0.153752,0.076876c-0.153752,0.076876 -0.230629,0.076876 -0.384381,0.230629c0.076876,-0.076876 0.076876,-0.076876 0.076876,-0.076876c-0.076876,0 -0.153752,0.076876 -0.153752,0.076876c-0.230629,0.307505 -0.384381,0.538134 -0.538134,0.768762c-0.076876,0.076876 -0.076876,0.076876 -0.153752,0.153752c0.076876,-0.230629 0.153752,-0.384381 0.153752,-0.461257c0.076876,-0.153752 0.076876,-0.230629 0.230629,-0.461257c0,0 0.076876,-0.076876 0.076876,-0.076876c0.076876,-0.076876 0.076876,-0.076876 0.153752,-0.076876c0.076876,-0.076876 0.076876,-0.076876 0.153752,-0.076876c0.076876,-0.076876 0.076876,-0.076876 0.153752,-0.076876c0.076876,-0.076876 0.076876,-0.076876 0.153752,-0.076876c0.076876,0 0.076876,-0.076876 0.076876,-0.076876c0.076876,-0.076876 0.076876,-0.076876 0.153752,-0.076876c0.076876,0 0.076876,-0.076876 0.076876,-0.076876s-0.076876,-0.076876 -0.076876,-0.076876c-0.076876,0 -0.153752,0.076876 -0.230629,0.076876c-0.076876,0 -0.076876,0.076876 -0.153752,0.076876l-0.153752,0.076876c-0.076876,0.076876 -0.153752,0.076876 -0.230629,0.153752l-0.230629,0.230629c0,0.076876 -0.076876,0.076876 -0.076876,0.076876c0,0.076876 -0.076876,0.076876 -0.076876,0.076876c0,0.076876 -0.076876,0.076876 -0.076876,0.153752l-0.153752,0.230629c-0.076876,0.153752 0.153752,-0.153752 0.153752,-0.153752c-0.076876,0.230629 -0.230629,0.538134 -0.230629,0.691886l0,0.384381c0,0.076876 0.076876,0.076876 0.076876,0.076876c0.076876,0 0.076876,-0.076876 0.076876,-0.153752c0.076876,-0.153752 0.153752,-0.384381 0.230629,-0.691886c0.076876,-0.076876 -0.076876,0.153752 0.076876,0.076876l0,-0.076876l0.076876,-0.076876c0.076876,-0.076876 0.076876,-0.076876 0.076876,-0.153752c-0.076876,0.076876 0.076876,0 0.076876,0.076876l0.153752,-0.153752c0.153752,-0.076876 0.307505,-0.230629 0.538134,-0.307505l0.153752,0c0.076876,0 0.076876,0.076876 0.076876,0.076876l0.153752,0c0.076876,0 0.153752,0.076876 0.230629,0.076876c0,0 0,0 0,0z" fill="#C5D2E7"/>
     <path stroke="null" id="svg_35" d="m24.072531,18.773024c-0.076876,0.076876 -0.076876,0.153752 -0.153752,0.153752c-0.076876,0 -0.076876,0 -0.153752,0.076876c-0.076876,0.076876 -0.076876,0.076876 -0.076876,0.153752c0,0 -0.076876,0.076876 -0.076876,0.153752c0.076876,-0.076876 0,-0.076876 0,-0.076876c-0.153752,0.384381 -0.153752,0.461257 -0.230629,0.768762l0,-0.153752c0,0.076876 0,0.153752 -0.076876,0.230629c0,0.076876 0,0.153752 -0.076876,0.230629c-0.076876,0.153752 -0.076876,0.230629 -0.076876,0.307505c0,0.076876 -0.076876,0.153752 -0.076876,0.230629c-0.076876,0.076876 -0.076876,0.153752 -0.153752,0.076876s-0.076876,-0.230629 -0.076876,-0.538134c0,0.076876 -0.076876,0.076876 -0.076876,0.153752l0,0.230629c0,0.153752 0,0.230629 -0.076876,0.153752c0,-0.076876 -0.076876,-0.076876 -0.076876,-0.153752c0,0.230629 0.076876,0.461257 0.076876,0.691886c0.076876,0.230629 0.153752,0.461257 0.230629,0.768762c0.076876,0 0.076876,0 0,-0.076876c0,-0.076876 -0.076876,-0.153752 -0.076876,-0.153752l0,-0.153752c0,-0.076876 0,-0.076876 0.076876,-0.153752s0.076876,-0.076876 0.076876,-0.307505l0,-0.384381c0.076876,-0.153752 0.153752,0 0.153752,-0.153752l0,-0.307505c0.076876,-0.076876 0.076876,-0.076876 0.153752,-0.230629c0,-0.076876 0.076876,-0.153752 0.076876,-0.153752c0,-0.076876 0.076876,-0.153752 0.076876,-0.153752c0.076876,-0.076876 0.076876,-0.153752 0.076876,-0.230629c0.076876,-0.076876 0.076876,-0.153752 0.076876,-0.153752l0.076876,-0.076876l0.076876,-0.076876c0.076876,-0.230629 0.153752,-0.461257 0.230629,-0.691886l-0.076876,0.076876c0.153752,-0.076876 0.153752,-0.076876 0.153752,-0.076876c0,0 0,0 0,0l0,0z" fill="#CDD7EA"/>
     <path stroke="null" id="svg_36" d="m26.378818,22.770588c0,-0.076876 0.076876,-0.076876 0.076876,-0.076876c0,-0.076876 0.076876,-0.076876 0.076876,-0.076876c0.076876,-0.076876 0.076876,-0.153752 0.076876,-0.230629c-0.153752,0.307505 -0.384381,0.461257 -0.461257,0.61501c-0.076876,0.076876 -0.153752,0.153752 -0.230629,0.153752c-0.076876,0.076876 -0.153752,0.076876 -0.230629,0.076876c0,0 -0.076876,0.076876 -0.230629,0.076876c-0.076876,0.076876 -0.153752,0.076876 -0.153752,0.076876c-0.153752,0.076876 -0.230629,0.076876 -0.307505,0.076876l-0.230629,0c-0.076876,0 -0.153752,0 -0.230629,-0.076876c-0.076876,0 -0.153752,-0.076876 -0.153752,-0.076876c-0.076876,0 -0.076876,-0.076876 -0.076876,-0.076876l0.153752,0c0.076876,0 0.230629,0.076876 0.384381,0c-0.076876,0 -0.153752,0 -0.153752,-0.076876c-0.076876,0 -0.076876,-0.076876 -0.153752,-0.076876s-0.076876,-0.076876 -0.153752,-0.076876c-0.076876,-0.076876 -0.076876,-0.076876 -0.076876,-0.076876l-0.153752,-0.153752l-0.076876,-0.076876l-0.076876,-0.076876c-0.076876,-0.076876 -0.076876,-0.076876 -0.076876,-0.153752c0,-0.076876 -0.076876,-0.076876 -0.076876,-0.153752c-0.076876,-0.076876 -0.076876,-0.076876 -0.076876,-0.153752c-0.076876,-0.076876 -0.076876,-0.153752 -0.076876,-0.153752c-0.153752,-0.230629 -0.153752,-0.538134 -0.153752,-0.691886c0,-0.076876 0,-0.153752 0.076876,-0.230629c0.076876,-0.076876 0.076876,-0.076876 0.076876,-0.153752c0.076876,-0.076876 0.076876,-0.384381 0.076876,-0.61501c-0.076876,-0.076876 -0.076876,-0.230629 -0.076876,-0.384381c0,0.076876 -0.076876,0.153752 -0.076876,0.230629c0,0.076876 -0.076876,0.076876 -0.076876,0.153752c-0.076876,0.076876 -0.153752,0.153752 -0.153752,0.230629c-0.076876,0.153752 -0.076876,0.384381 0,0.61501c0.076876,0.230629 -0.153752,0.076876 -0.153752,0.230629l0,0.307505c0,0.076876 0.076876,0.153752 0.076876,0.230629c0,0.076876 0.076876,0.153752 0.076876,0.230629c0.076876,0.076876 0.076876,0.153752 0.076876,0.230629c0,0.076876 0.076876,0.076876 0.076876,0.153752c0.076876,0.076876 0.076876,0.153752 0.153752,0.230629c0.153752,0.076876 0.384381,0.230629 0.538134,0.230629c0.076876,0.076876 0.230629,0.076876 0.307505,0.076876l0.384381,0c0.076876,0 0.153752,-0.076876 0.230629,-0.076876c0.153752,0.461257 0.230629,0.461257 0.230629,0.384381c0.076876,-0.076876 0.153752,-0.076876 0.230629,-0.153752c0.076876,-0.076876 0.076876,-0.076876 0.153752,-0.076876c0.076876,-0.076876 0.076876,-0.076876 0.153752,-0.076876c0.076876,-0.076876 0.153752,-0.076876 0.153752,-0.153752c0.076876,-0.076876 0.076876,-0.076876 0.076876,-0.076876c0,-0.076876 0.076876,-0.076876 0.076876,-0.076876c0.076876,0.076876 0.076876,0.076876 0.153752,0l0,0z" fill="#DAE1EF"/>
     <path stroke="null" id="svg_37" d="m23.534397,20.310549c0,0.230629 -0.076876,0.153752 -0.153752,0.230629c-0.076876,0.076876 0,0.307505 0,0.307505c-0.076876,0.153752 -0.153752,0 -0.153752,0.153752l0,0.384381c0,0.230629 -0.076876,0.230629 -0.076876,0.307505c0,0.076876 -0.076876,0.076876 -0.076876,0.153752l0,0.076876c0,0.076876 0,0.076876 0.076876,0.153752l0,0.076876c-0.076876,-0.076876 0.076876,0.230629 0.076876,0.307505c0.076876,0.076876 0.076876,0.153752 0.153752,0.230629s0.076876,0.153752 0.153752,0.153752c0.076876,0.076876 0.076876,0.076876 0.153752,0.153752c0.076876,0.076876 0.076876,0.153752 0.153752,0.153752c0.076876,0.076876 0.076876,0.076876 0.153752,0.153752c-0.076876,-0.076876 -0.153752,-0.153752 -0.153752,-0.230629c-0.076876,-0.076876 -0.076876,-0.153752 -0.076876,-0.153752c-0.076876,-0.076876 -0.076876,-0.153752 -0.076876,-0.230629c0,-0.076876 -0.076876,-0.153752 -0.076876,-0.230629c0,-0.076876 -0.076876,-0.153752 -0.076876,-0.230629l0,-0.307505c0,-0.153752 0.153752,0 0.153752,-0.230629c-0.076876,-0.307505 -0.076876,-0.538134 0,-0.61501s0.076876,-0.230629 0.153752,-0.230629c0,0 0.076876,-0.076876 0.076876,-0.153752c0,-0.076876 0.076876,-0.153752 0.076876,-0.230629l0,-0.230629c0,-0.076876 0,-0.076876 0.076876,-0.153752l0,-0.076876c0,-0.076876 0,-0.153752 0.076876,-0.230629c0,-0.076876 0,-0.153752 0.076876,-0.230629l-0.230629,0.076876l-0.076876,0.076876c-0.076876,0.076876 -0.076876,0.076876 -0.076876,0.153752c-0.076876,0.076876 -0.076876,0.153752 -0.076876,0.230629c0,0.076876 -0.076876,0.076876 -0.076876,0.153752c-0.153752,-0.076876 -0.153752,0 -0.153752,0.076876l0,0z" fill="#D5DEED"/>
     <path stroke="null" id="svg_38" d="m26.763199,21.92495c0,-0.076876 0.076876,-0.153752 0.076876,-0.230629c0.076876,-0.230629 0.076876,-0.153752 0.076876,-0.307505l0,-0.076876c-0.076876,0.076876 -0.076876,0.153752 -0.153752,0.153752c-0.076876,0.153752 -0.076876,0.230629 -0.076876,0.307505c-0.076876,0.076876 -0.076876,0.076876 -0.076876,0.076876l-0.076876,0.076876c-0.076876,0.076876 -0.153752,0.153752 -0.153752,0.230629l-0.230629,0.076876c-0.076876,0.076876 -0.076876,0.076876 -0.153752,0.153752c-0.076876,0.076876 -0.076876,0.153752 -0.153752,0.230629s-0.153752,0.153752 -0.230629,0.230629c-0.153752,0.153752 -0.153752,0.076876 -0.230629,0.076876c0,0 -0.076876,-0.076876 -0.076876,-0.076876l-0.076876,0c-0.076876,0 -0.076876,0 -0.153752,0.076876c-0.076876,0 -0.153752,0.076876 -0.307505,0.076876c-0.076876,0 -0.153752,-0.076876 -0.230629,-0.076876c0,-0.076876 0.076876,-0.076876 0.076876,-0.076876l0,-0.153752c0,0 -0.076876,-0.076876 -0.076876,-0.076876c-0.153752,-0.076876 -0.230629,-0.153752 -0.384381,-0.307505c0,-0.076876 -0.076876,-0.076876 -0.076876,-0.076876s-0.076876,-0.076876 -0.076876,-0.076876s-0.076876,-0.076876 -0.076876,-0.076876l0,-0.076876c-0.076876,-0.153752 -0.076876,-0.230629 -0.076876,-0.307505s0.076876,-0.153752 0.076876,-0.153752c-0.076876,-0.230629 -0.153752,-0.61501 -0.230629,-0.922515c-0.076876,0.230629 0,0.61501 -0.076876,0.61501c-0.076876,0 -0.076876,0.076876 -0.076876,0.153752l0,0.307505c0,0.153752 0.076876,0.461257 0.153752,0.691886c0.076876,0.076876 0.076876,0.153752 0.076876,0.153752c0.076876,0.076876 0.076876,0.076876 0.076876,0.153752s0.076876,0.076876 0.076876,0.153752s0.076876,0.076876 0.076876,0.153752l0.076876,0.076876l0.076876,0.076876l0.153752,0.153752c0.076876,0 0.076876,0.076876 0.076876,0.076876c0.076876,0.076876 0.076876,0.076876 0.153752,0.076876s0.076876,0.076876 0.153752,0.076876s0.153752,0.076876 0.153752,0.076876l-0.538134,0c0,0 0.076876,0.076876 0.076876,0.076876c0.076876,0 0.076876,0.076876 0.153752,0.076876c0.076876,0 0.153752,0.076876 0.230629,0.076876l0.230629,0c0.076876,0 0.153752,-0.076876 0.230629,-0.076876c0.076876,-0.076876 0.153752,-0.076876 0.153752,-0.076876c0.076876,-0.076876 0.153752,-0.076876 0.230629,-0.076876s0.153752,-0.076876 0.230629,-0.076876c0.076876,-0.076876 0.153752,-0.076876 0.230629,-0.153752c0.153752,-0.153752 0.384381,-0.307505 0.461257,-0.61501c0.076876,-0.076876 0.076876,-0.153752 0.076876,-0.230629l0.153752,-0.61501l0,0z" fill="#DFE5F1"/>
     <path stroke="null" id="svg_39" d="m24.610664,22.770588c0.076876,0.076876 0.076876,0.076876 0.076876,0.076876l0,0.076876c0,0.076876 -0.076876,0.076876 -0.076876,0.076876c0,0.076876 0.076876,0.076876 0.230629,0.076876c0.076876,0 0.230629,0 0.307505,-0.076876c0.076876,0 0.076876,-0.076876 0.153752,-0.076876l0.076876,0c0.076876,0 0.076876,0 0.076876,0.076876c0.076876,0.076876 0.076876,0.076876 0.230629,-0.076876c0.076876,-0.076876 0.153752,-0.153752 0.230629,-0.230629c0.076876,-0.076876 0.153752,-0.153752 0.153752,-0.230629c0.076876,-0.076876 0.076876,-0.153752 0.153752,-0.153752l0.153752,-0.153752c0.076876,-0.076876 0.153752,-0.153752 0.153752,-0.230629l0.076876,-0.076876c0.076876,-0.076876 0.076876,-0.076876 0.076876,-0.076876c0.076876,-0.076876 0.076876,-0.153752 0.076876,-0.307505l-0.076876,-0.076876c0,0 -0.076876,0.076876 -0.076876,0.153752c-0.076876,0.076876 -0.076876,0.230629 -0.153752,0.307505c-0.076876,0.076876 -0.076876,0 -0.076876,-0.076876l0,-0.461257c-0.076876,0.076876 -0.076876,0.153752 -0.076876,0.153752c0,0.076876 0,0.076876 -0.076876,0.076876l0,-0.076876c-0.076876,0.076876 -0.076876,0.153752 -0.153752,0.153752l-0.153752,0.153752c0,0.076876 0,0.076876 -0.076876,0.076876c0,-0.076876 0,-0.076876 0.076876,-0.076876c-0.076876,0.076876 -0.076876,0.153752 -0.153752,0.153752c-0.076876,0.076876 -0.076876,0.153752 -0.153752,0.230629c-0.076876,0.076876 -0.076876,0.153752 -0.153752,0.153752c-0.076876,0.076876 -0.076876,0.076876 -0.076876,0.076876c-0.076876,0 -0.076876,0.076876 -0.076876,0.076876c0.076876,0.076876 -0.076876,0.230629 -0.230629,0.230629l-0.153752,0c-0.076876,0 -0.076876,-0.076876 -0.076876,-0.076876l-0.153752,0l0.076876,-0.076876c-0.076876,0 -0.076876,-0.076876 -0.076876,-0.076876c0,-0.076876 -0.076876,-0.076876 -0.076876,-0.076876l0,0c0,0 0.076876,0 0.076876,0.076876c-0.076876,0 -0.076876,-0.076876 -0.076876,-0.076876l-0.153752,0l0.153752,0c-0.076876,-0.076876 -0.076876,-0.076876 -0.153752,-0.153752c0,0 -0.076876,0 -0.076876,-0.076876c0,0 0.076876,0 0.076876,0.076876l0,-0.076876l-0.076876,0l-0.076876,-0.076876c0,0 -0.076876,-0.076876 -0.076876,-0.076876c-0.076876,-0.076876 -0.076876,-0.076876 -0.153752,-0.153752l0,-0.153752c0,-0.076876 -0.076876,-0.153752 -0.076876,-0.230629c-0.076876,0.076876 -0.076876,0.076876 -0.076876,0.153752s0,0.153752 0.076876,0.307505l0,0.076876c0,0.076876 0.076876,0.076876 0.076876,0.076876s0.076876,0.076876 0.076876,0.076876s0.076876,0.076876 0.076876,0.076876c0.076876,0.307505 0.153752,0.461257 0.384381,0.538134l0,0z" fill="#E7EBF5"/>
    </g>
   </g>
   <path stroke="null" d="m25.379427,20.387425c-0.307505,0 -0.538134,-0.384381 -0.538134,-0.922515c0,-0.230629 0.076876,-0.384381 0.153752,-0.538134c-0.076876,-0.076876 -0.153752,-0.076876 -0.230629,-0.076876c-0.538134,0 -0.999391,0.768762 -0.999391,1.614401c0,0.922515 0.461257,1.614401 0.999391,1.614401c0.538134,0 0.999391,-0.768762 0.999391,-1.614401l0,-0.307505c-0.153752,0.153752 -0.307505,0.230629 -0.384381,0.230629z" fill="#4E5057" id="XMLID_8_"/>
   <path stroke="null" id="svg_40" d="m25.456303,20.310549c-0.538134,-0.076876 -0.538134,-0.999391 -0.384381,-1.306896c0,-0.076876 0,-0.076876 -0.076876,-0.076876c-1.537525,-0.461257 -1.614401,2.075659 -1.076267,2.921297c0.230629,0.461257 0.768762,0.61501 1.23002,0.307505c0.61501,-0.384381 0.691886,-1.23002 0.61501,-1.84503c0,-0.076876 -0.153752,-0.076876 -0.153752,-0.076876l-0.153752,0.076876c-0.230629,0 -0.153752,0.153752 -0.076876,0.153752c0.153752,-0.076876 0.230629,-0.076876 0.384381,-0.153752c-0.076876,0 -0.153752,0 -0.153752,-0.076876c0.076876,0.538134 -0.076876,1.153144 -0.384381,1.537525c-0.384381,0.461257 -0.845639,0.230629 -1.153144,-0.230629c-0.230629,-0.461257 -0.307505,-0.922515 -0.230629,-1.460649c0.076876,-0.461257 0.384381,-1.306896 1.076267,-1.153144c0,-0.076876 -0.076876,-0.076876 -0.076876,-0.076876c-0.230629,0.461257 -0.230629,1.460649 0.461257,1.537525c0.153752,0.076876 0.307505,-0.076876 0.153752,-0.076876z" fill="#4F5057"/>
   <path stroke="null" d="m22.073748,25.461257l-2.536916,3.305678l-2.46004,-3.305678l2.46004,-2.46004l2.536916,2.46004z" fill="#F4D3AA" id="XMLID_7_"/>
   <path stroke="null" id="svg_41" d="m21.996872,25.461257c-0.845639,1.076267 -1.614401,2.229411 -2.536916,3.305678l0.230629,0c-0.61501,-0.845639 -1.306896,-1.768154 -1.998782,-2.613792c-0.153752,-0.153752 -0.230629,-0.384381 -0.461257,-0.538134c-0.076876,-0.076876 -0.076876,-0.076876 -0.076876,-0.076876c0.076876,0.076876 -0.076876,0.076876 0.076876,0c0.153752,-0.153752 0.384381,-0.384381 0.461257,-0.461257l0.768762,-0.768762l1.153144,-1.153144l-0.230629,0l2.536916,2.536916c0.076876,0.076876 0.230629,-0.076876 0.230629,-0.076876l-2.536916,-2.536916c-0.076876,-0.076876 -0.153752,-0.076876 -0.230629,0l-2.46004,2.383163c0,0 -0.076876,0.076876 0,0.076876c0.845639,1.076267 1.614401,2.229411 2.536916,3.305678c0.076876,0.076876 0.153752,0.076876 0.230629,0c0.845639,-1.076267 1.614401,-2.229411 2.536916,-3.305678c0.076876,-0.153752 -0.153752,-0.153752 -0.230629,-0.076876z" fill="#6290C3"/>
   <path stroke="null" d="m21.996872,25.538133l-2.306287,3.07505l-0.076876,-5.458213l2.383163,2.383163z" fill="#DABD9D" id="XMLID_5_"/>
   <path stroke="null" d="m15.69302,11.70041c-0.61501,-0.307505 -0.845639,0 -0.230629,0.230629c0.61501,0.384381 1.768154,1.23002 2.613792,2.613792c0.768762,1.23002 1.306896,2.844421 1.460649,3.305678c-0.076876,-0.768762 -0.307505,-2.152535 -1.23002,-3.613183c-0.845639,-1.383772 -1.998782,-2.152535 -2.613792,-2.536916z" fill="#336390" id="XMLID_3_"/>
   <path stroke="null" d="m23.688149,11.316028c0.61501,-0.307505 0.845639,0 0.230629,0.230629c-0.61501,0.384381 -1.768154,1.23002 -2.613792,2.613792c-0.768762,1.23002 -1.306896,2.844421 -1.460649,3.305678c0.076876,-0.768762 0.307505,-2.152535 1.23002,-3.613183c0.845639,-1.306896 1.998782,-2.152535 2.613792,-2.536916z" fill="#336390" id="XMLID_2_"/>
   <path stroke="null" id="svg_42" d="m16.769288,29.920079c0.538134,0.230629 1.23002,0.230629 1.84503,0c0.076876,-0.076876 -0.153752,-0.384381 -0.230629,-0.307505c-0.538134,0.230629 -1.153144,0.230629 -1.768154,0c-0.076876,-0.076876 0.076876,0.230629 0.153752,0.307505zm3.69006,0c0.538134,0.230629 1.23002,0.307505 1.84503,0c0.076876,-0.076876 -0.153752,-0.384381 -0.230629,-0.307505c-0.538134,0.230629 -1.153144,0.230629 -1.768154,0c-0.153752,-0.076876 0,0.230629 0.153752,0.307505zm-1.768154,1.460649c0.538134,0.307505 1.23002,0.307505 1.84503,0c0.076876,-0.076876 -0.153752,-0.384381 -0.230629,-0.307505c-0.538134,0.307505 -1.153144,0.307505 -1.768154,0c-0.076876,0 0.076876,0.307505 0.153752,0.307505zm-2.536916,1.460649c0.538134,0.230629 1.23002,0.230629 1.84503,0c0.076876,0 -0.153752,-0.384381 -0.230629,-0.307505c-0.538134,0.230629 -1.153144,0.230629 -1.768154,0c-0.153752,-0.076876 0.076876,0.230629 0.153752,0.307505zm4.843203,-0.076876c0.538134,0.230629 1.23002,0.230629 1.84503,0c0.076876,-0.076876 -0.153752,-0.384381 -0.230629,-0.307505c-0.538134,0.230629 -1.153144,0.230629 -1.768154,0c-0.076876,0 0.076876,0.307505 0.153752,0.307505z" fill="#6290C3"/>
   <path stroke="null" d="m44.905992,27.460039c0,-4.843203 2.998173,-6.765109 5.535089,-6.765109c1.768154,0 2.844421,0.61501 3.69006,1.614401l0,-3.613183l-1.614401,0l0,-2.075659l4.612574,0c0.461257,0 0.61501,0.307505 0.61501,0.845639l0,13.530218c0,0.230629 0.307505,0.61501 0.61501,0.61501l0.845639,0l0,1.998782l-4.305069,0c-0.384381,0 -0.61501,-0.538134 -0.61501,-1.460649c-0.845639,0.922515 -2.152535,1.614401 -3.920688,1.614401c-2.690668,0.153752 -5.458213,-1.383772 -5.458213,-6.303852l0,0zm9.225149,3.305678l0,-7.072614c-0.61501,-0.307505 -1.537525,-0.538134 -2.383163,-0.538134c-1.691277,0 -3.228802,0.999391 -3.228802,4.228193c0,3.536307 1.460649,4.381946 2.921297,4.381946c1.153144,0 1.998782,-0.384381 2.690668,-0.999391z" fill="#5D7084" id="XMLID_48_"/>
   <path stroke="null" d="m59.66623,29.996955c0,-2.690668 2.075659,-3.920688 5.073832,-3.920688c1.076267,0 1.84503,0.076876 2.613792,0.307505l0,-1.306896c0,-1.306896 -0.691886,-1.921906 -2.229411,-1.921906c-1.537525,0 -2.306287,0.61501 -2.921297,1.153144l-1.614401,0l0,-2.613792c1.23002,-0.538134 2.844421,-0.999391 5.304461,-0.999391c3.305678,0 5.073832,1.076267 5.073832,3.997565l0,6.380728c0,0.307505 0.307505,0.61501 0.61501,0.61501l0.691886,0l0,1.691277c-0.461257,0.307505 -1.23002,0.461257 -2.152535,0.461257c-1.460649,0 -2.229411,-0.61501 -2.536916,-1.614401c-0.922515,1.153144 -2.152535,1.614401 -3.69006,1.614401c-2.536916,0 -4.228193,-1.23002 -4.228193,-3.843812l0,0zm7.610748,0.922515l0,-2.690668c-0.538134,-0.076876 -1.23002,-0.153752 -1.84503,-0.153752c-1.460649,0 -2.306287,0.61501 -2.306287,1.84503c0,1.23002 0.768762,1.921906 1.921906,1.921906c0.922515,-0.076876 1.614401,-0.384381 2.229411,-0.922515z" fill="#5D7084" id="XMLID_45_"/>
   <path stroke="null" d="m71.428295,20.925559l1.537525,0l0,-3.382555l3.536307,0l0,3.382555l2.613792,0l0,2.152535l-2.613792,0l0,6.995738c0,1.383772 0.461257,1.614401 1.84503,1.614401l0.845639,0l0,1.921906c-0.538134,0.153752 -1.306896,0.307505 -2.306287,0.307505c-2.46004,0 -3.920688,-0.768762 -3.920688,-3.382555l0,-7.456995l-1.537525,0l0,-2.152535l0,0z" fill="#5D7084" id="XMLID_43_"/>
   <path stroke="null" d="m79.730929,29.996955c0,-2.690668 2.075659,-3.920688 5.073832,-3.920688c1.076267,0 1.84503,0.076876 2.613792,0.307505l0,-1.306896c0,-1.306896 -0.691886,-1.921906 -2.229411,-1.921906c-1.537525,0 -2.306287,0.61501 -2.921297,1.153144l-1.614401,0l0,-2.613792c1.23002,-0.538134 2.844421,-0.999391 5.304461,-0.999391c3.305678,0 5.073832,1.076267 5.073832,3.997565l0,6.380728c0,0.307505 0.307505,0.61501 0.61501,0.61501l0.691886,0l0,1.691277c-0.461257,0.307505 -1.23002,0.461257 -2.152535,0.461257c-1.460649,0 -2.229411,-0.61501 -2.536916,-1.614401c-0.922515,1.153144 -2.152535,1.614401 -3.69006,1.614401c-2.536916,0 -4.228193,-1.23002 -4.228193,-3.843812l0,0zm7.687624,0.922515l0,-2.690668c-0.538134,-0.076876 -1.23002,-0.153752 -1.84503,-0.153752c-1.460649,0 -2.306287,0.61501 -2.306287,1.84503c0,1.23002 0.768762,1.921906 1.921906,1.921906c0.845639,-0.076876 1.614401,-0.384381 2.229411,-0.922515z" fill="#5D7084" id="XMLID_40_"/>
   <path stroke="null" d="m93.645529,31.918861c0,-1.076267 0.845639,-1.998782 1.998782,-1.998782c1.076267,0 1.998782,0.845639 1.998782,1.998782c0,1.076267 -0.922515,1.921906 -1.998782,1.921906c-1.153144,0 -1.998782,-0.845639 -1.998782,-1.921906z" fill="#5D7084" id="XMLID_38_"/>
   <path stroke="null" d="m105.868851,25.384381l-2.536916,8.302634l-2.998173,0l-2.921297,-9.993911c-0.153752,-0.384381 -0.461257,-0.691886 -0.768762,-0.691886l-0.538134,0l0,-2.152535l5.688842,0l0,2.152535l-1.076267,0l1.691277,6.380728l0.076876,0l2.46004,-8.533263l2.690668,0l2.46004,8.533263l0.076876,0l1.306896,-4.766327c0.307505,-1.153144 0.230629,-1.614401 -0.845639,-1.614401l-0.384381,0l0,-2.152535l5.304461,0l0,2.152535l-0.461257,0c-0.384381,0 -0.768762,0.230629 -0.922515,0.768762l-2.921297,9.917035l-2.998173,0l-2.383163,-8.302634l0,0z" fill="#5D7084" id="XMLID_36_"/>
   <path stroke="null" d="m115.324629,27.383163c0,-4.074441 2.998173,-6.688233 6.765109,-6.688233c3.69006,0 6.765109,2.536916 6.765109,6.688233s-2.998173,6.53448 -6.765109,6.53448c-3.766936,0 -6.765109,-2.46004 -6.765109,-6.53448zm9.840159,0.076876c0,-2.921297 -1.306896,-4.305069 -3.151926,-4.305069s-3.151926,1.460649 -3.151926,4.305069s1.306896,4.228193 3.151926,4.228193s3.151926,-1.383772 3.151926,-4.228193z" fill="#5D7084" id="XMLID_33_"/>
   <path stroke="null" d="m128.854847,31.688232l0.845639,0c0.307505,0 0.61501,-0.384381 0.61501,-0.61501l0,-7.380119c0,-0.230629 -0.307505,-0.61501 -0.61501,-0.61501l-0.922515,0l0,-2.152535l4.381946,0c0.461257,0 0.691886,0.384381 0.768762,1.84503c0.845639,-1.076267 1.84503,-1.998782 3.536307,-1.998782c0.230629,0 0.538134,0.076876 0.768762,0.153752l0,2.613792l-0.61501,0c-1.84503,0 -2.998173,0.384381 -3.69006,0.768762l0,7.380119l1.768154,0l0,1.998782l-6.841985,0c0,0.076876 0,-1.998782 0,-1.998782z" fill="#5D7084" id="XMLID_6_"/>
   <path stroke="null" d="m138.387501,31.688232l0.922515,0c0.307505,0 0.61501,-0.384381 0.61501,-0.61501l0,-11.685189c0,-0.230629 -0.307505,-0.61501 -0.61501,-0.61501l-0.922515,0l0,-2.075659l4.612574,0c0.461257,0 0.61501,0.307505 0.61501,0.845639l0,13.607095c0,0.307505 0.384381,0.61501 0.61501,0.61501l0.999391,0l0,1.998782l-6.841985,0l0,-2.075659l0,0z" fill="#5D7084" id="XMLID_4_"/>
   <path stroke="null" d="m145.383239,27.460039c0,-4.843203 2.998173,-6.765109 5.535089,-6.765109c1.768154,0 2.844421,0.61501 3.69006,1.614401l0,-3.613183l-1.614401,0l0,-2.075659l4.612574,0c0.461257,0 0.61501,0.307505 0.61501,0.845639l0,13.530218c0,0.230629 0.307505,0.61501 0.61501,0.61501l0.845639,0l0,1.998782l-4.381946,0c-0.384381,0 -0.61501,-0.538134 -0.61501,-1.460649c-0.845639,0.922515 -2.152535,1.614401 -3.920688,1.614401c-2.613792,0.153752 -5.381337,-1.383772 -5.381337,-6.303852l0,0zm9.148273,3.305678l0,-7.072614c-0.61501,-0.307505 -1.537525,-0.538134 -2.383163,-0.538134c-1.691277,0 -3.228802,0.999391 -3.228802,4.228193c0,3.536307 1.460649,4.381946 2.921297,4.381946c1.153144,0 1.998782,-0.384381 2.690668,-0.999391l0,0z" fill="#5D7084" id="XMLID_1_"/>
  </g>
 </g>
</svg>