<svg width="160" height="50" xmlns="http://www.w3.org/2000/svg">

 <g>
  <title>background</title>
  <rect fill="none" id="canvas_background" height="52" width="162" y="-1" x="-1"/>
 </g>
 <g>
  <title>Layer 1</title>
  <g stroke="null" id="svg_1">
   <polygon stroke="null" id="svg_2" points="0.452178955078125,21.143857955932617 0.452178955078125,21.143857955932617 0.452178955078125,24.64221477508545 4.109550476074219,26.550408363342285 0.452178955078125,28.45860004425049 0.452178955078125,31.956957817077637 10.390687942504883,37.12498188018799 11.42429256439209,37.12498188018799 21.442310333251953,31.956957817077637 21.442310333251953,28.45860004425049 17.70543098449707,26.550408363342285 21.442310333251953,24.64221477508545 21.442310333251953,21.143857955932617 21.36280059814453,21.143857955932617 10.947244644165039,15.737309455871582 " fill="#DC2327"/>
   <polygon stroke="null" id="svg_3" points="10.947244644165039,30.12827205657959 4.109550476074219,26.550408363342285 0.452178955078125,28.45860004425049 10.947244644165039,33.94465923309326 21.442310333251953,28.45860004425049 17.70543098449707,26.550408363342285 " fill="#F0562C"/>
   <polygon stroke="null" id="svg_4" points="0.452178955078125,21.143857955932617 10.947244644165039,26.629916191101074 21.442310333251953,21.143857955932617 10.947244644165039,15.737309455871582 " fill="#F0562C"/>
   <g stroke="null" id="svg_5">
    <path stroke="null" id="svg_6" d="m36.389828,23.052052l0.079508,0c0,0 -0.079508,-0.954097 -0.079508,-1.033605l0,-7.235235l-2.146718,0l0,-1.828686l4.452452,0l0,20.672099l2.06721,0l0,1.828686l-3.816387,0l-0.318032,-2.06721l-0.079508,0c0,0 -1.431145,2.305734 -4.770484,2.305734c-3.736879,0 -6.519662,-2.544258 -6.519662,-7.314743c0,-4.690976 3.021307,-7.235235 6.519662,-7.235235c3.577863,0 4.611468,1.908194 4.611468,1.908194m0,8.348348l0,-6.360646c-0.39754,-0.556557 -1.590161,-1.987702 -4.213928,-1.987702c-2.226226,0 -4.770484,1.66967 -4.770484,5.327041c0,3.657371 2.226226,5.327041 4.770484,5.327041c1.749178,0.079508 3.418847,-0.795081 4.213928,-2.305734" fill="#444545"/>
    <path stroke="null" id="svg_7" d="m52.291442,33.07007c0,0 -1.272129,2.544258 -5.327041,2.544258c-2.941799,0 -4.849992,-1.749178 -4.849992,-4.054912c0,-2.623766 2.46475,-3.975404 6.440154,-3.975404l3.577863,0l0,-1.192621c0,-2.46475 -1.431145,-3.418847 -3.975404,-3.418847c-2.46475,0 -3.657371,1.192621 -3.657371,2.782783l0,0.318032l-2.06721,0l0,-0.715573c0,-2.06721 1.828686,-4.213928 5.804089,-4.213928c3.816387,0 6.20163,1.66967 6.20163,5.327041l0,7.076218l1.66967,0l0,1.828686l-3.339339,0l-0.238524,-2.305734l-0.238524,0l0,0zm-0.238524,-3.816387l-3.418847,0c-2.46475,0 -4.372944,0.715573 -4.372944,2.305734c0,1.431145 1.272129,2.305734 3.100815,2.305734c3.259831,0 4.690976,-2.46475 4.690976,-2.46475l0,-2.146718z" fill="#444545"/>
    <path stroke="null" id="svg_8" d="m60.719298,17.565995l0,3.736879l4.452452,0l0,1.828686l-4.452452,0l0,7.632775c0,1.987702 0.874589,2.941799 2.305734,2.941799c1.590161,0 2.544258,-0.477048 2.544258,-0.477048l0,1.908194c0,0 -1.192621,0.477048 -2.941799,0.477048c-2.703274,0 -4.293436,-1.590161 -4.293436,-4.770484l0,-7.712283l-2.146718,0l0,-1.828686l2.146718,0l0.39754,-3.736879l1.987702,0l0,0z" fill="#444545"/>
    <path stroke="null" id="svg_9" d="m77.177469,33.07007c0,0 -1.272129,2.544258 -5.327041,2.544258c-2.941799,0 -4.849992,-1.749178 -4.849992,-4.054912c0,-2.623766 2.46475,-3.975404 6.440154,-3.975404l3.577863,0l0,-1.192621c0,-2.46475 -1.431145,-3.418847 -3.975404,-3.418847c-2.46475,0 -3.657371,1.192621 -3.657371,2.782783l0,0.318032l-2.146718,0l0,-0.715573c0,-2.06721 1.828686,-4.213928 5.804089,-4.213928c3.816387,0 6.20163,1.66967 6.20163,5.327041l0,7.076218l1.66967,0l0,1.828686l-3.418847,0l-0.318032,-2.305734l0,0l0,0zm-0.238524,-3.816387l-3.418847,0c-2.46475,0 -4.372944,0.715573 -4.372944,2.305734c0,1.431145 1.272129,2.305734 3.100815,2.305734c3.259831,0 4.690976,-2.46475 4.690976,-2.46475l0,-2.146718l0,0z" fill="#444545"/>
    <path stroke="null" id="svg_10" d="m85.048768,33.308594l-0.318032,2.06721l-1.749178,0l0,-20.672099l-2.06721,0l0,-1.828686l4.372944,0l0,9.143428c0,0.079508 -0.079508,1.033605 -0.079508,1.033605l0.079508,0c0,0 1.272129,-1.908194 4.690976,-1.908194c3.498355,0 6.519662,2.623766 6.519662,7.235235c0,4.770484 -2.782783,7.314743 -6.519662,7.314743c-3.418847,0 -4.849992,-2.305734 -4.849992,-2.305734l-0.079508,-0.079508l0,0zm0.159016,-8.26884l0,6.360646c0.715573,1.510653 2.544258,2.305734 4.213928,2.305734c2.544258,0 4.770484,-1.749178 4.770484,-5.327041c0,-3.657371 -2.46475,-5.327041 -4.690976,-5.327041c-2.623766,0 -3.816387,1.351637 -4.293436,1.987702" fill="#444545"/>
    <path stroke="null" id="svg_11" d="m107.470044,23.449593c-0.318032,-0.079508 -0.874589,-0.238524 -1.590161,-0.238524c-3.498355,0 -4.213928,4.213928 -4.213928,4.213928l0,6.20163l2.305734,0l0,1.828686l-6.678678,0l0,-1.828686l2.06721,0l0,-10.415557l-2.06721,0l0,-1.828686l3.816387,0l0.238524,3.577863l0.079508,0c0,0 0.715573,-3.816387 4.53196,-3.816387c0.636065,0 1.192621,0.079508 1.510653,0.159016l0,2.146718l0,0z" fill="#444545"/>
    <path stroke="null" id="svg_12" d="m113.910198,33.547118l1.987702,0l0,1.828686l-6.360646,0l0,-1.828686l2.06721,0l0,-10.336049l-2.06721,0l0,-1.828686l4.372944,0l0,12.164735zm-1.272129,-14.708993c-0.954097,0 -1.749178,-0.795081 -1.749178,-1.828686c0,-0.954097 0.795081,-1.749178 1.749178,-1.749178c1.033605,0 1.828686,0.795081 1.828686,1.749178c0,1.033605 -0.795081,1.828686 -1.828686,1.828686" fill="#444545"/>
    <path stroke="null" id="svg_13" d="m118.839698,28.379093c0,3.657371 2.385242,5.327041 5.088517,5.327041c3.259831,0 4.611468,-1.510653 4.611468,-1.510653l0.795081,1.66967c0,0 -1.590161,1.828686 -5.565565,1.828686c-4.213928,0 -7.155726,-2.623766 -7.155726,-7.314743c0,-4.9295 2.703274,-7.235235 6.99671,-7.235235c4.452452,0 6.042613,2.46475 6.042613,5.009009l0,0.715573l-2.06721,0l0,-0.477048c0,-2.06721 -1.192621,-3.418847 -3.975404,-3.418847c-2.862291,0.079508 -4.770484,1.510653 -4.770484,5.406549" fill="#444545"/>
    <polygon stroke="null" id="svg_14" points="134.90032958984375,27.265978813171387 138.398681640625,27.265978813171387 141.73802185058594,23.131558418273926 139.9888458251953,23.131558418273926 139.9888458251953,21.382384300231934 146.3494873046875,21.382384300231934 146.3494873046875,23.131558418273926 144.20277404785156,23.131558418273926 140.068359375,28.140570640563965 144.44129943847656,33.62662601470947 146.5880126953125,33.62662601470947 146.5880126953125,35.45530986785889 143.16917419433594,35.45530986785889 138.16015625,29.015158653259277 134.90032958984375,29.015158653259277 134.90032958984375,33.547118186950684 136.88803100585938,33.547118186950684 136.88803100585938,35.45530986785889 130.4478759765625,35.45530986785889 130.4478759765625,33.547118186950684 132.59458923339844,33.547118186950684 132.59458923339844,14.783211708068848 130.4478759765625,14.783211708068848 130.4478759765625,12.954526901245117 134.90032958984375,12.954526901245117 " fill="#444545"/>
    <path stroke="null" id="svg_15" d="m149.68883,30.843844l0,0.318032c0,1.431145 1.192621,2.623766 3.736879,2.623766c2.623766,0 3.736879,-0.874589 3.736879,-2.226226c0,-1.431145 -1.828686,-1.908194 -3.895896,-2.305734c-2.544258,-0.477048 -5.327041,-1.113113 -5.327041,-4.213928c0,-2.46475 2.305734,-3.975404 5.406549,-3.975404c4.213928,0 5.724581,1.749178 5.724581,3.816387l0,1.033605l-2.06721,0l0,-0.636065c0,-1.510653 -1.033605,-2.385242 -3.498355,-2.385242c-1.66967,0 -3.259831,0.636065 -3.259831,2.146718c0,1.66967 1.987702,1.987702 4.054912,2.305734c2.703274,0.477048 5.247533,1.351637 5.247533,4.13442c0,2.226226 -1.66967,4.054912 -5.963105,4.054912c-4.372944,0 -5.963105,-1.908194 -5.963105,-3.895896l0,-0.874589l2.06721,0.079508l0,0z" fill="#444545"/>
   </g>
  </g>
 </g>
</svg>