<svg width="160" height="50" xmlns="http://www.w3.org/2000/svg" xmlns:svg="http://www.w3.org/2000/svg" stroke="null" style="vector-effect: non-scaling-stroke;">
 <metadata stroke="null" style="vector-effect: non-scaling-stroke;" id="metadata8">image/svg+xml</metadata>

 <g stroke="null">
  <title stroke="null">Layer 1</title>
  <g stroke="null" id="g10" transform="matrix(0.1554383945581327,0,0,-0.1554383945581327,-313.99197146844165,1.048178958418008) ">
   <g stroke="null" id="g12" transform="translate(-380.25,40.5) scale(0.10000000149011612) ">
    <path fill="#b5def6" fill-rule="nonzero" d="m26502.46523,-1945.92055c0,-680.31 -551.5,-1231.81 -1231.81,-1231.81c-680.314,0 -1231.81,551.5 -1231.81,1231.81c0,680.31 551.496,1231.81 1231.81,1231.81c680.31,0 1231.81,-551.5 1231.81,-1231.81" id="path14"/>
    <path fill="#f4cf9d" fill-rule="nonzero" d="m25266.37523,-2685.92155c-6.99,6.89 -15.24,11.812 -24.12,14.832l0,209.398l-29.66,0l0,-195.91c-26.68,14.621 -62.49,9.082 -86.81,-15.559c-28.9,-29.269 -4.32,-114.949 -3.89,-100.82c0.25,8.281 13.04,19.102 29.74,30.871c0.84,-29.711 9.83,-57.312 10.08,-48.812c0.82,26.66 131.41,79.582 104.66,106" id="path16"/>
    <path fill="#f4cf9d" fill-rule="nonzero" d="m25282.01523,-2690.55055c6.99,6.89 15.24,11.808 24.11,14.832l0,209.398l29.67,0l0,-195.91c26.68,14.621 62.49,9.082 86.81,-15.559c28.9,-29.269 4.32,-114.953 3.89,-100.82c-0.25,8.277 -13.04,19.098 -29.74,30.867c-0.84,-29.718 -9.83,-57.297 -10.09,-48.808c-0.81,26.66 -131.41,79.582 -104.65,106" id="path18"/>
    <path fill="#7ca6d6" fill-rule="nonzero" d="m25958.18523,-1829.76055c-21.03,42.89 -66.43,66.78 -109.41,59.48c-11.15,-1.89 -21.71,-5.82 -31.35,-11.39c-1.05,127.98 -5.04,251.5 -11.41,370.14c0,46.68 -19.09,89.1 -49.86,119.87c-5.47,5.47 -11.1,10.31 -16.77,14.65c-1.1,3.19 -2.24,6.4 -3.47,9.66c-18.9,50.24 -1.71,94.53 -19.6,115.54c-24.6,-0.45 -106.56,-13.17 -148.11,-33.31c-26.09,-12.66 -46.17,-28.14 -60.84,-41.77c-45.92,4.16 -94.14,7.3 -144.48,9.03c-29.35,7.28 -61.56,17.39 -95.47,31.5c-67.04,27.91 -118.29,62.12 -153.83,89.88l125.87,-110.07c-20.49,6.15 -42.03,13.67 -64.32,22.95c-67.04,27.9 -118.29,62.12 -153.829,89.87l142.839,-124.91c-35.14,-1.49 -69.2,-3.64 -102.1,-6.34c-15.02,14.98 -37.188,33.45 -67.45,48.12c-41.543,20.15 -123.504,32.86 -148.105,33.31c-17.895,-21 -0.704,-65.3 -19.61,-115.54c-0.828,-2.21 -1.629,-4.41 -2.406,-6.59c-12.188,-7.27 -23.418,-16 -33.402,-25.98c-48.497,-48.5 -49.825,-108.45 -49.86,-119.87c-9.824,-115.31 -16.418,-238.84 -18.125,-369.7c-9.426,5.33 -19.707,9.11 -30.551,10.95c-42.984,7.3 -88.382,-16.59 -109.414,-59.48c-16.597,-47.1 -41.695,-138.12 -28.683,-252.77c13.316,-117.391 60.047,-201.981 87.261,-244.118c29.692,56.816 61.368,128.066 87.309,212.698c0.149,0.47 0.289,0.96 0.438,1.44c3.05,-59.39 7.031,-116.939 11.765,-172.521c0,-46.668 19.098,-89.109 49.86,-119.867c48.496,-48.492 108.441,-49.82 119.863,-49.852c116.262,-11.949 245.53,-19.429 385.83,-18.519c122.3,0.789 235.92,7.859 339.53,18.519c46.67,0 89.1,19.09 119.86,49.852c48.5,48.5 49.82,108.449 49.86,119.867c2.95,54.93 5.37,110.961 7.25,167.981c25.77,-83.258 57.01,-153.469 86.35,-209.598c27.21,42.137 73.94,126.727 87.26,244.118c13,114.65 -12.09,205.67 -28.69,252.77" id="path20"/>
    <path fill="#ffffff" fill-rule="nonzero" d="m25238.93523,-1507.19055c43.2,-115.19 69.16,-352.05 -108.64,-462.18c-157.63,-97.62 -364.552,-48.98 -462.18,108.64c-108.528,175.24 10.093,374.66 108.644,462.18c22.758,20.21 147.18,130.72 284.116,88.98c117.35,-35.77 163.53,-158.87 178.06,-197.62" id="path22"/>
    <path fill="#ffffff" fill-rule="nonzero" d="m25319.63523,-1521.08055c-43.21,-115.19 -69.17,-352.06 108.64,-462.18c157.62,-97.62 364.55,-48.98 462.17,108.65c108.54,175.24 -10.09,374.65 -108.64,462.17c-22.76,20.22 -147.18,130.72 -284.11,88.99c-117.36,-35.77 -163.53,-158.88 -178.06,-197.63" id="path24"/>
    <path fill="#ffffff" fill-rule="nonzero" d="m25272.89523,-2020.96055c-190.59,-0.03 -359.48,-320.36 -318.28,-437.489c0.46,-1.312 0.976,-2.551 1.492,-3.812c99.658,-8.477 207.908,-13.449 323.708,-12.699c0.49,0 0.97,0.011 1.46,0.011c0.86,0.18 1.57,0.289 2.04,0.301c0.77,0.008 1.76,-0.07 2.96,-0.25c108.03,0.906 209.23,6.688 302.68,15.477c0.79,1.82 1.54,3.671 2.22,5.601c41.29,116.469 -127.34,432.9 -318.28,432.86" id="path26"/>
    <path fill="#464953" fill-rule="nonzero" d="m25613.93523,-1673.61055c-17.54,0 -31.76,23.32 -31.76,52.09c0,12.27 2.61,23.54 6.94,32.44c-4.55,1.89 -9.32,2.9 -14.23,2.9c-31.96,0 -57.87,-42.49 -57.87,-94.91c0,-52.41 25.91,-94.9 57.87,-94.9c31.96,0 57.87,42.49 57.87,94.9c0,5.66 -0.32,11.2 -0.9,16.58c-5.1,-5.74 -11.27,-9.1 -17.92,-9.1" id="path28"/>
    <path fill="#474953" fill-rule="nonzero" d="m25615.88523,-1669.21055c-33.63,3.42 -30.19,58.23 -21.21,79.36c0.83,1.96 -0.21,4.19 -2.26,4.82c-34.44,10.65 -60.2,-13.97 -72.08,-44.81c-14.92,-38.74 -13.29,-90.27 11.04,-125.12c16.35,-23.4 45.11,-33.77 69.92,-16.4c33.08,23.15 39.69,71.42 36.35,108.4c-0.37,4.12 -7.71,3.16 -9.68,1.28c-3.41,-4.26 -7.93,-6.75 -13.57,-7.48c-6.56,-0.83 -8.77,-9.88 -0.92,-8.89c9.27,1.17 15.35,4.11 22.27,10.71c-3.23,0.43 -6.46,0.86 -9.68,1.28c2.68,-29.72 -1.38,-64.25 -20.71,-88.3c-21.24,-26.42 -50.04,-17.41 -66.11,8.77c-16,26.08 -19.46,60.46 -14.28,90.12c5.04,28.93 23.46,73.9 60.85,62.34c-0.76,1.61 -1.51,3.21 -2.26,4.82c-11.64,-27.39 -11.55,-85.62 28.42,-89.69c5.92,-0.6 11.71,7.99 3.91,8.79" id="path30"/>
    <path fill="#464953" fill-rule="nonzero" d="m24981.16123,-1666.38055c-17.539,0 -31.757,23.31 -31.757,52.08c0,12.28 2.605,23.54 6.941,32.45c-4.559,1.89 -9.32,2.89 -14.234,2.89c-31.957,0 -57.868,-42.48 -57.868,-94.9c0,-52.41 25.911,-94.9 57.868,-94.9c31.961,0 57.871,42.49 57.871,94.9c0,5.66 -0.317,11.19 -0.899,16.58c-5.101,-5.74 -11.269,-9.1 -17.922,-9.1" id="path32"/>
    <path fill="#474953" fill-rule="nonzero" d="m24983.11523,-1661.99055c-33.625,3.42 -30.188,58.23 -21.204,79.36c0.829,1.95 -0.214,4.19 -2.265,4.83c-34.442,10.65 -60.199,-13.97 -72.074,-44.81c-14.922,-38.75 -13.297,-90.28 11.035,-125.12c16.34,-23.41 45.105,-33.77 69.922,-16.41c33.07,23.16 39.679,71.42 36.343,108.41c-0.371,4.11 -7.707,3.15 -9.675,1.27c-3.414,-4.25 -7.942,-6.75 -13.575,-7.48c-6.55,-0.83 -8.769,-9.88 -0.922,-8.88c9.278,1.16 15.36,4.1 22.274,10.71c-3.227,0.42 -6.453,0.85 -9.684,1.27c2.684,-29.71 -1.371,-64.25 -20.703,-88.29c-21.242,-26.43 -50.043,-17.42 -66.109,8.77c-16.004,26.08 -19.461,60.45 -14.289,90.11c5.047,28.93 23.465,73.9 60.855,62.34c-0.758,1.61 -1.511,3.22 -2.265,4.82c-11.641,-27.39 -11.543,-85.61 28.425,-89.69c5.914,-0.6 11.715,7.99 3.911,8.79" id="path34"/>
    <path fill="#f4cf9d" fill-rule="nonzero" d="m25421.60523,-1971.12055l-145.68,-191.97l-145.67,191.97l145.67,145.68l145.68,-145.68" id="path36"/>
    <path fill="#d8b891" fill-rule="nonzero" d="m25421.60523,-1971.12055l-145.68,-191.97l0,337.65l145.68,-145.68z" id="path38"/>
    <path fill="#385f94" fill-rule="nonzero" d="m25047.92523,-1162.98055c-37.221,17.7 -48.26,0.48 -12.986,-16.29c36.486,-22.93 102.286,-70.98 155.006,-155.45c45.38,-72.69 78.06,-167.47 84.99,-195.51c-4.22,43.09 -18.01,125.32 -72,211.8c-52.72,84.47 -118.52,132.53 -155.01,155.45" id="path40"/>
    <path fill="#385f94" fill-rule="nonzero" d="m25515.64523,-1143.07055c37.23,17.7 48.27,0.48 12.99,-16.29c-36.49,-22.93 -102.28,-70.98 -155.01,-155.45c-45.37,-72.69 -78.06,-167.47 -84.99,-195.51c4.22,43.09 18.02,125.32 72.01,211.8c52.72,84.48 118.52,132.52 155,155.45" id="path42"/>
    <path fill="#658ec9" fill-rule="nonzero" d="m25110.81523,-2227.39855c33.78,-14.961 71.2,-15.094 105,-0.133c2.56,1.133 -7.65,17.723 -12.54,15.551c-32.43,-14.34 -68.56,-14.5 -100.99,-0.129c-4.72,2.09 4.28,-13.402 8.53,-15.289l0,0" id="path44"/>
    <path fill="#658ec9" fill-rule="nonzero" d="m25322.05523,-2227.39855c33.43,-16.383 71.54,-16.523 104.99,-0.133c2.72,1.321 -7.85,17.852 -12.53,15.551c-32.19,-15.77 -68.79,-15.93 -100.99,-0.129c-4.49,2.188 4.36,-13.242 8.53,-15.289l0,0" id="path46"/>
    <path fill="#658ec9" fill-rule="nonzero" d="m25222.75523,-2317.19955c33.05,-17.851 71.92,-17.972 105,-0.152c2.85,1.543 -8.09,17.973 -12.54,15.57c-31.85,-17.168 -69.13,-17.347 -100.99,-0.14c-4.24,2.293 4.45,-13.079 8.53,-15.278l0,0" id="path48"/>
    <path fill="#658ec9" fill-rule="nonzero" d="m25071.48523,-2398.92155c33.99,-14.25 70.97,-14.379 104.99,-0.137c2.49,1.039 -7.53,17.648 -12.53,15.558c-32.64,-13.64 -68.37,-13.82 -100.99,-0.14c-4.83,2.019 4.25,-13.481 8.53,-15.281l0,0" id="path50"/>
    <path fill="#658ec9" fill-rule="nonzero" d="m25357.78523,-2395.75055c33.64,-15.8 71.31,-15.91 104.99,-0.128c2.66,1.238 -7.75,17.789 -12.53,15.546c-32.36,-15.128 -68.66,-15.316 -100.99,-0.128c-4.59,2.14 4.33,-13.309 8.53,-15.29l0,0" id="path52"/>
    <path fill="#37588e" fill-rule="nonzero" d="m27497.40523,-2314.75055l0,450.46c-40.67,18.77 -96.96,35.97 -151.72,35.97c-107.93,0 -204.89,-62.55 -204.89,-270.59c0,-225.238 92.27,-281.531 186.12,-281.531c71.95,0 125.14,26.57 170.49,65.691zm-588.11,209.58c0,309.69 193.95,433.26 353.49,433.26c114.19,0 181.44,-42.22 234.62,-106.36l0,233.06l-106.36,0l0,134.52l295.62,0c26.6,0 39.12,-20.33 39.12,-53.18l0,-869.649c0,-17.211 20.32,-42.242 39.09,-42.242l56.3,0l0,-129.821l-278.4,0c-23.46,0 -37.54,34.403 -42.23,92.274c-53.18,-60.981 -136.08,-104.793 -250.27,-104.793c-164.23,0 -340.98,98.531 -340.98,412.931" id="path54"/>
    <path fill="#37588e" fill-rule="nonzero" d="m28343.51523,-2322.58255l0,175.182c-35.96,6.25 -76.65,9.4 -120.43,9.4c-92.28,0 -148.6,-37.55 -148.6,-120.449c0,-82.902 48.49,-121.992 125.14,-121.992c57.87,0 104.79,21.883 143.89,57.859zm-491.13,54.75c0,172.042 134.51,250.262 323.77,250.262c68.82,0 115.75,-6.26 167.36,-18.78l0,86.04c0,82.9 -45.36,121.99 -142.32,121.99c-98.56,0 -148.6,-37.54 -189.27,-73.52l-104.79,0l0,167.37c76.65,34.41 179.87,62.56 339.41,62.56c212.72,0 325.35,-68.82 325.35,-256.51l0,-408.251c0,-18.758 20.32,-39.09 39.09,-39.09l43.81,0l0,-109.481c-31.29,-18.777 -78.22,-31.289 -137.66,-31.289c-95.41,0 -143.91,37.52 -164.23,103.223c-61,-75.07 -137.65,-101.652 -237.75,-101.652c-153.29,0 -262.77,84.449 -262.77,247.128" id="path56"/>
    <path fill="#37588e" fill-rule="nonzero" d="m28609.71523,-1684.41055l96.96,0l0,218.97l228.36,0l0,-218.97l165.81,0l0,-137.65l-165.81,0l0,-450.471c0,-87.59 31.29,-103.23 115.76,-103.23l56.3,0l0,-122c-34.41,-10.949 -82.9,-20.34 -147.03,-20.34c-157.97,0 -253.39,50.062 -253.39,220.562l0,475.479l-96.96,0l0,137.65" id="path58"/>
    <path fill="#37588e" fill-rule="nonzero" d="m29630.99523,-2322.58255l0,175.182c-35.96,6.25 -76.64,9.4 -120.42,9.4c-92.28,0 -148.6,-37.55 -148.6,-120.449c0,-82.902 48.49,-121.992 125.13,-121.992c57.87,0 104.8,21.883 143.89,57.859zm-491.13,54.75c0,172.042 134.52,250.262 323.78,250.262c68.81,0 115.74,-6.26 167.35,-18.78l0,86.04c0,82.9 -45.35,121.99 -142.32,121.99c-98.55,0 -148.6,-37.54 -189.26,-73.52l-104.79,0l0,167.37c76.62,34.41 179.86,62.56 339.4,62.56c212.73,0 325.36,-68.82 325.36,-256.51l0,-408.251c0,-18.758 20.32,-39.09 39.09,-39.09l43.81,0l0,-109.481c-31.29,-18.777 -78.22,-31.289 -137.66,-31.289c-95.42,0 -143.91,37.52 -164.23,103.223c-61.01,-75.07 -137.65,-101.652 -237.76,-101.652c-153.28,0 -262.77,84.449 -262.77,247.128" id="path60"/>
    <path fill="#37588e" fill-rule="nonzero" d="m30031.01523,-2389.85155c0,70.391 56.3,126.711 128.25,126.711c70.39,0 128.25,-56.32 128.25,-126.711c0,-70.379 -57.86,-125.109 -128.25,-125.109c-71.95,0 -128.25,54.73 -128.25,125.109" id="path62"/>
    <path fill="#37588e" fill-rule="nonzero" d="m30816.19523,-1972.22055l-162.66,-533.362l-195.52,0l-184.58,639.722c-9.38,25.03 -28.15,43.8 -50.04,43.8l-29.72,0l0,137.65l362.87,0l0,-137.65l-71.96,0l107.94,-409.791l3.12,0l159.54,547.441l175.2,0l159.52,-547.441l3.14,0l82.9,306.551c20.32,71.96 12.52,103.24 -51.61,103.24l-23.46,0l0,137.65l342.53,0l0,-137.65l-26.58,0c-25.03,0 -50.07,-14.08 -59.45,-48.49l-186.12,-635.032l-195.52,0l-156.42,533.362l-3.12,0" id="path64"/>
    <path fill="#37588e" fill-rule="nonzero" d="m32053.49523,-2100.47055c0,186.14 -86.03,278.41 -200.22,278.41c-114.17,0 -200.2,-92.27 -200.2,-278.41c0,-184.561 86.03,-272.17 200.2,-272.17c114.19,0 200.22,87.609 200.22,272.17zm-631.9,1.56c0,264.34 192.38,427 431.68,427c239.33,0 431.71,-162.66 431.71,-427c0,-262.761 -192.38,-417.621 -431.71,-417.621c-239.3,0 -431.68,154.86 -431.68,417.621" id="path66"/>
    <path fill="#37588e" fill-rule="nonzero" d="m32289.78523,-2375.76155l54.72,0c18.78,0 39.12,21.89 39.12,39.09l0,472.381c0,17.2 -20.34,42.23 -39.12,42.23l-60.98,0l0,137.65l279.97,0c26.6,0 43.81,-23.46 46.92,-118.87c54.76,67.24 118.88,126.68 226.82,126.68c17.19,0 34.4,-3.12 50.04,-7.81l0,-168.93l-39.11,0c-118.87,0 -190.83,-25.03 -236.18,-50.04l0,-472.381l114.19,0l0,-129.821l-436.39,0l0,129.821" id="path68"/>
    <path fill="#37588e" fill-rule="nonzero" d="m32902.69523,-2375.76155l60.98,0c18.78,0 39.12,21.89 39.12,39.09l0,749.231c0,17.21 -20.34,42.23 -39.12,42.23l-65.69,0l0,134.52l294.05,0c26.6,0 39.12,-18.78 39.12,-53.18l0,-872.801c0,-18.758 21.89,-39.09 39.1,-39.09l64.13,0l0,-129.821l-431.69,0l0,129.821" id="path70"/>
    <path fill="#37588e" fill-rule="nonzero" d="m33936.70523,-2314.75055l0,450.46c-40.66,18.77 -96.96,35.97 -151.72,35.97c-107.91,0 -204.89,-62.55 -204.89,-270.59c0,-225.238 92.27,-281.531 186.12,-281.531c71.95,0 125.14,26.57 170.49,65.691zm-588.12,209.58c0,309.69 193.96,433.26 353.5,433.26c114.19,0 181.44,-42.22 234.62,-106.36l0,233.06l-106.37,0l0,134.52l295.61,0c26.6,0 39.1,-20.33 39.1,-53.18l0,-869.649c0,-17.211 20.4,-42.242 39.1,-42.242l56.3,0l0,-129.821l-278.37,0c-23.46,0 -37.55,34.403 -42.24,92.274c-53.18,-60.981 -136.08,-104.793 -250.27,-104.793c-164.23,0 -340.98,98.531 -340.98,412.931" id="path72"/>
   </g>
  </g>
 </g>
</svg>