<svg width="160" height="50" xmlns="http://www.w3.org/2000/svg" xmlns:svg="http://www.w3.org/2000/svg">
 <g>
  <title>Layer 1</title>
  <g stroke="null" id="svg_1">
   <g stroke="null" id="svg_2">
    <path stroke="null" d="m0.96719,10.51829l9.02024,-1.26847l0,8.73836l-9.02024,0l0,-7.46989zm9.02024,8.59742l0,8.59742l-9.02024,-1.198l0,-7.39942l9.02024,0l0,0l0,0zm0.98659,-9.93636l11.98001,-1.62082l0,10.50012l-11.98001,0l0,-8.8793zm12.05048,9.93636l0,10.35918l-11.98001,-1.62082l0,-8.73836l11.98001,0z" fill="#22AAE2" id="path13"/>
    <path stroke="null" id="svg_3" d="m41.34686,25.03524l0,-8.03365c0,-0.91612 0,-1.62082 0.07047,-2.25506l0,-0.42282l0,0c-0.14094,0.63424 -0.21141,1.12753 -0.35235,1.40941l-3.80541,9.23165l-1.33894,0l-3.80541,-9.16118c-0.07047,-0.14094 -0.14094,-0.63424 -0.35235,-1.47988l-0.07047,0c0.07047,0.70471 0.07047,1.6913 0.07047,2.95977l0,7.6813l-1.90271,0l0,-12.54377l2.95977,0l3.17118,7.89271c0.28188,0.77518 0.49329,1.33894 0.56377,1.6913l0.07047,0c0.21141,-0.70471 0.49329,-1.26847 0.63424,-1.76177l3.31212,-7.82224l2.8893,0l0,12.54377l-2.11412,0.07047l0,0z" fill="#22AAE2"/>
    <path stroke="null" id="svg_4" d="m47.40733,14.04182c-0.35235,0 -0.63424,-0.07047 -0.84565,-0.35235c-0.21141,-0.21141 -0.35235,-0.49329 -0.35235,-0.84565c0,-0.35235 0.07047,-0.63424 0.35235,-0.84565c0.21141,-0.21141 0.49329,-0.35235 0.84565,-0.35235c0.35235,0 0.63424,0.07047 0.91612,0.35235c0.21141,0.21141 0.35235,0.49329 0.35235,0.84565c0,0.28188 -0.07047,0.56377 -0.35235,0.84565c-0.28188,0.21141 -0.56377,0.35235 -0.91612,0.35235zm-1.05706,10.99342l0,-8.94977l2.04365,0l0,8.94977l-2.04365,0z" fill="#22AAE2"/>
    <path stroke="null" id="svg_5" d="m57.48463,24.61241c-0.70471,0.42282 -1.47988,0.56377 -2.53694,0.56377c-1.33894,0 -2.396,-0.42282 -3.17118,-1.26847c-0.91612,-0.77518 -1.33894,-1.83224 -1.33894,-3.17118c0,-1.47988 0.42282,-2.74835 1.33894,-3.594c0.84565,-0.84565 2.04365,-1.33894 3.52353,-1.33894c0.84565,0 1.55035,0.14094 2.11412,0.42282l0,1.90271c-0.63424,-0.49329 -1.33894,-0.70471 -2.04365,-0.70471c-0.84565,0 -1.47988,0.28188 -2.04365,0.84565c-0.49329,0.56377 -0.77518,1.33894 -0.77518,2.25506c0,0.91612 0.21141,1.62082 0.77518,2.18459c0.49329,0.56377 1.198,0.77518 2.04365,0.77518c0.70471,0 1.40941,-0.21141 2.11412,-0.77518l0,1.90271l0,0z" fill="#22AAE2"/>
    <path stroke="null" id="svg_6" d="m64.74311,17.98817c-0.35235,-0.21141 -0.70471,-0.28188 -1.198,-0.28188c-0.56377,0 -1.05706,0.21141 -1.40941,0.77518c-0.35235,0.49329 -0.56377,1.198 -0.56377,1.97318l0,4.58059l-2.04365,0l0,-8.94977l2.04365,0l0,1.76177l0,0c0.42282,-1.26847 1.198,-1.90271 2.32553,-1.90271c0.35235,0 0.63424,0 0.84565,0.14094l0,1.90271l0,0z" fill="#22AAE2"/>
    <path stroke="null" id="svg_7" d="m70.16935,25.24665c-1.40941,0 -2.46647,-0.42282 -3.31212,-1.26847c-0.84565,-0.84565 -1.26847,-1.90271 -1.26847,-3.31212c0,-1.47988 0.42282,-2.67788 1.26847,-3.52353c0.84565,-0.84565 1.97318,-1.26847 3.45306,-1.26847c1.40941,0 2.46647,0.42282 3.24165,1.26847c0.77518,0.84565 1.198,1.97318 1.198,3.38259c0,1.47988 -0.42282,2.60741 -1.26847,3.45306c-0.77518,0.77518 -1.90271,1.26847 -3.31212,1.26847zm0.07047,-7.75177c-0.77518,0 -1.40941,0.28188 -1.83224,0.77518c-0.42282,0.56377 -0.70471,1.33894 -0.70471,2.25506s0.21141,1.6913 0.70471,2.18459s1.05706,0.77518 1.83224,0.77518c1.62082,0 2.46647,-1.05706 2.46647,-3.03024c0,-0.98659 -0.21141,-1.76177 -0.63424,-2.25506c-0.42282,-0.42282 -0.98659,-0.70471 -1.83224,-0.70471z" fill="#22AAE2"/>
    <path stroke="null" id="svg_8" d="m76.72311,24.75335l0,-1.90271c0.77518,0.56377 1.55035,0.84565 2.396,0.84565c0.98659,0 1.47988,-0.28188 1.47988,-0.98659c0,-0.28188 -0.07047,-0.56377 -0.28188,-0.70471c-0.21141,-0.14094 -0.70471,-0.42282 -1.40941,-0.70471c-0.84565,-0.35235 -1.47988,-0.77518 -1.6913,-1.198c-0.28188,-0.42282 -0.42282,-0.91612 -0.42282,-1.47988c0,-0.77518 0.28188,-1.47988 0.98659,-1.97318s1.47988,-0.77518 2.46647,-0.77518c0.70471,0 1.40941,0.14094 1.97318,0.35235l0,1.83224c-0.63424,-0.42282 -1.33894,-0.63424 -2.04365,-0.63424c-0.42282,0 -0.70471,0.07047 -0.98659,0.28188c-0.21141,0.14094 -0.35235,0.42282 -0.35235,0.70471c0,0.28188 0.07047,0.49329 0.21141,0.70471c0.14094,0.14094 0.56377,0.42282 1.33894,0.70471c0.84565,0.35235 1.47988,0.70471 1.76177,1.12753c0.35235,0.42282 0.49329,0.91612 0.49329,1.47988c0,0.84565 -0.28188,1.47988 -0.98659,1.97318s-1.47988,0.77518 -2.60741,0.77518c-0.77518,0.07047 -1.62082,-0.14094 -2.32553,-0.42282z" fill="#22AAE2"/>
    <path stroke="null" id="svg_9" d="m88.84406,25.24665c-1.40941,0 -2.46647,-0.42282 -3.31212,-1.26847c-0.84565,-0.84565 -1.26847,-1.90271 -1.26847,-3.31212c0,-1.47988 0.42282,-2.67788 1.26847,-3.52353c0.84565,-0.84565 1.97318,-1.26847 3.45306,-1.26847c1.40941,0 2.46647,0.42282 3.24165,1.26847s1.198,1.97318 1.198,3.38259c0,1.47988 -0.42282,2.60741 -1.26847,3.45306c-0.77518,0.84565 -1.90271,1.26847 -3.31212,1.26847zm0.07047,-7.75177c-0.77518,0 -1.40941,0.28188 -1.83224,0.77518c-0.42282,0.49329 -0.70471,1.33894 -0.70471,2.25506s0.21141,1.6913 0.70471,2.18459s1.05706,0.77518 1.83224,0.77518c1.62082,0 2.46647,-1.05706 2.46647,-3.03024c0,-0.98659 -0.21141,-1.76177 -0.63424,-2.25506c-0.42282,-0.49329 -1.05706,-0.70471 -1.83224,-0.70471z" fill="#22AAE2"/>
    <path stroke="null" id="svg_10" d="m100.82407,13.40758c-0.28188,-0.14094 -0.63424,-0.21141 -0.98659,-0.21141c-0.91612,0 -1.40941,0.56377 -1.40941,1.62082l0,1.198l1.97318,0l0,1.62082l-1.97318,0l0,7.32895l-2.04365,0l0,-7.25848l-1.47988,0l0,-1.62082l1.47988,0l0,-1.33894c0,-0.98659 0.28188,-1.6913 0.91612,-2.32553s1.40941,-0.91612 2.32553,-0.91612c0.49329,0 0.84565,0.07047 1.198,0.14094l0,1.76177l0,0z" fill="#22AAE2"/>
    <path stroke="null" id="svg_11" d="m106.88454,24.89429c-0.42282,0.21141 -0.91612,0.28188 -1.55035,0.28188c-1.76177,0 -2.60741,-0.91612 -2.60741,-2.81883l0,-4.72153l-1.47988,0l0,-1.62082l1.47988,0l0,-2.04365l2.04365,-0.63424l0,2.67788l2.18459,0l0,1.62082l-2.18459,0l0,4.36918c0,0.56377 0.07047,0.98659 0.28188,1.198c0.21141,0.21141 0.49329,0.35235 0.98659,0.35235c0.28188,0 0.63424,-0.07047 0.91612,-0.28188l-0.07047,1.62082l0,0z" fill="#22AAE2"/>
    <path stroke="null" id="svg_12" d="m121.82432,25.03524l-1.12753,-3.17118l-5.00341,0l-1.12753,3.17118l-2.25506,0l4.72153,-12.54377l2.32553,0l4.72153,12.54377l-2.25506,0zm-3.45306,-9.79542c-0.07047,-0.21141 -0.14094,-0.49329 -0.14094,-0.91612l-0.07047,0c0,0.35235 -0.07047,0.63424 -0.14094,0.91612l-1.6913,4.792l3.87588,0l-1.83224,-4.792z" fill="#22AAE2"/>
    <path stroke="null" id="svg_13" d="m127.46197,23.34394l4.792,0l0,1.62082l-7.61083,0l0,-0.70471l4.86247,-6.62424l-4.36918,0l0,-1.62082l7.11753,0l0,0.77518l-4.792,6.55377z" fill="#22AAE2"/>
    <path stroke="null" id="svg_14" d="m139.8648,25.03524l0,-1.33894l0,0c-0.63424,1.05706 -1.47988,1.55035 -2.67788,1.55035c-2.11412,0 -3.17118,-1.26847 -3.17118,-3.73494l0,-5.42624l2.04365,0l0,5.14436c0,1.55035 0.63424,2.32553 1.83224,2.32553c0.63424,0 1.12753,-0.21141 1.47988,-0.63424c0.35235,-0.42282 0.56377,-0.98659 0.56377,-1.6913l0,-5.14436l2.04365,0l0,8.94977l-2.11412,0z" fill="#22AAE2"/>
    <path stroke="null" id="svg_15" d="m150.01257,17.98817c-0.35235,-0.21141 -0.70471,-0.28188 -1.198,-0.28188c-0.56377,0 -1.05706,0.21141 -1.40941,0.77518s-0.56377,1.198 -0.56377,1.97318l0,4.58059l-1.97318,0l0,-8.94977l2.04365,0l0,1.76177l0,0c0.42282,-1.26847 1.198,-1.90271 2.32553,-1.90271c0.35235,0 0.63424,0 0.84565,0.14094l-0.07047,1.90271l0,0z" fill="#22AAE2"/>
    <path stroke="null" id="svg_16" d="m152.97234,21.08888c0.07047,1.62082 0.98659,2.53694 2.67788,2.53694c0.98659,0 1.83224,-0.28188 2.67788,-0.84565l0,1.6913c-0.84565,0.49329 -1.90271,0.77518 -3.17118,0.77518c-1.33894,0 -2.396,-0.42282 -3.17118,-1.198c-0.77518,-0.77518 -1.12753,-1.90271 -1.12753,-3.38259c0,-1.47988 0.42282,-2.60741 1.26847,-3.45306c0.84565,-0.84565 1.83224,-1.26847 2.95977,-1.26847c1.26847,0 2.18459,0.35235 2.8893,1.12753c0.70471,0.77518 1.05706,1.83224 1.05706,3.10071l0,0.98659l-6.06047,-0.07047l0,0zm4.0873,-1.47988c0,-1.47988 -0.63424,-2.18459 -1.90271,-2.18459c-0.56377,0 -0.98659,0.21141 -1.40941,0.56377c-0.42282,0.35235 -0.63424,0.91612 -0.77518,1.55035l4.0873,0l0,0.07047z" fill="#22AAE2"/>
   </g>
   <g stroke="null" id="svg_17">
    <path stroke="null" id="svg_18" d="m32.81991,40.39783c-0.56377,0 -1.12753,-0.07047 -1.55035,-0.21141c-0.42282,-0.14094 -0.77518,-0.28188 -1.198,-0.42282l0,-1.33894l0.07047,0c0.35235,0.35235 0.77518,0.63424 1.198,0.77518c0.42282,0.21141 0.91612,0.28188 1.33894,0.28188c0.63424,0 1.05706,-0.14094 1.33894,-0.35235c0.28188,-0.28188 0.49329,-0.56377 0.49329,-0.98659c0,-0.35235 -0.07047,-0.56377 -0.21141,-0.77518c-0.14094,-0.21141 -0.42282,-0.35235 -0.77518,-0.42282c-0.28188,-0.07047 -0.49329,-0.14094 -0.70471,-0.21141c-0.21141,-0.07047 -0.49329,-0.14094 -0.77518,-0.21141c-0.28188,-0.07047 -0.56377,-0.14094 -0.77518,-0.28188c-0.21141,-0.14094 -0.42282,-0.28188 -0.56377,-0.42282c-0.14094,-0.21141 -0.28188,-0.42282 -0.42282,-0.63424c-0.07047,-0.21141 -0.14094,-0.49329 -0.14094,-0.84565c0,-0.63424 0.28188,-1.198 0.77518,-1.6913c0.49329,-0.42282 1.198,-0.70471 1.97318,-0.70471c0.49329,0 0.91612,0.07047 1.26847,0.14094c0.42282,0.07047 0.77518,0.21141 1.12753,0.42282l0,1.33894l-0.07047,0c-0.28188,-0.21141 -0.56377,-0.42282 -0.98659,-0.63424c-0.42282,-0.21141 -0.84565,-0.28188 -1.26847,-0.28188c-0.49329,0 -0.91612,0.14094 -1.198,0.35235s-0.49329,0.56377 -0.49329,0.91612c0,0.35235 0.07047,0.63424 0.28188,0.84565c0.21141,0.21141 0.42282,0.35235 0.77518,0.42282c0.21141,0.07047 0.49329,0.14094 0.84565,0.21141c0.35235,0.07047 0.63424,0.14094 0.84565,0.21141c0.56377,0.14094 0.98659,0.42282 1.26847,0.77518c0.28188,0.35235 0.42282,0.77518 0.42282,1.26847c0,0.35235 -0.07047,0.63424 -0.21141,0.91612c-0.14094,0.28188 -0.28188,0.56377 -0.56377,0.77518c-0.28188,0.21141 -0.56377,0.42282 -0.91612,0.56377c-0.28188,0.14094 -0.70471,0.21141 -1.198,0.21141z" fill="#22AAE2"/>
    <path stroke="null" id="svg_19" d="m43.60192,42.23007c-0.21141,0.07047 -0.42282,0.07047 -0.63424,0.14094s-0.42282,0.07047 -0.63424,0.07047c-0.63424,0 -1.12753,-0.14094 -1.47988,-0.49329c-0.35235,-0.35235 -0.56377,-0.84565 -0.63424,-1.47988c-0.07047,0 -0.07047,0 -0.14094,0s-0.07047,0 -0.14094,0c-0.56377,0 -1.05706,-0.07047 -1.47988,-0.28188c-0.42282,-0.21141 -0.84565,-0.49329 -1.12753,-0.84565s-0.56377,-0.84565 -0.70471,-1.33894c-0.14094,-0.56377 -0.28188,-1.12753 -0.28188,-1.83224c0,-0.70471 0.07047,-1.26847 0.28188,-1.83224c0.14094,-0.49329 0.42282,-0.98659 0.70471,-1.33894c0.28188,-0.35235 0.70471,-0.63424 1.12753,-0.84565c0.42282,-0.21141 0.91612,-0.28188 1.47988,-0.28188c0.56377,0 1.05706,0.07047 1.47988,0.28188c0.42282,0.21141 0.84565,0.49329 1.12753,0.84565c0.28188,0.35235 0.56377,0.77518 0.70471,1.33894c0.14094,0.56377 0.28188,1.12753 0.28188,1.83224c0,1.05706 -0.21141,1.90271 -0.63424,2.60741c-0.42282,0.70471 -0.98659,1.12753 -1.6913,1.40941c0,0.21141 0.07047,0.42282 0.14094,0.56377s0.14094,0.28188 0.21141,0.42282c0.07047,0.14094 0.21141,0.21141 0.35235,0.28188s0.35235,0.07047 0.56377,0.07047c0.14094,0 0.35235,0 0.49329,-0.07047s0.35235,-0.07047 0.42282,-0.14094l0.14094,0l0,0.91612l0.07047,0zm-1.198,-6.06047c0,-0.56377 -0.07047,-1.05706 -0.14094,-1.40941s-0.28188,-0.77518 -0.49329,-1.05706c-0.21141,-0.28188 -0.49329,-0.49329 -0.77518,-0.63424c-0.28188,-0.14094 -0.63424,-0.21141 -1.05706,-0.21141c-0.42282,0 -0.77518,0.07047 -1.05706,0.21141s-0.56377,0.35235 -0.77518,0.63424c-0.21141,0.28188 -0.35235,0.63424 -0.49329,1.05706c-0.14094,0.42282 -0.14094,0.91612 -0.14094,1.40941c0,1.05706 0.21141,1.90271 0.70471,2.46647c0.42282,0.56377 1.05706,0.84565 1.83224,0.84565c0.77518,0 1.33894,-0.28188 1.83224,-0.84565c0.35235,-0.56377 0.56377,-1.40941 0.56377,-2.46647z" fill="#22AAE2"/>
    <path stroke="null" id="svg_20" d="m49.52145,40.25689l-4.72153,0l0,-8.17459l1.05706,0l0,7.25848l3.66447,0l0,0.91612z" fill="#22AAE2"/>
    <path stroke="null" id="svg_21" d="m60.37393,36.1696c0,0.77518 -0.14094,1.40941 -0.42282,2.04365c-0.28188,0.63424 -0.70471,1.05706 -1.198,1.40941c-0.42282,0.28188 -0.84565,0.42282 -1.26847,0.49329s-0.98659,0.14094 -1.62082,0.14094l-1.90271,0l0,-8.17459l1.83224,0c0.77518,0 1.40941,0.07047 1.83224,0.14094s0.84565,0.28188 1.12753,0.49329c0.56377,0.35235 0.91612,0.84565 1.198,1.40941s0.42282,1.198 0.42282,2.04365zm-1.12753,0c0,-0.63424 -0.07047,-1.198 -0.28188,-1.62082s-0.49329,-0.77518 -0.91612,-1.05706c-0.28188,-0.14094 -0.63424,-0.28188 -0.91612,-0.35235s-0.77518,-0.14094 -1.26847,-0.14094l-0.84565,0l0,6.34236l0.84565,0c0.49329,0 0.91612,-0.07047 1.26847,-0.14094s0.70471,-0.21141 0.98659,-0.42282c0.35235,-0.28188 0.63424,-0.56377 0.84565,-1.05706c0.14094,-0.42282 0.28188,-0.91612 0.28188,-1.55035z" fill="#22AAE2"/>
    <path stroke="null" id="svg_22" d="m64.88405,39.62266c-0.07047,0.07047 -0.21141,0.14094 -0.35235,0.28188c-0.14094,0.14094 -0.28188,0.21141 -0.42282,0.28188c-0.21141,0.07047 -0.35235,0.14094 -0.56377,0.21141s-0.42282,0.07047 -0.70471,0.07047c-0.28188,0 -0.49329,-0.07047 -0.70471,-0.14094c-0.21141,-0.07047 -0.42282,-0.21141 -0.63424,-0.42282c-0.14094,-0.14094 -0.28188,-0.35235 -0.42282,-0.63424s-0.07047,-0.56377 -0.07047,-0.77518c0,-0.42282 0.07047,-0.77518 0.28188,-1.05706c0.21141,-0.28188 0.49329,-0.56377 0.84565,-0.70471c0.35235,-0.14094 0.77518,-0.28188 1.198,-0.35235s0.98659,-0.07047 1.55035,-0.14094l0,-0.21141c0,-0.21141 -0.07047,-0.42282 -0.14094,-0.56377s-0.14094,-0.28188 -0.28188,-0.35235c-0.14094,-0.07047 -0.28188,-0.14094 -0.49329,-0.14094s-0.35235,-0.14094 -0.56377,-0.14094c-0.21141,0 -0.49329,0.07047 -0.84565,0.14094s-0.63424,0.14094 -0.98659,0.28188l-0.07047,0l0,-1.05706c0.21141,-0.07047 0.49329,-0.14094 0.84565,-0.21141s0.70471,-0.07047 1.05706,-0.07047c0.42282,0 0.77518,0 1.05706,0.07047s0.56377,0.21141 0.77518,0.35235c0.21141,0.14094 0.42282,0.35235 0.49329,0.63424c0.14094,0.28188 0.14094,0.56377 0.14094,0.98659l0,4.22824l-1.05706,0l0,-0.56377l0.07047,0zm0,-0.91612l0,-1.6913c-0.21141,0 -0.56377,0.07047 -0.91612,0.07047s-0.70471,0.07047 -0.91612,0.14094c-0.28188,0.07047 -0.49329,0.21141 -0.70471,0.42282c-0.21141,0.14094 -0.28188,0.42282 -0.28188,0.70471c0,0.35235 0.07047,0.63424 0.28188,0.77518c0.21141,0.21141 0.49329,0.28188 0.84565,0.28188c0.35235,0 0.63424,-0.07047 0.91612,-0.21141c0.28188,-0.07047 0.56377,-0.28188 0.77518,-0.49329z" fill="#22AAE2"/>
    <path stroke="null" id="svg_23" d="m69.25323,40.39783c-0.56377,0 -0.98659,-0.14094 -1.33894,-0.49329c-0.28188,-0.35235 -0.49329,-0.84565 -0.49329,-1.55035l0,-3.38259l-0.70471,0l0,-0.84565l0.70471,0l0,-1.76177l1.05706,0l0,1.76177l1.90271,0l0,0.84565l-1.90271,0l0,2.8893c0,0.28188 0,0.56377 0,0.70471c0,0.14094 0.07047,0.35235 0.14094,0.49329c0.07047,0.14094 0.14094,0.21141 0.28188,0.28188c0.14094,0.07047 0.35235,0.07047 0.56377,0.07047c0.14094,0 0.35235,0 0.49329,-0.07047s0.28188,-0.07047 0.35235,-0.14094l0.07047,0l0,0.91612c-0.21141,0.07047 -0.42282,0.07047 -0.56377,0.14094s-0.42282,0.14094 -0.56377,0.14094z" fill="#22AAE2"/>
    <path stroke="null" id="svg_24" d="m74.609,39.62266c-0.07047,0.07047 -0.21141,0.14094 -0.35235,0.28188c-0.14094,0.14094 -0.28188,0.21141 -0.42282,0.28188c-0.21141,0.07047 -0.35235,0.14094 -0.56377,0.21141s-0.42282,0.07047 -0.70471,0.07047c-0.28188,0 -0.49329,-0.07047 -0.70471,-0.14094c-0.21141,-0.07047 -0.42282,-0.21141 -0.63424,-0.42282c-0.14094,-0.14094 -0.28188,-0.35235 -0.42282,-0.63424s-0.14094,-0.49329 -0.14094,-0.77518c0,-0.42282 0.07047,-0.77518 0.28188,-1.05706c0.21141,-0.28188 0.49329,-0.56377 0.84565,-0.70471c0.35235,-0.14094 0.77518,-0.28188 1.198,-0.35235s0.98659,-0.07047 1.55035,-0.14094l0,-0.21141c0,-0.21141 -0.07047,-0.42282 -0.14094,-0.56377s-0.14094,-0.28188 -0.28188,-0.35235c-0.14094,-0.07047 -0.28188,-0.14094 -0.49329,-0.14094s-0.35235,-0.07047 -0.56377,-0.07047c-0.21141,0 -0.49329,0.07047 -0.84565,0.14094s-0.63424,0.14094 -0.98659,0.28188l-0.07047,0l0,-1.05706c0.21141,-0.07047 0.49329,-0.14094 0.84565,-0.21141s0.70471,-0.07047 1.05706,-0.07047c0.42282,0 0.77518,0 1.05706,0.07047s0.56377,0.21141 0.77518,0.35235c0.21141,0.14094 0.42282,0.35235 0.49329,0.63424c0.14094,0.28188 0.14094,0.56377 0.14094,0.98659l0,4.22824l-1.05706,0l0,-0.63424l0.14094,0zm0,-0.91612l0,-1.6913c-0.21141,0 -0.56377,0.07047 -0.91612,0.07047s-0.70471,0.07047 -0.91612,0.14094c-0.28188,0.07047 -0.49329,0.21141 -0.70471,0.42282c-0.21141,0.14094 -0.28188,0.42282 -0.28188,0.70471c0,0.35235 0.07047,0.63424 0.28188,0.77518c0.21141,0.21141 0.49329,0.28188 0.84565,0.28188c0.35235,0 0.63424,-0.07047 0.91612,-0.21141c0.28188,-0.07047 0.49329,-0.28188 0.77518,-0.49329z" fill="#22AAE2"/>
    <path stroke="null" id="svg_25" d="m89.90112,32.0823l-2.11412,8.17459l-1.198,0l-1.6913,-6.83565l-1.62082,6.83565l-1.198,0l-2.11412,-8.17459l1.12753,0l1.62082,6.83565l1.62082,-6.83565l1.12753,0l1.6913,6.90612l1.62082,-6.90612l1.12753,0z" fill="#22AAE2"/>
    <path stroke="null" id="svg_26" d="m93.77701,39.62266c-0.07047,0.07047 -0.21141,0.14094 -0.35235,0.28188c-0.14094,0.14094 -0.28188,0.21141 -0.42282,0.28188c-0.21141,0.07047 -0.35235,0.14094 -0.56377,0.21141s-0.42282,0.07047 -0.70471,0.07047c-0.28188,0 -0.49329,-0.07047 -0.70471,-0.14094c-0.21141,-0.07047 -0.42282,-0.21141 -0.63424,-0.42282c-0.14094,-0.14094 -0.28188,-0.35235 -0.42282,-0.63424s-0.14094,-0.49329 -0.14094,-0.77518c0,-0.42282 0.07047,-0.77518 0.28188,-1.05706c0.21141,-0.28188 0.49329,-0.56377 0.84565,-0.70471c0.35235,-0.14094 0.77518,-0.28188 1.198,-0.35235s0.98659,-0.07047 1.55035,-0.14094l0,-0.21141c0,-0.21141 -0.07047,-0.42282 -0.14094,-0.56377s-0.14094,-0.28188 -0.28188,-0.35235c-0.14094,-0.07047 -0.28188,-0.14094 -0.49329,-0.14094s-0.35235,-0.07047 -0.56377,-0.07047c-0.21141,0 -0.49329,0.07047 -0.84565,0.14094s-0.63424,0.14094 -0.98659,0.28188l-0.07047,0l0,-1.05706c0.21141,-0.07047 0.49329,-0.14094 0.84565,-0.21141s0.70471,-0.07047 1.05706,-0.07047c0.42282,0 0.77518,0 1.05706,0.07047s0.56377,0.21141 0.77518,0.35235c0.21141,0.14094 0.42282,0.35235 0.49329,0.63424c0.14094,0.28188 0.14094,0.56377 0.14094,0.98659l0,4.22824l-1.05706,0l0,-0.63424l0.14094,0zm0,-0.91612l0,-1.6913c-0.21141,0 -0.56377,0.07047 -0.91612,0.07047s-0.70471,0.07047 -0.91612,0.14094c-0.28188,0.07047 -0.49329,0.21141 -0.70471,0.42282c-0.21141,0.14094 -0.28188,0.42282 -0.28188,0.70471c0,0.35235 0.07047,0.63424 0.28188,0.77518c0.21141,0.21141 0.49329,0.28188 0.84565,0.28188c0.35235,0 0.63424,-0.07047 0.91612,-0.21141c0.28188,-0.07047 0.56377,-0.28188 0.77518,-0.49329z" fill="#22AAE2"/>
    <path stroke="null" id="svg_27" d="m99.5556,35.18301l0,0c-0.14094,0 -0.21141,-0.07047 -0.28188,-0.07047s-0.21141,0 -0.28188,0c-0.28188,0 -0.56377,0.07047 -0.84565,0.21141s-0.56377,0.28188 -0.77518,0.56377l0,4.36918l-1.12753,0l0,-6.13094l1.05706,0l0,0.91612c0.35235,-0.35235 0.70471,-0.56377 0.98659,-0.70471s0.56377,-0.21141 0.84565,-0.21141c0.14094,0 0.21141,0 0.21141,0s0.14094,0 0.21141,0l0,1.05706z" fill="#22AAE2"/>
    <path stroke="null" id="svg_28" d="m102.93819,40.39783c-0.98659,0 -1.76177,-0.28188 -2.25506,-0.84565c-0.56377,-0.56377 -0.84565,-1.33894 -0.84565,-2.32553c0,-0.98659 0.28188,-1.83224 0.77518,-2.396c0.49329,-0.56377 1.198,-0.91612 2.04365,-0.91612c0.35235,0 0.70471,0.07047 0.98659,0.14094s0.56377,0.28188 0.77518,0.49329c0.21141,0.21141 0.42282,0.49329 0.49329,0.84565c0.14094,0.35235 0.14094,0.77518 0.14094,1.26847l0,0.56377l-4.22824,0c0,0.70471 0.21141,1.26847 0.56377,1.62082c0.35235,0.35235 0.84565,0.56377 1.47988,0.56377c0.21141,0 0.42282,0 0.63424,-0.07047c0.21141,-0.07047 0.42282,-0.14094 0.56377,-0.21141c0.21141,-0.07047 0.35235,-0.14094 0.49329,-0.21141c0.14094,-0.07047 0.21141,-0.14094 0.35235,-0.21141l0.07047,0l0,1.12753c-0.14094,0.07047 -0.28188,0.14094 -0.42282,0.21141s-0.35235,0.14094 -0.49329,0.14094c-0.21141,0.07047 -0.35235,0.07047 -0.56377,0.14094s-0.28188,0.07047 -0.56377,0.07047zm1.198,-3.94636c0,-0.28188 -0.07047,-0.49329 -0.07047,-0.70471c-0.07047,-0.21141 -0.14094,-0.35235 -0.28188,-0.49329c-0.14094,-0.14094 -0.28188,-0.28188 -0.49329,-0.35235c-0.21141,-0.07047 -0.42282,-0.14094 -0.70471,-0.14094c-0.28188,0 -0.49329,0.07047 -0.70471,0.14094s-0.35235,0.21141 -0.49329,0.35235c-0.14094,0.14094 -0.28188,0.35235 -0.35235,0.56377c-0.07047,0.21141 -0.14094,0.42282 -0.14094,0.70471l3.24165,0l0,-0.07047z" fill="#22AAE2"/>
    <path stroke="null" id="svg_29" d="m111.04231,40.25689l-1.05706,0l0,-3.52353c0,-0.28188 0,-0.56377 -0.07047,-0.77518c0,-0.21141 -0.07047,-0.42282 -0.14094,-0.56377c-0.07047,-0.14094 -0.21141,-0.28188 -0.35235,-0.35235c-0.14094,-0.07047 -0.35235,-0.14094 -0.63424,-0.14094c-0.28188,0 -0.49329,0.07047 -0.77518,0.21141s-0.56377,0.28188 -0.77518,0.56377l0,4.58059l-1.05706,0l0,-8.59742l1.05706,0l0,3.10071c0.28188,-0.28188 0.63424,-0.49329 0.91612,-0.63424c0.28188,-0.14094 0.63424,-0.21141 0.98659,-0.21141c0.63424,0 1.05706,0.21141 1.40941,0.56377c0.35235,0.42282 0.49329,0.98659 0.49329,1.76177l0,4.01683z" fill="#22AAE2"/>
    <path stroke="null" id="svg_30" d="m117.52561,37.15618c0,1.05706 -0.28188,1.83224 -0.77518,2.396c-0.49329,0.56377 -1.198,0.84565 -1.97318,0.84565c-0.84565,0 -1.55035,-0.28188 -2.04365,-0.84565c-0.49329,-0.56377 -0.70471,-1.33894 -0.70471,-2.396c0,-1.05706 0.28188,-1.83224 0.77518,-2.396c0.49329,-0.56377 1.198,-0.84565 1.97318,-0.84565c0.84565,0 1.47988,0.28188 1.97318,0.84565s0.77518,1.40941 0.77518,2.396zm-1.05706,0c0,-0.77518 -0.14094,-1.40941 -0.42282,-1.76177c-0.28188,-0.35235 -0.70471,-0.56377 -1.26847,-0.56377c-0.56377,0 -0.98659,0.21141 -1.26847,0.56377c-0.28188,0.35235 -0.42282,0.98659 -0.42282,1.76177c0,0.77518 0.14094,1.33894 0.42282,1.76177c0.28188,0.42282 0.70471,0.56377 1.26847,0.56377c0.56377,0 0.91612,-0.21141 1.26847,-0.56377s0.42282,-0.98659 0.42282,-1.76177z" fill="#22AAE2"/>
    <path stroke="null" id="svg_31" d="m123.37467,40.25689l-1.05706,0l0,-0.70471c-0.35235,0.28188 -0.63424,0.49329 -0.91612,0.63424c-0.28188,0.14094 -0.63424,0.21141 -0.98659,0.21141c-0.28188,0 -0.49329,-0.07047 -0.77518,-0.14094s-0.42282,-0.21141 -0.63424,-0.42282c-0.14094,-0.21141 -0.28188,-0.42282 -0.42282,-0.70471c-0.07047,-0.28188 -0.14094,-0.63424 -0.14094,-1.05706l0,-3.94636l1.05706,0l0,3.52353c0,0.35235 0,0.56377 0.07047,0.84565c0,0.21141 0.07047,0.42282 0.14094,0.56377c0.07047,0.14094 0.21141,0.28188 0.35235,0.35235c0.14094,0.07047 0.35235,0.14094 0.63424,0.14094c0.28188,0 0.49329,-0.07047 0.77518,-0.21141s0.56377,-0.35235 0.77518,-0.56377l0,-4.65106l1.05706,0l0,6.13094l0.07047,0z" fill="#22AAE2"/>
    <path stroke="null" id="svg_32" d="m126.54585,40.39783c-0.42282,0 -0.77518,-0.07047 -1.12753,-0.14094s-0.63424,-0.21141 -0.91612,-0.35235l0,-1.12753l0.07047,0c0.07047,0.07047 0.21141,0.14094 0.28188,0.21141c0.14094,0.07047 0.28188,0.14094 0.49329,0.28188c0.14094,0.07047 0.35235,0.14094 0.56377,0.21141c0.21141,0.07047 0.42282,0.07047 0.63424,0.07047c0.14094,0 0.35235,0 0.56377,-0.07047s0.35235,-0.07047 0.42282,-0.14094c0.14094,-0.07047 0.21141,-0.14094 0.28188,-0.28188c0.07047,-0.07047 0.07047,-0.21141 0.07047,-0.42282c0,-0.21141 -0.07047,-0.42282 -0.21141,-0.56377c-0.14094,-0.14094 -0.35235,-0.21141 -0.70471,-0.28188c-0.14094,0 -0.28188,-0.07047 -0.49329,-0.14094s-0.42282,-0.07047 -0.56377,-0.14094c-0.49329,-0.14094 -0.84565,-0.35235 -1.05706,-0.63424c-0.21141,-0.28188 -0.35235,-0.63424 -0.35235,-1.05706c0,-0.56377 0.21141,-0.98659 0.63424,-1.33894c0.42282,-0.35235 0.98659,-0.49329 1.6913,-0.49329c0.35235,0 0.70471,0.07047 1.05706,0.14094c0.35235,0.07047 0.63424,0.21141 0.84565,0.35235l0,1.05706l-0.07047,0c-0.28188,-0.21141 -0.56377,-0.35235 -0.91612,-0.49329s-0.63424,-0.21141 -0.98659,-0.21141c-0.35235,0 -0.63424,0.07047 -0.84565,0.21141s-0.35235,0.35235 -0.35235,0.63424c0,0.28188 0.07047,0.42282 0.21141,0.56377s0.35235,0.21141 0.70471,0.28188c0.14094,0.07047 0.35235,0.07047 0.49329,0.14094s0.42282,0.07047 0.56377,0.14094c0.42282,0.14094 0.77518,0.28188 1.05706,0.56377s0.35235,0.63424 0.35235,1.05706c0,0.28188 -0.07047,0.49329 -0.14094,0.77518s-0.28188,0.42282 -0.49329,0.63424c-0.21141,0.21141 -0.49329,0.35235 -0.77518,0.42282c-0.21141,0.07047 -0.56377,0.14094 -0.98659,0.14094z" fill="#22AAE2"/>
    <path stroke="null" id="svg_33" d="m132.60632,40.39783c-0.98659,0 -1.76177,-0.28188 -2.25506,-0.84565c-0.56377,-0.56377 -0.84565,-1.33894 -0.84565,-2.32553c0,-0.98659 0.28188,-1.83224 0.77518,-2.396c0.49329,-0.56377 1.198,-0.91612 2.04365,-0.91612c0.35235,0 0.70471,0.07047 0.98659,0.14094s0.56377,0.28188 0.77518,0.49329c0.21141,0.21141 0.42282,0.49329 0.49329,0.84565c0.14094,0.35235 0.14094,0.77518 0.14094,1.26847l0,0.56377l-4.22824,0c0,0.70471 0.21141,1.26847 0.56377,1.62082c0.35235,0.35235 0.84565,0.56377 1.47988,0.56377c0.21141,0 0.42282,0 0.63424,-0.07047c0.21141,-0.07047 0.42282,-0.14094 0.56377,-0.21141c0.21141,-0.07047 0.35235,-0.14094 0.49329,-0.21141c0.14094,-0.07047 0.21141,-0.14094 0.35235,-0.21141l0.07047,0l0,1.12753c-0.14094,0.07047 -0.28188,0.14094 -0.42282,0.21141s-0.35235,0.14094 -0.49329,0.14094c-0.21141,0.07047 -0.35235,0.07047 -0.56377,0.14094s-0.28188,0.07047 -0.56377,0.07047zm1.198,-3.94636c0,-0.28188 -0.07047,-0.49329 -0.07047,-0.70471c-0.07047,-0.21141 -0.14094,-0.35235 -0.28188,-0.49329c-0.14094,-0.14094 -0.28188,-0.28188 -0.49329,-0.35235c-0.21141,-0.07047 -0.42282,-0.14094 -0.70471,-0.14094c-0.28188,0 -0.49329,0.07047 -0.70471,0.14094s-0.35235,0.21141 -0.49329,0.35235c-0.14094,0.14094 -0.28188,0.35235 -0.35235,0.56377c-0.07047,0.21141 -0.14094,0.42282 -0.14094,0.70471l3.24165,0l0,-0.07047z" fill="#22AAE2"/>
   </g>
  </g>
 </g>
</svg>