<svg width="80" height="80" viewBox="0 0 80 80" fill="none" xmlns="http://www.w3.org/2000/svg">
<path d="M50.1956 36.3743L34.8521 41.1893L21.5035 46.8513L17.769 47.7989C16.8179 48.6683 15.8206 49.5489 14.742 50.4405C13.5591 51.4213 12.4574 52.3131 11.6106 52.9594C10.6713 53.6728 9.27956 55.0103 8.57217 55.8572C7.51674 57.1278 6.68175 58.4764 6.3222 59.5131C5.68428 61.3857 5.99757 63.2804 7.22687 65.0305C8.80411 67.2595 11.9471 69.5332 15.6118 71.0825C17.4791 71.874 20.622 72.8882 22.9878 73.4565C26.9193 74.4151 34.5273 75.4517 38.7139 75.6079C39.5604 75.6413 40.6971 75.6413 40.7434 75.6079C40.8363 75.552 41.4857 74.3595 42.2397 72.8772C44.8143 67.828 46.6699 63.091 47.6788 59.0451C48.2819 56.5931 48.7573 53.3273 49.0703 49.4599C49.1517 48.3787 49.1863 44.7563 49.1167 43.5301C49.0123 41.5239 48.8267 39.8967 48.537 38.3028C48.4906 38.0687 48.4788 37.8569 48.5021 37.8458C48.5484 37.8124 48.6876 37.7678 50.578 37.2438L50.1954 36.3746V36.3744H50.1956V36.3743ZM46.6932 38.3472C46.8324 38.3472 47.2034 41.7689 47.2961 43.9313C47.3194 44.3883 47.3077 44.6892 47.2845 44.6892C47.1919 44.6892 45.3245 43.6305 43.9911 42.828C42.8312 42.1257 40.6278 40.7213 40.2799 40.4538C40.1637 40.3759 40.1752 40.3648 41.1264 40.0526C42.7383 39.5286 46.5657 38.3472 46.6932 38.3472V38.3472ZM38.8765 40.8216C38.9809 40.8216 39.2475 40.9664 39.8854 41.3454C42.2744 42.7832 45.5218 44.5221 46.9135 45.1017C47.3425 45.28 47.3888 45.213 46.4032 45.8596C44.2924 47.2417 41.6596 48.6014 38.4355 49.9724C37.8673 50.2176 37.3919 50.407 37.3804 50.407C37.3572 50.407 37.4266 50.1285 37.5193 49.7941C38.2964 47.0185 38.7372 44.2099 38.7605 41.9584C38.772 40.8437 38.772 40.8437 38.8765 40.8105C38.8531 40.8216 38.8647 40.8216 38.8765 40.8216V40.8216ZM37.2645 41.4123C37.3338 41.4791 37.2876 43.9759 37.1947 44.6557C36.986 46.283 36.6613 47.7988 36.1279 49.5043C36.0003 49.9164 35.8842 50.2621 35.8612 50.2843C35.8146 50.34 34.2258 48.8465 33.7039 48.2669C32.7992 47.2638 32.0919 46.2606 31.57 45.2799C31.3033 44.7783 30.8859 43.7976 30.9206 43.764C31.1061 43.6415 37.218 41.3678 37.2645 41.4123ZM29.6796 44.2767C29.6911 44.2767 29.7027 44.2767 29.7144 44.2878C29.7375 44.3101 29.8189 44.4885 29.8884 44.6891C30.2594 45.6588 31.0943 47.0855 31.8136 47.9995C32.6022 49.0026 33.6345 50.0725 34.4925 50.7747C34.7709 50.9976 35.0259 51.2093 35.0606 51.2429C35.1304 51.3098 35.1535 51.2985 33.2631 51.9897C31.0714 52.7921 28.6821 53.5946 25.9451 54.4416C25.2912 54.6442 24.638 54.8486 23.9854 55.0547C23.8808 55.0882 23.9157 55.0324 24.2172 54.5755C25.5741 52.5358 27.6384 48.5345 28.7982 45.7034C28.9954 45.2129 29.1925 44.7226 29.2274 44.6111C29.2738 44.455 29.3317 44.3993 29.4824 44.3212C29.5635 44.2991 29.6448 44.2767 29.6796 44.2767V44.2767ZM27.3603 45.2018C27.395 45.2242 26.8035 46.4167 26.2236 47.509C25.0986 49.6156 23.8693 51.6888 22.2225 54.2077C21.9441 54.6423 21.6775 55.0437 21.6426 55.0883C21.5847 55.1663 21.5614 55.1439 21.3759 54.7985C20.9815 54.0517 20.6567 53.0931 20.4828 52.2125C20.3088 51.3431 20.3436 49.8274 20.5409 48.8912C20.6915 48.2002 20.68 48.2113 21.0279 48.0441C22.5124 47.3196 27.3138 45.1573 27.3603 45.2018V45.2018ZM47.3658 45.9822V46.4502C47.3658 48.9358 47.0875 52.3464 46.6815 54.832C46.6119 55.2666 46.5537 55.6232 46.5423 55.6345C46.5423 55.6345 46.206 55.5454 45.8117 55.4338C44.0721 54.9099 42.1817 54.1408 40.4768 53.2382C39.3517 52.6474 37.7166 51.6776 37.7631 51.633C37.7744 51.6219 38.2617 51.3767 38.8298 51.0869C41.1032 49.9501 43.2834 48.724 45.1738 47.5091C45.8813 47.0521 46.9481 46.3166 47.1803 46.1159L47.3658 45.9822ZM18.604 49.2811C18.6503 49.2811 18.6387 49.3703 18.5692 49.7715C18.5227 50.0614 18.4648 50.5964 18.4418 50.9641C18.3488 52.5914 18.6273 53.7953 19.4623 55.4448C19.6942 55.9018 19.8799 56.2807 19.8681 56.2918C19.7869 56.3588 12.1095 58.5212 9.69708 59.1564C8.97809 59.3458 8.35194 59.513 8.3053 59.524C8.22428 59.5464 8.21262 59.5353 8.24738 59.3457C8.51409 57.7074 9.81308 55.5673 11.6222 53.7616C12.8284 52.558 13.7911 51.8558 15.4379 50.9529C16.6208 50.3065 18.4416 49.337 18.5808 49.2923C18.5809 49.2811 18.5924 49.2811 18.604 49.2811V49.2811ZM36.6961 52.3908C36.7077 52.3797 36.986 52.5247 37.3223 52.7141C39.8042 54.0962 43.2602 55.378 46.2058 56.0356L46.4727 56.0914L46.1015 56.2918C44.5591 57.1167 39.491 59.1451 34.3071 61.0066C33.5531 61.274 32.8109 61.5416 32.6716 61.5973C32.5324 61.6529 32.4048 61.6864 32.4048 61.6753C32.4048 61.664 32.6137 61.274 32.8802 60.7948C34.3299 58.1867 35.7913 55.0101 36.5335 52.8032C36.6265 52.5915 36.6844 52.4021 36.6961 52.3908V52.3908ZM34.8521 52.9705C34.8639 52.9818 34.771 53.2157 34.6549 53.4832C33.646 55.8349 32.3237 58.3986 30.6306 61.2742C30.2016 62.0099 29.842 62.6006 29.8302 62.6006C29.8188 62.6006 29.4708 62.3999 29.0533 62.1547C26.5945 60.7057 24.4142 58.9224 22.9879 57.1948L22.779 56.9496L23.8343 56.6709C27.6152 55.679 30.8275 54.609 34.017 53.2939C34.4694 53.1155 34.8406 52.9705 34.8521 52.9705V52.9705ZM46.3105 56.8158C46.3105 56.8158 46.3221 56.8269 46.3105 56.8158C46.322 57.0722 45.7305 59.3682 45.2434 61.0288C44.8375 62.422 44.4894 63.5144 43.8517 65.4425C43.5734 66.2898 43.33 66.9918 43.3182 66.9918C43.3067 66.9918 43.2371 66.9807 43.1675 66.9585C39.7231 66.3565 36.6382 65.5206 33.7388 64.4061C32.9268 64.0939 31.7672 63.5923 31.6976 63.5366C31.6745 63.5141 32.3704 63.2023 33.2517 62.8344C38.5286 60.6164 44.0026 58.0974 45.8813 57.0164C46.1016 56.8826 46.2756 56.8158 46.3105 56.8158V56.8158ZM19.8566 57.6852C19.8798 57.7074 18.4069 59.7472 16.3424 62.5225C15.6235 63.4922 14.7885 64.629 14.4754 65.0525C14.1622 65.4761 13.6868 66.1449 13.42 66.5461L12.9327 67.2706L12.4108 66.8471C11.7961 66.3566 10.7292 65.3089 10.2538 64.7293C9.25629 63.5368 8.58378 62.2774 8.31702 61.1294C8.18941 60.5943 8.18941 60.3267 8.30525 60.2935C8.47917 60.2489 11.5757 59.5466 14.4753 58.9001C16.0873 58.5435 17.9544 58.12 18.6271 57.964C19.2998 57.8077 19.845 57.6852 19.8566 57.6852V57.6852ZM21.341 58.2314L21.712 58.6326C23.3822 60.4271 25.087 61.7537 27.1514 62.9126C27.5226 63.1133 27.8008 63.2915 27.7775 63.3029C27.6965 63.3586 20.6103 65.777 17.3282 66.8693C15.4844 67.4934 13.965 67.995 13.9535 67.995C13.942 67.995 13.8375 67.9282 13.7214 67.8501L13.5127 67.7052L13.849 67.2372C14.9391 65.7213 16.3078 64.0606 19.2884 60.6054L21.341 58.2314ZM30.5959 64.5955C30.6073 64.5845 31.1176 64.7627 31.7438 64.9858C33.2517 65.5319 34.446 65.8773 36.0467 66.2675C38.0183 66.7468 40.8712 67.215 42.5529 67.3486C42.8081 67.3709 42.9472 67.3933 42.9008 67.4267C42.8195 67.4713 41.1148 68.0175 39.8623 68.3964C37.8673 68.9982 31.7788 70.7258 26.8151 72.0968C25.8989 72.3531 25.1102 72.5649 25.0638 72.576C24.948 72.5984 24.5651 72.4979 24.5651 72.4534C24.5651 72.4312 24.8434 72.0857 25.1798 71.7067C26.8497 69.7896 28.5083 67.6496 29.8884 65.6211C30.271 65.0636 30.5959 64.6067 30.5959 64.5955ZM28.5546 64.6514C28.5661 64.6625 27.7428 65.9331 26.3049 68.1176C25.6901 69.0427 25.0058 70.0904 24.7622 70.4583C24.5302 70.8149 24.1824 71.3723 23.9853 71.6843L23.6489 72.2528L23.475 72.2082C23.0573 72.0967 20.1232 71.1046 19.3462 70.8037C18.3835 70.4359 17.3862 69.9902 16.6439 69.6112C15.7162 69.1319 14.5565 68.4185 14.6492 68.3963C14.6724 68.3852 16.2613 67.9727 18.1747 67.4712C23.2545 66.1447 26.0726 65.3757 27.9168 64.8185C28.2532 64.7182 28.543 64.6401 28.5546 64.6514ZM42.9935 67.9058H43.005C43.0515 68.0174 41.1728 73.033 40.4883 74.6156C40.3377 74.9722 40.2799 75.0616 40.1986 75.0502C40.0014 75.0393 37.2761 74.6714 35.6174 74.4373C32.7298 74.0138 27.882 73.2 26.6643 72.9326L26.386 72.877L28.1138 72.4978C31.8251 71.6953 33.6111 71.2607 35.4202 70.7257C37.705 70.0569 39.9667 69.221 42.2512 68.1956C42.6107 68.0395 42.9123 67.9169 42.9935 67.9058Z" fill="url(#paint0_linear)"/>
<path d="M34.3764 2.00057C34.1213 1.96732 30.004 3.39396 27.3483 4.43039C23.7646 5.83493 20.9814 7.1725 19.2649 8.33142C18.6271 8.76629 17.8267 9.53525 17.6993 9.83613C17.653 9.94761 17.6296 10.0813 17.6296 10.2151L19.1838 11.6306L22.8833 12.7675L31.6858 14.2834L41.7523 15.9441L41.8568 15.1082C41.8221 15.1082 41.7988 15.0971 41.7643 15.0971L40.4418 14.8964L40.1753 14.4395C38.8067 12.1211 37.299 9.24542 36.4177 7.30603C35.7335 5.80132 35.084 4.06274 34.7244 2.81435C34.5272 2.05644 34.5041 2.01188 34.3767 2.00078V2.00052H34.3764V2.00057ZM34.1906 2.56918H34.2026C34.214 2.58018 34.2604 2.89247 34.3069 3.26007C34.5038 4.8207 34.8636 6.32516 35.4318 7.95251C35.8608 9.1786 35.8608 9.11179 35.3622 8.96679C34.1793 8.65481 28.8793 7.77427 25.0405 7.26158C24.4258 7.1835 23.9039 7.10553 23.9039 7.09443C23.8575 7.04987 26.6756 5.63423 27.9166 5.07708C29.5054 4.37473 33.8661 2.62485 34.1906 2.56918V2.56918ZM23.0107 7.56246L23.4632 7.70719C25.9217 8.50982 32.103 9.64673 35.5129 9.9142C35.8955 9.94766 36.2204 9.98118 36.2318 9.98118C36.2433 9.99228 35.9188 10.1595 35.5012 10.3489C33.8545 11.1402 32.0452 12.11 30.7927 12.8568C30.4217 13.0796 30.0852 13.258 30.0389 13.258C29.9925 13.258 29.749 13.2134 29.4939 13.18L29.03 13.113L27.8704 12.0206C25.8292 10.1148 24.2287 8.6436 23.614 8.0862L23.0107 7.56246V7.56246ZM22.547 7.9079L24.1822 9.86964C25.0751 10.9508 25.9797 12.0096 26.1771 12.2435C26.3741 12.4778 26.5365 12.6673 26.525 12.6784C26.4786 12.7118 24.1592 12.2771 22.9297 12.0097C21.6656 11.731 21.1437 11.5972 20.3667 11.3633L19.7288 11.1625V11.0064C19.7403 10.2596 20.7263 9.14509 22.3962 8.00833L22.547 7.9079ZM36.4407 10.5829C36.4872 10.5829 36.545 10.6832 36.6842 10.9841C37.0785 11.82 38.308 14.0716 38.6093 14.5062C38.7024 14.6513 38.8645 14.6624 37.2294 14.406C33.298 13.7928 32.0337 13.5924 32.0337 13.5701C32.0337 13.559 32.1497 13.4809 32.3004 13.4029C33.5182 12.7565 34.7475 11.9317 35.8377 11.0511C36.1045 10.8393 36.348 10.6387 36.3943 10.6052C36.4059 10.5829 36.4292 10.5718 36.4407 10.5829Z" fill="url(#paint1_linear)"/>
<path d="M17.7806 9.68005C17.7806 9.68005 17.5256 10.0703 17.7691 10.6499C17.92 11.0065 18.3606 11.4411 18.8592 11.887C18.8592 11.887 24.0201 16.7242 24.6464 17.4154C27.4993 20.5807 28.7403 23.7016 28.8563 28.0039C28.9259 30.7681 28.3806 33.1978 27.0238 36.0178C24.6115 41.078 19.5202 46.6621 11.6687 52.8592L12.817 52.4914C13.5592 51.9563 14.5682 51.388 16.9341 50.1396C22.3964 47.2638 28.5431 44.6223 36.0815 41.9027C46.9365 37.9793 64.7853 33.3871 74.9445 31.8938L76 31.7376L75.8375 31.4924C74.9099 30.1103 74.2719 29.2522 73.5063 28.3382C71.2798 25.6855 68.5777 23.5344 65.2723 21.751C60.7261 19.3102 54.8459 17.4043 47.4006 15.9887C45.9973 15.7211 42.9123 15.2085 40.4073 14.8407C35.0956 14.0495 31.6627 13.5033 27.882 12.8791C26.5252 12.6561 24.4955 12.3218 23.1502 12.0432C22.4544 11.8982 21.1208 11.5973 20.077 11.2518C19.242 10.9396 18.0358 10.6275 17.7806 9.68005V9.68005ZM20.7729 12.4666C20.7844 12.4556 20.9699 12.5223 21.2136 12.6004C21.6543 12.7451 22.2225 12.9123 22.8954 13.0908C23.4044 13.2254 23.9147 13.3554 24.4262 13.4809C25.122 13.6479 25.7018 13.804 25.7133 13.804C25.7947 13.8821 26.9661 17.482 27.3604 18.8641C27.5109 19.3881 27.6271 19.8338 27.6155 19.8338C27.6036 19.8451 27.4762 19.6555 27.3255 19.3992C25.9686 17.1031 23.823 14.7737 21.3411 12.9011C21.0165 12.6784 20.7729 12.4777 20.7729 12.4666ZM26.4789 13.9824C26.5369 13.9824 26.7921 14.0159 27.105 14.0827C29.0766 14.5062 32.6139 15.1527 34.8753 15.5206C35.2581 15.5762 35.5597 15.6433 35.5597 15.6654C35.5597 15.6878 35.4204 15.7657 35.2464 15.855C34.8638 16.0444 33.3213 16.9248 32.8111 17.2592C31.5237 18.084 30.3641 18.9757 29.529 19.7781C29.1927 20.1014 28.9026 20.3689 28.9026 20.3689C28.9026 20.3689 28.8332 20.1795 28.775 19.9453C28.3577 18.396 27.4878 16.0999 26.6992 14.4839C26.5715 14.2276 26.4671 13.9935 26.4671 13.9713C26.4671 13.9935 26.4671 13.9824 26.4789 13.9824V13.9824ZM36.5222 15.8215C36.5918 15.8437 36.7078 16.2227 36.9397 17.0586C37.3689 18.6748 37.5661 20.4804 37.4965 22.1634C37.4732 22.6316 37.4501 23.0662 37.4267 23.1221L37.392 23.2334L36.789 23.044C35.548 22.665 33.5302 22.0965 31.8022 21.6285C30.8162 21.3721 30.0162 21.138 30.0162 21.1158C30.0162 21.0488 31.4544 19.6668 32.069 19.143C33.2401 18.1508 36.4178 15.788 36.5222 15.8215V15.8215ZM37.3224 15.9328C37.3573 15.8996 42.1239 16.6907 44.2926 17.092C45.9048 17.3929 48.2474 17.8611 48.3865 17.9169C48.4561 17.9391 48.2124 18.0729 47.4354 18.4072C44.3737 19.7337 42.1005 20.9261 39.8392 22.3752C39.2477 22.7542 38.749 23.0662 38.7374 23.0662C38.7259 23.0662 38.7143 22.7431 38.7143 22.3529C38.7143 20.2353 38.2735 18.0952 37.4615 16.2896C37.3804 16.1113 37.3108 15.9441 37.3224 15.9328V15.9328ZM49.6505 18.2736C49.6854 18.307 49.5345 19.2099 49.3954 19.7448C48.9779 21.4055 47.853 23.8689 46.473 26.1871C46.2293 26.5995 46.009 26.9339 45.9856 26.945C45.9627 26.9561 45.6495 26.7889 45.2899 26.5883C43.9447 25.8304 42.4138 25.1171 40.7437 24.4482C40.28 24.2588 39.8739 24.1027 39.8623 24.0806C39.781 24.0136 43.5155 21.6396 45.4871 20.5027C47.0528 19.5888 49.6041 18.2289 49.6505 18.2736V18.2736ZM50.5319 18.4073C50.6363 18.4073 52.7471 18.9646 53.8487 19.2767C56.5742 20.057 59.7054 21.1603 61.7466 22.052L62.5931 22.4199L62.0018 22.5536C57.0151 23.6569 52.7471 24.9277 48.6299 26.5327C48.2936 26.6664 47.992 26.7779 47.9691 26.7779C47.9457 26.7779 48.0617 26.5216 48.2125 26.2094C49.4535 23.6793 50.2537 21.0377 50.4507 18.7862C50.4625 18.5744 50.497 18.4073 50.5319 18.4073V18.4073ZM29.5174 23.044C29.5521 23.0105 31.1642 23.3784 32.034 23.6122C33.3561 23.969 36.1626 24.8717 36.1626 24.9387C36.1626 24.9498 35.8496 25.2062 35.4786 25.5184C33.9593 26.7333 32.4979 28.0149 30.7466 29.6422C30.2247 30.1216 29.7841 30.5117 29.761 30.5117C29.7377 30.5117 29.7263 30.4447 29.7377 30.3556C30.0044 28.483 29.9466 26.0756 29.5754 23.6347C29.5405 23.3225 29.5058 23.0551 29.5174 23.044V23.044ZM63.3937 23.0775C63.4166 23.0997 62.6513 24.2588 62.1643 24.9164C61.4685 25.8749 60.4476 27.1457 58.1397 29.9321C56.9223 31.4032 55.5535 33.0641 55.1014 33.6214C54.6373 34.1786 54.2548 34.6466 54.243 34.6466C54.2315 34.6466 54.0809 34.4461 53.9184 34.201C52.6194 32.3284 51.0653 30.69 49.2213 29.2187C48.8734 28.94 48.4909 28.6391 48.3633 28.5499C48.2357 28.4608 48.1312 28.3716 48.1312 28.3605C48.1312 28.3272 50.1026 27.5133 51.5989 26.9339C54.22 25.9084 57.7916 24.6824 60.4709 23.891C61.8742 23.4675 63.3703 23.0551 63.3937 23.0775V23.0775ZM64.2866 23.3003C64.3328 23.2892 64.6113 23.4229 64.9476 23.6122C67.7659 25.1615 70.5259 27.1567 72.7064 29.2076C73.321 29.7873 74.8403 31.3031 74.817 31.3142C74.817 31.3142 74.2835 31.3587 73.6574 31.4032C68.7748 31.76 62.5239 32.7519 56.5163 34.1451C56.1104 34.2341 55.751 34.3122 55.7277 34.3122C55.7047 34.3122 56.1569 33.8776 56.7252 33.3538C60.2508 30.0881 61.8629 28.0261 63.7648 24.3479C64.0314 23.8019 64.2635 23.3338 64.2866 23.3003C64.275 23.3003 64.275 23.3003 64.2866 23.3003V23.3003ZM38.459 25.8417C38.6214 25.8749 40.1291 26.5551 41.2656 27.1011C42.3094 27.6024 43.8751 28.4051 43.9563 28.4719C43.9678 28.483 43.411 28.7617 42.7271 29.085C40.5466 30.1326 38.6795 31.1245 36.731 32.2614C36.1743 32.5847 35.7104 32.8523 35.6989 32.8523C35.6525 32.8523 35.664 32.8075 35.9772 32.2614C37.021 30.4337 37.8559 28.2491 38.3316 26.1201C38.3778 25.953 38.4243 25.8417 38.459 25.8417V25.8417ZM36.9512 26.109C36.9861 26.1425 36.5918 27.5134 36.3484 28.2602C35.8727 29.6757 35.0725 31.4479 34.2956 32.7854C34.1098 33.0973 33.8316 33.5543 33.6808 33.8107L33.3909 34.2565L32.7415 33.6548C31.9877 32.9525 31.3729 32.5179 30.5845 32.1276C30.2711 31.9718 30.0277 31.8379 30.0277 31.8157C30.0277 31.7265 32.0108 29.999 33.5301 28.7506C34.6202 27.8478 36.9165 26.0756 36.9512 26.109V26.109ZM46.1715 29.7538L46.7398 30.1103C48.0384 30.9241 49.5692 32.0052 50.7408 32.9525C51.4017 33.4763 52.6774 34.5799 52.9327 34.8473L53.0717 34.9924L52.1325 35.2487C46.8208 36.664 42.7153 37.9235 37.9255 39.6178C37.392 39.8072 36.9397 39.9633 36.9048 39.9633C36.8355 39.9633 36.7773 40.0189 37.972 38.96C41.0338 36.2518 43.7474 33.2646 45.7655 30.3555L46.1715 29.7538V29.7538ZM43.7475 30.3334C43.7706 30.3556 42.1818 32.5066 41.2307 33.7216C40.0942 35.1706 38.0762 37.6003 36.6845 39.1829C36.1048 39.8406 35.6062 40.3867 35.5829 40.3979C35.548 40.409 35.5365 40.2419 35.5365 39.9855C35.5365 38.6367 35.177 37.1989 34.5507 35.973C34.2839 35.4603 34.2375 35.3377 34.2957 35.282C34.516 35.0925 37.8908 33.2423 40.0247 32.1389C41.4627 31.4033 43.7125 30.311 43.7475 30.3334V30.3334ZM29.0882 33.7886C29.123 33.7886 29.3898 33.9222 29.6914 34.0783C30.4336 34.4684 31.0947 34.9031 31.6861 35.3713C31.7092 35.3935 31.4078 35.6277 31.0135 35.9061C29.9117 36.664 28.2417 37.879 27.2676 38.6258C26.2468 39.4061 26.2123 39.4283 26.3281 39.2612C27.0936 38.1354 27.4762 37.5001 27.8822 36.6865C28.2417 35.9621 28.6011 35.1038 28.8563 34.357C28.949 34.0338 29.0651 33.7886 29.0882 33.7886ZM32.9967 36.731C33.0545 36.72 33.1243 36.8201 33.4373 37.2661C34.0983 38.2133 34.6086 39.4841 34.7364 40.5095L34.7593 40.7325L33.1707 41.3232C30.3291 42.382 27.7083 43.4298 25.9336 44.2098C25.4351 44.4328 24.5652 44.834 23.9971 45.1017C23.4287 45.3802 22.9648 45.592 22.9648 45.5809C22.9648 45.5698 23.3243 45.3134 23.765 45.0012C27.2328 42.5827 30.2365 39.9298 32.4863 37.2772C32.7299 36.9985 32.9504 36.7421 32.9734 36.731L32.9967 36.731V36.731ZM31.1991 37.1546C31.2455 37.1991 29.9234 38.6369 29.0188 39.5174C26.7805 41.7132 24.5653 43.4298 21.8167 45.1017C21.4688 45.3134 21.1557 45.5028 21.1208 45.5252C21.0396 45.5698 21.1439 45.4582 22.3501 44.1987C23.1156 43.4074 23.6954 42.7386 24.3565 41.914C24.7972 41.3679 24.8784 41.2898 25.5164 40.855C27.2212 39.6735 31.1527 37.1099 31.1991 37.1546Z" fill="url(#paint2_radial)"/>
<defs>
<linearGradient id="paint0_linear" x1="6.51986" y1="64.4862" x2="50.5555" y2="45.9104" gradientUnits="userSpaceOnUse">
<stop stop-color="#737272"/>
<stop offset="1" stop-color="#D8D8D8"/>
</linearGradient>
<linearGradient id="paint1_linear" x1="17.6703" y1="8.95054" x2="37.2228" y2="8.94228" gradientUnits="userSpaceOnUse">
<stop stop-color="#776E6E"/>
<stop offset="1" stop-color="#C4C3C3"/>
</linearGradient>
<radialGradient id="paint2_radial" cx="0" cy="0" r="1" gradientUnits="userSpaceOnUse" gradientTransform="translate(40.1972 28.6274) rotate(-171.785) scale(5.75077 11.075)">
<stop stop-color="#DF0714"/>
<stop offset="1" stop-color="#C8121E"/>
</radialGradient>
</defs>
</svg>
