<?xml version="1.0" encoding="utf-8"?>
<!-- Generator: Adobe Illustrator 21.0.0, SVG Export Plug-In . SVG Version: 6.00 Build 0)  -->
<svg version="1.1" id="Layer_1" xmlns="http://www.w3.org/2000/svg" xmlns:xlink="http://www.w3.org/1999/xlink" x="0px" y="0px"
	 viewBox="0 0 240 90" enable-background="new 0 0 240 90" xml:space="preserve">
<g>
	<g>
		<g>
			<defs>
				<path id="SVGID_25_" d="M39.8,59.5l0.5,10.9L27.5,55.2c1.3,1.1,2.8-0.1,4.4,0.6l0,0C34.3,57,37,59.4,39.8,59.5"/>
			</defs>
			<clipPath id="SVGID_2_">
				<use xlink:href="#SVGID_25_"  overflow="visible"/>
			</clipPath>
			
				<linearGradient id="SVGID_3_" gradientUnits="userSpaceOnUse" x1="-330.8209" y1="235.5055" x2="-330.6823" y2="235.5055" gradientTransform="matrix(93.1448 0 0 111.9815 30841.582 -26309.5605)">
				<stop  offset="0" style="stop-color:#20AF90"/>
				<stop  offset="3.151626e-02" style="stop-color:#25AF8E"/>
				<stop  offset="0.44" style="stop-color:#5DB570"/>
				<stop  offset="1" style="stop-color:#8ABF4D"/>
			</linearGradient>
			<polygon clip-path="url(#SVGID_2_)" fill="url(#SVGID_3_)" points="27.5,70.4 40.4,70.2 40.4,55 27.5,55.2 			"/>
		</g>
		<g>
			<defs>
				<path id="SVGID_28_" d="M21.7,31.7l8.2,8.2l-8.1,8c-1.2-2.5-1.8-5.3-1.8-8.3C20,36.8,20.6,34.1,21.7,31.7"/>
			</defs>
			<clipPath id="SVGID_5_">
				<use xlink:href="#SVGID_28_"  overflow="visible"/>
			</clipPath>
			
				<linearGradient id="SVGID_6_" gradientUnits="userSpaceOnUse" x1="-334.9062" y1="234.69" x2="-334.7847" y2="234.69" gradientTransform="matrix(-94.8416 102.745 -101.3243 -93.5301 -7952.6128 56394.1719)">
				<stop  offset="0" style="stop-color:#6A2181"/>
				<stop  offset="0.33" style="stop-color:#532C86"/>
				<stop  offset="0.68" style="stop-color:#464D9B"/>
				<stop  offset="1" style="stop-color:#169CD2"/>
			</linearGradient>
			<polygon clip-path="url(#SVGID_5_)" fill="url(#SVGID_6_)" points="24.5,26.7 11.9,40.5 25.3,52.9 38,39.2 			"/>
		</g>
		<g>
			<defs>
				<path id="SVGID_31_" d="M25.8,25.6l9.2,9.3l-5.1,5l-8.2-8.2C22.6,29.4,24,27.3,25.8,25.6"/>
			</defs>
			<clipPath id="SVGID_8_">
				<use xlink:href="#SVGID_31_"  overflow="visible"/>
			</clipPath>
			
				<linearGradient id="SVGID_9_" gradientUnits="userSpaceOnUse" x1="-334.2175" y1="234.4267" x2="-334.1073" y2="234.4267" gradientTransform="matrix(-75.1662 118.1184 -116.2619 -73.9848 2165.4946 56847.4258)">
				<stop  offset="0" style="stop-color:#CC1982"/>
				<stop  offset="0.64" style="stop-color:#992885"/>
				<stop  offset="1" style="stop-color:#702C86"/>
			</linearGradient>
			<polygon clip-path="url(#SVGID_8_)" fill="url(#SVGID_9_)" points="25.5,19.6 15.2,35.8 31.1,45.9 41.5,29.7 			"/>
		</g>
		<g>
			<defs>
				<path id="SVGID_34_" d="M21.8,47.9l8.1-8l10,10l-8,8C27.4,56,23.8,52.4,21.8,47.9"/>
			</defs>
			<clipPath id="SVGID_11_">
				<use xlink:href="#SVGID_34_"  overflow="visible"/>
			</clipPath>
			
				<linearGradient id="SVGID_12_" gradientUnits="userSpaceOnUse" x1="-333.5266" y1="234.5636" x2="-333.3965" y2="234.5636" gradientTransform="matrix(16.3985 144.3069 -141.1479 16.0395 38607.2656 44407.6055)">
				<stop  offset="0" style="stop-color:#00ABBC"/>
				<stop  offset="0.45" style="stop-color:#00AEAB"/>
				<stop  offset="1" style="stop-color:#30B192"/>
			</linearGradient>
			<polygon clip-path="url(#SVGID_11_)" fill="url(#SVGID_12_)" points="19.8,40.1 22,60 41.9,57.7 39.6,37.9 			"/>
		</g>
		<g>
			<defs>
				<path id="SVGID_37_" d="M31.9,57.9l8-8l8.1,8.1c-2.4,1-5.1,1.6-7.9,1.6C37.1,59.7,34.4,59.1,31.9,57.9"/>
			</defs>
			<clipPath id="SVGID_14_">
				<use xlink:href="#SVGID_37_"  overflow="visible"/>
			</clipPath>
			
				<linearGradient id="SVGID_15_" gradientUnits="userSpaceOnUse" x1="-331.7134" y1="235.6344" x2="-331.572" y2="235.6344" gradientTransform="matrix(118.067 0 0 70.0911 39195.8906 -16461.0859)">
				<stop  offset="0" style="stop-color:#38AD6B"/>
				<stop  offset="0.47" style="stop-color:#61B353"/>
				<stop  offset="1" style="stop-color:#90C037"/>
			</linearGradient>
			<rect x="31.9" y="49.9" clip-path="url(#SVGID_14_)" fill="url(#SVGID_15_)" width="16.1" height="9.8"/>
		</g>
		<g>
			<defs>
				<path id="SVGID_40_" d="M47.9,58.1l-8.1-8.1l10-10.1l8.4,8.4C56.1,52.6,52.4,56.1,47.9,58.1"/>
			</defs>
			<clipPath id="SVGID_17_">
				<use xlink:href="#SVGID_40_"  overflow="visible"/>
			</clipPath>
			
				<linearGradient id="SVGID_18_" gradientUnits="userSpaceOnUse" x1="-332.3427" y1="236.3094" x2="-332.2013" y2="236.3094" gradientTransform="matrix(135.0833 0 0 129.9668 44933.0547 -30663.4512)">
				<stop  offset="0" style="stop-color:#84BF6C"/>
				<stop  offset="0.49" style="stop-color:#BCD14B"/>
				<stop  offset="1" style="stop-color:#EBE32B"/>
			</linearGradient>
			<rect x="39.8" y="39.8" clip-path="url(#SVGID_17_)" fill="url(#SVGID_18_)" width="18.3" height="18.3"/>
		</g>
		<g>
			<defs>
				<path id="SVGID_43_" d="M58.2,48.2l-8.4-8.4l8.4-8.6c1.2,2.6,1.9,5.4,1.9,8.4C60.1,42.7,59.4,45.6,58.2,48.2"/>
			</defs>
			<clipPath id="SVGID_20_">
				<use xlink:href="#SVGID_43_"  overflow="visible"/>
			</clipPath>
			
				<linearGradient id="SVGID_21_" gradientUnits="userSpaceOnUse" x1="-331.8668" y1="236.7401" x2="-331.7282" y2="236.7401" gradientTransform="matrix(74.5552 0 0 123.7805 24792.2695 -29264.0898)">
				<stop  offset="0" style="stop-color:#C0BC1D"/>
				<stop  offset="0.47" style="stop-color:#E1D600"/>
				<stop  offset="1" style="stop-color:#FDEA00"/>
			</linearGradient>
			<rect x="49.8" y="31.2" clip-path="url(#SVGID_20_)" fill="url(#SVGID_21_)" width="10.3" height="17"/>
		</g>
		<g>
			<defs>
				<path id="SVGID_46_" d="M58.2,31.2l-8.4,8.6L31.6,21.5c2.6-1.2,5.4-1.9,8.5-1.9C48.1,19.6,55,24.4,58.2,31.2"/>
			</defs>
			<clipPath id="SVGID_23_">
				<use xlink:href="#SVGID_46_"  overflow="visible"/>
			</clipPath>
			
				<linearGradient id="SVGID_24_" gradientUnits="userSpaceOnUse" x1="-332.673" y1="237.1828" x2="-332.5373" y2="237.1828" gradientTransform="matrix(200.0645 -17.5034 13.8689 158.5224 63297.9258 -43390.8047)">
				<stop  offset="0" style="stop-color:#DF007F"/>
				<stop  offset="0.5" style="stop-color:#EA5A4D"/>
				<stop  offset="1" style="stop-color:#FFCF00"/>
			</linearGradient>
			<polygon clip-path="url(#SVGID_23_)" fill="url(#SVGID_24_)" points="31.8,42.1 60,39.6 58,17.3 29.8,19.8 			"/>
		</g>
	</g>
	<g>
		<path fill="#90C747" d="M81.7,47c-2.1,0-3.6-1.1-4.5-2.3v8.4h-2.4V35c0-1.8-0.1-3.2-0.3-5h2.1l0.6,2.5c0.8-1.3,2.5-2.9,4.6-2.9
			c5,0,6.6,4.1,6.6,8.8C88.4,43.1,86.4,47,81.7,47z M81.3,31.5c-2,0-3.6,1.9-4.1,3.5v7.7c0.8,1.1,1.9,2.5,4.4,2.5
			c2.5,0,4.4-2,4.4-6.8C86,34.1,84.7,31.5,81.3,31.5z"/>
		<path fill="#90C747" d="M103.1,46.6c0-0.3-0.6-1.6-0.6-2c-0.8,1.2-2.5,2.4-4.6,2.4c-3.3,0-6-1.4-6-4.8c0-3.4,1.9-5.7,8.9-5.7h1.6
			v-1.3c0-2.2-0.8-3.8-3.3-3.8c-2.3,0-4.1,0.7-5.7,1.5l-0.8-2c1.9-0.7,4-1.3,6.5-1.3c3.4,0,5.7,1.7,5.7,5.3v6.6c0,1.3,0.3,3,0.5,5.1
			H103.1z M102.4,38.3h-1.1c-5.2,0-6.9,1.2-6.9,3.9c0,1.9,1.4,3,3.8,3c1.9,0,3.5-0.9,4.2-2.2V38.3z"/>
		<path fill="#90C747" d="M121.1,46.6V36.3c0-2.5-0.4-4.8-3.7-4.8c-2.2,0-3.7,2-4.3,3.5v11.6h-2.4V33.6c0-1.4-0.2-2.2-0.3-3.5h2.1
			l0.5,2.5c0.7-0.8,2.1-2.9,4.7-2.9c4.4,0,5.7,2.7,5.7,6.5v10.5H121.1z"/>
		<path fill="#90C747" d="M135,47c-5.5,0-7.3-4-7.3-8.8c0-4.6,1.8-8.6,7.3-8.6c5.6,0,7.3,3.8,7.3,8.6C142.3,43,140.6,47,135,47z
			 M135,31.5c-3.5,0-4.9,2.7-4.9,6.8c0,4,1.1,6.9,4.9,6.9c3.8,0,4.8-2.9,4.8-6.9C139.9,34.2,138.7,31.5,135,31.5z"/>
		<path fill="#90C747" d="M154.2,47c-2.1,0-3.6-1.1-4.5-2.3v8.4h-2.4V35c0-1.8-0.1-3.2-0.3-5h2.1l0.6,2.5c0.8-1.3,2.5-2.9,4.6-2.9
			c5,0,6.6,4.1,6.6,8.8C160.9,43.1,158.8,47,154.2,47z M153.8,31.5c-2,0-3.6,1.9-4.1,3.5v7.7c0.8,1.1,1.9,2.5,4.4,2.5
			c2.5,0,4.4-2,4.4-6.8C158.4,34.1,157.2,31.5,153.8,31.5z"/>
		<path fill="#90C747" d="M165.1,46.6V22.8h2.4v23.9H165.1z"/>
		<path fill="#90C747" d="M180,49.3c-0.9,2.6-2.1,3.9-5,4.9l-0.8-2.1c2-0.5,2.8-1.4,3.2-2.4l1.5-3.8l-6.6-15.9h2.5l5.3,13.2
			l4.5-13.2h2.4L180,49.3z"/>
		<path fill="#90C747" d="M189.5,46.6v-3h2.8v3H189.5z"/>
		<path fill="#90C747" d="M197.9,26v-2.8h2.6V26H197.9z M198,46.6V30.1h2.4v16.6H198z"/>
		<path fill="#90C747" d="M212.7,47c-5.5,0-7.3-4-7.3-8.8c0-4.6,1.8-8.6,7.3-8.6c5.6,0,7.3,3.8,7.3,8.6C220,43,218.2,47,212.7,47z
			 M212.7,31.5c-3.5,0-4.9,2.7-4.9,6.8c0,4,1.1,6.9,4.9,6.9c3.8,0,4.8-2.9,4.8-6.9C217.5,34.2,216.4,31.5,212.7,31.5z"/>
	</g>
</g>
</svg>
