<?xml version="1.0" encoding="utf-8"?>
<!-- Generator: Adobe Illustrator 23.1.1, SVG Export Plug-In . SVG Version: 6.00 Build 0)  -->
<svg version="1.1" id="Layer_1" xmlns="http://www.w3.org/2000/svg" xmlns:xlink="http://www.w3.org/1999/xlink" x="0px" y="0px"
	 viewBox="0 0 160 50" style="enable-background:new 0 0 160 50;" xml:space="preserve">
<style type="text/css">
	.st0{clip-path:url(#SVGID_2_);fill:url(#SVGID_3_);}
	.st1{clip-path:url(#SVGID_5_);fill:url(#SVGID_6_);}
	.st2{clip-path:url(#SVGID_8_);fill:url(#SVGID_9_);}
	.st3{clip-path:url(#SVGID_11_);fill:url(#SVGID_12_);}
	.st4{clip-path:url(#SVGID_14_);fill:url(#SVGID_15_);}
	.st5{clip-path:url(#SVGID_17_);fill:url(#SVGID_18_);}
	.st6{clip-path:url(#SVGID_20_);fill:url(#SVGID_21_);}
	.st7{clip-path:url(#SVGID_23_);fill:url(#SVGID_24_);}
	.st8{fill:#90C747;}
</style>
<g>
	<g>
		<g>
			<g>
				<defs>
					<path id="SVGID_1_" d="M16.2,39l0.4,8.7L6.4,35.5c1,0.9,2.2-0.1,3.5,0.5l0,0C11.8,37,13.9,38.9,16.2,39"/>
				</defs>
				<clipPath id="SVGID_2_">
					<use xlink:href="#SVGID_1_"  style="overflow:visible;"/>
				</clipPath>
				
					<linearGradient id="SVGID_3_" gradientUnits="userSpaceOnUse" x1="-553.6317" y1="183.3796" x2="-553.5215" y2="183.3796" gradientTransform="matrix(93.1448 0 0 -111.9815 51574.1602 20576.6328)">
					<stop  offset="0" style="stop-color:#20AF90"/>
					<stop  offset="3.151626e-02" style="stop-color:#25AF8E"/>
					<stop  offset="0.44" style="stop-color:#5DB570"/>
					<stop  offset="1" style="stop-color:#8ABF4D"/>
				</linearGradient>
				<polygon class="st0" points="6.4,47.6 16.6,47.5 16.6,35.4 6.4,35.5 				"/>
			</g>
		</g>
		<g>
			<g>
				<defs>
					<path id="SVGID_4_" d="M1.8,16.8l6.5,6.5l-6.4,6.4c-1-2-1.4-4.2-1.4-6.6C0.4,20.9,0.9,18.8,1.8,16.8"/>
				</defs>
				<clipPath id="SVGID_5_">
					<use xlink:href="#SVGID_4_"  style="overflow:visible;"/>
				</clipPath>
				
					<linearGradient id="SVGID_6_" gradientUnits="userSpaceOnUse" x1="-559.0279" y1="190.1378" x2="-558.9312" y2="190.1378" gradientTransform="matrix(-94.8416 102.745 101.3243 93.5301 -72275.8281 39672.0977)">
					<stop  offset="0" style="stop-color:#6A2181"/>
					<stop  offset="0.33" style="stop-color:#532C86"/>
					<stop  offset="0.68" style="stop-color:#464D9B"/>
					<stop  offset="1" style="stop-color:#169CD2"/>
				</linearGradient>
				<polygon class="st1" points="4,12.9 -6,23.8 4.6,33.7 14.7,22.8 				"/>
			</g>
		</g>
		<g>
			<g>
				<defs>
					<path id="SVGID_7_" d="M5,12l7.3,7.4l-4.1,4l-6.5-6.5C2.5,15,3.6,13.3,5,12"/>
				</defs>
				<clipPath id="SVGID_8_">
					<use xlink:href="#SVGID_7_"  style="overflow:visible;"/>
				</clipPath>
				
					<linearGradient id="SVGID_9_" gradientUnits="userSpaceOnUse" x1="-557.8486" y1="190.2036" x2="-557.7609" y2="190.2036" gradientTransform="matrix(-75.1662 118.1184 116.2619 73.9848 -64034.4219 51832.4805)">
					<stop  offset="0" style="stop-color:#CC1982"/>
					<stop  offset="0.64" style="stop-color:#992885"/>
					<stop  offset="1" style="stop-color:#702C86"/>
				</linearGradient>
				<polygon class="st2" points="4.8,7.2 -3.4,20.1 9.2,28.1 17.5,15.2 				"/>
			</g>
		</g>
		<g>
			<g>
				<defs>
					<path id="SVGID_10_" d="M1.8,29.7l6.4-6.4l8,8l-6.4,6.4C6.3,36.2,3.4,33.3,1.8,29.7"/>
				</defs>
				<clipPath id="SVGID_11_">
					<use xlink:href="#SVGID_10_"  style="overflow:visible;"/>
				</clipPath>
				
					<linearGradient id="SVGID_12_" gradientUnits="userSpaceOnUse" x1="-555.95" y1="188.5782" x2="-555.8464" y2="188.5782" gradientTransform="matrix(16.3985 144.3069 141.1479 -16.0395 -17492.4863 83275.3281)">
					<stop  offset="0" style="stop-color:#00ABBC"/>
					<stop  offset="0.45" style="stop-color:#00AEAB"/>
					<stop  offset="1" style="stop-color:#30B192"/>
				</linearGradient>
				<polygon class="st3" points="0.2,23.5 2,39.4 17.8,37.5 16,21.8 				"/>
			</g>
		</g>
		<g>
			<g>
				<defs>
					<path id="SVGID_13_" d="M9.9,37.7l6.4-6.4l6.4,6.4c-1.9,0.8-4.1,1.3-6.3,1.3C14,39.1,11.9,38.6,9.9,37.7"/>
				</defs>
				<clipPath id="SVGID_14_">
					<use xlink:href="#SVGID_13_"  style="overflow:visible;"/>
				</clipPath>
				
					<linearGradient id="SVGID_15_" gradientUnits="userSpaceOnUse" x1="-554.9935" y1="181.3659" x2="-554.8809" y2="181.3659" gradientTransform="matrix(118.067 0 0 -70.0911 65535.9648 12747.3594)">
					<stop  offset="0" style="stop-color:#38AD6B"/>
					<stop  offset="0.47" style="stop-color:#61B353"/>
					<stop  offset="1" style="stop-color:#90C037"/>
				</linearGradient>
				<rect x="9.9" y="31.3" class="st4" width="12.8" height="7.8"/>
			</g>
		</g>
		<g>
			<g>
				<defs>
					<path id="SVGID_16_" d="M22.6,37.9l-6.4-6.4l8-8l6.7,6.7C29.1,33.5,26.2,36.3,22.6,37.9"/>
				</defs>
				<clipPath id="SVGID_17_">
					<use xlink:href="#SVGID_16_"  style="overflow:visible;"/>
				</clipPath>
				
					<linearGradient id="SVGID_18_" gradientUnits="userSpaceOnUse" x1="-555.851" y1="182.9849" x2="-555.7384" y2="182.9849" gradientTransform="matrix(135.0833 0 0 -129.9668 75101.7969 23812.5371)">
					<stop  offset="0" style="stop-color:#84BF6C"/>
					<stop  offset="0.49" style="stop-color:#BCD14B"/>
					<stop  offset="1" style="stop-color:#EBE32B"/>
				</linearGradient>
				<rect x="16.2" y="23.3" class="st5" width="14.6" height="14.6"/>
			</g>
		</g>
		<g>
			<g>
				<defs>
					<path id="SVGID_19_" d="M30.8,30l-6.7-6.7l6.7-6.8c1,2.1,1.5,4.3,1.5,6.7C32.3,25.6,31.8,27.9,30.8,30"/>
				</defs>
				<clipPath id="SVGID_20_">
					<use xlink:href="#SVGID_19_"  style="overflow:visible;"/>
				</clipPath>
				
					<linearGradient id="SVGID_21_" gradientUnits="userSpaceOnUse" x1="-554.1935" y1="182.4041" x2="-554.0832" y2="182.4041" gradientTransform="matrix(74.5552 0 0 -123.7805 41342.1875 22601.2812)">
					<stop  offset="0" style="stop-color:#C0BC1D"/>
					<stop  offset="0.47" style="stop-color:#E1D600"/>
					<stop  offset="1" style="stop-color:#FDEA00"/>
				</linearGradient>
				<rect x="24.1" y="16.4" class="st6" width="8.2" height="13.5"/>
			</g>
		</g>
		<g>
			<g>
				<defs>
					<path id="SVGID_22_" d="M30.8,16.4l-6.7,6.8L9.6,8.7c2.1-1,4.3-1.5,6.8-1.5C22.8,7.2,28.3,11,30.8,16.4"/>
				</defs>
				<clipPath id="SVGID_23_">
					<use xlink:href="#SVGID_22_"  style="overflow:visible;"/>
				</clipPath>
				
					<linearGradient id="SVGID_24_" gradientUnits="userSpaceOnUse" x1="-556.8198" y1="182.4817" x2="-556.7117" y2="182.4817" gradientTransform="matrix(200.0645 -17.5034 -13.8689 -158.5224 113940.1172 19197.3828)">
					<stop  offset="0" style="stop-color:#DF007F"/>
					<stop  offset="0.5" style="stop-color:#EA5A4D"/>
					<stop  offset="1" style="stop-color:#FFCF00"/>
				</linearGradient>
				<polygon class="st7" points="9.8,25.1 32.2,23.1 30.7,5.4 8.2,7.4 				"/>
			</g>
		</g>
	</g>
	<g>
		<path class="st8" d="M49.5,29c-1.7,0-2.9-0.9-3.6-1.8v6.7H44V19.5c0-1.4-0.1-2.5-0.2-4h1.7l0.5,2c0.6-1,2-2.3,3.7-2.3
			c4,0,5.3,3.3,5.3,7C54.8,25.9,53.3,29,49.5,29z M49.2,16.7c-1.6,0-2.9,1.5-3.3,2.8v6.1c0.6,0.9,1.5,2,3.5,2c2,0,3.5-1.6,3.5-5.4
			C52.9,18.8,51.9,16.7,49.2,16.7z"/>
		<path class="st8" d="M66.5,28.7c0-0.2-0.5-1.3-0.5-1.6c-0.6,1-2,1.9-3.7,1.9c-2.6,0-4.8-1.1-4.8-3.8s1.5-4.5,7.1-4.5H66v-1
			c0-1.8-0.6-3-2.6-3c-1.8,0-3.3,0.6-4.5,1.2l-0.6-1.6c1.5-0.6,3.2-1,5.2-1c2.7,0,4.5,1.4,4.5,4.2v5.3c0,1,0.2,2.4,0.4,4.1H66.5z
			 M66,22.1h-0.9c-4.1,0-5.5,1-5.5,3.1c0,1.5,1.1,2.4,3,2.4c1.5,0,2.8-0.7,3.3-1.8V22.1z"/>
		<path class="st8" d="M80.9,28.7v-8.2c0-2-0.3-3.8-2.9-3.8c-1.8,0-2.9,1.6-3.4,2.8v9.2h-1.9V18.4c0-1.1-0.2-1.8-0.2-2.8H74l0.4,2
			c0.6-0.6,1.7-2.3,3.7-2.3c3.5,0,4.5,2.1,4.5,5.2v8.4L80.9,28.7L80.9,28.7z"/>
		<path class="st8" d="M91.9,29c-4.4,0-5.8-3.2-5.8-7c0-3.7,1.4-6.8,5.8-6.8c4.5,0,5.8,3,5.8,6.8S96.4,29,91.9,29z M91.9,16.7
			c-2.8,0-3.9,2.1-3.9,5.4c0,3.2,0.9,5.5,3.9,5.5c3,0,3.8-2.3,3.8-5.5C95.8,18.8,94.9,16.7,91.9,16.7z"/>
		<path class="st8" d="M107.2,29c-1.7,0-2.9-0.9-3.6-1.8v6.7h-1.9V19.5c0-1.4-0.1-2.5-0.2-4h1.7l0.5,2c0.6-1,2-2.3,3.7-2.3
			c4,0,5.3,3.3,5.3,7C112.6,25.9,110.9,29,107.2,29z M106.9,16.7c-1.6,0-2.9,1.5-3.3,2.8v6.1c0.6,0.9,1.5,2,3.5,2
			c2,0,3.5-1.6,3.5-5.4C110.6,18.8,109.6,16.7,106.9,16.7z"/>
		<path class="st8" d="M115.9,28.7V9.8h1.9v19L115.9,28.7L115.9,28.7z"/>
		<path class="st8" d="M127.8,30.8c-0.7,2.1-1.7,3.1-4,3.9l-0.6-1.7c1.6-0.4,2.2-1.1,2.5-1.9l1.2-3l-5.3-12.7h2l4.2,10.5l3.6-10.5
			h1.9L127.8,30.8z"/>
		<path class="st8" d="M135.3,28.7v-2.4h2.2v2.4H135.3z"/>
		<path class="st8" d="M142,12.3v-2.2h2.1v2.2H142z M142.1,28.7V15.6h1.9v13.2L142.1,28.7L142.1,28.7z"/>
		<path class="st8" d="M153.8,29c-4.4,0-5.8-3.2-5.8-7c0-3.7,1.4-6.8,5.8-6.8c4.5,0,5.8,3,5.8,6.8S158.2,29,153.8,29z M153.8,16.7
			c-2.8,0-3.9,2.1-3.9,5.4c0,3.2,0.9,5.5,3.9,5.5c3,0,3.8-2.3,3.8-5.5C157.6,18.8,156.7,16.7,153.8,16.7z"/>
	</g>
</g>
</svg>
