<svg width="160" height="50" xmlns="http://www.w3.org/2000/svg" xmlns:svg="http://www.w3.org/2000/svg">
 <g>
  <title>Layer 1</title>
  <g display="none" id="Layer_2">
   <rect id="svg_1" height="90" width="260" stroke-miterlimit="10" stroke-width="1.1277" stroke="#E8E7E7" fill="none" x="-10"/>
  </g>
  <g stroke="null" id="Layer_1">
   <g stroke="null" id="svg_2">
    <path stroke="null" id="svg_3" d="m119.19246,16.24236c-2.0434,1.10684 -1.95826,4.6828 0.25543,5.53422c2.38397,0.85142 4.93822,0.93656 7.32219,1.53255c0.59599,0.17028 1.19199,0.42571 1.44741,1.0217c0.59599,1.19199 0.08514,2.97996 -1.27713,3.40567c-1.95826,0.59599 -4.25709,0.59599 -6.13021,-0.17028c-1.27713,-0.51085 -1.87312,-1.78798 -1.95826,-2.97996c-0.51085,0 -1.10684,0 -1.61769,0.08514c0.08514,1.19199 0.34057,2.46911 1.27713,3.23539c1.53255,1.19199 3.49081,1.36227 5.36393,1.44741c1.70284,0 3.57596,-0.17028 5.02337,-1.10684c1.70284,-1.19199 1.87312,-4.34223 -0.17028,-5.36393c-1.87312,-0.93656 -4.00166,-1.0217 -5.95993,-1.44741c-0.93656,-0.25543 -2.0434,-0.34057 -2.89482,-0.93656c-1.10684,-1.0217 -0.59599,-3.15025 0.85142,-3.49081c1.87312,-0.51085 3.91652,-0.59599 5.7045,0.08514c1.10684,0.34057 1.53255,1.53255 1.70284,2.46911c0.51085,0 1.0217,0 1.61769,0c0,-1.0217 -0.34057,-2.12854 -1.19199,-2.80968c-1.36227,-1.10684 -3.23539,-1.19199 -4.85308,-1.19199c-1.44741,-0.08514 -3.0651,-0.08514 -4.51251,0.68113z" fill="#326690"/>
    <path stroke="null" id="svg_4" d="m58.48637,16.66807c-0.85142,-0.76628 -2.12854,-1.0217 -3.23539,-1.0217c-2.46911,0 -4.93822,0.08514 -7.40734,0.08514c0,4.34223 0,8.7696 0,13.11184c0.42571,0 0.85142,0 1.27713,0c0,-1.87312 -0.08514,-3.74624 0,-5.53422c2.12854,0 4.17195,0 6.30049,0c1.53255,-0.08514 3.32053,-0.76628 3.91652,-2.29883c0.51085,-1.44741 0.34057,-3.32053 -0.85142,-4.34223zm-0.68113,4.08681c-0.42571,1.10684 -1.70284,1.44741 -2.80968,1.53255c-1.95826,0.08514 -3.91652,0 -5.78964,0c0,-1.78798 0,-3.6611 0,-5.44907c1.87312,0 3.74624,0 5.61936,0c0.93656,0 2.0434,0.17028 2.6394,0.93656c0.59599,0.76628 0.68113,1.95826 0.34057,2.97996z"/>
    <path stroke="null" id="svg_5" d="m148.22581,15.73151c0,4.34223 0,8.68446 0,13.11184c3.74624,0 7.57762,0 11.32386,0c0,-0.34057 0,-0.68113 0,-1.10684c-3.23539,-0.08514 -6.47078,0 -9.79131,-0.08514c0,-4.00166 0,-8.00333 0,-12.00499c-0.51085,0.08514 -1.0217,0.08514 -1.53255,0.08514z" fill="#326690"/>
    <path stroke="null" id="svg_6" d="m82.83692,17.43434c0,0.93656 0,1.87312 0,2.80968c-0.59599,0 -1.10684,0 -1.70284,0c0,0.25543 0,0.59599 0,0.85142c0.59599,0 1.19199,0 1.70284,0c0,1.95826 0,4.00166 0,5.95993c0,0.59599 0.17028,1.19199 0.68113,1.53255c0.93656,0.42571 1.95826,0.34057 2.97996,0.25543c0,-0.25543 0,-0.59599 0,-0.85142c-0.68113,0.08514 -1.36227,0.17028 -1.95826,-0.17028c-0.42571,-0.25543 -0.34057,-0.76628 -0.42571,-1.19199c0,-1.87312 0,-3.6611 0,-5.53422c0.76628,0 1.53255,0 2.29883,0c0,-0.34057 0,-0.59599 -0.08514,-0.93656c-0.76628,0 -1.53255,0 -2.29883,0c0,-0.93656 0,-1.87312 0,-2.80968c-0.25543,0.08514 -0.76628,0.08514 -1.19199,0.08514z" fill="#FFFFFF"/>
    <path stroke="null" id="svg_7" d="m72.02391,20.75487c-1.19199,0.76628 -1.19199,2.97996 0.25543,3.57596c1.95826,0.68113 4.17195,0.51085 6.21535,1.10684c1.0217,0.34057 1.10684,1.87312 0.17028,2.38397c-1.36227,0.68113 -2.97996,0.59599 -4.42737,0.34057c-1.0217,-0.17028 -1.87312,-0.85142 -1.95826,-1.95826c-0.51085,0 -1.0217,0 -1.44741,0c0.17028,0.76628 0.34057,1.61769 1.0217,2.12854c1.10684,0.76628 2.55425,0.76628 3.83138,0.85142c1.36227,0 2.80968,-0.08514 4.00166,-0.76628c1.0217,-0.59599 1.36227,-1.95826 0.76628,-2.89482c-0.42571,-0.68113 -1.19199,-0.93656 -1.95826,-1.10684c-1.61769,-0.34057 -3.32053,-0.34057 -4.93822,-0.68113c-0.59599,-0.17028 -1.10684,-0.59599 -1.10684,-1.19199c0,-0.85142 0.93656,-1.27713 1.70284,-1.44741c1.19199,-0.17028 2.55425,-0.25543 3.74624,0.25543c0.68113,0.25543 0.85142,0.93656 1.0217,1.61769c0.51085,0 0.93656,0 1.44741,0c-0.08514,-0.76628 -0.34057,-1.61769 -1.0217,-2.0434c-1.27713,-0.85142 -2.80968,-0.85142 -4.25709,-0.76628c-1.0217,-0.08514 -2.12854,0 -3.0651,0.59599z" fill="#FFFFFF"/>
    <path stroke="null" id="svg_8" d="m102.24925,20.32916c-0.59599,0.25543 -0.93656,0.85142 -1.27713,1.44741c0,-0.51085 0,-1.0217 0,-1.44741c-0.42571,0 -0.85142,0 -1.36227,0c-0.08514,2.89482 0,5.7045 0,8.59932c0.42571,0 0.85142,0 1.27713,0c0,-1.44741 0,-2.97996 0,-4.42737c0,-1.0217 0.34057,-2.21369 1.19199,-2.80968c0.93656,-0.68113 2.12854,-0.51085 3.23539,-0.51085c0,-0.34057 0,-0.76628 0,-1.10684c-1.0217,-0.08514 -2.0434,-0.17028 -3.0651,0.25543z" fill="#FFFFFF"/>
    <path stroke="null" id="svg_9" d="m134.26256,16.41264c1.87312,-0.93656 4.00166,-1.10684 6.04507,-0.93656c1.95826,0.17028 3.91652,0.85142 5.19365,2.38397c1.61769,1.70284 1.95826,4.42737 1.27713,6.64106c-0.34057,1.27713 -1.19199,2.21369 -2.12854,3.0651c0.76628,0.51085 1.53255,1.0217 2.29883,1.61769c-0.34057,0.34057 -0.68113,0.59599 -1.0217,0.93656c-0.76628,-0.51085 -1.53255,-1.10684 -2.29883,-1.53255c-0.59599,0 -1.19199,0.34057 -1.87312,0.51085c-1.70284,0.34057 -3.57596,0.34057 -5.27879,0c-1.87312,-0.34057 -3.74624,-1.44741 -4.76794,-3.15025c-1.0217,-1.61769 -1.10684,-3.74624 -0.68113,-5.53422c0.51085,-1.78798 1.70284,-3.23539 3.23539,-4.00166zm2.55425,0.34057c-1.78798,0.42571 -3.49081,1.70284 -4.08681,3.49081c-0.59599,1.95826 -0.42571,4.25709 1.0217,5.87478c1.27713,1.44741 3.15025,2.0434 5.02337,2.0434c2.0434,0.08514 4.25709,-0.51085 5.61936,-2.12854c1.87312,-2.38397 1.61769,-6.21535 -0.85142,-8.08847c-1.87312,-1.61769 -4.42737,-1.70284 -6.7262,-1.19199z" fill="#326690"/>
    <path stroke="null" id="svg_10" d="m82.83692,17.43434c0.42571,0 0.85142,0 1.36227,0c0,0.93656 0,1.87312 0,2.80968c0.76628,0 1.53255,0 2.29883,0c0,0.34057 0,0.59599 0.08514,0.93656c-0.76628,0 -1.53255,0 -2.29883,0c0,1.87312 0,3.6611 0,5.53422c0,0.42571 0,0.93656 0.42571,1.19199c0.59599,0.25543 1.27713,0.17028 1.95826,0.17028c0,0.25543 0,0.59599 0,0.85142c-1.0217,0.08514 -2.0434,0.17028 -2.97996,-0.25543c-0.59599,-0.25543 -0.76628,-0.93656 -0.68113,-1.53255c0,-1.95826 0,-4.00166 0,-5.95993c-0.59599,0 -1.19199,0 -1.70284,0c0,-0.25543 0,-0.59599 0,-0.85142c0.59599,0 1.10684,0 1.70284,0c-0.17028,-1.0217 -0.17028,-1.95826 -0.17028,-2.89482z"/>
    <path stroke="null" id="svg_11" d="m68.19253,20.75487c-1.53255,-0.85142 -3.40567,-0.93656 -5.10851,-0.68113c-1.44741,0.25543 -2.80968,1.0217 -3.40567,2.38397c-0.59599,1.36227 -0.59599,2.97996 0.08514,4.34223c0.76628,1.44741 2.38397,2.21369 3.91652,2.29883c1.95826,0.17028 4.17195,-0.08514 5.61936,-1.61769c1.53255,-1.95826 1.19199,-5.44907 -1.10684,-6.7262zm-0.25543,6.38563c-0.76628,0.76628 -1.87312,1.10684 -2.89482,1.10684c-1.19199,0.08514 -2.46911,-0.17028 -3.32053,-0.93656c-1.10684,-1.0217 -1.27713,-2.72454 -0.85142,-4.17195c0.42571,-1.27713 1.61769,-2.0434 2.89482,-2.21369c1.19199,-0.17028 2.55425,-0.08514 3.6611,0.59599c0.85142,0.51085 1.27713,1.44741 1.36227,2.38397c0.17028,1.19199 0,2.38397 -0.85142,3.23539z"/>
    <path stroke="null" id="svg_12" d="m72.02391,20.75487c0.85142,-0.59599 1.95826,-0.68113 2.97996,-0.76628c1.44741,-0.08514 3.0651,-0.08514 4.25709,0.76628c0.68113,0.42571 0.93656,1.27713 1.0217,2.0434c-0.51085,0 -0.93656,0 -1.44741,0c-0.08514,-0.68113 -0.34057,-1.27713 -1.0217,-1.61769c-1.19199,-0.51085 -2.46911,-0.51085 -3.74624,-0.25543c-0.76628,0.08514 -1.70284,0.51085 -1.70284,1.44741c-0.08514,0.59599 0.51085,1.10684 1.10684,1.19199c1.61769,0.42571 3.32053,0.34057 4.93822,0.68113c0.76628,0.17028 1.53255,0.51085 1.95826,1.10684c0.59599,0.93656 0.25543,2.38397 -0.76628,2.89482c-1.19199,0.68113 -2.6394,0.76628 -4.00166,0.76628c-1.27713,-0.08514 -2.72454,-0.08514 -3.83138,-0.85142c-0.68113,-0.51085 -0.93656,-1.27713 -1.0217,-2.12854c0.51085,0 1.0217,0 1.44741,0c0,1.10684 0.93656,1.87312 1.95826,1.95826c1.44741,0.17028 3.0651,0.34057 4.42737,-0.34057c0.93656,-0.51085 0.85142,-2.0434 -0.17028,-2.38397c-2.0434,-0.59599 -4.25709,-0.42571 -6.21535,-1.10684c-1.36227,-0.42571 -1.36227,-2.6394 -0.17028,-3.40567z"/>
    <path stroke="null" id="svg_13" d="m90.58482,20.15888c1.36227,-0.34057 2.89482,-0.34057 4.25709,0.08514c0.76628,0.25543 1.36227,0.85142 1.95826,1.36227c0,-0.51085 0.08514,-0.93656 0.08514,-1.36227c0.42571,0 0.85142,0 1.27713,0c0.08514,2.6394 0,5.27879 0.08514,7.91819c0.08514,1.10684 -0.17028,2.29883 -1.0217,3.0651c-1.10684,1.0217 -2.72454,1.19199 -4.17195,1.19199c-1.27713,0 -2.6394,-0.08514 -3.83138,-0.68113c-0.76628,-0.42571 -1.19199,-1.27713 -1.36227,-2.12854c0.42571,0 0.85142,0 1.27713,0c0.25543,0.59599 0.51085,1.27713 1.10684,1.53255c0.93656,0.42571 1.95826,0.42571 2.97996,0.42571c1.10684,-0.08514 2.38397,-0.25543 3.0651,-1.19199c0.68113,-0.93656 0.51085,-2.12854 0.51085,-3.23539c-1.36227,1.44741 -3.49081,1.70284 -5.36393,1.44741c-1.19199,-0.17028 -2.38397,-0.59599 -3.23539,-1.53255c-0.93656,-1.19199 -1.0217,-2.80968 -0.68113,-4.17195c0.34057,-1.36227 1.70284,-2.38397 3.0651,-2.72454zm1.10684,0.85142c-0.93656,0.17028 -1.95826,0.59599 -2.46911,1.44741c-0.59599,1.0217 -0.59599,2.38397 -0.25543,3.40567c0.42571,1.10684 1.70284,1.70284 2.80968,1.87312c1.44741,0.17028 3.15025,0 4.17195,-1.10684c1.19199,-1.44741 1.0217,-3.91652 -0.51085,-5.02337c-1.0217,-0.76628 -2.46911,-0.76628 -3.74624,-0.59599z"/>
    <path stroke="null" id="svg_14" d="m102.24925,20.32916c1.0217,-0.42571 2.0434,-0.34057 3.0651,-0.34057c0,0.34057 0,0.76628 0,1.10684c-1.10684,0 -2.29883,-0.17028 -3.23539,0.51085c-0.85142,0.59599 -1.19199,1.78798 -1.19199,2.80968c0,1.44741 0,2.97996 0,4.42737c-0.42571,0 -0.85142,0 -1.27713,0c-0.08514,-2.89482 -0.08514,-5.7045 0,-8.59932c0.42571,0 0.85142,0 1.36227,0c0,0.51085 0,1.0217 0,1.44741c0.34057,-0.51085 0.68113,-1.10684 1.27713,-1.36227z"/>
    <path stroke="null" id="svg_15" d="m105.8252,22.11714c0.85142,-1.44741 2.6394,-2.0434 4.25709,-2.12854c1.70284,-0.08514 3.57596,0.17028 4.76794,1.44741c0.93656,0.85142 1.19199,2.12854 1.27713,3.40567c-3.23539,0 -6.38563,0 -9.62102,0c0.08514,0.85142 0.34057,1.78798 1.0217,2.38397c1.27713,1.10684 3.15025,1.27713 4.6828,0.85142c1.0217,-0.25543 1.87312,-1.0217 2.21369,-2.0434c0.51085,0 1.0217,0 1.44741,0c-0.42571,1.44741 -1.70284,2.46911 -3.15025,2.80968c-1.95826,0.42571 -4.25709,0.34057 -5.95993,-0.85142c-1.70284,-1.19199 -2.0434,-4.00166 -0.93656,-5.87478zm2.46911,-0.68113c-0.93656,0.51085 -1.44741,1.53255 -1.61769,2.55425c2.72454,0 5.44907,0 8.17361,0c-0.08514,-0.59599 -0.25543,-1.27713 -0.68113,-1.70284c-1.44741,-1.70284 -4.08681,-1.87312 -5.87478,-0.85142z"/>
    <path stroke="null" id="svg_16" d="m22.81196,6.45105c-1.61769,-0.25543 -3.32053,-0.34057 -4.93822,-0.08514c-0.93656,0.17028 -1.87312,0.59599 -2.6394,1.0217c-2.6394,-0.85142 -5.61936,-1.36227 -8.3439,-0.85142c-1.95826,0.34057 -3.83138,1.53255 -4.85308,3.32053c-1.27713,2.12854 -1.53255,4.6828 -1.36227,7.15191c0.34057,2.72454 1.0217,5.44907 1.78798,8.08847c0.68113,2.29883 1.44741,4.59766 2.72454,6.64106c0.68113,1.10684 1.70284,2.29883 3.0651,2.6394c1.10684,0.25543 2.21369,-0.08514 3.0651,-0.76628c0.42571,0.42571 0.93656,0.76628 1.53255,0.93656c1.61769,0.59599 3.40567,0.59599 5.02337,-0.08514c0.08514,2.21369 0,4.51251 0.85142,6.55592c0.34057,1.0217 0.85142,1.95826 1.78798,2.55425c1.0217,0.68113 2.21369,0.76628 3.40567,0.59599c1.0217,-0.17028 2.12854,-0.51085 2.97996,-1.0217c0.93656,-0.59599 1.70284,-1.44741 2.12854,-2.46911c1.0217,-2.29883 1.10684,-4.76794 1.19199,-7.23705c2.38397,0.17028 4.85308,-0.42571 6.64106,-2.0434c0.68113,-0.59599 1.27713,-1.53255 1.0217,-2.46911c-0.25543,-0.85142 -1.19199,-1.44741 -2.0434,-1.36227c-0.93656,0.08514 -1.78798,0.34057 -2.72454,0.34057c2.0434,-3.57596 3.6611,-7.40734 4.34223,-11.409c0.25543,-1.70284 0.51085,-3.40567 0,-5.10851c-0.25543,-0.93656 -0.93656,-1.70284 -1.61769,-2.38397c-1.53255,-1.53255 -3.6611,-2.55425 -5.78964,-2.97996c-2.46911,-0.51085 -4.93822,-0.25543 -7.23705,0.42571z" fill="#FFFFFF"/>
    <path stroke="null" id="svg_17" d="m22.72682,7.47275c2.55425,-0.76628 5.27879,-1.0217 7.83304,-0.25543c2.0434,0.59599 3.91652,1.78798 5.19365,3.49081c0.51085,0.68113 0.68113,1.61769 0.68113,2.46911c0.08514,1.53255 -0.25543,3.0651 -0.59599,4.51251c-0.93656,3.91652 -2.6394,7.57762 -4.76794,10.98329c1.19199,0.51085 2.55425,0.25543 3.74624,0.08514c0.51085,-0.08514 1.19199,-0.25543 1.53255,0.25543c0.34057,0.51085 0,1.10684 -0.34057,1.44741c-1.78798,1.78798 -4.51251,2.21369 -6.89648,1.78798c-0.25543,2.12854 -0.51085,4.25709 -0.85142,6.47078c-0.17028,1.19199 -0.59599,2.46911 -1.53255,3.23539c-0.85142,0.76628 -2.0434,1.10684 -3.15025,1.27713c-1.10684,0.17028 -2.46911,0.08514 -3.32053,-0.76628c-0.93656,-0.85142 -1.53255,-2.12854 -1.61769,-3.32053c-0.25543,-2.12854 -0.25543,-4.34223 -0.25543,-6.47078c-1.0217,0.85142 -2.38397,1.36227 -3.74624,1.27713c-0.93656,-0.08514 -2.0434,-0.25543 -2.72454,-0.93656c-0.42571,-0.34057 -0.34057,-1.0217 0.08514,-1.36227c0.76628,-0.59599 1.78798,-0.51085 2.6394,-0.85142c0.68113,-0.17028 1.0217,-0.85142 1.36227,-1.27713c-0.76628,-0.08514 -1.53255,-0.25543 -2.12854,-0.59599c-1.0217,1.10684 -2.0434,2.29883 -2.97996,3.40567c-0.59599,0.68113 -1.36227,1.27713 -2.29883,1.10684c-1.0217,-0.17028 -1.78798,-0.93656 -2.38397,-1.70284c-1.10684,-1.61769 -1.87312,-3.49081 -2.46911,-5.36393c-0.93656,-3.0651 -1.70284,-6.13021 -2.12854,-9.28046c-0.25543,-2.38397 0,-4.93822 1.36227,-6.89648c1.10684,-1.61769 2.97996,-2.46911 4.85308,-2.6394c2.55425,-0.25543 5.10851,0.25543 7.49248,1.10684c1.95826,-1.27713 4.51251,-1.53255 6.81134,-1.0217c0.25543,-0.17028 0.42571,-0.08514 0.59599,-0.17028zm1.87312,0.68113c0.51085,0.34057 1.0217,0.59599 1.53255,0.93656c2.0434,1.36227 3.6611,3.32053 4.59766,5.53422c0.25543,0.68113 0.59599,1.27713 0.51085,2.0434c0,1.44741 -0.51085,2.89482 -0.34057,4.34223c0.17028,1.53255 0.51085,3.15025 0.08514,4.6828c-0.08514,0.51085 -0.42571,1.0217 -0.59599,1.53255c0,0.08514 0.08514,0.25543 0.08514,0.25543c0.17028,-0.25543 0.34057,-0.51085 0.51085,-0.76628c1.61769,-2.6394 2.80968,-5.53422 3.6611,-8.51418c0.42571,-1.61769 0.76628,-3.32053 0.76628,-5.02337c0,-0.68113 -0.08514,-1.44741 -0.51085,-2.0434c-0.93656,-1.19199 -2.21369,-2.12854 -3.6611,-2.72454c-2.12854,-0.68113 -4.42737,-0.76628 -6.64106,-0.25543zm-5.95993,0.17028c-1.61769,0.17028 -3.15025,1.10684 -4.08681,2.38397c-1.27713,1.78798 -1.87312,4.00166 -2.0434,6.13021c1.36227,-0.59599 2.80968,-1.19199 4.34223,-0.85142c0.93656,0.25543 1.70284,1.10684 1.87312,2.0434c0.42571,1.95826 0.68113,3.91652 0.25543,5.87478c-0.34057,1.53255 -1.27713,2.89482 -1.61769,4.51251c0.42571,0 0.85142,0.08514 1.19199,0.25543c0.76628,0.42571 1.19199,1.27713 1.10684,2.12854c-0.08514,2.12854 -0.08514,4.25709 0.08514,6.38563c0.08514,0.85142 0.08514,1.78798 0.34057,2.6394c0.34057,1.0217 1.0217,2.0434 2.12854,2.29883c1.19199,0.17028 2.38397,-0.17028 3.49081,-0.68113c1.0217,-0.51085 1.53255,-1.70284 1.70284,-2.80968c0.34057,-2.29883 0.59599,-4.59766 0.85142,-6.89648c0.08514,-0.85142 -0.08514,-1.70284 0.42571,-2.46911c0.25543,-0.51085 0.76628,-0.68113 1.19199,-0.93656c-0.34057,-0.51085 -0.76628,-1.0217 -1.10684,-1.53255c-1.10684,-2.38397 -2.6394,-4.59766 -3.15025,-7.15191c-0.17028,-1.10684 -0.08514,-2.38397 0.85142,-3.15025c1.0217,-0.85142 2.38397,-0.76628 3.6611,-0.76628c-0.76628,-2.12854 -2.12854,-4.00166 -3.83138,-5.36393c-2.21369,-1.61769 -5.02337,-2.38397 -7.66276,-2.0434zm-11.32386,0.17028c-1.44741,0.25543 -2.89482,1.10684 -3.6611,2.46911c-1.0217,1.78798 -1.10684,3.83138 -0.93656,5.78964c0.34057,2.55425 0.93656,5.10851 1.70284,7.66276c0.68113,2.12854 1.36227,4.25709 2.55425,6.13021c0.42571,0.68113 0.93656,1.36227 1.70284,1.61769c0.68113,0.17028 1.19199,-0.42571 1.61769,-0.85142c0.85142,-1.10684 1.87312,-2.12854 2.80968,-3.23539c-1.36227,-1.19199 -2.0434,-3.0651 -1.87312,-4.93822c0.17028,-1.36227 0.25543,-2.80968 0.17028,-4.25709c-0.17028,-1.95826 0.17028,-4.00166 0.76628,-5.95993c0.42571,-1.44741 1.19199,-2.72454 2.21369,-3.83138c-2.29883,-0.51085 -4.76794,-1.0217 -7.06677,-0.59599zm19.83804,8.7696c-0.68113,0.51085 -0.68113,1.53255 -0.51085,2.29883c0.51085,2.46911 1.95826,4.51251 2.97996,6.7262c0.85142,-1.61769 0.34057,-3.49081 0.17028,-5.27879c-0.17028,-1.44741 0.25543,-2.80968 0.34057,-4.17195c-0.93656,0 -2.0434,-0.17028 -2.97996,0.42571zm-14.72953,0.93656c0,1.19199 0.08514,2.38397 0,3.49081c-0.08514,1.0217 -0.34057,2.0434 -0.08514,3.0651c0.34057,1.87312 1.95826,3.40567 3.91652,3.40567c0.25543,-0.93656 0.59599,-1.87312 1.0217,-2.72454c1.19199,-2.29883 0.93656,-4.93822 0.34057,-7.32219c-0.17028,-0.68113 -0.76628,-1.19199 -1.44741,-1.19199c-1.36227,0 -2.6394,0.59599 -3.74624,1.27713zm17.28378,11.49414c-0.34057,0.34057 -0.34057,0.85142 -0.34057,1.27713c0.76628,0.25543 1.61769,0.25543 2.46911,0.17028c1.19199,-0.17028 2.46911,-0.51085 3.40567,-1.44741c-1.44741,0.17028 -3.0651,0.51085 -4.51251,-0.17028c-0.34057,-0.17028 -0.76628,0 -1.0217,0.17028zm-14.0484,1.70284c-0.85142,0.51085 -1.87312,0.42571 -2.6394,0.85142c1.70284,0.85142 4.17195,0.59599 5.36393,-1.0217c0.59599,-0.59599 0,-1.78798 -0.76628,-1.70284c-0.85142,0.51085 -1.19199,1.44741 -1.95826,1.87312z" fill="#FFFFFF"/>
    <path stroke="null" id="svg_18" d="m27.49476,17.60463c0.51085,-0.34057 1.19199,-0.34057 1.70284,-0.17028c0,0.68113 -0.85142,1.19199 -1.44741,0.85142c-0.17028,-0.08514 -0.51085,-0.42571 -0.25543,-0.68113z" fill="#FFFFFF"/>
    <path stroke="null" id="svg_19" d="m15.48976,17.68977c0.51085,-0.17028 1.10684,-0.08514 1.53255,0.25543c0.25543,0.25543 0,0.68113 -0.25543,0.76628c-0.59599,0.42571 -1.53255,0 -1.61769,-0.68113c0,-0.17028 0.17028,-0.34057 0.34057,-0.34057z" fill="#FFFFFF"/>
    <path stroke="null" id="svg_20" d="m24.59993,8.15389c2.12854,-0.51085 4.51251,-0.42571 6.55592,0.34057c1.44741,0.51085 2.72454,1.53255 3.6611,2.72454c0.51085,0.59599 0.51085,1.36227 0.51085,2.0434c0,1.70284 -0.34057,3.32053 -0.76628,5.02337c-0.85142,2.97996 -2.0434,5.87478 -3.6611,8.51418c-0.17028,0.25543 -0.34057,0.51085 -0.51085,0.76628c0,-0.08514 -0.08514,-0.25543 -0.08514,-0.25543c0.17028,-0.51085 0.51085,-1.0217 0.59599,-1.53255c0.42571,-1.53255 0.08514,-3.15025 -0.08514,-4.6828c-0.17028,-1.44741 0.34057,-2.89482 0.34057,-4.34223c0.08514,-0.68113 -0.25543,-1.36227 -0.51085,-2.0434c-1.0217,-2.21369 -2.55425,-4.17195 -4.59766,-5.53422c-0.34057,-0.42571 -0.93656,-0.68113 -1.44741,-1.0217z" fill="#326690"/>
    <path stroke="null" id="svg_21" d="m18.64001,8.32417c2.6394,-0.34057 5.44907,0.42571 7.57762,2.0434c1.70284,1.36227 3.15025,3.23539 3.83138,5.36393c-1.19199,0 -2.6394,-0.08514 -3.6611,0.76628c-0.93656,0.76628 -1.0217,2.0434 -0.85142,3.15025c0.51085,2.6394 2.0434,4.85308 3.15025,7.15191c0.25543,0.59599 0.68113,1.0217 1.10684,1.53255c-0.51085,0.25543 -0.93656,0.42571 -1.19199,0.93656c-0.42571,0.76628 -0.25543,1.61769 -0.42571,2.46911c-0.25543,2.29883 -0.51085,4.59766 -0.85142,6.89648c-0.17028,1.10684 -0.68113,2.29883 -1.70284,2.80968c-1.0217,0.51085 -2.29883,0.85142 -3.49081,0.68113c-1.10684,-0.17028 -1.87312,-1.27713 -2.12854,-2.29883c-0.25543,-0.85142 -0.25543,-1.78798 -0.34057,-2.6394c-0.08514,-2.12854 -0.08514,-4.25709 -0.08514,-6.38563c0.08514,-0.85142 -0.34057,-1.70284 -1.10684,-2.12854c-0.34057,-0.17028 -0.76628,-0.25543 -1.19199,-0.25543c0.34057,-1.53255 1.27713,-2.89482 1.61769,-4.51251c0.42571,-1.95826 0.17028,-3.91652 -0.25543,-5.87478c-0.17028,-0.93656 -0.93656,-1.78798 -1.87312,-2.0434c-1.53255,-0.34057 -2.97996,0.17028 -4.34223,0.85142c0.17028,-2.12854 0.76628,-4.34223 2.0434,-6.13021c1.0217,-1.27713 2.55425,-2.12854 4.17195,-2.38397z" fill="#326690"/>
    <path stroke="null" id="svg_22" d="m7.31615,8.49445c2.38397,-0.42571 4.76794,0 7.06677,0.68113c-1.0217,1.10684 -1.78798,2.38397 -2.21369,3.83138c-0.59599,1.87312 -0.85142,3.91652 -0.76628,5.95993c0.08514,1.44741 0.08514,2.80968 -0.17028,4.25709c-0.25543,1.78798 0.51085,3.6611 1.87312,4.93822c-0.93656,1.10684 -1.87312,2.12854 -2.80968,3.23539c-0.42571,0.51085 -0.93656,1.0217 -1.61769,0.85142c-0.76628,-0.25543 -1.27713,-0.93656 -1.70284,-1.61769c-1.19199,-1.87312 -1.87312,-4.00166 -2.55425,-6.13021c-0.76628,-2.46911 -1.36227,-5.02337 -1.70284,-7.66276c-0.17028,-1.95826 -0.08514,-4.08681 0.93656,-5.78964c0.76628,-1.36227 2.12854,-2.21369 3.6611,-2.55425z" fill="#326690"/>
    <path stroke="null" id="svg_23" d="m27.15419,17.26406c0.85142,-0.59599 2.0434,-0.51085 2.97996,-0.42571c-0.08514,1.36227 -0.51085,2.72454 -0.34057,4.17195c0.17028,1.70284 0.59599,3.57596 -0.17028,5.27879c-1.10684,-2.21369 -2.55425,-4.25709 -2.97996,-6.7262c-0.08514,-0.76628 -0.08514,-1.70284 0.51085,-2.29883zm0.34057,0.34057c-0.25543,0.25543 0,0.59599 0.25543,0.68113c0.59599,0.34057 1.44741,-0.17028 1.44741,-0.85142c-0.51085,-0.17028 -1.19199,-0.17028 -1.70284,0.17028z" fill="#326690"/>
    <path stroke="null" id="svg_24" d="m12.42466,18.20062c1.10684,-0.68113 2.38397,-1.27713 3.6611,-1.19199c0.68113,0 1.27713,0.51085 1.44741,1.19199c0.59599,2.38397 0.76628,5.02337 -0.34057,7.32219c-0.42571,0.85142 -0.76628,1.78798 -1.0217,2.72454c-1.95826,0 -3.57596,-1.61769 -3.91652,-3.40567c-0.25543,-1.0217 0.08514,-2.0434 0.08514,-3.0651c0.17028,-1.27713 0.08514,-2.38397 0.08514,-3.57596zm3.0651,-0.51085c-0.17028,0.08514 -0.34057,0.17028 -0.34057,0.34057c0.08514,0.68113 1.0217,1.10684 1.61769,0.68113c0.25543,-0.17028 0.51085,-0.51085 0.25543,-0.76628c-0.42571,-0.34057 -1.0217,-0.42571 -1.53255,-0.25543z" fill="#326690"/>
    <path stroke="null" id="svg_25" d="m29.70844,29.69476c0.25543,-0.17028 0.68113,-0.42571 1.0217,-0.17028c1.36227,0.76628 2.97996,0.34057 4.51251,0.17028c-0.93656,0.85142 -2.12854,1.27713 -3.40567,1.44741c-0.85142,0.08514 -1.70284,0.17028 -2.46911,-0.17028c0,-0.42571 0,-0.93656 0.34057,-1.27713z" fill="#326690"/>
    <path stroke="null" id="svg_26" d="m15.66005,31.3976c0.76628,-0.42571 1.10684,-1.36227 1.87312,-1.87312c0.76628,-0.08514 1.44741,1.10684 0.76628,1.70284c-1.19199,1.61769 -3.6611,1.95826 -5.36393,1.0217c0.85142,-0.34057 1.87312,-0.34057 2.72454,-0.85142z" fill="#326690"/>
    <path stroke="null" id="svg_27" d="m22.81196,6.45105c2.29883,-0.59599 4.76794,-0.85142 7.15191,-0.42571c2.12854,0.34057 4.17195,1.44741 5.78964,2.97996c0.68113,0.68113 1.36227,1.44741 1.61769,2.38397c0.51085,1.70284 0.25543,3.40567 0,5.10851c-0.76628,4.00166 -2.29883,7.83304 -4.34223,11.409c0.93656,0 1.78798,-0.25543 2.72454,-0.34057c0.85142,-0.08514 1.87312,0.51085 2.0434,1.36227c0.25543,0.93656 -0.34057,1.87312 -1.0217,2.46911c-1.87312,1.61769 -4.42737,2.12854 -6.7262,2.0434c-0.17028,2.46911 -0.17028,4.93822 -1.19199,7.23705c-0.51085,1.0217 -1.19199,1.87312 -2.12854,2.46911c-0.93656,0.59599 -1.95826,0.85142 -2.97996,1.0217c-1.10684,0.17028 -2.38397,0.08514 -3.40567,-0.59599c-0.93656,-0.59599 -1.44741,-1.53255 -1.78798,-2.55425c-0.76628,-2.12854 -0.68113,-4.34223 -0.85142,-6.55592c-1.61769,0.68113 -3.40567,0.68113 -5.02337,0.08514c-0.59599,-0.17028 -1.10684,-0.51085 -1.53255,-0.93656c-0.85142,0.68113 -1.95826,1.0217 -3.0651,0.76628c-1.36227,-0.34057 -2.29883,-1.53255 -3.0651,-2.6394c-1.27713,-2.0434 -2.0434,-4.34223 -2.72454,-6.64106c-0.76628,-2.6394 -1.44741,-5.27879 -1.78798,-8.08847c-0.17028,-2.46911 0,-5.02337 1.36227,-7.15191c1.0217,-1.70284 2.89482,-2.89482 4.85308,-3.32053c2.80968,-0.59599 5.7045,0 8.3439,0.76628c0.85142,-0.42571 1.70284,-0.85142 2.6394,-1.0217c1.78798,-0.25543 3.49081,-0.08514 5.10851,0.17028zm-0.08514,1.0217c-0.17028,0.08514 -0.42571,-0.08514 -0.59599,-0.08514c-2.29883,-0.51085 -4.85308,-0.25543 -6.81134,1.0217c-2.38397,-0.85142 -4.93822,-1.36227 -7.49248,-1.10684c-1.87312,0.17028 -3.83138,1.10684 -4.85308,2.6394c-1.36227,2.0434 -1.53255,4.59766 -1.36227,6.89648c0.42571,3.15025 1.19199,6.21535 2.12854,9.19531c0.68113,1.87312 1.36227,3.74624 2.46911,5.36393c0.59599,0.76628 1.36227,1.61769 2.38397,1.70284c0.93656,0.08514 1.70284,-0.42571 2.29883,-1.10684c1.0217,-1.19199 1.95826,-2.29883 2.97996,-3.40567c0.68113,0.34057 1.44741,0.51085 2.12854,0.59599c-0.42571,0.51085 -0.76628,1.10684 -1.36227,1.27713c-0.85142,0.34057 -1.87312,0.25543 -2.6394,0.85142c-0.42571,0.34057 -0.51085,1.0217 -0.08514,1.36227c0.68113,0.68113 1.78798,0.85142 2.72454,0.93656c1.36227,0.08514 2.72454,-0.34057 3.74624,-1.27713c0,2.12854 0,4.34223 0.25543,6.47078c0.08514,1.27713 0.68113,2.55425 1.61769,3.32053c0.85142,0.76628 2.21369,0.93656 3.32053,0.76628c1.10684,-0.25543 2.29883,-0.59599 3.15025,-1.27713c0.93656,-0.85142 1.36227,-2.0434 1.53255,-3.23539c0.34057,-2.12854 0.59599,-4.25709 0.85142,-6.47078c2.38397,0.42571 5.10851,-0.08514 6.89648,-1.78798c0.34057,-0.34057 0.76628,-1.0217 0.34057,-1.44741c-0.34057,-0.42571 -1.0217,-0.34057 -1.53255,-0.25543c-1.19199,0.25543 -2.55425,0.51085 -3.74624,-0.08514c2.12854,-3.40567 3.83138,-7.06677 4.76794,-10.98329c0.34057,-1.44741 0.59599,-2.97996 0.59599,-4.51251c-0.08514,-0.85142 -0.17028,-1.78798 -0.68113,-2.46911c-1.27713,-1.70284 -3.15025,-2.89482 -5.19365,-3.49081c-2.46911,-0.34057 -5.27879,-0.17028 -7.83304,0.59599z"/>
   </g>
  </g>
 </g>
</svg>