<svg width="160" height="50" xmlns="http://www.w3.org/2000/svg" xmlns:svg="http://www.w3.org/2000/svg">
 <g>
  <title>Layer 1</title>
  <g display="none" id="Layer_2">
   <g id="svg_1" display="inline">
    <rect id="svg_2" height="90" width="260" stroke-miterlimit="10" stroke-width="1.1277" stroke="#E8E7E7" fill="none" y="0" x="-10"/>
   </g>
  </g>
  <g stroke="null" id="Layer_1">
   <g stroke="null" id="svg_3">
    <g stroke="null" id="svg_4">
     <path stroke="null" id="svg_5" d="m40.89175,18.72557l4.49192,11.40806l-1.14081,0l-1.35471,-3.56502l-5.27623,0l-1.35471,3.56502l-1.14081,0l4.56322,-11.40806l1.21211,0zm1.56861,6.91614l-2.21031,-5.84663l-2.28161,5.84663l4.49192,0z" fill="#444445"/>
     <path stroke="null" id="svg_6" d="m47.09488,21.86278l0,1.35471l0.0713,0c0.2852,-0.4991 0.6417,-0.9269 1.06951,-1.21211c0.4278,-0.2852 0.99821,-0.4278 1.63991,-0.4278c0.5704,0 1.06951,0.1426 1.49731,0.4278c0.4278,0.2852 0.713,0.6417 0.8556,1.21211c0.2139,-0.5704 0.6417,-0.9269 1.06951,-1.21211c0.4991,-0.2852 0.99821,-0.4278 1.49731,-0.4278c1.78251,0 2.70941,0.99821 2.70941,2.85202l0,5.56143l-0.99821,0l0,-5.56143c0,-0.713 -0.1426,-1.21211 -0.4278,-1.56861c-0.2852,-0.3565 -0.7843,-0.4991 -1.49731,-0.4991c-0.4278,0 -0.7843,0.0713 -1.06951,0.2139c-0.2852,0.1426 -0.4991,0.3565 -0.713,0.6417c-0.1426,0.2852 -0.2852,0.5704 -0.3565,0.9269c-0.0713,0.3565 -0.0713,0.713 -0.0713,1.14081l0,4.63452l-0.99821,0l0,-5.56143c0,-0.2852 0,-0.5704 -0.0713,-0.7843c-0.0713,-0.2852 -0.1426,-0.4991 -0.2852,-0.6417c-0.1426,-0.2139 -0.2852,-0.3565 -0.4991,-0.4278c-0.2139,-0.0713 -0.4991,-0.1426 -0.7843,-0.1426c-0.4278,0 -0.7843,0.0713 -1.14081,0.2139c-0.2852,0.1426 -0.5704,0.3565 -0.7843,0.6417c-0.2139,0.2852 -0.3565,0.5704 -0.4278,0.9269c-0.0713,0.3565 -0.1426,0.7843 -0.1426,1.21211l0,4.56322l-1.06951,0l0,-8.05694l0.9269,0z" fill="#444445"/>
     <path stroke="null" id="svg_7" d="m59.71504,23.14619c0.1426,-0.3565 0.4278,-0.6417 0.713,-0.8556s0.6417,-0.3565 0.99821,-0.4991c0.4278,-0.0713 0.8556,-0.1426 1.28341,-0.1426c0.3565,0 0.713,0 1.06951,0.0713c0.3565,0.0713 0.713,0.2139 0.99821,0.3565c0.2852,0.2139 0.4991,0.4278 0.713,0.7843s0.2852,0.7843 0.2852,1.35471l0,4.34932c0,0.4278 0.2139,0.6417 0.5704,0.6417c0.1426,0 0.2139,0 0.2852,-0.0713l0,0.8556c-0.1426,0 -0.2139,0.0713 -0.2852,0.0713c-0.0713,0 -0.2139,0 -0.3565,0c-0.2852,0 -0.4278,0 -0.6417,-0.0713c-0.1426,-0.0713 -0.2852,-0.1426 -0.3565,-0.2852c-0.0713,-0.1426 -0.1426,-0.2852 -0.1426,-0.4278c0,-0.1426 -0.0713,-0.3565 -0.0713,-0.5704l0,0c-0.2139,0.2852 -0.3565,0.4991 -0.5704,0.713c-0.2139,0.2139 -0.4278,0.3565 -0.6417,0.4991c-0.2139,0.1426 -0.4991,0.2139 -0.7843,0.2852s-0.6417,0.1426 -1.06951,0.1426c-0.3565,0 -0.713,-0.0713 -1.06951,-0.1426c-0.3565,-0.0713 -0.6417,-0.2139 -0.8556,-0.4278c-0.2852,-0.2139 -0.4278,-0.4278 -0.5704,-0.7843c-0.1426,-0.2852 -0.2139,-0.6417 -0.2139,-1.06951c0,-0.5704 0.1426,-0.99821 0.3565,-1.35471c0.2852,-0.3565 0.5704,-0.5704 0.99821,-0.713c0.4278,-0.1426 0.9269,-0.2852 1.42601,-0.3565c0.4991,-0.0713 1.06951,-0.1426 1.56861,-0.2139c0.2139,0 0.4278,-0.0713 0.5704,-0.0713c0.1426,0 0.2852,-0.0713 0.4278,-0.1426c0.0713,-0.0713 0.2139,-0.2139 0.2139,-0.3565c0.0713,-0.1426 0.0713,-0.2852 0.0713,-0.5704c0,-0.3565 -0.0713,-0.6417 -0.1426,-0.8556c-0.1426,-0.2139 -0.2852,-0.3565 -0.4278,-0.4991c-0.2139,-0.1426 -0.4278,-0.2139 -0.713,-0.2852c-0.2852,-0.0713 -0.5704,-0.0713 -0.8556,-0.0713c-0.6417,0 -1.14081,0.1426 -1.56861,0.4278c-0.4278,0.2852 -0.6417,0.7843 -0.6417,1.42601l-0.99821,0c0.1426,-0.3565 0.2139,-0.7843 0.4278,-1.14081zm4.99103,2.49551c-0.0713,0.1426 -0.2139,0.2139 -0.3565,0.2852c-0.2139,0.0713 -0.3565,0.0713 -0.4991,0.1426c-0.4278,0.0713 -0.8556,0.1426 -1.28341,0.2139c-0.4278,0.0713 -0.8556,0.1426 -1.21211,0.2852c-0.3565,0.1426 -0.713,0.2852 -0.9269,0.4991c-0.2139,0.2139 -0.3565,0.4991 -0.3565,0.9269c0,0.2852 0.0713,0.4991 0.1426,0.713c0.0713,0.2139 0.2139,0.3565 0.4278,0.4991c0.1426,0.1426 0.3565,0.2852 0.5704,0.3565c0.2139,0.0713 0.4278,0.1426 0.713,0.1426c0.3565,0 0.7843,-0.0713 1.06951,-0.1426c0.3565,-0.1426 0.6417,-0.2852 0.9269,-0.4991c0.2852,-0.2139 0.4991,-0.4991 0.6417,-0.7843c0.1426,-0.2852 0.2139,-0.713 0.2139,-1.06951l-0.0713,-1.56861l0,0z" fill="#444445"/>
     <path stroke="null" id="svg_8" d="m73.90382,29.27802l0,0.8556l-6.84484,0l0,-0.8556l5.34753,-6.55963l-4.99103,0l0,-0.8556l6.27443,0l0,0.713l-5.41883,6.70224l5.63273,0z" fill="#444445"/>
     <path stroke="null" id="svg_9" d="m80.24955,22.00538c0.4991,0.2139 0.8556,0.5704 1.21211,0.9269c0.3565,0.4278 0.5704,0.8556 0.7843,1.35471c0.1426,0.4991 0.2852,1.06951 0.2852,1.71121c0,0.5704 -0.0713,1.14081 -0.2852,1.71121c-0.1426,0.4991 -0.4278,0.99821 -0.7843,1.35471c-0.3565,0.4278 -0.713,0.713 -1.21211,0.9269c-0.4991,0.2139 -1.06951,0.3565 -1.63991,0.3565c-0.6417,0 -1.21211,-0.1426 -1.63991,-0.3565c-0.4991,-0.2139 -0.8556,-0.5704 -1.21211,-0.9269c-0.3565,-0.4278 -0.5704,-0.8556 -0.7843,-1.35471c-0.1426,-0.4991 -0.2852,-1.06951 -0.2852,-1.71121c0,-0.5704 0.0713,-1.14081 0.2852,-1.71121c0.1426,-0.4991 0.4278,-0.99821 0.7843,-1.35471c0.3565,-0.4278 0.713,-0.713 1.21211,-0.9269c0.4991,-0.2139 1.06951,-0.3565 1.63991,-0.3565c0.6417,0 1.21211,0.1426 1.63991,0.3565zm-2.92332,0.7843c-0.3565,0.2139 -0.6417,0.4991 -0.9269,0.7843c-0.2139,0.3565 -0.4278,0.713 -0.5704,1.14081c-0.1426,0.4278 -0.2139,0.8556 -0.2139,1.28341c0,0.4278 0.0713,0.8556 0.2139,1.28341c0.1426,0.4278 0.2852,0.7843 0.5704,1.14081c0.2139,0.3565 0.5704,0.5704 0.9269,0.7843c0.3565,0.2139 0.7843,0.2852 1.28341,0.2852c0.4991,0 0.9269,-0.0713 1.28341,-0.2852c0.3565,-0.2139 0.6417,-0.4991 0.9269,-0.7843c0.2139,-0.3565 0.4278,-0.713 0.5704,-1.14081c0.1426,-0.4278 0.2139,-0.8556 0.2139,-1.28341c0,-0.4278 -0.0713,-0.8556 -0.2139,-1.28341c-0.1426,-0.4278 -0.2852,-0.7843 -0.5704,-1.14081c-0.2139,-0.3565 -0.5704,-0.5704 -0.9269,-0.7843c-0.3565,-0.2139 -0.7843,-0.2852 -1.28341,-0.2852c-0.4991,0 -0.9269,0.0713 -1.28341,0.2852z" fill="#444445"/>
     <path stroke="null" id="svg_10" d="m85.02668,21.86278l0,1.42601l0,0c0.2139,-0.4991 0.4991,-0.9269 0.99821,-1.21211c0.4991,-0.2852 0.99821,-0.4278 1.63991,-0.4278c0.5704,0 1.06951,0.0713 1.42601,0.2139c0.3565,0.1426 0.713,0.3565 0.9269,0.6417c0.2139,0.2852 0.4278,0.5704 0.4991,0.99821c0.0713,0.4278 0.1426,0.8556 0.1426,1.35471l0,5.27623l-0.99821,0l0,-5.13363c0,-0.3565 0,-0.713 -0.0713,-0.99821c-0.0713,-0.2852 -0.1426,-0.5704 -0.3565,-0.7843c-0.1426,-0.2139 -0.3565,-0.4278 -0.6417,-0.4991c-0.2852,-0.1426 -0.6417,-0.2139 -0.99821,-0.2139c-0.4278,0 -0.7843,0.0713 -1.06951,0.2139c-0.2852,0.1426 -0.5704,0.3565 -0.7843,0.5704c-0.2139,0.2852 -0.3565,0.5704 -0.4991,0.9269c-0.1426,0.3565 -0.2139,0.713 -0.2139,1.14081l0,4.77713l-1.06951,0l0,-8.27084l1.06951,0z" fill="#444445"/>
     <path stroke="null" id="svg_11" d="m103.27957,18.72557c0.4991,0 0.99821,0.0713 1.35471,0.2139c0.4278,0.1426 0.7843,0.3565 1.06951,0.713c0.2852,0.2852 0.4991,0.6417 0.6417,0.99821c0.1426,0.3565 0.2139,0.7843 0.2139,1.21211c0,0.6417 -0.1426,1.28341 -0.4278,1.71121c-0.2852,0.4991 -0.713,0.8556 -1.35471,1.14081l0,0c0.2852,0.0713 0.5704,0.2139 0.7843,0.3565c0.2139,0.1426 0.3565,0.3565 0.4991,0.6417c0.1426,0.2139 0.2139,0.4991 0.2852,0.7843c0.0713,0.2852 0.0713,0.5704 0.1426,0.8556c0,0.2139 0,0.4278 0,0.6417c0,0.2139 0,0.4991 0.0713,0.7843c0,0.2852 0.0713,0.4991 0.1426,0.713c0.0713,0.2139 0.1426,0.4278 0.2852,0.5704l-2.49551,0c-0.1426,-0.3565 -0.2139,-0.7843 -0.2852,-1.28341c0,-0.4991 -0.0713,-0.99821 -0.1426,-1.42601c-0.0713,-0.5704 -0.2852,-0.99821 -0.5704,-1.28341c-0.2852,-0.2852 -0.713,-0.4278 -1.35471,-0.4278l-2.49551,0l0,4.42062l-2.49551,0l0,-11.40806l6.13183,0l0,0.0713zm-0.8556,5.13363c0.5704,0 0.99821,-0.1426 1.28341,-0.3565c0.2852,-0.2852 0.4278,-0.6417 0.4278,-1.21211c0,-0.5704 -0.1426,-0.9269 -0.4278,-1.21211c-0.2852,-0.2852 -0.713,-0.3565 -1.28341,-0.3565l-2.78071,0l0,3.20852l2.78071,0l0,-0.0713z" fill="#444445"/>
     <path stroke="null" id="svg_12" d="m110.83741,28.13722c0.3565,0.3565 0.8556,0.4991 1.49731,0.4991c0.4278,0 0.8556,-0.1426 1.21211,-0.3565c0.3565,-0.2139 0.4991,-0.4991 0.6417,-0.713l1.99641,0c-0.2852,0.99821 -0.7843,1.71121 -1.49731,2.13901c-0.6417,0.4278 -1.42601,0.6417 -2.42421,0.6417c-0.6417,0 -1.21211,-0.0713 -1.78251,-0.2852c-0.4991,-0.2139 -0.9269,-0.4991 -1.35471,-0.8556c-0.3565,-0.3565 -0.6417,-0.8556 -0.8556,-1.35471c-0.2139,-0.4991 -0.2852,-1.14081 -0.2852,-1.78251c0,-0.6417 0.0713,-1.21211 0.2852,-1.71121c0.2139,-0.4991 0.4991,-0.99821 0.8556,-1.35471c0.3565,-0.3565 0.7843,-0.713 1.35471,-0.9269c0.4991,-0.2139 1.06951,-0.3565 1.71121,-0.3565c0.713,0 1.28341,0.1426 1.85381,0.4278c0.4991,0.2852 0.9269,0.6417 1.28341,1.06951c0.3565,0.4278 0.5704,0.99821 0.713,1.56861c0.1426,0.5704 0.2139,1.21211 0.1426,1.85381l-5.91793,0c0.0713,0.6417 0.2139,1.14081 0.5704,1.49731zm2.56681,-4.34932c-0.2852,-0.2852 -0.713,-0.4278 -1.21211,-0.4278c-0.3565,0 -0.6417,0.0713 -0.9269,0.2139c-0.2139,0.1426 -0.4278,0.2852 -0.5704,0.4278c-0.1426,0.2139 -0.2139,0.3565 -0.2852,0.5704c-0.0713,0.2139 -0.0713,0.3565 -0.0713,0.5704l3.70762,0c-0.2139,-0.6417 -0.3565,-1.06951 -0.6417,-1.35471z" fill="#444445"/>
     <path stroke="null" id="svg_13" d="m123.45758,29.06412c-0.2852,0.4278 -0.6417,0.7843 -1.06951,0.99821c-0.4278,0.2139 -0.9269,0.2852 -1.42601,0.2852c-0.6417,0 -1.14081,-0.1426 -1.63991,-0.3565c-0.4991,-0.2139 -0.8556,-0.5704 -1.14081,-0.99821c-0.2852,-0.4278 -0.4991,-0.8556 -0.713,-1.42601c-0.1426,-0.4991 -0.2139,-1.06951 -0.2139,-1.63991c0,-0.5704 0.0713,-1.06951 0.2139,-1.56861c0.1426,-0.4991 0.3565,-0.99821 0.713,-1.35471c0.2852,-0.4278 0.713,-0.713 1.14081,-0.9269c0.4278,-0.2139 0.99821,-0.3565 1.56861,-0.3565c0.4991,0 0.9269,0.0713 1.42601,0.2852s0.7843,0.4991 1.06951,0.9269l0,0l0,-4.13542l2.28161,0l0,11.40806l-2.13901,0l-0.0713,-1.14081l0,0zm-0.1426,-4.06412c-0.0713,-0.2852 -0.1426,-0.5704 -0.3565,-0.8556c-0.1426,-0.2139 -0.3565,-0.4278 -0.5704,-0.5704c-0.2139,-0.1426 -0.5704,-0.2139 -0.9269,-0.2139s-0.713,0.0713 -0.9269,0.2139c-0.2852,0.1426 -0.4278,0.3565 -0.6417,0.5704c-0.1426,0.2139 -0.2852,0.4991 -0.3565,0.8556c-0.0713,0.2852 -0.0713,0.6417 -0.0713,0.99821c0,0.2852 0.0713,0.6417 0.1426,0.9269c0.0713,0.2852 0.2139,0.5704 0.3565,0.8556c0.1426,0.2852 0.3565,0.4278 0.6417,0.6417c0.2852,0.1426 0.5704,0.2139 0.9269,0.2139c0.3565,0 0.713,-0.0713 0.9269,-0.2139c0.2852,-0.1426 0.4278,-0.3565 0.5704,-0.5704c0.1426,-0.2852 0.2852,-0.4991 0.2852,-0.8556c0.0713,-0.2852 0.0713,-0.6417 0.0713,-0.99821c0.0713,-0.3565 0,-0.713 -0.0713,-0.99821z" fill="#444445"/>
     <path stroke="null" id="svg_14" d="m129.23291,28.06592c0.0713,0.1426 0.2139,0.2852 0.3565,0.4278c0.1426,0.1426 0.3565,0.2139 0.5704,0.2139c0.2139,0.0713 0.4278,0.0713 0.6417,0.0713c0.1426,0 0.3565,0 0.4991,-0.0713c0.1426,-0.0713 0.3565,-0.0713 0.4991,-0.1426c0.1426,-0.0713 0.2852,-0.2139 0.3565,-0.2852c0.0713,-0.1426 0.1426,-0.2852 0.1426,-0.4991c0,-0.3565 -0.2139,-0.5704 -0.713,-0.7843c-0.4278,-0.1426 -1.06951,-0.3565 -1.92511,-0.4991c-0.3565,-0.0713 -0.6417,-0.1426 -0.99821,-0.2852c-0.2852,-0.0713 -0.5704,-0.2139 -0.8556,-0.4278c-0.2139,-0.1426 -0.4278,-0.3565 -0.5704,-0.6417c-0.1426,-0.2852 -0.2139,-0.5704 -0.2139,-0.9269c0,-0.4991 0.0713,-0.99821 0.2852,-1.28341c0.2139,-0.3565 0.4991,-0.6417 0.8556,-0.7843c0.3565,-0.2139 0.713,-0.3565 1.14081,-0.4278c0.4278,-0.0713 0.8556,-0.1426 1.28341,-0.1426s0.8556,0.0713 1.28341,0.1426c0.4278,0.0713 0.7843,0.2139 1.14081,0.4278c0.3565,0.2139 0.5704,0.4991 0.8556,0.7843c0.2139,0.3565 0.3565,0.7843 0.3565,1.28341l-2.13901,0c0,-0.4278 -0.2139,-0.713 -0.4991,-0.8556c-0.2852,-0.1426 -0.6417,-0.2139 -1.06951,-0.2139c-0.1426,0 -0.2852,0 -0.4278,0c-0.1426,0 -0.2852,0.0713 -0.4278,0.0713c-0.1426,0.0713 -0.2139,0.1426 -0.2852,0.2139c-0.0713,0.0713 -0.1426,0.2139 -0.1426,0.4278c0,0.2139 0.0713,0.3565 0.2139,0.4991c0.1426,0.1426 0.3565,0.2139 0.5704,0.2852c0.2139,0.0713 0.4991,0.1426 0.8556,0.2139c0.2852,0.0713 0.6417,0.1426 0.9269,0.2139c0.3565,0.0713 0.6417,0.1426 0.99821,0.2852c0.2852,0.0713 0.5704,0.2139 0.8556,0.4278c0.2139,0.1426 0.4278,0.4278 0.5704,0.6417c0.1426,0.2852 0.2139,0.5704 0.2139,0.99821c0,0.5704 -0.1426,0.99821 -0.3565,1.35471c-0.2139,0.3565 -0.4991,0.6417 -0.8556,0.8556c-0.3565,0.2139 -0.7843,0.3565 -1.21211,0.4991c-0.4278,0.0713 -0.9269,0.1426 -1.35471,0.1426c-0.4991,0 -0.9269,-0.0713 -1.42601,-0.1426c-0.4278,-0.0713 -0.8556,-0.2852 -1.21211,-0.4991c-0.3565,-0.2139 -0.6417,-0.4991 -0.8556,-0.8556c-0.2139,-0.3565 -0.3565,-0.8556 -0.3565,-1.35471l2.13901,0c0.1426,0.2852 0.2139,0.4278 0.2852,0.6417z" fill="#444445"/>
     <path stroke="null" id="svg_15" d="m138.14546,18.72557l0,4.27802l0.0713,0c0.2852,-0.4991 0.6417,-0.8556 1.06951,-1.06951c0.4278,-0.2139 0.8556,-0.3565 1.28341,-0.3565c0.6417,0 1.06951,0.0713 1.49731,0.2139c0.3565,0.1426 0.713,0.4278 0.9269,0.713s0.3565,0.6417 0.4991,1.06951c0.0713,0.4278 0.1426,0.8556 0.1426,1.42601l0,5.06233l-2.28161,0l0,-4.63452c0,-0.713 -0.0713,-1.21211 -0.2852,-1.49731c-0.2139,-0.3565 -0.5704,-0.4991 -1.14081,-0.4991c-0.6417,0 -1.06951,0.2139 -1.35471,0.5704c-0.2852,0.3565 -0.4278,0.99821 -0.4278,1.78251l0,4.34932l-2.28161,0l0,-11.40806l2.28161,0z" fill="#444445"/>
     <path stroke="null" id="svg_16" d="m145.4181,20.57938l0,-1.85381l2.28161,0l0,1.85381l-2.28161,0zm2.28161,1.28341l0,8.27084l-2.28161,0l0,-8.27084l2.28161,0z" fill="#444445"/>
     <path stroke="null" id="svg_17" d="m148.62661,23.36009l0,-1.49731l1.35471,0l0,-0.6417c0,-0.713 0.2139,-1.35471 0.713,-1.78251c0.4278,-0.4991 1.14081,-0.713 2.06771,-0.713c0.2139,0 0.4278,0 0.6417,0c0.2139,0 0.4278,0 0.5704,0.0713l0,1.71121c-0.2852,0 -0.5704,-0.0713 -0.8556,-0.0713c-0.2852,0 -0.4991,0.0713 -0.6417,0.2139c-0.1426,0.1426 -0.2139,0.3565 -0.2139,0.713l0,0.4991l1.56861,0l0,1.49731l-1.56861,0l0,6.70224l-2.28161,0l0,-6.70224l-1.35471,0z" fill="#444445"/>
     <path stroke="null" id="svg_18" d="m159.32167,21.86278l0,1.49731l-1.63991,0l0,4.06412c0,0.3565 0.0713,0.6417 0.2139,0.7843c0.1426,0.1426 0.3565,0.2139 0.7843,0.2139c0.1426,0 0.2852,0 0.3565,0c0.1426,0 0.2139,0 0.3565,-0.0713l0,1.78251c-0.2139,0 -0.4278,0.0713 -0.6417,0.0713c-0.2139,0 -0.4278,0 -0.713,0c-0.3565,0 -0.713,0 -0.99821,-0.0713c-0.2852,-0.0713 -0.5704,-0.1426 -0.8556,-0.2852c-0.2139,-0.1426 -0.4278,-0.3565 -0.5704,-0.5704c-0.1426,-0.2852 -0.2139,-0.5704 -0.2139,-0.99821l0,-4.84843l-1.35471,0l0,-1.49731l1.35471,0l0,-2.49551l2.28161,0l0,2.49551l1.63991,0l0,-0.0713z" fill="#444445"/>
    </g>
    <g stroke="null" id="Layer_1_1_">
     <polygon stroke="null" id="svg_19" points="24.35005760192871,14.732747077941895 26.48906898498535,15.802250862121582 26.48906898498535,34.126447677612305 24.35005760192871,35.195953369140625 20.92763900756836,25 " fill="#5294CF"/>
     <polygon stroke="null" id="svg_20" points="2.746044397354126,14.732747077941895 0.607032835483551,15.802250862121582 0.607032835483551,34.126447677612305 2.746044397354126,35.195953369140625 8.164874076843262,25 " fill="#205B99"/>
     <polygon stroke="null" id="svg_21" points="13.583701133728027,32.557838439941406 24.35005760192871,35.195953369140625 24.35005760192871,14.732747077941895 13.583701133728027,17.37086009979248 " fill="#205B99"/>
     <polygon stroke="null" id="svg_22" points="13.583701133728027,32.557838439941406 2.746044397354126,35.195953369140625 2.746044397354126,14.732747077941895 13.583701133728027,17.37086009979248 " fill="#5294CF"/>
     <polygon stroke="null" id="svg_23" points="16.150514602661133,39.260074615478516 20.28593635559082,37.19236373901367 20.28593635559082,12.807636260986328 16.150514602661133,10.739925384521484 12.015093803405762,24.286996841430664 " fill="#5294CF"/>
     <polygon stroke="null" id="svg_24" points="10.945588111877441,39.260074615478516 6.810165882110596,37.19236373901367 6.810165882110596,12.807636260986328 10.945588111877441,10.739925384521484 14.653206825256348,25 " fill="#205B99"/>
     <rect stroke="null" id="svg_25" height="28.52015" width="5.20493" fill="#2E73B8" y="10.73993" x="10.94559"/>
    </g>
   </g>
  </g>
 </g>
</svg>