<?xml version="1.0" encoding="UTF-8"?>
<svg width="243px" height="72px" viewBox="0 0 243 72" version="1.1" xmlns="http://www.w3.org/2000/svg" xmlns:xlink="http://www.w3.org/1999/xlink">
    <!-- Generator: Sketch 49.1 (51147) - http://www.bohemiancoding.com/sketch -->
    <title>Group 6</title>
    <desc>Created with Sketch.</desc>
    <defs></defs>
    <g id="Billing" stroke="none" stroke-width="1" fill="none" fill-rule="evenodd">
        <g id="Group-6" transform="translate(1.000000, 1.000000)">
            <g id="Group-4">
                <path d="M69.5,34.75 C69.5,53.942 53.941,69.5 34.75,69.5 C15.558,69.5 0,53.942 0,34.75 C0,15.559 15.558,0 34.75,0 C53.941,0 69.5,15.559 69.5,34.75 Z" id="Stroke-21" stroke="#FFCC00" stroke-width="2"></path>
                <path d="M35,0 C54.191,0 69.75,15.559 69.75,34.75 C69.75,53.942 54.191,69.5 35,69.5" id="Stroke-23" stroke="#000000" stroke-width="2"></path>
                <path d="M52.65725,35.4715 L37.47125,50.6575 C35.75325,52.3755 32.96825,52.3755 31.24925,50.6575 L20.28925,39.6975 C18.57025,37.9785 18.57025,35.1935 20.28925,33.4745 L35.47425,18.2885 C37.19325,16.5705 39.97825,16.5705 41.69725,18.2885 L52.65725,29.2485 C54.37625,30.9675 54.37625,33.7525 52.65725,35.4715" id="Fill-25" fill="#FFD201"></path>
                <polyline id="Stroke-27" stroke="#000000" stroke-width="2" stroke-linecap="square" points="28.021 21 17 32.021 27.308 42.328"></polyline>
                <polyline id="Stroke-29" stroke="#000000" stroke-width="2" stroke-linecap="square" points="40 21 51.021 32.021 40.713 42.328"></polyline>
                <path d="M27,35 L40,35" id="Stroke-31" stroke="#000000" stroke-width="2"></path>
            </g>
            <path d="M98.976,20.408 C101.888,20.408 103.712,21.24 105.504,22.744 L103.328,25.272 C102.08,24.216 100.768,23.672 99.232,23.672 C96.192,23.672 93.824,25.912 93.824,31.896 C93.824,37.72 96.128,40.088 99.296,40.088 C101.184,40.088 102.496,39.192 103.776,38.232 L105.76,40.792 C104.416,42.168 102.112,43.48 99.104,43.48 C93.376,43.48 89.376,39.416 89.376,31.896 C89.376,24.472 93.6,20.408 98.976,20.408 Z M115.232,25.592 C120.224,25.592 123.168,28.984 123.168,34.52 C123.168,39.864 120.192,43.48 115.2,43.48 C110.208,43.48 107.232,40.088 107.232,34.52 C107.232,29.208 110.208,25.592 115.232,25.592 Z M115.232,28.696 C112.832,28.696 111.552,30.52 111.552,34.52 C111.552,38.584 112.8,40.376 115.2,40.376 C117.6,40.376 118.848,38.552 118.848,34.52 C118.848,30.488 117.6,28.696 115.232,28.696 Z M136.032,25.592 C139.072,25.592 140.832,27.512 140.832,30.744 L140.832,43 L136.736,43 L136.736,31.384 C136.736,29.272 135.936,28.664 134.656,28.664 C133.184,28.664 132.096,29.656 131.104,31.224 L131.104,43 L127.008,43 L127.008,26.072 L130.56,26.072 L130.88,28.28 C132.192,26.584 133.888,25.592 136.032,25.592 Z M154.624,25.592 C157.664,25.592 159.424,27.512 159.424,30.744 L159.424,43 L155.328,43 L155.328,31.384 C155.328,29.272 154.528,28.664 153.248,28.664 C151.776,28.664 150.688,29.656 149.696,31.224 L149.696,43 L145.6,43 L145.6,26.072 L149.152,26.072 L149.472,28.28 C150.784,26.584 152.48,25.592 154.624,25.592 Z M178.08,34.136 C178.08,34.68 178.016,35.352 177.984,35.8 L167.36,35.8 C167.648,39.256 169.28,40.376 171.52,40.376 C173.024,40.376 174.272,39.896 175.744,38.872 L177.44,41.208 C175.776,42.552 173.728,43.48 171.168,43.48 C165.92,43.48 163.104,39.992 163.104,34.648 C163.104,29.496 165.824,25.592 170.624,25.592 C175.36,25.592 178.08,28.792 178.08,34.136 Z M174.016,33.144 L174.016,32.952 C174.016,30.168 173.024,28.504 170.72,28.504 C168.8,28.504 167.584,29.784 167.36,33.144 L174.016,33.144 Z M188.672,25.592 C190.88,25.592 192.576,26.2 194.176,27.576 L192.32,30.072 C191.232,29.208 190.208,28.824 188.928,28.824 C186.56,28.824 185.12,30.552 185.12,34.616 C185.12,38.712 186.624,40.152 188.928,40.152 C190.208,40.152 191.104,39.736 192.288,38.84 L194.176,41.528 C192.64,42.776 190.88,43.48 188.704,43.48 C183.808,43.48 180.768,40.088 180.768,34.68 C180.768,29.272 183.808,25.592 188.672,25.592 Z M206.848,42.2 C205.632,43.064 204.096,43.48 202.592,43.48 C199.264,43.448 197.504,41.56 197.504,37.944 L197.504,29.016 L194.848,29.016 L194.848,26.072 L197.504,26.072 L197.504,22.328 L201.6,21.848 L201.6,26.072 L205.536,26.072 L205.12,29.016 L201.6,29.016 L201.6,37.848 C201.6,39.512 202.144,40.184 203.392,40.184 C204.032,40.184 204.672,39.992 205.408,39.544 L206.848,42.2 Z M222.208,39.768 C222.208,44.92 219.36,46.776 215.712,47.96 L214.592,44.92 C217.472,43.8 217.952,42.392 217.952,39.608 L217.952,20.888 L222.208,20.888 L222.208,39.768 Z M233.632,20.408 C236.864,20.408 239.008,21.368 240.928,23.128 L238.784,25.56 C237.248,24.216 235.712,23.64 233.888,23.64 C231.904,23.64 230.464,24.536 230.464,26.264 C230.464,27.864 231.328,28.568 235.008,29.72 C238.88,30.936 241.568,32.536 241.568,36.696 C241.568,40.664 238.464,43.48 233.184,43.48 C229.664,43.48 227.04,42.232 225.216,40.44 L227.456,37.944 C228.992,39.384 230.784,40.216 233.088,40.216 C235.456,40.216 237.152,39.064 237.152,36.92 C237.152,35.064 236.224,34.232 232.768,33.176 C228.128,31.736 226.112,29.88 226.112,26.52 C226.112,22.84 229.28,20.408 233.632,20.408 Z" id="Connect-JS" fill="#000000"></path>
        </g>
    </g>
</svg>