<?xml version="1.0" encoding="UTF-8"?>
<svg width="261px" height="72px" viewBox="0 0 261 72" version="1.1" xmlns="http://www.w3.org/2000/svg" xmlns:xlink="http://www.w3.org/1999/xlink">
    <!-- Generator: Sketch 49.1 (51147) - http://www.bohemiancoding.com/sketch -->
    <title>Group 3</title>
    <desc>Created with Sketch.</desc>
    <defs></defs>
    <g id="Billing" stroke="none" stroke-width="1" fill="none" fill-rule="evenodd">
        <g id="Group-3" transform="translate(1.000000, 1.000000)">
            <g id="Group-5">
                <path d="M69.5004,34.7498 C69.5004,53.9418 53.9414,69.4998 34.7504,69.4998 C15.5584,69.4998 0.0004,53.9418 0.0004,34.7498 C0.0004,15.5588 15.5584,-0.0002 34.7504,-0.0002 C53.9414,-0.0002 69.5004,15.5588 69.5004,34.7498 Z" id="Stroke-1" stroke="#FFCC00" stroke-width="2"></path>
                <path d="M34.7504,-0.0002 C53.9414,-0.0002 69.5004,15.5588 69.5004,34.7498 C69.5004,53.9418 53.9414,69.4998 34.7504,69.4998" id="Stroke-3" stroke="#000000" stroke-width="2"></path>
                <path d="M50.1498,50.0496 L26.5498,50.0496 C24.1198,50.0496 22.1498,48.0796 22.1498,45.6506 L22.1498,27.4496 C22.1498,25.0206 24.1198,23.0496 26.5498,23.0496 L50.1498,23.0496 C52.5808,23.0496 54.5498,25.0206 54.5498,27.4496 L54.5498,45.6506 C54.5498,48.0796 52.5808,50.0496 50.1498,50.0496" id="Fill-5" fill="#FFD201"></path>
                <path d="M29.6879,36.7 C30.0199,35.941 29.6719,35.057 28.9139,34.725 C28.1549,34.394 27.2709,34.741 26.9389,35.5 C26.6079,36.26 26.9549,37.143 27.7139,37.474 C28.4729,37.805 29.3569,37.459 29.6879,36.7" id="Fill-7" fill="#000000"></path>
                <path d="M36.2611,36.7 C36.5921,35.941 36.2451,35.057 35.4861,34.725 C34.7271,34.394 33.8431,34.741 33.5121,35.5 C33.1801,36.26 33.5281,37.143 34.2861,37.474 C35.0451,37.805 35.9291,37.459 36.2611,36.7" id="Fill-9" fill="#000000"></path>
                <path d="M41.7865,34.7254 C41.0265,34.3944 40.1425,34.7414 39.8115,35.4994 C39.4805,36.2594 39.8275,37.1434 40.5865,37.4744 C41.3455,37.8054 42.2285,37.4584 42.5605,36.7004 C42.8915,35.9414 42.5455,35.0574 41.7865,34.7254" id="Fill-11" fill="#000000"></path>
                <path d="M25.7504,19.45 L22.5104,19.45 C20.3224,19.45 18.5504,21.223 18.5504,23.41 L18.5504,28.99 C18.5504,31.178 16.7764,32.95 14.5904,32.95 L11.3504,32.95" id="Stroke-13" stroke="#000000" stroke-width="2"></path>
                <path d="M25.7504,46.45 L22.5104,46.45 C20.3224,46.45 18.5504,44.678 18.5504,42.49 L18.5504,36.91 C18.5504,34.723 16.7764,32.95 14.5904,32.95 L11.3504,32.95" id="Stroke-15" stroke="#000000" stroke-width="2"></path>
                <path d="M43.7504,46.45 L46.9894,46.45 C49.1774,46.45 50.9494,44.678 50.9494,42.49 L50.9494,36.91 C50.9494,34.723 52.7234,32.95 54.9094,32.95 L58.1494,32.95" id="Stroke-17" stroke="#000000" stroke-width="2"></path>
                <path d="M43.7504,19.45 L46.9894,19.45 C49.1774,19.45 50.9494,21.223 50.9494,23.41 L50.9494,28.99 C50.9494,31.178 52.7234,32.95 54.9094,32.95 L58.1494,32.95" id="Stroke-19" stroke="#000000" stroke-width="2"></path>
            </g>
            <path d="M98.976,20.408 C101.888,20.408 103.712,21.24 105.504,22.744 L103.328,25.272 C102.08,24.216 100.768,23.672 99.232,23.672 C96.192,23.672 93.824,25.912 93.824,31.896 C93.824,37.72 96.128,40.088 99.296,40.088 C101.184,40.088 102.496,39.192 103.776,38.232 L105.76,40.792 C104.416,42.168 102.112,43.48 99.104,43.48 C93.376,43.48 89.376,39.416 89.376,31.896 C89.376,24.472 93.6,20.408 98.976,20.408 Z M115.232,25.592 C120.224,25.592 123.168,28.984 123.168,34.52 C123.168,39.864 120.192,43.48 115.2,43.48 C110.208,43.48 107.232,40.088 107.232,34.52 C107.232,29.208 110.208,25.592 115.232,25.592 Z M115.232,28.696 C112.832,28.696 111.552,30.52 111.552,34.52 C111.552,38.584 112.8,40.376 115.2,40.376 C117.6,40.376 118.848,38.552 118.848,34.52 C118.848,30.488 117.6,28.696 115.232,28.696 Z M136.032,25.592 C139.072,25.592 140.832,27.512 140.832,30.744 L140.832,43 L136.736,43 L136.736,31.384 C136.736,29.272 135.936,28.664 134.656,28.664 C133.184,28.664 132.096,29.656 131.104,31.224 L131.104,43 L127.008,43 L127.008,26.072 L130.56,26.072 L130.88,28.28 C132.192,26.584 133.888,25.592 136.032,25.592 Z M154.624,25.592 C157.664,25.592 159.424,27.512 159.424,30.744 L159.424,43 L155.328,43 L155.328,31.384 C155.328,29.272 154.528,28.664 153.248,28.664 C151.776,28.664 150.688,29.656 149.696,31.224 L149.696,43 L145.6,43 L145.6,26.072 L149.152,26.072 L149.472,28.28 C150.784,26.584 152.48,25.592 154.624,25.592 Z M178.08,34.136 C178.08,34.68 178.016,35.352 177.984,35.8 L167.36,35.8 C167.648,39.256 169.28,40.376 171.52,40.376 C173.024,40.376 174.272,39.896 175.744,38.872 L177.44,41.208 C175.776,42.552 173.728,43.48 171.168,43.48 C165.92,43.48 163.104,39.992 163.104,34.648 C163.104,29.496 165.824,25.592 170.624,25.592 C175.36,25.592 178.08,28.792 178.08,34.136 Z M174.016,33.144 L174.016,32.952 C174.016,30.168 173.024,28.504 170.72,28.504 C168.8,28.504 167.584,29.784 167.36,33.144 L174.016,33.144 Z M188.672,25.592 C190.88,25.592 192.576,26.2 194.176,27.576 L192.32,30.072 C191.232,29.208 190.208,28.824 188.928,28.824 C186.56,28.824 185.12,30.552 185.12,34.616 C185.12,38.712 186.624,40.152 188.928,40.152 C190.208,40.152 191.104,39.736 192.288,38.84 L194.176,41.528 C192.64,42.776 190.88,43.48 188.704,43.48 C183.808,43.48 180.768,40.088 180.768,34.68 C180.768,29.272 183.808,25.592 188.672,25.592 Z M206.848,42.2 C205.632,43.064 204.096,43.48 202.592,43.48 C199.264,43.448 197.504,41.56 197.504,37.944 L197.504,29.016 L194.848,29.016 L194.848,26.072 L197.504,26.072 L197.504,22.328 L201.6,21.848 L201.6,26.072 L205.536,26.072 L205.12,29.016 L201.6,29.016 L201.6,37.848 C201.6,39.512 202.144,40.184 203.392,40.184 C204.032,40.184 204.672,39.992 205.408,39.544 L206.848,42.2 Z M227.616,37.88 L220.288,37.88 L218.912,43 L214.528,43 L221.408,20.888 L226.624,20.888 L233.472,43 L228.992,43 L227.616,37.88 Z M226.752,34.68 L223.936,24.12 L221.12,34.68 L226.752,34.68 Z M242.464,20.888 C248.032,20.888 251.424,23.16 251.424,27.928 C251.424,33.016 247.744,35.288 242.752,35.288 L240.16,35.288 L240.16,43 L235.936,43 L235.936,20.888 L242.464,20.888 Z M242.432,32.12 C245.248,32.12 247.008,31.16 247.008,27.928 C247.008,25.144 245.312,23.992 242.432,23.992 L240.16,23.992 L240.16,32.12 L242.432,32.12 Z M259.104,43 L254.848,43 L254.848,20.888 L259.104,20.888 L259.104,43 Z" id="Connect-API" fill="#000000"></path>
        </g>
    </g>
</svg>