<svg width="261" height="72" xmlns="http://www.w3.org/2000/svg" xmlns:svg="http://www.w3.org/2000/svg">
 <!-- Generator: Sketch 49.1 (51147) - http://www.bohemiancoding.com/sketch -->
 <title>Group 6</title>
 <desc>Created with Sketch.</desc>

 <g>
  <title>Layer 1</title>
  <g fill-rule="evenodd" fill="none" id="Billing">
   <g id="Group-6">
    <g id="Group-4">
     <path stroke-width="2" stroke="#FFCC00" id="Stroke-21" d="m79.216,36c0,19.192 -15.559,34.75 -34.75,34.75c-19.192,0 -34.75,-15.558 -34.75,-34.75c0,-19.191 15.558,-34.75 34.75,-34.75c19.191,0 34.75,15.559 34.75,34.75z"/>
     <path stroke-width="2" stroke="#000000" id="Stroke-23" d="m44.716,1.25c19.191,0 34.75,15.559 34.75,34.75c0,19.192 -15.559,34.75 -34.75,34.75"/>
     <path fill="#FFD201" id="Fill-25" d="m62.37325,36.7215l-15.186,15.186c-1.718,1.718 -4.503,1.718 -6.222,0l-10.96,-10.96c-1.719,-1.719 -1.719,-4.504 0,-6.223l15.185,-15.186c1.719,-1.718 4.504,-1.718 6.223,0l10.96,10.96c1.719,1.719 1.719,4.504 0,6.223"/>
     <polyline points="37.737003326416016,22.25 26.71600341796875,33.270999908447266 37.02400588989258,43.577999114990234 " stroke-linecap="square" stroke-width="2" stroke="#000000" id="Stroke-27"/>
     <polyline points="49.71600341796875,22.25 60.737003326416016,33.270999908447266 50.42900466918945,43.577999114990234 " stroke-linecap="square" stroke-width="2" stroke="#000000" id="Stroke-29"/>
     <path stroke-width="2" stroke="#000000" id="Stroke-31" d="m36.716,36.25l13,0"/>
    </g>
    <path fill="#000000" id="Connect-JS" d="m108.692,21.658c2.912,0 4.736,0.832 6.528,2.336l-2.176,2.528c-1.248,-1.056 -2.56,-1.6 -4.096,-1.6c-3.04,0 -5.408,2.24 -5.408,8.224c0,5.824 2.304,8.192 5.472,8.192c1.888,0 3.2,-0.896 4.48,-1.856l1.984,2.56c-1.344,1.376 -3.648,2.688 -6.656,2.688c-5.728,0 -9.728,-4.064 -9.728,-11.584c0,-7.424 4.224,-11.488 9.6,-11.488zm16.256,5.184c4.992,0 7.936,3.392 7.936,8.928c0,5.344 -2.976,8.96 -7.968,8.96c-4.992,0 -7.968,-3.392 -7.968,-8.96c0,-5.312 2.976,-8.928 8,-8.928zm0,3.104c-2.4,0 -3.68,1.824 -3.68,5.824c0,4.064 1.248,5.856 3.648,5.856c2.4,0 3.648,-1.824 3.648,-5.856c0,-4.032 -1.248,-5.824 -3.616,-5.824zm20.8,-3.104c3.04,0 4.8,1.92 4.8,5.152l0,12.256l-4.096,0l0,-11.616c0,-2.112 -0.8,-2.72 -2.08,-2.72c-1.472,0 -2.56,0.992 -3.552,2.56l0,11.776l-4.096,0l0,-16.928l3.552,0l0.32,2.208c1.312,-1.696 3.008,-2.688 5.152,-2.688zm18.592,0c3.04,0 4.8,1.92 4.8,5.152l0,12.256l-4.096,0l0,-11.616c0,-2.112 -0.8,-2.72 -2.08,-2.72c-1.472,0 -2.56,0.992 -3.552,2.56l0,11.776l-4.096,0l0,-16.928l3.552,0l0.32,2.208c1.312,-1.696 3.008,-2.688 5.152,-2.688zm23.456,8.544c0,0.544 -0.064,1.216 -0.096,1.664l-10.624,0c0.288,3.456 1.92,4.576 4.16,4.576c1.504,0 2.752,-0.48 4.224,-1.504l1.696,2.336c-1.664,1.344 -3.712,2.272 -6.272,2.272c-5.248,0 -8.064,-3.488 -8.064,-8.832c0,-5.152 2.72,-9.056 7.52,-9.056c4.736,0 7.456,3.2 7.456,8.544zm-4.064,-0.992l0,-0.192c0,-2.784 -0.992,-4.448 -3.296,-4.448c-1.92,0 -3.136,1.28 -3.36,4.64l6.656,0zm14.656,-7.552c2.208,0 3.904,0.608 5.504,1.984l-1.856,2.496c-1.088,-0.864 -2.112,-1.248 -3.392,-1.248c-2.368,0 -3.808,1.728 -3.808,5.792c0,4.096 1.504,5.536 3.808,5.536c1.28,0 2.176,-0.416 3.36,-1.312l1.888,2.688c-1.536,1.248 -3.296,1.952 -5.472,1.952c-4.896,0 -7.936,-3.392 -7.936,-8.8c0,-5.408 3.04,-9.088 7.904,-9.088zm18.176,16.608c-1.216,0.864 -2.752,1.28 -4.256,1.28c-3.328,-0.032 -5.088,-1.92 -5.088,-5.536l0,-8.928l-2.656,0l0,-2.944l2.656,0l0,-3.744l4.096,-0.48l0,4.224l3.936,0l-0.416,2.944l-3.52,0l0,8.832c0,1.664 0.544,2.336 1.792,2.336c0.64,0 1.28,-0.192 2.016,-0.64l1.44,2.656zm15.36,-2.432c0,5.152 -2.848,7.008 -6.496,8.192l-1.12,-3.04c2.88,-1.12 3.36,-2.528 3.36,-5.312l0,-18.72l4.256,0l0,18.88zm11.424,-19.36c3.232,0 5.376,0.96 7.296,2.72l-2.144,2.432c-1.536,-1.344 -3.072,-1.92 -4.896,-1.92c-1.984,0 -3.424,0.896 -3.424,2.624c0,1.6 0.864,2.304 4.544,3.456c3.872,1.216 6.56,2.816 6.56,6.976c0,3.968 -3.104,6.784 -8.384,6.784c-3.52,0 -6.144,-1.248 -7.968,-3.04l2.24,-2.496c1.536,1.44 3.328,2.272 5.632,2.272c2.368,0 4.064,-1.152 4.064,-3.296c0,-1.856 -0.928,-2.688 -4.384,-3.744c-4.64,-1.44 -6.656,-3.296 -6.656,-6.656c0,-3.68 3.168,-6.112 7.52,-6.112z"/>
   </g>
  </g>
 </g>
</svg>